<?xml version="1.0" encoding="utf-8"?>
<!-- Generator: Adobe Illustrator 22.0.1, SVG Export Plug-In . SVG Version: 6.00 Build 0)  -->
<svg version="1.1" id="Layer_1" xmlns="http://www.w3.org/2000/svg" xmlns:xlink="http://www.w3.org/1999/xlink" x="0px" y="0px"
	 viewBox="0 0 101.5 184.5" style="enable-background:new 0 0 101.5 184.5;" xml:space="preserve">
<style type="text/css">
	.st0{fill:#FFFFFF;}
	.st1{enable-background:new    ;}
	.st2{fill:#56C02B;}
</style>
<title>TARGET 1 B copy 14</title>
<g id="WHITE_BG">
	<g>
		<rect y="0" class="st0" width="101.5" height="184.2"/>
	</g>
	<g class="st1">
		<path class="st2" d="M88.8,17.1l1.9-10.2h1.9l1.9,10.2h-1.8l-0.3-1.9h-1.8l-0.3,1.9H88.8z M90.9,13.9h1.4l-0.7-4.1h0L90.9,13.9z"
			/>
	</g>
	<g class="st1">
		<path class="st2" d="M77,6.9v10.2h-1.7V9.3h0l-1.2,1.2h0V8.8l1.6-1.8H77z"/>
		<path class="st2" d="M83.3,12.4v2.5c0,1.4-0.7,2.3-2.4,2.3c-1.7,0-2.4-1-2.4-2.5v-1.2H80v1.3c0,0.6,0.2,1,0.8,1
			c0.5,0,0.7-0.4,0.7-0.9v-2.5c0-0.6-0.2-0.9-0.7-0.9c-0.5,0-0.8,0.3-0.8,0.9v0.2h-1.6V6.9H83v1.4h-2.9v2.5h0
			c0.3-0.5,0.8-0.7,1.4-0.7C82.4,10.1,83.3,10.8,83.3,12.4z"/>
	</g>
	<g>
		<polygon class="st2" points="85.4,9.9 85.4,14.1 87.6,12 		"/>
	</g>
</g>
<g id="TARGETS">
	<g>
		<g>
			<path class="st2" d="M7,132.2v-6.4h1v6.4H7z"/>
		</g>
		<g>
			<path class="st2" d="M12.8,132.2l-2.8-4.5v4.5H9.1v-6.4h0.9l2.8,4.5v-4.5h0.9v6.4H12.8z"/>
		</g>
		<g>
			<path class="st2" d="M17.1,125.7c0.5,0,1,0.1,1.5,0.3v0.9c-0.5-0.2-0.9-0.3-1.4-0.3c-1.2,0-1.7,0.8-1.7,2.4s0.5,2.4,1.7,2.4
				c0.5,0,1-0.1,1.4-0.3v0.9c-0.5,0.2-1,0.3-1.5,0.3c-1.9,0-2.6-1.2-2.6-3.3S15.2,125.7,17.1,125.7z"/>
		</g>
		<g>
			<path class="st2" d="M20.4,132.2h-1v-6.4h2.1c1.6,0,2.2,0.7,2.2,1.9c0.1,0.7-0.3,1.4-1,1.7l1.3,2.8h-1.1l-1.2-2.6h-1.3V132.2z
				 M20.4,128.7h1.3c0.9,0,1-0.5,1-1s-0.1-1-1-1h-1.3V128.7z"/>
		</g>
		<g>
			<path class="st2" d="M28.3,129.3h-2.6v2h2.9v0.9h-3.9v-6.4h3.9v0.9h-2.9v1.8h2.6V129.3z"/>
		</g>
		<g>
			<path class="st2" d="M32.5,130.6h-2l-0.5,1.6h-1l2-6.4h1l2,6.4h-1L32.5,130.6z M31.5,127l-0.8,2.8h1.6L31.5,127z"/>
		</g>
		<g>
			<path class="st2" d="M38.5,130.3c0,1.2-0.7,2-2.4,2c-0.6,0-1.3-0.1-1.9-0.4V131c0.6,0.3,1.2,0.4,1.8,0.4c1.2,0,1.5-0.5,1.5-1.1
				s-0.3-0.9-1.2-1c-1.5-0.2-2.2-0.6-2.2-1.8c0-0.9,0.5-1.8,2.3-1.8c0.6,0,1.2,0.1,1.7,0.3v1c-0.5-0.2-1.1-0.3-1.7-0.3
				c-1,0-1.3,0.4-1.3,1c0,0.6,0.4,0.8,1.2,0.9C37.7,128.7,38.5,129,38.5,130.3z"/>
		</g>
		<g>
			<path class="st2" d="M42.8,129.3h-2.7v2H43v0.9h-3.8v-6.4H43v0.9h-2.9v1.8h2.7V129.3z"/>
		</g>
		<g>
			<path class="st2" d="M48.8,129.4h-2.6v2.8h-1v-6.4H49v0.9h-2.9v1.8h2.6V129.4z"/>
		</g>
		<g>
			<path class="st2" d="M49.9,132.2v-6.4h1v6.4H49.9z"/>
		</g>
		<g>
			<path class="st2" d="M55.7,132.2l-2.8-4.5v4.5H52v-6.4h0.9l2.8,4.5v-4.5h0.9v6.4H55.7z"/>
		</g>
		<g>
			<path class="st2" d="M60.6,130.6h-2l-0.5,1.6H57l2-6.4h1l2,6.4h-1L60.6,130.6z M59.6,127l-0.8,2.8h1.6L59.6,127z"/>
		</g>
		<g>
			<path class="st2" d="M66.2,132.2l-2.8-4.5v4.5h-0.9v-6.4h0.9l2.8,4.5v-4.5h0.9v6.4H66.2z"/>
		</g>
		<g>
			<path class="st2" d="M70.6,125.7c0.5,0,1,0.1,1.5,0.3v0.9c-0.5-0.2-0.9-0.3-1.4-0.3c-1.2,0-1.7,0.8-1.7,2.4s0.5,2.4,1.7,2.4
				c0.5,0,1-0.1,1.4-0.3v0.9c-0.5,0.2-1,0.3-1.5,0.3c-1.9,0-2.6-1.2-2.6-3.3S68.7,125.7,70.6,125.7z"/>
		</g>
		<g>
			<path class="st2" d="M73.1,132.2v-6.4h1v6.4H73.1z"/>
		</g>
		<g>
			<path class="st2" d="M78.2,130.6h-2l-0.4,1.6h-1l2-6.4h1l2,6.4h-1L78.2,130.6z M77.2,127l-0.8,2.8H78L77.2,127z"/>
		</g>
		<g>
			<path class="st2" d="M81.2,131.3H84v0.9h-3.8v-6.4h1L81.2,131.3z"/>
		</g>
		<g>
			<path class="st2" d="M7.8,141.2h-1v-6.4H9c1.6,0,2.2,0.7,2.2,1.9c0.1,0.7-0.3,1.4-1,1.7l1.3,2.8h-1.2l-1.1-2.6H7.8V141.2z
				 M7.8,137.7h1.3c0.9,0,1-0.5,1-1s-0.1-1-1-1H7.8V137.7z"/>
		</g>
		<g>
			<path class="st2" d="M15.7,138.3H13v2h3v0.9h-3.9v-6.4H16v0.9h-3v1.8h2.6L15.7,138.3z"/>
		</g>
		<g>
			<path class="st2" d="M21,139.3c0,1.2-0.7,2-2.4,2c-0.6,0-1.3-0.1-1.9-0.4V140c0.6,0.3,1.2,0.4,1.8,0.4c1.1,0,1.5-0.5,1.5-1.1
				s-0.3-0.9-1.2-1c-1.5-0.2-2.2-0.6-2.2-1.8c0-0.9,0.5-1.8,2.3-1.8c0.6,0,1.2,0.1,1.7,0.3v1c-0.5-0.2-1.1-0.3-1.7-0.3
				c-1,0-1.3,0.4-1.3,1s0.4,0.8,1.2,0.9C20.2,137.7,21,138,21,139.3z"/>
		</g>
		<g>
			<path class="st2" d="M21.6,138c0-1.8,0.4-3.3,2.5-3.3s2.5,1.5,2.5,3.3s-0.4,3.3-2.5,3.3S21.6,139.8,21.6,138z M22.6,138
				c0,1.5,0.3,2.4,1.5,2.4s1.5-0.9,1.5-2.4s-0.3-2.4-1.5-2.4S22.5,136.5,22.6,138L22.6,138z"/>
		</g>
		<g>
			<path class="st2" d="M27.2,139.2v-4.4h1v4.3c-0.1,0.7,0.4,1.3,1,1.3c0.1,0,0.2,0,0.3,0c0.6,0.1,1.3-0.3,1.4-1c0-0.1,0-0.2,0-0.3
				v-4.3h1v4.4c0.1,1.1-0.8,2.1-1.9,2.1c-0.1,0-0.3,0-0.4,0c-1.1,0.2-2.1-0.6-2.3-1.7C27.2,139.5,27.2,139.3,27.2,139.2z"/>
		</g>
		<g>
			<path class="st2" d="M33.7,141.2h-1v-6.4h2.1c1.7,0,2.2,0.7,2.2,1.9c0.1,0.7-0.3,1.4-1,1.7l1.3,2.8h-1.1l-1.1-2.6h-1.3V141.2z
				 M33.7,137.7h1.2c0.9,0,1-0.5,1-1s-0.1-1-1-1h-1.2V137.7z"/>
		</g>
		<g>
			<path class="st2" d="M40.3,134.7c0.5,0,1,0.1,1.5,0.3v0.9c-0.5-0.2-0.9-0.3-1.4-0.3c-1.2,0-1.7,0.8-1.7,2.4s0.5,2.4,1.7,2.4
				c0.5,0,1-0.1,1.4-0.3v0.9c-0.5,0.2-1,0.3-1.5,0.3c-1.9,0-2.6-1.2-2.6-3.3S38.4,134.7,40.3,134.7z"/>
		</g>
		<g>
			<path class="st2" d="M46.2,138.3h-2.7v2h2.9v0.9h-3.9v-6.4h3.9v0.9h-2.9v1.8h2.7V138.3z"/>
		</g>
		<g>
			<path class="st2" d="M51.3,139.3c0,1.2-0.7,2-2.4,2c-0.6,0-1.3-0.1-1.9-0.4V140c0.6,0.3,1.2,0.4,1.8,0.4c1.2,0,1.5-0.5,1.5-1.1
				s-0.3-0.9-1.2-1c-1.5-0.2-2.2-0.6-2.2-1.8c0-0.9,0.5-1.8,2.3-1.8c0.6,0,1.2,0.1,1.7,0.3v1c-0.5-0.2-1.1-0.3-1.7-0.3
				c-1,0-1.3,0.4-1.3,1s0.4,0.8,1.2,0.9C50.5,137.7,51.3,138,51.3,139.3z"/>
		</g>
		<g>
			<path class="st2" d="M55.5,135.7v5.5h-1v-5.5h-1.6v-0.9h4.3v0.9H55.5z"/>
		</g>
		<g>
			<path class="st2" d="M57.4,138c0-1.8,0.4-3.3,2.5-3.3s2.5,1.5,2.5,3.3s-0.4,3.3-2.5,3.3S57.4,139.8,57.4,138z M58.4,138
				c0,1.5,0.3,2.4,1.5,2.4s1.5-0.9,1.5-2.4s-0.3-2.4-1.5-2.4S58.4,136.5,58.4,138L58.4,138z"/>
		</g>
		<g>
			<path class="st2" d="M9.4,143.7c0.5,0,1,0.1,1.5,0.3v0.9c-0.5-0.2-0.9-0.3-1.4-0.3c-1.2,0-1.7,0.8-1.7,2.4s0.5,2.4,1.7,2.4
				c0.5,0,1-0.1,1.4-0.3v0.9c-0.5,0.2-1,0.3-1.5,0.3c-1.9,0-2.6-1.2-2.6-3.3S7.5,143.7,9.4,143.7z"/>
		</g>
		<g>
			<path class="st2" d="M11.6,147c0-1.8,0.4-3.3,2.5-3.3s2.4,1.5,2.4,3.3s-0.4,3.3-2.4,3.3S11.6,148.8,11.6,147z M12.6,147
				c0,1.5,0.3,2.4,1.5,2.4s1.5-0.9,1.5-2.4s-0.3-2.4-1.5-2.4S12.6,145.5,12.6,147L12.6,147z"/>
		</g>
		<g>
			<path class="st2" d="M21,150.2l-2.8-4.5v4.5h-0.9v-6.4h0.9l2.8,4.5v-4.5h1v6.4H21z"/>
		</g>
		<g>
			<path class="st2" d="M27,148.3c0,1.2-0.7,2-2.4,2c-0.6,0-1.3-0.1-1.9-0.4V149c0.6,0.3,1.2,0.4,1.8,0.4c1.1,0,1.5-0.5,1.5-1.1
				s-0.3-0.9-1.2-1c-1.5-0.2-2.2-0.6-2.2-1.8c0-0.9,0.5-1.8,2.3-1.8c0.6,0,1.2,0.1,1.7,0.3v1c-0.5-0.2-1.1-0.3-1.7-0.3
				c-1,0-1.3,0.4-1.3,1s0.4,0.8,1.2,0.9C26.3,146.7,27,147,27,148.3z"/>
		</g>
		<g>
			<path class="st2" d="M31.5,147.3h-2.7v2h2.9v0.9h-3.9v-6.4h3.9v0.9h-2.9v1.8h2.7V147.3z"/>
		</g>
		<g>
			<path class="st2" d="M33.5,150.2h-1v-6.4h2.1c1.7,0,2.2,0.7,2.2,1.9c0.1,0.7-0.3,1.4-1,1.7l1.3,2.8H36l-1.2-2.6h-1.3V150.2z
				 M33.5,146.7h1.3c0.9,0,1-0.5,1-1s-0.1-1-1-1h-1.3V146.7z"/>
		</g>
		<g>
			<path class="st2" d="M42,143.8l-2,6.4h-1l-2-6.4h1l1.5,5.2l1.5-5.2H42z"/>
		</g>
		<g>
			<path class="st2" d="M46.1,147.3h-2.6v2h2.9v0.9h-3.9v-6.4h3.9v0.9h-2.9v1.8h2.7L46.1,147.3z"/>
		</g>
		<g>
			<path class="st2" d="M51.8,148.6h-2l-0.5,1.6h-1l2-6.4h1l2,6.4h-1L51.8,148.6z M50.8,145l-0.8,2.8h1.6L50.8,145z"/>
		</g>
		<g>
			<path class="st2" d="M57.5,150.2l-2.8-4.5v4.5h-0.9v-6.4h0.9l2.8,4.5v-4.5h0.9v6.4H57.5z"/>
		</g>
		<g>
			<path class="st2" d="M59.3,150.2v-6.4h1.9c2.1,0,2.7,1.4,2.7,3.2s-0.6,3.2-2.7,3.2H59.3z M60.3,149.3h1c1.3,0,1.7-0.9,1.7-2.3
				s-0.4-2.3-1.7-2.3h-1V149.3z"/>
		</g>
		<g>
			<path class="st2" d="M11.1,157.3c0,1.2-0.7,2-2.4,2c-0.6,0-1.3-0.1-1.9-0.4V158c0.6,0.3,1.2,0.4,1.8,0.4c1.1,0,1.5-0.5,1.5-1.1
				s-0.3-0.9-1.2-1c-1.6-0.2-2.2-0.6-2.2-1.8c0-0.9,0.5-1.8,2.3-1.8c0.6,0,1.2,0.1,1.7,0.3v1c-0.5-0.2-1.1-0.3-1.7-0.3
				c-1,0-1.3,0.4-1.3,1s0.4,0.8,1.2,0.9C10.3,155.7,11.1,156,11.1,157.3z"/>
		</g>
		<g>
			<path class="st2" d="M11.7,157.2v-4.4h1v4.3c-0.1,0.7,0.4,1.3,1.1,1.3c0.1,0,0.2,0,0.3,0c0.6,0.1,1.3-0.3,1.4-1
				c0-0.1,0-0.2,0-0.3v-4.3h1v4.4c0,1.1-0.8,2.1-2,2.1c-0.1,0-0.3,0-0.4,0c-1.1,0.2-2.1-0.6-2.3-1.7
				C11.7,157.5,11.7,157.3,11.7,157.2z"/>
		</g>
		<g>
			<path class="st2" d="M21.4,157.3c0,1.2-0.7,2-2.4,2c-0.6,0-1.3-0.1-1.9-0.4V158c0.6,0.3,1.2,0.4,1.8,0.4c1.1,0,1.5-0.5,1.5-1.1
				s-0.3-0.9-1.1-1c-1.6-0.2-2.2-0.6-2.2-1.8c0-0.9,0.5-1.8,2.3-1.8c0.6,0,1.2,0.1,1.7,0.3v1c-0.5-0.2-1.1-0.3-1.7-0.3
				c-1,0-1.3,0.4-1.3,1s0.4,0.8,1.2,0.9C20.6,155.7,21.4,156,21.4,157.3z"/>
		</g>
		<g>
			<path class="st2" d="M24.2,153.7v5.5h-1v-5.5h-1.7v-0.9h4.3v0.9H24.2z"/>
		</g>
		<g>
			<path class="st2" d="M28.9,157.6h-2l-0.5,1.6h-1l2-6.4h1l2,6.4h-1L28.9,157.6z M27.9,154l-0.8,2.8h1.6L27.9,154z"/>
		</g>
		<g>
			<path class="st2" d="M31.1,159.2v-6.4H32v6.4H31.1z"/>
		</g>
		<g>
			<path class="st2" d="M36.8,159.2l-2.8-4.5v4.5h-0.9v-6.4H34l2.8,4.5v-4.5h0.9v6.4H36.8z"/>
		</g>
		<g>
			<path class="st2" d="M41.7,157.6h-2l-0.5,1.6h-1l2-6.4h1l2,6.4h-1L41.7,157.6z M40.7,154l-0.8,2.8h1.6L40.7,154z"/>
		</g>
		<g>
			<path class="st2" d="M43.7,152.8h2.2c1.5,0,2,0.8,2,1.7c0,0.5-0.3,1-0.8,1.3c0.6,0.2,1.1,0.8,1,1.5c0,1.1-0.5,1.9-2.2,1.9h-2.2
				V152.8z M45.9,153.7h-1.2v1.8h1.2c0.4,0.1,0.9-0.2,0.9-0.7c0-0.1,0-0.1,0-0.2C46.8,154.2,46.7,153.7,45.9,153.7z M44.7,158.3h1.3
				c0.9,0,1.1-0.5,1.1-1s-0.3-1-1.1-1h-1.3L44.7,158.3z"/>
		</g>
		<g>
			<path class="st2" d="M49.7,158.3h2.8v0.9h-3.7v-6.4h1L49.7,158.3z"/>
		</g>
		<g>
			<path class="st2" d="M54.6,156.6v2.6h-1v-2.6l-2.2-3.8h1.1l1.6,3l1.6-3h1.1L54.6,156.6z"/>
		</g>
		<g>
			<path class="st2" d="M58.5,157.2v-4.4h1v4.3c0,0.8,0.6,1.4,1.4,1.4s1.4-0.6,1.4-1.4v-4.3h1v4.4c-0.1,1.3-1.3,2.2-2.6,2.1
				C59.6,159.1,58.8,158.3,58.5,157.2L58.5,157.2z"/>
		</g>
		<g>
			<path class="st2" d="M68.3,157.3c0,1.2-0.7,2-2.4,2c-0.6,0-1.3-0.1-1.9-0.4V158c0.6,0.3,1.2,0.4,1.8,0.4c1.2,0,1.5-0.5,1.5-1.1
				s-0.3-0.9-1.2-1c-1.6-0.2-2.2-0.6-2.2-1.8c0-0.9,0.5-1.8,2.3-1.8c0.6,0,1.2,0.1,1.7,0.3v1c-0.5-0.2-1.1-0.3-1.7-0.3
				c-1,0-1.3,0.4-1.3,1s0.4,0.8,1.2,0.9C67.5,155.7,68.3,156,68.3,157.3z"/>
		</g>
		<g>
			<path class="st2" d="M72.7,156.3H70v2h2.9v0.9h-3.9v-6.4h3.9v0.9H70v1.8h2.7L72.7,156.3z"/>
		</g>
		<g>
			<path class="st2" d="M10.5,165.3H7.8v2h2.9v0.9H6.9v-6.4h3.9v0.9H7.8v1.8h2.6V165.3z"/>
		</g>
		<g>
			<path class="st2" d="M14,161.7c0.5,0,1,0.1,1.5,0.3v0.9c-0.5-0.2-0.9-0.3-1.4-0.3c-1.2,0-1.7,0.8-1.7,2.4s0.5,2.4,1.7,2.4
				c0.5,0,1-0.1,1.4-0.3v0.9c-0.5,0.2-1,0.3-1.5,0.3c-1.9,0-2.6-1.2-2.6-3.3S12.1,161.7,14,161.7z"/>
		</g>
		<g>
			<path class="st2" d="M16.1,165c0-1.8,0.4-3.3,2.5-3.3s2.4,1.5,2.4,3.3s-0.4,3.3-2.5,3.3S16.1,166.8,16.1,165z M17.1,165
				c0,1.5,0.3,2.4,1.5,2.4s1.5-0.9,1.5-2.4s-0.3-2.4-1.5-2.4S17.1,163.5,17.1,165L17.1,165z"/>
		</g>
		<g>
			<path class="st2" d="M26,166.3c0,1.2-0.7,2-2.4,2c-0.6,0-1.3-0.1-1.9-0.4V167c0.6,0.3,1.2,0.4,1.8,0.4c1.1,0,1.5-0.5,1.5-1.1
				s-0.3-0.9-1.2-1c-1.5-0.2-2.1-0.6-2.1-1.8c0-0.9,0.5-1.8,2.3-1.8c0.6,0,1.2,0.1,1.7,0.3v1c-0.5-0.2-1.1-0.3-1.7-0.3
				c-1,0-1.3,0.4-1.3,1s0.4,0.8,1.2,0.9C25.2,164.7,26,165,26,166.3z"/>
		</g>
		<g>
			<path class="st2" d="M29.2,165.6v2.6h-1v-2.6l-2.2-3.8h1.1l1.6,3l1.6-3h1.1L29.2,165.6z"/>
		</g>
		<g>
			<path class="st2" d="M35.8,166.3c0,1.2-0.7,2-2.4,2c-0.6,0-1.3-0.1-1.9-0.4V167c0.6,0.3,1.2,0.4,1.8,0.4c1.2,0,1.5-0.5,1.5-1.1
				s-0.3-0.9-1.2-1c-1.5-0.2-2.2-0.6-2.2-1.8c0-0.9,0.5-1.8,2.3-1.8c0.6,0,1.2,0.1,1.7,0.3v1c-0.5-0.2-1.1-0.3-1.7-0.3
				c-1,0-1.3,0.4-1.3,1s0.4,0.8,1.2,0.9C35,164.7,35.8,165,35.8,166.3z"/>
		</g>
		<g>
			<path class="st2" d="M38.5,162.7v5.5h-1v-5.5h-1.7v-0.9h4.3v0.9H38.5z"/>
		</g>
		<g>
			<path class="st2" d="M44.4,165.3h-2.7v2h2.9v0.9h-3.9v-6.4h3.9v0.9h-2.9v1.8h2.7V165.3z"/>
		</g>
		<g>
			<path class="st2" d="M49,167.3h-0.9l-1.6-3.9v4.8h-1v-6.4h1.2l1.7,4.3l1.7-4.3h1.2v6.4h-1v-4.8L49,167.3z"/>
		</g>
		<g>
			<path class="st2" d="M56.6,166.3c0,1.2-0.7,2-2.4,2c-0.6,0-1.3-0.1-1.9-0.4V167c0.6,0.3,1.2,0.4,1.8,0.4c1.2,0,1.5-0.5,1.5-1.1
				s-0.3-0.9-1.2-1c-1.5-0.2-2.2-0.6-2.2-1.8c0-0.9,0.5-1.8,2.3-1.8c0.6,0,1.2,0.1,1.7,0.3v1c-0.5-0.2-1.1-0.3-1.7-0.3
				c-1,0-1.3,0.4-1.3,1s0.4,0.8,1.2,0.9C55.8,164.7,56.6,165,56.6,166.3z"/>
		</g>
		<g>
			<path class="st2" d="M62,166.6h-2l-0.5,1.6h-1l2-6.4h1l2,6.4h-1L62,166.6z M61,163l-0.8,2.8h1.6L61,163z"/>
		</g>
		<g>
			<path class="st2" d="M67.7,168.2l-2.8-4.5v4.5H64v-6.4h0.9l2.8,4.5v-4.5h1v6.4H67.7z"/>
		</g>
		<g>
			<path class="st2" d="M69.5,168.2v-6.4h1.9c2.1,0,2.7,1.4,2.7,3.2s-0.6,3.2-2.7,3.2H69.5z M70.5,167.3h1c1.3,0,1.7-0.9,1.7-2.3
				s-0.4-2.3-1.7-2.3h-1V167.3z"/>
		</g>
		<g>
			<path class="st2" d="M6.9,170.8H9c1.6,0,2,0.8,2,1.7c0,0.5-0.3,1-0.8,1.3c0.6,0.2,1.1,0.8,1,1.5c0,1.1-0.5,1.9-2.2,1.9H6.9V170.8
				z M9.1,171.7H7.8v1.8h1.2c0.8,0,0.9-0.5,0.9-0.9S9.9,171.7,9.1,171.7z M7.8,176.3h1.3c0.9,0,1.1-0.5,1.1-1s-0.3-1-1.1-1H7.8
				L7.8,176.3z"/>
		</g>
		<g>
			<path class="st2" d="M12.1,177.2v-6.4h1v6.4H12.1z"/>
		</g>
		<g>
			<path class="st2" d="M14.1,174c0-1.8,0.4-3.3,2.5-3.3s2.5,1.5,2.5,3.3s-0.4,3.3-2.5,3.3S14.1,175.8,14.1,174z M15.1,174
				c0,1.5,0.3,2.4,1.5,2.4s1.5-0.9,1.5-2.4s-0.3-2.4-1.5-2.4S15,172.5,15.1,174L15.1,174z"/>
		</g>
		<g>
			<path class="st2" d="M19.7,177.2v-6.4h1.9c2.1,0,2.7,1.4,2.7,3.2s-0.6,3.2-2.7,3.2H19.7z M20.7,176.3h1c1.3,0,1.7-0.9,1.7-2.3
				s-0.4-2.3-1.7-2.3h-1V176.3z"/>
		</g>
		<g>
			<path class="st2" d="M25.2,177.2v-6.4h1v6.4H25.2z"/>
		</g>
		<g>
			<path class="st2" d="M31.8,170.8l-2,6.4h-1l-2-6.4h1l1.5,5.2l1.5-5.2L31.8,170.8z"/>
		</g>
		<g>
			<path class="st2" d="M35.9,174.3h-2.7v2h2.9v0.9h-3.9v-6.4h3.9v0.9h-2.9v1.8h2.7V174.3z"/>
		</g>
		<g>
			<path class="st2" d="M38,177.2h-1v-6.4h2.1c1.6,0,2.2,0.7,2.2,1.9c0.1,0.7-0.3,1.4-1,1.7l1.3,2.8h-1.1l-1.2-2.6H38V177.2z
				 M38,173.7h1.3c0.9,0,1-0.5,1-1s-0.1-1-1-1H38V173.7z"/>
		</g>
		<g>
			<path class="st2" d="M46.3,175.3c0,1.2-0.7,2-2.4,2c-0.6,0-1.3-0.1-1.9-0.4V176c0.6,0.3,1.2,0.4,1.8,0.4c1.2,0,1.5-0.5,1.5-1.1
				s-0.3-0.9-1.2-1c-1.5-0.2-2.2-0.6-2.2-1.8c0-0.9,0.5-1.8,2.3-1.8c0.6,0,1.2,0.1,1.7,0.3v1c-0.5-0.2-1.1-0.3-1.7-0.3
				c-1,0-1.3,0.4-1.3,1s0.4,0.8,1.2,0.9C45.5,173.7,46.3,174,46.3,175.3z"/>
		</g>
		<g>
			<path class="st2" d="M47.1,177.2v-6.4h1v6.4H47.1z"/>
		</g>
		<g>
			<path class="st2" d="M51.3,171.7v5.5h-1v-5.5h-1.7v-0.9H53v0.9H51.3z"/>
		</g>
		<g>
			<path class="st2" d="M56.3,174.6v2.6h-1v-2.6l-2.2-3.8h1.1l1.6,3l1.6-3h1.1L56.3,174.6z"/>
		</g>
	</g>
	<g>
		<rect x="3.3" y="24" class="st2" width="94.8" height="94.8"/>
	</g>
	<g>
		<path class="st2" d="M98.2,20.7H3.3V3.3h94.8V20.7z M4.3,19.7h92.8V4.3H4.3L4.3,19.7z"/>
	</g>
	<g class="st1">
		<path class="st2" d="M6.7,6.9h4.5v1.4H9.9v8.8H8.1V8.3H6.7V6.9z"/>
	</g>
	<g class="st1">
		<path class="st2" d="M11.2,17.1l1.9-10.2h1.9L17,17.1h-1.8l-0.3-1.9h-1.8l-0.3,1.9H11.2z M13.3,13.9h1.4L14,9.8h0L13.3,13.9z"/>
	</g>
	<g class="st1">
		<path class="st2" d="M19.6,12.4v4.7h-1.7V6.9h2.5c1.7,0,2.4,0.9,2.4,2.3v1.3c0,1.1-0.4,1.7-1.4,2l1.6,4.6h-1.8L19.6,12.4z
			 M19.6,8.3v3.2h0.6c0.6,0,0.8-0.3,0.8-0.8V9.2c0-0.6-0.3-0.8-0.8-0.8H19.6z"/>
	</g>
	<g class="st1">
		<path class="st2" d="M26.4,11.7h2.4v5.4h-1.2V16c-0.2,0.8-0.7,1.2-1.6,1.2c-1.5,0-2.1-1.2-2.1-2.7V9.6c0-1.6,0.8-2.7,2.6-2.7
			c1.9,0,2.4,1.1,2.4,2.6v0.9h-1.6v-1c0-0.6-0.2-1-0.9-1c-0.6,0-0.9,0.4-0.9,1v5.5c0,0.6,0.3,1,0.8,1c0.6,0,0.8-0.3,0.8-1V13h-0.8
			V11.7z"/>
	</g>
	<g class="st1">
		<path class="st2" d="M30.2,6.9h4.1v1.4h-2.4v2.9h1.7v1.4h-1.7v3.1h2.4v1.4h-4.1V6.9z"/>
	</g>
	<g class="st1">
		<path class="st2" d="M35.1,6.9h4.5v1.4h-1.4v8.8h-1.7V8.3h-1.4V6.9z"/>
	</g>
	<g>
		<path class="st2" d="M98.2,181h-95v-58.8h95V181z M4.2,180h93v-56.8h-93V180z"/>
	</g>
	<g>
		<g>
			<g>
				<path class="st0" d="M85.6,83.8l0.4-7l-0.9-1.1l-0.4,8.1C85.5,84.1,85.6,83.8,85.6,83.8z"/>
			</g>
			<g>
				<path class="st0" d="M74.6,83.8c0.8,0.3,1,0,1,0l0.3-6.6l-0.8-3L74.6,83.8z"/>
			</g>
			<g>
				<path class="st0" d="M71.7,47.2c0,0.2,0,0.5,0.1,0.7c-1,0.3-1.9,0.8-2.7,1.5c-0.5,0.2-0.9,0.7-0.9,1.3H72l3.1,16.6
					c-0.2,0.7-0.1,1.5,0.1,2.2l3.2,14.2c0.8,0.3,1,0,1,0l-1.2-6.9c-0.7-5.1,0.4-5.5,0.4-5.5h4.6c1,2,2.3,3.9,3.9,5.5l1.3,6.9
					c0.8,0.3,0.9,0,0.9,0l-2.5-14.2l1.2,3.4l0.8,2.2c0,0-0.5,1.3,0.5,1.6L88.6,73l-1-2.9c0,0-0.1-1.4-2.2-2.7l-6.9-4.1l-4.8-14.4
					c0,0,0.9-1.1,0.4-1.2c-0.4,0-0.8,0-1.1,0.2c-0.2,0-0.4,0-0.7,0c0-0.3-0.1-0.6-0.2-0.8c0.1-0.1,0.1-0.2,0.1-0.3
					c0-0.3-0.2-0.5-0.5-0.5s-0.5,0.2-0.5,0.5l0,0C71.3,46.9,71.5,47.1,71.7,47.2z"/>
			</g>
		</g>
		<g>
			<path class="st0" d="M39.7,55h5.6c1.3,0.9,2.7,1.8,3.5,2.3c1.4,0.8,2.4,1.6,3.5,2.4L51,83.2c0,0,0,0.1,0,0.1c0,0,0,0,0,0.1
				c0,0.1,0.1,0.2,0.2,0.2H58c0.1,0,0.2-0.1,0.2-0.3l0,0l0,0l-1.2-24c0.9-0.4,1.9-0.7,2.8-1.1s1.9-0.8,2.8-1.3
				c0.5-0.3,1.1-0.5,1.6-0.8h3.4c0.6,0.1,1.2-0.2,1.3-0.8c0.1-0.6-0.2-1.2-0.8-1.3c-0.2,0-0.3,0-0.5,0H67c0-0.2-0.1-0.4-0.3-0.5
				c-0.7-0.3-1.4-0.4-2.2-0.2c-0.1-0.2-0.2-0.3-0.3-0.4c-0.6-0.6-2.9-0.7-4.1,0c-0.4,0.2-0.7,0.6-0.7,1.1l0,0
				c-0.6-0.1-1.2,0.2-1.3,0.8s0.2,1.2,0.8,1.3c0.2,0,0.3,0,0.5,0h2c-0.7,0.2-1.5,0.3-2.2,0.5c-1,0.3-2,0.5-3,0.9l-1.6-3.6l4.7-3.4
				l4.6,0c1,0,1.8-0.8,1.8-1.8c0-1-0.8-1.8-1.8-1.8h-1.7c-0.1-0.3-0.3-0.6-0.5-0.8c-0.6-0.5-2.3-0.7-3.7-0.5
				c-0.1-0.2-0.3-0.4-0.5-0.5c-0.9-0.8-4-0.9-5.6-0.1c-0.8,0.2-1.2,1.1-0.9,1.8c0,0,0,0,0,0h-1.5c-1,0-1.8,0.8-1.8,1.8
				c0,1,0.8,1.8,1.8,1.8h3l1.9,7.7l-0.4,0.1c-1.3-0.8-2.6-1.4-4-2.1c-0.7-0.3-1.4-0.7-2.2-1.1h2.8c1,0,1.8-0.6,1.8-1.2
				s-0.8-1.2-1.8-1.2h-0.9c-0.1-0.3-0.3-0.6-0.5-0.9c-0.8-0.7-3.6-0.8-5-0.1c-0.4,0.2-0.7,0.5-0.8,0.9h-3.6c-1,0-1.8,0.6-1.8,1.2
				S38.7,55,39.7,55z M57.4,50.5l-3.6,1.8L53,50.4L57.4,50.5z"/>
		</g>
		<g>
			<path class="st0" d="M77.7,39.6l9,4.1l0.9-0.3l-1.7-0.7l-2.4-2.4l0.4-0.6l5.8-3.5l-7-0.4L81,38.3l-2.4-0.5c0,0-2.1,1.3-1.7,2.2
				C77,39.7,77.7,39.6,77.7,39.6z"/>
		</g>
		<g>
			<path class="st0" d="M46.4,104.6L46.4,104.6c9.4,8.7,19.2,1.5,21.3-0.2l0.2-0.2c0.1,0,0.1,0,0.2,0c0.1,0,0.1,0,0.2,0l0.2,0.2
				c2,1.7,11.7,8.8,21,0.4l0.3-0.2c0.1-0.1,0.1-0.2,0.1-0.3v-4.6c0-0.2-0.2-0.4-0.4-0.4c0,0,0,0,0,0c0,0-0.1,0-0.2,0l-0.2,0.1
				c-2.8,2-12.2,7.6-20.5-0.2l-0.1-0.1c-0.1-0.1-0.2-0.1-0.4-0.1c-0.1,0-0.3,0.1-0.3,0.1l-0.1,0.1c-8.2,7.7-17.4,2.4-20.4,0.3
				L47,99.3c-0.1,0-0.2-0.1-0.2-0.1c-0.2,0-0.4,0.2-0.4,0.4v4.6l0,0l0,0C46.3,104.4,46.4,104.5,46.4,104.6z"/>
		</g>
		<g>
			<path class="st0" d="M46.8,90.1h42.7c0.3,0,0.6,0.3,0.6,0.6l0,0v3.6c0,0.3-0.3,0.6-0.6,0.6H46.8"/>
		</g>
		<g>
			<path class="st0" d="M38.7,92.8l-7.2,5.7c-0.1,0.1-0.2,0.1-0.3,0.1c-0.2,0-0.2-0.1-0.2-0.3v-2.9H12.1c-0.1,0-0.3-0.1-0.2-0.3
				c0,0,0,0,0,0v-5c0-0.1,0.1-0.3,0.2-0.3H31v-2.8c0-0.2,0-0.3,0.2-0.3c0.1,0,0.2,0,0.3,0.1l7.2,5.5c0.1,0.1,0.2,0.2,0.2,0.4
				C38.9,92.7,38.8,92.8,38.7,92.8z"/>
		</g>
		<g>
			<g>
				<path class="st0" d="M23.5,80.1c-0.4,0.3-0.8,0.5-1.3,0.6c-1.3,0.4-2.7,0.6-4.1,0.5c-0.7,0-1.3-0.1-2-0.2
					c-0.5-0.1-0.8-0.1-1.2-0.2l-0.6-0.2c-0.6-0.2-1.1-0.4-1.6-0.8c-0.2-0.1-0.3-0.3-0.4-0.5v0.5c0,0.2,0,0.8,0,0.8
					c0,0.3,0.2,0.7,0.5,0.9c0.9,0.7,2,1.1,3.2,1.2c0.8,0.1,1.5,0.2,2.3,0.2c1.1,0,2.2-0.1,3.3-0.4l0,0c0.6-0.1,1.2-0.4,1.7-0.7l0,0
					c0.5-0.3,0.9-0.7,0.9-1.2c0,0,0-1.2,0-1.3C24,79.6,23.7,79.9,23.5,80.1z"/>
			</g>
			<g>
				<path class="st0" d="M17.6,76c3.3,0,6-1,6-2.2c0,0,0.1-1.1,0-1.4c0-0.2,0-0.3-0.1-0.5c0.4-0.2,0.6-0.6,0.7-1c0,0,0.1-1.3,0-1.5
					c-0.2-1.5-3.2-2.3-6-2.3s-6,0.8-6,2.4c0,0.1,0.1,1.4,0.1,1.4c0,0.1,0,0.2,0.1,0.3c-0.4,0.3-0.7,0.7-0.8,1.2
					c0,0.1,0.1,1.4,0.1,1.4c0,0.3,0.2,0.7,0.5,0.9c0.9,0.7,2,1.1,3.2,1.2C16.1,75.9,16.9,76,17.6,76z M18.3,67.7
					c3.2,0,5.4,1,5.4,1.8s-2.2,1.8-5.4,1.8s-5.4-0.9-5.4-1.8S15.1,67.8,18.3,67.7L18.3,67.7z M12.3,72.4c0.1-0.3,0.2-0.5,0.5-0.7
					c0.2,0.2,0.4,0.3,0.6,0.4c1.5,0.7,3.2,1.1,4.9,1c1.4,0,2.9-0.2,4.2-0.7c0.2-0.1,0.3-0.1,0.5-0.2c0,0,0,0.1,0,0.1
					c0,0.8-2.2,1.8-5.4,1.8S12.2,73.3,12.3,72.4L12.3,72.4z"/>
			</g>
			<g>
				<path class="st0" d="M15.9,80.6c0.8,0.1,1.5,0.2,2.3,0.2c1.1,0,2.2-0.1,3.3-0.4l0,0c0.6-0.1,1.2-0.4,1.7-0.7l0,0
					c0.1-0.1,0.3-0.2,0.4-0.3c0.2-0.2,0.3-0.4,0.5-0.6c0-0.1,0.1-0.2,0.1-0.3c0,0,0-1.2,0-1.3c-0.2,0.2-0.7,1-3.1,1.5
					c-1,0.2-2,0.3-3,0.3c-1.6,0-3.3-0.3-4.8-0.9c-0.3-0.1-0.5-0.3-0.8-0.5c-0.1-0.1-0.3-0.3-0.4-0.4c0,0,0,0.6,0,0.6v0.9
					c0,0.3,0.2,0.6,0.5,0.8C13.6,80.1,14.7,80.5,15.9,80.6z"/>
			</g>
			<g>
				<path class="st0" d="M24.1,74.6c0,0-0.1-0.1-0.1-0.1c-0.1-0.1-0.2-0.1-0.2-0.1c-0.1,0.1-0.2,0.3-0.3,0.3l0.2,0.1
					c0.2,0.1,0.3,0.3,0.3,0.5c0,0.2-0.1,0.3-0.2,0.4c-0.1,0.1-0.1,0.1-0.2,0.2L23.1,76c0,0-0.4,0.2-0.5,0.2s-0.4,0.1-0.5,0.2
					l-0.7,0.2l-0.9,0.2l-0.9,0.1l-1.4,0.1c-0.6,0-1.3,0-1.9-0.1c-0.5-0.1-0.9-0.2-1.4-0.2c-0.5-0.1-1-0.3-1.4-0.5
					c-0.3-0.1-0.5-0.3-0.7-0.5c-0.2-0.2-0.4-0.4-0.5-0.6c0,0,0,0.8,0,0.8v0.7c0,0.3,0.2,0.7,0.5,0.9c0.9,0.7,2,1.1,3.2,1.2
					c0.8,0.1,1.5,0.2,2.3,0.2c1.1,0,2.2-0.1,3.3-0.4l0,0c0.6-0.1,1.2-0.4,1.7-0.7l0,0c0.1-0.1,0.3-0.2,0.4-0.3
					c0.2-0.2,0.4-0.4,0.5-0.6c0-0.1,0.1-0.2,0.1-0.3c0,0,0-1.3,0-1.3c0-0.1,0-0.2,0-0.3C24.1,74.7,24.1,74.6,24.1,74.6z"/>
			</g>
			<g>
				<path class="st0" d="M31.4,71.7c3.3,0,6-1,6-2.2c0,0,0.1-1.1,0-1.4c0-0.2-0.1-0.3-0.1-0.5c0.4-0.2,0.6-0.6,0.7-1
					c0,0,0-1.3,0-1.5c-0.2-1.5-3.2-2.3-6-2.3s-6,0.8-6,2.4c0,0.1,0.1,1.4,0.1,1.4c0,0.1,0,0.2,0.1,0.3c-0.4,0.3-0.7,0.7-0.8,1.2
					c0,0.1,0.1,1.4,0.1,1.4c0,0.3,0.2,0.7,0.5,0.9c0.9,0.7,2,1.1,3.2,1.2C29.8,71.7,30.6,71.7,31.4,71.7z M32,63.5
					c3.2,0,5.4,1,5.4,1.8s-2.2,1.8-5.4,1.8s-5.4-1-5.4-1.8S28.8,63.5,32,63.5z M26,68.1c0-0.2,0.2-0.4,0.5-0.7
					c0.2,0.2,0.4,0.3,0.6,0.4c1.6,0.7,3.2,1.1,5,1c1.4,0,2.9-0.2,4.2-0.7c0.2-0.1,0.4-0.1,0.5-0.2c0,0,0,0.1,0,0.1
					c0,0.9-2.2,1.8-5.4,1.8S26,69,26,68.1z"/>
			</g>
			<g>
				<path class="st0" d="M38,70.5c0-0.1-0.1-0.2-0.2-0.2c0-0.1-0.1-0.1-0.2-0.1c-0.1-0.1-0.2-0.1-0.3-0.1c-0.1,0.1-0.2,0.2-0.3,0.3
					c0.1,0,0.2,0.1,0.2,0.1c0.2,0.1,0.3,0.3,0.3,0.4c0,0.2-0.1,0.3-0.2,0.4c-0.1,0.1-0.1,0.1-0.2,0.2l-0.3,0.2l-0.5,0.2l-0.5,0.2
					c0,0-0.5,0.1-0.7,0.2s-0.6,0.1-0.9,0.2l-0.9,0.1c-0.1,0-1,0.1-1.4,0.1c-0.6,0-1.3,0-1.9-0.1c-0.5-0.1-0.9-0.1-1.3-0.2
					c-0.5-0.1-1-0.3-1.4-0.4c-0.3-0.1-0.5-0.3-0.7-0.5c-0.2-0.2-0.3-0.4-0.5-0.6v0.8v0.7c0,0.3,0.2,0.7,0.5,0.9
					c0.9,0.7,2,1.1,3.2,1.2c0.8,0.1,1.6,0.2,2.4,0.2c1.1,0,2.2-0.1,3.3-0.4l0,0c0.6-0.1,1.1-0.4,1.7-0.7l0,0
					c0.1-0.1,0.3-0.2,0.4-0.3c0.2-0.2,0.3-0.4,0.4-0.6c0-0.1,0.1-0.2,0.1-0.3c0,0,0-1.2,0-1.3C38,70.7,38,70.6,38,70.5z"/>
			</g>
			<g>
				<path class="st0" d="M37.2,75.7c-0.4,0.3-0.8,0.5-1.3,0.6c-1.3,0.4-2.7,0.6-4.1,0.5c-0.7,0-1.3-0.1-2-0.2
					c-0.4-0.1-0.8-0.1-1.2-0.2L28,76.3c-0.6-0.2-1.1-0.4-1.6-0.8c-0.2-0.1-0.3-0.3-0.5-0.5v0.5c0,0.2,0,0.8,0,0.8
					c0,0.3,0.2,0.7,0.5,0.9c0.9,0.7,2,1.1,3.2,1.2c0.8,0.1,1.5,0.2,2.3,0.2c1.1,0,2.2-0.1,3.3-0.4l0,0c0.6-0.1,1.2-0.4,1.7-0.7l0,0
					c0.6-0.3,0.9-0.7,0.9-1.2c0,0,0-1.2,0-1.3C37.7,75.3,37.5,75.6,37.2,75.7z"/>
			</g>
			<g>
				<path class="st0" d="M26.5,75.1c0.9,0.7,2,1.1,3.2,1.2c0.8,0.1,1.5,0.2,2.3,0.2c1.1,0,2.2-0.1,3.3-0.4l0,0
					c0.6-0.1,1.2-0.4,1.7-0.7l0,0c0.1-0.1,0.3-0.2,0.4-0.3c0.2-0.1,0.4-0.3,0.5-0.6c0-0.1,0.1-0.2,0.1-0.3c0,0,0-1.2,0-1.3
					c-0.2,0.2-0.7,1-3.1,1.5c-1,0.2-2,0.3-3,0.3c-1.6,0-3.3-0.3-4.8-0.9c-0.3-0.1-0.5-0.3-0.8-0.5c-0.1-0.1-0.3-0.3-0.4-0.4
					c0,0,0,0.6,0,0.6v0.9C26,74.6,26.2,74.9,26.5,75.1z"/>
			</g>
			<g>
				<path class="st0" d="M38,79.3c-0.2,0.3-0.4,0.5-0.7,0.7c-0.4,0.3-0.8,0.5-1.3,0.6c-1.3,0.4-2.7,0.6-4.1,0.5
					c-0.7,0-1.3-0.1-2-0.2c-0.5-0.1-0.8-0.1-1.2-0.2l-0.6-0.2c-0.6-0.2-1.1-0.4-1.6-0.8c-0.2-0.1-0.3-0.3-0.5-0.5v0.5
					c0,0.2,0,0.8,0,0.8c0,0.3,0.2,0.7,0.5,0.9c0.9,0.7,2,1.1,3.2,1.2c0.8,0.1,1.5,0.2,2.3,0.2c1.1,0,2.2-0.1,3.3-0.4l0,0
					c0.6-0.1,1.2-0.4,1.7-0.7l0,0c0.6-0.3,0.9-0.7,0.9-1.2C38,80.7,38,79.4,38,79.3z"/>
			</g>
			<g>
				<path class="st0" d="M29.6,80.6c0.8,0.1,1.5,0.2,2.3,0.2c1.1,0,2.2-0.1,3.3-0.4l0,0c0.6-0.1,1.2-0.4,1.7-0.7l0,0
					c0.1-0.1,0.3-0.2,0.4-0.3c0.2-0.2,0.4-0.4,0.5-0.6c0-0.1,0.1-0.2,0.1-0.3c0,0,0-1.2,0-1.3c-0.2,0.2-0.7,1-3.1,1.5
					c-1,0.2-2,0.3-3,0.3c-1.6,0-3.3-0.3-4.8-0.9c-0.3-0.1-0.5-0.3-0.8-0.5c-0.1-0.1-0.3-0.3-0.4-0.4c0,0,0,0.6,0,0.6v0.9
					c0,0.3,0.2,0.6,0.5,0.8C27.4,80.1,28.5,80.5,29.6,80.6z"/>
			</g>
		</g>
	</g>
</g>
</svg>
