<?xml version="1.0" encoding="utf-8"?>
<!-- Generator: Adobe Illustrator 22.0.1, SVG Export Plug-In . SVG Version: 6.00 Build 0)  -->
<svg version="1.1" id="Layer_1" xmlns="http://www.w3.org/2000/svg" xmlns:xlink="http://www.w3.org/1999/xlink" x="0px" y="0px"
	 viewBox="0 0 101.5 157.1" style="enable-background:new 0 0 101.5 157.1;" xml:space="preserve">
<style type="text/css">
	.st0{fill:#FFFFFF;}
	.st1{fill:#56C02B;}
	.st2{enable-background:new    ;}
</style>
<title>TARGET 1 B copy 16</title>
<g id="WHITE_BG">
	<g>
		<rect y="0" class="st0" width="101.5" height="157.1"/>
	</g>
</g>
<g id="TARGETS">
	<g>
		<g>
			<path class="st1" d="M9.4,125.7c0.5,0,1,0.1,1.5,0.3v0.9c-0.5-0.2-0.9-0.3-1.4-0.3c-1.2,0-1.7,0.8-1.7,2.4s0.5,2.4,1.7,2.4
				c0.5,0,1-0.1,1.4-0.3v0.9c-0.5,0.2-1,0.3-1.5,0.3c-1.9,0-2.6-1.2-2.6-3.3S7.5,125.7,9.4,125.7z"/>
		</g>
		<g>
			<path class="st1" d="M11.6,129c0-1.8,0.4-3.3,2.5-3.3s2.4,1.5,2.4,3.3s-0.4,3.3-2.4,3.3S11.6,130.8,11.6,129z M12.6,129
				c0,1.5,0.3,2.4,1.5,2.4s1.5-0.9,1.5-2.4s-0.3-2.4-1.5-2.4S12.6,127.5,12.6,129L12.6,129z"/>
		</g>
		<g>
			<path class="st1" d="M20.6,131.3h-0.9l-1.6-3.9l0,4.8h-1v-6.4h1.2l1.7,4.3l1.7-4.3h1.2v6.4h-1v-4.8L20.6,131.3z"/>
		</g>
		<g>
			<path class="st1" d="M24.1,125.8h2.1c1.5,0,2,0.8,2,1.7c0,0.5-0.3,1-0.8,1.3c0.6,0.2,1.1,0.8,1,1.5c0,1.1-0.5,1.9-2.2,1.9h-2.2
				L24.1,125.8z M26.2,126.7H25v1.8h1.2c0.8,0,1-0.5,1-0.9S27.1,126.7,26.2,126.7z M25,131.3h1.3c0.9,0,1.1-0.5,1.1-1s-0.3-1-1.1-1
				H25V131.3z"/>
		</g>
		<g>
			<path class="st1" d="M32.2,130.6h-2l-0.5,1.6h-1l2-6.4h1l2,6.4h-1L32.2,130.6z M31.2,127l-0.8,2.8H32L31.2,127z"/>
		</g>
		<g>
			<path class="st1" d="M35.7,126.7v5.5h-1v-5.5h-1.6v-0.9h4.3v0.9H35.7z"/>
		</g>
		<g>
			<path class="st1" d="M39.1,129c0-2,0.7-3.3,2.6-3.3c0.6,0,1.2,0.1,1.8,0.3v1c-0.5-0.2-1.1-0.4-1.7-0.4c-1.3,0-1.8,0.9-1.8,2.4
				s0.5,2.4,1.8,2.4c0.3,0,0.6,0,0.9-0.1v-1.7h-1.1v-0.9h2.1v3.2c-0.6,0.3-1.3,0.4-2,0.4C39.8,132.3,39.1,131,39.1,129z"/>
		</g>
		<g>
			<path class="st1" d="M45.6,131.3h2.8v0.9h-3.7v-6.4h1L45.6,131.3z"/>
		</g>
		<g>
			<path class="st1" d="M48.3,129c0-1.8,0.4-3.3,2.5-3.3s2.5,1.5,2.5,3.3s-0.4,3.3-2.5,3.3S48.3,130.8,48.3,129z M49.3,129
				c0,1.5,0.3,2.4,1.5,2.4s1.5-0.9,1.5-2.4s-0.3-2.4-1.5-2.4S49.3,127.5,49.3,129L49.3,129z"/>
		</g>
		<g>
			<path class="st1" d="M54.1,125.8h2.1c1.6,0,2,0.8,2,1.7c0,0.5-0.3,1-0.8,1.3c0.6,0.2,1.1,0.8,1,1.5c0,1.1-0.5,1.9-2.2,1.9h-2.2
				L54.1,125.8z M56.3,126.7h-1.2v1.8h1.2c0.8,0,1-0.5,1-0.9S57.1,126.7,56.3,126.7z M55.1,131.3h1.3c0.9,0,1.1-0.5,1.1-1
				s-0.3-1-1.1-1h-1.3V131.3z"/>
		</g>
		<g>
			<path class="st1" d="M62.3,130.6h-2l-0.5,1.6h-1l2-6.4h1l2,6.4h-1L62.3,130.6z M61.3,127l-0.8,2.8h1.6L61.3,127z"/>
		</g>
		<g>
			<path class="st1" d="M65.2,131.3H68v0.9h-3.7v-6.4h1L65.2,131.3z"/>
		</g>
		<g>
			<path class="st1" d="M7.8,141.2h-1v-6.4h2.1c1.6,0,2.2,0.9,2.2,2s-0.6,2-2.2,2H7.8V141.2z M7.8,137.9H9c0.6,0.1,1.2-0.4,1.2-1
				c0.1-0.6-0.4-1.2-1-1.2c-0.1,0-0.1,0-0.2,0H7.8V137.9z"/>
		</g>
		<g>
			<path class="st1" d="M11.6,138c0-1.8,0.4-3.3,2.5-3.3s2.5,1.5,2.5,3.3s-0.4,3.3-2.5,3.3S11.6,139.8,11.6,138z M12.6,138
				c0,1.5,0.3,2.4,1.5,2.4s1.5-0.9,1.5-2.4s-0.3-2.4-1.5-2.4S12.5,136.5,12.6,138L12.6,138z"/>
		</g>
		<g>
			<path class="st1" d="M20.2,139.6h-2l-0.5,1.6h-1l2-6.4h1l2,6.4h-1L20.2,139.6z M19.2,136l-0.8,2.8H20L19.2,136z"/>
		</g>
		<g>
			<path class="st1" d="M24.6,134.7c0.5,0,1,0.1,1.5,0.3v0.9c-0.5-0.2-0.9-0.3-1.4-0.3c-1.2,0-1.7,0.8-1.7,2.4s0.5,2.4,1.7,2.4
				c0.5,0,1-0.1,1.4-0.3v0.9c-0.5,0.2-1,0.3-1.5,0.3c-1.9,0-2.6-1.2-2.6-3.3S22.7,134.7,24.6,134.7z"/>
		</g>
		<g>
			<path class="st1" d="M30.5,141.2v-2.9h-2.6v2.9H27v-6.4h1v2.6h2.5v-2.6h1v6.4H30.5z"/>
		</g>
		<g>
			<path class="st1" d="M32.5,141.2v-6.4h1v6.4H32.5z"/>
		</g>
		<g>
			<path class="st1" d="M38.3,141.2l-2.8-4.5v4.5h-1v-6.4h0.9l2.8,4.5v-4.5h1v6.4H38.3z"/>
		</g>
		<g>
			<path class="st1" d="M39.9,138c0-2,0.7-3.3,2.6-3.3c0.6,0,1.3,0.1,1.8,0.3v1c-0.5-0.2-1.1-0.4-1.7-0.4c-1.3,0-1.8,0.9-1.8,2.4
				s0.5,2.4,1.8,2.4c0.3,0,0.6,0,0.9-0.1v-1.7h-1.1v-0.9h2.1v3.2c-0.6,0.3-1.3,0.4-2,0.4C40.6,141.3,39.9,140,39.9,138z"/>
		</g>
		<g>
			<path class="st1" d="M50,139.6h-2l-0.5,1.6h-1l2-6.4h1l2,6.4h-1L50,139.6z M49,136l-0.8,2.8h1.6L49,136z"/>
		</g>
		<g>
			<path class="st1" d="M55.7,141.2l-2.8-4.5v4.5H52v-6.4h0.9l2.8,4.5v-4.5h0.9v6.4H55.7z"/>
		</g>
		<g>
			<path class="st1" d="M57.5,141.2v-6.4h1.9c2.1,0,2.7,1.4,2.7,3.2s-0.6,3.2-2.7,3.2H57.5z M58.5,140.3h1c1.3,0,1.7-0.9,1.7-2.3
				s-0.4-2.3-1.7-2.3h-1V140.3z"/>
		</g>
		<g>
			<path class="st1" d="M9.2,144.7v5.5h-1v-5.5H6.6v-0.9h4.3v0.9H9.2z"/>
		</g>
		<g>
			<path class="st1" d="M12.4,150.2h-1v-6.4h2.1c1.6,0,2.2,0.7,2.2,1.9c0.1,0.7-0.3,1.4-1,1.7l1.4,2.8h-1.1l-1.2-2.6h-1.3V150.2z
				 M12.4,146.7h1.2c0.9,0,1-0.5,1-1s-0.1-1-1-1h-1.2V146.7z"/>
		</g>
		<g>
			<path class="st1" d="M19.7,148.6h-2l-0.5,1.6h-1l2-6.4h1l2,6.4h-1L19.7,148.6z M18.7,145l-0.8,2.8h1.6L18.7,145z"/>
		</g>
		<g>
			<path class="st1" d="M25.3,147.4h-2.6v2.8h-1v-6.4h3.8v0.9h-2.8v1.8h2.6V147.4z"/>
		</g>
		<g>
			<path class="st1" d="M29.7,147.4h-2.6v2.8h-1v-6.4H30v0.9h-2.9v1.8h2.6V147.4z"/>
		</g>
		<g>
			<path class="st1" d="M30.8,150.2v-6.4h1v6.4H30.8z"/>
		</g>
		<g>
			<path class="st1" d="M35.3,143.7c0.5,0,1,0.1,1.5,0.3v0.9c-0.4-0.2-0.9-0.3-1.4-0.3c-1.2,0-1.7,0.8-1.7,2.4s0.5,2.4,1.7,2.4
				c0.5,0,1-0.1,1.4-0.3v0.9c-0.5,0.2-1,0.3-1.5,0.3c-1.9,0-2.6-1.2-2.6-3.3S33.4,143.7,35.3,143.7z"/>
		</g>
		<g>
			<path class="st1" d="M39,147.4l-0.5,0.6v2.2h-1v-6.4h1v3l2.3-3H42l-2.3,2.8l2.6,3.6h-1.2L39,147.4z"/>
		</g>
		<g>
			<path class="st1" d="M42.7,150.2v-6.4h1v6.4H42.7z"/>
		</g>
		<g>
			<path class="st1" d="M48.5,150.2l-2.8-4.5v4.5h-0.9v-6.4h0.9l2.8,4.5v-4.5h1v6.4H48.5z"/>
		</g>
		<g>
			<path class="st1" d="M50.2,147c0-2,0.7-3.3,2.6-3.3c0.6,0,1.3,0.1,1.8,0.3v1c-0.5-0.2-1.1-0.4-1.7-0.4c-1.3,0-1.8,0.9-1.8,2.4
				s0.5,2.4,1.8,2.4c0.3,0,0.6,0,0.9-0.1v-1.7h-1.1v-0.9h2.1v3.2c-0.6,0.3-1.3,0.4-2,0.4C50.9,150.3,50.2,149,50.2,147z"/>
		</g>
	</g>
	<g>
		<rect x="3.3" y="24" class="st1" width="94.8" height="94.8"/>
	</g>
	<g>
		<path class="st1" d="M98.2,20.7H3.3V3.3h94.8V20.7z M4.3,19.7h92.8V4.3H4.3L4.3,19.7z"/>
	</g>
	<g class="st2">
		<path class="st1" d="M6.7,6.9h4.5v1.4H9.9v8.8H8.1V8.3H6.7V6.9z"/>
	</g>
	<g class="st2">
		<path class="st1" d="M11.2,17.1l1.9-10.2h1.9L17,17.1h-1.8l-0.3-1.9h-1.8l-0.3,1.9H11.2z M13.3,13.9h1.4L14,9.8h0L13.3,13.9z"/>
	</g>
	<g class="st2">
		<path class="st1" d="M19.6,12.4v4.7h-1.7V6.9h2.5c1.7,0,2.4,0.9,2.4,2.3v1.3c0,1.1-0.4,1.7-1.4,2l1.6,4.6h-1.8L19.6,12.4z
			 M19.6,8.3v3.2h0.6c0.6,0,0.8-0.3,0.8-0.8V9.2c0-0.6-0.3-0.8-0.8-0.8H19.6z"/>
	</g>
	<g class="st2">
		<path class="st1" d="M26.4,11.7h2.4v5.4h-1.2V16c-0.2,0.8-0.7,1.2-1.6,1.2c-1.5,0-2.1-1.2-2.1-2.7V9.6c0-1.6,0.8-2.7,2.6-2.7
			c1.9,0,2.4,1.1,2.4,2.6v0.9h-1.6v-1c0-0.6-0.2-1-0.9-1c-0.6,0-0.9,0.4-0.9,1v5.5c0,0.6,0.3,1,0.8,1c0.6,0,0.8-0.3,0.8-1V13h-0.8
			V11.7z"/>
	</g>
	<g class="st2">
		<path class="st1" d="M30.2,6.9h4.1v1.4h-2.4v2.9h1.7v1.4h-1.7v3.1h2.4v1.4h-4.1V6.9z"/>
	</g>
	<g class="st2">
		<path class="st1" d="M35.1,6.9h4.5v1.4h-1.4v8.8h-1.7V8.3h-1.4V6.9z"/>
	</g>
	<g class="st2">
		<path class="st1" d="M89.4,14.5V9.6c0-1.6,0.8-2.7,2.5-2.7c1.9,0,2.4,1.1,2.4,2.6v1.2h-1.6V9.2c0-0.6-0.2-1-0.8-1
			c-0.6,0-0.9,0.4-0.9,1v5.5c0,0.6,0.3,1,0.9,1c0.6,0,0.8-0.4,0.8-1v-1.9h1.6v1.8c0,1.5-0.6,2.5-2.4,2.5
			C90.2,17.2,89.4,16.1,89.4,14.5z"/>
	</g>
	<g class="st2">
		<path class="st1" d="M77,6.9v10.2h-1.7V9.3h0l-1.2,1.2h0V8.8l1.6-1.8H77z"/>
		<path class="st1" d="M83.3,12.4v2.5c0,1.4-0.7,2.3-2.4,2.3c-1.7,0-2.4-1-2.4-2.5v-1.2H80v1.3c0,0.6,0.2,1,0.8,1
			c0.5,0,0.7-0.4,0.7-0.9v-2.5c0-0.6-0.2-0.9-0.7-0.9c-0.5,0-0.8,0.3-0.8,0.9v0.2h-1.6V6.9H83v1.4h-2.9v2.5h0
			c0.3-0.5,0.8-0.7,1.4-0.7C82.4,10.1,83.3,10.8,83.3,12.4z"/>
	</g>
	<g>
		<polygon class="st1" points="85.4,9.9 85.4,14.1 87.6,12 		"/>
	</g>
	<g>
		<path class="st1" d="M98.2,153.9h-95v-31.7h95V153.9z M4.2,152.9h93v-29.7h-93V152.9z"/>
	</g>
	<g>
		<g>
			<path class="st0" d="M45,46.5v-3c0-0.1-0.1-0.3-0.3-0.2h-0.2l-0.2,0.1c-2,1.4-8.1,4.9-13.6-0.2l-0.1-0.1C30.5,43,30.5,43,30.4,43
				s-0.2,0-0.2,0.1l-0.1,0.1c-5.6,5.2-11.8,1.5-13.7,0.1l-0.1-0.1l0,0c-0.1,0-0.3,0.1-0.3,0.2c0,0,0,0,0,0.1l0,0v3.1
				c0,0.1,0,0.1,0.1,0.2l0.2,0.2c4.1,3.3,10,3.1,14-0.3l0.1-0.1h0.3l0.1,0.1c4.1,3.4,10,3.5,14.1,0.1l0,0C45,46.8,45,46.7,45,46.5z"
				/>
		</g>
		<g>
			<path class="st0" d="M37.8,42.6c-0.1,0.3-0.2,0.5-0.2,0.8l0,0c0.6,0,5-0.3,6.7-6.4c-1.2,0-2.4,0.3-3.4,0.9
				c-0.7,0.5-1.4,1.2-1.8,2C38.6,40.8,38.1,41.7,37.8,42.6z"/>
		</g>
		<g>
			<path class="st0" d="M37.2,43.5L37.2,43.5L37.2,43.5c0.1-1.7-0.5-3.3-1.5-4.6c-0.5-0.6-1-1.1-1.6-1.5c-0.9-0.5-1.9-0.8-2.9-0.9
				C32.2,42.6,36.3,43.4,37.2,43.5z"/>
		</g>
		<g>
			<path class="st0" d="M39.1,38.9c0-1.7-0.6-3.4-1.8-4.7c-0.8,1.2-1.4,2.6-1.6,4.1c1,1,1.6,2.3,1.8,3.7
				C37.9,40.9,38.5,39.9,39.1,38.9z"/>
		</g>
	</g>
	<g>
		<g>
			<path class="st0" d="M87.6,38.4c-0.5-0.5-0.9-1.1-1.1-1.7v-0.4l-2.2-1.7c0,0-0.1-1.1-0.9-1.3l-0.5,1.5L81.6,35
				c0,0-2.6-0.6-2.8-0.7c-1.6,1.3-2.5,3.3-2.2,5.3c-0.5-1.9-0.1-4,1.1-5.6c-1-0.3-2.2-0.3-3.2,0.1c-0.8,2.3-0.7,4.8,0.2,7.1
				c0,0-2.3-3.7-1.3-6.8L71.6,35c-0.7,1.9-0.8,4-0.2,6c-0.9-1.8-1.2-3.8-0.8-5.8c-0.6,0.1-1.2,0.2-1.8,0.2c-1,1.3-1.4,2.9-0.9,4.5
				c-0.7-1.5-0.7-3.2,0-4.7c-0.7-0.2-1.4-0.3-2.1-0.3c-1.3,1.3-1.8,3.2-1.3,5c-0.8-1.5-0.8-3.3,0-4.8c-1.3,0.2-2.5,0.9-3.3,1.9
				c-1.2,1.3-2.3,2.8-3.3,4.3c0,0-1.9,4.3-5.1,4.5s-2.7-3-2.7-3s1.5-0.8,1.4-1.6s-1.7,0.2-2,1.2s-0.3,4.5,3.5,4.4s7.4-6.4,7.4-6.4
				l0.4,1.2c0.1,0.6-1.5,3.2-1.5,3.5l2.5,4h3.3c0,0-0.6-1.6-1.9-1.5c-0.4-0.8-0.8-1.6-1.1-2.5l3.2-3.1c2.5-0.6,9,1.2,9,1.2l1.1,2.9
				l1.2,1.2l2.1,2h4c0,0-0.3-1.4-2.6-1.9l-1.8-2.1l-0.1-3l4.8-2.6l3.3,1.1c0.4-0.7,0.9-1.3,1.4-1.9L87.6,38.4z"/>
		</g>
		<g>
			<path class="st0" d="M83.4,42.5c-0.7-0.2-2.3-0.7-2.3-0.7l-1.8,0.9v1.1c1,0.2,1.9,0.4,2.8,0.8L81.9,46c1.4,0.6,2.1-1,2.1-1
				c0.2-0.4,0.3-0.8,0.4-1.2C84.5,43.1,84.5,42.8,83.4,42.5z"/>
		</g>
	</g>
	<g>
		<path class="st0" d="M50.3,69.9l-0.5-0.7c1-0.7,1.8-1.5,2.5-2.5c0,0-3.1,0.7-4-0.1l-2.1-3.1c0.5-0.8,0.5-1.7,0.1-2.5
			c-0.2-0.3-0.8-0.7-0.9-0.2V61c-0.2,0.4-0.5,0.8-1,0.9c0-0.4-0.2-0.7-0.4-1c-0.2-0.3-0.8-0.5-0.9-0.1V61c0,0.2-0.1,0.4-0.2,0.5
			l-2.6-1.1c-1.2-0.9-2.7-1.5-4.2-1.6h-1.2c-1.6,0.3-3.1,0.5-4.7,0.6l-7.6,0.3c0,0-6.4,0.2-6.5,3.5l-0.3,10.6
			c1.3,0.9,0.7-1.3,0.6-2.1c0.1-1.1,0.3-2.1,0.7-3.1l1.7,9.6h4.3c0-1-0.6-2-1.6-2.3l0.6-3.1l1.8-1.1c2.3,1.1,4.9,1.2,7.3,0.3
			l1.5,6.2h5.1c-0.2-1.9-2.9-2.4-2.9-2.4l1.3-5.1c0.4-0.1,0.7-0.2,1.1-0.3l0.8-0.2l0.2-0.1c0.7-0.3,1.4-0.7,2.1-1.2
			c0,0,2.3,3,3.3,3.4l3.5,1.6c0.4,0.2,0.9,0.2,1.3-0.1l0.6-0.3c0.4,0,0.8-0.1,1.1-0.3c0.3-0.2,0.6-0.5,0.7-0.8
			c1.9-0.2,5.9-3.6,5.9-3.6L50.3,69.9z"/>
	</g>
	<g>
		<path class="st0" d="M74.9,74.7h-2.2l-1.3-7.5l-0.1,7.5h-2l-1.6-9.1l-0.1,9.1h-6.2v3.4h22.8v-3.4h-5.1L79,67.2l-1.3,7.5h-2.2V63.6
			c0.2,0.2,0.4,0.3,0.6,0.5c1.2,0.9,2.4,1.2,2.7,0.7s-0.3-1.5-1.5-2.4c-0.2-0.1-0.3-0.2-0.5-0.3c0.1-0.1,0.3-0.1,0.4-0.2
			c1.3-0.7,2.1-1.7,1.8-2.2s-1.5-0.3-2.8,0.4l0,0v-0.2c0.1-1.4-0.3-2.7-0.9-2.7s-1.1,1.1-1.2,2.5V60l-0.3-0.2
			c-1.2-0.9-2.4-1.2-2.7-0.8s0.3,1.5,1.5,2.4c0.1,0.1,0.3,0.2,0.4,0.3c-0.1,0.1-0.3,0.1-0.4,0.2c-1.3,0.7-2,1.7-1.8,2.2
			c0.2,0.5,1.5,0.3,2.8-0.4c0.4-0.2,0.8-0.5,1.2-0.8v0.2c0.1,1.2,0.1,2.5,0,3.7L74.9,74.7z M74.5,61.6c0-0.3,0.6-0.5,0.6-0.5
			s0.5,0.3,0.5,0.6c0,0.3-0.3,0.5-0.6,0.5S74.5,61.9,74.5,61.6z"/>
	</g>
	<g>
		<g>
			<path class="st0" d="M61.5,98.4c-1.7,0.7-4.9,1.9-7.5,1.4c-3.7-0.7,0.4,0.6,0.4,0.6c1.3,0.3,2.7,0.3,4,0.1c0.2,3,0.8,6.3,0.8,6.6
				c0,0,0,0.4,0.2,0.4l0.4,0.1c0,0,0.1,0,0.1-0.2c-0.1-1.9,0-3.7,0.2-5.6c0.2-0.7,0.4-1.3,0.8-1.9c0.4-0.2,0.9-0.3,1.3-0.5L62.1,99
				C61.7,98.2,61.5,98.4,61.5,98.4z"/>
		</g>
		<g>
			<path class="st0" d="M86.3,95.5c-0.1-1.7-0.8-3.3-2-4.6c-1.5-1.7-3.6-2.7-5.8-2.8c-3.1-0.2-7.1-0.2-7.1-0.2s-0.7-0.1-0.8,0.8
				c-0.2,2.2-0.7,4.3-1.4,6.4c-0.3,0.8-2,1-2.2,1.1c0,0,1.8-1,2-1.6c0.4-1.9,0.6-3.9,0.6-5.9c-0.2-2-0.2-2.1-0.2-2.1s0-0.5-0.9-0.5
				h-4.2c0,0-0.4-0.1-0.5,0.5s0,0.8-0.8,1c-1.1,0.1-2.2,0.5-3.1,1.2c-1.1,1.6-1.7,3.5-1.7,5.5v0.2c-0.1,1.3,0,2.7,0.3,4
				c1.1-0.1,2.2-0.4,3.2-1c0.7-0.4,1.1,0.6,1.1,0.6c0.1,0.2,0.2,0.5,0.3,0.7c0.1,0.1,0.1,0.3,0,0.4c0,0-0.3,0.1-0.2,0.3
				c0.1,0.2,0.3,0.4,0.6,0.4c0.4,0.1,1.6,1.8,1.6,1.8c0,0.3,0.2,3,0.2,3l0.6,3.8c0,0-1.2,0.9,0.8,0.9h2.1c0,0,0.9,0,0.9-0.6
				l-0.1-3.8l0.6-3c2,1.4,8.4,1.1,8.4,1.1c0.3,0.1,0.5,0.3,0.7,0.5l0.6,2.2l0.2,2.4c0,0-1.3,1.3,0.5,1.3h2c0,0,1,0.1,0.8-0.6
				c-0.3-1,1.2-7.1,1.2-8.7s0.1-4,0.2-4.7c0.2,1.2,0.4,2.3,0.4,3.5c0.1,1.3,0.2,2.6,0.2,3.9c0,0,0.1,1.1,0.2,0.4
				C86.3,100.8,86.6,98.2,86.3,95.5z"/>
		</g>
	</g>
	<g>
		<g>
			<polygon class="st0" points="23.1,92.4 24,109.5 25.7,109.5 			"/>
		</g>
		<g>
			<polygon class="st0" points="35.6,90.8 32,109.5 33.7,109.5 			"/>
		</g>
		<g>
			<polygon class="st0" points="38.3,99 36,109.5 37.6,109.5 			"/>
		</g>
		<g>
			<polygon class="st0" points="41.7,104.1 40.5,109.5 41.3,109.5 			"/>
		</g>
		<g>
			<polygon class="st0" points="20,101.7 20.5,109.5 21.7,109.5 			"/>
		</g>
		<g>
			<path class="st0" d="M29.2,95.4h0.2c0.8,0,1.4-0.6,1.4-1.3c0,0,0,0,0-0.1v-5c0-0.8-0.6-1.4-1.3-1.4c0,0,0,0-0.1,0h-0.3v-2.3
				c0-0.2-0.1-0.3-0.3-0.3c-0.2,0-0.3,0.1-0.3,0.3v2.3h-0.2c-0.8,0-1.4,0.6-1.4,1.3c0,0,0,0,0,0.1v5c0,0.8,0.6,1.4,1.3,1.4
				c0,0,0,0,0.1,0h0.1v14.1h0.8V95.4z"/>
		</g>
	</g>
	<g>
		<rect x="61.4" y="74.7" class="st0" width="22.8" height="3.4"/>
	</g>
</g>
</svg>
