<?xml version="1.0" encoding="utf-8"?>
<!-- Generator: Adobe Illustrator 22.0.1, SVG Export Plug-In . SVG Version: 6.00 Build 0)  -->
<svg version="1.1" id="Layer_1" xmlns="http://www.w3.org/2000/svg" xmlns:xlink="http://www.w3.org/1999/xlink" x="0px" y="0px"
	 viewBox="0 0 101.5 166.3" style="enable-background:new 0 0 101.5 166.3;" xml:space="preserve">
<style type="text/css">
	.st0{fill:#FFFFFF;}
	.st1{fill:#56C02B;}
	.st2{enable-background:new    ;}
</style>
<title>TARGET 1.1</title>
<g id="WHITE_BG">
	<g>
		<rect y="0" class="st0" width="101.5" height="166.2"/>
	</g>
</g>
<g id="TARGETS">
	<g>
		<g>
			<path class="st1" d="M9.4,125.7c0.5,0,1,0.1,1.5,0.3v0.9c-0.5-0.2-0.9-0.3-1.4-0.3c-1.2,0-1.7,0.8-1.7,2.4c0,1.6,0.5,2.4,1.7,2.4
				c0.5,0,1-0.1,1.4-0.3v0.9c-0.5,0.2-1,0.3-1.5,0.3c-1.9,0-2.6-1.2-2.6-3.3S7.5,125.7,9.4,125.7z"/>
		</g>
		<g>
			<path class="st1" d="M11.6,129c0-1.8,0.4-3.3,2.5-3.3s2.4,1.5,2.4,3.3s-0.4,3.3-2.4,3.3S11.6,130.8,11.6,129z M12.6,129
				c0,1.5,0.3,2.4,1.5,2.4s1.5-0.9,1.5-2.4s-0.3-2.4-1.5-2.4S12.6,127.5,12.6,129L12.6,129z"/>
		</g>
		<g>
			<path class="st1" d="M20.9,132.2l-2.8-4.5v4.5h-1v-6.4h0.9l2.8,4.5v-4.5h0.9v6.4H20.9z"/>
		</g>
		<g>
			<path class="st1" d="M26.9,130.3c0,1.2-0.7,2-2.4,2c-0.6,0-1.3-0.1-1.9-0.4v-1c0.6,0.3,1.2,0.4,1.8,0.4c1.1,0,1.5-0.5,1.5-1.1
				s-0.3-0.9-1.2-1c-1.5-0.2-2.1-0.6-2.1-1.8c0-0.9,0.5-1.8,2.3-1.8c0.6,0,1.2,0.1,1.7,0.3v1c-0.5-0.2-1.1-0.3-1.7-0.3
				c-1,0-1.3,0.4-1.3,1s0.4,0.8,1.2,0.9C26.1,128.7,26.9,129,26.9,130.3z"/>
		</g>
		<g>
			<path class="st1" d="M31.3,129.3h-2.6v2h2.9v0.9h-3.9v-6.4h3.9v0.9h-2.9v1.8h2.6V129.3z"/>
		</g>
		<g>
			<path class="st1" d="M33.4,132.2h-1v-6.4h2.1c1.6,0,2.2,0.7,2.2,1.9c0.1,0.7-0.3,1.4-1,1.7l1.4,2.8h-1.1l-1.2-2.6h-1.3V132.2z
				 M33.4,128.7h1.3c0.9,0,1-0.5,1-1s-0.1-1-1-1h-1.3V128.7z"/>
		</g>
		<g>
			<path class="st1" d="M41.9,125.8l-2,6.5h-1l-2-6.5h1l1.5,5.2l1.5-5.2L41.9,125.8z"/>
		</g>
		<g>
			<path class="st1" d="M46,129.3h-2.7v2h2.9v0.9h-3.9v-6.4h3.9v0.9h-2.9v1.8H46V129.3z"/>
		</g>
		<g>
			<path class="st1" d="M51.7,130.6h-2l-0.5,1.6h-1l2-6.4h1l2,6.4h-1L51.7,130.6z M50.7,127l-0.8,2.8h1.6L50.7,127z"/>
		</g>
		<g>
			<path class="st1" d="M57.4,132.2l-2.8-4.5v4.5h-1v-6.4h0.9l2.8,4.5v-4.5h1v6.4H57.4z"/>
		</g>
		<g>
			<path class="st1" d="M59.2,132.2v-6.4h1.9c2.1,0,2.7,1.4,2.7,3.2s-0.6,3.2-2.7,3.2H59.2z M60.2,131.3h1c1.3,0,1.7-0.9,1.7-2.3
				s-0.4-2.3-1.7-2.3h-1V131.3z"/>
		</g>
		<g>
			<path class="st1" d="M7.8,141.2h-1v-6.4H9c1.6,0,2.2,0.7,2.2,1.9c0.1,0.7-0.3,1.4-1,1.7l1.3,2.8h-1.2l-1.1-2.6H7.8V141.2z
				 M7.8,137.7h1.3c0.9,0,1-0.5,1-1s-0.1-1-1-1H7.8V137.7z"/>
		</g>
		<g>
			<path class="st1" d="M15.7,138.3H13v2h3v0.9h-3.9v-6.4H16v0.9h-3v1.8h2.7L15.7,138.3z"/>
		</g>
		<g>
			<path class="st1" d="M21,139.3c0,1.2-0.7,2-2.4,2c-0.6,0-1.3-0.1-1.9-0.4v-1c0.6,0.3,1.2,0.4,1.8,0.4c1.1,0,1.5-0.5,1.5-1.1
				s-0.3-0.9-1.2-1c-1.5-0.2-2.2-0.6-2.2-1.8c0-0.9,0.5-1.9,2.3-1.9c0.6,0,1.2,0.1,1.7,0.3v1c-0.5-0.2-1.1-0.3-1.7-0.3
				c-1,0-1.3,0.4-1.3,1s0.4,0.8,1.2,0.9C20.2,137.7,21,138,21,139.3z"/>
		</g>
		<g>
			<path class="st1" d="M23.7,135.7v5.5h-1v-5.5h-1.7v-0.9h4.3v0.9H23.7z"/>
		</g>
		<g>
			<path class="st1" d="M25.6,138c0-1.8,0.4-3.3,2.5-3.3s2.5,1.5,2.5,3.3s-0.4,3.3-2.5,3.3S25.6,139.8,25.6,138z M26.6,138
				c0,1.5,0.3,2.4,1.5,2.4s1.5-0.9,1.5-2.4s-0.3-2.4-1.5-2.4S26.5,136.5,26.6,138L26.6,138z"/>
		</g>
		<g>
			<path class="st1" d="M32.2,141.2h-1v-6.4h2.1c1.7,0,2.2,0.7,2.2,1.9c0.1,0.7-0.3,1.4-1,1.7l1.3,2.8h-1.1l-1.2-2.6h-1.3V141.2z
				 M32.2,137.7h1.3c0.9,0,1-0.5,1-1s-0.1-1-1-1h-1.3V137.7z"/>
		</g>
		<g>
			<path class="st1" d="M40,138.3h-2.6v2h2.9v0.9h-3.9v-6.4h3.9v0.9h-2.9v1.8H40V138.3z"/>
		</g>
		<g>
			<path class="st1" d="M44.5,135.7v5.5h-1v-5.5h-1.7v-0.9h4.3v0.9H44.5z"/>
		</g>
		<g>
			<path class="st1" d="M50.3,138.3h-2.6v2h2.9v0.9h-3.9v-6.4h3.9v0.9h-2.9v1.8h2.7L50.3,138.3z"/>
		</g>
		<g>
			<path class="st1" d="M52.4,141.2h-1v-6.4h2.1c1.7,0,2.2,0.7,2.2,1.9c0.1,0.7-0.3,1.4-1,1.7l1.3,2.8h-1.1l-1.2-2.6h-1.3V141.2z
				 M52.4,137.7h1.2c0.9,0,1-0.5,1-1s-0.1-1-1-1h-1.2V137.7z"/>
		</g>
		<g>
			<path class="st1" d="M57.6,141.2h-1v-6.4h2.1c1.7,0,2.2,0.7,2.2,1.9c0.1,0.7-0.3,1.4-1,1.7l1.3,2.8h-1.1l-1.2-2.6h-1.3V141.2z
				 M57.6,137.7h1.3c0.9,0,1-0.5,1-1s-0.1-1-1-1h-1.3V137.7z"/>
		</g>
		<g>
			<path class="st1" d="M65.4,138.3h-2.6v2h2.9v0.9h-3.9v-6.4h3.9v0.9h-2.9v1.8h2.6V138.3z"/>
		</g>
		<g>
			<path class="st1" d="M70.7,139.3c0,1.2-0.7,2-2.4,2c-0.6,0-1.3-0.1-1.9-0.4v-1c0.6,0.3,1.2,0.4,1.8,0.4c1.2,0,1.5-0.5,1.5-1.1
				s-0.3-0.9-1.2-1c-1.6-0.2-2.2-0.6-2.2-1.8c0-0.9,0.5-1.9,2.3-1.9c0.6,0,1.2,0.1,1.7,0.3v1c-0.5-0.2-1.1-0.3-1.7-0.3
				c-1,0-1.3,0.4-1.3,1s0.4,0.8,1.2,0.9C70,137.7,70.7,138,70.7,139.3z"/>
		</g>
		<g>
			<path class="st1" d="M73.5,135.7v5.5h-1v-5.5h-1.6v-0.9h4.3v0.9H73.5z"/>
		</g>
		<g>
			<path class="st1" d="M76.8,141.2h-1v-6.4h2.1c1.7,0,2.2,0.7,2.2,1.9c0.1,0.7-0.3,1.4-1,1.7l1.3,2.8h-1.1l-1.2-2.6h-1.3V141.2z
				 M76.8,137.7H78c0.9,0,1-0.5,1-1s-0.1-1-1-1h-1.2V137.7z"/>
		</g>
		<g>
			<path class="st1" d="M81,141.2v-6.4h1v6.4H81z"/>
		</g>
		<g>
			<path class="st1" d="M86.3,139.6h-2l-0.4,1.6h-1l2-6.4h1l2,6.4h-1L86.3,139.6z M85.3,136l-0.8,2.8h1.6L85.3,136z"/>
		</g>
		<g>
			<path class="st1" d="M89.2,140.3H92v0.9h-3.7v-6.4h1L89.2,140.3z"/>
		</g>
		<g>
			<path class="st1" d="M10.1,148.6h-2l-0.4,1.6h-1l2-6.4h1l2,6.4h-1L10.1,148.6z M9.1,145l-0.8,2.8h1.6L9.1,145z"/>
		</g>
		<g>
			<path class="st1" d="M15.8,150.2l-2.8-4.5v4.5h-0.9v-6.4H13l2.8,4.5v-4.5h0.9v6.4L15.8,150.2z"/>
		</g>
		<g>
			<path class="st1" d="M17.6,150.2v-6.4h1.9c2.1,0,2.7,1.4,2.7,3.2s-0.6,3.2-2.7,3.2H17.6z M18.6,149.3h1c1.3,0,1.7-0.9,1.7-2.3
				s-0.4-2.3-1.7-2.3h-1V149.3z"/>
		</g>
		<g>
			<path class="st1" d="M28,147.4h-2.6v2.8h-1v-6.4h3.8v0.9h-2.8v1.8H28V147.4z"/>
		</g>
		<g>
			<path class="st1" d="M29.8,150.2h-1v-6.4h2.1c1.7,0,2.2,0.7,2.2,1.9c0.1,0.7-0.3,1.4-1,1.7l1.3,2.8h-1.2l-1.2-2.6h-1.3V150.2z
				 M29.8,146.7h1.3c0.9,0,1-0.5,1-1s-0.1-1-1-1h-1.3V146.7z"/>
		</g>
		<g>
			<path class="st1" d="M37.6,147.3H35v2h2.9v0.9H34v-6.4h3.9v0.9H35v1.8h2.7L37.6,147.3z"/>
		</g>
		<g>
			<path class="st1" d="M42.9,148.3c0,1.2-0.7,2-2.4,2c-0.6,0-1.3-0.1-1.9-0.4v-1c0.6,0.3,1.2,0.4,1.8,0.4c1.2,0,1.5-0.5,1.5-1.1
				s-0.3-0.9-1.2-1c-1.5-0.2-2.2-0.6-2.2-1.8c0-0.9,0.5-1.9,2.3-1.9c0.6,0,1.2,0.1,1.7,0.3v1c-0.5-0.2-1.1-0.3-1.7-0.3
				c-1,0-1.3,0.4-1.3,1s0.4,0.8,1.2,0.9C42.2,146.7,42.9,147,42.9,148.3z"/>
		</g>
		<g>
			<path class="st1" d="M47.1,150.2v-2.9h-2.6v2.9h-1v-6.4h1v2.6h2.6v-2.6h1v6.4H47.1z"/>
		</g>
		<g>
			<path class="st1" d="M51.7,143.8h1.2l1.1,5l0.8-5h1l-1.2,6.5h-1.2l-1.2-5.3l-1.2,5.3H50l-1.2-6.5h1l0.8,5L51.7,143.8z"/>
		</g>
		<g>
			<path class="st1" d="M59,148.6h-2l-0.5,1.6h-1l2-6.4h1l2,6.4h-1L59,148.6z M58,145l-0.8,2.8h1.6L58,145z"/>
		</g>
		<g>
			<path class="st1" d="M62.5,144.7v5.5h-1v-5.5h-1.6v-0.9h4.3v0.9H62.5z"/>
		</g>
		<g>
			<path class="st1" d="M68.4,147.3h-2.6v2h2.9v0.9h-3.9v-6.4h3.9v0.9h-2.9v1.8h2.7L68.4,147.3z"/>
		</g>
		<g>
			<path class="st1" d="M70.5,150.2h-1v-6.4h2.1c1.7,0,2.2,0.7,2.2,1.9c0.1,0.7-0.3,1.4-1,1.7l1.3,2.8H73l-1.2-2.6h-1.3V150.2z
				 M70.5,146.7h1.3c0.9,0,1-0.5,1-1s-0.1-1-1-1h-1.3V146.7z"/>
		</g>
		<g>
			<path class="st1" d="M10.5,156.3H7.8v2h2.9v0.9H6.9v-6.4h3.9v0.9H7.8v1.8h2.6V156.3z"/>
		</g>
		<g>
			<path class="st1" d="M14,152.7c0.5,0,1,0.1,1.5,0.3v0.9c-0.5-0.2-0.9-0.3-1.4-0.3c-1.2,0-1.7,0.8-1.7,2.4s0.5,2.4,1.7,2.4
				c0.5,0,1-0.1,1.4-0.3v0.9c-0.5,0.2-1,0.3-1.5,0.3c-1.9,0-2.6-1.2-2.6-3.3S12.1,152.7,14,152.7z"/>
		</g>
		<g>
			<path class="st1" d="M16.1,156c0-1.8,0.4-3.3,2.5-3.3s2.5,1.5,2.5,3.3s-0.4,3.3-2.5,3.3S16.1,157.8,16.1,156z M17.1,156
				c0,1.5,0.3,2.4,1.5,2.4s1.4-0.9,1.4-2.4s-0.3-2.4-1.5-2.4S17.1,154.5,17.1,156L17.1,156z"/>
		</g>
		<g>
			<path class="st1" d="M25.9,157.3c0,1.2-0.7,2-2.4,2c-0.6,0-1.3-0.1-1.9-0.3v-1c0.6,0.3,1.2,0.4,1.8,0.4c1.1,0,1.5-0.5,1.5-1.1
				s-0.3-0.9-1.2-1c-1.5-0.2-2.2-0.6-2.2-1.8c0-0.9,0.5-1.9,2.3-1.9c0.6,0,1.2,0.1,1.7,0.3v1c-0.5-0.2-1.1-0.3-1.7-0.3
				c-1,0-1.3,0.4-1.3,1s0.4,0.8,1.2,0.9C25.1,155.7,25.9,156,25.9,157.3z"/>
		</g>
		<g>
			<path class="st1" d="M29.1,156.6v2.6h-1v-2.6l-2.1-3.8h1.1l1.6,3l1.6-3h1.1L29.1,156.6z"/>
		</g>
		<g>
			<path class="st1" d="M35.7,157.3c0,1.2-0.7,2-2.4,2c-0.6,0-1.3-0.1-1.9-0.4v-1c0.6,0.3,1.2,0.4,1.8,0.4c1.2,0,1.5-0.5,1.5-1.1
				s-0.3-0.9-1.2-1c-1.6-0.2-2.2-0.6-2.2-1.8c0-0.9,0.5-1.9,2.3-1.9c0.6,0,1.2,0.1,1.7,0.3v1c-0.5-0.2-1.1-0.3-1.7-0.3
				c-1,0-1.3,0.4-1.3,1s0.4,0.8,1.2,0.9C35,155.7,35.7,156,35.7,157.3z"/>
		</g>
		<g>
			<path class="st1" d="M38.5,153.7v5.5h-1v-5.5h-1.7v-0.9h4.3v0.9H38.5z"/>
		</g>
		<g>
			<path class="st1" d="M44.4,156.3h-2.6v2h2.9v0.9h-3.9v-6.4h3.9v0.9h-2.9v1.8h2.7L44.4,156.3z"/>
		</g>
		<g>
			<path class="st1" d="M48.9,158.3H48l-1.6-3.9l0,4.8h-1v-6.4h1.2l1.7,4.4l1.7-4.4h1.3v6.4h-1v-4.8L48.9,158.3z"/>
		</g>
		<g>
			<path class="st1" d="M56.5,157.3c0,1.2-0.7,2-2.4,2c-0.6,0-1.3-0.1-1.9-0.4v-1c0.6,0.3,1.2,0.4,1.8,0.4c1.1,0,1.5-0.5,1.5-1.1
				s-0.3-0.9-1.2-1c-1.6-0.2-2.2-0.6-2.2-1.8c0-0.9,0.5-1.9,2.3-1.9c0.6,0,1.2,0.1,1.7,0.3v1c-0.5-0.2-1.1-0.3-1.7-0.3
				c-1,0-1.3,0.4-1.3,1s0.4,0.8,1.2,0.9C55.8,155.7,56.5,156,56.5,157.3z"/>
		</g>
	</g>
	<g>
		<rect x="3.3" y="24" class="st1" width="94.8" height="94.8"/>
	</g>
	<g>
		<path class="st1" d="M98.2,20.7H3.3V3.3h94.8V20.7z M4.3,19.7h92.8V4.3H4.3L4.3,19.7z"/>
	</g>
	<g class="st2">
		<path class="st1" d="M6.7,6.9h4.5v1.4H9.9v8.8H8.1V8.3H6.7V6.9z"/>
	</g>
	<g class="st2">
		<path class="st1" d="M11.2,17.1l1.9-10.2h1.9L17,17.1h-1.8l-0.3-1.9h-1.8l-0.3,1.9H11.2z M13.3,13.9h1.4L14,9.8h0L13.3,13.9z"/>
	</g>
	<g class="st2">
		<path class="st1" d="M19.6,12.4v4.7h-1.7V6.9h2.5c1.7,0,2.4,0.9,2.4,2.3v1.3c0,1.1-0.4,1.7-1.4,2l1.6,4.6h-1.8L19.6,12.4z
			 M19.6,8.3v3.2h0.6c0.6,0,0.8-0.3,0.8-0.8V9.2c0-0.6-0.3-0.8-0.8-0.8H19.6z"/>
	</g>
	<g class="st2">
		<path class="st1" d="M26.4,11.7h2.4v5.4h-1.2V16c-0.2,0.8-0.7,1.2-1.6,1.2c-1.5,0-2.1-1.2-2.1-2.7V9.6c0-1.6,0.8-2.7,2.6-2.7
			c1.9,0,2.4,1.1,2.4,2.6v0.9h-1.6v-1c0-0.6-0.2-1-0.9-1c-0.6,0-0.9,0.4-0.9,1v5.5c0,0.6,0.3,1,0.8,1c0.6,0,0.8-0.3,0.8-1V13h-0.8
			V11.7z"/>
	</g>
	<g class="st2">
		<path class="st1" d="M30.2,6.9h4.1v1.4h-2.4v2.9h1.7v1.4h-1.7v3.1h2.4v1.4h-4.1V6.9z"/>
	</g>
	<g class="st2">
		<path class="st1" d="M35.1,6.9h4.5v1.4h-1.4v8.8h-1.7V8.3h-1.4V6.9z"/>
	</g>
	<g class="st2">
		<path class="st1" d="M79.6,6.9v10.2h-1.7V9.3h0l-1.2,1.2h0V8.8l1.6-1.8H79.6z"/>
		<path class="st1" d="M85.8,12.4v2.5c0,1.4-0.7,2.3-2.4,2.3c-1.7,0-2.4-1-2.4-2.5v-1.2h1.6v1.3c0,0.6,0.2,1,0.8,1
			c0.5,0,0.7-0.4,0.7-0.9v-2.5c0-0.6-0.2-0.9-0.7-0.9c-0.5,0-0.8,0.3-0.8,0.9v0.2h-1.6V6.9h4.5v1.4h-2.9v2.5h0
			c0.3-0.5,0.8-0.7,1.4-0.7C85,10.2,85.8,10.8,85.8,12.4z"/>
	</g>
	<g class="st2">
	</g>
	<g class="st2">
		<path class="st1" d="M88.6,10.8c0.7,0,1.2,0.6,1.2,1.2c0,0.7-0.6,1.2-1.2,1.2c-0.7,0-1.2-0.6-1.2-1.2
			C87.3,11.4,87.9,10.8,88.6,10.8z"/>
	</g>
	<g class="st2">
		<path class="st1" d="M94.1,6.9v10.2h-1.7V9.3h0l-1.2,1.2h0V8.8l1.6-1.8H94.1z"/>
	</g>
	<g>
		<path class="st1" d="M98.2,162.9h-95v-40.8h95V162.9z M4.2,161.9h93v-38.8h-93V161.9z"/>
	</g>
	<g>
		<g>
			<polygon class="st0" points="34.8,48.8 50.1,54.6 54.9,50.3 62.4,60.6 69.4,50.6 88.3,78.8 90.8,78.8 90.1,77.6 69.4,46.8 
				62.4,56.9 44.2,31.9 10.7,78.9 13.3,78.9 			"/>
		</g>
		<g>
			<path class="st0" d="M47.3,84.8h1.2c0,0,0.1,0,0.1-0.1V82h2.9c0.1,0,0.2-0.1,0.2-0.2c0,0,0,0,0-0.1l-3.6-11.6l0,0
				c0-0.1-0.1-0.2-0.2-0.2c-0.1,0-0.1,0-0.2,0.1v0.1l-3.6,11.5c0,0,0,0.1,0,0.1c0,0.1,0.1,0.2,0.2,0.2h2.9L47.3,84.8
				C47.3,84.7,47.3,84.8,47.3,84.8z"/>
		</g>
		<g>
			<path class="st0" d="M38,84.8h1.2c0.1,0,0.1,0,0.1-0.1V82h2.9c0.1,0,0.2-0.1,0.2-0.2c0,0,0,0,0-0.1l-3.5-11.6l0,0
				c0-0.1-0.1-0.1-0.2-0.1c-0.1,0-0.1,0-0.2,0.1l0,0.1l-3.6,11.5c0,0,0,0.1,0,0.1c0,0.1,0,0.2,0.1,0.2h2.9L38,84.8
				C37.9,84.7,37.9,84.8,38,84.8C38,84.8,38,84.8,38,84.8z"/>
		</g>
		<g>
			<path class="st0" d="M28.5,84.8h1.2c0,0,0.1,0,0.1-0.1V82h2.9c0.1,0,0.2-0.1,0.2-0.2c0,0,0,0,0-0.1l-3.6-11.6l0,0
				c0-0.1-0.1-0.1-0.2-0.1c-0.1,0-0.1,0-0.2,0.1l0,0.1l-3.6,11.5c0,0,0,0.1,0,0.1c0,0.1,0.1,0.2,0.2,0.2h2.9L28.5,84.8
				C28.5,84.7,28.5,84.8,28.5,84.8z"/>
		</g>
		<g>
			<g>
				<path class="st0" d="M76.1,76.6c1.1,0,2-0.9,2-2s-0.9-2-2-2s-2,0.9-2,2S75,76.6,76.1,76.6z"/>
			</g>
			<g>
				<path class="st0" d="M78.4,77.4h-4.7c-1.4,0.1-2.4,1.3-2.4,2.7v5.6c0,0.4,0.4,0.8,0.8,0.8c0.4,0,0.8-0.3,0.8-0.8v-4.8
					c0-0.2,0-0.4,0.4-0.4s0.3,0.2,0.3,0.4v14.3c0,0.6,0.5,1.1,1.1,1.1s1.1-0.5,1.1-1.1c0,0,0,0,0,0v-8.3c0-0.2,0.1-0.3,0.3-0.3
					c0,0,0,0,0,0l0,0c0.2,0,0.3,0.1,0.3,0.3c0,0,0,0,0,0v8.3c0,0.6,0.5,1.1,1.1,1.1s1.1-0.5,1.1-1.1c0,0,0,0,0,0V80.8
					c0-0.2,0-0.4,0.3-0.4s0.4,0.2,0.4,0.4v4.8c0,0.4,0.4,0.8,0.8,0.8c0.4,0,0.8-0.3,0.8-0.8v-5.6C80.9,78.7,79.8,77.5,78.4,77.4z"/>
			</g>
		</g>
		<g>
			<g>
				<path class="st0" d="M64,77.6c1.1,0,1.9-0.9,1.9-1.9s-0.9-1.9-1.9-1.9s-1.9,0.9-1.9,1.9c0,0,0,0,0,0
					C62.1,76.7,62.9,77.6,64,77.6C64,77.6,64,77.6,64,77.6z"/>
			</g>
			<g>
				<path class="st0" d="M69.4,85.1L67.9,80c0,0-0.6-1.5-1.9-1.5h-4c-1.2,0-1.8,1.5-1.8,1.5l-1.6,5.2c0,0-0.3,0.9,0.5,1.2
					s1-0.7,1-0.7l1.3-4.3c0,0,0.1-0.3,0.3-0.3s0.2,0.4,0.2,0.4l-2.2,8.1h2.1v5.8c0,0.6,0.4,1,1,1s1-0.4,1-1v-5.8h0.6v5.8
					c0,0.6,0.4,1,1,1s1-0.4,1-1v-5.8h2.1l-2.2-8.1c0,0-0.1-0.4,0.2-0.4s0.3,0.3,0.3,0.3l1.3,4.3c0,0,0.2,0.9,1,0.7
					S69.4,85.1,69.4,85.1z"/>
			</g>
		</g>
		<g>
			<path class="st0" d="M90.5,103.5L90.5,103.5l-0.3,0.1c-2.5,1.3-10.4,4.3-17.5-2.5c-0.1-0.1-0.3-0.2-0.4-0.2
				c-0.1,0-0.3,0.1-0.4,0.2c-2.1,1.6-11.9,8.2-20.6,0.1l-0.1-0.1c-0.1-0.1-0.2-0.1-0.3-0.1c-0.1,0-0.3,0-0.3,0.1l-0.1,0.1
				c-8.7,8.1-18.5,1.5-20.6-0.1c-0.1-0.1-0.2-0.2-0.4-0.2c-0.2,0-0.3,0.1-0.4,0.2c-7.1,6.8-15,3.7-17.5,2.5l-0.2-0.1H11
				c-0.3,0-0.5,0.2-0.5,0.5v3.4c0,0.1,0.1,0.2,0.1,0.3c8.2,7.2,16.1,0.5,17.9-1.3c0.1-0.1,0.1-0.1,0.2-0.2c0.1,0,0.1-0.1,0.2-0.1
				c0.1,0,0.3,0.1,0.4,0.2c9.3,8.9,19.1,1.7,21.1,0l0.2-0.2c0.1,0,0.1-0.1,0.2-0.1c0.1,0,0.1,0,0.2,0.1l0.2,0.2
				c2,1.7,11.8,8.9,21.1,0l0,0c0.1-0.1,0.2-0.1,0.3-0.1c0.1,0,0.2,0,0.3,0.1c0.1,0,0.1,0.1,0.1,0.1c1.8,1.8,9.6,8.5,17.9,1.3
				c0.1-0.1,0.1-0.2,0.1-0.3V104C91,103.7,90.8,103.5,90.5,103.5"/>
		</g>
		<g>
			<path class="st0" d="M11,91.9h44.5c0.3,0,0.5,0.2,0.5,0.5v3.3c0,0.3-0.2,0.5-0.5,0.5H11c-0.3,0-0.5-0.2-0.5-0.5v-3.3
				C10.5,92.1,10.7,91.9,11,91.9z"/>
		</g>
	</g>
</g>
</svg>
