<?xml version="1.0" encoding="utf-8"?>
<!-- Generator: Adobe Illustrator 22.0.1, SVG Export Plug-In . SVG Version: 6.00 Build 0)  -->
<svg version="1.1" id="Layer_1" xmlns="http://www.w3.org/2000/svg" xmlns:xlink="http://www.w3.org/1999/xlink" x="0px" y="0px"
	 viewBox="0 0 101.5 166.2" style="enable-background:new 0 0 101.5 166.2;" xml:space="preserve">
<style type="text/css">
	.st0{fill:#FFFFFF;}
	.st1{fill:#56C02B;}
	.st2{enable-background:new    ;}
</style>
<title>TARGET 1 B copy 15</title>
<g id="WHITE_BG">
	<g>
		<rect y="0" class="st0" width="101.5" height="166.2"/>
	</g>
</g>
<g id="TARGETS">
	<g>
		<g>
			<path class="st1" d="M10.4,129.4H7.8v2.8h-1v-6.4h3.9v0.9H7.8v1.8h2.6V129.4z"/>
		</g>
		<g>
			<path class="st1" d="M11.6,132.2v-6.4h1v6.4H11.6z"/>
		</g>
		<g>
			<path class="st1" d="M17.3,132.2l-2.8-4.5v4.5h-1v-6.4h0.9l2.8,4.5v-4.5h0.9v6.4H17.3z"/>
		</g>
		<g>
			<path class="st1" d="M22.2,130.6h-2l-0.5,1.6h-1l2-6.4h1l2,6.4h-1L22.2,130.6z M21.2,127l-0.8,2.8H22L21.2,127z"/>
		</g>
		<g>
			<path class="st1" d="M27.9,132.2l-2.8-4.5v4.5h-1v-6.4H25l2.8,4.5v-4.5h1v6.4H27.9z"/>
		</g>
		<g>
			<path class="st1" d="M32.1,125.7c0.5,0,1,0.1,1.5,0.3v0.9c-0.5-0.2-0.9-0.3-1.4-0.3c-1.2,0-1.7,0.8-1.7,2.4s0.5,2.4,1.7,2.4
				c0.5,0,1-0.1,1.4-0.3v0.9c-0.5,0.2-1,0.3-1.5,0.3c-1.9,0-2.6-1.2-2.6-3.3S30.2,125.7,32.1,125.7z"/>
		</g>
		<g>
			<path class="st1" d="M38,129.3h-2.7v2h2.9v0.9h-3.9v-6.4h3.9v0.9h-2.9v1.8H38V129.3z"/>
		</g>
		<g>
			<path class="st1" d="M43.7,130.6h-2l-0.5,1.6h-1l2-6.4h1l2,6.4h-1L43.7,130.6z M42.7,127l-0.8,2.8h1.6L42.7,127z"/>
		</g>
		<g>
			<path class="st1" d="M49.4,132.2l-2.8-4.5v4.5h-0.9v-6.4h0.9l2.8,4.5v-4.5h0.9v6.4H49.4z"/>
		</g>
		<g>
			<path class="st1" d="M51.2,132.2v-6.4h1.9c2.1,0,2.7,1.4,2.7,3.2s-0.6,3.2-2.7,3.2L51.2,132.2z M52.2,131.3h1
				c1.3,0,1.7-0.9,1.7-2.3s-0.4-2.3-1.7-2.3h-1V131.3z"/>
		</g>
		<g>
			<path class="st1" d="M7,141.2v-6.4h1v6.4H7z"/>
		</g>
		<g>
			<path class="st1" d="M12.8,141.2l-2.8-4.5v4.5H9.1v-6.4h0.9l2.8,4.5v-4.5h0.9v6.4H12.8z"/>
		</g>
		<g>
			<path class="st1" d="M17.1,134.7c0.5,0,1,0.1,1.5,0.3v0.9c-0.5-0.2-0.9-0.3-1.4-0.3c-1.2,0-1.7,0.8-1.7,2.4s0.5,2.4,1.7,2.4
				c0.5,0,1-0.1,1.4-0.3v0.9c-0.5,0.2-1,0.3-1.5,0.3c-1.9,0-2.6-1.2-2.6-3.3S15.2,134.7,17.1,134.7z"/>
		</g>
		<g>
			<path class="st1" d="M23.1,138.3h-2.6v2h2.9v0.9h-3.9v-6.4h3.9v0.9h-2.9v1.8h2.6V138.3z"/>
		</g>
		<g>
			<path class="st1" d="M27.9,141.2l-2.8-4.5v4.5h-1v-6.4H25l2.8,4.5v-4.5h0.9v6.4H27.9z"/>
		</g>
		<g>
			<path class="st1" d="M31.9,135.7v5.5h-1v-5.5h-1.6v-0.9h4.3v0.9H31.9z"/>
		</g>
		<g>
			<path class="st1" d="M34.3,141.2v-6.4h1v6.4H34.3z"/>
		</g>
		<g>
			<path class="st1" d="M41,134.8l-2,6.4h-1l-2-6.4h1l1.5,5.2l1.5-5.2L41,134.8z"/>
		</g>
		<g>
			<path class="st1" d="M41.6,141.2v-6.4h1v6.4H41.6z"/>
		</g>
		<g>
			<path class="st1" d="M43.4,141.2v-0.6l3.3-4.8h-3v-0.9H48v0.6l-3.3,4.8h3.4v0.9H43.4z"/>
		</g>
		<g>
			<path class="st1" d="M52.4,138.3h-2.6v2h2.9v0.9h-3.9v-6.4h3.9v0.9h-2.9v1.8h2.7L52.4,138.3z"/>
		</g>
		<g>
			<path class="st1" d="M11.1,148.3c0,1.2-0.7,2-2.4,2c-0.6,0-1.3-0.1-1.9-0.4V149c0.6,0.3,1.2,0.4,1.8,0.4c1.1,0,1.5-0.5,1.5-1.1
				s-0.3-0.9-1.2-1c-1.6-0.2-2.2-0.6-2.2-1.8c0-0.9,0.5-1.8,2.3-1.8c0.6,0,1.2,0.1,1.7,0.3v1c-0.5-0.2-1.1-0.3-1.7-0.3
				c-1,0-1.3,0.4-1.3,1s0.4,0.8,1.2,0.9C10.3,146.7,11.1,147,11.1,148.3z"/>
		</g>
		<g>
			<path class="st1" d="M11.7,148.2v-4.4h1v4.3c-0.1,0.7,0.4,1.3,1.1,1.3c0.1,0,0.2,0,0.3,0c0.6,0.1,1.3-0.3,1.4-1
				c0-0.1,0-0.2,0-0.3v-4.3h0.9v4.4c0.1,1.1-0.8,2.1-1.9,2.1c-0.1,0-0.3,0-0.4,0c-1.1,0.2-2.1-0.6-2.3-1.7
				C11.7,148.5,11.7,148.3,11.7,148.2z"/>
		</g>
		<g>
			<path class="st1" d="M21.3,148.3c0,1.2-0.7,2-2.4,2c-0.6,0-1.3-0.1-1.9-0.4V149c0.6,0.3,1.2,0.4,1.8,0.4c1.1,0,1.5-0.5,1.5-1.1
				s-0.3-0.9-1.2-1c-1.5-0.2-2.2-0.6-2.2-1.8c0-0.9,0.5-1.8,2.3-1.8c0.6,0,1.2,0.1,1.8,0.3v1c-0.5-0.2-1.1-0.3-1.7-0.3
				c-1,0-1.3,0.4-1.3,1s0.4,0.8,1.2,0.9C20.5,146.7,21.3,147,21.3,148.3z"/>
		</g>
		<g>
			<path class="st1" d="M24,144.7v5.5h-1v-5.5h-1.6v-0.9h4.3v0.9H24z"/>
		</g>
		<g>
			<path class="st1" d="M28.7,148.6h-2l-0.5,1.6h-1l2-6.4h1l2,6.4h-1L28.7,148.6z M27.7,145l-0.8,2.8h1.6L27.7,145z"/>
		</g>
		<g>
			<path class="st1" d="M30.9,150.2v-6.4h1v6.4H30.9z"/>
		</g>
		<g>
			<path class="st1" d="M36.6,150.2l-2.8-4.5v4.5h-0.9v-6.4h0.9l2.8,4.5v-4.5h0.9v6.4H36.6z"/>
		</g>
		<g>
			<path class="st1" d="M41.5,148.6h-2l-0.5,1.6h-1l2-6.4h1l2,6.4h-1L41.5,148.6z M40.5,145l-0.8,2.8h1.6L40.5,145z"/>
		</g>
		<g>
			<path class="st1" d="M43.5,143.8h2.2c1.5,0,2,0.8,2,1.7c0,0.5-0.3,1-0.8,1.3c0.6,0.2,1.1,0.8,1,1.5c0,1.1-0.5,1.9-2.2,1.9h-2.2
				L43.5,143.8z M45.7,144.7h-1.2v1.8h1.2c0.8,0,1-0.5,1-0.9S46.5,144.7,45.7,144.7z M44.5,149.3h1.3c0.9,0,1.1-0.5,1.1-1
				s-0.3-1-1.1-1h-1.3L44.5,149.3z"/>
		</g>
		<g>
			<path class="st1" d="M49.6,149.3h2.8v0.9h-3.7v-6.4h1L49.6,149.3z"/>
		</g>
		<g>
			<path class="st1" d="M56.5,147.3h-2.6v2h2.9v0.9h-3.9v-6.4h3.9v0.9h-2.9v1.8h2.7L56.5,147.3z"/>
		</g>
		<g>
			<path class="st1" d="M62.5,147.4h-2.6v2.8h-1v-6.4h3.8v0.9h-2.8v1.8h2.6V147.4z"/>
		</g>
		<g>
			<path class="st1" d="M63.2,147c0-1.8,0.4-3.3,2.5-3.3c2,0,2.4,1.5,2.4,3.3s-0.4,3.3-2.4,3.3S63.2,148.8,63.2,147z M64.2,147
				c0,1.5,0.3,2.4,1.5,2.4s1.5-0.9,1.5-2.4s-0.3-2.4-1.5-2.4S64.2,145.5,64.2,147L64.2,147z"/>
		</g>
		<g>
			<path class="st1" d="M69.8,150.2h-0.9v-6.4H71c1.7,0,2.2,0.7,2.2,1.9c0.1,0.7-0.3,1.4-1,1.7l1.3,2.8h-1.2l-1.2-2.6h-1.3V150.2z
				 M69.8,146.7h1.3c0.9,0,1-0.5,1-1s-0.1-1-1-1h-1.3V146.7z"/>
		</g>
		<g>
			<path class="st1" d="M77.7,147.3H75v2h2.9v0.9h-3.8v-6.4h3.9v0.9H75v1.8h2.7L77.7,147.3z"/>
		</g>
		<g>
			<path class="st1" d="M83,148.3c0,1.2-0.7,2-2.4,2c-0.6,0-1.3-0.1-1.9-0.4V149c0.6,0.3,1.2,0.4,1.8,0.4c1.2,0,1.5-0.5,1.5-1.1
				s-0.3-0.9-1.2-1c-1.6-0.2-2.2-0.6-2.2-1.8c0-0.9,0.5-1.8,2.3-1.8c0.6,0,1.2,0.1,1.7,0.3v1c-0.5-0.2-1.1-0.3-1.7-0.3
				c-1,0-1.3,0.4-1.3,1s0.4,0.8,1.2,0.9C82.2,146.7,83,147,83,148.3z"/>
		</g>
		<g>
			<path class="st1" d="M85.7,144.7v5.5h-1v-5.5h-1.6v-0.9h4.3v0.9H85.7z"/>
		</g>
		<g>
			<path class="st1" d="M10.3,158.3H9.4l-1.6-3.9v4.8h-1v-6.4h1.3l1.7,4.3l1.7-4.3h1.2v6.4h-0.9v-4.8L10.3,158.3z"/>
		</g>
		<g>
			<path class="st1" d="M16.8,157.6h-2l-0.4,1.6h-1l2-6.4h1l2,6.4h-1L16.8,157.6z M15.8,154l-0.8,2.8h1.6L15.8,154z"/>
		</g>
		<g>
			<path class="st1" d="M22.5,159.2l-2.8-4.5v4.5h-0.9v-6.4h0.9l2.8,4.5v-4.5h1v6.4H22.5z"/>
		</g>
		<g>
			<path class="st1" d="M27.4,157.6h-2l-0.4,1.6h-1l2-6.4h1l2,6.4h-1L27.4,157.6z M26.4,154l-0.8,2.8h1.6L26.4,154z"/>
		</g>
		<g>
			<path class="st1" d="M29.2,156c0-2,0.7-3.3,2.6-3.3c0.6,0,1.3,0.1,1.8,0.3v0.9c-0.5-0.2-1.1-0.4-1.7-0.4c-1.3,0-1.8,0.9-1.8,2.4
				s0.5,2.4,1.8,2.4c0.3,0,0.6,0,0.9-0.1v-1.7h-1.1v-0.9h2.1v3.2c-0.6,0.3-1.3,0.4-2,0.4C29.9,159.3,29.2,158,29.2,156z"/>
		</g>
		<g>
			<path class="st1" d="M38.3,156.3h-2.7v2h2.9v0.9h-3.9v-6.4h3.9v0.9h-2.9v1.8h2.7V156.3z"/>
		</g>
		<g>
			<path class="st1" d="M42.8,158.3h-0.9l-1.6-3.9v4.8h-1v-6.4h1.2l1.7,4.3l1.7-4.3h1.2v6.4h-1v-4.8L42.8,158.3z"/>
		</g>
		<g>
			<path class="st1" d="M49.9,156.3h-2.7v2h2.9v0.9h-3.9v-6.4h3.9v0.9h-2.9v1.8h2.7V156.3z"/>
		</g>
		<g>
			<path class="st1" d="M54.7,159.2l-2.8-4.5v4.5H51v-6.4h0.9l2.8,4.5v-4.5h1v6.4H54.7z"/>
		</g>
		<g>
			<path class="st1" d="M58.7,153.7v5.5h-1v-5.5h-1.6v-0.9h4.3v0.9H58.7z"/>
		</g>
	</g>
	<g>
		<rect x="3.3" y="24" class="st1" width="94.8" height="94.8"/>
	</g>
	<g>
		<path class="st1" d="M98.2,20.7H3.3V3.3h94.8V20.7z M4.3,19.7h92.8V4.3H4.3L4.3,19.7z"/>
	</g>
	<g class="st2">
		<path class="st1" d="M6.7,6.9h4.5v1.4H9.9v8.8H8.1V8.3H6.7V6.9z"/>
	</g>
	<g class="st2">
		<path class="st1" d="M11.2,17.1l1.9-10.2h1.9L17,17.1h-1.8l-0.3-1.9h-1.8l-0.3,1.9H11.2z M13.3,13.9h1.4L14,9.8h0L13.3,13.9z"/>
	</g>
	<g class="st2">
		<path class="st1" d="M19.6,12.4v4.7h-1.7V6.9h2.5c1.7,0,2.4,0.9,2.4,2.3v1.3c0,1.1-0.4,1.7-1.4,2l1.6,4.6h-1.8L19.6,12.4z
			 M19.6,8.3v3.2h0.6c0.6,0,0.8-0.3,0.8-0.8V9.2c0-0.6-0.3-0.8-0.8-0.8H19.6z"/>
	</g>
	<g class="st2">
		<path class="st1" d="M26.4,11.7h2.4v5.4h-1.2V16c-0.2,0.8-0.7,1.2-1.6,1.2c-1.5,0-2.1-1.2-2.1-2.7V9.6c0-1.6,0.8-2.7,2.6-2.7
			c1.9,0,2.4,1.1,2.4,2.6v0.9h-1.6v-1c0-0.6-0.2-1-0.9-1c-0.6,0-0.9,0.4-0.9,1v5.5c0,0.6,0.3,1,0.8,1c0.6,0,0.8-0.3,0.8-1V13h-0.8
			V11.7z"/>
	</g>
	<g class="st2">
		<path class="st1" d="M30.2,6.9h4.1v1.4h-2.4v2.9h1.7v1.4h-1.7v3.1h2.4v1.4h-4.1V6.9z"/>
	</g>
	<g class="st2">
		<path class="st1" d="M35.1,6.9h4.5v1.4h-1.4v8.8h-1.7V8.3h-1.4V6.9z"/>
	</g>
	<g class="st2">
		<path class="st1" d="M89.4,6.9h2.5c1.7,0,2.3,0.8,2.3,2.2v1c0,0.9-0.3,1.4-1,1.6c0.9,0.2,1.3,0.8,1.3,1.7v1.3
			c0,1.4-0.6,2.2-2.4,2.2h-2.7V6.9z M91.1,11.2h0.6c0.6,0,0.8-0.3,0.8-0.8V9.2c0-0.6-0.3-0.8-0.8-0.8h-0.6V11.2z M91.1,12.5v3.2h0.8
			c0.6,0,0.8-0.3,0.8-0.8v-1.5c0-0.5-0.3-0.8-0.9-0.8H91.1z"/>
	</g>
	<g class="st2">
		<path class="st1" d="M77,6.9v10.2h-1.7V9.3h0l-1.2,1.2h0V8.8l1.6-1.8H77z"/>
		<path class="st1" d="M83.3,12.4v2.5c0,1.4-0.7,2.3-2.4,2.3c-1.7,0-2.4-1-2.4-2.5v-1.2H80v1.3c0,0.6,0.2,1,0.8,1
			c0.5,0,0.7-0.4,0.7-0.9v-2.5c0-0.6-0.2-0.9-0.7-0.9c-0.5,0-0.8,0.3-0.8,0.9v0.2h-1.6V6.9H83v1.4h-2.9v2.5h0
			c0.3-0.5,0.8-0.7,1.4-0.7C82.4,10.1,83.3,10.8,83.3,12.4z"/>
	</g>
	<g>
		<polygon class="st1" points="85.4,9.9 85.4,14.1 87.6,12 		"/>
	</g>
	<g>
		<path class="st1" d="M98.2,162.9h-95v-40.8h95V162.9z M4.2,161.9h93v-38.8h-93V161.9z"/>
	</g>
	<g>
		<g>
			<path class="st0" d="M73.2,97.4l-2.8-2.2c-0.2-0.2-0.6-0.3-0.8,0c0,0,0,0,0,0l0,0c-8.8,10.5-24,11.6-34.8,3
				c-0.3-0.3-0.6-0.5-0.9-0.8l3.2-2c0.3-0.2-0.1-0.5-0.1-0.5L26,89.5c-0.3-0.2-0.4,0-0.4,0.2v0.1l0,0l0,12.3c0,0.1,0.1,0.4,0.4,0.2
				l0,0l3.5-2.2c0.7,0.7,1.4,1.3,2.2,1.9c12.8,10.3,30.9,8.9,41.5-3.5l0.1-0.1C73.5,98.1,73.5,97.7,73.2,97.4
				C73.2,97.5,73.2,97.4,73.2,97.4z"/>
		</g>
		<g>
			<path class="st0" d="M25.7,46.8l2.9,2.1c0.2,0.2,0.6,0.2,0.8-0.1c0,0,0,0,0,0l0,0c8.2-11,23.3-13,34.5-5c0.3,0.2,0.7,0.5,1,0.8
				l-3,2.2c-0.3,0.2,0.2,0.5,0.2,0.5l11,4.8c0.3,0.2,0.4-0.1,0.4-0.2v-0.1l0,0l-0.7-12.3c0-0.1-0.1-0.4-0.4-0.2l0,0l-3.4,2.4
				c-0.7-0.6-1.5-1.2-2.3-1.8c-13.4-9.5-31.4-7.1-41.2,5.9l-0.1,0.1C25.4,46.2,25.4,46.6,25.7,46.8C25.7,46.8,25.7,46.8,25.7,46.8z"
				/>
		</g>
		<g>
			<path class="st0" d="M86.3,80.5h3.4l-4.2-7.4l2-0.2l-3.1-4.8l2-0.2l-4.2-5.4l1.8-0.1l-4-7v0.2l-0.1-0.2l-4,7l1.8,0.2l-4.3,5.4
				l2,0.2l-3.1,4.8l2,0.2l-4.2,7.4h8.3v6c0,0.1,0.1,0.2,0.2,0.2c0,0,0,0,0,0h2.6c0.1,0,0.2-0.1,0.2-0.2v-6h4.9L86.3,80.5z"/>
		</g>
		<g>
			<path class="st0" d="M27.6,80.8h0.2c0.2,0,0.4-0.2,0.4-0.4c0-0.1,0-0.2-0.1-0.2l-7.7-24.8l-0.1-0.2c-0.1-0.1-0.2-0.2-0.4-0.2
				c-0.2,0-0.3,0.1-0.4,0.2l-0.1,0.1l-7.7,24.9c0,0.1,0,0.1,0,0.2c0,0.2,0.2,0.4,0.4,0.4c0,0,0,0,0,0h6.3v5.8c0,0.1,0.1,0.2,0.2,0.2
				h2.6c0.1,0,0.2-0.1,0.2-0.2v-5.8H27.6z"/>
		</g>
		<g>
			<path class="st0" d="M62.3,96.7L62.3,96.7L62.3,96.7z"/>
		</g>
		<g>
			<path class="st0" d="M34.8,54.2L34.8,54.2C35.1,53.9,34.8,54.2,34.8,54.2z"/>
		</g>
		<g>
			<g>
				<path class="st0" d="M48.2,79.9c-0.5,0.3-1,0.5-1.5,0.7c-1.5,0.4-3.1,0.6-4.7,0.6c-0.8,0-1.6-0.1-2.3-0.2
					c-0.5-0.1-0.9-0.2-1.4-0.3c-0.2-0.1-0.5-0.1-0.7-0.2c-0.7-0.2-1.3-0.5-1.8-0.9c-0.2-0.2-0.4-0.4-0.5-0.6v0.6c0,0.2,0,0.9,0,0.9
					c0,0.4,0.2,0.8,0.5,1c1.1,0.8,2.3,1.2,3.7,1.4c0.9,0.1,1.8,0.2,2.7,0.2c1.3,0,2.6-0.1,3.9-0.4l0,0c0.7-0.2,1.4-0.4,2-0.8l0,0
					c0.6-0.4,1-0.8,1-1.3c0,0,0.1-1.4,0-1.5C48.8,79.4,48.5,79.6,48.2,79.9z"/>
			</g>
			<g>
				<path class="st0" d="M41.4,75.2c3.8,0,6.9-1.1,6.9-2.6c0,0,0.1-1.3,0-1.6c0-0.2,0-0.4-0.1-0.5c0.4-0.2,0.7-0.7,0.7-1.2
					c0,0,0.1-1.5,0-1.8c-0.2-1.7-3.7-2.7-6.9-2.7s-6.9,1-6.9,2.8c0,0.1,0.1,1.6,0.1,1.6c0,0.1,0,0.2,0.1,0.3
					c-0.5,0.3-0.8,0.8-0.8,1.4c0,0.1,0.1,1.6,0.1,1.6c0,0.4,0.2,0.8,0.5,1c1.1,0.8,2.3,1.3,3.7,1.4C39.6,75.1,40.5,75.2,41.4,75.2z
					 M42.1,65.7c3.7,0,6.2,1.1,6.2,2.1s-2.6,2.1-6.2,2.1s-6.2-1.1-6.2-2.1S38.5,65.7,42.1,65.7z M35.2,71c0.1-0.3,0.3-0.6,0.5-0.8
					c0.2,0.2,0.4,0.4,0.7,0.5c1.8,0.8,3.7,1.2,5.7,1.1c1.6,0,3.3-0.2,4.8-0.7c0.2-0.1,0.4-0.2,0.6-0.3c0,0.1,0,0.1,0,0.2
					c0,1-2.5,2.1-6.2,2.1S35.2,72,35.2,71z"/>
			</g>
			<g>
				<path class="st0" d="M39.4,80.5c0.9,0.1,1.8,0.2,2.7,0.2c1.3,0,2.6-0.1,3.9-0.4l0,0c0.7-0.2,1.3-0.4,1.9-0.8l0,0
					c0.2-0.1,0.3-0.2,0.4-0.3c0.2-0.2,0.4-0.4,0.5-0.7c0-0.1,0.1-0.2,0.1-0.4c0,0,0-1.4,0-1.5c-0.2,0.3-0.8,1.2-3.5,1.7
					c-1.2,0.2-2.3,0.3-3.5,0.3c-1.9,0.1-3.8-0.3-5.5-1.1c-0.3-0.2-0.6-0.4-0.9-0.6c-0.2-0.2-0.3-0.3-0.4-0.5c0,0,0,0.7,0,0.7v1
					c0,0.4,0.2,0.8,0.5,1C36.7,79.9,38,80.4,39.4,80.5z"/>
			</g>
			<g>
				<path class="st0" d="M48.9,73.5c-0.1-0.1-0.2-0.1-0.2-0.2c-0.1-0.1-0.2-0.1-0.3-0.2c-0.1,0.1-0.2,0.3-0.3,0.4
					c0.1,0,0.2,0.1,0.3,0.2c0.2,0.1,0.3,0.3,0.3,0.5c0,0.2-0.1,0.3-0.2,0.4c-0.1,0.1-0.2,0.1-0.3,0.2c-0.1,0.1-0.3,0.2-0.4,0.2
					c0,0-0.4,0.2-0.6,0.3l-0.6,0.2c-0.1,0-0.6,0.2-0.8,0.2c0,0-0.7,0.1-1,0.2l-1.1,0.1L42,76.2c-0.7,0-1.5-0.1-2.2-0.2
					c-0.5-0.1-1.1-0.2-1.5-0.3c-0.6-0.1-1.1-0.3-1.7-0.5c-0.3-0.1-0.6-0.3-0.8-0.6c-0.2-0.2-0.4-0.5-0.5-0.7v0.9v0.8
					c0,0.4,0.2,0.8,0.5,1c1.1,0.8,2.4,1.2,3.7,1.4c0.9,0.1,1.8,0.2,2.7,0.2c1.3,0,2.6-0.2,3.8-0.5l0,0c0.7-0.1,1.4-0.4,2-0.7l0,0
					c0.1-0.1,0.3-0.2,0.4-0.3c0.2-0.2,0.4-0.4,0.6-0.7c0-0.1,0.1-0.2,0.1-0.4c0,0,0.1-1.5,0.1-1.5c0-0.1,0-0.2-0.1-0.3
					C49,73.7,49,73.6,48.9,73.5z"/>
			</g>
			<g>
				<path class="st0" d="M57.3,70.2c3.8,0,6.9-1.2,6.9-2.6c0,0,0.1-1.3,0.1-1.6c0-0.2-0.1-0.4-0.1-0.6c0.4-0.2,0.7-0.7,0.8-1.2
					c0,0,0.1-1.5,0-1.8C64.8,60.9,61.3,60,58,60s-7,1-7,2.8c0,0.1,0.1,1.6,0.1,1.6c0,0.1,0,0.2,0.1,0.3c-0.5,0.3-0.8,0.8-0.9,1.4
					c0,0.1,0.1,1.6,0.1,1.6c0,0.4,0.2,0.8,0.5,1c1.1,0.7,2.4,1.2,3.7,1.3C55.5,70.1,56.4,70.2,57.3,70.2z M58,60.7
					c3.7,0,6.2,1.1,6.2,2.1s-2.5,2.1-6.2,2.1s-6.2-1.1-6.2-2.1S54.3,60.7,58,60.7z M51,66.1c0.1-0.3,0.3-0.6,0.5-0.8
					c0.2,0.2,0.4,0.4,0.7,0.5c1.8,0.8,3.7,1.2,5.7,1.1c1.7,0,3.3-0.2,4.9-0.8c0.2-0.1,0.4-0.2,0.6-0.3c0,0.1,0,0.1,0,0.2
					c0,1-2.6,2.1-6.2,2.1S51.1,67,51,66.1L51,66.1z"/>
			</g>
			<g>
				<path class="st0" d="M64.9,68.8c0-0.1-0.1-0.2-0.2-0.3l-0.2-0.2c-0.1-0.1-0.2-0.1-0.3-0.2c-0.1,0.2-0.2,0.3-0.3,0.4
					c0.1,0,0.2,0.1,0.3,0.2c0.2,0.1,0.3,0.3,0.3,0.5c0,0.2-0.1,0.4-0.2,0.5c-0.1,0.1-0.2,0.2-0.3,0.2l-0.4,0.2c0,0-0.4,0.2-0.6,0.3
					l-0.6,0.2c-0.1,0-0.6,0.2-0.8,0.2c0,0-0.7,0.1-1,0.2l-1.1,0.1c-0.1,0-1.1,0.1-1.6,0.1c-0.7,0-1.4-0.1-2.1-0.2
					c-0.5-0.1-1-0.2-1.6-0.3c-0.6-0.1-1.1-0.3-1.7-0.5c-0.6-0.3-1.1-0.7-1.4-1.3v0.9v0.8c0,0.4,0.2,0.8,0.5,1
					c1.1,0.8,2.4,1.2,3.7,1.4c0.9,0.1,1.8,0.2,2.7,0.2c1.3,0,2.6-0.1,3.8-0.4l0,0c0.7-0.2,1.4-0.4,2-0.8l0,0
					c0.2-0.1,0.3-0.2,0.4-0.3c0.2-0.2,0.4-0.4,0.5-0.7c0-0.1,0.1-0.2,0.1-0.4c0,0,0.1-1.5,0.1-1.5C65,69,65,68.9,64.9,68.8z"/>
			</g>
			<g>
				<path class="st0" d="M64.1,74.9c-0.5,0.3-1,0.5-1.5,0.7c-1.5,0.4-3.1,0.6-4.7,0.6c-0.8,0-1.6,0-2.3-0.1
					c-0.5-0.1-0.9-0.2-1.4-0.3c-0.2-0.1-0.5-0.1-0.7-0.2c-0.7-0.2-1.3-0.5-1.8-0.9c-0.2-0.2-0.4-0.3-0.5-0.6v0.6c0,0.2,0,0.9,0,0.9
					c0,0.4,0.2,0.8,0.5,1c1.1,0.8,2.4,1.2,3.7,1.4c0.9,0.1,1.8,0.2,2.7,0.2c1.3,0,2.6-0.1,3.8-0.4l0,0c0.7-0.2,1.4-0.4,2-0.8l0,0
					c0.7-0.4,1-0.8,1-1.3c0,0,0-1.4,0-1.5C64.6,74.4,64.4,74.7,64.1,74.9z"/>
			</g>
			<g>
				<path class="st0" d="M51.6,74.1c1.1,0.8,2.4,1.2,3.7,1.4c0.9,0.1,1.8,0.2,2.7,0.2c1.3,0,2.6-0.1,3.8-0.4l0,0
					c0.7-0.2,1.3-0.4,1.9-0.8l0,0c0.2-0.1,0.3-0.2,0.4-0.3c0.2-0.2,0.4-0.4,0.5-0.7c0-0.1,0.1-0.2,0.1-0.4c0,0,0-1.4,0-1.5
					c-0.2,0.3-0.8,1.2-3.5,1.8c-1.2,0.2-2.3,0.3-3.5,0.3c-1.9,0-3.8-0.3-5.5-1.1c-0.3-0.2-0.6-0.4-0.9-0.6c-0.2-0.2-0.3-0.3-0.4-0.5
					c0,0,0,0.7,0,0.7v1C51,73.6,51.3,73.9,51.6,74.1z"/>
			</g>
			<g>
				<path class="st0" d="M65,79c-0.2,0.3-0.5,0.6-0.8,0.8c-0.5,0.3-1,0.5-1.5,0.7c-1.5,0.4-3.1,0.6-4.7,0.6c-0.8,0-1.6-0.1-2.3-0.2
					c-0.5-0.1-0.9-0.2-1.4-0.3c-0.2-0.1-0.5-0.1-0.7-0.2c-0.7-0.2-1.3-0.5-1.8-0.9c-0.2-0.2-0.4-0.3-0.5-0.6v0.6c0,0.2,0,0.9,0,0.9
					c0,0.4,0.2,0.8,0.5,1c1.1,0.8,2.3,1.2,3.7,1.4c0.9,0.1,1.8,0.2,2.7,0.2c1.3,0,2.6-0.1,3.9-0.4l0,0c0.7-0.2,1.4-0.4,2-0.8l0,0
					c0.6-0.4,1-0.8,1-1.3C64.9,80.5,65,79.1,65,79z"/>
			</g>
			<g>
				<path class="st0" d="M55.3,80.4c0.9,0.1,1.8,0.2,2.7,0.2c1.3,0,2.6-0.1,3.9-0.4l0,0c0.7-0.2,1.4-0.4,2-0.8l0,0
					c0.2-0.1,0.3-0.2,0.4-0.3c0.2-0.2,0.4-0.4,0.5-0.7c0-0.1,0.1-0.2,0.1-0.4c0,0,0-1.4,0-1.5c-0.2,0.3-0.8,1.2-3.5,1.8
					c-1.2,0.2-2.3,0.3-3.5,0.3c-1.9,0-3.8-0.3-5.5-1.1c-0.3-0.2-0.6-0.4-0.9-0.6c-0.2-0.2-0.3-0.3-0.4-0.5c0,0,0,0.7,0,0.7v1
					c0,0.4,0.2,0.8,0.5,1C52.7,79.9,54,80.3,55.3,80.4z"/>
			</g>
		</g>
	</g>
</g>
</svg>
