<?xml version="1.0" encoding="utf-8"?>
<!-- Generator: Adobe Illustrator 22.0.1, SVG Export Plug-In . SVG Version: 6.00 Build 0)  -->
<svg version="1.1" id="Layer_1" xmlns="http://www.w3.org/2000/svg" xmlns:xlink="http://www.w3.org/1999/xlink" x="0px" y="0px"
	 viewBox="0 0 101.5 166.1" style="enable-background:new 0 0 101.5 166.1;" xml:space="preserve">
<style type="text/css">
	.st0{fill:#FFFFFF;}
	.st1{fill:#56C02B;}
	.st2{enable-background:new    ;}
</style>
<title>TARGET 1 B copy 13</title>
<g id="WHITE_BG">
	<g>
		<rect y="0" class="st0" width="101.5" height="166.2"/>
	</g>
</g>
<g id="TARGETS">
	<g>
		<g>
			<path class="st1" d="M7,132.2v-6.4h1v6.4H7z"/>
		</g>
		<g>
			<path class="st1" d="M12.8,132.2l-2.8-4.5v4.5H9.1v-6.4h0.9l2.8,4.5v-4.5h0.9v6.4H12.8z"/>
		</g>
		<g>
			<path class="st1" d="M16.9,126.7v5.5h-1v-5.5h-1.6v-0.9h4.3v0.9H16.9z"/>
		</g>
		<g>
			<path class="st1" d="M22.7,129.3H20v2h3v0.9h-3.9v-6.4H23v0.9h-3v1.8h2.6L22.7,129.3z"/>
		</g>
		<g>
			<path class="st1" d="M23.6,129c0-2,0.7-3.3,2.6-3.3c0.6,0,1.3,0.1,1.8,0.3v1c-0.5-0.2-1.1-0.4-1.7-0.4c-1.3,0-1.8,0.9-1.8,2.4
				s0.5,2.4,1.8,2.4c0.3,0,0.6,0,0.9-0.1v-1.7h-1.1v-0.9h2.1v3.2c-0.6,0.3-1.3,0.4-2,0.4C24.3,132.3,23.6,131,23.6,129z"/>
		</g>
		<g>
			<path class="st1" d="M30.1,132.2h-1v-6.4h2.1c1.7,0,2.2,0.7,2.2,1.9c0.1,0.7-0.3,1.4-1,1.7l1.3,2.8h-1.1l-1.2-2.6h-1.3V132.2z
				 M30.1,128.7h1.2c0.9,0,1-0.5,1-1s-0.1-1-1-1h-1.3V128.7z"/>
		</g>
		<g>
			<path class="st1" d="M37.4,130.6h-2l-0.5,1.6h-1l2-6.4h1l2,6.4h-1L37.4,130.6z M36.4,127l-0.8,2.8h1.6L36.4,127z"/>
		</g>
		<g>
			<path class="st1" d="M40.9,126.7v5.5H40v-5.5h-1.7v-0.9h4.3v0.9H40.9z"/>
		</g>
		<g>
			<path class="st1" d="M46.8,129.3h-2.6v2h2.9v0.9h-3.9v-6.4h3.9v0.9h-2.9v1.8h2.7L46.8,129.3z"/>
		</g>
		<g>
			<path class="st1" d="M52.9,129.3h-2.7v2h2.9v0.9h-3.9v-6.4h3.9v0.9h-2.9v1.8h2.7V129.3z"/>
		</g>
		<g>
			<path class="st1" d="M56.5,125.7c0.5,0,1.1,0.1,1.5,0.3v0.9c-0.5-0.2-0.9-0.3-1.4-0.3c-1.2,0-1.7,0.8-1.7,2.4s0.5,2.4,1.7,2.4
				c0.5,0,1-0.1,1.4-0.3v0.9c-0.5,0.2-1,0.3-1.5,0.3c-1.9,0-2.6-1.2-2.6-3.3S54.6,125.7,56.5,125.7z"/>
		</g>
		<g>
			<path class="st1" d="M58.6,129c0-1.8,0.4-3.3,2.5-3.3s2.5,1.5,2.5,3.3s-0.4,3.3-2.5,3.3S58.6,130.8,58.6,129z M59.6,129
				c0,1.5,0.3,2.4,1.5,2.4s1.5-0.9,1.5-2.4s-0.3-2.4-1.5-2.4S59.6,127.5,59.6,129L59.6,129z"/>
		</g>
		<g>
			<path class="st1" d="M68.4,130.3c0,1.2-0.7,2-2.4,2c-0.6,0-1.3-0.1-1.9-0.4V131c0.6,0.3,1.2,0.4,1.8,0.4c1.1,0,1.5-0.5,1.5-1.1
				s-0.3-0.9-1.2-1c-1.6-0.2-2.2-0.6-2.2-1.8c0-0.9,0.5-1.8,2.3-1.8c0.6,0,1.2,0.1,1.7,0.3v1c-0.5-0.2-1.1-0.3-1.7-0.3
				c-1,0-1.3,0.4-1.3,1c0,0.6,0.4,0.8,1.2,0.9C67.7,128.7,68.4,129,68.4,130.3z"/>
		</g>
		<g>
			<path class="st1" d="M71.7,129.6v2.6h-1v-2.6l-2.2-3.8h1.1l1.6,3l1.6-3h1.1L71.7,129.6z"/>
		</g>
		<g>
			<path class="st1" d="M78.2,130.3c0,1.2-0.7,2-2.4,2c-0.6,0-1.3-0.1-1.9-0.4V131c0.6,0.3,1.2,0.4,1.8,0.4c1.2,0,1.5-0.5,1.5-1.1
				s-0.3-0.9-1.2-1c-1.6-0.2-2.2-0.6-2.2-1.8c0-0.9,0.5-1.8,2.3-1.8c0.6,0,1.2,0.1,1.7,0.3v1c-0.5-0.2-1.1-0.3-1.7-0.3
				c-1,0-1.3,0.4-1.3,1c0,0.6,0.4,0.8,1.2,0.9C77.5,128.7,78.2,129,78.2,130.3z"/>
		</g>
		<g>
			<path class="st1" d="M81,126.7v5.5h-1v-5.5h-1.6v-0.9h4.3v0.9H81z"/>
		</g>
		<g>
			<path class="st1" d="M86.9,129.3h-2.7v2h2.9v0.9h-3.9v-6.4h3.9v0.9h-2.9v1.8h2.7V129.3z"/>
		</g>
		<g>
			<path class="st1" d="M91.4,131.3h-0.9l-1.6-3.9v4.8H88v-6.4h1.2l1.8,4.3l1.7-4.3H94v6.4h-1v-4.8L91.4,131.3z"/>
		</g>
		<g>
			<path class="st1" d="M10.1,139.6h-2l-0.4,1.6h-1l2-6.4h1l2,6.4h-1L10.1,139.6z M9.1,136l-0.8,2.8h1.6L9.1,136z"/>
		</g>
		<g>
			<path class="st1" d="M15.8,141.2l-2.8-4.5v4.5h-0.9v-6.4H13l2.8,4.5v-4.5h0.9v6.4H15.8z"/>
		</g>
		<g>
			<path class="st1" d="M17.6,141.2v-6.4h1.9c2.1,0,2.7,1.4,2.7,3.2s-0.6,3.2-2.7,3.2H17.6z M18.6,140.3h1c1.3,0,1.7-0.9,1.7-2.3
				s-0.4-2.3-1.7-2.3h-1V140.3z"/>
		</g>
		<g>
			<path class="st1" d="M24.4,134.8h2.1c1.5,0,2,0.8,2,1.7c0,0.5-0.3,1-0.8,1.3c0.6,0.2,1.1,0.8,1,1.5c0,1.1-0.5,1.9-2.2,1.9h-2.2
				V134.8z M26.6,135.7h-1.2v1.8h1.2c0.4,0.1,0.9-0.2,0.9-0.7c0-0.1,0-0.1,0-0.2C27.6,136.2,27.4,135.7,26.6,135.7z M25.4,140.3h1.3
				c0.9,0,1.1-0.5,1.1-1s-0.3-1-1.1-1h-1.3L25.4,140.3z"/>
		</g>
		<g>
			<path class="st1" d="M29.6,141.2v-6.4h1v6.4H29.6z"/>
		</g>
		<g>
			<path class="st1" d="M31.6,138c0-1.8,0.4-3.3,2.5-3.3s2.5,1.5,2.5,3.3s-0.4,3.3-2.5,3.3S31.6,139.8,31.6,138z M32.6,138
				c0,1.5,0.3,2.4,1.5,2.4s1.5-0.9,1.5-2.4s-0.3-2.4-1.5-2.4S32.6,136.5,32.6,138L32.6,138z"/>
		</g>
		<g>
			<path class="st1" d="M37.2,141.2v-6.4h1.9c2.1,0,2.7,1.4,2.7,3.2s-0.6,3.2-2.7,3.2H37.2z M38.2,140.3h1c1.3,0,1.7-0.9,1.7-2.3
				s-0.4-2.3-1.7-2.3h-1V140.3z"/>
		</g>
		<g>
			<path class="st1" d="M42.7,141.2v-6.4h1v6.4H42.7z"/>
		</g>
		<g>
			<path class="st1" d="M49.3,134.8l-2,6.4h-1l-2-6.4h1l1.5,5.2l1.5-5.2L49.3,134.8z"/>
		</g>
		<g>
			<path class="st1" d="M53.5,138.3h-2.7v2h2.9v0.9h-3.9v-6.4h3.9v0.9h-2.9v1.8h2.7V138.3z"/>
		</g>
		<g>
			<path class="st1" d="M55.5,141.2h-1v-6.4h2.1c1.7,0,2.2,0.7,2.2,1.9c0.1,0.7-0.3,1.4-1,1.7l1.3,2.8H58l-1.2-2.6h-1.3V141.2z
				 M55.5,137.7h1.3c0.9,0,1-0.5,1-1s-0.1-1-1-1h-1.3V137.7z"/>
		</g>
		<g>
			<path class="st1" d="M63.8,139.3c0,1.2-0.7,2-2.4,2c-0.6,0-1.3-0.1-1.9-0.4V140c0.6,0.3,1.2,0.4,1.8,0.4c1.1,0,1.5-0.5,1.5-1.1
				s-0.3-0.9-1.2-1c-1.6-0.2-2.2-0.6-2.2-1.8c0-0.9,0.5-1.8,2.3-1.8c0.6,0,1.2,0.1,1.7,0.3v1c-0.5-0.2-1.1-0.3-1.7-0.3
				c-1,0-1.3,0.4-1.3,1s0.4,0.8,1.2,0.9C63,137.7,63.8,138,63.8,139.3z"/>
		</g>
		<g>
			<path class="st1" d="M64.7,141.2v-6.4h1v6.4H64.7z"/>
		</g>
		<g>
			<path class="st1" d="M69.1,135.7v5.5h-1v-5.5h-1.6v-0.9h4.3v0.9H69.1z"/>
		</g>
		<g>
			<path class="st1" d="M74.1,138.6v2.6h-1v-2.6l-2.1-3.8h1l1.6,3l1.6-3h1.1L74.1,138.6z"/>
		</g>
		<g>
			<path class="st1" d="M78.2,141.2v-6.4h1v6.4H78.2z"/>
		</g>
		<g>
			<path class="st1" d="M84,141.2l-2.8-4.5v4.5h-0.9v-6.4h0.9l2.8,4.5v-4.5h0.9v6.4H84z"/>
		</g>
		<g>
			<path class="st1" d="M6.8,147c0-2,0.7-3.3,2.6-3.3c0.6,0,1.3,0.1,1.8,0.3v1c-0.5-0.2-1.1-0.4-1.7-0.4c-1.3,0-1.8,0.9-1.8,2.4
				s0.5,2.4,1.8,2.4c0.3,0,0.6,0,0.9-0.1v-1.7H9.3v-0.9h2.1v3.2c-0.6,0.3-1.3,0.4-2,0.4C7.5,150.3,6.8,149,6.8,147z"/>
		</g>
		<g>
			<path class="st1" d="M12.2,147c0-1.8,0.4-3.3,2.5-3.3s2.4,1.5,2.4,3.3s-0.4,3.3-2.4,3.3S12.2,148.8,12.2,147z M13.2,147
				c0,1.5,0.3,2.4,1.5,2.4s1.5-0.9,1.5-2.4s-0.3-2.4-1.5-2.4S13.2,145.5,13.2,147L13.2,147z"/>
		</g>
		<g>
			<path class="st1" d="M22.4,143.8l-2,6.4h-1l-2-6.4h1l1.5,5.2l1.5-5.2L22.4,143.8z"/>
		</g>
		<g>
			<path class="st1" d="M26.6,147.3h-2.6v2h2.9v0.9H23v-6.4h3.9v0.9h-3v1.8h2.6V147.3z"/>
		</g>
		<g>
			<path class="st1" d="M28.5,150.2h-1v-6.4h2.1c1.6,0,2.2,0.7,2.2,1.9c0.1,0.7-0.3,1.4-1,1.7l1.3,2.8H31l-1.2-2.6h-1.3V150.2z
				 M28.5,146.7h1.2c0.9,0,1-0.5,1-1s-0.1-1-1-1h-1.2V146.7z"/>
		</g>
		<g>
			<path class="st1" d="M36.4,150.2l-2.8-4.5v4.5h-0.9v-6.4h0.9l2.8,4.5v-4.5h0.9v6.4H36.4z"/>
		</g>
		<g>
			<path class="st1" d="M41.7,149.3h-0.9l-1.6-3.9l0,4.8h-1v-6.4h1.2l1.7,4.3l1.7-4.3h1.2v6.4h-0.9v-4.8L41.7,149.3z"/>
		</g>
		<g>
			<path class="st1" d="M48.7,147.3h-2.6v2H49v0.9h-3.9v-6.4H49v0.9h-2.9v1.8h2.7L48.7,147.3z"/>
		</g>
		<g>
			<path class="st1" d="M53.5,150.2l-2.8-4.5v4.5h-1v-6.4h0.9l2.8,4.5v-4.5h0.9v6.4H53.5z"/>
		</g>
		<g>
			<path class="st1" d="M57.5,144.7v5.5h-1v-5.5h-1.6v-0.9h4.3v0.9H57.5z"/>
		</g>
		<g>
			<path class="st1" d="M62.3,148.6h-2l-0.5,1.6h-1l2-6.4h1l2,6.4h-1L62.3,148.6z M61.3,145l-0.8,2.8h1.6L61.3,145z"/>
		</g>
		<g>
			<path class="st1" d="M65.2,149.3H68v0.9h-3.7v-6.4h1L65.2,149.3z"/>
		</g>
		<g>
			<path class="st1" d="M7.8,159.2h-1v-6.4h2.1c1.6,0,2.2,0.9,2.2,2s-0.6,2-2.2,2H7.8V159.2z M7.8,155.9H9c0.6,0.1,1.2-0.4,1.2-1
				c0.1-0.6-0.4-1.2-1-1.2c-0.1,0-0.1,0-0.2,0H7.8V155.9z"/>
		</g>
		<g>
			<path class="st1" d="M12.6,158.3h2.8v0.9h-3.7v-6.4h0.9L12.6,158.3z"/>
		</g>
		<g>
			<path class="st1" d="M19.1,157.6h-2l-0.5,1.6h-1l2-6.4h1l2,6.4h-1L19.1,157.6z M18.1,154l-0.8,2.8h1.6L18.1,154z"/>
		</g>
		<g>
			<path class="st1" d="M24.8,159.2l-2.8-4.5v4.5h-0.9v-6.4H22l2.8,4.5v-4.5h0.9v6.4H24.8z"/>
		</g>
		<g>
			<path class="st1" d="M30.3,159.2l-2.8-4.5v4.5h-0.9v-6.4h0.9l2.8,4.5v-4.5h0.9v6.4H30.3z"/>
		</g>
		<g>
			<path class="st1" d="M32.3,159.2v-6.4h1v6.4H32.3z"/>
		</g>
		<g>
			<path class="st1" d="M38,159.2l-2.8-4.5v4.5h-0.9v-6.4h0.9l2.8,4.5v-4.5h1v6.4H38z"/>
		</g>
		<g>
			<path class="st1" d="M39.7,156c0-2,0.7-3.3,2.6-3.3c0.6,0,1.3,0.1,1.8,0.3v0.9c-0.5-0.2-1.1-0.4-1.7-0.4c-1.3,0-1.8,0.9-1.8,2.4
				s0.5,2.4,1.8,2.4c0.3,0,0.6,0,0.9-0.1v-1.7h-1.1v-0.9h2.1v3.2c-0.6,0.3-1.3,0.4-2,0.4C40.4,159.3,39.7,158,39.7,156z"/>
		</g>
	</g>
	<g>
		<rect x="3.3" y="24" class="st1" width="94.8" height="94.8"/>
	</g>
	<g>
		<path class="st1" d="M98.2,20.7H3.3V3.3h94.8V20.7z M4.3,19.7h92.8V4.3H4.3L4.3,19.7z"/>
	</g>
	<g class="st2">
		<path class="st1" d="M6.7,6.9h4.5v1.4H9.9v8.8H8.1V8.3H6.7V6.9z"/>
	</g>
	<g class="st2">
		<path class="st1" d="M11.2,17.1l1.9-10.2h1.9L17,17.1h-1.8l-0.3-1.9h-1.8l-0.3,1.9H11.2z M13.3,13.9h1.4L14,9.8h0L13.3,13.9z"/>
	</g>
	<g class="st2">
		<path class="st1" d="M19.6,12.4v4.7h-1.7V6.9h2.5c1.7,0,2.4,0.9,2.4,2.3v1.3c0,1.1-0.4,1.7-1.4,2l1.6,4.6h-1.8L19.6,12.4z
			 M19.6,8.3v3.2h0.6c0.6,0,0.8-0.3,0.8-0.8V9.2c0-0.6-0.3-0.8-0.8-0.8H19.6z"/>
	</g>
	<g class="st2">
		<path class="st1" d="M26.4,11.7h2.4v5.4h-1.2V16c-0.2,0.8-0.7,1.2-1.6,1.2c-1.5,0-2.1-1.2-2.1-2.7V9.6c0-1.6,0.8-2.7,2.6-2.7
			c1.9,0,2.4,1.1,2.4,2.6v0.9h-1.6v-1c0-0.6-0.2-1-0.9-1c-0.6,0-0.9,0.4-0.9,1v5.5c0,0.6,0.3,1,0.8,1c0.6,0,0.8-0.3,0.8-1V13h-0.8
			V11.7z"/>
	</g>
	<g class="st2">
		<path class="st1" d="M30.2,6.9h4.1v1.4h-2.4v2.9h1.7v1.4h-1.7v3.1h2.4v1.4h-4.1V6.9z"/>
	</g>
	<g class="st2">
		<path class="st1" d="M35.1,6.9h4.5v1.4h-1.4v8.8h-1.7V8.3h-1.4V6.9z"/>
	</g>
	<g class="st2">
		<path class="st1" d="M77.5,6.9v10.2h-1.7V9.3h0l-1.2,1.2h0V8.8l1.6-1.8H77.5z"/>
		<path class="st1" d="M83.8,12.4v2.5c0,1.4-0.7,2.3-2.4,2.3c-1.7,0-2.4-1-2.4-2.5v-1.2h1.6v1.3c0,0.6,0.2,1,0.8,1
			c0.5,0,0.7-0.4,0.7-0.9v-2.5c0-0.6-0.2-0.9-0.7-0.9c-0.5,0-0.8,0.3-0.8,0.9v0.2H79V6.9h4.5v1.4h-2.9v2.5h0
			c0.3-0.5,0.8-0.7,1.4-0.7C83,10.2,83.8,10.8,83.8,12.4z"/>
	</g>
	<g class="st2">
	</g>
	<g class="st2">
		<path class="st1" d="M86.5,10.8c0.7,0,1.2,0.6,1.2,1.2c0,0.7-0.6,1.2-1.2,1.2c-0.7,0-1.2-0.6-1.2-1.2
			C85.3,11.4,85.9,10.8,86.5,10.8z"/>
	</g>
	<g class="st2">
		<path class="st1" d="M94.3,9.5v4.9c0,1.6-0.7,2.7-2.5,2.7c-1.9,0-2.4-1-2.4-2.5v-0.5h1.6v0.7c0,0.6,0.2,1,0.8,1
			c0.6,0,0.9-0.4,0.9-1v-2.2h0c-0.3,0.5-0.7,0.8-1.4,0.8c-1.2,0-1.9-0.8-1.9-2.5V9.4c0-1.6,0.7-2.6,2.5-2.6
			C93.6,6.8,94.3,8,94.3,9.5z M91,9.2V11c0,0.7,0.2,1,0.8,1c0.5,0,0.8-0.4,0.8-0.9V9.2c0-0.6-0.2-1-0.8-1C91.2,8.2,91,8.6,91,9.2z"
			/>
	</g>
	<g>
		<path class="st1" d="M98.2,162.9h-95v-40.8h95V162.9z M4.2,161.9h93v-38.8h-93V161.9z"/>
	</g>
	<g>
		<g>
			<g>
				<path class="st0" d="M77.3,57.3c0.3,0.8,0.8,1.6,1.5,2.2c1.1,1.1,2.3,1.7,2.6,1.4s0-0.9-0.6-1.7c0.9,0.2,1.6,0.2,1.8-0.1
					s-0.8-1.3-2.3-1.8c-0.8-0.4-1.7-0.6-2.6-0.5c0-0.1,0.1-0.3,0.1-0.4c0-0.2,0-0.4,0-0.6c0-0.2-0.1-0.5-0.1-0.7l-0.2-0.1
					c-0.2,0-0.5,0.1-0.7,0.2c-0.2,0.1-0.4,0.2-0.5,0.3l-0.3,0.3c-0.3-0.9-0.9-1.6-1.6-2.1c-1.2-1-2.4-1.5-2.7-1.2s0.1,0.9,0.7,1.6
					c-1-0.2-1.7-0.1-1.8,0.2s0.9,1.2,2.4,1.7c0.8,0.3,1.7,0.4,2.6,0.3L77.3,57.3z"/>
			</g>
			<g>
				<path class="st0" d="M76.8,57.9l-1.7-1c-0.1,0.2-0.2,0.5-0.2,0.7l1.4,0.8C76.5,58.2,76.6,58.1,76.8,57.9z"/>
			</g>
			<g>
				<polygon class="st0" points="75.8,59 74.7,58.2 74.4,58.9 75.3,59.5 				"/>
			</g>
			<g>
				<path class="st0" d="M74.8,60l-0.6-0.4c-0.1,0.3-0.2,0.6-0.3,0.9l0.2,0.1L74.8,60z"/>
			</g>
		</g>
		<g>
			<path class="st0" d="M50.3,56"/>
		</g>
		<g>
			<g>
				<path class="st0" d="M37.4,66.1h26.8c0.3,0,0.5,0.2,0.5,0.5v1.1c0,0.3-0.2,0.5-0.5,0.5H37.4c-0.3,0-0.5-0.2-0.5-0.5v-1.1
					C36.9,66.3,37.1,66.1,37.4,66.1z"/>
			</g>
			<g>
				<path class="st0" d="M37.4,86.2h26.8c0.3,0,0.5,0.2,0.5,0.5v2.1c0,0.3-0.2,0.5-0.5,0.5H37.4c-0.3,0-0.5-0.2-0.5-0.5v-2.1
					C36.9,86.4,37.1,86.2,37.4,86.2z"/>
			</g>
			<g>
				<path class="st0" d="M37,64.2c0,0.1,0,0.1,0,0.2l0,0c0,0.2,0.2,0.4,0.4,0.4h26.8c0.2,0,0.4-0.2,0.4-0.4v-0.2
					c-1.7-7.6-9.3-12.4-16.9-10.6C42.4,54.7,38.2,58.8,37,64.2L37,64.2z"/>
			</g>
			<g>
				<path class="st0" d="M63.3,85c0.3,0,0.5-0.2,0.5-0.5c0,0,0,0,0,0V70c0-0.3-0.2-0.5-0.5-0.5c0,0,0,0,0,0h-25
					c-0.3,0-0.5,0.2-0.5,0.5l0,0v14.5c0,0.3,0.2,0.5,0.5,0.5c0,0,0,0,0,0L63.3,85z M56.1,71.5h4.3V83h-4.3V71.5z M48.8,71.5h4.3V83
					h-4.3V71.5z M41.7,71.5h4.3V83h-4.3V71.5z"/>
			</g>
			<g>
				<path class="st0" d="M52,46.2h-1.3v5.2c0.5-0.1,1.1-0.1,1.6,0c1,0,1.9,0.4,2.6,1c0.7,0.5,1.5,0.7,2.3,0.8h2V48h-2
					c-1.1,0-2.2-0.4-3.1-1.2C53.5,46.4,52.8,46.2,52,46.2z"/>
			</g>
		</g>
		<g>
			<path class="st0" d="M15.8,42.3l15,6.8l1.5-0.5l-2.8-1.2l-4.1-4l0.8-1l9.7-5.7l-11.7-0.6l-3,4.2l-4-0.8c0,0-3.5,2.2-2.8,3.6
				C14.7,42.6,15.8,42.3,15.8,42.3z"/>
		</g>
		<g>
			<g>
				<path class="st0" d="M82.1,34.5c-2.5,0-4.5,2-4.5,4.5c0,2.5,2,4.5,4.5,4.5c2.5,0,4.5-2,4.5-4.5C86.6,36.5,84.6,34.5,82.1,34.5z"
					/>
			</g>
			<g>
				<path class="st0" d="M74.7,39.4h2c0.2,0,0.3-0.2,0.3-0.4c0-0.2-0.2-0.4-0.3-0.4h-2c-0.2,0-0.4,0.2-0.3,0.4
					C74.3,39.2,74.5,39.4,74.7,39.4z"/>
			</g>
			<g>
				<path class="st0" d="M87.3,39c0,0.2,0.2,0.4,0.3,0.4h2c0.2,0,0.3-0.2,0.3-0.4c0-0.2-0.2-0.4-0.3-0.4h-2
					C87.4,38.6,87.3,38.8,87.3,39z"/>
			</g>
			<g>
				<path class="st0" d="M82.1,33.8c0.2,0,0.4-0.2,0.4-0.3v-2c0-0.2-0.2-0.3-0.4-0.4c-0.2,0-0.4,0.2-0.4,0.4v2
					C81.7,33.7,81.9,33.8,82.1,33.8z"/>
			</g>
			<g>
				<path class="st0" d="M82.1,44.1c-0.2,0-0.4,0.2-0.4,0.3v2c0,0.2,0.2,0.3,0.4,0.3c0.2,0,0.3-0.2,0.4-0.3v-2
					C82.5,44.3,82.3,44.1,82.1,44.1z"/>
			</g>
			<g>
				<path class="st0" d="M75.4,35.6l1.7,1c0.2,0.1,0.4,0,0.5-0.2c0.1-0.2,0-0.4-0.1-0.5l-1.7-1c-0.2-0.1-0.4,0-0.5,0.2
					C75.2,35.3,75.3,35.5,75.4,35.6z"/>
			</g>
			<g>
				<path class="st0" d="M86.7,42l1.7,1c0.2,0.1,0.4,0,0.5-0.2c0.1-0.2,0-0.4-0.1-0.5l-1.7-1c-0.2-0.1-0.4,0-0.5,0.2
					C86.5,41.7,86.6,41.9,86.7,42z"/>
			</g>
			<g>
				<path class="st0" d="M85.2,34.4l1-1.7c0.1-0.2,0-0.4-0.2-0.5c-0.2-0.1-0.3,0-0.4,0.1l-1,1.7c-0.1,0.2,0,0.4,0.2,0.5
					C84.8,34.6,85.1,34.5,85.2,34.4z"/>
			</g>
			<g>
				<path class="st0" d="M79.1,43.6l-1,1.7c-0.1,0.2,0,0.4,0.2,0.5c0.1,0.1,0.3,0,0.4-0.1l1-1.7c0.1-0.2,0-0.4-0.2-0.5
					C79.4,43.4,79.2,43.4,79.1,43.6z"/>
			</g>
			<g>
				<path class="st0" d="M79.1,34.4c0.1,0.2,0.3,0.2,0.5,0.1c0.2-0.1,0.2-0.3,0.1-0.5l-1-1.7c-0.1-0.2-0.3-0.2-0.5-0.1
					c-0.2,0.1-0.2,0.3-0.2,0.5L79.1,34.4z"/>
			</g>
			<g>
				<path class="st0" d="M84.7,43.4c-0.2,0.1-0.2,0.3-0.2,0.5l1,1.7c0.1,0.2,0.3,0.2,0.5,0.1c0.2-0.1,0.2-0.3,0.1-0.5l-1-1.7
					C85.1,43.4,84.9,43.3,84.7,43.4z"/>
			</g>
			<g>
				<path class="st0" d="M87.1,36.5l1.7-1c0.2-0.1,0.2-0.3,0.1-0.5c-0.1-0.2-0.3-0.2-0.5-0.2l-1.7,1c-0.2,0.1-0.2,0.3-0.1,0.5
					C86.7,36.5,86.9,36.6,87.1,36.5z"/>
			</g>
			<g>
				<path class="st0" d="M77.2,41.4l-1.7,1c-0.2,0.1-0.2,0.3-0.1,0.5c0.1,0.2,0.3,0.2,0.5,0.2l1.7-1c0.2-0.1,0.2-0.3,0.1-0.5
					C77.6,41.4,77.4,41.3,77.2,41.4z"/>
			</g>
		</g>
		<g>
			<path class="st0" d="M18.1,82.9h1.7v6.2c0,0.1,0.1,0.2,0.2,0.2h2.8c0.1,0,0.2-0.1,0.2-0.2v-6.3H26c2.3,0,4.1-1.9,4.1-4.2
				c0-1-0.4-2-1.1-2.8c1.9-1.1,2.5-3.4,1.5-5.3c-0.7-1.2-2-2-3.4-2h-0.2c-0.2-2.9-2.7-5.1-5.6-5c-2.8,0.2-5,2.5-5,5.4
				c0,0.8,0.2,1.6,0.5,2.3c-3.2,0.7-5.2,3.9-4.4,7.1C13,81,15.3,82.9,18.1,82.9L18.1,82.9z"/>
		</g>
		<g>
			<g>
				<path class="st0" d="M89,78.5l0.4-0.8l0.2-1.4c0.3-0.4,0.3-1,0.1-1.5c-0.5-0.1-0.9,0.6-0.9,0.6c-0.3-0.1-0.7-0.1-1-0.1
					c-0.3,0-0.6,0-0.9,0.1c-0.2-0.4-0.6-0.5-1-0.4c-0.1,0.3-0.1,0.7,0.1,1l-3.8,1.9l-4.6,0.5c-3,0-4.3,1.6-4.4,3.9
					c-0.1,1.4-0.5,2.8-1.2,4c-1.2,1.2-2-0.8-1.9-1.2c0.5-0.2,0.8-0.6,0.8-1.2c0,0-2.3,0.2-0.8,2.6c0.4,0.7,1.3,0.9,1.9,0.5
					c0.1,0,0.1-0.1,0.2-0.1l0.5,2.2l0.2,0.3h1.3l0.1-0.6l-0.6-0.3l-0.3-1.3L77,83l1.9,0.6L84,84l1.1,4.2l0.2,0.9l1.4,0.2l0.4-0.5
					l-1-0.7v-4.6l2.1-4.6L89,78.5z"/>
			</g>
			<g>
				<path class="st0" d="M78,89.3h1.1l0.2-0.6l-0.9-0.4l-0.7-1.3l1.2-3.2l-1.6-0.4l-0.7,0.8c0.4,0.9,0.4,2-0.1,2.8L78,89.3z"/>
			</g>
		</g>
		<g>
			<path class="st0" d="M90.6,105.2L90.6,105.2l-0.3,0.1c-2.5,1.3-10.4,4.3-17.5-2.5c-0.1-0.1-0.3-0.2-0.4-0.2
				c-0.2,0-0.3,0.1-0.4,0.2c-2.1,1.6-11.9,8.2-20.6,0.1l-0.1-0.1c-0.1-0.1-0.2-0.1-0.4-0.1c-0.1,0-0.2,0.1-0.3,0.1l-0.1,0.1
				c-8.7,8.1-18.5,1.5-20.6-0.1c-0.1-0.1-0.2-0.2-0.4-0.2c-0.2,0-0.3,0.1-0.4,0.2c-7.1,6.8-15,3.7-17.5,2.5l-0.2-0.1H11
				c-0.3,0-0.5,0.2-0.5,0.5c0,0,0,0,0,0v3.4c0,0.1,0.1,0.2,0.1,0.3c8.2,7.2,16.1,0.5,17.9-1.3c0.1-0.1,0.1-0.1,0.2-0.2
				c0.1,0,0.1-0.1,0.2-0.1c0.1,0,0.3,0.1,0.4,0.2c9.3,8.9,19.1,1.7,21.1,0l0.2-0.2c0,0,0.1-0.1,0.2-0.1c0.1,0,0.1,0,0.2,0.1l0.2,0.2
				c2,1.7,11.8,8.9,21.1,0l0,0c0.1-0.1,0.2-0.1,0.3-0.1c0.1,0,0.2,0,0.3,0.1c0.1,0,0.1,0.1,0.1,0.1c1.8,1.8,9.6,8.5,17.9,1.3
				c0.1-0.1,0.1-0.2,0.1-0.3v-3.4C91,105.5,90.8,105.3,90.6,105.2C90.6,105.2,90.6,105.2,90.6,105.2"/>
		</g>
		<g>
			<path class="st0" d="M11,93.8h79.6c0.3,0,0.6,0.3,0.6,0.6V98c0,0.3-0.3,0.6-0.6,0.6H11c-0.3,0-0.6-0.3-0.6-0.6v-3.6
				C10.5,94.1,10.7,93.8,11,93.8z"/>
		</g>
	</g>
</g>
</svg>
