<?xml version="1.0" encoding="utf-8"?>
<!-- Generator: Adobe Illustrator 22.0.1, SVG Export Plug-In . SVG Version: 6.00 Build 0)  -->
<svg version="1.1" id="Layer_1" xmlns="http://www.w3.org/2000/svg" xmlns:xlink="http://www.w3.org/1999/xlink" x="0px" y="0px"
	 viewBox="0 0 101.5 157.1" style="enable-background:new 0 0 101.5 157.1;" xml:space="preserve">
<style type="text/css">
	.st0{fill:#FFFFFF;}
	.st1{fill:#56C02B;}
	.st2{enable-background:new    ;}
</style>
<title>TARGET 1.3</title>
<g id="WHITE_BG">
	<g>
		<rect y="0" class="st0" width="101.5" height="157.1"/>
	</g>
</g>
<g id="TARGETS">
	<g>
		<g>
			<path class="st1" d="M10.5,129.3H7.8v2h2.9v0.9H6.9v-6.4h3.9v0.9H7.8v1.8h2.6V129.3z"/>
		</g>
		<g>
			<path class="st1" d="M15.3,132.2l-2.8-4.5v4.5h-0.9v-6.4h0.9l2.8,4.5v-4.5h0.9v6.4L15.3,132.2z"/>
		</g>
		<g>
			<path class="st1" d="M17.1,132.2v-6.4H19c2.1,0,2.7,1.4,2.7,3.2s-0.6,3.2-2.7,3.2H17.1z M18.1,131.3h1c1.3,0,1.7-0.9,1.7-2.3
				s-0.4-2.3-1.7-2.3h-1V131.3z"/>
		</g>
		<g>
			<path class="st1" d="M23.9,132.2v-6.4h1.9c2.1,0,2.7,1.4,2.7,3.2s-0.6,3.2-2.7,3.2H23.9z M24.9,131.3h1c1.3,0,1.7-0.9,1.7-2.3
				s-0.4-2.3-1.7-2.3h-1V131.3z"/>
		</g>
		<g>
			<path class="st1" d="M32.8,129.3h-2.7v2h2.9v0.9h-3.9v-6.4h3.9v0.9h-2.9v1.8h2.7V129.3z"/>
		</g>
		<g>
			<path class="st1" d="M38,130.3c0,1.2-0.7,2-2.4,2c-0.6,0-1.3-0.1-1.9-0.4V131c0.6,0.3,1.2,0.4,1.8,0.4c1.2,0,1.5-0.5,1.5-1.1
				s-0.3-0.9-1.2-1c-1.5-0.2-2.2-0.6-2.2-1.8c0-0.9,0.5-1.8,2.3-1.8c0.6,0,1.2,0.1,1.7,0.3v1c-0.5-0.2-1.1-0.3-1.7-0.3
				c-1,0-1.3,0.4-1.3,1c0,0.7,0.4,0.8,1.2,0.9C37.2,128.7,38,129,38,130.3z"/>
		</g>
		<g>
			<path class="st1" d="M42.4,129.3h-2.6v2h2.9v0.9h-3.9v-6.4h3.9v0.9h-2.9v1.8h2.7L42.4,129.3z"/>
		</g>
		<g>
			<path class="st1" d="M44.5,132.2h-1v-6.4h2.1c1.7,0,2.2,0.7,2.2,1.9c0.1,0.7-0.3,1.4-1,1.7l1.3,2.8h-1.1l-1.2-2.6h-1.3V132.2z
				 M44.5,128.7h1.3c0.9,0,1-0.5,1-1s-0.1-1-1-1h-1.3V128.7z"/>
		</g>
		<g>
			<path class="st1" d="M50.6,126.7v5.5h-1v-5.5H48v-0.9h4.3v0.9L50.6,126.7z"/>
		</g>
		<g>
			<path class="st1" d="M53,132.2v-6.4h1v6.4H53z"/>
		</g>
		<g>
			<path class="st1" d="M58.6,129.4H56v2.8h-1v-6.4h3.8v0.9H56v1.8h2.6V129.4z"/>
		</g>
		<g>
			<path class="st1" d="M59.6,132.2v-6.4h1v6.4H59.6z"/>
		</g>
		<g>
			<path class="st1" d="M64.1,125.7c0.5,0,1,0.1,1.5,0.3v0.9c-0.5-0.2-0.9-0.3-1.4-0.3c-1.2,0-1.7,0.8-1.7,2.4
				c0,1.6,0.5,2.4,1.7,2.4c0.5,0,1-0.1,1.4-0.3v0.9c-0.5,0.2-1,0.3-1.5,0.3c-1.9,0-2.6-1.2-2.6-3.3S62.2,125.7,64.1,125.7z"/>
		</g>
		<g>
			<path class="st1" d="M69.4,130.6h-2l-0.4,1.6h-1l2-6.5h1l2,6.5h-1L69.4,130.6z M68.4,127l-0.8,2.8h1.6L68.4,127z"/>
		</g>
		<g>
			<path class="st1" d="M72.9,126.7v5.5H72v-5.5h-1.7v-0.9h4.3v0.9L72.9,126.7z"/>
		</g>
		<g>
			<path class="st1" d="M75.4,132.2v-6.4h0.9v6.4H75.4z"/>
		</g>
		<g>
			<path class="st1" d="M77.3,129c0-1.8,0.4-3.3,2.5-3.3s2.5,1.5,2.5,3.3s-0.4,3.3-2.5,3.3S77.3,130.8,77.3,129z M78.3,129
				c0,1.5,0.3,2.4,1.5,2.4s1.5-0.9,1.5-2.4s-0.3-2.4-1.5-2.4S78.3,127.5,78.3,129L78.3,129z"/>
		</g>
		<g>
			<path class="st1" d="M86.7,132.2l-2.8-4.5v4.5H83v-6.4h0.9l2.8,4.5v-4.5h0.9v6.4L86.7,132.2z"/>
		</g>
		<g>
			<path class="st1" d="M10.1,139.6h-2l-0.4,1.6h-1l2-6.5h1l2,6.5h-1L10.1,139.6z M9.1,136l-0.8,2.8h1.6L9.1,136z"/>
		</g>
		<g>
			<path class="st1" d="M15.8,141.2l-2.8-4.5v4.5h-0.9v-6.4H13l2.8,4.5v-4.5h0.9v6.4L15.8,141.2z"/>
		</g>
		<g>
			<path class="st1" d="M17.6,141.2v-6.4h1.9c2.1,0,2.7,1.4,2.7,3.2s-0.6,3.2-2.7,3.2H17.6z M18.6,140.3h1c1.3,0,1.7-0.9,1.7-2.3
				s-0.4-2.3-1.7-2.3h-1V140.3z"/>
		</g>
		<g>
			<path class="st1" d="M25.4,141.2h-1v-6.4h2.1c1.6,0,2.2,0.7,2.2,1.9c0.1,0.7-0.3,1.4-1,1.7l1.3,2.8h-1.1l-1.2-2.6h-1.3V141.2z
				 M25.4,137.7h1.3c0.9,0,1-0.5,1-1s-0.1-1-1-1h-1.3V137.7z"/>
		</g>
		<g>
			<path class="st1" d="M33.2,138.3h-2.7v2h2.9v0.9h-3.9v-6.4h3.9v0.9h-2.9v1.8h2.7V138.3z"/>
		</g>
		<g>
			<path class="st1" d="M38.5,139.3c0,1.2-0.7,2-2.4,2c-0.6,0-1.3-0.1-1.9-0.4V140c0.6,0.3,1.2,0.4,1.8,0.4c1.2,0,1.5-0.5,1.5-1.1
				s-0.3-0.9-1.2-1c-1.6-0.2-2.2-0.6-2.2-1.8c0-0.9,0.5-1.8,2.3-1.8c0.6,0,1.2,0.1,1.7,0.3v1c-0.5-0.2-1.1-0.3-1.7-0.3
				c-1,0-1.3,0.4-1.3,1s0.4,0.8,1.2,0.9C37.7,137.7,38.5,138,38.5,139.3z"/>
		</g>
		<g>
			<path class="st1" d="M41.2,135.7v5.5h-1v-5.5h-1.6v-0.9h4.3v0.9H41.2z"/>
		</g>
		<g>
			<path class="st1" d="M43.1,138c0-1.8,0.4-3.3,2.5-3.3s2.4,1.5,2.4,3.3s-0.4,3.3-2.5,3.3S43.1,139.8,43.1,138z M44.1,138
				c0,1.5,0.3,2.4,1.5,2.4s1.4-0.9,1.4-2.4s-0.3-2.4-1.5-2.4S44.1,136.5,44.1,138L44.1,138z"/>
		</g>
		<g>
			<path class="st1" d="M49.7,141.2h-1v-6.4h2.1c1.7,0,2.2,0.7,2.2,1.9c0.1,0.7-0.3,1.4-1,1.7l1.3,2.8h-1.1l-1.2-2.6h-1.3V141.2z
				 M49.7,137.7H51c0.9,0,1-0.5,1-1s-0.1-1-1-1h-1.3V137.7z"/>
		</g>
		<g>
			<path class="st1" d="M57.5,138.3h-2.6v2h2.9v0.9H54v-6.4h3.9v0.9h-3v1.8h2.7L57.5,138.3z"/>
		</g>
		<g>
			<path class="st1" d="M6.9,150.2v-6.4h1.9c2.1,0,2.7,1.4,2.7,3.2s-0.6,3.2-2.7,3.2H6.9z M7.9,149.3h1c1.3,0,1.7-0.9,1.7-2.3
				s-0.4-2.3-1.7-2.3h-1L7.9,149.3z"/>
		</g>
		<g>
			<path class="st1" d="M15.8,147.3h-2.7v2h2.9v0.9h-3.9v-6.4h3.9v0.9h-2.9v1.8h2.7L15.8,147.3z"/>
		</g>
		<g>
			<path class="st1" d="M16.7,147c0-2,0.7-3.3,2.6-3.3c0.6,0,1.3,0.1,1.8,0.3v1c-0.5-0.2-1.1-0.4-1.7-0.4c-1.3,0-1.8,0.9-1.8,2.4
				s0.5,2.4,1.8,2.4c0.3,0,0.6,0,0.9-0.1v-1.8h-1.1v-0.9h2.1v3.2c-0.6,0.3-1.3,0.4-2,0.4C17.4,150.3,16.7,149,16.7,147z"/>
		</g>
		<g>
			<path class="st1" d="M23.2,150.2h-1v-6.4h2.1c1.6,0,2.2,0.7,2.2,1.9c0.1,0.7-0.3,1.4-1,1.7l1.3,2.8h-1.1l-1.1-2.6h-1.3V150.2z
				 M23.2,146.7h1.3c0.9,0,1-0.5,1-1s-0.1-1-1-1h-1.3V146.7z"/>
		</g>
		<g>
			<path class="st1" d="M30.5,148.6h-2l-0.5,1.6h-1l2-6.5h1l2,6.5h-1L30.5,148.6z M29.5,145l-0.8,2.8h1.6L29.5,145z"/>
		</g>
		<g>
			<path class="st1" d="M32.5,150.2v-6.4h1.9c2.1,0,2.7,1.4,2.7,3.2s-0.6,3.2-2.7,3.2H32.5z M33.5,149.3h1c1.3,0,1.7-0.9,1.7-2.3
				s-0.4-2.3-1.7-2.3h-1V149.3z"/>
		</g>
		<g>
			<path class="st1" d="M41.5,147.3h-2.7v2h2.9v0.9h-3.9v-6.4h3.9v0.9h-2.9v1.8h2.7V147.3z"/>
		</g>
		<g>
			<path class="st1" d="M42.6,150.2v-6.4h1.9c2.1,0,2.7,1.4,2.7,3.2s-0.6,3.2-2.7,3.2H42.6z M43.6,149.3h1c1.3,0,1.7-0.9,1.7-2.3
				s-0.4-2.3-1.7-2.3h-1V149.3z"/>
		</g>
		<g>
			<path class="st1" d="M50.3,149.3h2.8v0.9h-3.7v-6.4h1L50.3,149.3z"/>
		</g>
		<g>
			<path class="st1" d="M56.8,148.6h-2l-0.5,1.6h-1l2-6.5h1l2,6.5h-1L56.8,148.6z M55.8,145l-0.8,2.8h1.6L55.8,145z"/>
		</g>
		<g>
			<path class="st1" d="M62.5,150.2l-2.8-4.5v4.5h-0.9v-6.4h0.9l2.8,4.5v-4.5h0.9v6.4H62.5z"/>
		</g>
		<g>
			<path class="st1" d="M64.3,150.2v-6.4h1.9c2.1,0,2.7,1.4,2.7,3.2s-0.6,3.2-2.7,3.2H64.3z M65.3,149.3h1c1.3,0,1.7-0.9,1.7-2.3
				s-0.4-2.3-1.7-2.3h-1V149.3z"/>
		</g>
	</g>
	<g>
		<rect x="3.3" y="24" class="st1" width="94.8" height="94.8"/>
	</g>
	<g>
		<path class="st1" d="M98.2,20.7H3.3V3.3h94.8V20.7z M4.3,19.7h92.8V4.3H4.3L4.3,19.7z"/>
	</g>
	<g class="st2">
		<path class="st1" d="M6.7,6.9h4.5v1.4H9.9v8.8H8.1V8.3H6.7V6.9z"/>
	</g>
	<g class="st2">
		<path class="st1" d="M11.2,17.1l1.9-10.2h1.9L17,17.1h-1.8l-0.3-1.9h-1.8l-0.3,1.9H11.2z M13.3,13.9h1.4L14,9.8h0L13.3,13.9z"/>
	</g>
	<g class="st2">
		<path class="st1" d="M19.6,12.4v4.7h-1.7V6.9h2.5c1.7,0,2.4,0.9,2.4,2.3v1.3c0,1.1-0.4,1.7-1.4,2l1.6,4.6h-1.8L19.6,12.4z
			 M19.6,8.3v3.2h0.6c0.6,0,0.8-0.3,0.8-0.8V9.2c0-0.6-0.3-0.8-0.8-0.8H19.6z"/>
	</g>
	<g class="st2">
		<path class="st1" d="M26.4,11.7h2.4v5.4h-1.2V16c-0.2,0.8-0.7,1.2-1.6,1.2c-1.5,0-2.1-1.2-2.1-2.7V9.6c0-1.6,0.8-2.7,2.6-2.7
			c1.9,0,2.4,1.1,2.4,2.6v0.9h-1.6v-1c0-0.6-0.2-1-0.9-1c-0.6,0-0.9,0.4-0.9,1v5.5c0,0.6,0.3,1,0.8,1c0.6,0,0.8-0.3,0.8-1V13h-0.8
			V11.7z"/>
	</g>
	<g class="st2">
		<path class="st1" d="M30.2,6.9h4.1v1.4h-2.4v2.9h1.7v1.4h-1.7v3.1h2.4v1.4h-4.1V6.9z"/>
	</g>
	<g class="st2">
		<path class="st1" d="M35.1,6.9h4.5v1.4h-1.4v8.8h-1.7V8.3h-1.4V6.9z"/>
	</g>
	<g class="st2">
		<path class="st1" d="M77.8,6.9v10.2h-1.7V9.3h0l-1.2,1.2h0V8.8l1.6-1.8H77.8z"/>
		<path class="st1" d="M84,12.4v2.5c0,1.4-0.7,2.3-2.4,2.3c-1.7,0-2.4-1-2.4-2.5v-1.2h1.6v1.3c0,0.6,0.2,1,0.8,1
			c0.5,0,0.7-0.4,0.7-0.9v-2.5c0-0.6-0.2-0.9-0.7-0.9c-0.5,0-0.8,0.3-0.8,0.9v0.2h-1.6V6.9h4.5v1.4h-2.9v2.5h0
			c0.3-0.5,0.8-0.7,1.4-0.7C83.2,10.2,84,10.8,84,12.4z"/>
	</g>
	<g class="st2">
	</g>
	<g class="st2">
		<path class="st1" d="M86.8,10.8c0.7,0,1.2,0.6,1.2,1.2c0,0.7-0.6,1.2-1.2,1.2c-0.7,0-1.2-0.6-1.2-1.2
			C85.6,11.4,86.1,10.8,86.8,10.8z"/>
	</g>
	<g class="st2">
		<path class="st1" d="M94.3,9.1V10c0,0.9-0.5,1.4-1.2,1.7c0.9,0.2,1.3,0.8,1.3,1.7v1.5c0,1.4-0.8,2.3-2.5,2.3c-1.7,0-2.4-1-2.4-2.5
			v-1.3h1.6v1.5c0,0.6,0.2,1,0.8,1c0.5,0,0.8-0.4,0.8-0.9v-1.7c0-0.5-0.2-0.8-0.8-0.8h-0.7v-1.3h0.6c0.6,0,0.9-0.3,0.9-0.8V9.2
			c0-0.6-0.2-0.9-0.7-0.9s-0.7,0.4-0.7,1v1h-1.6V9.4c0-1.5,0.6-2.6,2.4-2.6C93.6,6.8,94.3,7.7,94.3,9.1z"/>
	</g>
	<g>
		<path class="st1" d="M98.2,153.9h-95v-31.7h95V153.9z M4.2,152.9h93v-29.7h-93V152.9z"/>
	</g>
	<g>
		<g>
			<path d="M29,65.5c-0.1,0.1-0.1,0.3,0.1,0.4c0,0,0,0,0,0l2.7,2l0,0l3.1,2.3c-0.1,3.2-0.1,7.6,0,9c0,0.3,0.8,0.3,0.8,0.3h0.2
				c0.3,0,0.9,0,1-0.3c0.1-2-0.2-9.9-0.3-12v-0.7l4.8-5c0.1-0.1,0.2-0.3,0-0.5s-0.3-0.2-0.5,0c0,0,0,0,0,0l-1.1,1.2v-3.2
				c0-0.2-0.1-0.3-0.3-0.3S39.1,59,39,59.2c0,0,0,0,0,0v3.9l-2.6,2.7l-0.2-4.5c-0.1-2-0.1-4.1-0.3-6.1c0,0,0-0.1-0.2-0.1
				s-0.2,0.1-0.2,0.1c-0.2,2-0.1,4-0.2,6.1l0,0l-2-2c-0.1-0.1-0.4-0.1-0.5,0.1c-0.1,0.1-0.1,0.3,0,0.4l0.6,0.6l-1.4,0.5
				c-0.2,0.1-0.3,0.2-0.2,0.4c0,0.1,0.2,0.2,0.3,0.2h0.1l1.7-0.6l1.4,1.4L35,67.4c0,0.5,0,1.2-0.1,2.2l-2.5-1.9V64
				c0-0.2-0.2-0.3-0.4-0.3c-0.1,0-0.2,0.1-0.3,0.3v3.1l-2.2-1.7C29.4,65.3,29.2,65.3,29,65.5C29,65.5,29,65.5,29,65.5z"/>
		</g>
		<g>
			<path d="M16.1,63.5L16.1,63.5l4.3,3.2c-0.1,4.4-0.2,10.5,0,12.5c0,0.4,1.1,0.4,1.1,0.4h0.3c0.4,0,1.3,0,1.3-0.4
				c0.2-2.8-0.2-13.8-0.4-16.6l0-0.9l6.6-6.9c0.2-0.2,0.2-0.5,0-0.7c-0.2-0.2-0.5-0.2-0.6,0L27,55.8v-4.5c0-0.2-0.2-0.5-0.4-0.5h0
				c-0.3,0-0.5,0.2-0.5,0.5v5.5l-3.5,3.7l-0.3-6.3c-0.2-2.8-0.2-5.7-0.4-8.5c0,0,0-0.1-0.3-0.1s-0.3,0.2-0.3,0.2
				c-0.2,2.8-0.2,5.6-0.4,8.5v0.1l-2.8-2.9c-0.2-0.2-0.5-0.2-0.6,0s-0.2,0.5,0,0.6l0.8,0.8l-2,0.7c-0.2,0.1-0.4,0.3-0.3,0.6
				c0.1,0.2,0.2,0.3,0.4,0.3h0.1l2.4-0.8l1.9,1.9l-0.4,7.2c0,0.6-0.1,1.7-0.1,3L16.8,63v-5c0-0.3-0.2-0.5-0.5-0.5
				c-0.3,0-0.5,0.2-0.5,0.5v4.3l-3-2.3c-0.2-0.1-0.5-0.1-0.6,0.2c-0.1,0.2-0.1,0.4,0.1,0.6L16.1,63.5z"/>
		</g>
		<g>
			<rect x="49.8" y="99.9" width="1.7" height="4.8"/>
		</g>
		<g>
			<rect x="49.8" y="108.7" width="1.7" height="4.7"/>
		</g>
		<g>
			<rect x="49.8" y="73.5" width="1.7" height="4.7"/>
		</g>
		<g>
			<rect x="49.8" y="47.1" width="1.7" height="4.7"/>
		</g>
		<g>
			<rect x="49.8" y="64.7" width="1.7" height="4.7"/>
		</g>
		<g>
			<rect x="49.8" y="55.9" width="1.7" height="4.8"/>
		</g>
		<g>
			<rect x="49.8" y="38.3" width="1.7" height="4.7"/>
		</g>
		<g>
			<rect x="49.8" y="29.5" width="1.7" height="4.7"/>
		</g>
		<g>
			<path d="M10,82.3c-0.2,0-0.3,0.1-0.3,0.3v4.1c0,0.2,0.2,0.3,0.3,0.3h7.1L12,93.9l3.8,4.2l-3.6,5.8l0.9,0.5l4-6.5l-3.8-4.1l3-4
				l5.7,3.5l0.5-0.8L16.9,89l1.5-2h6.3l4.4,4l-1.2,4.1L23,97.7l0.5,0.9l4.7-2.5l6.3,6l0.7-0.7l-6.4-6l1.3-4.6l-4-3.6h11.6l-4.1,6
				l8.1,2.7L39,105l1,0.3l1.6-5.3l3.8,1.3l0.3-0.9L41.8,99l1.2-3.9l-7.8-2.6L39,87h11.6v-4.7L10,82.3z"/>
		</g>
	</g>
	<g>
		<g>
			<path class="st0" d="M91.5,82.3H50.6V87h40.8c0.2,0,0.3-0.1,0.3-0.3v-4C91.8,82.5,91.7,82.3,91.5,82.3z"/>
		</g>
		<g>
			<path class="st0" d="M91.4,90.4H51c-0.2,0-0.3,0.1-0.3,0.3v4.1c0,0.2,0.2,0.3,0.3,0.3h40.4c0.2,0,0.3-0.1,0.3-0.3v-4.1
				C91.7,90.5,91.5,90.4,91.4,90.4z"/>
		</g>
		<g>
			<path class="st0" d="M68.2,71.1h2.2v8.3c0,0.2,0.1,0.3,0.3,0.3h3.8c0.2,0,0.3-0.1,0.3-0.3V71h3.9c3.1,0,5.5-2.5,5.5-5.6
				c0-1.4-0.5-2.8-1.5-3.8c2.5-1.4,3.3-4.6,1.9-7.1C83.6,53,81.9,52,80.1,52h-0.3c-0.3-3.9-3.7-6.7-7.5-6.4s-6.7,3.7-6.4,7.5
				c0.1,0.9,0.3,1.7,0.7,2.5c-4.2,0.9-6.9,5.1-6,9.3C61.3,68.5,64.5,71.1,68.2,71.1L68.2,71.1z"/>
		</g>
	</g>
</g>
</svg>
