<?xml version="1.0" encoding="utf-8"?>
<!-- Generator: Adobe Illustrator 22.0.1, SVG Export Plug-In . SVG Version: 6.00 Build 0)  -->
<svg version="1.1" id="Layer_1" xmlns="http://www.w3.org/2000/svg" xmlns:xlink="http://www.w3.org/1999/xlink" x="0px" y="0px"
	 viewBox="0 0 101.5 157.1" style="enable-background:new 0 0 101.5 157.1;" xml:space="preserve">
<style type="text/css">
	.st0{fill:#FFFFFF;}
	.st1{fill:#56C02B;}
	.st2{enable-background:new    ;}
</style>
<title>TARGET 1 B copy 8</title>
<g id="WHITE_BG">
	<g>
		<rect y="0" class="st0" width="101.5" height="157.2"/>
	</g>
</g>
<g id="TARGETS">
	<g>
		<g>
			<path class="st1" d="M10.5,129.3H7.8v2h2.9v0.9H6.9v-6.4h3.9v0.9H7.8v1.8h2.6V129.3z"/>
		</g>
		<g>
			<path class="st1" d="M15.3,132.2l-2.8-4.5v4.5h-0.9v-6.4h0.9l2.8,4.5v-4.5h0.9v6.4H15.3z"/>
		</g>
		<g>
			<path class="st1" d="M21.2,130.3c0,1.2-0.7,2-2.4,2c-0.6,0-1.3-0.1-1.9-0.4V131c0.6,0.3,1.2,0.4,1.8,0.4c1.1,0,1.5-0.5,1.5-1.1
				s-0.3-0.9-1.2-1c-1.6-0.2-2.2-0.6-2.2-1.8c0-0.9,0.5-1.8,2.3-1.8c0.6,0,1.2,0.1,1.7,0.3v1c-0.5-0.2-1.1-0.3-1.7-0.3
				c-1,0-1.3,0.4-1.3,1c0,0.7,0.4,0.8,1.2,0.9C20.4,128.7,21.2,129,21.2,130.3z"/>
		</g>
		<g>
			<path class="st1" d="M21.8,130.2v-4.4h1v4.3c-0.1,0.7,0.4,1.2,1,1.3c0.1,0,0.2,0,0.3,0c0.6,0.1,1.3-0.3,1.4-1c0-0.1,0-0.2,0-0.3
				v-4.3h1v4.4c0,1.1-0.8,2.1-2,2.1c-0.1,0-0.2,0-0.3,0c-1.1,0.1-2.2-0.6-2.3-1.8C21.8,130.4,21.8,130.3,21.8,130.2z"/>
		</g>
		<g>
			<path class="st1" d="M28.3,132.2h-1v-6.4h2.1c1.6,0,2.2,0.7,2.2,1.9c0.1,0.7-0.3,1.4-1,1.7l1.3,2.8h-1.1l-1.2-2.6h-1.3V132.2z
				 M28.3,128.7h1.2c0.9,0,1-0.5,1-1s-0.1-1-1-1h-1.2V128.7z"/>
		</g>
		<g>
			<path class="st1" d="M36,129.3h-2.7v2h2.9v0.9h-3.9v-6.4h3.9v0.9h-2.9v1.8H36V129.3z"/>
		</g>
		<g>
			<path class="st1" d="M41,125.7c0.5,0,1,0.1,1.5,0.3v0.9c-0.4-0.2-0.9-0.3-1.4-0.3c-1.2,0-1.7,0.8-1.7,2.4s0.5,2.4,1.7,2.4
				c0.5,0,1-0.1,1.4-0.3v0.9c-0.5,0.2-1,0.3-1.5,0.3c-1.9,0-2.6-1.2-2.6-3.3S39.1,125.7,41,125.7z"/>
		</g>
		<g>
			<path class="st1" d="M43.2,129c0-1.8,0.4-3.3,2.5-3.3s2.5,1.5,2.5,3.3s-0.4,3.3-2.5,3.3S43.2,130.8,43.2,129z M44.2,129
				c0,1.5,0.3,2.4,1.5,2.4s1.5-0.9,1.5-2.4s-0.3-2.4-1.5-2.4S44.1,127.5,44.2,129L44.2,129z"/>
		</g>
		<g>
			<path class="st1" d="M52.6,132.2l-2.8-4.5v4.5h-0.9v-6.4h0.9l2.8,4.5v-4.5h0.9v6.4H52.6z"/>
		</g>
		<g>
			<path class="st1" d="M58.6,130.3c0,1.2-0.7,2-2.4,2c-0.6,0-1.3-0.1-1.9-0.4V131c0.6,0.3,1.2,0.4,1.8,0.4c1.2,0,1.5-0.5,1.5-1.1
				s-0.3-0.9-1.2-1c-1.6-0.2-2.2-0.6-2.2-1.8c0-0.9,0.5-1.8,2.3-1.8c0.6,0,1.2,0.1,1.7,0.3v1c-0.5-0.2-1.1-0.3-1.7-0.3
				c-1,0-1.3,0.4-1.3,1c0,0.7,0.4,0.8,1.2,0.9C57.8,128.7,58.6,129,58.6,130.3z"/>
		</g>
		<g>
			<path class="st1" d="M63,129.3h-2.6v2h2.9v0.9h-3.9v-6.4h3.9v0.9h-2.9v1.8H63V129.3z"/>
		</g>
		<g>
			<path class="st1" d="M65.1,132.2h-1v-6.4h2.1c1.7,0,2.2,0.7,2.2,1.9c0.1,0.7-0.3,1.4-1,1.7l1.3,2.8h-1.1l-1.2-2.6h-1.3V132.2z
				 M65.1,128.7h1.3c0.9,0,1-0.5,1-1s-0.1-1-1-1h-1.3V128.7z"/>
		</g>
		<g>
			<path class="st1" d="M73.6,125.8l-2,6.4h-1l-2-6.4h1l1.5,5.2l1.5-5.2L73.6,125.8z"/>
		</g>
		<g>
			<path class="st1" d="M76.6,130.6h-2l-0.4,1.6H73l2-6.4h1l2,6.4h-1L76.6,130.6z M75.6,127l-0.8,2.8h1.6L75.6,127z"/>
		</g>
		<g>
			<path class="st1" d="M80.1,126.7v5.5h-1v-5.5h-1.6v-0.9h4.3v0.9H80.1z"/>
		</g>
		<g>
			<path class="st1" d="M82.4,132.2v-6.4h0.9v6.4H82.4z"/>
		</g>
		<g>
			<path class="st1" d="M84.3,129c0-1.8,0.4-3.3,2.5-3.3s2.4,1.5,2.4,3.3s-0.4,3.3-2.4,3.3S84.3,130.8,84.3,129z M85.3,129
				c0,1.5,0.3,2.4,1.5,2.4s1.5-0.9,1.5-2.4s-0.3-2.4-1.5-2.4S85.3,127.5,85.3,129L85.3,129z"/>
		</g>
		<g>
			<path class="st1" d="M93.7,132.2l-2.8-4.5v4.5H90v-6.4h0.9l2.8,4.5v-4.5h0.9v6.4H93.7z"/>
		</g>
		<g>
			<path class="st1" d="M6.8,138c0-1.8,0.4-3.3,2.5-3.3s2.5,1.5,2.5,3.3s-0.4,3.3-2.5,3.3S6.8,139.8,6.8,138z M7.8,138
				c0,1.5,0.3,2.4,1.5,2.4s1.5-0.9,1.5-2.4s-0.3-2.4-1.5-2.4S7.8,136.5,7.8,138L7.8,138z"/>
		</g>
		<g>
			<path class="st1" d="M16,138.4h-2.6v2.8h-0.9v-6.4h3.8v0.9h-2.9v1.8H16V138.4z"/>
		</g>
		<g>
			<path class="st1" d="M21.8,140.3h-0.9l-1.6-3.9v4.8h-1v-6.4h1.2l1.7,4.3l1.7-4.3h1.2v6.4h-0.9l0-4.8L21.8,140.3z"/>
		</g>
		<g>
			<path class="st1" d="M25.1,138c0-1.8,0.4-3.3,2.5-3.3s2.4,1.5,2.4,3.3s-0.4,3.3-2.5,3.3S25.1,139.8,25.1,138z M26.1,138
				c0,1.5,0.3,2.4,1.5,2.4s1.5-0.9,1.5-2.4s-0.3-2.4-1.5-2.4S26.1,136.5,26.1,138L26.1,138z"/>
		</g>
		<g>
			<path class="st1" d="M30.9,139.2v-4.4h1v4.3c-0.1,0.7,0.4,1.2,1,1.3c0.1,0,0.2,0,0.3,0c0.6,0.1,1.3-0.3,1.4-1c0-0.1,0-0.2,0-0.3
				v-4.3h1v4.4c0,1.1-0.8,2.1-2,2.1c-0.1,0-0.2,0-0.3,0c-1.1,0.1-2.2-0.6-2.3-1.8C30.9,139.4,30.9,139.3,30.9,139.2z"/>
		</g>
		<g>
			<path class="st1" d="M40.1,141.2l-2.8-4.5v4.5h-1v-6.4h0.9l2.8,4.5v-4.5h1v6.4H40.1z"/>
		</g>
		<g>
			<path class="st1" d="M44.1,135.7v5.5h-1v-5.5h-1.6v-0.9h4.3v0.9H44.1z"/>
		</g>
		<g>
			<path class="st1" d="M48.8,139.6h-2l-0.5,1.6h-1l2-6.4h1l2,6.4h-1L48.8,139.6z M47.8,136l-0.8,2.8h1.6L47.8,136z"/>
		</g>
		<g>
			<path class="st1" d="M51,141.2v-6.4h1v6.4H51z"/>
		</g>
		<g>
			<path class="st1" d="M56.7,141.2l-2.8-4.5v4.5H53v-6.4h0.9l2.8,4.5v-4.5h1v6.4H56.7z"/>
		</g>
		<g>
			<path class="st1" d="M10.5,147.3H7.8v2h2.9v0.9H6.9v-6.4h3.9v0.9H7.8v1.8h2.6V147.3z"/>
		</g>
		<g>
			<path class="st1" d="M14,143.7c0.5,0,1,0.1,1.5,0.3v0.9c-0.5-0.2-0.9-0.3-1.4-0.3c-1.2,0-1.7,0.8-1.7,2.4s0.5,2.4,1.7,2.4
				c0.5,0,1-0.1,1.4-0.3v0.9c-0.5,0.2-1,0.3-1.5,0.3c-1.9,0-2.6-1.2-2.6-3.3S12.1,143.7,14,143.7z"/>
		</g>
		<g>
			<path class="st1" d="M16.1,147c0-1.8,0.4-3.3,2.5-3.3s2.4,1.5,2.4,3.3s-0.4,3.3-2.5,3.3S16.1,148.8,16.1,147z M17.1,147
				c0,1.5,0.3,2.4,1.5,2.4s1.5-0.9,1.5-2.4s-0.3-2.4-1.5-2.4S17.1,145.5,17.1,147L17.1,147z"/>
		</g>
		<g>
			<path class="st1" d="M26,148.3c0,1.2-0.7,2-2.4,2c-0.6,0-1.3-0.1-1.9-0.4V149c0.6,0.3,1.2,0.4,1.8,0.4c1.1,0,1.5-0.5,1.5-1.1
				s-0.3-0.9-1.2-1c-1.5-0.2-2.1-0.6-2.1-1.8c0-0.9,0.5-1.8,2.3-1.8c0.6,0,1.2,0.1,1.7,0.3v1c-0.5-0.2-1.1-0.3-1.7-0.3
				c-1,0-1.3,0.4-1.3,1s0.4,0.8,1.2,0.9C25.2,146.7,26,147,26,148.3z"/>
		</g>
		<g>
			<path class="st1" d="M29.2,147.6v2.6h-1v-2.6l-2.2-3.8h1.1l1.6,3l1.6-3h1.1L29.2,147.6z"/>
		</g>
		<g>
			<path class="st1" d="M35.8,148.3c0,1.2-0.7,2-2.4,2c-0.6,0-1.3-0.1-1.9-0.4V149c0.6,0.3,1.2,0.4,1.8,0.4c1.2,0,1.5-0.5,1.5-1.1
				s-0.3-0.9-1.2-1c-1.5-0.2-2.2-0.6-2.2-1.8c0-0.9,0.5-1.8,2.3-1.8c0.6,0,1.2,0.1,1.7,0.3v1c-0.5-0.2-1.1-0.3-1.7-0.3
				c-1,0-1.3,0.4-1.3,1s0.4,0.8,1.2,0.9C35,146.7,35.8,147,35.8,148.3z"/>
		</g>
		<g>
			<path class="st1" d="M38.5,144.7v5.5h-1v-5.5h-1.7v-0.9h4.3v0.9H38.5z"/>
		</g>
		<g>
			<path class="st1" d="M44.4,147.3h-2.7v2h2.9v0.9h-3.9v-6.4h3.9v0.9h-2.9v1.8h2.7V147.3z"/>
		</g>
		<g>
			<path class="st1" d="M49,149.3h-0.9l-1.6-3.9v4.8h-1v-6.4h1.2l1.7,4.3l1.7-4.3h1.2v6.4h-1v-4.8L49,149.3z"/>
		</g>
		<g>
			<path class="st1" d="M56.6,148.3c0,1.2-0.7,2-2.4,2c-0.6,0-1.3-0.1-1.9-0.4V149c0.6,0.3,1.2,0.4,1.8,0.4c1.2,0,1.5-0.5,1.5-1.1
				s-0.3-0.9-1.2-1c-1.5-0.2-2.2-0.6-2.2-1.8c0-0.9,0.5-1.8,2.3-1.8c0.6,0,1.2,0.1,1.7,0.3v1c-0.5-0.2-1.1-0.3-1.7-0.3
				c-1,0-1.3,0.4-1.3,1s0.4,0.8,1.2,0.9C55.8,146.7,56.6,147,56.6,148.3z"/>
		</g>
	</g>
	<g>
		<rect x="3.3" y="24" class="st1" width="94.8" height="94.8"/>
	</g>
	<g>
		<path class="st1" d="M98.2,20.7H3.3V3.3h94.8V20.7z M4.3,19.7h92.8V4.3H4.3L4.3,19.7z"/>
	</g>
	<g class="st2">
		<path class="st1" d="M6.7,6.9h4.5v1.4H9.9v8.8H8.1V8.3H6.7V6.9z"/>
	</g>
	<g class="st2">
		<path class="st1" d="M11.2,17.1l1.9-10.2h1.9L17,17.1h-1.8l-0.3-1.9h-1.8l-0.3,1.9H11.2z M13.3,13.9h1.4L14,9.8h0L13.3,13.9z"/>
	</g>
	<g class="st2">
		<path class="st1" d="M19.6,12.4v4.7h-1.7V6.9h2.5c1.7,0,2.4,0.9,2.4,2.3v1.3c0,1.1-0.4,1.7-1.4,2l1.6,4.6h-1.8L19.6,12.4z
			 M19.6,8.3v3.2h0.6c0.6,0,0.8-0.3,0.8-0.8V9.2c0-0.6-0.3-0.8-0.8-0.8H19.6z"/>
	</g>
	<g class="st2">
		<path class="st1" d="M26.4,11.7h2.4v5.4h-1.2V16c-0.2,0.8-0.7,1.2-1.6,1.2c-1.5,0-2.1-1.2-2.1-2.7V9.6c0-1.6,0.8-2.7,2.6-2.7
			c1.9,0,2.4,1.1,2.4,2.6v0.9h-1.6v-1c0-0.6-0.2-1-0.9-1c-0.6,0-0.9,0.4-0.9,1v5.5c0,0.6,0.3,1,0.8,1c0.6,0,0.8-0.3,0.8-1V13h-0.8
			V11.7z"/>
	</g>
	<g class="st2">
		<path class="st1" d="M30.2,6.9h4.1v1.4h-2.4v2.9h1.7v1.4h-1.7v3.1h2.4v1.4h-4.1V6.9z"/>
	</g>
	<g class="st2">
		<path class="st1" d="M35.1,6.9h4.5v1.4h-1.4v8.8h-1.7V8.3h-1.4V6.9z"/>
	</g>
	<g class="st2">
		<path class="st1" d="M77.5,6.9v10.2h-1.7V9.3h0l-1.2,1.2h0V8.8l1.6-1.8H77.5z"/>
		<path class="st1" d="M83.7,12.4v2.5c0,1.4-0.7,2.3-2.4,2.3c-1.7,0-2.4-1-2.4-2.5v-1.2h1.6v1.3c0,0.6,0.2,1,0.8,1
			c0.5,0,0.7-0.4,0.7-0.9v-2.5c0-0.6-0.2-0.9-0.7-0.9c-0.5,0-0.8,0.3-0.8,0.9v0.2H79V6.9h4.5v1.4h-2.9v2.5h0
			c0.3-0.5,0.8-0.7,1.4-0.7C82.9,10.2,83.7,10.8,83.7,12.4z"/>
	</g>
	<g class="st2">
	</g>
	<g class="st2">
		<path class="st1" d="M86.5,10.8c0.7,0,1.2,0.6,1.2,1.2c0,0.7-0.6,1.2-1.2,1.2c-0.7,0-1.2-0.6-1.2-1.2
			C85.2,11.4,85.8,10.8,86.5,10.8z"/>
	</g>
	<g class="st2">
		<path class="st1" d="M89.1,14.4l3-7.5h1.7v7.2h0.7v1.3h-0.7v1.7h-1.6v-1.7h-3V14.4z M90.6,14.1h1.5V9.9h0L90.6,14.1z"/>
	</g>
	<g>
		<path class="st1" d="M98.2,153.9h-95v-31.7h95V153.9z M4.2,152.9h93v-29.7h-93V152.9z"/>
	</g>
	<g>
		<g>
			<path class="st0" d="M13.9,84.5l14.6-21h23.2l0,0c2.2-0.1,4.3-1.2,5.5-3l4.2,5.9l6.7-9.9l18.3,28h2.4l-0.7-1.2l-20-30.7l-6.8,10
				l-3.1-4.4c0.2-0.6,0.3-1.3,0.3-1.9c0-3.8-2.9-6.9-6.7-7.1l-8.1-11.5l-6,8.7h-0.7l0,0c0-3.5-2.8-6.3-6.3-6.3s-6.3,2.8-6.3,6.3
				c0,0.1,0,0.1,0,0.2c-0.6-0.1-1.3-0.2-1.9-0.2c-4.7,0-8.5,3.8-8.5,8.6c0,4.7,3.8,8.5,8.5,8.5H26l-14.6,21L13.9,84.5z M43.8,41.3
				l5.7,8.1c-1.5,0.4-2.7,1.2-3.7,2.4c-1-2.5-3.1-4.4-5.7-5.1L43.8,41.3z"/>
		</g>
		<g>
			<path class="st0" d="M43.8,102.2h2c0.1,0,0.2-0.1,0.2-0.1c0,0,0,0,0,0v-4.4h4.8c0.2,0,0.3-0.1,0.3-0.3l0,0c0,0,0-0.1,0-0.1
				l-5.8-19v-0.1c-0.1-0.1-0.2-0.2-0.3-0.2c-0.1,0-0.2,0.1-0.3,0.2l-0.1,0.1l-5.9,19c-0.1,0.1-0.1,0.3,0.1,0.4
				c0.1,0,0.1,0.1,0.2,0.1h4.8v4.3C43.8,102.1,43.8,102.1,43.8,102.2z"/>
		</g>
		<g>
			<path class="st0" d="M58.9,102.2h2c0.1,0,0.2-0.1,0.2-0.2l0,0v-4.4h4.8c0.2,0,0.3-0.1,0.3-0.3c0,0,0,0,0,0c0,0,0-0.1,0-0.1
				l-5.8-19L60.3,78c-0.1-0.1-0.2-0.2-0.3-0.2c-0.1,0-0.2,0.1-0.3,0.2l-0.1,0.1l-5.9,19c0,0.1,0,0.1,0,0.2c0,0.2,0.1,0.3,0.3,0.3
				h4.8v4.4C58.8,102.1,58.8,102.1,58.9,102.2z"/>
		</g>
		<g>
			<path class="st0" d="M33.9,91.5l0.4-0.8l0.2-1.5c0.3-0.4,0.4-1,0.2-1.5c-0.5-0.2-0.9,0.6-0.9,0.6c-0.3-0.1-0.7-0.1-1-0.1
				c-0.3,0-0.6,0-0.9,0.1c-0.2-0.4-0.6-0.5-1-0.4c-0.1,0.4-0.1,0.8,0.1,1.1l-3.8,1.9l-4.7,0.5c-3,0-4.4,1.6-4.5,4
				c-0.1,1.4-0.5,2.8-1.3,4.1c-1.3,1.2-2-0.8-2-1.2c0.5-0.2,0.8-0.7,0.8-1.2c0,0-2.3,0.2-0.9,2.6c0.4,0.7,1.3,0.9,2,0.5
				c0.1,0,0.1-0.1,0.2-0.1l0.4,2.2l0.2,0.4h1.3l0.1-0.6l-0.6-0.3l-0.3-1.3l3.7-4.2l1.9,0.6l5.2,0.4l1.1,4.3l0.2,1l1.5,0.2l0.4-0.5
				l-1-0.7v-4.7l2.2-4.8L33.9,91.5z"/>
		</g>
		<g>
			<path class="st0" d="M22.6,102.5h1.1l0.1-0.6l-0.9-0.4l-0.8-1.3l1.2-3.2l-1.6-0.4l-0.7,0.8c0.5,0.9,0.5,2,0,2.9L22.6,102.5z"/>
		</g>
		<g>
			<path class="st0" d="M83.9,101.7l0.9-4.4l-1.2-1.7l0.7-2.6c0,0,0.3-2.6-3.1-2.2l-5.9,0.7L74,91.9l-1.5-2.8c0-0.3,0-0.6,0-0.9
				l-0.8,0.6l-1.1-0.2c0,0.5-0.2,1-0.6,1.3c-0.6,0.6-1.2,0.8-1,1.5c0.8,0,1.5-0.1,2.3-0.2l1.6,3.3l2.7,1.9l1,5.5h0.7l-0.6-3.6
				l0.5-2.4h2.6l1.3-0.5l2.7,2.7l-0.7,3.7L83.9,101.7z"/>
		</g>
		<g>
			<polygon class="st0" points="80.7,101.7 82.9,97.8 81.2,95.8 80.8,95.9 81.9,98.2 79.9,101.7 			"/>
		</g>
		<g>
			<polygon class="st0" points="74.8,101.7 75.6,101.7 75.8,99.4 75.3,96.9 			"/>
		</g>
		<g>
			<path class="st0" d="M71.1,88.3l0.6,0.1c0.9-1.1,2.1-2.1,3.4-2.8C73.5,85.8,71.1,88.3,71.1,88.3z"/>
		</g>
		<g>
			<path class="st0" d="M70.7,88.1l0.7-0.6c0.7-0.9,1.6-1.6,2.5-2.2C71.2,86.4,70.7,88.1,70.7,88.1z"/>
		</g>
		<g>
			<path class="st0" d="M11.4,105.8h78.4c0.3,0,0.6,0.3,0.6,0.6v3.6c0,0.3-0.3,0.6-0.6,0.6H11.4c-0.3,0-0.6-0.3-0.6-0.6v-3.6
				C10.9,106,11.1,105.8,11.4,105.8z"/>
		</g>
		<g>
			<path class="st0" d="M80.7,51.2c-1.1-0.8-2.4-1.3-3.7-1.4c-1.3,0-2.5,0.5-3.4,1.4c-0.2,0.2-0.5,0.7-0.2,0.9s0.5,0,0.8-0.2
				c0.5-0.3,1.1-0.4,1.7-0.3c1.7,0,3.2,0.7,4.4,1.8l0,0c0.1,0.1,0.2,0.1,0.4,0.2c0.2,0,0.4-0.2,0.4-0.2c1.2-1.2,2.8-1.8,4.4-1.8
				c0.6,0,1.2,0.1,1.7,0.4c0.2,0.2,0.5,0.2,0.8,0.1c0.3-0.2,0.1-0.6-0.1-0.8c-0.9-1-2.2-1.5-3.5-1.5C83,49.9,81.7,50.4,80.7,51.2z"
				/>
		</g>
		<g>
			<path class="st0" d="M69.6,41c0.4-0.3,0.9-0.4,1.4-0.4c1.4-0.1,2.7,0.4,3.7,1.3l0,0c0.1,0.1,0.2,0.1,0.3,0.1
				c0.1,0,0.2-0.1,0.3-0.2c0.9-1,2.2-1.6,3.5-1.7c0.5-0.1,1,0,1.4,0.2c0.2,0.1,0.4,0.2,0.6,0.1c0.2-0.2,0-0.5-0.1-0.7
				c-0.8-0.7-1.8-1.1-2.9-1.1c-1.1,0.1-2.2,0.6-3,1.3c-0.9-0.7-2-1-3.1-1c-1,0-2,0.5-2.7,1.3c-0.2,0.2-0.4,0.6-0.1,0.8
				S69.4,41.1,69.6,41z"/>
		</g>
		<g>
			<path class="st0" d="M78.3,34.8c0.4-0.1,0.8,0,1.1,0.1c1,0.3,1.9,1,2.4,2l0,0c0,0.1,0.1,0.1,0.2,0.2c0.1,0,0.2,0,0.3,0
				c0.9-0.5,2.1-0.6,3.1-0.4c0.4,0.1,0.7,0.3,1,0.5c0.1,0.1,0.3,0.2,0.4,0.2s0.2-0.4,0.1-0.5c-0.4-0.8-1-1.4-1.9-1.6
				c-0.9-0.2-1.8-0.1-2.6,0.2c-0.5-0.7-1.2-1.3-2.1-1.5c-0.8-0.3-1.6-0.2-2.4,0.3c-0.2,0.1-0.4,0.3-0.3,0.5S78.1,34.9,78.3,34.8z"/>
		</g>
	</g>
</g>
</svg>
