<?xml version="1.0" encoding="utf-8"?>
<!-- Generator: Adobe Illustrator 22.0.1, SVG Export Plug-In . SVG Version: 6.00 Build 0)  -->
<svg version="1.1" id="Layer_1" xmlns="http://www.w3.org/2000/svg" xmlns:xlink="http://www.w3.org/1999/xlink" x="0px" y="0px"
	 viewBox="0 0 101.5 166.2" style="enable-background:new 0 0 101.5 166.2;" xml:space="preserve">
<style type="text/css">
	.st0{fill:#FFFFFF;}
	.st1{fill:#56C02B;}
	.st2{enable-background:new    ;}
</style>
<title>TARGET 1 B copy 12</title>
<g id="WHITE_BG">
	<g>
		<rect y="0" class="st0" width="101.5" height="166.2"/>
	</g>
</g>
<g id="TARGETS">
	<g>
		<g>
			<path class="st1" d="M7.8,132.2h-1v-6.4h2.1c1.6,0,2.2,1,2.2,2c0,1-0.6,2-2.2,2H7.8V132.2z M7.8,128.9H9c0.6,0.1,1.2-0.4,1.2-1
				c0.1-0.6-0.4-1.2-1-1.2c-0.1,0-0.1,0-0.2,0H7.8V128.9z"/>
		</g>
		<g>
			<path class="st1" d="M12.7,132.2h-1v-6.4h2.1c1.6,0,2.2,0.7,2.2,1.9c0.1,0.7-0.3,1.4-1,1.7l1.3,2.8h-1.1l-1.2-2.6h-1.3V132.2z
				 M12.7,128.7h1.2c0.9,0,1-0.5,1-1s-0.1-1-1-1h-1.2V128.7z"/>
		</g>
		<g>
			<path class="st1" d="M20.4,129.3h-2.6v2h2.9v0.9h-3.9v-6.4h3.9v0.9h-2.9v1.8h2.6V129.3z"/>
		</g>
		<g>
			<path class="st1" d="M26.1,125.8l-2,6.4h-1l-2-6.4h1l1.5,5.2l1.5-5.2L26.1,125.8z"/>
		</g>
		<g>
			<path class="st1" d="M30.2,129.3h-2.6v2h2.9v0.9h-3.9v-6.4h3.9v0.9h-2.9v1.8h2.6V129.3z"/>
		</g>
		<g>
			<path class="st1" d="M34.9,132.2l-2.8-4.5v4.5h-0.9v-6.4h0.9l2.8,4.5v-4.5h0.9v6.4H34.9z"/>
		</g>
		<g>
			<path class="st1" d="M39,126.7v5.5h-1v-5.5h-1.6v-0.9h4.3v0.9H39z"/>
		</g>
		<g>
			<path class="st1" d="M42.6,132.2v-6.4h1v6.4H42.6z"/>
		</g>
		<g>
			<path class="st1" d="M48.3,132.2l-2.8-4.5v4.5h-0.9v-6.4h0.9l2.8,4.5v-4.5h0.9v6.4H48.3z"/>
		</g>
		<g>
			<path class="st1" d="M54.7,125.8l-2,6.4h-1l-2-6.4h1l1.5,5.2l1.5-5.2L54.7,125.8z"/>
		</g>
		<g>
			<path class="st1" d="M57.7,130.6h-2l-0.5,1.6h-1l2-6.4h1l2,6.4h-1L57.7,130.6z M56.7,127l-0.8,2.8h1.6L56.7,127z"/>
		</g>
		<g>
			<path class="st1" d="M63.7,130.3c0,1.2-0.7,2-2.4,2c-0.6,0-1.3-0.1-1.9-0.4V131c0.6,0.3,1.2,0.4,1.8,0.4c1.2,0,1.5-0.5,1.5-1.1
				s-0.3-0.9-1.2-1c-1.5-0.2-2.2-0.6-2.2-1.8c0-0.9,0.5-1.8,2.3-1.8c0.6,0,1.2,0.1,1.7,0.3v1c-0.5-0.2-1.1-0.3-1.7-0.3
				c-1,0-1.3,0.4-1.3,1c0,0.7,0.4,0.8,1.2,0.9C62.9,128.7,63.7,129,63.7,130.3z"/>
		</g>
		<g>
			<path class="st1" d="M64.7,132.2v-6.4h0.9v6.4H64.7z"/>
		</g>
		<g>
			<path class="st1" d="M71.3,125.8l-2,6.4h-1l-2-6.4h1l1.5,5.2l1.5-5.2L71.3,125.8z"/>
		</g>
		<g>
			<path class="st1" d="M75.4,129.3h-2.7v2h2.9v0.9h-3.9v-6.4h3.9v0.9h-2.9v1.8h2.7V129.3z"/>
		</g>
		<g>
			<path class="st1" d="M10.1,139.6h-2l-0.4,1.6h-1l2-6.4h1l2,6.4h-1L10.1,139.6z M9.1,136l-0.8,2.8h1.6L9.1,136z"/>
		</g>
		<g>
			<path class="st1" d="M13.1,140.3h2.8v0.9h-3.7v-6.4h1L13.1,140.3z"/>
		</g>
		<g>
			<path class="st1" d="M16.5,141.2v-6.4h1v6.4H16.5z"/>
		</g>
		<g>
			<path class="st1" d="M22.1,138.3h-2.6v2h2.9v0.9h-3.9v-6.4h3.9v0.9h-2.9v1.8h2.6V138.3z"/>
		</g>
		<g>
			<path class="st1" d="M26.9,141.2l-2.8-4.5v4.5h-1v-6.4h0.9l2.8,4.5v-4.5h1v6.4H26.9z"/>
		</g>
		<g>
			<path class="st1" d="M34.3,139.3c0,1.2-0.7,2-2.4,2c-0.6,0-1.3-0.1-1.9-0.4V140c0.6,0.3,1.2,0.4,1.8,0.4c1.2,0,1.5-0.5,1.5-1.1
				s-0.3-0.9-1.2-1c-1.5-0.2-2.2-0.6-2.2-1.8c0-0.9,0.5-1.8,2.3-1.8c0.6,0,1.2,0.1,1.7,0.3v1c-0.5-0.2-1.1-0.3-1.7-0.3
				c-1,0-1.3,0.4-1.3,1s0.4,0.8,1.2,0.9C33.5,137.7,34.3,138,34.3,139.3z"/>
		</g>
		<g>
			<path class="st1" d="M35.9,141.2H35v-6.4h2c1.6,0,2.2,0.9,2.2,2s-0.6,2-2.2,2h-1.1V141.2z M35.9,137.9h1.1c0.6,0.1,1.2-0.4,1.2-1
				s-0.4-1.2-1-1.2c-0.1,0-0.1,0-0.2,0h-1.1V137.9z"/>
		</g>
		<g>
			<path class="st1" d="M43.4,138.3h-2.7v2h2.9v0.9h-3.9v-6.4h3.9v0.9h-2.9v1.8h2.7V138.3z"/>
		</g>
		<g>
			<path class="st1" d="M46.9,134.7c0.5,0,1,0.1,1.5,0.3v0.9c-0.5-0.2-0.9-0.3-1.4-0.3c-1.2,0-1.7,0.8-1.7,2.4s0.5,2.4,1.7,2.4
				c0.5,0,1-0.1,1.4-0.3v0.9c-0.5,0.2-1,0.3-1.5,0.3c-1.9,0-2.6-1.2-2.6-3.3S45,134.7,46.9,134.7z"/>
		</g>
		<g>
			<path class="st1" d="M49.3,141.2v-6.4h1v6.4H49.3z"/>
		</g>
		<g>
			<path class="st1" d="M55,138.3h-2.7v2h2.9v0.9h-3.9v-6.4h3.9v0.9h-2.9v1.8H55V138.3z"/>
		</g>
		<g>
			<path class="st1" d="M60.1,139.3c0,1.2-0.7,2-2.4,2c-0.6,0-1.3-0.1-1.9-0.4V140c0.6,0.3,1.2,0.4,1.8,0.4c1.2,0,1.5-0.5,1.5-1.1
				s-0.3-0.9-1.2-1c-1.6-0.2-2.2-0.6-2.2-1.8c0-0.9,0.5-1.8,2.3-1.8c0.6,0,1.2,0.1,1.7,0.3v1c-0.5-0.2-1.1-0.3-1.7-0.3
				c-1,0-1.3,0.4-1.3,1s0.4,0.8,1.2,0.9C59.3,137.7,60.1,138,60.1,139.3z"/>
		</g>
		<g>
			<path class="st1" d="M62.2,138c0-1.8,0.4-3.3,2.5-3.3s2.4,1.5,2.4,3.3s-0.4,3.3-2.4,3.3S62.2,139.8,62.2,138z M63.2,138
				c0,1.5,0.3,2.4,1.5,2.4s1.5-0.9,1.5-2.4s-0.3-2.4-1.5-2.4S63.2,136.5,63.2,138L63.2,138z"/>
		</g>
		<g>
			<path class="st1" d="M71.5,141.2l-2.8-4.5v4.5h-1v-6.4h0.9l2.8,4.5v-4.5h0.9v6.4H71.5z"/>
		</g>
		<g>
			<path class="st1" d="M7.8,149.3h2.8v0.9H6.9v-6.4h1L7.8,149.3z"/>
		</g>
		<g>
			<path class="st1" d="M14.4,148.6h-2l-0.4,1.6h-1l2-6.4h1l2,6.4h-1L14.4,148.6z M13.4,145l-0.8,2.8h1.6L13.4,145z"/>
		</g>
		<g>
			<path class="st1" d="M20,150.2l-2.8-4.5v4.5h-0.9v-6.4h0.9l2.8,4.5v-4.5h0.9v6.4H20z"/>
		</g>
		<g>
			<path class="st1" d="M21.9,150.2v-6.4h1.9c2.1,0,2.7,1.4,2.7,3.2s-0.6,3.2-2.7,3.2H21.9z M22.8,149.3h1c1.3,0,1.7-0.9,1.7-2.3
				s-0.4-2.3-1.7-2.3h-1V149.3z"/>
		</g>
		<g>
			<path class="st1" d="M31.9,148.6h-2l-0.5,1.6h-1l2-6.4h1l2,6.4h-1L31.9,148.6z M30.9,145l-0.8,2.8h1.6L30.9,145z"/>
		</g>
		<g>
			<path class="st1" d="M37.6,150.2l-2.8-4.5v4.5h-1v-6.4h0.9l2.8,4.5v-4.5h0.9v6.4H37.6z"/>
		</g>
		<g>
			<path class="st1" d="M39.4,150.2v-6.4h1.9c2.1,0,2.7,1.4,2.7,3.2s-0.6,3.2-2.7,3.2H39.4z M40.4,149.3h1c1.3,0,1.7-0.9,1.7-2.3
				s-0.4-2.3-1.7-2.3h-1V149.3z"/>
		</g>
		<g>
			<path class="st1" d="M46.3,150.2v-6.4h1v6.4H46.3z"/>
		</g>
		<g>
			<path class="st1" d="M52.1,150.2l-2.8-4.5v4.5h-0.9v-6.4h0.9l2.8,4.5v-4.5h1v6.4H52.1z"/>
		</g>
		<g>
			<path class="st1" d="M57.7,143.8h1.2l1.1,5l0.8-5h1l-1.2,6.4h-1.2l-1.2-5.3l-1.2,5.3H56l-1.2-6.4h1l0.8,5L57.7,143.8z"/>
		</g>
		<g>
			<path class="st1" d="M65,148.6h-2l-0.5,1.6h-1l2-6.4h1l2,6.4h-1L65,148.6z M64,145l-0.8,2.8h1.6L64,145z"/>
		</g>
		<g>
			<path class="st1" d="M68.5,144.7v5.5h-1v-5.5h-1.6v-0.9h4.3v0.9H68.5z"/>
		</g>
		<g>
			<path class="st1" d="M74.3,147.3h-2.7v2h2.9v0.9h-3.9v-6.4h3.9v0.9h-2.9v1.8h2.7V147.3z"/>
		</g>
		<g>
			<path class="st1" d="M76.4,150.2h-1v-6.4h2.1c1.7,0,2.2,0.7,2.2,1.9c0.1,0.7-0.3,1.4-1,1.7l1.4,2.8h-1.1l-1.2-2.6h-1.3V150.2z
				 M76.4,146.7h1.2c0.9,0,1-0.5,1-1s-0.1-1-1-1h-1.2V146.7z"/>
		</g>
		<g>
			<path class="st1" d="M10.5,156.3H7.8v2h2.9v0.9H6.9v-6.4h3.9v0.9H7.8v1.8h2.6V156.3z"/>
		</g>
		<g>
			<path class="st1" d="M14,152.7c0.5,0,1,0.1,1.5,0.3v0.9c-0.5-0.2-0.9-0.3-1.4-0.3c-1.2,0-1.7,0.8-1.7,2.4s0.5,2.4,1.7,2.4
				c0.5,0,1-0.1,1.4-0.3v0.9c-0.5,0.2-1,0.3-1.5,0.3c-1.9,0-2.6-1.2-2.6-3.3S12.1,152.7,14,152.7z"/>
		</g>
		<g>
			<path class="st1" d="M16.1,156c0-1.8,0.4-3.3,2.5-3.3s2.4,1.5,2.4,3.3s-0.4,3.3-2.5,3.3S16.1,157.8,16.1,156z M17.1,156
				c0,1.5,0.3,2.4,1.5,2.4s1.5-0.9,1.5-2.4s-0.3-2.4-1.5-2.4S17.1,154.5,17.1,156L17.1,156z"/>
		</g>
		<g>
			<path class="st1" d="M26,157.3c0,1.2-0.7,2-2.4,2c-0.6,0-1.3-0.1-1.9-0.4V158c0.6,0.3,1.2,0.4,1.8,0.4c1.1,0,1.5-0.5,1.5-1.1
				s-0.3-0.9-1.2-1c-1.5-0.2-2.1-0.6-2.1-1.8c0-0.9,0.5-1.8,2.3-1.8c0.6,0,1.2,0.1,1.7,0.3v1c-0.5-0.2-1.1-0.3-1.7-0.3
				c-1,0-1.3,0.4-1.3,1s0.4,0.8,1.2,0.9C25.2,155.7,26,156,26,157.3z"/>
		</g>
		<g>
			<path class="st1" d="M29.2,156.6v2.6h-1v-2.6l-2.2-3.8h1.1l1.6,3l1.6-3h1.1L29.2,156.6z"/>
		</g>
		<g>
			<path class="st1" d="M35.5,157.3c0,1.2-0.7,2-2.4,2c-0.6,0-1.3-0.1-1.9-0.4V158c0.6,0.3,1.2,0.4,1.8,0.4c1.2,0,1.5-0.5,1.5-1.1
				s-0.3-0.9-1.2-1c-1.6-0.2-2.2-0.6-2.2-1.8c0-0.9,0.5-1.8,2.3-1.8c0.6,0,1.2,0.1,1.7,0.3v1c-0.5-0.2-1.1-0.3-1.7-0.3
				c-1,0-1.3,0.4-1.3,1s0.4,0.8,1.2,0.9C34.8,155.7,35.5,156,35.5,157.3z"/>
		</g>
		<g>
			<path class="st1" d="M38.3,153.7v5.5h-1v-5.5h-1.7v-0.9h4.3v0.9H38.3z"/>
		</g>
		<g>
			<path class="st1" d="M44.2,156.3h-2.6v2h2.9v0.9h-3.9v-6.4h3.9v0.9h-2.9v1.8h2.7L44.2,156.3z"/>
		</g>
		<g>
			<path class="st1" d="M48.7,158.3h-0.9l-1.6-3.9v4.8h-1v-6.4h1.2l1.7,4.3l1.8-4.3h1.2v6.4h-1v-4.8L48.7,158.3z"/>
		</g>
		<g>
			<path class="st1" d="M56.3,157.3c0,1.2-0.7,2-2.4,2c-0.6,0-1.3-0.1-1.9-0.4V158c0.6,0.3,1.2,0.4,1.8,0.4c1.2,0,1.5-0.5,1.5-1.1
				s-0.3-0.9-1.2-1c-1.5-0.2-2.2-0.6-2.2-1.8c0-0.9,0.5-1.8,2.3-1.8c0.6,0,1.2,0.1,1.7,0.3v1c-0.5-0.2-1.1-0.3-1.7-0.3
				c-1,0-1.3,0.4-1.3,1s0.4,0.8,1.2,0.9C55.5,155.7,56.3,156,56.3,157.3z"/>
		</g>
	</g>
	<g>
		<rect x="3.3" y="24" class="st1" width="94.8" height="94.8"/>
	</g>
	<g>
		<path class="st1" d="M98.2,20.7H3.3V3.3h94.8V20.7z M4.3,19.7h92.8V4.3H4.3L4.3,19.7z"/>
	</g>
	<g class="st2">
		<path class="st1" d="M6.7,6.9h4.5v1.4H9.9v8.8H8.1V8.3H6.7V6.9z"/>
	</g>
	<g class="st2">
		<path class="st1" d="M11.2,17.1l1.9-10.2h1.9L17,17.1h-1.8l-0.3-1.9h-1.8l-0.3,1.9H11.2z M13.3,13.9h1.4L14,9.8h0L13.3,13.9z"/>
	</g>
	<g class="st2">
		<path class="st1" d="M19.6,12.4v4.7h-1.7V6.9h2.5c1.7,0,2.4,0.9,2.4,2.3v1.3c0,1.1-0.4,1.7-1.4,2l1.6,4.6h-1.8L19.6,12.4z
			 M19.6,8.3v3.2h0.6c0.6,0,0.8-0.3,0.8-0.8V9.2c0-0.6-0.3-0.8-0.8-0.8H19.6z"/>
	</g>
	<g class="st2">
		<path class="st1" d="M26.4,11.7h2.4v5.4h-1.2V16c-0.2,0.8-0.7,1.2-1.6,1.2c-1.5,0-2.1-1.2-2.1-2.7V9.6c0-1.6,0.8-2.7,2.6-2.7
			c1.9,0,2.4,1.1,2.4,2.6v0.9h-1.6v-1c0-0.6-0.2-1-0.9-1c-0.6,0-0.9,0.4-0.9,1v5.5c0,0.6,0.3,1,0.8,1c0.6,0,0.8-0.3,0.8-1V13h-0.8
			V11.7z"/>
	</g>
	<g class="st2">
		<path class="st1" d="M30.2,6.9h4.1v1.4h-2.4v2.9h1.7v1.4h-1.7v3.1h2.4v1.4h-4.1V6.9z"/>
	</g>
	<g class="st2">
		<path class="st1" d="M35.1,6.9h4.5v1.4h-1.4v8.8h-1.7V8.3h-1.4V6.9z"/>
	</g>
	<g class="st2">
		<path class="st1" d="M77.5,6.9v10.2h-1.7V9.3h0l-1.2,1.2h0V8.8l1.6-1.8H77.5z"/>
		<path class="st1" d="M83.7,12.4v2.5c0,1.4-0.7,2.3-2.4,2.3c-1.7,0-2.4-1-2.4-2.5v-1.2h1.6v1.3c0,0.6,0.2,1,0.8,1
			c0.5,0,0.7-0.4,0.7-0.9v-2.5c0-0.6-0.2-0.9-0.7-0.9c-0.5,0-0.8,0.3-0.8,0.9v0.2H79V6.9h4.5v1.4h-2.9v2.5h0
			c0.3-0.5,0.8-0.7,1.4-0.7C82.9,10.2,83.7,10.8,83.7,12.4z"/>
	</g>
	<g class="st2">
	</g>
	<g class="st2">
		<path class="st1" d="M86.5,10.8c0.7,0,1.2,0.6,1.2,1.2c0,0.7-0.6,1.2-1.2,1.2c-0.7,0-1.2-0.6-1.2-1.2
			C85.2,11.4,85.8,10.8,86.5,10.8z"/>
	</g>
	<g class="st2">
		<path class="st1" d="M89.2,14.6v-1.1c0-1,0.3-1.7,1.1-2c-0.7-0.3-1-0.9-1-1.8V9.3c0-1.6,0.8-2.4,2.4-2.4c1.6,0,2.4,0.9,2.4,2.4
			v0.4c0,0.8-0.3,1.4-1,1.8c0.8,0.4,1.1,1.1,1.1,2v1.1c0,1.5-0.7,2.6-2.5,2.6C90,17.2,89.2,16.2,89.2,14.6z M92.6,14.8v-1.6
			c0-0.6-0.2-1-0.8-1c-0.6,0-0.8,0.4-0.8,1v1.6c0,0.6,0.2,1,0.8,1C92.4,15.8,92.6,15.4,92.6,14.8z M92.6,9.9V9.2c0-0.6-0.2-1-0.8-1
			c-0.6,0-0.8,0.4-0.8,1v0.7c0,0.6,0.2,1,0.8,1C92.4,10.8,92.6,10.5,92.6,9.9z"/>
	</g>
	<g>
		<g>
			<path class="st0" d="M79.3,60c-3.3,0.3-5.8,3.5-7.4,4.5s-3.5,2.6-4.9,0.7s0.8-3,1.9-3.4s3.8-1.4,4.5-2.7c0.9-1.5,1.2-3.4,0.8-5.1
				l-0.5-2.3c0.5-0.7,0.7-1.5,0.5-2.3c-0.4-1.5-1.3-2.8-2.7-3.6c-1.8-1.3-2.2-1.1-2.6-1s-1.5,1.8-0.9,4.2s1.1,3.1,3.1,4
				c0,0,1.2,3.2-1.4,4.8c-2,1.2-4.3,1.2-5.9,2.9L52.2,38.8c-0.3-0.6-1-0.8-1.5-0.5c-0.2,0.1-0.4,0.3-0.5,0.5l-5.3,10
				c-0.5-3.9-5-7-5-7c3.9,2.3,4.8,4.8,4.8,4.8c0.2-0.1,0.3-0.3,0.4-0.5c0.7-1.3,0.4-2.9-0.7-3.9c-2.1-2.2-7.2-2.4-6.7-2
				c1.8,1.8,1,4.1,2.2,5.6c0.9,1.1,2.7,1.2,3.7,1.1c0.5,0.8,0.9,1.7,1,2.7l-3.3,6.2l-0.1,0.1l-0.7,1.4L38,57.5
				c-0.3-2.1-0.8-4.1-1.7-6.1L36,50.8c-0.5-0.7-0.9-1-1.2-0.6S34.2,51,34,51.3c-0.8-0.3-1.6,0.1-1.9,0.9c-0.2,0.6,0,1.3,0.5,1.7
				c-1.2,2.9-1.1,6.1,0.3,8.8c0.5,0.9,1.2,2.4,2,3.5c0.1,0.2,0.3,0.4,0.5,0.5l-3.3,6.1c0-0.7,0-1.5-0.1-2.2c-1.3,0.3-2.4,1.2-3,2.3
				c-0.1-2.7-0.9-5.4-2.3-7.7c-0.2-0.8-1.1-3.7-6.3-4.8c-0.1,1.6,0.5,3.2,1.8,4.2c1.1,0.9,2.5,1.3,3.9,1c1.5,2.4,2.2,5.2,2.1,8
				c-1-1.8-2.4-3.3-4-4.5l0,0c-0.9-0.7-2-1.1-3.1-1c-1.6,0.1-3.1,1-3.8,2.4c0,0,2.5,2.2,7.3-0.3c1.3,1,2.3,2.3,3.1,3.7
				c-0.9-0.9-1.9-1.7-3.1-2.2c-0.6,1.5-0.3,3.2,0.6,4.5c0.9,1.3,2.5,2.1,4.1,2l-3.8,7.1c-0.5-0.4-1.1-0.8-1.5-1.2
				c0.9-1.3,1.1-2.5,0.6-2.9s-1.9,0.3-3,1.7s-1.5,2.9-0.9,3.3s1.7-0.2,2.7-1.3c0.5,0.5,1.1,0.9,1.6,1.3l-2.5,4.8
				c-1.9-1.1-3.7-2.4-5.3-3.9c1.8-2.4,2.7-4.6,2-5.1s-2.9,1.1-4.8,3.6s-3,5-2.4,5.6s2.4-0.8,4.2-2.9c1.7,1.6,3.5,2.9,5.5,4l-6,11.3
				c-0.3,0.5-0.1,1.2,0.5,1.5c0.2,0.1,0.3,0.1,0.5,0.1h68.4c0.6,0,1.1-0.5,1.1-1.1c0-0.2,0-0.4-0.1-0.5l-6.7-12.7
				c-0.5-1.5-0.6-3.2-0.1-4.8c0.7-1.5,1.9-2.7,3.5-3.3c0.8-0.5,2.9-2,2.2-4.5c0,0-0.7-3.8-6-2c0,0-3.1,1.4-5.7,3l-2.3-4.3
				c0.6-0.2,1.3-0.4,2-0.4c3.1-0.3,6.1-0.7,7.2-0.8s4.8-1,6.2-3c1.5-2,1.7-4.7,0.7-7C86.6,62,84.2,59.5,79.3,60z M33.1,53.5
				c-0.4-0.2-0.6-0.7-0.5-1.1c0.2-0.4,0.7-0.6,1.1-0.5c0.1,0,0.1,0.1,0.2,0.1c0.4,0.2,0.6,0.7,0.4,1.1C34,53.6,33.5,53.7,33.1,53.5
				L33.1,53.5z M34.1,60.9c0.3-0.3,0.6-0.6,0.9-0.8c0.5-0.2,1-0.3,1.5-0.1c0.6,0.3,1,0.7,1.3,1.3c0.1-0.3,0.2-0.6,0.3-0.9
				c0.1-0.3,0.1-0.6,0.1-0.9l1.3-0.3L37.4,63l-0.1,0.1C37.4,63.1,36.7,59.1,34.1,60.9L34.1,60.9z M80.2,78.6c2-0.6,2.6-0.1,2.9,0.4
				s0,1.8-1.2,2.5s-3.7,2.8-3.9,4.8c-0.1,0.7,0,1.4,0.2,2.1l-3.5-6.7C76.6,80.5,78.9,79,80.2,78.6z M80.9,101.8H20.8L51,44.7
				L80.9,101.8z M83.9,67.5c-0.3,1.5-2.4,2.7-3.9,2.8s-7.7,0.6-10.4,1.8l-1-2c2.4-0.5,4.6-1.6,6.4-3.2c3.3-2.8,6-3.6,7.5-2.6
				C83.9,65.3,84.3,66,83.9,67.5L83.9,67.5z"/>
		</g>
		<g>
			<path class="st0" d="M25.8,98.8H76L51,51.2L25.8,98.8z M50.9,93.4c-1.5,0-2.6-1.2-2.6-2.6s1.2-2.6,2.6-2.6c1.5,0,2.6,1.2,2.6,2.6
				l0,0C53.5,92.3,52.3,93.4,50.9,93.4z M52.2,85.4h-2.8l-1.2-19.6h5.1L52.2,85.4z"/>
		</g>
		<g>
			<path class="st0" d="M83.6,45.1L82,43.5c-0.1,0.2-0.3,0.5-0.5,0.7l1.3,1.3C83.1,45.4,83.3,45.2,83.6,45.1z"/>
		</g>
		<g>
			<polygon class="st0" points="80.6,45.6 81.5,46.5 82.2,46 81.1,44.9 			"/>
		</g>
		<g>
			<path class="st0" d="M79.6,47.3l0.2,0.2c0.3-0.2,0.6-0.3,0.9-0.5l-0.6-0.6C80,46.7,79.8,47,79.6,47.3z"/>
		</g>
		<g>
			<path class="st0" d="M87.5,45.3c-0.8-0.7-1.8-1.1-2.8-1.3c0.1-0.1,0.2-0.3,0.2-0.4c0.1-0.2,0.2-0.4,0.2-0.7
				c0.1-0.3,0.1-0.5,0.1-0.8c0-0.1-0.1-0.2-0.2-0.2c0,0,0,0,0,0c-0.3,0-0.5,0-0.8,0c-0.2,0-0.5,0.1-0.7,0.2
				c-0.2,0.1-0.3,0.1-0.4,0.2c-0.1-1-0.6-2-1.2-2.8c-1-1.4-2.2-2.3-2.7-2s-0.1,1,0.3,2c-1-0.5-1.8-0.6-2-0.2s0.7,1.6,2.2,2.5
				c0.8,0.6,1.8,1,2.8,1.1l1.7,1.7c0.1,1,0.4,2,1,2.8c0.9,1.5,2,2.5,2.5,2.2s0.2-1-0.2-2c1,0.5,1.8,0.7,2,0.4S89,46.3,87.5,45.3z"/>
		</g>
	</g>
	<g>
		<path class="st1" d="M98.2,162.9h-95v-40.8h95V162.9z M4.2,161.9h93v-38.8h-93V161.9z"/>
	</g>
</g>
</svg>
