<?xml version="1.0" encoding="utf-8"?>
<!-- Generator: Adobe Illustrator 22.0.1, SVG Export Plug-In . SVG Version: 6.00 Build 0)  -->
<svg version="1.1" id="Layer_1" xmlns="http://www.w3.org/2000/svg" xmlns:xlink="http://www.w3.org/1999/xlink" x="0px" y="0px"
	 viewBox="0 0 101.5 157.1" style="enable-background:new 0 0 101.5 157.1;" xml:space="preserve">
<style type="text/css">
	.st0{fill:#FFFFFF;}
	.st1{fill:#56C02B;}
	.st2{enable-background:new    ;}
</style>
<title>TARGET 1 B copy 9</title>
<g id="WHITE_BG">
	<g>
		<rect y="0" class="st0" width="101.5" height="157.1"/>
	</g>
</g>
<g id="TARGETS">
	<g>
		<g>
			<path class="st1" d="M7.8,132.2h-1v-6.4h2.1c1.6,0,2.2,1,2.2,2c0,1-0.6,2-2.2,2H7.8V132.2z M7.8,128.9H9c0.6,0.1,1.2-0.4,1.2-1
				c0.1-0.6-0.4-1.2-1-1.2c-0.1,0-0.1,0-0.2,0H7.8V128.9z"/>
		</g>
		<g>
			<path class="st1" d="M12.7,132.2h-1v-6.4h2.1c1.6,0,2.2,0.7,2.2,1.9c0.1,0.7-0.3,1.4-1,1.7l1.3,2.8h-1.1l-1.2-2.6h-1.3V132.2z
				 M12.7,128.7h1.2c0.9,0,1-0.5,1-1s-0.1-1-1-1h-1.2V128.7z"/>
		</g>
		<g>
			<path class="st1" d="M16.7,129c0-1.8,0.4-3.3,2.5-3.3s2.5,1.5,2.5,3.3s-0.4,3.3-2.5,3.3S16.7,130.8,16.7,129z M17.7,129
				c0,1.5,0.3,2.4,1.5,2.4s1.5-0.9,1.5-2.4s-0.3-2.4-1.5-2.4S17.7,127.5,17.7,129L17.7,129z"/>
		</g>
		<g>
			<path class="st1" d="M24.4,126.7v5.5h-1v-5.5h-1.6v-0.9H26v0.9H24.4z"/>
		</g>
		<g>
			<path class="st1" d="M30.3,129.3h-2.6v2h2.9v0.9h-3.9v-6.4h3.9v0.9h-2.9v1.8h2.6V129.3z"/>
		</g>
		<g>
			<path class="st1" d="M33.8,125.7c0.5,0,1,0.1,1.5,0.3v0.9c-0.5-0.2-0.9-0.3-1.4-0.3c-1.2,0-1.7,0.8-1.7,2.4s0.5,2.4,1.7,2.4
				c0.5,0,1-0.1,1.4-0.3v0.9c-0.5,0.2-1,0.3-1.5,0.3c-1.9,0-2.6-1.2-2.6-3.3S31.9,125.7,33.8,125.7z"/>
		</g>
		<g>
			<path class="st1" d="M38.2,126.7v5.5h-1v-5.5h-1.7v-0.9h4.3v0.9H38.2z"/>
		</g>
		<g>
			<path class="st1" d="M41.7,125.8h2.1c1.5,0,2,0.8,2,1.7c0,0.5-0.3,1-0.8,1.3c0.6,0.2,1.1,0.8,1,1.5c0,1.1-0.5,1.9-2.2,1.9h-2.2
				L41.7,125.8z M43.8,126.7h-1.2v1.8h1.2c0.8,0,1-0.5,1-0.9S44.7,126.7,43.8,126.7z M42.6,131.3h1.3c0.9,0,1.1-0.5,1.1-1
				s-0.3-1-1.1-1h-1.3V131.3z"/>
		</g>
		<g>
			<path class="st1" d="M46.9,132.2v-6.4h1v6.4H46.9z"/>
		</g>
		<g>
			<path class="st1" d="M48.8,129c0-1.8,0.4-3.3,2.5-3.3s2.5,1.5,2.5,3.3s-0.4,3.3-2.5,3.3S48.8,130.8,48.8,129z M49.8,129
				c0,1.5,0.3,2.4,1.5,2.4s1.5-0.9,1.5-2.4s-0.3-2.4-1.5-2.4S49.8,127.5,49.8,129L49.8,129z"/>
		</g>
		<g>
			<path class="st1" d="M54.5,132.2v-6.4h1.9c2.1,0,2.7,1.4,2.7,3.2s-0.6,3.2-2.7,3.2L54.5,132.2z M55.5,131.3h1
				c1.3,0,1.7-0.9,1.7-2.3s-0.4-2.3-1.7-2.3h-1V131.3z"/>
		</g>
		<g>
			<path class="st1" d="M59.9,132.2v-6.4h1v6.4H59.9z"/>
		</g>
		<g>
			<path class="st1" d="M66.6,125.8l-2,6.4h-1l-2-6.4h1L64,131l1.5-5.2L66.6,125.8z"/>
		</g>
		<g>
			<path class="st1" d="M70.7,129.3H68v2h2.9v0.9h-3.8v-6.4h3.9v0.9H68v1.8h2.7L70.7,129.3z"/>
		</g>
		<g>
			<path class="st1" d="M72.7,132.2h-0.9v-6.4h2.1c1.7,0,2.2,0.7,2.2,1.9c0.1,0.7-0.3,1.4-1,1.7l1.3,2.8h-1.2l-1.2-2.6h-1.3V132.2z
				 M72.7,128.7H74c0.9,0,1-0.5,1-1s-0.1-1-1-1h-1.3V128.7z"/>
		</g>
		<g>
			<path class="st1" d="M81,130.3c0,1.2-0.7,2-2.4,2c-0.6,0-1.3-0.1-1.9-0.4V131c0.6,0.3,1.2,0.4,1.8,0.4c1.2,0,1.5-0.5,1.5-1.1
				s-0.3-0.9-1.2-1c-1.6-0.2-2.2-0.6-2.2-1.8c0-0.9,0.5-1.8,2.3-1.8c0.6,0,1.2,0.1,1.7,0.3v1c-0.5-0.2-1.1-0.3-1.7-0.3
				c-1,0-1.3,0.4-1.3,1c0,0.7,0.4,0.8,1.2,0.9C80.2,128.7,81,129,81,130.3z"/>
		</g>
		<g>
			<path class="st1" d="M82,132.2v-6.4h1v6.4H82z"/>
		</g>
		<g>
			<path class="st1" d="M86.2,126.7v5.5h-1v-5.5h-1.6v-0.9h4.3v0.9H86.2z"/>
		</g>
		<g>
			<path class="st1" d="M91.2,129.6v2.6h-1v-2.6l-2.2-3.8h1.1l1.6,3l1.6-3h1.1L91.2,129.6z"/>
		</g>
		<g>
			<path class="st1" d="M10.1,139.6h-2l-0.4,1.6h-1l2-6.4h1l2,6.4h-1L10.1,139.6z M9.1,136l-0.8,2.8h1.6L9.1,136z"/>
		</g>
		<g>
			<path class="st1" d="M15.8,141.2l-2.8-4.5v4.5h-0.9v-6.4H13l2.8,4.5v-4.5h0.9v6.4H15.8z"/>
		</g>
		<g>
			<path class="st1" d="M17.6,141.2v-6.4h1.9c2.1,0,2.7,1.4,2.7,3.2s-0.6,3.2-2.7,3.2H17.6z M18.6,140.3h1c1.3,0,1.7-0.9,1.7-2.3
				s-0.4-2.3-1.7-2.3h-1V140.3z"/>
		</g>
		<g>
			<path class="st1" d="M28.1,141.2l-2.8-4.5v4.5h-0.9v-6.4h0.9l2.8,4.5v-4.5h1v6.4H28.1z"/>
		</g>
		<g>
			<path class="st1" d="M33,139.6h-2l-0.5,1.6h-1l2-6.4h1l2,6.4h-1L33,139.6z M32,136l-0.8,2.8h1.6L32,136z"/>
		</g>
		<g>
			<path class="st1" d="M36.5,135.7v5.5h-1v-5.5h-1.6v-0.9h4.3v0.9H36.5z"/>
		</g>
		<g>
			<path class="st1" d="M38.7,139.2v-4.4h1v4.3c0,0.8,0.6,1.4,1.4,1.4s1.4-0.6,1.4-1.4v-4.3h1v4.4c0,1.1-0.8,2.1-2,2.1
				c-0.1,0-0.3,0-0.4,0c-1.1,0.1-2.1-0.7-2.3-1.8C38.7,139.4,38.7,139.3,38.7,139.2z"/>
		</g>
		<g>
			<path class="st1" d="M45.2,141.2h-1v-6.4h2.1c1.7,0,2.2,0.7,2.2,1.9c0.1,0.7-0.3,1.4-1,1.7l1.3,2.8h-1.2l-1.2-2.6h-1.3V141.2z
				 M45.2,137.7h1.3c0.9,0,1-0.5,1-1s-0.1-1-1-1h-1.3V137.7z"/>
		</g>
		<g>
			<path class="st1" d="M52.5,139.6h-2l-0.5,1.6h-1l2-6.4h1l2,6.4h-1L52.5,139.6z M51.5,136l-0.8,2.8h1.6L51.5,136z"/>
		</g>
		<g>
			<path class="st1" d="M55.5,140.3h2.8v0.9h-3.7v-6.4h1L55.5,140.3z"/>
		</g>
		<g>
			<path class="st1" d="M10.4,150.2v-2.9H7.8v2.9h-1v-6.4h1v2.6h2.6v-2.6h1v6.4H10.4z"/>
		</g>
		<g>
			<path class="st1" d="M15.4,148.6h-2l-0.4,1.6h-1l2-6.4h1l2,6.4h-1L15.4,148.6z M14.4,145l-0.8,2.8h1.6L14.4,145z"/>
		</g>
		<g>
			<path class="st1" d="M17.4,143.8h2.1c1.6,0,2,0.8,2,1.7c0,0.5-0.3,1-0.8,1.3c0.6,0.2,1.1,0.8,1,1.5c0,1.1-0.5,1.9-2.2,1.9h-2.2
				V143.8z M19.6,144.7h-1.2v1.8h1.2c0.8,0,0.9-0.5,0.9-0.9S20.4,144.7,19.6,144.7z M18.4,149.3h1.3c0.9,0,1.1-0.5,1.1-1
				s-0.3-1-1.1-1h-1.3L18.4,149.3z"/>
		</g>
		<g>
			<path class="st1" d="M22.6,150.2v-6.4h1v6.4H22.6z"/>
		</g>
		<g>
			<path class="st1" d="M27,144.7v5.5h-1v-5.5h-1.6v-0.9h4.3v0.9H27z"/>
		</g>
		<g>
			<path class="st1" d="M31.7,148.6h-2l-0.5,1.6h-1l2-6.4h1l2,6.4h-1L31.7,148.6z M30.7,145l-0.8,2.8h1.6L30.7,145z"/>
		</g>
		<g>
			<path class="st1" d="M35.3,144.7v5.5h-1v-5.5h-1.7v-0.9h4.3v0.9H35.3z"/>
		</g>
		<g>
			<path class="st1" d="M41.6,148.3c0,1.2-0.7,2-2.4,2c-0.6,0-1.3-0.1-1.9-0.4V149c0.6,0.3,1.2,0.4,1.8,0.4c1.1,0,1.5-0.5,1.5-1.1
				s-0.3-0.9-1.2-1c-1.6-0.2-2.2-0.6-2.2-1.8c0-0.9,0.5-1.8,2.3-1.8c0.6,0,1.2,0.1,1.7,0.3v1c-0.5-0.2-1.1-0.3-1.7-0.3
				c-1,0-1.3,0.4-1.3,1s0.4,0.8,1.2,0.9C40.8,146.7,41.6,147,41.6,148.3z"/>
		</g>
	</g>
	<g>
		<rect x="3.3" y="24" class="st1" width="94.8" height="94.8"/>
	</g>
	<g>
		<path class="st1" d="M98.2,20.7H3.3V3.3h94.8V20.7z M4.3,19.7h92.8V4.3H4.3L4.3,19.7z"/>
	</g>
	<g class="st2">
		<path class="st1" d="M6.7,6.9h4.5v1.4H9.9v8.8H8.1V8.3H6.7V6.9z"/>
	</g>
	<g class="st2">
		<path class="st1" d="M11.2,17.1l1.9-10.2h1.9L17,17.1h-1.8l-0.3-1.9h-1.8l-0.3,1.9H11.2z M13.3,13.9h1.4L14,9.8h0L13.3,13.9z"/>
	</g>
	<g class="st2">
		<path class="st1" d="M19.6,12.4v4.7h-1.7V6.9h2.5c1.7,0,2.4,0.9,2.4,2.3v1.3c0,1.1-0.4,1.7-1.4,2l1.6,4.6h-1.8L19.6,12.4z
			 M19.6,8.3v3.2h0.6c0.6,0,0.8-0.3,0.8-0.8V9.2c0-0.6-0.3-0.8-0.8-0.8H19.6z"/>
	</g>
	<g class="st2">
		<path class="st1" d="M26.4,11.7h2.4v5.4h-1.2V16c-0.2,0.8-0.7,1.2-1.6,1.2c-1.5,0-2.1-1.2-2.1-2.7V9.6c0-1.6,0.8-2.7,2.6-2.7
			c1.9,0,2.4,1.1,2.4,2.6v0.9h-1.6v-1c0-0.6-0.2-1-0.9-1c-0.6,0-0.9,0.4-0.9,1v5.5c0,0.6,0.3,1,0.8,1c0.6,0,0.8-0.3,0.8-1V13h-0.8
			V11.7z"/>
	</g>
	<g class="st2">
		<path class="st1" d="M30.2,6.9h4.1v1.4h-2.4v2.9h1.7v1.4h-1.7v3.1h2.4v1.4h-4.1V6.9z"/>
	</g>
	<g class="st2">
		<path class="st1" d="M35.1,6.9h4.5v1.4h-1.4v8.8h-1.7V8.3h-1.4V6.9z"/>
	</g>
	<g class="st2">
		<path class="st1" d="M77.7,6.9v10.2H76V9.3h0l-1.2,1.2h0V8.8l1.6-1.8H77.7z"/>
		<path class="st1" d="M84,12.4v2.5c0,1.4-0.7,2.3-2.4,2.3c-1.7,0-2.4-1-2.4-2.5v-1.2h1.6v1.3c0,0.6,0.2,1,0.8,1
			c0.5,0,0.7-0.4,0.7-0.9v-2.5c0-0.6-0.2-0.9-0.7-0.9c-0.5,0-0.8,0.3-0.8,0.9v0.2h-1.6V6.9h4.5v1.4h-2.9v2.5h0
			c0.3-0.5,0.8-0.7,1.4-0.7C83.1,10.2,84,10.8,84,12.4z"/>
	</g>
	<g class="st2">
	</g>
	<g class="st2">
		<path class="st1" d="M86.7,10.8c0.7,0,1.2,0.6,1.2,1.2c0,0.7-0.6,1.2-1.2,1.2c-0.7,0-1.2-0.6-1.2-1.2C85.5,11.4,86,10.8,86.7,10.8
			z"/>
	</g>
	<g class="st2">
		<path class="st1" d="M94.3,12.4v2.5c0,1.4-0.7,2.3-2.4,2.3c-1.7,0-2.4-1-2.4-2.5v-1.2h1.6v1.3c0,0.6,0.2,1,0.8,1
			c0.5,0,0.7-0.4,0.7-0.9v-2.5c0-0.6-0.2-0.9-0.7-0.9c-0.5,0-0.8,0.3-0.8,0.9v0.2h-1.6V6.9h4.5v1.4h-2.9v2.5h0
			c0.3-0.5,0.8-0.7,1.4-0.7C93.5,10.2,94.3,10.8,94.3,12.4z"/>
	</g>
	<g>
		<path class="st1" d="M98.2,153.9h-95v-31.7h95V153.9z M4.2,152.9h93v-29.7h-93V152.9z"/>
	</g>
	<g>
		<g>
			<path class="st0" d="M32,55.3c0.1,0.8,0.8,1.4,1.6,1.3l4.1,0c0.6,0.3,1.2,0.7,1.9,1c1.1,0.5,2.2,1.1,3.3,1.5s2.2,0.9,3.3,1.3
				l-1.4,28.6c0,0,0,0,0,0.1l0,0c0,0.2,0.1,0.3,0.3,0.3h8c0.1,0,0.2-0.1,0.3-0.2c0,0,0-0.1,0-0.1c0,0,0-0.1,0-0.1L52,60.9
				c1.3-0.9,2.4-1.8,4.1-2.8c1-0.6,2.7-1.7,4.2-2.8l6.7-0.1c1.2,0,2.2-0.7,2.2-1.5s-1-1.5-2.2-1.5l-4.3,0c-0.1-0.5-0.5-0.9-0.9-1.1
				c-1.7-0.9-5-0.7-6,0.1c-0.3,0.3-0.5,0.6-0.7,1h-1c-1.2,0-2.2,0.7-2.2,1.5s1,1.5,2.2,1.5h3.3c-0.9,0.4-1.8,0.9-2.6,1.3
				c-1.6,0.8-3.2,1.6-4.8,2.5l-0.5-0.2l2.2-9.2h3.5c1.2-0.1,2.1-1.1,2-2.3c-0.1-1.1-0.9-1.9-2-2h-1.9c0.3-0.9-0.2-1.8-1-2.1
				c-1.9-1-5.7-0.8-6.7,0.1c-0.2,0.2-0.4,0.4-0.5,0.7c-1.7-0.3-3.8,0-4.5,0.6c-0.3,0.2-0.5,0.6-0.6,0.9h-2c-1.2-0.1-2.2,0.8-2.3,2
				c-0.1,1.2,0.8,2.2,2,2.3c0.1,0,0.2,0,0.3,0l5.5-0.1l5.6,4.1l-2,4.3c-1.2-0.4-2.4-0.7-3.7-1c-0.9-0.2-1.8-0.4-2.6-0.6h2.3
				c0.7,0.2,1.4-0.3,1.6-1c0.2-0.7-0.3-1.4-1-1.6c-0.2,0-0.4,0-0.6,0l0,0c0-0.5-0.3-1-0.8-1.3c-1.4-0.8-4.1-0.8-4.9,0
				c-0.2,0.1-0.3,0.3-0.4,0.5c-0.9-0.2-1.8-0.1-2.6,0.2c-0.2,0.2-0.3,0.4-0.4,0.7h-0.6C32.9,54,32.2,54.6,32,55.3z M51.1,49.7
				l-1,2.2l-4.3-2.2L51.1,49.7z"/>
		</g>
		<g>
			<path class="st0" d="M14.4,83.8c-0.1,1.1-0.3,4.4,0.4,5.6h1.1c-0.4-0.8-0.5-3.9-0.4-5.6c2.2,0,3.9-0.6,3.9-1.2s-1.9-1.2-4.3-1.2
				s-4.3,0.5-4.3,1.2S12.4,83.7,14.4,83.8z"/>
		</g>
		<g>
			<path class="st0" d="M23.4,85.4c0-0.5-1-1-2.4-1s-2.4,0.4-2.4,1s0.9,0.9,2,1c-0.1,1,0,2,0.3,3h0.7c-0.2-1-0.3-2-0.3-3
				C22.5,86.3,23.4,85.9,23.4,85.4z"/>
		</g>
		<g>
			<g>
				<polygon class="st0" points="32.7,89.4 31.5,81.8 31.4,89.4 				"/>
			</g>
			<g>
				<polygon class="st0" points="37.1,89.4 38.3,81.8 38.5,89.4 				"/>
			</g>
			<g>
				<polygon class="st0" points="28,89.4 29.7,89.4 28.2,80.3 				"/>
			</g>
			<g>
				<path class="st0" d="M31,79.2c0.2,0.4,1.4,0.3,2.5-0.4c0.4-0.2,0.7-0.5,1-0.8v0.2c0.1,1.1,0.1,1.1,0,3.4v7.8h0.5v-7.8
					c0-2.1,0-2.3,0-3.1c0.2,0.2,0.4,0.3,0.5,0.5c1.1,0.8,2.2,1.1,2.5,0.7s-0.3-1.4-1.3-2.2c-0.1-0.1-0.3-0.2-0.4-0.3
					c0.1-0.1,0.2-0.1,0.3-0.2c1.2-0.7,1.9-1.6,1.6-2s-1.4-0.3-2.5,0.4l0,0c0,0,0-0.1,0-0.2c0.1-1.3-0.3-2.4-0.8-2.4s-1,1-1.1,2.3
					c0,0.1,0,0.2,0,0.3l-0.2-0.2c-1.1-0.8-2.2-1.1-2.5-0.7s0.3,1.4,1.3,2.2c0.1,0.1,0.3,0.2,0.4,0.3l-0.3,0.2
					C31.5,77.8,30.8,78.7,31,79.2z M34.3,76.7c0-0.3,0.2-0.5,0.5-0.5c0,0,0,0,0,0c0.3,0,0.5,0.3,0.5,0.5c0,0.3-0.3,0.5-0.5,0.5
					C34.4,77.2,34.2,77,34.3,76.7z"/>
			</g>
		</g>
		<g>
			<path class="st0" d="M90.8,82.2l-5.2,0.9l-0.4-0.5c0.8-0.5,1.4-1.2,2-1.9c0,0-2.4,0.6-3.2-0.1l-1.6-2.4c0.4-0.6,0.4-1.3,0.1-1.9
				c-0.2-0.3-0.6-0.5-0.7-0.2c0,0,0,0.1,0,0.2c-0.1,0.3-0.4,0.6-0.8,0.7c0-0.3-0.2-0.5-0.3-0.8c-0.2-0.2-0.7-0.4-0.7-0.1
				c0,0.1,0,0.1,0,0.2c0,0.1-0.1,0.3-0.2,0.4l-2-0.9c-0.9-0.7-2.1-1.2-3.3-1.3c-0.3,0-0.6,0-0.9,0c-1.2,0.2-2.4,0.4-3.7,0.5
				l-5.9,0.2c0,0-5,0.1-5.1,2.7L58.7,86c1,0.7,0.5-1,0.4-1.6c0.1-0.8,0.3-1.7,0.6-2.4l1.3,7.5h3.3c0-0.8-0.5-1.5-1.3-1.8l0.5-2.4
				l1.4-0.9c1.8,0.8,3.9,0.9,5.7,0.2l1.2,4.8h4c-0.1-1.5-2.3-1.8-2.3-1.8l1-4l0.8-0.2l0.6-0.1c0.1,0,0.1,0,0.2-0.1
				c0.6-0.3,1.1-0.6,1.7-1c0.7,1,1.6,1.9,2.6,2.7l2.7,1.2c0.3,0.2,0.7,0.2,1,0l0.4-0.3c0.3,0,0.6-0.1,0.9-0.2
				c0.2-0.2,0.4-0.4,0.6-0.7C87.6,84.8,90.8,82.2,90.8,82.2z"/>
		</g>
		<g>
			<g>
				<path class="st0" d="M21.1,64.5c0.3,0.8,0.7,1.5,1.3,2c1,1,2,1.5,2.4,1.2s0-0.8-0.6-1.5c0.8,0.2,1.5,0.2,1.6-0.1s-0.8-1.1-2-1.7
					c-0.7-0.4-1.6-0.5-2.4-0.4c0-0.1,0.1-0.2,0.1-0.4c0-0.2,0-0.4,0-0.6c0-0.2-0.1-0.4-0.1-0.6l-0.2-0.1c-0.2,0-0.4,0.1-0.6,0.2
					c-0.2,0.1-0.3,0.2-0.5,0.3L19.8,63c-0.3-0.8-0.8-1.5-1.5-2c-1.1-0.9-2.2-1.4-2.4-1s0.1,0.8,0.6,1.5c-0.9-0.2-1.5-0.1-1.6,0.2
					s0.8,1.1,2.2,1.5c0.8,0.3,1.6,0.4,2.4,0.3L21.1,64.5z"/>
			</g>
			<g>
				<path class="st0" d="M20.7,65l-1.5-0.9c-0.1,0.2-0.1,0.4-0.2,0.6l1.3,0.8C20.4,65.3,20.6,65.2,20.7,65z"/>
			</g>
			<g>
				<polygon class="st0" points="19.9,66 18.8,65.3 18.6,65.9 19.4,66.4 				"/>
			</g>
			<g>
				<path class="st0" d="M18.9,66.9l-0.5-0.3c-0.1,0.3-0.2,0.5-0.2,0.8l0.2,0.1L18.9,66.9z"/>
			</g>
		</g>
		<g>
			<g>
				<path class="st0" d="M18.9,34c-2.5,0-4.5,2-4.5,4.5c0,2.5,2,4.5,4.5,4.5c2.5,0,4.5-2,4.5-4.5C23.4,36,21.4,34,18.9,34
					C18.9,34,18.9,34,18.9,34z"/>
			</g>
			<g>
				<path class="st0" d="M11.4,38.9h2c0.2,0,0.3-0.2,0.4-0.4c0-0.2-0.2-0.4-0.4-0.4h-2c-0.2,0-0.3,0.2-0.3,0.4
					C11.1,38.7,11.2,38.9,11.4,38.9z"/>
			</g>
			<g>
				<path class="st0" d="M24,38.5c0,0.2,0.2,0.4,0.4,0.4h2c0.2,0,0.3-0.2,0.3-0.4c0-0.2-0.1-0.3-0.3-0.4h-2
					C24.2,38.1,24.1,38.3,24,38.5z"/>
			</g>
			<g>
				<path class="st0" d="M18.9,33.3c0.2,0,0.4-0.1,0.4-0.3v-2c0-0.2-0.2-0.3-0.4-0.3c-0.2,0-0.3,0.1-0.3,0.3v2
					C18.5,33.2,18.7,33.3,18.9,33.3z"/>
			</g>
			<g>
				<path class="st0" d="M18.9,43.6c-0.2,0-0.4,0.2-0.4,0.3v2c0,0.2,0.2,0.3,0.4,0.3c0.2,0,0.3-0.1,0.3-0.3v-2
					C19.3,43.8,19.1,43.7,18.9,43.6z"/>
			</g>
			<g>
				<path class="st0" d="M12.2,35.1l1.7,1c0.2,0.1,0.4,0,0.5-0.2c0.1-0.2,0-0.4-0.1-0.5l-1.7-1c-0.2-0.1-0.4,0-0.5,0.2
					C12,34.8,12.1,35,12.2,35.1z"/>
			</g>
			<g>
				<path class="st0" d="M23.5,41.5l1.7,1c0.2,0.1,0.4,0,0.5-0.2c0.1-0.2,0-0.4-0.1-0.5l-1.7-1c-0.2-0.1-0.4,0-0.5,0.1
					C23.3,41.2,23.3,41.4,23.5,41.5z"/>
			</g>
			<g>
				<path class="st0" d="M21.9,33.9l1-1.7c0.1-0.2,0-0.4-0.1-0.5c-0.2-0.1-0.4,0-0.5,0.1l-1,1.7c-0.1,0.2,0,0.4,0.2,0.5
					C21.7,34.1,21.8,34,21.9,33.9L21.9,33.9z"/>
			</g>
			<g>
				<path class="st0" d="M15.9,43.1l-1,1.7c-0.1,0.2,0,0.4,0.2,0.5c0.2,0.1,0.4,0,0.5-0.1l1-1.7c0.1-0.2,0-0.4-0.1-0.5
					C16.2,42.9,16,42.9,15.9,43.1z"/>
			</g>
			<g>
				<path class="st0" d="M15.8,33.9c0.1,0.2,0.3,0.2,0.5,0.1c0.2-0.1,0.2-0.3,0.1-0.5l-1-1.7c-0.1-0.2-0.3-0.2-0.5-0.1
					c-0.2,0.1-0.2,0.3-0.1,0.5L15.8,33.9z"/>
			</g>
			<g>
				<path class="st0" d="M21.5,43c-0.2,0.1-0.2,0.3-0.1,0.5l1,1.7c0.1,0.2,0.3,0.2,0.5,0.1c0.2-0.1,0.2-0.3,0.1-0.5l-1-1.7
					C21.9,43,21.7,42.9,21.5,43z"/>
			</g>
			<g>
				<path class="st0" d="M23.8,36.1l1.7-1c0.2-0.1,0.2-0.3,0.1-0.5c-0.1-0.2-0.3-0.2-0.5-0.1l-1.7,1c-0.2,0.1-0.2,0.3-0.1,0.5
					C23.5,36.1,23.7,36.1,23.8,36.1z"/>
			</g>
			<g>
				<path class="st0" d="M14,40.9l-1.7,1c-0.2,0.1-0.2,0.3-0.1,0.5c0.1,0.2,0.3,0.2,0.5,0.1l1.7-1c0.2-0.1,0.2-0.3,0.1-0.5
					C14.4,40.9,14.2,40.9,14,40.9z"/>
			</g>
		</g>
		<g>
			<path class="st0" d="M90.6,104.7h-0.1l-0.2,0.1c-2.5,1.3-10.4,4.3-17.5-2.5c-0.1-0.1-0.3-0.2-0.4-0.2c-0.1,0-0.3,0.1-0.4,0.2
				c-2.1,1.6-11.9,8.2-20.6,0.1l-0.1-0.1c-0.1-0.1-0.2-0.1-0.4-0.1c-0.1,0-0.2,0.1-0.3,0.1l-0.1,0.1c-8.7,8.1-18.5,1.5-20.6-0.1
				c-0.1-0.1-0.2-0.2-0.4-0.2c-0.2,0-0.3,0.1-0.4,0.2c-7.1,6.8-15,3.7-17.5,2.5l-0.2-0.1h-0.1c-0.3,0-0.5,0.2-0.5,0.5v3.4
				c0,0.1,0.1,0.2,0.1,0.3c8.2,7.2,16.1,0.5,17.9-1.3c0.1-0.1,0.1-0.1,0.2-0.2c0.1,0,0.1-0.1,0.2-0.1c0.1,0,0.3,0.1,0.3,0.2
				c9.3,8.9,19.1,1.7,21.1,0l0.2-0.2c0.1,0,0.1-0.1,0.2-0.1c0.1,0,0.1,0,0.2,0.1l0.2,0.2c2,1.7,11.8,8.9,21.1,0l0,0
				c0.1-0.1,0.2-0.1,0.3-0.1c0.1,0,0.2,0,0.3,0.1c0.1,0,0.1,0.1,0.1,0.1c1.8,1.8,9.6,8.5,17.8,1.3c0.1-0.1,0.1-0.2,0.2-0.3v-3.4
				C91.1,105,90.9,104.8,90.6,104.7"/>
		</g>
		<g>
			<path class="st0" d="M11.1,93.3h79.6c0.3,0,0.6,0.3,0.6,0.6v3.6c0,0.3-0.3,0.6-0.6,0.6H11.1c-0.3,0-0.6-0.3-0.6-0.6v-3.6
				C10.5,93.6,10.8,93.3,11.1,93.3z"/>
		</g>
		<g>
			<path class="st0" d="M82.3,45.5c-1.2-1.1-2.7-1.8-4.4-2c-1.5-0.2-3.1,0.3-4.2,1.4c-0.3,0.2-0.7,0.8-0.3,1.1
				c0.2,0.1,0.6,0,0.9-0.2c0.7-0.3,1.4-0.3,2.1-0.2c2,0.2,3.9,1.1,5.2,2.7h0.1c0.1,0.1,0.3,0.2,0.4,0.2c0.2,0,0.4-0.1,0.5-0.2
				c1.5-1.3,3.5-2,5.5-1.8c0.7,0,1.4,0.2,2.1,0.6c0.2,0.2,0.6,0.3,0.9,0.2c0.3-0.2,0.2-0.7,0-1c-1-1.3-2.5-2-4.1-2.1
				C85.3,44.1,83.7,44.6,82.3,45.5z"/>
		</g>
		<g>
			<path class="st0" d="M68.8,33.9c-1.2-0.5-2.6-0.6-3.8-0.3c-1.2,0.3-2.2,1.2-2.8,2.3c-0.1,0.2-0.3,0.8,0.1,0.9s0.4-0.2,0.7-0.4
				c0.4-0.4,0.9-0.7,1.5-0.8c1.6-0.4,3.2-0.3,4.6,0.5l0,0c0.1,0,0.3,0,0.4,0c0.2,0,0.3-0.3,0.3-0.3c0.8-1.4,2.1-2.5,3.6-3
				c0.5-0.2,1.1-0.2,1.7-0.2c0.2,0.1,0.5,0.1,0.7-0.1c0.2-0.2-0.1-0.6-0.3-0.7c-1.1-0.6-2.4-0.8-3.7-0.4
				C70.6,32,69.6,32.8,68.8,33.9z"/>
		</g>
	</g>
</g>
</svg>
