<?xml version="1.0" encoding="utf-8"?>
<!-- Generator: Adobe Illustrator 22.0.1, SVG Export Plug-In . SVG Version: 6.00 Build 0)  -->
<svg version="1.1" id="Layer_1" xmlns="http://www.w3.org/2000/svg" xmlns:xlink="http://www.w3.org/1999/xlink" x="0px" y="0px"
	 viewBox="0 0 101.5 157.1" style="enable-background:new 0 0 101.5 157.1;" xml:space="preserve">
<style type="text/css">
	.st0{fill:#FFFFFF;}
	.st1{fill:#56C02B;}
	.st2{enable-background:new    ;}
</style>
<title>TARGET 1 B copy 11</title>
<g id="WHITE_BG">
	<g>
		<rect y="0" class="st0" width="101.5" height="157.1"/>
	</g>
</g>
<g id="TARGETS">
	<g>
		<g>
			<path class="st1" d="M10.5,129.3H7.8v2h2.9v0.9H6.9v-6.4h3.9v0.9H7.8v1.8h2.6V129.3z"/>
		</g>
		<g>
			<path class="st1" d="M12.4,131.3h2.8v0.9h-3.7v-6.4h0.9L12.4,131.3z"/>
		</g>
		<g>
			<path class="st1" d="M15.9,132.2v-6.4h0.9v6.4H15.9z"/>
		</g>
		<g>
			<path class="st1" d="M21.3,131.3h-0.9l-1.6-3.9v4.8h-1v-6.4H19l1.7,4.3l1.7-4.3h1.3v6.4h-1l0-4.8L21.3,131.3z"/>
		</g>
		<g>
			<path class="st1" d="M24.8,132.2v-6.4h1v6.4H24.8z"/>
		</g>
		<g>
			<path class="st1" d="M30.5,132.2l-2.8-4.5v4.5h-0.9v-6.4h0.9l2.8,4.5v-4.5h0.9v6.4H30.5z"/>
		</g>
		<g>
			<path class="st1" d="M35.4,130.6h-2l-0.5,1.6h-1l2-6.4h1l2,6.4h-1L35.4,130.6z M34.4,127l-0.8,2.8h1.6L34.4,127z"/>
		</g>
		<g>
			<path class="st1" d="M38.9,126.7v5.5H38v-5.5h-1.7v-0.9h4.3v0.9H38.9z"/>
		</g>
		<g>
			<path class="st1" d="M44.7,129.3h-2.6v2H45v0.9h-3.9v-6.4H45v0.9h-2.9v1.8h2.7L44.7,129.3z"/>
		</g>
		<g>
			<path class="st1" d="M48.1,132.2h-1v-6.4h2c1.7,0,2.2,1,2.2,2c0,1-0.6,2-2.2,2h-1V132.2z M48.1,128.9h1.1c0.6,0.1,1.2-0.4,1.2-1
				s-0.4-1.2-1-1.2c-0.1,0-0.1,0-0.2,0h-1.1V128.9z"/>
		</g>
		<g>
			<path class="st1" d="M52,129c0-1.8,0.4-3.3,2.5-3.3s2.5,1.5,2.5,3.3s-0.4,3.3-2.5,3.3S52,130.8,52,129z M53,129
				c0,1.5,0.3,2.4,1.5,2.4s1.5-0.9,1.5-2.4s-0.3-2.4-1.5-2.4S52.9,127.5,53,129L53,129z"/>
		</g>
		<g>
			<path class="st1" d="M60.6,130.6h-2l-0.5,1.6H57l2-6.4h1l2,6.4h-1L60.6,130.6z M59.6,127l-0.8,2.8h1.6L59.6,127z"/>
		</g>
		<g>
			<path class="st1" d="M64.9,125.7c0.5,0,1,0.1,1.5,0.3v0.9c-0.5-0.2-0.9-0.3-1.4-0.3c-1.2,0-1.7,0.8-1.7,2.4s0.5,2.4,1.7,2.4
				c0.5,0,1-0.1,1.4-0.3v0.9c-0.5,0.2-1,0.3-1.5,0.3c-1.9,0-2.6-1.2-2.6-3.3S63.1,125.7,64.9,125.7z"/>
		</g>
		<g>
			<path class="st1" d="M70.8,132.2v-2.9h-2.6v2.9h-1v-6.4h1v2.6h2.6v-2.6h1v6.4H70.8z"/>
		</g>
		<g>
			<path class="st1" d="M72.9,132.2v-6.4h1v6.4H72.9z"/>
		</g>
		<g>
			<path class="st1" d="M78.6,132.2l-2.8-4.5v4.5h-1v-6.4h0.9l2.8,4.5v-4.5h0.9v6.4H78.6z"/>
		</g>
		<g>
			<path class="st1" d="M80.2,129c0-2,0.7-3.3,2.6-3.3c0.6,0,1.2,0.1,1.8,0.3v1c-0.5-0.2-1.1-0.4-1.7-0.4c-1.3,0-1.8,0.9-1.8,2.4
				s0.5,2.4,1.8,2.4c0.3,0,0.6,0,0.9-0.1v-1.7h-1.1v-0.9h2.1v3.2c-0.6,0.3-1.3,0.4-2,0.4C80.9,132.3,80.2,131,80.2,129z"/>
		</g>
		<g>
			<path class="st1" d="M10.1,139.6h-2l-0.4,1.6h-1l2-6.4h1l2,6.4h-1L10.1,139.6z M9.1,136l-0.8,2.8h1.6L9.1,136z"/>
		</g>
		<g>
			<path class="st1" d="M15.8,141.2l-2.8-4.5v4.5h-0.9v-6.4H13l2.8,4.5v-4.5h0.9v6.4H15.8z"/>
		</g>
		<g>
			<path class="st1" d="M17.6,141.2v-6.4h1.9c2.1,0,2.7,1.4,2.7,3.2s-0.6,3.2-2.7,3.2H17.6z M18.6,140.3h1c1.3,0,1.7-0.9,1.7-2.3
				s-0.4-2.3-1.7-2.3h-1V140.3z"/>
		</g>
		<g>
			<path class="st1" d="M26.5,135.7v5.5h-1v-5.5h-1.7v-0.9h4.3v0.9H26.5z"/>
		</g>
		<g>
			<path class="st1" d="M29.7,141.2h-1v-6.4h2.1c1.7,0,2.2,0.7,2.2,1.9c0.1,0.7-0.3,1.4-1,1.7l1.3,2.8h-1.1l-1.2-2.6h-1.3V141.2z
				 M29.7,137.7h1.3c0.9,0,1-0.5,1-1s-0.1-1-1-1h-1.3V137.7z"/>
		</g>
		<g>
			<path class="st1" d="M37,139.6h-2l-0.5,1.6h-1l2-6.4h1l2,6.4h-1L37,139.6z M36,136l-0.8,2.8h1.6L36,136z"/>
		</g>
		<g>
			<path class="st1" d="M42.6,138.4H40v2.8h-1v-6.4h3.8v0.9H40v1.8h2.6L42.6,138.4z"/>
		</g>
		<g>
			<path class="st1" d="M47,138.4h-2.6v2.8h-1v-6.4h3.8v0.9h-2.8v1.8H47V138.4z"/>
		</g>
		<g>
			<path class="st1" d="M48.1,141.2v-6.4h1v6.4H48.1z"/>
		</g>
		<g>
			<path class="st1" d="M52.6,134.7c0.5,0,1,0.1,1.5,0.3v0.9c-0.5-0.2-0.9-0.3-1.4-0.3c-1.2,0-1.7,0.8-1.7,2.4s0.5,2.4,1.7,2.4
				c0.5,0,1-0.1,1.4-0.3v0.9c-0.5,0.2-1,0.3-1.5,0.3c-1.9,0-2.6-1.2-2.6-3.3S50.7,134.7,52.6,134.7z"/>
		</g>
		<g>
			<path class="st1" d="M56.2,138.4l-0.5,0.6v2.2h-1v-6.4h1v3l2.3-3h1.2l-2.3,2.8l2.6,3.6h-1.2L56.2,138.4z"/>
		</g>
		<g>
			<path class="st1" d="M60,141.2v-6.4h1v6.4H60z"/>
		</g>
		<g>
			<path class="st1" d="M65.7,141.2l-2.7-4.5v4.5h-1v-6.4h0.9l2.8,4.5v-4.5h0.9v6.4H65.7z"/>
		</g>
		<g>
			<path class="st1" d="M67.5,138c0-2,0.7-3.3,2.6-3.3c0.6,0,1.3,0.1,1.8,0.3v1c-0.5-0.2-1.1-0.4-1.7-0.4c-1.3,0-1.8,0.9-1.8,2.4
				s0.5,2.4,1.8,2.4c0.3,0,0.6,0,0.9-0.1v-1.7H70v-0.9h2.1v3.2c-0.6,0.3-1.3,0.4-2,0.4C68.2,141.3,67.5,140,67.5,138z"/>
		</g>
		<g>
			<path class="st1" d="M74.3,138c0-1.8,0.4-3.3,2.5-3.3s2.5,1.5,2.5,3.3s-0.4,3.3-2.5,3.3S74.3,139.8,74.3,138z M75.3,138
				c0,1.5,0.3,2.4,1.5,2.4s1.5-0.9,1.5-2.4s-0.3-2.4-1.5-2.4S75.3,136.5,75.3,138L75.3,138z"/>
		</g>
		<g>
			<path class="st1" d="M83.5,138.4h-2.6v2.8h-1v-6.4h3.8v0.9h-2.8v1.8h2.6V138.4z"/>
		</g>
		<g>
			<path class="st1" d="M7.8,150.2h-1v-6.4h2.1c1.6,0,2.2,0.9,2.2,2s-0.6,2-2.2,2H7.8V150.2z M7.8,146.9H9c0.6,0.1,1.2-0.4,1.2-1
				c0.1-0.6-0.4-1.2-1-1.2c-0.1,0-0.1,0-0.2,0H7.8V146.9z"/>
		</g>
		<g>
			<path class="st1" d="M12.7,150.2h-1v-6.4h2.1c1.6,0,2.2,0.7,2.2,1.9c0.1,0.7-0.3,1.4-1,1.7l1.3,2.8h-1.1l-1.2-2.6h-1.3V150.2z
				 M12.7,146.7h1.2c0.9,0,1-0.5,1-1s-0.1-1-1-1h-1.2V146.7z"/>
		</g>
		<g>
			<path class="st1" d="M16.7,147c0-1.8,0.4-3.3,2.5-3.3s2.5,1.5,2.5,3.3s-0.4,3.3-2.5,3.3S16.7,148.8,16.7,147z M17.7,147
				c0,1.5,0.3,2.4,1.5,2.4s1.5-0.9,1.5-2.4s-0.3-2.4-1.5-2.4S17.7,145.5,17.7,147L17.7,147z"/>
		</g>
		<g>
			<path class="st1" d="M24.4,144.7v5.5h-1v-5.5h-1.6v-0.9H26v0.9H24.4z"/>
		</g>
		<g>
			<path class="st1" d="M30.3,147.3h-2.6v2h2.9v0.9h-3.9v-6.4h3.9v0.9h-2.9v1.8h2.6V147.3z"/>
		</g>
		<g>
			<path class="st1" d="M33.8,143.7c0.5,0,1,0.1,1.5,0.3v0.9c-0.5-0.2-0.9-0.3-1.4-0.3c-1.2,0-1.7,0.8-1.7,2.4s0.5,2.4,1.7,2.4
				c0.5,0,1-0.1,1.4-0.3v0.9c-0.5,0.2-1,0.3-1.5,0.3c-1.9,0-2.6-1.2-2.6-3.3S31.9,143.7,33.8,143.7z"/>
		</g>
		<g>
			<path class="st1" d="M38.2,144.7v5.5h-1v-5.5h-1.7v-0.9h4.3v0.9H38.2z"/>
		</g>
		<g>
			<path class="st1" d="M44,147.3h-2.6v2h2.9v0.9h-3.9v-6.4h3.9v0.9h-2.9v1.8H44V147.3z"/>
		</g>
		<g>
			<path class="st1" d="M45,150.2v-6.4h1.9c2.1,0,2.7,1.4,2.7,3.2s-0.6,3.2-2.7,3.2H45z M46,149.3h1c1.3,0,1.7-0.9,1.7-2.3
				s-0.4-2.3-1.7-2.3h-1V149.3z"/>
		</g>
		<g>
			<path class="st1" d="M56,148.3c0,1.2-0.7,2-2.4,2c-0.6,0-1.3-0.1-1.9-0.4V149c0.6,0.3,1.2,0.4,1.8,0.4c1.2,0,1.5-0.5,1.5-1.1
				s-0.3-0.9-1.2-1c-1.5-0.2-2.2-0.6-2.2-1.8c0-0.9,0.5-1.8,2.3-1.8c0.6,0,1.2,0.1,1.7,0.3v1c-0.5-0.2-1.1-0.3-1.7-0.3
				c-1,0-1.3,0.4-1.3,1s0.4,0.8,1.2,0.9C55.2,146.7,56,147,56,148.3z"/>
		</g>
		<g>
			<path class="st1" d="M57.6,150.2h-1v-6.4h2c1.7,0,2.2,0.9,2.2,2s-0.6,2-2.2,2h-1V150.2z M57.6,146.9h1.1c0.6,0.1,1.2-0.4,1.2-1
				s-0.4-1.2-1-1.2c-0.1,0-0.1,0-0.2,0h-1.1V146.9z"/>
		</g>
		<g>
			<path class="st1" d="M65.1,147.3h-2.6v2h2.9v0.9h-3.9v-6.4h3.9v0.9h-2.9v1.8h2.6V147.3z"/>
		</g>
		<g>
			<path class="st1" d="M68.6,143.7c0.5,0,1,0.1,1.5,0.3v0.9c-0.5-0.2-0.9-0.3-1.4-0.3c-1.2,0-1.7,0.8-1.7,2.4s0.5,2.4,1.7,2.4
				c0.5,0,1-0.1,1.4-0.3v0.9c-0.5,0.2-1,0.3-1.5,0.3c-1.9,0-2.6-1.2-2.6-3.3S66.7,143.7,68.6,143.7z"/>
		</g>
		<g>
			<path class="st1" d="M71,150.2v-6.4h1v6.4H71z"/>
		</g>
		<g>
			<path class="st1" d="M76.6,147.3H74v2h2.9v0.9H73v-6.4h3.9v0.9H74v1.8h2.6V147.3z"/>
		</g>
		<g>
			<path class="st1" d="M81.8,148.3c0,1.2-0.7,2-2.4,2c-0.6,0-1.3-0.1-1.9-0.4V149c0.6,0.3,1.2,0.4,1.8,0.4c1.2,0,1.5-0.5,1.5-1.1
				s-0.3-0.9-1.2-1c-1.6-0.2-2.2-0.6-2.2-1.8c0-0.9,0.5-1.8,2.3-1.8c0.6,0,1.2,0.1,1.7,0.3v1c-0.5-0.2-1.1-0.3-1.7-0.3
				c-1,0-1.3,0.4-1.3,1s0.4,0.8,1.2,0.9C81,146.7,81.8,147,81.8,148.3z"/>
		</g>
	</g>
	<g>
		<rect x="3.3" y="24" class="st1" width="94.8" height="94.8"/>
	</g>
	<g>
		<path class="st1" d="M98.2,20.7H3.3V3.3h94.8V20.7z M4.3,19.7h92.8V4.3H4.3L4.3,19.7z"/>
	</g>
	<g class="st2">
		<path class="st1" d="M6.7,6.9h4.5v1.4H9.9v8.8H8.1V8.3H6.7V6.9z"/>
	</g>
	<g class="st2">
		<path class="st1" d="M11.2,17.1l1.9-10.2h1.9L17,17.1h-1.8l-0.3-1.9h-1.8l-0.3,1.9H11.2z M13.3,13.9h1.4L14,9.8h0L13.3,13.9z"/>
	</g>
	<g class="st2">
		<path class="st1" d="M19.6,12.4v4.7h-1.7V6.9h2.5c1.7,0,2.4,0.9,2.4,2.3v1.3c0,1.1-0.4,1.7-1.4,2l1.6,4.6h-1.8L19.6,12.4z
			 M19.6,8.3v3.2h0.6c0.6,0,0.8-0.3,0.8-0.8V9.2c0-0.6-0.3-0.8-0.8-0.8H19.6z"/>
	</g>
	<g class="st2">
		<path class="st1" d="M26.4,11.7h2.4v5.4h-1.2V16c-0.2,0.8-0.7,1.2-1.6,1.2c-1.5,0-2.1-1.2-2.1-2.7V9.6c0-1.6,0.8-2.7,2.6-2.7
			c1.9,0,2.4,1.1,2.4,2.6v0.9h-1.6v-1c0-0.6-0.2-1-0.9-1c-0.6,0-0.9,0.4-0.9,1v5.5c0,0.6,0.3,1,0.8,1c0.6,0,0.8-0.3,0.8-1V13h-0.8
			V11.7z"/>
	</g>
	<g class="st2">
		<path class="st1" d="M30.2,6.9h4.1v1.4h-2.4v2.9h1.7v1.4h-1.7v3.1h2.4v1.4h-4.1V6.9z"/>
	</g>
	<g class="st2">
		<path class="st1" d="M35.1,6.9h4.5v1.4h-1.4v8.8h-1.7V8.3h-1.4V6.9z"/>
	</g>
	<g class="st2">
		<path class="st1" d="M78.5,6.9v10.2h-1.7V9.3h0l-1.2,1.2h0V8.8l1.6-1.8H78.5z"/>
		<path class="st1" d="M84.7,12.4v2.5c0,1.4-0.7,2.3-2.4,2.3c-1.7,0-2.4-1-2.4-2.5v-1.2h1.6v1.3c0,0.6,0.2,1,0.8,1
			c0.5,0,0.7-0.4,0.7-0.9v-2.5c0-0.6-0.2-0.9-0.7-0.9c-0.5,0-0.8,0.3-0.8,0.9v0.2H80V6.9h4.5v1.4h-2.9v2.5h0
			c0.3-0.5,0.8-0.7,1.4-0.7C83.9,10.2,84.7,10.8,84.7,12.4z"/>
	</g>
	<g class="st2">
	</g>
	<g class="st2">
		<path class="st1" d="M87.5,10.8c0.7,0,1.2,0.6,1.2,1.2c0,0.7-0.6,1.2-1.2,1.2c-0.7,0-1.2-0.6-1.2-1.2
			C86.2,11.4,86.8,10.8,87.5,10.8z"/>
	</g>
	<g class="st2">
		<path class="st1" d="M90.1,6.9h4.3v1.6l-2.2,8.6h-1.7l2.3-8.8h-2.6V6.9z"/>
	</g>
	<g>
		<path class="st1" d="M98.2,153.9h-95v-31.7h95V153.9z M4.2,152.9h93v-29.7h-93V152.9z"/>
	</g>
	<g>
		<path class="st0" d="M89.8,69.1c-1.5-19.6-17.2-35-36.8-36.2v-9h-4.5v9c-19.6,1.2-35.3,16.6-36.8,36.2H3.3v4.5h8.3
			c0.9,20.1,16.8,36.2,36.8,37.4v8H53v-7.9c20.1-1.2,36-17.4,36.8-37.5h8.3v-4.5H89.8z M16.6,73.6h11.7v-4.5H16.7
			C18.2,52.5,31.4,39.4,47.9,38h0.5v9.6H53v-9.7c7.1,0.5,13.8,3.1,19.3,7.6l-6,6L55,62.8l0,0l0,0l-2.6,2.6c0-0.9,0.1-1.7,0.4-2.5
			c-0.8,0.3-1.7,0.6-2.6,0.9c-0.6,1.5-0.9,3.1-0.9,4.8l-0.6,0.6c-0.4-1.6-0.4-3.3-0.1-4.9c-0.8,0.2-1.7,0.3-2.5,0.3
			c-1.5,1.8-2,4.2-1.4,6.5c-1-2.1-1-4.6,0-6.7c-1-0.3-2-0.4-3-0.4c-1.9,1.9-2.6,4.6-1.9,7.1c-1.1-2.2-1.1-4.8,0.1-6.9
			c-1.8,0.4-3.5,1.3-4.8,2.7c-1.7,1.8-3.1,3.9-4.2,6.2c0,0-3.8,7.5-7.8,7.5c-3.9,0-3.4-2.9-3.4-2.9s2.1-1.1,2-2.2s-2.4,0.3-2.9,1.7
			s-0.3,4.8,4.5,4.8s10.7-10.1,10.7-10.1l0.6,1.8c0.1,0.8-1.6,4.6-1.7,5l2.6,3.9L24.3,93.5C19.7,87.9,17,80.9,16.6,73.6z M59.3,70.8
			c-0.8-1.1-1.3-2.4-1.5-3.7l0.7-0.7C58.5,67.9,58.8,69.4,59.3,70.8z M55.2,73c-0.5-0.6-0.9-1.3-1.3-2l0.5-0.5
			C54.6,71.3,54.8,72.2,55.2,73z M44.2,73.5L37.7,80l-0.9-1.7l4.4-4.7C42.2,73.5,43.2,73.4,44.2,73.5L44.2,73.5z M84.8,74.9
			c-1.5,16.5-14.6,29.7-31.1,31.1H53V93.8h-4.5V106c-7.7-0.5-15.1-3.6-20.8-8.9l12-12H42c-0.2-0.5-0.5-1-0.9-1.4l9.2-9.2
			c2.2,0.5,3.8,0.9,3.8,0.9l2,5.1l1.7,1.8l3,2.8h5.7c0,0-0.4-2-3.7-2.7l-2.6-3.1L59.7,74l6.9-3.7l4.7,1.6c0.6-1,1.3-1.9,2.1-2.7
			v-0.6C72.6,67.8,72,67,71.8,66l-0.1-0.5L68.6,63c0,0-0.2-1.5-1.3-1.8l-0.7,2.2l-2,0.3L61.8,63L74,50.8l1.9-1.9
			c5.1,5.5,8.2,12.6,8.9,20.2H74.6v4.5h10.3C84.8,74,84.8,74.5,84.8,74.9z M69.4,66.4c0-0.3,0.3-0.6,0.6-0.6c0.3,0,0.6,0.3,0.6,0.6
			c0,0.3-0.3,0.6-0.6,0.6C69.7,67,69.4,66.7,69.4,66.4L69.4,66.4z"/>
	</g>
</g>
</svg>
