<?xml version="1.0" encoding="utf-8"?>
<!-- Generator: Adobe Illustrator 22.0.1, SVG Export Plug-In . SVG Version: 6.00 Build 0)  -->
<svg version="1.1" id="Layer_1" xmlns="http://www.w3.org/2000/svg" xmlns:xlink="http://www.w3.org/1999/xlink" x="0px" y="0px"
	 viewBox="0 0 101.5 166.2" style="enable-background:new 0 0 101.5 166.2;" xml:space="preserve">
<style type="text/css">
	.st0{fill:#FFFFFF;}
	.st1{fill:#56C02B;}
	.st2{enable-background:new    ;}
</style>
<title>TARGET 1 B copy 10</title>
<g id="WHITE_BG">
	<g>
		<rect y="0" class="st0" width="101.5" height="166.2"/>
	</g>
</g>
<g id="TARGETS">
	<g>
		<g>
			<path class="st1" d="M7.8,132.2h-1v-6.4h2.1c1.6,0,2.2,1,2.2,2c0,1-0.6,2-2.2,2H7.8V132.2z M7.8,128.9H9c0.6,0.1,1.2-0.4,1.2-1
				c0.1-0.6-0.4-1.2-1-1.2c-0.1,0-0.1,0-0.2,0H7.8V128.9z"/>
		</g>
		<g>
			<path class="st1" d="M12.6,132.2h-0.9v-6.4h2.1c1.6,0,2.2,0.7,2.2,1.9c0.1,0.7-0.3,1.4-1,1.7l1.3,2.8h-1.2l-1.1-2.6h-1.3V132.2z
				 M12.6,128.7h1.3c0.9,0,1-0.5,1-1s-0.1-1-1-1h-1.3V128.7z"/>
		</g>
		<g>
			<path class="st1" d="M16.6,129c0-1.8,0.4-3.3,2.5-3.3s2.5,1.5,2.5,3.3s-0.4,3.3-2.5,3.3S16.6,130.8,16.6,129z M17.6,129
				c0,1.5,0.3,2.4,1.5,2.4s1.5-0.9,1.5-2.4s-0.3-2.4-1.5-2.4S17.6,127.5,17.6,129L17.6,129z"/>
		</g>
		<g>
			<path class="st1" d="M25.7,131.3h-0.9l-1.6-3.9v4.8h-1v-6.4h1.2l1.7,4.3l1.8-4.3h1.2v6.4h-1v-4.8L25.7,131.3z"/>
		</g>
		<g>
			<path class="st1" d="M29,129c0-1.8,0.4-3.3,2.5-3.3s2.5,1.5,2.5,3.3c0,1.8-0.4,3.3-2.5,3.3S29,130.8,29,129z M30,129
				c0,1.5,0.3,2.4,1.5,2.4s1.5-0.9,1.5-2.4s-0.3-2.4-1.5-2.4S30,127.5,30,129L30,129z"/>
		</g>
		<g>
			<path class="st1" d="M36.7,126.7v5.5h-1v-5.5h-1.6v-0.9h4.3v0.9H36.7z"/>
		</g>
		<g>
			<path class="st1" d="M42.6,129.3H40v2h2.9v0.9H39v-6.4h3.9v0.9H40v1.8h2.6V129.3z"/>
		</g>
		<g>
			<path class="st1" d="M48.3,130.6h-2l-0.5,1.6h-1l2-6.4h1l2,6.4h-1L48.3,130.6z M47.3,127l-0.8,2.8h1.6L47.3,127z"/>
		</g>
		<g>
			<path class="st1" d="M52.6,125.7c0.5,0,1,0.1,1.5,0.3v0.9c-0.5-0.2-0.9-0.3-1.4-0.3c-1.2,0-1.7,0.8-1.7,2.4s0.5,2.4,1.7,2.4
				c0.5,0,1-0.1,1.4-0.3v0.9c-0.5,0.2-1,0.3-1.5,0.3c-1.9,0-2.6-1.2-2.6-3.3S50.7,125.7,52.6,125.7z"/>
		</g>
		<g>
			<path class="st1" d="M57.3,125.7c0.5,0,1,0.1,1.5,0.3v0.9c-0.4-0.2-0.9-0.3-1.4-0.3c-1.2,0-1.7,0.8-1.7,2.4s0.5,2.4,1.7,2.4
				c0.5,0,1-0.1,1.4-0.3v0.9c-0.5,0.2-1,0.3-1.5,0.3c-1.9,0-2.6-1.2-2.6-3.3S55.4,125.7,57.3,125.7z"/>
		</g>
		<g>
			<path class="st1" d="M63.3,129.3h-2.7v2h2.9v0.9h-3.9v-6.4h3.9v0.9h-2.9v1.8h2.7V129.3z"/>
		</g>
		<g>
			<path class="st1" d="M68.6,130.3c0,1.2-0.7,2-2.4,2c-0.6,0-1.3-0.1-1.9-0.4V131c0.6,0.3,1.2,0.4,1.8,0.4c1.2,0,1.5-0.5,1.5-1.1
				s-0.3-0.9-1.2-1c-1.6-0.2-2.2-0.6-2.2-1.8c0-0.9,0.5-1.8,2.3-1.8c0.6,0,1.2,0.1,1.7,0.3v1c-0.5-0.2-1.1-0.3-1.7-0.3
				c-1,0-1.3,0.4-1.3,1c0,0.6,0.4,0.8,1.2,0.9C67.8,128.7,68.6,129,68.6,130.3z"/>
		</g>
		<g>
			<path class="st1" d="M73.4,130.3c0,1.2-0.7,2-2.4,2c-0.6,0-1.3-0.1-1.9-0.4V131c0.6,0.3,1.2,0.4,1.8,0.4c1.2,0,1.5-0.5,1.5-1.1
				s-0.3-0.9-1.2-1c-1.6-0.2-2.2-0.6-2.2-1.8c0-0.9,0.5-1.8,2.3-1.8c0.6,0,1.2,0.1,1.7,0.3v1c-0.5-0.2-1.1-0.3-1.7-0.3
				c-1,0-1.3,0.4-1.3,1c0,0.6,0.4,0.8,1.2,0.9C72.7,128.7,73.4,129,73.4,130.3z"/>
		</g>
		<g>
			<path class="st1" d="M77.7,126.7v5.5h-1v-5.5H75v-0.9h4.3v0.9H77.7z"/>
		</g>
		<g>
			<path class="st1" d="M79.5,129c0-1.8,0.4-3.3,2.4-3.3s2.5,1.5,2.5,3.3s-0.4,3.3-2.4,3.3S79.5,130.8,79.5,129z M80.5,129
				c0,1.5,0.3,2.4,1.5,2.4s1.5-0.9,1.5-2.4s-0.3-2.4-1.5-2.4S80.5,127.5,80.5,129L80.5,129z"/>
		</g>
		<g>
			<path class="st1" d="M6.8,138c0-2,0.7-3.3,2.6-3.3c0.6,0,1.3,0.1,1.8,0.3v1c-0.5-0.2-1.1-0.4-1.7-0.4c-1.3,0-1.8,0.9-1.8,2.4
				s0.5,2.4,1.8,2.4c0.3,0,0.6,0,0.9-0.1v-1.7H9.3v-0.9h2.1v3.2c-0.6,0.3-1.3,0.4-2,0.4C7.5,141.3,6.8,140,6.8,138z"/>
		</g>
		<g>
			<path class="st1" d="M15.9,138.3h-2.6v2h2.9v0.9h-3.9v-6.4h3.9v0.9h-2.9v1.8h2.7L15.9,138.3z"/>
		</g>
		<g>
			<path class="st1" d="M20.7,141.2l-2.7-4.5v4.5h-1v-6.4h0.9l2.8,4.5v-4.5h0.9v6.4H20.7z"/>
		</g>
		<g>
			<path class="st1" d="M26.2,138.3h-2.7v2h2.9v0.9h-3.9v-6.4h3.9v0.9h-2.9v1.8h2.7V138.3z"/>
		</g>
		<g>
			<path class="st1" d="M29.5,135.7v5.5h-1v-5.5h-1.7v-0.9h4.3v0.9H29.5z"/>
		</g>
		<g>
			<path class="st1" d="M31.9,141.2v-6.4h1v6.4H31.9z"/>
		</g>
		<g>
			<path class="st1" d="M36.4,134.7c0.5,0,1,0.1,1.5,0.3v0.9c-0.5-0.2-0.9-0.3-1.4-0.3c-1.2,0-1.7,0.8-1.7,2.4s0.5,2.4,1.7,2.4
				c0.5,0,1-0.1,1.4-0.3v0.9c-0.5,0.2-1,0.3-1.5,0.3c-1.9,0-2.6-1.2-2.6-3.3S34.5,134.7,36.4,134.7z"/>
		</g>
		<g>
			<path class="st1" d="M41.1,141.2h-1v-6.4h2.1c1.7,0,2.2,0.7,2.2,1.9c0.1,0.7-0.3,1.4-1,1.7l1.3,2.8h-1.1l-1.2-2.6h-1.3V141.2z
				 M41.1,137.7h1.3c0.9,0,1-0.5,1-1s-0.1-1-1-1h-1.3V137.7z"/>
		</g>
		<g>
			<path class="st1" d="M48.9,138.3h-2.7v2h2.9v0.9h-3.9v-6.4h3.9v0.9h-2.9v1.8h2.7V138.3z"/>
		</g>
		<g>
			<path class="st1" d="M54.2,139.3c0,1.2-0.7,2-2.4,2c-0.6,0-1.3-0.1-1.9-0.4V140c0.6,0.3,1.2,0.4,1.8,0.4c1.2,0,1.5-0.5,1.5-1.1
				s-0.3-0.9-1.2-1c-1.6-0.2-2.2-0.6-2.2-1.8c0-0.9,0.5-1.8,2.3-1.8c0.6,0,1.2,0.1,1.7,0.3v1c-0.5-0.2-1.1-0.3-1.7-0.3
				c-1,0-1.3,0.4-1.3,1s0.4,0.8,1.2,0.9C53.4,137.7,54.2,138,54.2,139.3z"/>
		</g>
		<g>
			<path class="st1" d="M54.8,138c0-1.8,0.4-3.3,2.5-3.3s2.5,1.5,2.5,3.3s-0.4,3.3-2.5,3.3S54.8,139.8,54.8,138z M55.8,138
				c0,1.5,0.3,2.4,1.5,2.4s1.5-0.9,1.5-2.4s-0.3-2.4-1.5-2.4S55.8,136.5,55.8,138L55.8,138z"/>
		</g>
		<g>
			<path class="st1" d="M60.4,139.2v-4.4h1v4.3c0,0.8,0.6,1.4,1.4,1.4s1.4-0.6,1.4-1.4v-4.3h1v4.4c-0.1,1.3-1.2,2.2-2.5,2.1
				c-1.1-0.1-2-1-2.1-2.1H60.4z"/>
		</g>
		<g>
			<path class="st1" d="M66.9,141.2h-1v-6.4H68c1.7,0,2.2,0.7,2.2,1.9c0.1,0.7-0.3,1.4-1,1.7l1.3,2.8h-1.2l-1.2-2.6h-1.3V141.2z
				 M66.9,137.7h1.3c0.9,0,1-0.5,1-1s-0.1-1-1-1h-1.3V137.7z"/>
		</g>
		<g>
			<path class="st1" d="M73.5,134.7c0.5,0,1,0.1,1.5,0.3v0.9c-0.4-0.2-0.9-0.3-1.4-0.3c-1.2,0-1.7,0.8-1.7,2.4s0.5,2.4,1.7,2.4
				c0.5,0,1-0.1,1.4-0.3v0.9c-0.5,0.2-1,0.3-1.5,0.3c-1.9,0-2.6-1.2-2.6-3.3S71.6,134.7,73.5,134.7z"/>
		</g>
		<g>
			<path class="st1" d="M79.5,138.3h-2.7v2h2.9v0.9h-3.9v-6.4h3.9v0.9h-2.9v1.8h2.7V138.3z"/>
		</g>
		<g>
			<path class="st1" d="M84.8,139.3c0,1.2-0.7,2-2.4,2c-0.6,0-1.3-0.1-1.9-0.4V140c0.6,0.3,1.2,0.4,1.8,0.4c1.2,0,1.5-0.5,1.5-1.1
				s-0.3-0.9-1.2-1c-1.6-0.2-2.2-0.6-2.2-1.8c0-0.9,0.5-1.8,2.3-1.8c0.6,0,1.2,0.1,1.7,0.3v1c-0.5-0.2-1.1-0.3-1.7-0.3
				c-1,0-1.3,0.4-1.3,1s0.4,0.8,1.2,0.9C84,137.7,84.8,138,84.8,139.3z"/>
		</g>
		<g>
			<path class="st1" d="M10.1,148.6h-2l-0.4,1.6h-1l2-6.4h1l2,6.4h-1L10.1,148.6z M9.1,145l-0.8,2.8h1.6L9.1,145z"/>
		</g>
		<g>
			<path class="st1" d="M15.8,150.2l-2.8-4.5v4.5h-0.9v-6.4H13l2.8,4.5v-4.5h0.9v6.4H15.8z"/>
		</g>
		<g>
			<path class="st1" d="M17.6,150.2v-6.4h1.9c2.1,0,2.7,1.4,2.7,3.2s-0.6,3.2-2.7,3.2H17.6z M18.6,149.3h1c1.3,0,1.7-0.9,1.7-2.3
				s-0.4-2.3-1.7-2.3h-1V149.3z"/>
		</g>
		<g>
			<path class="st1" d="M28,147.4h-2.6v2.8h-1v-6.4h3.8v0.9h-2.8v1.8H28V147.4z"/>
		</g>
		<g>
			<path class="st1" d="M31.5,148.6h-2l-0.5,1.6H28l2-6.4h1l2,6.4h-1L31.5,148.6z M30.5,145l-0.8,2.8h1.6L30.5,145z"/>
		</g>
		<g>
			<path class="st1" d="M33.7,150.2v-6.4h1v6.4H33.7z"/>
		</g>
		<g>
			<path class="st1" d="M36.7,150.2h-1v-6.4h2.1c1.7,0,2.2,0.7,2.2,1.9c0.1,0.7-0.3,1.4-1,1.7l1.3,2.8h-1.2l-1.2-2.6h-1.3V150.2z
				 M36.7,146.7h1.3c0.9,0,1-0.5,1-1s-0.1-1-1-1h-1.3V146.7z"/>
		</g>
		<g>
			<path class="st1" d="M46.5,148.3c0,1.2-0.7,2-2.4,2c-0.6,0-1.3-0.1-1.9-0.4V149c0.6,0.3,1.2,0.4,1.8,0.4c1.1,0,1.5-0.5,1.5-1.1
				s-0.3-0.9-1.2-1c-1.6-0.2-2.2-0.6-2.2-1.8c0-0.9,0.5-1.8,2.3-1.8c0.6,0,1.2,0.1,1.7,0.3v1c-0.5-0.2-1.1-0.3-1.7-0.3
				c-1,0-1.3,0.4-1.3,1s0.4,0.8,1.2,0.9C45.7,146.7,46.5,147,46.5,148.3z"/>
		</g>
		<g>
			<path class="st1" d="M50.8,150.2v-2.9h-2.6v2.9h-1v-6.4h1v2.6h2.6v-2.6h1v6.4H50.8z"/>
		</g>
		<g>
			<path class="st1" d="M55.8,148.6h-2l-0.5,1.6h-1l2-6.4h1l2,6.4h-1L55.8,148.6z M54.8,145l-0.8,2.8h1.6L54.8,145z"/>
		</g>
		<g>
			<path class="st1" d="M58.8,150.2h-1v-6.4h2.1c1.7,0,2.2,0.7,2.2,1.9c0.1,0.7-0.3,1.4-1,1.7l1.3,2.8h-1.1l-1.2-2.6h-1.3V150.2z
				 M58.8,146.7H60c0.9,0,1-0.5,1-1s-0.1-1-1-1h-1.2V146.7z"/>
		</g>
		<g>
			<path class="st1" d="M63,150.2v-6.4h1v6.4H63z"/>
		</g>
		<g>
			<path class="st1" d="M68.7,150.2l-2.7-4.5v4.5h-1v-6.4h0.9l2.8,4.5v-4.5h0.9v6.4H68.7z"/>
		</g>
		<g>
			<path class="st1" d="M70.3,147c0-2,0.7-3.3,2.6-3.3c0.6,0,1.3,0.1,1.8,0.3v1c-0.5-0.2-1.1-0.4-1.7-0.4c-1.3,0-1.8,0.9-1.8,2.4
				s0.5,2.4,1.8,2.4c0.3,0,0.6,0,0.9-0.1v-1.7h-1.1v-0.9h2.1v3.2c-0.6,0.3-1.3,0.4-2,0.4C71,150.3,70.3,149,70.3,147z"/>
		</g>
		<g>
			<path class="st1" d="M77.1,147c0-1.8,0.4-3.3,2.5-3.3s2.4,1.5,2.4,3.3s-0.4,3.3-2.4,3.3S77.1,148.8,77.1,147z M78.1,147
				c0,1.5,0.3,2.4,1.5,2.4s1.5-0.9,1.5-2.4s-0.3-2.4-1.5-2.4S78.1,145.5,78.1,147L78.1,147z"/>
		</g>
		<g>
			<path class="st1" d="M86.3,147.4h-2.6v2.8h-1v-6.4h3.8v0.9h-2.8v1.8h2.6V147.4z"/>
		</g>
		<g>
			<path class="st1" d="M9.2,153.7v5.5h-1v-5.5H6.6v-0.9h4.3v0.9H9.2z"/>
		</g>
		<g>
			<path class="st1" d="M14.9,159.2v-2.9h-2.6v2.9h-1v-6.4h0.9v2.6h2.6v-2.6h1v6.4H14.9z"/>
		</g>
		<g>
			<path class="st1" d="M20.5,156.3h-2.7v2h2.9v0.9h-3.9v-6.4h3.9v0.9h-2.9v1.8h2.7V156.3z"/>
		</g>
		<g>
			<path class="st1" d="M22.9,152.8h2.1c1.6,0,2,0.8,2,1.7c0,0.5-0.3,1-0.8,1.3c0.6,0.2,1.1,0.8,1,1.5c0,1.1-0.5,1.9-2.2,1.9h-2.2
				V152.8z M25.1,153.7h-1.2v1.8h1.2c0.8,0,0.9-0.5,0.9-0.9S25.9,153.7,25.1,153.7z M23.9,158.3h1.3c0.9,0,1.1-0.5,1.1-1
				s-0.3-1-1.1-1h-1.3V158.3z"/>
		</g>
		<g>
			<path class="st1" d="M31.5,156.3h-2.6v2h2.9v0.9h-3.9v-6.4h3.9v0.9h-2.9v1.8h2.6V156.3z"/>
		</g>
		<g>
			<path class="st1" d="M36.3,159.2l-2.8-4.5v4.5h-1v-6.4h0.9l2.8,4.5v-4.5h0.9v6.4H36.3z"/>
		</g>
		<g>
			<path class="st1" d="M41.7,156.3H39v2h3v0.9h-3.9v-6.4H42v0.9h-3v1.8h2.7V156.3z"/>
		</g>
		<g>
			<path class="st1" d="M46.3,156.4h-2.6v2.8h-1v-6.4h3.8v0.9h-2.8v1.8h2.6V156.4z"/>
		</g>
		<g>
			<path class="st1" d="M47.5,159.2v-6.4h1v6.4H47.5z"/>
		</g>
		<g>
			<path class="st1" d="M51.7,153.7v5.5h-1v-5.5h-1.6v-0.9h4.3v0.9H51.7z"/>
		</g>
		<g>
			<path class="st1" d="M58.1,157.3c0,1.2-0.7,2-2.4,2c-0.6,0-1.3-0.1-1.9-0.4V158c0.6,0.3,1.2,0.4,1.8,0.4c1.2,0,1.5-0.5,1.5-1.1
				s-0.3-0.9-1.2-1c-1.5-0.2-2.2-0.6-2.2-1.8c0-0.9,0.5-1.8,2.3-1.8c0.6,0,1.2,0.1,1.7,0.3v1c-0.5-0.2-1.1-0.3-1.7-0.3
				c-1,0-1.3,0.4-1.3,1s0.4,0.8,1.2,0.9C57.3,155.7,58.1,156,58.1,157.3z"/>
		</g>
	</g>
	<g>
		<rect x="3.3" y="24" class="st1" width="94.8" height="94.8"/>
	</g>
	<g>
		<path class="st1" d="M98.2,20.7H3.3V3.3h94.8V20.7z M4.3,19.7h92.8V4.3H4.3L4.3,19.7z"/>
	</g>
	<g class="st2">
		<path class="st1" d="M6.7,6.9h4.5v1.4H9.9v8.8H8.1V8.3H6.7V6.9z"/>
	</g>
	<g class="st2">
		<path class="st1" d="M11.2,17.1l1.9-10.2h1.9L17,17.1h-1.8l-0.3-1.9h-1.8l-0.3,1.9H11.2z M13.3,13.9h1.4L14,9.8h0L13.3,13.9z"/>
	</g>
	<g class="st2">
		<path class="st1" d="M19.6,12.4v4.7h-1.7V6.9h2.5c1.7,0,2.4,0.9,2.4,2.3v1.3c0,1.1-0.4,1.7-1.4,2l1.6,4.6h-1.8L19.6,12.4z
			 M19.6,8.3v3.2h0.6c0.6,0,0.8-0.3,0.8-0.8V9.2c0-0.6-0.3-0.8-0.8-0.8H19.6z"/>
	</g>
	<g class="st2">
		<path class="st1" d="M26.4,11.7h2.4v5.4h-1.2V16c-0.2,0.8-0.7,1.2-1.6,1.2c-1.5,0-2.1-1.2-2.1-2.7V9.6c0-1.6,0.8-2.7,2.6-2.7
			c1.9,0,2.4,1.1,2.4,2.6v0.9h-1.6v-1c0-0.6-0.2-1-0.9-1c-0.6,0-0.9,0.4-0.9,1v5.5c0,0.6,0.3,1,0.8,1c0.6,0,0.8-0.3,0.8-1V13h-0.8
			V11.7z"/>
	</g>
	<g class="st2">
		<path class="st1" d="M30.2,6.9h4.1v1.4h-2.4v2.9h1.7v1.4h-1.7v3.1h2.4v1.4h-4.1V6.9z"/>
	</g>
	<g class="st2">
		<path class="st1" d="M35.1,6.9h4.5v1.4h-1.4v8.8h-1.7V8.3h-1.4V6.9z"/>
	</g>
	<g class="st2">
		<path class="st1" d="M77.5,6.9v10.2h-1.7V9.3h0l-1.2,1.2h0V8.8l1.6-1.8H77.5z"/>
		<path class="st1" d="M83.8,12.4v2.5c0,1.4-0.7,2.3-2.4,2.3c-1.7,0-2.4-1-2.4-2.5v-1.2h1.6v1.3c0,0.6,0.2,1,0.8,1
			c0.5,0,0.7-0.4,0.7-0.9v-2.5c0-0.6-0.2-0.9-0.7-0.9c-0.5,0-0.8,0.3-0.8,0.9v0.2H79V6.9h4.5v1.4h-2.9v2.5h0
			c0.3-0.5,0.8-0.7,1.4-0.7C83,10.2,83.8,10.8,83.8,12.4z"/>
	</g>
	<g class="st2">
	</g>
	<g class="st2">
		<path class="st1" d="M86.5,10.8c0.7,0,1.2,0.6,1.2,1.2c0,0.7-0.6,1.2-1.2,1.2c-0.7,0-1.2-0.6-1.2-1.2
			C85.3,11.4,85.9,10.8,86.5,10.8z"/>
	</g>
	<g class="st2">
		<path class="st1" d="M89.3,14.5v-5c0-1.6,0.7-2.7,2.5-2.7c1.9,0,2.4,1.1,2.4,2.6v0.5h-1.6V9.2c0-0.6-0.2-1-0.8-1
			c-0.6,0-0.8,0.4-0.8,1v2.2h0c0.3-0.5,0.7-0.8,1.4-0.8c1.2,0,1.9,0.8,1.9,2.5v1.5c0,1.6-0.7,2.6-2.5,2.6
			C90,17.2,89.3,16.1,89.3,14.5z M92.7,14.8V13c0-0.7-0.2-1-0.8-1c-0.5,0-0.8,0.4-0.8,0.9v1.9c0,0.6,0.2,1,0.8,1
			C92.4,15.8,92.7,15.5,92.7,14.8z"/>
	</g>
	<g>
		<path class="st1" d="M98.2,162.9h-95v-40.8h95V162.9z M4.2,161.9h93v-38.8h-93V161.9z"/>
	</g>
	<g>
		<g>
			<path class="st0" d="M53.3,92.6c-0.7,0.8-1.4,1.5-2.2,2.2c0.9,0.9,1.9,1.9,2.9,3.1l0,0h-5.9c-0.4,0.4-0.7,0.8-1.1,1.3
				c-0.2,0.2-0.3,0.4-0.5,0.6h8.8c0.5,1,1,2,1.4,3H44.9c-0.3,0.6-0.5,1.2-0.7,1.9h13.1c0.3,1,0.5,2,0.7,3H43.5
				c-0.1,0.7-0.2,1.3-0.3,1.9h15.1c0.1,1.1,0.2,1.8,0.2,1.8l2.3-0.1c0-0.4-0.3-10.3-5.3-16.3C54.6,94,54,93.3,53.3,92.6z"/>
		</g>
		<g>
			<path class="st0" d="M44.7,87.2c0.7,1.2,1.5,2.4,2.5,3.5c0.6-0.6,1.1-1.2,1.7-1.7l0.5-0.5c-1.1-1.1-2.1-2.4-2.9-3.8h6.3
				c0.4-0.6,0.8-1.2,1.1-1.9h-8.3l-0.1-0.1c-0.4-1-0.7-1.9-1-2.8H55c0.2-0.6,0.4-1.3,0.6-1.9H43.8c-0.3-1-0.5-2-0.7-3h13.1
				c0.1-0.6,0.2-1.3,0.3-1.9H42.9c0-0.6-0.1-1.2-0.1-1.7s0-1.2,0.1-1.8h13.6c-0.1-0.6-0.2-1.2-0.3-1.9H43.2c0.2-1,0.4-2,0.7-3h11.8
				c-0.2-0.6-0.4-1.2-0.6-1.9H44.4c0.3-0.9,0.6-1.8,1-2.8l0.1-0.1h8.3c-0.3-0.7-0.7-1.3-1.1-1.9h-6.2c0.8-1.4,1.8-2.7,2.9-3.8
				l-0.5-0.5c-0.5-0.5-1.1-1.1-1.7-1.7c-1.5,1.7-2.8,3.7-3.7,5.9c-1.8,4.1-2.8,8.5-3,13l0,0c0,0.1,0,0.2,0,0.4s0,0.2,0,0.4l0,0
				c0.1,3.3,0.7,6.6,1.8,9.8c-2.6-3.6-4.9-7.4-6.8-11.4l-1.1,0.4C37.8,78.8,44.7,87.3,44.7,87.2L44.7,87.2z"/>
		</g>
		<g>
			<path class="st0" d="M58,35.3c-0.2,1-0.4,2-0.7,3H44.2c0.2,0.6,0.4,1.3,0.7,1.9h11.8c-0.4,1-0.8,2-1.4,3h-8.8
				c0.2,0.2,0.3,0.4,0.5,0.6c0.4,0.5,0.7,0.9,1.1,1.3H54l0,0c-1,1.2-2,2.2-2.9,3.1c0.8,0.8,1.5,1.5,2.2,2.2c0.7-0.7,1.3-1.4,2-2.2
				c5.1-5.9,5.3-15.9,5.3-16.3l-2.3-0.1c0,0,0,0.7-0.2,1.8h-15c0.1,0.5,0.2,1.2,0.3,1.9L58,35.3z"/>
		</g>
		<g>
			<path class="st0" d="M67.8,72c-3.5,0.4-6.4,3.1-7,6.6c0,0.5,0,1,0.1,1.4c0,0,5.4-3.5,16.2-2.4c0,0-11.3-0.3-18.2,4.9
				c-0.6,0.4-1.1,0.9-1.6,1.4c1.5-3.8,2.4-7.9,2.6-12l0,0c-0.1-4.7-1.1-9.4-3-13.7c-1.7-4.1-3.9-6.3-6.5-8.8c-1.3-1.3-2.6-2.6-4-4.3
				C42.3,40.2,42,31.7,42,31.6l-2.3,0.1c0,0.4,0.3,10.3,5.4,16.3c1.5,1.8,2.9,3.2,4.2,4.4c2.4,2.4,4.4,4.3,5.7,7.7
				c1.6,3.7,2.5,7.6,2.6,11.6l0,0c-0.2,3.8-1.1,7.5-2.6,10.9c-1.4,3.4-3.3,5.3-5.7,7.7c-1.3,1.2-2.7,2.6-4.2,4.4
				c-5.1,5.9-5.3,15.9-5.4,16.3l2.3,0.1c0-0.1,0.3-8.5,4.4-13.4c1.5-1.7,2.8-3,4-4.3c1.8-1.7,3.5-3.6,4.9-5.6l0,0
				c0.8-1.1,1.7-2.1,2.7-2.9c1.4-1.2,2.9-2.1,4.6-2.7c1.9,1.7,5.3,4,8.7,3.2c4.5-1.2,6.3-6.9,12.4-7.7C85.2,77.7,75,70.8,67.8,72z"
				/>
		</g>
		<g>
			<path class="st0" d="M32,54.8c-0.7-2-3.9-3.7-3.9-3.7s-1.6,3.4-0.9,5.3c0.5,1.6,2.7,2,3.4,2.1C30.5,58.6,32.6,56.5,32,54.8z"/>
		</g>
		<g>
			<path class="st0" d="M27.6,62.8c0,0,0.9,0.6,3.9,0.1c0,0-0.6-2.9-2.1-3.7c0,0-0.8-0.7-5.2-1.5C24.2,57.7,25.3,62.1,27.6,62.8z"/>
		</g>
		<g>
			<path class="st0" d="M31.2,64.8c0,0-0.9-0.7-5.6-1.7c0,0,1.1,4.8,3.6,5.6c0,0,1,0.6,4.2,0.1C33.5,68.7,32.8,65.6,31.2,64.8z"/>
		</g>
		<g>
			<path class="st0" d="M32.4,62.5c2.7-1.4,3.1-2.4,3.1-2.4C36.9,58.2,35,54,35,54c-2.9,3.3-3.2,4.3-3.2,4.3
				C31.2,59.9,32.4,62.5,32.4,62.5z"/>
		</g>
		<g>
			<path class="st0" d="M37.7,65.8c1.5-2.1-0.5-6.6-0.5-6.6c-3.2,3.6-3.4,4.7-3.4,4.7c-0.7,1.6,0.6,4.5,0.6,4.5
				C37.3,66.9,37.7,65.8,37.7,65.8z"/>
		</g>
		<g>
			<path class="st0" d="M21.9,47.4c-0.1-0.3-0.4-0.4-0.6-0.3c-0.3,0.1-0.4,0.4-0.3,0.6c0,0,0,0,0,0l3.1,9.1l1.1,0.2L21.9,47.4z"/>
		</g>
		<g>
			<path class="st0" d="M26,56.4L26,56.4c0-0.9,0-1.7,0.1-2.6l-2.9-8.5c-0.1-0.3-0.4-0.4-0.6-0.3c-0.3,0.1-0.4,0.4-0.3,0.6L26,56.4z
				"/>
		</g>
		<g>
			<path class="st0" d="M26.7,52c0.2-0.6,0.4-1.1,0.5-1.5l-2.8-8.1c-0.1-0.3-0.3-0.4-0.6-0.3c0,0,0,0,0,0c-0.2,0.1-0.4,0.4-0.3,0.6
				L26.7,52z"/>
		</g>
		<g>
			<path class="st0" d="M34,54.1l0.7-0.8l-3.1-9.1c-0.1-0.3-0.4-0.4-0.6-0.3s-0.4,0.4-0.3,0.6l0,0L34,54.1z"/>
		</g>
		<g>
			<path class="st0" d="M31.2,52.1c0.6,0.6,1.2,1.2,1.7,1.9l0,0l-3.6-10.8c-0.1-0.2-0.3-0.4-0.6-0.3c0,0,0,0,0,0
				c-0.3,0.1-0.4,0.4-0.3,0.6c0,0,0,0,0,0L31.2,52.1z"/>
		</g>
		<g>
			<path class="st0" d="M28.4,50.1l1.3,0.9l-3.2-9.4c-0.1-0.3-0.4-0.4-0.6-0.3s-0.4,0.4-0.3,0.6L28.4,50.1z"/>
		</g>
	</g>
</g>
</svg>
