<?xml version="1.0" encoding="utf-8"?>
<!-- Generator: Adobe Illustrator 22.0.1, SVG Export Plug-In . SVG Version: 6.00 Build 0)  -->
<svg version="1.1" id="Layer_1" xmlns="http://www.w3.org/2000/svg" xmlns:xlink="http://www.w3.org/1999/xlink" x="0px" y="0px"
	 viewBox="0 0 101.5 175.2" style="enable-background:new 0 0 101.5 175.2;" xml:space="preserve">
<style type="text/css">
	.st0{fill:#FFFFFF;}
	.st1{fill:#19486A;}
	.st2{enable-background:new    ;}
</style>
<title>TARGET 1 B copy 12</title>
<g id="WHITE_BG">
	<g>
		<rect y="0" class="st0" width="101.5" height="175.2"/>
	</g>
</g>
<g id="TARGETS">
	<g>
		<g>
			<path class="st1" d="M11.1,130.3c0,1.2-0.7,2-2.4,2c-0.6,0-1.3-0.1-1.9-0.4V131c0.6,0.3,1.2,0.4,1.8,0.4c1.1,0,1.5-0.5,1.5-1.1
				s-0.3-0.9-1.2-1c-1.6-0.2-2.2-0.6-2.2-1.8c0-0.9,0.5-1.8,2.3-1.8c0.6,0,1.2,0.1,1.7,0.3v1c-0.5-0.2-1.1-0.3-1.7-0.3
				c-1,0-1.3,0.4-1.3,1c0,0.6,0.4,0.8,1.2,0.9C10.3,128.7,11.1,129,11.1,130.3z"/>
		</g>
		<g>
			<path class="st1" d="M13.8,126.7v5.5h-1v-5.5h-1.6v-0.9h4.3v0.9H13.8z"/>
		</g>
		<g>
			<path class="st1" d="M17.1,132.2h-1v-6.4h2.1c1.6,0,2.2,0.7,2.2,1.9c0.1,0.7-0.3,1.4-1,1.7l1.3,2.8h-1.2l-1.1-2.6h-1.3V132.2z
				 M17.1,128.7h1.3c0.9,0,1-0.5,1-1s-0.1-1-1-1h-1.3V128.7z"/>
		</g>
		<g>
			<path class="st1" d="M24.9,129.3h-2.6v2h2.9v0.9h-3.9v-6.4h3.9v0.9h-2.9v1.8h2.6V129.3z"/>
		</g>
		<g>
			<path class="st1" d="M29.7,132.2l-2.7-4.5v4.5h-1v-6.4h0.9l2.8,4.5v-4.5h1v6.4H29.7z"/>
		</g>
		<g>
			<path class="st1" d="M31.5,129c0-2,0.7-3.3,2.6-3.3c0.6,0,1.3,0.1,1.8,0.3v1c-0.5-0.2-1.1-0.4-1.7-0.4c-1.3,0-1.8,0.9-1.8,2.4
				s0.5,2.4,1.8,2.4c0.3,0,0.6,0,0.9-0.1v-1.7H34v-0.9h2.1v3.2c-0.6,0.3-1.3,0.4-2,0.4C32.2,132.3,31.5,131,31.5,129z"/>
		</g>
		<g>
			<path class="st1" d="M39.1,126.7v5.5h-1v-5.5h-1.6v-0.9h4.3v0.9H39.1z"/>
		</g>
		<g>
			<path class="st1" d="M45,132.2v-2.9h-2.6v2.9h-1v-6.4h1v2.6H45v-2.6h1v6.4H45z"/>
		</g>
		<g>
			<path class="st1" d="M50.5,129.3h-2.7v2h2.9v0.9h-3.9v-6.4h3.9v0.9h-2.9v1.8h2.7V129.3z"/>
		</g>
		<g>
			<path class="st1" d="M55.3,132.2l-2.8-4.5v4.5h-0.9v-6.4h0.9l2.8,4.5v-4.5h0.9v6.4H55.3z"/>
		</g>
		<g>
			<path class="st1" d="M60.5,126.7v5.5h-1v-5.5h-1.7v-0.9h4.3v0.9H60.5z"/>
		</g>
		<g>
			<path class="st1" d="M66.3,132.2v-2.9h-2.6v2.9h-1v-6.4h1v2.6h2.6v-2.6h1v6.4H66.3z"/>
		</g>
		<g>
			<path class="st1" d="M71.8,129.3h-2.7v2h2.9v0.9h-3.9v-6.4h3.9v0.9h-2.9v1.8h2.7V129.3z"/>
		</g>
		<g>
			<path class="st1" d="M11.1,139.3c0,1.2-0.7,2-2.4,2c-0.6,0-1.3-0.1-1.9-0.4V140c0.6,0.3,1.2,0.4,1.8,0.4c1.1,0,1.5-0.5,1.5-1.1
				s-0.3-0.9-1.2-1c-1.6-0.2-2.2-0.6-2.2-1.8c0-0.9,0.5-1.8,2.3-1.8c0.6,0,1.2,0.1,1.7,0.3v1c-0.5-0.2-1.1-0.3-1.7-0.3
				c-1,0-1.3,0.4-1.3,1s0.4,0.8,1.2,0.9C10.3,137.7,11.1,138,11.1,139.3z"/>
		</g>
		<g>
			<path class="st1" d="M14.3,134.7c0.5,0,1,0.1,1.5,0.3v0.9c-0.5-0.2-0.9-0.3-1.4-0.3c-1.2,0-1.7,0.8-1.7,2.4s0.5,2.4,1.7,2.4
				c0.5,0,1-0.1,1.4-0.3v0.9c-0.5,0.2-1,0.3-1.5,0.3c-1.9,0-2.6-1.2-2.6-3.3S12.4,134.7,14.3,134.7z"/>
		</g>
		<g>
			<path class="st1" d="M16.8,141.2v-6.4h1v6.4H16.8z"/>
		</g>
		<g>
			<path class="st1" d="M22.4,138.3h-2.6v2h2.9v0.9h-3.9v-6.4h3.9v0.9h-2.9v1.8h2.6V138.3z"/>
		</g>
		<g>
			<path class="st1" d="M27.2,141.2l-2.8-4.5v4.5h-1v-6.4h0.9l2.8,4.5v-4.5h1v6.4H27.2z"/>
		</g>
		<g>
			<path class="st1" d="M31.6,134.7c0.5,0,1,0.1,1.5,0.3v0.9c-0.5-0.2-0.9-0.3-1.4-0.3c-1.2,0-1.7,0.8-1.7,2.4s0.5,2.4,1.7,2.4
				c0.5,0,1-0.1,1.4-0.3v0.9c-0.5,0.2-1,0.3-1.5,0.3c-1.9,0-2.6-1.2-2.6-3.3S29.7,134.7,31.6,134.7z"/>
		</g>
		<g>
			<path class="st1" d="M37.5,138.3h-2.6v2h2.9v0.9h-3.9v-6.4h3.9v0.9h-2.9v1.8h2.7L37.5,138.3z"/>
		</g>
		<g>
			<path class="st1" d="M39.5,140.3l-0.7,2h-0.7l0.2-2H39.5z"/>
		</g>
		<g>
			<path class="st1" d="M43.7,135.7v5.5h-1v-5.5h-1.6v-0.9h4.3v0.9H43.7z"/>
		</g>
		<g>
			<path class="st1" d="M49.7,138.3H47v2h2.9v0.9h-3.9v-6.4h3.9v0.9H47v1.8h2.7L49.7,138.3z"/>
		</g>
		<g>
			<path class="st1" d="M53.2,134.7c0.5,0,1,0.1,1.5,0.3v0.9c-0.4-0.2-0.9-0.3-1.4-0.3c-1.2,0-1.7,0.8-1.7,2.4s0.5,2.4,1.7,2.4
				c0.5,0,1-0.1,1.4-0.3v0.9c-0.5,0.2-1,0.3-1.5,0.3c-1.9,0-2.6-1.2-2.6-3.3S51.3,134.7,53.2,134.7z"/>
		</g>
		<g>
			<path class="st1" d="M59.1,141.2v-2.9h-2.6v2.9h-1v-6.4h1v2.6h2.6v-2.6h1v6.4H59.1z"/>
		</g>
		<g>
			<path class="st1" d="M64.7,141.2l-2.8-4.5v4.5H61v-6.4h0.9l2.8,4.5v-4.5h1v6.4H64.7z"/>
		</g>
		<g>
			<path class="st1" d="M66.3,138c0-1.8,0.4-3.3,2.4-3.3s2.5,1.5,2.5,3.3s-0.4,3.3-2.5,3.3S66.3,139.8,66.3,138z M67.3,138
				c0,1.5,0.3,2.4,1.5,2.4s1.5-0.9,1.5-2.4s-0.3-2.4-1.5-2.4S67.3,136.5,67.3,138L67.3,138z"/>
		</g>
		<g>
			<path class="st1" d="M72.9,140.3h2.8v0.9H72v-6.4h1L72.9,140.3z"/>
		</g>
		<g>
			<path class="st1" d="M75.7,138c0-1.8,0.4-3.3,2.5-3.3s2.4,1.5,2.4,3.3s-0.4,3.3-2.4,3.3S75.7,139.8,75.7,138z M76.7,138
				c0,1.5,0.3,2.4,1.5,2.4s1.5-0.9,1.5-2.4s-0.3-2.4-1.5-2.4S76.7,136.5,76.7,138L76.7,138z"/>
		</g>
		<g>
			<path class="st1" d="M81.2,138c0-2,0.7-3.3,2.6-3.3c0.6,0,1.3,0.1,1.8,0.3v1c-0.5-0.2-1.1-0.4-1.7-0.4c-1.3,0-1.8,0.9-1.8,2.4
				s0.5,2.4,1.8,2.4c0.3,0,0.6,0,0.9-0.1v-1.7h-1.1v-0.9h2.1v3.2c-0.6,0.3-1.3,0.4-2,0.4C81.9,141.3,81.2,140,81.2,138z"/>
		</g>
		<g>
			<path class="st1" d="M89.3,138.6v2.6h-1v-2.6l-2.2-3.8h1.1l1.6,3l1.6-3h1.1L89.3,138.6z"/>
		</g>
		<g>
			<path class="st1" d="M10.1,148.6h-2l-0.4,1.6h-1l2-6.4h1l2,6.4h-1L10.1,148.6z M9.1,145l-0.8,2.8h1.6L9.1,145z"/>
		</g>
		<g>
			<path class="st1" d="M15.8,150.2l-2.8-4.5v4.5h-0.9v-6.4H13l2.8,4.5v-4.5h0.9v6.4H15.8z"/>
		</g>
		<g>
			<path class="st1" d="M17.6,150.2v-6.4h1.9c2.1,0,2.7,1.4,2.7,3.2s-0.6,3.2-2.7,3.2H17.6z M18.6,149.3h1c1.3,0,1.7-0.9,1.7-2.3
				s-0.4-2.3-1.7-2.3h-1V149.3z"/>
		</g>
		<g>
			<path class="st1" d="M24.7,150.2v-6.4h1v6.4H24.7z"/>
		</g>
		<g>
			<path class="st1" d="M30.4,150.2l-2.8-4.5v4.5h-0.9v-6.4h0.9l2.8,4.5v-4.5h0.9v6.4H30.4z"/>
		</g>
		<g>
			<path class="st1" d="M35.9,150.2l-2.8-4.5v4.5h-0.9v-6.4h0.9l2.8,4.5v-4.5h0.9v6.4H35.9z"/>
		</g>
		<g>
			<path class="st1" d="M37.5,147c0-1.8,0.4-3.3,2.5-3.3s2.5,1.5,2.5,3.3s-0.4,3.3-2.4,3.3S37.5,148.8,37.5,147z M38.5,147
				c0,1.5,0.3,2.4,1.5,2.4s1.5-0.9,1.5-2.4s-0.3-2.4-1.5-2.4S38.5,145.5,38.5,147L38.5,147z"/>
		</g>
		<g>
			<path class="st1" d="M47.7,143.8l-2,6.4h-1l-2-6.4h1l1.5,5.2l1.5-5.2L47.7,143.8z"/>
		</g>
		<g>
			<path class="st1" d="M50.7,148.6h-2l-0.5,1.6h-1l2-6.4h1l2,6.4h-1L50.7,148.6z M49.7,145l-0.8,2.8h1.6L49.7,145z"/>
		</g>
		<g>
			<path class="st1" d="M54.2,144.7v5.5h-1v-5.5h-1.7v-0.9h4.3v0.9H54.2z"/>
		</g>
		<g>
			<path class="st1" d="M56.7,150.2v-6.4h1v6.4H56.7z"/>
		</g>
		<g>
			<path class="st1" d="M58.5,147c0-1.8,0.4-3.3,2.5-3.3s2.5,1.5,2.5,3.3s-0.4,3.3-2.4,3.3S58.5,148.8,58.5,147z M59.5,147
				c0,1.5,0.3,2.4,1.5,2.4s1.5-0.9,1.5-2.4s-0.3-2.4-1.5-2.4S59.5,145.5,59.5,147L59.5,147z"/>
		</g>
		<g>
			<path class="st1" d="M67.8,150.2l-2.8-4.5v4.5h-0.9v-6.4H65l2.8,4.5v-4.5h0.9v6.4H67.8z"/>
		</g>
		<g>
			<path class="st1" d="M9.4,152.7c0.5,0,1,0.1,1.5,0.3v0.9c-0.5-0.2-0.9-0.3-1.4-0.3c-1.2,0-1.7,0.8-1.7,2.4s0.5,2.4,1.7,2.4
				c0.5,0,1-0.1,1.4-0.3v0.9c-0.5,0.2-1,0.3-1.5,0.3c-1.9,0-2.6-1.2-2.6-3.3S7.5,152.7,9.4,152.7z"/>
		</g>
		<g>
			<path class="st1" d="M14.8,157.6h-2l-0.4,1.6h-1l2-6.4h1l2,6.4h-1L14.8,157.6z M13.8,154l-0.8,2.8h1.6L13.8,154z"/>
		</g>
		<g>
			<path class="st1" d="M17.8,159.2h-1v-6.4h2c1.6,0,2.2,0.9,2.2,2s-0.6,2-2.2,2h-1.1L17.8,159.2z M17.8,155.9h1.1
				c0.6,0.1,1.2-0.4,1.2-1s-0.4-1.2-1-1.2c-0.1,0-0.1,0-0.2,0h-1.1V155.9z"/>
		</g>
		<g>
			<path class="st1" d="M24.2,157.6h-2l-0.5,1.6h-1l2-6.4h1l2,6.4h-1L24.2,157.6z M23.2,154l-0.8,2.8H24L23.2,154z"/>
		</g>
		<g>
			<path class="st1" d="M28.6,152.7c0.5,0,1,0.1,1.5,0.3v0.9c-0.5-0.2-0.9-0.3-1.4-0.3c-1.2,0-1.7,0.8-1.7,2.4s0.5,2.4,1.7,2.4
				c0.5,0,1-0.1,1.4-0.3v0.9c-0.5,0.2-1,0.3-1.5,0.3c-1.9,0-2.6-1.2-2.6-3.3S26.7,152.7,28.6,152.7z"/>
		</g>
		<g>
			<path class="st1" d="M30.9,159.2v-6.4h1v6.4H30.9z"/>
		</g>
		<g>
			<path class="st1" d="M35.2,153.7v5.5h-1v-5.5h-1.6v-0.9h4.3v0.9H35.2z"/>
		</g>
		<g>
			<path class="st1" d="M40.2,156.6v2.6h-1v-2.6l-2.2-3.8h1.1l1.6,3l1.6-3h1.1L40.2,156.6z"/>
		</g>
		<g>
			<path class="st1" d="M47.7,156.4h-2.6v2.8h-1v-6.4H48v0.9h-2.9v1.8h2.6V156.4z"/>
		</g>
		<g>
			<path class="st1" d="M48.5,156c0-1.8,0.4-3.3,2.5-3.3s2.5,1.5,2.5,3.3s-0.4,3.3-2.5,3.3S48.5,157.8,48.5,156z M49.5,156
				c0,1.5,0.3,2.4,1.5,2.4s1.5-0.9,1.5-2.4s-0.3-2.4-1.5-2.4S49.4,154.5,49.5,156L49.5,156z"/>
		</g>
		<g>
			<path class="st1" d="M55.1,159.2h-1v-6.4h2.1c1.7,0,2.2,0.7,2.2,1.9c0.1,0.7-0.3,1.4-1,1.7l1.3,2.8h-1.1l-1.2-2.6h-1.3V159.2z
				 M55.1,155.7h1.3c0.9,0,1-0.5,1-1s-0.1-1-1-1h-1.3V155.7z"/>
		</g>
		<g>
			<path class="st1" d="M61.6,158.3h2.8v0.9h-3.7v-6.4h1L61.6,158.3z"/>
		</g>
		<g>
			<path class="st1" d="M68.5,156.3h-2.7v2h2.9v0.9h-3.9v-6.4h3.9v0.9h-2.9v1.8h2.7V156.3z"/>
		</g>
		<g>
			<path class="st1" d="M72.7,157.6h-2l-0.4,1.6h-1l2-6.4h1l2,6.4h-1L72.7,157.6z M71.7,154l-0.8,2.8h1.6L71.7,154z"/>
		</g>
		<g>
			<path class="st1" d="M78.7,157.3c0,1.2-0.7,2-2.4,2c-0.6,0-1.3-0.1-1.9-0.4V158c0.6,0.3,1.2,0.4,1.8,0.4c1.2,0,1.5-0.5,1.5-1.1
				s-0.3-0.9-1.2-1c-1.6-0.2-2.2-0.6-2.2-1.8c0-0.9,0.5-1.8,2.3-1.8c0.6,0,1.2,0.1,1.7,0.3v1c-0.5-0.2-1.1-0.3-1.7-0.3
				c-1,0-1.3,0.4-1.3,1s0.4,0.8,1.2,0.9C78,155.7,78.7,156,78.7,157.3z"/>
		</g>
		<g>
			<path class="st1" d="M81.5,153.7v5.5h-0.9v-5.5h-1.7v-0.9h4.3v0.9H81.5z"/>
		</g>
		<g>
			<path class="st1" d="M6.9,168.2v-6.4h1.9c2.1,0,2.7,1.4,2.7,3.2s-0.6,3.2-2.7,3.2H6.9z M7.9,167.3h1c1.3,0,1.7-0.9,1.7-2.3
				s-0.4-2.3-1.7-2.3h-1L7.9,167.3z"/>
		</g>
		<g>
			<path class="st1" d="M15.8,165.3h-2.7v2h2.9v0.9h-3.9v-6.4h3.9v0.9h-2.9v1.8h2.7L15.8,165.3z"/>
		</g>
		<g>
			<path class="st1" d="M21.5,161.8l-2,6.4h-1l-2-6.4h1L19,167l1.5-5.2L21.5,161.8z"/>
		</g>
		<g>
			<path class="st1" d="M25.6,165.3H23v2h2.9v0.9H22v-6.4h3.9v0.9H23v1.8h2.6L25.6,165.3z"/>
		</g>
		<g>
			<path class="st1" d="M27.7,167.3h2.8v0.9h-3.7v-6.4h1L27.7,167.3z"/>
		</g>
		<g>
			<path class="st1" d="M30.5,165c0-1.8,0.4-3.3,2.5-3.3s2.5,1.5,2.5,3.3s-0.4,3.3-2.5,3.3S30.5,166.8,30.5,165z M31.5,165
				c0,1.5,0.3,2.4,1.5,2.4c1.2,0,1.5-0.9,1.5-2.4s-0.3-2.4-1.5-2.4S31.5,163.5,31.5,165L31.5,165z"/>
		</g>
		<g>
			<path class="st1" d="M37.1,168.2h-1v-6.4h2c1.6,0,2.2,0.9,2.2,2s-0.6,2-2.2,2H37L37.1,168.2z M37.1,164.9h1.1
				c0.6,0.1,1.2-0.4,1.2-1s-0.4-1.2-1-1.2c-0.1,0-0.1,0-0.2,0h-1.1V164.9z"/>
		</g>
		<g>
			<path class="st1" d="M44.6,165.3h-2.7v2h2.9v0.9H41v-6.4h3.9v0.9h-3v1.8h2.7V165.3z"/>
		</g>
		<g>
			<path class="st1" d="M45.7,168.2v-6.4h1.9c2.1,0,2.7,1.4,2.7,3.2s-0.6,3.2-2.7,3.2H45.7z M46.7,167.3h1c1.3,0,1.7-0.9,1.7-2.3
				s-0.4-2.3-1.7-2.3h-1V167.3z"/>
		</g>
		<g>
			<path class="st1" d="M55,161.7c0.5,0,1,0.1,1.5,0.3v0.9c-0.4-0.2-0.9-0.3-1.4-0.3c-1.2,0-1.7,0.8-1.7,2.4s0.5,2.4,1.7,2.4
				c0.5,0,1-0.1,1.4-0.3v0.9c-0.5,0.2-1,0.3-1.5,0.3c-1.9,0-2.6-1.2-2.6-3.3S53.1,161.7,55,161.7z"/>
		</g>
		<g>
			<path class="st1" d="M57.1,165c0-1.8,0.4-3.3,2.5-3.3s2.5,1.5,2.5,3.3s-0.4,3.3-2.5,3.3S57.1,166.8,57.1,165z M58.1,165
				c0,1.5,0.3,2.4,1.5,2.4s1.4-0.9,1.4-2.4s-0.3-2.4-1.5-2.4S58.1,163.5,58.1,165L58.1,165z"/>
		</g>
		<g>
			<path class="st1" d="M62.7,166.2v-4.4h1v4.3c0,0.8,0.6,1.4,1.4,1.4s1.4-0.6,1.4-1.4v-4.3h1v4.4c-0.1,1.3-1.3,2.2-2.6,2.1
				C63.7,168.1,62.9,167.3,62.7,166.2L62.7,166.2z"/>
		</g>
		<g>
			<path class="st1" d="M71.8,168.2l-2.8-4.5v4.5h-0.9v-6.4H69l2.8,4.5v-4.5h0.9v6.4H71.8z"/>
		</g>
		<g>
			<path class="st1" d="M75.8,162.7v5.5h-1v-5.5h-1.6v-0.9h4.3v0.9H75.8z"/>
		</g>
		<g>
			<path class="st1" d="M79,168.2h-1v-6.4h2.1c1.7,0,2.2,0.7,2.2,1.9c0.1,0.7-0.3,1.4-1,1.7l1.3,2.8h-1.1l-1.2-2.6H79V168.2z
				 M79,164.7h1.3c0.9,0,1-0.5,1-1s-0.1-1-1-1H79V164.7z"/>
		</g>
		<g>
			<path class="st1" d="M83.2,168.2v-6.4h1v6.4H83.2z"/>
		</g>
		<g>
			<path class="st1" d="M88.8,165.3h-2.7v2h2.9v0.9h-3.9v-6.4h3.9v0.9h-2.9v1.8h2.7V165.3z"/>
		</g>
		<g>
			<path class="st1" d="M94,166.3c0,1.2-0.7,2-2.4,2c-0.6,0-1.3-0.1-1.9-0.4V167c0.6,0.3,1.2,0.4,1.8,0.4c1.2,0,1.5-0.5,1.5-1.1
				s-0.3-0.9-1.2-1c-1.6-0.2-2.2-0.6-2.2-1.8c0-0.9,0.5-1.8,2.3-1.8c0.6,0,1.2,0.1,1.7,0.3v1c-0.5-0.2-1.1-0.3-1.7-0.3
				c-1,0-1.3,0.4-1.3,1s0.4,0.8,1.2,0.9C93.2,164.7,94,165,94,166.3z"/>
		</g>
	</g>
	<g>
		<rect x="3.3" y="24" class="st1" width="94.8" height="94.8"/>
	</g>
	<g>
		<path class="st1" d="M98.2,20.7H3.3V3.3h94.8V20.7z M4.3,19.7h92.8V4.3H4.3L4.3,19.7z"/>
	</g>
	<g class="st2">
		<path class="st1" d="M6.7,6.9h4.5v1.4H9.9v8.8H8.1V8.3H6.7V6.9z"/>
	</g>
	<g class="st2">
		<path class="st1" d="M11.2,17.1l1.9-10.2h1.9L17,17.1h-1.8l-0.3-1.9h-1.8l-0.3,1.9H11.2z M13.3,13.9h1.4L14,9.8h0L13.3,13.9z"/>
	</g>
	<g class="st2">
		<path class="st1" d="M19.6,12.4v4.7h-1.7V6.9h2.5c1.7,0,2.4,0.9,2.4,2.3v1.3c0,1.1-0.4,1.7-1.4,2l1.6,4.6h-1.8L19.6,12.4z
			 M19.6,8.3v3.2h0.6c0.6,0,0.8-0.3,0.8-0.8V9.2c0-0.6-0.3-0.8-0.8-0.8H19.6z"/>
	</g>
	<g class="st2">
		<path class="st1" d="M26.4,11.7h2.4v5.4h-1.2V16c-0.2,0.8-0.7,1.2-1.6,1.2c-1.5,0-2.1-1.2-2.1-2.7V9.6c0-1.6,0.8-2.7,2.6-2.7
			c1.9,0,2.4,1.1,2.4,2.6v0.9h-1.6v-1c0-0.6-0.2-1-0.9-1c-0.6,0-0.9,0.4-0.9,1v5.5c0,0.6,0.3,1,0.8,1c0.6,0,0.8-0.3,0.8-1V13h-0.8
			V11.7z"/>
	</g>
	<g class="st2">
		<path class="st1" d="M30.2,6.9h4.1v1.4h-2.4v2.9h1.7v1.4h-1.7v3.1h2.4v1.4h-4.1V6.9z"/>
	</g>
	<g class="st2">
		<path class="st1" d="M35.1,6.9h4.5v1.4h-1.4v8.8h-1.7V8.3h-1.4V6.9z"/>
	</g>
	<g>
		<path class="st1" d="M98.2,171.9h-95v-49.7h95V171.9z M4.2,170.9h93v-47.7h-93V170.9z"/>
	</g>
	<g class="st2">
		<path class="st1" d="M78.2,6.9v10.2h-1.7V9.3h0l-1.2,1.2h0V8.8l1.6-1.8H78.2z"/>
		<path class="st1" d="M79.4,6.9h4.3v1.6l-2.2,8.6h-1.7l2.3-8.8h-2.6V6.9z"/>
	</g>
	<g class="st2">
	</g>
	<g class="st2">
		<path class="st1" d="M86.5,10.8c0.7,0,1.2,0.6,1.2,1.2c0,0.7-0.6,1.2-1.2,1.2c-0.7,0-1.2-0.6-1.2-1.2
			C85.2,11.4,85.8,10.8,86.5,10.8z"/>
	</g>
	<g class="st2">
		<path class="st1" d="M89.2,14.6v-1.1c0-1,0.3-1.7,1.1-2c-0.7-0.3-1-0.9-1-1.8V9.3c0-1.6,0.8-2.4,2.4-2.4c1.6,0,2.4,0.9,2.4,2.4
			v0.4c0,0.8-0.3,1.4-1,1.8c0.8,0.4,1.1,1.1,1.1,2v1.1c0,1.5-0.7,2.6-2.5,2.6C90,17.2,89.2,16.2,89.2,14.6z M92.6,14.8v-1.6
			c0-0.6-0.2-1-0.8-1c-0.6,0-0.8,0.4-0.8,1v1.6c0,0.6,0.2,1,0.8,1C92.4,15.8,92.6,15.4,92.6,14.8z M92.6,9.9V9.2c0-0.6-0.2-1-0.8-1
			c-0.6,0-0.8,0.4-0.8,1v0.7c0,0.6,0.2,1,0.8,1C92.4,10.8,92.6,10.5,92.6,9.9z"/>
	</g>
	<g>
		<g>
			<g>
				<path class="st0" d="M14.7,80.4h32.4v-7.3H14.7L14.7,80.4z M30,75.7h14.8v2.2H30V75.7z M26.5,75.5c0.7,0,1.2,0.6,1.2,1.2
					c0,0.7-0.6,1.2-1.2,1.2c-0.7,0-1.2-0.6-1.2-1.2C25.3,76.1,25.8,75.6,26.5,75.5L26.5,75.5z M22.4,75.5c0.7,0,1.2,0.6,1.2,1.2
					c0,0.7-0.6,1.2-1.2,1.2c-0.7,0-1.2-0.6-1.2-1.2C21.1,76.1,21.7,75.6,22.4,75.5L22.4,75.5z M18.2,75.5c0.7,0,1.2,0.6,1.2,1.2
					c0,0.7-0.6,1.2-1.2,1.2c-0.7,0-1.2-0.6-1.2-1.2C17,76.1,17.5,75.6,18.2,75.5L18.2,75.5z"/>
			</g>
			<g>
				<path class="st0" d="M14.7,63.7h32.4v-7.3H14.7L14.7,63.7z M30,59.1h14.9v2.2H30V59.1z M26.5,59c0.7,0,1.2,0.6,1.2,1.2
					c0,0.7-0.6,1.2-1.2,1.2c-0.7,0-1.2-0.6-1.2-1.2C25.3,59.5,25.9,59,26.5,59C26.5,59,26.5,59,26.5,59z M22.4,59
					c0.7,0,1.2,0.5,1.2,1.2c0,0.7-0.5,1.2-1.2,1.2c-0.7,0-1.2-0.5-1.2-1.2C21.1,59.5,21.7,59,22.4,59z M18.2,59
					c0.7,0,1.2,0.5,1.2,1.2s-0.5,1.2-1.2,1.2S17,60.9,17,60.2c0,0,0,0,0-0.1C17,59.5,17.5,59,18.2,59z"/>
			</g>
			<g>
				<path class="st0" d="M14.7,94.9c0,0.3,0.2,0.5,0.5,0.5c0,0,0,0,0,0h31.3c0.3,0,0.5-0.2,0.5-0.6l0,0V81.5H14.7L14.7,94.9z
					 M44.3,83.6h0.5v9.6h-0.5V83.6z M43.1,83.6h0.5v9.6h-0.5V83.6z M41.9,83.6h0.5v9.6h-0.5V83.6z M40.7,83.6h0.5v9.6h-0.5V83.6z
					 M39.5,83.6h0.5v9.6h-0.5V83.6z M38.3,83.6h0.5v9.6h-0.5V83.6z M37.1,83.6h0.5v9.6h-0.5V83.6z M35.9,83.6h0.5v9.6h-0.5V83.6z
					 M34.7,83.6h0.5v9.6h-0.5V83.6z M33.5,83.6h0.5v9.6h-0.5V83.6z M32.3,83.6h0.6v9.6h-0.6V83.6z M31.2,83.6h0.5v9.6h-0.5V83.6z
					 M30,83.6h0.5v9.6H30L30,83.6z"/>
			</g>
			<g>
				<path class="st0" d="M46.6,47.5H15.3c-0.3,0-0.6,0.2-0.6,0.5v7.3h32.4v-7.3C47.1,47.8,46.9,47.5,46.6,47.5z M18.2,53.1
					c-0.7,0-1.2-0.5-1.2-1.2c0-0.7,0.5-1.2,1.2-1.2c0.7,0,1.2,0.5,1.2,1.2c0,0,0,0,0,0C19.4,52.6,18.9,53.1,18.2,53.1L18.2,53.1z
					 M22.4,53.1c-0.7,0-1.2-0.5-1.2-1.2c0-0.7,0.5-1.2,1.2-1.2c0.7,0,1.2,0.5,1.2,1.2c0,0,0,0,0,0C23.6,52.6,23.1,53.1,22.4,53.1
					L22.4,53.1z M26.6,53.1c-0.7,0-1.2-0.5-1.2-1.2c0-0.7,0.5-1.2,1.2-1.2c0.7,0,1.2,0.5,1.2,1.2c0,0,0,0,0,0
					C27.8,52.6,27.2,53.1,26.6,53.1L26.6,53.1z M44.9,53H30v-2.2h14.9V53z"/>
			</g>
			<g>
				<path class="st0" d="M14.7,72.1h32.4v-7.3H14.7L14.7,72.1z M30,67.4h14.9v2.2H30V67.4z M26.5,67.3c0.7,0,1.2,0.5,1.2,1.2
					s-0.5,1.2-1.2,1.2s-1.2-0.5-1.2-1.2S25.9,67.3,26.5,67.3z M22.4,67.3c0.7,0,1.2,0.5,1.2,1.2s-0.5,1.2-1.2,1.2s-1.2-0.5-1.2-1.2
					S21.7,67.3,22.4,67.3z M18.2,67.3c0.7,0,1.2,0.5,1.2,1.2s-0.5,1.2-1.2,1.2c-0.7,0-1.2-0.5-1.2-1.2c0,0,0,0,0,0
					C17,67.8,17.5,67.3,18.2,67.3L18.2,67.3z"/>
			</g>
		</g>
		<g>
			<g>
				<path class="st0" d="M86.4,48.2c0-0.4-0.3-0.8-0.8-0.8h-27c-0.4,0-0.8,0.3-0.8,0.8v17.1h28.5V48.2z M85.2,64.3H59.2V48.7h26.1
					V64.3z"/>
			</g>
			<g>
				<path class="st0" d="M86.4,66H57.9l-2.3,1.8v0.8c0,0.3,0.5,0.3,0.5,0.3h32.3c0.4,0,0.4-0.4,0.4-0.4v-0.8L86.4,66z M74.5,68.2
					h-4.8v-0.5h4.8V68.2z"/>
			</g>
		</g>
		<g>
			<path class="st0" d="M86.1,74.4H75.2c-0.4,0-0.7,0.3-0.8,0.8v19.6c0,0.4,0.3,0.8,0.8,0.8h10.9c0.4,0,0.7-0.3,0.8-0.7c0,0,0,0,0,0
				V75.2C86.8,74.8,86.5,74.4,86.1,74.4z M80.6,94.4c-0.6,0-1.1-0.5-1.1-1.1s0.5-1.1,1.1-1.1c0.6,0,1.1,0.5,1.1,1.1
				C81.8,93.9,81.3,94.4,80.6,94.4C80.7,94.4,80.6,94.4,80.6,94.4L80.6,94.4z M85.8,90.6H75.5V75.5h10.3V90.6z"/>
		</g>
		<g>
			<g>
				<path class="st0" d="M57.8,82.4c0.8,1.7,0.8,3.7-0.2,5.4l1.2,0.8c0.7-1.1,1-2.4,1-3.7c0-1.1-0.3-2.3-0.8-3.3L57.8,82.4z"/>
			</g>
			<g>
				<path class="st0" d="M61.2,80.1c1.7,3.1,1.6,6.9-0.2,9.9l1.2,0.8c2.1-3.5,2.1-7.9,0.1-11.5L61.2,80.1z"/>
			</g>
			<g>
				<path class="st0" d="M65.7,77.1l-1.2,0.8c2.6,4.5,2.6,10-0.1,14.4l1.2,0.8C68.6,88.2,68.7,82,65.7,77.1L65.7,77.1z"/>
			</g>
		</g>
	</g>
</g>
</svg>
