<?xml version="1.0" encoding="utf-8"?>
<!-- Generator: Adobe Illustrator 22.0.1, SVG Export Plug-In . SVG Version: 6.00 Build 0)  -->
<svg version="1.1" id="Layer_1" xmlns="http://www.w3.org/2000/svg" xmlns:xlink="http://www.w3.org/1999/xlink" x="0px" y="0px"
	 viewBox="0 0 101.5 166.2" style="enable-background:new 0 0 101.5 166.2;" xml:space="preserve">
<style type="text/css">
	.st0{fill:#FFFFFF;}
	.st1{fill:#19486A;}
	.st2{enable-background:new    ;}
</style>
<title>TARGET 1.3</title>
<g id="WHITE_BG">
	<g>
		<rect y="-0.1" class="st0" width="101.5" height="166.2"/>
	</g>
</g>
<g id="TARGETS">
	<g>
		<g>
			<path class="st1" d="M10.3,131.3H9.4l-1.6-3.9v4.8h-1v-6.4h1.3l1.7,4.3l1.7-4.3h1.2v6.4h-0.9v-4.8L10.3,131.3z"/>
		</g>
		<g>
			<path class="st1" d="M13.5,129c0-1.8,0.4-3.3,2.4-3.3s2.5,1.5,2.5,3.3s-0.4,3.3-2.4,3.3S13.5,130.8,13.5,129z M14.5,129
				c0,1.5,0.3,2.4,1.5,2.4s1.5-0.9,1.5-2.4s-0.3-2.4-1.5-2.4S14.5,127.5,14.5,129L14.5,129z"/>
		</g>
		<g>
			<path class="st1" d="M19.2,125.8h2.1c1.6,0,2,0.8,2,1.7c0,0.5-0.3,1-0.8,1.3c0.6,0.2,1.1,0.8,1,1.5c0,1-0.5,1.9-2.2,1.9h-2.2
				V125.8z M21.4,126.7h-1.2v1.8h1.2c0.8,0,0.9-0.5,0.9-0.9S22.2,126.7,21.4,126.7z M20.1,131.3h1.3c0.9,0,1.1-0.5,1.1-1
				s-0.3-1-1.1-1h-1.3L20.1,131.3z"/>
		</g>
		<g>
			<path class="st1" d="M24.4,132.2v-6.4h1v6.4H24.4z"/>
		</g>
		<g>
			<path class="st1" d="M27.4,131.3h2.8v0.9h-3.7v-6.4h1L27.4,131.3z"/>
		</g>
		<g>
			<path class="st1" d="M30.8,132.2v-6.4h1v6.4H30.8z"/>
		</g>
		<g>
			<path class="st1" d="M32.6,132.2v-0.6l3.3-4.8h-3v-0.9h4.3v0.6l-3.3,4.8h3.4v0.9L32.6,132.2z"/>
		</g>
		<g>
			<path class="st1" d="M41.6,129.3h-2.7v2h2.9v0.9H38v-6.4h3.9v0.9h-3v1.8h2.7V129.3z"/>
		</g>
		<g>
			<path class="st1" d="M47.6,129.4H45v2.8h-1v-6.4h3.8v0.9H45v1.8h2.6L47.6,129.4z"/>
		</g>
		<g>
			<path class="st1" d="M48.7,132.2v-6.4h1v6.4H48.7z"/>
		</g>
		<g>
			<path class="st1" d="M54.4,132.2l-2.8-4.5v4.5h-0.9v-6.4h0.9l2.8,4.5v-4.5h0.9v6.4L54.4,132.2z"/>
		</g>
		<g>
			<path class="st1" d="M59.3,130.6h-2l-0.5,1.6h-1l2-6.5h1l2,6.5h-1L59.3,130.6z M58.3,127l-0.8,2.8h1.6L58.3,127z"/>
		</g>
		<g>
			<path class="st1" d="M65.1,132.2l-2.8-4.5v4.5h-0.9v-6.4h0.9l2.8,4.5v-4.5h0.9v6.4H65.1z"/>
		</g>
		<g>
			<path class="st1" d="M69.3,125.7c0.5,0,1,0.1,1.5,0.3v0.9c-0.5-0.2-0.9-0.3-1.4-0.3c-1.2,0-1.7,0.8-1.7,2.4
				c0,1.6,0.5,2.4,1.7,2.4c0.5,0,1-0.1,1.4-0.3v0.9c-0.5,0.2-1,0.3-1.5,0.3c-1.9,0-2.6-1.2-2.6-3.3S67.4,125.7,69.3,125.7z"/>
		</g>
		<g>
			<path class="st1" d="M71.8,132.2v-6.4h1v6.4H71.8z"/>
		</g>
		<g>
			<path class="st1" d="M76.9,130.6h-2l-0.4,1.6h-1l2-6.5h1l2,6.5h-1L76.9,130.6z M75.9,127l-0.8,2.8h1.6L75.9,127z"/>
		</g>
		<g>
			<path class="st1" d="M79.9,131.3h2.8v0.9h-3.7v-6.4h1L79.9,131.3z"/>
		</g>
		<g>
			<path class="st1" d="M7.8,141.2h-1v-6.4H9c1.6,0,2.2,0.7,2.2,1.9c0.1,0.7-0.3,1.4-1,1.7l1.3,2.8h-1.2l-1.1-2.6H7.8V141.2z
				 M7.8,137.7h1.3c0.9,0,1-0.5,1-1s-0.1-1-1-1H7.8V137.7z"/>
		</g>
		<g>
			<path class="st1" d="M15.7,138.3H13v2h3v0.9h-3.9v-6.4H16v0.9h-3v1.8h2.7L15.7,138.3z"/>
		</g>
		<g>
			<path class="st1" d="M21,139.3c0,1.2-0.7,2-2.4,2c-0.6,0-1.3-0.1-1.9-0.4V140c0.6,0.3,1.2,0.4,1.8,0.4c1.1,0,1.5-0.5,1.5-1.1
				s-0.3-0.9-1.2-1c-1.5-0.2-2.2-0.6-2.2-1.8c0-0.9,0.5-1.8,2.3-1.8c0.6,0,1.2,0.1,1.7,0.3v1c-0.5-0.2-1.1-0.3-1.7-0.3
				c-1,0-1.3,0.4-1.3,1s0.4,0.8,1.2,0.9C20.2,137.7,21,138,21,139.3z"/>
		</g>
		<g>
			<path class="st1" d="M21.6,138c0-1.8,0.4-3.3,2.5-3.3s2.5,1.5,2.5,3.3s-0.4,3.3-2.5,3.3S21.6,139.8,21.6,138z M22.6,138
				c0,1.5,0.3,2.4,1.5,2.4s1.5-0.9,1.5-2.4s-0.3-2.4-1.5-2.4S22.5,136.5,22.6,138L22.6,138z"/>
		</g>
		<g>
			<path class="st1" d="M27.2,139.2v-4.4h1v4.3c-0.1,0.7,0.4,1.3,1,1.3c0.1,0,0.2,0,0.3,0c0.6,0.1,1.3-0.3,1.4-1c0-0.1,0-0.2,0-0.3
				v-4.3h1v4.4c0,1.1-0.8,2.1-2,2.1c-0.1,0-0.2,0-0.3,0c-1.1,0.1-2.2-0.7-2.3-1.8C27.2,139.4,27.2,139.3,27.2,139.2z"/>
		</g>
		<g>
			<path class="st1" d="M33.7,141.2h-1v-6.4h2.1c1.7,0,2.2,0.7,2.2,1.9c0.1,0.7-0.3,1.4-1,1.7l1.3,2.8h-1.1l-1.1-2.6h-1.3V141.2z
				 M33.7,137.7h1.2c0.9,0,1-0.5,1-1s-0.1-1-1-1h-1.2V137.7z"/>
		</g>
		<g>
			<path class="st1" d="M40.3,134.7c0.5,0,1,0.1,1.5,0.3v0.9c-0.5-0.2-0.9-0.3-1.4-0.3c-1.2,0-1.7,0.8-1.7,2.4s0.5,2.4,1.7,2.4
				c0.5,0,1-0.1,1.4-0.3v0.9c-0.5,0.2-1,0.3-1.5,0.3c-1.9,0-2.6-1.2-2.6-3.3S38.4,134.7,40.3,134.7z"/>
		</g>
		<g>
			<path class="st1" d="M46.3,138.3h-2.6v2h2.9v0.9h-3.9v-6.4h3.9v0.9h-2.9v1.8h2.7L46.3,138.3z"/>
		</g>
		<g>
			<path class="st1" d="M51.6,139.3c0,1.2-0.7,2-2.4,2c-0.6,0-1.3-0.1-1.9-0.4V140c0.6,0.3,1.2,0.4,1.8,0.4c1.2,0,1.5-0.5,1.5-1.1
				s-0.3-0.9-1.2-1c-1.5-0.2-2.2-0.6-2.2-1.8c0-0.9,0.5-1.8,2.3-1.8c0.6,0,1.2,0.1,1.7,0.3v1c-0.5-0.2-1.1-0.3-1.7-0.3
				c-1,0-1.3,0.4-1.3,1s0.4,0.8,1.2,0.9C50.8,137.7,51.6,138,51.6,139.3z"/>
		</g>
		<g>
			<path class="st1" d="M57.3,138.4h-2.6v2.8h-1v-6.4h3.8v0.9h-2.8v1.8h2.6L57.3,138.4z"/>
		</g>
		<g>
			<path class="st1" d="M58,138c0-1.8,0.4-3.3,2.5-3.3s2.5,1.5,2.5,3.3s-0.4,3.3-2.5,3.3S58,139.8,58,138z M59,138
				c0,1.5,0.3,2.4,1.5,2.4s1.5-0.9,1.5-2.4s-0.3-2.4-1.5-2.4S59,136.5,59,138z"/>
		</g>
		<g>
			<path class="st1" d="M64.6,141.2h-1v-6.4h2.1c1.6,0,2.2,0.7,2.2,1.9c0.1,0.7-0.3,1.4-1,1.7l1.3,2.8h-1.1l-1.2-2.6h-1.3V141.2z
				 M64.6,137.7h1.3c0.9,0,1-0.5,1-1s-0.1-1-1-1h-1.3V137.7z"/>
		</g>
		<g>
			<path class="st1" d="M6.9,150.2v-6.4h1.9c2.1,0,2.7,1.4,2.7,3.2s-0.6,3.2-2.7,3.2H6.9z M7.9,149.3h1c1.3,0,1.7-0.9,1.7-2.3
				s-0.4-2.3-1.7-2.3h-1L7.9,149.3z"/>
		</g>
		<g>
			<path class="st1" d="M15.8,147.3h-2.7v2h2.9v0.9h-3.9v-6.4h3.9v0.9h-2.9v1.8h2.7L15.8,147.3z"/>
		</g>
		<g>
			<path class="st1" d="M21.5,143.8l-2,6.4h-1l-2-6.4h1L19,149l1.5-5.2L21.5,143.8z"/>
		</g>
		<g>
			<path class="st1" d="M25.6,147.3H23v2h2.9v0.9H22v-6.4h3.9v0.9H23v1.8h2.6L25.6,147.3z"/>
		</g>
		<g>
			<path class="st1" d="M27.7,149.3h2.8v0.9h-3.7v-6.4h1L27.7,149.3z"/>
		</g>
		<g>
			<path class="st1" d="M30.5,147c0-1.8,0.4-3.3,2.5-3.3s2.5,1.5,2.5,3.3s-0.4,3.3-2.5,3.3S30.5,148.8,30.5,147z M31.5,147
				c0,1.5,0.3,2.4,1.5,2.4c1.2,0,1.5-0.9,1.5-2.4s-0.3-2.4-1.5-2.4S31.5,145.5,31.5,147L31.5,147z"/>
		</g>
		<g>
			<path class="st1" d="M37.1,150.2h-1v-6.4h2c1.6,0,2.2,0.9,2.2,2s-0.6,2-2.2,2H37L37.1,150.2z M37.1,146.9h1.1
				c0.6,0,1.1-0.5,1.1-1.1c0-0.6-0.5-1.1-1.1-1.1h-1.1V146.9z"/>
		</g>
		<g>
			<path class="st1" d="M41.1,150.2v-6.4h1v6.4H41.1z"/>
		</g>
		<g>
			<path class="st1" d="M46.8,150.2l-2.8-4.5v4.5h-1v-6.4H44l2.8,4.5v-4.5h0.9v6.4H46.8z"/>
		</g>
		<g>
			<path class="st1" d="M48.6,147c0-2,0.7-3.3,2.6-3.3c0.6,0,1.3,0.1,1.8,0.3v1c-0.5-0.2-1.1-0.4-1.7-0.4c-1.3,0-1.8,0.9-1.8,2.4
				s0.5,2.4,1.8,2.4c0.3,0,0.6,0,0.9-0.1v-1.8h-1.1v-0.9h2.1v3.2c-0.6,0.3-1.3,0.4-2,0.4C49.3,150.3,48.6,149,48.6,147z"/>
		</g>
		<g>
			<path class="st1" d="M9.4,152.7c0.5,0,1,0.1,1.5,0.3v0.9c-0.5-0.2-0.9-0.3-1.4-0.3c-1.2,0-1.7,0.8-1.7,2.4s0.5,2.4,1.7,2.4
				c0.5,0,1-0.1,1.4-0.3v0.9c-0.5,0.2-1,0.3-1.5,0.3c-1.9,0-2.6-1.2-2.6-3.3S7.5,152.7,9.4,152.7z"/>
		</g>
		<g>
			<path class="st1" d="M11.6,156c0-1.8,0.4-3.3,2.5-3.3s2.4,1.5,2.4,3.3s-0.4,3.3-2.4,3.3S11.6,157.8,11.6,156z M12.6,156
				c0,1.5,0.3,2.4,1.5,2.4s1.5-0.9,1.5-2.4s-0.3-2.4-1.5-2.4S12.6,154.5,12.6,156L12.6,156z"/>
		</g>
		<g>
			<path class="st1" d="M17.2,157.2v-4.4h1v4.3c-0.1,0.7,0.4,1.3,1,1.3c0.1,0,0.2,0,0.3,0c0.6,0.1,1.3-0.3,1.4-1c0-0.1,0-0.2,0-0.3
				v-4.3h1v4.4c0,1.1-0.9,2.1-2,2.1c-0.1,0-0.2,0-0.3,0c-1.1,0.2-2.2-0.6-2.3-1.7C17.2,157.4,17.2,157.3,17.2,157.2z"/>
		</g>
		<g>
			<path class="st1" d="M26.4,159.2l-2.8-4.5v4.5h-0.9v-6.4h0.9l2.8,4.5v-4.5h0.9v6.4H26.4z"/>
		</g>
		<g>
			<path class="st1" d="M30.4,153.7v5.5h-1v-5.5h-1.6v-0.9h4.3v0.9H30.4z"/>
		</g>
		<g>
			<path class="st1" d="M33.6,159.2h-1v-6.4h2.1c1.7,0,2.2,0.7,2.2,1.9c0.1,0.7-0.3,1.4-1,1.7l1.3,2.8H36l-1.2-2.6h-1.3V159.2z
				 M33.6,155.7h1.3c0.9,0,1-0.5,1-1s-0.1-1-1-1h-1.3V155.7z"/>
		</g>
		<g>
			<path class="st1" d="M37.8,159.2v-6.4h1v6.4H37.8z"/>
		</g>
		<g>
			<path class="st1" d="M43.3,156.3h-2.7v2h2.9v0.9h-3.9v-6.4h3.9v0.9h-2.9v1.8h2.7V156.3z"/>
		</g>
		<g>
			<path class="st1" d="M48.5,157.3c0,1.2-0.7,2-2.4,2c-0.6,0-1.3-0.1-1.9-0.4V158c0.6,0.3,1.2,0.4,1.8,0.4c1.2,0,1.5-0.5,1.5-1.1
				s-0.3-0.9-1.2-1c-1.6-0.2-2.2-0.6-2.2-1.8c0-0.9,0.5-1.8,2.3-1.8c0.6,0,1.2,0.1,1.7,0.3v1c-0.5-0.2-1.1-0.3-1.7-0.3
				c-1,0-1.3,0.4-1.3,1s0.4,0.8,1.2,0.9C47.7,155.7,48.5,156,48.5,157.3z"/>
		</g>
	</g>
	<g>
		<rect x="3.3" y="23.9" class="st1" width="94.8" height="94.9"/>
	</g>
	<g>
		<path class="st1" d="M98.2,20.7H3.3V3.3h94.8V20.7z M4.3,19.7h92.8V4.3H4.3L4.3,19.7z"/>
	</g>
	<g class="st2">
		<path class="st1" d="M6.7,6.9h4.5v1.4H9.9v8.8H8.1V8.3H6.7V6.9z"/>
	</g>
	<g class="st2">
		<path class="st1" d="M11.2,17.1l1.9-10.2h1.9L17,17.1h-1.8l-0.3-1.9h-1.8l-0.3,1.9H11.2z M13.3,13.9h1.4L14,9.8h0L13.3,13.9z"/>
	</g>
	<g class="st2">
		<path class="st1" d="M19.6,12.4v4.7h-1.7V6.9h2.5c1.7,0,2.4,0.9,2.4,2.3v1.3c0,1.1-0.4,1.7-1.4,2l1.6,4.6h-1.8L19.6,12.4z
			 M19.6,8.3v3.2h0.6c0.6,0,0.8-0.3,0.8-0.8V9.2c0-0.6-0.3-0.8-0.8-0.8H19.6z"/>
	</g>
	<g class="st2">
		<path class="st1" d="M26.4,11.7h2.4v5.4h-1.2V16c-0.2,0.8-0.7,1.2-1.6,1.2c-1.5,0-2.1-1.2-2.1-2.7V9.6c0-1.6,0.8-2.7,2.6-2.7
			c1.9,0,2.4,1.1,2.4,2.6v0.9h-1.6v-1c0-0.6-0.2-1-0.9-1c-0.6,0-0.9,0.4-0.9,1v5.5c0,0.6,0.3,1,0.8,1c0.6,0,0.8-0.3,0.8-1V13h-0.8
			V11.7z"/>
	</g>
	<g class="st2">
		<path class="st1" d="M30.2,6.9h4.1v1.4h-2.4v2.9h1.7v1.4h-1.7v3.1h2.4v1.4h-4.1V6.9z"/>
	</g>
	<g class="st2">
		<path class="st1" d="M35.1,6.9h4.5v1.4h-1.4v8.8h-1.7V8.3h-1.4V6.9z"/>
	</g>
	<g class="st2">
		<path class="st1" d="M78.5,6.9v10.2h-1.7V9.3h0l-1.2,1.2h0V8.8l1.6-1.8H78.5z"/>
		<path class="st1" d="M79.8,6.9H84v1.6l-2.2,8.6h-1.7l2.3-8.8h-2.6V6.9z"/>
	</g>
	<g class="st2">
	</g>
	<g class="st2">
		<path class="st1" d="M86.8,10.8c0.7,0,1.2,0.6,1.2,1.2c0,0.7-0.6,1.2-1.2,1.2c-0.7,0-1.2-0.6-1.2-1.2
			C85.6,11.4,86.1,10.8,86.8,10.8z"/>
	</g>
	<g class="st2">
		<path class="st1" d="M94.3,9.1V10c0,0.9-0.5,1.4-1.2,1.7c0.9,0.2,1.3,0.8,1.3,1.7v1.5c0,1.4-0.8,2.3-2.5,2.3c-1.7,0-2.4-1-2.4-2.5
			v-1.3h1.6v1.5c0,0.6,0.2,1,0.8,1c0.5,0,0.8-0.4,0.8-0.9v-1.7c0-0.5-0.2-0.8-0.8-0.8h-0.7v-1.3h0.6c0.6,0,0.9-0.3,0.9-0.8V9.2
			c0-0.6-0.2-0.9-0.7-0.9s-0.7,0.4-0.7,1v1h-1.6V9.4c0-1.5,0.6-2.6,2.4-2.6C93.6,6.8,94.3,7.7,94.3,9.1z"/>
	</g>
	<g>
		<path class="st1" d="M98.2,162.9h-95v-40.8h95V162.9z M4.2,161.9h93v-38.8h-93V161.9z"/>
	</g>
	<g>
		<g>
			<path class="st0" d="M67.6,48.9c0-0.5-0.4-0.8-0.9-0.8c-0.5,0-0.8,0-1.3,0s-0.9-0.1-1-0.6c-0.2-0.8-0.5-1.6-0.8-2.4
				c-0.2-0.4-0.1-0.9,0.3-1.2c0.4-0.3,0.7-0.6,1-0.9c0.3-0.3,0.4-0.7,0.2-1.1c-0.5-1-1.2-1.8-2-2.6c-0.3-0.4-0.8-0.4-1.2-0.1
				c0,0,0,0,0,0c-0.4,0.3-0.7,0.4-1,0.7s-0.8,0.4-1.2,0.1c-0.7-0.5-1.6-1.2-2.1-1.5c-0.4-0.2-0.6-0.7-0.5-1.2
				c0.1-0.5,0.2-0.9,0.3-1.3c0.1-0.4-0.1-0.8-0.5-1c-1-0.4-2-0.8-3-0.9c-0.4-0.1-0.9,0.2-1,0.6c-0.2,0.4-0.3,0.8-0.4,1.2
				s-0.4,0.8-0.9,0.8c-1.1,0-1.8,0-2.5,0c-0.5,0.1-1-0.2-1.1-0.7c-0.2-0.5-0.3-0.8-0.5-1.3c-0.1-0.4-0.6-0.6-1-0.5
				c-1.1,0.2-2.1,0.6-3.1,1c-0.4,0.2-0.6,0.7-0.4,1.1c0.1,0.5,0.2,0.8,0.3,1.2s0.2,0.9-0.3,1.2s-1.5,1-2.1,1.5
				c-0.3,0.3-0.9,0.4-1.3,0.1c-0.4-0.3-0.8-0.5-1.2-0.7c-0.4-0.2-0.8-0.2-1.1,0.1c-0.7,0.8-1.4,1.7-1.9,2.7
				c-0.2,0.4-0.1,0.9,0.3,1.1c0.4,0.3,0.6,0.5,1,0.8s0.7,0.6,0.5,1.1s-0.6,1.9-0.8,2.4c-0.1,0.5-0.5,0.8-1,0.8
				c-0.5,0-0.9,0.1-1.4,0.1c-0.4,0-0.8,0.3-0.8,0.8c-0.1,1.1-0.1,2.2,0.1,3.2c0,0.5,0.4,0.8,0.9,0.8c0,0,0,0,0,0c0.5,0,0.8,0,1.3,0
				s0.9,0.1,1,0.6c0.2,0.8,0.5,1.6,0.8,2.4c0.2,0.4,0.1,1-0.3,1.2c-0.4,0.3-0.7,0.6-1.1,0.9c-0.3,0.3-0.4,0.7-0.2,1.1
				c0.5,0.9,1.2,1.8,2,2.6c0.3,0.4,0.8,0.4,1.2,0.1c0,0,0,0,0,0c0.4-0.3,0.7-0.4,1-0.7s0.8-0.4,1.2-0.1s1.6,1.2,2.1,1.5
				c0.4,0.2,0.6,0.7,0.5,1.2c-0.1,0.5-0.2,0.9-0.3,1.3c-0.1,0.4,0.1,0.8,0.5,1c1,0.5,2,0.8,3.1,1c0.4,0.1,0.9-0.2,1-0.6c0,0,0,0,0,0
				c0.2-0.4,0.3-0.8,0.4-1.2s0.4-0.8,0.9-0.8c1,0,1.7,0,2.6,0c0.5,0,0.9,0.2,1.1,0.7c0.2,0.5,0.3,0.8,0.5,1.3c0.1,0.4,0.6,0.6,1,0.5
				c1.1-0.2,2.1-0.5,3.1-1c0.4-0.2,0.7-0.6,0.5-1.1c0,0,0,0,0-0.1c-0.1-0.5-0.2-0.8-0.3-1.2s-0.2-0.9,0.3-1.2s1.6-1.2,2-1.5
				c0.3-0.3,0.9-0.4,1.3-0.1c0.4,0.3,0.8,0.5,1.2,0.7c0.4,0.3,0.9,0.2,1.2-0.1c0.7-0.8,1.4-1.7,1.9-2.7c0.2-0.4,0.1-0.9-0.2-1.1
				c0,0,0,0,0,0c-0.4-0.3-0.6-0.5-1-0.8s-0.7-0.6-0.5-1.1s0.6-1.8,0.8-2.4c0.1-0.5,0.5-0.8,1-0.8c0.5,0,0.9-0.1,1.4-0.1
				c0.4,0,0.8-0.3,0.8-0.8C67.8,51.1,67.8,50,67.6,48.9z M50.5,61.6c-5.9,0-10.6-4.8-10.6-10.7c0-5.9,4.8-10.6,10.7-10.6
				c5.9,0,10.6,4.8,10.6,10.7c0,0,0,0,0,0C61.2,56.9,56.4,61.6,50.5,61.6z"/>
		</g>
		<g>
			<path class="st0" d="M42.7,47.9c0.2,0.2,0.4,0,0.5-0.1c0.1-0.1,0.1-0.3,0-0.4c-0.1-0.1,0.1-0.2,0.3-0.3c0.2-0.1,0.5-0.3,0.7-0.4
				c0.5-0.1,1-0.1,1.4,0c0.3,0.2,0.7,0.1,0.9-0.2c0.2-0.2,0.4-0.4,0.7-0.6c0.1-0.1-0.3-0.5-0.7,0s-0.6,0.5-0.8,0.5s-1.3-0.3-1.4-0.6
				s0.3-0.6,0.7-0.8c0.6-0.1,1.2-0.2,1.8-0.2c0.6-0.1,1.3-0.4,1.7-0.2s-1.5,0.7-0.9,1c0.2,0.1,1.2-0.6,1.6-0.7
				c0.8-0.4-0.8-0.6-0.6-1.4s-1.8-0.6-3-0.5c-0.5,0.3-1,0.7-1.5,1.1c0.1,0,0.3,0.1,0.3,0.2c0,0.2,0,0.4-0.1,0.6
				c-0.3,0.3-0.6,0.4-1,0.5c-0.1,0-0.1,0-0.2-0.1c-0.2,0.2-0.3,0.4-0.5,0.7c0.2-0.1,0.4-0.2,0.7-0.2c0.2,0,0.5,0.1,0.6,0.2
				s-0.6,0.4-0.7,0.5c-0.3,0.3-0.8,0.9-1.1,1c-0.1,0-0.2,0-0.2,0c-0.1,0.2-0.2,0.4-0.2,0.6C42,47.8,42.3,47.8,42.7,47.9z"/>
		</g>
		<g>
			<path class="st0" d="M58.1,50.5c-0.3,0.2-0.6,0.3-1,0.4c-0.3,0.1-0.5,0.8-0.5,1.1s0.9,1.3,0.3,1.3c-0.6-0.3-1.1-0.7-1.4-1.3
				c-0.2-0.5-0.4-1-0.6-1.4c-0.1-0.3-0.4-0.4-0.7-0.3c-0.1,0-0.1,0.1-0.2,0.1c-0.3,0.2,0.1,0.5-0.2,0.9s-0.4,0.9-0.8,0.5
				c-0.9-1-2.2-0.5-2.5-1.7c-0.1-0.6-0.7-0.6-1.1-0.9s-0.7-0.5-0.8-0.3s1.4,1.4,1.5,1.7s-0.5,0.8-0.9,1s-0.6-0.2-1.1-0.7
				s-0.6-0.8-0.7-0.4c0,0.6,0.3,1.2,0.9,1.6c0.4,0.2,0.8,0.3,0.7,0.7s0,0.2-0.4,0.6c-0.4,0.3-0.6,0.7-0.5,1.1c0,0.6-0.1,0.6-0.2,1.1
				s-0.3,0.1-0.5,0.8c-0.1,0.4-0.3,0.9-0.6,1.2c-0.4,0.3-0.8,0.5-1.3,0.5c-0.4,0-0.5-1.2-0.5-1.8c0-0.2-0.3,0.4-0.4-0.8
				c-0.1-0.8-0.6,0.1-0.6-0.4s-0.3-0.4-0.5-0.7s-0.6,0-1,0.2s-0.2,0.2-0.7,0.1l0,0c1.1,2.6,3.3,4.6,6,5.4c-0.1-0.1-0.2-0.3-0.1-0.5
				c0.4-0.7,1.1-1.1,1.8-1.1c1.5-0.1,3.5,1,3.8,0.8s1-1,1.9-1c0.3,0,0.6,0.1,0.8,0.2c0.3-0.2,0.6-0.5,0.9-0.8
				c-0.1,0-0.2-0.1-0.3-0.1c-0.5-0.3-0.5,0.2-0.7,0.1s0.3-0.7-0.5-0.2s-0.5-0.1-0.9-0.9c-0.2-0.8,0.2-1.7,1-2
				c0.6-0.2,1.1-0.3,1.7-0.4c1.1-0.3,1.4-0.9,1.6-0.5c0,0.1,0.1,0.1,0.1,0.2c0.1,0.2,0.1,0.4,0.1,0.6c0.2-0.5,0.3-0.9,0.4-1.4
				c-0.3-0.1-1.3-1.5-0.5-2.5c0.1-0.2-0.3-0.6-0.2-0.6c0.4,0,0.7,0.2,0.8,0.6c0-0.5-0.1-1-0.2-1.5c0,0.1,0,0.2,0,0.3
				c-0.1,0.3-0.5,0.5-0.8,0.3c-0.1-0.1-0.2-0.1-0.3-0.3c-0.1-0.1-0.5-0.5-0.5,0.1S58.7,50.1,58.1,50.5z M49.3,54.1
				c-0.1,0.2-0.5,1.8-0.7,1.6s0.1-1.8,0.2-2C49.1,53.1,49.9,53.2,49.3,54.1z M53.1,52.3c-0.3,0.1-0.6,0.1-0.9-0.1
				c-0.2-0.2,0.2-0.5,0.3-0.5C52.8,51.7,53.3,52.1,53.1,52.3z M57,52c-0.1-0.2,0.1-0.4,0.3-0.3c0.2,0.1,0.4,0.3,0.4,0.5
				c0,0.2-0.4,0.1-0.5,0.1S57.1,52.2,57,52z M58.3,53.2c-0.3,0.2-0.6,0.1-0.9-0.1c-0.2-0.2,0.2-0.5,0.3-0.5
				C58,52.6,58.5,53,58.3,53.2L58.3,53.2z"/>
		</g>
		<g>
			<path class="st0" d="M42.4,48.9c0.5,0.1,1,0.2,1.5,0.4c0.5,0.2,1.4,0.7,1.9,0.5s0.6-0.3,0.6-0.7s-0.3-0.5-0.7-0.2
				c-0.1,0.1-0.4-0.6-0.6-0.5s0.3,0.8,0.1,0.8s-0.6-0.8-0.6-0.9s-0.4-0.5-0.6-0.2c-0.5,0.5-1.5,0.5-1.6,0.6c-0.1,0-0.1,0.1-0.2,0.1
				c-0.4,0.2-0.5-0.2-0.5-0.5c-0.2,0.5-0.3,1.1-0.3,1.6v-0.1c0.3-0.6,0.4-0.6,0.5-0.7c0.1-0.1,0.2-0.1,0.4-0.2L42.4,48.9z"/>
		</g>
	</g>
	<g>
		<g>
			<g>
				<path class="st0" d="M48.3,105.3c-0.5,0.3-1,0.5-1.5,0.7c-1.6,0.5-3.2,0.7-4.8,0.6c-0.8,0-1.6-0.1-2.4-0.2
					c-0.5-0.1-1-0.2-1.5-0.3c-0.2-0.1-0.5-0.1-0.7-0.2c-0.7-0.2-1.3-0.5-1.9-0.9c-0.2-0.2-0.4-0.3-0.5-0.6v0.6c0,0.2,0,0.9,0,0.9
					c0,0.4,0.2,0.8,0.5,1c1.1,0.8,2.4,1.3,3.7,1.4c0.9,0.1,1.8,0.2,2.7,0.2c1.3,0,2.6-0.1,3.9-0.4l0,0c0.7-0.2,1.4-0.4,2-0.8l0,0
					c0.7-0.4,1-0.9,1-1.4c0,0,0.1-1.4,0-1.6C48.9,104.8,48.6,105.1,48.3,105.3z"/>
			</g>
			<g>
				<path class="st0" d="M41.4,100.5c3.9,0,7-1.2,7-2.6c0,0,0.1-1.3,0.1-1.6c0-0.2,0-0.4-0.1-0.6c0.4-0.2,0.7-0.7,0.8-1.2
					c0,0,0.1-1.5,0-1.8C49,91,45.4,90,42.1,90S35,91,35,92.9c0,0.1,0.1,1.6,0.1,1.6c0,0.1,0,0.2,0.1,0.3c-0.5,0.3-0.8,0.8-0.9,1.4
					c0,0.1,0.1,1.6,0.1,1.6c0,0.4,0.2,0.8,0.6,1c1.1,0.8,2.4,1.3,3.7,1.4C39.6,100.4,40.5,100.5,41.4,100.5z M42.2,90.8
					c3.8,0,6.4,1.1,6.4,2.1S45.9,95,42.2,95s-6.4-1.1-6.4-2.1S38.4,90.8,42.2,90.8z M35.1,96.3c0.1-0.3,0.3-0.6,0.5-0.8
					c0.2,0.2,0.5,0.4,0.7,0.5c1.8,0.8,3.8,1.2,5.8,1.2c1.7,0,3.4-0.2,5-0.8c0.2-0.1,0.4-0.2,0.6-0.3c0,0.1,0,0.1,0,0.2
					c0,1-2.6,2.1-6.4,2.1S35.1,97.3,35.1,96.3z"/>
			</g>
			<g>
				<path class="st0" d="M39.3,105.9c0.9,0.1,1.8,0.2,2.7,0.2c1.3,0,2.6-0.1,3.9-0.4l0,0c0.7-0.2,1.4-0.4,2-0.8l0,0
					c0.2-0.1,0.3-0.2,0.4-0.3c0.2-0.2,0.4-0.4,0.5-0.7c0-0.1,0.1-0.2,0.1-0.4c0,0,0-1.4,0-1.6c-0.2,0.3-0.8,1.2-3.6,1.8
					c-1.2,0.2-2.4,0.3-3.6,0.3c-1.9,0-3.9-0.3-5.6-1.1c-0.3-0.2-0.6-0.4-0.9-0.6c-0.2-0.2-0.3-0.3-0.4-0.5c0,0,0,0.7,0,0.7v1
					c0,0.4,0.2,0.8,0.5,1C36.6,105.3,37.9,105.8,39.3,105.9z"/>
			</g>
			<g>
				<path class="st0" d="M49,98.8c-0.1-0.1-0.1-0.1-0.2-0.2c-0.1-0.1-0.2-0.1-0.3-0.2c-0.1,0.2-0.2,0.3-0.3,0.4
					c0.1,0,0.2,0.1,0.3,0.2c0.2,0.1,0.3,0.3,0.3,0.5c0,0.2-0.1,0.4-0.2,0.5c-0.1,0.1-0.2,0.1-0.3,0.2c-0.1,0.1-0.3,0.2-0.4,0.2
					c0,0-0.4,0.2-0.6,0.3c0,0-0.4,0.2-0.6,0.2l-0.8,0.2c0,0-0.7,0.1-1.1,0.2l-1.1,0.1c-0.1,0-1.2,0.1-1.6,0.1
					c-0.8,0-1.5-0.1-2.2-0.2c-0.5-0.1-1.1-0.2-1.6-0.3c-0.6-0.1-1.1-0.3-1.7-0.5c-0.3-0.1-0.6-0.3-0.9-0.6c-0.2-0.2-0.4-0.5-0.5-0.7
					v0.9v0.9c0,0.4,0.2,0.8,0.6,1c1.1,0.8,2.4,1.3,3.7,1.4c0.9,0.1,1.8,0.2,2.7,0.2c1.3,0,2.6-0.1,3.9-0.4l0,0
					c0.7-0.2,1.4-0.4,2-0.8l0,0c0.2-0.1,0.3-0.2,0.4-0.3c0.2-0.2,0.4-0.4,0.5-0.7c0-0.1,0.1-0.2,0.1-0.4c0,0,0.1-1.5,0.1-1.5
					c0-0.1,0-0.2-0.1-0.4C49.1,99,49,98.9,49,98.8z"/>
			</g>
		</g>
		<g>
			<g>
				<path class="st0" d="M24.2,105.6c3.9,0,7-1.2,7-2.6c0,0,0.1-1.3,0.1-1.6c0-0.2,0-0.4-0.1-0.6c0.4-0.2,0.7-0.7,0.8-1.2
					c0,0,0.1-1.5,0-1.8c-0.1-1.8-3.7-2.7-7-2.7s-7.1,1-7.1,2.9c0,0.1,0.1,1.6,0.1,1.6c0,0.1,0,0.2,0.1,0.3c-0.5,0.3-0.8,0.8-0.9,1.4
					c0,0.1,0.1,1.6,0.1,1.6c0,0.4,0.2,0.8,0.5,1c1.1,0.8,2.4,1.3,3.7,1.4C22.4,105.5,23.3,105.6,24.2,105.6z M25,95.8
					c3.8,0,6.4,1.1,6.4,2.1s-2.6,2.1-6.4,2.1S18.6,99,18.6,98S21.2,95.8,25,95.8z M17.9,101.3c0.1-0.3,0.3-0.6,0.5-0.8
					c0.2,0.2,0.5,0.4,0.7,0.5c1.8,0.8,3.8,1.2,5.8,1.1c1.7,0,3.4-0.2,5-0.8c0.2-0.1,0.4-0.2,0.6-0.3c0,0.1,0,0.1,0,0.2
					c0,1-2.6,2.1-6.4,2.1S17.9,102.3,17.9,101.3L17.9,101.3z"/>
			</g>
			<g>
				<path class="st0" d="M31.8,103.9c-0.1-0.1-0.1-0.1-0.2-0.2c-0.1-0.1-0.2-0.1-0.3-0.2c-0.1,0.2-0.2,0.3-0.3,0.5
					c0.1,0,0.2,0.1,0.3,0.2c0.2,0.1,0.3,0.3,0.3,0.5c0,0.2-0.1,0.4-0.2,0.5c-0.1,0.1-0.2,0.1-0.3,0.2l-0.4,0.2l-0.6,0.3
					c0,0-0.4,0.2-0.6,0.2s-0.6,0.2-0.8,0.2c-0.1,0-0.8,0.1-1.1,0.2c-0.1,0-0.8,0.1-1.1,0.1c-0.1,0-1.2,0.1-1.6,0.1
					c-0.8,0-1.5-0.1-2.2-0.2c-0.5-0.1-1.1-0.2-1.6-0.3c-0.6-0.1-1.1-0.3-1.7-0.5c-0.3-0.1-0.6-0.3-0.9-0.6c-0.2-0.2-0.4-0.5-0.5-0.7
					c0,0,0,0.9,0,0.9v0.8c0,0.4,0.2,0.8,0.6,1c1.1,0.8,2.4,1.3,3.7,1.4c0.9,0.1,1.8,0.2,2.7,0.2c1.3,0,2.7-0.1,3.9-0.4l0,0
					c0.7-0.2,1.4-0.4,2-0.8l0,0c0.2-0.1,0.3-0.2,0.4-0.3c0.2-0.2,0.4-0.4,0.5-0.7c0.1-0.1,0.2-0.3,0.2-0.4c0,0,0.1-1.5,0.1-1.5
					c0-0.1,0-0.2,0-0.4C32,104,31.9,103.9,31.8,103.9z"/>
			</g>
		</g>
		<g>
			<path class="st0" d="M24.5,73.6l5.1,6.5c0.1,0.1,0.1,0.2,0.1,0.3c0,0.2-0.1,0.2-0.3,0.2h-2.6v8.3c0,0.1-0.1,0.2-0.2,0.2
				c0,0,0,0,0,0H22c-0.1,0-0.3-0.1-0.3-0.2c0,0,0,0,0,0v-8.3h-2.6c-0.2,0-0.3,0-0.3-0.2c0-0.1,0-0.2,0.1-0.3l4.9-6.5
				c0.1-0.1,0.2-0.2,0.4-0.2C24.3,73.4,24.4,73.5,24.5,73.6z"/>
		</g>
		<g>
			<path class="st0" d="M41.8,73.5l5.2,6.5c0.1,0.1,0.1,0.2,0.1,0.3c0,0.2-0.1,0.2-0.3,0.2h-2.6V84c0,0.1-0.1,0.2-0.3,0.2h-4.5
				c-0.1,0-0.3-0.1-0.3-0.2v-3.4h-2.6c-0.2,0-0.3,0-0.3-0.2c0-0.1,0-0.2,0.1-0.3l5-6.5C41.4,73.4,41.6,73.4,41.8,73.5
				C41.8,73.5,41.8,73.5,41.8,73.5L41.8,73.5z"/>
		</g>
		<g>
			<g>
				<path class="st0" d="M83.7,105.3c-0.5,0.3-1,0.5-1.6,0.7c-1.6,0.5-3.2,0.7-4.8,0.6c-0.8,0-1.6-0.1-2.4-0.2
					c-0.5-0.1-0.9-0.2-1.4-0.3l-0.7-0.2c-0.7-0.2-1.3-0.5-1.9-0.9c-0.2-0.2-0.4-0.3-0.5-0.6v0.6c0,0.2,0,0.9,0,0.9
					c0,0.4,0.2,0.8,0.6,1c1.1,0.8,2.4,1.3,3.8,1.4c0.9,0.1,1.8,0.2,2.7,0.2c1.3,0,2.6-0.1,3.9-0.4l0,0c0.7-0.2,1.4-0.4,2-0.8l0,0
					c0.7-0.4,1-0.9,1-1.4c0,0,0.1-1.4,0-1.6C84.2,104.8,84,105.1,83.7,105.3z"/>
			</g>
			<g>
				<path class="st0" d="M76.8,100.5c3.9,0,7-1.2,7-2.6c0,0,0.1-1.3,0.1-1.6c0-0.2-0.1-0.4-0.1-0.6c0.4-0.2,0.7-0.7,0.8-1.2
					c0,0,0.1-1.5,0-1.8C84.3,91,80.8,90,77.4,90s-7.1,1-7.1,2.9c0,0.1,0.1,1.6,0.1,1.6c0,0.1,0,0.2,0.1,0.3
					c-0.5,0.3-0.8,0.8-0.9,1.4c0,0.1,0.1,1.6,0.1,1.6c0,0.4,0.2,0.8,0.6,1c1.1,0.8,2.4,1.3,3.8,1.4
					C74.9,100.4,75.8,100.5,76.8,100.5z M77.5,90.8c3.8,0,6.4,1.1,6.4,2.1S81.3,95,77.5,95s-6.4-1.1-6.4-2.1S73.8,90.8,77.5,90.8z
					 M70.4,96.3c0.1-0.3,0.3-0.6,0.6-0.8c0.2,0.2,0.4,0.4,0.7,0.5c1.8,0.8,3.8,1.2,5.8,1.2c1.7,0,3.4-0.2,5-0.8
					c0.2-0.1,0.4-0.2,0.6-0.3c0,0.1,0,0.1,0,0.2c0,1-2.6,2.1-6.4,2.1S70.4,97.3,70.4,96.3z"/>
			</g>
			<g>
				<path class="st0" d="M74.7,105.9c0.9,0.1,1.8,0.2,2.7,0.2c1.3,0,2.6-0.1,3.9-0.4l0,0c0.7-0.2,1.4-0.4,2-0.8l0,0
					c0.2-0.1,0.3-0.2,0.4-0.3c0.2-0.2,0.4-0.4,0.5-0.7c0-0.1,0.1-0.2,0.1-0.4c0,0,0-1.4,0-1.6c-0.2,0.3-0.8,1.2-3.6,1.8
					c-1.2,0.2-2.4,0.3-3.6,0.3c-1.9,0-3.9-0.3-5.6-1.1c-0.3-0.2-0.6-0.4-0.9-0.6c-0.2-0.2-0.3-0.3-0.4-0.5c0,0,0,0.7,0,0.7v1
					c0,0.4,0.2,0.8,0.6,1C72,105.3,73.3,105.8,74.7,105.9z"/>
			</g>
			<g>
				<path class="st0" d="M84.4,98.8c-0.1-0.1-0.1-0.1-0.2-0.2c-0.1-0.1-0.2-0.1-0.3-0.2c-0.1,0.2-0.2,0.3-0.3,0.4
					c0.1,0,0.2,0.1,0.3,0.2c0.2,0.1,0.3,0.3,0.3,0.5c0,0.2-0.1,0.4-0.2,0.5c-0.1,0.1-0.2,0.1-0.3,0.2s-0.3,0.2-0.4,0.2l-0.6,0.3
					c0,0-0.4,0.2-0.6,0.2l-0.8,0.2c-0.1,0-0.7,0.1-1.1,0.2l-1.1,0.1c-0.1,0-1.2,0.1-1.6,0.1c-0.7,0-1.5-0.1-2.2-0.2
					c-0.5-0.1-1.1-0.2-1.6-0.3c-0.6-0.1-1.1-0.3-1.7-0.5c-0.3-0.1-0.6-0.3-0.9-0.6c-0.2-0.2-0.4-0.5-0.6-0.7v0.9v0.9
					c0,0.4,0.2,0.8,0.6,1c1.1,0.8,2.4,1.3,3.7,1.4c0.9,0.1,1.8,0.2,2.7,0.2c1.3,0,2.6-0.1,3.9-0.4l0,0c0.7-0.2,1.4-0.4,2-0.8l0,0
					c0.2-0.1,0.4-0.2,0.6-0.3c0.2-0.2,0.4-0.4,0.5-0.7c0-0.1,0.1-0.2,0.1-0.4c0,0,0.1-1.5,0.1-1.5c0-0.1,0-0.2-0.1-0.4
					C84.5,99,84.5,98.9,84.4,98.8z"/>
			</g>
		</g>
		<g>
			<g>
				<path class="st0" d="M59.6,105.6c3.9,0,7-1.2,7-2.6c0,0,0.1-1.3,0.1-1.6c0-0.2,0-0.4-0.1-0.6c0.4-0.2,0.7-0.7,0.8-1.2
					c0,0,0.1-1.5,0-1.8c-0.2-1.8-3.7-2.7-7.1-2.7s-7.1,1-7.1,2.9c0,0.1,0.1,1.6,0.1,1.6c0,0.1,0,0.2,0.1,0.3
					c-0.5,0.3-0.9,0.8-0.9,1.4c0,0.1,0.1,1.6,0.1,1.6c0,0.4,0.2,0.8,0.5,1c1.1,0.8,2.4,1.3,3.8,1.4
					C57.7,105.5,58.6,105.6,59.6,105.6z M60.3,95.8c3.8,0,6.4,1.1,6.4,2.1s-2.6,2.1-6.4,2.1S53.9,99,53.9,98S56.5,95.8,60.3,95.8z
					 M53.2,101.3c0.1-0.3,0.3-0.6,0.5-0.8c0.2,0.2,0.5,0.4,0.7,0.5c1.8,0.8,3.8,1.2,5.8,1.2c1.7,0,3.4-0.2,5-0.8
					c0.2-0.1,0.4-0.2,0.6-0.3c0,0.1,0,0.1,0,0.2c0,1-2.6,2.1-6.4,2.1S53.2,102.3,53.2,101.3z"/>
			</g>
			<g>
				<path class="st0" d="M67.2,103.9l-0.2-0.2c-0.1-0.1-0.2-0.1-0.3-0.2c-0.1,0.2-0.2,0.3-0.3,0.4c0.1,0,0.2,0.1,0.3,0.2
					c0.2,0.1,0.3,0.3,0.3,0.5c0,0.2-0.1,0.4-0.3,0.5c-0.1,0.1-0.2,0.1-0.3,0.2l-0.4,0.2l-0.6,0.3c0,0-0.4,0.2-0.6,0.2
					s-0.6,0.2-0.8,0.2c0,0-0.7,0.1-1.1,0.2c-0.1,0-0.8,0.1-1.1,0.1c-0.1,0-1.2,0.1-1.6,0.1c-0.7,0-1.5-0.1-2.2-0.2
					c-0.5-0.1-1.1-0.2-1.6-0.3c-0.6-0.1-1.1-0.3-1.7-0.5c-0.6-0.3-1.1-0.7-1.4-1.3c0,0,0,0.9,0,0.9v0.8c0,0.4,0.2,0.8,0.5,1
					c1.1,0.8,2.4,1.3,3.8,1.4c0.9,0.1,1.8,0.2,2.7,0.2c1.3,0,2.7-0.1,3.9-0.4h0.1c0.7-0.2,1.4-0.4,2-0.8l0,0
					c0.2-0.1,0.3-0.2,0.4-0.3c0.2-0.2,0.4-0.4,0.5-0.7c0-0.1,0.1-0.2,0.1-0.4c0,0,0.1-1.5,0.1-1.5c0-0.1,0-0.2-0.1-0.4
					C67.3,104,67.2,103.9,67.2,103.9z"/>
			</g>
		</g>
		<g>
			<path class="st0" d="M59.8,73.6l5.2,6.5c0.1,0.1,0.1,0.2,0.1,0.3c0,0.2-0.1,0.2-0.3,0.2h-2.6v8.3c0,0.1-0.1,0.2-0.3,0.2
				c0,0,0,0,0,0h-4.5c-0.1,0-0.3-0.1-0.3-0.2c0,0,0,0,0,0v-8.3h-2.6c-0.2,0-0.3,0-0.3-0.2c0-0.1,0-0.2,0.1-0.3l4.9-6.5
				c0.1-0.1,0.2-0.2,0.3-0.2C59.7,73.4,59.8,73.5,59.8,73.6z"/>
		</g>
		<g>
			<path class="st0" d="M77.2,73.5l5.1,6.5c0.1,0.1,0.1,0.2,0.1,0.3c0,0.2-0.1,0.2-0.3,0.2h-2.6V84c0,0.1-0.1,0.2-0.3,0.2h-4.5
				c-0.1,0-0.3-0.1-0.3-0.2v-3.4h-2.6c-0.2,0-0.3,0-0.3-0.2c0-0.1,0-0.2,0.1-0.3l4.9-6.5c0.1-0.1,0.2-0.2,0.3-0.2
				C77,73.4,77.1,73.5,77.2,73.5z"/>
		</g>
	</g>
</g>
</svg>
