<?xml version="1.0" encoding="utf-8"?>
<!-- Generator: Adobe Illustrator 22.0.1, SVG Export Plug-In . SVG Version: 6.00 Build 0)  -->
<svg version="1.1" id="Layer_1" xmlns="http://www.w3.org/2000/svg" xmlns:xlink="http://www.w3.org/1999/xlink" x="0px" y="0px"
	 viewBox="0 0 101.5 175.1" style="enable-background:new 0 0 101.5 175.1;" xml:space="preserve">
<style type="text/css">
	.st0{fill:#FFFFFF;}
	.st1{fill:#19486A;}
	.st2{enable-background:new    ;}
</style>
<title>TARGET 1 B copy 17</title>
<g id="WHITE_BG">
	<g>
		<rect y="0" class="st0" width="101.5" height="175.1"/>
	</g>
</g>
<g id="TARGETS">
	<g>
		<g>
			<path class="st1" d="M7.8,132.2h-1v-6.4H9c1.6,0,2.2,0.7,2.2,1.9c0.1,0.7-0.3,1.4-1,1.7l1.3,2.8h-1.2l-1.1-2.6H7.8V132.2z
				 M7.8,128.7h1.3c0.9,0,1-0.5,1-1s-0.1-1-1-1H7.8V128.7z"/>
		</g>
		<g>
			<path class="st1" d="M15.7,129.3H13v2h3v0.9h-3.9v-6.4H16v0.9h-3v1.8h2.7L15.7,129.3z"/>
		</g>
		<g>
			<path class="st1" d="M21,130.3c0,1.2-0.7,2-2.4,2c-0.6,0-1.3-0.1-1.9-0.4V131c0.6,0.3,1.2,0.4,1.8,0.4c1.1,0,1.5-0.5,1.5-1.1
				s-0.3-0.9-1.2-1c-1.5-0.2-2.2-0.6-2.2-1.8c0-0.9,0.5-1.8,2.3-1.8c0.6,0,1.2,0.1,1.7,0.3v1c-0.5-0.2-1.1-0.3-1.7-0.3
				c-1,0-1.3,0.4-1.3,1c0,0.7,0.4,0.8,1.2,0.9C20.2,128.7,21,129,21,130.3z"/>
		</g>
		<g>
			<path class="st1" d="M22.7,132.2h-1v-6.4h2c1.6,0,2.2,1,2.2,2c0,1-0.6,2-2.2,2h-1V132.2z M22.7,128.9h1.1c0.6,0.1,1.2-0.4,1.2-1
				s-0.4-1.2-1-1.2c-0.1,0-0.1,0-0.2,0h-1.1V128.9z"/>
		</g>
		<g>
			<path class="st1" d="M30.2,129.3h-2.6v2h2.9v0.9h-3.9v-6.4h3.9v0.9h-2.9v1.8h2.6V129.3z"/>
		</g>
		<g>
			<path class="st1" d="M33.9,125.7c0.5,0,1,0.1,1.5,0.3v0.9c-0.4-0.2-0.9-0.3-1.4-0.3c-1.2,0-1.7,0.8-1.7,2.4s0.5,2.4,1.7,2.4
				c0.5,0,1-0.1,1.4-0.3v0.9c-0.5,0.2-1,0.3-1.5,0.3c-1.9,0-2.6-1.2-2.6-3.3S32,125.7,33.9,125.7z"/>
		</g>
		<g>
			<path class="st1" d="M38.4,126.7v5.5h-1v-5.5h-1.6v-0.9H40v0.9H38.4z"/>
		</g>
		<g>
			<path class="st1" d="M45.5,132.2l-2.8-4.5v4.5h-0.9v-6.4h0.9l2.8,4.5v-4.5h0.9v6.4H45.5z"/>
		</g>
		<g>
			<path class="st1" d="M50.4,130.6h-2l-0.5,1.6h-1l2-6.4h1l2,6.4h-1L50.4,130.6z M49.4,127l-0.8,2.8h1.6L49.4,127z"/>
		</g>
		<g>
			<path class="st1" d="M53.9,126.7v5.5H53v-5.5h-1.7v-0.9h4.3v0.9H53.9z"/>
		</g>
		<g>
			<path class="st1" d="M56.4,132.2v-6.4h1v6.4H56.4z"/>
		</g>
		<g>
			<path class="st1" d="M58.2,129c0-1.8,0.4-3.3,2.5-3.3s2.5,1.5,2.5,3.3s-0.4,3.3-2.5,3.3S58.2,130.8,58.2,129z M59.2,129
				c0,1.5,0.3,2.4,1.5,2.4s1.5-0.9,1.5-2.4s-0.3-2.4-1.5-2.4S59.2,127.5,59.2,129L59.2,129z"/>
		</g>
		<g>
			<path class="st1" d="M67.6,132.2l-2.8-4.5v4.5h-1v-6.4h0.9l2.8,4.5v-4.5h0.9v6.4H67.6z"/>
		</g>
		<g>
			<path class="st1" d="M72.5,130.6h-2l-0.5,1.6h-1l2-6.4h1l2,6.4h-1L72.5,130.6z M71.5,127l-0.8,2.8h1.6L71.5,127z"/>
		</g>
		<g>
			<path class="st1" d="M75.4,131.3h2.8v0.9h-3.7v-6.4h1L75.4,131.3z"/>
		</g>
		<g>
			<path class="st1" d="M7.8,140.3h2.8v0.9H6.9v-6.4h1L7.8,140.3z"/>
		</g>
		<g>
			<path class="st1" d="M14.7,138.3h-2.6v2H15v0.9h-3.9v-6.4H15v0.9h-2.9v1.8h2.6V138.3z"/>
		</g>
		<g>
			<path class="st1" d="M18.9,139.6h-2l-0.5,1.6h-1l2-6.4h1l2,6.4h-1L18.9,139.6z M17.9,136l-0.8,2.8h1.6L17.9,136z"/>
		</g>
		<g>
			<path class="st1" d="M21,141.2v-6.4h1.9c2.1,0,2.7,1.4,2.7,3.2s-0.6,3.2-2.7,3.2H21z M22,140.3h1c1.3,0,1.7-0.9,1.7-2.3
				s-0.4-2.3-1.7-2.3h-1V140.3z"/>
		</g>
		<g>
			<path class="st1" d="M30,138.3h-2.7v2h2.9v0.9h-3.9v-6.4h3.9v0.9h-2.9v1.8H30V138.3z"/>
		</g>
		<g>
			<path class="st1" d="M32.1,141.2h-1v-6.4h2.1c1.7,0,2.2,0.7,2.2,1.9c0.1,0.7-0.3,1.4-1,1.7l1.3,2.8h-1.1l-1.2-2.6h-1.3V141.2z
				 M32.1,137.7h1.3c0.9,0,1-0.5,1-1s-0.1-1-1-1h-1.3V137.7z"/>
		</g>
		<g>
			<path class="st1" d="M40.5,139.3c0,1.2-0.7,2-2.4,2c-0.6,0-1.3-0.1-1.9-0.4V140c0.6,0.3,1.2,0.4,1.8,0.4c1.2,0,1.5-0.5,1.5-1.1
				s-0.3-0.9-1.2-1c-1.5-0.2-2.2-0.6-2.2-1.8c0-0.9,0.5-1.8,2.3-1.8c0.6,0,1.2,0.1,1.7,0.3v1c-0.5-0.2-1.1-0.3-1.7-0.3
				c-1,0-1.3,0.4-1.3,1s0.4,0.8,1.2,0.9C39.7,137.7,40.5,138,40.5,139.3z"/>
		</g>
		<g>
			<path class="st1" d="M44.8,141.2v-2.9h-2.6v2.9h-1v-6.4h1v2.6h2.6v-2.6h1v6.4H44.8z"/>
		</g>
		<g>
			<path class="st1" d="M46.8,141.2v-6.4h1v6.4H46.8z"/>
		</g>
		<g>
			<path class="st1" d="M49.8,141.2h-1v-6.4h2c1.6,0,2.2,0.9,2.2,2s-0.6,2-2.2,2h-1.1L49.8,141.2z M49.8,137.9H51
				c0.6,0.1,1.2-0.4,1.2-1s-0.4-1.2-1-1.2c-0.1,0-0.1,0-0.2,0h-1.2V137.9z"/>
		</g>
		<g>
			<path class="st1" d="M57.2,135.7v5.5h-1v-5.5h-1.7v-0.9h4.3v0.9H57.2z"/>
		</g>
		<g>
			<path class="st1" d="M59,138c0-1.8,0.4-3.3,2.5-3.3s2.5,1.5,2.5,3.3s-0.4,3.3-2.5,3.3S59,139.8,59,138z M60,138
				c0,1.5,0.3,2.4,1.5,2.4s1.5-0.9,1.5-2.4s-0.3-2.4-1.5-2.4S60,136.5,60,138z"/>
		</g>
		<g>
			<path class="st1" d="M7,150.2v-6.4h1v6.4H7z"/>
		</g>
		<g>
			<path class="st1" d="M12.5,149.3h-0.9l-1.6-3.9v4.8H9.1v-6.4h1.2l1.7,4.3l1.7-4.3H15v6.4h-1v-4.8L12.5,149.3z"/>
		</g>
		<g>
			<path class="st1" d="M16.9,150.2h-1v-6.4h2c1.6,0,2.2,0.9,2.2,2s-0.6,2-2.2,2h-1V150.2z M16.9,146.9H18c0.6,0.1,1.2-0.4,1.2-1
				s-0.4-1.2-1-1.2c-0.1,0-0.1,0-0.2,0h-1.1V146.9z"/>
		</g>
		<g>
			<path class="st1" d="M21.6,149.3h2.8v0.9h-3.7v-6.4h1V149.3z"/>
		</g>
		<g>
			<path class="st1" d="M28.6,147.3H26v2h2.9v0.9H25v-6.4h3.9v0.9H26v1.8h2.7L28.6,147.3z"/>
		</g>
		<g>
			<path class="st1" d="M33.1,149.3h-0.9l-1.6-3.9v4.8h-1v-6.4h1.2l1.7,4.3l1.7-4.3h1.2v6.4h-1v-4.8L33.1,149.3z"/>
		</g>
		<g>
			<path class="st1" d="M40.2,147.3h-2.6v2h2.9v0.9h-3.9v-6.4h3.9v0.9h-2.9v1.8h2.7L40.2,147.3z"/>
		</g>
		<g>
			<path class="st1" d="M45,150.2l-2.8-4.5v4.5h-0.9v-6.4h0.9l2.8,4.5v-4.5h0.9v6.4H45z"/>
		</g>
		<g>
			<path class="st1" d="M49,144.7v5.5h-1v-5.5h-1.6v-0.9h4.3v0.9H49z"/>
		</g>
		<g>
			<path class="st1" d="M53.4,150.2h-1v-6.4h2c1.6,0,2.2,0.9,2.2,2s-0.6,2-2.2,2h-1V150.2z M53.4,146.9h1.1c0.6,0.1,1.2-0.4,1.2-1
				s-0.4-1.2-1-1.2c-0.1,0-0.1,0-0.2,0h-1.1V146.9z"/>
		</g>
		<g>
			<path class="st1" d="M57,147c0-1.8,0.4-3.3,2.5-3.3s2.5,1.5,2.5,3.3s-0.4,3.3-2.5,3.3S57,148.8,57,147z M58,147
				c0,1.5,0.3,2.4,1.5,2.4s1.5-0.9,1.5-2.4s-0.3-2.4-1.5-2.4S58,145.5,58,147L58,147z"/>
		</g>
		<g>
			<path class="st1" d="M63.7,149.3h2.8v0.9h-3.7v-6.4h1V149.3z"/>
		</g>
		<g>
			<path class="st1" d="M67.2,150.2v-6.4h1v6.4H67.2z"/>
		</g>
		<g>
			<path class="st1" d="M71.8,143.7c0.5,0,1,0.1,1.5,0.3v0.9c-0.5-0.2-0.9-0.3-1.4-0.3c-1.2,0-1.7,0.8-1.7,2.4s0.5,2.4,1.7,2.4
				c0.5,0,1-0.1,1.4-0.3v0.9c-0.5,0.2-1,0.3-1.5,0.3c-1.9,0-2.6-1.2-2.6-3.3S69.9,143.7,71.8,143.7z"/>
		</g>
		<g>
			<path class="st1" d="M74.3,150.2v-6.4h1v6.4H74.3z"/>
		</g>
		<g>
			<path class="st1" d="M79.9,147.3h-2.7v2h2.9v0.9h-3.9v-6.4h3.9v0.9h-2.9v1.8h2.7V147.3z"/>
		</g>
		<g>
			<path class="st1" d="M85.2,148.3c0,1.2-0.7,2-2.4,2c-0.6,0-1.3-0.1-1.9-0.4V149c0.6,0.3,1.2,0.4,1.8,0.4c1.2,0,1.5-0.5,1.5-1.1
				s-0.3-0.9-1.2-1c-1.6-0.2-2.2-0.6-2.2-1.8c0-0.9,0.5-1.8,2.3-1.8c0.6,0,1.2,0.1,1.7,0.3v1c-0.5-0.2-1.1-0.3-1.7-0.3
				c-1,0-1.3,0.4-1.3,1s0.4,0.8,1.2,0.9C84.4,146.7,85.2,147,85.2,148.3z"/>
		</g>
		<g>
			<path class="st1" d="M10.4,156.4H7.8v2.8h-1v-6.4h3.9v0.9H7.8v1.8h2.6V156.4z"/>
		</g>
		<g>
			<path class="st1" d="M11.2,156c0-1.8,0.4-3.3,2.5-3.3s2.5,1.5,2.5,3.3s-0.4,3.3-2.5,3.3S11.2,157.8,11.2,156z M12.2,156
				c0,1.5,0.3,2.4,1.5,2.4s1.5-0.9,1.5-2.4s-0.3-2.4-1.5-2.4S12.1,154.5,12.2,156L12.2,156z"/>
		</g>
		<g>
			<path class="st1" d="M17.8,159.2h-1v-6.4h2.1c1.6,0,2.2,0.7,2.2,1.9c0.1,0.7-0.3,1.4-1,1.7l1.3,2.8h-1.1l-1.2-2.6h-1.3V159.2z
				 M17.8,155.7H19c0.9,0,1-0.5,1-1s-0.1-1-1-1h-1.2V155.7z"/>
		</g>
		<g>
			<path class="st1" d="M25.4,153.7v5.5h-1v-5.5h-1.6v-0.9h4.3v0.9H25.4z"/>
		</g>
		<g>
			<path class="st1" d="M31.2,159.2v-2.9h-2.6v2.9h-1v-6.4h1v2.6h2.6v-2.6h0.9v6.4H31.2z"/>
		</g>
		<g>
			<path class="st1" d="M36.7,156.3H34v2h3v0.9h-3.9v-6.4H37v0.9h-3v1.8h2.7L36.7,156.3z"/>
		</g>
		<g>
			<path class="st1" d="M43.3,157.3c0,1.2-0.7,2-2.4,2c-0.6,0-1.3-0.1-1.9-0.4V158c0.6,0.3,1.2,0.4,1.8,0.4c1.1,0,1.5-0.5,1.5-1.1
				s-0.3-0.9-1.2-1c-1.6-0.2-2.2-0.6-2.2-1.8c0-0.9,0.5-1.8,2.3-1.8c0.6,0,1.2,0.1,1.7,0.3v1c-0.5-0.2-1.1-0.3-1.7-0.3
				c-1,0-1.3,0.4-1.3,1s0.4,0.8,1.2,0.9C42.6,155.7,43.3,156,43.3,157.3z"/>
		</g>
		<g>
			<path class="st1" d="M44,157.2v-4.4h1v4.3c0,0.8,0.6,1.4,1.4,1.4s1.4-0.6,1.4-1.4v-4.3h1v4.4c0.1,1.1-0.8,2.1-1.9,2.1
				c-0.1,0-0.3,0-0.4,0c-1.1,0.2-2.1-0.6-2.3-1.7C44,157.5,44,157.3,44,157.2z"/>
		</g>
		<g>
			<path class="st1" d="M53.5,157.3c0,1.2-0.7,2-2.4,2c-0.6,0-1.3-0.1-1.9-0.4V158c0.6,0.3,1.2,0.4,1.8,0.4c1.1,0,1.5-0.5,1.5-1.1
				s-0.3-0.9-1.2-1c-1.6-0.2-2.2-0.6-2.2-1.8c0-0.9,0.5-1.8,2.3-1.8c0.6,0,1.2,0.1,1.7,0.3v1c-0.5-0.2-1.1-0.3-1.7-0.3
				c-1,0-1.3,0.4-1.3,1s0.4,0.8,1.2,0.9C52.8,155.7,53.5,156,53.5,157.3z"/>
		</g>
		<g>
			<path class="st1" d="M56.3,153.7v5.5h-1v-5.5h-1.6v-0.9h4.3v0.9H56.3z"/>
		</g>
		<g>
			<path class="st1" d="M61,157.6h-2l-0.5,1.6h-1l2-6.4h1l2,6.4h-1L61,157.6z M60,154l-0.8,2.8h1.6L60,154z"/>
		</g>
		<g>
			<path class="st1" d="M63.2,159.2v-6.4h0.9v6.4H63.2z"/>
		</g>
		<g>
			<path class="st1" d="M68.9,159.2l-2.8-4.5v4.5h-1v-6.4H66l2.8,4.5v-4.5h1v6.4H68.9z"/>
		</g>
		<g>
			<path class="st1" d="M73.8,157.6h-2l-0.4,1.6h-1l2-6.4h1l2,6.4h-1L73.8,157.6z M72.8,154l-0.8,2.8h1.6L72.8,154z"/>
		</g>
		<g>
			<path class="st1" d="M75.8,152.8h2.1c1.6,0,2,0.8,2,1.7c0,0.5-0.3,1-0.8,1.3c0.6,0.2,1.1,0.8,1,1.5c0,1.1-0.5,1.9-2.2,1.9h-2.2
				V152.8z M78,153.7h-1.2v1.8H78c0.8,0,0.9-0.5,0.9-0.9S78.8,153.7,78,153.7L78,153.7z M76.8,158.3H78c0.9,0,1.1-0.5,1.1-1
				s-0.3-1-1.1-1h-1.3V158.3z"/>
		</g>
		<g>
			<path class="st1" d="M81.8,158.3h2.8v0.9h-3.7v-6.4h1L81.8,158.3z"/>
		</g>
		<g>
			<path class="st1" d="M88.7,156.3h-2.7v2H89v0.9h-3.9v-6.4H89v0.9h-2.9v1.8h2.7V156.3z"/>
		</g>
		<g>
			<path class="st1" d="M6.9,168.2v-6.4h1.9c2.1,0,2.7,1.4,2.7,3.2s-0.6,3.2-2.7,3.2H6.9z M7.9,167.3h1c1.3,0,1.7-0.9,1.7-2.3
				s-0.4-2.3-1.7-2.3h-1L7.9,167.3z"/>
		</g>
		<g>
			<path class="st1" d="M15.8,165.3h-2.7v2h2.9v0.9h-3.9v-6.4h3.9v0.9h-2.9v1.8h2.7L15.8,165.3z"/>
		</g>
		<g>
			<path class="st1" d="M21.5,161.8l-2,6.4h-1l-2-6.4h1L19,167l1.5-5.2L21.5,161.8z"/>
		</g>
		<g>
			<path class="st1" d="M25.6,165.3H23v2h2.9v0.9H22v-6.4h3.9v0.9H23v1.8h2.6L25.6,165.3z"/>
		</g>
		<g>
			<path class="st1" d="M27.7,167.3h2.8v0.9h-3.7v-6.4h1L27.7,167.3z"/>
		</g>
		<g>
			<path class="st1" d="M30.5,165c0-1.8,0.4-3.3,2.5-3.3s2.5,1.5,2.5,3.3s-0.4,3.3-2.5,3.3S30.5,166.8,30.5,165z M31.5,165
				c0,1.5,0.3,2.4,1.5,2.4c1.2,0,1.5-0.9,1.5-2.4s-0.3-2.4-1.5-2.4S31.5,163.5,31.5,165L31.5,165z"/>
		</g>
		<g>
			<path class="st1" d="M37.1,168.2h-1v-6.4h2c1.6,0,2.2,0.9,2.2,2s-0.6,2-2.2,2H37L37.1,168.2z M37.1,164.9h1.1
				c0.6,0.1,1.2-0.4,1.2-1s-0.4-1.2-1-1.2c-0.1,0-0.1,0-0.2,0h-1.1V164.9z"/>
		</g>
		<g>
			<path class="st1" d="M44.4,167.3h-0.9l-1.6-3.9v4.8H41v-6.4h1.2l1.7,4.3l1.7-4.3h1.2v6.4h-1l0-4.8L44.4,167.3z"/>
		</g>
		<g>
			<path class="st1" d="M51.4,165.3h-2.6v2h2.9v0.9h-3.9v-6.4h3.9v0.9h-2.9v1.8h2.7L51.4,165.3z"/>
		</g>
		<g>
			<path class="st1" d="M56.2,168.2l-2.8-4.5v4.5h-0.9v-6.4h0.9l2.8,4.5v-4.5h0.9v6.4H56.2z"/>
		</g>
		<g>
			<path class="st1" d="M60.2,162.7v5.5h-1v-5.5h-1.6v-0.9h4.3v0.9H60.2z"/>
		</g>
		<g>
			<path class="st1" d="M63.6,165c0-2,0.7-3.3,2.6-3.3c0.6,0,1.3,0.1,1.8,0.3v1c-0.5-0.2-1.1-0.4-1.7-0.4c-1.3,0-1.8,0.9-1.8,2.4
				s0.5,2.4,1.8,2.4c0.3,0,0.6,0,0.9-0.1v-1.7h-1.1v-0.9h2.1v3.2c-0.6,0.3-1.3,0.4-2,0.4C64.3,168.3,63.6,167,63.6,165z"/>
		</g>
		<g>
			<path class="st1" d="M69,165c0-1.8,0.4-3.3,2.4-3.3s2.5,1.5,2.5,3.3s-0.4,3.3-2.5,3.3S69,166.8,69,165z M70,165
				c0,1.5,0.3,2.4,1.5,2.4s1.5-0.9,1.5-2.4s-0.3-2.4-1.5-2.4S70,163.5,70,165z"/>
		</g>
		<g>
			<path class="st1" d="M77.7,166.6h-2l-0.4,1.6h-1l2-6.4h1l2,6.4h-1L77.7,166.6z M76.7,163l-0.8,2.8h1.6L76.7,163z"/>
		</g>
		<g>
			<path class="st1" d="M80.7,167.3h2.8v0.9h-3.7v-6.4h1L80.7,167.3z"/>
		</g>
		<g>
			<path class="st1" d="M88.2,166.3c0,1.2-0.7,2-2.4,2c-0.6,0-1.3-0.1-1.9-0.4V167c0.6,0.3,1.2,0.4,1.8,0.4c1.2,0,1.5-0.5,1.5-1.1
				s-0.3-0.9-1.2-1c-1.6-0.2-2.2-0.6-2.2-1.8c0-0.9,0.5-1.8,2.3-1.8c0.6,0,1.2,0.1,1.7,0.3v1c-0.5-0.2-1.1-0.3-1.7-0.3
				c-1,0-1.3,0.4-1.3,1s0.4,0.8,1.2,0.9C87.4,164.7,88.2,165,88.2,166.3z"/>
		</g>
	</g>
	<g>
		<rect x="3.3" y="24" class="st1" width="94.8" height="94.8"/>
	</g>
	<g>
		<path class="st1" d="M98.2,20.7H3.3V3.3h94.8V20.7z M4.3,19.7h92.8V4.3H4.3L4.3,19.7z"/>
	</g>
	<g class="st2">
		<path class="st1" d="M6.7,6.9h4.5v1.4H9.9v8.8H8.1V8.3H6.7V6.9z"/>
	</g>
	<g class="st2">
		<path class="st1" d="M11.2,17.1l1.9-10.2h1.9L17,17.1h-1.8l-0.3-1.9h-1.8l-0.3,1.9H11.2z M13.3,13.9h1.4L14,9.8h0L13.3,13.9z"/>
	</g>
	<g class="st2">
		<path class="st1" d="M19.6,12.4v4.7h-1.7V6.9h2.5c1.7,0,2.4,0.9,2.4,2.3v1.3c0,1.1-0.4,1.7-1.4,2l1.6,4.6h-1.8L19.6,12.4z
			 M19.6,8.3v3.2h0.6c0.6,0,0.8-0.3,0.8-0.8V9.2c0-0.6-0.3-0.8-0.8-0.8H19.6z"/>
	</g>
	<g class="st2">
		<path class="st1" d="M26.4,11.7h2.4v5.4h-1.2V16c-0.2,0.8-0.7,1.2-1.6,1.2c-1.5,0-2.1-1.2-2.1-2.7V9.6c0-1.6,0.8-2.7,2.6-2.7
			c1.9,0,2.4,1.1,2.4,2.6v0.9h-1.6v-1c0-0.6-0.2-1-0.9-1c-0.6,0-0.9,0.4-0.9,1v5.5c0,0.6,0.3,1,0.8,1c0.6,0,0.8-0.3,0.8-1V13h-0.8
			V11.7z"/>
	</g>
	<g class="st2">
		<path class="st1" d="M30.2,6.9h4.1v1.4h-2.4v2.9h1.7v1.4h-1.7v3.1h2.4v1.4h-4.1V6.9z"/>
	</g>
	<g class="st2">
		<path class="st1" d="M35.1,6.9h4.5v1.4h-1.4v8.8h-1.7V8.3h-1.4V6.9z"/>
	</g>
	<g class="st2">
		<path class="st1" d="M74.2,6.9v10.2h-1.7V9.3h0l-1.2,1.2h0V8.8l1.6-1.8H74.2z"/>
		<path class="st1" d="M75.5,6.9h4.3v1.6l-2.2,8.6h-1.7l2.3-8.8h-2.6V6.9z"/>
	</g>
	<g class="st2">
	</g>
	<g class="st2">
		<path class="st1" d="M82.5,10.8c0.7,0,1.2,0.6,1.2,1.2c0,0.7-0.6,1.2-1.2,1.2c-0.7,0-1.2-0.6-1.2-1.2
			C81.3,11.4,81.8,10.8,82.5,10.8z"/>
	</g>
	<g class="st2">
		<path class="st1" d="M88.2,6.9v10.2h-1.7V9.3h0l-1.2,1.2h0V8.8l1.6-1.8H88.2z"/>
		<path class="st1" d="M94.4,12.4v2.5c0,1.4-0.7,2.3-2.4,2.3c-1.7,0-2.4-1-2.4-2.5v-1.2h1.6v1.3c0,0.6,0.2,1,0.8,1
			c0.5,0,0.7-0.4,0.7-0.9v-2.5c0-0.6-0.2-0.9-0.7-0.9c-0.5,0-0.8,0.3-0.8,0.9v0.2h-1.6V6.9h4.5v1.4h-2.9v2.5h0
			c0.3-0.5,0.8-0.7,1.4-0.7C93.6,10.2,94.4,10.8,94.4,12.4z"/>
	</g>
	<g>
		<g>
			<path class="st0" d="M50.6,49.6c3.2,0,5.9-2.6,5.9-5.9c0-3.2-2.6-5.9-5.9-5.9c-3.2,0-5.9,2.6-5.9,5.9c0,0,0,0,0,0
				C44.7,46.9,47.3,49.6,50.6,49.6C50.6,49.6,50.6,49.6,50.6,49.6z"/>
		</g>
		<g>
			<path class="st0" d="M57.4,51.8c-0.1,0-0.3,0-0.4,0H44.2c-0.2,0-0.3,0-0.4,0c-3.6,0.3-6.5,3.1-7,6.6h27.7
				C63.9,54.9,61,52.2,57.4,51.8z"/>
		</g>
		<g>
			<path class="st0" d="M65.3,61.2H31.2v3.5H34v40.3h33.5V64.7h2.8v-3.5H65.3z M63,80.9l-5.3,0.5c-0.1-0.6-0.2-1.1-0.5-1.7l4.8-2.4
				C62.5,78.5,62.8,79.7,63,80.9z M61.6,76.7l-4.8,2.4c-0.3-0.5-0.7-1-1.1-1.4l3.6-3.9C60.3,74.6,61,75.6,61.6,76.7z M58.8,73.2
				l-3.6,3.9c-0.5-0.4-1-0.7-1.5-0.9l1.9-5C56.8,71.7,57.9,72.4,58.8,73.2z M51.3,70.2c1.2,0,2.4,0.3,3.6,0.7l-1.9,5
				c-0.6-0.2-1.1-0.3-1.7-0.3V70.2z M50.6,70.2v5.3c-0.6,0-1.2,0.1-1.7,0.3l-1.9-5C48.1,70.5,49.3,70.3,50.6,70.2L50.6,70.2z
				 M46.2,71.2l1.9,5c-0.5,0.2-1,0.5-1.5,0.9L43,73.1C44,72.3,45,71.7,46.2,71.2L46.2,71.2z M42.5,73.6l3.6,3.9
				C45.6,78,45.3,78.5,45,79l-4.8-2.4C40.8,75.5,41.6,74.5,42.5,73.6L42.5,73.6z M39.9,77.2l4.8,2.4c-0.2,0.5-0.4,1.1-0.5,1.7
				l-5.3-0.5C39,79.6,39.3,78.4,39.9,77.2L39.9,77.2z M38.7,82.4c0-0.3,0-0.5,0-0.8l5.3,0.5c0,0.1,0,0.2,0,0.3c0,0.5,0.1,1,0.2,1.5
				l-5.1,1.5C38.8,84.4,38.7,83.4,38.7,82.4z M39.3,86.1l5.1-1.5c0.2,0.6,0.5,1.1,0.8,1.6L41,89.5C40.3,88.5,39.7,87.4,39.3,86.1z
				 M41.4,90.1l4.2-3.2c0.4,0.5,0.8,0.9,1.3,1.2l-2.8,4.5C43.2,91.9,42.2,91.1,41.4,90.1L41.4,90.1z M44.8,93l2.8-4.5
				c0.5,0.3,1.1,0.5,1.7,0.6l-1,5.2C47.1,94.1,45.9,93.6,44.8,93z M50.8,94.6c-0.6,0-1.2,0-1.8-0.1l1-5.2c0.3,0,0.5,0,0.8,0
				c0.3,0,0.7,0,1-0.1l1,5.2C52.2,94.5,51.5,94.6,50.8,94.6L50.8,94.6z M53.6,94.3l-1-5.2c0.6-0.1,1.1-0.4,1.6-0.7L57,93
				C56,93.6,54.8,94.1,53.6,94.3L53.6,94.3z M57.7,92.5L54.9,88c0.5-0.3,0.9-0.8,1.3-1.2l4.2,3.2C59.7,91,58.7,91.8,57.7,92.5
				L57.7,92.5z M60.9,89.3l-4.2-3.2c0.3-0.5,0.6-1,0.8-1.5l5.1,1.5C62.1,87.3,61.6,88.4,60.9,89.3L60.9,89.3z M62.7,85.3l-5.1-1.4
				c0.1-0.5,0.2-1,0.2-1.5c0-0.1,0-0.2,0-0.2l5.3-0.5c0,0.2,0,0.5,0,0.7C63.1,83.4,63,84.4,62.7,85.3L62.7,85.3z"/>
		</g>
	</g>
	<g>
		<path class="st1" d="M98.2,171.9h-95v-49.7h95V171.9z M4.2,170.9h93v-47.7h-93V170.9z"/>
	</g>
</g>
</svg>
