<?xml version="1.0" encoding="utf-8"?>
<!-- Generator: Adobe Illustrator 22.0.1, SVG Export Plug-In . SVG Version: 6.00 Build 0)  -->
<svg version="1.1" id="Layer_1" xmlns="http://www.w3.org/2000/svg" xmlns:xlink="http://www.w3.org/1999/xlink" x="0px" y="0px"
	 viewBox="0 0 101.5 175.2" style="enable-background:new 0 0 101.5 175.2;" xml:space="preserve">
<style type="text/css">
	.st0{fill:#FFFFFF;}
	.st1{fill:#19486A;}
	.st2{enable-background:new    ;}
</style>
<title>TARGET 1 B copy 11</title>
<g id="WHITE_BG">
	<g>
		<rect y="0" class="st0" width="101.5" height="175.2"/>
	</g>
</g>
<g id="TARGETS">
	<g>
		<g>
			<path class="st1" d="M7.8,132.2h-1v-6.4h2.1c1.6,0,2.2,1,2.2,2c0,1-0.6,2-2.2,2H7.8V132.2z M7.8,128.9H9c0.6,0.1,1.2-0.4,1.2-1
				c0.1-0.6-0.4-1.2-1-1.2c-0.1,0-0.1,0-0.2,0H7.8V128.9z"/>
		</g>
		<g>
			<path class="st1" d="M12.7,132.2h-1v-6.4h2.1c1.6,0,2.2,0.7,2.2,1.9c0.1,0.7-0.3,1.4-1,1.7l1.3,2.8h-1.1l-1.2-2.6h-1.3V132.2z
				 M12.7,128.7h1.2c0.9,0,1-0.5,1-1s-0.1-1-1-1h-1.2V128.7z"/>
		</g>
		<g>
			<path class="st1" d="M16.7,129c0-1.8,0.4-3.3,2.5-3.3s2.5,1.5,2.5,3.3s-0.4,3.3-2.5,3.3S16.7,130.8,16.7,129z M17.7,129
				c0,1.5,0.3,2.4,1.5,2.4s1.5-0.9,1.5-2.4s-0.3-2.4-1.5-2.4S17.7,127.5,17.7,129L17.7,129z"/>
		</g>
		<g>
			<path class="st1" d="M25.9,131.3H25l-1.6-3.9l0,4.8h-1v-6.4h1.2l1.7,4.3l1.7-4.3h1.2v6.4h-1v-4.8L25.9,131.3z"/>
		</g>
		<g>
			<path class="st1" d="M29.3,129c0-1.8,0.4-3.3,2.5-3.3s2.5,1.5,2.5,3.3s-0.4,3.3-2.5,3.3S29.3,130.8,29.3,129z M30.3,129
				c0,1.5,0.3,2.4,1.5,2.4c1.2,0,1.5-0.9,1.5-2.4s-0.3-2.4-1.5-2.4S30.2,127.5,30.3,129L30.3,129z"/>
		</g>
		<g>
			<path class="st1" d="M36.9,126.7v5.5h-1v-5.5h-1.6v-0.9h4.3v0.9H36.9z"/>
		</g>
		<g>
			<path class="st1" d="M42.8,129.3h-2.7v2h2.9v0.9h-3.9v-6.4h3.9v0.9h-2.9v1.8h2.7V129.3z"/>
		</g>
		<g>
			<path class="st1" d="M11.1,139.3c0,1.2-0.7,2-2.4,2c-0.6,0-1.3-0.1-1.9-0.4V140c0.6,0.3,1.2,0.4,1.8,0.4c1.1,0,1.5-0.5,1.5-1.1
				s-0.3-0.9-1.2-1c-1.6-0.2-2.2-0.6-2.2-1.8c0-0.9,0.5-1.8,2.3-1.8c0.6,0,1.2,0.1,1.7,0.3v1c-0.5-0.2-1.1-0.3-1.7-0.3
				c-1,0-1.3,0.4-1.3,1s0.4,0.8,1.2,0.9C10.3,137.7,11.1,138,11.1,139.3z"/>
		</g>
		<g>
			<path class="st1" d="M11.7,139.2v-4.4h1v4.3c-0.1,0.7,0.4,1.3,1.1,1.3c0.1,0,0.2,0,0.3,0c0.6,0.1,1.3-0.3,1.4-1
				c0-0.1,0-0.2,0-0.3v-4.3h0.9v4.4c0.1,1.1-0.8,2.1-1.9,2.1c-0.1,0-0.3,0-0.4,0c-1.1,0.2-2.1-0.6-2.3-1.7
				C11.7,139.5,11.7,139.3,11.7,139.2z"/>
		</g>
		<g>
			<path class="st1" d="M21.3,139.3c0,1.2-0.7,2-2.4,2c-0.6,0-1.3-0.1-1.9-0.4V140c0.6,0.3,1.2,0.4,1.8,0.4c1.1,0,1.5-0.5,1.5-1.1
				s-0.3-0.9-1.2-1c-1.5-0.2-2.2-0.6-2.2-1.8c0-0.9,0.5-1.8,2.3-1.8c0.6,0,1.2,0.1,1.8,0.3v1c-0.5-0.2-1.1-0.3-1.7-0.3
				c-1,0-1.3,0.4-1.3,1s0.4,0.8,1.2,0.9C20.5,137.7,21.3,138,21.3,139.3z"/>
		</g>
		<g>
			<path class="st1" d="M24,135.7v5.5h-1v-5.5h-1.6v-0.9h4.3v0.9H24z"/>
		</g>
		<g>
			<path class="st1" d="M28.7,139.6h-2l-0.5,1.6h-1l2-6.4h1l2,6.4h-1L28.7,139.6z M27.7,136l-0.8,2.8h1.6L27.7,136z"/>
		</g>
		<g>
			<path class="st1" d="M30.9,141.2v-6.4h1v6.4H30.9z"/>
		</g>
		<g>
			<path class="st1" d="M36.6,141.2l-2.8-4.5v4.5h-0.9v-6.4h0.9l2.8,4.5v-4.5h0.9v6.4H36.6z"/>
		</g>
		<g>
			<path class="st1" d="M41.5,139.6h-2l-0.5,1.6h-1l2-6.4h1l2,6.4h-1L41.5,139.6z M40.5,136l-0.8,2.8h1.6L40.5,136z"/>
		</g>
		<g>
			<path class="st1" d="M43.5,134.8h2.2c1.5,0,2,0.8,2,1.7c0,0.5-0.3,1-0.8,1.3c0.6,0.2,1.1,0.8,1,1.5c0,1.1-0.5,1.9-2.2,1.9h-2.2
				L43.5,134.8z M45.7,135.7h-1.2v1.8h1.2c0.8,0,1-0.5,1-0.9S46.5,135.7,45.7,135.7z M44.5,140.3h1.3c0.9,0,1.1-0.5,1.1-1
				s-0.3-1-1.1-1h-1.3L44.5,140.3z"/>
		</g>
		<g>
			<path class="st1" d="M49.6,140.3h2.8v0.9h-3.7v-6.4h1L49.6,140.3z"/>
		</g>
		<g>
			<path class="st1" d="M56.5,138.3h-2.6v2h2.9v0.9h-3.9v-6.4h3.9v0.9h-2.9v1.8h2.7L56.5,138.3z"/>
		</g>
		<g>
			<path class="st1" d="M9.2,144.7v5.5h-1v-5.5H6.6v-0.9h4.3v0.9H9.2z"/>
		</g>
		<g>
			<path class="st1" d="M15,147.3h-2.6v2h2.9v0.9h-3.9v-6.4h3.9v0.9h-2.9v1.8H15V147.3z"/>
		</g>
		<g>
			<path class="st1" d="M18.5,143.7c0.5,0,1,0.1,1.5,0.3v0.9c-0.5-0.2-0.9-0.3-1.4-0.3c-1.2,0-1.7,0.8-1.7,2.4s0.5,2.4,1.7,2.4
				c0.5,0,1-0.1,1.4-0.3v0.9c-0.5,0.2-1,0.3-1.5,0.3c-1.9,0-2.6-1.2-2.6-3.3S16.6,143.7,18.5,143.7z"/>
		</g>
		<g>
			<path class="st1" d="M24.4,150.2v-2.9h-2.6v2.9h-1v-6.4h1v2.6h2.6v-2.6h1v6.4H24.4z"/>
		</g>
		<g>
			<path class="st1" d="M30,150.2l-2.8-4.5v4.5h-0.9v-6.4h0.9l2.9,4.5v-4.5h0.9v6.4H30z"/>
		</g>
		<g>
			<path class="st1" d="M31.8,147c0-1.8,0.4-3.3,2.5-3.3s2.5,1.5,2.5,3.3s-0.4,3.3-2.5,3.3S31.8,148.8,31.8,147z M32.8,147
				c0,1.5,0.3,2.4,1.5,2.4s1.5-0.9,1.5-2.4s-0.3-2.4-1.5-2.4S32.7,145.5,32.8,147L32.8,147z"/>
		</g>
		<g>
			<path class="st1" d="M38.4,149.3h2.8v0.9h-3.7v-6.4h1L38.4,149.3z"/>
		</g>
		<g>
			<path class="st1" d="M41.2,147c0-1.8,0.4-3.3,2.5-3.3s2.5,1.5,2.5,3.3s-0.4,3.3-2.5,3.3S41.2,148.8,41.2,147z M42.2,147
				c0,1.5,0.3,2.4,1.5,2.4s1.5-0.9,1.5-2.4s-0.3-2.4-1.5-2.4S42.2,145.5,42.2,147L42.2,147z"/>
		</g>
		<g>
			<path class="st1" d="M46.8,147c0-2,0.7-3.3,2.6-3.3c0.6,0,1.3,0.1,1.8,0.3v1c-0.5-0.2-1.1-0.4-1.7-0.4c-1.3,0-1.8,0.9-1.8,2.4
				s0.5,2.4,1.8,2.4c0.3,0,0.6,0,0.9-0.1v-1.7h-1.1v-0.9h2.1v3.2c-0.6,0.3-1.3,0.4-2,0.4C47.5,150.3,46.8,149,46.8,147z"/>
		</g>
		<g>
			<path class="st1" d="M52.5,150.2v-6.4h1v6.4H52.5z"/>
		</g>
		<g>
			<path class="st1" d="M58.1,147.3h-2.7v2h2.9v0.9h-3.9v-6.4h3.9v0.9h-2.9v1.8h2.7V147.3z"/>
		</g>
		<g>
			<path class="st1" d="M63.3,148.3c0,1.2-0.7,2-2.4,2c-0.6,0-1.3-0.1-1.9-0.4V149c0.6,0.3,1.2,0.4,1.8,0.4c1.2,0,1.5-0.5,1.5-1.1
				s-0.3-0.9-1.2-1c-1.5-0.2-2.2-0.6-2.2-1.8c0-0.9,0.5-1.8,2.3-1.8c0.6,0,1.2,0.1,1.7,0.3v1c-0.5-0.2-1.1-0.3-1.7-0.3
				c-1,0-1.3,0.4-1.3,1s0.4,0.8,1.2,0.9C62.6,146.7,63.3,147,63.3,148.3z"/>
		</g>
		<g>
			<path class="st1" d="M9.2,153.7v5.5h-1v-5.5H6.6v-0.9h4.3v0.9H9.2z"/>
		</g>
		<g>
			<path class="st1" d="M11.1,156c0-1.8,0.4-3.3,2.5-3.3s2.5,1.5,2.5,3.3s-0.4,3.3-2.4,3.3S11.1,157.8,11.1,156z M12.1,156
				c0,1.5,0.3,2.4,1.5,2.4s1.5-0.9,1.5-2.4s-0.3-2.4-1.5-2.4S12,154.5,12.1,156L12.1,156z"/>
		</g>
		<g>
			<path class="st1" d="M18.2,159.2v-6.4h1.9c2.1,0,2.7,1.4,2.7,3.2s-0.6,3.2-2.7,3.2H18.2z M19.2,158.3h1c1.3,0,1.7-0.9,1.7-2.3
				s-0.4-2.3-1.7-2.3h-1V158.3z"/>
		</g>
		<g>
			<path class="st1" d="M27.1,156.3h-2.7v2h2.9v0.9h-3.9v-6.4h3.9v0.9h-2.9v1.8h2.6L27.1,156.3z"/>
		</g>
		<g>
			<path class="st1" d="M32.8,152.8l-2,6.4h-1l-2-6.4h1l1.5,5.2l1.5-5.2L32.8,152.8z"/>
		</g>
		<g>
			<path class="st1" d="M36.9,156.3h-2.6v2h2.9v0.9h-3.9v-6.4h3.9v0.9h-2.9v1.8h2.7L36.9,156.3z"/>
		</g>
		<g>
			<path class="st1" d="M39,158.3h2.8v0.9H38v-6.4h1L39,158.3z"/>
		</g>
		<g>
			<path class="st1" d="M41.8,156c0-1.8,0.4-3.3,2.5-3.3s2.5,1.5,2.5,3.3s-0.4,3.3-2.5,3.3S41.8,157.8,41.8,156z M42.8,156
				c0,1.5,0.3,2.4,1.5,2.4s1.5-0.9,1.5-2.4s-0.3-2.4-1.5-2.4S42.8,154.5,42.8,156L42.8,156z"/>
		</g>
		<g>
			<path class="st1" d="M48.4,159.2h-1v-6.4h2c1.6,0,2.2,0.9,2.2,2s-0.6,2-2.2,2h-1V159.2z M48.4,155.9h1.1c0.6,0.1,1.2-0.4,1.2-1
				s-0.4-1.2-1-1.2c-0.1,0-0.1,0-0.2,0h-1.1V155.9z"/>
		</g>
		<g>
			<path class="st1" d="M52.3,159.2v-6.4h1v6.4H52.3z"/>
		</g>
		<g>
			<path class="st1" d="M58,159.2l-2.8-4.5v4.5h-0.9v-6.4h0.9l2.8,4.5v-4.5h1v6.4H58z"/>
		</g>
		<g>
			<path class="st1" d="M59.6,156c0-2,0.7-3.3,2.6-3.3c0.6,0,1.3,0.1,1.8,0.3v0.9c-0.5-0.2-1.1-0.4-1.7-0.4c-1.3,0-1.8,0.9-1.8,2.4
				s0.5,2.4,1.8,2.4c0.3,0,0.6,0,0.9-0.1v-1.7h-1.1v-0.9h2.1v3.2c-0.6,0.3-1.3,0.4-2,0.4C60.3,159.3,59.6,158,59.6,156z"/>
		</g>
		<g>
			<path class="st1" d="M9.4,161.7c0.5,0,1,0.1,1.5,0.3v0.9c-0.5-0.2-0.9-0.3-1.4-0.3c-1.2,0-1.7,0.8-1.7,2.4s0.5,2.4,1.7,2.4
				c0.5,0,1-0.1,1.4-0.3v0.9c-0.5,0.2-1,0.3-1.5,0.3c-1.9,0-2.6-1.2-2.6-3.3S7.5,161.7,9.4,161.7z"/>
		</g>
		<g>
			<path class="st1" d="M11.6,165c0-1.8,0.4-3.3,2.5-3.3s2.4,1.5,2.4,3.3s-0.4,3.3-2.4,3.3S11.6,166.8,11.6,165z M12.6,165
				c0,1.5,0.3,2.4,1.5,2.4s1.5-0.9,1.5-2.4s-0.3-2.4-1.5-2.4S12.6,163.5,12.6,165L12.6,165z"/>
		</g>
		<g>
			<path class="st1" d="M17.2,166.2v-4.4h1v4.3c-0.1,0.7,0.4,1.3,1,1.3c0.1,0,0.2,0,0.3,0c0.6,0.1,1.3-0.3,1.4-1c0-0.1,0-0.2,0-0.3
				v-4.3h1v4.4c0.1,1.1-0.8,2.1-1.9,2.1c-0.1,0-0.3,0-0.4,0c-1.1,0.2-2.1-0.6-2.3-1.7C17.2,166.5,17.2,166.3,17.2,166.2z"/>
		</g>
		<g>
			<path class="st1" d="M26.4,168.2l-2.8-4.5v4.5h-1v-6.4h0.9l2.8,4.5v-4.5h0.9v6.4H26.4z"/>
		</g>
		<g>
			<path class="st1" d="M30.4,162.7v5.5h-1v-5.5h-1.6v-0.9h4.3v0.9H30.4z"/>
		</g>
		<g>
			<path class="st1" d="M33.6,168.2h-1v-6.4h2.1c1.7,0,2.2,0.7,2.2,1.9c0.1,0.7-0.3,1.4-1,1.7l1.3,2.8H36l-1.2-2.6h-1.3V168.2z
				 M33.6,164.7h1.3c0.9,0,1-0.5,1-1s-0.1-1-1-1h-1.3V164.7z"/>
		</g>
		<g>
			<path class="st1" d="M37.8,168.2v-6.4h1v6.4H37.8z"/>
		</g>
		<g>
			<path class="st1" d="M43.5,165.3h-2.6v2h2.9v0.9h-3.9v-6.4h3.9v0.9h-2.9v1.8h2.7L43.5,165.3z"/>
		</g>
		<g>
			<path class="st1" d="M48.6,166.3c0,1.2-0.7,2-2.4,2c-0.6,0-1.3-0.1-1.9-0.4V167c0.6,0.3,1.2,0.4,1.8,0.4c1.2,0,1.5-0.5,1.5-1.1
				s-0.3-0.9-1.2-1c-1.5-0.2-2.2-0.6-2.2-1.8c0-0.9,0.5-1.8,2.3-1.8c0.6,0,1.2,0.1,1.7,0.3v1c-0.5-0.2-1.1-0.3-1.7-0.3
				c-1,0-1.3,0.4-1.3,1s0.4,0.8,1.2,0.9C47.8,164.7,48.6,165,48.6,166.3z"/>
		</g>
	</g>
	<g>
		<rect x="3.3" y="24" class="st1" width="94.8" height="94.8"/>
	</g>
	<g>
		<path class="st1" d="M98.2,20.7H3.3V3.3h94.8V20.7z M4.3,19.7h92.8V4.3H4.3L4.3,19.7z"/>
	</g>
	<g class="st2">
		<path class="st1" d="M6.7,6.9h4.5v1.4H9.9v8.8H8.1V8.3H6.7V6.9z"/>
	</g>
	<g class="st2">
		<path class="st1" d="M11.2,17.1l1.9-10.2h1.9L17,17.1h-1.8l-0.3-1.9h-1.8l-0.3,1.9H11.2z M13.3,13.9h1.4L14,9.8h0L13.3,13.9z"/>
	</g>
	<g class="st2">
		<path class="st1" d="M19.6,12.4v4.7h-1.7V6.9h2.5c1.7,0,2.4,0.9,2.4,2.3v1.3c0,1.1-0.4,1.7-1.4,2l1.6,4.6h-1.8L19.6,12.4z
			 M19.6,8.3v3.2h0.6c0.6,0,0.8-0.3,0.8-0.8V9.2c0-0.6-0.3-0.8-0.8-0.8H19.6z"/>
	</g>
	<g class="st2">
		<path class="st1" d="M26.4,11.7h2.4v5.4h-1.2V16c-0.2,0.8-0.7,1.2-1.6,1.2c-1.5,0-2.1-1.2-2.1-2.7V9.6c0-1.6,0.8-2.7,2.6-2.7
			c1.9,0,2.4,1.1,2.4,2.6v0.9h-1.6v-1c0-0.6-0.2-1-0.9-1c-0.6,0-0.9,0.4-0.9,1v5.5c0,0.6,0.3,1,0.8,1c0.6,0,0.8-0.3,0.8-1V13h-0.8
			V11.7z"/>
	</g>
	<g class="st2">
		<path class="st1" d="M30.2,6.9h4.1v1.4h-2.4v2.9h1.7v1.4h-1.7v3.1h2.4v1.4h-4.1V6.9z"/>
	</g>
	<g class="st2">
		<path class="st1" d="M35.1,6.9h4.5v1.4h-1.4v8.8h-1.7V8.3h-1.4V6.9z"/>
	</g>
	<g class="st2">
		<path class="st1" d="M79.2,6.9v10.2h-1.7V9.3h0l-1.2,1.2h0V8.8l1.6-1.8H79.2z"/>
		<path class="st1" d="M80.4,6.9h4.3v1.6l-2.2,8.6h-1.7l2.3-8.8h-2.6V6.9z"/>
	</g>
	<g class="st2">
	</g>
	<g class="st2">
		<path class="st1" d="M87.5,10.8c0.7,0,1.2,0.6,1.2,1.2c0,0.7-0.6,1.2-1.2,1.2c-0.7,0-1.2-0.6-1.2-1.2
			C86.2,11.4,86.8,10.8,87.5,10.8z"/>
	</g>
	<g class="st2">
		<path class="st1" d="M90.1,6.9h4.3v1.6l-2.2,8.6h-1.7l2.3-8.8h-2.6V6.9z"/>
	</g>
	<g>
		<g>
			<path class="st0" d="M85.5,58.4l-1.7-0.8c-0.6-0.2-0.9-0.8-0.9-1.4c0-0.3,0-0.6,0-1v-1c0-0.6,0.3-1.2,0.9-1.4l1.6-0.8
				c0.6-0.2,1-0.9,0.8-1.5c0-0.1,0-0.1-0.1-0.2c-0.4-1.3-0.9-2.5-1.6-3.7C84.3,46,83.6,45.7,83,46c0,0,0,0,0,0l-1.8,0.6
				c-0.6,0.2-1.3,0.1-1.7-0.4c-0.2-0.2-0.4-0.5-0.7-0.7s-0.5-0.5-0.7-0.7c-0.5-0.4-0.7-1.2-0.4-1.8c0.2-0.6,0.4-1.2,0.6-1.8
				c0.2-0.5,0-1.2-0.5-1.4c0,0-0.1,0-0.1-0.1l-3.8-1.5c-0.5-0.3-1.2,0-1.4,0.5c0,0,0,0,0,0.1c-0.3,0.6-0.6,1.3-0.9,1.9
				c-0.2,0.5-0.7,0.8-1.2,0.8c-0.6,0-1.1,0-1.7,0h-0.5c-0.6,0-1.2-0.3-1.4-0.9c-0.3-0.6-0.6-1.2-0.9-1.8c-0.2-0.5-0.8-0.8-1.4-0.6
				c-1.4,0.4-2.7,0.9-4,1.7c-0.5,0.3-0.8,0.9-0.5,1.5c0,0,0,0,0,0c0.2,0.6,0.4,1.2,0.6,1.7c0.3,0.6,0.1,1.4-0.4,1.8
				c-0.2,0.2-0.5,0.4-0.7,0.7l-0.7,0.7c-0.4,0.5-1.1,0.7-1.7,0.4l-1.8-0.6c-0.5-0.2-1.2,0-1.4,0.5c0,0,0,0.1,0,0.1l-1.5,3.7
				C52,51,52.2,51.7,52.7,52c0.1,0,0.1,0.1,0.2,0.1l1.8,0.8c0.5,0.2,0.8,0.7,0.8,1.3c0,0.4,0,0.7,0,1.1s0,0.7,0,1.1
				c0,0.6-0.3,1.2-0.9,1.4L53,58.7c-0.6,0.2-0.9,0.9-0.7,1.5c0,0,0,0.1,0,0.1c0.4,1.3,0.9,2.6,1.6,3.8c0.3,0.6,0.9,0.8,1.5,0.6
				c0,0,0,0,0,0c0.6-0.2,1.2-0.4,1.9-0.7c0.6-0.2,1.2-0.1,1.6,0.4l1.5,1.4c0.5,0.4,0.6,1.1,0.4,1.7c-0.2,0.6-0.4,1.2-0.7,1.9
				c-0.2,0.5,0,1.2,0.5,1.4c0,0,0.1,0,0.1,0c1.2,0.5,2.5,1,3.8,1.5c0.5,0.3,1.2,0,1.5-0.5c0,0,0-0.1,0-0.1c0.3-0.6,0.6-1.2,0.8-1.8
				c0.2-0.5,0.7-0.8,1.3-0.8c0.5,0,1.1,0,1.6,0h0.6c0.6,0,1.2,0.3,1.4,0.9c0.3,0.6,0.6,1.2,0.9,1.8c0.2,0.6,0.8,0.8,1.4,0.7
				c1.4-0.4,2.8-0.9,4-1.7c0.4-0.2,0.6-0.6,0.6-1.1c0-0.1,0-0.3-0.1-0.4c-0.2-0.6-0.4-1.2-0.6-1.7c-0.3-0.6-0.1-1.3,0.4-1.8
				c0.5-0.4,0.9-0.9,1.3-1.4c0.4-0.5,1.1-0.6,1.7-0.4l1.8,0.6c0.5,0.3,1.2,0,1.4-0.5c0,0,0-0.1,0.1-0.1c0.5-1.2,1-2.5,1.5-3.7
				c0.3-0.5,0.2-1.2-0.3-1.5C85.7,58.5,85.6,58.5,85.5,58.4z M69.2,63.4c-4.5,0-8.1-3.6-8.1-8.1c0-4.5,3.6-8.1,8.1-8.1
				c4.5,0,8.1,3.6,8.1,8.1c0,0,0,0,0,0C77.3,59.8,73.7,63.4,69.2,63.4L69.2,63.4z"/>
		</g>
		<g>
			<g>
				<path class="st0" d="M61.6,79.4c-0.1-0.6-0.6-1-1.2-1c-0.6,0-1.1,0-1.7-0.1s-1.2-0.2-1.4-0.8c-0.3-1.1-0.6-2.2-1.1-3.3
					c-0.3-0.6-0.1-1.3,0.4-1.7c0.5-0.4,0.9-0.8,1.4-1.2c0.4-0.4,0.6-1,0.3-1.5c-0.7-1.3-1.6-2.4-2.6-3.5c-0.4-0.5-1.1-0.5-1.6-0.2
					c0,0,0,0,0,0c-0.5,0.3-0.9,0.6-1.4,1s-1.1,0.6-1.6,0.1c-1-0.7-2.1-1.6-2.8-2c-0.6-0.3-0.8-1-0.6-1.6c0.2-0.7,0.3-1.2,0.4-1.8
					c0.2-0.6-0.1-1.1-0.6-1.4c-1.3-0.6-2.7-1-4.2-1.3c-0.6-0.1-1.2,0.2-1.4,0.8c-0.2,0.6-0.4,1-0.6,1.6s-0.5,1.1-1.2,1.1
					c-1.4,0-2.5,0-3.4,0c-0.6,0.1-1.2-0.3-1.5-0.9c-0.2-0.6-0.5-1.1-0.7-1.7c-0.2-0.5-0.8-0.8-1.3-0.7c-1.4,0.3-2.8,0.7-4.1,1.4
					c-0.6,0.2-0.9,0.9-0.6,1.5c0.2,0.6,0.3,1,0.5,1.6s0.2,1.2-0.4,1.6s-2,1.4-2.8,2c-0.5,0.4-1.2,0.5-1.7,0.1c-0.6-0.4-1-0.6-1.6-1
					c-0.5-0.3-1.1-0.2-1.5,0.2c-1,1.1-1.8,2.3-2.5,3.6c-0.3,0.5-0.2,1.2,0.3,1.5c0,0,0,0,0,0c0.5,0.4,0.9,0.7,1.3,1s0.9,0.9,0.6,1.5
					s-0.8,2.6-1,3.3c-0.1,0.6-0.7,1.1-1.3,1.1c-0.7,0-1.2,0.1-1.9,0.2c-0.6,0-1,0.4-1.1,1c-0.2,1.5-0.1,2.9,0.1,4.4
					c0.1,0.6,0.6,1,1.2,1c0.6,0,1.1,0,1.7,0.1s1.2,0.2,1.4,0.8c0.3,1.1,0.7,2.2,1.1,3.3c0.3,0.6,0.1,1.3-0.4,1.7
					c-0.5,0.4-0.9,0.8-1.4,1.2c-0.6,0.3-0.7,1-0.4,1.6c0,0,0,0.1,0.1,0.1c0.7,1.3,1.6,2.5,2.6,3.5c0.4,0.5,1.1,0.5,1.6,0.2
					c0.5-0.3,0.9-0.6,1.4-1s1.1-0.6,1.6-0.1s2.1,1.6,2.8,2c0.6,0.3,0.8,1,0.6,1.6c-0.2,0.7-0.3,1.2-0.4,1.8
					c-0.2,0.6,0.1,1.1,0.6,1.4c1.3,0.6,2.7,1,4.2,1.3c0.6,0.1,1.2-0.2,1.4-0.8c0.2-0.6,0.4-1,0.6-1.6s0.5-1.1,1.2-1.1
					c1.3,0,2.3,0,3.5,0c0.6-0.1,1.2,0.3,1.5,0.9c0.2,0.6,0.5,1.1,0.7,1.7c0.2,0.5,0.8,0.8,1.3,0.7c1.4-0.3,2.8-0.8,4.1-1.5
					c0.6-0.2,0.9-0.9,0.6-1.5c-0.2-0.6-0.3-1-0.5-1.6s-0.2-1.2,0.4-1.6s2.2-1.6,2.8-2c0.5-0.4,1.2-0.5,1.7-0.1c0.6,0.4,1,0.6,1.6,1
					c0.5,0.3,1.1,0.2,1.5-0.2c1-1.1,1.8-2.3,2.5-3.6c0.3-0.5,0.2-1.2-0.3-1.6c-0.5-0.4-0.9-0.7-1.3-1S56,90,56.3,89.4s0.8-2.5,1-3.3
					c0.1-0.6,0.7-1.1,1.3-1.1c0.7,0,1.2-0.1,1.9-0.2c0.6,0,1-0.4,1.1-1C61.8,82.4,61.8,80.8,61.6,79.4z M38.6,96.4
					c-7.9,0-14.3-6.5-14.3-14.4s6.5-14.3,14.4-14.3S53,74.2,52.9,82.1c0,0,0,0,0,0C52.9,90,46.5,96.4,38.6,96.4L38.6,96.4z"/>
			</g>
			<g>
				<path class="st0" d="M28,78c0.3,0.2,0.6,0,0.7-0.2c0.1-0.2,0.1-0.4,0-0.5c-0.1-0.2,0.2-0.3,0.3-0.3c0.3-0.2,0.7-0.4,1-0.6
					c0.6-0.2,1.3-0.2,1.9,0c0.4,0.2,1,0.1,1.3-0.2c0.3-0.3,0.6-0.6,0.9-0.8c0.2-0.1-0.5-0.7-1,0s-0.8,0.7-1,0.7s-1.7-0.4-1.9-0.8
					s0.5-0.8,1-1.1c0.8-0.2,1.6-0.3,2.4-0.3c0.8-0.2,1.7-0.6,2.2-0.2s-2.1,0.9-1.2,1.4c0.3,0.2,1.6-0.8,2.1-1c1.1-0.6-1-0.8-0.8-1.9
					s-2.5-0.8-4-0.7c-0.7,0.4-1.4,0.9-2,1.5c0.2,0,0.4,0.1,0.4,0.2c0,0.3-0.1,0.6-0.2,0.8c-0.4,0.4-0.8,0.6-1.4,0.6
					c-0.1,0-0.2-0.1-0.2-0.1c-0.2,0.3-0.4,0.6-0.6,0.9c0.3-0.2,0.6-0.3,0.9-0.3c0.3,0,0.7,0.1,0.8,0.3s-0.8,0.6-0.9,0.7
					c-0.4,0.4-1.1,1.2-1.5,1.3c-0.1,0-0.2,0-0.3,0c-0.1,0.3-0.2,0.6-0.3,0.8C27,77.9,27.5,77.9,28,78z"/>
			</g>
			<g>
				<path class="st0" d="M48.8,81.4c-0.4,0.3-0.9,0.5-1.3,0.5c-0.5,0.4-0.7,0.9-0.7,1.5c0.1,0.5,1.2,1.8,0.4,1.7
					c-0.8-0.4-1.5-1-2-1.7c-0.3-0.7-0.5-1.4-0.8-1.9c-0.1-0.4-0.5-0.6-0.9-0.5c-0.1,0-0.2,0.1-0.2,0.1c-0.5,0.3,0.1,0.6-0.2,1.3
					s-0.6,1.2-1,0.7c-1.2-1.4-3-0.7-3.3-2.3c-0.1-0.8-0.9-0.8-1.5-1.2s-1-0.7-1.1-0.4s1.9,1.9,2.1,2.3c0.2,0.6-0.6,1.2-1.2,1.3
					s-0.9-0.3-1.5-0.9s-0.8-1.1-0.9-0.6c0,0.8,0.5,1.6,1.2,2.1c0.5,0.3,1.1,0.5,0.9,1s0,0.2-0.6,0.8c-0.5,0.3-0.8,0.9-0.7,1.5
					c0,0.8-0.2,0.8-0.3,1.5s-0.4,0.1-0.7,1c-0.1,0.6-0.4,1.2-0.8,1.6c-0.5,0.4-1.1,0.6-1.7,0.7c-0.6,0-0.6-1.6-0.6-2.4
					c0-0.3-0.4,0.5-0.6-1.1c-0.1-1.1-0.8,0.1-0.9-0.6s-0.4-0.6-0.7-1s-0.8,0-1.3,0.3s-0.3,0.3-1,0.1h0c1.5,3.5,4.4,6.1,8.1,7.2
					c-0.2-0.1-0.2-0.4-0.2-0.6c0.5-0.9,1.4-1.4,2.5-1.4c2-0.2,4.7,1.3,5.2,1.1s1.3-1.4,2.6-1.3c0.4,0,0.8,0.1,1.1,0.3
					c0.4-0.3,0.9-0.7,1.3-1.1c-0.1,0-0.3-0.1-0.4-0.1c-0.7-0.4-0.6,0.2-1,0.1s0.4-0.9-0.6-0.2s-0.7-0.1-1.2-1.2
					c-0.3-1.1,0.3-2.2,1.3-2.7c0.8-0.3,1.5-0.5,2.3-0.6c1.5-0.4,1.8-1.3,2.1-0.7c0,0.1,0.1,0.2,0.2,0.3c0.1,0.2,0.2,0.5,0.2,0.8
					c0.2-0.6,0.4-1.3,0.6-1.9c-0.4-0.2-1.7-2.1-0.6-3.3c0.2-0.2-0.4-0.8-0.2-0.9c0.5,0,0.9,0.3,1,0.8c0-0.7-0.1-1.3-0.3-2
					c0,0.1,0,0.3,0,0.4c-0.2,0.4-0.7,0.6-1.1,0.5c-0.2-0.1-0.3-0.2-0.4-0.3c-0.1-0.2-0.7-0.7-0.7,0.2S49.6,80.9,48.8,81.4z
					 M36.9,86.4c-0.2,0.3-0.7,2.4-1,2.2s0.1-2.5,0.2-2.6C36.7,85,37.7,85,36.9,86.4L36.9,86.4z M42.1,83.9c-0.4,0.2-0.9,0.2-1.2-0.1
					c-0.3-0.2,0.2-0.7,0.4-0.7C41.7,83.1,42.3,83.7,42.1,83.9L42.1,83.9z M47.3,83.5c-0.1-0.3,0.2-0.5,0.4-0.4s0.6,0.5,0.6,0.7
					S47.8,84,47.7,84S47.4,83.8,47.3,83.5L47.3,83.5z M49,85.1c-0.4,0.2-0.9,0.2-1.2-0.1c-0.3-0.3,0.2-0.7,0.4-0.7
					C48.6,84.3,49.2,84.9,49,85.1z"/>
			</g>
			<g>
				<path class="st0" d="M27.5,79.4c0.7,0.1,1.4,0.3,2.1,0.5c0.7,0.3,1.9,0.9,2.5,0.6c0.5-0.2,0.9-0.5,0.8-0.9s-0.5-0.6-0.9-0.3
					c-0.2,0.1-0.6-0.8-0.9-0.7s0.4,1.1,0.1,1.1s-0.8-1-0.8-1.2s-0.5-0.6-0.8-0.3c-0.8,0.7-2,0.7-2.2,0.8c-0.1,0.1-0.2,0.1-0.2,0.2
					c-0.5,0.2-0.6-0.3-0.7-0.7c-0.2,0.7-0.4,1.4-0.4,2.2l0.1-0.1c0.4-0.8,0.5-0.9,0.6-0.9c0.2-0.1,0.3-0.1,0.5-0.2L27.5,79.4z"/>
			</g>
		</g>
	</g>
	<g>
		<path class="st1" d="M98.2,171.9h-95v-49.7h95V171.9z M4.2,170.9h93v-47.7h-93V170.9z"/>
	</g>
</g>
</svg>
