<?xml version="1.0" encoding="utf-8"?>
<!-- Generator: Adobe Illustrator 22.0.1, SVG Export Plug-In . SVG Version: 6.00 Build 0)  -->
<svg version="1.1" id="Layer_1" xmlns="http://www.w3.org/2000/svg" xmlns:xlink="http://www.w3.org/1999/xlink" x="0px" y="0px"
	 viewBox="0 0 101.5 148.1" style="enable-background:new 0 0 101.5 148.1;" xml:space="preserve">
<style type="text/css">
	.st0{fill:#FFFFFF;}
	.st1{fill:#19486A;}
	.st2{enable-background:new    ;}
</style>
<title>TARGET 1 B copy 19</title>
<g id="WHITE_BG">
	<g>
		<rect y="0" class="st0" width="101.5" height="148.1"/>
	</g>
</g>
<g id="TARGETS">
	<g>
		<g>
			<path class="st1" d="M10.5,129.3H7.8v2h2.9v0.9H6.9v-6.4h3.9v0.9H7.8v1.8h2.6V129.3z"/>
		</g>
		<g>
			<path class="st1" d="M15.3,132.2l-2.8-4.5v4.5h-0.9v-6.4h0.9l2.8,4.5v-4.5h0.9v6.4H15.3z"/>
		</g>
		<g>
			<path class="st1" d="M19.5,125.7c0.5,0,1,0.1,1.5,0.3v0.9c-0.4-0.2-0.9-0.3-1.4-0.3c-1.2,0-1.7,0.8-1.7,2.4s0.5,2.4,1.7,2.4
				c0.5,0,1-0.1,1.4-0.3v0.9c-0.5,0.2-1,0.3-1.5,0.3c-1.9,0-2.6-1.2-2.6-3.3S17.6,125.7,19.5,125.7z"/>
		</g>
		<g>
			<path class="st1" d="M21.6,129c0-1.8,0.4-3.3,2.5-3.3s2.5,1.5,2.5,3.3s-0.4,3.3-2.5,3.3S21.6,130.8,21.6,129z M22.6,129
				c0,1.5,0.3,2.4,1.5,2.4s1.5-0.9,1.5-2.4s-0.3-2.4-1.5-2.4S22.6,127.5,22.6,129L22.6,129z"/>
		</g>
		<g>
			<path class="st1" d="M27.2,130.2v-4.4h1v4.3c-0.1,0.7,0.4,1.2,1,1.3c0.1,0,0.2,0,0.3,0c0.7,0.1,1.3-0.4,1.4-1c0-0.1,0-0.2,0-0.3
				v-4.3h1v4.4c0.1,1.1-0.8,2.1-1.9,2.1c-0.1,0-0.3,0-0.4,0c-1.1,0.2-2.1-0.6-2.3-1.7C27.2,130.5,27.2,130.3,27.2,130.2z"/>
		</g>
		<g>
			<path class="st1" d="M33.7,132.2h-1v-6.4h2.1c1.7,0,2.2,0.7,2.2,1.9c0.1,0.7-0.3,1.4-1,1.7l1.3,2.8h-1.2l-1.2-2.6h-1.3V132.2z
				 M33.7,128.7H35c0.9,0,1-0.5,1-1s-0.1-1-1-1h-1.3V128.7z"/>
		</g>
		<g>
			<path class="st1" d="M41.1,130.6H39l-0.5,1.6h-1l2-6.4h1l2,6.4h-1L41.1,130.6z M40.1,127l-0.8,2.8h1.6L40.1,127z"/>
		</g>
		<g>
			<path class="st1" d="M42.8,129c0-2,0.7-3.3,2.6-3.3c0.6,0,1.2,0.1,1.8,0.3v1c-0.5-0.2-1.1-0.4-1.7-0.4c-1.3,0-1.8,0.9-1.8,2.4
				s0.5,2.4,1.8,2.4c0.3,0,0.6,0,0.9-0.1v-1.7h-1.1v-0.9h2.1v3.2c-0.6,0.3-1.3,0.4-2,0.4C43.5,132.3,42.8,131,42.8,129z"/>
		</g>
		<g>
			<path class="st1" d="M52,129.3h-2.7v2h2.9v0.9h-3.9v-6.4h3.9v0.9h-2.9v1.8H52V129.3z"/>
		</g>
		<g>
			<path class="st1" d="M58,129.3h-2.6v2h2.9v0.9h-3.9v-6.4h3.9v0.9h-2.9v1.8H58V129.3z"/>
		</g>
		<g>
			<path class="st1" d="M62.7,129.4h-2.6v2.8h-1v-6.4H63v0.9h-2.9v1.8h2.6V129.4z"/>
		</g>
		<g>
			<path class="st1" d="M67.1,129.4h-2.6v2.8h-1v-6.4h3.8v0.9h-2.8v1.8h2.6L67.1,129.4z"/>
		</g>
		<g>
			<path class="st1" d="M71.6,129.3h-2.7v2h2.9v0.9H68v-6.4h3.9v0.9h-3v1.8h2.7V129.3z"/>
		</g>
		<g>
			<path class="st1" d="M75.1,125.7c0.5,0,1,0.1,1.5,0.3v0.9c-0.5-0.2-0.9-0.3-1.4-0.3c-1.2,0-1.7,0.8-1.7,2.4s0.5,2.4,1.7,2.4
				c0.5,0,1-0.1,1.4-0.3v0.9c-0.5,0.2-1,0.3-1.5,0.3c-1.9,0-2.6-1.2-2.6-3.3S73.2,125.7,75.1,125.7z"/>
		</g>
		<g>
			<path class="st1" d="M79.4,126.7v5.5h-1v-5.5h-1.6v-0.9h4.3v0.9H79.4z"/>
		</g>
		<g>
			<path class="st1" d="M81.9,132.2v-6.4h0.9v6.4H81.9z"/>
		</g>
		<g>
			<path class="st1" d="M88.5,125.8l-2,6.4h-1l-2-6.4h1L86,131l1.5-5.2L88.5,125.8z"/>
		</g>
		<g>
			<path class="st1" d="M92.7,129.3H90v2h2.9v0.9H89v-6.4h3.9v0.9H90v1.8h2.7L92.7,129.3z"/>
		</g>
		<g>
			<path class="st1" d="M7.8,141.2h-1v-6.4h2.1c1.6,0,2.2,0.9,2.2,2s-0.6,2-2.2,2H7.8V141.2z M7.8,137.9H9c0.6,0.1,1.2-0.4,1.2-1
				c0.1-0.6-0.4-1.2-1-1.2c-0.1,0-0.1,0-0.2,0H7.8V137.9z"/>
		</g>
		<g>
			<path class="st1" d="M14.2,139.6h-2l-0.4,1.6h-1l2-6.4h1l2,6.4h-1L14.2,139.6z M13.2,136l-0.8,2.8H14L13.2,136z"/>
		</g>
		<g>
			<path class="st1" d="M17.1,141.2h-0.9v-6.4h2.1c1.6,0,2.2,0.7,2.2,1.9c0.1,0.7-0.3,1.4-1,1.7l1.3,2.8h-1.2l-1.2-2.6h-1.3V141.2z
				 M17.1,137.7h1.3c0.9,0,1-0.5,1-1s-0.1-1-1-1h-1.3V137.7z"/>
		</g>
		<g>
			<path class="st1" d="M23.2,135.7v5.5h-1v-5.5h-1.7v-0.9h4.3v0.9H23.2z"/>
		</g>
		<g>
			<path class="st1" d="M29.1,141.2l-2.8-4.5v4.5h-0.9v-6.4h0.9l2.8,4.5v-4.5h1v6.4H29.1z"/>
		</g>
		<g>
			<path class="st1" d="M34.5,138.3h-2.6v2h2.9v0.9h-3.9v-6.4h3.9v0.9h-2.9v1.8h2.6V138.3z"/>
		</g>
		<g>
			<path class="st1" d="M36.6,141.2h-1v-6.4h2.1c1.7,0,2.2,0.7,2.2,1.9c0.1,0.7-0.3,1.4-1,1.7l1.3,2.8h-1.1l-1.2-2.6h-1.3V141.2z
				 M36.6,137.7h1.3c0.9,0,1-0.5,1-1s-0.1-1-1-1h-1.3V137.7z"/>
		</g>
		<g>
			<path class="st1" d="M45,139.3c0,1.2-0.7,2-2.4,2c-0.6,0-1.3-0.1-1.9-0.4V140c0.6,0.3,1.2,0.4,1.8,0.4c1.2,0,1.5-0.5,1.5-1.1
				s-0.3-0.9-1.2-1c-1.6-0.2-2.2-0.6-2.2-1.8c0-0.9,0.5-1.8,2.3-1.8c0.6,0,1.2,0.1,1.7,0.3v1c-0.5-0.2-1.1-0.3-1.7-0.3
				c-1,0-1.3,0.4-1.3,1s0.4,0.8,1.2,0.9C44.2,137.7,45,138,45,139.3z"/>
		</g>
		<g>
			<path class="st1" d="M49.4,141.2v-2.9h-2.6v2.9h-1v-6.4h1v2.6h2.6v-2.6h1v6.4H49.4z"/>
		</g>
		<g>
			<path class="st1" d="M51.4,141.2v-6.4h1v6.4H51.4z"/>
		</g>
		<g>
			<path class="st1" d="M54.4,141.2h-1v-6.4h2c1.6,0,2.2,0.9,2.2,2s-0.6,2-2.2,2h-1.1L54.4,141.2z M54.4,137.9h1.1
				c0.6,0.1,1.2-0.4,1.2-1s-0.4-1.2-1-1.2c-0.1,0-0.1,0-0.2,0h-1.1V137.9z"/>
		</g>
		<g>
			<path class="st1" d="M62.5,139.3c0,1.2-0.7,2-2.4,2c-0.6,0-1.3-0.1-1.9-0.4V140c0.6,0.3,1.2,0.4,1.8,0.4c1.2,0,1.5-0.5,1.5-1.1
				s-0.3-0.9-1.2-1c-1.6-0.2-2.2-0.6-2.2-1.8c0-0.9,0.5-1.8,2.3-1.8c0.6,0,1.2,0.1,1.7,0.3v1c-0.5-0.2-1.1-0.3-1.7-0.3
				c-1,0-1.3,0.4-1.3,1s0.4,0.8,1.2,0.9C61.7,137.7,62.5,138,62.5,139.3z"/>
		</g>
	</g>
	<g>
		<rect x="3.3" y="24" class="st1" width="94.8" height="94.8"/>
	</g>
	<g>
		<path class="st1" d="M98.2,20.7H3.3V3.3h94.8V20.7z M4.3,19.7h92.8V4.3H4.3L4.3,19.7z"/>
	</g>
	<g class="st2">
		<path class="st1" d="M6.7,6.9h4.5v1.4H9.9v8.8H8.1V8.3H6.7V6.9z"/>
	</g>
	<g class="st2">
		<path class="st1" d="M11.2,17.1l1.9-10.2h1.9L17,17.1h-1.8l-0.3-1.9h-1.8l-0.3,1.9H11.2z M13.3,13.9h1.4L14,9.8h0L13.3,13.9z"/>
	</g>
	<g class="st2">
		<path class="st1" d="M19.6,12.4v4.7h-1.7V6.9h2.5c1.7,0,2.4,0.9,2.4,2.3v1.3c0,1.1-0.4,1.7-1.4,2l1.6,4.6h-1.8L19.6,12.4z
			 M19.6,8.3v3.2h0.6c0.6,0,0.8-0.3,0.8-0.8V9.2c0-0.6-0.3-0.8-0.8-0.8H19.6z"/>
	</g>
	<g class="st2">
		<path class="st1" d="M26.4,11.7h2.4v5.4h-1.2V16c-0.2,0.8-0.7,1.2-1.6,1.2c-1.5,0-2.1-1.2-2.1-2.7V9.6c0-1.6,0.8-2.7,2.6-2.7
			c1.9,0,2.4,1.1,2.4,2.6v0.9h-1.6v-1c0-0.6-0.2-1-0.9-1c-0.6,0-0.9,0.4-0.9,1v5.5c0,0.6,0.3,1,0.8,1c0.6,0,0.8-0.3,0.8-1V13h-0.8
			V11.7z"/>
	</g>
	<g class="st2">
		<path class="st1" d="M30.2,6.9h4.1v1.4h-2.4v2.9h1.7v1.4h-1.7v3.1h2.4v1.4h-4.1V6.9z"/>
	</g>
	<g class="st2">
		<path class="st1" d="M35.1,6.9h4.5v1.4h-1.4v8.8h-1.7V8.3h-1.4V6.9z"/>
	</g>
	<g class="st2">
		<path class="st1" d="M75,6.9v10.2h-1.7V9.3h0l-1.2,1.2h0V8.8l1.6-1.8H75z"/>
		<path class="st1" d="M76.2,6.9h4.3v1.6l-2.2,8.6h-1.7l2.3-8.8h-2.6V6.9z"/>
	</g>
	<g class="st2">
	</g>
	<g class="st2">
		<path class="st1" d="M83.3,10.8c0.7,0,1.2,0.6,1.2,1.2c0,0.7-0.6,1.2-1.2,1.2c-0.7,0-1.2-0.6-1.2-1.2C82,11.4,82.6,10.8,83.3,10.8
			z"/>
	</g>
	<g class="st2">
		<path class="st1" d="M88.9,6.9v10.2h-1.7V9.3h0L86,10.6h0V8.8l1.6-1.8H88.9z"/>
		<path class="st1" d="M90.2,6.9h4.3v1.6l-2.2,8.6h-1.7l2.3-8.8h-2.6V6.9z"/>
	</g>
	<g>
		<g>
			<path class="st0" d="M68.3,52.3c0-5-3.9-9.1-8.9-9.3c-1.7-4.8-7-7.3-11.8-5.5c-2.6,0.9-4.6,3-5.5,5.5c-5.1,0.2-9.1,4.5-8.9,9.6
				c0.1,2.7,1.4,5.3,3.6,7c-0.2,0.8-0.4,1.7-0.4,2.6c0,5.1,4.1,9.2,9.2,9.2c1.9,0,3.7-0.6,5.2-1.6c4.3,2.8,10,1.7,12.8-2.6
				c1.5-2.2,1.9-5,1.2-7.6C67,57.8,68.3,55.1,68.3,52.3 M58,46.1c0,3.7-2.7,6.8-6.3,7.3c-0.1-0.4-0.1-0.8-0.1-1.1
				c0-3.7,2.7-6.7,6.3-7.3C58.1,45.4,58.1,45.8,58,46.1 M50.7,67.3c-2.9-2.8-3-7.5-0.2-10.4c0,0,0.1-0.1,0.1-0.1
				c2.9,2.8,3,7.5,0.2,10.4C50.8,67.3,50.7,67.3,50.7,67.3 M43.4,45c3.6,0.5,6.3,3.6,6.3,7.3c0,0.4,0,0.8-0.1,1.1
				c-3.6-0.5-6.3-3.6-6.3-7.3C43.3,45.8,43.3,45.4,43.4,45 M48.9,55.6c-1.2,2.5-3.8,4.1-6.6,4.1c-1.2,0-2.3-0.3-3.4-0.8
				c1.2-2.5,3.8-4.1,6.6-4.1C46.7,54.8,47.8,55.1,48.9,55.6 M52.4,55.5c3.6-1.9,8.1-0.5,9.9,3.2c0,0,0,0.1,0.1,0.1
				c-3.6,1.9-8.1,0.5-9.9-3.2C52.5,55.6,52.4,55.6,52.4,55.5 M50.7,38.7c2.9,0,5.6,1.7,6.8,4.4c-3,0.5-5.5,2.5-6.8,5.2
				c-1.3-2.7-3.8-4.7-6.8-5.2C45.1,40.5,47.7,38.8,50.7,38.7 M34.9,52.3c0-3.8,2.8-6.9,6.6-7.3c-0.1,0.4-0.1,0.8-0.1,1.2
				c0,2.6,1.1,5.1,3,6.8c-3,0.3-5.7,2.1-7.1,4.8C35.8,56.3,34.9,54.3,34.9,52.3 M38.1,62.1c0-0.5,0.1-1,0.2-1.5
				c2.7,1.3,5.9,1.2,8.5-0.2c-0.1,0.6-0.2,1.1-0.2,1.7c0,2.4,0.9,4.7,2.6,6.4c-3.5,2.1-8,0.9-10.1-2.6
				C38.4,64.7,38.1,63.4,38.1,62.1 M63.2,62c0,4.1-3.3,7.4-7.4,7.4c-1.3,0-2.5-0.3-3.6-1c1.6-1.7,2.5-4,2.5-6.3
				c0-0.6-0.1-1.2-0.2-1.8c1.4,0.8,2.9,1.2,4.5,1.2c1.4,0,2.8-0.3,4-0.9C63.1,61.1,63.2,61.6,63.2,62 M57,52.9c1.9-1.7,3-4.2,3-6.8
				c0-0.4,0-0.8-0.1-1.2c4,0.5,6.9,4.1,6.5,8.1c-0.2,1.8-1.1,3.4-2.4,4.6C62.6,55.1,60,53.3,57,52.9"/>
		</g>
		<g>
			<g>
				<path class="st0" d="M84.1,92.1l-6.8-12.4c-0.1-0.2-0.4-0.3-0.6-0.2L68,83.8c-0.2,0.1-0.5,0.2-0.8,0.2c-0.3,0-0.6-0.1-0.9-0.2
					l-0.8-0.4c-2-1-8-4-8.8-4.3c-0.4-0.1-0.8-0.1-1.2,0c-0.2,0.1-5.3,1.8-6.5,2.2c-0.6,0.2-1.2,0.4-1.8,0.8c-0.4,0.3-7,5.1-7.5,5.5
					c-0.2,0.1-0.3,0.3-0.3,0.5c-0.1,0.6,0.1,1.2,0.5,1.7c0.4,0.5,1,0.7,1.7,0.7c0.5,0,0.9-0.1,1.4-0.2c0.4-0.1,9.4-3.9,9.4-3.9
					c0.2-0.1,0.5-0.1,0.7-0.2c0.3,0,0.6,0.1,0.9,0.3c0.7,0.6,17,13.4,17.5,13.9c0.1,0.1,0.3,0.1,0.4,0l0.1-0.1l12-7.7
					C84.3,92.3,84.2,92.2,84.1,92.1z"/>
			</g>
			<g>
				<path class="st0" d="M70,101.4L53.9,88.5c-0.3-0.2-0.6-0.3-0.9-0.4h-0.2c-0.2,0-0.3,0-0.5,0.1l-8.3,3.5
					c-0.7,0.3-1.5,0.5-2.2,0.5c-1.2,0-2.3-0.5-3.1-1.3c-0.9-0.7-1.3-1.7-1.2-2.8c0.1-0.8,0.6-1.5,1.3-1.8l0.5-0.3
					c-0.1,0-0.2,0-0.3,0l-0.8,0.1c-1.7,0.3-3.5,0.2-5.2-0.3c-2.4-0.8-9.3-4-9.3-4c0,0-0.1,0-0.1,0c-0.2,0-0.4,0.1-0.5,0.2l-5.7,10.2
					c0,0.1,0,0.1,0,0.2c0,0.1,0.1,0.1,0.2,0.2l11.7,5.8l1.4,0.7l0,0l0-0.2v-0.1v-0.1c0.7-1.8,2.7-2.7,4.4-2c0.8,0.3,1.4,0.9,1.8,1.6
					c1.5-1.2,3.6-1,4.8,0.5c0.1,0.1,0.2,0.3,0.3,0.4c0.6-0.5,1.4-0.8,2.2-0.8c1.6,0,3,1.1,3.4,2.7c0.4-0.2,0.9-0.3,1.3-0.3
					c1.9,0,3.5,1.6,3.5,3.5c0,0.2,0,0.3,0,0.5l5.1,4c0.3,0.2,0.6,0.4,1,0.4c0.9,0,1.6-0.8,1.6-1.7c0-0.5-0.2-1-0.6-1.3l-10-7.9l0,0
					h-0.1l-0.1-0.1c-0.5-0.3-0.6-0.9-0.3-1.4c0-0.1,0.1-0.1,0.1-0.2c0.5-0.6,1.3-0.2,1.6,0l12.3,9.8c0.6,0.7,1.7,0.7,2.3,0
					c0.7-0.6,0.7-1.7,0-2.3c-0.1-0.1-0.2-0.2-0.4-0.3l-12.2-9.8c-0.3-0.3-0.8-0.8-0.3-1.5c0.3-0.4,0.9-0.4,1.3-0.1c0,0,0,0,0,0
					L68,104c0.6,0.6,1.7,0.6,2.3,0s0.6-1.7,0-2.3C70.2,101.6,70.1,101.5,70,101.4L70,101.4z"/>
			</g>
			<g>
				<path class="st0" d="M53.1,108.3l-1.4-1.1l-1,3c0,0.1-0.1,0.2-0.1,0.3l0.5,0.4c0.7,0.6,1.7,0.5,2.3-0.3c0,0,0,0,0,0
					C54,110,53.9,109,53.1,108.3C53.1,108.4,53.1,108.4,53.1,108.3z"/>
			</g>
			<g>
				<path class="st0" d="M49.9,103.2l-0.3-0.2c-0.2-0.1-0.4-0.1-0.7-0.1c-0.2,0-0.3,0-0.5,0.1c-0.3,0.1-0.6,0.3-0.8,0.5
					c-0.1,0.1-0.1,0.2-0.2,0.3c0,0,0,0.1,0,0.1l0,0l0,0l-0.8,2.2l-0.3,1l-0.4,1.2l-0.1,0.3c-0.1,0.2-0.1,0.3-0.1,0.5
					c0,0.2,0,0.4,0.1,0.7c0.1,0.3,0.3,0.5,0.6,0.7c0.1,0.1,0.2,0.1,0.3,0.2c0.2,0.1,0.4,0.1,0.7,0.1c0.6,0,1.1-0.3,1.4-0.7
					c0.1-0.1,0.2-0.3,0.2-0.5l0.1-0.3l1.1-3.3l0.3-0.8c0-0.1,0-0.1,0-0.2c0-0.2,0.1-0.4,0.1-0.6C50.7,104,50.4,103.5,49.9,103.2z"/>
			</g>
			<g>
				<path class="st0" d="M45.8,102.7C45.8,102.7,45.8,102.6,45.8,102.7c0-0.1,0-0.3,0-0.4c0-0.1,0-0.1,0-0.2c0-0.9-0.7-1.7-1.6-1.7
					c0,0,0,0,0,0c-0.3,0-0.6,0.1-0.8,0.2c-0.3,0.2-0.6,0.5-0.7,0.8v0.1l-0.6,2.1l-0.8,2.2l-0.1,0.3c-0.1,0.2-0.1,0.3-0.1,0.5
					c0,0.6,0.3,1.2,0.9,1.5c0.1,0.1,0.3,0.1,0.4,0.2c0.1,0,0.2,0,0.3,0c0.8,0,1.4-0.5,1.7-1.2l0.5-1.3l1-3.1
					C45.8,102.8,45.8,102.7,45.8,102.7z"/>
			</g>
			<g>
				<path class="st0" d="M39.1,99.5c-0.3,0-0.7,0.1-0.9,0.3c-0.2,0.1-0.3,0.3-0.5,0.5c-0.1,0.1-0.1,0.2-0.2,0.3v0.1l-0.8,2.3
					l-0.1,0.4c-0.1,0.2-0.1,0.3-0.1,0.5c0,0.9,0.7,1.6,1.7,1.7c0.6,0,1.1-0.3,1.4-0.7c0.1-0.1,0.2-0.3,0.2-0.5l0.6-1.8l0.2-0.6
					c0-0.1,0.1-0.2,0.1-0.4c0-0.1,0-0.3,0-0.4C40.7,100.3,40,99.5,39.1,99.5z"/>
			</g>
			<g>
				<path class="st0" d="M35.2,99.2c-0.2-0.3-0.4-0.5-0.7-0.6c-0.2-0.1-0.4-0.1-0.6-0.1c-0.3,0-0.7,0.1-0.9,0.3
					c-0.1,0.1-0.3,0.2-0.4,0.3c-0.1,0.1-0.2,0.3-0.2,0.4l0,0l-0.2,0.7c0,0-0.1,0.3-0.2,0.6c0,0.1-0.1,0.3-0.1,0.4c0,0.1,0,0.2,0,0.3
					c0.2,0.8,0.8,1.3,1.6,1.3c0.4,0,0.7-0.1,1-0.3c0.1-0.1,0.3-0.2,0.4-0.4c0.1-0.1,0.2-0.3,0.2-0.5l0.2-0.8c0,0,0-0.1,0-0.2
					c0-0.1,0-0.3,0.1-0.4c0-0.1,0-0.1,0-0.2c0-0.2,0-0.4-0.1-0.7C35.3,99.4,35.3,99.3,35.2,99.2z"/>
			</g>
		</g>
	</g>
	<g>
		<path class="st1" d="M98.2,144.9h-95v-22.8h95V144.9z M4.2,143.9h93v-20.8h-93V143.9z"/>
	</g>
</g>
</svg>
