<?xml version="1.0" encoding="utf-8"?>
<!-- Generator: Adobe Illustrator 22.0.1, SVG Export Plug-In . SVG Version: 6.00 Build 0)  -->
<svg version="1.1" id="Layer_1" xmlns="http://www.w3.org/2000/svg" xmlns:xlink="http://www.w3.org/1999/xlink" x="0px" y="0px"
	 viewBox="0 0 101.5 148.2" style="enable-background:new 0 0 101.5 148.2;" xml:space="preserve">
<style type="text/css">
	.st0{fill:#FFFFFF;}
	.st1{enable-background:new    ;}
	.st2{fill:#19486A;}
</style>
<title>TARGET 1 B copy 9</title>
<g id="WHITE_BG">
	<g>
		<rect y="0" class="st0" width="101.5" height="148.2"/>
	</g>
</g>
<g id="TARGETS">
	<g class="st1">
		<path class="st2" d="M7,132.2v-6.4h1v6.4H7z"/>
	</g>
	<g class="st1">
		<path class="st2" d="M12.8,132.2l-2.8-4.5l0,4.5H9.1v-6.4h0.9l2.8,4.5l0-4.5h0.9v6.4H12.8z"/>
		<path class="st2" d="M19.1,125.8l-2,6.5h-1l-2-6.5h1l1.5,5.2l1.5-5.2H19.1z"/>
		<path class="st2" d="M23.2,129.3h-2.7v2h2.9v0.9h-3.9v-6.4h3.9v0.9h-2.9v1.8h2.7V129.3z"/>
	</g>
	<g class="st1">
		<path class="st2" d="M28.4,130.3c0,1.2-0.7,2-2.4,2c-0.6,0-1.5-0.1-1.9-0.4v-1c0.3,0.2,1,0.4,1.8,0.4c1.1,0,1.5-0.5,1.5-1.1
			c0-0.7-0.3-0.9-1.2-1c-1.6-0.2-2.2-0.6-2.2-1.8c0-0.9,0.5-1.8,2.3-1.8c0.8,0,1.4,0.1,1.7,0.3v0.9c-0.5-0.2-1-0.3-1.7-0.3
			c-1,0-1.3,0.4-1.3,1c0,0.7,0.4,0.8,1.2,0.9C27.7,128.7,28.4,129,28.4,130.3z"/>
		<path class="st2" d="M31,126.7v5.5h-1v-5.5h-1.7v-0.9h4.3v0.9H31z"/>
	</g>
	<g class="st1">
	</g>
	<g class="st1">
		<path class="st2" d="M34.7,132.2v-6.4h1v6.4H34.7z"/>
	</g>
	<g class="st1">
		<path class="st2" d="M40.5,132.2l-2.8-4.5l0,4.5h-0.9v-6.4h0.9l2.8,4.5l0-4.5h0.9v6.4H40.5z"/>
		<path class="st2" d="M44.7,131.3h2.8v0.9h-3.7v-6.4h1V131.3z"/>
		<path class="st2" d="M51.6,129.3H49v2h2.9v0.9H48v-6.4h3.9v0.9H49v1.8h2.7V129.3z"/>
	</g>
	<g class="st1">
		<path class="st2" d="M55.7,130.6h-2l-0.5,1.6h-1l2-6.5h1l2,6.5h-1L55.7,130.6z M54.7,127l-0.8,2.8h1.6L54.7,127z"/>
	</g>
	<g class="st1">
		<path class="st2" d="M61.7,130.3c0,1.2-0.7,2-2.4,2c-0.6,0-1.5-0.1-1.9-0.4v-1c0.3,0.2,1,0.4,1.8,0.4c1.1,0,1.5-0.5,1.5-1.1
			c0-0.7-0.3-0.9-1.2-1c-1.6-0.2-2.2-0.6-2.2-1.8c0-0.9,0.5-1.8,2.3-1.8c0.8,0,1.4,0.1,1.7,0.3v0.9c-0.5-0.2-1-0.3-1.7-0.3
			c-1,0-1.3,0.4-1.3,1c0,0.7,0.4,0.8,1.2,0.9C60.9,128.7,61.7,129,61.7,130.3z"/>
		<path class="st2" d="M64.2,126.7v5.5h-1v-5.5h-1.7v-0.9h4.3v0.9H64.2z"/>
	</g>
	<g class="st1">
	</g>
	<g class="st1">
		<path class="st2" d="M6.9,141.2v-6.4h1.9c2.1,0,2.7,1.4,2.7,3.2c0,1.8-0.6,3.2-2.7,3.2H6.9z M7.8,140.3h1c1.3,0,1.7-0.9,1.7-2.3
			c0-1.4-0.4-2.3-1.7-2.3h-1V140.3z"/>
		<path class="st2" d="M15.8,138.3h-2.7v2H16v0.9h-3.9v-6.4H16v0.9h-2.9v1.8h2.7V138.3z"/>
		<path class="st2" d="M21.4,134.8l-2,6.5h-1l-2-6.5h1l1.5,5.2l1.5-5.2H21.4z"/>
	</g>
	<g class="st1">
		<path class="st2" d="M25.6,138.3H23v2h2.9v0.9H22v-6.4h3.9v0.9H23v1.8h2.7V138.3z"/>
	</g>
	<g class="st1">
		<path class="st2" d="M27.7,140.3h2.8v0.9h-3.7v-6.4h1V140.3z"/>
	</g>
	<g class="st1">
		<path class="st2" d="M30.5,138c0-1.8,0.4-3.3,2.5-3.3s2.5,1.5,2.5,3.3s-0.4,3.3-2.5,3.3S30.5,139.8,30.5,138z M31.5,138
			c0,1.5,0.3,2.4,1.5,2.4s1.5-0.9,1.5-2.4s-0.3-2.4-1.5-2.4S31.5,136.5,31.5,138z"/>
	</g>
	<g class="st1">
		<path class="st2" d="M37.1,141.2h-1v-6.4h2c1.6,0,2.2,1,2.2,2c0,1-0.6,2-2.2,2h-1.1V141.2z M37.1,137.9h1.1c1,0,1.1-0.6,1.1-1.1
			s-0.2-1.1-1.1-1.1h-1.1V137.9z"/>
		<path class="st2" d="M44.6,138.3h-2.7v2h2.9v0.9H41v-6.4h3.9v0.9h-2.9v1.8h2.7V138.3z"/>
	</g>
	<g class="st1">
		<path class="st2" d="M45.7,141.2v-6.4h1.9c2.1,0,2.7,1.4,2.7,3.2c0,1.8-0.6,3.2-2.7,3.2H45.7z M46.6,140.3h1
			c1.3,0,1.7-0.9,1.7-2.3c0-1.4-0.4-2.3-1.7-2.3h-1V140.3z"/>
	</g>
	<g class="st1">
		<path class="st2" d="M55,134.7c0.8,0,1.2,0.1,1.5,0.3v0.9c-0.5-0.2-0.9-0.3-1.4-0.3c-1.2,0-1.7,0.8-1.7,2.4s0.5,2.4,1.7,2.4
			c0.6,0,1-0.1,1.4-0.3v0.9c-0.3,0.1-0.7,0.3-1.5,0.3c-1.9,0-2.6-1.2-2.6-3.3S53.1,134.7,55,134.7z"/>
	</g>
	<g class="st1">
		<path class="st2" d="M57.1,138c0-1.8,0.4-3.3,2.5-3.3c2,0,2.5,1.5,2.5,3.3s-0.4,3.3-2.5,3.3C57.5,141.3,57.1,139.8,57.1,138z
			 M58.1,138c0,1.5,0.3,2.4,1.5,2.4s1.5-0.9,1.5-2.4s-0.3-2.4-1.5-2.4S58.1,136.5,58.1,138z"/>
		<path class="st2" d="M62.8,139.2v-4.4h1v4.3c0,1.2,0.8,1.3,1.4,1.3c0.5,0,1.4-0.1,1.4-1.3v-4.3h1v4.4c0,1.8-1.4,2.1-2.3,2.1
			S62.8,141,62.8,139.2z"/>
	</g>
	<g class="st1">
		<path class="st2" d="M72,141.2l-2.8-4.5l0,4.5h-0.9v-6.4h0.9l2.8,4.5l0-4.5h0.9v6.4H72z"/>
		<path class="st2" d="M76,135.7v5.5h-1v-5.5h-1.7v-0.9h4.3v0.9H76z"/>
		<path class="st2" d="M79.1,141.2h-1v-6.4h2.1c1.6,0,2.2,0.7,2.2,1.9c0,0.8-0.3,1.4-1,1.7l1.3,2.8h-1.1l-1.2-2.6h-1.3V141.2z
			 M79.1,137.7h1.3c0.9,0,1-0.5,1-1c0-0.5-0.1-1-1-1h-1.3V137.7z"/>
	</g>
	<g class="st1">
		<path class="st2" d="M83.5,141.2v-6.4h1v6.4H83.5z"/>
	</g>
	<g class="st1">
		<path class="st2" d="M89.1,138.3h-2.7v2h2.9v0.9h-3.9v-6.4h3.9v0.9h-2.9v1.8h2.7V138.3z"/>
		<path class="st2" d="M94.3,139.3c0,1.2-0.7,2-2.4,2c-0.6,0-1.5-0.1-1.9-0.4v-1c0.3,0.2,1,0.4,1.8,0.4c1.1,0,1.5-0.5,1.5-1.1
			c0-0.7-0.3-0.9-1.2-1c-1.6-0.2-2.2-0.6-2.2-1.8c0-0.9,0.5-1.8,2.3-1.8c0.8,0,1.4,0.1,1.7,0.3v0.9c-0.5-0.2-1-0.3-1.7-0.3
			c-1,0-1.3,0.4-1.3,1c0,0.7,0.4,0.8,1.2,0.9C93.5,137.7,94.3,138,94.3,139.3z"/>
	</g>
	<g>
		<rect x="3.3" y="24" class="st2" width="94.8" height="94.8"/>
	</g>
	<g>
		<path class="st2" d="M98.2,20.7H3.3V3.3h94.8V20.7z M4.3,19.7h92.8V4.3H4.3L4.3,19.7z"/>
	</g>
	<g class="st1">
		<path class="st2" d="M6.7,6.9h4.5v1.4H9.9v8.8H8.1V8.3H6.7V6.9z"/>
	</g>
	<g class="st1">
		<path class="st2" d="M11.2,17.1l1.9-10.2h1.9L17,17.1h-1.8l-0.3-1.9h-1.8l-0.3,1.9H11.2z M13.3,13.9h1.4L14,9.8h0L13.3,13.9z"/>
	</g>
	<g class="st1">
		<path class="st2" d="M19.6,12.4v4.7h-1.7V6.9h2.5c1.7,0,2.4,0.9,2.4,2.3v1.3c0,1.1-0.4,1.7-1.4,2l1.6,4.6h-1.8L19.6,12.4z
			 M19.6,8.3v3.2h0.6c0.6,0,0.8-0.3,0.8-0.8V9.2c0-0.6-0.3-0.8-0.8-0.8H19.6z"/>
	</g>
	<g class="st1">
		<path class="st2" d="M26.4,11.7h2.4v5.4h-1.2V16c-0.2,0.8-0.7,1.2-1.6,1.2c-1.5,0-2.1-1.2-2.1-2.7V9.6c0-1.6,0.8-2.7,2.6-2.7
			c1.9,0,2.4,1.1,2.4,2.6v0.9h-1.6v-1c0-0.6-0.2-1-0.9-1c-0.6,0-0.9,0.4-0.9,1v5.5c0,0.6,0.3,1,0.8,1c0.6,0,0.8-0.3,0.8-1V13h-0.8
			V11.7z"/>
	</g>
	<g class="st1">
		<path class="st2" d="M30.2,6.9h4.1v1.4h-2.4v2.9h1.7v1.4h-1.7v3.1h2.4v1.4h-4.1V6.9z"/>
	</g>
	<g class="st1">
		<path class="st2" d="M35.1,6.9h4.5v1.4h-1.4v8.8h-1.7V8.3h-1.4V6.9z"/>
	</g>
	<g class="st1">
		<path class="st2" d="M78.5,6.9v10.2h-1.7V9.3h0l-1.2,1.2h0V8.8l1.6-1.8H78.5z"/>
		<path class="st2" d="M79.7,6.9H84v1.6l-2.2,8.6H80l2.3-8.8h-2.6V6.9z"/>
	</g>
	<g class="st1">
	</g>
	<g class="st1">
		<path class="st2" d="M86.7,10.8c0.7,0,1.2,0.6,1.2,1.2c0,0.7-0.6,1.2-1.2,1.2c-0.7,0-1.2-0.6-1.2-1.2C85.5,11.4,86,10.8,86.7,10.8
			z"/>
	</g>
	<g class="st1">
		<path class="st2" d="M94.3,12.4v2.5c0,1.4-0.7,2.3-2.4,2.3c-1.7,0-2.4-1-2.4-2.5v-1.2h1.6v1.3c0,0.6,0.2,1,0.8,1
			c0.5,0,0.7-0.4,0.7-0.9v-2.5c0-0.6-0.2-0.9-0.7-0.9c-0.5,0-0.8,0.3-0.8,0.9v0.2h-1.6V6.9h4.5v1.4h-2.9v2.5h0
			c0.3-0.5,0.8-0.7,1.4-0.7C93.5,10.2,94.3,10.8,94.3,12.4z"/>
	</g>
	<g>
		<path class="st2" d="M98.2,144.9h-95v-22.8h95V144.9z M4.2,143.9h93v-20.8h-93V143.9z"/>
	</g>
	<g>
		<g>
			<g>
				<path class="st0" d="M90.7,71.3c0-0.4-0.3-0.6-0.7-0.6h-1c-0.4,0-0.7-0.1-0.8-0.5c-0.2-0.7-0.4-1.3-0.7-1.9
					c-0.2-0.4-0.1-0.8,0.2-1c0.3-0.2,0.6-0.5,0.8-0.7c0.3-0.2,0.3-0.6,0.2-0.9c-0.4-0.8-1-1.5-1.6-2.1c-0.2-0.3-0.7-0.3-0.9-0.1
					c-0.3,0.2-0.6,0.4-0.8,0.6s-0.7,0.3-1,0.1c-0.6-0.5-1.3-0.9-1.7-1.2c-0.4-0.2-0.5-0.6-0.4-1c0.1-0.4,0.2-0.7,0.3-1.1
					c0.1-0.3-0.1-0.7-0.4-0.8c-0.8-0.4-1.6-0.6-2.5-0.8c-0.4-0.1-0.7,0.1-0.8,0.5c-0.1,0.3-0.2,0.6-0.3,1s-0.3,0.7-0.7,0.6
					c-0.9,0-1.5,0-2.1,0c-0.4,0-0.7-0.2-0.9-0.5c-0.1-0.4-0.3-0.7-0.4-1c-0.1-0.3-0.4-0.5-0.8-0.4c-0.9,0.2-1.7,0.5-2.5,0.8
					c-0.3,0.1-0.5,0.5-0.4,0.9c0,0,0,0,0,0c0.1,0.4,0.2,0.6,0.3,1s0.1,0.7-0.2,1s-1.2,0.8-1.7,1.2c-0.3,0.2-0.7,0.3-1,0.1l-1-0.6
					c-0.3-0.2-0.7-0.1-0.9,0.1c-0.6,0.6-1.1,1.4-1.5,2.1c-0.2,0.3-0.1,0.7,0.2,0.9l0.8,0.6c0.3,0.2,0.5,0.5,0.4,0.9s-0.5,1.6-0.6,2
					c-0.1,0.4-0.4,0.6-0.8,0.7c-0.4,0-0.7,0.1-1.1,0.1c-0.3,0-0.6,0.3-0.7,0.6c-0.1,0.9-0.1,1.8,0,2.6c0,0.4,0.3,0.6,0.7,0.6
					c0.4,0,0.6,0,1,0s0.7,0.1,0.8,0.5c0.2,0.7,0.4,1.3,0.7,2c0.2,0.4,0.1,0.8-0.2,1l-0.9,0.7c-0.3,0.2-0.3,0.6-0.2,0.9
					c0.4,0.8,1,1.5,1.6,2.1c0.2,0.3,0.7,0.3,0.9,0.1l0.8-0.6c0.3-0.2,0.7-0.3,1-0.1s1.3,0.9,1.7,1.2c0.3,0.2,0.5,0.6,0.4,1
					c-0.1,0.4-0.2,0.7-0.3,1.1c-0.1,0.3,0.1,0.7,0.4,0.8c0.8,0.4,1.6,0.6,2.5,0.8c0.4,0.1,0.7-0.1,0.8-0.5c0.1-0.3,0.2-0.6,0.3-1
					s0.3-0.7,0.7-0.6c0.8,0,1.4,0,2.1,0c0.4,0,0.7,0.2,0.9,0.5c0.1,0.4,0.3,0.7,0.4,1c0.1,0.3,0.5,0.5,0.8,0.4
					c0.9-0.2,1.7-0.5,2.5-0.8c0.3-0.1,0.5-0.5,0.4-0.9c0,0,0,0,0,0c-0.1-0.4-0.2-0.6-0.3-1s-0.1-0.7,0.2-1s1.3-0.9,1.7-1.2
					c0.3-0.2,0.7-0.3,1-0.1c0.3,0.2,0.6,0.4,1,0.6c0.3,0.2,0.7,0.1,0.9-0.1c0.6-0.7,1.2-1.4,1.6-2.2c0.2-0.3,0.1-0.7-0.2-0.9
					c-0.3-0.2-0.5-0.4-0.8-0.6s-0.5-0.5-0.4-0.9s0.5-1.5,0.6-2c0.1-0.4,0.4-0.6,0.8-0.7c0.4,0,0.7,0,1.1-0.1c0.3,0,0.6-0.3,0.7-0.6
					C90.9,73,90.9,72.1,90.7,71.3z M77,81.5c-4.7,0-8.5-3.9-8.5-8.6c0-4.7,3.9-8.5,8.6-8.5c4.7,0,8.5,3.9,8.5,8.6
					C85.6,77.7,81.7,81.5,77,81.5z"/>
			</g>
			<g>
				<path class="st0" d="M70.7,70.5c0.2,0.1,0.3,0,0.4-0.1c0.1-0.1,0.1-0.2,0-0.3c0-0.1,0.1-0.2,0.2-0.2c0.2-0.1,0.4-0.2,0.6-0.3
					c0.4-0.1,0.8-0.1,1.2,0c0.3,0.1,0.6,0.1,0.8-0.2c0.2-0.2,0.3-0.3,0.6-0.5c0.1,0-0.3-0.4-0.6,0s-0.5,0.4-0.6,0.4s-1-0.2-1.1-0.5
					s0.3-0.5,0.6-0.6c0.5-0.1,0.9-0.2,1.4-0.2c0.4-0.1,1-0.3,1.3-0.1s-1.2,0.5-0.7,0.8c0.2,0.1,1-0.5,1.3-0.6
					c0.7-0.3-0.6-0.4-0.5-1.1s-1.5-0.5-2.4-0.4c-0.4,0.3-0.8,0.6-1.2,0.9c0.1,0,0.2,0.1,0.2,0.1c0,0.1,0,0.3-0.1,0.4
					c-0.2,0.2-0.5,0.3-0.8,0.4c-0.1,0-0.1,0-0.2-0.1c-0.1,0.2-0.3,0.3-0.4,0.5c0.2-0.1,0.4-0.2,0.6-0.2c0.2,0,0.4,0.1,0.5,0.2
					s-0.5,0.3-0.6,0.4c-0.3,0.2-0.7,0.7-0.9,0.8c-0.1,0-0.1,0-0.2,0c-0.1,0.2-0.1,0.3-0.2,0.5C70.1,70.4,70.4,70.4,70.7,70.5z"/>
			</g>
			<g>
				<path class="st0" d="M83.1,72.5c-0.2,0.2-0.5,0.3-0.8,0.3c-0.3,0.2-0.4,0.6-0.4,0.9c0,0.3,0.7,1.1,0.2,1c-0.5-0.2-0.9-0.6-1.2-1
					c-0.2-0.4-0.3-0.8-0.4-1.1c-0.1-0.2-0.3-0.4-0.6-0.3c0,0-0.1,0-0.1,0.1c-0.3,0.2,0.1,0.4-0.1,0.8s-0.3,0.7-0.6,0.4
					c-0.7-0.8-1.8-0.4-2-1.4c-0.1-0.5-0.5-0.5-0.9-0.8s-0.6-0.4-0.6-0.2s1.2,1.1,1.2,1.4s-0.4,0.7-0.7,0.8s-0.5-0.2-0.9-0.6
					s-0.5-0.6-0.5-0.3c0,0.5,0.3,1,0.7,1.2c0.3,0.2,0.6,0.3,0.5,0.6s0,0.1-0.3,0.5c-0.3,0.2-0.5,0.6-0.4,0.9c0,0.5-0.1,0.5-0.2,0.9
					s-0.2,0.1-0.4,0.6c-0.1,0.4-0.2,0.7-0.5,1c-0.3,0.2-0.6,0.4-1,0.4c-0.3,0-0.4-0.9-0.4-1.4c0-0.2-0.2,0.3-0.3-0.7
					c-0.1-0.6-0.5,0.1-0.5-0.3s-0.2-0.3-0.4-0.6s-0.5,0-0.8,0.2s-0.2,0.2-0.6,0.1l0,0c0.9,2.1,2.6,3.7,4.8,4.3
					c-0.1-0.1-0.1-0.2-0.1-0.4c0.3-0.5,0.9-0.9,1.5-0.9c1.2-0.1,2.8,0.8,3.1,0.7s0.8-0.8,1.5-0.8c0.2,0,0.5,0.1,0.7,0.2
					c0.3-0.2,0.5-0.4,0.8-0.6l-0.2-0.1c-0.4-0.2-0.4,0.1-0.6,0s0.2-0.5-0.4-0.2s-0.4-0.1-0.7-0.7c-0.2-0.7,0.2-1.3,0.8-1.6
					c0.5-0.2,0.9-0.3,1.4-0.4c0.9-0.2,1.1-0.8,1.3-0.4l0.1,0.2c0.1,0.1,0.1,0.3,0.1,0.5c0.1-0.4,0.2-0.7,0.3-1.1
					c-0.2-0.1-1-1.2-0.4-2c0.1-0.1-0.2-0.5-0.1-0.5c0.3,0,0.6,0.2,0.6,0.5c0-0.4-0.1-0.8-0.2-1.2c0,0.1,0,0.2,0,0.3
					c-0.1,0.3-0.4,0.4-0.6,0.3c-0.1,0-0.2-0.1-0.2-0.2c-0.1-0.1-0.4-0.4-0.4,0.1S83.6,72.2,83.1,72.5z M76,75.5
					c-0.1,0.2-0.4,1.4-0.6,1.3s0.1-1.5,0.1-1.6C75.8,74.7,76.5,74.7,76,75.5z M79.1,74c-0.2,0.1-0.5,0.1-0.7-0.1
					c-0.2-0.2,0.1-0.4,0.2-0.4S79.2,73.9,79.1,74z M82.2,73.7c-0.1-0.2,0.1-0.3,0.2-0.2s0.4,0.3,0.4,0.4s-0.3,0.1-0.4,0.1
					S82.2,73.9,82.2,73.7z M83.2,74.7c-0.2,0.1-0.5,0.1-0.7-0.1c-0.2-0.2,0.1-0.4,0.2-0.4S83.3,74.6,83.2,74.7L83.2,74.7z"/>
			</g>
			<g>
				<path class="st0" d="M70.4,71.3c0.4,0.1,0.8,0.2,1.2,0.3c0.4,0.2,1.1,0.5,1.5,0.4s0.5-0.3,0.5-0.5s-0.3-0.4-0.6-0.2
					c-0.1,0.1-0.3-0.5-0.5-0.4s0.2,0.6,0.1,0.7s-0.4-0.6-0.5-0.7s-0.3-0.4-0.5-0.2c-0.4,0.4-1.2,0.4-1.3,0.5l-0.2,0.1
					c-0.3,0.1-0.4-0.2-0.4-0.4c-0.1,0.4-0.2,0.9-0.3,1.3V72c0.2-0.4,0.3-0.5,0.4-0.6c0.1,0,0.2-0.1,0.3-0.1L70.4,71.3z"/>
			</g>
		</g>
		<g>
			<path class="st0" d="M75.1,97.4l-2.8-2.2c-0.2-0.2-0.6-0.3-0.8,0c0,0,0,0,0,0l0,0c-8.8,10.5-24,11.6-34.8,3
				c-0.3-0.3-0.6-0.5-0.9-0.8l3.2-2c0.3-0.2-0.1-0.5-0.1-0.5L28,89.5c-0.3-0.2-0.4,0-0.4,0.2v0.1l0,0L27.6,102
				c0,0.1,0.1,0.4,0.4,0.2l0,0l3.5-2.2c0.7,0.7,1.4,1.3,2.1,1.9c12.8,10.3,30.9,8.9,41.5-3.5l0.1-0.1C75.4,98.1,75.4,97.7,75.1,97.4
				C75.1,97.4,75.1,97.4,75.1,97.4z"/>
		</g>
		<g>
			<path class="st0" d="M27.6,46.8l2.9,2.1c0.2,0.2,0.6,0.2,0.8,0c0,0,0,0,0-0.1l0,0c8.2-11,23.3-13,34.6-5c0.3,0.2,0.7,0.5,1,0.8
				l-3,2.2c-0.3,0.2,0.2,0.5,0.2,0.5L75.2,52c0.3,0.2,0.4-0.1,0.4-0.2v-0.1l0,0l-0.7-12.3c0-0.1-0.1-0.4-0.4-0.2l0,0l-3.4,2.4
				c-0.7-0.6-1.5-1.2-2.3-1.8c-13.4-9.5-31.4-7.1-41.2,5.9l-0.1,0.1C27.3,46.2,27.3,46.6,27.6,46.8C27.6,46.8,27.6,46.8,27.6,46.8z"
				/>
		</g>
		<g>
			<g>
				<g>
					<path class="st0" d="M23.4,79.6c-0.4,0.3-0.9,0.5-1.4,0.6c-1.4,0.4-2.9,0.6-4.4,0.5c-0.7,0-1.4-0.1-2.2-0.2
						c-0.5-0.1-0.9-0.2-1.3-0.2l-0.6-0.2c-0.6-0.2-1.2-0.4-1.7-0.8c-0.2-0.1-0.3-0.3-0.5-0.5v0.6c0,0.2,0,0.8,0,0.8
						c0,0.4,0.2,0.7,0.5,0.9c1,0.7,2.2,1.1,3.4,1.3c0.8,0.1,1.7,0.2,2.5,0.2c1.2,0,2.4-0.1,3.6-0.4l0,0c0.6-0.1,1.2-0.4,1.8-0.7l0,0
						c0.6-0.4,0.9-0.8,0.9-1.2c0,0,0-1.3,0-1.4C23.9,79.2,23.7,79.4,23.4,79.6z"/>
				</g>
				<g>
					<path class="st0" d="M17.1,75.3c3.5,0,6.4-1.1,6.4-2.4c0,0,0.1-1.2,0-1.5c0-0.2,0-0.3-0.1-0.5c0.4-0.2,0.7-0.6,0.7-1.1
						c0,0,0.1-1.4,0-1.6c-0.2-1.6-3.4-2.4-6.4-2.4s-6.4,0.9-6.4,2.6c0,0.1,0.1,1.5,0.1,1.5c0,0.1,0,0.2,0.1,0.3
						c-0.5,0.3-0.8,0.8-0.8,1.3c0,0.1,0.1,1.5,0.1,1.5c0,0.4,0.2,0.7,0.5,0.9c1,0.7,2.2,1.1,3.4,1.3C15.5,75.2,16.3,75.3,17.1,75.3z
						 M17.8,66.4c3.4,0,5.8,1,5.8,1.9s-2.4,1.9-5.8,1.9s-5.8-1-5.8-1.9S14.4,66.4,17.8,66.4z M11.4,71.4c0.1-0.3,0.2-0.6,0.5-0.7
						c0.2,0.2,0.4,0.3,0.6,0.5c1.7,0.7,3.5,1.1,5.3,1c1.5,0,3.1-0.2,4.5-0.7c0.2-0.1,0.4-0.2,0.5-0.2c0,0,0,0.1,0,0.2
						c0,0.9-2.4,1.9-5.8,1.9S11.4,72.3,11.4,71.4L11.4,71.4z"/>
				</g>
				<g>
					<path class="st0" d="M15.2,80.1c0.8,0.1,1.6,0.2,2.5,0.2c1.2,0,2.4-0.1,3.6-0.4l0,0c0.6-0.2,1.2-0.4,1.8-0.7l0,0
						c0.1-0.1,0.3-0.2,0.4-0.3c0.2-0.2,0.4-0.4,0.5-0.6c0-0.1,0.1-0.2,0.1-0.3c0,0,0-1.3,0-1.4c-0.2,0.3-0.8,1.1-3.3,1.6
						c-1.1,0.2-2.2,0.3-3.2,0.3c-1.7,0-3.5-0.3-5.1-1c-0.3-0.2-0.6-0.3-0.8-0.6c-0.1-0.1-0.3-0.3-0.4-0.5c0,0,0,0.6,0,0.6V78
						c0,0.4,0.2,0.7,0.5,0.9C12.8,79.6,14,80,15.2,80.1z"/>
				</g>
				<g>
					<path class="st0" d="M23.4,75L23,75.2c0,0-0.4,0.2-0.6,0.2l-0.6,0.2l-0.8,0.2l-1,0.2l-1,0.1c-0.1,0-1,0.1-1.5,0.1
						c-0.7,0-1.3-0.1-2-0.2c-0.5-0.1-1-0.2-1.4-0.3c-0.5-0.1-1-0.3-1.5-0.5c-0.3-0.1-0.6-0.3-0.8-0.5c-0.2-0.2-0.4-0.4-0.5-0.7v0.8
						v0.8c0,0.4,0.2,0.7,0.5,0.9c1,0.7,2.2,1.1,3.4,1.3c0.8,0.1,1.6,0.2,2.5,0.2c1.2,0,2.4-0.1,3.6-0.4l0,0c0.6-0.2,1.2-0.4,1.8-0.7
						l0,0c0.1-0.1,0.3-0.2,0.4-0.3c0.2-0.2,0.4-0.4,0.5-0.6c0-0.1,0.1-0.2,0.1-0.3c0,0,0.1-1.3,0.1-1.4c0-0.1,0-0.2,0-0.3
						c0-0.1-0.1-0.2-0.2-0.2c0-0.1-0.1-0.1-0.2-0.2l-0.3-0.1c-0.1,0.1-0.2,0.3-0.3,0.4c0.1,0,0.2,0.1,0.2,0.1
						c0.2,0.1,0.3,0.3,0.3,0.5c0,0.2-0.1,0.3-0.2,0.4C23.5,74.9,23.5,74.9,23.4,75z"/>
				</g>
			</g>
			<g>
				<g>
					<path class="st0" d="M52.9,79.6c-0.4,0.3-0.9,0.5-1.4,0.6c-1.4,0.4-2.9,0.6-4.4,0.5c-0.7,0-1.4-0.1-2.1-0.2
						c-0.5-0.1-0.8-0.2-1.3-0.2L43,80.1c-0.6-0.2-1.2-0.4-1.7-0.8c-0.2-0.1-0.3-0.3-0.5-0.5v0.6c0,0.2,0,0.8,0,0.8
						c0,0.4,0.2,0.7,0.5,0.9c1,0.7,2.2,1.1,3.4,1.3c0.8,0.1,1.6,0.2,2.5,0.2c1.2,0,2.4-0.1,3.6-0.4l0,0c0.6-0.1,1.2-0.4,1.8-0.7l0,0
						c0.6-0.4,1-0.8,1-1.2c0,0,0-1.3,0-1.4C53.3,79.1,53.1,79.4,52.9,79.6z"/>
				</g>
				<g>
					<path class="st0" d="M46.6,75.3c3.5,0,6.4-1.1,6.4-2.4c0,0,0.1-1.2,0-1.5c0-0.2,0-0.3-0.1-0.5c0.4-0.2,0.7-0.6,0.7-1.1
						c0,0,0.1-1.4,0-1.6c-0.2-1.6-3.4-2.4-6.4-2.4s-6.4,0.9-6.4,2.6c0,0.1,0.1,1.5,0.1,1.5c0,0.1,0,0.2,0.1,0.3
						c-0.5,0.3-0.8,0.8-0.8,1.3c0,0.1,0.1,1.5,0.1,1.5c0,0.4,0.2,0.7,0.5,0.9c1,0.7,2.2,1.1,3.4,1.3C44.9,75.2,45.8,75.3,46.6,75.3z
						 M47.3,66.4c3.4,0,5.8,1,5.8,1.9s-2.4,1.9-5.8,1.9s-5.8-1-5.8-1.9S43.9,66.4,47.3,66.4z M40.8,71.4c0-0.3,0.2-0.6,0.5-0.7
						c0.2,0.2,0.4,0.3,0.6,0.5c1.7,0.7,3.5,1.1,5.3,1c1.5,0,3.1-0.2,4.5-0.7c0.2-0.1,0.4-0.2,0.5-0.2c0,0,0,0.1,0,0.2
						c0,0.9-2.4,1.9-5.8,1.9S40.8,72.3,40.8,71.4L40.8,71.4z"/>
				</g>
				<g>
					<path class="st0" d="M44.7,80.1c0.8,0.1,1.6,0.2,2.5,0.2c1.2,0,2.4-0.1,3.6-0.4l0,0c0.6-0.2,1.2-0.4,1.8-0.7l0,0
						c0.1-0.1,0.3-0.2,0.4-0.3c0.2-0.2,0.4-0.4,0.5-0.6c0-0.1,0.1-0.2,0.1-0.3c0,0,0-1.3,0-1.4c-0.2,0.3-0.8,1.1-3.3,1.6
						c-1.1,0.2-2.2,0.3-3.2,0.3c-1.8,0-3.5-0.3-5.1-1c-0.3-0.2-0.6-0.3-0.8-0.6c-0.1-0.1-0.3-0.3-0.4-0.5c0,0,0,0.6,0,0.6V78
						c0,0.4,0.2,0.7,0.5,0.9C42.2,79.6,43.5,80.1,44.7,80.1z"/>
				</g>
				<g>
					<path class="st0" d="M52.8,75l-0.4,0.2c0,0-0.4,0.2-0.6,0.2l-0.6,0.2l-0.8,0.2l-1,0.2l-1,0.1c-0.1,0-1.1,0.1-1.5,0.1
						c-0.7,0-1.3-0.1-2-0.2c-0.5-0.1-1-0.2-1.4-0.3c-0.5-0.1-1-0.3-1.5-0.5c-0.5-0.2-1-0.7-1.3-1.2v0.8v0.8c0,0.4,0.2,0.7,0.5,0.9
						c1,0.7,2.2,1.1,3.4,1.3c0.8,0.1,1.7,0.2,2.5,0.2c1.2,0,2.4-0.1,3.6-0.4l0,0c0.6-0.2,1.2-0.4,1.8-0.7l0,0
						c0.1-0.1,0.3-0.2,0.4-0.3c0.2-0.2,0.4-0.4,0.5-0.6c0-0.1,0.1-0.2,0.1-0.3c0,0,0-1.3,0-1.4c0-0.1,0-0.2,0-0.3
						c0-0.1-0.1-0.2-0.2-0.2c0-0.1-0.1-0.1-0.2-0.2L53,73.4c-0.1,0.1-0.2,0.3-0.3,0.4c0.1,0,0.2,0.1,0.2,0.1
						c0.2,0.1,0.3,0.3,0.3,0.5c0,0.2-0.1,0.3-0.2,0.4C53,74.9,52.9,75,52.8,75z"/>
				</g>
			</g>
			<g>
				<g>
					<path class="st0" d="M31.8,70.7c3.5,0,6.4-1.1,6.4-2.4c0,0,0.1-1.2,0-1.5c0-0.2,0-0.3-0.1-0.5c0.4-0.2,0.7-0.6,0.7-1.1
						c0,0,0.1-1.3,0-1.6c-0.2-1.6-3.4-2.5-6.4-2.5S26,62.1,26,63.8c0,0.1,0.1,1.5,0.1,1.5c0,0.1,0,0.2,0.1,0.3
						c-0.5,0.3-0.8,0.8-0.8,1.3c0,0.1,0.1,1.5,0.1,1.5c0,0.4,0.2,0.7,0.5,0.9c1,0.7,2.2,1.1,3.4,1.3C30.1,70.6,31,70.7,31.8,70.7z
						 M32.5,61.8c3.4,0,5.8,1,5.8,1.9s-2.4,1.9-5.8,1.9s-5.8-1-5.8-1.9S29.1,61.8,32.5,61.8z M26.1,66.8c0-0.3,0.2-0.6,0.5-0.7
						c0.2,0.2,0.4,0.3,0.6,0.5c1.7,0.7,3.5,1.1,5.3,1c1.5,0,3.1-0.2,4.5-0.7c0.2-0.1,0.4-0.2,0.5-0.2c0,0,0,0.1,0,0.2
						c0,0.9-2.4,1.9-5.8,1.9S26.1,67.7,26.1,66.8L26.1,66.8z"/>
				</g>
				<g>
					<path class="st0" d="M38.9,69.4c0-0.1-0.1-0.2-0.2-0.2c-0.1-0.1-0.1-0.1-0.2-0.1c-0.1-0.1-0.2-0.1-0.3-0.2
						c-0.1,0.1-0.2,0.3-0.3,0.4c0.1,0,0.2,0.1,0.2,0.1c0.2,0.1,0.3,0.3,0.3,0.5c0,0.2-0.1,0.3-0.2,0.4l-0.2,0.2l-0.4,0.2l-0.6,0.2
						l-0.6,0.2l-0.8,0.2c0,0-0.7,0.1-1,0.2l-1,0.1l-1.5,0.1c-0.7,0-1.3-0.1-2-0.2c-0.5-0.1-1-0.2-1.4-0.3c-0.5-0.1-1-0.3-1.5-0.5
						c-0.3-0.1-0.6-0.3-0.8-0.5c-0.2-0.2-0.4-0.4-0.5-0.7v0.8v0.8c0,0.4,0.2,0.7,0.5,0.9c1,0.7,2.2,1.1,3.4,1.3
						c0.8,0.1,1.6,0.2,2.5,0.2c1.2,0,2.4-0.1,3.6-0.4l0,0c0.6-0.1,1.2-0.4,1.8-0.7l0,0c0.1-0.1,0.3-0.2,0.4-0.3
						c0.2-0.2,0.4-0.4,0.5-0.6c0-0.1,0.1-0.2,0.1-0.3c0,0,0-1.3,0-1.4C38.8,69.6,38.9,69.5,38.9,69.4z"/>
				</g>
				<g>
					<path class="st0" d="M38.1,75c-0.4,0.3-0.9,0.5-1.4,0.6c-1.4,0.4-2.9,0.6-4.3,0.5c-0.7,0-1.4-0.1-2.2-0.2
						c-0.4-0.1-0.9-0.1-1.3-0.2c-0.2,0-0.5-0.1-0.6-0.2c-0.6-0.2-1.2-0.5-1.7-0.8c-0.2-0.1-0.3-0.3-0.5-0.5v0.6c0,0.2,0,0.8,0,0.8
						c0,0.4,0.2,0.7,0.5,0.9c1,0.7,2.2,1.1,3.4,1.2c0.8,0.1,1.7,0.2,2.5,0.2c1.2,0,2.4-0.1,3.6-0.4l0,0c0.6-0.2,1.2-0.4,1.8-0.7l0,0
						c0.6-0.4,0.9-0.8,0.9-1.2c0,0,0-1.3,0-1.4C38.6,74.6,38.4,74.8,38.1,75z"/>
				</g>
				<g>
					<path class="st0" d="M26.6,74.3c1,0.7,2.2,1.2,3.4,1.3c0.8,0.1,1.6,0.2,2.5,0.2c1.2,0,2.4-0.1,3.5-0.4l0,0
						c0.6-0.1,1.2-0.4,1.8-0.7l0,0c0.1-0.1,0.3-0.2,0.4-0.3c0.2-0.2,0.4-0.4,0.5-0.6c0-0.1,0.1-0.2,0.1-0.3c0,0,0-1.3,0-1.4
						c-0.2,0.3-0.8,1.1-3.3,1.6c-1.1,0.2-2.2,0.3-3.2,0.3c-1.7,0-3.5-0.3-5.1-1c-0.3-0.2-0.6-0.3-0.8-0.6c-0.1-0.1-0.3-0.3-0.4-0.5
						c0,0,0,0.6,0,0.6v0.9C26,73.8,26.2,74.1,26.6,74.3z"/>
				</g>
				<g>
					<path class="st0" d="M38.9,78.8c-0.2,0.3-0.5,0.5-0.8,0.7c-0.4,0.3-0.9,0.5-1.4,0.6c-1.4,0.4-2.9,0.6-4.3,0.5
						c-0.7,0-1.4-0.1-2.2-0.2c-0.4-0.1-0.9-0.1-1.3-0.2c-0.2-0.1-0.4-0.1-0.6-0.2c-0.6-0.2-1.2-0.4-1.7-0.8
						c-0.2-0.1-0.4-0.3-0.5-0.5v0.6c0,0.2,0,0.8,0,0.8c0,0.4,0.2,0.7,0.5,0.9c1,0.7,2.2,1.1,3.4,1.3c0.8,0.1,1.6,0.2,2.5,0.2
						c1.2,0,2.4-0.1,3.6-0.4l0,0c0.6-0.2,1.2-0.4,1.8-0.7l0,0c0.6-0.4,0.9-0.8,0.9-1.2C38.9,80.2,38.9,78.9,38.9,78.8z"/>
				</g>
				<g>
					<path class="st0" d="M30,80.1c0.8,0.1,1.6,0.2,2.5,0.2c1.2,0,2.4-0.1,3.5-0.4l0,0c0.6-0.1,1.2-0.4,1.8-0.7l0,0
						c0.1-0.1,0.3-0.2,0.4-0.3c0.2-0.2,0.4-0.4,0.5-0.6c0-0.1,0.1-0.2,0.1-0.3c0,0,0-1.3,0-1.4c-0.2,0.3-0.8,1.1-3.3,1.6
						c-1.1,0.2-2.2,0.3-3.2,0.3c-1.8,0-3.5-0.3-5.1-1c-0.3-0.2-0.6-0.3-0.8-0.6c-0.1-0.1-0.3-0.3-0.4-0.5V77v0.9
						c0,0.4,0.2,0.7,0.5,0.9C27.5,79.6,28.7,80,30,80.1z"/>
				</g>
			</g>
		</g>
	</g>
</g>
</svg>
