<?xml version="1.0" encoding="utf-8"?>
<!-- Generator: Adobe Illustrator 22.0.1, SVG Export Plug-In . SVG Version: 6.00 Build 0)  -->
<svg version="1.1" id="Layer_1" xmlns="http://www.w3.org/2000/svg" xmlns:xlink="http://www.w3.org/1999/xlink" x="0px" y="0px"
	 viewBox="0 0 101.5 166.2" style="enable-background:new 0 0 101.5 166.2;" xml:space="preserve">
<style type="text/css">
	.st0{fill:#FFFFFF;}
	.st1{fill:#19486A;}
	.st2{enable-background:new    ;}
</style>
<title>TARGET 1.2</title>
<g id="WHITE_BG">
	<g>
		<rect y="0" class="st0" width="101.5" height="166.3"/>
	</g>
</g>
<g id="TARGETS">
	<g>
		<g>
			<path class="st1" d="M7,132.2v-6.4h1v6.4H7z"/>
		</g>
		<g>
			<path class="st1" d="M12.5,131.3h-0.9l-1.6-3.9v4.8H9v-6.4h1.2l1.8,4.3l1.7-4.3H15v6.4h-1v-4.8L12.5,131.3z"/>
		</g>
		<g>
			<path class="st1" d="M16.9,132.2h-1v-6.4h2c1.6,0,2.2,1,2.2,2c0,1-0.6,2-2.2,2h-1V132.2z M16.9,128.9H18c0.6,0,1.1-0.5,1.1-1.1
				c0-0.6-0.5-1.1-1.1-1.1c0,0,0,0,0,0h-1.1V128.9z"/>
		</g>
		<g>
			<path class="st1" d="M21.6,131.3h2.8v0.9h-3.7v-6.4h1V131.3z"/>
		</g>
		<g>
			<path class="st1" d="M28.5,129.3h-2.6v2h2.9v0.9h-3.9v-6.4h3.9v0.9h-2.9v1.8h2.6V129.3z"/>
		</g>
		<g>
			<path class="st1" d="M33,131.3h-0.9l-1.6-3.9v4.8h-1v-6.4h1.2l1.7,4.3l1.7-4.3h1.2v6.4h-1v-4.8L33,131.3z"/>
		</g>
		<g>
			<path class="st1" d="M40,129.3h-2.7v2h2.9v0.9h-3.9v-6.4h3.9v0.9h-2.9v1.8H40V129.3z"/>
		</g>
		<g>
			<path class="st1" d="M44.8,132.2l-2.8-4.5v4.5h-0.9v-6.4H42l2.8,4.5v-4.5h1v6.4H44.8z"/>
		</g>
		<g>
			<path class="st1" d="M48.9,126.7v5.5h-1v-5.5h-1.6v-0.9h4.3v0.9L48.9,126.7z"/>
		</g>
		<g>
			<path class="st1" d="M55.5,130.6h-2l-0.5,1.6h-1l2-6.4h1l2,6.4h-1L55.5,130.6z M54.5,127l-0.8,2.8h1.6L54.5,127z"/>
		</g>
		<g>
			<path class="st1" d="M58.5,131.3h2.8v0.9h-3.7v-6.4h1L58.5,131.3z"/>
		</g>
		<g>
			<path class="st1" d="M62.7,131.3h2.8v0.9h-3.7v-6.4h1L62.7,131.3z"/>
		</g>
		<g>
			<path class="st1" d="M6.9,141.2v-6.4h1.9c2.1,0,2.7,1.4,2.7,3.2s-0.6,3.2-2.7,3.2H6.9z M7.9,140.3h1c1.3,0,1.7-0.9,1.7-2.3
				s-0.4-2.3-1.7-2.3h-1L7.9,140.3z"/>
		</g>
		<g>
			<path class="st1" d="M15.8,138.3h-2.7v2h2.9v0.9h-3.9v-6.4h3.9v0.9h-2.9v1.8h2.7L15.8,138.3z"/>
		</g>
		<g>
			<path class="st1" d="M21.5,134.8l-2,6.5h-1l-2-6.5h1L19,140l1.5-5.2L21.5,134.8z"/>
		</g>
		<g>
			<path class="st1" d="M25.6,138.3H23v2h2.9v0.9H22v-6.4h3.9v0.9H23v1.8h2.6L25.6,138.3z"/>
		</g>
		<g>
			<path class="st1" d="M27.7,140.3h2.8v0.9h-3.7v-6.4h1L27.7,140.3z"/>
		</g>
		<g>
			<path class="st1" d="M30.5,138c0-1.8,0.4-3.3,2.5-3.3s2.5,1.5,2.5,3.3s-0.4,3.3-2.5,3.3S30.5,139.8,30.5,138z M31.5,138
				c0,1.5,0.3,2.4,1.5,2.4c1.2,0,1.5-0.9,1.5-2.4s-0.3-2.4-1.5-2.4S31.5,136.5,31.5,138L31.5,138z"/>
		</g>
		<g>
			<path class="st1" d="M37.1,141.2h-1v-6.4h2c1.6,0,2.2,1,2.2,2s-0.6,2-2.2,2H37L37.1,141.2z M37.1,137.9h1.1
				c0.6,0,1.1-0.5,1.1-1.1c0-0.6-0.5-1.1-1.1-1.1h-1.1V137.9z"/>
		</g>
		<g>
			<path class="st1" d="M44.2,140.3h-0.9l-1.6-3.9v4.8h-1v-6.4H42l1.7,4.4l1.7-4.4h1.2v6.4h-1v-4.8L44.2,140.3z"/>
		</g>
		<g>
			<path class="st1" d="M51.3,138.3h-2.7v2h2.9v0.9h-3.9v-6.4h3.9v0.9h-2.9v1.8h2.7V138.3z"/>
		</g>
		<g>
			<path class="st1" d="M56.1,141.2l-2.8-4.5v4.5h-0.9v-6.4h0.9l2.8,4.5v-4.5h1v6.4H56.1z"/>
		</g>
		<g>
			<path class="st1" d="M60.1,135.7v5.5h-1v-5.5h-1.6v-0.9h4.3v0.9H60.1z"/>
		</g>
		<g>
			<path class="st1" d="M10.1,148.6h-2l-0.4,1.6h-1l2-6.4h1l2,6.4h-1L10.1,148.6z M9.1,145l-0.8,2.8h1.6L9.1,145z"/>
		</g>
		<g>
			<path class="st1" d="M16.1,148.3c0,1.2-0.7,2-2.4,2c-0.6,0-1.3-0.1-1.9-0.4v-1c0.6,0.3,1.2,0.4,1.8,0.4c1.1,0,1.5-0.5,1.5-1.1
				s-0.3-0.9-1.2-1c-1.6-0.2-2.2-0.6-2.2-1.8c0-0.9,0.5-1.9,2.3-1.9c0.6,0,1.2,0.1,1.7,0.3v1c-0.5-0.2-1.1-0.3-1.7-0.3
				c-1,0-1.3,0.4-1.3,1s0.4,0.8,1.2,0.9C15.4,146.7,16.1,147,16.1,148.3z"/>
		</g>
		<g>
			<path class="st1" d="M21,148.3c0,1.2-0.7,2-2.4,2c-0.6,0-1.3-0.1-1.9-0.4v-1c0.6,0.3,1.2,0.4,1.8,0.4c1.1,0,1.5-0.5,1.5-1.1
				s-0.3-0.9-1.2-1c-1.5-0.2-2.1-0.6-2.1-1.8c0-0.9,0.5-1.9,2.3-1.9c0.6,0,1.2,0.1,1.7,0.3v1c-0.5-0.2-1.1-0.3-1.7-0.3
				c-1,0-1.3,0.4-1.3,1s0.4,0.8,1.2,0.9C20.2,146.7,21,147,21,148.3z"/>
		</g>
		<g>
			<path class="st1" d="M21.8,150.2v-6.4h1v6.4H21.8z"/>
		</g>
		<g>
			<path class="st1" d="M28,148.3c0,1.2-0.7,2-2.4,2c-0.6,0-1.3-0.1-1.9-0.4v-1c0.6,0.3,1.2,0.4,1.8,0.4c1.1,0,1.5-0.5,1.5-1.1
				s-0.3-0.9-1.1-1c-1.6-0.2-2.2-0.6-2.2-1.8c0-0.9,0.5-1.9,2.3-1.9c0.6,0,1.2,0.1,1.7,0.3v1c-0.5-0.2-1.1-0.3-1.7-0.3
				c-1,0-1.3,0.4-1.3,1s0.4,0.8,1.2,0.9C27.2,146.7,28,147,28,148.3z"/>
		</g>
		<g>
			<path class="st1" d="M30.7,144.7v5.5h-1v-5.5h-1.7v-0.9h4.3v0.9H30.7z"/>
		</g>
		<g>
			<path class="st1" d="M35.5,148.6h-2l-0.5,1.6h-1l2-6.4h1l2,6.4h-1L35.5,148.6z M34.5,145l-0.8,2.8h1.6L34.5,145z"/>
		</g>
		<g>
			<path class="st1" d="M41.2,150.2l-2.8-4.5v4.5h-1v-6.4h0.9l2.8,4.5v-4.5H42v6.4H41.2z"/>
		</g>
		<g>
			<path class="st1" d="M45.5,143.7c0.5,0,1,0.1,1.5,0.3v0.9c-0.5-0.2-0.9-0.3-1.4-0.3c-1.2,0-1.7,0.8-1.7,2.4s0.5,2.4,1.7,2.4
				c0.5,0,1-0.1,1.4-0.3v0.9c-0.5,0.2-1,0.3-1.5,0.3c-1.9,0-2.6-1.2-2.6-3.3S43.6,143.7,45.5,143.7z"/>
		</g>
		<g>
			<path class="st1" d="M51.5,147.3h-2.6v2h2.9v0.9h-3.9v-6.4h3.9v0.9h-2.9v1.8h2.7L51.5,147.3z"/>
		</g>
		<g>
			<path class="st1" d="M9.4,152.7c0.5,0,1,0.1,1.5,0.3v0.9c-0.5-0.2-0.9-0.3-1.4-0.3c-1.2,0-1.7,0.8-1.7,2.4s0.5,2.4,1.7,2.4
				c0.5,0,1-0.1,1.4-0.3v0.9c-0.5,0.2-1,0.3-1.5,0.3c-1.9,0-2.6-1.2-2.6-3.3S7.5,152.7,9.4,152.7z"/>
		</g>
		<g>
			<path class="st1" d="M11.6,156c0-1.8,0.4-3.3,2.5-3.3s2.4,1.5,2.4,3.3s-0.4,3.3-2.4,3.3S11.6,157.8,11.6,156z M12.6,156
				c0,1.5,0.3,2.4,1.5,2.4s1.5-0.9,1.5-2.4s-0.3-2.4-1.5-2.4S12.6,154.5,12.6,156L12.6,156z"/>
		</g>
		<g>
			<path class="st1" d="M20.6,158.3h-0.9l-1.6-3.9l0,4.8h-1v-6.4h1.2l1.7,4.4l1.7-4.4h1.2v6.4h-1v-4.8L20.6,158.3z"/>
		</g>
		<g>
			<path class="st1" d="M27.4,158.3h-0.9l-1.6-3.9v4.8H24v-6.4h1.2l1.7,4.4l1.7-4.4h1.2v6.4h-1l0-4.8L27.4,158.3z"/>
		</g>
		<g>
			<path class="st1" d="M30.9,159.2v-6.4h1v6.4H30.9z"/>
		</g>
		<g>
			<path class="st1" d="M35.3,153.7v5.5h-1v-5.5h-1.7v-0.9H37v0.9H35.3z"/>
		</g>
		<g>
			<path class="st1" d="M40.9,158.3H40l-1.6-3.9v4.8h-1v-6.4h1.2l1.7,4.4l1.7-4.4h1.2v6.4h-1l0-4.8L40.9,158.3z"/>
		</g>
		<g>
			<path class="st1" d="M48,156.3h-2.7v2h2.9v0.9h-3.9v-6.4h3.9v0.9h-2.9v1.8H48V156.3z"/>
		</g>
		<g>
			<path class="st1" d="M52.8,159.2l-2.8-4.5v4.5h-1v-6.4h0.9l2.8,4.5v-4.5h0.9v6.4L52.8,159.2z"/>
		</g>
		<g>
			<path class="st1" d="M56.8,153.7v5.5h-1v-5.5h-1.6v-0.9h4.3v0.9H56.8z"/>
		</g>
		<g>
			<path class="st1" d="M63.1,157.3c0,1.2-0.7,2-2.4,2c-0.6,0-1.3-0.1-1.9-0.4v-1c0.6,0.3,1.2,0.4,1.8,0.4c1.2,0,1.5-0.5,1.5-1.1
				s-0.3-0.9-1.2-1c-1.5-0.2-2.2-0.6-2.2-1.8c0-0.9,0.5-1.9,2.3-1.9c0.6,0,1.2,0.1,1.7,0.3v1c-0.5-0.2-1.1-0.3-1.7-0.3
				c-1,0-1.3,0.4-1.3,1s0.4,0.8,1.2,0.9C62.4,155.7,63.1,156,63.1,157.3z"/>
		</g>
	</g>
	<g>
		<rect x="3.3" y="24" class="st1" width="94.8" height="94.8"/>
	</g>
	<g>
		<path class="st1" d="M98.2,20.7H3.3V3.3h94.8V20.7z M4.3,19.7h92.8V4.3H4.3L4.3,19.7z"/>
	</g>
	<g class="st2">
		<path class="st1" d="M6.7,6.9h4.5v1.4H9.9v8.8H8.1V8.3H6.7V6.9z"/>
	</g>
	<g class="st2">
		<path class="st1" d="M11.2,17.1l1.9-10.2h1.9L17,17.1h-1.8l-0.3-1.9h-1.8l-0.3,1.9H11.2z M13.3,13.9h1.4L14,9.8h0L13.3,13.9z"/>
	</g>
	<g class="st2">
		<path class="st1" d="M19.6,12.4v4.7h-1.7V6.9h2.5c1.7,0,2.4,0.9,2.4,2.3v1.3c0,1.1-0.4,1.7-1.4,2l1.6,4.6h-1.8L19.6,12.4z
			 M19.6,8.3v3.2h0.6c0.6,0,0.8-0.3,0.8-0.8V9.2c0-0.6-0.3-0.8-0.8-0.8H19.6z"/>
	</g>
	<g class="st2">
		<path class="st1" d="M26.4,11.7h2.4v5.4h-1.2V16c-0.2,0.8-0.7,1.2-1.6,1.2c-1.5,0-2.1-1.2-2.1-2.7V9.6c0-1.6,0.8-2.7,2.6-2.7
			c1.9,0,2.4,1.1,2.4,2.6v0.9h-1.6v-1c0-0.6-0.2-1-0.9-1c-0.6,0-0.9,0.4-0.9,1v5.5c0,0.6,0.3,1,0.8,1c0.6,0,0.8-0.3,0.8-1V13h-0.8
			V11.7z"/>
	</g>
	<g class="st2">
		<path class="st1" d="M30.2,6.9h4.1v1.4h-2.4v2.9h1.7v1.4h-1.7v3.1h2.4v1.4h-4.1V6.9z"/>
	</g>
	<g class="st2">
		<path class="st1" d="M35.1,6.9h4.5v1.4h-1.4v8.8h-1.7V8.3h-1.4V6.9z"/>
	</g>
	<g class="st2">
		<path class="st1" d="M78.8,6.9v10.2h-1.7V9.3h0l-1.2,1.2h0V8.8l1.6-1.8H78.8z"/>
		<path class="st1" d="M80,6.9h4.3v1.6l-2.2,8.6h-1.7l2.3-8.8H80V6.9z"/>
	</g>
	<g class="st2">
	</g>
	<g class="st2">
		<path class="st1" d="M87.1,10.8c0.7,0,1.2,0.6,1.2,1.2c0,0.7-0.6,1.2-1.2,1.2c-0.7,0-1.2-0.6-1.2-1.2
			C85.8,11.4,86.4,10.8,87.1,10.8z"/>
	</g>
	<g class="st2">
		<path class="st1" d="M89.8,15.2c0-1,0.3-1.7,1.3-2.7l1-1c0.6-0.6,0.6-0.9,0.6-1.8V9c0-0.6-0.3-0.8-0.6-0.8c-0.4,0-0.7,0.2-0.7,0.8
			v1.3h-1.6V9c0-1.4,0.8-2.2,2.3-2.2c1.5,0,2.2,0.7,2.2,2.1v1c0,1-0.2,1.6-1.1,2.6l-1.1,1.2c-0.4,0.5-0.7,0.8-0.7,1.6v0.5h2.8v1.4
			h-4.4V15.2z"/>
	</g>
	<g>
		<g>
			<g>
				<path class="st0" d="M89.2,58.6c0-0.5-0.5-0.9-1-0.9c0,0,0,0,0,0c-0.5,0-0.9,0-1.4,0s-1-0.2-1.2-0.7c-0.2-0.9-0.5-1.9-0.9-2.7
					c-0.2-0.5-0.1-1.1,0.3-1.4c0.4-0.4,0.8-0.7,1.2-1c0.4-0.3,0.5-0.8,0.2-1.2c-0.6-1.1-1.3-2.1-2.2-2.9c-0.3-0.4-0.9-0.4-1.3-0.1
					c-0.4,0.3-0.8,0.5-1.2,0.8s-0.9,0.5-1.4,0.1c-0.8-0.6-1.8-1.3-2.4-1.7c-0.5-0.3-0.7-0.8-0.5-1.3c0.1-0.5,0.2-1,0.4-1.5
					c0.1-0.5-0.1-0.9-0.5-1.1c-1.1-0.5-2.3-0.9-3.5-1.1c-0.5-0.1-1,0.2-1.1,0.7c0,0,0,0,0,0c-0.2,0.5-0.3,0.9-0.5,1.3
					s-0.5,0.9-1,0.9c-1.2,0-2.1,0-2.9,0c-0.5,0.1-1-0.3-1.2-0.8c-0.2-0.5-0.4-0.9-0.6-1.5c-0.2-0.4-0.6-0.7-1.1-0.6
					C64.2,42,63,42.4,61.9,43c-0.5,0.2-0.7,0.7-0.5,1.2c0.2,0.5,0.2,0.9,0.4,1.4s0.2,1-0.3,1.3s-1.7,1.2-2.3,1.7
					c-0.4,0.4-1,0.4-1.4,0.1c-0.5-0.3-0.9-0.5-1.3-0.8c-0.4-0.2-0.9-0.2-1.2,0.2c-0.8,0.9-1.5,1.9-2.1,3c-0.3,0.4-0.2,1,0.3,1.3
					c0,0,0,0,0,0c0.4,0.3,0.7,0.6,1.1,0.9s0.7,0.7,0.5,1.3s-0.7,2.2-0.9,2.8c-0.1,0.5-0.6,0.9-1.1,0.9c-0.6,0-1,0.1-1.6,0.1
					c-0.5,0-0.9,0.4-0.9,0.9c-0.1,1.2-0.1,2.5,0.1,3.7c0.1,0.5,0.5,0.9,1,0.9c0.5,0,0.9,0,1.4,0s1,0.2,1.2,0.7
					c0.2,0.9,0.5,1.9,0.9,2.8c0.2,0.5,0.1,1.1-0.4,1.4c-0.4,0.3-0.8,0.7-1.2,1c-0.4,0.3-0.5,0.8-0.2,1.2c0.6,1.1,1.3,2.1,2.2,2.9
					c0.3,0.4,0.9,0.4,1.3,0.1c0.5-0.3,0.8-0.5,1.2-0.8s0.9-0.5,1.4-0.1s1.8,1.3,2.3,1.7c0.5,0.3,0.7,0.8,0.5,1.3
					c-0.2,0.5-0.2,1-0.4,1.5c-0.1,0.5,0.1,0.9,0.5,1.2c1.1,0.5,2.3,0.9,3.5,1.1c0.5,0.1,1-0.2,1.2-0.7c0.2-0.5,0.3-0.9,0.5-1.3
					s0.5-0.9,1-0.9c1.1,0,1.9,0,2.9,0c0.5-0.1,1,0.3,1.2,0.8c0.2,0.5,0.4,0.9,0.6,1.5c0.2,0.4,0.6,0.7,1.1,0.6
					c1.2-0.2,2.4-0.6,3.5-1.2c0.5-0.2,0.7-0.7,0.5-1.2c0,0,0,0,0,0c-0.1-0.5-0.2-0.9-0.4-1.4s-0.2-1,0.3-1.3s1.8-1.3,2.3-1.7
					c0.4-0.4,1-0.4,1.4-0.1c0.5,0.3,0.9,0.5,1.3,0.8c0.4,0.3,0.9,0.2,1.3-0.2c0.8-0.9,1.5-1.9,2.1-3c0.3-0.4,0.2-1-0.3-1.3
					c0,0,0,0,0,0l-1.1-0.9c-0.5-0.3-0.7-0.7-0.5-1.3s0.7-2.1,0.9-2.8c0.1-0.5,0.6-0.9,1.1-0.9c0.6,0,1-0.1,1.6-0.1
					c0.5,0,0.9-0.4,0.9-0.9C89.4,61.1,89.4,59.8,89.2,58.6z M69.9,72.9c-6.6,0-12-5.4-11.9-12.1s5.4-12,12.1-11.9
					c6.6,0,11.9,5.4,11.9,12C82,67.6,76.6,72.9,69.9,72.9C70,72.9,70,72.9,69.9,72.9z"/>
			</g>
			<g>
				<path class="st0" d="M61.1,57.4c0.3,0.2,0.5,0,0.6-0.2c0.1-0.1,0.1-0.3,0-0.4c-0.1-0.2,0.1-0.3,0.3-0.3c0.3-0.1,0.5-0.3,0.8-0.5
					c0.5-0.2,1.1-0.2,1.6,0c0.4,0.2,0.8,0.1,1.1-0.2c0.2-0.3,0.5-0.5,0.8-0.6c0.2-0.1-0.4-0.6-0.8,0s-0.7,0.6-0.9,0.6
					s-1.4-0.3-1.6-0.7s0.4-0.7,0.8-0.9c0.7-0.2,1.3-0.3,2-0.3c0.6-0.1,1.5-0.5,1.9-0.2s-1.7,0.8-1,1.1c0.2,0.1,1.4-0.7,1.8-0.8
					c0.9-0.5-0.9-0.6-0.7-1.6s-2.1-0.7-3.3-0.6c-0.6,0.4-1.1,0.8-1.7,1.3c0.1,0,0.3,0.1,0.3,0.2c0,0.2,0,0.5-0.2,0.7
					c-0.3,0.3-0.7,0.5-1.1,0.5c-0.1,0-0.1,0-0.2-0.1c-0.2,0.2-0.4,0.5-0.5,0.8c0.2-0.2,0.5-0.2,0.8-0.3c0.3,0,0.6,0.1,0.7,0.3
					s-0.7,0.5-0.8,0.6c-0.4,0.3-0.9,1-1.3,1.1c-0.1,0-0.2,0-0.2,0c-0.1,0.2-0.2,0.5-0.3,0.7C60.3,57.4,60.7,57.3,61.1,57.4z"/>
			</g>
			<g>
				<path class="st0" d="M78.5,60.4c-0.3,0.2-0.7,0.4-1.1,0.4c-0.4,0.3-0.6,0.8-0.6,1.3c0.1,0.4,1,1.5,0.3,1.5
					c-0.7-0.3-1.2-0.8-1.6-1.4c-0.2-0.6-0.5-1.2-0.6-1.6c-0.1-0.3-0.5-0.5-0.8-0.4c-0.1,0-0.1,0.1-0.2,0.1c-0.4,0.3,0.1,0.5-0.2,1.1
					s-0.5,1-0.9,0.6c-1-1.2-2.5-0.6-2.8-1.9c-0.1-0.7-0.7-0.7-1.2-1s-0.8-0.6-0.9-0.3s1.6,1.6,1.7,2c0.2,0.5-0.5,1-1,1.1
					s-0.7-0.3-1.2-0.8s-0.7-0.9-0.7-0.5c0,0.7,0.4,1.4,1,1.8c0.4,0.3,0.9,0.4,0.8,0.8s0,0.2-0.5,0.7c-0.4,0.3-0.6,0.8-0.5,1.3
					c0,0.7-0.1,0.7-0.2,1.2s-0.3,0.1-0.6,0.9c-0.1,0.5-0.3,0.9-0.7,1.2c-0.4,0.4-0.9,0.5-1.4,0.6c-0.5,0-0.6-1.3-0.6-2
					c0-0.2-0.3,0.4-0.5-0.9c-0.1-0.9-0.7,0.1-0.7-0.5s-0.3-0.5-0.6-0.8s-0.7,0-1.1,0.2s-0.2,0.3-0.8,0.1l0,0
					c1.2,2.9,3.7,5.2,6.7,6.1c-0.2-0.1-0.2-0.3-0.1-0.5c0.4-0.8,1.2-1.2,2.1-1.2c1.7-0.2,4,1.1,4.3,0.9s1.1-1.2,2.1-1.2
					c0.4,0,0.7,0.1,1,0.2c0.4-0.3,0.7-0.6,1.1-0.9c-0.1,0-0.2-0.1-0.3-0.1c-0.6-0.3-0.5,0.2-0.8,0.1s0.3-0.8-0.5-0.2s-0.6-0.1-1-1
					c-0.2-0.9,0.2-1.9,1.1-2.3c0.6-0.2,1.3-0.4,1.9-0.5c1.3-0.3,1.5-1.1,1.8-0.6c0,0.1,0.1,0.2,0.1,0.2c0.1,0.2,0.1,0.4,0.2,0.6
					c0.2-0.5,0.3-1,0.4-1.6c-0.3-0.1-1.4-1.7-0.5-2.8c0.2-0.2-0.3-0.7-0.2-0.7c0.4,0,0.8,0.2,0.9,0.6c0-0.6-0.1-1.1-0.2-1.6
					c0,0.2,0,0.3,0,0.4c-0.1,0.4-0.5,0.6-0.8,0.5c-0.2,0-0.4-0.2-0.5-0.4c-0.1-0.2-0.6-0.6-0.6,0.2S79.2,59.9,78.5,60.4z M68.5,64.5
					c-0.1,0.2-0.6,2-0.8,1.8s0.1-2.1,0.2-2.2C68.3,63.4,69.2,63.4,68.5,64.5L68.5,64.5z M72.8,62.4c-0.3,0.2-0.7,0.1-1-0.1
					c-0.3-0.2,0.2-0.5,0.3-0.6C72.5,61.7,73.1,62.2,72.8,62.4L72.8,62.4z M77.2,62c-0.1-0.1,0-0.2,0.1-0.3c0.1-0.1,0.2,0,0.3,0
					c0.2,0.1,0.4,0.3,0.5,0.6c0,0.2-0.4,0.2-0.5,0.1S77.3,62.3,77.2,62L77.2,62z M78.6,63.4c-0.3,0.1-0.7,0.1-1-0.1
					c-0.3-0.2,0.2-0.5,0.3-0.6C78.3,62.8,78.9,63.3,78.6,63.4L78.6,63.4z"/>
			</g>
			<g>
				<path class="st0" d="M60.7,58.6c0.6,0.1,1.2,0.2,1.7,0.4c0.6,0.2,1.6,0.8,2.1,0.5c0.6-0.2,0.7-0.4,0.7-0.7s-0.4-0.5-0.8-0.2
					C64.3,58.7,64,58,63.7,58s0.3,0.9,0.1,0.9s-0.6-0.9-0.7-1s-0.4-0.5-0.7-0.2c-0.6,0.6-1.6,0.5-1.8,0.7c-0.1,0.1-0.1,0.1-0.2,0.1
					c-0.4,0.2-0.5-0.3-0.6-0.6c-0.2,0.6-0.3,1.2-0.4,1.8v-0.1c0.3-0.7,0.4-0.7,0.5-0.8c0.1-0.1,0.3-0.1,0.4-0.2L60.7,58.6z"/>
			</g>
		</g>
		<g>
			<g>
				<path class="st0" d="M24,57.1c0.7,0,1-0.5,1-1.1v-6c0-0.7-0.3-1.2-1-1.2s-1,0.5-1,1.2v6C23.1,56.6,23.4,57.1,24,57.1z"/>
			</g>
			<g>
				<polygon class="st0" points="36.6,50.5 36.6,50.5 35.9,55 37.3,55 				"/>
			</g>
			<g>
				<path class="st0" d="M31.4,55.9V50c0.1-0.5-0.3-1-0.9-1.1c-0.1,0-0.1,0-0.2,0h-0.8V57h0.8C31.1,57,31.4,56.5,31.4,55.9z"/>
			</g>
			<g>
				<path class="st0" d="M17.9,40.4v35.3h25.3V40.4H17.9z M35.6,47.4h2.1l2.1,11.1h-1.9l-0.3-2h-2l-0.3,2h-1.7L35.6,47.4z
					 M27.6,47.4h2.9c2,0,2.7,1.3,2.7,3v5.1c0,1.7-0.7,3-2.7,3h-2.8L27.6,47.4z M21.2,50.2c0-1.7,0.9-3,2.8-3s2.8,1.3,2.8,3v5.4
					c0,1.7-0.9,3-2.8,3s-2.8-1.3-2.8-3V50.2z M40.1,71c0,0.1-0.1,0.2-0.2,0.2H21.1c-0.1,0-0.1-0.1-0.1-0.2v-3c0-0.1,0.1-0.2,0.2-0.2
					c0,0,0,0,0,0h18.8c0.1,0,0.2,0.1,0.2,0.2l0,0V71z M40.1,65.8c0,0.1-0.1,0.2-0.2,0.2h0H21.1c-0.1,0-0.2-0.1-0.2-0.2l0,0v-3
					c0-0.1,0.1-0.2,0.2-0.2h18.8c0.1,0,0.2,0.1,0.2,0.2V65.8z"/>
			</g>
			<g>
				<polygon class="st0" points="15.9,44.7 14.1,44.7 14.1,80 39.4,80 39.4,77.8 15.9,77.8 				"/>
			</g>
		</g>
		<g>
			<path class="st0" d="M67.1,97.5l-9.1,7.2c-0.1,0.1-0.2,0.1-0.4,0.1c-0.2-0.1-0.3-0.2-0.3-0.4v-3.6H34.1c-0.2,0-0.3-0.2-0.3-0.4
				v-6.2c0-0.2,0.1-0.4,0.3-0.4h23.2v-3.6c0-0.3,0.1-0.4,0.3-0.4c0.1,0,0.3,0,0.4,0.1l9,6.9c0.2,0.1,0.3,0.3,0.3,0.5
				C67.2,97.3,67.2,97.4,67.1,97.5z"/>
		</g>
	</g>
	<g>
		<path class="st1" d="M98.2,162.9h-95v-40.8h95V162.9z M4.2,161.9h93v-38.8h-93V161.9z"/>
	</g>
</g>
</svg>
