<?xml version="1.0" encoding="utf-8"?>
<!-- Generator: Adobe Illustrator 22.0.1, SVG Export Plug-In . SVG Version: 6.00 Build 0)  -->
<svg version="1.1" id="Layer_1" xmlns="http://www.w3.org/2000/svg" xmlns:xlink="http://www.w3.org/1999/xlink" x="0px" y="0px"
	 viewBox="0 0 101.5 166.2" style="enable-background:new 0 0 101.5 166.2;" xml:space="preserve">
<style type="text/css">
	.st0{fill:#FFFFFF;}
	.st1{fill:#19486A;}
	.st2{enable-background:new    ;}
</style>
<title>TARGET 1 B copy 8</title>
<g id="WHITE_BG">
	<g>
		<rect y="0" class="st0" width="101.5" height="166.2"/>
	</g>
</g>
<g id="TARGETS">
	<g>
		<g>
			<path class="st1" d="M10.1,130.6h-2l-0.4,1.6h-1l2-6.4h1l2,6.4h-1L10.1,130.6z M9.1,127l-0.8,2.8h1.6L9.1,127z"/>
		</g>
		<g>
			<path class="st1" d="M16.1,130.3c0,1.2-0.7,2-2.4,2c-0.6,0-1.3-0.1-1.9-0.4V131c0.6,0.3,1.2,0.4,1.8,0.4c1.1,0,1.5-0.5,1.5-1.1
				s-0.3-0.9-1.2-1c-1.6-0.2-2.2-0.6-2.2-1.8c0-0.9,0.5-1.8,2.3-1.8c0.6,0,1.2,0.1,1.7,0.3v1c-0.5-0.2-1.1-0.3-1.7-0.3
				c-1,0-1.3,0.4-1.3,1c0,0.7,0.4,0.8,1.2,0.9C15.4,128.7,16.1,129,16.1,130.3z"/>
		</g>
		<g>
			<path class="st1" d="M21,130.3c0,1.2-0.7,2-2.4,2c-0.6,0-1.3-0.1-1.9-0.4V131c0.6,0.3,1.2,0.4,1.8,0.4c1.1,0,1.5-0.5,1.5-1.1
				s-0.3-0.9-1.2-1c-1.5-0.2-2.1-0.6-2.1-1.8c0-0.9,0.5-1.8,2.3-1.8c0.6,0,1.2,0.1,1.7,0.3v1c-0.5-0.2-1.1-0.3-1.7-0.3
				c-1,0-1.3,0.4-1.3,1c0,0.7,0.4,0.8,1.2,0.9C20.2,128.7,21,129,21,130.3z"/>
		</g>
		<g>
			<path class="st1" d="M21.9,132.2v-6.4h1v6.4H21.9z"/>
		</g>
		<g>
			<path class="st1" d="M28.1,130.3c0,1.2-0.7,2-2.4,2c-0.6,0-1.3-0.1-1.9-0.4V131c0.6,0.3,1.2,0.4,1.8,0.4c1.1,0,1.5-0.5,1.5-1.1
				s-0.3-0.9-1.2-1c-1.5-0.2-2.1-0.6-2.1-1.8c0-0.9,0.5-1.8,2.3-1.8c0.6,0,1.2,0.1,1.7,0.3v1c-0.5-0.2-1.1-0.3-1.7-0.3
				c-1,0-1.3,0.4-1.3,1c0,0.7,0.4,0.8,1.2,0.9C27.3,128.7,28.1,129,28.1,130.3z"/>
		</g>
		<g>
			<path class="st1" d="M30.9,126.7v5.5h-1v-5.5h-1.6v-0.9h4.3v0.9H30.9z"/>
		</g>
		<g>
			<path class="st1" d="M34.3,132.2v-6.4h1.9c2.1,0,2.7,1.4,2.7,3.2s-0.6,3.2-2.7,3.2L34.3,132.2z M35.2,131.3h1
				c1.3,0,1.7-0.9,1.7-2.3s-0.4-2.3-1.7-2.3h-1V131.3z"/>
		</g>
		<g>
			<path class="st1" d="M43.2,129.3h-2.6v2h2.9v0.9h-3.9v-6.4h3.9v0.9h-2.9v1.8h2.7L43.2,129.3z"/>
		</g>
		<g>
			<path class="st1" d="M48.9,125.8l-2,6.4h-1l-2-6.4h1l1.5,5.2l1.5-5.2L48.9,125.8z"/>
		</g>
		<g>
			<path class="st1" d="M53,129.3h-2.6v2h2.9v0.9h-3.9v-6.4h3.9v0.9h-2.9v1.8H53V129.3z"/>
		</g>
		<g>
			<path class="st1" d="M55.1,131.3h2.8v0.9h-3.7v-6.4h1L55.1,131.3z"/>
		</g>
		<g>
			<path class="st1" d="M57.9,129c0-1.8,0.4-3.3,2.5-3.3s2.5,1.5,2.5,3.3s-0.4,3.3-2.5,3.3S57.9,130.8,57.9,129z M58.9,129
				c0,1.5,0.3,2.4,1.5,2.4s1.5-0.9,1.5-2.4s-0.3-2.4-1.5-2.4S58.8,127.5,58.9,129L58.9,129z"/>
		</g>
		<g>
			<path class="st1" d="M64.5,132.2h-1v-6.4h2c1.6,0,2.2,1,2.2,2c0,1-0.6,2-2.2,2h-1.1V132.2z M64.5,128.9h1.1
				c0.6,0.1,1.2-0.4,1.2-1c0.1-0.6-0.4-1.2-1-1.2c-0.1,0-0.1,0-0.2,0h-1.1V128.9z"/>
		</g>
		<g>
			<path class="st1" d="M68.4,132.2v-6.4h1v6.4H68.4z"/>
		</g>
		<g>
			<path class="st1" d="M74.1,132.2l-2.8-4.5v4.5h-0.9v-6.4h0.9l2.7,4.5v-4.5h1v6.4H74.1z"/>
		</g>
		<g>
			<path class="st1" d="M75.7,129c0-2,0.7-3.3,2.6-3.3c0.6,0,1.2,0.1,1.8,0.3v1c-0.5-0.2-1.1-0.4-1.7-0.4c-1.3,0-1.8,0.9-1.8,2.4
				s0.5,2.4,1.8,2.4c0.3,0,0.6,0,0.9-0.1v-1.7h-1.1v-0.9h2.1v3.2c-0.6,0.3-1.3,0.4-2,0.4C76.4,132.3,75.7,131,75.7,129z"/>
		</g>
		<g>
			<path class="st1" d="M9.4,134.7c0.5,0,1,0.1,1.5,0.3v0.9c-0.5-0.2-0.9-0.3-1.4-0.3c-1.2,0-1.7,0.8-1.7,2.4s0.5,2.4,1.7,2.4
				c0.5,0,1-0.1,1.4-0.3v0.9c-0.5,0.2-1,0.3-1.5,0.3c-1.9,0-2.6-1.2-2.6-3.3S7.5,134.7,9.4,134.7z"/>
		</g>
		<g>
			<path class="st1" d="M11.6,138c0-1.8,0.4-3.3,2.5-3.3s2.4,1.5,2.4,3.3s-0.4,3.3-2.4,3.3S11.6,139.8,11.6,138z M12.6,138
				c0,1.5,0.3,2.4,1.5,2.4s1.5-0.9,1.5-2.4s-0.3-2.4-1.5-2.4S12.6,136.5,12.6,138L12.6,138z"/>
		</g>
		<g>
			<path class="st1" d="M17.2,139.2v-4.4h1v4.3c-0.1,0.7,0.4,1.3,1,1.3c0.1,0,0.2,0,0.3,0c0.6,0.1,1.3-0.3,1.4-1c0-0.1,0-0.2,0-0.3
				v-4.3h1v4.4c0,1.1-0.8,2.1-2,2.1c-0.1,0-0.2,0-0.3,0c-1.1,0.1-2.2-0.7-2.3-1.8C17.2,139.4,17.2,139.3,17.2,139.2z"/>
		</g>
		<g>
			<path class="st1" d="M26.3,141.2l-2.8-4.5v4.5h-0.9v-6.4h0.9l2.8,4.5v-4.5h0.9v6.4H26.3z"/>
		</g>
		<g>
			<path class="st1" d="M30.3,135.7v5.5h-1v-5.5h-1.7v-0.9H32v0.9H30.3z"/>
		</g>
		<g>
			<path class="st1" d="M33.4,141.2h-1v-6.4h2.1c1.7,0,2.2,0.7,2.2,1.9c0.1,0.7-0.3,1.4-1,1.7l1.3,2.8h-1.1l-1.2-2.6h-1.3V141.2z
				 M33.4,137.7h1.3c0.9,0,1-0.5,1-1s-0.1-1-1-1h-1.3V137.7z"/>
		</g>
		<g>
			<path class="st1" d="M37.7,141.2v-6.4h1v6.4H37.7z"/>
		</g>
		<g>
			<path class="st1" d="M43.2,138.3h-2.6v2h2.9v0.9h-3.9v-6.4h3.9v0.9h-2.9v1.8h2.7L43.2,138.3z"/>
		</g>
		<g>
			<path class="st1" d="M48.4,139.3c0,1.2-0.7,2-2.4,2c-0.6,0-1.3-0.1-1.9-0.4V140c0.6,0.3,1.2,0.4,1.8,0.4c1.1,0,1.5-0.5,1.5-1.1
				s-0.3-0.9-1.2-1c-1.6-0.2-2.2-0.6-2.2-1.8c0-0.9,0.5-1.8,2.3-1.8c0.6,0,1.1,0.1,1.7,0.3v1c-0.5-0.2-1.1-0.3-1.7-0.3
				c-1,0-1.3,0.4-1.3,1s0.4,0.8,1.2,0.9C47.6,137.7,48.4,138,48.4,139.3z"/>
		</g>
		<g>
			<path class="st1" d="M50.7,141.2v-6.4h1v6.4H50.7z"/>
		</g>
		<g>
			<path class="st1" d="M56.4,141.2l-2.8-4.5v4.5h-0.9v-6.4h0.9l2.8,4.5v-4.5h0.9v6.4H56.4z"/>
		</g>
		<g>
			<path class="st1" d="M10.1,148.6h-2l-0.4,1.6h-1l2-6.4h1l2,6.4h-1L10.1,148.6z M9.1,145l-0.8,2.8h1.6L9.1,145z"/>
		</g>
		<g>
			<path class="st1" d="M13.7,144.7v5.5h-1v-5.5h-1.6v-0.9h4.3v0.9H13.7z"/>
		</g>
		<g>
			<path class="st1" d="M18.2,144.7v5.5h-1v-5.5h-1.6v-0.9h4.3v0.9H18.2z"/>
		</g>
		<g>
			<path class="st1" d="M23,148.6h-2l-0.5,1.6h-1l2-6.4h1l2,6.4h-1L23,148.6z M22,145l-0.8,2.8h1.6L22,145z"/>
		</g>
		<g>
			<path class="st1" d="M25.1,150.2v-6.4h1v6.4H25.1z"/>
		</g>
		<g>
			<path class="st1" d="M30.9,150.2l-2.8-4.5v4.5h-0.9v-6.4H28l2.8,4.5v-4.5h1v6.4H30.9z"/>
		</g>
		<g>
			<path class="st1" d="M32.8,150.2v-6.4h1v6.4H32.8z"/>
		</g>
		<g>
			<path class="st1" d="M38.5,150.2l-2.8-4.5v4.5h-0.9v-6.4h0.9l2.8,4.5v-4.5h0.9v6.4H38.5z"/>
		</g>
		<g>
			<path class="st1" d="M40.1,147c0-2,0.7-3.3,2.6-3.3c0.6,0,1.3,0.1,1.8,0.3v1c-0.5-0.2-1.1-0.4-1.7-0.4c-1.3,0-1.8,0.9-1.8,2.4
				s0.5,2.4,1.8,2.4c0.3,0,0.6,0,0.9-0.1v-1.7h-1.1v-0.9h2.1v3.2c-0.6,0.3-1.3,0.4-2,0.4C40.8,150.3,40.1,149,40.1,147z"/>
		</g>
		<g>
			<path class="st1" d="M47,150.2v-6.4h1.9c2.1,0,2.7,1.4,2.7,3.2s-0.6,3.2-2.7,3.2H47z M48,149.3h1c1.3,0,1.7-0.9,1.7-2.3
				s-0.4-2.3-1.7-2.3h-1V149.3z"/>
		</g>
		<g>
			<path class="st1" d="M56,147.3h-2.7v2h2.9v0.9h-3.9v-6.4h3.9v0.9h-2.9v1.8H56V147.3z"/>
		</g>
		<g>
			<path class="st1" d="M57.1,143.8h2.2c1.5,0,2,0.8,2,1.7c0,0.5-0.3,1-0.8,1.3c0.6,0.2,1.1,0.8,1,1.5c0,1.1-0.5,1.9-2.2,1.9h-2.2
				L57.1,143.8z M59.2,144.7H58v1.8h1.2c0.8,0,1-0.5,1-0.9S60.1,144.7,59.2,144.7z M58,149.3h1.3c0.9,0,1.1-0.5,1.1-1s-0.3-1-1.1-1
				H58V149.3z"/>
		</g>
		<g>
			<path class="st1" d="M64.3,144.7v5.5h-1v-5.5h-1.6v-0.9H66v0.9H64.3z"/>
		</g>
		<g>
			<path class="st1" d="M11.1,157.3c0,1.2-0.7,2-2.4,2c-0.6,0-1.3-0.1-1.9-0.4V158c0.6,0.3,1.2,0.4,1.8,0.4c1.1,0,1.5-0.5,1.5-1.1
				s-0.3-0.9-1.2-1c-1.6-0.2-2.2-0.6-2.2-1.8c0-0.9,0.5-1.8,2.3-1.8c0.6,0,1.2,0.1,1.7,0.3v1c-0.5-0.2-1.1-0.3-1.7-0.3
				c-1,0-1.3,0.4-1.3,1s0.4,0.8,1.2,0.9C10.3,155.7,11.1,156,11.1,157.3z"/>
		</g>
		<g>
			<path class="st1" d="M11.7,157.2v-4.4h1v4.3c-0.1,0.7,0.4,1.3,1.1,1.3c0.1,0,0.2,0,0.3,0c0.6,0.1,1.3-0.3,1.4-1
				c0-0.1,0-0.2,0-0.3v-4.3h0.9v4.4c0,1.1-0.8,2.1-2,2.1c-0.1,0-0.2,0-0.3,0c-1.1,0.1-2.2-0.7-2.3-1.8
				C11.7,157.4,11.7,157.3,11.7,157.2z"/>
		</g>
		<g>
			<path class="st1" d="M21.3,157.3c0,1.2-0.7,2-2.4,2c-0.6,0-1.3-0.1-1.9-0.4V158c0.6,0.3,1.2,0.4,1.8,0.4c1.1,0,1.5-0.5,1.5-1.1
				s-0.3-0.9-1.2-1c-1.5-0.2-2.2-0.6-2.2-1.8c0-0.9,0.5-1.8,2.3-1.8c0.6,0,1.2,0.1,1.8,0.3v1c-0.5-0.2-1.1-0.3-1.7-0.3
				c-1,0-1.3,0.4-1.3,1s0.4,0.8,1.2,0.9C20.5,155.7,21.3,156,21.3,157.3z"/>
		</g>
		<g>
			<path class="st1" d="M24,153.7v5.5h-1v-5.5h-1.6v-0.9h4.3v0.9H24z"/>
		</g>
		<g>
			<path class="st1" d="M28.7,157.6h-2l-0.5,1.6h-1l2-6.4h1l2,6.4h-1L28.7,157.6z M27.7,154l-0.8,2.8h1.6L27.7,154z"/>
		</g>
		<g>
			<path class="st1" d="M30.9,159.2v-6.4h1v6.4H30.9z"/>
		</g>
		<g>
			<path class="st1" d="M36.6,159.2l-2.8-4.5v4.5h-0.9v-6.4h0.9l2.8,4.5v-4.5h0.9v6.4H36.6z"/>
		</g>
		<g>
			<path class="st1" d="M41.5,157.6h-2l-0.5,1.6h-1l2-6.4h1l2,6.4h-1L41.5,157.6z M40.5,154l-0.8,2.8h1.6L40.5,154z"/>
		</g>
		<g>
			<path class="st1" d="M43.5,152.8h2.2c1.5,0,2,0.8,2,1.7c0,0.5-0.3,1-0.8,1.3c0.6,0.2,1.1,0.8,1,1.5c0,1.1-0.5,1.9-2.2,1.9h-2.2
				L43.5,152.8z M45.7,153.7h-1.2v1.8h1.2c0.8,0,1-0.5,1-0.9S46.5,153.7,45.7,153.7z M44.5,158.3h1.3c0.9,0,1.1-0.5,1.1-1
				s-0.3-1-1.1-1h-1.3L44.5,158.3z"/>
		</g>
		<g>
			<path class="st1" d="M48.8,159.2v-6.4h1v6.4H48.8z"/>
		</g>
		<g>
			<path class="st1" d="M51.7,158.3h2.8v0.9h-3.7v-6.4h1L51.7,158.3z"/>
		</g>
		<g>
			<path class="st1" d="M55.2,159.2v-6.4h1v6.4H55.2z"/>
		</g>
		<g>
			<path class="st1" d="M59.4,153.7v5.5h-1v-5.5h-1.7v-0.9h4.3v0.9H59.4z"/>
		</g>
		<g>
			<path class="st1" d="M64.4,156.6v2.6h-1v-2.6l-2.2-3.8h1.1l1.6,3l1.6-3h1.1L64.4,156.6z"/>
		</g>
	</g>
	<g>
		<rect x="3.3" y="24" class="st1" width="94.8" height="94.8"/>
	</g>
	<g>
		<path class="st1" d="M98.2,20.7H3.3V3.3h94.8V20.7z M4.3,19.7h92.8V4.3H4.3L4.3,19.7z"/>
	</g>
	<g class="st2">
		<path class="st1" d="M6.7,6.9h4.5v1.4H9.9v8.8H8.1V8.3H6.7V6.9z"/>
	</g>
	<g class="st2">
		<path class="st1" d="M11.2,17.1l1.9-10.2h1.9L17,17.1h-1.8l-0.3-1.9h-1.8l-0.3,1.9H11.2z M13.3,13.9h1.4L14,9.8h0L13.3,13.9z"/>
	</g>
	<g class="st2">
		<path class="st1" d="M19.6,12.4v4.7h-1.7V6.9h2.5c1.7,0,2.4,0.9,2.4,2.3v1.3c0,1.1-0.4,1.7-1.4,2l1.6,4.6h-1.8L19.6,12.4z
			 M19.6,8.3v3.2h0.6c0.6,0,0.8-0.3,0.8-0.8V9.2c0-0.6-0.3-0.8-0.8-0.8H19.6z"/>
	</g>
	<g class="st2">
		<path class="st1" d="M26.4,11.7h2.4v5.4h-1.2V16c-0.2,0.8-0.7,1.2-1.6,1.2c-1.5,0-2.1-1.2-2.1-2.7V9.6c0-1.6,0.8-2.7,2.6-2.7
			c1.9,0,2.4,1.1,2.4,2.6v0.9h-1.6v-1c0-0.6-0.2-1-0.9-1c-0.6,0-0.9,0.4-0.9,1v5.5c0,0.6,0.3,1,0.8,1c0.6,0,0.8-0.3,0.8-1V13h-0.8
			V11.7z"/>
	</g>
	<g class="st2">
		<path class="st1" d="M30.2,6.9h4.1v1.4h-2.4v2.9h1.7v1.4h-1.7v3.1h2.4v1.4h-4.1V6.9z"/>
	</g>
	<g class="st2">
		<path class="st1" d="M35.1,6.9h4.5v1.4h-1.4v8.8h-1.7V8.3h-1.4V6.9z"/>
	</g>
	<g class="st2">
		<path class="st1" d="M78.2,6.9v10.2h-1.7V9.3h0l-1.2,1.2h0V8.8l1.6-1.8H78.2z"/>
		<path class="st1" d="M79.4,6.9h4.3v1.6l-2.2,8.6h-1.7l2.3-8.8h-2.6V6.9z"/>
	</g>
	<g class="st2">
	</g>
	<g class="st2">
		<path class="st1" d="M86.5,10.8c0.7,0,1.2,0.6,1.2,1.2c0,0.7-0.6,1.2-1.2,1.2c-0.7,0-1.2-0.6-1.2-1.2
			C85.2,11.4,85.8,10.8,86.5,10.8z"/>
	</g>
	<g class="st2">
		<path class="st1" d="M89.1,14.4l3-7.5h1.7v7.2h0.7v1.3h-0.7v1.7h-1.6v-1.7h-3V14.4z M90.6,14.1h1.5V9.9h0L90.6,14.1z"/>
	</g>
	<g>
		<path class="st1" d="M98.2,162.9h-95v-40.8h95V162.9z M4.2,161.9h93v-38.8h-93V161.9z"/>
	</g>
	<g>
		<g>
			<path class="st0" d="M85.1,77.1h-0.1l-6.7-0.3l0,0c-0.1,0-0.1,0-0.2,0c-0.1,0.1-0.1,0.2-0.1,0.3c0,0,0,0,0,0l0,0l0,0l0.1,0.1
				l1.2,1.7l0.6,0.8l-11.7,7l-22.5,3.4h-0.2l-19.4,13.5l1.1,1.7l19-13.2l22.7-3.4l12.1-7.2l0.6,0.9l1.2,1.7v0.1
				c0.1,0.1,0.2,0.1,0.3,0.1c0,0,0.1-0.1,0.1-0.1v-0.1l2.1-6.5v-0.1c0-0.1,0-0.2-0.1-0.2C85.1,77.2,85.1,77.2,85.1,77.1z"/>
		</g>
		<g>
			<polygon class="st0" points="20.4,70.4 17.7,70.4 17.7,58.8 20.4,58.8 20.4,56.8 17.7,56.8 17.7,45.2 20.4,45.2 20.4,43.2 
				17.7,43.2 17.7,35.8 15.7,35.8 15.7,107.1 17.7,107.1 17.7,99.7 20.4,99.7 20.4,97.7 17.7,97.7 17.7,86.1 20.4,86.1 20.4,84.1 
				17.7,84.1 17.7,72.4 20.4,72.4 85.8,72.4 85.8,70.4 			"/>
		</g>
		<g>
			<g>
				<g>
					<path class="st0" d="M45.4,61.2c-0.5,0.3-1,0.5-1.6,0.7c-1.6,0.5-3.2,0.7-4.9,0.6c-0.8,0-1.6-0.1-2.4-0.2
						c-0.5-0.1-1-0.2-1.5-0.3c-0.3-0.1-0.5-0.1-0.7-0.2c-0.7-0.2-1.3-0.5-1.9-0.9c-0.2-0.2-0.4-0.3-0.5-0.6V61c0,0.2,0,1,0,1
						c0,0.4,0.2,0.8,0.6,1c1.1,0.8,2.4,1.3,3.8,1.4c0.9,0.1,1.9,0.2,2.8,0.2c1.3,0,2.7-0.1,4-0.5l0,0c0.7-0.2,1.4-0.4,2-0.8l0,0
						c0.7-0.4,1.1-0.9,1.1-1.4c0,0,0.1-1.5,0-1.6C45.9,60.7,45.7,61,45.4,61.2z"/>
				</g>
				<g>
					<path class="st0" d="M38.4,56.3c4,0,7.2-1.2,7.2-2.7c0,0,0.1-1.4,0.1-1.7c0-0.2-0.1-0.4-0.1-0.6c0.4-0.2,0.7-0.7,0.8-1.2
						c0,0,0.1-1.5,0-1.8c-0.2-1.8-3.8-2.8-7.2-2.8s-7.2,1-7.2,2.9c0,0.1,0.1,1.7,0.1,1.7c0,0.1,0,0.2,0.1,0.3
						c-0.5,0.3-0.9,0.8-0.9,1.5c0,0.1,0.1,1.7,0.1,1.7c0,0.4,0.2,0.8,0.6,1c1.1,0.8,2.4,1.3,3.8,1.4C36.5,56.2,37.5,56.3,38.4,56.3z
						 M39.1,46.4c3.8,0,6.5,1.2,6.5,2.2s-2.6,2.2-6.5,2.2s-6.5-1.1-6.5-2.2S35.3,46.4,39.1,46.4z M31.9,52c0.1-0.3,0.3-0.6,0.6-0.8
						c0.2,0.2,0.5,0.4,0.7,0.5c1.9,0.8,3.9,1.3,5.9,1.2c1.7,0,3.4-0.2,5.1-0.8c0.2-0.1,0.4-0.2,0.6-0.3c0,0.1,0,0.1,0,0.2
						c0,1-2.7,2.2-6.5,2.2S31.9,53,31.9,52z"/>
				</g>
				<g>
					<path class="st0" d="M36.3,61.8C37.2,62,38.1,62,39,62c1.3,0,2.7-0.1,4-0.5l0,0c0.7-0.2,1.4-0.4,2-0.8l0,0
						c0.2-0.1,0.3-0.2,0.5-0.3c0.2-0.2,0.4-0.4,0.5-0.7c0-0.1,0.1-0.2,0.1-0.4c0,0,0-1.5,0-1.6c-0.2,0.3-0.9,1.2-3.7,1.8
						c-1.2,0.2-2.4,0.3-3.7,0.3c-2.3,0-4.7-0.5-5.7-1.1c-0.3-0.2-0.6-0.4-0.9-0.6c-0.2-0.2-0.3-0.3-0.4-0.5c0,0,0,0.7,0,0.7v1
						c0,0.4,0.2,0.8,0.6,1C33.4,61.2,34.8,61.7,36.3,61.8z"/>
				</g>
				<g>
					<path class="st0" d="M45.4,56.1L45,56.3c0,0-0.4,0.2-0.6,0.3c0,0-0.4,0.2-0.6,0.2s-0.6,0.2-0.9,0.2c0,0-0.8,0.1-1.1,0.2
						l-1.1,0.1c-0.1,0-1.2,0.1-1.7,0.1c-0.8,0-1.5-0.1-2.3-0.2c-0.5-0.1-1.1-0.2-1.6-0.3c-0.6-0.1-1.2-0.3-1.7-0.5
						c-0.3-0.1-0.6-0.3-0.9-0.6c-0.2-0.2-0.4-0.5-0.6-0.8v0.9v0.9c0,0.4,0.2,0.8,0.6,1c1.1,0.8,2.4,1.3,3.8,1.4
						c0.9,0.1,1.9,0.2,2.8,0.2c1.3,0,2.7-0.1,4-0.5l0,0c0.7-0.2,1.4-0.4,2-0.8l0,0c0.2-0.1,0.3-0.2,0.5-0.3c0.2-0.2,0.4-0.4,0.5-0.7
						c0-0.1,0.1-0.2,0.1-0.4c0,0,0.1-1.5,0.1-1.5c0-0.1,0-0.2-0.1-0.4c0-0.1-0.1-0.2-0.2-0.3c-0.1-0.1-0.1-0.1-0.2-0.2
						c-0.1-0.1-0.2-0.1-0.3-0.2c-0.1,0.2-0.2,0.3-0.3,0.4c0.1,0,0.2,0.1,0.3,0.2c0.2,0.1,0.3,0.3,0.3,0.5c0,0.2-0.1,0.4-0.3,0.5
						L45.4,56.1z"/>
				</g>
			</g>
			<g>
				<g>
					<path class="st0" d="M78.5,61.2c-0.5,0.3-1,0.5-1.6,0.7c-1.6,0.5-3.2,0.7-4.9,0.6c-0.8,0-1.6-0.1-2.4-0.2
						c-0.5-0.1-1-0.2-1.5-0.3c-0.2-0.1-0.5-0.1-0.7-0.2c-0.7-0.2-1.3-0.5-1.9-0.9c-0.2-0.2-0.4-0.3-0.5-0.6V61c0,0.2,0,1,0,1
						c0,0.4,0.2,0.8,0.6,1c1.1,0.8,2.4,1.3,3.8,1.4c0.9,0.1,1.8,0.2,2.8,0.2c1.3,0,2.7-0.1,4-0.5l0,0c0.7-0.2,1.4-0.4,2-0.8l0,0
						c0.7-0.4,1.1-0.9,1.1-1.4c0,0,0-1.5,0-1.6C79,60.7,78.8,61,78.5,61.2z"/>
				</g>
				<g>
					<path class="st0" d="M71.5,56.3c4,0,7.2-1.2,7.2-2.7c0,0,0.1-1.4,0.1-1.7c0-0.2,0-0.4-0.1-0.6c0.5-0.2,0.8-0.7,0.8-1.2
						c0,0,0.1-1.5,0-1.8c-0.2-1.8-3.8-2.8-7.2-2.8s-7.2,1-7.2,2.9c0,0.1,0.1,1.7,0.1,1.7c0,0.1,0,0.2,0.1,0.3
						c-0.5,0.3-0.9,0.8-0.9,1.5c0,0.1,0.1,1.7,0.1,1.7c0,0.4,0.2,0.8,0.6,1c1.1,0.8,2.4,1.3,3.8,1.4C69.6,56.2,70.6,56.3,71.5,56.3z
						 M72.2,46.4c3.8,0,6.5,1.2,6.5,2.2s-2.7,2.2-6.5,2.2s-6.5-1.1-6.5-2.2S68.4,46.4,72.2,46.4z M65,52c0.1-0.3,0.3-0.6,0.6-0.8
						c0.2,0.2,0.5,0.4,0.7,0.5c1.9,0.9,3.9,1.3,5.9,1.2c1.7,0,3.4-0.2,5.1-0.8c0.2-0.1,0.4-0.2,0.6-0.3c0,0.1,0.1,0.1,0.1,0.2
						c0,1-2.7,2.2-6.5,2.2S65,53,65,52z"/>
				</g>
				<g>
					<path class="st0" d="M69.4,61.8c0.9,0.1,1.8,0.2,2.8,0.2c1.3,0,2.7-0.1,4-0.5l0,0c0.7-0.2,1.4-0.4,2-0.8l0,0
						c0.2-0.1,0.3-0.2,0.4-0.3c0.2-0.2,0.4-0.4,0.5-0.7c0.1-0.1,0.1-0.2,0.1-0.4c0,0,0-1.5,0-1.6c-0.2,0.3-0.8,1.2-3.7,1.8
						c-1.2,0.2-2.4,0.3-3.7,0.3c-2.3,0-4.7-0.5-5.7-1.1c-0.3-0.2-0.6-0.4-0.9-0.6c-0.2-0.2-0.3-0.3-0.4-0.5c0,0,0,0.7,0,0.7v1
						c0,0.4,0.2,0.8,0.6,1C66.6,61.2,67.9,61.7,69.4,61.8z"/>
				</g>
				<g>
					<path class="st0" d="M78.5,56.1l-0.4,0.2c0,0-0.4,0.2-0.6,0.3c0,0-0.4,0.2-0.6,0.2S76.2,56.9,76,57c-0.1,0-0.8,0.1-1.1,0.2
						l-1.1,0.1c-0.1,0-1.2,0.1-1.7,0.1c-0.8,0-1.5-0.1-2.3-0.2c-0.5-0.1-1.1-0.2-1.6-0.3c-0.6-0.1-1.2-0.3-1.7-0.5
						c-0.3-0.1-0.6-0.3-0.9-0.6c-0.2-0.2-0.4-0.5-0.6-0.7v0.9v0.9c0,0.4,0.2,0.8,0.6,1c1.1,0.8,2.4,1.3,3.8,1.4
						c0.9,0.1,1.9,0.2,2.8,0.2c1.3,0,2.7-0.1,4-0.5l0,0c0.7-0.2,1.4-0.4,2-0.8l0,0c0.2-0.1,0.3-0.2,0.4-0.3c0.2-0.2,0.4-0.4,0.5-0.7
						c0-0.1,0.1-0.2,0.1-0.4c0,0,0.1-1.5,0.1-1.5c0-0.1,0-0.2,0-0.4c0-0.1-0.1-0.2-0.2-0.3c-0.1-0.1-0.2-0.2-0.2-0.2
						c-0.1-0.1-0.2-0.1-0.3-0.2c-0.1,0.2-0.2,0.3-0.3,0.4c0.1,0,0.2,0.1,0.3,0.2c0.2,0.1,0.3,0.3,0.3,0.5c0,0.2-0.1,0.4-0.2,0.5
						L78.5,56.1z"/>
				</g>
			</g>
			<g>
				<g>
					<path class="st0" d="M54.9,51.2c4,0,7.2-1.2,7.2-2.7c0,0,0.1-1.4,0.1-1.7c0-0.2-0.1-0.4-0.1-0.6c0.4-0.2,0.7-0.7,0.8-1.2
						c0,0,0.1-1.5,0-1.8c-0.2-1.8-3.8-2.8-7.2-2.8s-7.2,1-7.2,2.9c0,0.1,0.1,1.7,0.1,1.7c0,0.1,0,0.2,0.1,0.3
						c-0.5,0.3-0.9,0.9-0.9,1.5c0,0.1,0.1,1.7,0.1,1.7c0,0.4,0.2,0.8,0.6,1c1.1,0.8,2.5,1.3,3.8,1.5C53,51.1,54,51.2,54.9,51.2z
						 M55.6,41.2c3.8,0,6.5,1.1,6.5,2.2s-2.7,2.2-6.5,2.2s-6.5-1.2-6.5-2.2S51.8,41.2,55.6,41.2z M48.4,46.8
						c0.1-0.4,0.3-0.7,0.6-0.8c0.2,0.2,0.5,0.4,0.7,0.5c1.9,0.8,3.9,1.2,5.9,1.2c1.7,0.1,3.4-0.2,5-0.7c0.2-0.1,0.4-0.2,0.6-0.3
						c0,0.1,0,0.1,0,0.2c0,1-2.7,2.2-6.5,2.2S48.4,47.9,48.4,46.8z"/>
				</g>
				<g>
					<path class="st0" d="M62.8,49.7c0-0.1-0.1-0.2-0.2-0.3c-0.1-0.1-0.1-0.1-0.2-0.2c-0.1-0.1-0.2-0.1-0.3-0.2
						c-0.1,0.2-0.2,0.3-0.3,0.4c0.1,0,0.2,0.1,0.3,0.2c0.2,0.1,0.3,0.3,0.3,0.5c0,0.2-0.1,0.4-0.3,0.5c-0.1,0.1-0.2,0.1-0.3,0.2
						c-0.1,0.1-0.3,0.2-0.4,0.2l-0.6,0.3l-0.6,0.2l-0.9,0.2L58.3,52l-1.1,0.1c-0.1,0-1.2,0.1-1.7,0.1c-0.8,0-1.5-0.1-2.3-0.2
						c-0.5-0.1-1.1-0.2-1.6-0.3c-0.6-0.1-1.2-0.3-1.7-0.5c-0.3-0.1-0.6-0.4-0.9-0.6c-0.2-0.2-0.4-0.5-0.6-0.8c0,0,0,0.9,0,1v0.9
						c0,0.4,0.2,0.8,0.6,1c1.1,0.8,2.4,1.3,3.8,1.4c0.9,0.1,1.9,0.2,2.8,0.2c1.3,0,2.7-0.1,4-0.5l0,0c0.7-0.2,1.4-0.4,2-0.8l0,0
						c0.2-0.1,0.3-0.2,0.5-0.3c0.2-0.2,0.4-0.4,0.5-0.7c0-0.1,0.1-0.2,0.1-0.4c0,0,0.1-1.5,0.1-1.5C62.8,50,62.8,49.9,62.8,49.7z"/>
				</g>
				<g>
					<path class="st0" d="M62,56c-0.5,0.3-1,0.5-1.6,0.7c-1.6,0.5-3.2,0.7-4.9,0.6c-0.8,0-1.6-0.1-2.4-0.2c-0.5-0.1-1-0.2-1.5-0.3
						c-0.3-0.1-0.5-0.1-0.7-0.2c-0.7-0.2-1.3-0.5-1.9-0.9c-0.2-0.2-0.4-0.4-0.5-0.6v0.6c0,0.2,0,1,0,1c0,0.4,0.2,0.8,0.6,1
						c1.1,0.8,2.4,1.3,3.8,1.4c0.9,0.1,1.9,0.2,2.8,0.2c1.3,0,2.7-0.1,4-0.5l0,0c0.7-0.2,1.4-0.4,2-0.8l0,0c0.7-0.4,1.1-0.9,1.1-1.4
						c0,0,0-1.5,0-1.6C62.5,55.5,62.3,55.8,62,56z"/>
				</g>
				<g>
					<path class="st0" d="M49,55.2c1.1,0.8,2.4,1.3,3.8,1.4c0.9,0.1,1.9,0.2,2.8,0.2c1.3,0,2.7-0.1,4-0.5l0,0c0.7-0.2,1.4-0.4,2-0.8
						l0,0c0.2-0.1,0.3-0.2,0.5-0.3c0.2-0.2,0.4-0.4,0.5-0.7c0-0.1,0.1-0.2,0.1-0.4c0,0,0-1.5,0-1.6c-0.2,0.3-0.8,1.2-3.7,1.8
						c-1.2,0.2-2.4,0.3-3.7,0.3c-2,0.1-3.9-0.3-5.7-1.1c-0.3-0.2-0.6-0.4-0.9-0.6c-0.2-0.2-0.3-0.3-0.4-0.5c0,0,0,0.7,0,0.7v1
						C48.3,54.7,48.6,55,49,55.2z"/>
				</g>
				<g>
					<path class="st0" d="M62.9,60.3c-0.2,0.3-0.5,0.6-0.9,0.8c-0.5,0.3-1,0.5-1.6,0.7c-1.6,0.5-3.2,0.7-4.9,0.6
						c-0.8,0-1.6-0.1-2.4-0.2c-0.5-0.1-1-0.2-1.5-0.3l-0.7-0.2c-0.7-0.2-1.3-0.5-1.9-0.9c-0.2-0.2-0.4-0.3-0.5-0.6V61c0,0.2,0,1,0,1
						c0,0.4,0.2,0.8,0.6,1c1.1,0.8,2.4,1.3,3.8,1.4c0.9,0.1,1.8,0.2,2.8,0.2c1.3,0,2.7-0.1,4-0.5l0,0c0.7-0.2,1.4-0.4,2-0.8l0,0
						c0.7-0.4,1-0.9,1-1.4C62.8,61.9,62.9,60.4,62.9,60.3z"/>
				</g>
				<g>
					<path class="st0" d="M52.8,61.8c0.9,0.1,1.9,0.2,2.8,0.2c1.3,0,2.7-0.1,4-0.5h0c0.7-0.2,1.4-0.4,2-0.8l0,0
						c0.2-0.1,0.3-0.2,0.4-0.3c0.2-0.2,0.4-0.4,0.5-0.7c0-0.1,0.1-0.2,0.1-0.4c0,0,0-1.5,0-1.6c-0.2,0.3-0.8,1.2-3.7,1.8
						c-1.2,0.2-2.4,0.3-3.7,0.3c-2,0-3.9-0.3-5.7-1.1c-0.3-0.2-0.6-0.4-0.9-0.6c-0.2-0.2-0.3-0.3-0.4-0.5c0,0,0,0.7,0,0.7v1
						c0,0.4,0.2,0.8,0.6,1C50,61.2,51.4,61.7,52.8,61.8z"/>
				</g>
			</g>
		</g>
	</g>
</g>
</svg>
