<?xml version="1.0" encoding="utf-8"?>
<!-- Generator: Adobe Illustrator 22.0.1, SVG Export Plug-In . SVG Version: 6.00 Build 0)  -->
<svg version="1.1" id="Layer_1" xmlns="http://www.w3.org/2000/svg" xmlns:xlink="http://www.w3.org/1999/xlink" x="0px" y="0px"
	 viewBox="0 0 101.5 166.2" style="enable-background:new 0 0 101.5 166.2;" xml:space="preserve">
<style type="text/css">
	.st0{fill:#FFFFFF;}
	.st1{fill:#19486A;}
	.st2{enable-background:new    ;}
</style>
<title>TARGET 1 B copy 18</title>
<g id="WHITE_BG">
	<g>
		<rect y="0" class="st0" width="101.5" height="166.2"/>
	</g>
</g>
<g id="TARGETS">
	<g>
		<g>
			<path class="st1" d="M10.5,129.3H7.8v2h2.9v0.9H6.9v-6.4h3.9v0.9H7.8v1.8h2.6V129.3z"/>
		</g>
		<g>
			<path class="st1" d="M15.3,132.2l-2.8-4.5v4.5h-0.9v-6.4h0.9l2.8,4.5v-4.5h0.9v6.4H15.3z"/>
		</g>
		<g>
			<path class="st1" d="M20.6,132.2v-2.9h-2.6v2.9h-1v-6.4h1v2.6h2.6v-2.6h1v6.4H20.6z"/>
		</g>
		<g>
			<path class="st1" d="M25.8,130.6h-2l-0.5,1.6h-1l2-6.4h1l2,6.4h-1L25.8,130.6z M24.8,127l-0.8,2.8h1.6L24.8,127z"/>
		</g>
		<g>
			<path class="st1" d="M31.5,132.2l-2.8-4.5v4.5h-1v-6.4h0.9l2.8,4.5v-4.5h0.9v6.4H31.5z"/>
		</g>
		<g>
			<path class="st1" d="M35.8,125.7c0.5,0,1,0.1,1.5,0.3v0.9c-0.5-0.2-0.9-0.3-1.4-0.3c-1.2,0-1.7,0.8-1.7,2.4s0.5,2.4,1.7,2.4
				c0.5,0,1-0.1,1.4-0.3v0.9c-0.5,0.2-1,0.3-1.5,0.3c-1.9,0-2.6-1.2-2.6-3.3S33.9,125.7,35.8,125.7z"/>
		</g>
		<g>
			<path class="st1" d="M41.8,129.3h-2.6v2h2.9v0.9h-3.9v-6.4h3.9v0.9h-2.9v1.8h2.6V129.3z"/>
		</g>
		<g>
			<path class="st1" d="M46.3,126.7v5.5h-1v-5.5h-1.6v-0.9H48v0.9H46.3z"/>
		</g>
		<g>
			<path class="st1" d="M52.1,132.2v-2.9h-2.6v2.9h-1v-6.4h1v2.6h2.6v-2.6h1v6.4H52.1z"/>
		</g>
		<g>
			<path class="st1" d="M57.6,129.3h-2.7v2h2.9v0.9H54v-6.4h3.9v0.9h-3v1.8h2.7L57.6,129.3z"/>
		</g>
		<g>
			<path class="st1" d="M60,129c0-2,0.7-3.3,2.6-3.3c0.6,0,1.3,0.1,1.8,0.3v1c-0.5-0.2-1.1-0.4-1.7-0.4c-1.3,0-1.8,0.9-1.8,2.4
				s0.5,2.4,1.8,2.4c0.3,0,0.6,0,0.9-0.1v-1.7h-1.2v-0.9h2.1v3.2c-0.6,0.3-1.3,0.4-2,0.4C60.7,132.3,60,131,60,129z"/>
		</g>
		<g>
			<path class="st1" d="M66.4,131.3h2.8v0.9h-3.7v-6.4h1L66.4,131.3z"/>
		</g>
		<g>
			<path class="st1" d="M69.2,129c0-1.8,0.4-3.3,2.5-3.3s2.4,1.5,2.4,3.3s-0.4,3.3-2.4,3.3S69.2,130.8,69.2,129z M70.2,129
				c0,1.5,0.3,2.4,1.5,2.4s1.5-0.9,1.5-2.4s-0.3-2.4-1.5-2.4S70.2,127.5,70.2,129L70.2,129z"/>
		</g>
		<g>
			<path class="st1" d="M74.9,125.8H77c1.6,0,2,0.8,2,1.7c0,0.5-0.3,1-0.8,1.3c0.6,0.2,1.1,0.8,1,1.5c0,1.1-0.5,1.9-2.2,1.9h-2.2
				L74.9,125.8z M77,126.7h-1.2v1.8h1.2c0.8,0,1-0.5,1-0.9S77.9,126.7,77,126.7z M75.8,131.3h1.3c0.9,0,1.1-0.5,1.1-1s-0.3-1-1.1-1
				h-1.3L75.8,131.3z"/>
		</g>
		<g>
			<path class="st1" d="M83,130.6h-2l-0.4,1.6h-1l2-6.4h1l2,6.4h-1L83,130.6z M82,127l-0.8,2.8h1.6L82,127z"/>
		</g>
		<g>
			<path class="st1" d="M85.9,131.3h2.8v0.9H85v-6.4h1L85.9,131.3z"/>
		</g>
		<g>
			<path class="st1" d="M7.8,141.2h-1v-6.4h2.1c1.6,0,2.2,0.9,2.2,2s-0.6,2-2.2,2H7.8V141.2z M7.8,137.9H9c0.6,0.1,1.2-0.4,1.2-1
				c0.1-0.6-0.4-1.2-1-1.2c-0.1,0-0.1,0-0.2,0H7.8V137.9z"/>
		</g>
		<g>
			<path class="st1" d="M14.2,139.6h-2l-0.4,1.6h-1l2-6.4h1l2,6.4h-1L14.2,139.6z M13.2,136l-0.8,2.8H14L13.2,136z"/>
		</g>
		<g>
			<path class="st1" d="M17.1,141.2h-0.9v-6.4h2.1c1.6,0,2.2,0.7,2.2,1.9c0.1,0.7-0.3,1.4-1,1.7l1.3,2.8h-1.2l-1.2-2.6h-1.3V141.2z
				 M17.1,137.7h1.3c0.9,0,1-0.5,1-1s-0.1-1-1-1h-1.3V137.7z"/>
		</g>
		<g>
			<path class="st1" d="M23.4,135.7v5.5h-1v-5.5h-1.7v-0.9H25v0.9H23.4z"/>
		</g>
		<g>
			<path class="st1" d="M29.4,141.2l-2.8-4.5v4.5h-0.9v-6.4h0.9l2.8,4.5v-4.5h1v6.4H29.4z"/>
		</g>
		<g>
			<path class="st1" d="M34.8,138.3h-2.6v2h2.9v0.9h-3.9v-6.4h3.9v0.9h-2.9v1.8h2.6V138.3z"/>
		</g>
		<g>
			<path class="st1" d="M36.9,141.2h-1v-6.4H38c1.7,0,2.2,0.7,2.2,1.9c0.1,0.7-0.3,1.4-1,1.7l1.3,2.8h-1.2l-1.2-2.6h-1.3V141.2z
				 M36.9,137.7h1.3c0.9,0,1-0.5,1-1s-0.1-1-1-1h-1.3V137.7z"/>
		</g>
		<g>
			<path class="st1" d="M45.3,139.3c0,1.2-0.7,2-2.4,2c-0.6,0-1.3-0.1-1.9-0.4V140c0.6,0.3,1.2,0.4,1.8,0.4c1.2,0,1.5-0.5,1.5-1.1
				s-0.3-0.9-1.2-1c-1.5-0.2-2.2-0.6-2.2-1.8c0-0.9,0.5-1.8,2.3-1.8c0.6,0,1.2,0.1,1.8,0.3v1c-0.5-0.2-1.1-0.3-1.7-0.3
				c-1,0-1.3,0.4-1.3,1s0.4,0.8,1.2,0.9C44.5,137.7,45.3,138,45.3,139.3z"/>
		</g>
		<g>
			<path class="st1" d="M49.6,141.2v-2.9H47v2.9h-1v-6.4h1v2.6h2.6v-2.6h1v6.4H49.6z"/>
		</g>
		<g>
			<path class="st1" d="M51.7,141.2v-6.4h1v6.4H51.7z"/>
		</g>
		<g>
			<path class="st1" d="M54.7,141.2h-1v-6.4h2c1.7,0,2.2,0.9,2.2,2s-0.6,2-2.2,2h-1V141.2z M54.7,137.9h1.1c0.6,0.1,1.2-0.4,1.2-1
				s-0.4-1.2-1-1.2c-0.1,0-0.1,0-0.2,0h-1.1V137.9z"/>
		</g>
		<g>
			<path class="st1" d="M63.4,138.4h-2.6v2.8h-1v-6.4h3.8v0.9h-2.8v1.8h2.6V138.4z"/>
		</g>
		<g>
			<path class="st1" d="M64.2,138c0-1.8,0.4-3.3,2.4-3.3s2.5,1.5,2.5,3.3s-0.4,3.3-2.5,3.3S64.2,139.8,64.2,138z M65.2,138
				c0,1.5,0.3,2.4,1.5,2.4s1.5-0.9,1.5-2.4s-0.3-2.4-1.5-2.4S65.1,136.5,65.2,138L65.2,138z"/>
		</g>
		<g>
			<path class="st1" d="M70.8,141.2h-1v-6.4h2.1c1.7,0,2.2,0.7,2.2,1.9c0.1,0.7-0.3,1.4-1,1.7l1.3,2.8h-1.1l-1.2-2.6h-1.3V141.2z
				 M70.8,137.7H72c0.9,0,1-0.5,1-1s-0.1-1-1-1h-1.2V137.7z"/>
		</g>
		<g>
			<path class="st1" d="M11.1,148.3c0,1.2-0.7,2-2.4,2c-0.6,0-1.3-0.1-1.9-0.4V149c0.6,0.3,1.2,0.4,1.8,0.4c1.1,0,1.5-0.5,1.5-1.1
				s-0.3-0.9-1.2-1c-1.6-0.2-2.2-0.6-2.2-1.8c0-0.9,0.5-1.8,2.3-1.8c0.6,0,1.2,0.1,1.7,0.3v1c-0.5-0.2-1.1-0.3-1.7-0.3
				c-1,0-1.3,0.4-1.3,1s0.4,0.8,1.2,0.9C10.3,146.7,11.1,147,11.1,148.3z"/>
		</g>
		<g>
			<path class="st1" d="M11.7,148.2v-4.4h1v4.3c-0.1,0.7,0.4,1.3,1.1,1.3c0.1,0,0.2,0,0.3,0c0.6,0.1,1.3-0.3,1.4-1
				c0-0.1,0-0.2,0-0.3v-4.3h1v4.4c0,1.1-0.8,2.1-2,2.1c-0.1,0-0.3,0-0.4,0c-1.1,0.2-2.1-0.6-2.3-1.7
				C11.7,148.5,11.7,148.3,11.7,148.2z"/>
		</g>
		<g>
			<path class="st1" d="M21.3,148.3c0,1.2-0.7,2-2.4,2c-0.6,0-1.3-0.1-1.9-0.4V149c0.6,0.3,1.2,0.4,1.8,0.4c1.1,0,1.5-0.5,1.5-1.1
				s-0.3-0.9-1.2-1c-1.5-0.2-2.2-0.6-2.2-1.8c0-0.9,0.5-1.8,2.3-1.8c0.6,0,1.2,0.1,1.8,0.3v1c-0.5-0.2-1.1-0.3-1.7-0.3
				c-1,0-1.3,0.4-1.3,1s0.4,0.8,1.2,0.9C20.5,146.7,21.3,147,21.3,148.3z"/>
		</g>
		<g>
			<path class="st1" d="M24,144.7v5.5h-1v-5.5h-1.6v-0.9h4.3v0.9H24z"/>
		</g>
		<g>
			<path class="st1" d="M28.7,148.6h-2l-0.5,1.6h-1l2-6.4h1l2,6.4h-1L28.7,148.6z M27.7,145l-0.8,2.8h1.6L27.7,145z"/>
		</g>
		<g>
			<path class="st1" d="M30.9,150.2v-6.4h1v6.4H30.9z"/>
		</g>
		<g>
			<path class="st1" d="M36.6,150.2l-2.8-4.5v4.5h-1v-6.4h0.9l2.8,4.5v-4.5h0.9v6.4H36.6z"/>
		</g>
		<g>
			<path class="st1" d="M41.5,148.6h-2l-0.5,1.6h-1l2-6.4h1l2,6.4h-1L41.5,148.6z M40.5,145l-0.8,2.8h1.6L40.5,145z"/>
		</g>
		<g>
			<path class="st1" d="M43.5,143.8h2.1c1.6,0,2,0.8,2,1.7c0,0.5-0.3,1-0.8,1.3c0.6,0.2,1.1,0.8,1,1.5c0,1.1-0.5,1.9-2.2,1.9h-2.2
				L43.5,143.8z M45.7,144.7h-1.2v1.8h1.2c0.4,0.1,0.9-0.2,0.9-0.7c0-0.1,0-0.1,0-0.2C46.7,145.2,46.5,144.7,45.7,144.7z
				 M44.5,149.3h1.3c0.9,0,1.1-0.5,1.1-1s-0.3-1-1.1-1h-1.3L44.5,149.3z"/>
		</g>
		<g>
			<path class="st1" d="M49.6,149.3h2.8v0.9h-3.7v-6.4h1L49.6,149.3z"/>
		</g>
		<g>
			<path class="st1" d="M56.5,147.3h-2.6v2h2.9v0.9h-3.9v-6.4h3.9v0.9h-2.9v1.8h2.7L56.5,147.3z"/>
		</g>
		<g>
			<path class="st1" d="M6.9,159.2v-6.4h1.9c2.1,0,2.7,1.4,2.7,3.2s-0.6,3.2-2.7,3.2H6.9z M7.9,158.3h1c1.3,0,1.7-0.9,1.7-2.3
				s-0.4-2.3-1.7-2.3h-1L7.9,158.3z"/>
		</g>
		<g>
			<path class="st1" d="M15.8,156.3h-2.7v2h2.9v0.9h-3.9v-6.4h3.9v0.9h-2.9v1.8h2.7L15.8,156.3z"/>
		</g>
		<g>
			<path class="st1" d="M21.5,152.8l-2,6.4h-1l-2-6.4h1L19,158l1.5-5.2L21.5,152.8z"/>
		</g>
		<g>
			<path class="st1" d="M25.6,156.3H23v2h2.9v0.9H22v-6.4h3.9v0.9H23v1.8h2.6L25.6,156.3z"/>
		</g>
		<g>
			<path class="st1" d="M27.7,158.3h2.8v0.9h-3.7v-6.4h1L27.7,158.3z"/>
		</g>
		<g>
			<path class="st1" d="M30.5,156c0-1.8,0.4-3.3,2.5-3.3s2.5,1.5,2.5,3.3s-0.4,3.3-2.5,3.3S30.5,157.8,30.5,156z M31.5,156
				c0,1.5,0.3,2.4,1.5,2.4c1.2,0,1.5-0.9,1.5-2.4s-0.3-2.4-1.5-2.4S31.5,154.5,31.5,156L31.5,156z"/>
		</g>
		<g>
			<path class="st1" d="M37.1,159.2h-1v-6.4h2c1.6,0,2.2,0.9,2.2,2s-0.6,2-2.2,2h-1V159.2z M37.1,155.9h1.1c0.6,0.1,1.2-0.4,1.2-1
				s-0.4-1.2-1-1.2c-0.1,0-0.1,0-0.2,0h-1.1V155.9z"/>
		</g>
		<g>
			<path class="st1" d="M44.4,158.3h-0.9l-1.6-3.9v4.8H41v-6.4h1.2l1.7,4.3l1.7-4.3h1.2v6.4h-1l0-4.8L44.4,158.3z"/>
		</g>
		<g>
			<path class="st1" d="M51.4,156.3h-2.6v2h2.9v0.9h-3.9v-6.4h3.9v0.9h-2.9v1.8h2.7L51.4,156.3z"/>
		</g>
		<g>
			<path class="st1" d="M56.2,159.2l-2.8-4.5v4.5h-0.9v-6.4h0.9l2.8,4.5v-4.5h0.9v6.4H56.2z"/>
		</g>
		<g>
			<path class="st1" d="M60.2,153.7v5.5h-1v-5.5h-1.6v-0.9h4.3v0.9H60.2z"/>
		</g>
	</g>
	<g>
		<rect x="3.3" y="24" class="st1" width="94.8" height="94.8"/>
	</g>
	<g>
		<path class="st1" d="M98.2,20.7H3.3V3.3h94.8V20.7z M4.3,19.7h92.8V4.3H4.3L4.3,19.7z"/>
	</g>
	<g class="st2">
		<path class="st1" d="M6.7,6.9h4.5v1.4H9.9v8.8H8.1V8.3H6.7V6.9z"/>
	</g>
	<g class="st2">
		<path class="st1" d="M11.2,17.1l1.9-10.2h1.9L17,17.1h-1.8l-0.3-1.9h-1.8l-0.3,1.9H11.2z M13.3,13.9h1.4L14,9.8h0L13.3,13.9z"/>
	</g>
	<g class="st2">
		<path class="st1" d="M19.6,12.4v4.7h-1.7V6.9h2.5c1.7,0,2.4,0.9,2.4,2.3v1.3c0,1.1-0.4,1.7-1.4,2l1.6,4.6h-1.8L19.6,12.4z
			 M19.6,8.3v3.2h0.6c0.6,0,0.8-0.3,0.8-0.8V9.2c0-0.6-0.3-0.8-0.8-0.8H19.6z"/>
	</g>
	<g class="st2">
		<path class="st1" d="M26.4,11.7h2.4v5.4h-1.2V16c-0.2,0.8-0.7,1.2-1.6,1.2c-1.5,0-2.1-1.2-2.1-2.7V9.6c0-1.6,0.8-2.7,2.6-2.7
			c1.9,0,2.4,1.1,2.4,2.6v0.9h-1.6v-1c0-0.6-0.2-1-0.9-1c-0.6,0-0.9,0.4-0.9,1v5.5c0,0.6,0.3,1,0.8,1c0.6,0,0.8-0.3,0.8-1V13h-0.8
			V11.7z"/>
	</g>
	<g class="st2">
		<path class="st1" d="M30.2,6.9h4.1v1.4h-2.4v2.9h1.7v1.4h-1.7v3.1h2.4v1.4h-4.1V6.9z"/>
	</g>
	<g class="st2">
		<path class="st1" d="M35.1,6.9h4.5v1.4h-1.4v8.8h-1.7V8.3h-1.4V6.9z"/>
	</g>
	<g class="st2">
		<path class="st1" d="M74.1,6.9v10.2h-1.7V9.3h0l-1.2,1.2h0V8.8l1.6-1.8H74.1z"/>
		<path class="st1" d="M75.3,6.9h4.3v1.6l-2.2,8.6h-1.7l2.3-8.8h-2.6V6.9z"/>
	</g>
	<g class="st2">
	</g>
	<g class="st2">
		<path class="st1" d="M82.3,10.8c0.7,0,1.2,0.6,1.2,1.2c0,0.7-0.6,1.2-1.2,1.2c-0.7,0-1.2-0.6-1.2-1.2
			C81.1,11.4,81.6,10.8,82.3,10.8z"/>
	</g>
	<g class="st2">
		<path class="st1" d="M88,6.9v10.2h-1.7V9.3h0l-1.2,1.2h0V8.8l1.6-1.8H88z"/>
		<path class="st1" d="M89.4,14.5v-5c0-1.6,0.7-2.7,2.5-2.7c1.9,0,2.4,1.1,2.4,2.6v0.5h-1.6V9.2c0-0.6-0.2-1-0.8-1s-0.8,0.4-0.8,1
			v2.2h0c0.3-0.5,0.7-0.8,1.4-0.8c1.2,0,1.9,0.8,1.9,2.5v1.5c0,1.6-0.7,2.6-2.5,2.6C90.1,17.2,89.4,16.1,89.4,14.5z M92.7,14.8V13
			c0-0.7-0.2-1-0.8-1c-0.5,0-0.8,0.4-0.8,0.9v1.9c0,0.6,0.2,1,0.8,1C92.5,15.8,92.7,15.5,92.7,14.8z"/>
	</g>
	<g>
		<path class="st1" d="M98.2,162.9h-95v-40.8h95V162.9z M4.2,161.9h93v-38.8h-93V161.9z"/>
	</g>
	<g>
		<g>
			<path class="st0" d="M8.3,107.8c0,0,26-15,27.3-16.2c2.2-2.3,5.4-3.4,8.6-2.9c4.4,0.7,7,1.1,9.2,1.4s3.7,0,3.8,0.8
				c0.2,1-1,2-2.8,2.2s-4.9-0.1-5.5-0.1s-1.1,0.2-0.9,0.7s3.7,0.7,4.8,0.6c2.5-0.2,4.8-0.9,7.1-1.9c1.9-1,5.6-3.7,6.2-3.9
				s1.8-0.8,2.2-0.2s-0.4,1.5-1.1,2.2C64,93.2,60.6,95.8,57,98c-3.1,1.7-3.9,2-7.1,1.7s-5.9-1.3-7.5-1.1c-1.9,0.3-3.7,1-5.2,2.2
				c-0.7,0.5-13.8,12.7-13.8,12.7H8.3V107.8z"/>
		</g>
		<g>
			<path class="st0" d="M73.2,57.4c0-6.5-5.1-11.8-11.6-12c-2.2-6.3-9-9.6-15.3-7.4c-3.5,1.2-6.2,3.9-7.4,7.4
				c-6.6,0.2-11.8,5.7-11.6,12.4c0.1,3.6,1.8,6.9,4.6,9.1c-0.3,1.1-0.5,2.2-0.5,3.3c0,6.6,5.3,12,12,12c2.4,0,4.8-0.7,6.8-2.1
				c5.5,3.7,13,2.2,16.7-3.3c1.3-2,2-4.3,2-6.7c0-1.1-0.2-2.2-0.5-3.3C71.5,64.6,73.2,61.1,73.2,57.4 M59.9,49.4
				c0,4.8-3.5,8.8-8.2,9.5c-0.1-0.5-0.1-1-0.1-1.5c0-4.8,3.5-8.8,8.2-9.5C59.8,48.4,59.9,48.9,59.9,49.4 M50.4,77
				c-3.8-3.7-3.9-9.7-0.2-13.5c0-0.1,0.1-0.1,0.2-0.2c3.8,3.7,3.9,9.8,0.2,13.6C50.4,76.9,50.4,77,50.4,77 M40.8,47.9
				c4.7,0.7,8.2,4.7,8.2,9.5c0,0.5,0,1-0.1,1.5c-4.7-0.7-8.2-4.7-8.2-9.5C40.7,48.9,40.7,48.4,40.8,47.9 M48,61.7
				c-2.4,4.7-8.1,6.7-12.8,4.3c-0.1,0-0.1-0.1-0.2-0.1c1.6-3.2,4.9-5.3,8.6-5.3C45.1,60.6,46.6,61,48,61.7 M52.6,61.6
				c1.4-0.7,2.9-1.1,4.4-1.1c3.7,0,7,2.1,8.6,5.4c-4.7,2.4-10.4,0.6-12.9-4C52.7,61.8,52.6,61.7,52.6,61.6 M50.3,39.8
				c3.8,0,7.3,2.3,8.8,5.8c-3.9,0.7-7.1,3.2-8.8,6.8c-1.7-3.6-4.9-6.1-8.8-6.8C43,42.1,46.5,39.8,50.3,39.8 M29.8,57.4
				c0-4.9,3.7-9,8.6-9.5c-0.1,0.5-0.1,1-0.1,1.5c0,3.4,1.4,6.6,3.9,8.9c-3.9,0.5-7.3,2.8-9.2,6.3C31,62.7,29.8,60.1,29.8,57.4
				 M34,70.2c0-0.7,0.1-1.3,0.2-2c3.5,1.7,7.6,1.6,11-0.3c-0.1,0.7-0.2,1.5-0.2,2.2c0,3.1,1.2,6.1,3.4,8.4c-1.5,0.9-3.1,1.3-4.8,1.3
				C38.3,79.8,34,75.5,34,70.2 M66.7,70.1c0,5.3-4.3,9.6-9.6,9.6c-1.7,0-3.3-0.4-4.8-1.3c2.1-2.2,3.3-5.2,3.3-8.3
				c0-0.8-0.1-1.5-0.2-2.3c1.8,1,3.8,1.5,5.8,1.5c1.8,0,3.6-0.4,5.2-1.2C66.6,68.8,66.6,69.5,66.7,70.1 M58.5,58.2
				c2.5-2.3,3.9-5.5,3.8-8.8c0-0.5,0-1-0.1-1.5c5.3,0.6,9.1,5.3,8.5,10.5c-0.2,2.3-1.4,4.5-3.1,6.1C65.8,61,62.4,58.7,58.5,58.2"/>
		</g>
	</g>
</g>
</svg>
