<?xml version="1.0" encoding="utf-8"?>
<!-- Generator: Adobe Illustrator 22.0.1, SVG Export Plug-In . SVG Version: 6.00 Build 0)  -->
<svg version="1.1" id="Layer_1" xmlns="http://www.w3.org/2000/svg" xmlns:xlink="http://www.w3.org/1999/xlink" x="0px" y="0px"
	 viewBox="0 0 101.5 175" style="enable-background:new 0 0 101.5 175;" xml:space="preserve">
<style type="text/css">
	.st0{fill:#FFFFFF;}
	.st1{fill:#19486A;}
	.st2{enable-background:new    ;}
</style>
<title>TARGET 1 B copy 10</title>
<g id="WHITE_BG">
	<g>
		<rect y="0" class="st0" width="101.5" height="175"/>
	</g>
</g>
<g id="TARGETS">
	<g>
		<g>
			<path class="st1" d="M8.3,129.4L7.8,130v2.2h-1v-6.4h1v3l2.3-3h1.2L9,128.6l2.6,3.6h-1.2L8.3,129.4z"/>
		</g>
		<g>
			<path class="st1" d="M15.7,132.2l-2.8-4.5v4.5H12v-6.4h0.9l2.8,4.5v-4.5h1v6.4H15.7z"/>
		</g>
		<g>
			<path class="st1" d="M17.3,129c0-1.8,0.4-3.3,2.5-3.3s2.5,1.5,2.5,3.3s-0.4,3.3-2.5,3.3S17.3,130.8,17.3,129z M18.3,129
				c0,1.5,0.3,2.4,1.5,2.4s1.5-0.9,1.5-2.4s-0.3-2.4-1.5-2.4S18.2,127.5,18.3,129L18.3,129z"/>
		</g>
		<g>
			<path class="st1" d="M25.6,125.8h1.2l1.1,5l0.8-5h1l-1.2,6.4h-1.1l-1.1-5.3l-1.2,5.3h-1.2l-1.2-6.4h1l0.8,5L25.6,125.8z"/>
		</g>
		<g>
			<path class="st1" d="M31.2,131.3h2.8v0.9h-3.7v-6.4h1L31.2,131.3z"/>
		</g>
		<g>
			<path class="st1" d="M38.1,129.3h-2.7v2h2.9v0.9h-3.9v-6.4h3.9v0.9h-2.9v1.8h2.7V129.3z"/>
		</g>
		<g>
			<path class="st1" d="M39.2,132.2v-6.4h1.9c2.1,0,2.7,1.4,2.7,3.2s-0.6,3.2-2.7,3.2L39.2,132.2z M40.2,131.3h1
				c1.3,0,1.7-0.9,1.7-2.3s-0.4-2.3-1.7-2.3h-1V131.3z"/>
		</g>
		<g>
			<path class="st1" d="M44.4,129c0-2,0.7-3.3,2.6-3.3c0.6,0,1.3,0.1,1.8,0.3v1c-0.5-0.2-1.1-0.4-1.7-0.4c-1.3,0-1.8,0.9-1.8,2.4
				s0.5,2.4,1.8,2.4c0.3,0,0.6,0,0.9-0.1v-1.7h-1.1v-0.9H49v3.2c-0.6,0.3-1.3,0.4-2,0.4C45.1,132.3,44.4,131,44.4,129z"/>
		</g>
		<g>
			<path class="st1" d="M53.5,129.3h-2.7v2h2.9v0.9h-3.9v-6.4h3.9v0.9h-2.9v1.8h2.7V129.3z"/>
		</g>
		<g>
			<path class="st1" d="M60.2,130.3c0,1.2-0.7,2-2.4,2c-0.6,0-1.3-0.1-1.9-0.4V131c0.6,0.3,1.2,0.4,1.8,0.4c1.2,0,1.5-0.5,1.5-1.1
				s-0.3-0.9-1.2-1c-1.5-0.2-2.2-0.6-2.2-1.8c0-0.9,0.5-1.8,2.3-1.8c0.6,0,1.2,0.1,1.7,0.3v1c-0.5-0.2-1.1-0.3-1.7-0.3
				c-1,0-1.3,0.4-1.3,1c0,0.7,0.4,0.8,1.2,0.9C59.4,128.7,60.2,129,60.2,130.3z"/>
		</g>
		<g>
			<path class="st1" d="M64.5,132.2v-2.9h-2.6v2.9H61v-6.4h1v2.6h2.6v-2.6h1v6.4H64.5z"/>
		</g>
		<g>
			<path class="st1" d="M69.5,130.6h-2l-0.5,1.6h-1l2-6.4h1l2,6.4h-1L69.5,130.6z M68.5,127l-0.8,2.8h1.6L68.5,127z"/>
		</g>
		<g>
			<path class="st1" d="M72.5,132.2h-1v-6.4h2.1c1.7,0,2.2,0.7,2.2,1.9c0.1,0.7-0.3,1.4-1,1.7l1.3,2.8H75l-1.2-2.6h-1.4V132.2z
				 M72.5,128.7h1.3c0.9,0,1-0.5,1-1s-0.1-1-1-1h-1.3V128.7z"/>
		</g>
		<g>
			<path class="st1" d="M76.9,132.2v-6.4h1v6.4H76.9z"/>
		</g>
		<g>
			<path class="st1" d="M82.6,132.2l-2.8-4.5v4.5h-0.9v-6.4h0.9l2.8,4.5v-4.5h0.9v6.4H82.6z"/>
		</g>
		<g>
			<path class="st1" d="M84.2,129c0-2,0.7-3.3,2.6-3.3c0.6,0,1.3,0.1,1.8,0.3v1c-0.5-0.2-1.1-0.4-1.7-0.4c-1.3,0-1.8,0.9-1.8,2.4
				s0.5,2.4,1.8,2.4c0.3,0,0.6,0,0.9-0.1v-1.7h-1.1v-0.9h2.1v3.2c-0.6,0.3-1.3,0.4-2,0.4C84.9,132.3,84.2,131,84.2,129z"/>
		</g>
		<g>
			<path class="st1" d="M10.1,139.6h-2l-0.4,1.6h-1l2-6.4h1l2,6.4h-1L10.1,139.6z M9.1,136l-0.8,2.8h1.6L9.1,136z"/>
		</g>
		<g>
			<path class="st1" d="M15.8,141.2l-2.8-4.5v4.5h-0.9v-6.4H13l2.8,4.5v-4.5h0.9v6.4H15.8z"/>
		</g>
		<g>
			<path class="st1" d="M17.6,141.2v-6.4h1.9c2.1,0,2.7,1.4,2.7,3.2s-0.6,3.2-2.7,3.2H17.6z M18.6,140.3h1c1.3,0,1.7-0.9,1.7-2.3
				s-0.4-2.3-1.7-2.3h-1V140.3z"/>
		</g>
		<g>
			<path class="st1" d="M27,134.7c0.5,0,1,0.1,1.5,0.3v0.9c-0.4-0.2-0.9-0.3-1.4-0.3c-1.2,0-1.7,0.8-1.7,2.4s0.5,2.4,1.7,2.4
				c0.5,0,1-0.1,1.4-0.3v0.9c-0.5,0.2-1,0.3-1.5,0.3c-1.9,0-2.6-1.2-2.6-3.3S25.1,134.7,27,134.7z"/>
		</g>
		<g>
			<path class="st1" d="M29.1,138c0-1.8,0.4-3.3,2.5-3.3s2.4,1.5,2.4,3.3s-0.4,3.3-2.5,3.3S29.1,139.8,29.1,138z M30.1,138
				c0,1.5,0.3,2.4,1.5,2.4s1.5-0.9,1.5-2.4s-0.3-2.4-1.5-2.4S30.1,136.5,30.1,138L30.1,138z"/>
		</g>
		<g>
			<path class="st1" d="M34.7,138c0-1.8,0.4-3.3,2.5-3.3s2.5,1.5,2.5,3.3s-0.4,3.3-2.5,3.3S34.7,139.8,34.7,138z M35.7,138
				c0,1.5,0.3,2.4,1.5,2.4s1.5-0.9,1.5-2.4s-0.3-2.4-1.5-2.4S35.7,136.5,35.7,138L35.7,138z"/>
		</g>
		<g>
			<path class="st1" d="M41.3,141.2h-1v-6.4h2c1.7,0,2.2,0.9,2.2,2s-0.6,2-2.2,2h-1V141.2z M41.3,137.9h1.1c0.6,0.1,1.2-0.4,1.2-1
				s-0.4-1.2-1-1.2c-0.1,0-0.1,0-0.2,0h-1.1V137.9z"/>
		</g>
		<g>
			<path class="st1" d="M48.8,138.3h-2.7v2h2.9v0.9h-3.9v-6.4h3.9v0.9h-2.9v1.8h2.7V138.3z"/>
		</g>
		<g>
			<path class="st1" d="M50.8,141.2h-1v-6.4H52c1.7,0,2.2,0.7,2.2,1.9c0.1,0.7-0.3,1.4-1,1.7l1.3,2.8h-1.2l-1.2-2.6h-1.3V141.2z
				 M50.8,137.7h1.3c0.9,0,1-0.5,1-1s-0.1-1-1-1h-1.3V137.7z"/>
		</g>
		<g>
			<path class="st1" d="M58.2,139.6h-2l-0.5,1.6h-1l2-6.4h1l2,6.4h-1L58.2,139.6z M57.2,136l-0.8,2.8H58L57.2,136z"/>
		</g>
		<g>
			<path class="st1" d="M61.7,135.7v5.5h-1v-5.5h-1.6v-0.9h4.3v0.9H61.7z"/>
		</g>
		<g>
			<path class="st1" d="M64.2,141.2v-6.4h1v6.4H64.2z"/>
		</g>
		<g>
			<path class="st1" d="M66,138c0-1.8,0.4-3.3,2.5-3.3s2.4,1.5,2.4,3.3s-0.4,3.3-2.4,3.3S66,139.8,66,138z M67,138
				c0,1.5,0.3,2.4,1.5,2.4s1.5-0.9,1.5-2.4s-0.3-2.4-1.5-2.4S67,136.5,67,138z"/>
		</g>
		<g>
			<path class="st1" d="M75.3,141.2l-2.8-4.5v4.5h-1v-6.4h0.9l2.8,4.5v-4.5h0.9v6.4H75.3z"/>
		</g>
		<g>
			<path class="st1" d="M82.1,138.4h-2.6v2.8h-0.9v-6.4h3.8v0.9h-2.9v1.8H82L82.1,138.4z"/>
		</g>
		<g>
			<path class="st1" d="M82.8,138c0-1.8,0.4-3.3,2.5-3.3s2.4,1.5,2.4,3.3s-0.4,3.3-2.4,3.3S82.8,139.8,82.8,138z M83.8,138
				c0,1.5,0.3,2.4,1.5,2.4s1.5-0.9,1.5-2.4s-0.3-2.4-1.5-2.4S83.7,136.5,83.8,138L83.8,138z"/>
		</g>
		<g>
			<path class="st1" d="M89.4,141.2h-1v-6.4h2.1c1.7,0,2.2,0.7,2.2,1.9c0.1,0.7-0.3,1.4-1,1.7l1.4,2.8h-1.2l-1.2-2.6h-1.3V141.2z
				 M89.4,137.7h1.2c0.9,0,1-0.5,1-1s-0.1-1-1-1h-1.2V137.7z"/>
		</g>
		<g>
			<path class="st1" d="M10.1,148.6h-2l-0.4,1.6h-1l2-6.4h1l2,6.4h-1L10.1,148.6z M9.1,145l-0.8,2.8h1.6L9.1,145z"/>
		</g>
		<g>
			<path class="st1" d="M14.4,143.7c0.5,0,1,0.1,1.5,0.3v0.9c-0.5-0.2-0.9-0.3-1.4-0.3c-1.2,0-1.7,0.8-1.7,2.4s0.5,2.4,1.7,2.4
				c0.5,0,1-0.1,1.4-0.3v0.9c-0.5,0.2-1,0.3-1.5,0.3c-1.9,0-2.6-1.2-2.6-3.3S12.5,143.7,14.4,143.7z"/>
		</g>
		<g>
			<path class="st1" d="M19.1,143.7c0.5,0,1,0.1,1.5,0.3v0.9c-0.4-0.2-0.9-0.3-1.4-0.3c-1.2,0-1.7,0.8-1.7,2.4s0.5,2.4,1.7,2.4
				c0.5,0,1-0.1,1.4-0.3v0.9c-0.5,0.2-1,0.3-1.5,0.3c-1.9,0-2.6-1.2-2.6-3.3S17.2,143.7,19.1,143.7z"/>
		</g>
		<g>
			<path class="st1" d="M25.1,147.3h-2.6v2h2.9v0.9h-3.9v-6.4h3.9v0.9h-2.9v1.8h2.6V147.3z"/>
		</g>
		<g>
			<path class="st1" d="M30.4,148.3c0,1.2-0.7,2-2.4,2c-0.6,0-1.3-0.1-1.9-0.4V149c0.6,0.3,1.2,0.4,1.8,0.4c1.1,0,1.5-0.5,1.5-1.1
				s-0.3-0.9-1.2-1c-1.5-0.2-2.2-0.6-2.2-1.8c0-0.9,0.5-1.8,2.3-1.8c0.6,0,1.2,0.1,1.7,0.3v1c-0.5-0.2-1.1-0.3-1.7-0.3
				c-1,0-1.3,0.4-1.3,1s0.4,0.8,1.2,0.9C29.6,146.7,30.4,147,30.4,148.3z"/>
		</g>
		<g>
			<path class="st1" d="M35.2,148.3c0,1.2-0.7,2-2.4,2c-0.6,0-1.3-0.1-1.9-0.4V149c0.6,0.3,1.2,0.4,1.8,0.4c1.1,0,1.5-0.5,1.5-1.1
				s-0.3-0.9-1.2-1c-1.6-0.2-2.2-0.6-2.2-1.8c0-0.9,0.5-1.8,2.3-1.8c0.6,0,1.2,0.1,1.7,0.3v1c-0.5-0.2-1.1-0.3-1.7-0.3
				c-1,0-1.3,0.4-1.3,1s0.4,0.8,1.2,0.9C34.5,146.7,35.2,147,35.2,148.3z"/>
		</g>
		<g>
			<path class="st1" d="M39.5,144.7v5.5h-1v-5.5h-1.6v-0.9h4.3v0.9H39.5z"/>
		</g>
		<g>
			<path class="st1" d="M41.3,147c0-1.8,0.4-3.3,2.5-3.3s2.5,1.5,2.5,3.3s-0.4,3.3-2.5,3.3S41.3,148.8,41.3,147z M42.3,147
				c0,1.5,0.3,2.4,1.5,2.4s1.5-0.9,1.5-2.4s-0.3-2.4-1.5-2.4S42.3,145.5,42.3,147L42.3,147z"/>
		</g>
		<g>
			<path class="st1" d="M52.6,148.3c0,1.2-0.7,2-2.4,2c-0.6,0-1.3-0.1-1.9-0.4V149c0.6,0.3,1.2,0.4,1.8,0.4c1.1,0,1.5-0.5,1.5-1.1
				s-0.3-0.9-1.2-1c-1.6-0.2-2.2-0.6-2.2-1.8c0-0.9,0.5-1.8,2.3-1.8c0.6,0,1.2,0.1,1.7,0.3v1c-0.5-0.2-1.1-0.3-1.7-0.3
				c-1,0-1.3,0.4-1.3,1s0.4,0.8,1.2,0.9C51.8,146.7,52.6,147,52.6,148.3z"/>
		</g>
		<g>
			<path class="st1" d="M55.8,143.7c0.5,0,1,0.1,1.5,0.3v0.9c-0.5-0.2-0.9-0.3-1.4-0.3c-1.2,0-1.7,0.8-1.7,2.4s0.5,2.4,1.7,2.4
				c0.5,0,1-0.1,1.4-0.3v0.9c-0.5,0.2-1,0.3-1.5,0.3c-1.9,0-2.6-1.2-2.6-3.3S54,143.7,55.8,143.7z"/>
		</g>
		<g>
			<path class="st1" d="M58.3,150.2v-6.4h1v6.4H58.3z"/>
		</g>
		<g>
			<path class="st1" d="M64,147.3h-2.7v2h2.9v0.9h-3.9v-6.4h3.9v0.9h-2.9v1.8H64V147.3z"/>
		</g>
		<g>
			<path class="st1" d="M68.8,150.2l-2.8-4.5v4.5h-0.9v-6.4H66l2.8,4.5v-4.5h0.9v6.4H68.8z"/>
		</g>
		<g>
			<path class="st1" d="M73,143.7c0.5,0,1,0.1,1.5,0.3v0.9c-0.4-0.2-0.9-0.3-1.4-0.3c-1.2,0-1.7,0.8-1.7,2.4s0.5,2.4,1.7,2.4
				c0.5,0,1-0.1,1.4-0.3v0.9c-0.5,0.2-1,0.3-1.5,0.3c-1.9,0-2.6-1.2-2.6-3.3S71.1,143.7,73,143.7z"/>
		</g>
		<g>
			<path class="st1" d="M78.9,147.3h-2.7v2h2.9v0.9h-3.9v-6.4h3.9v0.9h-2.9v1.8h2.7V147.3z"/>
		</g>
		<g>
			<path class="st1" d="M80.8,149.3l-0.7,2h-0.7l0.2-2H80.8z"/>
		</g>
		<g>
			<path class="st1" d="M9.2,153.7v5.5h-1v-5.5H6.6v-0.9h4.3v0.9H9.2z"/>
		</g>
		<g>
			<path class="st1" d="M15.1,156.3h-2.7v2h2.9v0.9h-3.9v-6.4h3.9v0.9h-2.9v1.8H15L15.1,156.3z"/>
		</g>
		<g>
			<path class="st1" d="M18.6,152.7c0.5,0,1,0.1,1.5,0.3v0.9c-0.5-0.2-0.9-0.3-1.4-0.3c-1.2,0-1.7,0.8-1.7,2.4s0.5,2.4,1.7,2.4
				c0.5,0,1-0.1,1.4-0.3v0.9c-0.5,0.2-1,0.3-1.5,0.3c-1.9,0-2.6-1.2-2.6-3.3S16.7,152.7,18.6,152.7z"/>
		</g>
		<g>
			<path class="st1" d="M24.4,159.2v-2.9h-2.6v2.9h-1v-6.4h1v2.6h2.6v-2.6h1v6.4H24.4z"/>
		</g>
		<g>
			<path class="st1" d="M29.9,159.2l-2.8-4.5v4.5h-1v-6.4h0.9l2.8,4.5v-4.5h1v6.4H29.9z"/>
		</g>
		<g>
			<path class="st1" d="M31.7,156c0-1.8,0.4-3.3,2.5-3.3s2.5,1.5,2.5,3.3s-0.4,3.3-2.5,3.3S31.7,157.8,31.7,156z M32.7,156
				c0,1.5,0.3,2.4,1.5,2.4s1.5-0.9,1.5-2.4s-0.3-2.4-1.5-2.4S32.7,154.5,32.7,156L32.7,156z"/>
		</g>
		<g>
			<path class="st1" d="M38.3,158.3H41v0.9h-3.7v-6.4h1L38.3,158.3z"/>
		</g>
		<g>
			<path class="st1" d="M41.1,156c0-1.8,0.4-3.3,2.5-3.3s2.5,1.5,2.5,3.3s-0.4,3.3-2.5,3.3S41.1,157.8,41.1,156z M42.1,156
				c0,1.5,0.3,2.4,1.5,2.4s1.5-0.9,1.5-2.4s-0.3-2.4-1.5-2.4S42,154.5,42.1,156L42.1,156z"/>
		</g>
		<g>
			<path class="st1" d="M46.6,156c0-2,0.7-3.3,2.6-3.3c0.6,0,1.3,0.1,1.8,0.3v1c-0.5-0.2-1.1-0.4-1.7-0.4c-1.3,0-1.8,0.9-1.8,2.4
				s0.5,2.4,1.8,2.4c0.3,0,0.6,0,0.9-0.1v-1.7h-1.1v-0.9h2.1v3.2c-0.6,0.3-1.3,0.4-2,0.4C47.3,159.3,46.6,158,46.6,156z"/>
		</g>
		<g>
			<path class="st1" d="M54.7,156.6v2.6h-1v-2.6l-2.2-3.8h1.1l1.6,3l1.6-3h1.1L54.7,156.6z"/>
		</g>
		<g>
			<path class="st1" d="M61.9,157.6h-2l-0.5,1.6h-1l2-6.4h1l2,6.4h-1L61.9,157.6z M60.9,154l-0.8,2.8h1.6L60.9,154z"/>
		</g>
		<g>
			<path class="st1" d="M67.6,159.2l-2.8-4.5v4.5h-0.9v-6.4h0.9l2.8,4.5v-4.5h1v6.4H67.6z"/>
		</g>
		<g>
			<path class="st1" d="M69.4,159.2v-6.4h1.9c2.1,0,2.7,1.4,2.7,3.2s-0.6,3.2-2.7,3.2H69.4z M70.3,158.3h1c1.3,0,1.7-0.9,1.7-2.3
				s-0.4-2.3-1.7-2.3h-1V158.3z"/>
		</g>
		<g>
			<path class="st1" d="M7,168.2v-6.4h1v6.4H7z"/>
		</g>
		<g>
			<path class="st1" d="M12.8,168.2l-2.8-4.5v4.5H9.1v-6.4h0.9l2.8,4.5v-4.5h0.9v6.4H12.8z"/>
		</g>
		<g>
			<path class="st1" d="M18.3,168.2l-2.8-4.5v4.5h-0.9v-6.4h0.9l2.8,4.5v-4.5h1v6.4H18.3z"/>
		</g>
		<g>
			<path class="st1" d="M19.9,165c0-1.8,0.4-3.3,2.5-3.3s2.5,1.5,2.5,3.3s-0.4,3.3-2.5,3.3S19.9,166.8,19.9,165z M20.9,165
				c0,1.5,0.3,2.4,1.5,2.4s1.5-0.9,1.5-2.4s-0.3-2.4-1.5-2.4S20.8,163.5,20.9,165L20.9,165z"/>
		</g>
		<g>
			<path class="st1" d="M30.1,161.8l-2,6.4h-1l-2-6.4h1l1.5,5.2l1.5-5.2H30.1z"/>
		</g>
		<g>
			<path class="st1" d="M33,166.6h-2l-0.5,1.6h-1l2-6.4h1l2,6.4h-1L33,166.6z M32,163l-0.8,2.8h1.6L32,163z"/>
		</g>
		<g>
			<path class="st1" d="M36.5,162.7v5.5h-1v-5.5h-1.7v-0.9h4.3v0.9H36.5z"/>
		</g>
		<g>
			<path class="st1" d="M38.8,168.2v-6.4h1v6.4H38.8z"/>
		</g>
		<g>
			<path class="st1" d="M40.8,165c0-1.8,0.4-3.3,2.5-3.3s2.5,1.5,2.5,3.3s-0.4,3.3-2.5,3.3S40.8,166.8,40.8,165z M41.8,165
				c0,1.5,0.3,2.4,1.5,2.4s1.5-0.9,1.5-2.4s-0.3-2.4-1.5-2.4S41.7,163.5,41.8,165L41.8,165z"/>
		</g>
		<g>
			<path class="st1" d="M50.1,168.2l-2.8-4.5v4.5h-0.9v-6.4h0.9l2.8,4.5v-4.5h1v6.4H50.1z"/>
		</g>
	</g>
	<g>
		<rect x="3.3" y="24" class="st1" width="94.8" height="94.8"/>
	</g>
	<g>
		<path class="st1" d="M98.2,20.7H3.3V3.3h94.8V20.7z M4.3,19.7h92.8V4.3H4.3L4.3,19.7z"/>
	</g>
	<g class="st2">
		<path class="st1" d="M6.7,6.9h4.5v1.4H9.9v8.8H8.1V8.3H6.7V6.9z"/>
	</g>
	<g class="st2">
		<path class="st1" d="M11.2,17.1l1.9-10.2h1.9L17,17.1h-1.8l-0.3-1.9h-1.8l-0.3,1.9H11.2z M13.3,13.9h1.4L14,9.8h0L13.3,13.9z"/>
	</g>
	<g class="st2">
		<path class="st1" d="M19.6,12.4v4.7h-1.7V6.9h2.5c1.7,0,2.4,0.9,2.4,2.3v1.3c0,1.1-0.4,1.7-1.4,2l1.6,4.6h-1.8L19.6,12.4z
			 M19.6,8.3v3.2h0.6c0.6,0,0.8-0.3,0.8-0.8V9.2c0-0.6-0.3-0.8-0.8-0.8H19.6z"/>
	</g>
	<g class="st2">
		<path class="st1" d="M26.4,11.7h2.4v5.4h-1.2V16c-0.2,0.8-0.7,1.2-1.6,1.2c-1.5,0-2.1-1.2-2.1-2.7V9.6c0-1.6,0.8-2.7,2.6-2.7
			c1.9,0,2.4,1.1,2.4,2.6v0.9h-1.6v-1c0-0.6-0.2-1-0.9-1c-0.6,0-0.9,0.4-0.9,1v5.5c0,0.6,0.3,1,0.8,1c0.6,0,0.8-0.3,0.8-1V13h-0.8
			V11.7z"/>
	</g>
	<g class="st2">
		<path class="st1" d="M30.2,6.9h4.1v1.4h-2.4v2.9h1.7v1.4h-1.7v3.1h2.4v1.4h-4.1V6.9z"/>
	</g>
	<g class="st2">
		<path class="st1" d="M35.1,6.9h4.5v1.4h-1.4v8.8h-1.7V8.3h-1.4V6.9z"/>
	</g>
	<g class="st2">
		<path class="st1" d="M78.3,6.9v10.2h-1.7V9.3h0l-1.2,1.2h0V8.8l1.6-1.8H78.3z"/>
		<path class="st1" d="M79.5,6.9h4.3v1.6l-2.2,8.6h-1.7l2.3-8.8h-2.6V6.9z"/>
	</g>
	<g class="st2">
	</g>
	<g class="st2">
		<path class="st1" d="M86.5,10.8c0.7,0,1.2,0.6,1.2,1.2c0,0.7-0.6,1.2-1.2,1.2c-0.7,0-1.2-0.6-1.2-1.2
			C85.3,11.4,85.9,10.8,86.5,10.8z"/>
	</g>
	<g class="st2">
		<path class="st1" d="M89.3,14.5v-5c0-1.6,0.7-2.7,2.5-2.7c1.9,0,2.4,1.1,2.4,2.6v0.5h-1.6V9.2c0-0.6-0.2-1-0.8-1
			c-0.6,0-0.8,0.4-0.8,1v2.2h0c0.3-0.5,0.7-0.8,1.4-0.8c1.2,0,1.9,0.8,1.9,2.5v1.5c0,1.6-0.7,2.6-2.5,2.6
			C90,17.2,89.3,16.1,89.3,14.5z M92.7,14.8V13c0-0.7-0.2-1-0.8-1c-0.5,0-0.8,0.4-0.8,0.9v1.9c0,0.6,0.2,1,0.8,1
			C92.4,15.8,92.7,15.5,92.7,14.8z"/>
	</g>
	<g>
		<g>
			<path class="st0" d="M59.5,55.1c0-1.5-0.3-3-1-4.3l8-4.8c2.1,2.9,6.2,3.6,9.1,1.5s3.6-6.2,1.5-9.1c-2.1-2.9-6.2-3.6-9.1-1.5
				c-1.7,1.2-2.7,3.2-2.7,5.3c0,0.8,0.2,1.6,0.5,2.4l-8,4.8c-3.2-4.5-9.4-5.6-13.9-2.4c-1,0.7-1.8,1.5-2.5,2.5l-8.2-5
				c0.3-0.7,0.4-1.5,0.4-2.3c0-3.6-2.9-6.6-6.6-6.6s-6.6,2.9-6.6,6.6c0,3.6,2.9,6.6,6.6,6.6c2.1,0,4.1-1,5.4-2.7l8.2,4.9
				c-2.3,5-0.2,10.9,4.8,13.2c1.1,0.5,2.2,0.8,3.4,0.9v9.4c-3.6,0.5-6.1,3.7-5.7,7.3c0.5,3.6,3.7,6.1,7.3,5.7s6.1-3.7,5.7-7.3
				c-0.4-3-2.7-5.3-5.7-5.7V65C55.5,64.5,59.5,60.3,59.5,55.1z M71.8,37.3c2.7,0,4.9,2.2,4.9,4.9c0,2.7-2.2,4.9-4.9,4.9
				c-2.7,0-4.9-2.2-4.9-4.9c0,0,0,0,0,0C67,39.5,69.1,37.3,71.8,37.3z M27.1,47.1c-2.7,0-4.9-2.2-4.9-4.9c0-2.7,2.2-4.9,4.9-4.9
				c2.7,0,4.9,2.2,4.9,4.9C32,44.9,29.8,47.1,27.1,47.1C27.1,47.1,27.1,47.1,27.1,47.1z M41.2,55.1c0-4.6,3.8-8.4,8.4-8.4
				s8.4,3.8,8.4,8.4s-3.8,8.4-8.4,8.4c0,0,0,0,0,0C45,63.5,41.2,59.8,41.2,55.1L41.2,55.1z M54.5,81c0,2.7-2.2,4.9-4.9,4.9
				s-4.9-2.2-4.9-4.9s2.2-4.9,4.9-4.9C52.3,76.1,54.5,78.3,54.5,81L54.5,81z"/>
		</g>
		<g>
			<path class="st0" d="M31.1,82.9c0-3.1-2.5-5.7-5.7-5.7c-3.1,0-5.7,2.5-5.7,5.7s2.5,5.7,5.7,5.7c0,0,0,0,0,0
				C28.6,88.6,31.1,86.1,31.1,82.9C31.2,82.9,31.2,82.9,31.1,82.9z"/>
		</g>
		<g>
			<path class="st0" d="M32.1,89.9c-0.1,0-0.3,0-0.4,0H29l-3.6,8.3L22,89.8h-2.7c-0.1,0-0.3,0-0.4,0C15,90.2,12,93.4,12,97.3v9.9
				h4.4v-7.7c0-0.5,0.1-1.2,1.1-1.2c0.6,0,0.8,0.7,0.8,1.1v7.8h14.4v-7.8c0-0.4,0.2-1.1,0.8-1.1c0.9,0,1.1,0.7,1.1,1.2v7.7H39v-9.9
				C39,93.5,36,90.2,32.1,89.9z M25.6,104.5c-0.4,0-0.8-0.4-0.8-0.8s0.4-0.8,0.8-0.8c0.4,0,0.8,0.4,0.8,0.8
				C26.4,104.1,26,104.5,25.6,104.5C25.6,104.5,25.6,104.5,25.6,104.5z"/>
		</g>
		<g>
			<path class="st0" d="M73.6,77.3c-3.2,0-5.9,2.6-5.9,5.9s2.6,5.9,5.9,5.9c3.2,0,5.9-2.6,5.9-5.9v0C79.5,79.9,76.9,77.3,73.6,77.3
				C73.6,77.3,73.6,77.3,73.6,77.3z"/>
		</g>
		<g>
			<path class="st0" d="M80.7,98c0.8-0.2,1,0.8,1,0.8l2.5,8.5h5.2l-3.9-12.6c0,0-1.8-4.6-5.6-4.6h-2.9l-3.6,8.3l-3.4-8.3h-2.6
				c-3.9,0-5.6,4.6-5.6,4.6L58,107.3h5.2l2.5-8.5c0,0,0.2-1,1-0.8s0.5,1.3,0.5,1.3l-2.2,7.9h17.4l-2.2-7.9
				C80.2,99.3,80,98.2,80.7,98z M73.6,105c-0.4,0-0.8-0.4-0.8-0.8s0.4-0.8,0.8-0.8c0.4,0,0.8,0.4,0.8,0.8
				C74.4,104.6,74.1,105,73.6,105C73.6,105,73.6,105,73.6,105z"/>
		</g>
	</g>
	<g>
		<path class="st1" d="M98.2,171.9h-95v-49.7h95V171.9z M4.2,170.9h93v-47.7h-93V170.9z"/>
	</g>
</g>
</svg>
