<?xml version="1.0" encoding="utf-8"?>
<!-- Generator: Adobe Illustrator 22.0.1, SVG Export Plug-In . SVG Version: 6.00 Build 0)  -->
<svg version="1.1" id="Layer_1" xmlns="http://www.w3.org/2000/svg" xmlns:xlink="http://www.w3.org/1999/xlink" x="0px" y="0px"
	 viewBox="0 0 101.5 157" style="enable-background:new 0 0 101.5 157;" xml:space="preserve">
<style type="text/css">
	.st0{fill:#FFFFFF;}
	.st1{fill:#19486A;}
	.st2{enable-background:new    ;}
</style>
<title>TARGET 1 B copy 14</title>
<g id="WHITE_BG">
	<g>
		<rect y="0" class="st0" width="101.5" height="157"/>
	</g>
</g>
<g id="TARGETS">
	<g>
		<g>
			<path class="st1" d="M7.8,132.2h-1v-6.4h2.1c1.6,0,2.2,1,2.2,2c0,1-0.6,2-2.2,2H7.8V132.2z M7.8,128.9H9c0.6,0.1,1.2-0.4,1.2-1
				c0.1-0.6-0.4-1.2-1-1.2c-0.1,0-0.1,0-0.2,0H7.8V128.9z"/>
		</g>
		<g>
			<path class="st1" d="M12.7,132.2h-1v-6.4h2.1c1.6,0,2.2,0.7,2.2,1.9c0.1,0.7-0.3,1.4-1,1.7l1.3,2.8h-1.1l-1.2-2.6h-1.3V132.2z
				 M12.7,128.7h1.2c0.9,0,1-0.5,1-1s-0.1-1-1-1h-1.2V128.7z"/>
		</g>
		<g>
			<path class="st1" d="M16.7,129c0-1.8,0.4-3.3,2.5-3.3s2.5,1.5,2.5,3.3s-0.4,3.3-2.5,3.3S16.7,130.8,16.7,129z M17.7,129
				c0,1.5,0.3,2.4,1.5,2.4s1.5-0.9,1.5-2.4s-0.3-2.4-1.5-2.4S17.7,127.5,17.7,129L17.7,129z"/>
		</g>
		<g>
			<path class="st1" d="M25.8,131.3h-0.9l-1.6-3.9v4.8h-1v-6.4h1.2l1.7,4.3l1.7-4.3h1.2v6.4h-1l0-4.8L25.8,131.3z"/>
		</g>
		<g>
			<path class="st1" d="M29,129c0-1.8,0.4-3.3,2.5-3.3s2.5,1.5,2.5,3.3s-0.4,3.3-2.5,3.3S29,130.8,29,129z M30,129
				c0,1.5,0.3,2.4,1.5,2.4s1.5-0.9,1.5-2.4s-0.3-2.4-1.5-2.4S30,127.5,30,129z"/>
		</g>
		<g>
			<path class="st1" d="M36.6,126.7v5.5h-1v-5.5H34v-0.9h4.3v0.9H36.6z"/>
		</g>
		<g>
			<path class="st1" d="M42.4,129.3h-2.7v2h2.9v0.9h-3.9v-6.4h3.9v0.9h-2.9v1.8h2.7V129.3z"/>
		</g>
		<g>
			<path class="st1" d="M48.1,130.6h-2l-0.5,1.6h-1l2-6.4h1l2,6.4h-1L48.1,130.6z M47.1,127l-0.8,2.8H48L47.1,127z"/>
		</g>
		<g>
			<path class="st1" d="M51.6,130.2v-4.4h1v4.3c0,0.8,0.6,1.4,1.4,1.4s1.4-0.6,1.4-1.4v-4.3h1v4.4c-0.1,1.3-1.3,2.2-2.6,2.1
				C52.6,132.1,51.8,131.3,51.6,130.2L51.6,130.2z"/>
		</g>
		<g>
			<path class="st1" d="M60.8,132.2l-2.8-4.5v4.5h-0.9v-6.4H58l2.8,4.5v-4.5h0.9v6.4H60.8z"/>
		</g>
		<g>
			<path class="st1" d="M62.8,132.2v-6.4h1v6.4H62.8z"/>
		</g>
		<g>
			<path class="st1" d="M69.4,125.8l-2,6.4h-1l-2-6.4h1l1.5,5.2l1.5-5.2L69.4,125.8z"/>
		</g>
		<g>
			<path class="st1" d="M73.5,129.3h-2.7v2h2.9v0.9h-3.9v-6.4h3.9v0.9h-2.9v1.8h2.7V129.3z"/>
		</g>
		<g>
			<path class="st1" d="M75.6,132.2h-0.9v-6.4h2.1c1.7,0,2.2,0.7,2.2,1.9c0.1,0.7-0.3,1.4-1,1.7l1.3,2.8h-1.2l-1.2-2.6h-1.3V132.2z
				 M75.6,128.7h1.3c0.9,0,1-0.5,1-1s-0.1-1-1-1h-1.3V128.7z"/>
		</g>
		<g>
			<path class="st1" d="M83.9,130.3c0,1.2-0.7,2-2.4,2c-0.6,0-1.3-0.1-1.9-0.4V131c0.6,0.3,1.2,0.4,1.8,0.4c1.2,0,1.5-0.5,1.5-1.1
				s-0.3-0.9-1.2-1c-1.6-0.2-2.2-0.6-2.2-1.8c0-0.9,0.5-1.8,2.3-1.8c0.6,0,1.2,0.1,1.7,0.3v1c-0.5-0.2-1.1-0.3-1.7-0.3
				c-1,0-1.3,0.4-1.3,1c0,0.6,0.4,0.8,1.2,0.9C83.1,128.7,83.9,129,83.9,130.3z"/>
		</g>
		<g>
			<path class="st1" d="M87.6,130.6h-2l-0.4,1.6h-1l2-6.4h1l2,6.4H88L87.6,130.6z M86.6,127l-0.8,2.8h1.6L86.6,127z"/>
		</g>
		<g>
			<path class="st1" d="M90.5,131.3h2.8v0.9h-3.7v-6.4h1L90.5,131.3z"/>
		</g>
		<g>
			<path class="st1" d="M9.2,135.7v5.5h-1v-5.5H6.6v-0.9h4.3v0.9H9.2z"/>
		</g>
		<g>
			<path class="st1" d="M12.4,141.2h-1v-6.4h2.1c1.6,0,2.2,0.7,2.2,1.9c0.1,0.7-0.3,1.4-1,1.7l1.4,2.8h-1.2l-1.1-2.6h-1.3V141.2z
				 M12.4,137.7h1.3c0.9,0,1-0.5,1-1s-0.1-1-1-1h-1.3V137.7z"/>
		</g>
		<g>
			<path class="st1" d="M19.7,139.6h-2l-0.5,1.6h-1l2-6.4h1l2,6.4h-1L19.7,139.6z M18.7,136l-0.8,2.8h1.6L18.7,136z"/>
		</g>
		<g>
			<path class="st1" d="M21.7,141.2v-6.4h1.9c2.1,0,2.7,1.4,2.7,3.2s-0.6,3.2-2.7,3.2H21.7z M22.7,140.3h1c1.3,0,1.7-0.9,1.7-2.3
				s-0.4-2.3-1.7-2.3h-1V140.3z"/>
		</g>
		<g>
			<path class="st1" d="M27.3,141.2v-6.4h1v6.4H27.3z"/>
		</g>
		<g>
			<path class="st1" d="M33,141.2l-2.8-4.5v4.5h-0.9v-6.4h0.9l2.8,4.5v-4.5h1v6.4H33z"/>
		</g>
		<g>
			<path class="st1" d="M34.6,138c0-2,0.7-3.3,2.6-3.3c0.6,0,1.3,0.1,1.8,0.3v1c-0.5-0.2-1.1-0.4-1.7-0.4c-1.3,0-1.8,0.9-1.8,2.4
				s0.5,2.4,1.8,2.4c0.3,0,0.6,0,0.9-0.1v-1.7h-1.1v-0.9h2.1v3.2c-0.6,0.3-1.3,0.4-2,0.4C35.3,141.3,34.6,140,34.6,138z"/>
		</g>
		<g>
			<path class="st1" d="M45.7,139.3c0,1.2-0.7,2-2.4,2c-0.6,0-1.3-0.1-1.9-0.4V140c0.6,0.3,1.2,0.4,1.8,0.4c1.2,0,1.5-0.5,1.5-1.1
				s-0.3-0.9-1.2-1c-1.5-0.2-2.2-0.6-2.2-1.8c0-0.9,0.5-1.8,2.3-1.8c0.6,0,1.2,0.1,1.7,0.3v1c-0.5-0.2-1.1-0.3-1.7-0.3
				c-1,0-1.3,0.4-1.3,1s0.4,0.8,1.2,0.9C44.9,137.7,45.7,138,45.7,139.3z"/>
		</g>
		<g>
			<path class="st1" d="M48.8,138.6v2.6h-1v-2.6l-2.2-3.8h1.1l1.6,3l1.6-3H51L48.8,138.6z"/>
		</g>
		<g>
			<path class="st1" d="M55.4,139.3c0,1.2-0.7,2-2.4,2c-0.6,0-1.3-0.1-1.9-0.4V140c0.6,0.3,1.2,0.4,1.8,0.4c1.2,0,1.5-0.5,1.5-1.1
				s-0.3-0.9-1.2-1c-1.6-0.2-2.2-0.6-2.2-1.8c0-0.9,0.5-1.8,2.3-1.8c0.6,0,1.2,0.1,1.7,0.3v1c-0.5-0.2-1.1-0.3-1.7-0.3
				c-1,0-1.3,0.4-1.3,1s0.4,0.8,1.2,0.9C54.6,137.7,55.4,138,55.4,139.3z"/>
		</g>
		<g>
			<path class="st1" d="M58.2,135.7v5.5h-1v-5.5h-1.6v-0.9h4.3v0.9H58.2z"/>
		</g>
		<g>
			<path class="st1" d="M64.1,138.3h-2.7v2h2.9v0.9h-3.9v-6.4h3.9v0.9h-2.9v1.8h2.7V138.3z"/>
		</g>
		<g>
			<path class="st1" d="M68.6,140.3h-0.9l-1.6-3.9l0.1,4.8h-1v-6.4h1.2l1.7,4.3l1.7-4.3h1.2v6.4h-1v-4.8L68.6,140.3z"/>
		</g>
		<g>
			<path class="st1" d="M6.8,148.2v-4.4h1v4.3c-0.1,0.7,0.4,1.2,1,1.3c0.1,0,0.2,0,0.3,0c0.7,0.1,1.3-0.4,1.4-1c0-0.1,0-0.2,0-0.3
				v-4.3h1v4.4c0.1,1.1-0.8,2.1-1.9,2.1c-0.1,0-0.3,0-0.4,0c-1.1,0.2-2.1-0.5-2.4-1.5C6.8,148.6,6.8,148.4,6.8,148.2z"/>
		</g>
		<g>
			<path class="st1" d="M16.1,150.2l-2.8-4.5v4.5h-0.9v-6.4h0.9l2.8,4.5v-4.5h1v6.4H16.1z"/>
		</g>
		<g>
			<path class="st1" d="M17.9,150.2v-6.4h1.9c2.1,0,2.7,1.4,2.7,3.2s-0.6,3.2-2.7,3.2H17.9z M18.8,149.3h1c1.3,0,1.7-0.9,1.7-2.3
				s-0.4-2.3-1.7-2.3h-1V149.3z"/>
		</g>
		<g>
			<path class="st1" d="M26.8,147.3h-2.6v2h2.9v0.9h-3.9v-6.4h3.9v0.9h-2.9v1.8h2.6V147.3z"/>
		</g>
		<g>
			<path class="st1" d="M28.9,150.2h-1v-6.4H30c1.6,0,2.2,0.7,2.2,1.9c0.1,0.7-0.3,1.4-1,1.7l1.3,2.8h-1.2l-1.1-2.6h-1.3V150.2z
				 M28.9,146.7h1.3c0.9,0,1-0.5,1-1s-0.1-1-1-1h-1.3V146.7z"/>
		</g>
		<g>
			<path class="st1" d="M36.5,144.7v5.5h-1v-5.5h-1.6v-0.9h4.3v0.9H36.5z"/>
		</g>
		<g>
			<path class="st1" d="M42.3,150.2v-2.9h-2.6v2.9h-1v-6.4h1v2.6h2.6v-2.6h1v6.4H42.3z"/>
		</g>
		<g>
			<path class="st1" d="M47.8,147.3h-2.7v2h2.9v0.9h-3.9v-6.4h3.9v0.9h-2.9v1.8h2.7V147.3z"/>
		</g>
		<g>
			<path class="st1" d="M52.8,143.8H54l1.1,5l0.8-5h1l-1.2,6.4h-1.2l-1.1-5.3l-1.2,5.3H51l-1.2-6.4h1l0.8,5L52.8,143.8z"/>
		</g>
		<g>
			<path class="st1" d="M59.7,144.7v5.5h-1v-5.5h-1.6v-0.9h4.3v0.9H59.7z"/>
		</g>
		<g>
			<path class="st1" d="M61.6,147c0-1.8,0.4-3.3,2.4-3.3s2.5,1.5,2.5,3.3s-0.4,3.3-2.5,3.3S61.6,148.8,61.6,147z M62.6,147
				c0,1.5,0.3,2.4,1.5,2.4c1.2,0,1.5-0.9,1.5-2.4s-0.3-2.4-1.5-2.4S62.6,145.5,62.6,147L62.6,147z"/>
		</g>
	</g>
	<g>
		<rect x="3.3" y="24" class="st1" width="94.8" height="94.8"/>
	</g>
	<g>
		<path class="st1" d="M98.2,20.7H3.3V3.3h94.8V20.7z M4.3,19.7h92.8V4.3H4.3L4.3,19.7z"/>
	</g>
	<g class="st2">
		<path class="st1" d="M6.7,6.9h4.5v1.4H9.9v8.8H8.1V8.3H6.7V6.9z"/>
	</g>
	<g class="st2">
		<path class="st1" d="M11.2,17.1l1.9-10.2h1.9L17,17.1h-1.8l-0.3-1.9h-1.8l-0.3,1.9H11.2z M13.3,13.9h1.4L14,9.8h0L13.3,13.9z"/>
	</g>
	<g class="st2">
		<path class="st1" d="M19.6,12.4v4.7h-1.7V6.9h2.5c1.7,0,2.4,0.9,2.4,2.3v1.3c0,1.1-0.4,1.7-1.4,2l1.6,4.6h-1.8L19.6,12.4z
			 M19.6,8.3v3.2h0.6c0.6,0,0.8-0.3,0.8-0.8V9.2c0-0.6-0.3-0.8-0.8-0.8H19.6z"/>
	</g>
	<g class="st2">
		<path class="st1" d="M26.4,11.7h2.4v5.4h-1.2V16c-0.2,0.8-0.7,1.2-1.6,1.2c-1.5,0-2.1-1.2-2.1-2.7V9.6c0-1.6,0.8-2.7,2.6-2.7
			c1.9,0,2.4,1.1,2.4,2.6v0.9h-1.6v-1c0-0.6-0.2-1-0.9-1c-0.6,0-0.9,0.4-0.9,1v5.5c0,0.6,0.3,1,0.8,1c0.6,0,0.8-0.3,0.8-1V13h-0.8
			V11.7z"/>
	</g>
	<g class="st2">
		<path class="st1" d="M30.2,6.9h4.1v1.4h-2.4v2.9h1.7v1.4h-1.7v3.1h2.4v1.4h-4.1V6.9z"/>
	</g>
	<g class="st2">
		<path class="st1" d="M35.1,6.9h4.5v1.4h-1.4v8.8h-1.7V8.3h-1.4V6.9z"/>
	</g>
	<g class="st2">
		<path class="st1" d="M74,6.9v10.2h-1.7V9.3h0l-1.2,1.2h0V8.8l1.6-1.8H74z"/>
		<path class="st1" d="M75.2,6.9h4.3v1.6l-2.2,8.6h-1.7l2.3-8.8h-2.6V6.9z"/>
	</g>
	<g class="st2">
	</g>
	<g class="st2">
		<path class="st1" d="M82.3,10.8c0.7,0,1.2,0.6,1.2,1.2c0,0.7-0.6,1.2-1.2,1.2c-0.7,0-1.2-0.6-1.2-1.2C81,11.4,81.6,10.8,82.3,10.8
			z"/>
	</g>
	<g class="st2">
		<path class="st1" d="M87.9,6.9v10.2h-1.7V9.3h0L85,10.6h0V8.8l1.6-1.8H87.9z"/>
		<path class="st1" d="M89.3,14.5V9.6c0-1.6,0.8-2.7,2.5-2.7c1.7,0,2.5,1.2,2.5,2.7v4.9c0,1.6-0.8,2.7-2.5,2.7
			C90.1,17.2,89.3,16.1,89.3,14.5z M92.7,14.8V9.3c0-0.6-0.2-1-0.8-1c-0.6,0-0.8,0.4-0.8,1v5.5c0,0.6,0.2,1,0.8,1
			C92.5,15.8,92.7,15.4,92.7,14.8z"/>
	</g>
	<g>
		<path class="st1" d="M98.2,153.9h-95v-31.7h95V153.9z M4.2,152.9h93v-29.7h-93V152.9z"/>
	</g>
	<g>
		<path class="st0" d="M67.7,80l-1-6.5c-24,10.7-40.8,1.2-47.3-4l2.9-2.6c0.1-0.1,0.2-0.2,0.1-0.3c0-0.1-0.1-0.1-0.2-0.1l0,0l-7-1.2
			h-0.1c-0.1,0-0.2,0-0.2,0.1c0,0.1-0.1,0.1-0.1,0.2v0.1l0.5,6.9v0.1c0,0.1,0,0.1,0.1,0.2c0.1,0,0.2,0,0.3-0.1l0.1-0.1l2.5-2.2
			C26.9,87.1,49.8,88.7,67.7,80z"/>
	</g>
	<g>
		<path class="st0" d="M87.2,80.3L86.5,72l0,0l0,0c0-0.1-0.1-0.1-0.2-0.2c-0.1-0.1-0.2-0.1-0.3-0.1l0,0l-8,2.8l0,0
			c-0.1,0-0.2,0.1-0.2,0.2c0,0.1,0,0.2,0.2,0.4l3.9,2.5C74.3,85,58.5,100.8,27,91.1l0.1,7.8c23.2,6.8,49.2,0.8,56.1-20.5l3.4,2.2
			l0.1,0.1c0.2,0.1,0.3,0.1,0.4,0c0.1-0.1,0.1-0.2,0.1-0.2L87.2,80.3z"/>
	</g>
	<g>
		<path class="st0" d="M33.9,61.7l0.2,5.9c10.6,3.4,35.5,2.6,42.1-16.1l2.6,1.6l0.1,0.1c0.1,0.1,0.2,0.1,0.3,0
			c0.1,0,0.1-0.1,0.1-0.2v-0.1l-0.6-6.2v-0.1c0-0.1-0.1-0.1-0.1-0.1c-0.1,0-0.1,0-0.2,0h-0.1l-6,2.2l0,0c-0.1,0-0.1,0.1-0.2,0.1
			c0,0.1,0,0.2,0.2,0.3l2.9,1.8C69.7,56.4,58.9,66.9,33.9,61.7z"/>
	</g>
	<g>
		<path class="st0" d="M25.5,41.6l1.2,6.1v0.1c0,0.1,0.1,0.1,0.1,0.2c0.1,0,0.2,0,0.3-0.1l0.1-0.1l1.9-2.1
			c6.7,10.9,22.1,11.7,34.9,5.6l-0.7-4.7c-17.3,8.2-28.3,2.2-33.2-2l2.2-2.5c0.1-0.1,0.1-0.2,0.1-0.3c-0.1,0-0.1-0.1-0.2-0.1l0,0
			l-6.4-0.3h-0.1c-0.1,0-0.1,0-0.2,0.1C25.5,41.4,25.5,41.5,25.5,41.6L25.5,41.6L25.5,41.6z"/>
	</g>
</g>
</svg>
