<?xml version="1.0" encoding="utf-8"?>
<!-- Generator: Adobe Illustrator 22.0.1, SVG Export Plug-In . SVG Version: 6.00 Build 0)  -->
<svg version="1.1" id="Layer_1" xmlns="http://www.w3.org/2000/svg" xmlns:xlink="http://www.w3.org/1999/xlink" x="0px" y="0px"
	 viewBox="0 0 101.5 166.2" style="enable-background:new 0 0 101.5 166.2;" xml:space="preserve">
<style type="text/css">
	.st0{fill:#FFFFFF;}
	.st1{fill:#19486A;}
	.st2{enable-background:new    ;}
</style>
<title>TARGET 1.2 copy</title>
<g id="WHITE_BG">
	<g>
		<rect y="0" class="st0" width="101.5" height="166.2"/>
	</g>
</g>
<g id="TARGETS">
	<g>
		<g>
			<path class="st1" d="M7,132.2v-6.4h1v6.4H7z"/>
		</g>
		<g>
			<path class="st1" d="M12.8,132.2l-2.8-4.5v4.5H9.1v-6.4h0.9l2.8,4.5v-4.5h0.9v6.4L12.8,132.2z"/>
		</g>
		<g>
			<path class="st1" d="M17.1,125.7c0.5,0,1,0.1,1.5,0.3v0.9c-0.5-0.2-0.9-0.3-1.4-0.3c-1.2,0-1.7,0.8-1.7,2.4
				c0,1.6,0.5,2.4,1.7,2.4c0.5,0,1-0.1,1.4-0.3v0.9c-0.5,0.2-1,0.3-1.5,0.3c-1.9,0-2.6-1.2-2.6-3.3S15.2,125.7,17.1,125.7z"/>
		</g>
		<g>
			<path class="st1" d="M20.4,132.2h-1v-6.4h2.1c1.6,0,2.2,0.7,2.2,1.9c0.1,0.7-0.3,1.4-1,1.7l1.3,2.8h-1.1l-1.2-2.6h-1.3V132.2z
				 M20.4,128.7h1.3c0.9,0,1-0.5,1-1s-0.1-1-1-1h-1.3V128.7z"/>
		</g>
		<g>
			<path class="st1" d="M28.3,129.3h-2.6v2h2.9v0.9h-3.9v-6.4h3.9v0.9h-2.9v1.8h2.6V129.3z"/>
		</g>
		<g>
			<path class="st1" d="M32.5,130.6h-2l-0.5,1.6h-1l2-6.4h1l2,6.4h-1L32.5,130.6z M31.5,127l-0.8,2.8h1.6L31.5,127z"/>
		</g>
		<g>
			<path class="st1" d="M38.5,130.3c0,1.2-0.7,2-2.4,2c-0.6,0-1.3-0.1-1.9-0.4v-1c0.6,0.3,1.2,0.4,1.8,0.4c1.2,0,1.5-0.5,1.5-1.1
				s-0.3-0.9-1.2-1c-1.5-0.2-2.2-0.6-2.2-1.8c0-0.9,0.5-1.8,2.3-1.8c0.6,0,1.2,0.1,1.7,0.3v1c-0.5-0.2-1.1-0.3-1.7-0.3
				c-1,0-1.3,0.4-1.3,1s0.4,0.8,1.2,0.9C37.7,128.7,38.5,129,38.5,130.3z"/>
		</g>
		<g>
			<path class="st1" d="M42.9,129.3h-2.7v2h2.9v0.9h-3.9v-6.4h3.9v0.9h-2.9v1.8h2.7V129.3z"/>
		</g>
		<g>
			<path class="st1" d="M47.4,126.7v5.5h-1v-5.5h-1.6v-0.9h4.3v0.9L47.4,126.7z"/>
		</g>
		<g>
			<path class="st1" d="M53.2,132.2v-2.9h-2.6v2.9h-1v-6.4h1v2.6h2.6v-2.6h1v6.4L53.2,132.2z"/>
		</g>
		<g>
			<path class="st1" d="M58.7,129.3H56v2h2.9v0.9h-3.8v-6.4h3.9v0.9H56v1.8h2.7L58.7,129.3z"/>
		</g>
		<g>
			<path class="st1" d="M10.5,138.3H7.8v2h2.9v0.9H6.9v-6.4h3.9v0.9H7.8v1.8h2.6V138.3z"/>
		</g>
		<g>
			<path class="st1" d="M15.2,134.8h1.1l-1.8,3.2l1.9,3.3h-1.1l-1.4-2.6l-1.4,2.6h-1.1l1.9-3.3l-1.9-3.1h1.1l1.4,2.6L15.2,134.8z"/>
		</g>
		<g>
			<path class="st1" d="M18,141.2h-1v-6.4h2c1.6,0,2.2,1,2.2,2s-0.6,2-2.2,2h-1V141.2z M18,138h1.1c0.6,0,1.1-0.5,1.1-1.1
				c0-0.6-0.5-1.1-1.1-1.1H18V138z"/>
		</g>
		<g>
			<path class="st1" d="M21.7,138c0-1.8,0.4-3.3,2.5-3.3s2.5,1.5,2.5,3.3s-0.4,3.3-2.5,3.3S21.7,139.8,21.7,138z M22.7,138
				c0,1.5,0.3,2.4,1.5,2.4s1.5-0.9,1.5-2.4s-0.3-2.4-1.5-2.4S22.7,136.5,22.7,138L22.7,138z"/>
		</g>
		<g>
			<path class="st1" d="M28.4,141.2h-1v-6.4h2.1c1.6,0,2.2,0.7,2.2,1.9c0.1,0.7-0.3,1.4-1,1.7l1.3,2.8h-1.1l-1.2-2.6h-1.3V141.2z
				 M28.4,137.7h1.3c0.9,0,1-0.5,1-1s-0.1-1-1-1h-1.3V137.7z"/>
		</g>
		<g>
			<path class="st1" d="M34.5,135.7v5.5h-1v-5.5h-1.6v-0.9h4.3v0.9H34.5z"/>
		</g>
		<g>
			<path class="st1" d="M40.9,139.3c0,1.2-0.7,2-2.4,2c-0.6,0-1.3-0.1-1.9-0.4v-1c0.6,0.3,1.2,0.4,1.8,0.4c1.1,0,1.5-0.5,1.5-1.1
				s-0.3-0.9-1.2-1c-1.6-0.2-2.2-0.6-2.2-1.8c0-0.9,0.5-1.9,2.3-1.9c0.6,0,1.2,0.1,1.7,0.3v1c-0.5-0.2-1.1-0.3-1.7-0.3
				c-1,0-1.3,0.4-1.3,1s0.4,0.8,1.2,0.9C40.1,137.7,40.9,138,40.9,139.3z"/>
		</g>
		<g>
			<path class="st1" d="M43,138c0-1.8,0.4-3.3,2.5-3.3s2.5,1.5,2.5,3.3s-0.4,3.3-2.5,3.3S43,139.8,43,138z M44,138
				c0,1.5,0.3,2.4,1.5,2.4s1.5-0.9,1.5-2.4s-0.3-2.4-1.5-2.4S44,136.5,44,138z"/>
		</g>
		<g>
			<path class="st1" d="M52.2,138.4h-2.6v2.8h-1v-6.4h3.8v0.9h-2.8v1.8h2.6L52.2,138.4z"/>
		</g>
		<g>
			<path class="st1" d="M6.9,150.2v-6.4h1.9c2.1,0,2.7,1.4,2.7,3.2s-0.6,3.2-2.7,3.2H6.9z M7.9,149.3h1c1.3,0,1.7-0.9,1.7-2.3
				s-0.4-2.3-1.7-2.3h-1L7.9,149.3z"/>
		</g>
		<g>
			<path class="st1" d="M15.8,147.3h-2.7v2h2.9v0.9h-3.9v-6.4h3.9v0.9h-2.9v1.8h2.7L15.8,147.3z"/>
		</g>
		<g>
			<path class="st1" d="M21.5,143.8l-2,6.5h-1l-2-6.5h1L19,149l1.5-5.2L21.5,143.8z"/>
		</g>
		<g>
			<path class="st1" d="M25.6,147.3H23v2h2.9v0.9H22v-6.4h3.9v0.9H23v1.8h2.6L25.6,147.3z"/>
		</g>
		<g>
			<path class="st1" d="M27.7,149.3h2.8v0.9h-3.7v-6.4h1L27.7,149.3z"/>
		</g>
		<g>
			<path class="st1" d="M30.5,147c0-1.8,0.4-3.3,2.5-3.3s2.5,1.5,2.5,3.3s-0.4,3.3-2.5,3.3S30.5,148.8,30.5,147z M31.5,147
				c0,1.5,0.3,2.4,1.5,2.4c1.2,0,1.5-0.9,1.5-2.4s-0.3-2.4-1.5-2.4S31.5,145.5,31.5,147L31.5,147z"/>
		</g>
		<g>
			<path class="st1" d="M37.1,150.2h-1v-6.4h2c1.6,0,2.2,1,2.2,2s-0.6,2-2.2,2h-1V150.2z M37.1,146.9h1.1c0.6,0,1.1-0.5,1.1-1.1
				c0-0.6-0.5-1.1-1.1-1.1h-1.1V146.9z"/>
		</g>
		<g>
			<path class="st1" d="M41,150.2v-6.4h1v6.4H41z"/>
		</g>
		<g>
			<path class="st1" d="M46.7,150.2l-2.8-4.5v4.5H43v-6.4h0.9l2.8,4.5v-4.5h0.9v6.4H46.7z"/>
		</g>
		<g>
			<path class="st1" d="M48.4,147c0-2,0.7-3.3,2.6-3.3c0.6,0,1.2,0.1,1.8,0.3v1c-0.5-0.2-1.1-0.4-1.7-0.4c-1.3,0-1.8,0.9-1.8,2.4
				s0.5,2.4,1.8,2.4c0.3,0,0.6,0,0.9-0.1v-1.7H51v-0.9h2v3.2c-0.6,0.3-1.3,0.4-2,0.4C49.1,150.3,48.4,149,48.4,147z"/>
		</g>
		<g>
			<path class="st1" d="M9.4,152.7c0.5,0,1,0.1,1.5,0.3v0.9c-0.5-0.2-0.9-0.3-1.4-0.3c-1.2,0-1.7,0.8-1.7,2.4s0.5,2.4,1.7,2.4
				c0.5,0,1-0.1,1.4-0.3v0.9c-0.5,0.2-1,0.3-1.5,0.3c-1.9,0-2.6-1.2-2.6-3.3S7.5,152.7,9.4,152.7z"/>
		</g>
		<g>
			<path class="st1" d="M11.6,156c0-1.8,0.4-3.3,2.5-3.3s2.4,1.5,2.4,3.3s-0.4,3.3-2.4,3.3S11.6,157.8,11.6,156z M12.6,156
				c0,1.5,0.3,2.4,1.5,2.4s1.5-0.9,1.5-2.4s-0.3-2.4-1.5-2.4S12.6,154.5,12.6,156L12.6,156z"/>
		</g>
		<g>
			<path class="st1" d="M17.2,157.2v-4.4h1v4.3c-0.1,0.7,0.4,1.2,1,1.3c0.1,0,0.2,0,0.3,0c0.6,0.1,1.2-0.3,1.4-1c0-0.1,0-0.2,0-0.3
				v-4.3h1v4.4c0,1.1-0.8,2.1-2,2.1c-0.1,0-0.2,0-0.3,0c-1.1,0.2-2.2-0.6-2.3-1.7C17.2,157.5,17.2,157.3,17.2,157.2z"/>
		</g>
		<g>
			<path class="st1" d="M26.4,159.2l-2.8-4.5v4.5h-0.9v-6.4h0.9l2.8,4.5v-4.5h0.9v6.4H26.4z"/>
		</g>
		<g>
			<path class="st1" d="M30.4,153.7v5.5h-1v-5.5h-1.6v-0.9h4.3v0.9H30.4z"/>
		</g>
		<g>
			<path class="st1" d="M33.6,159.2h-1v-6.4h2.1c1.7,0,2.2,0.7,2.2,1.9c0.1,0.7-0.3,1.4-1,1.7l1.3,2.8H36l-1.2-2.6h-1.3V159.2z
				 M33.6,155.7h1.3c0.9,0,1-0.5,1-1s-0.1-1-1-1h-1.3V155.7z"/>
		</g>
		<g>
			<path class="st1" d="M38,159.2v-6.4h1v6.4H38z"/>
		</g>
		<g>
			<path class="st1" d="M43.6,156.3h-2.7v2h2.9v0.9H40v-6.4h3.9v0.9h-2.9v1.8h2.7V156.3z"/>
		</g>
		<g>
			<path class="st1" d="M48.9,157.3c0,1.2-0.7,2-2.4,2c-0.6,0-1.3-0.1-1.9-0.4v-1c0.6,0.3,1.2,0.4,1.8,0.4c1.1,0,1.5-0.5,1.5-1.1
				s-0.3-0.9-1.2-1c-1.6-0.2-2.2-0.6-2.2-1.8c0-0.9,0.5-1.9,2.3-1.9c0.6,0,1.2,0.1,1.7,0.3v1c-0.5-0.2-1.1-0.3-1.7-0.3
				c-1,0-1.3,0.4-1.3,1s0.4,0.8,1.2,0.9C48.1,155.7,48.9,156,48.9,157.3z"/>
		</g>
	</g>
	<g>
		<rect x="3.3" y="24" class="st1" width="94.8" height="94.8"/>
	</g>
	<g>
		<path class="st1" d="M98.2,20.7H3.3V3.3h94.8V20.7z M4.3,19.7h92.8V4.3H4.3L4.3,19.7z"/>
	</g>
	<g class="st2">
		<path class="st1" d="M6.7,6.9h4.5v1.4H9.9v8.8H8.1V8.3H6.7V6.9z"/>
	</g>
	<g class="st2">
		<path class="st1" d="M11.2,17.1l1.9-10.2h1.9L17,17.1h-1.8l-0.3-1.9h-1.8l-0.3,1.9H11.2z M13.3,13.9h1.4L14,9.8h0L13.3,13.9z"/>
	</g>
	<g class="st2">
		<path class="st1" d="M19.6,12.4v4.7h-1.7V6.9h2.5c1.7,0,2.4,0.9,2.4,2.3v1.3c0,1.1-0.4,1.7-1.4,2l1.6,4.6h-1.8L19.6,12.4z
			 M19.6,8.3v3.2h0.6c0.6,0,0.8-0.3,0.8-0.8V9.2c0-0.6-0.3-0.8-0.8-0.8H19.6z"/>
	</g>
	<g class="st2">
		<path class="st1" d="M26.4,11.7h2.4v5.4h-1.2V16c-0.2,0.8-0.7,1.2-1.6,1.2c-1.5,0-2.1-1.2-2.1-2.7V9.6c0-1.6,0.8-2.7,2.6-2.7
			c1.9,0,2.4,1.1,2.4,2.6v0.9h-1.6v-1c0-0.6-0.2-1-0.9-1c-0.6,0-0.9,0.4-0.9,1v5.5c0,0.6,0.3,1,0.8,1c0.6,0,0.8-0.3,0.8-1V13h-0.8
			V11.7z"/>
	</g>
	<g class="st2">
		<path class="st1" d="M30.2,6.9h4.1v1.4h-2.4v2.9h1.7v1.4h-1.7v3.1h2.4v1.4h-4.1V6.9z"/>
	</g>
	<g class="st2">
		<path class="st1" d="M35.1,6.9h4.5v1.4h-1.4v8.8h-1.7V8.3h-1.4V6.9z"/>
	</g>
	<g class="st2">
		<path class="st1" d="M76.1,6.9v10.2h-1.7V9.3h0l-1.2,1.2h0V8.8l1.6-1.8H76.1z"/>
		<path class="st1" d="M77.3,6.9h4.3v1.6l-2.2,8.6h-1.7L80,8.3h-2.6V6.9z"/>
	</g>
	<g class="st2">
	</g>
	<g class="st2">
		<path class="st1" d="M84.4,10.8c0.7,0,1.2,0.6,1.2,1.2c0,0.7-0.6,1.2-1.2,1.2c-0.7,0-1.2-0.6-1.2-1.2
			C83.1,11.4,83.7,10.8,84.4,10.8z"/>
	</g>
	<g class="st2">
		<path class="st1" d="M90,6.9v10.2h-1.7V9.3h0l-1.2,1.2h0V8.8l1.6-1.8H90z"/>
	</g>
	<g class="st2">
		<path class="st1" d="M94.1,6.9v10.2h-1.7V9.3h0l-1.2,1.2h0V8.8l1.6-1.8H94.1z"/>
	</g>
	<g>
		<g>
			<g>
				<path class="st0" d="M73.9,69.1c-0.1-0.6-0.6-1-1.2-1c-0.6,0-1.1,0-1.7,0s-1.2-0.2-1.4-0.8c-0.3-1.1-0.6-2.2-1.1-3.3
					c-0.3-0.6-0.1-1.3,0.4-1.7c0.5-0.4,0.9-0.8,1.4-1.2c0.4-0.4,0.6-1,0.3-1.5C69.9,58.3,69,57.1,68,56c-0.4-0.5-1.1-0.5-1.6-0.2
					c0,0,0,0,0,0c-0.5,0.3-0.9,0.6-1.4,1s-1.1,0.6-1.6,0.1c-1-0.7-2.1-1.6-2.8-2c-0.6-0.3-0.8-1-0.6-1.6c0.2-0.7,0.3-1.2,0.4-1.8
					c0.2-0.5-0.1-1.1-0.6-1.4c-1.3-0.6-2.7-1-4.2-1.3c-0.6-0.2-1.2,0.2-1.4,0.8c0,0,0,0,0,0c-0.2,0.6-0.4,1-0.6,1.6
					s-0.5,1.1-1.2,1.1c-1.4,0-2.5,0-3.4,0c-0.6,0.1-1.2-0.3-1.5-0.9c-0.2-0.6-0.5-1.1-0.7-1.7c-0.2-0.5-0.8-0.8-1.3-0.7
					c-1.4,0.3-2.8,0.8-4.1,1.4c-0.6,0.2-0.9,0.9-0.6,1.4c0,0,0,0,0,0c0.2,0.6,0.3,1.1,0.5,1.6s0.2,1.2-0.4,1.6s-2,1.4-2.8,2
					c-0.5,0.4-1.2,0.5-1.7,0.1c-0.6-0.4-1-0.6-1.6-1c-0.5-0.3-1.1-0.2-1.5,0.2c-1,1.1-1.8,2.3-2.5,3.6c-0.4,0.5-0.2,1.2,0.3,1.6
					c0,0,0.1,0,0.1,0c0.5,0.4,0.9,0.7,1.3,1c0.5,0.3,0.9,0.9,0.6,1.5s-0.8,2.6-1,3.3c-0.1,0.6-0.7,1.1-1.3,1.1
					c-0.7,0-1.2,0.1-1.9,0.1c-0.6,0-1,0.4-1.1,1c-0.2,1.5-0.2,2.9,0.1,4.4c0.1,0.6,0.6,1,1.2,1c0.6,0,1.1,0,1.7,0s1.2,0.2,1.4,0.8
					c0.3,1.1,0.7,2.2,1.1,3.3c0.3,0.6,0.1,1.4-0.5,1.8c-0.5,0.4-0.9,0.8-1.4,1.2c-0.5,0.4-0.6,1-0.3,1.5c0.7,1.3,1.6,2.5,2.6,3.5
					c0.4,0.5,1.1,0.5,1.6,0.2c0.5-0.3,0.9-0.6,1.4-1s1.1-0.6,1.6-0.1s2.1,1.6,2.8,2c0.6,0.3,0.8,1,0.6,1.6c-0.2,0.6-0.3,1.2-0.4,1.8
					c-0.2,0.5,0.1,1.1,0.6,1.4c1.3,0.6,2.7,1,4.2,1.3c0.6,0.2,1.2-0.2,1.4-0.8c0,0,0,0,0,0c0.2-0.6,0.4-1,0.6-1.6s0.5-1.1,1.2-1.1
					c1.3,0,2.3,0,3.5,0c0.6-0.1,1.2,0.3,1.5,0.9c0.2,0.6,0.5,1.1,0.7,1.7c0.2,0.5,0.8,0.8,1.3,0.7c1.4-0.3,2.8-0.8,4.1-1.4
					c0.6-0.2,0.9-0.9,0.7-1.4c-0.2-0.6-0.3-1.1-0.5-1.6s-0.2-1.2,0.4-1.6s2.2-1.6,2.8-2c0.5-0.4,1.2-0.5,1.7-0.1
					c0.6,0.4,1,0.7,1.6,1c0.5,0.3,1.1,0.2,1.5-0.2c1-1.1,1.8-2.3,2.5-3.6c0.3-0.5,0.2-1.2-0.3-1.6c-0.5-0.4-0.9-0.7-1.3-1
					s-0.9-0.9-0.6-1.5s0.8-2.5,1-3.3c0.1-0.7,0.7-1.2,1.3-1.2c0.7,0,1.2-0.1,1.9-0.2c0.6,0,1-0.4,1.1-1C74.1,72,74.1,70.6,73.9,69.1
					z M50.9,86.1c-7.9,0-14.3-6.5-14.3-14.4S43,57.4,50.9,57.5s14.3,6.5,14.3,14.4c0,0,0,0,0,0C65.2,79.8,58.8,86.1,50.9,86.1
					L50.9,86.1z"/>
			</g>
			<g>
				<path class="st0" d="M40.3,67.7c0.3,0.2,0.6-0.1,0.7-0.2c0.1-0.2,0.1-0.4,0-0.5c-0.1-0.2,0.2-0.3,0.3-0.3c0.3-0.2,0.6-0.4,1-0.6
					c0.6-0.2,1.3-0.2,1.9,0c0.4,0.2,1,0.1,1.3-0.2c0.3-0.3,0.6-0.6,0.9-0.8c0.2-0.1-0.5-0.7-1,0s-0.8,0.7-1,0.7s-1.7-0.4-1.9-0.8
					s0.5-0.8,1-1.1c0.8-0.2,1.6-0.3,2.4-0.3c0.8-0.2,1.7-0.5,2.2-0.2s-2.1,0.9-1.2,1.4c0.3,0.2,1.6-0.8,2.1-1c1.1-0.6-1-0.8-0.8-1.9
					s-2.5-0.8-4-0.7c-0.7,0.4-1.4,0.9-2,1.5c0.2,0,0.4,0.1,0.4,0.2c0,0.3-0.1,0.5-0.2,0.8c-0.4,0.4-0.8,0.6-1.3,0.6
					c-0.1,0-0.2-0.1-0.2-0.1c-0.2,0.3-0.4,0.6-0.6,0.9c0.3-0.2,0.6-0.3,0.9-0.3c0.3,0,0.7,0.1,0.8,0.3s-0.8,0.6-0.9,0.7
					c-0.4,0.4-1.1,1.2-1.5,1.3c-0.1,0-0.2,0-0.3,0c-0.1,0.3-0.2,0.6-0.3,0.8C39.3,67.6,39.8,67.5,40.3,67.7z"/>
			</g>
			<g>
				<path class="st0" d="M61.1,71.2c-0.4,0.3-0.9,0.5-1.3,0.5c-0.5,0.4-0.7,0.9-0.7,1.5c0.1,0.5,1.2,1.8,0.4,1.7
					c-0.8-0.4-1.5-1-2-1.7c-0.3-0.7-0.5-1.4-0.8-1.9c-0.1-0.4-0.6-0.6-1-0.5c-0.1,0-0.1,0.1-0.2,0.1c-0.5,0.3,0.1,0.6-0.2,1.3
					s-0.6,1.2-1,0.7c-1.2-1.4-3-0.7-3.3-2.3c-0.2-0.8-0.9-0.8-1.5-1.3s-1-0.7-1.1-0.4s1.9,1.9,2.1,2.3c0.2,0.6-0.6,1.2-1.2,1.3
					s-0.9-0.3-1.5-0.9s-0.8-1.1-0.9-0.6c0,0.8,0.5,1.6,1.2,2.1c0.5,0.3,1.1,0.5,0.9,1s0,0.2-0.6,0.8c-0.5,0.3-0.8,0.9-0.7,1.5
					c0,0.8-0.2,0.8-0.3,1.5s-0.4,0.1-0.7,1c-0.1,0.6-0.4,1.2-0.8,1.6c-0.5,0.4-1.1,0.6-1.7,0.7c-0.6,0-0.7-1.6-0.7-2.4
					c0-0.3-0.4,0.5-0.6-1.1c-0.1-1-0.8,0.1-0.8-0.6s-0.4-0.6-0.7-1s-0.8,0-1.3,0.3s-0.3,0.3-1,0.1l0,0c1.5,3.5,4.4,6.1,8.1,7.2
					c-0.2-0.1-0.3-0.4-0.2-0.6c0.5-0.9,1.4-1.5,2.5-1.5c2-0.2,4.7,1.3,5.2,1.1s1.3-1.4,2.6-1.3c0.4,0,0.8,0.1,1.1,0.3
					c0.4-0.3,0.9-0.7,1.3-1.1c-0.1,0-0.3-0.1-0.4-0.2c-0.7-0.3-0.6,0.2-1,0.1s0.4-0.9-0.6-0.2s-0.7-0.1-1.2-1.2
					c-0.3-1.1,0.3-2.2,1.3-2.7c0.7-0.3,1.5-0.5,2.3-0.6c1.5-0.4,1.8-1.3,2.1-0.7c0,0.1,0.1,0.2,0.1,0.3c0.1,0.2,0.2,0.5,0.2,0.8
					c0.2-0.6,0.4-1.2,0.6-1.9c-0.4-0.2-1.7-2.1-0.6-3.3c0.2-0.2-0.4-0.8-0.2-0.8c0.5,0,0.9,0.3,1,0.8c0-0.7-0.1-1.3-0.3-2
					c0,0.1,0,0.3-0.1,0.4c-0.2,0.4-0.7,0.6-1.1,0.5c-0.2-0.1-0.3-0.2-0.4-0.3c-0.1-0.2-0.7-0.7-0.7,0.2S61.9,70.7,61.1,71.2z
					 M49.2,76.2c-0.2,0.3-0.7,2.4-1,2.2s0.1-2.5,0.2-2.6C49,74.7,50,74.8,49.2,76.2L49.2,76.2z M54.4,73.7c-0.4,0.2-0.9,0.2-1.2-0.1
					c-0.3-0.2,0.2-0.7,0.4-0.7C54,72.8,54.6,73.4,54.4,73.7L54.4,73.7z M59.6,73.2c-0.1-0.1,0-0.3,0.1-0.4c0.1-0.1,0.2,0,0.3,0
					c0.3,0.2,0.5,0.4,0.6,0.7c0,0.2-0.5,0.2-0.6,0.1S59.7,73.5,59.6,73.2L59.6,73.2z M61.3,74.9c-0.4,0.2-0.9,0.2-1.2-0.1
					c-0.3-0.2,0.2-0.7,0.4-0.7C60.9,74,61.5,74.6,61.3,74.9L61.3,74.9z"/>
			</g>
			<g>
				<path class="st0" d="M39.8,69.1c0.7,0.1,1.4,0.3,2.1,0.5c0.7,0.3,1.9,0.9,2.5,0.6c0.5-0.2,0.9-0.5,0.8-0.9s-0.5-0.6-0.9-0.3
					c-0.2,0.1-0.6-0.8-0.9-0.7s0.4,1,0.1,1.1s-0.8-1-0.8-1.2s-0.5-0.6-0.8-0.3c-0.8,0.7-2,0.7-2.2,0.8c-0.1,0.1-0.2,0.1-0.3,0.2
					c-0.5,0.2-0.7-0.3-0.7-0.7c-0.2,0.7-0.4,1.4-0.4,2.2c0,0,0-0.1,0.1-0.1c0.4-0.8,0.5-0.9,0.6-0.9c0.2-0.1,0.3-0.1,0.5-0.2
					L39.8,69.1z"/>
			</g>
		</g>
		<g>
			<path class="st0" d="M19,33l11.6,11.5c0,0,0.1,0.1,0,0.2c0,0,0,0,0,0l-5.9,5.5c-0.1,0-0.1,0-0.2,0L13.2,38.9L11,41.1V30.8l10.3,0
				L19,33z"/>
		</g>
		<g>
			<g>
				<path class="st0" d="M82.4,109.9L70.9,98.4c0,0-0.1-0.1,0-0.2c0,0,0,0,0,0l5.9-5.5c0.1,0,0.1,0,0.2,0L88.2,104l2.2-2.2v10.3
					l-10.3,0.1L82.4,109.9z"/>
			</g>
			<g>
				<path class="st0" d="M19,109.8l11.5-11.5c0-0.1,0-0.1,0-0.2l-5.9-5.5c-0.1,0-0.1,0-0.2,0L13.1,104l-2.2-2.2v10.3h10.3L19,109.8z
					"/>
			</g>
		</g>
		<g>
			<path class="st0" d="M82.5,33.1L71,44.5c0,0.1,0,0.1,0,0.2l5.9,5.5c0.1,0,0.1,0,0.2,0L88.4,39l2.2,2.2V30.9l-10.3,0L82.5,33.1z"
				/>
		</g>
	</g>
	<g>
		<path class="st1" d="M98.2,162.9h-95v-40.8h95V162.9z M4.2,161.9h93v-38.8h-93V161.9z"/>
	</g>
</g>
</svg>
