<?xml version="1.0" encoding="utf-8"?>
<!-- Generator: Adobe Illustrator 22.0.1, SVG Export Plug-In . SVG Version: 6.00 Build 0)  -->
<svg version="1.1" id="Layer_1" xmlns="http://www.w3.org/2000/svg" xmlns:xlink="http://www.w3.org/1999/xlink" x="0px" y="0px"
	 viewBox="0 0 101.5 157.1" style="enable-background:new 0 0 101.5 157.1;" xml:space="preserve">
<style type="text/css">
	.st0{fill:#FFFFFF;}
	.st1{fill:#19486A;}
	.st2{enable-background:new    ;}
</style>
<title>TARGET 1 B copy 15</title>
<g id="WHITE_BG">
	<g>
		<rect y="0" class="st0" width="101.5" height="157.1"/>
	</g>
</g>
<g id="TARGETS">
	<g>
		<g>
			<path class="st1" d="M10.5,129.3H7.8v2h2.9v0.9H6.9v-6.4h3.9v0.9H7.8v1.8h2.6V129.3z"/>
		</g>
		<g>
			<path class="st1" d="M15.3,132.2l-2.8-4.5v4.5h-0.9v-6.4h0.9l2.8,4.5v-4.5h0.9v6.4H15.3z"/>
		</g>
		<g>
			<path class="st1" d="M20.6,132.2v-2.9h-2.6v2.9h-1v-6.4h1v2.6h2.6v-2.6h1v6.4H20.6z"/>
		</g>
		<g>
			<path class="st1" d="M25.6,130.6h-2l-0.5,1.6h-1l2-6.4h1l2,6.4h-1L25.6,130.6z M24.6,127l-0.8,2.8h1.6L24.6,127z"/>
		</g>
		<g>
			<path class="st1" d="M31.3,132.2l-2.8-4.5v4.5h-0.9v-6.4h0.9l2.8,4.5v-4.5h0.9v6.4H31.3z"/>
		</g>
		<g>
			<path class="st1" d="M35.7,125.7c0.5,0,1,0.1,1.5,0.3v0.9c-0.5-0.2-0.9-0.3-1.4-0.3c-1.2,0-1.7,0.8-1.7,2.4s0.5,2.4,1.7,2.4
				c0.5,0,1-0.1,1.4-0.3v0.9c-0.5,0.2-1,0.3-1.5,0.3c-1.9,0-2.6-1.2-2.6-3.3S33.8,125.7,35.7,125.7z"/>
		</g>
		<g>
			<path class="st1" d="M41.7,129.3H39v2h2.9v0.9h-3.8v-6.4h3.9v0.9H39v1.8h2.7L41.7,129.3z"/>
		</g>
		<g>
			<path class="st1" d="M44.1,129c0-2,0.7-3.3,2.6-3.3c0.6,0,1.3,0.1,1.8,0.3v1c-0.5-0.2-1.1-0.4-1.7-0.4c-1.3,0-1.8,0.9-1.8,2.4
				s0.5,2.4,1.8,2.4c0.3,0,0.6,0,0.9-0.1v-1.7h-1.1v-0.9h2.1v3.2c-0.6,0.3-1.3,0.4-2,0.4C44.8,132.3,44.1,131,44.1,129z"/>
		</g>
		<g>
			<path class="st1" d="M50.5,131.3h2.8v0.9h-3.7v-6.4h1L50.5,131.3z"/>
		</g>
		<g>
			<path class="st1" d="M53.3,129c0-1.8,0.4-3.3,2.5-3.3s2.5,1.5,2.5,3.3s-0.4,3.3-2.5,3.3S53.3,130.8,53.3,129z M54.3,129
				c0,1.5,0.3,2.4,1.5,2.4s1.5-0.9,1.5-2.4s-0.3-2.4-1.5-2.4S54.3,127.5,54.3,129L54.3,129z"/>
		</g>
		<g>
			<path class="st1" d="M59.1,125.8h2.1c1.5,0,2,0.8,2,1.7c0,0.5-0.3,1-0.8,1.3c0.6,0.2,1.1,0.8,1,1.5c0,1.1-0.5,1.9-2.2,1.9h-2.2
				V125.8z M61.3,126.7h-1.2v1.8h1.2c0.4,0.1,0.9-0.2,0.9-0.7c0-0.1,0-0.1,0-0.2C62.2,127.2,62.1,126.7,61.3,126.7z M60.1,131.3h1.3
				c0.9,0,1.1-0.5,1.1-1s-0.3-1-1.1-1h-1.3V131.3z"/>
		</g>
		<g>
			<path class="st1" d="M67.3,130.6h-2l-0.4,1.6h-1l2-6.4h1l2,6.4h-1L67.3,130.6z M66.3,127l-0.8,2.8h1.6L66.3,127z"/>
		</g>
		<g>
			<path class="st1" d="M70.2,131.3H73v0.9h-3.7v-6.4h0.9V131.3z"/>
		</g>
		<g>
			<path class="st1" d="M10.3,140.3H9.4l-1.6-3.9v4.8h-1v-6.4h1.3l1.7,4.3l1.7-4.3h1.2v6.4h-0.9v-4.8L10.3,140.3z"/>
		</g>
		<g>
			<path class="st1" d="M16.8,139.6h-2l-0.4,1.6h-1l2-6.4h1l2,6.4h-1L16.8,139.6z M15.8,136l-0.8,2.8h1.6L15.8,136z"/>
		</g>
		<g>
			<path class="st1" d="M21.2,134.7c0.5,0,1,0.1,1.5,0.3v0.9c-0.5-0.2-0.9-0.3-1.4-0.3c-1.2,0-1.7,0.8-1.7,2.4s0.5,2.4,1.7,2.4
				c0.5,0,1-0.1,1.4-0.3v0.9c-0.5,0.2-1,0.3-1.5,0.3c-1.9,0-2.6-1.2-2.6-3.3S19.3,134.7,21.2,134.7z"/>
		</g>
		<g>
			<path class="st1" d="M24.5,141.2h-1v-6.4h2.1c1.6,0,2.2,0.7,2.2,1.9c0.1,0.7-0.3,1.4-1,1.7l1.3,2.8H27l-1.2-2.6h-1.3V141.2z
				 M24.5,137.7h1.2c0.9,0,1-0.5,1-1s-0.1-1-1-1h-1.2V137.7z"/>
		</g>
		<g>
			<path class="st1" d="M28.6,138c0-1.8,0.4-3.3,2.5-3.3s2.5,1.5,2.5,3.3s-0.4,3.3-2.5,3.3S28.6,139.8,28.6,138z M29.6,138
				c0,1.5,0.3,2.4,1.5,2.4c1.2,0,1.5-0.9,1.5-2.4s-0.3-2.4-1.5-2.4S29.5,136.5,29.6,138L29.6,138z"/>
		</g>
		<g>
			<path class="st1" d="M37.8,138.3h-2.7v2h2.9v0.9h-3.9v-6.4h3.9v0.9h-2.9v1.8h2.7V138.3z"/>
		</g>
		<g>
			<path class="st1" d="M41.5,134.7c0.5,0,1,0.1,1.5,0.3v0.9c-0.4-0.2-0.9-0.3-1.4-0.3c-1.2,0-1.7,0.8-1.7,2.4s0.5,2.4,1.7,2.4
				c0.5,0,1-0.1,1.4-0.3v0.9c-0.5,0.2-1,0.3-1.5,0.3c-1.9,0-2.6-1.2-2.6-3.3S39.6,134.7,41.5,134.7z"/>
		</g>
		<g>
			<path class="st1" d="M43.6,138c0-1.8,0.4-3.3,2.5-3.3s2.5,1.5,2.5,3.3s-0.4,3.3-2.5,3.3S43.6,139.8,43.6,138z M44.6,138
				c0,1.5,0.3,2.4,1.5,2.4s1.5-0.9,1.5-2.4s-0.3-2.4-1.5-2.4S44.6,136.5,44.6,138L44.6,138z"/>
		</g>
		<g>
			<path class="st1" d="M53,141.2l-2.8-4.5v4.5h-0.9v-6.4h0.9l2.8,4.5v-4.5h1v6.4H53z"/>
		</g>
		<g>
			<path class="st1" d="M54.6,138c0-1.8,0.4-3.3,2.5-3.3s2.5,1.5,2.5,3.3s-0.4,3.3-2.5,3.3S54.6,139.8,54.6,138z M55.6,138
				c0,1.5,0.3,2.4,1.5,2.4s1.5-0.9,1.5-2.4s-0.3-2.4-1.5-2.4S55.5,136.5,55.6,138L55.6,138z"/>
		</g>
		<g>
			<path class="st1" d="M63.6,140.3h-0.9l-1.6-3.9v4.8h-1v-6.4h1.2l1.7,4.3l1.7-4.3H66v6.4h-1v-4.8L63.6,140.3z"/>
		</g>
		<g>
			<path class="st1" d="M67.2,141.2v-6.4h1v6.4H67.2z"/>
		</g>
		<g>
			<path class="st1" d="M71.8,134.7c0.5,0,1,0.1,1.5,0.3v0.9c-0.4-0.2-0.9-0.3-1.4-0.3c-1.2,0-1.7,0.8-1.7,2.4s0.5,2.4,1.7,2.4
				c0.5,0,1-0.1,1.4-0.3v0.9c-0.5,0.2-1,0.3-1.5,0.3c-1.9,0-2.6-1.2-2.6-3.3S69.9,134.7,71.8,134.7z"/>
		</g>
		<g>
			<path class="st1" d="M11.1,148.3c0,1.2-0.7,2-2.4,2c-0.6,0-1.3-0.1-1.9-0.4V149c0.6,0.3,1.2,0.4,1.8,0.4c1.1,0,1.5-0.5,1.5-1.1
				s-0.3-0.9-1.2-1c-1.6-0.2-2.2-0.6-2.2-1.8c0-0.9,0.5-1.8,2.3-1.8c0.6,0,1.2,0.1,1.7,0.3v1c-0.5-0.2-1.1-0.3-1.7-0.3
				c-1,0-1.3,0.4-1.3,1s0.4,0.8,1.2,0.9C10.3,146.7,11.1,147,11.1,148.3z"/>
		</g>
		<g>
			<path class="st1" d="M13.8,144.7v5.5h-1v-5.5h-1.6v-0.9h4.3v0.9H13.8z"/>
		</g>
		<g>
			<path class="st1" d="M18.5,148.6h-2l-0.5,1.6h-1l2-6.4h1l2,6.4h-1L18.5,148.6z M17.5,145l-0.8,2.8h1.6L17.5,145z"/>
		</g>
		<g>
			<path class="st1" d="M20.5,143.8h2.1c1.6,0,2,0.8,2,1.7c0,0.5-0.3,1-0.8,1.3c0.6,0.2,1.1,0.8,1,1.5c0,1.1-0.5,1.9-2.2,1.9h-2.2
				V143.8z M22.7,144.7h-1.2v1.8h1.2c0.8,0,1-0.5,1-0.9S23.5,144.7,22.7,144.7z M21.5,149.3h1.3c0.9,0,1.1-0.5,1.1-1s-0.3-1-1.1-1
				h-1.3L21.5,149.3z"/>
		</g>
		<g>
			<path class="st1" d="M25.8,150.2v-6.4h1v6.4H25.8z"/>
		</g>
		<g>
			<path class="st1" d="M28.8,149.3h2.8v0.9h-3.7v-6.4h1V149.3z"/>
		</g>
		<g>
			<path class="st1" d="M32.2,150.2v-6.4h1v6.4H32.2z"/>
		</g>
		<g>
			<path class="st1" d="M36.4,144.7v5.5h-1v-5.5h-1.7v-0.9h4.3v0.9H36.4z"/>
		</g>
		<g>
			<path class="st1" d="M41.4,147.6v2.6h-1v-2.6l-2.2-3.8h1.1l1.6,3l1.6-3h1.1L41.4,147.6z"/>
		</g>
	</g>
	<g>
		<rect x="3.3" y="24" class="st1" width="94.8" height="94.8"/>
	</g>
	<g>
		<path class="st1" d="M98.2,20.7H3.3V3.3h94.8V20.7z M4.3,19.7h92.8V4.3H4.3L4.3,19.7z"/>
	</g>
	<g class="st2">
		<path class="st1" d="M6.7,6.9h4.5v1.4H9.9v8.8H8.1V8.3H6.7V6.9z"/>
	</g>
	<g class="st2">
		<path class="st1" d="M11.2,17.1l1.9-10.2h1.9L17,17.1h-1.8l-0.3-1.9h-1.8l-0.3,1.9H11.2z M13.3,13.9h1.4L14,9.8h0L13.3,13.9z"/>
	</g>
	<g class="st2">
		<path class="st1" d="M19.6,12.4v4.7h-1.7V6.9h2.5c1.7,0,2.4,0.9,2.4,2.3v1.3c0,1.1-0.4,1.7-1.4,2l1.6,4.6h-1.8L19.6,12.4z
			 M19.6,8.3v3.2h0.6c0.6,0,0.8-0.3,0.8-0.8V9.2c0-0.6-0.3-0.8-0.8-0.8H19.6z"/>
	</g>
	<g class="st2">
		<path class="st1" d="M26.4,11.7h2.4v5.4h-1.2V16c-0.2,0.8-0.7,1.2-1.6,1.2c-1.5,0-2.1-1.2-2.1-2.7V9.6c0-1.6,0.8-2.7,2.6-2.7
			c1.9,0,2.4,1.1,2.4,2.6v0.9h-1.6v-1c0-0.6-0.2-1-0.9-1c-0.6,0-0.9,0.4-0.9,1v5.5c0,0.6,0.3,1,0.8,1c0.6,0,0.8-0.3,0.8-1V13h-0.8
			V11.7z"/>
	</g>
	<g class="st2">
		<path class="st1" d="M30.2,6.9h4.1v1.4h-2.4v2.9h1.7v1.4h-1.7v3.1h2.4v1.4h-4.1V6.9z"/>
	</g>
	<g class="st2">
		<path class="st1" d="M35.1,6.9h4.5v1.4h-1.4v8.8h-1.7V8.3h-1.4V6.9z"/>
	</g>
	<g class="st2">
		<path class="st1" d="M74.3,6.9v10.2h-1.7V9.3h0l-1.2,1.2h0V8.8l1.6-1.8H74.3z"/>
		<path class="st1" d="M75.5,6.9h4.3v1.6l-2.2,8.6h-1.7l2.3-8.8h-2.6V6.9z"/>
	</g>
	<g class="st2">
	</g>
	<g class="st2">
		<path class="st1" d="M82.6,10.8c0.7,0,1.2,0.6,1.2,1.2c0,0.7-0.6,1.2-1.2,1.2c-0.7,0-1.2-0.6-1.2-1.2
			C81.3,11.4,81.9,10.8,82.6,10.8z"/>
	</g>
	<g class="st2">
		<path class="st1" d="M88.2,6.9v10.2h-1.7V9.3h0l-1.2,1.2h0V8.8l1.6-1.8H88.2z"/>
		<path class="st1" d="M94.3,9.1V10c0,0.9-0.5,1.4-1.2,1.7c0.9,0.2,1.3,0.8,1.3,1.7v1.5c0,1.4-0.8,2.3-2.5,2.3c-1.7,0-2.4-1-2.4-2.5
			v-1.3h1.6v1.5c0,0.6,0.2,1,0.8,1c0.5,0,0.8-0.4,0.8-0.9v-1.7c0-0.5-0.2-0.8-0.8-0.8h-0.7v-1.3h0.6c0.6,0,0.9-0.3,0.9-0.8V9.2
			c0-0.6-0.2-0.9-0.7-0.9c-0.5,0-0.7,0.4-0.7,1v1h-1.6V9.4c0-1.5,0.6-2.6,2.4-2.6C93.6,6.8,94.3,7.7,94.3,9.1z"/>
	</g>
	<g>
		<path class="st1" d="M98.2,153.9h-95v-31.7h95V153.9z M4.2,152.9h93v-29.7h-93V152.9z"/>
	</g>
	<g>
		<g>
			<path class="st0" d="M87.7,64.7c-1.3-5.1-3.6-9.9-6.9-14.1l-0.1,0.1c1,1.5,2,3.2,2.8,4.9c9.1,16.5,3,37.3-13.5,46.3
				c-15.1,8.3-34.1,4-44.2-10.1c-10.9-14-8.4-34.3,5.6-45.2c12.2-9.5,29.5-9,41.1,1.3l0.2,0.2c0.4,0.4,1.1,0.4,1.5,0l0.1-0.1l4.1-4
				l0.3-0.3c0.2-0.2,0.3-0.5,0.3-0.7c0-0.3-0.1-0.6-0.3-0.8c0,0-0.1-0.1-0.1-0.1c-16-14.9-41-14.1-55.9,1.9s-14.1,41,1.9,55.9
				c1,1,2.1,1.9,3.2,2.7c15.9,13.1,39.5,10.8,52.5-5.2C87.8,88.3,90.6,76.2,87.7,64.7z"/>
		</g>
		<g>
			<g>
				<g>
					<path class="st0" d="M34.9,71.4c3.5,0,6.3-1.1,6.3-2.4c0,0,0.1-1.2,0-1.5c0-0.2,0-0.3-0.1-0.5c0.4-0.2,0.7-0.6,0.7-1
						c0,0,0.1-1.3,0-1.6c-0.2-1.6-3.4-2.4-6.4-2.4s-6.4,0.9-6.4,2.6c0,0.1,0.1,1.5,0.1,1.5c0,0.1,0,0.2,0.1,0.3
						c-0.5,0.3-0.8,0.8-0.8,1.3c0,0.1,0.1,1.5,0.1,1.5c0,0.4,0.2,0.7,0.5,0.9c1,0.7,2.2,1.1,3.4,1.2C33.2,71.3,34,71.4,34.9,71.4z
						 M35.5,62.6c3.4,0,5.8,1,5.8,1.9s-2.4,1.9-5.8,1.9s-5.7-1-5.7-1.9S32.1,62.6,35.5,62.6z M29.1,67.6c0.1-0.3,0.2-0.6,0.5-0.7
						c0.2,0.2,0.4,0.3,0.6,0.5c1.7,0.7,3.5,1.1,5.3,1c1.5,0,3-0.2,4.5-0.7c0.2-0.1,0.4-0.2,0.5-0.2c0,0,0,0.1,0,0.2
						c0,0.9-2.4,1.9-5.8,1.9S29.1,68.4,29.1,67.6L29.1,67.6z"/>
				</g>
				<g>
					<path class="st0" d="M41.9,70.1c0-0.1-0.1-0.2-0.2-0.3l-0.2-0.1l-0.3-0.1c-0.1,0.1-0.2,0.3-0.3,0.4c0.1,0,0.2,0.1,0.2,0.1
						c0.2,0.1,0.3,0.3,0.3,0.5c0,0.2-0.1,0.3-0.2,0.4c-0.1,0.1-0.2,0.1-0.2,0.2l-0.4,0.2c0,0-0.4,0.2-0.6,0.2l-0.6,0.2l-0.8,0.2
						l-1,0.2l-1,0.1l-1.5,0.1c-0.7,0-1.3-0.1-2-0.2c-0.5-0.1-1-0.2-1.4-0.3c-0.5-0.1-1-0.3-1.5-0.5c-0.3-0.1-0.6-0.3-0.8-0.5
						c-0.2-0.2-0.4-0.4-0.5-0.7V71v0.8c0,0.4,0.2,0.7,0.5,0.9c1,0.7,2.2,1.1,3.4,1.2c0.8,0.1,1.6,0.2,2.5,0.2c1.2,0,2.4-0.1,3.5-0.4
						l0,0c0.6-0.1,1.2-0.4,1.8-0.7l0,0c0.1-0.1,0.3-0.2,0.4-0.3c0.2-0.2,0.4-0.4,0.5-0.6c0-0.1,0.1-0.2,0.1-0.3c0,0,0-1.3,0-1.4
						C41.8,70.3,41.9,70.2,41.9,70.1z"/>
				</g>
				<g>
					<path class="st0" d="M41.1,75.7c-0.4,0.3-0.9,0.5-1.4,0.6c-1.4,0.4-2.9,0.6-4.3,0.5c-0.7,0-1.4-0.1-2.2-0.2
						c-0.4-0.1-0.8-0.1-1.3-0.3c-0.2-0.1-0.4-0.1-0.6-0.2c-0.6-0.2-1.2-0.5-1.7-0.8c-0.2-0.1-0.4-0.3-0.5-0.5v0.6c0,0.2,0,0.8,0,0.8
						c0,0.4,0.2,0.7,0.5,0.9c1,0.7,2.2,1.1,3.4,1.2c0.8,0.1,1.6,0.2,2.5,0.2c1.2,0,2.4-0.1,3.5-0.4l0,0c0.6-0.2,1.2-0.4,1.8-0.7l0,0
						c0.6-0.4,0.9-0.8,0.9-1.2c0,0,0-1.3,0-1.4C41.6,75.2,41.4,75.5,41.1,75.7z"/>
				</g>
				<g>
					<path class="st0" d="M29.6,75c1,0.7,2.2,1.1,3.4,1.2c0.8,0.1,1.6,0.2,2.5,0.2c1.2,0,2.4-0.1,3.5-0.4l0,0
						c0.6-0.1,1.2-0.4,1.8-0.7l0,0c0.1-0.1,0.3-0.2,0.4-0.3c0.2-0.2,0.4-0.4,0.5-0.6c0-0.1,0.1-0.2,0.1-0.3c0,0,0-1.3,0-1.4
						c-0.2,0.3-0.8,1.1-3.3,1.6c-1.1,0.2-2.2,0.3-3.2,0.3c-1.7,0-3.5-0.3-5.1-1c-0.3-0.2-0.6-0.3-0.8-0.6c-0.1-0.1-0.3-0.3-0.4-0.5
						c0,0,0,0.6,0,0.6v0.9C29,74.5,29.3,74.8,29.6,75z"/>
				</g>
				<g>
					<path class="st0" d="M41.9,79.5c-0.2,0.3-0.5,0.5-0.8,0.7c-0.4,0.3-0.9,0.5-1.4,0.6c-1.4,0.4-2.9,0.6-4.3,0.5
						c-0.7,0-1.4-0.1-2.2-0.2c-0.4,0-0.9-0.1-1.3-0.2l-0.6-0.2c-0.6-0.2-1.2-0.5-1.7-0.8c-0.2-0.1-0.3-0.3-0.5-0.5V80
						c0,0.2,0,0.8,0,0.8c0,0.4,0.2,0.7,0.5,0.9c1,0.7,2.2,1.1,3.4,1.2c0.8,0.1,1.6,0.2,2.5,0.2c1.2,0,2.4-0.1,3.5-0.4l0,0
						c0.6-0.1,1.2-0.4,1.8-0.7l0,0c0.6-0.4,0.9-0.8,0.9-1.2C41.9,80.9,42,79.6,41.9,79.5z"/>
				</g>
				<g>
					<path class="st0" d="M33,80.8c0.8,0.1,1.6,0.2,2.5,0.2c1.2,0,2.4-0.1,3.6-0.4l0,0c0.6-0.2,1.2-0.4,1.8-0.7l0,0
						c0.1-0.1,0.3-0.2,0.4-0.3c0.2-0.2,0.4-0.4,0.5-0.6c0-0.1,0.1-0.2,0.1-0.3c0,0,0-1.3,0-1.4c-0.2,0.3-0.8,1.1-3.3,1.6
						c-1.1,0.2-2.1,0.3-3.2,0.3c-1.7,0-3.5-0.3-5.1-1c-0.3-0.2-0.6-0.3-0.8-0.6c-0.1-0.1-0.3-0.3-0.4-0.5c0,0,0,0.6,0,0.6v0.9
						c0,0.4,0.2,0.7,0.5,0.9C30.5,80.3,31.7,80.7,33,80.8z"/>
				</g>
			</g>
			<g>
				<g>
					<path class="st0" d="M51.1,71.5c3.5,0,6.3-1,6.3-2.3c0,0,0.1-1.2,0-1.5c0-0.2,0-0.3-0.1-0.5c0.4-0.2,0.7-0.6,0.7-1.1
						c0,0,0-1.3,0-1.6c-0.1-1.6-3.3-2.5-6.4-2.5s-6.4,0.9-6.4,2.6c0,0.1,0.1,1.5,0.1,1.5c0,0.1,0,0.2,0.1,0.3
						c-0.5,0.3-0.8,0.8-0.8,1.3c0,0.1,0.1,1.5,0.1,1.5c0,0.4,0.2,0.7,0.5,0.9c1,0.7,2.2,1.1,3.4,1.3C49.4,71.4,50.2,71.5,51.1,71.5z
						 M51.7,62.7c3.4,0,5.7,1,5.7,1.9s-2.3,1.9-5.7,1.9s-5.7-1-5.7-1.9S48.3,62.7,51.7,62.7z M45.3,67.7c0-0.3,0.2-0.6,0.5-0.7
						c0.2,0.2,0.4,0.3,0.6,0.5c1.7,0.7,3.5,1.1,5.3,1c1.5,0,3-0.2,4.5-0.7c0.2-0.1,0.4-0.2,0.5-0.2c0,0.1,0,0.1,0,0.2
						c0,0.9-2.3,1.9-5.7,1.9S45.3,68.6,45.3,67.7L45.3,67.7z"/>
				</g>
				<g>
					<path class="st0" d="M58.1,70.2c0-0.1-0.1-0.2-0.2-0.2l-0.2-0.1c-0.1-0.1-0.2-0.1-0.3-0.2c-0.1,0.1-0.2,0.3-0.3,0.4
						c0.1,0,0.2,0.1,0.2,0.1c0.2,0.1,0.3,0.3,0.3,0.5c0,0.2-0.1,0.3-0.2,0.4c-0.1,0.1-0.2,0.1-0.2,0.2l-0.4,0.2c0,0-0.4,0.2-0.6,0.2
						l-0.6,0.2L55,72.1c0,0-0.7,0.1-1,0.2l-1,0.1l-1.5,0.1c-0.7,0-1.3-0.1-2-0.2c-0.5-0.1-1-0.2-1.4-0.3c-0.5-0.1-1-0.3-1.5-0.5
						c-0.3-0.1-0.6-0.3-0.8-0.5c-0.2-0.2-0.4-0.4-0.5-0.7v0.8v0.8c0,0.4,0.2,0.7,0.5,0.9c1,0.7,2.2,1.1,3.4,1.3
						c0.8,0.1,1.6,0.2,2.5,0.2c1.2,0,2.4-0.1,3.6-0.4l0,0c0.6-0.2,1.2-0.4,1.8-0.7l0,0c0.1-0.1,0.3-0.2,0.4-0.3
						c0.2-0.2,0.4-0.4,0.5-0.6c0-0.1,0.1-0.2,0.1-0.3c0,0,0.1-1.3,0.1-1.4C58,70.4,58.1,70.3,58.1,70.2z"/>
				</g>
				<g>
					<path class="st0" d="M57.3,75.8c-0.4,0.3-0.9,0.5-1.4,0.6c-1.4,0.4-2.9,0.6-4.3,0.5c-0.7,0-1.4-0.1-2.2-0.2
						c-0.4-0.1-0.9-0.1-1.3-0.2c-0.2,0-0.4-0.1-0.6-0.2c-0.6-0.2-1.2-0.4-1.7-0.8c-0.2-0.1-0.3-0.3-0.5-0.5v0.6c0,0.2,0,0.8,0,0.8
						c0,0.4,0.2,0.7,0.5,0.9c1,0.7,2.2,1.1,3.4,1.2c0.8,0.1,1.6,0.2,2.5,0.2c1.2,0,2.4-0.1,3.6-0.4l0,0c0.6-0.1,1.2-0.4,1.8-0.7l0,0
						c0.6-0.4,0.9-0.8,0.9-1.2c0,0,0-1.3,0-1.4C57.8,75.3,57.6,75.6,57.3,75.8z"/>
				</g>
				<g>
					<path class="st0" d="M45.8,75.1c1,0.7,2.2,1.1,3.4,1.3c0.8,0.1,1.6,0.2,2.5,0.2c1.2,0,2.4-0.1,3.5-0.4l0,0
						c0.6-0.2,1.2-0.4,1.8-0.7l0,0c0.1-0.1,0.3-0.2,0.4-0.3c0.2-0.2,0.4-0.4,0.5-0.6c0-0.1,0.1-0.2,0.1-0.3c0,0,0-1.3,0-1.4
						c-0.2,0.3-0.8,1.1-3.3,1.6c-1.1,0.2-2.2,0.3-3.2,0.3c-1.7,0-3.5-0.3-5.1-1c-0.3-0.2-0.6-0.3-0.8-0.6c-0.1-0.1-0.3-0.3-0.4-0.5
						c0,0,0,0.6,0,0.6v0.9C45.3,74.6,45.5,74.9,45.8,75.1z"/>
				</g>
				<g>
					<path class="st0" d="M58.1,79.6c-0.2,0.3-0.5,0.5-0.8,0.7c-0.4,0.3-0.9,0.5-1.4,0.7c-1.4,0.4-2.9,0.6-4.3,0.5
						c-0.7,0-1.4-0.1-2.2-0.2c-0.4-0.1-0.9-0.1-1.3-0.2c-0.2,0-0.4-0.1-0.6-0.2c-0.6-0.2-1.2-0.5-1.7-0.8c-0.2-0.1-0.4-0.3-0.5-0.5
						v0.6c0,0.2,0,0.8,0,0.8c0,0.4,0.2,0.7,0.5,0.9c1,0.7,2.2,1.1,3.4,1.2c0.8,0.1,1.6,0.2,2.5,0.2c1.2,0,2.4-0.1,3.6-0.4l0,0
						c0.6-0.2,1.2-0.4,1.8-0.7l0,0c0.6-0.4,0.9-0.8,0.9-1.2C58.1,81,58.1,79.7,58.1,79.6z"/>
				</g>
				<g>
					<path class="st0" d="M49.2,80.9c0.8,0.1,1.6,0.2,2.5,0.2c1.2,0,2.4-0.1,3.6-0.4l0,0c0.6-0.1,1.2-0.4,1.8-0.7l0,0
						c0.1-0.1,0.3-0.2,0.4-0.3c0.2-0.2,0.4-0.4,0.5-0.6c0-0.1,0.1-0.2,0.1-0.3c0,0,0-1.3,0-1.4c-0.2,0.3-0.8,1.1-3.3,1.6
						c-1.1,0.2-2.2,0.3-3.2,0.3c-1.7,0-3.5-0.3-5.1-1c-0.3-0.2-0.6-0.3-0.8-0.6c-0.1-0.1-0.3-0.3-0.4-0.5c0,0,0,0.6,0,0.6v0.9
						c0,0.4,0.2,0.7,0.5,0.9C46.8,80.4,48,80.8,49.2,80.9z"/>
				</g>
			</g>
			<g>
				<g>
					<path class="st0" d="M67.3,71.4c3.5,0,6.3-1.1,6.3-2.4c0,0,0.1-1.2,0-1.5c0-0.2,0-0.3-0.1-0.5c0.4-0.2,0.7-0.6,0.8-1.1
						c0,0,0.1-1.3,0-1.6C74.2,62.8,71,62,68,62s-6.4,0.9-6.4,2.6c0,0.1,0.1,1.5,0.1,1.5c0,0.1,0,0.2,0.1,0.3
						c-0.5,0.3-0.8,0.7-0.8,1.3c0,0.1,0.1,1.5,0.1,1.5c0,0.4,0.2,0.7,0.5,0.9c1,0.7,2.2,1.1,3.4,1.2C65.7,71.4,66.5,71.4,67.3,71.4z
						 M68,62.6c3.4,0,5.8,1,5.8,1.9c0,0.9-2.4,1.9-5.8,1.9s-5.7-1-5.7-1.9S64.6,62.6,68,62.6z M61.6,67.6c0.1-0.3,0.2-0.6,0.5-0.7
						c0.2,0.2,0.4,0.3,0.6,0.5c1.7,0.7,3.5,1.1,5.3,1c1.5,0,3-0.2,4.5-0.7c0.2-0.1,0.4-0.2,0.6-0.2c0,0,0,0.1,0,0.2
						c0,0.9-2.3,1.9-5.7,1.9S61.6,68.5,61.6,67.6L61.6,67.6z"/>
				</g>
				<g>
					<path class="st0" d="M74.3,70.1c0-0.1-0.1-0.2-0.2-0.2c-0.1-0.1-0.2-0.1-0.2-0.2l-0.3-0.1c-0.1,0.1-0.2,0.3-0.3,0.4
						c0.1,0,0.2,0.1,0.2,0.1c0.2,0.1,0.3,0.3,0.3,0.5c0,0.2-0.1,0.3-0.2,0.4c-0.1,0.1-0.2,0.1-0.2,0.2l-0.4,0.2l-0.6,0.2
						c0,0-0.4,0.1-0.6,0.2L71.3,72l-1,0.2l-1,0.1c-0.1,0-1,0.1-1.5,0.1c-0.7,0-1.3,0-2-0.2c-0.5-0.1-1-0.2-1.4-0.3
						c-0.5-0.1-1-0.3-1.5-0.5c-0.3-0.1-0.6-0.3-0.8-0.5c-0.2-0.2-0.4-0.4-0.5-0.7V71v0.8c0,0.4,0.2,0.7,0.5,0.9
						c1,0.7,2.2,1.1,3.4,1.3c0.8,0.1,1.6,0.2,2.5,0.2c1.2,0,2.4-0.1,3.6-0.4l0,0c0.6-0.1,1.2-0.4,1.8-0.7l0,0
						c0.1-0.1,0.3-0.2,0.4-0.3c0.2-0.2,0.4-0.4,0.5-0.6c0-0.1,0.1-0.2,0.1-0.3c0,0,0.1-1.3,0.1-1.4C74.3,70.4,74.3,70.2,74.3,70.1z"
						/>
				</g>
				<g>
					<path class="st0" d="M73.6,75.7c-0.4,0.3-0.9,0.5-1.4,0.6c-1.4,0.4-2.9,0.6-4.3,0.5c-0.7,0-1.4-0.1-2.2-0.2
						c-0.4-0.1-0.9-0.1-1.3-0.2c-0.2,0-0.4-0.1-0.6-0.2c-0.6-0.2-1.2-0.4-1.7-0.8c-0.2-0.1-0.3-0.3-0.5-0.5v0.6c0,0.2,0,0.8,0,0.8
						c0,0.4,0.2,0.7,0.5,0.9c1,0.7,2.2,1.1,3.4,1.3c0.8,0.1,1.6,0.2,2.5,0.2c1.2,0,2.4-0.1,3.6-0.4l0,0c0.6-0.2,1.2-0.4,1.8-0.7l0,0
						c0.6-0.3,0.9-0.8,0.9-1.2c0,0,0-1.3,0-1.4C74,75.3,73.8,75.5,73.6,75.7z"/>
				</g>
				<g>
					<path class="st0" d="M62.1,75c1,0.7,2.2,1.1,3.4,1.2c0.8,0.1,1.6,0.2,2.5,0.2c1.2,0,2.4-0.1,3.6-0.4l0,0
						c0.6-0.1,1.2-0.4,1.8-0.7l0,0c0.1-0.1,0.3-0.2,0.4-0.3c0.2-0.2,0.4-0.4,0.5-0.6c0-0.1,0.1-0.2,0.1-0.3c0,0,0-1.3,0-1.4
						C74,73,73.5,73.8,71,74.3c-1.1,0.2-2.2,0.3-3.2,0.3c-1.7,0-3.5-0.3-5.1-1c-0.3-0.2-0.6-0.3-0.8-0.6c-0.1-0.1-0.3-0.3-0.4-0.5
						c0,0,0,0.6,0,0.6v0.9C61.5,74.5,61.7,74.8,62.1,75z"/>
				</g>
				<g>
					<path class="st0" d="M74.4,79.5c-0.2,0.3-0.5,0.5-0.8,0.7c-0.4,0.3-0.9,0.5-1.4,0.6c-1.4,0.4-2.9,0.6-4.3,0.5
						c-0.7,0-1.4-0.1-2.2-0.2c-0.5-0.1-0.9-0.2-1.3-0.2l-0.6-0.2c-0.6-0.2-1.2-0.5-1.7-0.8c-0.2-0.1-0.4-0.3-0.5-0.5v0.6
						c0,0.2,0,0.8,0,0.8c0,0.4,0.2,0.7,0.5,0.9c1,0.7,2.2,1.1,3.4,1.2c0.8,0.1,1.7,0.2,2.5,0.2c1.2,0,2.4-0.1,3.6-0.4l0,0
						c0.6-0.1,1.2-0.4,1.8-0.7l0,0c0.6-0.4,0.9-0.8,0.9-1.2C74.3,80.9,74.4,79.6,74.4,79.5z"/>
				</g>
				<g>
					<path class="st0" d="M65.5,80.8C66.3,81,67.2,81,68,81c1.2,0,2.4-0.1,3.6-0.4l0,0c0.6-0.1,1.2-0.4,1.8-0.7l0,0
						c0.1-0.1,0.3-0.2,0.4-0.3c0.2-0.2,0.4-0.4,0.5-0.6c0-0.1,0.1-0.2,0.1-0.3c0,0,0-1.3,0-1.4c-0.2,0.3-0.8,1.1-3.3,1.6
						c-1.1,0.2-2.2,0.3-3.2,0.3c-1.7,0-3.5-0.3-5.1-1c-0.3-0.1-0.6-0.3-0.8-0.5c-0.1-0.1-0.3-0.3-0.4-0.5c0,0,0,0.6,0,0.6v0.9
						c0,0.4,0.2,0.7,0.5,0.9C63.1,80.3,64.2,80.7,65.5,80.8z"/>
				</g>
			</g>
		</g>
	</g>
</g>
</svg>
