<?xml version="1.0" encoding="utf-8"?>
<!-- Generator: Adobe Illustrator 22.0.1, SVG Export Plug-In . SVG Version: 6.00 Build 0)  -->
<svg version="1.1" id="Layer_1" xmlns="http://www.w3.org/2000/svg" xmlns:xlink="http://www.w3.org/1999/xlink" x="0px" y="0px"
	 viewBox="0 0 101.5 157.2" style="enable-background:new 0 0 101.5 157.2;" xml:space="preserve">
<style type="text/css">
	.st0{fill:#FFFFFF;}
	.st1{fill:#19486A;}
	.st2{enable-background:new    ;}
</style>
<title>TARGET 1.1</title>
<g id="WHITE_BG">
	<g>
		<rect y="0" class="st0" width="101.5" height="157.2"/>
	</g>
</g>
<g id="TARGETS">
	<g>
		<g>
			<path class="st1" d="M10.3,131.3H9.4l-1.6-3.9v4.8h-1v-6.4h1.3l1.7,4.3l1.7-4.3h1.2v6.4h-0.9v-4.8L10.3,131.3z"/>
		</g>
		<g>
			<path class="st1" d="M13.5,129c0-1.8,0.4-3.3,2.4-3.3s2.5,1.5,2.5,3.3s-0.4,3.3-2.4,3.3S13.5,130.8,13.5,129z M14.5,129
				c0,1.5,0.3,2.4,1.5,2.4s1.5-0.9,1.5-2.4s-0.3-2.4-1.5-2.4S14.5,127.5,14.5,129L14.5,129z"/>
		</g>
		<g>
			<path class="st1" d="M19.2,125.8h2.1c1.6,0,2,0.8,2,1.8c0,0.5-0.3,1-0.8,1.3c0.6,0.2,1.1,0.8,1,1.5c0,1-0.5,1.9-2.2,1.9h-2.2
				V125.8z M21.4,126.7h-1.2v1.8h1.2c0.8,0,0.9-0.5,0.9-0.9S22.2,126.7,21.4,126.7z M20.1,131.3h1.3c0.9,0,1.1-0.5,1.1-1
				s-0.3-1-1.1-1h-1.3L20.1,131.3z"/>
		</g>
		<g>
			<path class="st1" d="M24.4,132.2v-6.4h1v6.4H24.4z"/>
		</g>
		<g>
			<path class="st1" d="M27.4,131.3h2.8v0.9h-3.7v-6.4h1L27.4,131.3z"/>
		</g>
		<g>
			<path class="st1" d="M30.9,132.2v-6.4h1v6.4H30.9z"/>
		</g>
		<g>
			<path class="st1" d="M32.7,132.2v-0.6l3.3-4.8h-3v-0.9h4.3v0.6l-3.3,4.8h3.4v0.9L32.7,132.2z"/>
		</g>
		<g>
			<path class="st1" d="M41.7,129.3H39v2h3v0.9h-3.9v-6.4H42v0.9h-3v1.8h2.7L41.7,129.3z"/>
		</g>
		<g>
			<path class="st1" d="M45.1,132.2h-1v-6.4h2.1c1.7,0,2.2,0.7,2.2,1.9c0.1,0.7-0.3,1.4-1,1.7l1.3,2.8h-1.1l-1.2-2.6h-1.3V132.2z
				 M45.1,128.7h1.3c0.9,0,1-0.5,1-1s-0.1-1-1-1h-1.3V128.7z"/>
		</g>
		<g>
			<path class="st1" d="M53,129.3h-2.7v2h2.9v0.9h-3.9v-6.4h3.9v0.9h-2.9v1.8H53V129.3z"/>
		</g>
		<g>
			<path class="st1" d="M58.2,130.3c0,1.2-0.7,2-2.4,2c-0.6,0-1.3-0.1-1.9-0.4v-1c0.6,0.3,1.2,0.4,1.8,0.4c1.2,0,1.5-0.5,1.5-1.1
				s-0.3-0.9-1.2-1c-1.5-0.2-2.2-0.6-2.2-1.8c0-0.9,0.5-1.8,2.3-1.8c0.6,0,1.2,0.1,1.7,0.3v1c-0.5-0.2-1.1-0.3-1.7-0.3
				c-1,0-1.3,0.4-1.3,1s0.4,0.8,1.2,0.9C57.5,128.7,58.2,129,58.2,130.3z"/>
		</g>
		<g>
			<path class="st1" d="M58.8,129c0-1.8,0.4-3.3,2.5-3.3s2.5,1.5,2.5,3.3s-0.4,3.3-2.5,3.3S58.8,130.8,58.8,129z M59.8,129
				c0,1.5,0.3,2.4,1.5,2.4s1.5-0.9,1.5-2.4s-0.3-2.4-1.5-2.4S59.8,127.5,59.8,129L59.8,129z"/>
		</g>
		<g>
			<path class="st1" d="M64.6,130.2v-4.4h1v4.3c0,0.8,0.6,1.4,1.4,1.4s1.4-0.6,1.4-1.4v-4.3h1v4.4c-0.1,1.3-1.2,2.2-2.5,2.1
				C65.7,132.2,64.8,131.3,64.6,130.2L64.6,130.2z"/>
		</g>
		<g>
			<path class="st1" d="M71.1,132.2h-1v-6.4h2.1c1.7,0,2.2,0.7,2.2,1.9c0.1,0.7-0.3,1.4-1,1.7l1.3,2.8h-1.1l-1.2-2.6h-1.3V132.2z
				 M71.1,128.7h1.2c0.9,0,1-0.5,1-1s-0.1-1-1-1h-1.2V128.7z"/>
		</g>
		<g>
			<path class="st1" d="M77.7,125.7c0.5,0,1,0.1,1.5,0.3v0.9c-0.5-0.2-0.9-0.3-1.4-0.3c-1.2,0-1.7,0.8-1.7,2.4
				c0,1.6,0.5,2.4,1.7,2.4c0.5,0,1-0.1,1.4-0.3v0.9c-0.5,0.2-1,0.3-1.5,0.3c-1.9,0-2.6-1.2-2.6-3.3S75.8,125.7,77.7,125.7z"/>
		</g>
		<g>
			<path class="st1" d="M83.7,129.3H81v2h3v0.9h-3.9v-6.4H84v0.9h-3v1.8h2.7L83.7,129.3z"/>
		</g>
		<g>
			<path class="st1" d="M89,130.3c0,1.2-0.7,2-2.4,2c-0.6,0-1.3-0.1-1.9-0.4v-1c0.6,0.3,1.2,0.4,1.8,0.4c1.2,0,1.5-0.5,1.5-1.1
				s-0.3-0.9-1.2-1c-1.6-0.2-2.2-0.6-2.2-1.8c0-0.9,0.5-1.8,2.3-1.8c0.6,0,1.2,0.1,1.7,0.3v1c-0.5-0.2-1.1-0.3-1.7-0.3
				c-1,0-1.3,0.4-1.3,1s0.4,0.8,1.2,0.9C88.2,128.7,89,129,89,130.3z"/>
		</g>
		<g>
			<path class="st1" d="M9.2,135.7v5.5h-1v-5.5H6.6v-0.9h4.3v0.9H9.2z"/>
		</g>
		<g>
			<path class="st1" d="M11.1,138c0-1.8,0.4-3.3,2.5-3.3s2.5,1.5,2.5,3.3s-0.4,3.3-2.4,3.3S11.1,139.8,11.1,138z M12.1,138
				c0,1.5,0.3,2.4,1.5,2.4s1.5-0.9,1.5-2.4s-0.3-2.4-1.5-2.4S12,136.5,12.1,138L12.1,138z"/>
		</g>
		<g>
			<path class="st1" d="M18.3,141.2v-6.4h1v6.4H18.3z"/>
		</g>
		<g>
			<path class="st1" d="M23.8,140.3h-0.9l-1.6-3.9v4.8h-1v-6.4h1.3l1.7,4.4l1.7-4.4h1.2v6.4h-1l0-4.8L23.8,140.3z"/>
		</g>
		<g>
			<path class="st1" d="M28.2,141.2h-1v-6.4h2c1.6,0,2.2,1,2.2,2s-0.6,2-2.2,2h-1.1L28.2,141.2z M28.2,137.9h1.1
				c0.6,0,1.1-0.5,1.1-1.1c0-0.6-0.5-1.1-1.1-1.1h-1.1V137.9z"/>
		</g>
		<g>
			<path class="st1" d="M32.9,141.2H32v-6.4h2c1.7,0,2.2,0.7,2.2,1.9c0.1,0.7-0.3,1.4-1,1.7l1.3,2.8h-1.1l-1.2-2.6h-1.3V141.2z
				 M32.9,137.7h1.3c0.9,0,1-0.5,1-1s-0.1-1-1-1h-1.3V137.7z"/>
		</g>
		<g>
			<path class="st1" d="M36.9,138c0-1.8,0.4-3.3,2.5-3.3s2.5,1.5,2.5,3.3s-0.4,3.3-2.5,3.3S36.9,139.8,36.9,138z M37.9,138
				c0,1.5,0.3,2.4,1.5,2.4s1.5-0.9,1.5-2.4s-0.3-2.4-1.5-2.4S37.9,136.5,37.9,138L37.9,138z"/>
		</g>
		<g>
			<path class="st1" d="M47.1,134.8l-2,6.5h-1l-2-6.5h1l1.5,5.2l1.5-5.2L47.1,134.8z"/>
		</g>
		<g>
			<path class="st1" d="M51.2,138.3h-2.7v2h2.9v0.9h-3.9v-6.4h3.9v0.9h-2.9v1.8h2.7V138.3z"/>
		</g>
		<g>
			<path class="st1" d="M53.7,141.2v-6.4h1.9c2.1,0,2.7,1.4,2.7,3.2s-0.6,3.2-2.7,3.2H53.7z M54.7,140.3h1c1.3,0,1.7-0.9,1.7-2.3
				s-0.4-2.3-1.7-2.3h-1V140.3z"/>
		</g>
		<g>
			<path class="st1" d="M58.9,138c0-1.8,0.4-3.3,2.5-3.3s2.5,1.5,2.5,3.3s-0.4,3.3-2.5,3.3S58.9,139.8,58.9,138z M59.9,138
				c0,1.5,0.3,2.4,1.5,2.4s1.5-0.9,1.5-2.4s-0.3-2.4-1.5-2.4S59.9,136.5,59.9,138L59.9,138z"/>
		</g>
		<g>
			<path class="st1" d="M68,140.3h-0.9l-1.6-3.9v4.8h-1v-6.4h1.2l1.7,4.4l1.7-4.4h1.2v6.4h-0.9v-4.8L68,140.3z"/>
		</g>
		<g>
			<path class="st1" d="M75.1,138.3h-2.7v2h2.9v0.9h-3.9v-6.4h3.9v0.9h-2.9v1.8h2.7V138.3z"/>
		</g>
		<g>
			<path class="st1" d="M80.2,139.3c0,1.2-0.7,2-2.4,2c-0.6,0-1.3-0.1-1.9-0.3v-1c0.6,0.3,1.2,0.4,1.8,0.4c1.2,0,1.5-0.5,1.5-1.1
				s-0.3-0.9-1.2-1c-1.6-0.2-2.2-0.6-2.2-1.8c0-0.9,0.5-1.9,2.3-1.9c0.6,0,1.2,0.1,1.7,0.3v1c-0.5-0.2-1.1-0.3-1.7-0.3
				c-1,0-1.3,0.4-1.3,1s0.4,0.8,1.2,0.9C79.4,137.7,80.2,138,80.2,139.3z"/>
		</g>
		<g>
			<path class="st1" d="M83,135.7v5.5h-1v-5.5h-1.7v-0.9h4.3v0.9H83z"/>
		</g>
		<g>
			<path class="st1" d="M85.4,141.2v-6.4h1v6.4H85.4z"/>
		</g>
		<g>
			<path class="st1" d="M89.9,134.7c0.5,0,1,0.1,1.5,0.3v0.9c-0.5-0.2-0.9-0.3-1.4-0.3c-1.2,0-1.7,0.8-1.7,2.4s0.5,2.4,1.7,2.4
				c0.5,0,1-0.1,1.4-0.3v0.9c-0.5,0.2-1,0.3-1.5,0.3c-1.9,0-2.6-1.2-2.6-3.3S88,134.7,89.9,134.7z"/>
		</g>
		<g>
			<path class="st1" d="M7.8,150.2h-1v-6.4H9c1.6,0,2.2,0.7,2.2,1.9c0.1,0.7-0.3,1.4-1,1.7l1.3,2.8h-1.2l-1.1-2.6H7.8V150.2z
				 M7.8,146.7h1.3c0.9,0,1-0.5,1-1s-0.1-1-1-1H7.8V146.7z"/>
		</g>
		<g>
			<path class="st1" d="M15.7,147.3H13v2h3v0.9h-3.9v-6.4H16v0.9h-3v1.8h2.7L15.7,147.3z"/>
		</g>
		<g>
			<path class="st1" d="M21.4,143.8l-2,6.5h-1l-2-6.5h1l1.5,5.2l1.5-5.2L21.4,143.8z"/>
		</g>
		<g>
			<path class="st1" d="M25.5,147.3h-2.6v2h2.9v0.9h-3.9v-6.4h3.9v0.9h-2.9v1.8h2.6V147.3z"/>
		</g>
		<g>
			<path class="st1" d="M30.3,150.2l-2.8-4.5v4.5h-0.9v-6.4h0.9l2.8,4.5v-4.5h0.9v6.4H30.3z"/>
		</g>
		<g>
			<path class="st1" d="M32.1,148.2v-4.4h1v4.3c-0.1,0.6,0.4,1.2,1,1.3c0.1,0,0.2,0,0.3,0c0.6,0.1,1.3-0.3,1.4-1c0-0.1,0-0.2,0-0.3
				v-4.3h1v4.4c0,1.1-0.8,2.1-2,2.1c-0.1,0-0.2,0-0.3,0c-1.1,0.2-2.2-0.5-2.4-1.7C32.1,148.5,32.1,148.4,32.1,148.2z"/>
		</g>
		<g>
			<path class="st1" d="M41.2,147.3h-2.7v2h2.9v0.9h-3.9v-6.4h3.9v0.9h-2.9v1.8h2.7V147.3z"/>
		</g>
		<g>
			<path class="st1" d="M46.2,143.7c0.5,0,1,0.1,1.5,0.3v0.9c-0.5-0.2-0.9-0.3-1.4-0.3c-1.2,0-1.7,0.8-1.7,2.4s0.5,2.4,1.7,2.4
				c0.5,0,1-0.1,1.4-0.3v0.9c-0.5,0.2-1,0.3-1.5,0.3c-1.9,0-2.6-1.2-2.6-3.3S44.3,143.7,46.2,143.7z"/>
		</g>
		<g>
			<path class="st1" d="M48.3,147c0-1.8,0.4-3.3,2.5-3.3s2.5,1.5,2.5,3.3s-0.4,3.3-2.5,3.3S48.3,148.8,48.3,147z M49.3,147
				c0,1.5,0.3,2.4,1.5,2.4s1.5-0.9,1.5-2.4s-0.3-2.4-1.5-2.4S49.3,145.5,49.3,147L49.3,147z"/>
		</g>
		<g>
			<path class="st1" d="M54.9,149.3h2.8v0.9H54v-6.4h1L54.9,149.3z"/>
		</g>
		<g>
			<path class="st1" d="M59.2,149.3h2.8v0.9h-3.7v-6.4h1V149.3z"/>
		</g>
		<g>
			<path class="st1" d="M66,147.3h-2.6v2h2.9v0.9h-3.9v-6.4h3.9v0.9h-2.9v1.8H66V147.3z"/>
		</g>
		<g>
			<path class="st1" d="M69.6,143.7c0.5,0,1,0.1,1.5,0.3v0.9c-0.5-0.2-0.9-0.3-1.4-0.3c-1.2,0-1.7,0.8-1.7,2.4s0.5,2.4,1.7,2.4
				c0.5,0,1-0.1,1.4-0.3v0.9c-0.5,0.2-1,0.3-1.5,0.3c-1.9,0-2.6-1.2-2.6-3.3S67.7,143.7,69.6,143.7z"/>
		</g>
		<g>
			<path class="st1" d="M74,144.7v5.5h-1v-5.5h-1.6v-0.9h4.3v0.9H74z"/>
		</g>
		<g>
			<path class="st1" d="M76.3,150.2v-6.4h1v6.4H76.3z"/>
		</g>
		<g>
			<path class="st1" d="M78.3,147c0-1.8,0.4-3.3,2.5-3.3s2.4,1.5,2.4,3.3s-0.4,3.3-2.4,3.3S78.3,148.8,78.3,147z M79.3,147
				c0,1.5,0.3,2.4,1.5,2.4s1.5-0.9,1.5-2.4s-0.3-2.4-1.5-2.4S79.3,145.5,79.3,147L79.3,147z"/>
		</g>
		<g>
			<path class="st1" d="M87.6,150.2l-2.8-4.5v4.5h-0.9v-6.4h0.9l2.8,4.5v-4.5h0.9v6.4H87.6z"/>
		</g>
	</g>
	<g>
		<rect x="3.3" y="24" class="st1" width="94.8" height="94.8"/>
	</g>
	<g>
		<path class="st1" d="M98.2,20.7H3.3V3.3h94.8V20.7z M4.3,19.7h92.8V4.3H4.3L4.3,19.7z"/>
	</g>
	<g class="st2">
		<path class="st1" d="M6.7,6.9h4.5v1.4H9.9v8.8H8.1V8.3H6.7V6.9z"/>
	</g>
	<g class="st2">
		<path class="st1" d="M11.2,17.1l1.9-10.2h1.9L17,17.1h-1.8l-0.3-1.9h-1.8l-0.3,1.9H11.2z M13.3,13.9h1.4L14,9.8h0L13.3,13.9z"/>
	</g>
	<g class="st2">
		<path class="st1" d="M19.6,12.4v4.7h-1.7V6.9h2.5c1.7,0,2.4,0.9,2.4,2.3v1.3c0,1.1-0.4,1.7-1.4,2l1.6,4.6h-1.8L19.6,12.4z
			 M19.6,8.3v3.2h0.6c0.6,0,0.8-0.3,0.8-0.8V9.2c0-0.6-0.3-0.8-0.8-0.8H19.6z"/>
	</g>
	<g class="st2">
		<path class="st1" d="M26.4,11.7h2.4v5.4h-1.2V16c-0.2,0.8-0.7,1.2-1.6,1.2c-1.5,0-2.1-1.2-2.1-2.7V9.6c0-1.6,0.8-2.7,2.6-2.7
			c1.9,0,2.4,1.1,2.4,2.6v0.9h-1.6v-1c0-0.6-0.2-1-0.9-1c-0.6,0-0.9,0.4-0.9,1v5.5c0,0.6,0.3,1,0.8,1c0.6,0,0.8-0.3,0.8-1V13h-0.8
			V11.7z"/>
	</g>
	<g class="st2">
		<path class="st1" d="M30.2,6.9h4.1v1.4h-2.4v2.9h1.7v1.4h-1.7v3.1h2.4v1.4h-4.1V6.9z"/>
	</g>
	<g class="st2">
		<path class="st1" d="M35.1,6.9h4.5v1.4h-1.4v8.8h-1.7V8.3h-1.4V6.9z"/>
	</g>
	<g class="st2">
		<path class="st1" d="M80.9,6.9v10.2h-1.7V9.3h0L78,10.6h0V8.8l1.6-1.8H80.9z"/>
		<path class="st1" d="M82.1,6.9h4.3v1.6l-2.2,8.6h-1.7l2.3-8.8h-2.6V6.9z"/>
	</g>
	<g class="st2">
		<path class="st1" d="M88.6,10.8c0.7,0,1.2,0.6,1.2,1.2c0,0.7-0.6,1.2-1.2,1.2c-0.7,0-1.2-0.6-1.2-1.2
			C87.3,11.4,87.9,10.8,88.6,10.8z"/>
	</g>
	<g class="st2">
		<path class="st1" d="M94.1,6.9v10.2h-1.7V9.3h0l-1.2,1.2h0V8.8l1.6-1.8H94.1z"/>
	</g>
	<g>
		<path class="st1" d="M98.2,153.9h-95v-31.7h95V153.9z M4.2,152.9h93v-29.7h-93V152.9z"/>
	</g>
	<g>
		<g>
			<g>
				<path class="st0" d="M86.7,69.2H53.5c-0.3,0-0.6,0.3-0.6,0.6v1.3c0,0.3,0.3,0.6,0.6,0.6h33.2c0.3,0,0.6-0.3,0.6-0.6v-1.3
					C87.3,69.4,87,69.2,86.7,69.2z"/>
			</g>
			<g>
				<path class="st0" d="M86.7,94.2H53.5c-0.3,0-0.6,0.3-0.6,0.6c0,0,0,0,0,0v2.7c0,0.3,0.2,0.6,0.6,0.6c0,0,0,0,0,0h33.2
					c0.3,0,0.6-0.2,0.6-0.6c0,0,0,0,0,0v-2.7C87.3,94.4,87,94.2,86.7,94.2C86.7,94.2,86.7,94.2,86.7,94.2z"/>
			</g>
			<g>
				<path class="st0" d="M87.2,66.8c-2.1-9.4-11.5-15.4-20.9-13.3C59.6,55,54.5,60.2,53,66.8c0,0.1,0,0.1,0,0.2l0,0
					c0,0.3,0.2,0.5,0.5,0.5h33.2c0.3,0,0.5-0.2,0.5-0.5L87.2,66.8z"/>
			</g>
			<g>
				<path class="st0" d="M85.7,73.4h-31c-0.3,0-0.6,0.3-0.6,0.6v18c0,0.3,0.3,0.6,0.6,0.6h0h31c0.3,0,0.6-0.2,0.6-0.6c0,0,0,0,0,0
					V74C86.3,73.7,86,73.4,85.7,73.4z M64.1,90.2h-5.3V75.9h5.3V90.2z M73,90.2h-5.3V75.9H73L73,90.2z M82,90.2h-5.3V75.9H82
					L82,90.2z"/>
			</g>
			<g>
				<path class="st0" d="M70.1,50.8v-6.4h1.6c1,0,1.9,0.2,2.7,0.7c1,1,2.4,1.5,3.8,1.5h2.4V53h-2.5c-1-0.1-2-0.4-2.8-0.9
					c-0.9-0.8-2.1-1.2-3.3-1.2C69.9,50.8,70.1,50.8,70.1,50.8z"/>
			</g>
		</g>
		<g>
			<path class="st0" d="M24.4,55.4v13.7c0,0.1,0.1,0.2,0.2,0.2c0,0,0,0,0,0h11.3c0.1,0,0.2-0.1,0.2-0.2c0,0,0,0,0,0V55.4h4.4
				L30.1,45.2L19.8,55.4H24.4z"/>
		</g>
		<g>
			<g>
				<path class="st0" d="M28,95c-0.5,0.3-1,0.5-1.5,0.7c-1.5,0.4-3.1,0.6-4.7,0.6c-0.8,0-1.6-0.1-2.3-0.2c-0.5-0.1-0.9-0.2-1.4-0.3
					c-0.2-0.1-0.5-0.1-0.7-0.2c-0.7-0.2-1.3-0.5-1.8-0.9c-0.2-0.2-0.4-0.3-0.5-0.6v0.6c0,0.2,0,0.9,0,0.9c0,0.4,0.2,0.8,0.5,1
					c1.1,0.8,2.3,1.3,3.7,1.4c0.9,0.1,1.8,0.2,2.7,0.2c1.3,0,2.6-0.1,3.9-0.4l0,0c0.7-0.2,1.3-0.4,1.9-0.8l0,0c0.6-0.4,1-0.9,1-1.4
					c0,0,0-1.4,0-1.5C28.6,94.6,28.3,94.8,28,95z"/>
			</g>
			<g>
				<path class="st0" d="M21.3,90.3c3.8,0,6.9-1.2,6.9-2.6c0,0,0.1-1.3,0-1.6c0-0.2,0-0.4-0.1-0.6c0.4-0.2,0.7-0.7,0.8-1.2
					c0,0,0.1-1.5,0-1.8c-0.2-1.8-3.7-2.7-6.9-2.7s-6.9,1-6.9,2.8c0,0.1,0.1,1.6,0.1,1.6c0,0.1,0,0.2,0.1,0.3
					c-0.5,0.3-0.8,0.8-0.9,1.4c0,0.1,0.1,1.6,0.1,1.6c0,0.4,0.2,0.8,0.6,1c1.1,0.8,2.4,1.3,3.7,1.4C19.5,90.2,20.4,90.3,21.3,90.3z
					 M22,80.6c3.7,0,6.2,1.1,6.2,2.1s-2.6,2.1-6.2,2.1s-6.2-1.1-6.2-2.1S18.3,80.6,22,80.6z M15.1,86.1c0.1-0.3,0.2-0.6,0.5-0.8
					c0.2,0.2,0.4,0.4,0.7,0.5c1.8,0.8,3.7,1.2,5.7,1.2c1.7,0,3.3-0.2,4.9-0.8c0.2-0.1,0.4-0.2,0.6-0.3c0,0.1,0,0.1,0,0.2
					c0,1-2.6,2.1-6.2,2.1S15.1,87.1,15.1,86.1L15.1,86.1z"/>
			</g>
			<g>
				<path class="st0" d="M19.2,95.7c0.9,0.1,1.8,0.2,2.7,0.2c1.3,0,2.6-0.1,3.9-0.4l0,0c0.7-0.2,1.4-0.4,2-0.8l0,0
					c0.2-0.1,0.3-0.2,0.4-0.3c0.2-0.2,0.4-0.4,0.5-0.7c0-0.1,0.1-0.2,0.1-0.4c0,0,0-1.4,0-1.6C28.6,92,28,93,25.3,93.5
					c-1.2,0.2-2.3,0.3-3.5,0.3c-1.9,0-3.8-0.3-5.5-1.1c-0.3-0.2-0.6-0.4-0.9-0.6c-0.2-0.2-0.3-0.3-0.4-0.5c0,0,0,0.7,0,0.7v1
					c0,0.4,0.2,0.8,0.5,1C16.6,95.1,17.9,95.5,19.2,95.7z"/>
			</g>
			<g>
				<path class="st0" d="M28.7,88.6c-0.1-0.1-0.1-0.1-0.2-0.2c-0.1-0.1-0.2-0.1-0.3-0.2c-0.1,0.2-0.2,0.3-0.3,0.4
					c0.1,0,0.2,0.1,0.3,0.2c0.2,0.1,0.3,0.3,0.3,0.5c0,0.2-0.1,0.4-0.2,0.5C28.2,89.9,28.1,90,28,90l-0.4,0.2c0,0-0.4,0.2-0.6,0.3
					l-0.6,0.2l-0.8,0.2c0,0-0.7,0.1-1,0.2c-0.1,0-0.8,0.1-1.1,0.1l-1.6,0.1c-0.7,0-1.5-0.1-2.2-0.2c-0.5-0.1-1.1-0.2-1.5-0.3
					c-0.6-0.1-1.1-0.3-1.7-0.5c-0.3-0.1-0.6-0.3-0.8-0.6c-0.2-0.2-0.4-0.5-0.6-0.7v0.9v0.8c0,0.4,0.2,0.8,0.5,1
					c1.1,0.8,2.3,1.2,3.7,1.4c0.9,0.1,1.8,0.2,2.7,0.2c1.3,0,2.6-0.1,3.9-0.4l0,0c0.7-0.2,1.3-0.4,2-0.8l0,0
					c0.1-0.1,0.3-0.2,0.4-0.3c0.2-0.2,0.4-0.4,0.5-0.7c0-0.1,0.1-0.2,0.1-0.4c0,0,0.1-1.5,0.1-1.5c0-0.1,0-0.2-0.1-0.4
					C28.8,88.8,28.8,88.7,28.7,88.6z"/>
			</g>
			<g>
				<path class="st0" d="M37.1,85.2c3.8,0,6.9-1.2,6.9-2.6c0,0,0.1-1.3,0-1.6c0-0.2,0-0.4-0.1-0.6c0.4-0.2,0.7-0.7,0.8-1.2
					c0,0,0.1-1.5,0-1.8c-0.2-1.8-3.7-2.7-6.9-2.7s-7,1-7,2.8c0,0.1,0.1,1.6,0.1,1.6c0,0.1,0,0.2,0.1,0.3c-0.4,0.3-0.7,0.8-0.7,1.4
					c0,0.1,0.1,1.6,0.1,1.6c0,0.4,0.2,0.8,0.5,1c1.1,0.8,2.3,1.2,3.7,1.4C35.3,85.2,36.2,85.2,37.1,85.2z M37.8,75.6
					c3.7,0,6.2,1.1,6.2,2.1s-2.6,2.1-6.2,2.1s-6.2-1.1-6.2-2.1S34.2,75.6,37.8,75.6z M30.9,81c0.1-0.3,0.3-0.6,0.5-0.8
					c0.2,0.2,0.4,0.4,0.7,0.5c1.8,0.8,3.7,1.2,5.7,1.2c1.7,0,3.3-0.2,4.9-0.8c0.2-0.1,0.4-0.2,0.6-0.3c0,0.1,0,0.1,0,0.2
					c0,1-2.5,2.1-6.2,2.1S30.9,82,30.9,81z"/>
			</g>
			<g>
				<path class="st0" d="M44.7,83.8c0-0.1-0.1-0.2-0.2-0.3c-0.1-0.1-0.1-0.1-0.2-0.2c-0.1-0.1-0.2-0.1-0.3-0.2
					c-0.1,0.2-0.2,0.3-0.3,0.4c0.1,0,0.2,0.1,0.3,0.2c0.2,0.1,0.3,0.3,0.3,0.5c0,0.2-0.1,0.4-0.2,0.5c-0.1,0.1-0.2,0.1-0.3,0.2
					l-0.4,0.2l-0.6,0.3l-0.6,0.2c-0.1,0-0.6,0.2-0.8,0.2l-1,0.2l-1.1,0.1c-0.1,0-1.1,0.1-1.6,0.1c-0.7,0-1.5-0.1-2.2-0.2
					C35,86,34.5,85.9,34,85.8c-0.6-0.1-1.1-0.3-1.7-0.5c-0.3-0.2-0.6-0.4-0.9-0.6c-0.2-0.2-0.4-0.5-0.5-0.7v0.9v0.8
					c0,0.4,0.2,0.8,0.5,1c1.1,0.8,2.3,1.3,3.7,1.4c0.9,0.1,1.8,0.2,2.7,0.2c1.3,0,2.6-0.1,3.9-0.4l0,0c0.7-0.2,1.4-0.4,2-0.8l0,0
					c0.2-0.1,0.3-0.2,0.4-0.3c0.2-0.2,0.4-0.4,0.5-0.7c0-0.1,0.1-0.2,0.1-0.4c0,0,0.1-1.5,0.1-1.5C44.8,84.1,44.8,83.9,44.7,83.8z"
					/>
			</g>
			<g>
				<path class="st0" d="M43.9,90c-0.5,0.3-1,0.5-1.5,0.7c-1.5,0.4-3.1,0.7-4.7,0.6c-0.8,0-1.6-0.1-2.3-0.2
					c-0.5-0.1-0.9-0.2-1.4-0.3l-0.7-0.2c-0.7-0.2-1.3-0.5-1.8-0.9c-0.2-0.2-0.4-0.3-0.5-0.6v0.6c0,0.2,0,0.9,0,0.9
					c0,0.4,0.2,0.8,0.5,1c1.1,0.8,2.3,1.3,3.7,1.4c0.9,0.1,1.8,0.2,2.7,0.2c1.3,0,2.6-0.1,3.9-0.4l0,0c0.7-0.2,1.4-0.4,2-0.8l0,0
					c0.6-0.4,1-0.9,1-1.3c0,0,0-1.4,0-1.6C44.5,89.5,44.2,89.8,43.9,90z"/>
			</g>
			<g>
				<path class="st0" d="M31.5,89.2c1.1,0.8,2.3,1.3,3.7,1.4c0.9,0.1,1.8,0.2,2.7,0.2c1.3,0,2.6-0.1,3.9-0.4l0,0
					c0.7-0.2,1.3-0.4,2-0.8l0,0c0.2-0.1,0.3-0.2,0.4-0.3c0.2-0.2,0.4-0.4,0.5-0.7c0-0.1,0.1-0.2,0.1-0.4c0,0,0-1.4,0-1.5
					c-0.2,0.3-0.8,1.2-3.5,1.8c-1.2,0.2-2.3,0.3-3.5,0.3c-1.9,0-3.8-0.3-5.5-1.1c-0.3-0.2-0.6-0.4-0.9-0.6c-0.2-0.2-0.3-0.3-0.4-0.5
					c0,0,0,0.7,0,0.7v1C30.8,88.7,31.1,89,31.5,89.2z"/>
			</g>
			<g>
				<path class="st0" d="M44.8,94.2c-0.2,0.3-0.5,0.6-0.8,0.8c-0.5,0.3-1,0.5-1.5,0.7c-1.5,0.4-3.1,0.7-4.7,0.6
					c-0.8,0-1.6-0.1-2.3-0.2c-0.5-0.1-1-0.1-1.4-0.3c-0.2-0.1-0.5-0.1-0.7-0.2c-0.7-0.2-1.3-0.5-1.8-0.9c-0.2-0.2-0.4-0.3-0.5-0.6
					v0.6c0,0.2,0,0.9,0,0.9c0,0.4,0.2,0.8,0.5,1c1.1,0.8,2.3,1.2,3.7,1.4c0.9,0.1,1.8,0.2,2.7,0.2c1.3,0,2.6-0.1,3.8-0.4l0,0
					c0.7-0.2,1.3-0.4,1.9-0.8l0,0c0.5-0.2,0.9-0.8,1-1.3C44.6,95.8,44.8,94.3,44.8,94.2z"/>
			</g>
			<g>
				<path class="st0" d="M35.2,95.6c0.9,0.1,1.8,0.2,2.7,0.2c1.3,0,2.6-0.1,3.9-0.4l0,0c0.7-0.2,1.3-0.4,1.9-0.8l0,0
					c0.2-0.1,0.3-0.2,0.4-0.3c0.2-0.2,0.4-0.4,0.5-0.7c0-0.1,0.1-0.2,0.1-0.4c0,0,0-1.4,0-1.5c-0.2,0.3-0.8,1.2-3.5,1.8
					c-1.2,0.2-2.3,0.3-3.5,0.3c-1.9,0-3.8-0.3-5.5-1.1c-0.3-0.2-0.6-0.4-0.9-0.6c-0.2-0.2-0.3-0.3-0.4-0.5c0,0,0,0.7,0,0.7v1
					c0,0.4,0.2,0.8,0.5,1C32.5,95.1,33.8,95.5,35.2,95.6z"/>
			</g>
		</g>
	</g>
</g>
</svg>
