<?xml version="1.0" encoding="utf-8"?>
<!-- Generator: Adobe Illustrator 22.0.1, SVG Export Plug-In . SVG Version: 6.00 Build 0)  -->
<svg version="1.1" id="Layer_1" xmlns="http://www.w3.org/2000/svg" xmlns:xlink="http://www.w3.org/1999/xlink" x="0px" y="0px"
	 viewBox="0 0 101.5 166.1" style="enable-background:new 0 0 101.5 166.1;" xml:space="preserve">
<style type="text/css">
	.st0{fill:#FFFFFF;}
	.st1{fill:#19486A;}
	.st2{enable-background:new    ;}
</style>
<title>TARGET 1 B copy 13</title>
<g id="WHITE_BG">
	<g>
		<rect y="0" class="st0" width="101.5" height="166.2"/>
	</g>
</g>
<g id="TARGETS">
	<g>
		<g>
			<path class="st1" d="M10.5,129.3H7.8v2h2.9v0.9H6.9v-6.4h3.9v0.9H7.8v1.8h2.6V129.3z"/>
		</g>
		<g>
			<path class="st1" d="M15.3,132.2l-2.8-4.5v4.5h-0.9v-6.4h0.9l2.8,4.5v-4.5h0.9v6.4H15.3z"/>
		</g>
		<g>
			<path class="st1" d="M20.6,132.2v-2.9h-2.6v2.9h-1v-6.4h1v2.6h2.6v-2.6h1v6.4H20.6z"/>
		</g>
		<g>
			<path class="st1" d="M25.6,130.6h-2l-0.5,1.6h-1l2-6.4h1l2,6.4h-1L25.6,130.6z M24.6,127l-0.8,2.8h1.6L24.6,127z"/>
		</g>
		<g>
			<path class="st1" d="M31.3,132.2l-2.8-4.5v4.5h-0.9v-6.4h0.9l2.8,4.5v-4.5h0.9v6.4H31.3z"/>
		</g>
		<g>
			<path class="st1" d="M35.7,125.7c0.5,0,1,0.1,1.5,0.3v0.9c-0.5-0.2-0.9-0.3-1.4-0.3c-1.2,0-1.7,0.8-1.7,2.4s0.5,2.4,1.7,2.4
				c0.5,0,1-0.1,1.4-0.3v0.9c-0.5,0.2-1,0.3-1.5,0.3c-1.9,0-2.6-1.2-2.6-3.3S33.8,125.7,35.7,125.7z"/>
		</g>
		<g>
			<path class="st1" d="M41.7,129.3H39v2h2.9v0.9h-3.8v-6.4h3.9v0.9H39v1.8h2.7L41.7,129.3z"/>
		</g>
		<g>
			<path class="st1" d="M48.3,130.3c0,1.2-0.7,2-2.4,2c-0.6,0-1.3-0.1-1.9-0.4V131c0.6,0.3,1.2,0.4,1.8,0.4c1.1,0,1.5-0.5,1.5-1.1
				s-0.3-0.9-1.2-1c-1.6-0.2-2.2-0.6-2.2-1.8c0-0.9,0.5-1.8,2.3-1.8c0.6,0,1.2,0.1,1.7,0.3v1c-0.5-0.2-1.1-0.3-1.7-0.3
				c-1,0-1.3,0.4-1.3,1c0,0.6,0.4,0.8,1.2,0.9C47.5,128.7,48.3,129,48.3,130.3z"/>
		</g>
		<g>
			<path class="st1" d="M49.1,132.2v-6.4H51c2.1,0,2.7,1.4,2.7,3.2s-0.6,3.2-2.7,3.2L49.1,132.2z M50.1,131.3h1
				c1.3,0,1.7-0.9,1.7-2.3s-0.4-2.3-1.7-2.3h-1V131.3z"/>
		</g>
		<g>
			<path class="st1" d="M54.3,129c0-2,0.7-3.3,2.6-3.3c0.6,0,1.3,0.1,1.8,0.3v1c-0.5-0.2-1.1-0.4-1.7-0.4c-1.3,0-1.8,0.9-1.8,2.4
				s0.5,2.4,1.8,2.4c0.3,0,0.6,0,0.9-0.1v-1.7h-1.1v-0.9h2.1v3.2c-0.6,0.3-1.3,0.4-2,0.4C55,132.3,54.3,131,54.3,129z"/>
		</g>
		<g>
			<path class="st1" d="M9.4,134.7c0.5,0,1,0.1,1.5,0.3v0.9c-0.5-0.2-0.9-0.3-1.4-0.3c-1.2,0-1.7,0.8-1.7,2.4s0.5,2.4,1.7,2.4
				c0.5,0,1-0.1,1.4-0.3v0.9c-0.5,0.2-1,0.3-1.5,0.3c-1.9,0-2.6-1.2-2.6-3.3S7.5,134.7,9.4,134.7z"/>
		</g>
		<g>
			<path class="st1" d="M14.8,139.6h-2l-0.4,1.6h-1l2-6.4h1l2,6.4h-1L14.8,139.6z M13.8,136l-0.8,2.8h1.6L13.8,136z"/>
		</g>
		<g>
			<path class="st1" d="M17.8,141.2h-1v-6.4h2c1.6,0,2.2,0.9,2.2,2s-0.6,2-2.2,2h-1.1L17.8,141.2z M17.8,137.9h1.1
				c0.6,0.1,1.2-0.4,1.2-1s-0.4-1.2-1-1.2c-0.1,0-0.1,0-0.2,0h-1.1V137.9z"/>
		</g>
		<g>
			<path class="st1" d="M24.2,139.6h-2l-0.5,1.6h-1l2-6.4h1l2,6.4h-1L24.2,139.6z M23.2,136l-0.8,2.8H24L23.2,136z"/>
		</g>
		<g>
			<path class="st1" d="M28.6,134.7c0.5,0,1,0.1,1.5,0.3v0.9c-0.5-0.2-0.9-0.3-1.4-0.3c-1.2,0-1.7,0.8-1.7,2.4s0.5,2.4,1.7,2.4
				c0.5,0,1-0.1,1.4-0.3v0.9c-0.5,0.2-1,0.3-1.5,0.3c-1.9,0-2.6-1.2-2.6-3.3S26.7,134.7,28.6,134.7z"/>
		</g>
		<g>
			<path class="st1" d="M31.1,141.2v-6.4h1v6.4H31.1z"/>
		</g>
		<g>
			<path class="st1" d="M35.3,135.7v5.5h-1v-5.5h-1.6v-0.9H37v0.9H35.3z"/>
		</g>
		<g>
			<path class="st1" d="M40.3,138.6v2.6h-1v-2.6l-2.2-3.8h1.1l1.6,3l1.6-3h1.1L40.3,138.6z"/>
		</g>
		<g>
			<path class="st1" d="M44.4,141.2v-6.4h1v6.4H44.4z"/>
		</g>
		<g>
			<path class="st1" d="M50.2,141.2l-2.8-4.5v4.5h-1v-6.4h0.9l2.8,4.5v-4.5h1v6.4H50.2z"/>
		</g>
		<g>
			<path class="st1" d="M6.9,150.2v-6.4h1.9c2.1,0,2.7,1.4,2.7,3.2s-0.6,3.2-2.7,3.2H6.9z M7.9,149.3h1c1.3,0,1.7-0.9,1.7-2.3
				s-0.4-2.3-1.7-2.3h-1L7.9,149.3z"/>
		</g>
		<g>
			<path class="st1" d="M15.8,147.3h-2.7v2h2.9v0.9h-3.9v-6.4h3.9v0.9h-2.9v1.8h2.7L15.8,147.3z"/>
		</g>
		<g>
			<path class="st1" d="M21.5,143.8l-2,6.4h-1l-2-6.4h1L19,149l1.5-5.2L21.5,143.8z"/>
		</g>
		<g>
			<path class="st1" d="M25.6,147.3H23v2h2.9v0.9H22v-6.4h3.9v0.9H23v1.8h2.6L25.6,147.3z"/>
		</g>
		<g>
			<path class="st1" d="M27.7,149.3h2.8v0.9h-3.7v-6.4h1L27.7,149.3z"/>
		</g>
		<g>
			<path class="st1" d="M30.5,147c0-1.8,0.4-3.3,2.5-3.3s2.5,1.5,2.5,3.3s-0.4,3.3-2.5,3.3S30.5,148.8,30.5,147z M31.5,147
				c0,1.5,0.3,2.4,1.5,2.4c1.2,0,1.5-0.9,1.5-2.4s-0.3-2.4-1.5-2.4S31.5,145.5,31.5,147L31.5,147z"/>
		</g>
		<g>
			<path class="st1" d="M37.1,150.2h-1v-6.4h2c1.6,0,2.2,0.9,2.2,2s-0.6,2-2.2,2h-1V150.2z M37.1,146.9h1.1c0.6,0.1,1.2-0.4,1.2-1
				s-0.4-1.2-1-1.2c-0.1,0-0.1,0-0.2,0h-1.1V146.9z"/>
		</g>
		<g>
			<path class="st1" d="M41.1,150.2v-6.4h1v6.4H41.1z"/>
		</g>
		<g>
			<path class="st1" d="M46.7,150.2l-2.8-4.5v4.5H43v-6.4h0.9l2.8,4.5v-4.5h0.9v6.4H46.7z"/>
		</g>
		<g>
			<path class="st1" d="M48.3,147c0-2,0.7-3.3,2.6-3.3c0.6,0,1.3,0.1,1.8,0.3v1c-0.5-0.2-1.1-0.4-1.7-0.4c-1.3,0-1.8,0.9-1.8,2.4
				s0.5,2.4,1.8,2.4c0.3,0,0.6,0,0.9-0.1v-1.7h-1.1v-0.9h2.1v3.2c-0.6,0.3-1.3,0.4-2,0.4C49,150.3,48.3,149,48.3,147z"/>
		</g>
		<g>
			<path class="st1" d="M9.4,152.7c0.5,0,1,0.1,1.5,0.3v0.9c-0.5-0.2-0.9-0.3-1.4-0.3c-1.2,0-1.7,0.8-1.7,2.4s0.5,2.4,1.7,2.4
				c0.5,0,1-0.1,1.4-0.3v0.9c-0.5,0.2-1,0.3-1.5,0.3c-1.9,0-2.6-1.2-2.6-3.3S7.5,152.7,9.4,152.7z"/>
		</g>
		<g>
			<path class="st1" d="M11.6,156c0-1.8,0.4-3.3,2.5-3.3s2.4,1.5,2.4,3.3s-0.4,3.3-2.4,3.3S11.6,157.8,11.6,156z M12.6,156
				c0,1.5,0.3,2.4,1.5,2.4s1.5-0.9,1.5-2.4s-0.3-2.4-1.5-2.4S12.6,154.5,12.6,156L12.6,156z"/>
		</g>
		<g>
			<path class="st1" d="M17.2,157.2v-4.4h1v4.3c-0.1,0.7,0.4,1.3,1,1.3c0.1,0,0.2,0,0.3,0c0.6,0.1,1.3-0.3,1.4-1c0-0.1,0-0.2,0-0.3
				v-4.3h1v4.4c0,1.1-0.8,2.1-2,2.1c-0.1,0-0.2,0-0.3,0c-1.1,0.2-2.1-0.5-2.3-1.6C17.2,157.5,17.2,157.4,17.2,157.2z"/>
		</g>
		<g>
			<path class="st1" d="M26.4,159.2l-2.8-4.5v4.5h-0.9v-6.4h0.9l2.8,4.5v-4.5h0.9v6.4H26.4z"/>
		</g>
		<g>
			<path class="st1" d="M30.4,153.7v5.5h-1v-5.5h-1.6v-0.9h4.3v0.9H30.4z"/>
		</g>
		<g>
			<path class="st1" d="M33.6,159.2h-1v-6.4h2.1c1.7,0,2.2,0.7,2.2,1.9c0.1,0.7-0.3,1.4-1,1.7l1.3,2.8H36l-1.2-2.6h-1.3V159.2z
				 M33.6,155.7h1.3c0.9,0,1-0.5,1-1s-0.1-1-1-1h-1.3V155.7z"/>
		</g>
		<g>
			<path class="st1" d="M37.8,159.2v-6.4h1v6.4H37.8z"/>
		</g>
		<g>
			<path class="st1" d="M43.5,156.3h-2.6v2h2.9v0.9h-3.9v-6.4h3.9v0.9h-2.9v1.8h2.7L43.5,156.3z"/>
		</g>
		<g>
			<path class="st1" d="M48.7,157.3c0,1.2-0.7,2-2.4,2c-0.6,0-1.3-0.1-1.9-0.4V158c0.6,0.3,1.2,0.4,1.8,0.4c1.1,0,1.5-0.5,1.5-1.1
				s-0.3-0.9-1.2-1c-1.6-0.2-2.2-0.6-2.2-1.8c0-0.9,0.5-1.8,2.3-1.8c0.6,0,1.2,0.1,1.7,0.3v1c-0.5-0.2-1.1-0.3-1.7-0.3
				c-1,0-1.3,0.4-1.3,1s0.4,0.8,1.2,0.9C47.9,155.7,48.7,156,48.7,157.3z"/>
		</g>
	</g>
	<g>
		<rect x="3.3" y="24" class="st1" width="94.8" height="94.8"/>
	</g>
	<g>
		<path class="st1" d="M98.2,20.7H3.3V3.3h94.8V20.7z M4.3,19.7h92.8V4.3H4.3L4.3,19.7z"/>
	</g>
	<g class="st2">
		<path class="st1" d="M6.7,6.9h4.5v1.4H9.9v8.8H8.1V8.3H6.7V6.9z"/>
	</g>
	<g class="st2">
		<path class="st1" d="M11.2,17.1l1.9-10.2h1.9L17,17.1h-1.8l-0.3-1.9h-1.8l-0.3,1.9H11.2z M13.3,13.9h1.4L14,9.8h0L13.3,13.9z"/>
	</g>
	<g class="st2">
		<path class="st1" d="M19.6,12.4v4.7h-1.7V6.9h2.5c1.7,0,2.4,0.9,2.4,2.3v1.3c0,1.1-0.4,1.7-1.4,2l1.6,4.6h-1.8L19.6,12.4z
			 M19.6,8.3v3.2h0.6c0.6,0,0.8-0.3,0.8-0.8V9.2c0-0.6-0.3-0.8-0.8-0.8H19.6z"/>
	</g>
	<g class="st2">
		<path class="st1" d="M26.4,11.7h2.4v5.4h-1.2V16c-0.2,0.8-0.7,1.2-1.6,1.2c-1.5,0-2.1-1.2-2.1-2.7V9.6c0-1.6,0.8-2.7,2.6-2.7
			c1.9,0,2.4,1.1,2.4,2.6v0.9h-1.6v-1c0-0.6-0.2-1-0.9-1c-0.6,0-0.9,0.4-0.9,1v5.5c0,0.6,0.3,1,0.8,1c0.6,0,0.8-0.3,0.8-1V13h-0.8
			V11.7z"/>
	</g>
	<g class="st2">
		<path class="st1" d="M30.2,6.9h4.1v1.4h-2.4v2.9h1.7v1.4h-1.7v3.1h2.4v1.4h-4.1V6.9z"/>
	</g>
	<g class="st2">
		<path class="st1" d="M35.1,6.9h4.5v1.4h-1.4v8.8h-1.7V8.3h-1.4V6.9z"/>
	</g>
	<g class="st2">
		<path class="st1" d="M78.3,6.9v10.2h-1.7V9.3h0l-1.2,1.2h0V8.8l1.6-1.8H78.3z"/>
		<path class="st1" d="M79.5,6.9h4.3v1.6l-2.2,8.6h-1.7l2.3-8.8h-2.6V6.9z"/>
	</g>
	<g class="st2">
	</g>
	<g class="st2">
		<path class="st1" d="M86.5,10.8c0.7,0,1.2,0.6,1.2,1.2c0,0.7-0.6,1.2-1.2,1.2c-0.7,0-1.2-0.6-1.2-1.2
			C85.3,11.4,85.9,10.8,86.5,10.8z"/>
	</g>
	<g class="st2">
		<path class="st1" d="M94.3,9.5v4.9c0,1.6-0.7,2.7-2.5,2.7c-1.9,0-2.4-1-2.4-2.5v-0.5h1.6v0.7c0,0.6,0.2,1,0.8,1
			c0.6,0,0.9-0.4,0.9-1v-2.2h0c-0.3,0.5-0.7,0.8-1.4,0.8c-1.2,0-1.9-0.8-1.9-2.5V9.4c0-1.6,0.7-2.6,2.5-2.6
			C93.6,6.8,94.3,8,94.3,9.5z M91,9.2V11c0,0.7,0.2,1,0.8,1c0.5,0,0.8-0.4,0.8-0.9V9.2c0-0.6-0.2-1-0.8-1C91.2,8.2,91,8.6,91,9.2z"
			/>
	</g>
	<g>
		<g>
			<g>
				<path class="st0" d="M32.5,60.8c0.9-1.6,2.1-3,3.4-4.3l-11-12.1c-2.8,2.7-5.1,5.7-7,9.1L32.5,60.8z"/>
			</g>
			<g>
				<path class="st0" d="M59.5,52.2c1.7,0.8,3.2,1.7,4.6,2.9l11-12.1c-2.9-2.5-6.2-4.6-9.8-6.1L59.5,52.2z"/>
			</g>
			<g>
				<path class="st0" d="M84.8,55.9l-14.6,7.3c0.7,1.7,1.2,3.4,1.5,5.2l16.3-1.5C87.5,63,86.4,59.3,84.8,55.9"/>
			</g>
			<g>
				<path class="st0" d="M69.1,61l14.6-7.3c-1.8-3.4-4.1-6.4-6.8-9.1l-11,12.1C67.2,58,68.3,59.5,69.1,61"/>
			</g>
			<g>
				<path class="st0" d="M29.6,71.4c0-0.3,0-0.7,0-1L13.4,69c0,0.8-0.1,1.6-0.1,2.4c0,3.1,0.4,6.1,1.1,9.1L30.1,76
					C29.8,74.5,29.6,73,29.6,71.4"/>
			</g>
			<g>
				<path class="st0" d="M67.1,84.8c-1.2,1.4-2.5,2.7-4,3.7l8.6,13.9c3.2-2.2,6-4.8,8.4-7.8L67.1,84.8z"/>
			</g>
			<g>
				<path class="st0" d="M71.9,71.4c0,1.5-0.2,3-0.5,4.5l15.7,4.5c0.7-2.9,1.1-6,1.1-9c0-0.8,0-1.5-0.1-2.3l-16.3,1.5
					C71.8,70.9,71.8,71.2,71.9,71.4"/>
			</g>
			<g>
				<path class="st0" d="M34.7,85.1l-13,9.8c2.4,3,5.3,5.6,8.5,7.7l8.6-13.9C37.2,87.7,35.9,86.5,34.7,85.1"/>
			</g>
			<g>
				<path class="st0" d="M29.9,68.1c0.3-1.8,0.8-3.6,1.6-5.2l-14.6-7.3c-1.6,3.5-2.7,7.2-3.2,11.1L29.9,68.1z"/>
			</g>
			<g>
				<path class="st0" d="M69.7,103.7l-8.6-13.9c-1.6,0.9-3.3,1.5-5,2l3,16.1C62.8,107.1,66.4,105.6,69.7,103.7"/>
			</g>
			<g>
				<path class="st0" d="M70.8,78.2c-0.6,1.7-1.3,3.2-2.3,4.7l13.1,9.8c2.1-3.1,3.8-6.4,4.9-10L70.8,78.2z"/>
			</g>
			<g>
				<path class="st0" d="M53.8,92.4c-1,0.1-2,0.2-3,0.2c-0.8,0-1.6,0-2.5-0.2l-3,16.1c1.8,0.3,3.7,0.4,5.5,0.4c2,0,4.1-0.2,6.1-0.5
					L53.8,92.4z"/>
			</g>
			<g>
				<path class="st0" d="M52.1,50.4c1.8,0.1,3.5,0.5,5.2,1l5.9-15.3c-3.6-1.3-7.3-2-11.1-2.1V50.4z"/>
			</g>
			<g>
				<path class="st0" d="M46,92c-1.8-0.4-3.5-1.1-5.2-2l-8.7,14c3.4,1.9,7,3.3,10.8,4.1L46,92z"/>
			</g>
			<g>
				<path class="st0" d="M44.4,51.3c1.7-0.6,3.5-0.9,5.3-1V34c-3.8,0.1-7.6,0.8-11.2,2L44.4,51.3z"/>
			</g>
			<g>
				<path class="st0" d="M33.2,83.3c-1.1-1.5-1.9-3.2-2.5-5L15,82.8c1.2,3.7,2.9,7.2,5.2,10.4L33.2,83.3z"/>
			</g>
			<g>
				<path class="st0" d="M37.7,54.9c1.4-1.1,2.9-2,4.5-2.7l-5.9-15.2c-3.5,1.5-6.7,3.5-9.6,5.9L37.7,54.9z"/>
			</g>
		</g>
		<g>
			<g>
				<path class="st0" d="M67.1,69.8c0-0.4-0.4-0.8-0.8-0.7c0,0,0,0,0,0h-1.2c-0.5,0-0.9-0.1-1-0.6c-0.2-0.8-0.5-1.6-0.8-2.3
					c-0.2-0.4-0.1-0.9,0.3-1.2l1-0.9c0.3-0.2,0.4-0.7,0.2-1c-0.5-0.9-1.1-1.8-1.8-2.5c-0.3-0.3-0.8-0.4-1.1-0.1l-1,0.7
					c-0.4,0.3-0.8,0.4-1.2,0.1c-0.7-0.5-1.5-1.1-2-1.4c-0.4-0.2-0.6-0.7-0.5-1.1c0.1-0.5,0.2-0.8,0.3-1.3c0.1-0.4-0.1-0.8-0.5-1
					c-0.9-0.4-1.9-0.7-2.9-0.9c-0.4-0.1-0.9,0.1-1,0.5c0,0,0,0,0,0c-0.2,0.4-0.3,0.7-0.4,1.1s-0.4,0.8-0.9,0.8c-1,0-1.8,0-2.4,0
					c-0.4,0-0.8-0.2-1-0.7c-0.2-0.4-0.3-0.8-0.5-1.2c-0.1-0.4-0.5-0.6-0.9-0.5c-1,0.2-2,0.5-2.9,1c-0.4,0.2-0.6,0.6-0.5,1
					c0.1,0.4,0.2,0.7,0.3,1.2s0.1,0.9-0.3,1.1s-1.4,1-2,1.5c-0.3,0.3-0.8,0.3-1.2,0.1c-0.4-0.3-0.7-0.5-1.1-0.7
					c-0.3-0.2-0.7-0.1-1,0.1c-0.7,0.8-1.3,1.6-1.8,2.5c-0.2,0.4-0.1,0.8,0.2,1.1c0,0,0,0,0,0l1,0.7c0.4,0.3,0.6,0.6,0.5,1.1
					s-0.6,1.8-0.7,2.3c-0.1,0.4-0.5,0.8-0.9,0.8l-1.3,0.1c-0.4,0-0.7,0.3-0.8,0.7c-0.1,1-0.1,2.1,0,3.1c0,0.4,0.4,0.8,0.8,0.7
					c0,0,0,0,0,0c0.5,0,0.8,0,1.2,0s0.8,0.1,1,0.6c0.2,0.8,0.4,1.6,0.7,2.5c0.2,0.4,0.1,0.9-0.3,1.2c-0.4,0.3-0.7,0.6-1,0.9
					c-0.3,0.2-0.4,0.7-0.2,1c0.5,0.9,1.1,1.7,1.8,2.5c0.3,0.3,0.8,0.4,1.1,0.1l1-0.7c0.4-0.3,0.8-0.4,1.1-0.1s1.5,1.1,2,1.4
					c0.4,0.2,0.6,0.7,0.5,1.1c-0.1,0.4-0.2,0.8-0.3,1.3c-0.1,0.4,0.1,0.8,0.5,1c1,0.4,2,0.7,3,0.9c0.4,0.1,0.9-0.1,1-0.5
					c0,0,0,0,0,0c0.2-0.4,0.3-0.7,0.4-1.1s0.4-0.8,0.9-0.8c0.9,0,1.6,0,2.4,0c0.4,0,0.8,0.2,1,0.7c0.2,0.4,0.3,0.8,0.5,1.2
					c0.1,0.4,0.5,0.6,0.9,0.5c1-0.2,2-0.5,2.9-1c0.4-0.2,0.6-0.6,0.4-1c-0.1-0.4-0.2-0.7-0.3-1.2s-0.2-0.9,0.3-1.1s1.5-1.1,2-1.4
					c0.3-0.3,0.8-0.3,1.2-0.1c0.4,0.3,0.7,0.4,1.1,0.7c0.3,0.2,0.8,0.2,1.1-0.1c0.6-0.8,1.2-1.7,1.6-2.6c0.2-0.4,0.1-0.9-0.2-1.1
					c0,0,0,0,0,0c-0.3-0.3-0.6-0.5-1-0.7s-0.6-0.6-0.4-1.1s0.6-1.8,0.7-2.3c0.1-0.4,0.5-0.8,0.9-0.8l1.3-0.1c0.4,0,0.7-0.3,0.8-0.7
					C67.2,71.8,67.2,70.8,67.1,69.8z M50.9,81.8c-5.6,0-10.1-4.5-10.1-10.1c0-5.6,4.5-10.1,10.1-10.1S61,66.1,61,71.7c0,0,0,0,0,0
					C61,77.3,56.5,81.8,50.9,81.8L50.9,81.8z"/>
			</g>
			<g>
				<path class="st0" d="M43.5,68.8c0.2,0.2,0.4,0,0.5-0.1c0.1-0.1,0.1-0.3,0-0.4c0-0.1,0.1-0.2,0.2-0.2c0.2-0.1,0.5-0.3,0.7-0.4
					c0.4-0.1,0.9-0.1,1.3,0c0.3,0.2,0.7,0.1,0.9-0.2c0.2-0.2,0.4-0.4,0.7-0.5c0.1-0.1-0.3-0.5-0.7,0s-0.5,0.5-0.7,0.5
					s-1.2-0.3-1.3-0.6s0.3-0.6,0.7-0.7c0.6-0.1,1.1-0.2,1.7-0.2c0.5-0.1,1.2-0.4,1.6-0.1s-1.5,0.6-0.9,1c0.2,0.1,1.2-0.5,1.5-0.7
					c0.8-0.4-0.7-0.5-0.5-1.3s-1.8-0.6-2.8-0.5c-0.5,0.3-1,0.7-1.4,1.1c0.1,0,0.3,0.1,0.3,0.2c0,0.2,0,0.4-0.1,0.6
					c-0.3,0.3-0.6,0.4-1,0.4c-0.1,0-0.1,0-0.2-0.1c-0.2,0.2-0.3,0.4-0.5,0.6c0.2-0.1,0.4-0.2,0.7-0.2c0.2,0,0.5,0.1,0.5,0.2
					s-0.5,0.4-0.7,0.5c-0.3,0.3-0.8,0.9-1.1,0.9c-0.1,0-0.1,0-0.2,0c-0.1,0.2-0.2,0.4-0.2,0.6C42.7,68.7,43.1,68.7,43.5,68.8z"/>
			</g>
			<g>
				<path class="st0" d="M58.1,71.2c-0.3,0.2-0.6,0.3-0.9,0.4c-0.3,0.3-0.5,0.7-0.5,1.1c0.1,0.3,0.9,1.3,0.3,1.2
					c-0.6-0.3-1-0.7-1.4-1.2c-0.2-0.5-0.4-1-0.5-1.3c-0.1-0.3-0.4-0.4-0.7-0.3c-0.1,0-0.1,0.1-0.2,0.1c-0.3,0.2,0.1,0.4-0.1,0.9
					s-0.4,0.9-0.7,0.5c-0.9-1-2.1-0.5-2.3-1.6c-0.1-0.6-0.6-0.5-1-0.9s-0.7-0.5-0.8-0.3s1.4,1.3,1.5,1.6c0.2,0.4-0.4,0.8-0.8,0.9
					s-0.6-0.2-1-0.7s-0.6-0.7-0.6-0.4c0,0.6,0.3,1.1,0.8,1.5c0.4,0.2,0.8,0.3,0.6,0.7s0,0.2-0.4,0.6c-0.4,0.2-0.5,0.7-0.5,1.1
					c0,0.6-0.1,0.6-0.2,1.1s-0.3,0.1-0.5,0.7c-0.1,0.4-0.3,0.8-0.5,1.1c-0.3,0.3-0.8,0.5-1.2,0.4c-0.4,0-0.5-1.1-0.5-1.7
					c0-0.2-0.3,0.4-0.4-0.8c-0.1-0.7-0.6,0.1-0.6-0.4s-0.3-0.4-0.5-0.7s-0.6,0-0.9,0.2s-0.2,0.2-0.7,0.1l0,0c1,2.5,3.1,4.3,5.7,5.1
					c-0.1-0.1-0.2-0.3-0.1-0.4c0.4-0.6,1-1,1.8-1c1.4-0.1,3.3,0.9,3.6,0.8s0.9-1,1.8-0.9c0.3,0,0.6,0.1,0.8,0.2
					c0.3-0.2,0.6-0.5,0.9-0.8c-0.1,0-0.2-0.1-0.3-0.1c-0.5-0.2-0.4,0.1-0.7,0s0.3-0.6-0.5-0.2s-0.5-0.1-0.8-0.9
					c-0.2-0.8,0.2-1.6,0.9-1.9c0.5-0.2,1.1-0.3,1.6-0.4c1.1-0.3,1.3-0.9,1.5-0.5l0.1,0.2c0.1,0.2,0.1,0.4,0.1,0.5
					c0.2-0.4,0.3-0.9,0.4-1.3c-0.3-0.1-1.2-1.4-0.4-2.3c0.1-0.1-0.3-0.6-0.2-0.6c0.3,0,0.7,0.2,0.7,0.5c0-0.5-0.1-0.9-0.2-1.4
					c0,0.1,0,0.2,0,0.3c-0.1,0.3-0.5,0.4-0.8,0.3c-0.1,0-0.2-0.1-0.2-0.2c-0.1-0.1-0.5-0.5-0.5,0.1S58.6,70.9,58.1,71.2z M49.7,74.7
					c-0.1,0.2-0.5,1.7-0.7,1.5s0.1-1.7,0.2-1.8C49.5,73.7,50.3,73.8,49.7,74.7z M53.4,73c-0.3,0.1-0.6,0.1-0.8-0.1
					c-0.2-0.2,0.1-0.5,0.3-0.5C53.1,72.4,53.5,72.8,53.4,73z M57,72.6c-0.1-0.2,0.1-0.3,0.3-0.3c0.2,0.1,0.4,0.3,0.4,0.5
					c0,0.1-0.4,0.1-0.5,0.1S57.1,72.9,57,72.6z M58.2,73.8c-0.3,0.1-0.6,0.1-0.8-0.1c-0.2-0.2,0.2-0.5,0.3-0.5
					C58,73.2,58.4,73.6,58.2,73.8L58.2,73.8z"/>
			</g>
			<g>
				<path class="st0" d="M43.1,69.8c0.5,0.1,1,0.2,1.5,0.4c0.5,0.2,1.3,0.6,1.8,0.4S47,70.2,47,70s-0.3-0.4-0.7-0.2
					c-0.1,0.1-0.4-0.5-0.6-0.5s0.3,0.7,0.1,0.8s-0.5-0.7-0.6-0.9s-0.3-0.4-0.6-0.2c-0.5,0.5-1.4,0.5-1.5,0.6c-0.1,0-0.1,0.1-0.2,0.1
					c-0.3,0.1-0.5-0.2-0.5-0.5c-0.1,0.5-0.2,1-0.3,1.5v-0.1c0.3-0.5,0.3-0.6,0.4-0.7c0.1-0.1,0.2-0.1,0.3-0.1L43.1,69.8z"/>
			</g>
		</g>
	</g>
	<g>
		<path class="st1" d="M98.2,162.9h-95v-40.8h95V162.9z M4.2,161.9h93v-38.8h-93V161.9z"/>
	</g>
</g>
</svg>
