<?xml version="1.0" encoding="utf-8"?>
<!-- Generator: Adobe Illustrator 22.0.1, SVG Export Plug-In . SVG Version: 6.00 Build 0)  -->
<svg version="1.1" id="Layer_1" xmlns="http://www.w3.org/2000/svg" xmlns:xlink="http://www.w3.org/1999/xlink" x="0px" y="0px"
	 viewBox="0 0 101.5 166.2" style="enable-background:new 0 0 101.5 166.2;" xml:space="preserve">
<style type="text/css">
	.st0{fill:#FFFFFF;}
	.st1{fill:#19486A;}
	.st2{enable-background:new    ;}
</style>
<title>TARGET 1 B copy 16</title>
<g id="WHITE_BG">
	<g>
		<rect y="0" class="st0" width="101.5" height="166.1"/>
	</g>
</g>
<g id="TARGETS">
	<g>
		<g>
			<path class="st1" d="M10.5,129.3H7.8v2h2.9v0.9H6.9v-6.4h3.9v0.9H7.8v1.8h2.6V129.3z"/>
		</g>
		<g>
			<path class="st1" d="M15.3,132.2l-2.8-4.5v4.5h-0.9v-6.4h0.9l2.8,4.5v-4.5h0.9v6.4H15.3z"/>
		</g>
		<g>
			<path class="st1" d="M20.6,132.2v-2.9h-2.6v2.9h-1v-6.4h1v2.6h2.6v-2.6h1v6.4H20.6z"/>
		</g>
		<g>
			<path class="st1" d="M25.6,130.6h-2l-0.5,1.6h-1l2-6.4h1l2,6.4h-1L25.6,130.6z M24.6,127l-0.8,2.8h1.6L24.6,127z"/>
		</g>
		<g>
			<path class="st1" d="M31.3,132.2l-2.8-4.5v4.5h-0.9v-6.4h0.9l2.8,4.5v-4.5h0.9v6.4H31.3z"/>
		</g>
		<g>
			<path class="st1" d="M35.7,125.7c0.5,0,1,0.1,1.5,0.3v0.9c-0.5-0.2-0.9-0.3-1.4-0.3c-1.2,0-1.7,0.8-1.7,2.4s0.5,2.4,1.7,2.4
				c0.5,0,1-0.1,1.4-0.3v0.9c-0.5,0.2-1,0.3-1.5,0.3c-1.9,0-2.6-1.2-2.6-3.3S33.8,125.7,35.7,125.7z"/>
		</g>
		<g>
			<path class="st1" d="M41.7,129.3H39v2h2.9v0.9h-3.8v-6.4h3.9v0.9H39v1.8h2.7L41.7,129.3z"/>
		</g>
		<g>
			<path class="st1" d="M45.1,132.2h-1v-6.4h2c1.6,0,2.2,1,2.2,2c0,1-0.6,2-2.2,2h-1V132.2z M45.1,128.9h1.1c0.6,0.1,1.2-0.4,1.2-1
				s-0.4-1.2-1-1.2c-0.1,0-0.1,0-0.2,0h-1.1V128.9z"/>
		</g>
		<g>
			<path class="st1" d="M48.8,129c0-1.8,0.4-3.3,2.5-3.3s2.5,1.5,2.5,3.3s-0.4,3.3-2.5,3.3S48.8,130.8,48.8,129z M49.8,129
				c0,1.5,0.3,2.4,1.5,2.4s1.5-0.9,1.5-2.4s-0.3-2.4-1.5-2.4S49.8,127.5,49.8,129L49.8,129z"/>
		</g>
		<g>
			<path class="st1" d="M55.4,131.3h2.8v0.9h-3.7v-6.4h1L55.4,131.3z"/>
		</g>
		<g>
			<path class="st1" d="M58.8,132.2v-6.4h1v6.4H58.8z"/>
		</g>
		<g>
			<path class="st1" d="M63.3,125.7c0.5,0,1,0.1,1.5,0.3v0.9c-0.5-0.2-0.9-0.3-1.4-0.3c-1.2,0-1.7,0.8-1.7,2.4s0.5,2.4,1.7,2.4
				c0.5,0,1-0.1,1.4-0.3v0.9c-0.5,0.2-1,0.3-1.5,0.3c-1.9,0-2.6-1.2-2.6-3.3S61.4,125.7,63.3,125.7z"/>
		</g>
		<g>
			<path class="st1" d="M68.1,129.6v2.6h-1v-2.6l-2.2-3.8H66l1.6,3l1.6-3h1.1L68.1,129.6z"/>
		</g>
		<g>
			<path class="st1" d="M9.4,134.7c0.5,0,1,0.1,1.5,0.3v0.9c-0.5-0.2-0.9-0.3-1.4-0.3c-1.2,0-1.7,0.8-1.7,2.4s0.5,2.4,1.7,2.4
				c0.5,0,1-0.1,1.4-0.3v0.9c-0.5,0.2-1,0.3-1.5,0.3c-1.9,0-2.6-1.2-2.6-3.3S7.5,134.7,9.4,134.7z"/>
		</g>
		<g>
			<path class="st1" d="M11.6,138c0-1.8,0.4-3.3,2.5-3.3s2.4,1.5,2.4,3.3s-0.4,3.3-2.4,3.3S11.6,139.8,11.6,138z M12.6,138
				c0,1.5,0.3,2.4,1.5,2.4s1.5-0.9,1.5-2.4s-0.3-2.4-1.5-2.4S12.6,136.5,12.6,138L12.6,138z"/>
		</g>
		<g>
			<path class="st1" d="M20.8,141.2v-2.9h-2.6v2.9h-1v-6.4h1v2.6h2.6v-2.6h1v6.4H20.8z"/>
		</g>
		<g>
			<path class="st1" d="M26.3,138.3h-2.7v2h2.9v0.9h-3.9v-6.4h3.9v0.9h-2.9v1.8h2.6L26.3,138.3z"/>
		</g>
		<g>
			<path class="st1" d="M28.3,141.2h-1v-6.4h2.1c1.6,0,2.2,0.7,2.2,1.9c0.1,0.7-0.3,1.4-1,1.7l1.3,2.8h-1.1l-1.2-2.6h-1.3V141.2z
				 M28.3,137.7h1.3c0.9,0,1-0.5,1-1s-0.1-1-1-1h-1.3V137.7z"/>
		</g>
		<g>
			<path class="st1" d="M36.2,138.3h-2.6v2h2.9v0.9h-3.9v-6.4h3.9v0.9h-2.9v1.8h2.7L36.2,138.3z"/>
		</g>
		<g>
			<path class="st1" d="M41,141.2l-2.8-4.5v4.5h-1v-6.4h0.9l2.8,4.5v-4.5h0.9v6.4H41z"/>
		</g>
		<g>
			<path class="st1" d="M45.3,134.7c0.5,0,1,0.1,1.5,0.3v0.9c-0.5-0.2-0.9-0.3-1.4-0.3c-1.2,0-1.7,0.8-1.7,2.4s0.5,2.4,1.7,2.4
				c0.5,0,1-0.1,1.4-0.3v0.9c-0.5,0.2-1,0.3-1.5,0.3c-1.9,0-2.6-1.2-2.6-3.3S43.5,134.7,45.3,134.7z"/>
		</g>
		<g>
			<path class="st1" d="M51.3,138.3h-2.7v2h2.9v0.9h-3.9v-6.4h3.9v0.9h-2.9v1.8h2.7V138.3z"/>
		</g>
		<g>
			<path class="st1" d="M57.3,138.4h-2.6v2.8h-1v-6.4h3.8v0.9h-2.8v1.8h2.6V138.4z"/>
		</g>
		<g>
			<path class="st1" d="M58.1,138c0-1.8,0.4-3.3,2.5-3.3s2.5,1.5,2.5,3.3s-0.4,3.3-2.5,3.3S58.1,139.8,58.1,138z M59.1,138
				c0,1.5,0.3,2.4,1.5,2.4s1.4-0.9,1.4-2.4s-0.3-2.4-1.5-2.4S59,136.5,59.1,138L59.1,138z"/>
		</g>
		<g>
			<path class="st1" d="M64.7,141.2h-1v-6.4h2.1c1.7,0,2.2,0.7,2.2,1.9c0.1,0.7-0.3,1.4-1,1.7l1.3,2.8h-1.2l-1.2-2.6h-1.3V141.2z
				 M64.7,137.7h1.3c0.9,0,1-0.5,1-1s-0.1-1-1-1h-1.3V137.7z"/>
		</g>
		<g>
			<path class="st1" d="M11.1,148.3c0,1.2-0.7,2-2.4,2c-0.6,0-1.3-0.1-1.9-0.4V149c0.6,0.3,1.2,0.4,1.8,0.4c1.1,0,1.5-0.5,1.5-1.1
				s-0.3-0.9-1.2-1c-1.6-0.2-2.2-0.6-2.2-1.8c0-0.9,0.5-1.8,2.3-1.8c0.6,0,1.2,0.1,1.7,0.3v1c-0.5-0.2-1.1-0.3-1.7-0.3
				c-1,0-1.3,0.4-1.3,1s0.4,0.8,1.2,0.9C10.3,146.7,11.1,147,11.1,148.3z"/>
		</g>
		<g>
			<path class="st1" d="M11.8,148.2v-4.4h1v4.3c-0.1,0.7,0.4,1.2,1,1.3c0.1,0,0.2,0,0.3,0c0.6,0.1,1.3-0.3,1.4-1c0-0.1,0-0.2,0-0.3
				v-4.3h0.9v4.4c0.1,1.1-0.8,2.1-1.9,2.1c-0.1,0-0.3,0-0.4,0c-1.1,0.2-2.1-0.5-2.3-1.6C11.8,148.5,11.8,148.4,11.8,148.2z"/>
		</g>
		<g>
			<path class="st1" d="M21.4,148.3c0,1.2-0.7,2-2.4,2c-0.6,0-1.3-0.1-1.9-0.4V149c0.6,0.3,1.2,0.4,1.8,0.4c1.1,0,1.5-0.5,1.5-1.1
				s-0.3-0.9-1.1-1c-1.6-0.2-2.2-0.6-2.2-1.8c0-0.9,0.5-1.8,2.3-1.8c0.6,0,1.2,0.1,1.7,0.3v1c-0.5-0.2-1.1-0.3-1.7-0.3
				c-1,0-1.3,0.4-1.3,1s0.4,0.8,1.2,0.9C20.6,146.7,21.4,147,21.4,148.3z"/>
		</g>
		<g>
			<path class="st1" d="M24.1,144.7v5.5h-1v-5.5h-1.7v-0.9h4.3v0.9H24.1z"/>
		</g>
		<g>
			<path class="st1" d="M28.8,148.6h-2l-0.5,1.6h-1l2-6.4h1l2,6.4h-1L28.8,148.6z M27.8,145l-0.8,2.8h1.6L27.8,145z"/>
		</g>
		<g>
			<path class="st1" d="M31,150.2v-6.4h1v6.4H31z"/>
		</g>
		<g>
			<path class="st1" d="M36.7,150.2l-2.8-4.5v4.5H33v-6.4h0.9l2.8,4.5v-4.5h1v6.4H36.7z"/>
		</g>
		<g>
			<path class="st1" d="M41.6,148.6h-2l-0.5,1.6h-1l2-6.4h1l2,6.4h-1L41.6,148.6z M40.6,145l-0.8,2.8h1.6L40.6,145z"/>
		</g>
		<g>
			<path class="st1" d="M43.6,143.8h2.1c1.6,0,2,0.8,2,1.7c0,0.5-0.3,1-0.8,1.3c0.6,0.2,1.1,0.8,1,1.5c0,1.1-0.5,1.9-2.2,1.9h-2.2
				V143.8z M45.8,144.7h-1.2v1.8h1.2c0.4,0.1,0.9-0.2,0.9-0.7c0-0.1,0-0.1,0-0.2C46.8,145.2,46.6,144.7,45.8,144.7z M44.6,149.3h1.3
				c0.9,0,1.1-0.5,1.1-1s-0.3-1-1.1-1h-1.3V149.3z"/>
		</g>
		<g>
			<path class="st1" d="M49.7,149.3h2.8v0.9h-3.7v-6.4h1V149.3z"/>
		</g>
		<g>
			<path class="st1" d="M56.5,147.3h-2.6v2h2.9v0.9h-3.9v-6.4h3.9v0.9h-2.9v1.8h2.7L56.5,147.3z"/>
		</g>
		<g>
			<path class="st1" d="M6.9,159.2v-6.4h1.9c2.1,0,2.7,1.4,2.7,3.2s-0.6,3.2-2.7,3.2H6.9z M7.9,158.3h1c1.3,0,1.7-0.9,1.7-2.3
				s-0.4-2.3-1.7-2.3h-1L7.9,158.3z"/>
		</g>
		<g>
			<path class="st1" d="M15.8,156.3h-2.7v2h2.9v0.9h-3.9v-6.4h3.9v0.9h-2.9v1.8h2.7L15.8,156.3z"/>
		</g>
		<g>
			<path class="st1" d="M21.5,152.8l-2,6.4h-1l-2-6.4h1L19,158l1.5-5.2L21.5,152.8z"/>
		</g>
		<g>
			<path class="st1" d="M25.6,156.3H23v2h2.9v0.9H22v-6.4h3.9v0.9H23v1.8h2.6L25.6,156.3z"/>
		</g>
		<g>
			<path class="st1" d="M27.7,158.3h2.8v0.9h-3.7v-6.4h1L27.7,158.3z"/>
		</g>
		<g>
			<path class="st1" d="M30.5,156c0-1.8,0.4-3.3,2.5-3.3s2.5,1.5,2.5,3.3s-0.4,3.3-2.5,3.3S30.5,157.8,30.5,156z M31.5,156
				c0,1.5,0.3,2.4,1.5,2.4c1.2,0,1.5-0.9,1.5-2.4s-0.3-2.4-1.5-2.4S31.5,154.5,31.5,156L31.5,156z"/>
		</g>
		<g>
			<path class="st1" d="M37.1,159.2h-1v-6.4h2c1.6,0,2.2,0.9,2.2,2s-0.6,2-2.2,2h-1V159.2z M37.1,155.9h1.1c0.6,0.1,1.2-0.4,1.2-1
				s-0.4-1.2-1-1.2c-0.1,0-0.1,0-0.2,0h-1.1V155.9z"/>
		</g>
		<g>
			<path class="st1" d="M44.4,158.3h-0.9l-1.6-3.9v4.8H41v-6.4h1.2l1.7,4.3l1.7-4.3h1.2v6.4h-1l0-4.8L44.4,158.3z"/>
		</g>
		<g>
			<path class="st1" d="M51.4,156.3h-2.6v2h2.9v0.9h-3.9v-6.4h3.9v0.9h-2.9v1.8h2.7L51.4,156.3z"/>
		</g>
		<g>
			<path class="st1" d="M56.2,159.2l-2.8-4.5v4.5h-0.9v-6.4h0.9l2.8,4.5v-4.5h0.9v6.4H56.2z"/>
		</g>
		<g>
			<path class="st1" d="M60.2,153.7v5.5h-1v-5.5h-1.6v-0.9h4.3v0.9H60.2z"/>
		</g>
	</g>
	<g>
		<rect x="3.3" y="24" class="st1" width="94.8" height="94.8"/>
	</g>
	<g>
		<path class="st1" d="M98.2,20.7H3.3V3.3h94.8V20.7z M4.3,19.7h92.8V4.3H4.3L4.3,19.7z"/>
	</g>
	<g class="st2">
		<path class="st1" d="M6.7,6.9h4.5v1.4H9.9v8.8H8.1V8.3H6.7V6.9z"/>
	</g>
	<g class="st2">
		<path class="st1" d="M11.2,17.1l1.9-10.2h1.9L17,17.1h-1.8l-0.3-1.9h-1.8l-0.3,1.9H11.2z M13.3,13.9h1.4L14,9.8h0L13.3,13.9z"/>
	</g>
	<g class="st2">
		<path class="st1" d="M19.6,12.4v4.7h-1.7V6.9h2.5c1.7,0,2.4,0.9,2.4,2.3v1.3c0,1.1-0.4,1.7-1.4,2l1.6,4.6h-1.8L19.6,12.4z
			 M19.6,8.3v3.2h0.6c0.6,0,0.8-0.3,0.8-0.8V9.2c0-0.6-0.3-0.8-0.8-0.8H19.6z"/>
	</g>
	<g class="st2">
		<path class="st1" d="M26.4,11.7h2.4v5.4h-1.2V16c-0.2,0.8-0.7,1.2-1.6,1.2c-1.5,0-2.1-1.2-2.1-2.7V9.6c0-1.6,0.8-2.7,2.6-2.7
			c1.9,0,2.4,1.1,2.4,2.6v0.9h-1.6v-1c0-0.6-0.2-1-0.9-1c-0.6,0-0.9,0.4-0.9,1v5.5c0,0.6,0.3,1,0.8,1c0.6,0,0.8-0.3,0.8-1V13h-0.8
			V11.7z"/>
	</g>
	<g class="st2">
		<path class="st1" d="M30.2,6.9h4.1v1.4h-2.4v2.9h1.7v1.4h-1.7v3.1h2.4v1.4h-4.1V6.9z"/>
	</g>
	<g class="st2">
		<path class="st1" d="M35.1,6.9h4.5v1.4h-1.4v8.8h-1.7V8.3h-1.4V6.9z"/>
	</g>
	<g class="st2">
		<path class="st1" d="M74.1,6.9v10.2h-1.7V9.3h0l-1.2,1.2h0V8.8l1.6-1.8H74.1z"/>
		<path class="st1" d="M75.3,6.9h4.3v1.6l-2.2,8.6h-1.7l2.3-8.8h-2.6V6.9z"/>
	</g>
	<g class="st2">
	</g>
	<g class="st2">
		<path class="st1" d="M82.3,10.8c0.7,0,1.2,0.6,1.2,1.2c0,0.7-0.6,1.2-1.2,1.2c-0.7,0-1.2-0.6-1.2-1.2
			C81.1,11.4,81.7,10.8,82.3,10.8z"/>
	</g>
	<g class="st2">
		<path class="st1" d="M88,6.9v10.2h-1.7V9.3h0l-1.2,1.2h0V8.8l1.6-1.8H88z"/>
	</g>
	<g class="st2">
		<path class="st1" d="M89.1,14.4l3-7.5h1.7v7.2h0.7v1.3h-0.7v1.7h-1.6v-1.7h-3V14.4z M90.6,14.1h1.5V9.9h0L90.6,14.1z"/>
	</g>
	<g>
		<g>
			<g>
				<g>
					<path class="st0" d="M43.5,67.9c0.4-0.6,0.8-1.2,1.3-1.7l-4.4-4.8c-1.1,1.1-2.1,2.3-2.8,3.7L43.5,67.9z"/>
				</g>
				<g>
					<path class="st0" d="M54.2,64.5c0.7,0.3,1.3,0.7,1.8,1.2l4.4-4.8c-1.2-1-2.5-1.8-3.9-2.4L54.2,64.5z"/>
				</g>
				<g>
					<path class="st0" d="M64.3,65.9l-5.8,2.9c0.3,0.7,0.5,1.4,0.6,2.1l6.5-0.6C65.4,68.8,65,67.3,64.3,65.9"/>
				</g>
				<g>
					<path class="st0" d="M58.1,68l5.8-2.9c-0.7-1.3-1.7-2.6-2.7-3.6l-4.4,4.8C57.3,66.8,57.7,67.4,58.1,68"/>
				</g>
				<g>
					<path class="st0" d="M42.3,72.2c0-0.1,0-0.3,0-0.4l-6.5-0.6c0,0.3,0,0.7,0,1c0,1.2,0.1,2.4,0.4,3.6l6.3-1.8
						C42.4,73.4,42.3,72.8,42.3,72.2"/>
				</g>
				<g>
					<path class="st0" d="M57.3,77.5c-0.5,0.6-1,1.1-1.6,1.5l3.4,5.6c1.3-0.9,2.4-1.9,3.4-3.1L57.3,77.5z"/>
				</g>
				<g>
					<path class="st0" d="M59.2,72.2c0,0.6,0,1.2-0.2,1.8l6.3,1.8c0.3-1.2,0.4-2.4,0.4-3.6c0-0.3,0-0.6,0-0.9l-6.5,0.6
						C59.2,72,59.2,72.1,59.2,72.2"/>
				</g>
				<g>
					<path class="st0" d="M44.3,77.6l-5.2,4c1,1.2,2.1,2.2,3.4,3.1l3.5-5.6C45.4,78.7,44.8,78.2,44.3,77.6"/>
				</g>
				<g>
					<path class="st0" d="M42.4,70.8c0.1-0.7,0.3-1.4,0.6-2.1l-5.8-2.9c-0.7,1.4-1.1,2.9-1.3,4.4L42.4,70.8z"/>
				</g>
				<g>
					<path class="st0" d="M58.3,85.1l-3.4-5.6c-0.6,0.4-1.3,0.6-2,0.8l1.2,6.4C55.6,86.4,57,85.8,58.3,85.1"/>
				</g>
				<g>
					<path class="st0" d="M58.7,74.9c-0.2,0.7-0.5,1.3-0.9,1.9l5.2,3.9c0.9-1.2,1.5-2.6,2-4L58.7,74.9z"/>
				</g>
				<g>
					<path class="st0" d="M52,80.5c-0.4,0.1-0.8,0.1-1.2,0.1c-0.3,0-0.7,0-1-0.1L48.5,87c0.7,0.1,1.5,0.2,2.2,0.2
						c0.8,0,1.6-0.1,2.4-0.2L52,80.5z"/>
				</g>
				<g>
					<path class="st0" d="M51.3,63.7c0.7,0,1.4,0.2,2.1,0.4l2.3-6.1c-1.4-0.5-2.9-0.8-4.4-0.8V63.7z"/>
				</g>
				<g>
					<path class="st0" d="M48.8,80.4c-0.7-0.2-1.4-0.4-2.1-0.8l-3.4,5.6c1.3,0.8,2.8,1.3,4.3,1.6L48.8,80.4z"/>
				</g>
				<g>
					<path class="st0" d="M48.2,64.1c0.7-0.2,1.4-0.3,2.1-0.4v-6.5c-1.5,0-3.1,0.3-4.5,0.8L48.2,64.1z"/>
				</g>
				<g>
					<path class="st0" d="M43.8,76.9c-0.4-0.6-0.8-1.3-1-2l-6.3,1.8c0.5,1.5,1.2,2.9,2.1,4.1L43.8,76.9z"/>
				</g>
				<g>
					<path class="st0" d="M45.5,65.5c0.6-0.4,1.2-0.8,1.8-1.1L45,58.4c-1.4,0.6-2.7,1.4-3.8,2.4L45.5,65.5z"/>
				</g>
			</g>
			<g>
				<g>
					<polygon class="st0" points="74.6,63.8 73.6,63.8 73.6,83.1 87.8,83.1 87.8,81.9 74.6,81.9 					"/>
				</g>
				<g>
					<path class="st0" d="M75.7,61.4v19.3h13.8V61.4H75.7z M87.9,78.1L87.9,78.1C87.9,78.2,87.9,78.2,87.9,78.1l-10.4,0.1
						c-0.1,0-0.1,0-0.1-0.1v-1.6c0,0,0-0.1,0.1-0.1h10.3c0,0,0.1,0,0.1,0.1l0,0L87.9,78.1z M87.9,75L87.9,75
						C87.9,75.1,87.8,75.1,87.9,75l-10.4,0.1c0,0-0.1,0-0.1-0.1v-1.6c0-0.1,0-0.1,0.1-0.1h10.3c0,0,0.1,0,0.1,0.1l0,0L87.9,75z
						 M87.9,72L87.9,72C87.9,72,87.9,72,87.9,72L77.5,72c-0.1,0-0.1,0-0.1-0.1v-1.6c0,0,0-0.1,0.1-0.1c0,0,0,0,0,0h10.2
						c0,0,0.1,0,0.1,0l0,0L87.9,72z"/>
				</g>
			</g>
			<g>
				<g>
					<polygon class="st0" points="12.9,63.8 11.9,63.8 11.9,83.1 26.2,83.1 26.2,81.9 12.9,81.9 					"/>
				</g>
				<g>
					<path class="st0" d="M14,61.4v19.3h13.9V61.4H14z M26.2,78.1L26.2,78.1C26.2,78.2,26.2,78.2,26.2,78.1l-10.4,0.1
						c-0.1,0-0.1,0-0.1-0.1v-1.6c0,0,0-0.1,0.1-0.1c0,0,0,0,0,0h10.2c0,0,0.1,0,0.1,0.1l0,0L26.2,78.1z M26.2,75L26.2,75
						C26.2,75.1,26.1,75.1,26.2,75l-10.4,0.1c0,0-0.1,0-0.1-0.1c0,0,0,0,0,0v-1.6c0-0.1,0-0.1,0.1-0.1h10.2c0,0,0.1,0,0.1,0.1l0,0
						L26.2,75z M26.2,72L26.2,72C26.2,72,26.2,72,26.2,72L15.8,72c-0.1,0-0.1,0-0.1-0.1v-1.6c0-0.1,0-0.1,0.1-0.1h10.2
						c0,0,0.1,0,0.1,0l0,0L26.2,72z"/>
				</g>
			</g>
		</g>
		<g>
			<path class="st0" d="M73.3,97.4l-2.8-2.2c-0.2-0.2-0.6-0.3-0.8,0c0,0,0,0,0,0l0,0c-8.8,10.5-24,11.6-34.8,3
				c-0.3-0.3-0.6-0.5-0.9-0.8l3.2-2c0.3-0.2-0.1-0.5-0.1-0.5l-10.8-5.4c-0.3-0.2-0.4,0-0.4,0.2v0.1l0,0L25.7,102
				c0,0.1,0.1,0.4,0.4,0.2l0,0l3.5-2.2c0.7,0.7,1.4,1.3,2.2,1.9c12.8,10.3,30.9,8.9,41.5-3.5l0.1-0.1C73.6,98.1,73.6,97.7,73.3,97.4
				C73.3,97.4,73.3,97.4,73.3,97.4z"/>
		</g>
		<g>
			<path class="st0" d="M25.8,46.8l2.9,2.1c0.2,0.2,0.6,0.2,0.8-0.1c0,0,0,0,0,0l0,0c8.2-11,23.3-13,34.5-5c0.3,0.2,0.7,0.5,1,0.8
				l-3,2.2c-0.3,0.2,0.2,0.5,0.2,0.5L73.4,52c0.3,0.2,0.4-0.1,0.4-0.2v-0.1l0,0l-0.7-12.3c0-0.1-0.1-0.4-0.4-0.2l0,0l-3.4,2.4
				c-0.7-0.6-1.5-1.2-2.3-1.8c-13.4-9.5-31.4-7.1-41.2,5.9l-0.1,0.1C25.5,46.2,25.5,46.6,25.8,46.8C25.8,46.8,25.8,46.8,25.8,46.8z"
				/>
		</g>
	</g>
	<g>
		<path class="st1" d="M98.2,162.9h-95v-40.8h95V162.9z M4.2,161.9h93v-38.8h-93V161.9z"/>
	</g>
</g>
</svg>
