<?xml version="1.0" encoding="utf-8"?>
<!-- Generator: Adobe Illustrator 22.0.1, SVG Export Plug-In . SVG Version: 6.00 Build 0)  -->
<svg version="1.1" id="Layer_1" xmlns="http://www.w3.org/2000/svg" xmlns:xlink="http://www.w3.org/1999/xlink" x="0px" y="0px"
	 viewBox="0 0 101.5 148.1" style="enable-background:new 0 0 101.5 148.1;" xml:space="preserve">
<style type="text/css">
	.st0{fill:#FFFFFF;}
	.st1{fill:#19486A;}
	.st2{enable-background:new    ;}
</style>
<title>TARGET 1 B copy 20</title>
<g id="WHITE_BG">
	<g>
		<rect y="0" class="st0" width="101.5" height="148.1"/>
	</g>
</g>
<g id="TARGETS">
	<g>
		<g>
			<path class="st1" d="M10.5,129.3H7.8v2h2.9v0.9H6.9v-6.4h3.9v0.9H7.8v1.8h2.6V129.3z"/>
		</g>
		<g>
			<path class="st1" d="M15.3,132.2l-2.8-4.5v4.5h-0.9v-6.4h0.9l2.8,4.5v-4.5h0.9v6.4H15.3z"/>
		</g>
		<g>
			<path class="st1" d="M20.6,132.2v-2.9h-2.6v2.9h-1v-6.4h1v2.6h2.6v-2.6h1v6.4H20.6z"/>
		</g>
		<g>
			<path class="st1" d="M25.6,130.6h-2l-0.5,1.6h-1l2-6.4h1l2,6.4h-1L25.6,130.6z M24.6,127l-0.8,2.8h1.6L24.6,127z"/>
		</g>
		<g>
			<path class="st1" d="M31.3,132.2l-2.8-4.5v4.5h-0.9v-6.4h0.9l2.8,4.5v-4.5h0.9v6.4H31.3z"/>
		</g>
		<g>
			<path class="st1" d="M35.7,125.7c0.5,0,1,0.1,1.5,0.3v0.9c-0.5-0.2-0.9-0.3-1.4-0.3c-1.2,0-1.7,0.8-1.7,2.4s0.5,2.4,1.7,2.4
				c0.5,0,1-0.1,1.4-0.3v0.9c-0.5,0.2-1,0.3-1.5,0.3c-1.9,0-2.6-1.2-2.6-3.3S33.8,125.7,35.7,125.7z"/>
		</g>
		<g>
			<path class="st1" d="M41.7,129.3H39v2h2.9v0.9h-3.8v-6.4h3.9v0.9H39v1.8h2.7L41.7,129.3z"/>
		</g>
		<g>
			<path class="st1" d="M47.4,130.6h-2l-0.5,1.6h-1l2-6.4h1l2,6.4h-1L47.4,130.6z M46.4,127l-0.8,2.8h1.6L46.4,127z"/>
		</g>
		<g>
			<path class="st1" d="M53.3,125.8l-2,6.4h-1l-2-6.4h1l1.5,5.2l1.5-5.2L53.3,125.8z"/>
		</g>
		<g>
			<path class="st1" d="M56.3,130.6h-2l-0.5,1.6h-1l2-6.4h1l2,6.4h-1L56.3,130.6z M55.3,127l-0.8,2.8h1.6L55.3,127z"/>
		</g>
		<g>
			<path class="st1" d="M58.4,132.2v-6.4h1v6.4H58.4z"/>
		</g>
		<g>
			<path class="st1" d="M61.4,131.3h2.8v0.9h-3.7v-6.4h1L61.4,131.3z"/>
		</g>
		<g>
			<path class="st1" d="M67.9,130.6h-2l-0.4,1.6h-1l2-6.4h1l2,6.4h-1L67.9,130.6z M66.9,127l-0.8,2.8h1.6L66.9,127z"/>
		</g>
		<g>
			<path class="st1" d="M69.9,125.8h2.2c1.6,0,2,0.8,2,1.7c0,0.5-0.3,1-0.8,1.3c0.6,0.2,1.1,0.8,1,1.5c0,1.1-0.5,1.9-2.2,1.9H70
				L69.9,125.8z M72.1,126.7h-1.2v1.8h1.2c0.8,0,1-0.5,1-0.9S72.9,126.7,72.1,126.7z M70.9,131.3h1.3c0.9,0,1.1-0.5,1.1-1
				s-0.3-1-1.1-1h-1.3V131.3z"/>
		</g>
		<g>
			<path class="st1" d="M75.2,132.2v-6.4h1v6.4H75.2z"/>
		</g>
		<g>
			<path class="st1" d="M78.2,131.3h2.8v0.9h-3.7v-6.4h1L78.2,131.3z"/>
		</g>
		<g>
			<path class="st1" d="M81.6,132.2v-6.4h1v6.4H81.6z"/>
		</g>
		<g>
			<path class="st1" d="M85.8,126.7v5.5h-1v-5.5h-1.6v-0.9h4.3v0.9H85.8z"/>
		</g>
		<g>
			<path class="st1" d="M90.8,129.6v2.6h-1v-2.6l-2.2-3.8h1.1l1.6,3l1.6-3H93L90.8,129.6z"/>
		</g>
		<g>
			<path class="st1" d="M6.8,138c0-1.8,0.4-3.3,2.5-3.3s2.5,1.5,2.5,3.3s-0.4,3.3-2.5,3.3S6.8,139.8,6.8,138z M7.8,138
				c0,1.5,0.3,2.4,1.5,2.4s1.5-0.9,1.5-2.4s-0.3-2.4-1.5-2.4S7.8,136.5,7.8,138L7.8,138z"/>
		</g>
		<g>
			<path class="st1" d="M16,138.4h-2.6v2.8h-0.9v-6.4h3.8v0.9h-2.9v1.8H16V138.4z"/>
		</g>
		<g>
			<path class="st1" d="M19.3,141.2h-1v-6.4h2.1c1.6,0,2.2,0.7,2.2,1.9c0.1,0.7-0.3,1.4-1,1.7l1.3,2.8h-1.1l-1.2-2.6h-1.3V141.2z
				 M19.3,137.7h1.3c0.9,0,1-0.5,1-1s-0.1-1-1-1h-1.3V137.7z"/>
		</g>
		<g>
			<path class="st1" d="M27,138.3h-2.6v2h2.9v0.9h-3.9v-6.4h3.9v0.9h-2.9v1.8H27V138.3z"/>
		</g>
		<g>
			<path class="st1" d="M29.1,140.3h2.8v0.9h-3.7v-6.4h1V140.3z"/>
		</g>
		<g>
			<path class="st1" d="M32.6,141.2v-6.4h1v6.4H32.6z"/>
		</g>
		<g>
			<path class="st1" d="M37.8,139.6h-2l-0.5,1.6h-1l2-6.4h1l2,6.4h-1L37.8,139.6z M36.8,136l-0.8,2.8h1.6L36.8,136z"/>
		</g>
		<g>
			<path class="st1" d="M39.8,134.8h2.2c1.5,0,2,0.8,2,1.7c0,0.5-0.3,1-0.8,1.3c0.6,0.2,1.1,0.8,1,1.5c0,1.1-0.5,1.9-2.2,1.9h-2.2
				L39.8,134.8z M41.9,135.7h-1.2v1.8H42c0.4,0.1,0.9-0.2,0.9-0.7c0-0.1,0-0.1,0-0.2C42.9,136.2,42.8,135.7,41.9,135.7L41.9,135.7z
				 M40.7,140.3H42c0.9,0,1.1-0.5,1.1-1s-0.3-1-1.1-1h-1.3L40.7,140.3z"/>
		</g>
		<g>
			<path class="st1" d="M45.8,140.3h2.8v0.9h-3.7v-6.4h1L45.8,140.3z"/>
		</g>
		<g>
			<path class="st1" d="M52.7,138.3h-2.6v2H53v0.9h-3.9v-6.4H53v0.9h-2.9v1.8h2.7L52.7,138.3z"/>
		</g>
		<g>
			<path class="st1" d="M55.2,141.2v-6.4h1.9c2.1,0,2.7,1.4,2.7,3.2s-0.6,3.2-2.7,3.2H55.2z M56.2,140.3h1c1.3,0,1.7-0.9,1.7-2.3
				s-0.4-2.3-1.7-2.3h-1V140.3z"/>
		</g>
		<g>
			<path class="st1" d="M63.4,139.6h-2l-0.5,1.6h-1l2-6.4h1l2,6.4h-1L63.4,139.6z M62.4,136l-0.8,2.8h1.6L62.4,136z"/>
		</g>
		<g>
			<path class="st1" d="M66.9,135.7v5.5H66v-5.5h-1.7v-0.9h4.3v0.9H66.9z"/>
		</g>
		<g>
			<path class="st1" d="M71.6,139.6h-2l-0.5,1.6h-1l2-6.4h1l2,6.4h-1L71.6,139.6z M70.6,136l-0.8,2.8h1.6L70.6,136z"/>
		</g>
	</g>
	<g>
		<rect x="3.3" y="24" class="st1" width="94.8" height="94.8"/>
	</g>
	<g>
		<path class="st1" d="M98.2,20.7H3.3V3.3h94.8V20.7z M4.3,19.7h92.8V4.3H4.3L4.3,19.7z"/>
	</g>
	<g class="st2">
		<path class="st1" d="M6.7,6.9h4.5v1.4H9.9v8.8H8.1V8.3H6.7V6.9z"/>
	</g>
	<g class="st2">
		<path class="st1" d="M11.2,17.1l1.9-10.2h1.9L17,17.1h-1.8l-0.3-1.9h-1.8l-0.3,1.9H11.2z M13.3,13.9h1.4L14,9.8h0L13.3,13.9z"/>
	</g>
	<g class="st2">
		<path class="st1" d="M19.6,12.4v4.7h-1.7V6.9h2.5c1.7,0,2.4,0.9,2.4,2.3v1.3c0,1.1-0.4,1.7-1.4,2l1.6,4.6h-1.8L19.6,12.4z
			 M19.6,8.3v3.2h0.6c0.6,0,0.8-0.3,0.8-0.8V9.2c0-0.6-0.3-0.8-0.8-0.8H19.6z"/>
	</g>
	<g class="st2">
		<path class="st1" d="M26.4,11.7h2.4v5.4h-1.2V16c-0.2,0.8-0.7,1.2-1.6,1.2c-1.5,0-2.1-1.2-2.1-2.7V9.6c0-1.6,0.8-2.7,2.6-2.7
			c1.9,0,2.4,1.1,2.4,2.6v0.9h-1.6v-1c0-0.6-0.2-1-0.9-1c-0.6,0-0.9,0.4-0.9,1v5.5c0,0.6,0.3,1,0.8,1c0.6,0,0.8-0.3,0.8-1V13h-0.8
			V11.7z"/>
	</g>
	<g class="st2">
		<path class="st1" d="M30.2,6.9h4.1v1.4h-2.4v2.9h1.7v1.4h-1.7v3.1h2.4v1.4h-4.1V6.9z"/>
	</g>
	<g class="st2">
		<path class="st1" d="M35.1,6.9h4.5v1.4h-1.4v8.8h-1.7V8.3h-1.4V6.9z"/>
	</g>
	<g>
		<path class="st1" d="M98.2,144.9h-95v-22.8h95V144.9z M4.2,143.9h93v-20.8h-93V143.9z"/>
	</g>
	<g class="st2">
		<path class="st1" d="M74,6.9v10.2h-1.7V9.3h0l-1.2,1.2h0V8.8l1.6-1.8H74z"/>
		<path class="st1" d="M75.2,6.9h4.3v1.6l-2.2,8.6h-1.7l2.3-8.8h-2.6V6.9z"/>
	</g>
	<g class="st2">
	</g>
	<g class="st2">
		<path class="st1" d="M82.3,10.8c0.7,0,1.2,0.6,1.2,1.2c0,0.7-0.6,1.2-1.2,1.2c-0.7,0-1.2-0.6-1.2-1.2C81,11.4,81.6,10.8,82.3,10.8
			z"/>
	</g>
	<g class="st2">
		<path class="st1" d="M87.9,6.9v10.2h-1.7V9.3h0L85,10.6h0V8.8l1.6-1.8H87.9z"/>
		<path class="st1" d="M89.3,14.6v-1.1c0-1,0.3-1.7,1.1-2c-0.7-0.3-1-0.9-1-1.8V9.3c0-1.6,0.8-2.4,2.4-2.4c1.6,0,2.4,0.9,2.4,2.4
			v0.4c0,0.8-0.3,1.4-1,1.8c0.8,0.4,1.1,1.1,1.1,2v1.1c0,1.5-0.7,2.6-2.5,2.6C90.1,17.2,89.3,16.2,89.3,14.6z M92.7,14.8v-1.6
			c0-0.6-0.2-1-0.8-1c-0.6,0-0.8,0.4-0.8,1v1.6c0,0.6,0.2,1,0.8,1C92.5,15.8,92.7,15.4,92.7,14.8z M92.6,9.9V9.2c0-0.6-0.2-1-0.8-1
			c-0.6,0-0.8,0.4-0.8,1v0.7c0,0.6,0.2,1,0.8,1C92.4,10.8,92.6,10.5,92.6,9.9z"/>
	</g>
	<g>
		<path class="st0" d="M50.9,31.5c-22.2-0.1-40.2,17.8-40.3,40s17.8,40.2,40,40.3c22.2,0.1,40.2-17.8,40.3-40
			C91,49.7,73.1,31.6,50.9,31.5z M45.9,32.6c-5,2.2-9.3,7.8-12.3,15.4C33.3,48,33.1,48,32.8,48c-1.7,0-3.3,1-3.9,2.7
			c-3.2-0.8-6.3-1.8-9.3-3C26,39.3,35.5,33.9,45.9,32.6z M27,71.8c0.1,1.4,1.2,2.5,2.5,2.6c0.1,4.4,0.7,8.9,1.7,13.2
			c-0.6,0.3-1.1,0.7-1.5,1.3L12.4,71.8L27,71.8z M12.5,71l17-16.2c0.4,0.6,1,1,1.7,1.3c-0.9,4.2-1.5,8.4-1.6,12.7
			c-1.2,0.1-2.2,1.1-2.5,2.3H12.5z M30.3,74.4c1.3-0.2,2.3-1.3,2.4-2.6h12.2c0,1.2,0.4,2.3,1.2,3.3L34.4,87.9
			c-0.5-0.3-1.2-0.5-1.8-0.5c-0.2,0-0.5,0-0.7,0.1C31,83.1,30.4,78.8,30.3,74.4z M44.9,71.1H32.7c-0.2-1.2-1.2-2.1-2.4-2.3
			c0.2-4.2,0.7-8.4,1.6-12.5c0.3,0.1,0.6,0.1,0.8,0.1c0.8,0,1.5-0.2,2.2-0.6L47,67.2C45.8,68.2,45.1,69.6,44.9,71.1z M19.1,48.3
			c3.1,1.3,6.3,2.3,9.5,3.1c-0.1,0.2-0.1,0.5-0.1,0.8c0,0.7,0.2,1.3,0.5,1.9L11.4,70.9C11.6,62.8,14.3,54.9,19.1,48.3z M11.4,71.9
			l17.9,17.8c-0.1,0.3-0.2,0.7-0.2,1.1c0,0.2,0,0.3,0,0.5c-3.5,0.9-7,2.1-10.3,3.5C14.1,88.1,11.4,80.1,11.4,71.9z M19.4,95.4
			c3.2-1.4,6.6-2.5,10-3.4c0.5,1.3,1.8,2.2,3.2,2.2c0.2,0,0.3,0,0.5,0c2.9,8.1,7.3,14.1,12.5,16.5C35.2,109.3,25.7,103.8,19.4,95.4
			L19.4,95.4z M50.2,111c-6.8-0.3-12.8-6.9-16.4-17c0.5-0.2,1-0.6,1.4-1l12.6,7.6c0.1,1.4,1.1,2.5,2.5,2.7L50.2,111z M50.2,97.7
			c-1.2,0.2-2.1,1-2.4,2.1l-12.2-7.4c0.3-0.5,0.4-1,0.4-1.6c0-0.1,0-0.2,0-0.2c4.7-0.8,9.5-1.2,14.2-1.2L50.2,97.7z M50.2,88.5
			c-4.8,0-9.6,0.4-14.4,1.2c-0.2-0.5-0.4-1-0.8-1.4l11.6-12.6c1,1,2.3,1.6,3.7,1.7L50.2,88.5z M50.3,65.9c-1,0-1.9,0.3-2.7,0.9
			l-12-11.5c0.7-0.6,1.1-1.4,1.3-2.3c4.5,0.7,9,1.1,13.5,1.1L50.3,65.9z M50.3,53.3c-4.5,0-8.9-0.4-13.3-1.1l0,0
			c0-0.8-0.2-1.5-0.6-2.2L48,42.7c0.3,1.2,1.3,2,2.5,2.1L50.3,53.3z M50.3,39.1c-1.4,0.1-2.5,1.3-2.6,2.7l-12,7.6
			c-0.4-0.5-1-0.9-1.5-1.1c3.8-9.5,9.7-15.7,16.3-16L50.3,39.1z M90.1,70.6L71.7,53.4c0.1-0.4,0.2-0.7,0.2-1.1c0-0.2,0-0.3,0-0.5
			c3.6-0.8,7.2-1.8,10.7-3.2C87.2,55.1,89.8,62.7,90.1,70.6z M71.2,68.8C70,69,69,69.9,68.8,71.1H56.4c-0.1-1.1-0.5-2.1-1.2-2.9
			L67.3,55c0.5,0.3,1,0.4,1.5,0.4c0.2,0,0.4,0,0.6-0.1C70.5,59.8,71.1,64.3,71.2,68.8z M70.2,55.1c0.5-0.2,0.9-0.6,1.2-1l18.1,17
			h-15c-0.2-1.2-1.2-2.2-2.5-2.3C71.9,64.2,71.2,59.6,70.2,55.1L70.2,55.1z M56.4,71.9h12.4c0.1,1.3,1.1,2.4,2.4,2.6
			c-0.2,4.1-0.7,8.2-1.6,12.3c-0.1,0-0.2,0-0.2,0c-0.8,0-1.6,0.2-2.2,0.7L55.2,75.2C56,74.2,56.4,73.1,56.4,71.9z M72,74.5
			c1.3-0.1,2.4-1.2,2.5-2.6h15L73,88.9c-0.6-1-1.5-1.7-2.6-2C71.3,82.8,71.8,78.7,72,74.5z M82.1,48c-3.4,1.3-6.9,2.3-10.4,3.1
			c-0.5-1.1-1.6-1.9-2.8-1.9c-0.1,0-0.2,0-0.4,0c-2.9-8.1-7.4-14.1-12.6-16.5C66.3,34.1,75.8,39.6,82.1,48z M51.3,32.4
			c6.8,0.3,12.8,7,16.4,17.1c-0.5,0.2-0.9,0.5-1.2,0.9l-12.8-8.4c-0.1-1.3-1-2.5-2.4-2.7L51.3,32.4z M51.3,44.8c1.1-0.2,2-1,2.3-2.1
			L66,51c-0.2,0.4-0.3,0.8-0.3,1.2c-4.8,0.7-9.6,1.1-14.5,1.1L51.3,44.8z M51.3,54.1c4.8,0,9.7-0.4,14.5-1.1
			c0.1,0.6,0.4,1.2,0.9,1.6l-11.9,13c-1-1-2.2-1.5-3.6-1.7L51.3,54.1z M51.2,77.4c1.4-0.1,2.6-0.7,3.6-1.7l11.8,12.1
			c-0.6,0.5-1,1.2-1.2,2c-4.7-0.9-9.5-1.3-14.2-1.4L51.2,77.4z M51.2,89.3c4.7,0.1,9.4,0.5,14,1.4c0,0.1,0,0.2,0,0.2
			c0,0.5,0.1,1.1,0.3,1.6l-12.1,7.3c-0.3-1.1-1.3-2-2.4-2.1L51.2,89.3z M51.1,103.3c1.4-0.2,2.4-1.3,2.5-2.7L66,93.2
			c0.4,0.6,0.9,1,1.5,1.3c-3.8,9.8-9.8,16.2-16.5,16.5L51.1,103.3z M55.7,110.6c5.1-2.3,9.5-8,12.5-15.8c0.4,0.1,0.9,0.2,1.3,0.2
			c1.7,0,3.2-1,3.9-2.5c2.9,0.8,5.8,1.9,8.6,3.1c-6.4,8.3-15.9,13.7-26.4,15L55.7,110.6z M73.5,91.8c0.1-0.3,0.1-0.6,0.1-0.9
			c0-0.4-0.1-0.9-0.2-1.3l16.7-17.1c-0.2,8.1-2.9,16-7.7,22.5C79.5,93.8,76.5,92.7,73.5,91.8z"/>
	</g>
</g>
</svg>
