<?xml version="1.0" encoding="utf-8"?>
<!-- Generator: Adobe Illustrator 22.0.1, SVG Export Plug-In . SVG Version: 6.00 Build 0)  -->
<svg version="1.1" id="Layer_1" xmlns="http://www.w3.org/2000/svg" xmlns:xlink="http://www.w3.org/1999/xlink" x="0px" y="0px"
	 viewBox="0 0 101.5 157" style="enable-background:new 0 0 101.5 157;" xml:space="preserve">
<style type="text/css">
	.st0{fill:#FFFFFF;}
	.st1{fill:#19486A;}
	.st2{enable-background:new    ;}
</style>
<title>TARGET 1.3 copy</title>
<g id="WHITE_BG">
	<g>
		<rect y="-0.1" class="st0" width="101.5" height="157.1"/>
	</g>
</g>
<g id="TARGETS">
	<g>
		<g>
			<path class="st1" d="M7.8,132.2h-1v-6.4H9c1.6,0,2.2,0.7,2.2,1.9c0.1,0.7-0.3,1.4-1,1.7l1.3,2.8h-1.2l-1.1-2.6H7.8V132.2z
				 M7.8,128.7h1.3c0.9,0,1-0.5,1-1s-0.1-1-1-1H7.8V128.7z"/>
		</g>
		<g>
			<path class="st1" d="M15.7,129.3H13v2h3v0.9h-3.9v-6.4H16v0.9h-3v1.8h2.7L15.7,129.3z"/>
		</g>
		<g>
			<path class="st1" d="M20.2,131.3h-0.9l-1.6-3.9v4.8h-0.9v-6.4H18l1.7,4.3l1.7-4.3h1.3v6.4h-1v-4.8L20.2,131.3z"/>
		</g>
		<g>
			<path class="st1" d="M23.6,129c0-1.8,0.4-3.3,2.5-3.3s2.5,1.5,2.5,3.3s-0.4,3.3-2.5,3.3S23.6,130.8,23.6,129z M24.6,129
				c0,1.5,0.3,2.4,1.5,2.4s1.5-0.9,1.5-2.4s-0.3-2.4-1.5-2.4S24.5,127.5,24.6,129L24.6,129z"/>
		</g>
		<g>
			<path class="st1" d="M33.8,125.8l-2,6.4h-1l-2-6.4h1l1.5,5.2l1.5-5.2L33.8,125.8z"/>
		</g>
		<g>
			<path class="st1" d="M37.9,129.3h-2.7v2h2.9v0.9h-3.9v-6.4h3.9v0.9h-2.9v1.8h2.7V129.3z"/>
		</g>
		<g>
			<path class="st1" d="M42.4,126.7v5.5h-1v-5.5h-1.6v-0.9h4.3v0.9L42.4,126.7z"/>
		</g>
		<g>
			<path class="st1" d="M45.7,132.2h-1v-6.4h2.1c1.7,0,2.2,0.7,2.2,1.9c0.1,0.7-0.3,1.4-1,1.7l1.3,2.8h-1.2l-1.2-2.6h-1.3V132.2z
				 M45.7,128.7H47c0.9,0,1-0.5,1-1s-0.1-1-1-1h-1.3V128.7z"/>
		</g>
		<g>
			<path class="st1" d="M53,130.6h-2l-0.5,1.6h-1l2-6.4h1l2,6.4h-1L53,130.6z M52,127l-0.8,2.8h1.6L52,127z"/>
		</g>
		<g>
			<path class="st1" d="M55,132.2v-6.4h1.9c2.1,0,2.7,1.4,2.7,3.2s-0.6,3.2-2.7,3.2H55z M56,131.3h1c1.3,0,1.7-0.9,1.7-2.3
				s-0.4-2.3-1.7-2.3h-1V131.3z"/>
		</g>
		<g>
			<path class="st1" d="M64,129.3h-2.7v2h2.9v0.9h-3.9v-6.4h3.9v0.9h-2.9v1.8H64V129.3z"/>
		</g>
		<g>
			<path class="st1" d="M6.9,134.8H9c1.6,0,2,0.8,2,1.7c0,0.5-0.3,1-0.8,1.3c0.6,0.2,1.1,0.8,1,1.5c0,1-0.5,1.9-2.2,1.9H6.9V134.8z
				 M9.1,135.7H7.8v1.8h1.2c0.8,0,0.9-0.5,0.9-0.9S9.9,135.7,9.1,135.7z M7.8,140.3h1.3c0.9,0,1.1-0.5,1.1-1s-0.3-1-1.1-1H7.8
				L7.8,140.3z"/>
		</g>
		<g>
			<path class="st1" d="M15.1,139.6H13l-0.5,1.6h-1l2-6.4h1l2,6.4h-1L15.1,139.6z M14.1,136l-0.8,2.8h1.6L14.1,136z"/>
		</g>
		<g>
			<path class="st1" d="M18,141.2h-1v-6.4h2.1c1.6,0,2.2,0.7,2.2,1.9c0.1,0.7-0.3,1.4-1,1.7l1.3,2.8h-1.1l-1.2-2.6H18V141.2z
				 M18,137.7h1.3c0.9,0,1-0.5,1-1s-0.1-1-1-1H18V137.7z"/>
		</g>
		<g>
			<path class="st1" d="M23.2,141.2h-1v-6.4h2.1c1.6,0,2.2,0.7,2.2,1.9c0.1,0.7-0.3,1.4-1,1.7l1.3,2.8h-1.1l-1.2-2.6h-1.3V141.2z
				 M23.2,137.7h1.3c0.9,0,1-0.5,1-1s-0.1-1-1-1h-1.3V137.7z"/>
		</g>
		<g>
			<path class="st1" d="M27.6,141.2v-6.4h1v6.4H27.6z"/>
		</g>
		<g>
			<path class="st1" d="M33.2,138.3h-2.7v2h2.9v0.9h-3.9v-6.4h3.9v0.9h-2.9v1.8h2.7V138.3z"/>
		</g>
		<g>
			<path class="st1" d="M35.3,141.2h-1v-6.4h2.1c1.7,0,2.2,0.7,2.2,1.9c0.1,0.7-0.3,1.4-1,1.7l1.3,2.8h-1.1l-1.2-2.6h-1.3V141.2z
				 M35.3,137.7h1.3c0.9,0,1-0.5,1-1s-0.1-1-1-1h-1.3V137.7z"/>
		</g>
		<g>
			<path class="st1" d="M43.6,139.3c0,1.2-0.7,2-2.4,2c-0.6,0-1.3-0.1-1.9-0.4V140c0.6,0.3,1.2,0.4,1.8,0.4c1.2,0,1.5-0.5,1.5-1.1
				s-0.3-0.9-1.2-1c-1.5-0.2-2.2-0.6-2.2-1.8c0-0.9,0.5-1.8,2.3-1.8c0.6,0,1.2,0.1,1.7,0.3v1c-0.5-0.2-1.1-0.3-1.7-0.3
				c-1,0-1.3,0.4-1.3,1s0.4,0.8,1.2,0.9C42.8,137.7,43.6,138,43.6,139.3z"/>
		</g>
		<g>
			<path class="st1" d="M49.3,138.4h-2.6v2.8h-1v-6.4h3.8v0.9h-2.8v1.8h2.6V138.4z"/>
		</g>
		<g>
			<path class="st1" d="M50,138c0-1.8,0.4-3.3,2.5-3.3s2.5,1.5,2.5,3.3s-0.4,3.3-2.5,3.3S50,139.8,50,138z M51,138
				c0,1.5,0.3,2.4,1.5,2.4s1.5-0.9,1.5-2.4s-0.3-2.4-1.5-2.4S51,136.5,51,138z"/>
		</g>
		<g>
			<path class="st1" d="M56.6,141.2h-1v-6.4h2.1c1.7,0,2.2,0.7,2.2,1.9c0.1,0.7-0.3,1.4-1,1.7l1.3,2.8h-1.1l-1.1-2.6h-1.4V141.2z
				 M56.6,137.7h1.3c0.9,0,1-0.5,1-1s-0.1-1-1-1h-1.3V137.7z"/>
		</g>
		<g>
			<path class="st1" d="M63.2,140.3H66v0.9h-3.8v-6.4h1L63.2,140.3z"/>
		</g>
		<g>
			<path class="st1" d="M70.1,138.3h-2.7v2h2.9v0.9h-3.9v-6.4h3.9v0.9h-2.9v1.8h2.7L70.1,138.3z"/>
		</g>
		<g>
			<path class="st1" d="M74.3,139.6h-2l-0.5,1.6h-1l2-6.4h1l2,6.4h-1L74.3,139.6z M73.3,136l-0.8,2.8h1.6L73.3,136z"/>
		</g>
		<g>
			<path class="st1" d="M80.3,139.3c0,1.2-0.7,2-2.4,2c-0.6,0-1.3-0.1-1.9-0.4V140c0.6,0.3,1.2,0.4,1.8,0.4c1.2,0,1.5-0.5,1.5-1.1
				s-0.3-0.9-1.2-1c-1.6-0.2-2.2-0.6-2.2-1.8c0-0.9,0.5-1.8,2.3-1.8c0.6,0,1.2,0,1.7,0.3v1c-0.5-0.2-1.1-0.3-1.7-0.3
				c-1,0-1.3,0.4-1.3,1s0.4,0.8,1.2,0.9C79.5,137.7,80.3,138,80.3,139.3z"/>
		</g>
		<g>
			<path class="st1" d="M83,135.7v5.5h-1v-5.5h-1.6v-0.9h4.3v0.9H83z"/>
		</g>
		<g>
			<path class="st1" d="M6.9,150.2v-6.4h1.9c2.1,0,2.7,1.4,2.7,3.2s-0.6,3.2-2.7,3.2H6.9z M7.9,149.3h1c1.3,0,1.7-0.9,1.7-2.3
				s-0.4-2.3-1.7-2.3h-1L7.9,149.3z"/>
		</g>
		<g>
			<path class="st1" d="M15.8,147.3h-2.7v2h2.9v0.9h-3.9v-6.4h3.9v0.9h-2.9v1.8h2.7V147.3z"/>
		</g>
		<g>
			<path class="st1" d="M21.5,143.8l-2,6.4h-1l-2-6.4h1L19,149l1.5-5.2L21.5,143.8z"/>
		</g>
		<g>
			<path class="st1" d="M25.6,147.3H23v2h2.9v0.9H22v-6.4h3.9v0.9H23v1.8h2.6L25.6,147.3z"/>
		</g>
		<g>
			<path class="st1" d="M27.7,149.3h2.8v0.9h-3.7v-6.4h1L27.7,149.3z"/>
		</g>
		<g>
			<path class="st1" d="M30.5,147c0-1.8,0.4-3.3,2.5-3.3s2.5,1.5,2.5,3.3s-0.4,3.3-2.5,3.3S30.5,148.8,30.5,147z M31.5,147
				c0,1.5,0.3,2.4,1.5,2.4c1.2,0,1.5-0.9,1.5-2.4s-0.3-2.4-1.5-2.4S31.5,145.5,31.5,147L31.5,147z"/>
		</g>
		<g>
			<path class="st1" d="M37.1,150.2h-1v-6.4h2c1.6,0,2.2,0.9,2.2,2s-0.6,2-2.2,2H37L37.1,150.2z M37.1,146.9h1.1
				c0.6,0,1.1-0.5,1.1-1.1c0-0.6-0.5-1.1-1.1-1.1h-1.1V146.9z"/>
		</g>
		<g>
			<path class="st1" d="M44.6,147.3h-2.7v2h2.9v0.9H41v-6.4h3.9v0.9h-3v1.8h2.7V147.3z"/>
		</g>
		<g>
			<path class="st1" d="M45.6,150.2v-6.4h1.9c2.1,0,2.7,1.4,2.7,3.2s-0.6,3.2-2.7,3.2H45.6z M46.5,149.3h1c1.3,0,1.7-0.9,1.7-2.3
				s-0.4-2.3-1.7-2.3h-1V149.3z"/>
		</g>
		<g>
			<path class="st1" d="M54.9,143.7c0.5,0,1,0.1,1.5,0.3v0.9c-0.5-0.2-0.9-0.3-1.4-0.3c-1.2,0-1.7,0.8-1.7,2.4s0.5,2.4,1.7,2.4
				c0.5,0,1-0.1,1.4-0.3v0.9c-0.5,0.2-1,0.3-1.5,0.3c-1.9,0-2.6-1.2-2.6-3.3S53,143.7,54.9,143.7z"/>
		</g>
		<g>
			<path class="st1" d="M57,147c0-1.8,0.4-3.3,2.5-3.3s2.5,1.5,2.5,3.3s-0.4,3.3-2.5,3.3S57,148.8,57,147z M58,147
				c0,1.5,0.3,2.4,1.5,2.4s1.5-0.9,1.5-2.4s-0.3-2.4-1.5-2.4S58,145.5,58,147L58,147z"/>
		</g>
		<g>
			<path class="st1" d="M62.7,148.2v-4.4h1v4.3c0,0.8,0.6,1.4,1.4,1.4c0.7,0,1.4-0.6,1.4-1.4v-4.3h1v4.4c-0.1,1.3-1.2,2.2-2.5,2.1
				C63.7,150.2,62.9,149.3,62.7,148.2L62.7,148.2z"/>
		</g>
		<g>
			<path class="st1" d="M71.9,150.2l-2.8-4.5v4.5h-1v-6.4H69l2.8,4.5v-4.5h0.9v6.4H71.9z"/>
		</g>
		<g>
			<path class="st1" d="M75.9,144.7v5.5h-1v-5.5h-1.6v-0.9h4.3v0.9H75.9z"/>
		</g>
		<g>
			<path class="st1" d="M79,150.2h-1v-6.4h2.1c1.7,0,2.2,0.7,2.2,1.9c0.1,0.7-0.3,1.4-1,1.7l1.3,2.8h-1.1l-1.2-2.6H79V150.2z
				 M79,146.7h1.3c0.9,0,1-0.5,1-1s-0.1-1-1-1H79V146.7z"/>
		</g>
		<g>
			<path class="st1" d="M83.3,150.2v-6.4h0.9v6.4H83.3z"/>
		</g>
		<g>
			<path class="st1" d="M88.9,147.3h-2.7v2h2.9v0.9h-3.9v-6.4h3.9v0.9h-2.9v1.8h2.7V147.3z"/>
		</g>
		<g>
			<path class="st1" d="M94.1,148.3c0,1.2-0.7,2-2.4,2c-0.6,0-1.3-0.1-1.9-0.4V149c0.6,0.3,1.2,0.4,1.8,0.4c1.2,0,1.5-0.5,1.5-1.1
				s-0.3-0.9-1.2-1c-1.6-0.2-2.2-0.6-2.2-1.8c0-0.9,0.5-1.8,2.3-1.8c0.6,0,1.2,0.1,1.7,0.3v1c-0.5-0.2-1.1-0.3-1.7-0.3
				c-1,0-1.3,0.4-1.3,1s0.4,0.8,1.2,0.9C93.3,146.7,94.1,147,94.1,148.3z"/>
		</g>
	</g>
	<g>
		<rect x="3.3" y="23.9" class="st1" width="94.8" height="94.9"/>
	</g>
	<g>
		<path class="st1" d="M98.2,20.7H3.3V3.3h94.8V20.7z M4.3,19.7h92.8V4.3H4.3L4.3,19.7z"/>
	</g>
	<g class="st2">
		<path class="st1" d="M6.7,6.9h4.5v1.4H9.9v8.8H8.1V8.3H6.7V6.9z"/>
	</g>
	<g class="st2">
		<path class="st1" d="M11.2,17.1l1.9-10.2h1.9L17,17.1h-1.8l-0.3-1.9h-1.8l-0.3,1.9H11.2z M13.3,13.9h1.4L14,9.8h0L13.3,13.9z"/>
	</g>
	<g class="st2">
		<path class="st1" d="M19.6,12.4v4.7h-1.7V6.9h2.5c1.7,0,2.4,0.9,2.4,2.3v1.3c0,1.1-0.4,1.7-1.4,2l1.6,4.6h-1.8L19.6,12.4z
			 M19.6,8.3v3.2h0.6c0.6,0,0.8-0.3,0.8-0.8V9.2c0-0.6-0.3-0.8-0.8-0.8H19.6z"/>
	</g>
	<g class="st2">
		<path class="st1" d="M26.4,11.7h2.4v5.4h-1.2V16c-0.2,0.8-0.7,1.2-1.6,1.2c-1.5,0-2.1-1.2-2.1-2.7V9.6c0-1.6,0.8-2.7,2.6-2.7
			c1.9,0,2.4,1.1,2.4,2.6v0.9h-1.6v-1c0-0.6-0.2-1-0.9-1c-0.6,0-0.9,0.4-0.9,1v5.5c0,0.6,0.3,1,0.8,1c0.6,0,0.8-0.3,0.8-1V13h-0.8
			V11.7z"/>
	</g>
	<g class="st2">
		<path class="st1" d="M30.2,6.9h4.1v1.4h-2.4v2.9h1.7v1.4h-1.7v3.1h2.4v1.4h-4.1V6.9z"/>
	</g>
	<g class="st2">
		<path class="st1" d="M35.1,6.9h4.5v1.4h-1.4v8.8h-1.7V8.3h-1.4V6.9z"/>
	</g>
	<g class="st2">
		<path class="st1" d="M74.6,6.9v10.2h-1.7V9.3h0l-1.2,1.2h0V8.8l1.6-1.8H74.6z"/>
		<path class="st1" d="M75.8,6.9h4.3v1.6l-2.2,8.6h-1.7l2.3-8.8h-2.6V6.9z"/>
	</g>
	<g class="st2">
	</g>
	<g class="st2">
		<path class="st1" d="M82.9,10.8c0.7,0,1.2,0.6,1.2,1.2c0,0.7-0.6,1.2-1.2,1.2c-0.7,0-1.2-0.6-1.2-1.2
			C81.6,11.4,82.2,10.8,82.9,10.8z"/>
	</g>
	<g class="st2">
		<path class="st1" d="M88.5,6.9v10.2h-1.7V9.3h0l-1.2,1.2h0V8.8l1.6-1.8H88.5z"/>
		<path class="st1" d="M89.9,15.2c0-1,0.3-1.7,1.3-2.7l1-1c0.6-0.6,0.6-0.9,0.6-1.8V9c0-0.6-0.3-0.8-0.6-0.8c-0.4,0-0.7,0.2-0.7,0.8
			v1.3h-1.6V9c0-1.4,0.8-2.2,2.3-2.2c1.5,0,2.2,0.7,2.2,2.1v1c0,1-0.2,1.6-1.1,2.6l-1.1,1.2c-0.4,0.5-0.7,0.8-0.7,1.6v0.5h2.8v1.4
			h-4.4V15.2z"/>
	</g>
	<g>
		<g>
			<g>
				<path class="st0" d="M43,69.5c0-0.4-0.4-0.7-0.8-0.7h-1.1c-0.4,0-0.8-0.1-0.9-0.6c-0.2-0.7-0.4-1.4-0.7-2.1
					c-0.2-0.4-0.1-0.9,0.3-1.1c0.3-0.3,0.6-0.5,0.9-0.8c0.3-0.2,0.4-0.7,0.2-1c-0.5-0.8-1.1-1.5-1.7-2.2c-0.3-0.3-0.7-0.3-1-0.1
					c-0.3,0.2-0.6,0.4-0.9,0.6s-0.7,0.4-1.1,0.1c-0.7-0.5-1.4-1-1.8-1.3c-0.3-0.2-0.5-0.6-0.4-1c0.1-0.4,0.2-0.8,0.3-1.2
					c0.1-0.4-0.1-0.7-0.4-0.9c-0.9-0.4-1.8-0.7-2.8-0.9c-0.4-0.1-0.8,0.1-0.9,0.5c-0.1,0.4-0.3,0.7-0.4,1s-0.4,0.7-0.8,0.7
					c-0.9,0-1.6,0-2.2,0c-0.4,0-0.8-0.2-1-0.6c-0.2-0.4-0.3-0.7-0.5-1.1c-0.1-0.4-0.5-0.6-0.9-0.5c-0.9,0.2-1.8,0.5-2.7,0.9
					c-0.4,0.1-0.6,0.6-0.4,0.9c0,0,0,0,0,0.1c0.1,0.4,0.2,0.7,0.3,1.1s0.1,0.8-0.2,1s-1.3,0.9-1.8,1.3c-0.3,0.3-0.8,0.3-1.1,0.1
					c-0.4-0.2-0.7-0.4-1-0.6c-0.3-0.2-0.7-0.2-1,0.1c-0.7,0.7-1.2,1.5-1.6,2.3c-0.2,0.3-0.1,0.8,0.2,1c0.3,0.3,0.6,0.4,0.9,0.7
					c0.3,0.2,0.6,0.6,0.4,1s-0.5,1.7-0.7,2.2c-0.1,0.4-0.4,0.7-0.9,0.7l-1.2,0.1c-0.4,0-0.7,0.3-0.7,0.7c-0.1,0.9-0.1,1.9,0,2.9
					c0,0.4,0.4,0.7,0.8,0.7c0.4,0,0.7,0,1.1,0s0.8,0.1,0.9,0.6c0.2,0.7,0.4,1.4,0.7,2.2c0.2,0.4,0.1,0.9-0.3,1.1
					c-0.3,0.3-0.6,0.5-0.9,0.8c-0.3,0.2-0.4,0.7-0.2,1c0.5,0.8,1.1,1.6,1.7,2.3c0.3,0.3,0.7,0.3,1,0.1c0.4-0.2,0.6-0.4,0.9-0.6
					s0.7-0.4,1.1-0.1s1.4,1,1.8,1.3c0.3,0.2,0.5,0.6,0.4,1c-0.1,0.4-0.2,0.8-0.3,1.2c-0.1,0.4,0.1,0.7,0.4,0.9
					c0.9,0.4,1.8,0.7,2.7,0.8c0.4,0.1,0.8-0.1,0.9-0.5c0,0,0,0,0,0c0.1-0.4,0.2-0.7,0.4-1s0.4-0.7,0.8-0.7c0.8,0,1.5,0,2.3,0
					c0.4,0,0.8,0.2,1,0.6c0.2,0.4,0.3,0.7,0.5,1.1c0.1,0.4,0.5,0.6,0.9,0.5c1-0.2,1.9-0.5,2.8-1c0.4-0.1,0.6-0.6,0.4-0.9
					c0,0,0,0,0-0.1c-0.1-0.4-0.2-0.7-0.3-1.1s-0.1-0.8,0.2-1.1s1.4-1,1.8-1.3c0.3-0.3,0.8-0.3,1.1-0.1c0.4,0.2,0.7,0.4,1,0.6
					c0.3,0.2,0.7,0.2,1-0.1c0.7-0.7,1.2-1.5,1.6-2.3c0.2-0.3,0.1-0.8-0.2-1c-0.3-0.3-0.6-0.4-0.9-0.7s-0.6-0.6-0.4-1
					s0.5-1.6,0.7-2.2c0.1-0.4,0.4-0.7,0.9-0.7c0.4,0,0.8,0,1.2-0.1c0.4,0,0.7-0.3,0.7-0.7C43.2,71.4,43.1,70.5,43,69.5z M27.9,80.7
					c-5.2,0-9.4-4.2-9.3-9.4s4.2-9.4,9.4-9.3c5.2,0,9.4,4.2,9.3,9.4C37.3,76.5,33.1,80.7,27.9,80.7z"/>
			</g>
			<g>
				<path class="st0" d="M21,68.6c0.2,0.1,0.4,0,0.5-0.1c0.1-0.1,0.1-0.2,0-0.3c0-0.1,0.1-0.2,0.2-0.2c0.2-0.1,0.4-0.2,0.6-0.4
					c0.4-0.1,0.8-0.1,1.3,0c0.3,0.1,0.6,0.1,0.8-0.2c0.2-0.2,0.4-0.4,0.6-0.5c0.1-0.1-0.3-0.4-0.6,0s-0.5,0.5-0.7,0.5
					s-1.1-0.2-1.2-0.5s0.3-0.5,0.6-0.7c0.5-0.1,1-0.2,1.6-0.2c0.5-0.1,1.1-0.4,1.5-0.1s-1.4,0.6-0.8,0.9c0.2,0.1,1.1-0.5,1.4-0.7
					c0.7-0.4-0.7-0.5-0.5-1.2s-1.6-0.5-2.6-0.5c-0.5,0.3-0.9,0.6-1.3,1c0.1,0,0.2,0.1,0.3,0.2c0,0.2,0,0.4-0.1,0.5
					c-0.2,0.2-0.5,0.4-0.9,0.4c-0.1,0-0.1,0-0.1-0.1c-0.2,0.2-0.3,0.4-0.4,0.6c0.2-0.1,0.4-0.2,0.6-0.2c0.2,0,0.5,0.1,0.5,0.2
					s-0.5,0.4-0.6,0.5c-0.3,0.3-0.7,0.8-1,0.8c-0.1,0-0.1,0-0.2,0c-0.1,0.2-0.1,0.4-0.2,0.6C20.4,68.6,20.7,68.5,21,68.6z"/>
			</g>
			<g>
				<path class="st0" d="M34.6,70.9c-0.3,0.2-0.6,0.3-0.9,0.3c-0.3,0.2-0.5,0.6-0.4,1c0.1,0.3,0.8,1.2,0.2,1.1
					c-0.5-0.3-1-0.6-1.3-1.1c-0.2-0.5-0.4-0.9-0.5-1.2c-0.1-0.3-0.4-0.4-0.6-0.3c-0.1,0-0.1,0-0.1,0.1c-0.3,0.2,0.1,0.4-0.1,0.8
					s-0.4,0.8-0.7,0.5c-0.8-0.9-2-0.5-2.1-1.5c-0.1-0.6-0.6-0.5-1-0.8s-0.6-0.5-0.7-0.3s1.3,1.2,1.4,1.5s-0.4,0.8-0.8,0.8
					s-0.6-0.2-1-0.6s-0.5-0.7-0.6-0.4c0,0.5,0.3,1.1,0.8,1.4c0.3,0.2,0.7,0.3,0.6,0.7s0,0.2-0.4,0.5c-0.3,0.2-0.5,0.6-0.4,1
					c0,0.5-0.1,0.6-0.2,1s-0.3,0.1-0.4,0.7c-0.1,0.4-0.3,0.8-0.5,1.1c-0.3,0.3-0.7,0.4-1.1,0.4c-0.4,0-0.4-1-0.4-1.6
					c0-0.2-0.3,0.3-0.4-0.7c-0.1-0.7-0.5,0.1-0.6-0.4s-0.2-0.4-0.5-0.7s-0.5,0-0.8,0.2s-0.2,0.2-0.6,0.1l0,0c1,2.3,2.9,4,5.3,4.7
					c-0.1-0.1-0.2-0.3-0.1-0.4c0.3-0.6,0.9-1,1.6-1c1.3-0.1,3.1,0.9,3.4,0.7s0.9-0.9,1.7-0.9c0.3,0,0.5,0.1,0.7,0.2
					c0.3-0.2,0.6-0.5,0.8-0.7L33.5,77c-0.5-0.2-0.4,0.1-0.6,0s0.3-0.6-0.4-0.2S32,76.8,31.7,76c-0.2-0.7,0.2-1.5,0.9-1.8
					c0.5-0.2,1-0.3,1.5-0.4c1-0.2,1.2-0.8,1.4-0.5l0.1,0.2c0.1,0.2,0.1,0.3,0.1,0.5c0.1-0.4,0.3-0.7,0.4-1.1
					c-0.2-0.1-1.1-1.3-0.4-2.2c0.1-0.1-0.2-0.6-0.1-0.6c0.3,0,0.6,0.2,0.7,0.5c0-0.4-0.1-0.9-0.2-1.3c0,0.1,0,0.2,0,0.3
					c-0.1,0.3-0.4,0.4-0.7,0.3c-0.1,0-0.3-0.1-0.3-0.3c-0.1-0.1-0.4-0.5-0.4,0.1S35.1,70.5,34.6,70.9z M26.8,74.1
					c-0.1,0.2-0.4,1.6-0.6,1.4s0.1-1.6,0.1-1.7C26.7,73.2,27.4,73.3,26.8,74.1z M30.2,72.5c-0.3,0.1-0.6,0.1-0.8-0.1
					c-0.2-0.2,0.1-0.4,0.3-0.4S30.4,72.3,30.2,72.5z M33.6,72.2c0-0.1,0.1-0.2,0.2-0.2c0,0,0.1,0,0.1,0c0.2,0.1,0.3,0.3,0.4,0.5
					c0,0.1-0.3,0.1-0.4,0.1S33.7,72.4,33.6,72.2z M34.7,73.3c-0.3,0.1-0.6,0.1-0.8-0.1c-0.2-0.2,0.1-0.4,0.3-0.4
					C34.5,72.8,34.9,73.1,34.7,73.3z"/>
			</g>
			<g>
				<path class="st0" d="M20.7,69.5c0.5,0.1,0.9,0.2,1.4,0.3c0.5,0.2,1.2,0.6,1.7,0.4s0.6-0.3,0.5-0.6s-0.3-0.4-0.6-0.2
					c-0.1,0.1-0.4-0.5-0.6-0.5s0.2,0.7,0.1,0.7s-0.5-0.7-0.5-0.8s-0.3-0.4-0.5-0.2c-0.5,0.5-1.3,0.4-1.4,0.6c0,0-0.1,0.1-0.2,0.1
					C20.1,69.6,20,69.2,20,69c-0.1,0.5-0.2,0.9-0.3,1.4c0,0,0,0,0-0.1c0.3-0.5,0.3-0.6,0.4-0.6c0.1-0.1,0.2-0.1,0.3-0.1L20.7,69.5z"
					/>
			</g>
		</g>
		<g>
			<path class="st0" d="M75.7,97.2L72.8,95c-0.2-0.2-0.6-0.2-0.8,0c0,0,0,0-0.1,0.1l0,0c-8.5,10.7-23.7,12.2-34.7,3.9
				c-0.3-0.2-0.6-0.5-1-0.8l3.1-2.1c0.3-0.2-0.1-0.5-0.1-0.5l-10.9-5.1c-0.4-0.2-0.4,0-0.4,0.2v0.1l0,0l0.3,12.3
				c0,0.1,0.1,0.4,0.4,0.2l0,0l3.5-2.3c0.7,0.7,1.5,1.3,2.2,1.9c13.1,9.9,31.2,8,41.3-4.7l0.1-0.1C76,97.9,76,97.5,75.7,97.2
				C75.7,97.2,75.7,97.2,75.7,97.2z"/>
		</g>
		<g>
			<path class="st0" d="M27,47.3l2.9,2.1c0.2,0.2,0.6,0.2,0.8-0.1c0,0,0,0,0-0.1l0,0c8.2-11,23.3-13,34.5-5c0.3,0.2,0.7,0.5,1,0.8
				l-3,2.2c-0.3,0.2,0.2,0.5,0.2,0.5l11.1,4.8c0.3,0.2,0.4-0.1,0.4-0.2v-0.1l0,0l-0.7-12.3c0-0.1-0.1-0.4-0.4-0.2l0,0l-3.4,2.4
				c-0.7-0.6-1.5-1.2-2.3-1.8c-13.4-9.5-31.4-7.1-41.2,5.9l-0.1,0.1C26.7,46.6,26.7,47,27,47.3C27,47.2,27,47.2,27,47.3z"/>
		</g>
		<g>
			<path class="st0" d="M73.6,57c-7.9,0-14.3,6.4-14.3,14.3s6.4,14.3,14.3,14.3c7.9,0,14.3-6.4,14.3-14.3c0,0,0,0,0-0.1
				C87.9,63.4,81.5,57,73.6,57z M80.8,82.2l-0.5,0.3c-2,1.2-4.3,1.8-6.7,1.8c-1.2,0-2.5-0.2-3.7-0.5c-0.2-0.2-0.3-0.4-0.2-0.6
				c0.5-0.9,1.5-1.5,2.5-1.6c2.1-0.2,4.9,1.4,5.3,1.1s1.3-1.4,2.7-1.4c0.4,0,0.8,0.1,1.2,0.3c-0.2,0.2-0.4,0.3-0.6,0.4L80.8,82.2z
				 M72.1,58.4h0.3c0.4,0,0.8-0.1,1.2-0.1c6.1,0,11.4,4.3,12.8,10.2c0,0.1,0,0.2,0,0.2c-0.2,0.4-0.7,0.7-1.1,0.5
				c-0.2-0.1-0.3-0.2-0.4-0.4c-0.1-0.2-0.7-0.7-0.7,0.2s0.9,1,0,1.5c-0.4,0.3-0.9,0.5-1.4,0.5c-0.5,0.4-0.7,1-0.7,1.6
				c0.1,0.5,1.3,1.8,0.4,1.8c-0.8-0.4-1.5-1-2-1.8c-0.3-0.7-0.6-1.4-0.8-2c-0.1-0.4-0.6-0.6-1-0.5c-0.1,0-0.2,0.1-0.2,0.1
				c-0.5,0.3,0.1,0.6-0.2,1.3s-0.6,1.3-1.1,0.7c-1.3-1.5-3.1-0.7-3.4-2.3c-0.2-0.9-0.9-0.8-1.5-1.3s-1-0.8-1.1-0.4s2,2,2.1,2.4
				c0.2,0.6-0.6,1.2-1.2,1.3s-0.9-0.3-1.5-1s-0.9-1.1-0.9-0.6c0,0.9,0.5,1.7,1.2,2.2c0.5,0.3,1.1,0.5,0.9,1s0,0.2-0.6,0.8
				c-0.5,0.4-0.8,1-0.7,1.6c0,0.8-0.2,0.8-0.3,1.5s-0.4,0.1-0.7,1.1c-0.1,0.6-0.4,1.2-0.8,1.7c-0.5,0.4-1.1,0.7-1.8,0.7
				c-0.6,0-0.7-1.6-0.7-2.4c0-0.3-0.4,0.6-0.6-1.1c-0.1-1.1-0.8,0.1-0.9-0.6s-0.4-0.6-0.8-1s-0.8,0-1.3,0.3s-0.3,0.3-1,0.1h0
				c-0.7-1.6-1-3.3-1-5.1c0-0.4,0-2,0.7-2.5c0.3-0.1,0.6-0.2,0.9-0.2c0.7,0.1,1.4,0.3,2.1,0.5c0.8,0.3,1.9,0.9,2.6,0.7
				c0.5-0.2,0.9-0.5,0.8-0.9s-0.5-0.7-1-0.3c-0.2,0.1-0.6-0.8-0.9-0.7s0.4,1.1,0.1,1.1s-0.8-1.1-0.9-1.3s-0.5-0.6-0.8-0.3
				c-0.8,0.7-1.9,0.4-2.3,0.6c-0.9,0.3-0.9,0.1-0.9-0.3c0-0.1,0-0.2,0.1-0.3c0.4-0.3,1-0.3,1.5-0.2c0.3,0.2,0.6-0.1,0.7-0.2
				s0.1-0.3,0-0.5s0.2-0.3,0.3-0.4c0.3-0.2,0.7-0.4,1-0.6c0.7-0.2,1.3-0.2,2,0c0.4,0.2,1,0.1,1.3-0.3c0.3-0.3,0.6-0.6,0.9-0.8
				c0.2-0.1-0.5-0.7-1,0c-0.5,0.7-0.8,0.7-1.1,0.7s-1.8-0.4-1.9-0.8s0.5-0.8,1-1.1c0.8-0.2,1.6-0.3,2.5-0.3c0.8-0.2,1.8-0.6,2.3-0.2
				s-2.1,0.9-1.2,1.4c0.3,0.2,1.7-0.8,2.2-1c1.1-0.6-1.1-0.8-0.8-1.9c0.3-1.3-2.7-0.8-4.2-0.7c1.4-0.9,3-1.5,4.7-1.8L72.1,58.4z
				 M82.5,80.4c-0.7-0.4-0.6,0.2-1,0.1s0.4-0.9-0.7-0.3s-0.8-0.1-1.2-1.3c-0.3-1.2,0.3-2.4,1.4-2.8c0.8-0.3,1.6-0.5,2.4-0.6
				c1.6-0.4,1.9-1.3,2.2-0.8c0,0.1,0.1,0.2,0.2,0.3c0.1,0.2,0.2,0.4,0.2,0.7c-0.6,1.8-1.7,3.4-3,4.8C82.7,80.4,82.6,80.4,82.5,80.4
				L82.5,80.4z M83,73.2c-0.2,0-0.3-0.2-0.4-0.5c-0.1-0.1,0-0.3,0.1-0.4c0.1-0.1,0.2,0,0.3,0c0.3,0.2,0.5,0.4,0.6,0.7
				C83.7,73.3,83.2,73.3,83,73.2z M84.4,74.4c-0.4,0.2-0.9,0.2-1.2-0.1c-0.3-0.3,0.2-0.7,0.4-0.7C84,73.6,84.7,74.2,84.4,74.4
				L84.4,74.4z M85.8,70.4c0.2-0.2-0.4-0.9-0.2-0.9c0.4,0,0.8,0.2,1,0.6c0,0.3,0.1,0.7,0.1,1.1c0,0.9-0.1,1.7-0.3,2.6
				C86,73.6,84.7,71.7,85.8,70.4L85.8,70.4z M77.2,73.2c-0.4,0.2-0.9,0.2-1.2-0.1c-0.3-0.3,0.2-0.7,0.4-0.7
				C76.9,72.3,77.5,73,77.2,73.2L77.2,73.2z M71.9,75.7c-0.2,0.3-0.7,2.5-1,2.2s0.1-2.5,0.2-2.7C71.7,74.3,72.8,74.4,71.9,75.7
				L71.9,75.7z M62.7,64.4c0.3-0.2,0.6-0.4,1-0.4c0.3,0,0.8,0.1,0.8,0.3s-0.8,0.6-1,0.8c-0.4,0.4-1.2,1.2-1.6,1.3
				c-0.1,0-0.2,0-0.3,0c0.3-0.7,0.6-1.3,1-1.9C62.6,64.4,62.6,64.4,62.7,64.4z M64.7,61.8c0.2,0,0.5,0.1,0.5,0.2
				c0,0.3,0,0.6-0.2,0.8c-0.4,0.4-0.9,0.6-1.4,0.6c-0.1,0-0.3-0.1-0.3-0.2C63.7,62.8,64.1,62.3,64.7,61.8L64.7,61.8z"/>
		</g>
	</g>
	<g>
		<path class="st1" d="M98.2,153.9h-95v-31.7h95V153.9z M4.2,152.9h93v-29.7h-93V152.9z"/>
	</g>
</g>
</svg>
