<?xml version="1.0" encoding="UTF-8" standalone="no"?>
<svg
xmlns:svg="http://www.w3.org/2000/svg"
xmlns="http://www.w3.org/2000/svg" version="1.0" width="375"
height="305">
<g transform="translate(-260,-150)">
<g fill="green">

<path d="M569.38574,394.10938 C558.61133,396.99463 547.11426,397.92236 536.65039,401.49072 C554.37305,386.29492 553.36133,362.78223 565.18555,344.88477 C568.95215,339.81738 572.06543,334.50586 576.45605,329.69727 C569.26367,344.125 572.38281,362.84375 564.12012,376.84473 C560.93945,382.40625 556.39063,387.80176 551.36035,392.16992 C553.00391,392.1084 554.44238,390.68555 555.8877,389.73535 C569.30859,376.34277 586.8418,372.59766 601.35938,361.7168 C607.1748,357.08301 612.50098,351.01074 615.05762,344.44336 C612.31055,366.66309 590.20508,387.48926 569.38574,394.10938 L569.38574,394.10938 z " />
<path d="M617.73535,304.14551 C611.16895,313.48926 603.22559,322.1875 597.15918,331.68359 C597.83594,324.16504 598.72656,314.91992 595.79785,307.79785 C590.72266,292.46094 586.26367,276.88867 584.8252,260.05664 L585.02344,253.62012 C588.84277,270.80957 605.72852,282.62598 604.66309,301.90723 C605.0498,306.58008 603.60449,310.55273 602.72949,314.66211 L603.01953,314.96582 L603.78027,314.11328 C606.28418,304.65527 607.54785,294.70996 611.44141,285.88574 C616.97461,273.1875 623.88379,260.37207 621.06836,245.04004 C629.48438,263.11621 626.93457,287.26758 617.73535,304.14551 L617.73535,304.14551 z " />
<path d="M607.37109,206.75781 C618.44336,221.76318 620.87012,245.67578 612.80566,262.8877 C609.7998,270.18164 607.67676,277.9541 606.49609,286.02734 C605.93262,284.63477 605.80371,282.7627 605.30078,281.21094 C600.89648,264.36328 584.96289,252.35645 578.41016,236.47217 C576.33203,231.27783 574.56055,225.91064 573.57813,220.27197 C580.58008,233.22217 597.83594,239.91113 602.53906,254.18262 C604.46582,257.79199 604.35742,262.30176 605.55273,266.18262 C605.80371,266.18262 606.05469,265.99609 606.05469,265.74121 C603.98438,251.04004 604.61621,235.65381 606.61133,221.13525 C606.49609,213.271 605.72852,205.64258 601.35938,199.55518 C604.16113,201.1875 605.42285,204.32275 607.37109,206.75781 L607.37109,206.75781 z " />
<path d="M599.56445,203.87744 C602.47266,217.02637 598.22461,229.83203 600.89648,243.10742 L600.79688,243.22168 C593.64355,229.15527 578.45703,222.5166 568.00781,211.2583 C561.95215,204.57764 559.31934,196.43555 557.80469,187.81445 C563.79199,202.24902 579.94824,205.42969 589.22363,217.59326 C592.32715,220.39746 593.33984,224.28223 595.34082,227.4624 L595.66797,227.14648 C590.33398,215.75977 588.54687,202.94531 584.8252,190.80127 C582.96191,185.53906 579.26367,180.36865 574.30176,177.05078 C586.47754,179.53906 597.03027,192.25049 599.56445,203.87744 L599.56445,203.87744 z " />
<path d="M567.01172,173.72168 C576.18164,181.92871 580.3291,192.55518 583.00684,203.56543 L584.52148,207.06201 C571.21191,197.48975 559.12109,184.62207 550.62207,171.03223 L540.24219,160.53125 C549.36719,164.40039 559.20508,166.70996 567.01172,173.72168 L567.01172,173.72168 z " />
<path d="M356.80566,162.27393 C347.60547,170.33936 341.22461,180.53955 334.39941,190.05127 C328.28125,197.62646 320.45508,202.62158 313.51953,209.13574 C317.26367,201.37402 317.40039,192.10254 322.71094,184.97266 C330.26758,171.78906 344.28027,167.15088 356.80566,162.27393 L356.80566,162.27393 z "  />
<path d="M306.49219,190.35986 C310.9668,184.79736 316.63965,180.93164 323.02344,179.29932 C310.62793,187.81445 311.43457,203.07422 307.50488,215.75977 C306.25195,220.45068 304.07617,224.77246 302.99219,229.58105 L303.30762,229.83203 C305.37012,224.396 308.99512,219.25977 313.51953,214.82422 C322.32324,206.69727 335.34668,201.63232 339.66113,189.61035 C339.46387,206.31641 325.52734,219.4502 312.19238,228.83936 C306.69336,233.66357 301.39063,239.16162 298.3623,245.36328 C298.06543,241.14844 298.98535,236.9165 298.68555,232.40137 C297.23535,217.81787 296.18164,201.17236 306.49219,190.35986 L306.49219,190.35986 z " />
<path d="M281.41211,240.22754 C281.03906,225.44922 287.17285,213.38574 295.81641,202.37451 C296.06738,202.24902 296.24609,201.99805 296.56934,202.05859 C287.05469,216.51709 294.92578,234.729 294.49219,251.16895 L293.2373,268.00098 C293.42383,268.12305 293.42383,268.62891 293.86523,268.43457 C294.42773,266.55859 294.5498,264.55371 294.92578,262.62402 C297.16699,249.04688 308.95801,239.41309 319.25684,230.03027 C321.45605,227.57617 323.40039,225.08447 324.53027,222.20459 C323.68945,228.96484 321.57031,235.7832 318.76563,242.03516 C310.75,257.66699 295.94238,270.49316 293.2373,288.38965 C291.9248,271.23926 280.24805,258.41699 281.41211,240.22754 L281.41211,240.22754 z " />
<path d="M274.21387,261.24316 C275.2793,256.62109 276.09375,251.83789 278.10547,247.59668 C274.29395,267.13379 287.43457,281.21094 291.74512,298.14551 C293.54883,304.47949 293.99023,311.28223 296.56934,317.22559 C296.80957,317.35547 297.01855,317.10449 297.16699,316.91406 C290.74902,298.9248 300.01367,282.20801 309.32324,268.12305 C311.58691,264.30664 312.8916,260.05664 314.01758,255.66992 C315.00684,263.81152 312.94824,273.1875 311.76563,281.64063 C309.50195,292.39648 306.12305,302.59668 303.18164,313.0332 C301.24609,319.55469 301.75488,326.91211 302.74902,333.74512 L301.81641,333 C294.99121,320.41406 281.47656,310.59766 277.46289,296.84766 C274.16016,285.88574 271.96484,273.1875 274.21387,261.24316 L274.21387,261.24316 z " />
<path d="M273.59766,299.40137 C275.10059,320.10938 297.36914,331.05176 307.69141,348.19531 C310.13379,351.70313 312.25293,355.58398 315.5166,358.52051 C315.00684,356.31445 312.94824,354.45801 312.19238,352.19824 C308.58105,345.00781 307.26465,336.43945 308.13281,327.74902 C309.13281,317.17188 313.56934,307.35645 311.87598,296.23145 C320.94629,315.78809 318.19141,340.19824 323.2627,361.38965 C324.59082,366.02441 327.27344,370.16309 329.03125,374.59277 C310.39551,361.90039 284.98438,349.82422 276.7168,326.5625 C273.23242,318.54199 272.84375,308.6123 273.59766,299.40137 L273.59766,299.40137 z " />
<path d="M284.72949,346.95508 C295.12012,370.46094 321.14355,372.4082 338.5918,386.72168 C341.80273,389.56738 345.16699,391.9873 348.79199,393.67578 L348.97852,393.48633 C344.97266,389.86426 340.33887,385.73926 337.53418,381.04492 C327.32227,366.8457 330.91406,346.95508 323.2627,331.68359 C330.21484,340 336.53711,348.64453 340.73438,358.0791 C346.97754,373.48047 349.36328,390.87598 363.80957,402.51807 C348.17578,397.36572 329.86035,398.80518 316.06152,389.17871 C300.99512,379.91895 287.54883,364.21289 284.72949,346.95508 L284.72949,346.95508 z " />
<path d="M311.43457,390.80664 C328.09473,409.75439 355.31738,403.43213 377.50977,408.39111 C380.64453,408.81885 383.51367,410.07471 386.83594,409.56494 C384.19043,407.89111 380.51953,408.07275 377.63184,406.55127 C360.23633,400.43994 357.68457,381.60742 348.24121,368.9082 C360.30566,376.91992 370.44824,387.72559 381.57813,398.1958 C389.57813,405.20361 399.20801,408.43799 409.35449,410.50049 C406.91602,411.39111 403.71973,411.14697 401.10254,411.83252 C382.87402,416.31494 362.62207,423.64111 343.29102,417.08252 C330.72363,413.12549 317.75781,403.18799 311.43457,390.80664 L311.43457,390.80664 z " />
<path d="M537.55664,434.97314 C518.7832,441.979 499.19043,434.65283 484.52734,423.53369 C478.59082,419.76025 473.35742,414.32666 465.67871,414.80713 C462.89355,414.75439 460.20801,414.89111 457.84082,415.57471 C472.08594,422.20361 485.31836,431.34229 497.41699,443.02979 C495.37793,445.35791 492.7373,447.53564 490.25,449.54346 C478.59082,436.98096 465.67871,424.88916 451.22168,417.82666 C448.39063,418.19385 445.69727,419.89697 443.14453,421.26807 C431.375,428.70947 419.7373,438.28174 410.9873,450.00049 L403.46875,443.7915 C415.46875,431.65283 428.74219,422.20361 443.2627,415.45361 C428.99414,410.93408 419.68066,422.88721 408.84961,428.96729 C396.22852,437.77979 378.07715,441.91846 362.82422,435.83838 C354.62109,432.72705 346.67383,428.14502 340.73438,420.69775 C352.73828,428.96729 370.61621,429.83447 384.26758,424.46338 C402.58594,416.51807 421.62109,406.4458 443.7041,411.26221 C447.15039,411.32275 450.49902,414.75439 453.75488,411.83252 C470.16797,407.5708 488.75,410.50049 502.88086,418.00244 L517.44531,423.84033 C530.98242,428.84619 548.48438,427.46143 560.08789,419.21338 C554.12207,426.63916 545.97266,431.95947 537.55664,434.97314 L537.55664,434.97314 z " />
<path d="M557.6748,415.57471 C536.59668,423.53369 515.3916,413.76416 495.19531,410.50049 L491.30664,410.00635 L491.30664,409.8833 C500.96387,407.69189 510.33789,404.81689 518.02441,397.87744 C529.3457,386.99512 539.41992,375.79395 551.99219,367.21875 C542.66895,379.17285 541.68066,396.18799 526.2793,403.87354 C522.46777,406.36768 517.65723,406.80908 513.72363,408.69775 C519.33301,408.81885 524.46875,406.80908 530.02344,406.24658 C550.67578,403.00439 574.30176,406.33057 588.79004,388.7373 C583.41113,400.99658 569.94043,411.26221 557.6748,415.57471 L557.6748,415.57471 z " />
<path d="M595.97266,356.26855 C587.64844,361.7168 579.21094,366.76953 571.21191,372.96387 L571.21191,372.20313 C583.46387,351.84082 577.47461,323.86816 585.02344,301.45898 L587.83887,293.95215 C586.26367,307.91211 592.32715,319.7373 591.90137,333.74512 C591.47559,342.20703 588.71387,349.70996 584.27051,356.4668 L585.02344,356.4668 C591.02637,348.58301 595.71387,340.19824 602.72949,332.68848 C613.61914,322.1875 624.69043,311.41992 626.12012,296.84766 C629.81836,321.1748 616.16797,342.49609 595.97266,356.26855 L595.97266,356.26855 z " />


</g>
</g>
</svg>