<?xml version="1.0" encoding="UTF-8" standalone="no"?>
<!DOCTYPE svg PUBLIC "-//W3C//DTD SVG 1.1//EN" "http://www.w3.org/Graphics/SVG/1.1/DTD/svg11.dtd">
<svg version="1.1" xmlns="http://www.w3.org/2000/svg" xmlns:xlink="http://www.w3.org/1999/xlink" preserveAspectRatio="xMidYMid meet" viewBox="0 0 640 640" width="640" height="640"><defs><path d="M155.76 215.59L179.26 219.18L162.25 236.61L166.27 261.23L145.25 249.61L124.22 261.23L128.24 236.61L111.23 219.18L134.74 215.59L145.25 193.2L155.76 215.59Z" id="f7I8NdLcr"></path></defs><g><g><g><g><filter id="shadow299339" x="97.23" y="179.2" width="98.03" height="98.03" filterUnits="userSpaceOnUse" primitiveUnits="userSpaceOnUse"><feFlood></feFlood><feComposite in2="SourceAlpha" operator="in"></feComposite><feGaussianBlur stdDeviation="1.73"></feGaussianBlur><feOffset dx="2" dy="2" result="afterOffset"></feOffset><feFlood flood-color="#000000" flood-opacity="0.5"></feFlood><feComposite in2="afterOffset" operator="in"></feComposite><feMorphology operator="dilate" radius="1"></feMorphology><feComposite in2="SourceAlpha" operator="out"></feComposite></filter><path d="M155.76 215.59L179.26 219.18L162.25 236.61L166.27 261.23L145.25 249.61L124.22 261.23L128.24 236.61L111.23 219.18L134.74 215.59L145.25 193.2L155.76 215.59Z" id="cQgmA2Fd6" fill="white" fill-opacity="1" filter="url(#shadow299339)"></path></g><use xlink:href="#f7I8NdLcr" opacity="1" fill="#b26c46" fill-opacity="1"></use><g><filter id="shadow2488719" x="101.23" y="183.2" width="90.03" height="89.03" filterUnits="userSpaceOnUse" primitiveUnits="userSpaceOnUse"><feFlood></feFlood><feComposite in2="SourceAlpha" operator="out"></feComposite><feGaussianBlur stdDeviation="1"></feGaussianBlur><feOffset dx="2" dy="1" result="afterOffset"></feOffset><feFlood flood-color="#ffffff" flood-opacity="0.8"></feFlood><feComposite in2="afterOffset" operator="in"></feComposite><feMorphology operator="dilate" radius="1"></feMorphology><feComposite in2="SourceAlpha" operator="in"></feComposite></filter><path d="M155.76 215.59L179.26 219.18L162.25 236.61L166.27 261.23L145.25 249.61L124.22 261.23L128.24 236.61L111.23 219.18L134.74 215.59L145.25 193.2L155.76 215.59Z" id="a5k71QZAwX" fill="white" fill-opacity="1" filter="url(#shadow2488719)"></path></g></g></g></g></svg>