<?xml version="1.0" encoding="utf-8"?>
<!-- Generator: Adobe Illustrator 22.0.1, SVG Export Plug-In . SVG Version: 6.00 Build 0)  -->
<svg version="1.1" id="Layer_1" xmlns="http://www.w3.org/2000/svg" xmlns:xlink="http://www.w3.org/1999/xlink" x="0px" y="0px"
	 viewBox="0 0 101.5 175.2" style="enable-background:new 0 0 101.5 175.2;" xml:space="preserve">
<style type="text/css">
	.st0{fill:#FFFFFF;}
	.st1{fill:#BF8B2E;}
	.st2{enable-background:new    ;}
</style>
<title>TARGET 1 B copy 10</title>
<g id="WHITE_BG">
	<g>
		<rect y="0" class="st0" width="101.5" height="175.2"/>
	</g>
</g>
<g id="TARGETS">
	<g>
		<g>
			<path class="st1" d="M7.8,132.2h-1v-6.4H9c1.6,0,2.2,0.7,2.2,1.9c0.1,0.7-0.3,1.4-1,1.7l1.3,2.8h-1.2l-1.1-2.6H7.8V132.2z
				 M7.8,128.7h1.3c0.9,0,1-0.5,1-1s-0.1-1-1-1H7.8V128.7z"/>
		</g>
		<g>
			<path class="st1" d="M15.7,129.3H13v2h3v0.9h-3.9v-6.4H16v0.9h-3v1.8h2.7L15.7,129.3z"/>
		</g>
		<g>
			<path class="st1" d="M20.2,131.3h-0.9l-1.6-3.9v4.8h-0.9v-6.4H18l1.7,4.3l1.7-4.3h1.3v6.4h-1v-4.8L20.2,131.3z"/>
		</g>
		<g>
			<path class="st1" d="M23.4,129c0-1.8,0.4-3.3,2.5-3.3s2.5,1.5,2.5,3.3s-0.4,3.3-2.5,3.3S23.4,130.8,23.4,129z M24.4,129
				c0,1.5,0.3,2.4,1.5,2.4s1.5-0.9,1.5-2.4s-0.3-2.4-1.5-2.4S24.4,127.5,24.4,129L24.4,129z"/>
		</g>
		<g>
			<path class="st1" d="M33.6,125.8l-2,6.4h-1l-2-6.4h1l1.5,5.2l1.5-5.2L33.6,125.8z"/>
		</g>
		<g>
			<path class="st1" d="M37.8,129.3h-2.7v2H38v0.9h-3.8v-6.4H38v0.9h-2.9v1.8h2.7V129.3z"/>
		</g>
		<g>
			<path class="st1" d="M43.6,131.3h-0.9l-1.6-3.9v4.8h-1v-6.4h1.2l1.7,4.3l1.7-4.3H46v6.4h-1v-4.8L43.6,131.3z"/>
		</g>
		<g>
			<path class="st1" d="M50.2,130.6h-2l-0.5,1.6h-1l2-6.4h1l2,6.4h-1L50.2,130.6z M49.2,127l-0.8,2.8H50L49.2,127z"/>
		</g>
		<g>
			<path class="st1" d="M53.1,132.2h-1v-6.4h2.1c1.7,0,2.2,0.7,2.2,1.9c0.1,0.7-0.3,1.4-1,1.7l1.3,2.8h-1.1l-1.2-2.6h-1.3V132.2z
				 M53.1,128.7h1.3c0.9,0,1-0.5,1-1s-0.1-1-1-1h-1.3V128.7z"/>
		</g>
		<g>
			<path class="st1" d="M58.8,129.4l-0.5,0.6v2.2h-1v-6.4h1v3l2.3-3h1.2l-2.3,2.8l2.6,3.6h-1.2L58.8,129.4z"/>
		</g>
		<g>
			<path class="st1" d="M66.2,129.3h-2.7v2h2.9v0.9h-3.9v-6.4h3.9v0.9h-2.9v1.8h2.7V129.3z"/>
		</g>
		<g>
			<path class="st1" d="M69.5,126.7v5.5h-0.9v-5.5h-1.7v-0.9h4.3v0.9H69.5z"/>
		</g>
		<g>
			<path class="st1" d="M6.9,141.2v-6.4h1.9c2.1,0,2.7,1.4,2.7,3.2s-0.6,3.2-2.7,3.2H6.9z M7.9,140.3h1c1.3,0,1.7-0.9,1.7-2.3
				s-0.4-2.3-1.7-2.3h-1L7.9,140.3z"/>
		</g>
		<g>
			<path class="st1" d="M12.3,141.2v-6.4h0.9v6.4H12.3z"/>
		</g>
		<g>
			<path class="st1" d="M18.5,139.3c0,1.2-0.7,2-2.4,2c-0.6,0-1.3-0.1-1.9-0.4V140c0.6,0.3,1.2,0.4,1.8,0.4c1.1,0,1.5-0.5,1.5-1.1
				s-0.3-0.9-1.2-1c-1.6-0.2-2.2-0.6-2.2-1.8c0-0.9,0.5-1.8,2.3-1.8c0.6,0,1.2,0.1,1.7,0.3v1c-0.5-0.2-1.1-0.3-1.7-0.3
				c-1,0-1.3,0.4-1.3,1s0.4,0.8,1.2,0.9C17.8,137.7,18.5,138,18.5,139.3z"/>
		</g>
		<g>
			<path class="st1" d="M21.4,135.7v5.5h-1v-5.5h-1.6v-0.9h4.3v0.9H21.4z"/>
		</g>
		<g>
			<path class="st1" d="M23.4,138c0-1.8,0.4-3.3,2.5-3.3s2.5,1.5,2.5,3.3s-0.4,3.3-2.5,3.3S23.4,139.8,23.4,138z M24.4,138
				c0,1.5,0.3,2.4,1.5,2.4s1.5-0.9,1.5-2.4s-0.3-2.4-1.5-2.4S24.4,136.5,24.4,138L24.4,138z"/>
		</g>
		<g>
			<path class="st1" d="M30,141.2h-1v-6.4h2.1c1.7,0,2.2,0.7,2.2,1.9c0.1,0.7-0.3,1.4-1,1.7l1.3,2.8h-1.2l-1.1-2.6H30V141.2z
				 M30,137.7h1.3c0.9,0,1-0.5,1-1s-0.1-1-1-1H30V137.7z"/>
		</g>
		<g>
			<path class="st1" d="M36.2,135.7v5.5h-1v-5.5h-1.7v-0.9h4.3v0.9H36.2z"/>
		</g>
		<g>
			<path class="st1" d="M38.5,141.2v-6.4h1v6.4H38.5z"/>
		</g>
		<g>
			<path class="st1" d="M40.5,138c0-1.8,0.4-3.3,2.5-3.3s2.5,1.5,2.5,3.3s-0.4,3.3-2.4,3.3S40.5,139.8,40.5,138z M41.5,138
				c0,1.5,0.3,2.4,1.5,2.4s1.5-0.9,1.5-2.4s-0.3-2.4-1.5-2.4S41.5,136.5,41.5,138L41.5,138z"/>
		</g>
		<g>
			<path class="st1" d="M49.8,141.2l-2.8-4.5v4.5h-0.9v-6.4H47l2.8,4.5v-4.5h0.9v6.4H49.8z"/>
		</g>
		<g>
			<path class="st1" d="M55.7,139.3c0,1.2-0.7,2-2.4,2c-0.6,0-1.3-0.1-1.9-0.4V140c0.6,0.3,1.2,0.4,1.8,0.4c1.2,0,1.5-0.5,1.5-1.1
				s-0.3-0.9-1.2-1c-1.5-0.2-2.2-0.6-2.2-1.8c0-0.9,0.5-1.8,2.3-1.8c0.6,0,1.2,0.1,1.7,0.3v1c-0.5-0.2-1.1-0.3-1.7-0.3
				c-1,0-1.3,0.4-1.3,1s0.4,0.8,1.2,0.9C54.9,137.7,55.7,138,55.7,139.3z"/>
		</g>
		<g>
			<path class="st1" d="M59.9,135.7v5.5H59v-5.5h-1.7v-0.9h4.3v0.9H59.9z"/>
		</g>
		<g>
			<path class="st1" d="M65.8,141.2v-2.9h-2.6v2.9h-1v-6.4h1v2.6h2.6v-2.6h1v6.4H65.8z"/>
		</g>
		<g>
			<path class="st1" d="M70.8,139.6h-2l-0.4,1.6h-1l2-6.4h1l2,6.4h-1L70.8,139.6z M69.8,136l-0.8,2.8h1.6L69.8,136z"/>
		</g>
		<g>
			<path class="st1" d="M74.3,135.7v5.5h-1v-5.5h-1.6v-0.9H76v0.9H74.3z"/>
		</g>
		<g>
			<path class="st1" d="M10.5,147.3H7.8v2h2.9v0.9H6.9v-6.4h3.9v0.9H7.8v1.8h2.6V147.3z"/>
		</g>
		<g>
			<path class="st1" d="M15.3,150.2l-2.8-4.5v4.5h-0.9v-6.4h0.9l2.8,4.5v-4.5h0.9v6.4H15.3z"/>
		</g>
		<g>
			<path class="st1" d="M19.5,143.7c0.5,0,1,0.1,1.5,0.3v0.9c-0.4-0.2-0.9-0.3-1.4-0.3c-1.2,0-1.7,0.8-1.7,2.4s0.5,2.4,1.7,2.4
				c0.5,0,1-0.1,1.4-0.3v0.9c-0.5,0.2-1,0.3-1.5,0.3c-1.9,0-2.6-1.2-2.6-3.3S17.6,143.7,19.5,143.7z"/>
		</g>
		<g>
			<path class="st1" d="M21.7,147c0-1.8,0.4-3.3,2.5-3.3s2.5,1.5,2.5,3.3s-0.4,3.3-2.5,3.3S21.7,148.8,21.7,147z M22.7,147
				c0,1.5,0.3,2.4,1.5,2.4s1.5-0.9,1.5-2.4s-0.3-2.4-1.5-2.4S22.7,145.5,22.7,147L22.7,147z"/>
		</g>
		<g>
			<path class="st1" d="M27.4,148.2v-4.4h1v4.3c-0.1,0.7,0.4,1.2,1,1.3c0.1,0,0.2,0,0.3,0c0.6,0.1,1.3-0.3,1.4-1c0-0.1,0-0.2,0-0.3
				v-4.3H32v4.4c0,1.1-0.8,2.1-2,2.1c-0.1,0-0.2,0-0.3,0c-1.1,0.1-2.1-0.7-2.3-1.8C27.4,148.4,27.4,148.3,27.4,148.2z"/>
		</g>
		<g>
			<path class="st1" d="M33.9,150.2H33v-6.4h2c1.7,0,2.2,0.7,2.2,1.9c0.1,0.7-0.3,1.4-1,1.7l1.3,2.8h-1.1l-1.2-2.6h-1.3V150.2z
				 M33.9,146.7h1.3c0.9,0,1-0.5,1-1s-0.1-1-1-1h-1.3V146.7z"/>
		</g>
		<g>
			<path class="st1" d="M41.2,148.6h-2l-0.5,1.6h-1l2-6.4h1l2,6.4h-1L41.2,148.6z M40.2,145l-0.8,2.8H41L40.2,145z"/>
		</g>
		<g>
			<path class="st1" d="M43,147c0-2,0.7-3.3,2.6-3.3c0.6,0,1.2,0.1,1.8,0.3v1c-0.5-0.2-1.1-0.4-1.7-0.4c-1.3,0-1.8,0.9-1.8,2.4
				s0.5,2.4,1.8,2.4c0.3,0,0.6,0,0.9-0.1v-1.7h-1.1v-0.9h2.1v3.2c-0.6,0.3-1.3,0.4-2,0.4C43.7,150.3,43,149,43,147z"/>
		</g>
		<g>
			<path class="st1" d="M52.1,147.3h-2.7v2h2.9v0.9h-3.9v-6.4h3.9v0.9h-2.9v1.8h2.7V147.3z"/>
		</g>
		<g>
			<path class="st1" d="M9.5,152.8h1.2l1.1,5l0.8-5h1l-1.2,6.4h-1.1l-1.1-5.3L9,159.3H7.8l-1.2-6.4h1l0.8,5L9.5,152.8z"/>
		</g>
		<g>
			<path class="st1" d="M16.9,157.6h-2l-0.4,1.6h-1l2-6.4h1l2,6.4h-1L16.9,157.6z M15.9,154l-0.9,2.8h1.6L15.9,154z"/>
		</g>
		<g>
			<path class="st1" d="M22.9,157.3c0,1.2-0.7,2-2.4,2c-0.6,0-1.3-0.1-1.9-0.4V158c0.6,0.3,1.2,0.4,1.8,0.4c1.1,0,1.5-0.5,1.5-1.1
				s-0.3-0.9-1.1-1c-1.6-0.2-2.2-0.6-2.2-1.8c0-0.9,0.5-1.8,2.3-1.8c0.6,0,1.2,0.1,1.7,0.3v1c-0.5-0.2-1.1-0.3-1.7-0.3
				c-1,0-1.3,0.4-1.3,1s0.4,0.8,1.2,0.9C22.1,155.7,22.9,156,22.9,157.3z"/>
		</g>
		<g>
			<path class="st1" d="M25.7,153.7v5.5h-1v-5.5h-1.7v-0.9h4.3v0.9H25.7z"/>
		</g>
		<g>
			<path class="st1" d="M31.7,156.3H29v2h2.9v0.9H28v-6.4h3.9v0.9H29v1.8h2.6L31.7,156.3z"/>
		</g>
		<g>
			<path class="st1" d="M36.3,156.4h-2.6v2.8h-1v-6.4h3.8v0.9h-2.9v1.8h2.6V156.4z"/>
		</g>
		<g>
			<path class="st1" d="M37.1,157.2v-4.4h1v4.3c0,0.8,0.6,1.4,1.4,1.4s1.4-0.6,1.4-1.4v-4.3h1v4.4c0.1,1.1-0.8,2.1-1.9,2.1
				c-0.1,0-0.3,0-0.4,0c-1.1,0.2-2.1-0.5-2.3-1.6C37.1,157.5,37.1,157.4,37.1,157.2z"/>
		</g>
		<g>
			<path class="st1" d="M43.6,158.3h2.8v0.9h-3.7v-6.4h1L43.6,158.3z"/>
		</g>
		<g>
			<path class="st1" d="M9.4,161.7c0.5,0,1,0.1,1.5,0.3v0.9c-0.5-0.2-0.9-0.3-1.4-0.3c-1.2,0-1.7,0.8-1.7,2.4s0.5,2.4,1.7,2.4
				c0.5,0,1-0.1,1.4-0.3v0.9c-0.5,0.2-1,0.3-1.5,0.3c-1.9,0-2.6-1.2-2.6-3.3S7.5,161.7,9.4,161.7z"/>
		</g>
		<g>
			<path class="st1" d="M11.6,165c0-1.8,0.4-3.3,2.5-3.3s2.4,1.5,2.4,3.3s-0.4,3.3-2.4,3.3S11.6,166.8,11.6,165z M12.6,165
				c0,1.5,0.3,2.4,1.5,2.4s1.5-0.9,1.5-2.4s-0.3-2.4-1.5-2.4S12.6,163.5,12.6,165L12.6,165z"/>
		</g>
		<g>
			<path class="st1" d="M20.9,168.2l-2.8-4.5v4.5h-1v-6.4h0.9l2.8,4.5v-4.5h0.9v6.4H20.9z"/>
		</g>
		<g>
			<path class="st1" d="M26.9,166.3c0,1.2-0.7,2-2.4,2c-0.6,0-1.3-0.1-1.9-0.4V167c0.6,0.3,1.2,0.4,1.8,0.4c1.1,0,1.5-0.5,1.5-1.1
				s-0.3-0.9-1.2-1c-1.5-0.2-2.1-0.6-2.1-1.8c0-0.9,0.5-1.8,2.3-1.8c0.6,0,1.2,0.1,1.7,0.3v1c-0.5-0.2-1.1-0.3-1.7-0.3
				c-1,0-1.3,0.4-1.3,1s0.4,0.8,1.2,0.9C26.1,164.7,26.9,165,26.9,166.3z"/>
		</g>
		<g>
			<path class="st1" d="M27.7,166.2v-4.4h1v4.3c-0.1,0.7,0.4,1.3,1,1.3c0.1,0,0.2,0,0.3,0c0.6,0.1,1.3-0.3,1.4-1c0-0.1,0-0.2,0-0.3
				v-4.3h1v4.4c0,1.1-0.8,2.1-2,2.1c-0.1,0-0.3,0-0.4,0c-1.1,0.2-2.1-0.5-2.3-1.6C27.7,166.5,27.7,166.4,27.7,166.2z"/>
		</g>
		<g>
			<path class="st1" d="M36.6,167.3h-0.9l-1.6-3.9v4.8h-1v-6.4h1.2l1.7,4.3l1.7-4.3h1.3v6.4h-1v-4.8L36.6,167.3z"/>
		</g>
		<g>
			<path class="st1" d="M41,168.2h-1v-6.4h2c1.6,0,2.2,0.9,2.2,2s-0.6,2-2.2,2h-1V168.2z M41,165h1.1c0.6,0.1,1.2-0.4,1.2-1
				s-0.4-1.2-1-1.2c-0.1,0-0.1,0-0.2,0H41V165z"/>
		</g>
		<g>
			<path class="st1" d="M47.2,162.7v5.5h-1v-5.5h-1.7v-0.9h4.3v0.9H47.2z"/>
		</g>
		<g>
			<path class="st1" d="M49.5,168.2v-6.4h1v6.4H49.5z"/>
		</g>
		<g>
			<path class="st1" d="M51.5,165c0-1.8,0.4-3.3,2.5-3.3s2.5,1.5,2.5,3.3s-0.4,3.3-2.4,3.3S51.5,166.8,51.5,165z M52.5,165
				c0,1.5,0.3,2.4,1.5,2.4s1.5-0.9,1.5-2.4s-0.3-2.4-1.5-2.4S52.5,163.5,52.5,165L52.5,165z"/>
		</g>
		<g>
			<path class="st1" d="M60.8,168.2l-2.8-4.5v4.5h-0.9v-6.4H58l2.8,4.5v-4.5h0.9v6.4H60.8z"/>
		</g>
	</g>
	<g>
		<rect x="3.3" y="24" class="st1" width="94.8" height="94.8"/>
	</g>
	<g>
		<path class="st1" d="M98.2,20.7H3.3V3.3h94.8V20.7z M4.3,19.7h92.8V4.3H4.3L4.3,19.7z"/>
	</g>
	<g class="st2">
		<path class="st1" d="M6.7,6.9h4.5v1.4H9.9v8.8H8.1V8.3H6.7V6.9z"/>
	</g>
	<g class="st2">
		<path class="st1" d="M11.2,17.1l1.9-10.2h1.9L17,17.1h-1.8l-0.3-1.9h-1.8l-0.3,1.9H11.2z M13.3,13.9h1.4L14,9.8h0L13.3,13.9z"/>
	</g>
	<g class="st2">
		<path class="st1" d="M19.6,12.4v4.7h-1.7V6.9h2.5c1.7,0,2.4,0.9,2.4,2.3v1.3c0,1.1-0.4,1.7-1.4,2l1.6,4.6h-1.8L19.6,12.4z
			 M19.6,8.3v3.2h0.6c0.6,0,0.8-0.3,0.8-0.8V9.2c0-0.6-0.3-0.8-0.8-0.8H19.6z"/>
	</g>
	<g class="st2">
		<path class="st1" d="M26.4,11.7h2.4v5.4h-1.2V16c-0.2,0.8-0.7,1.2-1.6,1.2c-1.5,0-2.1-1.2-2.1-2.7V9.6c0-1.6,0.8-2.7,2.6-2.7
			c1.9,0,2.4,1.1,2.4,2.6v0.9h-1.6v-1c0-0.6-0.2-1-0.9-1c-0.6,0-0.9,0.4-0.9,1v5.5c0,0.6,0.3,1,0.8,1c0.6,0,0.8-0.3,0.8-1V13h-0.8
			V11.7z"/>
	</g>
	<g class="st2">
		<path class="st1" d="M30.2,6.9h4.1v1.4h-2.4v2.9h1.7v1.4h-1.7v3.1h2.4v1.4h-4.1V6.9z"/>
	</g>
	<g class="st2">
		<path class="st1" d="M35.1,6.9h4.5v1.4h-1.4v8.8h-1.7V8.3h-1.4V6.9z"/>
	</g>
	<g class="st2">
		<path class="st1" d="M89.4,14.5V9.6c0-1.6,0.8-2.7,2.5-2.7c1.9,0,2.4,1.1,2.4,2.6v1.2h-1.6V9.2c0-0.6-0.2-1-0.8-1
			c-0.6,0-0.9,0.4-0.9,1v5.5c0,0.6,0.3,1,0.9,1c0.6,0,0.8-0.4,0.8-1v-1.9h1.6v1.8c0,1.5-0.6,2.5-2.4,2.5
			C90.2,17.2,89.4,16.1,89.4,14.5z"/>
	</g>
	<g class="st2">
		<path class="st1" d="M77.3,6.9v10.2h-1.7V9.3h0l-1.2,1.2h0V8.8L76,6.9H77.3z"/>
		<path class="st1" d="M78.7,15.2c0-1,0.3-1.7,1.3-2.7l1-1c0.6-0.6,0.6-0.9,0.6-1.8V8.9c0-0.6-0.3-0.8-0.6-0.8
			c-0.4,0-0.7,0.2-0.7,0.8v1.3h-1.6V9c0-1.4,0.8-2.2,2.3-2.2c1.5,0,2.2,0.7,2.2,2.1v1c0,1-0.2,1.6-1.1,2.6l-1.1,1.2
			c-0.4,0.5-0.7,0.8-0.7,1.6v0.5h2.8v1.4h-4.4V15.2z"/>
	</g>
	<g>
		<polygon class="st1" points="85.4,9.9 85.4,14.1 87.6,12 		"/>
	</g>
	<g>
		<path class="st1" d="M98.2,171.9h-95v-49.7h95V171.9z M4.2,170.9h93v-47.7h-93V170.9z"/>
	</g>
	<g>
		<g>
			<g>
				<path d="M37.6,81.7h-7.7v-0.9c0-0.2-0.1-0.3-0.3-0.3h-5.8c-0.2,0-0.3,0.1-0.3,0.3l0,0v0.9h-7.6c-0.2,0-0.3,0.1-0.3,0.3l0.2,1.2
					c0,0.2,0.1,0.3,0.3,0.3h21.3c0.2,0,0.3-0.1,0.3-0.3l0,0l0.2-1.2C37.9,81.8,37.8,81.7,37.6,81.7z"/>
			</g>
			<g>
				<path d="M37.3,84.7H16.1c-0.2,0-0.3,0.1-0.3,0.3l0,0l1.5,22.3c0,0.2,0.1,0.3,0.3,0.3h0h18.2c0.2,0,0.3-0.1,0.3-0.3l0,0L37.6,85
					C37.6,84.8,37.5,84.7,37.3,84.7C37.3,84.7,37.3,84.7,37.3,84.7z M21.6,104.5L21.6,104.5c-0.4,0-0.7-0.3-0.8-0.7L20,88.6
					c0-0.4,0.3-0.8,0.7-0.8c0.4,0,0.8,0.3,0.8,0.7c0,0,0,0,0,0l0.9,15.1C22.4,104.1,22.1,104.5,21.6,104.5
					C21.7,104.5,21.7,104.5,21.6,104.5z M27.5,103.7c0,0.4-0.3,0.8-0.8,0.8s-0.8-0.3-0.8-0.8V88.6c0-0.4,0.3-0.8,0.8-0.8
					s0.8,0.3,0.8,0.8V103.7z M32.7,103.7c0,0.4-0.4,0.7-0.8,0.7l0,0c-0.4,0-0.7-0.4-0.7-0.8l0.9-15.1c0-0.4,0.4-0.7,0.8-0.7
					s0.7,0.4,0.7,0.8L32.7,103.7z"/>
			</g>
		</g>
		<g>
			<path d="M36.3,56.8V34.5c0-0.2-0.1-0.3-0.3-0.3c0,0,0,0,0,0H17.6c-0.2,0-0.3,0.1-0.3,0.3c0,0,0,0,0,0v22.3h-7.1l16.7,16.7
				l16.7-16.7H36.3z"/>
		</g>
	</g>
	<g>
		<g>
			<g>
				<g>
					<path class="st0" d="M51.5,113.4h-1.7v-4.7h1.7V113.4z M51.5,104.6h-1.7v-4.7h1.7V104.6z M51.5,95.8h-1.7V91h1.7V95.8z"/>
				</g>
				<g>
					<path class="st0" d="M51.5,87h-1.7v-4.7h1.7V87z M51.5,78.2h-1.7v-4.7h1.7V78.2z"/>
				</g>
			</g>
			<g>
				<g>
					<path class="st0" d="M51.5,69.4h-1.7v-4.7h1.7V69.4z M51.5,60.6h-1.7v-4.7h1.7V60.6z M51.5,51.8h-1.7v-4.7h1.7V51.8z"/>
				</g>
				<g>
					<path class="st0" d="M51.5,43.1h-1.7v-4.7h1.7V43.1z M51.5,34.2h-1.7v-4.7h1.7V34.2z"/>
				</g>
			</g>
		</g>
		<g>
			<g>
				<path class="st0" d="M88.9,42.4c-1.5-1.1-3.3-1.7-5.2-1.7c-0.4,0-0.8,0-1.3,0.1h-0.1c-2.3,0.5-4.4,1.8-5.7,3.8l-0.1,0.1
					c0,0.1-0.1,0.1-0.1,0.2c0,0.1,0,0.1,0,0.2v0.1c0.4,0.7,0.7,1.2,1,1.7c0.1,0.2,0.3,0.2,0.4,0.1c0,0,0.1,0,0.1-0.1v-0.1
					c2.1-2.9,3.7-3.3,4.8-3.5h0.1c0.2,0,0.4-0.1,0.7-0.1c1.3,0,2.6,0.4,3.6,1.2c1.4,1.1,2.1,2.8,2,4.6c0,3.5-1.7,4.8-3.1,5.3
					c-0.5,0.2-1.1,0.3-1.7,0.3c-0.9,0-1.8-0.2-2.6-0.6h-0.1c-1.2-0.5-3-1.6-4.7-5c-3.5-7-6.4-7.7-8.3-8.1h-0.1
					c-0.4-0.1-0.8-0.1-1.2-0.1c-1.9,0-3.7,0.6-5.1,1.7c-1.3,1-2.8,3-2.8,6.6c-0.2,4.2,3.1,7.8,7.3,7.9c0.2,0,0.3,0,0.5,0
					c0.6,0,1.2-0.1,1.8-0.2c1.1-0.2,2.1-0.7,3-1.4l1,0.9c0.1,0.1,0.3,0.1,0.4,0c0.1,0,0.1-0.1,0.1-0.2l0.8-4.8v-0.1
					c0-0.1,0-0.2-0.1-0.2C74,51,73.9,51,73.8,51l0,0l-4.7,1.3H69c-0.1,0-0.1,0-0.2,0.1c-0.1,0.1-0.1,0.1-0.1,0.2
					c0,0.1,0,0.2,0.1,0.2l1,0.9c-0.5,0.3-1,0.5-1.5,0.6c-0.4,0.1-0.8,0.1-1.3,0.1c-1.5,0-3-0.7-4-1.8l0,0c-0.8-1-1.2-2.3-1.1-3.7
					c-0.1-1.7,0.5-3.4,1.8-4.5c1-0.7,2.3-1.1,3.5-1.1c0.2,0,0.4,0,0.7,0h0.1c1.5,0.3,3.7,0.8,6.6,6.7c1.6,3.1,3.5,5.2,5.9,6.2
					c1.2,0.6,2.5,0.9,3.8,0.9c0.9,0,1.8-0.1,2.6-0.4c1.4-0.5,4.8-2.4,4.8-7.7C91.9,46.4,90.8,44,88.9,42.4z"/>
			</g>
			<g>
				<path class="st0" d="M66.2,85v22.3c0,0.2,0.1,0.3,0.3,0.3c0,0,0,0,0,0h18.3c0.2,0,0.3-0.1,0.3-0.3c0,0,0,0,0,0V85h7.1L75.5,68.3
					L58.9,85H66.2z"/>
			</g>
		</g>
	</g>
</g>
</svg>
