<?xml version="1.0" encoding="utf-8"?>
<!-- Generator: Adobe Illustrator 22.0.1, SVG Export Plug-In . SVG Version: 6.00 Build 0)  -->
<svg version="1.1" id="Layer_1" xmlns="http://www.w3.org/2000/svg" xmlns:xlink="http://www.w3.org/1999/xlink" x="0px" y="0px"
	 viewBox="0 0 101.5 166.3" style="enable-background:new 0 0 101.5 166.3;" xml:space="preserve">
<style type="text/css">
	.st0{fill:#FFFFFF;}
	.st1{fill:#BF8B2E;}
	.st2{enable-background:new    ;}
</style>
<title>TARGET 1.2</title>
<g id="WHITE_BG">
	<g>
		<rect y="0" class="st0" width="101.5" height="166.3"/>
	</g>
</g>
<g id="TARGETS">
	<g>
		<g>
			<path class="st1" d="M11.1,130.3c0,1.2-0.7,2-2.4,2c-0.6,0-1.3-0.1-1.9-0.3v-1c0.6,0.3,1.2,0.4,1.8,0.4c1.1,0,1.5-0.5,1.5-1.1
				s-0.3-0.9-1.2-1c-1.6-0.2-2.2-0.6-2.2-1.8c0-0.9,0.5-1.8,2.3-1.8c0.6,0,1.2,0.1,1.7,0.3v1c-0.5-0.2-1.1-0.3-1.7-0.3
				c-1,0-1.3,0.4-1.3,1s0.4,0.8,1.2,0.9C10.3,128.7,11.1,129,11.1,130.3z"/>
		</g>
		<g>
			<path class="st1" d="M11.7,130.2v-4.4h1v4.3c-0.1,0.7,0.4,1.2,1,1.3c0.1,0,0.2,0,0.3,0c0.6,0.1,1.2-0.3,1.4-1c0-0.1,0-0.2,0-0.3
				v-4.3h0.9v4.4c0.1,1.1-0.8,2.1-1.9,2.1c-0.2,0-0.3,0-0.4,0c-1.1,0.1-2.2-0.6-2.3-1.8C11.7,130.4,11.7,130.3,11.7,130.2z"/>
		</g>
		<g>
			<path class="st1" d="M21.3,130.3c0,1.2-0.7,2-2.4,2c-0.6,0-1.3-0.1-1.9-0.3v-1c0.6,0.3,1.2,0.4,1.8,0.4c1.1,0,1.5-0.5,1.5-1.1
				s-0.3-0.9-1.2-1c-1.5-0.2-2.2-0.6-2.2-1.8c0-0.9,0.5-1.8,2.3-1.8c0.6,0,1.2,0.1,1.7,0.3v1c-0.5-0.2-1.1-0.3-1.7-0.3
				c-1,0-1.3,0.4-1.3,1s0.4,0.8,1.2,0.9C20.5,128.7,21.3,129,21.3,130.3z"/>
		</g>
		<g>
			<path class="st1" d="M24.1,126.7v5.5h-1v-5.5h-1.6v-0.9h4.3v0.9L24.1,126.7z"/>
		</g>
		<g>
			<path class="st1" d="M28.9,130.6h-2l-0.5,1.6h-1l2-6.4h1l2,6.4h-1L28.9,130.6z M27.9,127l-0.9,2.8h1.6L27.9,127z"/>
		</g>
		<g>
			<path class="st1" d="M31,132.2v-6.4h1v6.4H31z"/>
		</g>
		<g>
			<path class="st1" d="M36.7,132.2l-2.7-4.5v4.5h-1v-6.4h0.9l2.8,4.5v-4.5h0.9v6.4H36.7z"/>
		</g>
		<g>
			<path class="st1" d="M41.7,130.6h-2l-0.5,1.6h-1l2-6.4h1l2,6.4h-1L41.7,130.6z M40.7,127l-0.8,2.8h1.6L40.7,127z"/>
		</g>
		<g>
			<path class="st1" d="M43.7,125.8h2.1c1.6,0,2,0.8,2,1.8c0,0.5-0.3,1-0.8,1.3c0.6,0.2,1.1,0.8,1,1.5c0,1-0.5,1.9-2.2,1.9h-2.2
				V125.8z M45.8,126.7h-1.2v1.8h1.2c0.8,0,1-0.5,1-0.9S46.7,126.7,45.8,126.7z M44.6,131.3h1.3c0.9,0,1.1-0.5,1.1-1s-0.3-1-1.1-1
				h-1.3V131.3z"/>
		</g>
		<g>
			<path class="st1" d="M49.7,131.3h2.8v0.9h-3.7v-6.4h1L49.7,131.3z"/>
		</g>
		<g>
			<path class="st1" d="M56.6,129.3h-2.7v2h2.9v0.9H53v-6.4h3.9v0.9h-2.9v1.8h2.7V129.3z"/>
		</g>
		<g>
			<path class="st1" d="M10.3,140.3H9.4l-1.6-3.9v4.8h-1v-6.4h1.3l1.7,4.4l1.7-4.4h1.2v6.4h-0.9v-4.8L10.3,140.3z"/>
		</g>
		<g>
			<path class="st1" d="M16.8,139.6h-2l-0.4,1.6h-1l2-6.4h1l2,6.4h-1L16.8,139.6z M15.8,136l-0.8,2.8h1.6L15.8,136z"/>
		</g>
		<g>
			<path class="st1" d="M22.5,141.2l-2.8-4.5v4.5h-0.9v-6.4h0.9l2.8,4.5v-4.5h1v6.4H22.5z"/>
		</g>
		<g>
			<path class="st1" d="M27.4,139.6h-2l-0.4,1.6h-1l2-6.4h1l2,6.4h-1L27.4,139.6z M26.4,136l-0.8,2.8h1.6L26.4,136z"/>
		</g>
		<g>
			<path class="st1" d="M29.2,138c0-2,0.7-3.3,2.6-3.3c0.6,0,1.3,0.1,1.8,0.3v1c-0.5-0.2-1.1-0.4-1.7-0.4c-1.3,0-1.8,0.9-1.8,2.4
				s0.5,2.4,1.8,2.4c0.3,0,0.6,0,0.9-0.1v-1.7h-1.1v-0.9h2.1v3.2c-0.6,0.3-1.3,0.4-2,0.4C29.9,141.3,29.2,140,29.2,138z"/>
		</g>
		<g>
			<path class="st1" d="M38.3,138.3h-2.7v2h2.9v0.9h-3.9v-6.4h3.9v0.9h-2.9v1.8h2.7V138.3z"/>
		</g>
		<g>
			<path class="st1" d="M42.8,140.3h-0.9l-1.6-3.9v4.8h-1v-6.4h1.2l1.7,4.4l1.7-4.4h1.2v6.4h-1v-4.8L42.8,140.3z"/>
		</g>
		<g>
			<path class="st1" d="M49.9,138.3h-2.7v2h2.9v0.9h-3.9v-6.4h3.9v0.9h-2.9v1.8h2.7V138.3z"/>
		</g>
		<g>
			<path class="st1" d="M54.7,141.2l-2.8-4.5v4.5H51v-6.4h0.9l2.8,4.5v-4.5h1v6.4H54.7z"/>
		</g>
		<g>
			<path class="st1" d="M58.7,135.7v5.5h-1v-5.5h-1.6v-0.9h4.3v0.9H58.7z"/>
		</g>
		<g>
			<path class="st1" d="M65.4,139.6h-2l-0.5,1.6h-1l2-6.4h1l2,6.4h-1L65.4,139.6z M64.4,136l-0.8,2.8h1.6L64.4,136z"/>
		</g>
		<g>
			<path class="st1" d="M71.1,141.2l-2.8-4.5v4.5h-0.9v-6.4h0.9l2.8,4.5v-4.5h0.9v6.4H71.1z"/>
		</g>
		<g>
			<path class="st1" d="M72.9,141.2v-6.4h1.9c2.1,0,2.7,1.4,2.7,3.2s-0.6,3.2-2.7,3.2H72.9z M73.9,140.3h1c1.3,0,1.7-0.9,1.7-2.3
				s-0.4-2.3-1.7-2.3h-1V140.3z"/>
		</g>
		<g>
			<path class="st1" d="M6.8,148.2v-4.4h1v4.3c-0.1,0.6,0.4,1.2,1,1.3c0.1,0,0.2,0,0.3,0c0.6,0.1,1.3-0.3,1.4-1c0-0.1,0-0.2,0-0.3
				v-4.3h1v4.4c0,1.1-0.8,2.1-2,2.1c-0.1,0-0.2,0-0.3,0c-1.1,0.2-2.1-0.5-2.4-1.5C6.8,148.6,6.8,148.4,6.8,148.2z"/>
		</g>
		<g>
			<path class="st1" d="M16.5,148.3c0,1.2-0.7,2-2.4,2c-0.6,0-1.3-0.1-1.9-0.4v-1c0.6,0.3,1.2,0.4,1.8,0.4c1.1,0,1.5-0.5,1.5-1.1
				s-0.3-0.9-1.2-1c-1.6-0.2-2.2-0.6-2.2-1.8c0-0.9,0.5-1.9,2.3-1.9c0.6,0,1.2,0.1,1.7,0.3v1c-0.5-0.2-1.1-0.3-1.7-0.3
				c-1,0-1.3,0.4-1.3,1s0.4,0.8,1.2,0.9C15.8,146.7,16.5,147,16.5,148.3z"/>
		</g>
		<g>
			<path class="st1" d="M21,147.3h-2.7v2h2.9v0.9h-3.9v-6.4h3.9v0.9h-2.9v1.8H21V147.3z"/>
		</g>
		<g>
			<path class="st1" d="M23.4,147c0-1.8,0.4-3.3,2.5-3.3s2.5,1.5,2.5,3.3s-0.4,3.3-2.5,3.3S23.4,148.8,23.4,147z M24.4,147
				c0,1.5,0.3,2.4,1.5,2.4s1.5-0.9,1.5-2.4s-0.3-2.4-1.5-2.4S24.3,145.5,24.4,147L24.4,147z"/>
		</g>
		<g>
			<path class="st1" d="M32.5,147.4H30v2.8h-1v-6.4h3.8v0.9H30v1.8h2.6L32.5,147.4z"/>
		</g>
		<g>
			<path class="st1" d="M38.6,150.2l-2.8-4.5v4.5h-0.9v-6.4h0.9l2.8,4.5v-4.5h0.9v6.4H38.6z"/>
		</g>
		<g>
			<path class="st1" d="M43.5,148.6h-2l-0.5,1.6h-1l2-6.4h1l2,6.4h-1L43.5,148.6z M42.5,145l-0.8,2.8h1.6L42.5,145z"/>
		</g>
		<g>
			<path class="st1" d="M47,144.7v5.5h-1v-5.5h-1.6v-0.9h4.3v0.9H47z"/>
		</g>
		<g>
			<path class="st1" d="M49.3,148.2v-4.4h1v4.3c0,0.8,0.6,1.4,1.4,1.4s1.4-0.6,1.4-1.4v-4.3h1v4.4c0,1.1-0.8,2.1-2,2.1
				c-0.1,0-0.2,0-0.3,0c-1.1,0.2-2.1-0.5-2.4-1.5C49.3,148.6,49.3,148.4,49.3,148.2z"/>
		</g>
		<g>
			<path class="st1" d="M55.8,150.2h-1v-6.4h2.1c1.7,0,2.2,0.7,2.2,1.9c0.1,0.7-0.3,1.4-1,1.7l1.3,2.8h-1.2l-1.2-2.6h-1.3V150.2z
				 M55.8,146.7H57c0.9,0,1-0.5,1-1s-0.1-1-1-1h-1.2V146.7z"/>
		</g>
		<g>
			<path class="st1" d="M63.1,148.6h-2l-0.5,1.6h-1l2-6.4h1l2,6.4h-1L63.1,148.6z M62.1,145l-0.8,2.8h1.6L62.1,145z"/>
		</g>
		<g>
			<path class="st1" d="M66.1,149.3h2.8v0.9h-3.7v-6.4h1L66.1,149.3z"/>
		</g>
		<g>
			<path class="st1" d="M7.8,159.2h-1v-6.4H9c1.6,0,2.2,0.8,2.2,1.9c0.1,0.7-0.3,1.4-1,1.7l1.3,2.8h-1.2l-1.1-2.6H7.8V159.2z
				 M7.8,155.7h1.3c0.9,0,1-0.5,1-1s-0.1-1-1-1H7.8V155.7z"/>
		</g>
		<g>
			<path class="st1" d="M15.7,156.3H13v2h3v0.9h-3.9v-6.4H16v0.9h-3v1.8h2.7L15.7,156.3z"/>
		</g>
		<g>
			<path class="st1" d="M21,157.3c0,1.2-0.7,2-2.4,2c-0.6,0-1.3-0.1-1.9-0.4v-1c0.6,0.3,1.2,0.4,1.8,0.4c1.1,0,1.5-0.5,1.5-1.1
				s-0.3-0.9-1.2-1c-1.5-0.2-2.2-0.6-2.2-1.8c0-0.9,0.5-1.9,2.3-1.9c0.6,0,1.2,0.1,1.7,0.3v1c-0.5-0.2-1.1-0.3-1.7-0.3
				c-1,0-1.3,0.4-1.3,1s0.4,0.8,1.2,0.9C20.2,155.7,21,156,21,157.3z"/>
		</g>
		<g>
			<path class="st1" d="M21.6,156c0-1.8,0.4-3.3,2.5-3.3s2.5,1.5,2.5,3.3s-0.4,3.3-2.5,3.3S21.6,157.8,21.6,156z M22.6,156
				c0,1.5,0.3,2.4,1.5,2.4s1.5-0.9,1.5-2.4s-0.3-2.4-1.5-2.4S22.5,154.5,22.6,156L22.6,156z"/>
		</g>
		<g>
			<path class="st1" d="M27.2,157.2v-4.4h1v4.3c-0.1,0.7,0.4,1.3,1,1.3c0.1,0,0.2,0,0.3,0c0.6,0.1,1.3-0.3,1.4-1c0-0.1,0-0.2,0-0.3
				v-4.3h1v4.4c0.1,1.1-0.8,2.1-1.9,2.1c-0.2,0-0.3,0-0.4,0c-1.1,0.1-2.2-0.6-2.3-1.8C27.2,157.4,27.2,157.3,27.2,157.2z"/>
		</g>
		<g>
			<path class="st1" d="M33.7,159.2h-1v-6.4h2.1c1.7,0,2.2,0.8,2.2,1.9c0.1,0.7-0.3,1.4-1,1.7l1.3,2.8h-1.1l-1.1-2.6h-1.3V159.2z
				 M33.7,155.7h1.2c0.9,0,1-0.5,1-1s-0.1-1-1-1h-1.2V155.7z"/>
		</g>
		<g>
			<path class="st1" d="M40.3,152.7c0.5,0,1,0.1,1.5,0.3v0.9c-0.5-0.2-0.9-0.3-1.4-0.3c-1.2,0-1.7,0.8-1.7,2.4s0.5,2.4,1.7,2.4
				c0.5,0,1-0.1,1.4-0.3v0.9c-0.5,0.2-1,0.3-1.5,0.3c-1.9,0-2.6-1.2-2.6-3.3S38.4,152.7,40.3,152.7z"/>
		</g>
		<g>
			<path class="st1" d="M46.2,156.3h-2.7v2h2.9v0.9h-3.9v-6.4h3.9v0.9h-2.9v1.8h2.7V156.3z"/>
		</g>
		<g>
			<path class="st1" d="M51.5,157.3c0,1.2-0.7,2-2.4,2c-0.6,0-1.3-0.1-1.9-0.4v-1c0.6,0.3,1.2,0.4,1.8,0.4c1.2,0,1.5-0.5,1.5-1.1
				s-0.3-0.9-1.2-1c-1.5-0.2-2.2-0.6-2.2-1.8c0-0.9,0.5-1.9,2.3-1.9c0.6,0,1.2,0.1,1.7,0.3v1c-0.5-0.2-1.1-0.3-1.7-0.3
				c-1,0-1.3,0.4-1.3,1s0.4,0.8,1.2,0.9C50.8,155.7,51.5,156,51.5,157.3z"/>
		</g>
	</g>
	<g>
		<rect x="3.3" y="24" class="st1" width="94.8" height="94.8"/>
	</g>
	<g>
		<path class="st1" d="M98.2,20.7H3.3V3.3h94.8V20.7z M4.3,19.7h92.8V4.3H4.3L4.3,19.7z"/>
	</g>
	<g class="st2">
		<path class="st1" d="M6.7,6.9h4.5v1.4H9.9v8.8H8.1V8.3H6.7V6.9z"/>
	</g>
	<g class="st2">
		<path class="st1" d="M11.2,17.1l1.9-10.2h1.9L17,17.1h-1.8l-0.3-1.9h-1.8l-0.3,1.9H11.2z M13.3,13.9h1.4L14,9.8h0L13.3,13.9z"/>
	</g>
	<g class="st2">
		<path class="st1" d="M19.6,12.4v4.7h-1.7V6.9h2.5c1.7,0,2.4,0.9,2.4,2.3v1.3c0,1.1-0.4,1.7-1.4,2l1.6,4.6h-1.8L19.6,12.4z
			 M19.6,8.3v3.2h0.6c0.6,0,0.8-0.3,0.8-0.8V9.2c0-0.6-0.3-0.8-0.8-0.8H19.6z"/>
	</g>
	<g class="st2">
		<path class="st1" d="M26.4,11.7h2.4v5.4h-1.2V16c-0.2,0.8-0.7,1.2-1.6,1.2c-1.5,0-2.1-1.2-2.1-2.7V9.6c0-1.6,0.8-2.7,2.6-2.7
			c1.9,0,2.4,1.1,2.4,2.6v0.9h-1.6v-1c0-0.6-0.2-1-0.9-1c-0.6,0-0.9,0.4-0.9,1v5.5c0,0.6,0.3,1,0.8,1c0.6,0,0.8-0.3,0.8-1V13h-0.8
			V11.7z"/>
	</g>
	<g class="st2">
		<path class="st1" d="M30.2,6.9h4.1v1.4h-2.4v2.9h1.7v1.4h-1.7v3.1h2.4v1.4h-4.1V6.9z"/>
	</g>
	<g class="st2">
		<path class="st1" d="M35.1,6.9h4.5v1.4h-1.4v8.8h-1.7V8.3h-1.4V6.9z"/>
	</g>
	<g class="st2">
		<path class="st1" d="M78.4,6.9v10.2h-1.7V9.3h0l-1.2,1.2h0V8.8L77,6.9H78.4z"/>
		<path class="st1" d="M79.8,15.2c0-1,0.3-1.7,1.3-2.7l1-1c0.6-0.6,0.6-0.9,0.6-1.8V9c0-0.6-0.3-0.8-0.6-0.8c-0.4,0-0.7,0.2-0.7,0.8
			v1.3h-1.6V9c0-1.4,0.8-2.2,2.3-2.2c1.5,0,2.2,0.7,2.2,2.1v1c0,1-0.2,1.6-1.1,2.6l-1.1,1.2c-0.4,0.5-0.7,0.8-0.7,1.6v0.5h2.8v1.4
			h-4.4V15.2z"/>
	</g>
	<g class="st2">
	</g>
	<g class="st2">
		<path class="st1" d="M87.1,10.8c0.7,0,1.2,0.6,1.2,1.2c0,0.7-0.6,1.2-1.2,1.2c-0.7,0-1.2-0.6-1.2-1.2
			C85.8,11.4,86.4,10.8,87.1,10.8z"/>
	</g>
	<g class="st2">
		<path class="st1" d="M89.8,15.2c0-1,0.3-1.7,1.3-2.7l1-1c0.6-0.6,0.6-0.9,0.6-1.8V9c0-0.6-0.3-0.8-0.6-0.8c-0.4,0-0.7,0.2-0.7,0.8
			v1.3h-1.6V9c0-1.4,0.8-2.2,2.3-2.2c1.5,0,2.2,0.7,2.2,2.1v1c0,1-0.2,1.6-1.1,2.6l-1.1,1.2c-0.4,0.5-0.7,0.8-0.7,1.6v0.5h2.8v1.4
			h-4.4V15.2z"/>
	</g>
	<g>
		<g>
			<path class="st0" d="M51,51.4c-11.2,0-20.3,9-20.3,20.2s9,20.3,20.2,20.3c11.2,0,20.3-9,20.3-20.2c0,0,0,0,0,0
				C71.2,60.5,62.2,51.4,51,51.4z M61.2,87c-0.2,0.1-0.4,0.3-0.7,0.4c-2.8,1.7-6.1,2.6-9.4,2.6c-1.7,0-3.5-0.3-5.1-0.8
				c-0.3-0.2-0.4-0.6-0.2-0.9c0.6-1.5,2.3-2.1,3.6-2.2c3-0.3,6.9,1.9,7.5,1.6s1.9-2,3.7-1.9c0.6,0,1.1,0.1,1.6,0.4
				c-0.3,0.2-0.5,0.4-0.8,0.6L61.2,87z M48.8,53.3l0.4,0c0.6,0,1.1-0.1,1.7-0.1c8.7,0,16.2,6.1,18.1,14.6c0,0.1,0,0.2-0.1,0.4
				c-0.2,0.6-0.9,0.9-1.6,0.7c-0.3-0.1-0.5-0.3-0.6-0.5c-0.2-0.3-1-1-0.9,0.3s1.2,1.4,0.1,2.2c-0.6,0.4-1.2,0.7-1.9,0.8
				c-0.7,0.5-1,1.4-0.9,2.2c0.1,0.7,1.8,2.6,0.6,2.6c-1.2-0.6-2.1-1.4-2.8-2.5c-0.4-1-0.8-2-1.1-2.8c-0.2-0.6-0.8-0.9-1.4-0.7
				c-0.1,0-0.2,0.1-0.3,0.2c-0.7,0.4,0.2,0.9-0.3,1.8s-0.8,1.8-1.5,1c-1.8-2.1-4.4-1-4.8-3.3c-0.2-1.2-1.3-1.1-2.2-1.8
				s-1.4-1.1-1.5-0.6s2.8,2.8,3,3.4c0.3,0.9-0.9,1.7-1.8,1.9s-1.2-0.5-2.1-1.4s-1.2-1.5-1.3-0.8c0.1,1.2,0.7,2.3,1.7,3
				c0.8,0.5,1.6,0.7,1.3,1.4s0,0.3-0.8,1.2c-0.7,0.5-1.1,1.4-0.9,2.2c0,1.2-0.2,1.2-0.4,2.2s-0.6,0.1-0.9,1.5
				c-0.2,0.9-0.6,1.7-1.1,2.4c-0.7,0.6-1.6,1-2.5,1c-0.8-0.1-1-2.3-1-3.4c0-0.4-0.6,0.8-0.8-1.6c-0.2-1.5-1.2,0.2-1.2-0.9
				s-0.6-0.8-1.1-1.4s-1.2,0.1-1.9,0.4s-0.4,0.5-1.4,0.2h-0.1c-1-2.3-1.4-4.7-1.4-7.2c0-0.6,0-2.9,1-3.5c0.4-0.2,0.8-0.3,1.2-0.3
				c1,0.2,2,0.4,3,0.8c1.1,0.4,2.7,1.3,3.7,0.9c0.7-0.3,1.3-0.7,1.2-1.3s-0.7-0.9-1.4-0.4c-0.3,0.2-0.8-1.1-1.2-1s0.5,1.5,0.2,1.6
				s-1.1-1.5-1.2-1.8s-0.7-0.9-1.2-0.4c-1.1,1-2.7,0.6-3.3,0.8c-1.2,0.5-1.3,0.2-1.3-0.5c0-0.2,0-0.4,0.1-0.5c0.6-0.4,1.3-0.5,2-0.2
				c0.5,0.3,0.8-0.1,1-0.3s0.1-0.5,0-0.8s0.2-0.4,0.5-0.5c0.5-0.3,0.9-0.5,1.4-0.8c0.9-0.3,1.9-0.3,2.8,0c0.6,0.3,1.4,0.2,1.9-0.4
				c0.4-0.4,0.8-0.8,1.3-1.1c0.3-0.1-0.7-1-1.4,0s-1.1,1-1.5,1s-2.5-0.5-2.8-1.2s0.7-1.2,1.5-1.5c1.1-0.3,2.3-0.4,3.5-0.5
				c1.1-0.2,2.5-0.8,3.2-0.3s-3,1.3-1.8,2c0.4,0.2,2.4-1.1,3.1-1.5c1.6-0.8-1.5-1.1-1.1-2.7c0.5-1.9-3.8-1.1-5.9-1
				c2-1.3,4.3-2.2,6.7-2.6C48.2,53.4,48.5,53.4,48.8,53.3z M69.4,71.6c0,1.2-0.1,2.4-0.4,3.6c-0.6-0.4-2.4-3-0.8-4.8
				c0.3-0.3-0.6-1.2-0.3-1.2c0.6-0.1,1.2,0.3,1.4,0.9C69.3,70.6,69.4,71.1,69.4,71.6z M63.5,84.4c-1-0.5-0.9,0.3-1.4,0.1
				s0.6-1.3-0.9-0.4s-1.1-0.2-1.7-1.8s0.7-3.5,1.9-3.9c1.1-0.4,2.2-0.7,3.3-0.9c2.2-0.6,2.7-1.9,3.1-1.1c0.1,0.2,0.2,0.3,0.2,0.4
				c0.1,0.3,0.2,0.7,0.2,1c-0.9,2.5-2.4,4.8-4.3,6.7C63.8,84.5,63.7,84.5,63.5,84.4z M64.2,74.4c-0.2-0.1-0.4-0.3-0.5-0.7
				c-0.1-0.2,0-0.5,0.2-0.6c0.1-0.1,0.3,0,0.4,0c0.4,0.2,0.7,0.6,0.9,1.1C65.2,74.5,64.4,74.4,64.2,74.4L64.2,74.4z M66.2,76.1
				c-0.6,0.3-1.2,0.2-1.8-0.2c-0.5-0.4,0.3-1,0.6-1C65.6,74.9,66.6,75.7,66.2,76.1L66.2,76.1z M56.1,74.3c-0.6,0.3-1.2,0.2-1.8-0.2
				c-0.5-0.4,0.3-1,0.6-1C55.5,73.1,56.5,74,56.1,74.3z M48.6,78c-0.2,0.4-0.9,3.5-1.4,3.1s0.2-3.6,0.3-3.8C48.2,76,49.8,76,48.6,78
				z M35.5,61.9c0.4-0.3,0.9-0.5,1.5-0.5c0.5-0.1,1.1,0.2,1.1,0.5s-1.1,0.9-1.4,1.1c-0.6,0.6-1.6,1.8-2.2,1.9
				c-0.2,0.1-0.3,0.1-0.5,0c0.4-1,0.8-1.9,1.3-2.8L35.5,61.9z M38.4,58.3c0.3,0,0.7,0.1,0.7,0.3c0,0.4-0.1,0.8-0.3,1.2
				c-0.5,0.5-1.2,0.8-1.9,0.9c-0.2,0-0.4-0.1-0.5-0.3c0.6-0.7,1.2-1.4,1.9-2.1L38.4,58.3z"/>
		</g>
		<g>
			<path class="st0" d="M87.7,87.7L87.7,87.7L87.7,87.7l-3.7-2c1-2.3,1.7-4.8,2.2-7.3c2.3-12.6-2.2-25.5-12-33.8
				c-0.3-0.3-0.8-0.2-1.1,0.1c0,0,0,0,0,0l-1.9,2.3c-0.2,0.3-0.2,0.7,0.1,1c10.2,8.7,13.8,23,8.8,35.4l-4.2-2.3
				c-0.1,0-0.5-0.1-0.4,0.2l0,0l0.3,4.6c0.2,3.7,0.2,3.6,0.3,5.5l0.2,4.1c0,0.4,0.5,0.1,0.5,0.1l11-7.5C88,88,87.8,87.8,87.7,87.7z"
				/>
		</g>
		<g>
			<path class="st0" d="M15.9,64l2.9,0.7c0.4,0.1,0.8-0.2,0.9-0.6C23,51.7,33.4,42.5,46.1,40.9c0,0.3,0,0.6,0,1l0.1,4.1
				c0,0.4,0.5,0.1,0.5,0.1L58,38.9c0.4-0.2,0.2-0.4,0.1-0.5H58l0,0l-11.7-6.9c-0.1,0-0.5-0.1-0.4,0.2l0,0l0.1,4.6l0,0
				c-14.8,1.7-26.9,12.3-30.7,26.7C15.2,63.5,15.5,63.9,15.9,64z"/>
		</g>
		<g>
			<path class="st0" d="M63,101.8c-0.2-0.4-0.6-0.6-1-0.4c0,0,0,0,0,0c-13.8,5.5-29.5,0.5-37.6-11.9l4.2-2.3c0.1-0.1,0.4-0.3,0-0.5
				l0,0l-4-2.2c-3.2-1.8-3.2-1.7-4.9-2.7l-3.6-2c-0.4-0.2-0.4,0.4-0.4,0.4l0.5,13.3c0,0.4,0.2,0.4,0.4,0.3l0.1-0.1l0,0l3.7-2
				c9.3,14.4,27.4,20.2,43.3,13.9c0.4-0.2,0.6-0.6,0.4-1L63,101.8z"/>
		</g>
	</g>
	<g>
		<path class="st1" d="M98.2,162.9h-95v-40.7h95V162.9z M4.2,161.9h93v-38.7h-93V161.9z"/>
	</g>
</g>
</svg>
