<?xml version="1.0" encoding="utf-8"?>
<!-- Generator: Adobe Illustrator 22.0.1, SVG Export Plug-In . SVG Version: 6.00 Build 0)  -->
<svg version="1.1" id="Layer_1" xmlns="http://www.w3.org/2000/svg" xmlns:xlink="http://www.w3.org/1999/xlink" x="0px" y="0px"
	 viewBox="0 0 101.5 166.2" style="enable-background:new 0 0 101.5 166.2;" xml:space="preserve">
<style type="text/css">
	.st0{fill:#FFFFFF;}
	.st1{fill:#BF8B2E;}
	.st2{enable-background:new    ;}
</style>
<title>TARGET 1 B copy 3</title>
<g id="WHITE_BG">
	<g>
		<rect y="0" class="st0" width="101.5" height="166.2"/>
	</g>
</g>
<g id="TARGETS">
	<g>
		<g>
			<path class="st1" d="M7.8,132.2h-1v-6.4H9c1.6,0,2.2,0.7,2.2,1.9c0.1,0.7-0.3,1.4-1,1.7l1.3,2.8h-1.2l-1.1-2.6H7.8V132.2z
				 M7.8,128.7h1.3c0.9,0,1-0.5,1-1s-0.1-1-1-1H7.8V128.7z"/>
		</g>
		<g>
			<path class="st1" d="M15.7,129.3H13v2h3v0.9h-3.9v-6.4H16v0.9h-3v1.8h2.6L15.7,129.3z"/>
		</g>
		<g>
			<path class="st1" d="M21,130.3c0,1.2-0.7,2-2.4,2c-0.6,0-1.3-0.1-1.9-0.4V131c0.6,0.3,1.2,0.4,1.8,0.4c1.1,0,1.5-0.5,1.5-1.1
				s-0.3-0.9-1.2-1c-1.5-0.2-2.2-0.6-2.2-1.8c0-0.9,0.5-1.8,2.3-1.8c0.6,0,1.2,0.1,1.7,0.3v1c-0.5-0.2-1.1-0.3-1.7-0.3
				c-1,0-1.3,0.4-1.3,1c0,0.7,0.4,0.8,1.2,0.9C20.2,128.7,21,129,21,130.3z"/>
		</g>
		<g>
			<path class="st1" d="M22.7,132.2h-1v-6.4h2c1.6,0,2.2,1,2.2,2c0,1-0.6,2-2.2,2h-1.1V132.2z M22.7,128.9h1.1
				c0.6,0.1,1.2-0.4,1.2-1s-0.4-1.2-1-1.2c-0.1,0-0.1,0-0.2,0h-1.1V128.9z"/>
		</g>
		<g>
			<path class="st1" d="M26.5,129c0-1.8,0.4-3.3,2.5-3.3s2.5,1.5,2.5,3.3s-0.4,3.3-2.4,3.3S26.5,130.8,26.5,129z M27.5,129
				c0,1.5,0.3,2.4,1.5,2.4s1.5-0.9,1.5-2.4s-0.3-2.4-1.5-2.4S27.5,127.5,27.5,129L27.5,129z"/>
		</g>
		<g>
			<path class="st1" d="M35.9,132.2l-2.8-4.5v4.5h-1v-6.4H33l2.8,4.5v-4.5h0.9v6.4H35.9z"/>
		</g>
		<g>
			<path class="st1" d="M41.9,130.3c0,1.2-0.7,2-2.4,2c-0.6,0-1.3-0.1-1.9-0.4V131c0.6,0.3,1.2,0.4,1.8,0.4c1.2,0,1.5-0.5,1.5-1.1
				s-0.3-0.9-1.2-1c-1.5-0.2-2.2-0.6-2.2-1.8c0-0.9,0.5-1.8,2.3-1.8c0.6,0,1.2,0.1,1.7,0.3v1c-0.5-0.2-1.1-0.3-1.7-0.3
				c-1,0-1.3,0.4-1.3,1c0,0.7,0.4,0.8,1.2,0.9C41.1,128.7,41.9,129,41.9,130.3z"/>
		</g>
		<g>
			<path class="st1" d="M42.8,132.2v-6.4h1v6.4H42.8z"/>
		</g>
		<g>
			<path class="st1" d="M44.8,125.8H47c1.6,0,2,0.8,2,1.7c0,0.5-0.3,1-0.8,1.3c0.6,0.2,1.1,0.8,1,1.5c0,1.1-0.5,1.9-2.2,1.9h-2.2
				V125.8z M47,126.7h-1.2v1.8H47c0.8,0,0.9-0.5,0.9-0.9S47.8,126.7,47,126.7L47,126.7z M45.8,131.3h1.3c0.9,0,1.1-0.5,1.1-1
				s-0.3-1-1.1-1h-1.3V131.3z"/>
		</g>
		<g>
			<path class="st1" d="M50.9,131.3h2.8v0.9h-3.7v-6.4h1L50.9,131.3z"/>
		</g>
		<g>
			<path class="st1" d="M57.8,129.3h-2.7v2H58v0.9h-3.8v-6.4H58v0.9h-2.9v1.8h2.7V129.3z"/>
		</g>
		<g>
			<path class="st1" d="M10.3,140.3H9.4l-1.6-3.9v4.8h-1v-6.4h1.3l1.7,4.3l1.7-4.3h1.2v6.4h-1l0.1-4.8L10.3,140.3z"/>
		</g>
		<g>
			<path class="st1" d="M16.8,139.6h-2l-0.4,1.6h-1l2-6.4h1l2,6.4h-1L16.8,139.6z M15.8,136l-0.8,2.8h1.6L15.8,136z"/>
		</g>
		<g>
			<path class="st1" d="M22.5,141.2l-2.8-4.5v4.5h-0.9v-6.4h0.9l2.8,4.5v-4.5h0.9v6.4H22.5z"/>
		</g>
		<g>
			<path class="st1" d="M27.4,139.6h-2l-0.4,1.6h-1l2-6.4h1l2,6.4h-1L27.4,139.6z M26.4,136l-0.8,2.8h1.6L26.4,136z"/>
		</g>
		<g>
			<path class="st1" d="M29.2,138c0-2,0.7-3.3,2.6-3.3c0.6,0,1.3,0.1,1.8,0.3v1c-0.5-0.2-1.1-0.4-1.7-0.4c-1.3,0-1.8,0.9-1.8,2.4
				s0.5,2.4,1.8,2.4c0.3,0,0.6,0,0.9-0.1v-1.7h-1.1v-0.9h2.1v3.2c-0.6,0.3-1.3,0.4-2,0.4C29.9,141.3,29.2,140,29.2,138z"/>
		</g>
		<g>
			<path class="st1" d="M38.3,138.3h-2.7v2h2.9v0.9h-3.9v-6.4h3.9v0.9h-2.9v1.8h2.7V138.3z"/>
		</g>
		<g>
			<path class="st1" d="M42.8,140.3h-0.9l-1.6-3.9v4.8h-1v-6.4h1.2l1.7,4.3l1.7-4.3h1.2v6.4h-1v-4.8L42.8,140.3z"/>
		</g>
		<g>
			<path class="st1" d="M49.9,138.3h-2.7v2h2.9v0.9h-3.9v-6.4h3.9v0.9h-2.9v1.8h2.7V138.3z"/>
		</g>
		<g>
			<path class="st1" d="M54.7,141.2l-2.8-4.5v4.5H51v-6.4h0.9l2.8,4.5v-4.5h1v6.4H54.7z"/>
		</g>
		<g>
			<path class="st1" d="M58.7,135.7v5.5h-1v-5.5h-1.6v-0.9h4.3v0.9H58.7z"/>
		</g>
		<g>
			<path class="st1" d="M62,138c0-1.8,0.4-3.3,2.5-3.3s2.5,1.5,2.5,3.3s-0.4,3.3-2.5,3.3S62,139.8,62,138z M63,138
				c0,1.5,0.3,2.4,1.5,2.4s1.5-0.9,1.5-2.4s-0.3-2.4-1.5-2.4S63,136.5,63,138L63,138z"/>
		</g>
		<g>
			<path class="st1" d="M71.2,138.4h-2.6v2.8h-1v-6.4h3.8v0.9h-2.8v1.8h2.6L71.2,138.4z"/>
		</g>
		<g>
			<path class="st1" d="M9.4,143.7c0.5,0,1,0.1,1.5,0.3v0.9c-0.5-0.2-0.9-0.3-1.4-0.3c-1.2,0-1.7,0.8-1.7,2.4s0.5,2.4,1.7,2.4
				c0.5,0,1-0.1,1.4-0.3v0.9c-0.5,0.2-1,0.3-1.5,0.3c-1.9,0-2.6-1.2-2.6-3.3S7.5,143.7,9.4,143.7z"/>
		</g>
		<g>
			<path class="st1" d="M15.3,150.2v-2.9h-2.6v2.9h-1v-6.4h1v2.6h2.6v-2.6h1v6.4H15.3z"/>
		</g>
		<g>
			<path class="st1" d="M20.8,147.3h-2.7v2h2.9v0.9h-3.9v-6.4h3.9v0.9h-2.9v1.8h2.7V147.3z"/>
		</g>
		<g>
			<path class="st1" d="M25.4,149.3h-0.9l-1.6-3.9v4.8H22v-6.4h1.2l1.7,4.3l1.7-4.3h1.2v6.4h-1v-4.8L25.4,149.3z"/>
		</g>
		<g>
			<path class="st1" d="M28.9,150.2v-6.4h1v6.4H28.9z"/>
		</g>
		<g>
			<path class="st1" d="M33.5,143.7c0.5,0,1,0.1,1.5,0.3v0.9c-0.4-0.2-0.9-0.3-1.4-0.3c-1.2,0-1.7,0.8-1.7,2.4s0.5,2.4,1.7,2.4
				c0.5,0,1-0.1,1.4-0.3v0.9c-0.5,0.2-1,0.3-1.5,0.3c-1.9,0-2.6-1.2-2.6-3.3S31.6,143.7,33.5,143.7z"/>
		</g>
		<g>
			<path class="st1" d="M38.9,148.6h-2l-0.5,1.6h-1l2-6.4h1l2,6.4h-1L38.9,148.6z M37.9,145l-0.8,2.8h1.6L37.9,145z"/>
		</g>
		<g>
			<path class="st1" d="M41.8,149.3h2.8v0.9h-3.7v-6.4h1L41.8,149.3z"/>
		</g>
		<g>
			<path class="st1" d="M49.3,148.3c0,1.2-0.7,2-2.4,2c-0.6,0-1.3-0.1-1.9-0.4V149c0.6,0.3,1.2,0.4,1.8,0.4c1.2,0,1.5-0.5,1.5-1.1
				s-0.3-0.9-1.2-1c-1.5-0.2-2.2-0.6-2.2-1.8c0-0.9,0.5-1.8,2.3-1.8c0.6,0,1.2,0.1,1.7,0.3v1c-0.5-0.2-1.1-0.3-1.7-0.3
				c-1,0-1.3,0.4-1.3,1s0.4,0.8,1.2,0.9C48.5,146.7,49.3,147,49.3,148.3z"/>
		</g>
		<g>
			<path class="st1" d="M54.7,148.6h-2l-0.5,1.6h-1l2-6.4h1l2,6.4h-1L54.7,148.6z M53.7,145l-0.8,2.8h1.6L53.7,145z"/>
		</g>
		<g>
			<path class="st1" d="M60.4,150.2l-2.8-4.5v4.5h-0.9v-6.4h0.9l2.8,4.5v-4.5h0.9v6.4H60.4z"/>
		</g>
		<g>
			<path class="st1" d="M62.2,150.2v-6.4h1.9c2.1,0,2.7,1.4,2.7,3.2s-0.6,3.2-2.7,3.2H62.2z M63.2,149.3h1c1.3,0,1.7-0.9,1.7-2.3
				s-0.4-2.3-1.7-2.3h-1L63.2,149.3z"/>
		</g>
		<g>
			<path class="st1" d="M9.5,152.8h1.2l1.1,5l0.8-5h1l-1.2,6.4h-1.2l-1.1-5.3L9,159.3H7.8l-1.2-6.4h1l0.8,5L9.5,152.8z"/>
		</g>
		<g>
			<path class="st1" d="M16.9,157.6h-2l-0.4,1.6h-1l2-6.4h1l2,6.4h-1L16.9,157.6z M15.9,154l-0.9,2.8h1.6L15.9,154z"/>
		</g>
		<g>
			<path class="st1" d="M22.9,157.3c0,1.2-0.7,2-2.4,2c-0.6,0-1.3-0.1-1.9-0.4V158c0.6,0.3,1.2,0.4,1.8,0.4c1.1,0,1.5-0.5,1.5-1.1
				s-0.3-0.9-1.1-1c-1.6-0.2-2.2-0.6-2.2-1.8c0-0.9,0.5-1.8,2.3-1.8c0.6,0,1.2,0.1,1.7,0.3v1c-0.5-0.2-1.1-0.3-1.7-0.3
				c-1,0-1.3,0.4-1.3,1s0.4,0.8,1.2,0.9C22.1,155.7,22.9,156,22.9,157.3z"/>
		</g>
		<g>
			<path class="st1" d="M25.7,153.7v5.5h-1v-5.5h-1.7v-0.9h4.3v0.9H25.7z"/>
		</g>
		<g>
			<path class="st1" d="M31.5,156.3h-2.7v2h2.9v0.9h-3.9v-6.4h3.9v0.9h-2.9v1.8h2.6L31.5,156.3z"/>
		</g>
	</g>
	<g>
		<rect x="3.3" y="24" class="st1" width="94.8" height="94.8"/>
	</g>
	<g class="st2">
		<path class="st1" d="M77.8,6.9v10.2h-1.7V9.3h0l-1.2,1.2h0V8.8l1.6-1.8H77.8z"/>
		<path class="st1" d="M79.2,15.2c0-1,0.3-1.7,1.3-2.7l1-1c0.6-0.6,0.6-0.9,0.6-1.8V9c0-0.6-0.3-0.8-0.6-0.8c-0.4,0-0.7,0.2-0.7,0.8
			v1.3h-1.6V9c0-1.4,0.8-2.2,2.3-2.2c1.5,0,2.2,0.7,2.2,2.1v1c0,1-0.2,1.6-1.1,2.6l-1.1,1.2c-0.4,0.5-0.7,0.8-0.7,1.6v0.5h2.8v1.4
			h-4.4V15.2z"/>
	</g>
	<g class="st2">
	</g>
	<g class="st2">
		<path class="st1" d="M86.5,10.8c0.7,0,1.2,0.6,1.2,1.2c0,0.7-0.6,1.2-1.2,1.2c-0.7,0-1.2-0.6-1.2-1.2
			C85.2,11.4,85.8,10.8,86.5,10.8z"/>
	</g>
	<g class="st2">
		<path class="st1" d="M89.1,14.4l3-7.5h1.7v7.2h0.7v1.3h-0.7v1.7h-1.6v-1.7h-3V14.4z M90.6,14.1h1.5V9.9h0L90.6,14.1z"/>
	</g>
	<g>
		<path class="st1" d="M98.2,20.7H3.3V3.3h94.8V20.7z M4.3,19.7h92.8V4.3H4.3L4.3,19.7z"/>
	</g>
	<g class="st2">
		<path class="st1" d="M6.7,6.9h4.5v1.4H9.9v8.8H8.1V8.3H6.7V6.9z"/>
	</g>
	<g class="st2">
		<path class="st1" d="M11.2,17.1l1.9-10.2h1.9L17,17.1h-1.8l-0.3-1.9h-1.8l-0.3,1.9H11.2z M13.3,13.9h1.4L14,9.8h0L13.3,13.9z"/>
	</g>
	<g class="st2">
		<path class="st1" d="M19.6,12.4v4.7h-1.7V6.9h2.5c1.7,0,2.4,0.9,2.4,2.3v1.3c0,1.1-0.4,1.7-1.4,2l1.6,4.6h-1.8L19.6,12.4z
			 M19.6,8.3v3.2h0.6c0.6,0,0.8-0.3,0.8-0.8V9.2c0-0.6-0.3-0.8-0.8-0.8H19.6z"/>
	</g>
	<g class="st2">
		<path class="st1" d="M26.4,11.7h2.4v5.4h-1.2V16c-0.2,0.8-0.7,1.2-1.6,1.2c-1.5,0-2.1-1.2-2.1-2.7V9.6c0-1.6,0.8-2.7,2.6-2.7
			c1.9,0,2.4,1.1,2.4,2.6v0.9h-1.6v-1c0-0.6-0.2-1-0.9-1c-0.6,0-0.9,0.4-0.9,1v5.5c0,0.6,0.3,1,0.8,1c0.6,0,0.8-0.3,0.8-1V13h-0.8
			V11.7z"/>
	</g>
	<g class="st2">
		<path class="st1" d="M30.2,6.9h4.1v1.4h-2.4v2.9h1.7v1.4h-1.7v3.1h2.4v1.4h-4.1V6.9z"/>
	</g>
	<g class="st2">
		<path class="st1" d="M35.1,6.9h4.5v1.4h-1.4v8.8h-1.7V8.3h-1.4V6.9z"/>
	</g>
	<g>
		<g>
			<path class="st0" d="M68.1,95l2.8-41.2c0-0.3-0.2-0.6-0.5-0.6c0,0,0,0,0,0H31.2c-0.3,0-0.6,0.2-0.6,0.5c0,0,0,0,0,0L33.4,95
				c0,0.3,0.2,0.6,0.5,0.6h33.6C67.8,95.6,68.1,95.3,68.1,95z M65.1,92.4H36.4l-2.4-36h33.5L65.1,92.4z"/>
		</g>
		<g>
			<path class="st0" d="M70.4,51c0.3,0,0.6-0.2,0.6-0.5c0,0,0,0,0,0l0.4-2.3c0-0.3-0.3-0.6-0.6-0.5H56.6v-1.7c0-0.3-0.2-0.5-0.5-0.5
				H45.3c-0.3,0-0.6,0.2-0.6,0.5v1.7H30.6c-0.3,0-0.6,0.2-0.6,0.5l0.4,2.3c0,0.3,0.3,0.5,0.5,0.5H70.4z"/>
		</g>
		<g>
			<path class="st0" d="M47.8,70c1.7-1.4,4.2-1.4,5.9,0c0.4-0.4,0.7-0.8,1-1.3c-2.3-1.9-5.7-1.9-8,0C47,69.2,47.3,69.6,47.8,70z"/>
		</g>
		<g>
			<path class="st0" d="M55.7,66.4c0.1,2.7-2,5.1-4.7,5.2v0.7l0.3,0.1c0.7,0.3,1.1,1.1,0.8,1.8l0.6,0.4c1.5-2.3,4.6-2.9,6.9-1.4
				c1.9,1.2,2.7,3.6,2,5.7l0.2,0.1c0-0.1,0-0.1,0.1-0.2c1.4-3.7-0.5-7.8-4.2-9.2c0-0.1,0-0.1,0-0.2c0.5-3.9-2.2-7.5-6.1-8
				c0,0,0,0,0,0v0.3C53.9,62.2,55.6,64.1,55.7,66.4z"/>
		</g>
		<g>
			<path class="st0" d="M54.6,81.7c-2.4-1.3-3.4-4.3-2.1-6.7l-0.6-0.4c-0.1,0.1-0.1,0.1-0.2,0.2c-0.6,0.5-1.5,0.4-2-0.2L49,75
				c1.2,2.5,0.2,5.5-2.3,6.7c-2,1-4.5,0.5-6-1.2l-0.2,0.1l0.1,0.2c2.5,3,7,3.5,10,1c0.1,0,0.1,0.1,0.2,0.1c3.1,2.4,7.6,1.8,10-1.3
				c0,0,0,0,0,0l-0.2-0.1C59.1,82.3,56.7,82.8,54.6,81.7z"/>
		</g>
		<g>
			<path class="st0" d="M52.5,78.1c0.1,0.5,0.3,1.1,0.6,1.6c2.8-1.1,4.4-4,4-6.9c-0.6,0-1.1,0.1-1.7,0.2
				C55.8,75.2,54.5,77.3,52.5,78.1z"/>
		</g>
		<g>
			<path class="st0" d="M44.4,72.8c-0.4,3,1.2,5.8,4,6.9c0.3-0.5,0.5-1,0.6-1.6c-2.1-0.8-3.3-2.9-3-5.1
				C45.5,72.8,44.9,72.8,44.4,72.8z"/>
		</g>
		<g>
			<path class="st0" d="M39.9,78.9c-0.8-2.6,0.6-5.4,3.3-6.3c2.1-0.7,4.4,0.1,5.6,2l0.6-0.4c0-0.1,0-0.2-0.1-0.3
				c-0.1-0.8,0.4-1.5,1.2-1.6c0,0,0,0,0,0v-0.7c-2.8-0.2-4.8-2.6-4.6-5.4c0.2-2.2,1.8-4,3.9-4.5v-0.3h-0.2c-3.9,0.6-6.5,4.3-5.9,8.2
				l-0.2,0.1c-3.6,1.5-5.4,5.6-3.9,9.3L39.9,78.9z"/>
		</g>
		<g>
			<polygon class="st0" points="17.3,110.3 11.9,110.3 11.9,104.9 14.8,104.9 14.8,107.4 17.3,107.4 			"/>
		</g>
		<g>
			<path class="st0" d="M77.7,110.3h-8.6v-2.9h8.6V110.3z M62.6,110.3H54v-2.9h8.6L62.6,110.3z M47.5,110.3h-8.6v-2.9h8.6
				L47.5,110.3z M32.4,110.3h-8.6v-2.9h8.6L32.4,110.3z"/>
		</g>
		<g>
			<polygon class="st0" points="89.6,110.3 84.1,110.3 84.1,107.4 86.7,107.4 86.7,104.9 89.6,104.9 			"/>
		</g>
		<g>
			<path class="st0" d="M89.6,98.4h-2.9v-8.6h2.9V98.4z M89.6,83.3h-2.9v-8.6h2.9V83.3z M89.6,68.2h-2.9v-8.6h2.9V68.2z M89.6,53.1
				h-2.9v-8.6h2.9V53.1z"/>
		</g>
		<g>
			<polygon class="st0" points="89.6,38 86.7,38 86.7,35.5 84.1,35.5 84.1,32.6 89.6,32.6 			"/>
		</g>
		<g>
			<path class="st0" d="M77.7,35.5h-8.6v-2.9h8.6V35.5z M62.6,35.5H54v-2.9h8.6L62.6,35.5z M47.5,35.5h-8.6v-2.9h8.6L47.5,35.5z
				 M32.4,35.5h-8.6v-2.9h8.6L32.4,35.5z"/>
		</g>
		<g>
			<polygon class="st0" points="14.8,38 11.9,38 11.9,32.6 17.3,32.6 17.3,35.5 14.8,35.5 			"/>
		</g>
		<g>
			<path class="st0" d="M14.8,98.4h-2.9v-8.6h2.9L14.8,98.4z M14.8,83.3h-2.9v-8.6h2.9L14.8,83.3z M14.8,68.2h-2.9v-8.6h2.9
				L14.8,68.2z M14.8,53.1h-2.9v-8.6h2.9L14.8,53.1z"/>
		</g>
	</g>
	<g>
		<path class="st1" d="M98.2,162.9h-95v-40.7h95V162.9z M4.2,161.9h93v-38.7h-93V161.9z"/>
	</g>
</g>
</svg>
