<?xml version="1.0" encoding="utf-8"?>
<!-- Generator: Adobe Illustrator 22.0.1, SVG Export Plug-In . SVG Version: 6.00 Build 0)  -->
<svg version="1.1" id="Layer_1" xmlns="http://www.w3.org/2000/svg" xmlns:xlink="http://www.w3.org/1999/xlink" x="0px" y="0px"
	 viewBox="0 0 101.5 165.8" style="enable-background:new 0 0 101.5 165.8;" xml:space="preserve">
<style type="text/css">
	.st0{fill:#FFFFFF;}
	.st1{fill:#BF8B2E;}
	.st2{enable-background:new    ;}
</style>
<title>TARGET 1 B copy 6</title>
<g id="WHITE_BG">
	<g>
		<rect y="0" class="st0" width="101.5" height="165.8"/>
	</g>
</g>
<g id="TARGETS">
	<g>
		<g>
			<path class="st1" d="M7.8,132.2h-1v-6.4h2.1c1.6,0,2.2,1,2.2,2c0,1-0.6,2-2.2,2H7.8V132.2z M7.8,128.9H9c0.6,0.1,1.2-0.4,1.2-1
				c0.1-0.6-0.4-1.2-1-1.2c-0.1,0-0.1,0-0.2,0H7.8V128.9z"/>
		</g>
		<g>
			<path class="st1" d="M12.7,132.2h-1v-6.4h2.1c1.6,0,2.2,0.7,2.2,1.9c0.1,0.7-0.3,1.4-1,1.7l1.3,2.8h-1.1l-1.2-2.6h-1.3V132.2z
				 M12.7,128.7h1.2c0.9,0,1-0.5,1-1s-0.1-1-1-1h-1.2V128.7z"/>
		</g>
		<g>
			<path class="st1" d="M16.7,129c0-1.8,0.4-3.3,2.5-3.3s2.5,1.5,2.5,3.3s-0.4,3.3-2.5,3.3S16.7,130.8,16.7,129z M17.7,129
				c0,1.5,0.3,2.4,1.5,2.4s1.5-0.9,1.5-2.4s-0.3-2.4-1.5-2.4S17.7,127.5,17.7,129L17.7,129z"/>
		</g>
		<g>
			<path class="st1" d="M25.8,131.3h-0.9l-1.6-3.9v4.8h-1v-6.4h1.2l1.7,4.3l1.7-4.3h1.2v6.4h-1l0-4.8L25.8,131.3z"/>
		</g>
		<g>
			<path class="st1" d="M29,129c0-1.8,0.4-3.3,2.5-3.3s2.5,1.5,2.5,3.3s-0.4,3.3-2.5,3.3S29,130.8,29,129z M30,129
				c0,1.5,0.3,2.4,1.5,2.4s1.5-0.9,1.5-2.4s-0.3-2.4-1.5-2.4S30,127.5,30,129z"/>
		</g>
		<g>
			<path class="st1" d="M36.6,126.7v5.5h-1v-5.5H34v-0.9h4.3v0.9H36.6z"/>
		</g>
		<g>
			<path class="st1" d="M42.4,129.3h-2.7v2h2.9v0.9h-3.9v-6.4h3.9v0.9h-2.9v1.8h2.7V129.3z"/>
		</g>
		<g>
			<path class="st1" d="M11.1,139.3c0,1.2-0.7,2-2.4,2c-0.6,0-1.3-0.1-1.9-0.4V140c0.6,0.3,1.2,0.4,1.8,0.4c1.1,0,1.5-0.5,1.5-1.1
				s-0.3-0.9-1.2-1c-1.6-0.2-2.2-0.6-2.2-1.8c0-0.9,0.5-1.8,2.3-1.8c0.6,0,1.2,0.1,1.7,0.3v1c-0.5-0.2-1.1-0.3-1.7-0.3
				c-1,0-1.3,0.4-1.3,1s0.4,0.8,1.2,0.9C10.3,137.7,11.1,138,11.1,139.3z"/>
		</g>
		<g>
			<path class="st1" d="M11.7,139.2v-4.4h1v4.3c-0.1,0.7,0.4,1.3,1.1,1.3c0.1,0,0.2,0,0.3,0c0.6,0.1,1.3-0.3,1.4-1
				c0-0.1,0-0.2,0-0.3v-4.3h0.9v4.4c0.1,1.1-0.8,2.1-1.9,2.1c-0.1,0-0.3,0-0.4,0c-1.1,0.2-2.1-0.6-2.3-1.7
				C11.7,139.5,11.7,139.3,11.7,139.2z"/>
		</g>
		<g>
			<path class="st1" d="M21.3,139.3c0,1.2-0.7,2-2.4,2c-0.6,0-1.3-0.1-1.9-0.4V140c0.6,0.3,1.2,0.4,1.8,0.4c1.1,0,1.5-0.5,1.5-1.1
				s-0.3-0.9-1.2-1c-1.5-0.2-2.2-0.6-2.2-1.8c0-0.9,0.5-1.8,2.3-1.8c0.6,0,1.2,0.1,1.8,0.3v1c-0.5-0.2-1.1-0.3-1.7-0.3
				c-1,0-1.3,0.4-1.3,1s0.4,0.8,1.2,0.9C20.5,137.7,21.3,138,21.3,139.3z"/>
		</g>
		<g>
			<path class="st1" d="M24.1,135.7v5.5h-1v-5.5h-1.6v-0.9h4.3v0.9H24.1z"/>
		</g>
		<g>
			<path class="st1" d="M28.9,139.6h-2l-0.5,1.6h-1l2-6.4h1l2,6.4h-1L28.9,139.6z M27.9,136l-0.9,2.8h1.6L27.9,136z"/>
		</g>
		<g>
			<path class="st1" d="M31,141.2v-6.4h1v6.4H31z"/>
		</g>
		<g>
			<path class="st1" d="M36.7,141.2l-2.7-4.5v4.5h-1v-6.4h0.9l2.8,4.5v-4.5h0.9v6.4H36.7z"/>
		</g>
		<g>
			<path class="st1" d="M41.7,139.6h-2l-0.5,1.6h-1l2-6.4h1l2,6.4h-1L41.7,139.6z M40.7,136l-0.8,2.8h1.6L40.7,136z"/>
		</g>
		<g>
			<path class="st1" d="M43.7,134.8h2.1c1.6,0,2,0.8,2,1.7c0,0.5-0.3,1-0.8,1.3c0.6,0.2,1.1,0.8,1,1.5c0,1.1-0.5,1.9-2.2,1.9h-2.2
				V134.8z M45.8,135.7h-1.2v1.8h1.2c0.8,0,0.9-0.5,0.9-0.9S46.7,135.7,45.8,135.7z M44.6,140.3h1.3c0.9,0,1.1-0.5,1.1-1
				s-0.3-1-1.1-1h-1.3V140.3z"/>
		</g>
		<g>
			<path class="st1" d="M49.7,140.3h2.8v0.9h-3.7v-6.4h1L49.7,140.3z"/>
		</g>
		<g>
			<path class="st1" d="M56.6,138.3h-2.7v2h2.9v0.9H53v-6.4h3.9v0.9h-2.9v1.8h2.7V138.3z"/>
		</g>
		<g>
			<path class="st1" d="M60,141.2h-1v-6.4h2c1.6,0,2.2,0.9,2.2,2s-0.6,2-2.2,2h-1V141.2z M60,138h1.1c0.6,0.1,1.2-0.4,1.2-1
				s-0.4-1.2-1-1.2c-0.1,0-0.1,0-0.2,0H60V138z"/>
		</g>
		<g>
			<path class="st1" d="M63.9,139.2v-4.4h1v4.3c0,0.8,0.6,1.4,1.4,1.4s1.4-0.6,1.4-1.4v-4.3h0.9v4.4c-0.1,1.3-1.3,2.2-2.6,2.1
				C64.9,141.1,64,140.3,63.9,139.2L63.9,139.2z"/>
		</g>
		<g>
			<path class="st1" d="M69.4,134.8h2.1c1.6,0,2,0.8,2,1.7c0,0.5-0.3,1-0.8,1.3c0.6,0.2,1.1,0.8,1,1.5c0,1.1-0.5,1.9-2.2,1.9h-2.2
				V134.8z M71.6,135.7h-1.2v1.8h1.2c0.4,0.1,0.9-0.2,0.9-0.7c0-0.1,0-0.1,0-0.2C72.5,136.2,72.4,135.7,71.6,135.7z M70.3,140.3h1.3
				c0.9,0,1.1-0.5,1.1-1s-0.3-1-1.1-1h-1.3V140.3z"/>
		</g>
		<g>
			<path class="st1" d="M75.4,140.3h2.8v0.9h-3.7v-6.4h1L75.4,140.3z"/>
		</g>
		<g>
			<path class="st1" d="M78.9,141.2v-6.4h1v6.4H78.9z"/>
		</g>
		<g>
			<path class="st1" d="M83.3,134.7c0.5,0,1,0.1,1.5,0.3v0.9c-0.5-0.2-0.9-0.3-1.4-0.3c-1.2,0-1.7,0.8-1.7,2.4s0.5,2.4,1.7,2.4
				c0.5,0,1-0.1,1.4-0.3v0.9c-0.5,0.2-1,0.3-1.5,0.3c-1.9,0-2.6-1.2-2.6-3.3S81.4,134.7,83.3,134.7z"/>
		</g>
		<g>
			<path class="st1" d="M7.8,150.2h-1v-6.4h2.1c1.6,0,2.2,0.9,2.2,2s-0.6,2-2.2,2H7.8V150.2z M7.8,146.9H9c0.6,0.1,1.2-0.4,1.2-1
				c0.1-0.6-0.4-1.2-1-1.2c-0.1,0-0.1,0-0.2,0H7.8V146.9z"/>
		</g>
		<g>
			<path class="st1" d="M12.7,150.2h-1v-6.4h2.1c1.6,0,2.2,0.7,2.2,1.9c0.1,0.7-0.3,1.4-1,1.7l1.3,2.8h-1.1l-1.2-2.6h-1.3V150.2z
				 M12.7,146.7h1.2c0.9,0,1-0.5,1-1s-0.1-1-1-1h-1.2V146.7z"/>
		</g>
		<g>
			<path class="st1" d="M16.7,147c0-1.8,0.4-3.3,2.5-3.3s2.5,1.5,2.5,3.3s-0.4,3.3-2.5,3.3S16.7,148.8,16.7,147z M17.7,147
				c0,1.5,0.3,2.4,1.5,2.4s1.5-0.9,1.5-2.4s-0.3-2.4-1.5-2.4S17.7,145.5,17.7,147L17.7,147z"/>
		</g>
		<g>
			<path class="st1" d="M24.9,143.7c0.5,0,1,0.1,1.5,0.3v0.9c-0.4-0.2-0.9-0.3-1.4-0.3c-1.2,0-1.7,0.8-1.7,2.4s0.5,2.4,1.7,2.4
				c0.5,0,1-0.1,1.4-0.3v0.9c-0.5,0.2-1,0.3-1.5,0.3c-1.9,0-2.6-1.2-2.6-3.3S23,143.7,24.9,143.7z"/>
		</g>
		<g>
			<path class="st1" d="M27.2,148.2v-4.4h1v4.3c-0.1,0.7,0.4,1.2,1,1.3c0.1,0,0.2,0,0.3,0c0.6,0.1,1.3-0.3,1.4-1c0-0.1,0-0.2,0-0.3
				v-4.3h1v4.4c0.1,1.1-0.8,2.1-1.9,2.1c-0.1,0-0.3,0-0.4,0c-1.1,0.2-2.1-0.5-2.3-1.6C27.2,148.5,27.2,148.4,27.2,148.2z"/>
		</g>
		<g>
			<path class="st1" d="M33.7,150.2h-1v-6.4h2.1c1.7,0,2.2,0.7,2.2,1.9c0.1,0.7-0.3,1.4-1,1.7l1.3,2.8h-1.1l-1.2-2.6h-1.3V150.2z
				 M33.7,146.7H35c0.9,0,1-0.5,1-1s-0.1-1-1-1h-1.3V146.7z"/>
		</g>
		<g>
			<path class="st1" d="M41.6,147.3h-2.7v2h2.9v0.9H38v-6.4h3.9v0.9h-3v1.8h2.7V147.3z"/>
		</g>
		<g>
			<path class="st1" d="M46.1,149.3h-0.9l-1.6-3.9l0,4.8h-1v-6.4h1.3l1.7,4.3l1.7-4.3h1.2v6.4h-1v-4.8L46.1,149.3z"/>
		</g>
		<g>
			<path class="st1" d="M53.1,147.3h-2.7v2h2.9v0.9h-3.9v-6.4h3.9v0.9h-2.9v1.8h2.7V147.3z"/>
		</g>
		<g>
			<path class="st1" d="M57.9,150.2l-2.8-4.5v4.5h-1v-6.4h0.9l2.8,4.5v-4.5h1v6.4H57.9z"/>
		</g>
		<g>
			<path class="st1" d="M61.9,144.7v5.5H61v-5.5h-1.7v-0.9h4.3v0.9H61.9z"/>
		</g>
		<g>
			<path class="st1" d="M7.8,159.2h-1v-6.4h2.1c1.6,0,2.2,0.9,2.2,2s-0.6,2-2.2,2H7.8V159.2z M7.8,155.9H9c0.6,0.1,1.2-0.4,1.2-1
				c0.1-0.6-0.4-1.2-1-1.2c-0.1,0-0.1,0-0.2,0H7.8V155.9z"/>
		</g>
		<g>
			<path class="st1" d="M12.7,159.2h-1v-6.4h2.1c1.6,0,2.2,0.7,2.2,1.9c0.1,0.7-0.3,1.4-1,1.7l1.3,2.8h-1.1l-1.2-2.6h-1.3V159.2z
				 M12.7,155.7H14c0.9,0,1-0.5,1-1s-0.1-1-1-1h-1.3V155.7z"/>
		</g>
		<g>
			<path class="st1" d="M20.1,157.6H18l-0.5,1.6h-1l2-6.4h1l2,6.4h-1L20.1,157.6z M19,154l-0.8,2.8h1.6L19,154z"/>
		</g>
		<g>
			<path class="st1" d="M24.4,152.7c0.5,0,1,0.1,1.5,0.3v0.9c-0.5-0.2-0.9-0.3-1.4-0.3c-1.2,0-1.7,0.8-1.7,2.4s0.5,2.4,1.7,2.4
				c0.5,0,1-0.1,1.4-0.3v0.9c-0.5,0.2-1,0.3-1.5,0.3c-1.9,0-2.6-1.2-2.6-3.3S22.5,152.7,24.4,152.7z"/>
		</g>
		<g>
			<path class="st1" d="M28.9,153.7v5.5H28v-5.5h-1.7v-0.9h4.3v0.9H28.9z"/>
		</g>
		<g>
			<path class="st1" d="M31.3,159.2v-6.4h1v6.4H31.3z"/>
		</g>
		<g>
			<path class="st1" d="M35.9,152.7c0.5,0,1,0.1,1.5,0.3v0.9c-0.5-0.2-0.9-0.3-1.4-0.3c-1.2,0-1.7,0.8-1.7,2.4s0.5,2.4,1.7,2.4
				c0.5,0,1-0.1,1.4-0.3v0.9c-0.5,0.2-1,0.3-1.5,0.3c-1.9,0-2.6-1.2-2.6-3.3S34,152.7,35.9,152.7z"/>
		</g>
		<g>
			<path class="st1" d="M41.7,156.3H39v2h3v0.9h-3.9v-6.4H42v0.9h-3v1.8h2.7V156.3z"/>
		</g>
		<g>
			<path class="st1" d="M46.9,157.3c0,1.2-0.7,2-2.4,2c-0.6,0-1.3-0.1-1.9-0.4V158c0.6,0.3,1.2,0.4,1.8,0.4c1.2,0,1.5-0.5,1.5-1.1
				s-0.3-0.9-1.2-1c-1.5-0.2-2.2-0.6-2.2-1.8c0-0.9,0.5-1.8,2.3-1.8c0.6,0,1.2,0.1,1.7,0.3v1c-0.5-0.2-1.1-0.3-1.7-0.3
				c-1,0-1.3,0.4-1.3,1s0.4,0.8,1.2,0.9C46.1,155.7,46.9,156,46.9,157.3z"/>
		</g>
	</g>
	<g>
		<rect x="3.3" y="24" class="st1" width="94.8" height="94.8"/>
	</g>
	<g>
		<path class="st1" d="M98.2,20.7H3.3V3.3h94.8V20.7z M4.3,19.7h92.8V4.3H4.3L4.3,19.7z"/>
	</g>
	<g class="st2">
		<path class="st1" d="M6.7,6.9h4.5v1.4H9.9v8.8H8.1V8.3H6.7V6.9z"/>
	</g>
	<g class="st2">
		<path class="st1" d="M11.2,17.1l1.9-10.2h1.9L17,17.1h-1.8l-0.3-1.9h-1.8l-0.3,1.9H11.2z M13.3,13.9h1.4L14,9.8h0L13.3,13.9z"/>
	</g>
	<g class="st2">
		<path class="st1" d="M19.6,12.4v4.7h-1.7V6.9h2.5c1.7,0,2.4,0.9,2.4,2.3v1.3c0,1.1-0.4,1.7-1.4,2l1.6,4.6h-1.8L19.6,12.4z
			 M19.6,8.3v3.2h0.6c0.6,0,0.8-0.3,0.8-0.8V9.2c0-0.6-0.3-0.8-0.8-0.8H19.6z"/>
	</g>
	<g class="st2">
		<path class="st1" d="M26.4,11.7h2.4v5.4h-1.2V16c-0.2,0.8-0.7,1.2-1.6,1.2c-1.5,0-2.1-1.2-2.1-2.7V9.6c0-1.6,0.8-2.7,2.6-2.7
			c1.9,0,2.4,1.1,2.4,2.6v0.9h-1.6v-1c0-0.6-0.2-1-0.9-1c-0.6,0-0.9,0.4-0.9,1v5.5c0,0.6,0.3,1,0.8,1c0.6,0,0.8-0.3,0.8-1V13h-0.8
			V11.7z"/>
	</g>
	<g class="st2">
		<path class="st1" d="M30.2,6.9h4.1v1.4h-2.4v2.9h1.7v1.4h-1.7v3.1h2.4v1.4h-4.1V6.9z"/>
	</g>
	<g class="st2">
		<path class="st1" d="M35.1,6.9h4.5v1.4h-1.4v8.8h-1.7V8.3h-1.4V6.9z"/>
	</g>
	<g>
		<g>
			<path class="st0" d="M68.6,89.5c-2-1.5-4.4-2.3-6.9-2.3c-0.6,0-1.1,0-1.7,0.2h-0.2c-1.6,0.4-4.4,1-7.5,5l-0.1,0.1
				c-0.1,0.1-0.1,0.2-0.1,0.2c0,0.1,0,0.1,0.1,0.2l0.1,0.1c0.5,0.9,1,1.6,1.3,2.3c0.1,0.2,0.4,0.3,0.6,0.2c0,0,0.1-0.1,0.1-0.1
				l0.1-0.1c2.8-3.8,4.9-4.3,6.3-4.7h0.2c0.3,0,0.6-0.1,0.9-0.1c1.7,0,3.4,0.5,4.8,1.5c1.6,1.3,2.4,3.3,2.4,6c0,4.5-2.2,6.3-4,7
				c-0.7,0.3-1.5,0.4-2.2,0.4c-1.2,0-2.3-0.3-3.4-0.8l-0.1-0.1c-1.6-0.7-4-2.1-6.2-6.6c-4.6-9.2-8.5-10.1-11-10.7h-0.1
				c-0.5-0.1-1.1-0.2-1.7-0.2c-2.4,0-4.8,0.8-6.8,2.2c-1.7,1.3-3.6,3.9-3.6,8.7c-0.3,5.5,3.9,10.2,9.4,10.6c0.2,0,0.5,0,0.7,0
				c0.8,0,1.6-0.1,2.3-0.2c1.5-0.3,2.8-0.9,4-1.8l1.3,1.2c0.2,0.1,0.4,0.1,0.5,0c0.1-0.1,0.1-0.2,0.1-0.2l1-6.4v-0.1
				c0-0.1,0-0.2-0.1-0.3c-0.1-0.1-0.2-0.1-0.3-0.1l0,0l-6.2,1.7h-0.1c-0.1,0-0.1,0.1-0.2,0.1c-0.1,0.1-0.1,0.2-0.1,0.3
				c0,0.1,0,0.2,0.1,0.3l1.3,1.2c-0.6,0.4-1.3,0.7-2,0.8c-0.5,0.1-1.1,0.2-1.7,0.2c-2,0-4-0.9-5.3-2.4l0,0c-1.1-1.3-1.6-3-1.4-4.8
				c0-2.7,0.8-4.7,2.4-6c1.3-1,3-1.5,4.6-1.5c0.3,0,0.6,0,0.9,0.1h0.1c2,0.5,4.8,1.1,8.7,8.9c2,4.1,4.6,6.8,7.8,8.2
				c1.5,0.7,3.2,1.1,4.9,1.1c1.2,0,2.3-0.2,3.4-0.6c1.9-0.7,6.3-3.1,6.3-10.2C72.3,93.4,70.3,90.8,68.6,89.5z"/>
		</g>
		<g>
			<g>
				<path class="st0" d="M49.5,55.3H21.1c-0.3,0-0.5,0.2-0.5,0.5v1.2c0,0.3,0.2,0.5,0.5,0.5h28.4c0.3,0,0.5-0.2,0.5-0.5v-1.2
					C50,55.5,49.8,55.3,49.5,55.3z"/>
			</g>
			<g>
				<path class="st0" d="M49.5,76.7H21.1c-0.3,0-0.5,0.2-0.5,0.5c0,0,0,0,0,0v2.3c0,0.3,0.2,0.5,0.5,0.5h28.4c0.3,0,0.5-0.2,0.5-0.5
					v-2.3C50,76.9,49.8,76.7,49.5,76.7C49.5,76.7,49.5,76.7,49.5,76.7z"/>
			</g>
			<g>
				<path class="st0" d="M49.9,53.2c-1.8-8.1-9.9-13.1-18-11.3c-5.6,1.3-10,5.7-11.3,11.3c0,0.1,0,0.1,0,0.2l0,0
					c0,0.2,0.2,0.4,0.4,0.4h28.5c0.2,0,0.4-0.2,0.4-0.5L49.9,53.2z"/>
			</g>
			<g>
				<path class="st0" d="M48.7,58.9H22.1c-0.3,0-0.5,0.2-0.5,0.5v15.4c0,0.3,0.2,0.5,0.5,0.5h26.5c0.3,0,0.5-0.2,0.5-0.5V59.4
					C49.2,59.2,48.9,58.9,48.7,58.9z M30.2,73.3h-4.5V61h4.6L30.2,73.3z M37.8,73.3h-4.5V61h4.5V73.3z M45.5,73.3H41V61h4.5
					L45.5,73.3z"/>
			</g>
			<g>
				<path class="st0" d="M35.3,39.6v-5.5h1.4c0.8,0,1.7,0.2,2.4,0.6c0.9,0.8,2,1.3,3.2,1.3h2.1v5.4h-2.1c-0.9,0-1.7-0.3-2.4-0.8
					c-0.8-0.7-1.8-1-2.8-1C35.2,39.5,35.3,39.6,35.3,39.6z"/>
			</g>
		</g>
		<g>
			<g>
				<polygon class="st0" points="60.8,52.3 59.4,52.3 59.4,80 79.8,80 79.8,78.3 60.8,78.3 				"/>
			</g>
			<g>
				<path class="st0" d="M62.4,48.9v27.7h19.9V48.9H62.4z M79.8,72.8L79.8,72.8c0,0.1-0.1,0.2-0.2,0.2H65c-0.1,0-0.2-0.1-0.2-0.2
					v-2.1c0-0.1,0.1-0.2,0.2-0.2h14.6c0.1,0,0.2,0.1,0.2,0.2l0,0L79.8,72.8z M79.8,68.4L79.8,68.4c0,0.1-0.1,0.2-0.2,0.2H65
					c-0.1,0-0.2-0.1-0.2-0.2v-2.1c0-0.1,0.1-0.2,0.2-0.2c0,0,0,0,0,0h14.6c0.1,0,0.2,0.1,0.2,0.2l0,0L79.8,68.4z M79.8,64
					C79.8,64,79.8,64.1,79.8,64c0,0.2-0.1,0.2-0.2,0.2H65.1c-0.1,0-0.2-0.1-0.2-0.2v-2.1c0-0.1,0.1-0.2,0.2-0.2h14.6
					c0.1,0,0.2,0.1,0.2,0.1c0,0,0,0,0,0.1L79.8,64z"/>
			</g>
		</g>
	</g>
	<g>
		<path class="st1" d="M98.2,162.9h-95v-40.7h95V162.9z M4.2,161.9h93v-38.7h-93V161.9z"/>
	</g>
	<g class="st2">
		<path class="st1" d="M78.8,6.9v10.2h-1.7V9.3h0l-1.2,1.2h0V8.8l1.6-1.8H78.8z"/>
		<path class="st1" d="M80.2,15.2c0-1,0.3-1.7,1.3-2.7l1-1C83,11,83,10.6,83,9.8V9c0-0.6-0.3-0.8-0.6-0.8c-0.4,0-0.7,0.2-0.7,0.8
			v1.3h-1.6V9c0-1.4,0.8-2.2,2.3-2.2c1.5,0,2.2,0.7,2.2,2.1v1c0,1-0.2,1.6-1.1,2.6l-1.1,1.2c-0.4,0.5-0.7,0.8-0.7,1.6v0.5h2.8v1.4
			h-4.4V15.2z"/>
	</g>
	<g class="st2">
	</g>
	<g class="st2">
		<path class="st1" d="M87.5,10.8c0.7,0,1.2,0.6,1.2,1.2c0,0.7-0.6,1.2-1.2,1.2c-0.7,0-1.2-0.6-1.2-1.2
			C86.2,11.4,86.8,10.8,87.5,10.8z"/>
	</g>
	<g class="st2">
		<path class="st1" d="M90.1,6.9h4.3v1.6l-2.2,8.6h-1.7l2.3-8.8h-2.6V6.9z"/>
	</g>
</g>
</svg>
