<?xml version="1.0" encoding="utf-8"?>
<!-- Generator: Adobe Illustrator 22.0.1, SVG Export Plug-In . SVG Version: 6.00 Build 0)  -->
<svg version="1.1" id="Layer_1" xmlns="http://www.w3.org/2000/svg" xmlns:xlink="http://www.w3.org/1999/xlink" x="0px" y="0px"
	 viewBox="0 0 101.5 166.1" style="enable-background:new 0 0 101.5 166.1;" xml:space="preserve">
<style type="text/css">
	.st0{fill:#FFFFFF;}
	.st1{fill:#BF8B2E;}
	.st2{enable-background:new    ;}
	.st3{fill:none;}
</style>
<title>TARGET 1 B copy 9</title>
<g id="WHITE_BG">
	<g>
		<rect y="0" class="st0" width="101.5" height="166.1"/>
	</g>
</g>
<g id="TARGETS">
	<g>
		<g>
			<path class="st1" d="M6.9,132.2v-6.4h1.9c2.1,0,2.7,1.4,2.7,3.2s-0.6,3.2-2.7,3.2L6.9,132.2z M7.9,131.3h1c1.3,0,1.7-0.9,1.7-2.3
				s-0.4-2.3-1.7-2.3h-1L7.9,131.3z"/>
		</g>
		<g>
			<path class="st1" d="M15.8,129.3h-2.7v2h2.9v0.9h-3.9v-6.4h3.9v0.9h-2.9v1.8h2.7V129.3z"/>
		</g>
		<g>
			<path class="st1" d="M21.5,125.8l-2,6.4h-1l-2-6.4h1L19,131l1.5-5.2L21.5,125.8z"/>
		</g>
		<g>
			<path class="st1" d="M25.6,129.3H23v2h2.9v0.9H22v-6.4h3.9v0.9H23v1.8h2.6L25.6,129.3z"/>
		</g>
		<g>
			<path class="st1" d="M27.7,131.3h2.8v0.9h-3.7v-6.4h1L27.7,131.3z"/>
		</g>
		<g>
			<path class="st1" d="M30.5,129c0-1.8,0.4-3.3,2.5-3.3s2.5,1.5,2.5,3.3s-0.4,3.3-2.5,3.3S30.5,130.8,30.5,129z M31.5,129
				c0,1.5,0.3,2.4,1.5,2.4c1.2,0,1.5-0.9,1.5-2.4s-0.3-2.4-1.5-2.4S31.5,127.5,31.5,129L31.5,129z"/>
		</g>
		<g>
			<path class="st1" d="M37.2,132.2h-1v-6.4h2c1.6,0,2.2,1,2.2,2c0,1-0.6,2-2.2,2h-1V132.2z M37.2,128.9h1.1c0.6,0.1,1.2-0.4,1.2-1
				s-0.4-1.2-1-1.2c-0.1,0-0.1,0-0.2,0h-1.1V128.9z"/>
		</g>
		<g>
			<path class="st1" d="M45.7,130.6h-2l-0.5,1.6h-1l2-6.4h1l2,6.4h-1L45.7,130.6z M44.7,127l-0.8,2.8h1.6L44.7,127z"/>
		</g>
		<g>
			<path class="st1" d="M51.4,132.2l-2.8-4.5v4.5h-1v-6.4h0.9l2.8,4.5v-4.5h0.9v6.4H51.4z"/>
		</g>
		<g>
			<path class="st1" d="M53.2,132.2v-6.4h1.9c2.1,0,2.7,1.4,2.7,3.2s-0.6,3.2-2.7,3.2L53.2,132.2z M54.2,131.3h1
				c1.3,0,1.7-0.9,1.7-2.3s-0.4-2.3-1.7-2.3h-1V131.3z"/>
		</g>
		<g>
			<path class="st1" d="M7,141.2v-6.4h1v6.4H7z"/>
		</g>
		<g>
			<path class="st1" d="M12.5,140.3h-0.9l-1.6-3.9v4.8H9.1v-6.4h1.2l1.7,4.3l1.7-4.3H15v6.4h-0.9v-4.8L12.5,140.3z"/>
		</g>
		<g>
			<path class="st1" d="M17,141.2h-1v-6.4h2c1.6,0,2.2,0.9,2.2,2s-0.6,2-2.2,2H17V141.2z M17,138h1.1c0.6,0.1,1.2-0.4,1.2-1
				s-0.4-1.2-1-1.2c-0.1,0-0.1,0-0.2,0H17V138z"/>
		</g>
		<g>
			<path class="st1" d="M21.7,140.3h2.8v0.9h-3.7v-6.4h1L21.7,140.3z"/>
		</g>
		<g>
			<path class="st1" d="M28.6,138.3H26v2h2.9v0.9H25v-6.4h3.9v0.9H26v1.8h2.6L28.6,138.3z"/>
		</g>
		<g>
			<path class="st1" d="M33.1,140.3h-0.9l-1.6-3.9l0,4.8h-1v-6.4H31l1.7,4.3l1.7-4.3h1.2v6.4h-1v-4.8L33.1,140.3z"/>
		</g>
		<g>
			<path class="st1" d="M40.2,138.3h-2.7v2h2.9v0.9h-3.9v-6.4h3.9v0.9h-2.9v1.8h2.7V138.3z"/>
		</g>
		<g>
			<path class="st1" d="M45,141.2l-2.8-4.5v4.5h-1v-6.4h0.9l2.9,4.5v-4.5h1v6.4H45z"/>
		</g>
		<g>
			<path class="st1" d="M49,135.7v5.5h-1v-5.5h-1.6v-0.9h4.3v0.9H49z"/>
		</g>
		<g>
			<path class="st1" d="M54.5,135.7v5.5h-1v-5.5h-1.6v-0.9h4.3v0.9H54.5z"/>
		</g>
		<g>
			<path class="st1" d="M56.4,138c0-1.8,0.4-3.3,2.5-3.3s2.5,1.5,2.5,3.3s-0.4,3.3-2.5,3.3S56.4,139.8,56.4,138z M57.4,138
				c0,1.5,0.3,2.4,1.5,2.4s1.5-0.9,1.5-2.4s-0.3-2.4-1.5-2.4S57.4,136.5,57.4,138L57.4,138z"/>
		</g>
		<g>
			<path class="st1" d="M62,138c0-1.8,0.4-3.3,2.5-3.3c2,0,2.4,1.5,2.4,3.3s-0.4,3.3-2.4,3.3S62,139.8,62,138z M63,138
				c0,1.5,0.3,2.4,1.5,2.4c1.2,0,1.5-0.9,1.5-2.4s-0.3-2.4-1.5-2.4S63,136.5,63,138z"/>
		</g>
		<g>
			<path class="st1" d="M68.6,140.3h2.8v0.9h-3.7v-6.4h1L68.6,140.3z"/>
		</g>
		<g>
			<path class="st1" d="M76.1,139.3c0,1.2-0.7,2-2.4,2c-0.6,0-1.3-0.1-1.9-0.4V140c0.6,0.3,1.2,0.4,1.8,0.4c1.1,0,1.5-0.5,1.5-1.1
				s-0.3-0.9-1.2-1c-1.6-0.2-2.2-0.6-2.2-1.8c0-0.9,0.5-1.8,2.3-1.8c0.6,0,1.2,0.1,1.7,0.3v1c-0.5-0.2-1.1-0.3-1.7-0.3
				c-1,0-1.3,0.4-1.3,1s0.4,0.8,1.2,0.9C75.3,137.7,76.1,138,76.1,139.3z"/>
		</g>
		<g>
			<path class="st1" d="M80.3,135.7v5.5h-1v-5.5h-1.6v-0.9H82v0.9H80.3z"/>
		</g>
		<g>
			<path class="st1" d="M82.2,138c0-1.8,0.4-3.3,2.5-3.3s2.5,1.5,2.5,3.3s-0.4,3.3-2.5,3.3S82.2,139.8,82.2,138z M83.2,138
				c0,1.5,0.3,2.4,1.5,2.4s1.5-0.9,1.5-2.4s-0.3-2.4-1.5-2.4S83.1,136.5,83.2,138L83.2,138z"/>
		</g>
		<g>
			<path class="st1" d="M10.3,149.3H9.4l-1.6-3.9v4.8h-1v-6.4h1.3l1.7,4.3l1.7-4.3h1.2v6.4h-0.9v-4.8L10.3,149.3z"/>
		</g>
		<g>
			<path class="st1" d="M13.5,147c0-1.8,0.4-3.3,2.4-3.3s2.5,1.5,2.5,3.3s-0.4,3.3-2.4,3.3S13.5,148.8,13.5,147z M14.5,147
				c0,1.5,0.3,2.4,1.5,2.4s1.5-0.9,1.5-2.4s-0.3-2.4-1.5-2.4S14.5,145.5,14.5,147L14.5,147z"/>
		</g>
		<g>
			<path class="st1" d="M22.9,150.2l-2.8-4.5v4.5h-0.9v-6.4H20l2.8,4.5v-4.5h1v6.4H22.9z"/>
		</g>
		<g>
			<path class="st1" d="M24.8,150.2v-6.4h1v6.4H24.8z"/>
		</g>
		<g>
			<path class="st1" d="M29.1,144.7v5.5h-1v-5.5h-1.6v-0.9h4.3v0.9H29.1z"/>
		</g>
		<g>
			<path class="st1" d="M30.9,147c0-1.8,0.4-3.3,2.5-3.3s2.5,1.5,2.5,3.3s-0.4,3.3-2.5,3.3S30.9,148.8,30.9,147z M31.9,147
				c0,1.5,0.3,2.4,1.5,2.4s1.5-0.9,1.5-2.4s-0.3-2.4-1.5-2.4S31.9,145.5,31.9,147L31.9,147z"/>
		</g>
		<g>
			<path class="st1" d="M37.5,150.2h-1v-6.4h2.1c1.7,0,2.2,0.7,2.2,1.9c0.1,0.7-0.3,1.4-1,1.7l1.3,2.8H40l-1.2-2.6h-1.3V150.2z
				 M37.5,146.7h1.3c0.9,0,1-0.5,1-1s-0.1-1-1-1h-1.3V146.7z"/>
		</g>
		<g>
			<path class="st1" d="M47.3,148.3c0,1.2-0.7,2-2.4,2c-0.6,0-1.3-0.1-1.9-0.4V149c0.6,0.3,1.2,0.4,1.8,0.4c1.1,0,1.5-0.5,1.5-1.1
				s-0.3-0.9-1.2-1c-1.6-0.2-2.2-0.6-2.2-1.8c0-0.9,0.5-1.8,2.3-1.8c0.6,0,1.2,0.1,1.8,0.3v1c-0.5-0.2-1.1-0.3-1.7-0.3
				c-1,0-1.3,0.4-1.3,1s0.4,0.8,1.2,0.9C46.5,146.7,47.3,147,47.3,148.3z"/>
		</g>
		<g>
			<path class="st1" d="M47.9,148.2v-4.4h1v4.3c0,0.8,0.6,1.4,1.4,1.4s1.4-0.6,1.4-1.4v-4.3h1v4.4c0,1.1-0.8,2.1-2,2.1
				c-0.1,0-0.2,0-0.3,0c-1.1,0.1-2.2-0.6-2.3-1.8C47.9,148.4,47.9,148.3,47.9,148.2z"/>
		</g>
		<g>
			<path class="st1" d="M57.5,148.3c0,1.2-0.7,2-2.4,2c-0.6,0-1.3-0.1-1.9-0.4V149c0.6,0.3,1.2,0.4,1.8,0.4c1.1,0,1.5-0.5,1.5-1.1
				s-0.3-0.9-1.2-1c-1.6-0.2-2.2-0.6-2.2-1.8c0-0.9,0.5-1.8,2.3-1.8c0.6,0,1.2,0.1,1.7,0.3v1c-0.5-0.2-1.1-0.3-1.7-0.3
				c-1,0-1.3,0.4-1.3,1s0.4,0.8,1.2,0.9C56.7,146.7,57.5,147,57.5,148.3z"/>
		</g>
		<g>
			<path class="st1" d="M60.3,144.7v5.5h-1v-5.5h-1.6v-0.9H62v0.9H60.3z"/>
		</g>
		<g>
			<path class="st1" d="M65.1,148.6H63l-0.5,1.6h-1l2-6.4h1l2,6.4h-1L65.1,148.6z M64,145l-0.8,2.8h1.6L64,145z"/>
		</g>
		<g>
			<path class="st1" d="M67.2,150.2v-6.4h1v6.4H67.2z"/>
		</g>
		<g>
			<path class="st1" d="M72.9,150.2l-2.8-4.5v4.5h-0.9v-6.4h0.9l2.8,4.5v-4.5h0.9v6.4H72.9z"/>
		</g>
		<g>
			<path class="st1" d="M77.8,148.6h-2l-0.4,1.6h-1l2-6.4h1l2,6.4h-1L77.8,148.6z M76.8,145l-0.8,2.8h1.6L76.8,145z"/>
		</g>
		<g>
			<path class="st1" d="M79.8,143.8H82c1.6,0,2,0.8,2,1.7c0,0.5-0.3,1-0.8,1.3c0.6,0.2,1.1,0.8,1,1.5c0,1.1-0.5,1.9-2.2,1.9h-2.2
				L79.8,143.8z M82,144.7h-1.2v1.8h1.2c0.4,0.1,0.9-0.2,0.9-0.7c0-0.1,0-0.1,0-0.2C83,145.2,82.8,144.7,82,144.7L82,144.7z
				 M80.8,149.3h1.3c0.9,0,1.1-0.5,1.1-1s-0.3-1-1.1-1h-1.3L80.8,149.3z"/>
		</g>
		<g>
			<path class="st1" d="M85.9,149.3h2.8v0.9h-3.7v-6.4h0.9V149.3z"/>
		</g>
		<g>
			<path class="st1" d="M92.8,147.3h-2.6v2h2.9v0.9h-3.9v-6.4H93v0.9h-2.9v1.8h2.7L92.8,147.3z"/>
		</g>
		<g>
			<path class="st1" d="M9.2,153.7v5.5h-1v-5.5H6.6v-0.9h4.3v0.9H9.2z"/>
		</g>
		<g>
			<path class="st1" d="M11.1,156c0-1.8,0.4-3.3,2.5-3.3s2.5,1.5,2.5,3.3s-0.4,3.3-2.4,3.3S11.1,157.8,11.1,156z M12.1,156
				c0,1.5,0.3,2.4,1.5,2.4s1.5-0.9,1.5-2.4s-0.3-2.4-1.5-2.4S12,154.5,12.1,156L12.1,156z"/>
		</g>
		<g>
			<path class="st1" d="M16.7,157.2v-4.4h1v4.3c-0.1,0.7,0.4,1.3,1,1.3c0.1,0,0.2,0,0.3,0c0.6,0.1,1.3-0.3,1.4-1c0-0.1,0-0.2,0-0.3
				v-4.3h1v4.4c0,1.1-0.8,2.1-2,2.1c-0.1,0-0.3,0-0.4,0c-1.1,0.2-2.1-0.5-2.3-1.6C16.7,157.5,16.7,157.4,16.7,157.2z"/>
		</g>
		<g>
			<path class="st1" d="M23,159.2h-1v-6.4h2.1c1.6,0,2.2,0.7,2.2,1.9c0.1,0.7-0.3,1.4-1,1.7l1.3,2.8h-1.1l-1.1-2.6H23V159.2z
				 M23,155.7h1.3c0.9,0,1-0.5,1-1s-0.1-1-1-1H23V155.7z"/>
		</g>
		<g>
			<path class="st1" d="M27.3,159.2v-6.4h1v6.4H27.3z"/>
		</g>
		<g>
			<path class="st1" d="M33.5,157.3c0,1.2-0.7,2-2.4,2c-0.6,0-1.3-0.1-1.9-0.4V158c0.6,0.3,1.2,0.4,1.8,0.4c1.2,0,1.5-0.5,1.5-1.1
				s-0.3-0.9-1.2-1c-1.5-0.2-2.2-0.6-2.2-1.8c0-0.9,0.5-1.8,2.3-1.8c0.6,0,1.2,0.1,1.7,0.3v1c-0.5-0.2-1.1-0.3-1.7-0.3
				c-1,0-1.3,0.4-1.3,1s0.4,0.8,1.2,0.9C32.7,155.7,33.5,156,33.5,157.3z"/>
		</g>
		<g>
			<path class="st1" d="M37.7,158.3h-0.9l-1.6-3.9v4.8h-1v-6.4h1.2l1.7,4.3l1.9-4.3h1.2v6.4h-1v-4.8L37.7,158.3z"/>
		</g>
	</g>
	<g>
		<rect x="3.3" y="24" class="st1" width="94.8" height="94.8"/>
	</g>
	<g>
		<path class="st1" d="M98.2,20.7H3.3V3.3h94.8V20.7z M4.3,19.7h92.8V4.3H4.3L4.3,19.7z"/>
	</g>
	<g class="st2">
		<path class="st1" d="M6.7,6.9h4.5v1.4H9.9v8.8H8.1V8.3H6.7V6.9z"/>
	</g>
	<g class="st2">
		<path class="st1" d="M11.2,17.1l1.9-10.2h1.9L17,17.1h-1.8l-0.3-1.9h-1.8l-0.3,1.9H11.2z M13.3,13.9h1.4L14,9.8h0L13.3,13.9z"/>
	</g>
	<g class="st2">
		<path class="st1" d="M19.6,12.4v4.7h-1.7V6.9h2.5c1.7,0,2.4,0.9,2.4,2.3v1.3c0,1.1-0.4,1.7-1.4,2l1.6,4.6h-1.8L19.6,12.4z
			 M19.6,8.3v3.2h0.6c0.6,0,0.8-0.3,0.8-0.8V9.2c0-0.6-0.3-0.8-0.8-0.8H19.6z"/>
	</g>
	<g class="st2">
		<path class="st1" d="M26.4,11.7h2.4v5.4h-1.2V16c-0.2,0.8-0.7,1.2-1.6,1.2c-1.5,0-2.1-1.2-2.1-2.7V9.6c0-1.6,0.8-2.7,2.6-2.7
			c1.9,0,2.4,1.1,2.4,2.6v0.9h-1.6v-1c0-0.6-0.2-1-0.9-1c-0.6,0-0.9,0.4-0.9,1v5.5c0,0.6,0.3,1,0.8,1c0.6,0,0.8-0.3,0.8-1V13h-0.8
			V11.7z"/>
	</g>
	<g class="st2">
		<path class="st1" d="M30.2,6.9h4.1v1.4h-2.4v2.9h1.7v1.4h-1.7v3.1h2.4v1.4h-4.1V6.9z"/>
	</g>
	<g class="st2">
		<path class="st1" d="M35.1,6.9h4.5v1.4h-1.4v8.8h-1.7V8.3h-1.4V6.9z"/>
	</g>
	<g class="st2">
		<path class="st1" d="M89.4,6.9h2.5c1.7,0,2.3,0.8,2.3,2.2v1c0,0.9-0.3,1.4-1,1.6c0.9,0.2,1.3,0.8,1.3,1.7v1.3
			c0,1.4-0.6,2.2-2.4,2.2h-2.7V6.9z M91.1,11.2h0.6c0.6,0,0.8-0.3,0.8-0.8V9.2c0-0.6-0.3-0.8-0.8-0.8h-0.6V11.2z M91.1,12.5v3.2h0.8
			c0.6,0,0.8-0.3,0.8-0.8v-1.5c0-0.5-0.3-0.8-0.9-0.8H91.1z"/>
	</g>
	<g class="st2">
		<path class="st1" d="M77.3,6.9v10.2h-1.7V9.3h0l-1.2,1.2h0V8.8L76,6.9H77.3z"/>
		<path class="st1" d="M78.7,15.2c0-1,0.3-1.7,1.3-2.7l1-1c0.6-0.6,0.6-0.9,0.6-1.8V8.9c0-0.6-0.3-0.8-0.6-0.8
			c-0.4,0-0.7,0.2-0.7,0.8v1.3h-1.6V9c0-1.4,0.8-2.2,2.3-2.2c1.5,0,2.2,0.7,2.2,2.1v1c0,1-0.2,1.6-1.1,2.6l-1.1,1.2
			c-0.4,0.5-0.7,0.8-0.7,1.6v0.5h2.8v1.4h-4.4V15.2z"/>
	</g>
	<g>
		<polygon class="st1" points="85.4,9.9 85.4,14.1 87.6,12 		"/>
	</g>
	<g>
		<path class="st1" d="M98.2,162.9h-95v-40.7h95V162.9z M4.2,161.9h93v-38.7h-93V161.9z"/>
	</g>
	<g>
		<g>
			<g>
				<path class="st0" d="M63.6,66.1c1.8,0,3.2-1.4,3.2-3.2s-1.4-3.2-3.2-3.2c-1.8,0-3.2,1.4-3.2,3.2l0,0
					C60.3,64.7,61.8,66.1,63.6,66.1z"/>
			</g>
			<g>
				<path class="st0" d="M71.2,80.6v-9c0-2.2-1.7-4.1-3.9-4.3h-0.2H60h-0.2c-2.2,0.2-3.9,2.1-3.9,4.3v9c0,0.7,0.6,1.2,1.2,1.2
					s1.2-0.6,1.2-1.2v-7.7c0-0.3,0.1-0.7,0.6-0.7c0.4,0,0.4,0.4,0.5,0.6v23c0,1,0.8,1.8,1.8,1.8c1,0,1.8-0.8,1.8-1.8V82.7
					c0-0.3,0.2-0.5,0.4-0.5c0,0,0,0,0.1,0l0,0c0.3,0,0.5,0.2,0.5,0.5c0,0,0,0,0,0.1v13.3c0,1,0.8,1.8,1.8,1.8c1,0,1.8-0.8,1.8-1.8
					v-23c0-0.2,0.1-0.6,0.4-0.6c0.5,0,0.6,0.4,0.6,0.7v7.7c0.1,0.7,0.7,1.2,1.4,1.1C70.7,81.8,71.2,81.3,71.2,80.6L71.2,80.6z"/>
			</g>
			<g>
				<path class="st0" d="M43.2,66.9c1.7,0,3.1-1.4,3.1-3.1c0-1.7-1.4-3.1-3.1-3.1c-1.7,0-3.1,1.4-3.1,3.1l0,0
					C40.1,65.4,41.5,66.9,43.2,66.9C43.2,66.9,43.2,66.9,43.2,66.9z"/>
			</g>
			<g>
				<path class="st0" d="M49.5,70.8c0,0-0.9-2.5-3-2.5h-6.6c-2.1,0-3,2.5-3,2.5l-2.6,8.5c0,0-0.5,1.6,0.9,2s1.7-1.1,1.7-1.1l2.1-7.1
					c0,0,0.1-0.6,0.5-0.4s0.2,0.7,0.2,0.7l-3.7,13.2h3.4v9.5c0,0.9,0.7,1.6,1.6,1.6c0.9,0,1.6-0.7,1.6-1.6v-9.5h0.9v9.5
					c0.1,0.9,0.9,1.6,1.8,1.5c0.8-0.1,1.4-0.7,1.5-1.5v-9.5h3.4l-3.7-13.3c0,0-0.2-0.6,0.2-0.7s0.5,0.4,0.5,0.4l2.1,7.1
					c0,0,0.4,1.5,1.7,1.1s0.8-2,0.8-2L49.5,70.8z"/>
			</g>
			<g>
				<path class="st0" d="M32.6,85c-0.8,0-1.5,0.7-1.6,1.5h-0.9v10.8h5V86.5h-0.9C34.2,85.6,33.4,85,32.6,85z M33.8,86.5h-2.4
					c0-0.2,0.1-0.3,0.1-0.4c0.3-0.6,1-0.8,1.6-0.5C33.5,85.7,33.7,86.1,33.8,86.5z"/>
			</g>
			<g>
				<path class="st0" d="M74.4,86.7c-0.1-0.8-0.8-1.5-1.6-1.5c-0.8,0-1.5,0.6-1.6,1.5h-0.9v10.8h5V86.7H74.4z M71.6,86.7
					c0.1-0.7,0.7-1.1,1.4-1.1c0.6,0.1,1,0.5,1.1,1.1H71.6z"/>
			</g>
		</g>
		<g>
			<g>
				<rect x="48.6" y="90.2" class="st0" width="2" height="0.5"/>
			</g>
			<g>
				<rect x="82.6" y="90.2" class="st0" width="2" height="0.5"/>
			</g>
			<g>
				<rect x="52.6" y="90.2" class="st0" width="2" height="0.5"/>
			</g>
			<g>
				<rect x="56.6" y="90.2" class="st0" width="2" height="0.5"/>
			</g>
			<g>
				<rect x="78.6" y="73.9" class="st0" width="2" height="0.5"/>
			</g>
			<g>
				<rect x="82.6" y="73.9" class="st0" width="2" height="0.5"/>
			</g>
			<g>
				<rect x="78.6" y="90.2" class="st0" width="2" height="0.5"/>
			</g>
			<g>
				<rect x="74.6" y="73.9" class="st0" width="2" height="0.5"/>
			</g>
			<g>
				<rect x="52.6" y="73.9" class="st0" width="2" height="0.5"/>
			</g>
			<g>
				<rect x="26.6" y="73.9" class="st0" width="2" height="0.5"/>
			</g>
			<g>
				<rect x="30.6" y="73.9" class="st0" width="2" height="0.5"/>
			</g>
			<g>
				<rect x="22.6" y="73.9" class="st0" width="2" height="0.5"/>
			</g>
			<g>
				<rect x="26.6" y="90.2" class="st0" width="2" height="0.5"/>
			</g>
			<g>
				<rect x="36.2" y="90.2" class="st0" width="2" height="0.5"/>
			</g>
			<g>
				<rect x="22.6" y="90.2" class="st0" width="2" height="0.5"/>
			</g>
			<g>
				<rect x="42.6" y="57.6" class="st0" width="2" height="0.5"/>
			</g>
			<g>
				<rect x="38.6" y="57.6" class="st0" width="2" height="0.5"/>
			</g>
			<g>
				<rect x="50.6" y="57.6" class="st0" width="2" height="0.5"/>
			</g>
			<g>
				<rect x="46.6" y="57.6" class="st0" width="2" height="0.5"/>
			</g>
			<g>
				<rect x="22.6" y="57.6" class="st0" width="2" height="0.5"/>
			</g>
			<g>
				<rect x="70.6" y="57.6" class="st0" width="2" height="0.5"/>
			</g>
			<g>
				<rect x="82.6" y="57.6" class="st0" width="2" height="0.5"/>
			</g>
			<g>
				<rect x="54.6" y="57.6" class="st0" width="2" height="0.5"/>
			</g>
			<g>
				<rect x="74.6" y="57.6" class="st0" width="2" height="0.5"/>
			</g>
			<g>
				<rect x="78.6" y="57.6" class="st0" width="2" height="0.5"/>
			</g>
			<g>
				<rect x="66.6" y="57.6" class="st0" width="2" height="0.5"/>
			</g>
			<g>
				<rect x="58.6" y="57.6" class="st0" width="2" height="0.5"/>
			</g>
			<g>
				<rect x="62.6" y="57.6" class="st0" width="2" height="0.5"/>
			</g>
			<g>
				<rect x="74.6" y="41.2" class="st0" width="2" height="0.5"/>
			</g>
			<g>
				<rect x="70.6" y="41.2" class="st0" width="2" height="0.5"/>
			</g>
			<g>
				<rect x="38.6" y="41.2" class="st0" width="2" height="0.5"/>
			</g>
			<g>
				<rect x="42.6" y="41.2" class="st0" width="2" height="0.5"/>
			</g>
			<g>
				<rect x="66.6" y="41.2" class="st0" width="2" height="0.5"/>
			</g>
			<g>
				<rect x="34.6" y="41.2" class="st0" width="2" height="0.5"/>
			</g>
			<g>
				<rect x="46.6" y="41.2" class="st0" width="2" height="0.5"/>
			</g>
			<g>
				<rect x="58.6" y="41.2" class="st0" width="2" height="0.5"/>
			</g>
			<g>
				<rect x="54.6" y="41.2" class="st0" width="2" height="0.5"/>
			</g>
			<g>
				<rect x="62.6" y="41.2" class="st0" width="2" height="0.5"/>
			</g>
			<g>
				<rect x="26.6" y="41.2" class="st0" width="2" height="0.5"/>
			</g>
			<g>
				<rect x="50.6" y="41.2" class="st0" width="2" height="0.5"/>
			</g>
			<g>
				<rect x="22.6" y="41.2" class="st0" width="2" height="0.5"/>
			</g>
			<g>
				<rect x="30.6" y="41.2" class="st0" width="2" height="0.5"/>
			</g>
			<g>
				<path class="st3" d="M72.8,85.6c-0.6,0-1.1,0.5-1.2,1.1H74C73.9,86.1,73.4,85.7,72.8,85.6z"/>
			</g>
			<g>
				<polygon class="st0" points="78.4,103.4 78.4,100.8 77.6,100.8 77.6,103.4 62.2,103.4 62.2,100.8 61.4,100.8 61.4,103.4 
					46,103.4 46,100.7 45.2,100.7 45.2,103.4 29.8,103.4 29.8,100.5 29,100.5 29,103.4 18.6,103.4 18.6,90.7 20.6,90.7 20.6,90.2 
					18.6,90.2 18.6,74.4 20.6,74.4 20.6,73.9 18.6,73.9 18.6,62 45.8,55.1 60,47.4 85.1,42.5 85.1,40.8 59.7,45.7 45.5,53.5 
					18.6,60.3 18.6,58.1 20.6,58.1 20.6,57.6 18.6,57.6 18.6,41.7 20.6,41.7 20.6,41.2 18.6,41.2 18.6,37.2 16.4,37.2 16.4,105.6 
					85.1,105.6 85.1,103.4 				"/>
			</g>
		</g>
	</g>
</g>
</svg>
