<?xml version="1.0" encoding="utf-8"?>
<!-- Generator: Adobe Illustrator 22.0.1, SVG Export Plug-In . SVG Version: 6.00 Build 0)  -->
<svg version="1.1" id="Layer_1" xmlns="http://www.w3.org/2000/svg" xmlns:xlink="http://www.w3.org/1999/xlink" x="0px" y="0px"
	 viewBox="0 0 101.5 166.1" style="enable-background:new 0 0 101.5 166.1;" xml:space="preserve">
<style type="text/css">
	.st0{fill:#FFFFFF;}
	.st1{fill:#BF8B2E;}
	.st2{enable-background:new    ;}
</style>
<title>TARGET 1 B copy 7</title>
<g id="WHITE_BG">
	<g>
		<rect y="-0.2" class="st0" width="101.5" height="166.1"/>
	</g>
</g>
<g id="TARGETS">
	<g>
		<g>
			<path class="st1" d="M7.8,132h-1v-6.4h2.1c1.6,0,2.2,1,2.2,2c0,1-0.6,2-2.2,2H7.8V132z M7.8,128.7H9c0.6,0.1,1.2-0.4,1.2-1
				c0.1-0.6-0.4-1.2-1-1.2c-0.1,0-0.1,0-0.2,0H7.8V128.7z"/>
		</g>
		<g>
			<path class="st1" d="M12.7,132h-1v-6.4h2.1c1.6,0,2.2,0.7,2.2,1.9c0.1,0.7-0.3,1.4-1,1.7l1.4,2.8h-1.1l-1.2-2.6h-1.3V132z
				 M12.7,128.5H14c0.9,0,1-0.5,1-1s-0.1-1-1-1h-1.3V128.5z"/>
		</g>
		<g>
			<path class="st1" d="M16.8,128.8c0-1.8,0.4-3.3,2.5-3.3s2.5,1.5,2.5,3.3s-0.4,3.3-2.5,3.3S16.8,130.6,16.8,128.8z M17.8,128.8
				c0,1.5,0.3,2.4,1.5,2.4s1.5-0.9,1.5-2.4s-0.3-2.4-1.5-2.4S17.7,127.3,17.8,128.8L17.8,128.8z"/>
		</g>
		<g>
			<path class="st1" d="M25.8,131.2h-0.9l-1.6-3.9v4.8h-1v-6.4h1.2l1.8,4.3l1.7-4.3h1.2v6.3h-1v-4.8L25.8,131.2z"/>
		</g>
		<g>
			<path class="st1" d="M29,128.8c0-1.8,0.4-3.3,2.5-3.3s2.5,1.5,2.5,3.3s-0.4,3.3-2.5,3.3S29,130.6,29,128.8z M30,128.8
				c0,1.5,0.3,2.4,1.5,2.4s1.5-0.9,1.5-2.4s-0.3-2.4-1.5-2.4S30,127.3,30,128.8L30,128.8z"/>
		</g>
		<g>
			<path class="st1" d="M36.7,126.5v5.5h-1v-5.5h-1.6v-0.9h4.3v0.9L36.7,126.5z"/>
		</g>
		<g>
			<path class="st1" d="M42.6,129.2H40v2h2.9v0.8H39v-6.4h3.9v0.9H40v1.8h2.6V129.2z"/>
		</g>
		<g>
			<path class="st1" d="M45,130v-4.4h1v4.3c0,0.8,0.6,1.4,1.4,1.4s1.4-0.6,1.4-1.4v-4.3h1v4.4c0.1,1.1-0.8,2.1-1.9,2.1
				c-0.1,0-0.3,0-0.4,0c-1.1,0.2-2.1-0.5-2.3-1.6C45,130.3,45,130.2,45,130z"/>
		</g>
		<g>
			<path class="st1" d="M54.3,132l-2.8-4.5v4.5h-0.9v-6.4h0.9l2.8,4.5v-4.5h1v6.4H54.3z"/>
		</g>
		<g>
			<path class="st1" d="M56.2,132v-6.4h1v6.4H56.2z"/>
		</g>
		<g>
			<path class="st1" d="M62.8,125.7l-2,6.4h-1l-2-6.4h1l1.5,5.2l1.5-5.2L62.8,125.7z"/>
		</g>
		<g>
			<path class="st1" d="M67,129.2h-2.7v2h2.9v0.8h-3.9v-6.4h3.9v0.9h-2.9v1.8H67V129.2z"/>
		</g>
		<g>
			<path class="st1" d="M69,132h-1v-6.4h2.1c1.6,0,2.2,0.7,2.2,1.9c0.1,0.7-0.3,1.4-1,1.7l1.4,2.8h-1.1l-1.2-2.6H69V132z M69,128.5
				h1.3c0.9,0,1-0.5,1-1s-0.1-1-1-1H69V128.5z"/>
		</g>
		<g>
			<path class="st1" d="M77.3,130.1c0,1.2-0.7,2-2.4,2c-0.6,0-1.3-0.1-1.9-0.4v-1c0.6,0.3,1.2,0.4,1.8,0.4c1.2,0,1.5-0.5,1.5-1.1
				s-0.3-0.9-1.2-1c-1.6-0.2-2.2-0.6-2.2-1.8c0-0.9,0.5-1.8,2.3-1.8c0.6,0,1.2,0.1,1.7,0.3v0.9c-0.5-0.2-1.1-0.3-1.7-0.3
				c-1,0-1.3,0.4-1.3,1s0.4,0.8,1.2,0.9C76.5,128.5,77.3,128.8,77.3,130.1z"/>
		</g>
		<g>
			<path class="st1" d="M81,130.5h-2l-0.5,1.5h-1l2-6.4h1l2,6.4h-1L81,130.5z M80,126.9l-0.8,2.8h1.6L80,126.9z"/>
		</g>
		<g>
			<path class="st1" d="M84,131.2h2.8v0.8H83v-6.4h1V131.2z"/>
		</g>
		<g>
			<path class="st1" d="M6.8,139v-4.4h1v4.3c-0.1,0.7,0.4,1.2,1,1.3c0.1,0,0.2,0,0.3,0c0.7,0.1,1.3-0.4,1.4-1c0-0.1,0-0.2,0-0.3
				v-4.3h1v4.4c0.1,1.1-0.8,2.1-1.9,2.1c-0.1,0-0.3,0-0.4,0c-1.1,0.2-2.1-0.5-2.4-1.5C6.8,139.4,6.8,139.2,6.8,139z"/>
		</g>
		<g>
			<path class="st1" d="M16.1,141l-2.8-4.5v4.5h-0.9v-6.4h0.9l2.8,4.5v-4.5h1v6.3H16.1z"/>
		</g>
		<g>
			<path class="st1" d="M17.9,141v-6.4h1.9c2.1,0,2.7,1.4,2.7,3.2s-0.6,3.2-2.7,3.2H17.9z M18.8,140.1h1c1.3,0,1.7-0.9,1.7-2.3
				s-0.4-2.3-1.7-2.3h-1V140.1z"/>
		</g>
		<g>
			<path class="st1" d="M26.8,138.2h-2.6v2h2.9v0.8h-3.9v-6.4h3.9v0.9h-2.9v1.8h2.6V138.2z"/>
		</g>
		<g>
			<path class="st1" d="M28.9,141h-1v-6.4H30c1.6,0,2.2,0.7,2.2,1.9c0.1,0.7-0.3,1.4-1,1.7l1.3,2.8h-1.1l-1.1-2.6h-1.3V141z
				 M28.9,137.5h1.3c0.9,0,1-0.5,1-1s-0.1-1-1-1h-1.3V137.5z"/>
		</g>
		<g>
			<path class="st1" d="M37.2,139.1c0,1.2-0.7,2-2.4,2c-0.6,0-1.3-0.1-1.9-0.4v-1c0.6,0.3,1.2,0.4,1.8,0.4c1.1,0,1.5-0.5,1.5-1.1
				s-0.3-0.9-1.2-1c-1.6-0.2-2.2-0.6-2.2-1.8c0-0.9,0.5-1.9,2.3-1.9c0.6,0,1.2,0.1,1.7,0.3v0.9c-0.5-0.2-1.1-0.3-1.7-0.3
				c-1,0-1.3,0.4-1.3,0.9s0.4,0.8,1.2,0.9C36.4,137.5,37.2,137.8,37.2,139.1z"/>
		</g>
		<g>
			<path class="st1" d="M40,135.5v5.5h-1v-5.5h-1.6v-0.9h4.3v0.9L40,135.5z"/>
		</g>
		<g>
			<path class="st1" d="M44.8,139.5h-2l-0.5,1.5h-1l2-6.4h1l2,6.4h-1L44.8,139.5z M43.8,135.9l-0.8,2.8h1.6L43.8,135.9z"/>
		</g>
		<g>
			<path class="st1" d="M50.5,141l-2.8-4.5v4.5h-1v-6.4h0.9l2.8,4.5v-4.5h0.9v6.4H50.5z"/>
		</g>
		<g>
			<path class="st1" d="M52.3,141v-6.4h1.9c2.1,0,2.7,1.4,2.7,3.2s-0.6,3.2-2.7,3.2H52.3z M53.2,140.1h1c1.3,0,1.7-0.9,1.7-2.3
				s-0.4-2.3-1.7-2.3h-1V140.1z"/>
		</g>
		<g>
			<path class="st1" d="M57.7,141v-6.4h1v6.4H57.7z"/>
		</g>
		<g>
			<path class="st1" d="M63.5,141l-2.8-4.5v4.5h-0.9v-6.4h0.9l2.8,4.5v-4.5h1v6.4H63.5z"/>
		</g>
		<g>
			<path class="st1" d="M65.1,137.8c0-2,0.7-3.3,2.6-3.3c0.6,0,1.3,0.1,1.8,0.3v0.9c-0.5-0.2-1.1-0.4-1.7-0.4
				c-1.3,0-1.8,0.9-1.8,2.4s0.5,2.4,1.8,2.4c0.3,0,0.6,0,0.9-0.1v-1.7h-1.1v-0.9h2.1v3.2c-0.6,0.3-1.3,0.4-2,0.4
				C65.8,141.1,65.1,139.8,65.1,137.8z"/>
		</g>
		<g>
			<path class="st1" d="M71.9,137.8c0-1.8,0.4-3.3,2.5-3.3s2.5,1.5,2.5,3.3s-0.4,3.3-2.5,3.3S71.9,139.6,71.9,137.8z M72.9,137.8
				c0,1.5,0.3,2.4,1.5,2.4s1.5-0.9,1.5-2.4s-0.3-2.4-1.5-2.4S72.8,136.3,72.9,137.8L72.9,137.8z"/>
		</g>
		<g>
			<path class="st1" d="M81.1,138.2h-2.6v2.8h-1v-6.4h3.8v0.9h-2.8v1.8h2.6V138.2z"/>
		</g>
		<g>
			<path class="st1" d="M11.1,148.1c0,1.2-0.7,2-2.4,2c-0.6,0-1.3-0.1-1.9-0.4v-1c0.6,0.3,1.2,0.4,1.8,0.4c1.1,0,1.5-0.5,1.5-1.1
				s-0.3-0.9-1.2-1c-1.6-0.2-2.2-0.6-2.2-1.8c0-0.9,0.5-1.9,2.3-1.9c0.6,0,1.2,0.1,1.7,0.3v0.9c-0.5-0.2-1.1-0.3-1.7-0.3
				c-1,0-1.3,0.4-1.3,0.9s0.4,0.8,1.2,0.9C10.3,146.5,11.1,146.8,11.1,148.1z"/>
		</g>
		<g>
			<path class="st1" d="M11.7,148v-4.4h1v4.3c-0.1,0.7,0.4,1.3,1,1.4c0.1,0,0.2,0,0.3,0c0.6,0.1,1.3-0.3,1.4-1c0-0.1,0-0.2,0-0.3
				v-4.3h0.9v4.3c0.1,1.1-0.8,2.1-1.9,2.1c-0.1,0-0.3,0-0.4,0c-1.1,0.2-2.1-0.6-2.3-1.7C11.7,148.3,11.7,148.1,11.7,148z"/>
		</g>
		<g>
			<path class="st1" d="M21.3,148.1c0,1.2-0.7,2-2.4,2c-0.6,0-1.3-0.1-1.9-0.4v-1c0.6,0.3,1.2,0.4,1.8,0.4c1.1,0,1.5-0.5,1.5-1.1
				s-0.3-0.9-1.2-1c-1.5-0.2-2.2-0.6-2.2-1.8c0-0.9,0.5-1.9,2.3-1.9c0.6,0,1.2,0.1,1.7,0.3v0.9c-0.5-0.2-1.1-0.3-1.7-0.3
				c-1,0-1.3,0.4-1.3,0.9s0.4,0.8,1.2,0.9C20.5,146.5,21.3,146.8,21.3,148.1z"/>
		</g>
		<g>
			<path class="st1" d="M24.1,144.5v5.5h-1v-5.5h-1.6v-0.9h4.3v0.9L24.1,144.5z"/>
		</g>
		<g>
			<path class="st1" d="M28.9,148.5h-2l-0.5,1.5h-1l2-6.4h1l2,6.4h-1L28.9,148.5z M27.9,144.9l-0.9,2.8h1.6L27.9,144.9z"/>
		</g>
		<g>
			<path class="st1" d="M31,150v-6.4h1v6.4H31z"/>
		</g>
		<g>
			<path class="st1" d="M36.7,150l-2.7-4.5v4.5h-1v-6.4h0.9l2.8,4.5v-4.5h0.9v6.4H36.7z"/>
		</g>
		<g>
			<path class="st1" d="M41.7,148.5h-2l-0.5,1.5h-1l2-6.4h1l2,6.4h-1L41.7,148.5z M40.7,144.9l-0.8,2.8h1.6L40.7,144.9z"/>
		</g>
		<g>
			<path class="st1" d="M43.7,143.7h2.1c1.6,0,2,0.8,2,1.7c0,0.5-0.3,1-0.8,1.3c0.6,0.2,1.1,0.8,1,1.5c0,1.1-0.5,1.9-2.2,1.9h-2.2
				V143.7z M45.8,144.5h-1.2v1.8h1.2c0.8,0,0.9-0.5,0.9-0.9S46.7,144.5,45.8,144.5z M44.6,149.2h1.3c0.9,0,1.1-0.5,1.1-1
				s-0.3-1-1.1-1h-1.3V149.2z"/>
		</g>
		<g>
			<path class="st1" d="M49.7,149.2h2.8v0.8h-3.7v-6.4h1L49.7,149.2z"/>
		</g>
		<g>
			<path class="st1" d="M56.6,147.2h-2.7v2h2.9v0.8H53v-6.4h3.9v0.9h-2.9v1.8h2.7V147.2z"/>
		</g>
		<g>
			<path class="st1" d="M7.8,158.2h2.8v0.8H6.9v-6.4h1L7.8,158.2z"/>
		</g>
		<g>
			<path class="st1" d="M11.3,159v-6.4h1v6.4H11.3z"/>
		</g>
		<g>
			<path class="st1" d="M16.8,156.2h-2.6v2.8h-0.9v-6.4h3.8v0.9h-2.9v1.8h2.6V156.2z"/>
		</g>
		<g>
			<path class="st1" d="M21.3,156.2h-2.6v2h2.9v0.8h-3.9v-6.4h3.9v0.9h-2.9v1.8h2.6V156.2z"/>
		</g>
		<g>
			<path class="st1" d="M26.5,157.1c0,1.2-0.7,2-2.4,2c-0.6,0-1.3-0.1-1.9-0.4v-1c0.6,0.3,1.2,0.4,1.8,0.4c1.1,0,1.5-0.5,1.5-1.1
				s-0.3-0.9-1.2-1c-1.5-0.2-2.2-0.6-2.2-1.8c0-0.9,0.5-1.9,2.3-1.9c0.6,0,1.2,0.1,1.7,0.3v0.9c-0.5-0.2-1.1-0.3-1.7-0.3
				c-1,0-1.3,0.4-1.3,0.9s0.4,0.8,1.2,0.9C25.7,155.5,26.5,155.8,26.5,157.1z"/>
		</g>
		<g>
			<path class="st1" d="M29.4,153.5v5.5h-1v-5.5h-1.6v-0.9H31v0.9L29.4,153.5z"/>
		</g>
		<g>
			<path class="st1" d="M34.3,156.5v2.5h-1v-2.6l-2.2-3.8h1.1l1.6,3l1.6-3h1.1L34.3,156.5z"/>
		</g>
		<g>
			<path class="st1" d="M38,158.2h2.8v0.8H37v-6.4h1V158.2z"/>
		</g>
		<g>
			<path class="st1" d="M44.9,156.2h-2.7v2h2.9v0.8h-3.9v-6.4h3.9v0.9h-2.9v1.8h2.7V156.2z"/>
		</g>
		<g>
			<path class="st1" d="M50,157.1c0,1.2-0.7,2-2.4,2c-0.6,0-1.3-0.1-1.9-0.4v-1c0.6,0.3,1.2,0.4,1.8,0.4c1.2,0,1.5-0.5,1.5-1.1
				s-0.3-0.9-1.2-1c-1.6-0.2-2.2-0.6-2.2-1.8c0-0.9,0.5-1.9,2.3-1.9c0.6,0,1.2,0.1,1.7,0.3v0.9c-0.5-0.2-1.1-0.3-1.7-0.3
				c-1,0-1.3,0.4-1.3,0.9s0.4,0.8,1.2,0.9C49.2,155.5,50,155.8,50,157.1z"/>
		</g>
	</g>
	<g>
		<rect x="3.3" y="23.9" class="st1" width="94.8" height="94.8"/>
	</g>
	<g>
		<path class="st1" d="M98.2,20.5H3.3V3.1h94.8V20.5z M4.3,19.5h92.8V4.1H4.3L4.3,19.5z"/>
	</g>
	<g class="st2">
		<path class="st1" d="M6.7,6.8h4.5v1.4H9.9v8.8H8.1V8.2H6.7V6.8z"/>
	</g>
	<g class="st2">
		<path class="st1" d="M11.2,16.9l1.9-10.2h1.9L17,16.9h-1.8l-0.3-1.9h-1.8l-0.3,1.9H11.2z M13.3,13.7h1.4L14,9.6h0L13.3,13.7z"/>
	</g>
	<g class="st2">
		<path class="st1" d="M19.6,12.3v4.7h-1.7V6.8h2.5c1.7,0,2.4,0.9,2.4,2.3v1.3c0,1.1-0.4,1.7-1.4,2l1.6,4.6h-1.8L19.6,12.3z
			 M19.6,8.2v3.2h0.6c0.6,0,0.8-0.3,0.8-0.8V9c0-0.6-0.3-0.8-0.8-0.8H19.6z"/>
	</g>
	<g class="st2">
		<path class="st1" d="M26.4,11.5h2.4v5.4h-1.2v-1.1c-0.2,0.8-0.7,1.2-1.6,1.2c-1.5,0-2.1-1.2-2.1-2.7V9.4c0-1.6,0.8-2.7,2.6-2.7
			c1.9,0,2.4,1.1,2.4,2.6v0.9h-1.6v-1c0-0.6-0.2-1-0.9-1c-0.6,0-0.9,0.4-0.9,1v5.5c0,0.6,0.3,1,0.8,1c0.6,0,0.8-0.3,0.8-1v-1.8h-0.8
			V11.5z"/>
	</g>
	<g class="st2">
		<path class="st1" d="M30.2,6.8h4.1v1.4h-2.4v2.9h1.7v1.4h-1.7v3.1h2.4v1.4h-4.1V6.8z"/>
	</g>
	<g class="st2">
		<path class="st1" d="M35.1,6.8h4.5v1.4h-1.4v8.8h-1.7V8.2h-1.4V6.8z"/>
	</g>
	<g>
		<path class="st1" d="M98.2,162.7h-95V122h95V162.7z M4.2,161.7h93V123h-93V161.7z"/>
	</g>
	<g>
		<g>
			<path class="st0" d="M45.5,65.6c0.2,0.2,0.6,0.2,0.8,0c0.1-0.1,0.1-0.2,0.1-0.4l1.6-9.6v-0.1c0-0.2-0.1-0.3-0.2-0.4
				c-0.1-0.1-0.3-0.2-0.4-0.2l0,0l-9.4,2.6h-0.2c-0.1,0-0.2,0.1-0.3,0.2c-0.1,0.1-0.2,0.3-0.2,0.4c0,0.2,0.1,0.3,0.2,0.4l1.9,1.8
				c-0.9,0.6-1.9,1-3,1.2c-0.8,0.2-1.7,0.2-2.5,0.2c-3.1,0.1-6-1.3-8-3.6L26,58c-1.6-2.1-2.2-3.9-2.2-7.2c0-4.1,1.2-7.1,3.6-9
				c2-1.5,4.5-2.3,7-2.3c0.4,0,0.9,0,1.3,0.1h0.2C39,40.4,43.2,41.3,49,53c3.1,6.2,6.9,10.2,11.8,12.3c2.3,1.1,4.9,1.7,7.4,1.7
				c1.8,0,3.5-0.3,5.2-0.9c2.8-1.1,9.4-4.7,9.4-15.4c0-7.2-3-11-5.6-13c-3-2.2-6.6-3.4-10.4-3.4c-0.8,0-1.7,0.1-2.5,0.2l-0.2,0
				c-2.5,0.6-6.6,1.6-11.4,7.5l-0.1,0.2c-0.1,0.1-0.1,0.2-0.1,0.4c0,0.1,0,0.2,0.1,0.3l0.1,0.2c0.8,1.3,1.5,2.5,2,3.4
				c0.2,0.3,0.5,0.4,0.9,0.3c0.1,0,0.1-0.1,0.1-0.1c0,0,0.1-0.1,0.1-0.1c4.1-5.7,7.4-6.5,9.5-7l0.3-0.1c0.4-0.1,0.9-0.1,1.3-0.1
				c2.6,0,5.1,0.8,7.2,2.3c2.4,1.9,3.6,4.9,3.6,9c0,6.8-3.3,9.5-6.1,10.5c-1.1,0.4-2.2,0.6-3.4,0.6c-1.8,0-3.5-0.4-5.1-1.2L63,60.7
				c-2.4-1-6-3.2-9.3-10c-7-13.8-12.8-15.1-16.6-16h-0.2c-0.8-0.2-1.6-0.2-2.5-0.2c-3.7,0-7.3,1.1-10.2,3.4c-2.5,2-5.5,5.9-5.5,13
				c0,4.3,0.9,7.2,3.2,10.3c3,3.7,7.4,5.8,12.2,5.8c1.2,0,2.4-0.1,3.5-0.3c2.2-0.5,4.2-1.4,6-2.7L45.5,65.6z"/>
		</g>
		<g>
			<g>
				<path class="st0" d="M81.1,78.2c0,1.5,1.2,2.8,2.8,2.8s2.8-1.2,2.8-2.8c0-1.5-1.2-2.8-2.8-2.8l0,0
					C82.3,75.4,81.1,76.7,81.1,78.2z"/>
			</g>
			<g>
				<path class="st0" d="M87.1,82h-0.2h-6.1h-0.2c-1.9,0.2-3.4,1.8-3.4,3.7v7.7c0.1,0.6,0.6,1,1.2,1c0.5,0,0.9-0.5,1-1v-6.6
					c0-0.2,0.1-0.6,0.5-0.6s0.4,0.3,0.4,0.5v19.8c-0.1,0.9,0.6,1.6,1.4,1.7s1.6-0.6,1.7-1.4c0-0.1,0-0.2,0-0.2V95.2
					c0-0.2,0.2-0.4,0.4-0.4c0,0,0,0,0,0l0,0c0.2,0,0.4,0.2,0.4,0.4c0,0,0,0,0,0.1v11.4c0,0.9,0.7,1.5,1.6,1.5c0.9,0,1.5-0.7,1.5-1.5
					V86.8c0-0.2,0.1-0.5,0.4-0.5s0.5,0.3,0.5,0.6v6.6c0,0.6,0.5,1.1,1.1,1.1s1.1-0.5,1.1-1.1v-7.7C90.5,83.8,89,82.2,87.1,82z"/>
			</g>
			<g>
				<path class="st0" d="M57.9,79.7c0,1.4,1.2,2.6,2.6,2.6s2.6-1.2,2.6-2.6c0-1.4-1.2-2.6-2.6-2.6S57.9,78.2,57.9,79.7L57.9,79.7z"
					/>
			</g>
			<g>
				<path class="st0" d="M63.7,87.1c0.3-0.1,0.4,0.3,0.4,0.3l1.8,5.9c0,0,0.3,1.3,1.4,1s0.7-1.6,0.7-1.6l-2.2-7.1c0,0-0.8-2-2.5-2
					h-5.6c-1.7,0-2.5,2-2.5,2l-2.2,7.1c0,0-0.4,1.3,0.7,1.6s1.4-1,1.4-1l1.8-5.9c0,0,0.1-0.4,0.4-0.3s0.2,0.6,0.2,0.6l-3.1,11.1h2.8
					v8c0.1,0.8,0.7,1.3,1.5,1.2c0.7-0.1,1.2-0.6,1.2-1.2v-8h0.8v8c0.1,0.8,0.7,1.3,1.5,1.2c0.7-0.1,1.2-0.6,1.2-1.2v-8h2.9
					l-3.1-11.1C63.4,87.7,63.3,87.2,63.7,87.1z"/>
			</g>
			<g>
				<path class="st0" d="M42.2,79.6c0,1.5,1.2,2.6,2.6,2.6c1.5,0,2.6-1.2,2.6-2.6c0-1.4-1.2-2.6-2.6-2.6
					C43.4,77,42.2,78.2,42.2,79.6C42.2,79.6,42.2,79.6,42.2,79.6z"/>
			</g>
			<g>
				<path class="st0" d="M50.1,85.6c0,0-0.8-2.1-2.5-2.1H42c-1.7,0-2.5,2.1-2.5,2.1l-2.2,7.1c0,0-0.4,1.3,0.7,1.6s1.4-0.9,1.4-0.9
					l1.8-5.9c0,0,0.1-0.4,0.4-0.4s0.2,0.6,0.2,0.6l-3,11.1h2.8v7.9c-0.1,0.8,0.5,1.4,1.2,1.5c0.8,0.1,1.4-0.5,1.5-1.2
					c0-0.1,0-0.2,0-0.2v-7.9h0.8v7.9c-0.1,0.8,0.5,1.4,1.2,1.5c0.8,0.1,1.4-0.5,1.5-1.2c0-0.1,0-0.2,0-0.2v-7.9h2.8l-3.1-11.1
					c0,0-0.1-0.5,0.2-0.6s0.4,0.4,0.4,0.4l1.8,5.9c0,0,0.3,1.3,1.4,0.9s0.7-1.6,0.7-1.6L50.1,85.6z"/>
			</g>
			<g>
				<path class="st0" d="M19.6,81.3c1.5,0,2.7-1.2,2.7-2.8c0-1.5-1.2-2.7-2.8-2.7s-2.7,1.2-2.7,2.8c0,0,0,0,0,0
					C16.8,80.1,18,81.3,19.6,81.3C19.6,81.3,19.6,81.3,19.6,81.3z"/>
			</g>
			<g>
				<path class="st0" d="M22.8,82.3h-6.4C14.5,82.5,13,84.1,13,86v7.6c0,0.3,0.2,0.6,0.4,0.8L11,107.3c0,0.2,0.1,0.4,0.3,0.5h0.1
					c0.2,0,0.4-0.1,0.4-0.3l2.4-12.8c0.5-0.1,0.9-0.5,0.9-1v-6.6c0-0.2,0.1-0.6,0.5-0.6s0.4,0.3,0.4,0.5v19.6c0,0.8,0.7,1.5,1.5,1.5
					c0.8,0,1.5-0.7,1.5-1.5c0,0,0,0,0,0V95.3c0-0.2,0.2-0.4,0.4-0.4c0,0,0,0,0.1,0l0,0c0.2,0,0.4,0.1,0.4,0.4c0,0,0,0,0,0.1v11.3
					c0.1,0.8,0.8,1.5,1.7,1.4c0.8-0.1,1.4-0.7,1.4-1.4V87c0-0.2,0.1-0.5,0.4-0.5S24,86.8,24,87v6.5c0.1,0.6,0.6,1,1.2,1
					c0.5,0,0.9-0.5,1-1V86C26.1,84.1,24.7,82.5,22.8,82.3z"/>
			</g>
			<g>
				<path class="st0" d="M69.9,91.9c0,1.2,1,2.2,2.2,2.2s2.2-1,2.2-2.2c0-1.2-1-2.2-2.2-2.2C70.9,89.7,69.9,90.7,69.9,91.9
					L69.9,91.9z"/>
			</g>
			<g>
				<path class="st0" d="M76.7,98.5C75.3,95,75.1,95,73.9,95h-3.4c-1.2,0-1.4,0-2.8,3.5c-0.2,0.5-1,2.4-1,2.5s-0.3,0.8,0.4,1.1
					s0.9-0.6,0.9-0.6l1.4-3.4c0,0,0-0.1,0.1-0.1s0,0.1,0,0.1v8.8l0,0c0,0.6,0.5,1.2,1.1,1.2c0,0,0,0,0,0c0.6,0,1.1-0.5,1.1-1.2
					c0,0,0,0,0,0v-3.5c0,0,0-0.5,0.3-0.5s0.3,0.5,0.3,0.5v3.5c0,0.6,0.5,1.2,1.1,1.2c0,0,0,0,0,0c0.6,0,1.1-0.5,1.1-1.1
					c0,0,0,0,0-0.1l0,0v-8.8c0-0.1,0-0.1,0-0.1l0.1,0.1l1.2,3c0,0,0.4,0.8,1,0.5s0.3-1,0.3-1S76.8,99,76.7,98.5z"/>
			</g>
			<g>
				<path class="st0" d="M36.2,92.8c-0.4-0.2-0.9-0.1-1.1,0.4c0,0,0,0,0,0c-0.4,0.7-0.9,1.5-1.4,2.1c-0.2,0.2-0.4,0.3-0.7,0.3h-2.7
					c-0.3,0-0.5-0.1-0.7-0.3c-0.3-0.3-1.4-2.2-1.4-2.2c-0.1-0.2-0.4-0.4-0.7-0.4c-0.4,0-0.8,0.3-0.8,0.8c0,0,0,0,0,0
					c0,0.1,0,0.2,0.1,0.4l2.2,4c0.1,0.2,0.1,0.3,0.1,0.5V99l0,0c0,0.2,0,0.5-0.1,0.7l-1.1,4.2h1.2v3.1l0,0c-0.1,0.6,0.4,1.1,1,1.2
					s1.1-0.4,1.2-1c0-0.1,0-0.1,0-0.2v-3c0,0,0-0.1,0-0.1H32v3.1c-0.1,0.6,0.4,1.1,1,1.2s1.1-0.4,1.2-1c0-0.1,0-0.1,0-0.2v-3.1h1.2
					l-1-4.2c-0.1-0.2-0.1-0.4-0.1-0.6V99l0,0v-0.6c0-0.2,0.1-0.4,0.1-0.5l2-3.7l0.2-0.4C36.7,93.5,36.6,93,36.2,92.8
					C36.2,92.9,36.2,92.9,36.2,92.8z"/>
			</g>
			<g>
				<path class="st0" d="M31.7,94.3c1.2,0,2.2-1,2.2-2.2c0-1.2-1-2.2-2.2-2.2s-2.2,1-2.2,2.2c0,0,0,0,0,0
					C29.5,93.3,30.5,94.3,31.7,94.3C31.7,94.3,31.7,94.3,31.7,94.3z"/>
			</g>
		</g>
	</g>
	<g class="st2">
		<path class="st1" d="M77.8,6.8v10.2h-1.7V9.2h0l-1.2,1.2h0V8.6l1.6-1.8H77.8z"/>
		<path class="st1" d="M79.2,15.1c0-1,0.3-1.7,1.3-2.7l1-1C82,10.8,82,10.5,82,9.6V8.8C82,8.2,81.8,8,81.4,8c-0.4,0-0.7,0.2-0.7,0.8
			v1.3h-1.6V8.9c0-1.4,0.8-2.2,2.3-2.2c1.5,0,2.2,0.7,2.2,2.1v1c0,1-0.2,1.6-1.1,2.6l-1.1,1.2c-0.4,0.5-0.7,0.8-0.7,1.6v0.5h2.8v1.4
			h-4.4V15.1z"/>
	</g>
	<g class="st2">
	</g>
	<g class="st2">
		<path class="st1" d="M86.5,10.7c0.7,0,1.2,0.6,1.2,1.2c0,0.7-0.6,1.2-1.2,1.2c-0.7,0-1.2-0.6-1.2-1.2
			C85.2,11.2,85.8,10.7,86.5,10.7z"/>
	</g>
	<g class="st2">
		<path class="st1" d="M89.2,14.4v-1.1c0-1,0.3-1.7,1.1-2c-0.7-0.3-1-0.9-1-1.8V9.1c0-1.6,0.8-2.4,2.4-2.4c1.6,0,2.4,0.9,2.4,2.4
			v0.4c0,0.8-0.3,1.4-1,1.8c0.8,0.4,1.1,1.1,1.1,2v1.1c0,1.5-0.7,2.6-2.5,2.6C90,17.1,89.2,16,89.2,14.4z M92.6,14.6V13
			c0-0.6-0.2-1-0.8-1c-0.6,0-0.8,0.4-0.8,1v1.6c0,0.6,0.2,1,0.8,1C92.4,15.7,92.6,15.2,92.6,14.6z M92.6,9.7V9c0-0.6-0.2-1-0.8-1
			C91.2,8,91,8.4,91,9v0.7c0,0.6,0.2,1,0.8,1C92.4,10.7,92.6,10.3,92.6,9.7z"/>
	</g>
</g>
</svg>
