<?xml version="1.0" encoding="utf-8"?>
<!-- Generator: Adobe Illustrator 22.0.1, SVG Export Plug-In . SVG Version: 6.00 Build 0)  -->
<svg version="1.1" id="Layer_1" xmlns="http://www.w3.org/2000/svg" xmlns:xlink="http://www.w3.org/1999/xlink" x="0px" y="0px"
	 viewBox="0 0 101.5 193.2" style="enable-background:new 0 0 101.5 193.2;" xml:space="preserve">
<style type="text/css">
	.st0{fill:#FFFFFF;}
	.st1{fill:#BF8B2E;}
	.st2{enable-background:new    ;}
</style>
<title>TARGET 1 B copy 8</title>
<g id="WHITE_BG">
	<g>
		<rect y="0" class="st0" width="101.5" height="193.2"/>
	</g>
</g>
<g id="TARGETS">
	<g>
		<g>
			<path class="st1" d="M11.1,130.3c0,1.2-0.7,2-2.4,2c-0.6,0-1.3-0.1-1.9-0.4V131c0.6,0.3,1.2,0.4,1.8,0.4c1.1,0,1.5-0.5,1.5-1.1
				s-0.3-0.9-1.2-1c-1.6-0.2-2.2-0.6-2.2-1.8c0-0.9,0.5-1.8,2.3-1.8c0.6,0,1.2,0.1,1.7,0.3v1c-0.5-0.2-1.1-0.3-1.7-0.3
				c-1,0-1.3,0.4-1.3,1c0,0.7,0.4,0.8,1.2,0.9C10.3,128.7,11.1,129,11.1,130.3z"/>
		</g>
		<g>
			<path class="st1" d="M11.7,130.2v-4.4h1v4.3c-0.1,0.7,0.4,1.3,1.1,1.3c0.1,0,0.2,0,0.3,0c0.6,0.1,1.3-0.3,1.4-1
				c0-0.1,0-0.2,0-0.3v-4.3h0.9v4.4c0,1.1-0.8,2.1-2,2.1c-0.1,0-0.2,0-0.3,0c-1.1,0.1-2.2-0.7-2.3-1.8
				C11.7,130.4,11.7,130.3,11.7,130.2z"/>
		</g>
		<g>
			<path class="st1" d="M18.2,132.2h-1v-6.4h2c1.6,0,2.2,1,2.2,2c0,1-0.6,2-2.2,2h-1V132.2z M18.2,128.9h1.1c0.6,0.1,1.2-0.4,1.2-1
				s-0.4-1.2-1-1.2c-0.1,0-0.1,0-0.2,0h-1.1V128.9z"/>
		</g>
		<g>
			<path class="st1" d="M23,132.2h-1v-6.4h2c1.6,0,2.2,1,2.2,2c0,1-0.6,2-2.2,2H23V132.2z M23,129h1.1c0.6,0.1,1.2-0.4,1.2-1
				s-0.4-1.2-1-1.2c-0.1,0-0.1,0-0.2,0H23V129z"/>
		</g>
		<g>
			<path class="st1" d="M26.7,129c0-1.8,0.4-3.3,2.5-3.3s2.5,1.5,2.5,3.3s-0.4,3.3-2.5,3.3S26.7,130.8,26.7,129z M27.7,129
				c0,1.5,0.3,2.4,1.5,2.4s1.5-0.9,1.5-2.4s-0.3-2.4-1.5-2.4S27.7,127.5,27.7,129L27.7,129z"/>
		</g>
		<g>
			<path class="st1" d="M33.3,132.2h-1v-6.4h2.1c1.7,0,2.2,0.7,2.2,1.9c0.1,0.7-0.3,1.4-1,1.7l1.3,2.8h-1.1l-1.2-2.6h-1.3V132.2z
				 M33.3,128.7h1.2c0.9,0,1-0.5,1-1s-0.1-1-1-1h-1.2V128.7z"/>
		</g>
		<g>
			<path class="st1" d="M39.4,126.7v5.5h-1v-5.5h-1.7v-0.9h4.3v0.9H39.4z"/>
		</g>
		<g>
			<path class="st1" d="M42.8,132.2v-6.4h1.9c2.1,0,2.7,1.4,2.7,3.2s-0.6,3.2-2.7,3.2L42.8,132.2z M43.8,131.3h1
				c1.3,0,1.7-0.9,1.7-2.3s-0.4-2.3-1.7-2.3h-1V131.3z"/>
		</g>
		<g>
			<path class="st1" d="M51.7,129.3h-2.7v2H52v0.9h-3.9v-6.4H52v0.9h-2.9v1.8h2.7V129.3z"/>
		</g>
		<g>
			<path class="st1" d="M57.4,125.8l-2,6.4h-1l-2-6.4h1l1.5,5.2l1.5-5.2L57.4,125.8z"/>
		</g>
		<g>
			<path class="st1" d="M61.6,129.3h-2.7v2h2.9v0.9H58v-6.4h3.9v0.9h-3v1.8h2.7V129.3z"/>
		</g>
		<g>
			<path class="st1" d="M63.6,131.3h2.8v0.9h-3.7v-6.4h1L63.6,131.3z"/>
		</g>
		<g>
			<path class="st1" d="M66.4,129c0-1.8,0.4-3.3,2.4-3.3s2.5,1.5,2.5,3.3s-0.4,3.3-2.5,3.3S66.4,130.8,66.4,129z M67.4,129
				c0,1.5,0.3,2.4,1.5,2.4s1.5-0.9,1.5-2.4s-0.3-2.4-1.5-2.4S67.4,127.5,67.4,129L67.4,129z"/>
		</g>
		<g>
			<path class="st1" d="M73.1,132.2h-1v-6.4h2c1.6,0,2.2,1,2.2,2c0,1-0.6,2-2.2,2H73L73.1,132.2z M73.1,128.9h1.1
				c0.6,0.1,1.2-0.4,1.2-1c0.1-0.6-0.4-1.2-1-1.2c-0.1,0-0.1,0-0.2,0h-1.1V128.9z"/>
		</g>
		<g>
			<path class="st1" d="M77.2,132.2v-6.4h1v6.4H77.2z"/>
		</g>
		<g>
			<path class="st1" d="M82.9,132.2l-2.8-4.5v4.5h-0.9v-6.4h0.9l2.8,4.5v-4.5h0.9v6.4H82.9z"/>
		</g>
		<g>
			<path class="st1" d="M84.6,129c0-2,0.7-3.3,2.6-3.3c0.6,0,1.3,0.1,1.8,0.3v1c-0.5-0.2-1.1-0.4-1.7-0.4c-1.3,0-1.8,0.9-1.8,2.4
				s0.5,2.4,1.8,2.4c0.3,0,0.6,0,0.9-0.1v-1.7h-1.1v-0.9h2.1v3.2c-0.6,0.3-1.3,0.4-2,0.4C85.3,132.3,84.6,131,84.6,129z"/>
		</g>
		<g>
			<path class="st1" d="M9.4,134.7c0.5,0,1,0.1,1.5,0.3v0.9c-0.5-0.2-0.9-0.3-1.4-0.3c-1.2,0-1.7,0.8-1.7,2.4s0.5,2.4,1.7,2.4
				c0.5,0,1-0.1,1.4-0.3v0.9c-0.5,0.2-1,0.3-1.5,0.3c-1.9,0-2.6-1.2-2.6-3.3S7.5,134.7,9.4,134.7z"/>
		</g>
		<g>
			<path class="st1" d="M11.5,138c0-1.8,0.4-3.3,2.4-3.3s2.5,1.5,2.5,3.3s-0.5,3.3-2.5,3.3S11.5,139.8,11.5,138z M12.5,138
				c0,1.5,0.3,2.4,1.5,2.4s1.5-0.9,1.5-2.4s-0.3-2.4-1.5-2.4S12.5,136.5,12.5,138L12.5,138z"/>
		</g>
		<g>
			<path class="st1" d="M17.1,139.2v-4.4h1v4.3c-0.1,0.7,0.4,1.2,1,1.3c0.1,0,0.2,0,0.3,0c0.6,0.1,1.3-0.3,1.4-1c0-0.1,0-0.2,0-0.3
				v-4.3h1v4.4c0,1.1-0.8,2.1-2,2.1c-0.1,0-0.2,0-0.3,0c-1.1,0.2-2.2-0.6-2.3-1.7C17.2,139.5,17.1,139.3,17.1,139.2z"/>
		</g>
		<g>
			<path class="st1" d="M26.4,141.2l-2.8-4.5v4.5h-1v-6.4h0.9l2.8,4.5v-4.5h1v6.4H26.4z"/>
		</g>
		<g>
			<path class="st1" d="M30.5,135.7v5.5h-1v-5.5h-1.6v-0.9h4.3v0.9H30.5z"/>
		</g>
		<g>
			<path class="st1" d="M33.7,141.2h-1v-6.4h2.1c1.7,0,2.2,0.7,2.2,1.9c0.1,0.7-0.3,1.4-1,1.7l1.3,2.8h-1.1l-1.1-2.6h-1.3V141.2z
				 M33.7,137.7h1.2c0.9,0,1-0.5,1-1s-0.1-1-1-1h-1.2V137.7z"/>
		</g>
		<g>
			<path class="st1" d="M38,141.2v-6.4h1v6.4H38z"/>
		</g>
		<g>
			<path class="st1" d="M43.7,138.3H41v2h3v0.9h-3.9v-6.4H44v0.9h-3v1.8h2.7L43.7,138.3z"/>
		</g>
		<g>
			<path class="st1" d="M49,139.3c0,1.2-0.7,2-2.4,2c-0.6,0-1.3-0.1-1.9-0.4V140c0.6,0.3,1.2,0.4,1.8,0.4c1.2,0,1.5-0.5,1.5-1.1
				s-0.3-0.9-1.2-1c-1.5-0.2-2.2-0.6-2.2-1.8c0-0.9,0.5-1.8,2.3-1.8c0.6,0,1.2,0.1,1.7,0.3v1c-0.5-0.2-1.1-0.3-1.7-0.3
				c-1,0-1.3,0.4-1.3,1s0.4,0.8,1.2,0.9C48.2,137.7,49,138,49,139.3z"/>
		</g>
		<g>
			<path class="st1" d="M49.3,137l0.2-2.1h1.1l-0.8,2.1H49.3z"/>
		</g>
		<g>
			<path class="st1" d="M56.5,139.3c0,1.2-0.7,2-2.4,2c-0.6,0-1.3-0.1-1.9-0.4V140c0.6,0.3,1.2,0.4,1.8,0.4c1.2,0,1.5-0.5,1.5-1.1
				s-0.3-0.9-1.2-1c-1.5-0.2-2.2-0.6-2.2-1.8c0-0.9,0.5-1.8,2.3-1.8c0.6,0,1.2,0.1,1.7,0.3v1c-0.5-0.2-1.1-0.3-1.7-0.3
				c-1,0-1.3,0.4-1.3,1s0.4,0.8,1.2,0.9C55.7,137.7,56.5,138,56.5,139.3z"/>
		</g>
		<g>
			<path class="st1" d="M59.7,134.7c0.5,0,1,0.1,1.5,0.3v0.9c-0.4-0.2-0.9-0.3-1.4-0.3c-1.2,0-1.7,0.8-1.7,2.4s0.5,2.4,1.7,2.4
				c0.5,0,1-0.1,1.4-0.3v0.9c-0.5,0.2-1,0.3-1.5,0.3c-1.9,0-2.6-1.2-2.6-3.3S57.8,134.7,59.7,134.7z"/>
		</g>
		<g>
			<path class="st1" d="M62.1,141.2v-6.4h1v6.4H62.1z"/>
		</g>
		<g>
			<path class="st1" d="M67.7,138.3h-2.7v2H68v0.9h-3.9v-6.4H68v0.9h-2.9v1.8h2.7V138.3z"/>
		</g>
		<g>
			<path class="st1" d="M72.5,141.2l-2.8-4.5v4.5h-0.9v-6.4h0.9l2.8,4.5v-4.5h0.9v6.4H72.5z"/>
		</g>
		<g>
			<path class="st1" d="M76.7,135.7v5.5h-1v-5.5h-1.6v-0.9h4.3v0.9H76.7z"/>
		</g>
		<g>
			<path class="st1" d="M79,141.2v-6.4h1v6.4H79z"/>
		</g>
		<g>
			<path class="st1" d="M84.6,138.4H82v2.8h-1v-6.4h3.8v0.9H82v1.8h2.6L84.6,138.4z"/>
		</g>
		<g>
			<path class="st1" d="M85.7,141.2v-6.4h1v6.4H85.7z"/>
		</g>
		<g>
			<path class="st1" d="M90.2,134.7c0.5,0,1,0.1,1.5,0.3v0.9c-0.5-0.2-0.9-0.3-1.4-0.3c-1.2,0-1.7,0.8-1.7,2.4s0.5,2.4,1.7,2.4
				c0.5,0,1-0.1,1.4-0.3v0.9c-0.5,0.2-1,0.3-1.5,0.3c-1.9,0-2.6-1.2-2.6-3.3S88.3,134.7,90.2,134.7z"/>
		</g>
		<g>
			<path class="st1" d="M10.1,148.6h-2l-0.4,1.6h-1l2-6.4h1l2,6.4h-1L10.1,148.6z M9.1,145l-0.8,2.8h1.6L9.1,145z"/>
		</g>
		<g>
			<path class="st1" d="M15.8,150.2l-2.8-4.5v4.5h-0.9v-6.4H13l2.8,4.5v-4.5h0.9v6.4H15.8z"/>
		</g>
		<g>
			<path class="st1" d="M17.6,150.2v-6.4h1.9c2.1,0,2.7,1.4,2.7,3.2s-0.6,3.2-2.7,3.2H17.6z M18.6,149.3h1c1.3,0,1.7-0.9,1.7-2.3
				s-0.4-2.3-1.7-2.3h-1V149.3z"/>
		</g>
		<g>
			<path class="st1" d="M26.5,144.7v5.5h-1v-5.5h-1.7v-0.9h4.3v0.9H26.5z"/>
		</g>
		<g>
			<path class="st1" d="M32.4,147.3h-2.6v2h2.9v0.9h-3.9v-6.4h3.9v0.9h-2.9v1.8h2.6V147.3z"/>
		</g>
		<g>
			<path class="st1" d="M35.9,143.7c0.5,0,1,0.1,1.5,0.3v0.9c-0.5-0.2-0.9-0.3-1.4-0.3c-1.2,0-1.7,0.8-1.7,2.4s0.5,2.4,1.7,2.4
				c0.5,0,1-0.1,1.4-0.3v0.9c-0.5,0.2-1,0.3-1.5,0.3c-1.9,0-2.6-1.2-2.6-3.3S34.1,143.7,35.9,143.7z"/>
		</g>
		<g>
			<path class="st1" d="M41.8,150.2v-2.9h-2.6v2.9h-1v-6.4h1v2.6h2.6v-2.6h1v6.4H41.8z"/>
		</g>
		<g>
			<path class="st1" d="M47.4,150.2l-2.8-4.5v4.5h-0.9v-6.4h0.9l2.8,4.5v-4.5h0.9v6.4H47.4z"/>
		</g>
		<g>
			<path class="st1" d="M49.2,147c0-1.8,0.4-3.3,2.5-3.3s2.5,1.5,2.5,3.3s-0.4,3.3-2.5,3.3S49.2,148.8,49.2,147z M50.2,147
				c0,1.5,0.3,2.4,1.5,2.4s1.5-0.9,1.5-2.4s-0.3-2.4-1.5-2.4S50.2,145.5,50.2,147L50.2,147z"/>
		</g>
		<g>
			<path class="st1" d="M55.8,149.3h2.8v0.9h-3.7v-6.4h1L55.8,149.3z"/>
		</g>
		<g>
			<path class="st1" d="M58.5,147c0-1.8,0.4-3.3,2.5-3.3s2.5,1.5,2.5,3.3s-0.4,3.3-2.5,3.3S58.5,148.8,58.5,147z M59.5,147
				c0,1.5,0.3,2.4,1.5,2.4s1.5-0.9,1.5-2.4s-0.3-2.4-1.5-2.4S59.5,145.5,59.5,147L59.5,147z"/>
		</g>
		<g>
			<path class="st1" d="M64.1,147c0-2,0.7-3.3,2.6-3.3c0.6,0,1.3,0.1,1.8,0.3v1c-0.5-0.2-1.1-0.4-1.7-0.4c-1.3,0-1.8,0.9-1.8,2.4
				s0.5,2.4,1.8,2.4c0.3,0,0.6,0,0.9-0.1v-1.7h-1.1v-0.9h2.1v3.2c-0.6,0.3-1.3,0.4-2,0.4C64.8,150.3,64.1,149,64.1,147z"/>
		</g>
		<g>
			<path class="st1" d="M69.8,150.2v-6.4h0.9v6.4H69.8z"/>
		</g>
		<g>
			<path class="st1" d="M74.4,143.7c0.5,0,1,0.1,1.5,0.3v0.9c-0.5-0.2-0.9-0.3-1.4-0.3c-1.2,0-1.7,0.8-1.7,2.4s0.5,2.4,1.7,2.4
				c0.5,0,1-0.1,1.4-0.3v0.9c-0.5,0.2-1,0.3-1.5,0.3c-1.9,0-2.6-1.2-2.6-3.3S72.5,143.7,74.4,143.7z"/>
		</g>
		<g>
			<path class="st1" d="M79.7,148.6h-2l-0.4,1.6h-1l2-6.4h1l2,6.4h-1L79.7,148.6z M78.7,145l-0.8,2.8h1.6L78.7,145z"/>
		</g>
		<g>
			<path class="st1" d="M82.7,149.3h2.8v0.9h-3.7v-6.4h1L82.7,149.3z"/>
		</g>
		<g>
			<path class="st1" d="M9.4,152.7c0.5,0,1,0.1,1.5,0.3v0.9c-0.5-0.2-0.9-0.3-1.4-0.3c-1.2,0-1.7,0.8-1.7,2.4s0.5,2.4,1.7,2.4
				c0.5,0,1-0.1,1.4-0.3v0.9c-0.5,0.2-1,0.3-1.5,0.3c-1.9,0-2.6-1.2-2.6-3.3S7.5,152.7,9.4,152.7z"/>
		</g>
		<g>
			<path class="st1" d="M14.8,157.6h-2l-0.4,1.6h-1l2-6.4h1l2,6.4h-1L14.8,157.6z M13.8,154l-0.8,2.8h1.6L13.8,154z"/>
		</g>
		<g>
			<path class="st1" d="M17.8,159.2h-1v-6.4h2c1.6,0,2.2,0.9,2.2,2s-0.6,2-2.2,2h-1.1L17.8,159.2z M17.8,155.9h1.1
				c0.6,0.1,1.2-0.4,1.2-1s-0.4-1.2-1-1.2c-0.1,0-0.1,0-0.2,0h-1.1V155.9z"/>
		</g>
		<g>
			<path class="st1" d="M24.2,157.6h-2l-0.5,1.6h-1l2-6.4h1l2,6.4h-1L24.2,157.6z M23.2,154l-0.8,2.8H24L23.2,154z"/>
		</g>
		<g>
			<path class="st1" d="M28.6,152.7c0.5,0,1,0.1,1.5,0.3v0.9c-0.5-0.2-0.9-0.3-1.4-0.3c-1.2,0-1.7,0.8-1.7,2.4s0.5,2.4,1.7,2.4
				c0.5,0,1-0.1,1.4-0.3v0.9c-0.5,0.2-1,0.3-1.5,0.3c-1.9,0-2.6-1.2-2.6-3.3S26.7,152.7,28.6,152.7z"/>
		</g>
		<g>
			<path class="st1" d="M31,159.2v-6.4h1v6.4H31z"/>
		</g>
		<g>
			<path class="st1" d="M35.3,153.7v5.5h-1v-5.5h-1.6v-0.9H37v0.9H35.3z"/>
		</g>
		<g>
			<path class="st1" d="M40.3,156.6v2.6h-1v-2.6l-2.2-3.8h1.1l1.6,3l1.6-3h1.1L40.3,156.6z"/>
		</g>
		<g>
			<path class="st1" d="M47.9,156.4h-2.6v2.8h-1v-6.4h3.8v0.9h-2.9v1.8h2.6V156.4z"/>
		</g>
		<g>
			<path class="st1" d="M48.7,156c0-1.8,0.4-3.3,2.5-3.3s2.5,1.5,2.5,3.3s-0.4,3.3-2.5,3.3S48.7,157.8,48.7,156z M49.7,156
				c0,1.5,0.3,2.4,1.5,2.4s1.5-0.9,1.5-2.4s-0.3-2.4-1.5-2.4S49.6,154.5,49.7,156L49.7,156z"/>
		</g>
		<g>
			<path class="st1" d="M55.3,159.2h-1v-6.4h2.1c1.7,0,2.2,0.7,2.2,1.9c0.1,0.7-0.3,1.4-1,1.7l1.3,2.8h-1.1l-1.2-2.6h-1.3V159.2z
				 M55.3,155.7h1.3c0.9,0,1-0.5,1-1s-0.1-1-1-1h-1.3V155.7z"/>
		</g>
		<g>
			<path class="st1" d="M11.1,166.3c0,1.2-0.7,2-2.4,2c-0.6,0-1.3-0.1-1.9-0.4V167c0.6,0.3,1.2,0.4,1.8,0.4c1.1,0,1.5-0.5,1.5-1.1
				s-0.3-0.9-1.2-1c-1.6-0.2-2.2-0.6-2.2-1.8c0-0.9,0.5-1.8,2.3-1.8c0.6,0,1.2,0.1,1.7,0.3v1c-0.5-0.2-1.1-0.3-1.7-0.3
				c-1,0-1.3,0.4-1.3,1s0.4,0.8,1.2,0.9C10.3,164.7,11.1,165,11.1,166.3z"/>
		</g>
		<g>
			<path class="st1" d="M11.7,166.2v-4.4h1v4.3c-0.1,0.7,0.4,1.3,1.1,1.3c0.1,0,0.2,0,0.3,0c0.6,0.1,1.3-0.3,1.4-1
				c0-0.1,0-0.2,0-0.3v-4.3h0.9v4.4c0.1,1.1-0.8,2.1-1.9,2.1c-0.1,0-0.3,0-0.4,0c-1.1,0.2-2.1-0.6-2.3-1.7
				C11.7,166.5,11.7,166.3,11.7,166.2z"/>
		</g>
		<g>
			<path class="st1" d="M21.3,166.3c0,1.2-0.7,2-2.4,2c-0.6,0-1.3-0.1-1.9-0.4V167c0.6,0.3,1.2,0.4,1.8,0.4c1.1,0,1.5-0.5,1.5-1.1
				s-0.3-0.9-1.2-1c-1.5-0.2-2.2-0.6-2.2-1.8c0-0.9,0.5-1.8,2.3-1.8c0.6,0,1.2,0.1,1.8,0.3v1c-0.5-0.2-1.1-0.3-1.7-0.3
				c-1,0-1.3,0.4-1.3,1s0.4,0.8,1.2,0.9C20.5,164.7,21.3,165,21.3,166.3z"/>
		</g>
		<g>
			<path class="st1" d="M24,162.7v5.5h-1v-5.5h-1.6v-0.9h4.3v0.9H24z"/>
		</g>
		<g>
			<path class="st1" d="M28.7,166.6h-2l-0.5,1.6h-1l2-6.4h1l2,6.4h-1L28.7,166.6z M27.7,163l-0.8,2.8h1.6L27.7,163z"/>
		</g>
		<g>
			<path class="st1" d="M30.9,168.2v-6.4h1v6.4H30.9z"/>
		</g>
		<g>
			<path class="st1" d="M36.6,168.2l-2.8-4.5v4.5h-0.9v-6.4h0.9l2.8,4.5v-4.5h0.9v6.4H36.6z"/>
		</g>
		<g>
			<path class="st1" d="M41.5,166.6h-2l-0.5,1.6h-1l2-6.4h1l2,6.4h-1L41.5,166.6z M40.5,163l-0.8,2.8h1.6L40.5,163z"/>
		</g>
		<g>
			<path class="st1" d="M43.5,161.8h2.2c1.5,0,2,0.8,2,1.7c0,0.5-0.3,1-0.8,1.3c0.6,0.2,1.1,0.8,1,1.5c0,1.1-0.5,1.9-2.2,1.9h-2.2
				L43.5,161.8z M45.7,162.7h-1.2v1.8h1.2c0.8,0,1-0.5,1-0.9S46.5,162.7,45.7,162.7z M44.5,167.3h1.3c0.9,0,1.1-0.5,1.1-1
				s-0.3-1-1.1-1h-1.3L44.5,167.3z"/>
		</g>
		<g>
			<path class="st1" d="M49.6,167.3h2.8v0.9h-3.7v-6.4h1L49.6,167.3z"/>
		</g>
		<g>
			<path class="st1" d="M56.5,165.3h-2.6v2h2.9v0.9h-3.9v-6.4h3.9v0.9h-2.9v1.8h2.7L56.5,165.3z"/>
		</g>
		<g>
			<path class="st1" d="M9.4,170.7c0.5,0,1,0.1,1.5,0.3v0.9c-0.5-0.2-0.9-0.3-1.4-0.3c-1.2,0-1.7,0.8-1.7,2.4s0.5,2.4,1.7,2.4
				c0.5,0,1-0.1,1.4-0.3v0.9c-0.5,0.2-1,0.3-1.5,0.3c-1.9,0-2.6-1.2-2.6-3.3S7.5,170.7,9.4,170.7z"/>
		</g>
		<g>
			<path class="st1" d="M11.6,174c0-1.8,0.4-3.3,2.5-3.3s2.4,1.5,2.4,3.3s-0.4,3.3-2.4,3.3S11.6,175.8,11.6,174z M12.6,174
				c0,1.5,0.3,2.4,1.5,2.4s1.5-0.9,1.5-2.4s-0.3-2.4-1.5-2.4S12.6,172.5,12.6,174L12.6,174z"/>
		</g>
		<g>
			<path class="st1" d="M20.9,177.2l-2.8-4.5v4.5h-1v-6.4h0.9l2.8,4.5v-4.5h0.9v6.4H20.9z"/>
		</g>
		<g>
			<path class="st1" d="M26.9,175.3c0,1.2-0.7,2-2.4,2c-0.6,0-1.3-0.1-1.9-0.4V176c0.6,0.3,1.2,0.4,1.8,0.4c1.1,0,1.5-0.5,1.5-1.1
				s-0.3-0.9-1.2-1c-1.5-0.2-2.1-0.6-2.1-1.8c0-0.9,0.5-1.8,2.3-1.8c0.6,0,1.2,0.1,1.7,0.3v1c-0.5-0.2-1.1-0.3-1.7-0.3
				c-1,0-1.3,0.4-1.3,1s0.4,0.8,1.2,0.9C26.1,173.7,26.9,174,26.9,175.3z"/>
		</g>
		<g>
			<path class="st1" d="M27.5,175.2v-4.4h1v4.3c-0.1,0.7,0.4,1.2,1,1.3c0.1,0,0.2,0,0.3,0c0.7,0.1,1.3-0.4,1.4-1c0-0.1,0-0.2,0-0.3
				v-4.3h1v4.4c0.1,1.1-0.8,2.1-1.9,2.1c-0.1,0-0.3,0-0.4,0c-1.1,0.2-2.2-0.5-2.4-1.7C27.5,175.5,27.5,175.3,27.5,175.2z"/>
		</g>
		<g>
			<path class="st1" d="M36.5,176.3h-0.9l-1.6-3.9v4.8h-1v-6.4h1.3l1.7,4.3l1.7-4.3H39v6.4h-1v-4.8L36.5,176.3z"/>
		</g>
		<g>
			<path class="st1" d="M40.9,177.2h-1v-6.4h2c1.6,0,2.2,0.9,2.2,2s-0.6,2-2.2,2h-1.1L40.9,177.2z M40.9,173.9H42
				c0.6,0.1,1.2-0.4,1.2-1s-0.4-1.2-1-1.2c-0.1,0-0.1,0-0.2,0h-1.1V173.9z"/>
		</g>
		<g>
			<path class="st1" d="M47,171.7v5.5h-1v-5.5h-1.6v-0.9h4.3v0.9H47z"/>
		</g>
		<g>
			<path class="st1" d="M49.3,177.2v-6.4h1v6.4H49.3z"/>
		</g>
		<g>
			<path class="st1" d="M51.2,174c0-1.8,0.4-3.3,2.5-3.3s2.5,1.5,2.5,3.3s-0.4,3.3-2.5,3.3S51.2,175.8,51.2,174z M52.2,174
				c0,1.5,0.3,2.4,1.5,2.4s1.5-0.9,1.5-2.4s-0.3-2.4-1.5-2.4S52.2,172.5,52.2,174L52.2,174z"/>
		</g>
		<g>
			<path class="st1" d="M60.6,177.2l-2.8-4.5v4.5h-1v-6.4h0.9l2.8,4.5v-4.5h1v6.4H60.6z"/>
		</g>
		<g>
			<path class="st1" d="M67,175.6h-2l-0.4,1.6h-1l2-6.4h1l2,6.4h-1L67,175.6z M66,172l-0.8,2.8h1.6L66,172z"/>
		</g>
		<g>
			<path class="st1" d="M72.7,177.2l-2.8-4.5v4.5H69v-6.4h0.9l2.8,4.5v-4.5h0.9v6.4H72.7z"/>
		</g>
		<g>
			<path class="st1" d="M74.5,177.2v-6.4h1.9c2.1,0,2.7,1.4,2.7,3.2s-0.6,3.2-2.7,3.2H74.5z M75.5,176.3h1c1.3,0,1.7-0.9,1.7-2.3
				s-0.4-2.3-1.7-2.3h-1V176.3z"/>
		</g>
		<g>
			<path class="st1" d="M7.8,186.2h-1v-6.4h2.1c1.6,0,2.2,0.9,2.2,2s-0.6,2-2.2,2H7.8V186.2z M7.8,182.9H9c0.6,0.1,1.2-0.4,1.2-1
				c0.1-0.6-0.4-1.2-1-1.2c-0.1,0-0.1,0-0.2,0H7.8V182.9z"/>
		</g>
		<g>
			<path class="st1" d="M12.7,186.2h-1v-6.4h2.1c1.6,0,2.2,0.7,2.2,1.9c0.1,0.7-0.3,1.4-1,1.7l1.3,2.8h-1.1l-1.2-2.6h-1.3V186.2z
				 M12.7,182.7h1.2c0.9,0,1-0.5,1-1s-0.1-1-1-1h-1.2V182.7z"/>
		</g>
		<g>
			<path class="st1" d="M16.7,183c0-1.8,0.4-3.3,2.5-3.3s2.5,1.5,2.5,3.3s-0.4,3.3-2.5,3.3S16.7,184.8,16.7,183z M17.7,183
				c0,1.5,0.3,2.4,1.5,2.4s1.5-0.9,1.5-2.4s-0.3-2.4-1.5-2.4S17.7,181.5,17.7,183L17.7,183z"/>
		</g>
		<g>
			<path class="st1" d="M22.4,186.2v-6.4h1.9c2.1,0,2.7,1.4,2.7,3.2s-0.6,3.2-2.7,3.2H22.4z M23.3,185.3h1c1.3,0,1.7-0.9,1.7-2.3
				s-0.4-2.3-1.7-2.3h-1V185.3z"/>
		</g>
		<g>
			<path class="st1" d="M27.8,184.2v-4.4h1v4.3c-0.1,0.7,0.4,1.2,1,1.3c0.1,0,0.2,0,0.3,0c0.7,0.1,1.3-0.4,1.4-1c0-0.1,0-0.2,0-0.3
				v-4.3h1v4.4c0.1,1.1-0.8,2.1-1.9,2.1c-0.1,0-0.3,0-0.4,0c-1.1,0.2-2.1-0.6-2.3-1.7C27.8,184.5,27.8,184.3,27.8,184.2z"/>
		</g>
		<g>
			<path class="st1" d="M35.7,179.7c0.5,0,1,0.1,1.5,0.3v0.9c-0.5-0.2-0.9-0.3-1.4-0.3c-1.2,0-1.7,0.8-1.7,2.4s0.5,2.4,1.7,2.4
				c0.5,0,1-0.1,1.4-0.3v0.9c-0.5,0.2-1,0.3-1.5,0.3c-1.9,0-2.6-1.2-2.6-3.3S33.8,179.7,35.7,179.7z"/>
		</g>
		<g>
			<path class="st1" d="M40.1,180.7v5.5h-1v-5.5h-1.6v-0.9h4.3v0.9H40.1z"/>
		</g>
		<g>
			<path class="st1" d="M42.5,186.2v-6.4h1v6.4H42.5z"/>
		</g>
		<g>
			<path class="st1" d="M44.4,183c0-1.8,0.4-3.3,2.5-3.3s2.5,1.5,2.5,3.3s-0.4,3.3-2.5,3.3S44.4,184.8,44.4,183z M45.4,183
				c0,1.5,0.3,2.4,1.5,2.4s1.5-0.9,1.5-2.4s-0.3-2.4-1.5-2.4S45.4,181.5,45.4,183L45.4,183z"/>
		</g>
		<g>
			<path class="st1" d="M53.8,186.2l-2.8-4.5v4.5h-0.9v-6.4h0.9l2.8,4.5v-4.5h0.9v6.4H53.8z"/>
		</g>
	</g>
	<g>
		<rect x="3.3" y="24" class="st1" width="94.8" height="94.8"/>
	</g>
	<g>
		<path class="st1" d="M98.2,20.7H3.3V3.3h94.8V20.7z M4.3,19.7h92.8V4.3H4.3L4.3,19.7z"/>
	</g>
	<g class="st2">
		<path class="st1" d="M6.7,6.9h4.5v1.4H9.9v8.8H8.1V8.3H6.7V6.9z"/>
	</g>
	<g class="st2">
		<path class="st1" d="M11.2,17.1l1.9-10.2h1.9L17,17.1h-1.8l-0.3-1.9h-1.8l-0.3,1.9H11.2z M13.3,13.9h1.4L14,9.8h0L13.3,13.9z"/>
	</g>
	<g class="st2">
		<path class="st1" d="M19.6,12.4v4.7h-1.7V6.9h2.5c1.7,0,2.4,0.9,2.4,2.3v1.3c0,1.1-0.4,1.7-1.4,2l1.6,4.6h-1.8L19.6,12.4z
			 M19.6,8.3v3.2h0.6c0.6,0,0.8-0.3,0.8-0.8V9.2c0-0.6-0.3-0.8-0.8-0.8H19.6z"/>
	</g>
	<g class="st2">
		<path class="st1" d="M26.4,11.7h2.4v5.4h-1.2V16c-0.2,0.8-0.7,1.2-1.6,1.2c-1.5,0-2.1-1.2-2.1-2.7V9.6c0-1.6,0.8-2.7,2.6-2.7
			c1.9,0,2.4,1.1,2.4,2.6v0.9h-1.6v-1c0-0.6-0.2-1-0.9-1c-0.6,0-0.9,0.4-0.9,1v5.5c0,0.6,0.3,1,0.8,1c0.6,0,0.8-0.3,0.8-1V13h-0.8
			V11.7z"/>
	</g>
	<g class="st2">
		<path class="st1" d="M30.2,6.9h4.1v1.4h-2.4v2.9h1.7v1.4h-1.7v3.1h2.4v1.4h-4.1V6.9z"/>
	</g>
	<g class="st2">
		<path class="st1" d="M35.1,6.9h4.5v1.4h-1.4v8.8h-1.7V8.3h-1.4V6.9z"/>
	</g>
	<g class="st2">
		<path class="st1" d="M88.8,17.1l1.9-10.2h1.9l1.9,10.2h-1.8l-0.3-1.9h-1.8l-0.3,1.9H88.8z M90.9,13.9h1.4l-0.7-4.1h0L90.9,13.9z"
			/>
	</g>
	<g class="st2">
		<path class="st1" d="M77.3,6.9v10.2h-1.7V9.3h0l-1.2,1.2h0V8.8L76,6.9H77.3z"/>
		<path class="st1" d="M78.7,15.2c0-1,0.3-1.7,1.3-2.7l1-1c0.6-0.6,0.6-0.9,0.6-1.8V8.9c0-0.6-0.3-0.8-0.6-0.8
			c-0.4,0-0.7,0.2-0.7,0.8v1.3h-1.6V9c0-1.4,0.8-2.2,2.3-2.2c1.5,0,2.2,0.7,2.2,2.1v1c0,1-0.2,1.6-1.1,2.6l-1.1,1.2
			c-0.4,0.5-0.7,0.8-0.7,1.6v0.5h2.8v1.4h-4.4V15.2z"/>
	</g>
	<g>
		<polygon class="st1" points="85.4,9.9 85.4,14.1 87.6,12 		"/>
	</g>
	<g>
		<path class="st1" d="M98.2,190h-95v-67.8h95V190z M4.2,189h93v-65.8h-93V189z"/>
	</g>
	<g>
		<g>
			<path class="st0" d="M81.2,91.5l-1.5-0.7c-0.5-0.2-0.8-0.7-0.8-1.3c0-0.3,0-0.6,0-0.9v-1c0-0.6,0.3-1.1,0.8-1.3l1.5-0.7
				c0.6-0.2,0.9-0.8,0.7-1.4c0,0,0-0.1-0.1-0.1c-0.3-1.2-0.8-2.3-1.4-3.3c-0.2-0.5-0.8-0.8-1.3-0.6c0,0-0.1,0-0.1,0l-1.6,0.6
				c-0.5,0.2-1.1,0.1-1.5-0.3l-0.6-0.6l-0.6-0.6c-0.5-0.4-0.6-1-0.4-1.6c0.2-0.5,0.4-1.1,0.5-1.6c0.2-0.5,0-1.1-0.5-1.3c0,0,0,0,0,0
				c-1.1-0.5-2.3-0.9-3.4-1.4c-0.5-0.2-1.1,0-1.3,0.5c0,0,0,0,0,0c-0.3,0.6-0.5,1.1-0.8,1.7c-0.2,0.4-0.6,0.7-1.1,0.7h-2
				c-0.6,0-1.1-0.3-1.3-0.8c-0.2-0.5-0.5-1.1-0.8-1.6c-0.2-0.5-0.7-0.7-1.2-0.6c-1.3,0.3-2.5,0.8-3.6,1.5c-0.5,0.2-0.7,0.8-0.5,1.3
				c0.2,0.5,0.4,1,0.6,1.6c0.3,0.6,0.1,1.2-0.4,1.6L57.8,80l-0.6,0.6c-0.4,0.4-1,0.6-1.5,0.4L54,80.5c-0.5-0.2-1.1,0-1.3,0.6
				c0,0,0,0,0,0c-0.5,1.1-0.9,2.2-1.4,3.3c-0.3,0.5-0.1,1.1,0.4,1.4c0,0,0.1,0.1,0.2,0.1l1.6,0.8c0.5,0.2,0.8,0.6,0.8,1.2
				c0,0.3,0,0.7,0,1s0,0.7,0,1c0,0.6-0.3,1.1-0.8,1.3l-1.5,0.8c-0.5,0.2-0.8,0.7-0.6,1.3c0,0,0,0.1,0.1,0.1c0.3,1.2,0.8,2.3,1.4,3.4
				c0.2,0.5,0.8,0.8,1.3,0.5c0,0,0.1,0,0.1,0c0.5-0.2,1.1-0.4,1.7-0.6c0.5-0.2,1.1-0.1,1.4,0.3c0.4,0.4,0.9,0.9,1.3,1.3
				c0.4,0.4,0.6,1,0.4,1.5c-0.2,0.6-0.4,1.1-0.6,1.7c-0.2,0.5,0.1,1.1,0.6,1.3c0,0,0,0,0,0l3.4,1.4c0.5,0.2,1.1,0,1.3-0.5
				c0,0,0,0,0,0c0.3-0.5,0.5-1.1,0.8-1.6c0.2-0.5,0.7-0.8,1.2-0.8H67h0.5c0.5,0,1,0.3,1.2,0.8c0.2,0.5,0.5,1.1,0.8,1.6
				c0.2,0.5,0.7,0.8,1.3,0.6c1.3-0.3,2.5-0.9,3.6-1.5c0.4-0.2,0.6-0.6,0.5-1c0-0.1,0-0.2-0.1-0.3c-0.2-0.5-0.4-1-0.6-1.6
				c-0.3-0.6-0.1-1.2,0.4-1.6c0.4-0.4,0.8-0.8,1.2-1.2c0.4-0.4,1-0.6,1.5-0.3l1.6,0.6c0.5,0.2,1.1,0,1.3-0.5c0,0,0-0.1,0-0.1
				c0.4-1.1,0.9-2.2,1.3-3.3c0.3-0.5,0.1-1.1-0.4-1.4C81.3,91.6,81.2,91.5,81.2,91.5z M66.6,96c-4,0-7.3-3.3-7.3-7.3
				c0-4,3.3-7.3,7.3-7.3s7.3,3.3,7.3,7.3S70.6,96,66.6,96L66.6,96z"/>
		</g>
		<g>
			<path class="st0" d="M26.7,101.2c-6.9-5.9-5.1-13-4.3-15.7c7.8,13.6,22.7,15.7,22.7,15.7S25.4,90.2,21.9,74.6
				c-0.3-1.2,2.8-2.2,3.2-0.7c0.7,2.7,1.8,5.4,3.2,7.9c4.2-0.7,11.2-1.2,15.3,3c5.5,5.6,3.1,15.4,11.2,21.8
				C56.7,108.1,36,109.2,26.7,101.2z"/>
		</g>
		<g>
			<g>
				<path class="st0" d="M68.1,54.5c0-0.6-0.5-1-1.1-1l-1.6,0c-0.6,0-1.2-0.2-1.3-0.8c-0.2-1.1-0.6-2.1-1-3.1
					c-0.2-0.6-0.1-1.2,0.4-1.6c0.5-0.4,0.9-0.7,1.3-1.2c0.4-0.3,0.5-0.9,0.2-1.4c-0.7-1.2-1.5-2.4-2.5-3.4c-0.4-0.4-1.1-0.5-1.5-0.1
					c0,0,0,0,0,0c-0.5,0.3-0.9,0.6-1.3,0.9s-1,0.5-1.5,0.1c-0.9-0.7-2-1.5-2.7-1.9c-0.5-0.3-0.8-0.9-0.6-1.5
					c0.2-0.6,0.3-1.1,0.4-1.7c0.1-0.5-0.1-1.1-0.6-1.3c-1.3-0.6-2.6-1-4-1.2c-0.6-0.1-1.2,0.2-1.3,0.8c-0.2,0.6-0.4,1-0.5,1.5
					s-0.5,1-1.2,1c-1.3,0-2.3,0-3.3,0c-0.6,0.1-1.1-0.3-1.3-0.8c-0.2-0.6-0.4-1.1-0.7-1.7c-0.2-0.5-0.7-0.8-1.3-0.7
					c-1.4,0.3-2.7,0.7-3.9,1.3c-0.5,0.2-0.8,0.8-0.6,1.4c0.2,0.6,0.3,1,0.5,1.6s0.2,1.2-0.3,1.5s-1.9,1.3-2.6,2
					c-0.5,0.4-1.1,0.4-1.6,0.1c-0.5-0.3-1-0.6-1.5-0.9c-0.5-0.3-1.1-0.2-1.4,0.2c-0.9,1-1.7,2.2-2.4,3.4c-0.3,0.5-0.2,1.2,0.3,1.5
					c0.5,0.4,0.8,0.6,1.3,1s0.8,0.8,0.6,1.4s-0.8,2.5-1,3.1c-0.1,0.6-0.6,1-1.3,1.1c-0.6,0-1.1,0.1-1.8,0.1c-0.5,0-1,0.5-1,1
					c-0.2,1.4-0.1,2.8,0.1,4.2c0,0.6,0.5,1,1.1,1H27c0.6,0,1.1,0.2,1.3,0.8c0.3,1.1,0.6,2.1,1,3.1c0.2,0.6,0.1,1.2-0.4,1.6
					c-0.5,0.4-0.9,0.7-1.4,1.2c-0.4,0.3-0.5,0.9-0.3,1.4c0.7,1.2,1.5,2.3,2.5,3.3c0.4,0.4,1,0.5,1.5,0.1l1.3-0.9
					c0.5-0.4,1-0.5,1.5-0.1s2,1.5,2.7,1.9c0.5,0.3,0.8,0.9,0.6,1.5c-0.2,0.6-0.3,1.1-0.4,1.7c-0.2,0.5,0.1,1.1,0.6,1.3
					c1.3,0.6,2.6,1,4,1.2c0.6,0.1,1.1-0.2,1.3-0.8c0.2-0.6,0.4-1,0.5-1.5s0.5-1,1.2-1c1.2,0,2.2,0,3.3,0c0.6-0.1,1.2,0.3,1.4,0.9
					c0.2,0.6,0.4,1.1,0.7,1.7c0.2,0.5,0.7,0.8,1.3,0.7c1.4-0.3,2.7-0.7,3.9-1.3c0.5-0.2,0.8-0.8,0.6-1.4c0,0,0,0,0,0
					c-0.2-0.6-0.3-1-0.5-1.6s-0.2-1.2,0.4-1.5s2.1-1.5,2.6-2c0.5-0.4,1.1-0.5,1.6-0.1c0.5,0.3,1,0.6,1.5,0.9
					c0.5,0.3,1.1,0.2,1.4-0.2c0.9-1,1.7-2.2,2.4-3.4c0.3-0.5,0.2-1.2-0.3-1.5c-0.5-0.4-0.8-0.7-1.3-1s-0.8-0.8-0.6-1.4
					s0.8-2.3,1-3.1c0.1-0.6,0.7-1,1.2-1c0.6,0,1.2-0.1,1.8-0.1c0.5,0,1-0.5,1-1C68.3,57.2,68.3,55.8,68.1,54.5z M46.2,70.6
					c-7.5,0-13.6-6.1-13.6-13.6c0-7.5,6.1-13.6,13.6-13.6c7.5,0,13.6,6.1,13.6,13.6C59.9,64.6,53.8,70.6,46.2,70.6z"/>
			</g>
			<g>
				<path class="st0" d="M36.2,53.1c0.3,0.2,0.5,0,0.7-0.2c0.1-0.1,0.1-0.3,0-0.5c-0.1-0.2,0.2-0.3,0.3-0.3s0.7-0.4,0.9-0.5
					c0.6-0.2,1.2-0.2,1.8,0c0.4,0.2,0.9,0.1,1.2-0.2c0.2-0.3,0.5-0.5,0.9-0.7c0.2-0.1-0.4-0.6-0.9,0s-0.8,0.7-1,0.7
					s-1.6-0.3-1.8-0.8s0.4-0.8,1-1c0.7-0.2,1.5-0.3,2.3-0.3c0.7-0.2,1.7-0.5,2.1-0.2s-2,0.8-1.2,1.3c0.3,0.2,1.6-0.7,2-1
					c1-0.5-1-0.7-0.7-1.8s-2.4-0.8-3.8-0.7c-0.7,0.4-1.3,0.9-1.9,1.4c0.2,0,0.3,0.1,0.4,0.2c0,0.3,0,0.5-0.2,0.8
					c-0.3,0.3-0.8,0.5-1.3,0.6c-0.1,0-0.2,0-0.2-0.1c-0.2,0.3-0.4,0.6-0.6,0.9c0.3-0.2,0.6-0.3,0.9-0.3c0.3,0,0.7,0.1,0.8,0.3
					s-0.8,0.6-0.9,0.7c-0.4,0.4-1.1,1.2-1.4,1.2c-0.1,0-0.2,0-0.3,0C35.1,52.8,35,53,35,53.3C35.3,53,35.8,53,36.2,53.1z"/>
			</g>
			<g>
				<path class="st0" d="M55.9,56.4c-0.4,0.3-0.8,0.4-1.3,0.5c-0.4,0.3-0.7,0.9-0.6,1.4c0.1,0.5,1.2,1.7,0.4,1.7
					c-0.8-0.4-1.4-0.9-1.9-1.6c-0.2-0.7-0.5-1.3-0.7-1.8c-0.1-0.4-0.5-0.6-0.9-0.4c-0.1,0-0.2,0.1-0.2,0.1c-0.4,0.3,0.1,0.6-0.2,1.2
					s-0.5,1.2-1,0.7c-1.2-1.3-2.9-0.7-3.1-2.2c-0.1-0.8-0.8-0.7-1.4-1.2s-0.9-0.7-1-0.4s1.8,1.8,2,2.2c0.2,0.6-0.6,1.1-1.2,1.2
					s-0.8-0.3-1.4-0.9s-0.8-1-0.8-0.5c0,0.8,0.4,1.5,1.1,2c0.5,0.3,1,0.5,0.9,1s0,0.2-0.5,0.8c-0.5,0.3-0.7,0.9-0.6,1.5
					c0,0.8-0.2,0.8-0.3,1.4s-0.4,0.1-0.6,1c-0.1,0.6-0.4,1.1-0.7,1.5c-0.5,0.4-1,0.6-1.6,0.6c-0.5,0-0.6-1.5-0.6-2.2
					c0-0.3-0.4,0.5-0.5-1.1c-0.1-1-0.8,0.1-0.8-0.6s-0.4-0.5-0.7-0.9s-0.8,0-1.2,0.2s-0.3,0.3-0.9,0.1l0,0c1.4,3.3,4.2,5.8,7.7,6.9
					c-0.2-0.1-0.2-0.4-0.1-0.6c0.5-0.9,1.4-1.4,2.3-1.4c1.9-0.2,4.5,1.3,4.9,1s1.2-1.3,2.4-1.3c0.4,0,0.8,0.1,1.1,0.3
					c0.4-0.3,0.8-0.6,1.2-1c-0.1,0-0.2-0.1-0.4-0.1c-0.7-0.3-0.6,0.2-0.9,0.1s0.4-0.9-0.6-0.2s-0.7-0.1-1.1-1.2
					c-0.3-1,0.2-2.1,1.2-2.6c0.7-0.2,1.4-0.4,2.2-0.6c1.4-0.4,1.7-1.2,2-0.7c0,0.1,0.1,0.2,0.1,0.3c0.1,0.2,0.2,0.5,0.2,0.7
					c0.2-0.6,0.4-1.2,0.5-1.8c-0.3-0.1-1.6-2-0.6-3.2c0.2-0.2-0.4-0.8-0.2-0.8c0.5,0,0.9,0.3,1,0.7c0-0.6-0.1-1.2-0.2-1.9
					c0,0.1,0,0.3,0,0.4c-0.2,0.4-0.6,0.6-1,0.4c-0.2-0.1-0.3-0.2-0.4-0.3C56.5,54.7,56,54.2,56,55S56.7,55.9,55.9,56.4z M44.7,61.1
					c-0.2,0.3-0.6,2.3-0.9,2s0.1-2.3,0.2-2.5C44.4,59.8,45.5,59.9,44.7,61.1z M49.6,58.8c-0.4,0.2-0.8,0.1-1.1-0.1
					c-0.3-0.2,0.2-0.6,0.4-0.6C49.2,58,49.8,58.6,49.6,58.8z M54.6,58.3c-0.1-0.1,0-0.3,0.1-0.4c0.1,0,0.2,0,0.3,0
					c0.3,0.1,0.5,0.4,0.6,0.7c0,0.2-0.5,0.2-0.6,0.1S54.6,58.6,54.6,58.3L54.6,58.3z M56.2,59.9c-0.4,0.2-0.8,0.2-1.2-0.1
					c-0.3-0.2,0.2-0.6,0.4-0.6C55.8,59.1,56.4,59.7,56.2,59.9L56.2,59.9z"/>
			</g>
			<g>
				<path class="st0" d="M35.8,54.5c0.7,0.1,1.4,0.3,2,0.5c0.7,0.3,1.8,0.8,2.4,0.6c0.5-0.2,0.8-0.4,0.8-0.8s-0.4-0.6-0.9-0.3
					c-0.2,0.1-0.5-0.7-0.8-0.7s0.3,1,0.1,1s-0.7-1-0.8-1.2s-0.5-0.6-0.8-0.3C37.1,54,36,54,35.7,54.1c-0.1,0.1-0.2,0.1-0.2,0.1
					c-0.5,0.2-0.6-0.3-0.6-0.7c-0.2,0.7-0.3,1.3-0.4,2l0.1-0.1c0.4-0.7,0.5-0.8,0.6-0.9c0.1-0.1,0.3-0.1,0.5-0.2L35.8,54.5z"/>
			</g>
		</g>
	</g>
</g>
</svg>
