<?xml version="1.0" encoding="utf-8"?>
<!-- Generator: Adobe Illustrator 22.0.1, SVG Export Plug-In . SVG Version: 6.00 Build 0)  -->
<svg version="1.1" id="Layer_1" xmlns="http://www.w3.org/2000/svg" xmlns:xlink="http://www.w3.org/1999/xlink" x="0px" y="0px"
	 viewBox="0 0 101.5 157.1" style="enable-background:new 0 0 101.5 157.1;" xml:space="preserve">
<style type="text/css">
	.st0{fill:#FFFFFF;}
	.st1{fill:#BF8B2E;}
	.st2{enable-background:new    ;}
</style>
<title>TARGET 1 B copy 4</title>
<g id="WHITE_BG">
	<g>
		<rect y="0" class="st0" width="101.5" height="157.1"/>
	</g>
</g>
<g id="TARGETS">
	<g>
		<g>
			<path class="st1" d="M11.1,130.3c0,1.2-0.7,2-2.4,2c-0.6,0-1.3-0.1-1.9-0.4V131c0.6,0.3,1.2,0.4,1.8,0.4c1.1,0,1.5-0.5,1.5-1.1
				s-0.3-0.9-1.2-1c-1.6-0.2-2.2-0.6-2.2-1.8c0-0.9,0.5-1.8,2.3-1.8c0.6,0,1.2,0.1,1.7,0.3v1c-0.5-0.2-1.1-0.3-1.7-0.3
				c-1,0-1.3,0.4-1.3,1c0,0.7,0.4,0.8,1.2,0.9C10.3,128.7,11.1,129,11.1,130.3z"/>
		</g>
		<g>
			<path class="st1" d="M11.7,130.2v-4.4h1v4.3c-0.1,0.7,0.4,1.3,1.1,1.3c0.1,0,0.2,0,0.3,0c0.6,0.1,1.3-0.3,1.4-1
				c0-0.1,0-0.2,0-0.3v-4.3h1v4.4c0,1.1-0.8,2.1-2,2.1c-0.1,0-0.2,0-0.4,0c-1.1,0.1-2.2-0.7-2.3-1.8
				C11.7,130.4,11.7,130.3,11.7,130.2z"/>
		</g>
		<g>
			<path class="st1" d="M17.2,125.8h2.1c1.5,0,2,0.8,2,1.7c0,0.5-0.3,1-0.8,1.3c0.6,0.2,1.1,0.8,1,1.5c0,1.1-0.5,1.9-2.2,1.9h-2.2
				V125.8z M19.4,126.7h-1.2v1.8h1.2c0.4,0.1,0.9-0.2,0.9-0.7c0-0.1,0-0.1,0-0.2C20.4,127.2,20.2,126.7,19.4,126.7z M18.2,131.3h1.3
				c0.9,0,1.1-0.5,1.1-1s-0.3-1-1.1-1h-1.3V131.3z"/>
		</g>
		<g>
			<path class="st1" d="M26.5,130.3c0,1.2-0.7,2-2.4,2c-0.6,0-1.3-0.1-1.9-0.4V131c0.6,0.3,1.2,0.4,1.8,0.4c1.1,0,1.5-0.5,1.5-1.1
				s-0.3-0.9-1.2-1c-1.5-0.2-2.2-0.6-2.2-1.8c0-0.9,0.5-1.8,2.3-1.8c0.6,0,1.2,0.1,1.7,0.3v1c-0.5-0.2-1.1-0.3-1.7-0.3
				c-1,0-1.3,0.4-1.3,1c0,0.7,0.4,0.8,1.2,0.9C25.7,128.7,26.5,129,26.5,130.3z"/>
		</g>
		<g>
			<path class="st1" d="M29.4,126.7v5.5h-1v-5.5h-1.6v-0.9H31v0.9H29.4z"/>
		</g>
		<g>
			<path class="st1" d="M34.1,130.6H32l-0.5,1.6h-1l2-6.4h1l2,6.4h-1L34.1,130.6z M33.1,127l-0.8,2.8h1.6L33.1,127z"/>
		</g>
		<g>
			<path class="st1" d="M39.8,132.2l-2.8-4.5v4.5h-0.9v-6.4H37l2.8,4.5v-4.5h0.9v6.4H39.8z"/>
		</g>
		<g>
			<path class="st1" d="M43.8,126.7v5.5h-1v-5.5h-1.7v-0.9h4.3v0.9H43.8z"/>
		</g>
		<g>
			<path class="st1" d="M46.2,132.2v-6.4h1v6.4H46.2z"/>
		</g>
		<g>
			<path class="st1" d="M51.6,130.6h-2l-0.5,1.6h-1l2-6.4h1l2,6.4H52L51.6,130.6z M50.6,127l-0.8,2.8h1.6L50.6,127z"/>
		</g>
		<g>
			<path class="st1" d="M54.5,131.3h2.8v0.9h-3.7v-6.4h1V131.3z"/>
		</g>
		<g>
			<path class="st1" d="M58.8,131.3h2.8v0.9h-3.7v-6.4h1L58.8,131.3z"/>
		</g>
		<g>
			<path class="st1" d="M63.7,129.6v2.6h-1v-2.6l-2.2-3.8h1.1l1.6,3l1.6-3h1.1L63.7,129.6z"/>
		</g>
		<g>
			<path class="st1" d="M7.8,141.2h-1v-6.4H9c1.6,0,2.2,0.7,2.2,1.9c0.1,0.7-0.3,1.4-1,1.7l1.3,2.8h-1.2l-1.1-2.6H7.8V141.2z
				 M7.8,137.7h1.3c0.9,0,1-0.5,1-1s-0.1-1-1-1H7.8V137.7z"/>
		</g>
		<g>
			<path class="st1" d="M15.7,138.3H13v2h3v0.9h-3.9v-6.4H16v0.9h-3v1.8h2.7L15.7,138.3z"/>
		</g>
		<g>
			<path class="st1" d="M16.8,141.2v-6.4h1.9c2.1,0,2.7,1.4,2.7,3.2s-0.6,3.2-2.7,3.2H16.8z M17.8,140.3h1c1.3,0,1.7-0.9,1.7-2.3
				s-0.4-2.3-1.7-2.3h-1V140.3z"/>
		</g>
		<g>
			<path class="st1" d="M22.2,139.2v-4.4h1v4.3c-0.1,0.7,0.4,1.2,1,1.3c0.1,0,0.2,0,0.3,0c0.6,0.1,1.3-0.3,1.4-1c0-0.1,0-0.2,0-0.3
				v-4.3h1v4.4c0,1.1-0.8,2.1-2,2.1c-0.1,0-0.2,0-0.3,0c-1.1,0.1-2.2-0.6-2.3-1.8C22.2,139.4,22.2,139.3,22.2,139.2z"/>
		</g>
		<g>
			<path class="st1" d="M30.3,134.7c0.5,0,1,0.1,1.5,0.3v0.9c-0.5-0.2-0.9-0.3-1.4-0.3c-1.2,0-1.7,0.8-1.7,2.4s0.5,2.4,1.7,2.4
				c0.5,0,1-0.1,1.4-0.3v0.9c-0.5,0.2-1,0.3-1.5,0.3c-1.9,0-2.6-1.2-2.6-3.3S28.4,134.7,30.3,134.7z"/>
		</g>
		<g>
			<path class="st1" d="M36.2,138.3h-2.7v2h2.9v0.9h-3.9v-6.4h3.9v0.9h-2.9v1.8h2.7V138.3z"/>
		</g>
		<g>
			<path class="st1" d="M41.2,134.8h1.2l1.1,5l0.8-5h1l-1.2,6.4h-1.2l-1.2-5.3l-1.2,5.3h-1.2l-1.2-6.4h1l0.8,5L41.2,134.8z"/>
		</g>
		<g>
			<path class="st1" d="M48.5,139.6h-2l-0.5,1.6h-1l2-6.4h1l2,6.4h-1L48.5,139.6z M47.5,136l-0.8,2.8h1.6L47.5,136z"/>
		</g>
		<g>
			<path class="st1" d="M54.5,139.3c0,1.2-0.7,2-2.4,2c-0.6,0-1.3-0.1-1.9-0.4V140c0.6,0.3,1.2,0.4,1.8,0.4c1.2,0,1.5-0.5,1.5-1.1
				s-0.3-0.9-1.2-1c-1.5-0.2-2.2-0.6-2.2-1.8c0-0.9,0.5-1.8,2.3-1.8c0.6,0,1.2,0.1,1.7,0.3v1c-0.5-0.2-1.1-0.3-1.7-0.3
				c-1,0-1.3,0.4-1.3,1s0.4,0.8,1.2,0.9C53.8,137.7,54.5,138,54.5,139.3z"/>
		</g>
		<g>
			<path class="st1" d="M57.4,135.7v5.5h-1v-5.5h-1.6v-0.9H59v0.9H57.4z"/>
		</g>
		<g>
			<path class="st1" d="M63.3,138.3h-2.7v2h2.9v0.9h-3.9v-6.4h3.9v0.9h-2.9v1.8h2.7V138.3z"/>
		</g>
		<g>
			<path class="st1" d="M6.8,147c0-2,0.7-3.3,2.6-3.3c0.6,0,1.3,0.1,1.8,0.3v1c-0.5-0.2-1.1-0.4-1.7-0.4c-1.3,0-1.8,0.9-1.8,2.4
				s0.5,2.4,1.8,2.4c0.3,0,0.6,0,0.9-0.1v-1.7H9.3v-0.9h2.1v3.2c-0.6,0.3-1.3,0.4-2,0.4C7.5,150.3,6.8,149,6.8,147z"/>
		</g>
		<g>
			<path class="st1" d="M15.9,147.3h-2.6v2h2.9v0.9h-3.9v-6.4h3.9v0.9h-2.9v1.8h2.7L15.9,147.3z"/>
		</g>
		<g>
			<path class="st1" d="M20.7,150.2l-2.7-4.5v4.5h-0.9v-6.4h0.9l2.8,4.5v-4.5h0.9v6.4H20.7z"/>
		</g>
		<g>
			<path class="st1" d="M26.2,147.3h-2.6v2h2.9v0.9h-3.9v-6.4h3.9v0.9h-2.9v1.8h2.6V147.3z"/>
		</g>
		<g>
			<path class="st1" d="M28.2,150.2h-1v-6.4h2.1c1.6,0,2.2,0.7,2.2,1.9c0.1,0.7-0.3,1.4-1,1.7l1.3,2.8h-1.2l-1.1-2.6h-1.3V150.2z
				 M28.2,146.7h1.3c0.9,0,1-0.5,1-1s-0.1-1-1-1h-1.3V146.7z"/>
		</g>
		<g>
			<path class="st1" d="M35.6,148.6h-2l-0.5,1.6H32l2-6.4h1l2,6.4h-1L35.6,148.6z M34.6,145l-0.8,2.8h1.6L34.6,145z"/>
		</g>
		<g>
			<path class="st1" d="M39.1,144.7v5.5h-1v-5.5h-1.6v-0.9h4.3v0.9H39.1z"/>
		</g>
		<g>
			<path class="st1" d="M41.5,150.2v-6.4h1v6.4H41.5z"/>
		</g>
		<g>
			<path class="st1" d="M43.5,147c0-1.8,0.4-3.3,2.5-3.3s2.5,1.5,2.5,3.3s-0.4,3.3-2.4,3.3S43.5,148.8,43.5,147z M44.5,147
				c0,1.5,0.3,2.4,1.5,2.4s1.5-0.9,1.5-2.4s-0.3-2.4-1.5-2.4S44.5,145.5,44.5,147L44.5,147z"/>
		</g>
		<g>
			<path class="st1" d="M52.8,150.2l-2.8-4.5v4.5h-0.9v-6.4H50l2.8,4.5v-4.5h1v6.4H52.8z"/>
		</g>
	</g>
	<g>
		<rect x="3.3" y="24" class="st1" width="94.8" height="94.8"/>
	</g>
	<g>
		<path class="st1" d="M98.2,20.7H3.3V3.3h94.8V20.7z M4.3,19.7h92.8V4.3H4.3L4.3,19.7z"/>
	</g>
	<g class="st2">
		<path class="st1" d="M6.7,6.9h4.5v1.4H9.9v8.8H8.1V8.3H6.7V6.9z"/>
	</g>
	<g class="st2">
		<path class="st1" d="M11.2,17.1l1.9-10.2h1.9L17,17.1h-1.8l-0.3-1.9h-1.8l-0.3,1.9H11.2z M13.3,13.9h1.4L14,9.8h0L13.3,13.9z"/>
	</g>
	<g class="st2">
		<path class="st1" d="M19.6,12.4v4.7h-1.7V6.9h2.5c1.7,0,2.4,0.9,2.4,2.3v1.3c0,1.1-0.4,1.7-1.4,2l1.6,4.6h-1.8L19.6,12.4z
			 M19.6,8.3v3.2h0.6c0.6,0,0.8-0.3,0.8-0.8V9.2c0-0.6-0.3-0.8-0.8-0.8H19.6z"/>
	</g>
	<g class="st2">
		<path class="st1" d="M26.4,11.7h2.4v5.4h-1.2V16c-0.2,0.8-0.7,1.2-1.6,1.2c-1.5,0-2.1-1.2-2.1-2.7V9.6c0-1.6,0.8-2.7,2.6-2.7
			c1.9,0,2.4,1.1,2.4,2.6v0.9h-1.6v-1c0-0.6-0.2-1-0.9-1c-0.6,0-0.9,0.4-0.9,1v5.5c0,0.6,0.3,1,0.8,1c0.6,0,0.8-0.3,0.8-1V13h-0.8
			V11.7z"/>
	</g>
	<g class="st2">
		<path class="st1" d="M30.2,6.9h4.1v1.4h-2.4v2.9h1.7v1.4h-1.7v3.1h2.4v1.4h-4.1V6.9z"/>
	</g>
	<g class="st2">
		<path class="st1" d="M35.1,6.9h4.5v1.4h-1.4v8.8h-1.7V8.3h-1.4V6.9z"/>
	</g>
	<g class="st2">
		<path class="st1" d="M78,6.9v10.2h-1.7V9.3h0l-1.2,1.2h0V8.8l1.6-1.8H78z"/>
		<path class="st1" d="M79.4,15.2c0-1,0.3-1.7,1.3-2.7l1-1c0.6-0.6,0.6-0.9,0.6-1.8V9c0-0.6-0.3-0.8-0.6-0.8C81.3,8.2,81,8.4,81,9
			v1.3h-1.6V9c0-1.4,0.8-2.2,2.3-2.2C83.3,6.8,84,7.5,84,9v1c0,1-0.2,1.6-1.1,2.6l-1.1,1.2c-0.4,0.5-0.7,0.8-0.7,1.6v0.5h2.8v1.4
			h-4.4V15.2z"/>
	</g>
	<g class="st2">
	</g>
	<g class="st2">
		<path class="st1" d="M86.7,10.8c0.7,0,1.2,0.6,1.2,1.2c0,0.7-0.6,1.2-1.2,1.2c-0.7,0-1.2-0.6-1.2-1.2C85.5,11.4,86,10.8,86.7,10.8
			z"/>
	</g>
	<g class="st2">
		<path class="st1" d="M94.4,12.4v2.5c0,1.4-0.7,2.3-2.4,2.3c-1.7,0-2.4-1-2.4-2.5v-1.2h1.6v1.3c0,0.6,0.2,1,0.8,1
			c0.5,0,0.7-0.4,0.7-0.9v-2.5c0-0.6-0.2-0.9-0.7-0.9c-0.5,0-0.8,0.3-0.8,0.9v0.2h-1.6V6.9h4.5v1.4h-2.9v2.5h0
			c0.3-0.5,0.8-0.7,1.4-0.7C93.5,10.2,94.4,10.8,94.4,12.4z"/>
	</g>
	<g>
		<g>
			<g>
				<path class="st0" d="M33.2,60.9h-6.6v-0.8c0-0.1-0.1-0.3-0.3-0.3h-5c-0.1,0-0.3,0.1-0.3,0.3v0.8h-6.6c-0.1,0-0.3,0.1-0.3,0.3
					l0.2,1.1c0,0.1,0.1,0.3,0.3,0.2h18.4c0.1,0,0.3-0.1,0.3-0.2l0.2-1.1C33.5,61,33.4,60.9,33.2,60.9z"/>
			</g>
			<g>
				<path class="st0" d="M33,63.5H14.8c-0.1,0-0.3,0.1-0.3,0.2c0,0,0,0,0,0L15.8,83c0,0.1,0.1,0.3,0.3,0.3c0,0,0,0,0,0h15.6
					c0.1,0,0.3-0.1,0.3-0.2c0,0,0,0,0,0l1.3-19.2C33.3,63.6,33.2,63.5,33,63.5C33.1,63.5,33,63.5,33,63.5z M19.5,80.6L19.5,80.6
					c-0.3,0-0.6-0.3-0.6-0.6l-0.8-13c0-0.4,0.2-0.7,0.6-0.7c0.4,0,0.7,0.2,0.7,0.6l0.8,13C20.2,80.2,19.9,80.5,19.5,80.6
					C19.5,80.6,19.5,80.6,19.5,80.6z M24.5,79.9c0,0.4-0.4,0.6-0.7,0.6c-0.3,0-0.5-0.3-0.6-0.6v-13c0-0.4,0.4-0.6,0.7-0.6
					c0.3,0,0.5,0.3,0.6,0.6V79.9z M29,80c0,0.3-0.3,0.6-0.6,0.6l0,0c-0.4,0-0.6-0.3-0.6-0.7c0,0,0,0,0,0l0.8-13
					c0.1-0.4,0.4-0.6,0.8-0.5c0.3,0.1,0.5,0.3,0.5,0.6L29,80z"/>
			</g>
		</g>
		<g>
			<path class="st0" d="M56.5,71l-1.1-2.6c0-0.1-0.1-0.2-0.3-0.1c0,0-0.1,0-0.1,0l-2.9,1.5l0.3,0.6l2.6-1.3l0.8,1.9h-2.1l1.2,12.2
				h6.3L62.4,71L56.5,71z"/>
		</g>
		<g>
			<path class="st0" d="M89.1,63.6l-5.2-2.4l-3.1-0.7c-0.7,1.6-2.2,2.6-3.9,2.6h-0.2c-1.8,0-3.4-1-4.2-2.6l-3,0.7l-5.2,2.4
				c0,0-0.3,0.1-0.1,0.5l2.3,4.6c0,0.1,0.2,0.2,0.3,0.2c0,0,0,0,0,0c0.5-0.2,2.7-0.7,2.7-0.7v14.8c0,0,0.1,0.3,0.4,0.3h13.6
				c0.3,0,0.4-0.3,0.4-0.3V68.2c0,0,2.2,0.6,2.7,0.7c0.1,0.1,0.3,0,0.3-0.1c0,0,0,0,0,0l2.3-4.6C89.4,63.7,89.1,63.6,89.1,63.6z"/>
		</g>
		<g>
			<g>
				<path class="st0" d="M42.1,59.3h2.7c0.5,0,0.8,0.4,0.8,0.8V61c0,0.5-0.4,0.8-0.8,0.8h-2.7c-0.5,0-0.8-0.4-0.8-0.8v-0.8
					C41.3,59.7,41.7,59.3,42.1,59.3z"/>
			</g>
			<g>
				<path class="st0" d="M47.5,68.4v-2c0-0.2-0.1-0.3-0.2-0.5c-0.2-0.2-1.8-3.1-1.8-3.1c0-0.1-0.1-0.1-0.2-0.1h-3.7
					c-0.1,0-0.2,0-0.2,0.1c0,0-1.7,2.9-1.8,3.1c-0.1,0.1-0.2,0.3-0.2,0.5v2v10.1v3.8c0,0.6,0.4,1,1,1h6.2c0.5,0,1-0.5,1-1v-3.8
					L47.5,68.4z"/>
			</g>
		</g>
		<g>
			<path class="st0" d="M73.8,97.4L71,95.2c-0.2-0.2-0.6-0.3-0.8,0c0,0,0,0,0,0l0,0c-8.8,10.5-24,11.6-34.8,3
				c-0.3-0.3-0.6-0.5-0.9-0.8l3.2-2c0.3-0.2-0.1-0.5-0.1-0.5l-10.8-5.4c-0.3-0.2-0.4,0-0.4,0.2v0.1l0,0L26.2,102
				c0,0.1,0.1,0.4,0.4,0.2l0,0l3.5-2.2c0.7,0.7,1.4,1.3,2.2,1.9c12.8,10.3,30.9,8.9,41.5-3.5l0.1-0.1C74.1,98.1,74.1,97.7,73.8,97.4
				C73.8,97.4,73.8,97.4,73.8,97.4z"/>
		</g>
		<g>
			<path class="st0" d="M26.3,46.8l2.9,2.1c0.2,0.2,0.6,0.2,0.8,0c0,0,0,0,0-0.1l0,0c8.2-11,23.3-13,34.5-5c0.3,0.2,0.7,0.5,1,0.8
				l-3,2.2c-0.3,0.2,0.2,0.5,0.2,0.5L73.8,52c0.3,0.2,0.4-0.1,0.4-0.2v-0.1l0,0l-0.7-12.3c0-0.1-0.1-0.4-0.4-0.2l0,0l-3.4,2.4
				c-0.7-0.6-1.5-1.2-2.3-1.8c-13.4-9.5-31.4-7.1-41.2,5.9l-0.1,0.1C26,46.2,26,46.5,26.3,46.8C26.3,46.8,26.3,46.8,26.3,46.8z"/>
		</g>
	</g>
	<g>
		<path class="st1" d="M98.2,153.8H3.3v-31.6h94.8V153.8z M4.3,152.8h92.8v-29.6H4.3L4.3,152.8z"/>
	</g>
</g>
</svg>
