<?xml version="1.0" encoding="utf-8"?>
<!-- Generator: Adobe Illustrator 22.0.1, SVG Export Plug-In . SVG Version: 6.00 Build 0)  -->
<svg version="1.1" id="Layer_1" xmlns="http://www.w3.org/2000/svg" xmlns:xlink="http://www.w3.org/1999/xlink" x="0px" y="0px"
	 viewBox="0 0 101.5 175.2" style="enable-background:new 0 0 101.5 175.2;" xml:space="preserve">
<style type="text/css">
	.st0{fill:#FFFFFF;}
	.st1{fill:#BF8B2E;}
	.st2{enable-background:new    ;}
</style>
<title>TARGET 1.1</title>
<g id="WHITE_BG">
	<g>
		<rect y="0" class="st0" width="101.5" height="175.2"/>
	</g>
</g>
<g id="TARGETS">
	<g>
		<g>
			<path class="st1" d="M7,132.2v-6.4h1v6.4H7z"/>
		</g>
		<g>
			<path class="st1" d="M12.5,131.3h-0.9l-1.6-3.9v4.8H9v-6.4h1.2l1.8,4.3l1.7-4.3H15v6.4h-1v-4.8L12.5,131.3z"/>
		</g>
		<g>
			<path class="st1" d="M16.9,132.2h-1v-6.4h2c1.6,0,2.2,1,2.2,2c0,1-0.6,2-2.2,2h-1V132.2z M16.9,128.9H18c0.6,0,1.1-0.5,1.1-1.1
				c0-0.6-0.5-1.1-1.1-1.1c0,0,0,0,0,0h-1.1V128.9z"/>
		</g>
		<g>
			<path class="st1" d="M21.7,131.3h2.8v0.9h-3.7v-6.4h1L21.7,131.3z"/>
		</g>
		<g>
			<path class="st1" d="M28.6,129.3H26v2h2.9v0.9H25v-6.4h3.9v0.9H26v1.8h2.6V129.3z"/>
		</g>
		<g>
			<path class="st1" d="M33.1,131.3h-0.9l-1.6-3.9v4.8h-1v-6.4h1.2l1.7,4.3l1.7-4.3h1.2v6.4h-1v-4.8L33.1,131.3z"/>
		</g>
		<g>
			<path class="st1" d="M40.2,129.3h-2.6v2h2.9v0.9h-3.9v-6.4h3.9v0.9h-2.9v1.8h2.7L40.2,129.3z"/>
		</g>
		<g>
			<path class="st1" d="M45,132.2l-2.8-4.5v4.5h-0.9v-6.4h0.9l2.8,4.5v-4.5h0.9v6.4H45z"/>
		</g>
		<g>
			<path class="st1" d="M49,126.7v5.5h-1v-5.5h-1.6v-0.9h4.3v0.9L49,126.7z"/>
		</g>
		<g>
			<path class="st1" d="M54.5,126.7v5.5h-1v-5.5h-1.7v-0.9h4.3v0.9L54.5,126.7z"/>
		</g>
		<g>
			<path class="st1" d="M60.2,132.2v-2.9h-2.6v2.9h-1v-6.4h1v2.6h2.6v-2.6h1v6.4L60.2,132.2z"/>
		</g>
		<g>
			<path class="st1" d="M65.7,129.3h-2.7v2H66v0.9h-3.9v-6.4H66v0.9h-2.9v1.8h2.7V129.3z"/>
		</g>
		<g>
			<path class="st1" d="M8.5,134.7v6.5h-1v-5.5h-1v-0.6l1.5-0.4H8.5z"/>
		</g>
		<g>
			<path class="st1" d="M11.6,134.7c1.8,0,2.1,1.1,2.1,3.3s-0.3,3.3-2.1,3.3s-2.1-1.1-2.1-3.3S9.8,134.7,11.6,134.7z M11.6,135.6
				c-1,0-1.1,0.8-1.1,2.4s0.1,2.4,1.1,2.4s1.1-0.8,1.1-2.4S12.6,135.6,11.6,135.6L11.6,135.6z"/>
		</g>
		<g>
			<path class="st1" d="M16.3,138.4h-2.2v-0.9h2.2V138.4z"/>
		</g>
		<g>
			<path class="st1" d="M19.6,138.6v2.6h-1v-2.6l-2.2-3.8h1.1l1.6,3l1.6-3h1.1L19.6,138.6z"/>
		</g>
		<g>
			<path class="st1" d="M25.9,138.3h-2.6v2h2.9v0.9h-3.9v-6.4h3.9v0.9h-2.9v1.8h2.6V138.3z"/>
		</g>
		<g>
			<path class="st1" d="M30.1,139.6h-2l-0.5,1.6h-1l2-6.4h1l2,6.4h-1L30.1,139.6z M29.1,136l-0.8,2.8h1.6L29.1,136z"/>
		</g>
		<g>
			<path class="st1" d="M33.2,141.2h-1v-6.4h2.1c1.7,0,2.2,0.7,2.2,1.9c0.1,0.7-0.3,1.4-1,1.7l1.3,2.8h-1.1l-1.2-2.6h-1.3V141.2z
				 M33.2,137.7h1.3c0.9,0,1-0.5,1-1s-0.1-1-1-1h-1.3V137.7z"/>
		</g>
		<g>
			<path class="st1" d="M43,139.3c0,1.2-0.7,2-2.4,2c-0.6,0-1.3-0.1-1.9-0.4v-1c0.6,0.3,1.2,0.4,1.8,0.4c1.2,0,1.5-0.5,1.5-1.1
				s-0.3-0.9-1.2-1c-1.5-0.2-2.2-0.6-2.2-1.8c0-0.9,0.5-1.9,2.3-1.9c0.6,0,1.2,0.1,1.7,0.3v1c-0.5-0.2-1.1-0.3-1.7-0.3
				c-1,0-1.3,0.4-1.3,1s0.4,0.8,1.2,0.9C42.2,137.7,43,138,43,139.3z"/>
		</g>
		<g>
			<path class="st1" d="M43.6,139.2v-4.4h1v4.3c0,0.8,0.6,1.4,1.4,1.4s1.4-0.6,1.4-1.4l0,0v-4.3h1v4.4c0,1.1-0.8,2.1-2,2.1
				c-0.1,0-0.2,0-0.3,0c-1.1,0.2-2.2-0.6-2.3-1.7C43.6,139.5,43.6,139.3,43.6,139.2z"/>
		</g>
		<g>
			<path class="st1" d="M53.2,139.3c0,1.2-0.7,2-2.4,2c-0.6,0-1.3-0.1-1.9-0.4v-1c0.6,0.3,1.2,0.4,1.8,0.4c1.2,0,1.5-0.5,1.5-1.1
				s-0.3-0.9-1.2-1c-1.5-0.2-2.2-0.6-2.2-1.8c0-0.9,0.5-1.9,2.3-1.9c0.6,0,1.2,0.1,1.7,0.3v1c-0.5-0.2-1.1-0.3-1.7-0.3
				c-1,0-1.3,0.4-1.3,1s0.4,0.8,1.2,0.9C52.4,137.7,53.2,138,53.2,139.3z"/>
		</g>
		<g>
			<path class="st1" d="M56,135.7v5.5h-1v-5.5h-1.6v-0.9h4.3v0.9H56z"/>
		</g>
		<g>
			<path class="st1" d="M60.8,139.6h-2l-0.5,1.6h-1l2-6.4h1l2,6.4h-1L60.8,139.6z M59.8,136l-0.8,2.8h1.6L59.8,136z"/>
		</g>
		<g>
			<path class="st1" d="M62.9,141.2v-6.4h1v6.4H62.9z"/>
		</g>
		<g>
			<path class="st1" d="M68.7,141.2l-2.8-4.5v4.5H65v-6.4h0.9l2.8,4.5v-4.5h1v6.4H68.7z"/>
		</g>
		<g>
			<path class="st1" d="M73.6,139.6h-2l-0.4,1.6H70l2-6.4h1l2,6.4h-1L73.6,139.6z M72.6,136l-0.8,2.8h1.6L72.6,136z"/>
		</g>
		<g>
			<path class="st1" d="M75.6,134.8h2.1c1.6,0,2,0.8,2,1.8c0,0.5-0.3,1-0.8,1.3c0.6,0.2,1.1,0.8,1,1.5c0,1-0.5,1.9-2.2,1.9h-2.2
				V134.8z M77.7,135.7h-1.2v1.8h1.2c0.8,0,1-0.5,1-0.9S78.6,135.7,77.7,135.7z M76.5,140.3h1.3c0.9,0,1.1-0.5,1.1-1s-0.3-1-1.1-1
				h-1.3V140.3z"/>
		</g>
		<g>
			<path class="st1" d="M81.6,140.3h2.8v0.9h-3.7v-6.4h1L81.6,140.3z"/>
		</g>
		<g>
			<path class="st1" d="M88.5,138.3h-2.7v2h2.9v0.9h-3.9v-6.4h3.9v0.9h-2.9v1.8h2.7V138.3z"/>
		</g>
		<g>
			<path class="st1" d="M9.4,143.7c0.5,0,1,0.1,1.5,0.3v0.9c-0.5-0.2-0.9-0.3-1.4-0.3c-1.2,0-1.7,0.8-1.7,2.4s0.5,2.4,1.7,2.4
				c0.5,0,1-0.1,1.4-0.3v0.9c-0.5,0.2-1,0.3-1.5,0.3c-1.9,0-2.6-1.2-2.6-3.3S7.5,143.7,9.4,143.7z"/>
		</g>
		<g>
			<path class="st1" d="M11.6,147c0-1.8,0.4-3.3,2.5-3.3s2.4,1.5,2.4,3.3s-0.4,3.3-2.4,3.3S11.6,148.8,11.6,147z M12.6,147
				c0,1.5,0.3,2.4,1.5,2.4s1.5-0.9,1.5-2.4s-0.3-2.4-1.5-2.4S12.6,145.5,12.6,147L12.6,147z"/>
		</g>
		<g>
			<path class="st1" d="M20.9,150.2l-2.8-4.5v4.5h-1v-6.4h0.9l2.8,4.5v-4.5h0.9v6.4H20.9z"/>
		</g>
		<g>
			<path class="st1" d="M26.9,148.3c0,1.2-0.7,2-2.4,2c-0.6,0-1.3-0.1-1.9-0.4v-1c0.6,0.3,1.2,0.4,1.8,0.4c1.1,0,1.5-0.5,1.5-1.1
				s-0.3-0.9-1.2-1c-1.5-0.2-2.1-0.6-2.1-1.8c0-0.9,0.5-1.9,2.3-1.9c0.6,0,1.2,0.1,1.7,0.3v1c-0.5-0.2-1.1-0.3-1.7-0.3
				c-1,0-1.3,0.4-1.3,1s0.4,0.8,1.2,0.9C26.1,146.7,26.9,147,26.9,148.3z"/>
		</g>
		<g>
			<path class="st1" d="M27.5,148.2v-4.4h1v4.3c-0.1,0.6,0.4,1.2,1,1.3c0.1,0,0.2,0,0.3,0c0.6,0.1,1.3-0.3,1.4-1c0-0.1,0-0.2,0-0.3
				v-4.3h1v4.4c0,1.1-0.8,2.1-2,2.1c-0.1,0-0.2,0-0.3,0c-1.1,0.2-2.2-0.5-2.4-1.7C27.5,148.5,27.5,148.4,27.5,148.2z"/>
		</g>
		<g>
			<path class="st1" d="M36.5,149.3h-0.9l-1.6-3.9v4.8h-1v-6.4h1.3l1.7,4.4l1.7-4.4H39v6.4h-1v-4.8L36.5,149.3z"/>
		</g>
		<g>
			<path class="st1" d="M40.9,150.2h-1v-6.4h2c1.6,0,2.2,1,2.2,2s-0.6,2-2.2,2h-1.1L40.9,150.2z M40.9,146.9H42
				c0.6,0,1.1-0.5,1.1-1.1c0-0.6-0.5-1.1-1.1-1.1h-1.1V146.9z"/>
		</g>
		<g>
			<path class="st1" d="M47.1,144.7v5.5h-1v-5.5h-1.6v-0.9h4.3v0.9H47.1z"/>
		</g>
		<g>
			<path class="st1" d="M49.4,150.2v-6.4h1v6.4H49.4z"/>
		</g>
		<g>
			<path class="st1" d="M51.4,147c0-1.8,0.4-3.3,2.5-3.3s2.5,1.5,2.5,3.3s-0.4,3.3-2.5,3.3S51.4,148.8,51.4,147z M52.4,147
				c0,1.5,0.3,2.4,1.5,2.4s1.5-0.9,1.5-2.4s-0.3-2.4-1.5-2.4S52.3,145.5,52.4,147L52.4,147z"/>
		</g>
		<g>
			<path class="st1" d="M60.8,150.2l-2.8-4.5v4.5h-0.9v-6.4H58l2.8,4.5v-4.5h0.9v6.4H60.8z"/>
		</g>
		<g>
			<path class="st1" d="M67.2,148.6h-2l-0.4,1.6h-1l2-6.4h1l2,6.4h-1L67.2,148.6z M66.2,145l-0.8,2.8H67L66.2,145z"/>
		</g>
		<g>
			<path class="st1" d="M72.9,150.2l-2.8-4.5v4.5h-1v-6.4H70l2.8,4.5v-4.5h0.9v6.4H72.9z"/>
		</g>
		<g>
			<path class="st1" d="M74.8,150.2v-6.4h1.9c2.1,0,2.7,1.4,2.7,3.2s-0.6,3.2-2.7,3.2H74.8z M75.7,149.3h1c1.3,0,1.7-0.9,1.7-2.3
				s-0.4-2.3-1.7-2.3h-1V149.3z"/>
		</g>
		<g>
			<path class="st1" d="M7.8,159.2h-1v-6.4h2.1c1.6,0,2.2,1,2.2,2s-0.6,2-2.2,2H7.8V159.2z M7.8,156H9c0.6,0.1,1.2-0.4,1.2-1
				c0.1-0.6-0.4-1.2-1-1.2c-0.1,0-0.1,0-0.2,0H7.8V156z"/>
		</g>
		<g>
			<path class="st1" d="M12.7,159.2h-1v-6.4h2.1c1.6,0,2.2,0.8,2.2,1.9c0.1,0.7-0.3,1.4-1,1.7l1.3,2.8h-1.1l-1.2-2.6h-1.3V159.2z
				 M12.7,155.7H14c0.9,0,1-0.5,1-1s-0.1-1-1-1h-1.3V155.7z"/>
		</g>
		<g>
			<path class="st1" d="M16.8,156c0-1.8,0.4-3.3,2.5-3.3s2.5,1.5,2.5,3.3s-0.4,3.3-2.5,3.3S16.8,157.8,16.8,156z M17.8,156
				c0,1.5,0.3,2.4,1.5,2.4s1.5-0.9,1.5-2.4s-0.3-2.4-1.5-2.4S17.7,154.5,17.8,156L17.8,156z"/>
		</g>
		<g>
			<path class="st1" d="M22.5,159.2v-6.4h1.9c2.1,0,2.7,1.4,2.7,3.2s-0.6,3.2-2.7,3.2H22.5z M23.5,158.3h1c1.3,0,1.7-0.9,1.7-2.3
				s-0.4-2.3-1.7-2.3h-1V158.3z"/>
		</g>
		<g>
			<path class="st1" d="M27.8,157.2v-4.4h1v4.3c-0.1,0.7,0.4,1.2,1,1.3c0.1,0,0.2,0,0.3,0c0.6,0.1,1.3-0.3,1.4-1c0-0.1,0-0.2,0-0.3
				v-4.3h0.9v4.4c0.1,1.1-0.8,2.1-1.9,2.1c-0.2,0-0.3,0-0.4,0c-1.1,0.2-2.1-0.5-2.3-1.6C27.8,157.5,27.8,157.4,27.8,157.2z"/>
		</g>
		<g>
			<path class="st1" d="M35.8,152.7c0.5,0,1,0.1,1.5,0.3v0.9c-0.5-0.2-0.9-0.3-1.4-0.3c-1.2,0-1.7,0.8-1.7,2.4s0.5,2.4,1.7,2.4
				c0.5,0,1-0.1,1.4-0.3v0.9c-0.5,0.2-1,0.3-1.5,0.3c-1.9,0-2.6-1.2-2.6-3.3S33.9,152.7,35.8,152.7z"/>
		</g>
		<g>
			<path class="st1" d="M40.2,153.7v5.5h-1v-5.5h-1.6v-0.9h4.3v0.9H40.2z"/>
		</g>
		<g>
			<path class="st1" d="M42.5,159.2v-6.4h1v6.4H42.5z"/>
		</g>
		<g>
			<path class="st1" d="M44.5,156c0-1.8,0.4-3.3,2.5-3.3s2.5,1.5,2.5,3.3s-0.4,3.3-2.5,3.3S44.5,157.8,44.5,156z M45.5,156
				c0,1.5,0.3,2.4,1.5,2.4s1.5-0.9,1.5-2.4s-0.3-2.4-1.5-2.4S45.4,154.5,45.5,156L45.5,156z"/>
		</g>
		<g>
			<path class="st1" d="M53.8,159.2l-2.8-4.5v4.5h-0.9v-6.4H51l2.8,4.5v-4.5h1v6.4L53.8,159.2z"/>
		</g>
		<g>
			<path class="st1" d="M10.4,165.4H7.8v2.8h-1v-6.4h3.9v0.9H7.8v1.8h2.6V165.4z"/>
		</g>
		<g>
			<path class="st1" d="M12.2,168.2h-0.9v-6.4h2.1c1.6,0,2.2,0.7,2.2,1.9c0.1,0.7-0.3,1.4-1,1.7l1.3,2.8h-1.2l-1.1-2.6h-1.3V168.2z
				 M12.2,164.7h1.3c0.9,0,1-0.5,1-1s-0.1-1-1-1h-1.3V164.7z"/>
		</g>
		<g>
			<path class="st1" d="M19.6,166.6h-2l-0.5,1.6h-1l2-6.4h1l2,6.4H20L19.6,166.6z M18.6,163l-0.8,2.8h1.6L18.6,163z"/>
		</g>
		<g>
			<path class="st1" d="M25,167.3h-0.9l-1.6-3.9l0,4.8h-1v-6.4h1.2l1.7,4.3l1.7-4.3h1.2v6.4h-1v-4.8L25,167.3z"/>
		</g>
		<g>
			<path class="st1" d="M32,165.3h-2.6v2h2.9v0.9h-3.9v-6.4h3.9v0.9h-2.9v1.8H32V165.3z"/>
		</g>
		<g>
			<path class="st1" d="M35.7,161.8h1.2l1.1,5l0.8-5h1l-1.2,6.4h-1.2l-1.2-5.3l-1.2,5.3H34l-1.2-6.4h1l0.8,5L35.7,161.8z"/>
		</g>
		<g>
			<path class="st1" d="M40.2,165c0-1.8,0.4-3.3,2.5-3.3s2.5,1.5,2.5,3.3s-0.4,3.3-2.5,3.3S40.2,166.8,40.2,165z M41.2,165
				c0,1.5,0.3,2.4,1.5,2.4s1.5-0.9,1.5-2.4s-0.3-2.4-1.5-2.4S41.2,163.5,41.2,165L41.2,165z"/>
		</g>
		<g>
			<path class="st1" d="M46.9,168.2H46v-6.4h2.1c1.7,0,2.2,0.7,2.2,1.9c0.1,0.7-0.3,1.4-1,1.7l1.3,2.8h-1.2l-1.2-2.6h-1.3V168.2z
				 M46.9,164.7h1.3c0.9,0,1-0.5,1-1s-0.1-1-1-1h-1.3V164.7z"/>
		</g>
		<g>
			<path class="st1" d="M52.6,165.4l-0.5,0.6v2.2h-1v-6.4h1v2.9l2.3-2.9h1.2l-2.3,2.8l2.6,3.6h-1.2L52.6,165.4z"/>
		</g>
	</g>
	<g>
		<rect x="3.3" y="24" class="st1" width="94.8" height="94.8"/>
	</g>
	<g>
		<path class="st1" d="M98.2,20.7H3.3V3.3h94.8V20.7z M4.3,19.7h92.8V4.3H4.3L4.3,19.7z"/>
	</g>
	<g class="st2">
		<path class="st1" d="M6.7,6.9h4.5v1.4H9.9v8.8H8.1V8.3H6.7V6.9z"/>
	</g>
	<g class="st2">
		<path class="st1" d="M11.2,17.1l1.9-10.2h1.9L17,17.1h-1.8l-0.3-1.9h-1.8l-0.3,1.9H11.2z M13.3,13.9h1.4L14,9.8h0L13.3,13.9z"/>
	</g>
	<g class="st2">
		<path class="st1" d="M19.6,12.4v4.7h-1.7V6.9h2.5c1.7,0,2.4,0.9,2.4,2.3v1.3c0,1.1-0.4,1.7-1.4,2l1.6,4.6h-1.8L19.6,12.4z
			 M19.6,8.3v3.2h0.6c0.6,0,0.8-0.3,0.8-0.8V9.2c0-0.6-0.3-0.8-0.8-0.8H19.6z"/>
	</g>
	<g class="st2">
		<path class="st1" d="M26.4,11.7h2.4v5.4h-1.2V16c-0.2,0.8-0.7,1.2-1.6,1.2c-1.5,0-2.1-1.2-2.1-2.7V9.6c0-1.6,0.8-2.7,2.6-2.7
			c1.9,0,2.4,1.1,2.4,2.6v0.9h-1.6v-1c0-0.6-0.2-1-0.9-1c-0.6,0-0.9,0.4-0.9,1v5.5c0,0.6,0.3,1,0.8,1c0.6,0,0.8-0.3,0.8-1V13h-0.8
			V11.7z"/>
	</g>
	<g class="st2">
		<path class="st1" d="M30.2,6.9h4.1v1.4h-2.4v2.9h1.7v1.4h-1.7v3.1h2.4v1.4h-4.1V6.9z"/>
	</g>
	<g class="st2">
		<path class="st1" d="M35.1,6.9h4.5v1.4h-1.4v8.8h-1.7V8.3h-1.4V6.9z"/>
	</g>
	<g class="st2">
		<path class="st1" d="M79.9,6.9v10.2h-1.7V9.3h0L77,10.6h0V8.8l1.6-1.8H79.9z"/>
		<path class="st1" d="M81.3,15.2c0-1,0.3-1.7,1.3-2.7l1-1c0.6-0.6,0.6-0.9,0.6-1.8V9c0-0.6-0.3-0.8-0.6-0.8c-0.4,0-0.7,0.2-0.7,0.8
			v1.3h-1.6V9c0-1.4,0.8-2.2,2.3-2.2c1.5,0,2.2,0.7,2.2,2.1v1c0,1-0.2,1.6-1.1,2.6l-1.1,1.2c-0.4,0.5-0.7,0.8-0.7,1.6v0.5h2.8v1.4
			h-4.4V15.2z"/>
	</g>
	<g class="st2">
	</g>
	<g class="st2">
		<path class="st1" d="M88.6,10.8c0.7,0,1.2,0.6,1.2,1.2c0,0.7-0.6,1.2-1.2,1.2c-0.7,0-1.2-0.6-1.2-1.2
			C87.3,11.4,87.9,10.8,88.6,10.8z"/>
	</g>
	<g class="st2">
		<path class="st1" d="M94.1,6.9v10.2h-1.7V9.3h0l-1.2,1.2h0V8.8l1.6-1.8H94.1z"/>
	</g>
	<g>
		<g>
			<path class="st0" d="M80.6,71.2c0-6.7-2.8-10.3-5.2-12.1c-2.8-2.1-6.2-3.2-9.6-3.2c-0.8,0-1.6,0.1-2.3,0.2l-0.2,0.1
				c-2.3,0.5-6.1,1.4-10.6,7l-0.1,0.2c-0.1,0.1-0.1,0.2-0.1,0.3c0,0.1,0,0.2,0.1,0.3l0.1,0.2c0.7,1.2,1.3,2.3,1.8,3.2
				c0.1,0.3,0.5,0.4,0.8,0.3c0.1,0,0.1-0.1,0.2-0.2c0,0,0.1-0.1,0.1-0.1c3.8-5.3,6.9-6,8.9-6.5l0.2-0.1c0.4-0.1,0.8-0.1,1.2-0.1
				c2.4,0,4.7,0.7,6.7,2.1c2.2,1.8,3.4,4.6,3.4,8.4c0,6.4-3.1,8.9-5.7,9.8c-1,0.4-2.1,0.6-3.2,0.6c-1.6,0-3.3-0.4-4.7-1.1l-0.2-0.1
				c-2.2-1-5.5-3-8.7-9.3c-6.5-13-11.9-14.1-15.5-15h-0.2c-0.8-0.2-1.5-0.2-2.3-0.2c-3.4,0-6.7,1-9.4,3.1c-2.3,1.9-5.1,5.5-5.1,12.1
				c-0.5,7.7,5.3,14.4,13,14.9c0.4,0,0.8,0,1.2,0c1.1,0,2.2-0.1,3.3-0.3c2-0.4,4-1.3,5.6-2.6l1.9,1.7c0.2,0.2,0.6,0.2,0.8,0
				c0.1-0.1,0.1-0.2,0.1-0.4l1.5-9v-0.1c0-0.3-0.3-0.5-0.5-0.5c0,0,0,0,0,0l0,0L39,77.3h-0.2c-0.1,0-0.2,0.1-0.3,0.2
				c-0.1,0.1-0.2,0.3-0.1,0.4c0,0.1,0.1,0.3,0.2,0.4l1.8,1.6c-0.9,0.5-1.8,0.9-2.8,1.2c-0.8,0.1-1.5,0.2-2.3,0.2
				c-2.9,0.1-5.6-1.2-7.5-3.4l0-0.1c-1.5-2-2-3.7-2-6.7c0-3.8,1.1-6.6,3.3-8.4c1.9-1.4,4.2-2.1,6.5-2.1c0.4,0,0.8,0,1.2,0.1h0.2
				c2.8,0.7,6.8,1.5,12.2,12.4c2.9,5.8,6.5,9.5,11,11.5c2.1,1.1,4.5,1.6,6.9,1.7c1.6,0,3.3-0.3,4.8-0.9
				C74.4,84.5,80.6,81.1,80.6,71.2z"/>
		</g>
		<g>
			<path class="st0" d="M90.8,30.8h-0.2l-9,1c0,0-0.3,0-0.4,0.1c-0.1,0.1,0,0.3,0.1,0.4l0.1,0.1l2,2L72,45.4c-0.1,0.1-0.1,0.3,0,0.4
				l3.4,3.6c0.1,0.1,0.3,0.1,0.4,0l11.4-11l2,2.1c0.2,0.2,0.2,0.2,0.4,0.1c0.1-0.1,0.2-0.2,0.2-0.3l1.3-9.1v-0.1
				c0-0.1-0.1-0.2-0.1-0.3C90.9,30.8,90.8,30.8,90.8,30.8z"/>
		</g>
		<g>
			<path class="st0" d="M10.8,30.8h0.2l9,1c0,0,0.4,0,0.4,0.1c0.1,0.1,0,0.3-0.1,0.4l-0.1,0.1l-2,2l11.4,11c0.1,0.1,0.1,0.3,0,0.4
				c0,0,0,0,0,0l-3.4,3.6c-0.1,0.1-0.3,0.1-0.4,0l-11.4-11l-2,2.1c-0.1,0.2-0.3,0.2-0.4,0.1c-0.1-0.1-0.2-0.2-0.2-0.3l-1.3-9.1v-0.1
				c0-0.1,0-0.2,0.1-0.3C10.6,30.8,10.7,30.8,10.8,30.8z"/>
		</g>
		<g>
			<path class="st0" d="M10.7,112.1h0.2l9-1c0,0,0.4,0,0.4-0.2s0-0.3-0.1-0.4l-0.1-0.1l-2-2l11.4-11c0.1-0.1,0.1-0.3,0-0.4l-3.4-3.6
				c-0.1-0.1-0.3-0.1-0.4,0c0,0,0,0,0,0l-11.4,11l-2-2.1c-0.1-0.2-0.2-0.2-0.4-0.1c-0.1,0.1-0.2,0.2-0.2,0.3l-1.3,9.1v0.1
				c0,0.1,0.1,0.2,0.1,0.3C10.6,112.1,10.7,112.1,10.7,112.1z"/>
		</g>
		<g>
			<path class="st0" d="M90.7,112.1h-0.2l-9-1c0,0-0.3,0-0.4-0.2s0-0.3,0.1-0.4l0.1-0.1l2-2l-11.4-11c-0.1-0.1-0.1-0.3,0-0.4
				c0,0,0,0,0,0l3.4-3.6c0.1-0.1,0.3-0.1,0.4,0l11.4,11l2-2.1c0.2-0.2,0.3-0.2,0.4-0.1c0.1,0.1,0.1,0.2,0.2,0.3l1.3,9.1v0.1
				c0,0.1,0,0.2-0.1,0.3C90.8,112.1,90.8,112.1,90.7,112.1z"/>
		</g>
	</g>
	<g>
		<path class="st1" d="M98.2,171.9h-95v-49.7h95V171.9z M4.2,170.9h93v-47.7h-93V170.9z"/>
	</g>
</g>
</svg>
