<?xml version="1.0" encoding="utf-8"?>
<!-- Generator: Adobe Illustrator 22.0.1, SVG Export Plug-In . SVG Version: 6.00 Build 0)  -->
<svg version="1.1" id="Layer_1" xmlns="http://www.w3.org/2000/svg" xmlns:xlink="http://www.w3.org/1999/xlink" x="0px" y="0px"
	 viewBox="0 0 101.5 184.1" style="enable-background:new 0 0 101.5 184.1;" xml:space="preserve">
<style type="text/css">
	.st0{fill:#FFFFFF;}
	.st1{fill:#BF8B2E;}
	.st2{enable-background:new    ;}
	.st3{fill:none;}
</style>
<title>TARGET 1 B copy 5</title>
<g id="WHITE_BG">
	<g>
		<rect y="0" class="st0" width="101.5" height="184.1"/>
	</g>
</g>
<g id="TARGETS">
	<g>
		<g>
			<path class="st1" d="M10.5,129.3H7.8v2h2.9v0.9H6.9v-6.4h3.9v0.9H7.8v1.8h2.6V129.3z"/>
		</g>
		<g>
			<path class="st1" d="M15.3,132.2l-2.8-4.5v4.5h-0.9v-6.4h0.9l2.8,4.5v-4.5h0.9v6.4H15.3z"/>
		</g>
		<g>
			<path class="st1" d="M19.7,125.7c0.5,0,1,0.1,1.5,0.3v0.9c-0.4-0.2-0.9-0.3-1.4-0.3c-1.2,0-1.7,0.8-1.7,2.4s0.5,2.4,1.7,2.4
				c0.5,0,1-0.1,1.4-0.3v0.9c-0.5,0.2-1,0.3-1.5,0.3c-1.9,0-2.6-1.2-2.6-3.3S17.8,125.7,19.7,125.7z"/>
		</g>
		<g>
			<path class="st1" d="M21.8,129c0-1.8,0.4-3.3,2.5-3.3s2.5,1.5,2.5,3.3s-0.4,3.3-2.5,3.3S21.8,130.8,21.8,129z M22.8,129
				c0,1.5,0.3,2.4,1.5,2.4s1.5-0.9,1.5-2.4s-0.3-2.4-1.5-2.4S22.8,127.5,22.8,129L22.8,129z"/>
		</g>
		<g>
			<path class="st1" d="M27.4,130.2v-4.4h1v4.3c-0.1,0.7,0.4,1.2,1,1.3c0.1,0,0.2,0,0.3,0c0.6,0.1,1.3-0.3,1.4-1c0-0.1,0-0.2,0-0.3
				v-4.3H32v4.4c0.1,1.1-0.8,2.1-1.9,2.1c-0.1,0-0.3,0-0.4,0c-1.1,0.2-2.1-0.6-2.3-1.7C27.4,130.5,27.4,130.3,27.4,130.2z"/>
		</g>
		<g>
			<path class="st1" d="M33.9,132.2H33v-6.4h2c1.7,0,2.2,0.7,2.2,1.9c0.1,0.7-0.3,1.4-1,1.7l1.3,2.8h-1.1l-1.2-2.6h-1.3V132.2z
				 M33.9,128.7h1.3c0.9,0,1-0.5,1-1s-0.1-1-1-1h-1.3V128.7z"/>
		</g>
		<g>
			<path class="st1" d="M41.2,130.6h-2l-0.5,1.6h-1l2-6.4h1l2,6.4h-1L41.2,130.6z M40.2,127l-0.8,2.8H41L40.2,127z"/>
		</g>
		<g>
			<path class="st1" d="M43,129c0-2,0.7-3.3,2.6-3.3c0.6,0,1.2,0.1,1.8,0.3v1c-0.5-0.2-1.1-0.4-1.7-0.4c-1.3,0-1.8,0.9-1.8,2.4
				s0.5,2.4,1.8,2.4c0.3,0,0.6,0,0.9-0.1v-1.7h-1.1v-0.9h2.1v3.2c-0.6,0.3-1.3,0.4-2,0.4C43.7,132.3,43,131,43,129z"/>
		</g>
		<g>
			<path class="st1" d="M52.1,129.3h-2.7v2h2.9v0.9h-3.9v-6.4h3.9v0.9h-2.9v1.8h2.7V129.3z"/>
		</g>
		<g>
			<path class="st1" d="M9.4,134.7c0.5,0,1,0.1,1.5,0.3v0.9c-0.5-0.2-0.9-0.3-1.4-0.3c-1.2,0-1.7,0.8-1.7,2.4s0.5,2.4,1.7,2.4
				c0.5,0,1-0.1,1.4-0.3v0.9c-0.5,0.2-1,0.3-1.5,0.3c-1.9,0-2.6-1.2-2.6-3.3S7.5,134.7,9.4,134.7z"/>
		</g>
		<g>
			<path class="st1" d="M11.6,138c0-1.8,0.4-3.3,2.5-3.3s2.4,1.5,2.4,3.3s-0.4,3.3-2.4,3.3S11.6,139.8,11.6,138z M12.6,138
				c0,1.5,0.3,2.4,1.5,2.4s1.5-0.9,1.5-2.4s-0.3-2.4-1.5-2.4S12.6,136.5,12.6,138L12.6,138z"/>
		</g>
		<g>
			<path class="st1" d="M20.8,140.3h-0.9l-1.6-3.9v4.8h-1v-6.4h1.2l1.7,4.3l1.7-4.3h1.2v6.4h-1v-4.8L20.8,140.3z"/>
		</g>
		<g>
			<path class="st1" d="M25.2,141.2h-1v-6.4h2c1.6,0,2.2,0.9,2.2,2s-0.6,2-2.2,2h-1.1L25.2,141.2z M25.2,137.9h1.1
				c0.6,0.1,1.2-0.4,1.2-1s-0.4-1.2-1-1.2c-0.1,0-0.1,0-0.2,0h-1.1V137.9z"/>
		</g>
		<g>
			<path class="st1" d="M31.5,139.6h-2l-0.5,1.6h-1l2-6.4h1l2,6.4h-1L31.5,139.6z M30.5,136l-0.8,2.8h1.6L30.5,136z"/>
		</g>
		<g>
			<path class="st1" d="M37.2,141.2l-2.8-4.5v4.5h-0.9v-6.4h0.9l2.8,4.5v-4.5h0.9v6.4H37.2z"/>
		</g>
		<g>
			<path class="st1" d="M39.2,141.2v-6.4h1v6.4H39.2z"/>
		</g>
		<g>
			<path class="st1" d="M44.8,138.3h-2.7v2h2.9v0.9h-3.9v-6.4h3.9v0.9h-2.9v1.8h2.7V138.3z"/>
		</g>
		<g>
			<path class="st1" d="M50,139.3c0,1.2-0.7,2-2.4,2c-0.6,0-1.3-0.1-1.9-0.4V140c0.6,0.3,1.2,0.4,1.8,0.4c1.2,0,1.5-0.5,1.5-1.1
				s-0.3-0.9-1.2-1c-1.5-0.2-2.2-0.6-2.2-1.8c0-0.9,0.5-1.8,2.3-1.8c0.6,0,1.2,0.1,1.7,0.3v1c-0.5-0.2-1.1-0.3-1.7-0.3
				c-1,0-1.3,0.4-1.3,1s0.4,0.8,1.2,0.9C49.2,137.7,50,138,50,139.3z"/>
		</g>
		<g>
			<path class="st1" d="M54.2,135.7v5.5h-1v-5.5h-1.7v-0.9h4.3v0.9H54.2z"/>
		</g>
		<g>
			<path class="st1" d="M56,138c0-1.8,0.4-3.3,2.5-3.3s2.5,1.5,2.5,3.3s-0.4,3.3-2.5,3.3S56,139.8,56,138z M57,138
				c0,1.5,0.3,2.4,1.5,2.4s1.5-0.9,1.5-2.4s-0.3-2.4-1.5-2.4S57,136.5,57,138z"/>
		</g>
		<g>
			<path class="st1" d="M66.4,139.6h-2l-0.5,1.6h-1l2-6.4h1l2,6.4h-1L66.4,139.6z M65.4,136l-0.8,2.8h1.6L65.4,136z"/>
		</g>
		<g>
			<path class="st1" d="M68.4,141.2v-6.4h1.9c2.1,0,2.7,1.4,2.7,3.2s-0.6,3.2-2.7,3.2H68.4z M69.4,140.3h1c1.3,0,1.7-0.9,1.7-2.3
				s-0.4-2.3-1.7-2.3h-1V140.3z"/>
		</g>
		<g>
			<path class="st1" d="M73.6,138c0-1.8,0.4-3.3,2.5-3.3s2.4,1.5,2.4,3.3s-0.4,3.3-2.4,3.3S73.6,139.8,73.6,138z M74.6,138
				c0,1.5,0.3,2.4,1.5,2.4s1.5-0.9,1.5-2.4s-0.3-2.4-1.5-2.4S74.6,136.5,74.6,138L74.6,138z"/>
		</g>
		<g>
			<path class="st1" d="M80.2,141.2h-1v-6.4h2c1.6,0,2.2,0.9,2.2,2s-0.6,2-2.2,2h-1V141.2z M80.2,137.9h1.1c0.6,0.1,1.2-0.4,1.2-1
				c0.1-0.6-0.4-1.2-1-1.2c-0.1,0-0.1,0-0.2,0h-1.1V137.9z"/>
		</g>
		<g>
			<path class="st1" d="M86.3,135.7v5.5h-1v-5.5h-1.6v-0.9H88v0.9H86.3z"/>
		</g>
		<g>
			<path class="st1" d="M11.1,148.3c0,1.2-0.7,2-2.4,2c-0.6,0-1.3-0.1-1.9-0.4V149c0.6,0.3,1.2,0.4,1.8,0.4c1.1,0,1.5-0.5,1.5-1.1
				s-0.3-0.9-1.2-1c-1.6-0.2-2.2-0.6-2.2-1.8c0-0.9,0.5-1.8,2.3-1.8c0.6,0,1.2,0.1,1.7,0.3v1c-0.5-0.2-1.1-0.3-1.7-0.3
				c-1,0-1.3,0.4-1.3,1s0.4,0.8,1.2,0.9C10.3,146.7,11.1,147,11.1,148.3z"/>
		</g>
		<g>
			<path class="st1" d="M11.7,148.2v-4.4h1v4.3c-0.1,0.7,0.4,1.3,1.1,1.3c0.1,0,0.2,0,0.3,0c0.6,0.1,1.3-0.3,1.4-1
				c0-0.1,0-0.2,0-0.3v-4.3h0.9v4.4c0.1,1.1-0.8,2.1-1.9,2.1c-0.1,0-0.3,0-0.4,0c-1.1,0.2-2.1-0.6-2.3-1.7
				C11.7,148.5,11.7,148.3,11.7,148.2z"/>
		</g>
		<g>
			<path class="st1" d="M21.3,148.3c0,1.2-0.7,2-2.4,2c-0.6,0-1.3-0.1-1.9-0.4V149c0.6,0.3,1.2,0.4,1.8,0.4c1.1,0,1.5-0.5,1.5-1.1
				s-0.3-0.9-1.2-1c-1.5-0.2-2.2-0.6-2.2-1.8c0-0.9,0.5-1.8,2.3-1.8c0.6,0,1.2,0.1,1.8,0.3v1c-0.5-0.2-1.1-0.3-1.7-0.3
				c-1,0-1.3,0.4-1.3,1s0.4,0.8,1.2,0.9C20.5,146.7,21.3,147,21.3,148.3z"/>
		</g>
		<g>
			<path class="st1" d="M24,144.7v5.5h-1v-5.5h-1.6v-0.9h4.3v0.9H24z"/>
		</g>
		<g>
			<path class="st1" d="M28.7,148.6h-2l-0.5,1.6h-1l2-6.4h1l2,6.4h-1L28.7,148.6z M27.7,145l-0.8,2.8h1.6L27.7,145z"/>
		</g>
		<g>
			<path class="st1" d="M30.9,150.2v-6.4h1v6.4H30.9z"/>
		</g>
		<g>
			<path class="st1" d="M36.6,150.2l-2.8-4.5v4.5h-0.9v-6.4h0.9l2.8,4.5v-4.5h0.9v6.4H36.6z"/>
		</g>
		<g>
			<path class="st1" d="M41.5,148.6h-2l-0.5,1.6h-1l2-6.4h1l2,6.4h-1L41.5,148.6z M40.5,145l-0.8,2.8h1.6L40.5,145z"/>
		</g>
		<g>
			<path class="st1" d="M43.5,143.8h2.2c1.5,0,2,0.8,2,1.7c0,0.5-0.3,1-0.8,1.3c0.6,0.2,1.1,0.8,1,1.5c0,1.1-0.5,1.9-2.2,1.9h-2.2
				L43.5,143.8z M45.7,144.7h-1.2v1.8h1.2c0.8,0,1-0.5,1-0.9S46.5,144.7,45.7,144.7z M44.5,149.3h1.3c0.9,0,1.1-0.5,1.1-1
				s-0.3-1-1.1-1h-1.3L44.5,149.3z"/>
		</g>
		<g>
			<path class="st1" d="M49.6,149.3h2.8v0.9h-3.7v-6.4h1L49.6,149.3z"/>
		</g>
		<g>
			<path class="st1" d="M56.5,147.3h-2.6v2h2.9v0.9h-3.9v-6.4h3.9v0.9h-2.9v1.8h2.7L56.5,147.3z"/>
		</g>
		<g>
			<path class="st1" d="M7.8,159.2h-1v-6.4h2.1c1.6,0,2.2,0.9,2.2,2s-0.6,2-2.2,2H7.8V159.2z M7.8,155.9H9c0.6,0.1,1.2-0.4,1.2-1
				c0.1-0.6-0.4-1.2-1-1.2c-0.1,0-0.1,0-0.2,0H7.8V155.9z"/>
		</g>
		<g>
			<path class="st1" d="M12.7,159.2h-1v-6.4h2.1c1.6,0,2.2,0.7,2.2,1.9c0.1,0.7-0.3,1.4-1,1.7l1.3,2.8h-1.1l-1.2-2.6h-1.3V159.2z
				 M12.7,155.7h1.2c0.9,0,1-0.5,1-1s-0.1-1-1-1h-1.2V155.7z"/>
		</g>
		<g>
			<path class="st1" d="M20,157.6h-2l-0.5,1.6h-1l2-6.4h1l2,6.4h-1L20,157.6z M19,154l-0.8,2.8h1.6L19,154z"/>
		</g>
		<g>
			<path class="st1" d="M24.4,152.7c0.5,0,1,0.1,1.5,0.3v0.9c-0.4-0.2-0.9-0.3-1.4-0.3c-1.2,0-1.7,0.8-1.7,2.4s0.5,2.4,1.7,2.4
				c0.5,0,1-0.1,1.4-0.3v0.9c-0.5,0.2-1,0.3-1.5,0.3c-1.9,0-2.6-1.2-2.6-3.3S22.5,152.7,24.4,152.7z"/>
		</g>
		<g>
			<path class="st1" d="M28.8,153.7v5.5h-1v-5.5h-1.7v-0.9h4.3v0.9H28.8z"/>
		</g>
		<g>
			<path class="st1" d="M31.2,159.2v-6.4h1v6.4H31.2z"/>
		</g>
		<g>
			<path class="st1" d="M35.7,152.7c0.5,0,1,0.1,1.5,0.3v0.9c-0.4-0.2-0.9-0.3-1.4-0.3c-1.2,0-1.7,0.8-1.7,2.4s0.5,2.4,1.7,2.4
				c0.5,0,1-0.1,1.4-0.3v0.9c-0.5,0.2-1,0.3-1.5,0.3c-1.9,0-2.6-1.2-2.6-3.3S33.8,152.7,35.7,152.7z"/>
		</g>
		<g>
			<path class="st1" d="M41.7,156.3H39v2h3v0.9h-3.9v-6.4H42v0.9h-3v1.8h2.7V156.3z"/>
		</g>
		<g>
			<path class="st1" d="M47,157.3c0,1.2-0.7,2-2.4,2c-0.6,0-1.3-0.1-1.9-0.4V158c0.6,0.3,1.2,0.4,1.8,0.4c1.2,0,1.5-0.5,1.5-1.1
				s-0.3-0.9-1.2-1c-1.5-0.2-2.2-0.6-2.2-1.8c0-0.9,0.5-1.8,2.3-1.8c0.6,0,1.2,0.1,1.7,0.3v1c-0.5-0.2-1.1-0.3-1.7-0.3
				c-1,0-1.3,0.4-1.3,1s0.4,0.8,1.2,0.9C46.2,155.7,47,156,47,157.3z"/>
		</g>
		<g>
			<path class="st1" d="M52.4,157.6h-2l-0.5,1.6h-1l2-6.4h1l2,6.4h-1L52.4,157.6z M51.4,154l-0.8,2.8h1.6L51.4,154z"/>
		</g>
		<g>
			<path class="st1" d="M58.1,159.2l-2.8-4.5v4.5h-0.9v-6.4h0.9l2.8,4.5v-4.5h0.9v6.4H58.1z"/>
		</g>
		<g>
			<path class="st1" d="M59.9,159.2v-6.4h1.9c2.1,0,2.7,1.4,2.7,3.2s-0.6,3.2-2.7,3.2H59.9z M60.9,158.3h1c1.3,0,1.7-0.9,1.7-2.3
				s-0.4-2.3-1.7-2.3h-1V158.3z"/>
		</g>
		<g>
			<path class="st1" d="M11.1,166.3c0,1.2-0.7,2-2.4,2c-0.6,0-1.3-0.1-1.9-0.4V167c0.6,0.3,1.2,0.4,1.8,0.4c1.1,0,1.5-0.5,1.5-1.1
				s-0.3-0.9-1.2-1c-1.6-0.2-2.2-0.6-2.2-1.8c0-0.9,0.5-1.8,2.3-1.8c0.6,0,1.2,0.1,1.7,0.3v1c-0.5-0.2-1.1-0.3-1.7-0.3
				c-1,0-1.3,0.4-1.3,1s0.4,0.8,1.2,0.9C10.3,164.7,11.1,165,11.1,166.3z"/>
		</g>
		<g>
			<path class="st1" d="M11.7,166.2v-4.4h1v4.3c-0.1,0.7,0.4,1.3,1.1,1.3c0.1,0,0.2,0,0.3,0c0.6,0.1,1.3-0.3,1.4-1
				c0-0.1,0-0.2,0-0.3v-4.3h0.9v4.4c0.1,1.1-0.8,2.1-1.9,2.1c-0.1,0-0.3,0-0.4,0c-1.1,0.2-2.1-0.6-2.3-1.7
				C11.7,166.5,11.7,166.3,11.7,166.2z"/>
		</g>
		<g>
			<path class="st1" d="M21.3,166.3c0,1.2-0.7,2-2.4,2c-0.6,0-1.3-0.1-1.9-0.4V167c0.6,0.3,1.2,0.4,1.8,0.4c1.1,0,1.5-0.5,1.5-1.1
				s-0.3-0.9-1.2-1c-1.5-0.2-2.2-0.6-2.2-1.8c0-0.9,0.5-1.8,2.3-1.8c0.6,0,1.2,0.1,1.8,0.3v1c-0.5-0.2-1.1-0.3-1.7-0.3
				c-1,0-1.3,0.4-1.3,1s0.4,0.8,1.2,0.9C20.5,164.7,21.3,165,21.3,166.3z"/>
		</g>
		<g>
			<path class="st1" d="M24,162.7v5.5h-1v-5.5h-1.6v-0.9h4.3v0.9H24z"/>
		</g>
		<g>
			<path class="st1" d="M28.7,166.6h-2l-0.5,1.6h-1l2-6.4h1l2,6.4h-1L28.7,166.6z M27.7,163l-0.8,2.8h1.6L27.7,163z"/>
		</g>
		<g>
			<path class="st1" d="M30.9,168.2v-6.4h1v6.4H30.9z"/>
		</g>
		<g>
			<path class="st1" d="M36.6,168.2l-2.8-4.5v4.5h-0.9v-6.4h0.9l2.8,4.5v-4.5h0.9v6.4H36.6z"/>
		</g>
		<g>
			<path class="st1" d="M41.5,166.6h-2l-0.5,1.6h-1l2-6.4h1l2,6.4h-1L41.5,166.6z M40.5,163l-0.8,2.8h1.6L40.5,163z"/>
		</g>
		<g>
			<path class="st1" d="M43.5,161.8h2.2c1.5,0,2,0.8,2,1.7c0,0.5-0.3,1-0.8,1.3c0.6,0.2,1.1,0.8,1,1.5c0,1.1-0.5,1.9-2.2,1.9h-2.2
				L43.5,161.8z M45.7,162.7h-1.2v1.8h1.2c0.8,0,1-0.5,1-0.9S46.5,162.7,45.7,162.7z M44.5,167.3h1.3c0.9,0,1.1-0.5,1.1-1
				s-0.3-1-1.1-1h-1.3L44.5,167.3z"/>
		</g>
		<g>
			<path class="st1" d="M48.8,168.2v-6.4h1v6.4H48.8z"/>
		</g>
		<g>
			<path class="st1" d="M51.7,167.3h2.8v0.9h-3.7v-6.4h1L51.7,167.3z"/>
		</g>
		<g>
			<path class="st1" d="M55.2,168.2v-6.4h1v6.4H55.2z"/>
		</g>
		<g>
			<path class="st1" d="M59.4,162.7v5.5h-1v-5.5h-1.7v-0.9h4.3v0.9H59.4z"/>
		</g>
		<g>
			<path class="st1" d="M64.4,165.6v2.6h-1v-2.6l-2.2-3.8h1.1l1.6,3l1.6-3h1.1L64.4,165.6z"/>
		</g>
		<g>
			<path class="st1" d="M7.8,177.2h-1v-6.4H9c1.6,0,2.2,0.7,2.2,1.9c0.1,0.7-0.3,1.4-1,1.7l1.3,2.8h-1.2l-1.1-2.6H7.8V177.2z
				 M7.8,173.7h1.3c0.9,0,1-0.5,1-1s-0.1-1-1-1H7.8V173.7z"/>
		</g>
		<g>
			<path class="st1" d="M15.7,174.3H13v2h3v0.9h-3.9v-6.4H16v0.9h-3v1.8h2.7L15.7,174.3z"/>
		</g>
		<g>
			<path class="st1" d="M17.8,177.2h-1v-6.4h2c1.6,0,2.2,0.9,2.2,2s-0.6,2-2.2,2h-1.1L17.8,177.2z M17.8,173.9h1.1
				c0.6,0.1,1.2-0.4,1.2-1s-0.4-1.2-1-1.2c-0.1,0-0.1,0-0.2,0h-1.1V173.9z"/>
		</g>
		<g>
			<path class="st1" d="M21.4,174c0-1.8,0.4-3.3,2.5-3.3s2.5,1.5,2.5,3.3s-0.4,3.3-2.5,3.3S21.4,175.8,21.4,174z M22.4,174
				c0,1.5,0.3,2.4,1.5,2.4s1.5-0.9,1.5-2.4s-0.3-2.4-1.5-2.4S22.4,172.5,22.4,174L22.4,174z"/>
		</g>
		<g>
			<path class="st1" d="M28,177.2h-1v-6.4h2.1c1.6,0,2.2,0.7,2.2,1.9c0.1,0.7-0.3,1.4-1,1.7l1.3,2.8h-1.1l-1.2-2.6H28V177.2z
				 M28,173.7h1.3c0.9,0,1-0.5,1-1s-0.1-1-1-1H28V173.7z"/>
		</g>
		<g>
			<path class="st1" d="M34.1,171.7v5.5h-1v-5.5h-1.6v-0.9h4.3v0.9H34.1z"/>
		</g>
		<g>
			<path class="st1" d="M36.5,177.2v-6.4h1v6.4H36.5z"/>
		</g>
		<g>
			<path class="st1" d="M42.2,177.2l-2.8-4.5v4.5h-0.9v-6.4h0.9l2.8,4.5v-4.5h1v6.4H42.2z"/>
		</g>
		<g>
			<path class="st1" d="M43.9,174c0-2,0.7-3.3,2.6-3.3c0.6,0,1.3,0.1,1.8,0.3v1c-0.5-0.2-1.1-0.4-1.7-0.4c-1.3,0-1.8,0.9-1.8,2.4
				s0.5,2.4,1.8,2.4c0.3,0,0.6,0,0.9-0.1v-1.7h-1.1v-0.9h2.1v3.2c-0.6,0.3-1.3,0.4-2,0.4C44.6,177.3,43.9,176,43.9,174z"/>
		</g>
	</g>
	<g>
		<rect x="3.3" y="24" class="st1" width="94.8" height="94.8"/>
	</g>
	<g>
		<path class="st1" d="M98.2,20.7H3.3V3.3h94.8V20.7z M4.3,19.7h92.8V4.3H4.3L4.3,19.7z"/>
	</g>
	<g class="st2">
		<path class="st1" d="M6.7,6.9h4.5v1.4H9.9v8.8H8.1V8.3H6.7V6.9z"/>
	</g>
	<g class="st2">
		<path class="st1" d="M11.2,17.1l1.9-10.2h1.9L17,17.1h-1.8l-0.3-1.9h-1.8l-0.3,1.9H11.2z M13.3,13.9h1.4L14,9.8h0L13.3,13.9z"/>
	</g>
	<g class="st2">
		<path class="st1" d="M19.6,12.4v4.7h-1.7V6.9h2.5c1.7,0,2.4,0.9,2.4,2.3v1.3c0,1.1-0.4,1.7-1.4,2l1.6,4.6h-1.8L19.6,12.4z
			 M19.6,8.3v3.2h0.6c0.6,0,0.8-0.3,0.8-0.8V9.2c0-0.6-0.3-0.8-0.8-0.8H19.6z"/>
	</g>
	<g class="st2">
		<path class="st1" d="M26.4,11.7h2.4v5.4h-1.2V16c-0.2,0.8-0.7,1.2-1.6,1.2c-1.5,0-2.1-1.2-2.1-2.7V9.6c0-1.6,0.8-2.7,2.6-2.7
			c1.9,0,2.4,1.1,2.4,2.6v0.9h-1.6v-1c0-0.6-0.2-1-0.9-1c-0.6,0-0.9,0.4-0.9,1v5.5c0,0.6,0.3,1,0.8,1c0.6,0,0.8-0.3,0.8-1V13h-0.8
			V11.7z"/>
	</g>
	<g class="st2">
		<path class="st1" d="M30.2,6.9h4.1v1.4h-2.4v2.9h1.7v1.4h-1.7v3.1h2.4v1.4h-4.1V6.9z"/>
	</g>
	<g class="st2">
		<path class="st1" d="M35.1,6.9h4.5v1.4h-1.4v8.8h-1.7V8.3h-1.4V6.9z"/>
	</g>
	<g>
		<path class="st1" d="M98.2,180.9h-95v-58.7h95V180.9z M4.2,179.9h93v-56.7h-93V179.9z"/>
	</g>
	<g>
		<g>
			<g>
				<path class="st0" d="M77.1,50.9c-1.2,0-2.2,0.9-2.2,2.1c0,0,0,0,0,0.1v2.3h4.4V53C79.2,51.8,78.3,50.9,77.1,50.9
					C77.1,50.9,77.1,50.9,77.1,50.9z"/>
			</g>
			<g>
				<polygon class="st0" points="78.1,56.9 77.5,56.9 76.4,56.9 75.9,56.9 75.4,56.9 74.8,56.9 74.6,86.5 75.2,86.5 74.6,86.5 
					76.8,93.9 79,86.6 79.2,56.9 78.7,56.9 				"/>
			</g>
		</g>
		<g>
			<g>
				<path class="st3" d="M62,83.7H38.2c-0.1,0-0.2,0.1-0.2,0.2v3.8c0,0.1,0.1,0.2,0.3,0.2H62c0.2,0,0.3-0.1,0.3-0.2v-3.8
					C62.3,83.8,62.2,83.7,62,83.7z"/>
			</g>
			<g>
				<path class="st3" d="M38.2,81.1H62c0.2,0,0.3-0.1,0.3-0.2v-3.8c0-0.1-0.1-0.2-0.3-0.2H38.2c-0.1,0-0.3,0.1-0.3,0.2v3.8
					C37.9,81,38,81.1,38.2,81.1z"/>
			</g>
			<g>
				<polygon class="st0" points="30.1,96.9 30.1,51.4 27.5,51.4 27.6,99.8 62.3,99.8 62.3,96.9 				"/>
			</g>
			<g>
				<path class="st0" d="M67.4,45.5H32.7v5.9v42.5h29.5h5.2V45.5z M37.9,77.1c0-0.1,0.1-0.2,0.3-0.2H62c0.2,0,0.3,0.1,0.3,0.2v3.8
					c0,0.1-0.1,0.2-0.3,0.2H38.2c-0.1,0-0.3-0.1-0.3-0.2L37.9,77.1z M62,87.8H38.2c-0.2,0-0.3-0.1-0.3-0.2v-3.8
					c0-0.1,0.1-0.2,0.2-0.2H62c0.2,0,0.3,0.1,0.3,0.2v3.8C62.3,87.8,62.2,87.8,62,87.8z M58.8,68.2c-0.6,0.2-1.3,0.4-2,0.4
					c-1,0-2-0.2-2.8-0.7c-2-1-3.6-2.6-4.5-4.7c-2.2-4.3-3.7-4.7-4.8-5h-0.1c-0.2,0-0.3,0-0.5,0c-0.9,0-1.8,0.3-2.6,0.8
					c-0.9,0.8-1.4,2.1-1.3,3.3c-0.1,0.9,0.2,1.9,0.8,2.6l0,0c0.7,0.9,1.8,1.3,2.9,1.3c0.3,0,0.6,0,0.9-0.1c0.4-0.1,0.7-0.2,1-0.4
					l-0.6-0.6c-0.1-0.1-0.1-0.1-0.1-0.2c0-0.1,0-0.2,0.1-0.2c0-0.1,0.1-0.1,0.2-0.1h0.1l3.5-1c0.1,0,0.2,0,0.2,0.1
					c0.1,0.1,0.1,0.1,0.1,0.2l0,0l-0.6,3.6c0,0.1,0,0.2-0.1,0.2c-0.1,0.1-0.4,0.1-0.5,0l-0.7-0.6c-0.7,0.5-1.4,0.8-2.2,1
					c-0.4,0.1-0.9,0.1-1.3,0.1c-3.2,0.1-5.9-2.5-5.9-5.7c0-0.1,0-0.2,0-0.4c-0.1-1.9,0.7-3.8,2.1-5c1.1-0.9,2.5-1.3,3.9-1.3
					c0.3,0,0.7,0,1,0.1h0.1c1.5,0.3,3.7,0.8,6.3,6.1c1.2,2.5,2.6,3.3,3.5,3.7H55c0.6,0.3,1.2,0.4,1.9,0.4c0.4,0,0.8,0,1.2-0.2
					c1-0.4,2.2-1.3,2.2-3.8c0.1-1.2-0.4-2.5-1.3-3.3c-0.8-0.5-1.7-0.8-2.6-0.8c-0.2,0-0.3,0-0.5,0h-0.1c-0.8,0.2-2,0.5-3.5,2.6l0,0
					l0,0c-0.1,0.1-0.4,0.2-0.5,0c0,0,0-0.1-0.1-0.1c-0.2-0.4-0.4-0.8-0.7-1.3v-0.1c0-0.1,0-0.1,0-0.2c0-0.1,0-0.1,0.1-0.2l0.1-0.1
					c1-1.5,2.6-2.5,4.3-2.9h0.1c0.3-0.1,0.7-0.1,1-0.1c1.4,0,2.8,0.4,4,1.3c1.5,1.2,2.3,3.1,2.1,5C62.4,66.4,59.9,67.8,58.8,68.2z"
					/>
			</g>
		</g>
	</g>
	<g class="st2">
		<path class="st1" d="M77.9,6.9v10.2h-1.7V9.3h0l-1.2,1.2h0V8.8l1.6-1.8H77.9z"/>
		<path class="st1" d="M79.2,15.2c0-1,0.3-1.7,1.3-2.7l1-1c0.6-0.6,0.6-0.9,0.6-1.8V9c0-0.6-0.3-0.8-0.6-0.8c-0.4,0-0.7,0.2-0.7,0.8
			v1.3h-1.6V9c0-1.4,0.8-2.2,2.3-2.2c1.5,0,2.2,0.7,2.2,2.1v1c0,1-0.2,1.6-1.1,2.6l-1.1,1.2c-0.4,0.5-0.7,0.8-0.7,1.6v0.5h2.8v1.4
			h-4.4V15.2z"/>
	</g>
	<g class="st2">
	</g>
	<g class="st2">
		<path class="st1" d="M86.5,10.8c0.7,0,1.2,0.6,1.2,1.2c0,0.7-0.6,1.2-1.2,1.2c-0.7,0-1.2-0.6-1.2-1.2
			C85.3,11.4,85.9,10.8,86.5,10.8z"/>
	</g>
	<g class="st2">
		<path class="st1" d="M89.3,14.5v-5c0-1.6,0.7-2.7,2.5-2.7c1.9,0,2.4,1.1,2.4,2.6v0.5h-1.6V9.2c0-0.6-0.2-1-0.8-1
			c-0.6,0-0.8,0.4-0.8,1v2.2h0c0.3-0.5,0.7-0.8,1.4-0.8c1.2,0,1.9,0.8,1.9,2.5v1.5c0,1.6-0.7,2.6-2.5,2.6
			C90,17.2,89.3,16.1,89.3,14.5z M92.7,14.8V13c0-0.7-0.2-1-0.8-1c-0.5,0-0.8,0.4-0.8,0.9v1.9c0,0.6,0.2,1,0.8,1
			C92.4,15.8,92.7,15.5,92.7,14.8z"/>
	</g>
</g>
</svg>
