<?xml version="1.0" encoding="utf-8"?>
<!-- Generator: Adobe Illustrator 22.0.1, SVG Export Plug-In . SVG Version: 6.00 Build 0)  -->
<svg version="1.1" id="Layer_1" xmlns="http://www.w3.org/2000/svg" xmlns:xlink="http://www.w3.org/1999/xlink" x="0px" y="0px"
	 viewBox="0 0 101.5 148.2" style="enable-background:new 0 0 101.5 148.2;" xml:space="preserve">
<style type="text/css">
	.st0{fill:#FFFFFF;}
	.st1{fill:#BF8B2E;}
	.st2{enable-background:new    ;}
</style>
<title>TARGET 1.3</title>
<g id="WHITE_BG">
	<g>
		<rect y="0" class="st0" width="101.5" height="148.2"/>
	</g>
</g>
<g id="TARGETS">
	<g>
		<g>
			<path class="st1" d="M10.4,132.2v-2.9H7.8v2.9h-1v-6.4h1v2.6h2.6v-2.6h1v6.4L10.4,132.2z"/>
		</g>
		<g>
			<path class="st1" d="M15.6,130.6h-2l-0.4,1.6H12l2-6.5h1l2,6.5h-1L15.6,130.6z M14.6,127l-0.8,2.8h1.6L14.6,127z"/>
		</g>
		<g>
			<path class="st1" d="M18.6,131.3h2.8v0.9h-3.7v-6.4h1L18.6,131.3z"/>
		</g>
		<g>
			<path class="st1" d="M25.7,125.8l-2,6.4h-1l-2-6.4h1l1.5,5.2l1.5-5.2L25.7,125.8z"/>
		</g>
		<g>
			<path class="st1" d="M29.9,129.3h-2.6v2h2.9v0.9h-3.9v-6.4h3.9v0.9h-2.9v1.8h2.6V129.3z"/>
		</g>
		<g>
			<path class="st1" d="M32.5,129c0-2,0.7-3.3,2.6-3.3c0.6,0,1.3,0.1,1.8,0.3v1c-0.5-0.2-1.1-0.4-1.7-0.4c-1.3,0-1.8,0.9-1.8,2.4
				s0.5,2.4,1.8,2.4c0.3,0,0.6,0,0.9-0.1v-1.8h-1.1v-0.9h2.1v3.2c-0.6,0.3-1.3,0.4-2,0.4C33.2,132.3,32.5,131,32.5,129z"/>
		</g>
		<g>
			<path class="st1" d="M39,131.3h2.8v0.9h-3.7v-6.4H39V131.3z"/>
		</g>
		<g>
			<path class="st1" d="M42,129c0-1.8,0.4-3.3,2.5-3.3s2.5,1.5,2.5,3.3s-0.4,3.3-2.5,3.3S42,130.8,42,129z M43,129
				c0,1.5,0.3,2.4,1.5,2.4s1.5-0.9,1.5-2.4s-0.3-2.4-1.5-2.4S42.9,127.5,43,129L43,129z"/>
		</g>
		<g>
			<path class="st1" d="M47.7,125.8h2.1c1.5,0,2,0.8,2,1.7c0,0.5-0.3,1-0.8,1.3c0.6,0.2,1.1,0.8,1,1.5c0,1-0.5,1.9-2.2,1.9h-2.2
				V125.8z M49.9,126.7h-1.2v1.8h1.2c0.8,0,0.9-0.5,0.9-0.9S50.7,126.7,49.9,126.7z M48.7,131.3H50c0.9,0,1.1-0.5,1.1-1
				s-0.3-1-1.1-1h-1.3V131.3z"/>
		</g>
		<g>
			<path class="st1" d="M56,130.6h-2l-0.5,1.6h-1l2-6.5h1l2,6.5h-1L56,130.6z M55,127l-0.8,2.8h1.6L55,127z"/>
		</g>
		<g>
			<path class="st1" d="M59.1,131.3h2.8v0.9h-3.7v-6.4h1L59.1,131.3z"/>
		</g>
		<g>
			<path class="st1" d="M65.1,132.2h-0.9v-6.4h2c1.6,0,2.2,1,2.2,2c0,1-0.6,2-2.2,2h-1.1V132.2z M65.1,128.9h1.1
				c0.6,0,1.1-0.5,1.1-1.1c0-0.6-0.5-1.1-1.1-1.1c0,0,0,0,0,0h-1.1V128.9z"/>
		</g>
		<g>
			<path class="st1" d="M72.6,129.3h-2.7v2h2.9v0.9H69v-6.4h3.9v0.9h-2.9v1.8h2.7V129.3z"/>
		</g>
		<g>
			<path class="st1" d="M74.7,132.2h-1v-6.4h2.1c1.7,0,2.2,0.7,2.2,1.9c0.1,0.7-0.3,1.4-1,1.7l1.3,2.8h-1.1l-1.1-2.6h-1.3V132.2z
				 M74.7,128.7h1.3c0.9,0,1-0.5,1-1s-0.1-1-1-1h-1.3V128.7z"/>
		</g>
		<g>
			<path class="st1" d="M9.4,134.7c0.5,0,1,0.1,1.5,0.3v0.9c-0.5-0.2-0.9-0.3-1.4-0.3c-1.2,0-1.7,0.8-1.7,2.4s0.5,2.4,1.7,2.4
				c0.5,0,1-0.1,1.4-0.3v0.9c-0.5,0.2-1,0.3-1.5,0.3c-1.9,0-2.6-1.2-2.6-3.3S7.5,134.7,9.4,134.7z"/>
		</g>
		<g>
			<path class="st1" d="M14.9,139.6h-2l-0.4,1.6h-1l2-6.5h1l2,6.5h-1L14.9,139.6z M13.9,136l-0.8,2.8h1.6L13.9,136z"/>
		</g>
		<g>
			<path class="st1" d="M18,141.2h-1v-6.4h2c1.6,0,2.2,0.9,2.2,2s-0.6,2-2.2,2h-1V141.2z M18,138h1.1c0.6,0,1.1-0.5,1.1-1.1
				c0-0.6-0.5-1.1-1.1-1.1H18V138z"/>
		</g>
		<g>
			<path class="st1" d="M22,141.2v-6.4h1v6.4H22z"/>
		</g>
		<g>
			<path class="st1" d="M26.4,135.7v5.5h-1v-5.5h-1.6v-0.9h4.3v0.9H26.4z"/>
		</g>
		<g>
			<path class="st1" d="M31.3,139.6h-2l-0.5,1.6h-1l2-6.5h1l2,6.5h-1L31.3,139.6z M30.3,136l-0.8,2.8h1.6L30.3,136z"/>
		</g>
		<g>
			<path class="st1" d="M38.5,138.4H36v2.8h-1v-6.4h3.8v0.9H36v1.8h2.6L38.5,138.4z"/>
		</g>
		<g>
			<path class="st1" d="M39.5,138c0-1.8,0.4-3.3,2.5-3.3s2.5,1.5,2.5,3.3s-0.4,3.3-2.5,3.3S39.5,139.8,39.5,138z M40.5,138
				c0,1.5,0.3,2.4,1.5,2.4s1.5-0.9,1.5-2.4s-0.3-2.4-1.5-2.4S40.5,136.5,40.5,138L40.5,138z"/>
		</g>
		<g>
			<path class="st1" d="M45.2,138c0-1.8,0.4-3.3,2.5-3.3s2.5,1.5,2.5,3.3s-0.4,3.3-2.5,3.3S45.2,139.8,45.2,138z M46.2,138
				c0,1.5,0.3,2.4,1.5,2.4s1.5-0.9,1.5-2.4s-0.3-2.4-1.5-2.4S46.1,136.5,46.2,138L46.2,138z"/>
		</g>
		<g>
			<path class="st1" d="M51,141.2v-6.4h1.9c2.1,0,2.7,1.4,2.7,3.2s-0.6,3.2-2.7,3.2H51z M52,140.3h1c1.3,0,1.7-0.9,1.7-2.3
				s-0.4-2.3-1.7-2.3h-1V140.3z"/>
		</g>
		<g>
			<path class="st1" d="M60.5,134.8h1.2l1.1,5l0.8-5h1l-1.2,6.4h-1.2l-1.2-5.3l-1.2,5.3h-1.2l-1.2-6.4h1l0.8,5L60.5,134.8z"/>
		</g>
		<g>
			<path class="st1" d="M68,139.6h-2l-0.4,1.6h-1l2-6.5h1l2,6.5h-1L68,139.6z M67,136l-0.8,2.8h1.6L67,136z"/>
		</g>
		<g>
			<path class="st1" d="M74.1,139.3c0,1.2-0.7,2-2.4,2c-0.6,0-1.3-0.1-1.9-0.4V140c0.6,0.3,1.2,0.4,1.8,0.4c1.1,0,1.5-0.5,1.5-1.1
				s-0.3-0.9-1.2-1c-1.6-0.2-2.2-0.6-2.2-1.8c0-0.9,0.5-1.8,2.3-1.8c0.6,0,1.2,0.1,1.7,0.3v1c-0.5-0.2-1.1-0.3-1.7-0.3
				c-1,0-1.3,0.4-1.3,1s0.4,0.8,1.2,0.9C73.3,137.7,74.1,138,74.1,139.3z"/>
		</g>
		<g>
			<path class="st1" d="M77,135.7v5.5h-1v-5.5h-1.6v-0.9h4.3v0.9H77z"/>
		</g>
		<g>
			<path class="st1" d="M82.9,138.3h-2.7v2h2.9v0.9h-3.9v-6.4h3.9v0.9h-2.9v1.8h2.7V138.3z"/>
		</g>
	</g>
	<g>
		<rect x="3.3" y="24" class="st1" width="94.8" height="94.8"/>
	</g>
	<g>
		<path class="st1" d="M98.2,20.7H3.3V3.3h94.8V20.7z M4.3,19.7h92.8V4.3H4.3L4.3,19.7z"/>
	</g>
	<g class="st2">
		<path class="st1" d="M6.7,6.9h4.5v1.4H9.9v8.8H8.1V8.3H6.7V6.9z"/>
	</g>
	<g class="st2">
		<path class="st1" d="M11.2,17.1l1.9-10.2h1.9L17,17.1h-1.8l-0.3-1.9h-1.8l-0.3,1.9H11.2z M13.3,13.9h1.4L14,9.8h0L13.3,13.9z"/>
	</g>
	<g class="st2">
		<path class="st1" d="M19.6,12.4v4.7h-1.7V6.9h2.5c1.7,0,2.4,0.9,2.4,2.3v1.3c0,1.1-0.4,1.7-1.4,2l1.6,4.6h-1.8L19.6,12.4z
			 M19.6,8.3v3.2h0.6c0.6,0,0.8-0.3,0.8-0.8V9.2c0-0.6-0.3-0.8-0.8-0.8H19.6z"/>
	</g>
	<g class="st2">
		<path class="st1" d="M26.4,11.7h2.4v5.4h-1.2V16c-0.2,0.8-0.7,1.2-1.6,1.2c-1.5,0-2.1-1.2-2.1-2.7V9.6c0-1.6,0.8-2.7,2.6-2.7
			c1.9,0,2.4,1.1,2.4,2.6v0.9h-1.6v-1c0-0.6-0.2-1-0.9-1c-0.6,0-0.9,0.4-0.9,1v5.5c0,0.6,0.3,1,0.8,1c0.6,0,0.8-0.3,0.8-1V13h-0.8
			V11.7z"/>
	</g>
	<g class="st2">
		<path class="st1" d="M30.2,6.9h4.1v1.4h-2.4v2.9h1.7v1.4h-1.7v3.1h2.4v1.4h-4.1V6.9z"/>
	</g>
	<g class="st2">
		<path class="st1" d="M35.1,6.9h4.5v1.4h-1.4v8.8h-1.7V8.3h-1.4V6.9z"/>
	</g>
	<g class="st2">
		<path class="st1" d="M78.1,6.9v10.2h-1.7V9.3h0l-1.2,1.2h0V8.8l1.6-1.8H78.1z"/>
		<path class="st1" d="M79.5,15.2c0-1,0.3-1.7,1.3-2.7l1-1c0.6-0.6,0.6-0.9,0.6-1.8V9c0-0.6-0.3-0.8-0.6-0.8c-0.4,0-0.7,0.2-0.7,0.8
			v1.3h-1.6V9c0-1.4,0.8-2.2,2.3-2.2C83.3,6.8,84,7.5,84,9v1c0,1-0.2,1.6-1.1,2.6l-1.1,1.2c-0.4,0.5-0.7,0.8-0.7,1.6v0.5h2.8v1.4
			h-4.4V15.2z"/>
	</g>
	<g class="st2">
	</g>
	<g class="st2">
		<path class="st1" d="M86.8,10.8c0.7,0,1.2,0.6,1.2,1.2c0,0.7-0.6,1.2-1.2,1.2c-0.7,0-1.2-0.6-1.2-1.2
			C85.6,11.4,86.1,10.8,86.8,10.8z"/>
	</g>
	<g class="st2">
		<path class="st1" d="M94.3,9.1V10c0,0.9-0.5,1.4-1.2,1.7c0.9,0.2,1.3,0.8,1.3,1.7v1.5c0,1.4-0.8,2.3-2.5,2.3c-1.7,0-2.4-1-2.4-2.5
			v-1.3h1.6v1.5c0,0.6,0.2,1,0.8,1c0.5,0,0.8-0.4,0.8-0.9v-1.7c0-0.5-0.2-0.8-0.8-0.8h-0.7v-1.3h0.6c0.6,0,0.9-0.3,0.9-0.8V9.2
			c0-0.6-0.2-0.9-0.7-0.9s-0.7,0.4-0.7,1v1h-1.6V9.4c0-1.5,0.6-2.6,2.4-2.6C93.6,6.8,94.3,7.7,94.3,9.1z"/>
	</g>
	<g>
		<g>
			<g>
				<path class="st0" d="M77.8,47.5H23.6c-0.4,0-0.8,0.3-0.8,0.8l0,0l3.8,57.2c0,0.4,0.3,0.8,0.7,0.8c0,0,0,0,0,0H74
					c0.4,0,0.8-0.3,0.8-0.8l3.8-57.2C78.6,47.8,78.3,47.5,77.8,47.5z M71.9,103.2H29.6L26,50.5h49.4L71.9,103.2z"/>
			</g>
			<g>
				<path class="st0" d="M78.6,39.7H58.9v-2.3c0-0.4-0.3-0.8-0.8-0.8l0,0H43.2c-0.4,0-0.8,0.3-0.8,0.8v2.3H22.9
					c-0.4,0-0.8,0.3-0.8,0.7c0,0,0,0,0,0l0.5,3.2c0,0.4,0.3,0.8,0.8,0.8l0,0h54.7c0.4,0,0.8-0.3,0.8-0.8l0.5-3.2
					C79.4,40.1,79,39.8,78.6,39.7C78.6,39.7,78.6,39.7,78.6,39.7z"/>
			</g>
		</g>
		<g>
			<g>
				<path class="st0" d="M52.3,65.7L52.3,65.7L52.3,65.7L52.3,65.7c0.4,0.6,2.8,3.6,6.1,3.6c2.9,0,6-2.6,6-2.6
					c0.7,1.4,2,2.4,3.6,2.6l0,0c0,0,0.1,0,0.1-0.1l0,0l0,0c-0.6-1-1-2.2-1.1-3.4c0.1-1.2,0.4-2.4,1.1-3.4c0,0,0-0.1,0-0.1
					c0,0-0.1-0.1-0.1-0.1l0,0c-1.5,0.3-2.8,1.2-3.6,2.6c0,0-3.1-2.6-6-2.6C55,62.1,52.6,65.1,52.3,65.7 M56.5,66.1c-0.6,0-1-0.4-1-1
					s0.4-1,1-1s1,0.4,1,1S57.1,66.1,56.5,66.1"/>
			</g>
			<g>
				<g>
					<path class="st0" d="M44.3,85.6v4c0,2.3-1.1,3.8-3.9,3.8s-3.8-1.6-3.8-4.1v-1.8h2.5v2.1c0,1,0.3,1.6,1.3,1.6s1.2-0.6,1.2-1.5
						v-4c0-0.9-0.3-1.5-1.2-1.5s-1.2,0.5-1.2,1.5V86h-2.5v-9.3h7.3V79h-4.8v4.1l0,0c0.5-0.8,1.4-1.2,2.3-1.1
						C42.9,82,44.3,83,44.3,85.6z"/>
				</g>
				<g>
					<path class="st0" d="M45.4,89v-8c0-2.6,1.3-4.4,4.1-4.4s4.1,1.9,4.1,4.4v8c0,2.6-1.3,4.4-4.1,4.4S45.4,91.5,45.4,89z
						 M50.8,89.4v-8.9c0-1-0.4-1.7-1.3-1.7s-1.3,0.7-1.3,1.7v8.8c0,1,0.4,1.7,1.3,1.7S50.8,90.4,50.8,89.4L50.8,89.4z"/>
				</g>
				<g>
					<path class="st0" d="M54.6,80.5v-0.7c0-1.9,1-3.2,3.1-3.2s3.1,1.3,3.1,3.2v0.7c0,1.9-1,3.2-3.1,3.2S54.6,82.5,54.6,80.5z
						 M65.8,76.8l-9,16.5h-1.7l9-16.5H65.8z M58.6,80.8v-1.3c0-0.7-0.2-1.2-1-1.2s-1,0.5-1,1.2v1.3c0,0.7,0.2,1.2,1,1.2
						S58.6,81.6,58.6,80.8z M60.2,90.2v-0.7c0-1.9,1-3.2,3.1-3.2s3.1,1.3,3.1,3.2v0.7c0,1.9-1,3.2-3.1,3.2S60.2,92.1,60.2,90.2z
						 M64.2,90.5v-1.3c0-0.7-0.2-1.2-0.9-1.2s-1,0.5-1,1.2v1.3c0,0.7,0.2,1.2,1,1.2S64.2,91.2,64.2,90.5L64.2,90.5z"/>
				</g>
			</g>
		</g>
		<g>
			<g>
				<path class="st0" d="M39.1,68.6V69l0,0c0,0.1,0.1,0.2,0.2,0.2h4.5c0.1,0,0.2,0,0.2-0.1c0,0,0,0,0,0l0,0v-0.4
					c2.5-0.8,4.3-2.8,4.8-5.4l0,0l0,0c0-0.1-0.1-0.2-0.2-0.2l0,0H34.3c-0.1,0-0.2,0.1-0.2,0.2l0,0v0.1
					C34.7,65.9,36.6,67.9,39.1,68.6"/>
			</g>
			<g>
				<path class="st0" d="M44,56.9c-0.1,0.1-1.4,2.1,0,3.7c0.5,0.5,0.7,1.2,0.4,1.8h0.9c0.2-0.8,0-1.7-0.7-2.3c-1.1-1.2,0-2.8,0-2.8
					c0.1-0.2,0.1-0.4-0.1-0.5c0,0,0,0-0.1,0C44.3,56.7,44.1,56.7,44,56.9"/>
			</g>
			<g>
				<path class="st0" d="M41.6,62.4h0.9c0.2-0.8,0-1.7-0.7-2.3c-1.1-1.2,0-2.8,0-2.8c0.1-0.2,0.1-0.4-0.1-0.5c0,0,0,0-0.1,0
					c-0.2-0.1-0.5-0.1-0.6,0.1c-0.1,0.1-1.4,2.1,0,3.7C41.6,61,41.8,61.8,41.6,62.4"/>
			</g>
			<g>
				<path class="st0" d="M38.3,56.9c-0.1,0.1-1.4,2.1,0,3.7c0.5,0.5,0.7,1.2,0.4,1.8h0.9c0.2-0.8,0-1.7-0.7-2.3
					c-1.1-1.2,0-2.8,0-2.8c0.1-0.2,0.1-0.4-0.1-0.5c0,0,0,0-0.1,0C38.6,56.7,38.4,56.7,38.3,56.9"/>
			</g>
		</g>
	</g>
	<g>
		<path class="st1" d="M98.2,144.9h-95v-22.8h95V144.9z M4.2,143.9h93v-20.8h-93V143.9z"/>
	</g>
</g>
</svg>
