<?xml version="1.0" encoding="utf-8"?>
<!-- Generator: Adobe Illustrator 22.0.1, SVG Export Plug-In . SVG Version: 6.00 Build 0)  -->
<svg version="1.1" id="Layer_1" xmlns="http://www.w3.org/2000/svg" xmlns:xlink="http://www.w3.org/1999/xlink" x="0px" y="0px"
	 viewBox="0 0 101.5 184.1" style="enable-background:new 0 0 101.5 184.1;" xml:space="preserve">
<style type="text/css">
	.st0{fill:#FFFFFF;}
	.st1{fill:#00689D;}
	.st2{enable-background:new    ;}
</style>
<title>TARGET 1 B copy 15</title>
<g id="WHITE_BG">
	<g>
		<rect y="0" class="st0" width="101.5" height="184.1"/>
	</g>
</g>
<g id="TARGETS">
	<g>
		<rect x="3.3" y="24" class="st1" width="94.8" height="94.8"/>
	</g>
	<g>
		<path class="st1" d="M98.2,20.7H3.3V3.3h94.8V20.7z M4.3,19.7h92.8V4.3H4.3L4.3,19.7z"/>
	</g>
	<g class="st2">
		<path class="st1" d="M6.7,6.9h4.5v1.4H9.9v8.8H8.1V8.3H6.7V6.9z"/>
	</g>
	<g class="st2">
		<path class="st1" d="M11.2,17.1l1.9-10.2h1.9L17,17.1h-1.8l-0.3-1.9h-1.8l-0.3,1.9H11.2z M13.3,13.9h1.4L14,9.8h0L13.3,13.9z"/>
	</g>
	<g class="st2">
		<path class="st1" d="M19.6,12.4v4.7h-1.7V6.9h2.5c1.7,0,2.4,0.9,2.4,2.3v1.3c0,1.1-0.4,1.7-1.4,2l1.6,4.6h-1.8L19.6,12.4z
			 M19.6,8.3v3.2h0.6c0.6,0,0.8-0.3,0.8-0.8V9.2c0-0.6-0.3-0.8-0.8-0.8H19.6z"/>
	</g>
	<g class="st2">
		<path class="st1" d="M26.4,11.7h2.4v5.4h-1.2V16c-0.2,0.8-0.7,1.2-1.6,1.2c-1.5,0-2.1-1.2-2.1-2.7V9.6c0-1.6,0.8-2.7,2.6-2.7
			c1.9,0,2.4,1.1,2.4,2.6v0.9h-1.6v-1c0-0.6-0.2-1-0.9-1c-0.6,0-0.9,0.4-0.9,1v5.5c0,0.6,0.3,1,0.8,1c0.6,0,0.8-0.3,0.8-1V13h-0.8
			V11.7z"/>
	</g>
	<g class="st2">
		<path class="st1" d="M30.2,6.9h4.1v1.4h-2.4v2.9h1.7v1.4h-1.7v3.1h2.4v1.4h-4.1V6.9z"/>
	</g>
	<g class="st2">
		<path class="st1" d="M35.1,6.9h4.5v1.4h-1.4v8.8h-1.7V8.3h-1.4V6.9z"/>
	</g>
	<g class="st2">
		<path class="st1" d="M88.8,17.1l1.9-10.2h1.9l1.9,10.2h-1.8l-0.3-1.9h-1.8l-0.3,1.9H88.8z M90.9,13.9h1.4l-0.7-4.1h0L90.9,13.9z"
			/>
	</g>
	<g class="st2">
		<path class="st1" d="M76.8,6.9v10.2h-1.7V9.3h0l-1.2,1.2h0V8.8l1.6-1.8H76.8z"/>
		<path class="st1" d="M78.3,14.5v-5c0-1.6,0.7-2.7,2.5-2.7c1.9,0,2.4,1.1,2.4,2.6v0.5h-1.6V9.2c0-0.6-0.2-1-0.8-1
			c-0.6,0-0.8,0.4-0.8,1v2.2h0c0.3-0.5,0.7-0.8,1.4-0.8c1.2,0,1.9,0.8,1.9,2.5v1.5c0,1.6-0.7,2.6-2.5,2.6
			C78.9,17.2,78.3,16.1,78.3,14.5z M81.6,14.8V13c0-0.7-0.2-1-0.8-1c-0.5,0-0.8,0.4-0.8,0.9v1.9c0,0.6,0.2,1,0.8,1
			C81.3,15.8,81.6,15.4,81.6,14.8z"/>
	</g>
	<g>
		<polygon class="st1" points="85.4,9.9 85.4,14.1 87.6,12 		"/>
	</g>
	<g>
		<g>
			<g>
				<path class="st0" d="M76.7,85.4c0,1.3,1.1,2.4,2.4,2.3c1.3,0,2.4-1.1,2.3-2.4c0-1.3-1.1-2.3-2.4-2.3
					C77.8,83,76.7,84.1,76.7,85.4C76.7,85.4,76.7,85.4,76.7,85.4z"/>
			</g>
			<g>
				<path class="st0" d="M81.9,88.7h-5.6c-1.6,0.2-2.9,1.5-2.9,3.2v6.6c0.1,0.5,0.5,0.9,1,0.8c0.4,0,0.8-0.4,0.8-0.8v-5.7
					c0-0.2,0.1-0.5,0.4-0.5s0.3,0.3,0.3,0.5v17c-0.1,0.7,0.5,1.4,1.2,1.4c0.7,0.1,1.4-0.5,1.4-1.2c0-0.1,0-0.2,0-0.2v-9.8
					c0-0.2,0.1-0.4,0.3-0.4c0,0,0,0,0.1,0l0,0c0.2,0,0.4,0.2,0.4,0.4c0,0,0,0,0,0v9.8c0,0.7,0.6,1.3,1.3,1.3c0.7,0,1.3-0.6,1.3-1.3
					c0,0,0,0,0,0v-17c0-0.2,0.1-0.5,0.3-0.5s0.4,0.3,0.4,0.5v5.7c0,0.5,0.4,0.9,0.9,0.9c0.5,0,0.9-0.4,0.9-0.9v-6.6
					C84.8,90.2,83.5,88.8,81.9,88.7z"/>
			</g>
			<g>
				<path class="st0" d="M56.9,86.7c0,1.2,1,2.3,2.2,2.3c1.2,0,2.3-1,2.3-2.2s-1-2.3-2.2-2.3c0,0,0,0,0,0
					C57.9,84.4,56.9,85.4,56.9,86.7z"/>
			</g>
			<g>
				<path class="st0" d="M61.8,93c0.3-0.1,0.4,0.3,0.4,0.3l1.5,5.1c0,0,0.3,1.1,1.2,0.8c0.9-0.3,0.6-1.4,0.6-1.4l-1.9-6.1
					c0,0-0.6-1.8-2.1-1.8h-4.8c-1.5,0-2.2,1.8-2.2,1.8l-1.9,6.1c0,0-0.3,1.1,0.6,1.4s1.2-0.8,1.2-0.8l1.5-5.1c0,0,0.1-0.4,0.4-0.3
					s0.2,0.5,0.2,0.5l-2.6,9.5h2.4v6.8c0,0.6,0.5,1.2,1.2,1.2c0.6,0,1.2-0.5,1.2-1.2v-6.8h0.7v6.8c0,0.6,0.5,1.2,1.2,1.2
					c0.6,0,1.2-0.5,1.2-1.2v-6.8h2.4l-2.6-9.5C61.6,93.6,61.5,93.1,61.8,93z"/>
			</g>
			<g>
				<path class="st0" d="M43.4,86.6c0,1.2,1,2.2,2.2,2.2s2.2-1,2.2-2.2s-1-2.2-2.2-2.2l0,0C44.4,84.4,43.4,85.4,43.4,86.6
					C43.4,86.6,43.4,86.6,43.4,86.6z"/>
			</g>
			<g>
				<path class="st0" d="M50.2,91.7c0,0-0.7-1.7-2.2-1.7h-4.7c-1.5,0-2.2,1.8-2.2,1.8l-1.9,6.1c0,0-0.3,1.1,0.6,1.4s1.2-0.8,1.2-0.8
					l1.5-5.1c0,0,0.1-0.4,0.4-0.3s0.2,0.5,0.2,0.5l-2.6,9.5H43v6.8c0,0.6,0.5,1.2,1.2,1.2c0.6,0,1.2-0.5,1.2-1.2l0,0V103H46v6.8
					c0,0.6,0.5,1.2,1.2,1.2c0.6,0,1.2-0.5,1.2-1.2l0,0V103h2.4l-2.6-9.5c0,0-0.1-0.4,0.2-0.5s0.4,0.3,0.4,0.3l1.5,5.1
					c0,0,0.3,1.1,1.2,0.8s0.6-1.4,0.6-1.4L50.2,91.7z"/>
			</g>
			<g>
				<path class="st0" d="M24.1,88c1.3,0,2.4-1,2.4-2.3c0-1.3-1-2.4-2.3-2.4c-1.3,0-2.4,1-2.4,2.3c0,0,0,0,0,0
					C21.7,87,22.8,88,24.1,88z"/>
			</g>
			<g>
				<path class="st0" d="M26.8,89h-5.5c-1.6,0.1-2.8,1.5-2.9,3.1v6.5c0,0.3,0.1,0.5,0.4,0.7l-2.1,11c0,0.2,0.1,0.4,0.3,0.4
					c0,0,0,0,0,0h0.1c0.2,0,0.3-0.1,0.4-0.3l2.1-11c0.4-0.1,0.8-0.4,0.8-0.9V93c0-0.2,0.1-0.5,0.4-0.5s0.3,0.3,0.3,0.5v16.8
					c0,0.7,0.6,1.3,1.3,1.3c0.7,0,1.3-0.6,1.3-1.3c0,0,0,0,0,0v-9.7c0-0.2,0.1-0.4,0.3-0.4c0,0,0,0,0.1,0l0,0c0.2,0,0.4,0.1,0.4,0.3
					c0,0,0,0,0,0.1v9.7c0,0.7,0.6,1.3,1.3,1.3c0.7,0,1.3-0.6,1.3-1.3V93c0-0.2,0.1-0.5,0.3-0.5s0.5,0.3,0.5,0.5v5.6
					c0,0.5,0.4,0.9,0.9,0.9c0.5,0,0.9-0.4,0.9-0.9v-6.6C29.6,90.5,28.4,89.2,26.8,89z"/>
			</g>
			<g>
				<path class="st0" d="M67.5,97.1c0,1.1,0.9,1.9,1.9,1.9s1.9-0.9,1.9-1.9s-0.9-1.9-1.9-1.9S67.5,96.1,67.5,97.1L67.5,97.1z"/>
			</g>
			<g>
				<path class="st0" d="M73.2,102.7c-1.2-3-1.3-2.9-2.4-3h-2.9c-1,0-1.2,0-2.4,3c-0.2,0.4-0.8,2.1-0.9,2.2s-0.3,0.7,0.4,0.9
					s0.8-0.5,0.8-0.5l1.1-2.9c0,0,0-0.1,0.1-0.1s0,0.1,0,0.1v7.5l0,0c0,0.6,0.4,1,1,1s1-0.4,1-1v-3c0,0,0-0.5,0.3-0.4
					s0.3,0.4,0.3,0.4v3c0,0.6,0.4,1,1,1s1-0.4,1-1l0,0v-7.5c0-0.1,0-0.1,0-0.1s0.1,0.1,0.1,0.1l1.1,2.5c0,0,0.3,0.7,0.9,0.4
					s0.3-0.9,0.3-0.9S73.4,103.2,73.2,102.7z"/>
			</g>
			<g>
				<path class="st0" d="M38.3,97.9c-0.3-0.2-0.8-0.1-1,0.3c0,0,0,0,0,0.1c-0.4,0.6-0.8,1.2-1.2,1.8c-0.1,0.2-0.4,0.3-0.6,0.3h-2.2
					c-0.2,0-0.4-0.1-0.6-0.3c-0.3-0.3-1.2-1.8-1.2-1.9c-0.1-0.2-0.4-0.3-0.6-0.3c-0.4,0-0.7,0.3-0.7,0.7c0,0.1,0,0.2,0.1,0.3
					l1.9,3.4c0.1,0.1,0.1,0.3,0.1,0.4v0.5l0,0c0,0.2,0,0.4-0.1,0.6l-0.9,3.6h1v2.7l0,0c-0.1,0.5,0.3,1,0.8,1c0.5,0.1,1-0.3,1-0.8
					c0-0.1,0-0.1,0-0.2v-2.7h0.6c0,0,0,0.1,0,0.1v2.6c0,0.5,0.4,0.9,0.9,0.9s0.9-0.4,0.9-0.9v-2.7h1l-0.9-3.6c0-0.2-0.1-0.3-0.1-0.5
					v-0.1l0,0v-0.5c0-0.2,0-0.3,0.1-0.4l1.8-3.2l0.2-0.3C38.8,98.5,38.7,98.1,38.3,97.9C38.3,97.9,38.3,97.9,38.3,97.9z"/>
			</g>
			<g>
				<path class="st0" d="M34.5,99.2c1,0,1.9-0.8,1.9-1.9c0-1-0.8-1.9-1.9-1.9c-1,0-1.9,0.8-1.9,1.9l0,0
					C32.6,98.3,33.4,99.2,34.5,99.2z"/>
			</g>
		</g>
		<g>
			<g>
				<path class="st0" d="M38.3,49.4h25.2c0.2,0,0.4-0.2,0.4-0.4v-0.2c-1.6-7.2-8.7-11.6-15.9-10c-5,1.1-8.9,5-10,10
					c0,0.1,0,0.1,0,0.2l0,0C38,49.2,38.1,49.4,38.3,49.4z"/>
			</g>
			<g>
				<path class="st0" d="M52.4,36.8c0.9,0,1.8,0.3,2.5,0.9c0.6,0.4,1.4,0.7,2.2,0.7h1.9v-4.8h-1.9c-1.1,0-2.1-0.4-2.9-1.2
					c-0.6-0.4-1.3-0.6-2.1-0.5h-1.2v4.8C51.4,36.7,51.9,36.7,52.4,36.8z"/>
			</g>
			<g>
				<path class="st0" d="M22.7,72.9h56.4V54.7H22.7V72.9z M73.1,57.6h3.6V62h-3.6V57.6z M73.1,65.6h3.6V70h-3.6V65.6z M67.6,57.6
					h3.6V62h-3.6V57.6z M67.6,65.6h3.6V70h-3.6L67.6,65.6z M62.1,57.6h3.6V62h-3.6L62.1,57.6z M62.1,65.6h3.6V70h-3.6L62.1,65.6z
					 M55.1,57h3.3v13.6h-3.3V57z M49.5,57h3.3v13.6h-3.3L49.5,57z M43.9,57h3.3v13.6h-3.3L43.9,57z M36.7,57.6h3.6V62h-3.6
					L36.7,57.6z M36.7,65.6h3.6V70h-3.6L36.7,65.6z M31.3,57.6h3.6V62h-3.6L31.3,57.6z M31.3,65.6h3.6V70h-3.6L31.3,65.6z
					 M25.8,57.6h3.6V62h-3.6L25.8,57.6z M25.8,65.6h3.6V70h-3.6L25.8,65.6z"/>
			</g>
			<g>
				<rect x="20.7" y="74" class="st0" width="60.5" height="0.8"/>
			</g>
			<g>
				<rect x="20.7" y="50.5" class="st0" width="60.5" height="1.3"/>
			</g>
			<g>
				<rect x="22.8" y="53" class="st0" width="56.3" height="0.8"/>
			</g>
			<g>
				<rect x="18.7" y="75.6" class="st0" width="64.5" height="1.3"/>
			</g>
		</g>
	</g>
	<g>
		<g>
			<path class="st1" d="M11.1,130.3c0,1.2-0.7,2-2.4,2c-0.6,0-1.3-0.1-1.9-0.4V131c0.6,0.3,1.2,0.4,1.8,0.4c1.1,0,1.5-0.5,1.5-1.1
				s-0.3-0.9-1.1-1c-1.6-0.2-2.2-0.6-2.2-1.8c0-0.9,0.5-1.8,2.3-1.8c0.6,0,1.2,0.1,1.7,0.3v1c-0.5-0.2-1.1-0.3-1.7-0.3
				c-1,0-1.3,0.4-1.3,1c0,0.6,0.4,0.8,1.2,0.9C10.4,128.7,11.1,129,11.1,130.3z"/>
		</g>
		<g>
			<path class="st1" d="M14,126.7v5.5h-1v-5.5h-1.6v-0.9h4.3v0.9H14z"/>
		</g>
		<g>
			<path class="st1" d="M17.3,132.2h-1v-6.4h2.1c1.6,0,2.2,0.7,2.2,1.9c0.1,0.7-0.3,1.4-1,1.7l1.3,2.8h-1.1l-1.2-2.6h-1.3V132.2z
				 M17.3,128.7h1.2c0.9,0,1-0.5,1-1s-0.1-1-1-1h-1.2V128.7z"/>
		</g>
		<g>
			<path class="st1" d="M25.1,129.3h-2.7v2h2.9v0.9h-3.9v-6.4h3.9v0.9h-2.9v1.8h2.6L25.1,129.3z"/>
		</g>
		<g>
			<path class="st1" d="M29.9,132.2l-2.8-4.5v4.5h-1v-6.4H27l2.8,4.5v-4.5h0.9v6.4H29.9z"/>
		</g>
		<g>
			<path class="st1" d="M31.6,129c0-2,0.7-3.3,2.6-3.3c0.6,0,1.3,0.1,1.8,0.3v1c-0.5-0.2-1.1-0.4-1.7-0.4c-1.3,0-1.8,0.9-1.8,2.4
				s0.5,2.4,1.8,2.4c0.3,0,0.6,0,0.9-0.1v-1.7h-1.1v-0.9h2.1v3.2c-0.6,0.3-1.3,0.4-2,0.4C32.3,132.3,31.6,131,31.6,129z"/>
		</g>
		<g>
			<path class="st1" d="M39.3,126.7v5.5h-1v-5.5h-1.7v-0.9H41v0.9H39.3z"/>
		</g>
		<g>
			<path class="st1" d="M45.2,132.2v-2.9h-2.6v2.9h-1v-6.4h1v2.6h2.6v-2.6h1v6.4H45.2z"/>
		</g>
		<g>
			<path class="st1" d="M50.7,129.3H48v2h3v0.9h-3.9v-6.4H51v0.9h-3v1.8h2.7L50.7,129.3z"/>
		</g>
		<g>
			<path class="st1" d="M55.5,132.2l-2.8-4.5v4.5h-0.9v-6.4h0.9l2.8,4.5v-4.5h0.9v6.4H55.5z"/>
		</g>
		<g>
			<path class="st1" d="M10.6,141.2l-2.8-4.5v4.5H7v-6.4h0.9l2.8,4.5v-4.5h0.9v6.4H10.6z"/>
		</g>
		<g>
			<path class="st1" d="M15.7,139.6h-2l-0.4,1.6h-1l2-6.4h1l2,6.4h-1L15.7,139.6z M14.7,136l-0.8,2.8h1.6L14.7,136z"/>
		</g>
		<g>
			<path class="st1" d="M19.3,135.7v5.5h-1v-5.5h-1.7v-0.9H21v0.9H19.3z"/>
		</g>
		<g>
			<path class="st1" d="M21.8,141.2v-6.4h1v6.4H21.8z"/>
		</g>
		<g>
			<path class="st1" d="M23.7,138c0-1.8,0.4-3.3,2.5-3.3s2.5,1.5,2.5,3.3s-0.4,3.3-2.5,3.3S23.7,139.8,23.7,138z M24.7,138
				c0,1.5,0.3,2.4,1.5,2.4s1.5-0.9,1.5-2.4s-0.3-2.4-1.5-2.4S24.7,136.5,24.7,138L24.7,138z"/>
		</g>
		<g>
			<path class="st1" d="M33.2,141.2l-2.8-4.5v4.5h-1v-6.4h0.9l2.8,4.5v-4.5h1v6.4H33.2z"/>
		</g>
		<g>
			<path class="st1" d="M38.2,139.6h-2l-0.5,1.6h-1l2-6.4h1l2,6.4h-1L38.2,139.6z M37.2,136l-0.8,2.8h1.6L37.2,136z"/>
		</g>
		<g>
			<path class="st1" d="M41.3,140.3h2.8v0.9h-3.7v-6.4h1L41.3,140.3z"/>
		</g>
		<g>
			<path class="st1" d="M7.1,150.2v-6.4H8v6.4H7.1z"/>
		</g>
		<g>
			<path class="st1" d="M12.8,150.2l-2.8-4.5v4.5H9.1v-6.4H10l2.8,4.5v-4.5h0.9v6.4H12.8z"/>
		</g>
		<g>
			<path class="st1" d="M18.8,148.3c0,1.2-0.7,2-2.4,2c-0.6,0-1.3-0.1-1.9-0.4V149c0.6,0.3,1.2,0.4,1.8,0.4c1.1,0,1.5-0.5,1.5-1.1
				s-0.3-0.9-1.2-1c-1.6-0.2-2.2-0.6-2.2-1.8c0-0.9,0.5-1.8,2.3-1.8c0.6,0,1.2,0.1,1.7,0.3v1c-0.5-0.2-1.1-0.3-1.7-0.3
				c-1,0-1.3,0.4-1.3,1s0.4,0.8,1.2,0.9C18,146.7,18.8,147,18.8,148.3z"/>
		</g>
		<g>
			<path class="st1" d="M21.7,144.7v5.5h-1v-5.5h-1.6v-0.9h4.3v0.9H21.7z"/>
		</g>
		<g>
			<path class="st1" d="M24.1,150.2v-6.4h1v6.4H24.1z"/>
		</g>
		<g>
			<path class="st1" d="M28.5,144.7v5.5h-1v-5.5h-1.7v-0.9h4.3v0.9H28.5z"/>
		</g>
		<g>
			<path class="st1" d="M30.8,148.2v-4.4h1v4.3c-0.1,0.7,0.4,1.3,1,1.3c0.1,0,0.2,0,0.3,0c0.6,0.1,1.3-0.3,1.4-1c0-0.1,0-0.2,0-0.3
				v-4.3h1v4.4c0.1,1.1-0.8,2.1-1.9,2.1c-0.1,0-0.3,0-0.4,0c-1.1,0.2-2.1-0.5-2.3-1.6C30.8,148.5,30.8,148.4,30.8,148.2z"/>
		</g>
		<g>
			<path class="st1" d="M38.6,144.7v5.5h-1v-5.5H36v-0.9h4.3v0.9H38.6z"/>
		</g>
		<g>
			<path class="st1" d="M41.1,150.2v-6.4h1v6.4H41.1z"/>
		</g>
		<g>
			<path class="st1" d="M43,147c0-1.8,0.4-3.3,2.5-3.3s2.5,1.5,2.5,3.3s-0.4,3.3-2.5,3.3S43,148.8,43,147z M44,147
				c0,1.5,0.3,2.4,1.5,2.4s1.5-0.9,1.5-2.4s-0.3-2.4-1.5-2.4S44,145.5,44,147z"/>
		</g>
		<g>
			<path class="st1" d="M52.5,150.2l-2.8-4.5v4.5h-0.9v-6.4h0.9l2.8,4.5v-4.5h0.9v6.4H52.5z"/>
		</g>
		<g>
			<path class="st1" d="M58.5,148.3c0,1.2-0.7,2-2.4,2c-0.6,0-1.3-0.1-1.9-0.4V149c0.6,0.3,1.2,0.4,1.8,0.4c1.1,0,1.5-0.5,1.5-1.1
				s-0.3-0.9-1.2-1c-1.6-0.2-2.2-0.6-2.2-1.8c0-0.9,0.5-1.8,2.3-1.8c0.6,0,1.2,0.1,1.7,0.3v1c-0.5-0.2-1.1-0.3-1.7-0.3
				c-1,0-1.3,0.4-1.3,1s0.4,0.8,1.2,0.9C57.7,146.7,58.5,147,58.5,148.3z"/>
		</g>
		<g>
			<path class="st1" d="M63,144.7v5.5h-1v-5.5h-1.6v-0.9h4.3v0.9H63z"/>
		</g>
		<g>
			<path class="st1" d="M65,147c0-1.8,0.4-3.3,2.4-3.3s2.5,1.5,2.5,3.3s-0.4,3.3-2.5,3.3S65,148.8,65,147z M66,147
				c0,1.5,0.3,2.4,1.5,2.4s1.5-0.9,1.5-2.4s-0.3-2.4-1.5-2.4S65.9,145.5,66,147L66,147z"/>
		</g>
		<g>
			<path class="st1" d="M7.9,159.2H7v-6.4h2c1.6,0,2.2,0.9,2.2,2s-0.6,2-2.2,2H7.9V159.2z M7.9,155.9h1.1c0.6,0.1,1.2-0.4,1.2-1
				c0.1-0.6-0.4-1.2-1-1.2c-0.1,0-0.1,0-0.2,0H7.9V155.9z"/>
		</g>
		<g>
			<path class="st1" d="M12.8,159.2h-0.9v-6.4h2.1c1.6,0,2.2,0.7,2.2,1.9c0.1,0.7-0.3,1.4-1,1.7l1.3,2.8h-1.2l-1.1-2.6h-1.3V159.2z
				 M12.8,155.7H14c0.9,0,1-0.5,1-1s-0.1-1-1-1h-1.2V155.7z"/>
		</g>
		<g>
			<path class="st1" d="M20.6,156.3h-2.7v2h2.9v0.9H17v-6.4h3.9v0.9h-2.9v1.8h2.7V156.3z"/>
		</g>
		<g>
			<path class="st1" d="M26.4,152.8l-2,6.4h-1l-2-6.4h1l1.5,5.2l1.5-5.2L26.4,152.8z"/>
		</g>
		<g>
			<path class="st1" d="M30.7,156.3H28v2h2.9v0.9h-3.9v-6.4h3.9v0.9H28v1.8h2.6L30.7,156.3z"/>
		</g>
		<g>
			<path class="st1" d="M35.5,159.2l-2.8-4.5v4.5h-1v-6.4h0.9l2.8,4.5v-4.5h0.9v6.4H35.5z"/>
		</g>
		<g>
			<path class="st1" d="M39.6,153.7v5.5h-1v-5.5H37v-0.9h4.3v0.9H39.6z"/>
		</g>
		<g>
			<path class="st1" d="M47.8,152.8l-2,6.4h-1l-2-6.4h1l1.5,5.2l1.5-5.2L47.8,152.8z"/>
		</g>
		<g>
			<path class="st1" d="M48.6,159.2v-6.4h1v6.4H48.6z"/>
		</g>
		<g>
			<path class="st1" d="M50.6,156c0-1.8,0.4-3.3,2.5-3.3s2.5,1.5,2.5,3.3s-0.4,3.3-2.5,3.3S50.6,157.8,50.6,156z M51.6,156
				c0,1.5,0.3,2.4,1.5,2.4s1.5-0.9,1.5-2.4s-0.3-2.4-1.5-2.4S51.5,154.5,51.6,156L51.6,156z"/>
		</g>
		<g>
			<path class="st1" d="M57.3,158.3h2.8v0.9h-3.7v-6.4h1V158.3z"/>
		</g>
		<g>
			<path class="st1" d="M64.3,156.3h-2.7v2h2.9v0.9h-3.9v-6.4h3.9v0.9h-2.9v1.8h2.7V156.3z"/>
		</g>
		<g>
			<path class="st1" d="M69.1,159.2l-2.8-4.5v4.5h-0.9v-6.4h0.9l2.8,4.5v-4.5h1v6.4H69.1z"/>
		</g>
		<g>
			<path class="st1" d="M73.5,152.7c0.5,0,1,0.1,1.5,0.3v0.9c-0.5-0.2-0.9-0.3-1.4-0.3c-1.2,0-1.7,0.8-1.7,2.4s0.5,2.4,1.7,2.4
				c0.5,0,1-0.1,1.4-0.3v0.9c-0.5,0.2-1,0.3-1.5,0.3c-1.9,0-2.6-1.2-2.6-3.3S71.6,152.7,73.5,152.7z"/>
		</g>
		<g>
			<path class="st1" d="M79.4,156.3h-2.6v2h2.9v0.9h-3.9v-6.4h3.9v0.9h-2.9v1.8h2.7L79.4,156.3z"/>
		</g>
		<g>
			<path class="st1" d="M10.2,166.6h-2l-0.5,1.6h-1l2-6.4h1l2,6.4h-1L10.2,166.6z M9.2,163l-0.8,2.8H10L9.2,163z"/>
		</g>
		<g>
			<path class="st1" d="M16,168.2l-2.8-4.5v4.5h-0.9v-6.4h0.9l2.8,4.5v-4.5h1v6.4H16z"/>
		</g>
		<g>
			<path class="st1" d="M17.8,168.2v-6.4h1.9c2.1,0,2.7,1.4,2.7,3.2s-0.6,3.2-2.7,3.2H17.8z M18.8,167.3h1c1.3,0,1.7-0.9,1.7-2.3
				s-0.4-2.3-1.7-2.3h-1V167.3z"/>
		</g>
		<g>
			<path class="st1" d="M27.4,161.7c0.5,0,1,0.1,1.5,0.3v0.9c-0.5-0.2-0.9-0.3-1.4-0.3c-1.2,0-1.7,0.8-1.7,2.4s0.5,2.4,1.7,2.4
				c0.5,0,1-0.1,1.4-0.3v0.9c-0.5,0.2-1,0.3-1.5,0.3c-1.9,0-2.6-1.2-2.6-3.3S25.5,161.7,27.4,161.7z"/>
		</g>
		<g>
			<path class="st1" d="M29.7,165c0-1.8,0.4-3.3,2.5-3.3s2.5,1.5,2.5,3.3s-0.4,3.3-2.5,3.3S29.7,166.8,29.7,165z M30.7,165
				c0,1.5,0.3,2.4,1.5,2.4c1.2,0,1.5-0.9,1.5-2.4s-0.3-2.4-1.5-2.4S30.7,163.5,30.7,165L30.7,165z"/>
		</g>
		<g>
			<path class="st1" d="M38.9,167.3H38l-1.6-3.9v4.8h-1v-6.4h1.3l1.7,4.3l1.7-4.3h1.2v6.4h-1v-4.8L38.9,167.3z"/>
		</g>
		<g>
			<path class="st1" d="M42.3,161.8h2.2c1.5,0,2,0.8,2,1.7c0,0.5-0.3,1-0.8,1.3c0.6,0.2,1.1,0.8,1,1.5c0,1.1-0.5,1.9-2.2,1.9h-2.2
				L42.3,161.8z M44.5,162.7h-1.2v1.8h1.2c0.8,0,1-0.5,1-0.9S45.3,162.7,44.5,162.7z M43.3,167.3h1.3c0.9,0,1.1-0.5,1.1-1
				s-0.3-1-1.1-1h-1.3V167.3z"/>
		</g>
		<g>
			<path class="st1" d="M50.6,166.6h-2l-0.5,1.6h-1l2-6.4h1l2,6.4h-1L50.6,166.6z M49.6,163l-0.8,2.8h1.6L49.6,163z"/>
		</g>
		<g>
			<path class="st1" d="M54.3,162.7v5.5h-1v-5.5h-1.6v-0.9h4.3v0.9H54.3z"/>
		</g>
		<g>
			<path class="st1" d="M9.3,171.7v5.5h-1v-5.5H6.7v-0.9h4.3v0.9H9.3z"/>
		</g>
		<g>
			<path class="st1" d="M15.2,174.3h-2.6v2h2.9v0.9h-3.9v-6.4h3.9v0.9h-2.9v1.8h2.6V174.3z"/>
		</g>
		<g>
			<path class="st1" d="M17.3,177.2h-1v-6.4h2.1c1.6,0,2.2,0.7,2.2,1.9c0.1,0.7-0.3,1.4-1,1.7l1.3,2.8h-1.1l-1.2-2.6h-1.3V177.2z
				 M17.3,173.7h1.2c0.9,0,1-0.5,1-1s-0.1-1-1-1h-1.2V173.7z"/>
		</g>
		<g>
			<path class="st1" d="M22.5,177.2h-1v-6.4h2.1c1.6,0,2.2,0.7,2.2,1.9c0.1,0.7-0.3,1.4-1,1.7l1.3,2.8h-1.1l-1.2-2.6h-1.3V177.2z
				 M22.5,173.7h1.3c0.9,0,1-0.5,1-1s-0.1-1-1-1h-1.3V173.7z"/>
		</g>
		<g>
			<path class="st1" d="M26.6,174c0-1.8,0.4-3.3,2.5-3.3s2.5,1.5,2.5,3.3s-0.4,3.3-2.5,3.3S26.6,175.8,26.6,174z M27.6,174
				c0,1.5,0.3,2.4,1.5,2.4s1.5-0.9,1.5-2.4s-0.3-2.4-1.5-2.4S27.6,172.5,27.6,174L27.6,174z"/>
		</g>
		<g>
			<path class="st1" d="M33.3,177.2h-1v-6.4h2.1c1.7,0,2.2,0.7,2.2,1.9c0.1,0.7-0.3,1.4-1,1.7l1.3,2.8h-1.1l-1.2-2.6h-1.3V177.2z
				 M33.3,173.7h1.2c0.9,0,1-0.5,1-1s-0.1-1-1-1h-1.2V173.7z"/>
		</g>
		<g>
			<path class="st1" d="M37.7,177.2v-6.4h1v6.4H37.7z"/>
		</g>
		<g>
			<path class="st1" d="M43.9,175.3c0,1.2-0.7,2-2.4,2c-0.6,0-1.3-0.1-1.9-0.4V176c0.6,0.3,1.2,0.4,1.8,0.4c1.1,0,1.5-0.5,1.5-1.1
				s-0.3-0.9-1.2-1c-1.6-0.2-2.2-0.6-2.2-1.8c0-0.9,0.5-1.8,2.3-1.8c0.6,0,1.2,0.1,1.7,0.3v1c-0.5-0.2-1.1-0.3-1.7-0.3
				c-1,0-1.3,0.4-1.3,1s0.4,0.8,1.2,0.9C43.2,173.7,43.9,174,43.9,175.3z"/>
		</g>
		<g>
			<path class="st1" d="M48.1,176.3h-0.9l-1.6-3.9v4.8h-1v-6.4H46l1.7,4.3l1.7-4.3h1.2v6.4h-1v-4.8L48.1,176.3z"/>
		</g>
		<g>
			<path class="st1" d="M56.4,175.6h-2l-0.5,1.6h-1l2-6.4h1l2,6.4h-1L56.4,175.6z M55.4,172l-0.8,2.8h1.6L55.4,172z"/>
		</g>
		<g>
			<path class="st1" d="M62.2,177.2l-2.8-4.5v4.5h-0.9v-6.4h0.9l2.8,4.5v-4.5h0.9v6.4H62.2z"/>
		</g>
		<g>
			<path class="st1" d="M64.1,177.2v-6.4H66c2.1,0,2.7,1.4,2.7,3.2s-0.6,3.2-2.7,3.2H64.1z M65.1,176.3h1c1.3,0,1.7-0.9,1.7-2.3
				s-0.4-2.3-1.7-2.3H65L65.1,176.3z"/>
		</g>
		<g>
			<path class="st1" d="M73.7,170.7c0.5,0,1,0.1,1.5,0.3v0.9c-0.5-0.2-0.9-0.3-1.4-0.3c-1.2,0-1.7,0.8-1.7,2.4s0.5,2.4,1.7,2.4
				c0.5,0,1-0.1,1.4-0.3v0.9c-0.5,0.2-1,0.3-1.5,0.3c-1.9,0-2.6-1.2-2.6-3.3S71.8,170.7,73.7,170.7z"/>
		</g>
		<g>
			<path class="st1" d="M77,177.2h-1v-6.4h2.1c1.7,0,2.2,0.7,2.2,1.9c0.1,0.7-0.3,1.4-1,1.7l1.3,2.8h-1.1l-1.2-2.6H77V177.2z
				 M77,173.7h1.2c0.9,0,1-0.5,1-1s-0.1-1-1-1H77V173.7z"/>
		</g>
		<g>
			<path class="st1" d="M81.3,177.2v-6.4h1v6.4H81.3z"/>
		</g>
		<g>
			<path class="st1" d="M86.8,176.3h-0.9l-1.6-3.9v4.8h-1v-6.4h1.2l1.7,4.3l1.7-4.3h1.2v6.4h-1v-4.8L86.8,176.3z"/>
		</g>
		<g>
			<path class="st1" d="M93.8,174.3h-2.7v2h2.9v0.9h-3.9v-6.4h3.9v0.9h-2.9v1.8h2.7V174.3z"/>
		</g>
	</g>
	<g>
		<path class="st1" d="M97.2,123.1v56.7h-93v-56.7L97.2,123.1 M98.2,122.1h-95v58.7h95V122.1z"/>
	</g>
</g>
</svg>
