<?xml version="1.0" encoding="utf-8"?>
<!-- Generator: Adobe Illustrator 22.0.1, SVG Export Plug-In . SVG Version: 6.00 Build 0)  -->
<svg version="1.1" id="Layer_1" xmlns="http://www.w3.org/2000/svg" xmlns:xlink="http://www.w3.org/1999/xlink" x="0px" y="0px"
	 viewBox="0 0 101.5 166.2" style="enable-background:new 0 0 101.5 166.2;" xml:space="preserve">
<style type="text/css">
	.st0{fill:#FFFFFF;}
	.st1{fill:#00689D;}
	.st2{enable-background:new    ;}
	.st3{fill:none;}
</style>
<title>TARGET 1 B copy 16</title>
<g id="WHITE_BG">
	<g>
		<rect y="0" class="st0" width="101.5" height="166.2"/>
	</g>
</g>
<g id="TARGETS">
	<g>
		<g>
			<path class="st1" d="M7.8,132.2h-1v-6.4h2.1c1.6,0,2.2,1,2.2,2c0,1-0.6,2-2.2,2H7.8V132.2z M7.8,128.9H9c0.6,0.1,1.2-0.4,1.2-1
				c0.1-0.6-0.4-1.2-1-1.2c-0.1,0-0.1,0-0.2,0H7.8V128.9z"/>
		</g>
		<g>
			<path class="st1" d="M12.6,132.2h-1v-6.4h2.1c1.6,0,2.2,0.7,2.2,1.9c0.1,0.7-0.3,1.4-1,1.7l1.3,2.8H15l-1.2-2.6h-1.3v2.6H12.6z
				 M12.6,128.7h1.3c0.9,0,1-0.5,1-1s-0.1-1-1-1h-1.3V128.7z"/>
		</g>
		<g>
			<path class="st1" d="M16.6,129c0-1.8,0.4-3.3,2.5-3.3s2.5,1.5,2.5,3.3s-0.4,3.3-2.5,3.3S16.6,130.8,16.6,129z M17.6,129
				c0,1.5,0.3,2.4,1.5,2.4s1.5-0.9,1.5-2.4s-0.3-2.4-1.5-2.4S17.6,127.5,17.6,129L17.6,129z"/>
		</g>
		<g>
			<path class="st1" d="M25.6,131.3h-0.9l-1.6-3.9v4.8h-1v-6.4h1.2l1.7,4.3l1.7-4.3H28v6.4h-1v-4.8L25.6,131.3z"/>
		</g>
		<g>
			<path class="st1" d="M28.9,129c0-1.8,0.4-3.3,2.5-3.3s2.5,1.5,2.5,3.3s-0.4,3.3-2.5,3.3S28.9,130.8,28.9,129z M29.9,129
				c0,1.5,0.3,2.4,1.5,2.4c1.2,0,1.5-0.9,1.5-2.4s-0.3-2.4-1.5-2.4S29.9,127.5,29.9,129L29.9,129z"/>
		</g>
		<g>
			<path class="st1" d="M36.5,126.7v5.5h-1v-5.5h-1.7v-0.9h4.3v0.9H36.5z"/>
		</g>
		<g>
			<path class="st1" d="M42.3,129.3h-2.7v2h2.9v0.9h-3.9v-6.4h3.9v0.9h-2.9v1.8h2.7V129.3z"/>
		</g>
		<g>
			<path class="st1" d="M48,130.6h-2l-0.5,1.6h-1l2-6.4h1l2,6.4h-1L48,130.6z M47,127l-0.8,2.8h1.6L47,127z"/>
		</g>
		<g>
			<path class="st1" d="M53.7,132.2l-2.8-4.5v4.5H50v-6.4h0.9l2.8,4.5v-4.5h1v6.4L53.7,132.2L53.7,132.2z"/>
		</g>
		<g>
			<path class="st1" d="M55.5,132.2v-6.4h1.9c2.1,0,2.7,1.4,2.7,3.2s-0.6,3.2-2.7,3.2H55.5z M56.5,131.3h1c1.3,0,1.7-0.9,1.7-2.3
				s-0.4-2.3-1.7-2.3h-1V131.3z"/>
		</g>
		<g>
			<path class="st1" d="M10.5,138.3H7.8v2h2.9v0.9H6.9v-6.4h3.9v0.9h-3v1.8h2.6v0.8H10.5z"/>
		</g>
		<g>
			<path class="st1" d="M15.3,141.2l-2.8-4.5v4.5h-0.9v-6.4h0.9l2.8,4.5v-4.5h0.9v6.4H15.3z"/>
		</g>
		<g>
			<path class="st1" d="M20.5,138.4h-2.6v2.8H17v-6.4h3.8v0.9h-2.9v1.8h2.6V138.4z"/>
		</g>
		<g>
			<path class="st1" d="M21.3,138c0-1.8,0.4-3.3,2.5-3.3s2.5,1.5,2.5,3.3s-0.4,3.3-2.5,3.3S21.3,139.8,21.3,138z M22.3,138
				c0,1.5,0.3,2.4,1.5,2.4s1.5-0.9,1.5-2.4s-0.3-2.4-1.5-2.4S22.2,136.5,22.3,138L22.3,138z"/>
		</g>
		<g>
			<path class="st1" d="M27.9,141.2h-1v-6.4H29c1.6,0,2.2,0.7,2.2,1.9c0.1,0.7-0.3,1.4-1,1.7l1.3,2.8h-1.1l-1.2-2.6h-1.3V141.2z
				 M27.9,137.7h1.2c0.9,0,1-0.5,1-1s-0.1-1-1-1h-1.2V137.7z"/>
		</g>
		<g>
			<path class="st1" d="M34.5,134.7c0.5,0,1,0.1,1.5,0.3v0.9c-0.4-0.2-0.9-0.3-1.4-0.3c-1.2,0-1.7,0.8-1.7,2.4s0.5,2.4,1.7,2.4
				c0.5,0,1-0.1,1.4-0.3v0.9c-0.5,0.2-1,0.3-1.5,0.3c-1.9,0-2.6-1.2-2.6-3.3S32.6,134.7,34.5,134.7z"/>
		</g>
		<g>
			<path class="st1" d="M40.5,138.3h-2.7v2h2.9v0.9h-3.9v-6.4h3.9v0.9h-2.9v1.8h2.7V138.3z"/>
		</g>
		<g>
			<path class="st1" d="M10.6,150.2l-2.8-4.5v4.5H6.9v-6.4h0.9l2.8,4.5v-4.5h0.9v6.4H10.6z"/>
		</g>
		<g>
			<path class="st1" d="M12.2,147c0-1.8,0.4-3.3,2.5-3.3s2.5,1.5,2.5,3.3s-0.4,3.3-2.5,3.3S12.2,148.8,12.2,147z M13.2,147
				c0,1.5,0.3,2.4,1.5,2.4s1.5-0.9,1.5-2.4s-0.3-2.4-1.5-2.4S13.2,145.5,13.2,147L13.2,147z"/>
		</g>
		<g>
			<path class="st1" d="M21.5,150.2l-2.8-4.5v4.5h-0.9v-6.4h0.9l2.8,4.5v-4.5h0.9v6.4H21.5z"/>
		</g>
		<g>
			<path class="st1" d="M25.1,147.4H23v-0.9h2.2L25.1,147.4z"/>
		</g>
		<g>
			<path class="st1" d="M25.7,150.2v-6.4h1.9c2.1,0,2.7,1.4,2.7,3.2s-0.6,3.2-2.7,3.2H25.7z M26.6,149.3h1c1.3,0,1.7-0.9,1.7-2.3
				s-0.4-2.3-1.7-2.3h-1V149.3z"/>
		</g>
		<g>
			<path class="st1" d="M31.1,150.2v-6.4H32v6.4H31.1z"/>
		</g>
		<g>
			<path class="st1" d="M37.3,148.3c0,1.2-0.7,2-2.4,2c-0.6,0-1.3-0.1-1.9-0.4V149c0.6,0.3,1.2,0.4,1.8,0.4c1.2,0,1.5-0.5,1.5-1.1
				s-0.3-0.9-1.2-1c-1.5-0.2-2.2-0.6-2.2-1.8c0-0.9,0.5-1.8,2.3-1.8c0.6,0,1.2,0.1,1.7,0.3v1c-0.5-0.2-1.1-0.3-1.7-0.3
				c-1,0-1.3,0.4-1.3,1s0.4,0.8,1.2,0.9C36.6,146.7,37.3,147,37.3,148.3z"/>
		</g>
		<g>
			<path class="st1" d="M40.6,143.7c0.5,0,1,0.1,1.5,0.3v0.9c-0.4-0.2-0.9-0.3-1.4-0.3c-1.2,0-1.7,0.8-1.7,2.4s0.5,2.4,1.7,2.4
				c0.5,0,1-0.1,1.4-0.3v0.9c-0.5,0.2-1,0.3-1.5,0.3c-1.9,0-2.6-1.2-2.6-3.3S38.7,143.7,40.6,143.7z"/>
		</g>
		<g>
			<path class="st1" d="M43.9,150.2h-1v-6.4H45c1.7,0,2.2,0.7,2.2,1.9c0.1,0.7-0.3,1.4-1,1.7l1.3,2.8h-1.2l-1.2-2.6h-1.3v2.6H43.9z
				 M43.9,146.7h1.3c0.9,0,1-0.5,1-1s-0.1-1-1-1h-1.3V146.7z"/>
		</g>
		<g>
			<path class="st1" d="M48.1,150.2v-6.4h1v6.4H48.1z"/>
		</g>
		<g>
			<path class="st1" d="M53.6,149.3h-0.9l-1.6-3.9v4.8h-1v-6.4h1.2l1.7,4.3l1.7-4.3H56v6.4h-1v-4.8L53.6,149.3z"/>
		</g>
		<g>
			<path class="st1" d="M57.2,150.2v-6.4h1v6.4H57.2z"/>
		</g>
		<g>
			<path class="st1" d="M62.9,150.2l-2.8-4.5v4.5h-0.9v-6.4H60l2.8,4.5v-4.5h0.9v6.4H62.9z"/>
		</g>
		<g>
			<path class="st1" d="M67.8,148.6h-2l-0.4,1.6h-1l2-6.4h1l2,6.4h-1L67.8,148.6z M66.8,145l-0.8,2.8h1.6L66.8,145z"/>
		</g>
		<g>
			<path class="st1" d="M71.3,144.7v5.5h-1v-5.5h-1.6v-0.9H73v0.9H71.3z"/>
		</g>
		<g>
			<path class="st1" d="M73.2,147c0-1.8,0.4-3.3,2.5-3.3s2.4,1.5,2.4,3.3s-0.4,3.3-2.4,3.3S73.2,148.8,73.2,147z M74.2,147
				c0,1.5,0.3,2.4,1.5,2.4s1.5-0.9,1.5-2.4s-0.3-2.4-1.5-2.4S74.1,145.5,74.2,147L74.2,147z"/>
		</g>
		<g>
			<path class="st1" d="M79.8,150.2h-1v-6.4h2.1c1.7,0,2.2,0.7,2.2,1.9c0.1,0.7-0.3,1.4-1,1.7l1.3,2.8h-1.1l-1.2-2.6h-1.3V150.2z
				 M79.8,146.7H81c0.9,0,1-0.5,1-1s-0.1-1-1-1h-1.2V146.7z"/>
		</g>
		<g>
			<path class="st1" d="M86.3,147.6v2.6h-1v-2.6l-2.2-3.8h1.1l1.6,3l1.6-3h1.1L86.3,147.6z"/>
		</g>
		<g>
			<path class="st1" d="M7.8,158.3h2.8v0.9H6.9v-6.4h1L7.8,158.3z"/>
		</g>
		<g>
			<path class="st1" d="M14.4,157.6h-2l-0.4,1.6h-1l2-6.4h1l2,6.4h-1L14.4,157.6z M13.4,154l-0.8,2.8h1.6L13.4,154z"/>
		</g>
		<g>
			<path class="st1" d="M18.5,152.8h1.2l1.1,5l0.8-5h1l-1.2,6.4h-1.1l-1.1-5.3l-1.2,5.3h-1.2l-1.2-6.4h1l0.8,5L18.5,152.8z"/>
		</g>
		<g>
			<path class="st1" d="M27.3,157.3c0,1.2-0.7,2-2.4,2c-0.6,0-1.3-0.1-1.9-0.4V158c0.6,0.3,1.2,0.4,1.8,0.4c1.1,0,1.5-0.5,1.5-1.1
				s-0.3-0.9-1.2-1c-1.5-0.2-2.2-0.6-2.2-1.8c0-0.9,0.5-1.8,2.3-1.8c0.6,0,1.2,0.1,1.7,0.3v1c-0.5-0.2-1.1-0.3-1.7-0.3
				c-1,0-1.3,0.4-1.3,1s0.4,0.8,1.2,0.9C26.5,155.7,27.3,156,27.3,157.3z"/>
		</g>
		<g>
			<path class="st1" d="M32.7,157.6h-2l-0.5,1.6h-1l2-6.4h1l2,6.4h-1L32.7,157.6z M31.7,154l-0.8,2.8h1.6L31.7,154z"/>
		</g>
		<g>
			<path class="st1" d="M38.4,159.2l-2.8-4.5v4.5h-0.9v-6.4h0.9l2.8,4.5v-4.5h1v6.4H38.4z"/>
		</g>
		<g>
			<path class="st1" d="M40.2,159.2v-6.4h1.9c2.1,0,2.7,1.4,2.7,3.2s-0.6,3.2-2.7,3.2H40.2z M41.2,158.3h1c1.3,0,1.7-0.9,1.7-2.3
				s-0.4-2.3-1.7-2.3h-1V158.3z"/>
		</g>
		<g>
			<path class="st1" d="M48,159.2h-1v-6.4h2c1.6,0,2.2,0.9,2.2,2s-0.6,2-2.2,2h-1V159.2z M48,156h1.1c0.6,0.1,1.2-0.4,1.2-1
				s-0.4-1.2-1-1.2c-0.1,0-0.1,0-0.2,0H48V156z"/>
		</g>
		<g>
			<path class="st1" d="M51.7,156c0-1.8,0.4-3.3,2.5-3.3s2.5,1.5,2.5,3.3s-0.4,3.3-2.5,3.3S51.7,157.8,51.7,156z M52.7,156
				c0,1.5,0.3,2.4,1.5,2.4s1.5-0.9,1.5-2.4s-0.3-2.4-1.5-2.4S52.6,154.5,52.7,156L52.7,156z"/>
		</g>
		<g>
			<path class="st1" d="M58.3,158.3H61v0.9h-3.7v-6.4h1V158.3z"/>
		</g>
		<g>
			<path class="st1" d="M61.7,159.2v-6.4h1v6.4H61.7z"/>
		</g>
		<g>
			<path class="st1" d="M66.3,152.7c0.5,0,1,0.1,1.5,0.3v0.9c-0.5-0.2-0.9-0.3-1.4-0.3c-1.2,0-1.7,0.8-1.7,2.4s0.5,2.4,1.7,2.4
				c0.5,0,1-0.1,1.4-0.3v0.9c-0.5,0.2-1,0.3-1.5,0.3c-1.9,0-2.6-1.2-2.6-3.3S64.4,152.7,66.3,152.7z"/>
		</g>
		<g>
			<path class="st1" d="M68.8,159.2v-6.4h0.9v6.4H68.8z"/>
		</g>
		<g>
			<path class="st1" d="M74.4,156.3h-2.7v2h2.9v0.9h-3.9v-6.4h3.9v0.9h-2.9v1.8h2.7V156.3z"/>
		</g>
		<g>
			<path class="st1" d="M79.6,157.3c0,1.2-0.7,2-2.4,2c-0.6,0-1.3-0.1-1.9-0.4V158c0.6,0.3,1.2,0.4,1.8,0.4c1.2,0,1.5-0.5,1.5-1.1
				s-0.3-0.9-1.2-1c-1.6-0.2-2.2-0.6-2.2-1.8c0-0.9,0.5-1.8,2.3-1.8c0.6,0,1.2,0.1,1.7,0.3v1c-0.5-0.2-1.1-0.3-1.7-0.3
				c-1,0-1.3,0.4-1.3,1s0.4,0.8,1.2,0.9C78.8,155.7,79.6,156,79.6,157.3z"/>
		</g>
	</g>
	<g>
		<rect x="3.3" y="24" class="st1" width="94.8" height="94.8"/>
	</g>
	<g>
		<path class="st1" d="M98.2,20.7H3.3V3.3h94.8L98.2,20.7L98.2,20.7z M4.3,19.7h92.8V4.3H4.3V19.7z"/>
	</g>
	<g class="st2">
		<path class="st1" d="M6.7,6.9h4.5v1.4H9.9v8.8H8.1V8.3H6.7V6.9z"/>
	</g>
	<g class="st2">
		<path class="st1" d="M11.2,17.1l1.9-10.2H15l2,10.2h-1.8l-0.3-1.9h-1.8l-0.3,1.9H11.2z M13.3,13.9h1.4L14,9.8l0,0L13.3,13.9z"/>
	</g>
	<g class="st2">
		<path class="st1" d="M19.6,12.4v4.7h-1.7V6.9h2.5c1.7,0,2.4,0.9,2.4,2.3v1.3c0,1.1-0.4,1.7-1.4,2l1.6,4.6h-1.8L19.6,12.4z
			 M19.6,8.3v3.2h0.6c0.6,0,0.8-0.3,0.8-0.8V9.2c0-0.6-0.3-0.8-0.8-0.8L19.6,8.3L19.6,8.3z"/>
	</g>
	<g class="st2">
		<path class="st1" d="M26.4,11.7h2.4v5.4h-1.2V16c-0.2,0.8-0.7,1.2-1.6,1.2c-1.5,0-2.1-1.2-2.1-2.7V9.6c0-1.6,0.8-2.7,2.6-2.7
			c1.9,0,2.4,1.1,2.4,2.6v0.9h-1.6v-1c0-0.6-0.2-1-0.9-1c-0.6,0-0.9,0.4-0.9,1v5.5c0,0.6,0.3,1,0.8,1c0.6,0,0.8-0.3,0.8-1V13h-0.8
			v-1.3H26.4z"/>
	</g>
	<g class="st2">
		<path class="st1" d="M30.2,6.9h4.1v1.4h-2.4v2.9h1.7v1.4h-1.7v3.1h2.4v1.4h-4.1C30.2,17.1,30.2,6.9,30.2,6.9z"/>
	</g>
	<g class="st2">
		<path class="st1" d="M35.1,6.9h4.5v1.4h-1.4v8.8h-1.7V8.3h-1.4C35.1,8.3,35.1,6.9,35.1,6.9z"/>
	</g>
	<g class="st2">
		<path class="st1" d="M89.4,6.9h2.5c1.7,0,2.3,0.8,2.3,2.2v1c0,0.9-0.3,1.4-1,1.6c0.9,0.2,1.3,0.8,1.3,1.7v1.3
			c0,1.4-0.6,2.2-2.4,2.2h-2.7C89.4,16.9,89.4,6.9,89.4,6.9z M91.1,11.2h0.6c0.6,0,0.8-0.3,0.8-0.8V9.2c0-0.6-0.3-0.8-0.8-0.8h-0.6
			V11.2z M91.1,12.5v3.2h0.8c0.6,0,0.8-0.3,0.8-0.8v-1.5c0-0.5-0.3-0.8-0.9-0.8L91.1,12.5L91.1,12.5z"/>
	</g>
	<g class="st2">
		<path class="st1" d="M76.8,6.9v10.2h-1.7V9.3l0,0l-1.2,1.2l0,0V8.8L75.5,7L76.8,6.9L76.8,6.9z"/>
		<path class="st1" d="M78.3,14.5v-5c0-1.6,0.7-2.7,2.5-2.7c1.9,0,2.4,1.1,2.4,2.6v0.5h-1.6V9.2c0-0.6-0.2-1-0.8-1
			c-0.6,0-0.8,0.4-0.8,1v2.2l0,0c0.3-0.5,0.7-0.8,1.4-0.8c1.2,0,1.9,0.8,1.9,2.5v1.5c0,1.6-0.7,2.6-2.5,2.6
			C78.9,17.2,78.3,16.1,78.3,14.5z M81.6,14.8V13c0-0.7-0.2-1-0.8-1c-0.5,0-0.8,0.4-0.8,0.9v1.9c0,0.6,0.2,1,0.8,1
			C81.3,15.8,81.6,15.4,81.6,14.8z"/>
	</g>
	<g>
		<polygon class="st1" points="85.4,9.9 85.4,14.1 87.6,12 		"/>
	</g>
	<g>
		<path class="st1" d="M98.2,162.9h-95v-40.8h95V162.9z M4.2,161.9h93v-38.8h-93C4.2,123.1,4.2,161.9,4.2,161.9z"/>
	</g>
	<g>
		<g>
			<path class="st3" d="M24.8,78.1h29c0.2,0,0.3-0.1,0.3-0.2v-4.6c0-0.1-0.1-0.2-0.3-0.2h-29c-0.2,0-0.3,0.1-0.3,0.2V78
				C24.5,78,24.7,78.1,24.8,78.1z"/>
		</g>
		<g>
			<path class="st3" d="M24.8,86.2h29c0.2,0,0.3-0.1,0.3-0.2v-4.6c0-0.1-0.1-0.2-0.3-0.2h-29c-0.2,0-0.3,0.1-0.3,0.2V86
				C24.5,86.1,24.7,86.2,24.8,86.2z"/>
		</g>
		<g>
			<path class="st0" d="M67,45.5c-0.9,0-1.6,0.7-1.6,1.6v10.6c0.1,0.9,0.9,1.6,1.8,1.5c0.8-0.1,1.4-0.7,1.5-1.5V47.2
				C68.6,46.3,67.9,45.6,67,45.5z"/>
		</g>
		<g>
			<path class="st0" d="M88,45.5c-0.9,0-1.6,0.7-1.6,1.6v10.6c0.1,0.9,0.9,1.6,1.8,1.5c0.8-0.1,1.4-0.7,1.5-1.5V47.2
				C89.6,46.3,88.9,45.6,88,45.5z"/>
		</g>
		<g>
			<path class="st0" d="M84.9,46.8H70.2c-0.2,0-0.4,0.2-0.4,0.4l0,0v10.3c0,0.2,0.2,0.4,0.4,0.5h5.6l-0.7,40.9
				c0,0.2,0.2,0.4,0.4,0.4h3.9c0.2,0,0.4-0.1,0.4-0.4L78.9,58h5.8c0.2,0,0.4-0.2,0.4-0.5V47.2C85.3,47,85.1,46.8,84.9,46.8
				L84.9,46.8z"/>
		</g>
		<g>
			<polygon class="st0" points="16.7,47.4 13.8,47.4 13.8,102.2 53,102.2 53,98.9 16.7,98.9 			"/>
		</g>
		<g>
			<path class="st0" d="M19.6,44.1v51.6h39.2V41H19.6V44.1z M25.3,60.1L25.3,60.1L30.4,47c0.1-0.1,0.2-0.2,0.4-0.2h7.6v-2
				c0-0.1,0-0.1,0.1-0.1h1.4c0.1,0,0.2,0,0.2,0.1v2h7.8c0.2,0,0.3,0.1,0.4,0.2l4.9,13.1c0,0,0,0,0,0.1l0,0c0,0,0,0,0,0.1
				c0,1.4-0.6,2.7-1.7,3.7c-1.1,1-2.5,1.5-3.9,1.5c-3,0.1-5.5-2.2-5.6-5.2v-0.1v-0.1l4.4-11.7H40v17.9h4.6c0,0,0.1,0,0.1,0.1l0,0
				v1.5c0,0.1,0,0.1-0.1,0.1H33.9c-0.1,0-0.1,0-0.1-0.1v-1.5c0-0.1,0-0.1,0.1-0.1h4.4V48.4h-6.1l4.3,11.7l0,0l0,0l0,0c0,0,0,0,0,0.1
				c0,1.4-0.6,2.7-1.7,3.7c-1.1,1-2.5,1.5-4,1.5C27.9,65.4,25.4,63.1,25.3,60.1L25.3,60.1z M24.5,73.3c0-0.1,0.1-0.2,0.3-0.2h29
				c0.2,0,0.3,0.1,0.3,0.2V78c0,0.1-0.1,0.2-0.3,0.2h-29c-0.2,0-0.3-0.1-0.3-0.2V73.3z M24.5,81.4c0-0.1,0.1-0.2,0.3-0.2h29
				c0.2,0,0.3,0.1,0.3,0.2V86c0,0.1-0.1,0.2-0.3,0.2h-29c-0.2,0-0.3-0.1-0.3-0.2V81.4z"/>
		</g>
		<g>
			<polygon class="st0" points="51.3,59.8 47.5,49.9 43.8,59.8 			"/>
		</g>
		<g>
			<polygon class="st0" points="31,49.9 27.2,59.8 34.7,59.8 			"/>
		</g>
	</g>
</g>
</svg>
