<?xml version="1.0" encoding="utf-8"?>
<!-- Generator: Adobe Illustrator 22.0.1, SVG Export Plug-In . SVG Version: 6.00 Build 0)  -->
<svg version="1.1" id="Layer_1" xmlns="http://www.w3.org/2000/svg" xmlns:xlink="http://www.w3.org/1999/xlink" x="0px" y="0px"
	 viewBox="0 0 101.5 157.1" style="enable-background:new 0 0 101.5 157.1;" xml:space="preserve">
<style type="text/css">
	.st0{fill:#FFFFFF;}
	.st1{enable-background:new    ;}
	.st2{fill:#00689D;}
</style>
<title>TARGET 1 B copy 12</title>
<g id="WHITE_BG">
	<g>
		<rect y="0" class="st0" width="101.5" height="157.2"/>
	</g>
</g>
<g id="TARGETS">
	<g class="st1">
		<path class="st2" d="M11.1,130.3c0,1.2-0.7,2-2.4,2c-0.6,0-1.5-0.1-1.9-0.4v-1c0.3,0.2,1,0.4,1.8,0.4c1.1,0,1.5-0.5,1.5-1.1
			c0-0.7-0.3-0.9-1.2-1c-1.6-0.2-2.2-0.6-2.2-1.8c0-0.9,0.5-1.8,2.3-1.8c0.8,0,1.4,0.1,1.7,0.3v0.9c-0.5-0.2-1-0.3-1.7-0.3
			c-1,0-1.3,0.4-1.3,1c0,0.7,0.4,0.8,1.2,0.9C10.3,128.7,11.1,129,11.1,130.3z"/>
	</g>
	<g class="st1">
		<path class="st2" d="M13.8,126.7v5.5h-1v-5.5h-1.7v-0.9h4.3v0.9H13.8z"/>
	</g>
	<g class="st1">
		<path class="st2" d="M16.9,132.2h-1v-6.4h2.1c1.6,0,2.2,0.7,2.2,1.9c0,0.8-0.3,1.4-1,1.7l1.3,2.8h-1.1l-1.2-2.6h-1.3V132.2z
			 M16.9,128.7h1.3c0.9,0,1-0.5,1-1c0-0.5-0.1-1-1-1h-1.3V128.7z"/>
		<path class="st2" d="M24.8,129.3h-2.7v2h2.9v0.9h-3.9v-6.4h3.9v0.9h-2.9v1.8h2.7V129.3z"/>
	</g>
	<g class="st1">
		<path class="st2" d="M29.6,132.2l-2.8-4.5l0,4.5h-0.9v-6.4h0.9l2.8,4.5l0-4.5h0.9v6.4H29.6z"/>
		<path class="st2" d="M31.2,129c0-2,0.7-3.3,2.6-3.3c0.9,0,1.5,0.2,1.8,0.3v0.9c-0.6-0.2-1.1-0.4-1.7-0.4c-1.3,0-1.8,0.9-1.8,2.4
			c0,1.6,0.5,2.4,1.8,2.4c0.4,0,0.7-0.1,0.9-0.1v-1.7h-1.1v-0.9h2.1v3.2c-0.3,0.2-1.1,0.4-2,0.4C31.8,132.3,31.2,131,31.2,129z"/>
		<path class="st2" d="M40.1,132.2v-2.9h-2.6v2.9h-1v-6.4h1v2.6h2.6v-2.6h1v6.4H40.1z"/>
		<path class="st2" d="M44.1,126.7v5.5h-1v-5.5h-1.7v-0.9h4.3v0.9H44.1z"/>
		<path class="st2" d="M49.9,129.3h-2.7v2h2.9v0.9h-3.9v-6.4h3.9v0.9h-2.9v1.8h2.7V129.3z"/>
		<path class="st2" d="M54.5,132.2l-2.8-4.5l0,4.5h-0.9v-6.4h0.9l2.8,4.5l0-4.5h0.9v6.4H54.5z"/>
	</g>
	<g class="st1">
	</g>
	<g class="st1">
		<path class="st2" d="M60,126.7v5.5h-1v-5.5h-1.7v-0.9h4.3v0.9H60z"/>
	</g>
	<g class="st1">
		<path class="st2" d="M65.7,132.2v-2.9h-2.6v2.9h-1v-6.4h1v2.6h2.6v-2.6h1v6.4H65.7z"/>
	</g>
	<g class="st1">
		<path class="st2" d="M71.2,129.3h-2.7v2h2.9v0.9h-3.9v-6.4h3.9v0.9h-2.9v1.8h2.7V129.3z"/>
	</g>
	<g class="st1">
		<path class="st2" d="M7.8,141.2h-1v-6.4h2c1.6,0,2.2,1,2.2,2c0,1-0.6,2-2.2,2H7.8V141.2z M7.8,137.9H9c1,0,1.1-0.6,1.1-1.1
			s-0.2-1.1-1.1-1.1H7.8V137.9z"/>
	</g>
	<g class="st1">
		<path class="st2" d="M14.2,139.6h-2l-0.5,1.6h-1l2-6.5h1l2,6.5h-1L14.2,139.6z M13.2,136l-0.8,2.8H14L13.2,136z"/>
	</g>
	<g class="st1">
		<path class="st2" d="M17.2,141.2h-1v-6.4h2.1c1.6,0,2.2,0.7,2.2,1.9c0,0.8-0.3,1.4-1,1.7l1.3,2.8h-1.1l-1.2-2.6h-1.3V141.2z
			 M17.2,137.7h1.3c0.9,0,1-0.5,1-1c0-0.5-0.1-1-1-1h-1.3V137.7z"/>
	</g>
	<g class="st1">
		<path class="st2" d="M23.4,135.7v5.5h-1v-5.5h-1.7v-0.9H25v0.9H23.4z"/>
		<path class="st2" d="M25.7,141.2v-6.4h1v6.4H25.7z"/>
		<path class="st2" d="M30.1,134.7c0.8,0,1.2,0.1,1.5,0.3v0.9c-0.5-0.2-0.9-0.3-1.4-0.3c-1.2,0-1.7,0.8-1.7,2.4s0.5,2.4,1.7,2.4
			c0.6,0,1-0.1,1.4-0.3v0.9c-0.3,0.1-0.7,0.3-1.5,0.3c-1.9,0-2.6-1.2-2.6-3.3S28.2,134.7,30.1,134.7z"/>
	</g>
	<g class="st1">
		<path class="st2" d="M32.5,141.2v-6.4h1v6.4H32.5z"/>
	</g>
	<g class="st1">
		<path class="st2" d="M35.5,141.2h-1v-6.4h2c1.6,0,2.2,1,2.2,2c0,1-0.6,2-2.2,2h-1.1V141.2z M35.5,137.9h1.1c1,0,1.1-0.6,1.1-1.1
			s-0.2-1.1-1.1-1.1h-1.1V137.9z"/>
	</g>
	<g class="st1">
		<path class="st2" d="M41.9,139.6h-2l-0.5,1.6h-1l2-6.5h1l2,6.5h-1L41.9,139.6z M40.8,136l-0.8,2.8h1.6L40.8,136z"/>
	</g>
	<g class="st1">
		<path class="st2" d="M45.4,135.7v5.5h-1v-5.5h-1.7v-0.9H47v0.9H45.4z"/>
	</g>
	<g class="st1">
		<path class="st2" d="M47.8,141.2v-6.4h1v6.4H47.8z"/>
		<path class="st2" d="M49.6,138c0-1.8,0.4-3.3,2.5-3.3c2,0,2.5,1.5,2.5,3.3s-0.4,3.3-2.5,3.3C50,141.3,49.6,139.8,49.6,138z
			 M50.6,138c0,1.5,0.3,2.4,1.5,2.4c1.2,0,1.5-0.9,1.5-2.4s-0.3-2.4-1.5-2.4C50.9,135.6,50.6,136.5,50.6,138z"/>
		<path class="st2" d="M58.9,141.2l-2.8-4.5l0,4.5h-0.9v-6.4h0.9l2.8,4.5l0-4.5h0.9v6.4H58.9z"/>
	</g>
	<g class="st1">
		<path class="st2" d="M62.3,141.2v-6.4h1v6.4H62.3z"/>
	</g>
	<g class="st1">
		<path class="st2" d="M68.1,141.2l-2.8-4.5l0,4.5h-0.9v-6.4h0.9l2.8,4.5l0-4.5h0.9v6.4H68.1z"/>
	</g>
	<g class="st1">
		<path class="st2" d="M6.8,147c0-2,0.7-3.3,2.6-3.3c0.9,0,1.5,0.2,1.8,0.3v0.9c-0.6-0.2-1.1-0.4-1.7-0.4c-1.3,0-1.8,0.9-1.8,2.4
			c0,1.6,0.5,2.4,1.8,2.4c0.4,0,0.7-0.1,0.9-0.1v-1.7H9.3v-0.9h2.1v3.2c-0.3,0.2-1.1,0.4-2,0.4C7.5,150.3,6.8,149,6.8,147z"/>
	</g>
	<g class="st1">
		<path class="st2" d="M13.3,149.3h2.8v0.9h-3.7v-6.4h1V149.3z"/>
	</g>
	<g class="st1">
		<path class="st2" d="M16.1,147c0-1.8,0.4-3.3,2.5-3.3s2.5,1.5,2.5,3.3s-0.4,3.3-2.5,3.3S16.1,148.8,16.1,147z M17,147
			c0,1.5,0.3,2.4,1.5,2.4s1.5-0.9,1.5-2.4s-0.3-2.4-1.5-2.4S17,145.5,17,147z"/>
	</g>
	<g class="st1">
		<path class="st2" d="M21.7,143.8h2.1c1.6,0,2,0.8,2,1.7c0,0.5-0.3,1-0.8,1.3c0.6,0.2,1,0.8,1,1.5c0,1.1-0.5,1.9-2.2,1.9h-2.2
			V143.8z M23.9,144.7h-1.2v1.8h1.2c0.8,0,0.9-0.5,0.9-0.9C24.9,145.2,24.7,144.7,23.9,144.7z M22.7,149.3h1.3c0.9,0,1.1-0.5,1.1-1
			c0-0.7-0.3-1-1.1-1h-1.3V149.3z"/>
	</g>
	<g class="st1">
		<path class="st2" d="M29.8,148.6h-2l-0.5,1.6h-1l2-6.5h1l2,6.5h-1L29.8,148.6z M28.8,145l-0.8,2.8h1.6L28.8,145z"/>
		<path class="st2" d="M32.8,149.3h2.8v0.9h-3.7v-6.4h1V149.3z"/>
		<path class="st2" d="M37.6,147c0-2,0.7-3.3,2.6-3.3c0.9,0,1.5,0.2,1.8,0.3v0.9c-0.6-0.2-1.1-0.4-1.7-0.4c-1.3,0-1.8,0.9-1.8,2.4
			c0,1.6,0.5,2.4,1.8,2.4c0.4,0,0.7-0.1,0.9-0.1v-1.7h-1.1v-0.9h2.1v3.2c-0.3,0.2-1.1,0.4-2,0.4C38.3,150.3,37.6,149,37.6,147z"/>
	</g>
	<g class="st1">
		<path class="st2" d="M42.8,147c0-1.8,0.4-3.3,2.5-3.3s2.5,1.5,2.5,3.3s-0.4,3.3-2.5,3.3S42.8,148.8,42.8,147z M43.8,147
			c0,1.5,0.3,2.4,1.5,2.4s1.5-0.9,1.5-2.4s-0.3-2.4-1.5-2.4S43.8,145.5,43.8,147z"/>
	</g>
	<g class="st1">
		<path class="st2" d="M52.9,143.8l-2,6.5h-1l-2-6.5h1l1.5,5.2l1.5-5.2H52.9z"/>
	</g>
	<g class="st1">
		<path class="st2" d="M57,147.3h-2.7v2h2.9v0.9h-3.9v-6.4h3.9v0.9h-2.9v1.8H57V147.3z"/>
		<path class="st2" d="M59.1,150.2h-1v-6.4h2.1c1.6,0,2.2,0.7,2.2,1.9c0,0.8-0.3,1.4-1,1.7l1.3,2.8h-1.1l-1.2-2.6h-1.3V150.2z
			 M59.1,146.7h1.3c0.9,0,1-0.5,1-1c0-0.5-0.1-1-1-1h-1.3V146.7z"/>
	</g>
	<g class="st1">
		<path class="st2" d="M67,150.2l-2.8-4.5l0,4.5h-0.9v-6.4h0.9l2.8,4.5l0-4.5h0.9v6.4H67z"/>
		<path class="st2" d="M72,148.6h-2l-0.5,1.6h-1l2-6.5h1l2,6.5h-1L72,148.6z M70.9,145l-0.8,2.8h1.6L70.9,145z"/>
	</g>
	<g class="st1">
		<path class="st2" d="M77.6,150.2l-2.8-4.5l0,4.5h-0.9v-6.4h0.9l2.8,4.5l0-4.5h0.9v6.4H77.6z"/>
		<path class="st2" d="M82,143.7c0.8,0,1.2,0.1,1.5,0.3v0.9c-0.5-0.2-0.9-0.3-1.4-0.3c-1.2,0-1.7,0.8-1.7,2.4s0.5,2.4,1.7,2.4
			c0.6,0,1-0.1,1.4-0.3v0.9c-0.3,0.1-0.7,0.3-1.5,0.3c-1.9,0-2.6-1.2-2.6-3.3S80.1,143.7,82,143.7z"/>
	</g>
	<g class="st1">
		<path class="st2" d="M87.9,147.3h-2.7v2h2.9v0.9h-3.9v-6.4h3.9v0.9h-2.9v1.8h2.7V147.3z"/>
	</g>
	<g>
		<rect x="3.3" y="24" class="st2" width="94.8" height="94.8"/>
	</g>
	<g>
		<path class="st2" d="M98.2,20.7H3.3V3.3h94.8V20.7z M4.3,19.7h92.8V4.3H4.3L4.3,19.7z"/>
	</g>
	<g class="st1">
		<path class="st2" d="M6.7,6.9h4.5v1.4H9.9v8.8H8.1V8.3H6.7V6.9z"/>
	</g>
	<g class="st1">
		<path class="st2" d="M11.2,17.1l1.9-10.2h1.9L17,17.1h-1.8l-0.3-1.9h-1.8l-0.3,1.9H11.2z M13.3,13.9h1.4L14,9.8h0L13.3,13.9z"/>
	</g>
	<g class="st1">
		<path class="st2" d="M19.6,12.4v4.7h-1.7V6.9h2.5c1.7,0,2.4,0.9,2.4,2.3v1.3c0,1.1-0.4,1.7-1.4,2l1.6,4.6h-1.8L19.6,12.4z
			 M19.6,8.3v3.2h0.6c0.6,0,0.8-0.3,0.8-0.8V9.2c0-0.6-0.3-0.8-0.8-0.8H19.6z"/>
	</g>
	<g class="st1">
		<path class="st2" d="M26.4,11.7h2.4v5.4h-1.2V16c-0.2,0.8-0.7,1.2-1.6,1.2c-1.5,0-2.1-1.2-2.1-2.7V9.6c0-1.6,0.8-2.7,2.6-2.7
			c1.9,0,2.4,1.1,2.4,2.6v0.9h-1.6v-1c0-0.6-0.2-1-0.9-1c-0.6,0-0.9,0.4-0.9,1v5.5c0,0.6,0.3,1,0.8,1c0.6,0,0.8-0.3,0.8-1V13h-0.8
			V11.7z"/>
	</g>
	<g class="st1">
		<path class="st2" d="M30.2,6.9h4.1v1.4h-2.4v2.9h1.7v1.4h-1.7v3.1h2.4v1.4h-4.1V6.9z"/>
	</g>
	<g class="st1">
		<path class="st2" d="M35.1,6.9h4.5v1.4h-1.4v8.8h-1.7V8.3h-1.4V6.9z"/>
	</g>
	<g class="st1">
		<path class="st2" d="M77.3,6.9v10.2h-1.7V9.3h0l-1.2,1.2h0V8.8l1.6-1.8H77.3z"/>
		<path class="st2" d="M78.7,14.5v-5c0-1.6,0.7-2.7,2.5-2.7c1.9,0,2.4,1.1,2.4,2.6v0.5H82V9.2c0-0.6-0.2-1-0.8-1
			c-0.6,0-0.8,0.4-0.8,1v2.2h0c0.3-0.5,0.7-0.8,1.4-0.8c1.2,0,1.9,0.8,1.9,2.5v1.5c0,1.6-0.7,2.6-2.5,2.6
			C79.4,17.2,78.7,16.1,78.7,14.5z M82,14.8V13c0-0.7-0.2-1-0.8-1c-0.5,0-0.8,0.4-0.8,0.9v1.9c0,0.6,0.2,1,0.8,1
			C81.8,15.8,82,15.5,82,14.8z"/>
	</g>
	<g class="st1">
	</g>
	<g class="st1">
		<path class="st2" d="M86.5,10.8c0.7,0,1.2,0.6,1.2,1.2c0,0.7-0.6,1.2-1.2,1.2c-0.7,0-1.2-0.6-1.2-1.2
			C85.2,11.4,85.8,10.8,86.5,10.8z"/>
	</g>
	<g class="st1">
		<path class="st2" d="M89.2,14.6v-1.1c0-1,0.3-1.7,1.1-2c-0.7-0.3-1-0.9-1-1.8V9.3c0-1.6,0.8-2.4,2.4-2.4c1.6,0,2.4,0.9,2.4,2.4
			v0.4c0,0.8-0.3,1.4-1,1.8c0.8,0.4,1.1,1.1,1.1,2v1.1c0,1.5-0.7,2.6-2.5,2.6C90,17.2,89.2,16.2,89.2,14.6z M92.6,14.8v-1.6
			c0-0.6-0.2-1-0.8-1c-0.6,0-0.8,0.4-0.8,1v1.6c0,0.6,0.2,1,0.8,1C92.4,15.8,92.6,15.4,92.6,14.8z M92.6,9.9V9.2c0-0.6-0.2-1-0.8-1
			c-0.6,0-0.8,0.4-0.8,1v0.7c0,0.6,0.2,1,0.8,1C92.4,10.8,92.6,10.5,92.6,9.9z"/>
	</g>
	<g>
		<g>
			<path class="st2" d="M11.1,130.3c0,1.2-0.7,2-2.4,2c-0.6,0-1.3-0.1-1.9-0.4V131c0.6,0.3,1.2,0.4,1.8,0.4c1.1,0,1.5-0.5,1.5-1.1
				s-0.3-0.9-1.2-1c-1.6-0.2-2.2-0.6-2.2-1.8c0-0.9,0.5-1.8,2.3-1.8c0.6,0,1.2,0.1,1.7,0.3v1c-0.5-0.2-1.1-0.3-1.7-0.3
				c-1,0-1.3,0.4-1.3,1c0,0.7,0.4,0.8,1.2,0.9C10.3,128.7,11.1,129,11.1,130.3z"/>
		</g>
		<g>
			<path class="st2" d="M13.8,126.7v5.5h-1v-5.5h-1.6v-0.9h4.3v0.9H13.8z"/>
		</g>
		<g>
			<path class="st2" d="M16.9,132.2H16v-6.4h2.1c1.6,0,2.2,0.7,2.2,1.9c0.1,0.7-0.3,1.4-1,1.7l1.3,2.8h-1.1l-1.2-2.6h-1.3V132.2z
				 M16.9,128.7h1.3c0.9,0,1-0.5,1-1s-0.1-1-1-1h-1.3V128.7z"/>
		</g>
		<g>
			<path class="st2" d="M24.8,129.3h-2.7v2h2.9v0.9h-3.9v-6.4h3.9v0.9h-2.9v1.8h2.6L24.8,129.3z"/>
		</g>
		<g>
			<path class="st2" d="M29.6,132.2l-2.8-4.5v4.5h-1v-6.4h0.9l2.8,4.5v-4.5h0.9v6.4H29.6z"/>
		</g>
		<g>
			<path class="st2" d="M31.2,129c0-2,0.7-3.3,2.6-3.3c0.6,0,1.2,0.1,1.8,0.3v1c-0.5-0.2-1.1-0.4-1.7-0.4c-1.3,0-1.8,0.9-1.8,2.4
				s0.5,2.4,1.8,2.4c0.3,0,0.6,0,0.9-0.1v-1.7h-1.1v-0.9h2.1v3.2c-0.6,0.3-1.3,0.4-2,0.4C31.9,132.3,31.2,131,31.2,129z"/>
		</g>
		<g>
			<path class="st2" d="M40.1,132.2v-2.9h-2.6v2.9h-1v-6.4h1v2.6h2.6v-2.6h1v6.4H40.1z"/>
		</g>
		<g>
			<path class="st2" d="M44.2,126.7v5.5h-1v-5.5h-1.6v-0.9h4.3v0.9H44.2z"/>
		</g>
		<g>
			<path class="st2" d="M50,129.3h-2.6v2h2.9v0.9h-3.9v-6.4h3.9v0.9h-2.9v1.8H50V129.3z"/>
		</g>
		<g>
			<path class="st2" d="M54.7,132.2l-2.8-4.5v4.5H51v-6.4h0.9l2.8,4.5v-4.5h1v6.4H54.7z"/>
		</g>
		<g>
			<path class="st2" d="M60,126.7v5.5h-1v-5.5h-1.7v-0.9h4.3v0.9H60z"/>
		</g>
		<g>
			<path class="st2" d="M65.7,132.2v-2.9h-2.6v2.9h-1v-6.4h1v2.6h2.6v-2.6h0.9v6.4H65.7z"/>
		</g>
		<g>
			<path class="st2" d="M71.2,129.3h-2.7v2h2.9v0.9h-3.9v-6.4h3.9v0.9h-2.9v1.8h2.7V129.3z"/>
		</g>
		<g>
			<path class="st2" d="M7.8,141.2h-1v-6.4h2.1c1.6,0,2.2,0.9,2.2,2s-0.6,2-2.2,2H7.8V141.2z M7.8,137.9H9c0.6,0.1,1.2-0.4,1.2-1
				c0.1-0.6-0.4-1.2-1-1.2c-0.1,0-0.1,0-0.2,0H7.8V137.9z"/>
		</g>
		<g>
			<path class="st2" d="M14.2,139.6h-2l-0.4,1.6h-1l2-6.4h1l2,6.4h-1L14.2,139.6z M13.2,136l-0.8,2.8H14L13.2,136z"/>
		</g>
		<g>
			<path class="st2" d="M17.1,141.2h-0.9v-6.4h2.1c1.6,0,2.2,0.7,2.2,1.9c0.1,0.7-0.3,1.4-1,1.7l1.3,2.8h-1.2l-1.2-2.6h-1.3V141.2z
				 M17.1,137.7h1.3c0.9,0,1-0.5,1-1s-0.1-1-1-1h-1.3V137.7z"/>
		</g>
		<g>
			<path class="st2" d="M23.4,135.7v5.5h-1v-5.5h-1.7v-0.9H25v0.9H23.4z"/>
		</g>
		<g>
			<path class="st2" d="M25.7,141.2v-6.4h1v6.4H25.7z"/>
		</g>
		<g>
			<path class="st2" d="M30.1,134.7c0.5,0,1,0.1,1.5,0.3v0.9c-0.5-0.2-0.9-0.3-1.4-0.3c-1.2,0-1.7,0.8-1.7,2.4s0.5,2.4,1.7,2.4
				c0.5,0,1-0.1,1.4-0.3v0.9c-0.5,0.2-1,0.3-1.5,0.3c-1.9,0-2.6-1.2-2.6-3.3S28.3,134.7,30.1,134.7z"/>
		</g>
		<g>
			<path class="st2" d="M32.5,141.2v-6.4h1v6.4H32.5z"/>
		</g>
		<g>
			<path class="st2" d="M35.5,141.2h-1v-6.4h2c1.6,0,2.2,0.9,2.2,2s-0.6,2-2.2,2h-1V141.2z M35.5,137.9h1.1c0.6,0.1,1.2-0.4,1.2-1
				s-0.4-1.2-1-1.2c-0.1,0-0.1,0-0.2,0h-1.1V137.9z"/>
		</g>
		<g>
			<path class="st2" d="M41.9,139.6h-2l-0.5,1.6h-1l2-6.4h1l2,6.4h-1L41.9,139.6z M40.9,136l-0.9,2.8h1.6L40.9,136z"/>
		</g>
		<g>
			<path class="st2" d="M45.4,135.7v5.5h-1v-5.5h-1.6v-0.9H47v0.9H45.4z"/>
		</g>
		<g>
			<path class="st2" d="M47.8,141.2v-6.4h1v6.4H47.8z"/>
		</g>
		<g>
			<path class="st2" d="M49.7,138c0-1.8,0.4-3.3,2.5-3.3s2.5,1.5,2.5,3.3s-0.4,3.3-2.5,3.3S49.7,139.8,49.7,138z M50.7,138
				c0,1.5,0.3,2.4,1.5,2.4s1.5-0.9,1.5-2.4s-0.3-2.4-1.5-2.4S50.7,136.5,50.7,138L50.7,138z"/>
		</g>
		<g>
			<path class="st2" d="M59,141.2l-2.8-4.5v4.5h-0.9v-6.4h0.9l2.8,4.5v-4.5h1v6.4H59z"/>
		</g>
		<g>
			<path class="st2" d="M62.3,141.2v-6.4h1v6.4H62.3z"/>
		</g>
		<g>
			<path class="st2" d="M68.1,141.2l-2.8-4.5v4.5h-1v-6.4h0.9l2.8,4.5v-4.5h0.9v6.4H68.1z"/>
		</g>
		<g>
			<path class="st2" d="M6.8,147c0-2,0.7-3.3,2.6-3.3c0.6,0,1.3,0.1,1.8,0.3v1c-0.5-0.2-1.1-0.4-1.7-0.4c-1.3,0-1.8,0.9-1.8,2.4
				s0.5,2.4,1.8,2.4c0.3,0,0.6,0,0.9-0.1v-1.7H9.3v-0.9h2.1v3.2c-0.6,0.3-1.3,0.4-2,0.4C7.5,150.3,6.8,149,6.8,147z"/>
		</g>
		<g>
			<path class="st2" d="M13.3,149.3h2.8v0.9h-3.7v-6.4h0.9V149.3z"/>
		</g>
		<g>
			<path class="st2" d="M16.1,147c0-1.8,0.4-3.3,2.5-3.3s2.5,1.5,2.5,3.3s-0.4,3.3-2.5,3.3S16.1,148.8,16.1,147z M17.1,147
				c0,1.5,0.3,2.4,1.5,2.4s1.5-0.9,1.5-2.4s-0.3-2.4-1.5-2.4S17,145.5,17.1,147L17.1,147z"/>
		</g>
		<g>
			<path class="st2" d="M21.7,143.8h2.1c1.6,0,2,0.8,2,1.7c0,0.5-0.3,1-0.8,1.3c0.6,0.2,1.1,0.8,1,1.5c0,1.1-0.5,1.9-2.2,1.9h-2.2
				V143.8z M23.9,144.7h-1.2v1.8h1.2c0.8,0,1-0.5,1-0.9S24.7,144.7,23.9,144.7z M22.7,149.3H24c0.9,0,1.1-0.5,1.1-1s-0.3-1-1.1-1
				h-1.3V149.3z"/>
		</g>
		<g>
			<path class="st2" d="M29.8,148.6h-2l-0.5,1.6h-1l2-6.4h1l2,6.4h-1L29.8,148.6z M28.8,145l-0.8,2.8h1.6L28.8,145z"/>
		</g>
		<g>
			<path class="st2" d="M32.8,149.3h2.8v0.9h-3.7v-6.4h1L32.8,149.3z"/>
		</g>
		<g>
			<path class="st2" d="M37.5,147c0-2,0.7-3.3,2.6-3.3c0.6,0,1.3,0.1,1.8,0.3v1c-0.5-0.2-1.1-0.4-1.7-0.4c-1.3,0-1.8,0.9-1.8,2.4
				s0.5,2.4,1.8,2.4c0.3,0,0.6,0,0.9-0.1v-1.7H40v-0.9h2.1v3.2c-0.6,0.3-1.3,0.4-2,0.4C38.2,150.3,37.5,149,37.5,147z"/>
		</g>
		<g>
			<path class="st2" d="M42.8,147c0-1.8,0.4-3.3,2.5-3.3s2.5,1.5,2.5,3.3s-0.4,3.3-2.5,3.3S42.8,148.8,42.8,147z M43.8,147
				c0,1.5,0.3,2.4,1.5,2.4s1.5-0.9,1.5-2.4s-0.3-2.4-1.5-2.4S43.8,145.5,43.8,147L43.8,147z"/>
		</g>
		<g>
			<path class="st2" d="M52.9,143.8l-2,6.4h-1l-2-6.4h1l1.5,5.2l1.5-5.2L52.9,143.8z"/>
		</g>
		<g>
			<path class="st2" d="M57,147.3h-2.6v2h2.9v0.9h-3.9v-6.4h3.9v0.9h-2.9v1.8H57V147.3z"/>
		</g>
		<g>
			<path class="st2" d="M59.1,150.2h-1v-6.4h2.1c1.7,0,2.2,0.7,2.2,1.9c0.1,0.7-0.3,1.4-1,1.7l1.3,2.8h-1.2l-1.2-2.6h-1.3V150.2z
				 M59.1,146.7h1.3c0.9,0,1-0.5,1-1s-0.1-1-1-1h-1.3V146.7z"/>
		</g>
		<g>
			<path class="st2" d="M67,150.2l-2.8-4.5v4.5h-1v-6.4h0.9l2.8,4.5v-4.5h0.9v6.4H67z"/>
		</g>
		<g>
			<path class="st2" d="M71.9,148.6h-2l-0.4,1.6h-1l2-6.4h1l2,6.4h-1L71.9,148.6z M70.9,145l-0.8,2.8h1.6L70.9,145z"/>
		</g>
		<g>
			<path class="st2" d="M77.6,150.2l-2.8-4.5v4.5h-0.9v-6.4h0.9l2.8,4.5v-4.5h0.9v6.4H77.6z"/>
		</g>
		<g>
			<path class="st2" d="M82,143.7c0.5,0,1,0.1,1.5,0.3v0.9c-0.5-0.2-0.9-0.3-1.4-0.3c-1.2,0-1.7,0.8-1.7,2.4s0.5,2.4,1.7,2.4
				c0.5,0,1-0.1,1.4-0.3v0.9c-0.5,0.2-1,0.3-1.5,0.3c-1.9,0-2.6-1.2-2.6-3.3S80.1,143.7,82,143.7z"/>
		</g>
		<g>
			<path class="st2" d="M88,147.3h-2.7v2h2.9v0.9h-3.9v-6.4h3.9v0.9h-2.9v1.8H88V147.3z"/>
		</g>
	</g>
	<g>
		<path class="st2" d="M98.2,153.9h-95v-31.7h95V153.9z M4.2,152.9h93v-29.7h-93V152.9z"/>
	</g>
	<g>
		<g>
			<path class="st0" d="M50.5,49.8c3.2,0,5.9-2.6,5.9-5.9S53.8,38,50.6,38c-3.2,0-5.9,2.6-5.9,5.9l0,0
				C44.7,47.1,47.3,49.8,50.5,49.8C50.5,49.8,50.5,49.8,50.5,49.8z"/>
		</g>
		<g>
			<path class="st0" d="M57.4,52H43.7c-3.6,0.3-6.5,3.1-7,6.6h27.7C63.9,55.1,61,52.3,57.4,52z"/>
		</g>
		<g>
			<path class="st0" d="M50.5,74.2c-4.4,0-8,3.6-8,8s3.6,8,8,8s8-3.6,8-8S55,74.2,50.5,74.2z M45.6,76.9c0.1,0,0.2,0.1,0.2,0.1
				c0,0.2,0,0.3-0.1,0.5c-0.2,0.2-0.5,0.3-0.8,0.4h-0.1C45,77.5,45.3,77.2,45.6,76.9z M44.4,78.2c0.1-0.1,0.3-0.1,0.5-0.1
				c0.2,0,0.4,0.1,0.5,0.2s-0.5,0.3-0.6,0.4c-0.2,0.2-0.7,0.7-0.9,0.8c0,0-0.1,0-0.1,0C44,79,44.2,78.6,44.4,78.2z M50.5,89.4
				c-0.7,0-1.4-0.1-2.1-0.3c0,0,0-0.1,0-0.1c0.3-0.5,0.9-0.9,1.5-0.9c1.2-0.1,2.8,0.8,3,0.7s0.8-0.8,1.6-0.8c0.1,0,0.2,0,0.4,0
				C53.6,88.9,52.1,89.4,50.5,89.4z M49.2,84.6c0.3-0.5,0.9-0.5,0.4,0.3c-0.1,0.2-0.4,1.4-0.6,1.3S49.1,84.7,49.2,84.6z M52.2,82.9
				c0.2,0,0.6,0.3,0.5,0.5c-0.2,0.1-0.5,0.1-0.7-0.1C51.8,83.2,52.1,82.9,52.2,82.9z M55.6,87.4c-0.3-0.1-0.3,0.1-0.5,0.1
				s0.2-0.5-0.4-0.2s-0.4,0-0.7-0.7c-0.2-0.7,0.1-1.4,0.8-1.6c0.4-0.2,0.9-0.3,1.3-0.3c0.9-0.2,1.1-0.8,1.2-0.4l0.1,0.2
				C57.1,85.5,56.4,86.6,55.6,87.4z M55.9,83.4c-0.1,0-0.1-0.1-0.2-0.3c0-0.1,0-0.2,0.1-0.2c0.1,0,0.1,0,0.2,0
				c0.2,0.1,0.3,0.3,0.4,0.4C56.3,83.4,56,83.4,55.9,83.4L55.9,83.4z M56.7,84.1c-0.2,0.1-0.5,0.1-0.7-0.1c-0.2-0.1,0.1-0.4,0.2-0.4
				S56.9,84,56.7,84.1L56.7,84.1z M57.8,82.2c0,0.5,0,0.9-0.1,1.4c-0.4-0.5-0.5-1.2-0.1-1.8c0.1-0.1-0.2-0.5-0.1-0.5
				c0.1,0,0.3,0,0.4,0.1C57.8,81.7,57.8,81.9,57.8,82.2L57.8,82.2z M57,80.9c-0.1-0.1-0.4-0.4-0.4,0.1s0.5,0.6,0,0.9
				c-0.2,0.2-0.5,0.3-0.8,0.3c-0.3,0.2-0.4,0.5-0.4,0.9c0.1,0.3,0.7,1.1,0.2,1c-0.5-0.2-0.9-0.6-1.2-1c-0.2-0.4-0.3-0.8-0.4-1.1
				c-0.1-0.2-0.3-0.4-0.6-0.3c-0.1,0-0.1,0-0.1,0.1c-0.3,0.2,0.1,0.4-0.1,0.8s-0.3,0.7-0.6,0.4c-0.7-0.8-1.8-0.4-2-1.3
				c-0.1-0.5-0.5-0.5-0.9-0.8s-0.6-0.4-0.6-0.2s1.1,1.1,1.2,1.4s-0.4,0.7-0.7,0.8s-0.5-0.2-0.9-0.6s-0.5-0.6-0.5-0.4v0.1
				c0,0.5,0.3,1,0.7,1.3c0.3,0.2,0.6,0.3,0.5,0.6s0,0.1-0.3,0.5c-0.3,0.2-0.4,0.6-0.4,0.9c0,0.5-0.1,0.5-0.2,0.9s-0.2,0.1-0.4,0.6
				c-0.1,0.4-0.2,0.7-0.5,1c-0.3,0.2-0.6,0.4-1,0.4c-0.1,0-0.1,0-0.2-0.1c-0.2-0.4-0.3-0.9-0.2-1.3c0-0.2-0.2,0.3-0.3-0.7
				c-0.1-0.6-0.5,0.1-0.5-0.4s-0.2-0.3-0.4-0.6s-0.5,0-0.8,0.2s-0.2,0.2-0.4,0.1c-0.4-0.9-0.6-2-0.7-3c0-0.3,0-0.6,0.1-0.9
				c0.2-0.3,0.2-0.4,0.3-0.4c0.1,0,0.2-0.1,0.3-0.1h0.2c0.4,0.1,0.8,0.2,1.2,0.3c0.4,0.2,0.8,0.3,1.3,0.4c0.1,0,0.2,0,0.2,0
				c0.3-0.1,0.5-0.3,0.5-0.5s-0.3-0.4-0.5-0.2c-0.1,0.1-0.3-0.4-0.5-0.4s0.2,0.6,0.1,0.6s-0.5-0.6-0.5-0.7s-0.3-0.4-0.5-0.2
				c-0.4,0.4-1.2,0.4-1.3,0.5l-0.2,0.1c-0.2,0.1-0.3,0-0.4-0.2s0.1-0.3,0.1-0.5c0.2-0.1,0.5-0.1,0.7,0c0.2,0.1,0.3,0,0.4-0.1
				c0.1-0.1,0.1-0.2,0-0.3c0-0.1,0.1-0.2,0.2-0.2c0.2-0.1,0.4-0.2,0.6-0.3c0.4-0.1,0.8-0.1,1.1,0c0.3,0.1,0.6,0.1,0.7-0.2
				c0.2-0.2,0.3-0.3,0.5-0.4c0.1,0-0.3-0.4-0.6,0s-0.5,0.4-0.6,0.4s-1-0.2-1.1-0.5s0.3-0.5,0.6-0.6c0.5-0.1,0.9-0.2,1.4-0.2
				c0.5-0.1,1-0.3,1.3-0.1s-1.2,0.5-0.7,0.8c0.2,0.1,1-0.5,1.2-0.6c0.6-0.3-0.6-0.4-0.5-1.1s-1.3-0.5-2.2-0.4c1.1-0.7,2.4-1,3.7-1
				c3.5,0,6.5,2.4,7.2,5.9C57.5,81.2,57.2,81.2,57,80.9C57,81,57,81,57,80.9z"/>
		</g>
		<g>
			<path class="st0" d="M65.3,61.4H31.2V65H34v40.3h33.4V65h2.8v-3.6H65.3z M64.2,83.3c0,0.3-0.3,0.6-0.7,0.6
				c-0.4,0-0.7,0.1-1.1,0.1c-0.4,0-0.7,0.3-0.8,0.7c-0.1,0.5-0.5,1.5-0.6,1.9s0,0.7,0.4,0.9s0.5,0.4,0.8,0.6
				c0.3,0.2,0.4,0.6,0.2,0.9c-0.4,0.8-0.9,1.5-1.4,2.1c-0.2,0.3-0.6,0.3-0.9,0.1l-0.9-0.6c-0.3-0.2-0.7-0.2-1,0.1
				c-0.3,0.3-1.3,1-1.6,1.2s-0.3,0.6-0.2,0.9s0.2,0.6,0.3,1c0.1,0.3,0,0.7-0.4,0.9c0,0,0,0,0,0c-0.8,0.4-1.6,0.7-2.4,0.8
				c-0.3,0.1-0.7-0.1-0.8-0.4c-0.2-0.4-0.3-0.7-0.4-1c-0.1-0.4-0.5-0.6-0.9-0.5c-0.7,0-1.3,0-2,0c-0.4,0-0.6,0.2-0.7,0.6l-0.3,0.9
				c-0.1,0.4-0.5,0.6-0.8,0.5c-0.9-0.1-1.7-0.4-2.5-0.8c-0.3-0.1-0.5-0.5-0.4-0.8c0.1-0.4,0.2-0.7,0.2-1.1c0.1-0.4-0.1-0.8-0.5-1
				c-0.4-0.3-1.4-1-1.7-1.2s-0.6-0.2-1,0.1l-0.8,0.6c-0.3,0.2-0.7,0.2-0.9-0.1c0,0,0,0,0,0c-0.6-0.6-1.1-1.3-1.5-2.1
				c-0.2-0.3-0.1-0.7,0.2-0.9c0.3-0.3,0.5-0.5,0.8-0.7c0.3-0.2,0.4-0.6,0.2-1c-0.3-0.6-0.5-1.3-0.7-1.9c-0.1-0.4-0.4-0.5-0.8-0.5h-1
				c-0.4,0-0.7-0.3-0.7-0.6c-0.1-0.9-0.1-1.7,0-2.6c0-0.3,0.3-0.6,0.7-0.6c0.4,0,0.7-0.1,1.1-0.1c0.4,0,0.7-0.3,0.8-0.7
				c0.1-0.4,0.5-1.5,0.6-1.9s0-0.7-0.4-0.9l-0.8-0.6c-0.3-0.2-0.4-0.6-0.2-0.9c0.4-0.8,0.9-1.5,1.5-2.1c0.2-0.3,0.6-0.3,0.9-0.1
				c0.3,0.2,0.6,0.4,0.9,0.6c0.3,0.2,0.7,0.2,1-0.1c0.5-0.4,1.4-1,1.6-1.2s0.3-0.6,0.2-0.9s-0.2-0.6-0.3-1c-0.1-0.3,0-0.7,0.4-0.8
				c0,0,0,0,0,0c0.8-0.4,1.6-0.7,2.4-0.8c0.3-0.1,0.7,0.1,0.8,0.4c0.2,0.4,0.3,0.7,0.4,1c0.1,0.4,0.5,0.6,0.9,0.5c0.6,0,1.2,0,2,0
				c0.4,0,0.6-0.2,0.7-0.6s0.2-0.6,0.3-0.9c0.1-0.4,0.5-0.6,0.8-0.5c0.8,0.1,1.7,0.4,2.5,0.8c0.3,0.1,0.5,0.5,0.4,0.8
				c-0.1,0.4-0.2,0.7-0.3,1.1c-0.1,0.4,0.1,0.7,0.4,0.9c0.4,0.3,1.1,0.7,1.7,1.2c0.3,0.2,0.7,0.2,1-0.1l0.8-0.6
				c0.3-0.2,0.7-0.2,0.9,0.1c0.6,0.6,1.1,1.3,1.6,2.1c0.2,0.3,0.1,0.7-0.2,0.9c-0.3,0.3-0.5,0.5-0.8,0.7c-0.3,0.2-0.4,0.6-0.2,1
				c0.3,0.6,0.5,1.3,0.7,1.9c0.1,0.4,0.4,0.5,0.8,0.5h1c0.4,0,0.7,0.3,0.7,0.6C64.3,81.5,64.3,82.4,64.2,83.3z"/>
		</g>
	</g>
</g>
</svg>
