<?xml version="1.0" encoding="utf-8"?>
<!-- Generator: Adobe Illustrator 22.0.1, SVG Export Plug-In . SVG Version: 6.00 Build 0)  -->
<svg version="1.1" id="Layer_1" xmlns="http://www.w3.org/2000/svg" xmlns:xlink="http://www.w3.org/1999/xlink" x="0px" y="0px"
	 viewBox="0 0 101.5 175.1" style="enable-background:new 0 0 101.5 175.1;" xml:space="preserve">
<style type="text/css">
	.st0{fill:#FFFFFF;}
	.st1{fill:#00689D;}
	.st2{enable-background:new    ;}
</style>
<title>TARGET 1 B copy 14</title>
<g id="WHITE_BG">
	<g>
		<rect y="0" class="st0" width="101.5" height="175.2"/>
	</g>
</g>
<g id="TARGETS">
	<g>
		<g>
			<path class="st1" d="M10.5,129.3H7.8v2h2.9v0.9H6.9v-6.4h3.9v0.9H7.8v1.8h2.6V129.3z"/>
		</g>
		<g>
			<path class="st1" d="M15.1,132.2l-2.8-4.5v4.5h-0.9v-6.4h0.9l2.8,4.5v-4.5H16v6.4H15.1z"/>
		</g>
		<g>
			<path class="st1" d="M21,130.3c0,1.2-0.7,2-2.4,2c-0.6,0-1.3-0.1-1.9-0.4V131c0.6,0.3,1.2,0.4,1.8,0.4c1.1,0,1.5-0.5,1.5-1.1
				s-0.3-0.9-1.2-1c-1.5-0.2-2.2-0.6-2.2-1.8c0-0.9,0.5-1.8,2.3-1.8c0.6,0,1.2,0.1,1.7,0.3v1c-0.5-0.2-1.1-0.3-1.7-0.3
				c-1,0-1.3,0.4-1.3,1c0,0.6,0.4,0.8,1.2,0.9C20.2,128.7,21,129,21,130.3z"/>
		</g>
		<g>
			<path class="st1" d="M21.6,130.2v-4.4h1v4.3c-0.1,0.7,0.4,1.3,1,1.3c0.1,0,0.2,0,0.3,0c0.6,0.1,1.3-0.3,1.4-1c0-0.1,0-0.2,0-0.3
				v-4.3h1v4.4c0.1,1.1-0.8,2.1-1.9,2.1c-0.1,0-0.3,0-0.4,0c-1.1,0.2-2.1-0.6-2.3-1.7C21.6,130.5,21.6,130.3,21.6,130.2z"/>
		</g>
		<g>
			<path class="st1" d="M28.1,132.2h-1v-6.4h2.1c1.6,0,2.2,0.7,2.2,1.9c0.1,0.7-0.3,1.4-1,1.7l1.3,2.8h-1.1l-1.2-2.6h-1.3V132.2z
				 M28.1,128.7h1.2c0.9,0,1-0.5,1-1s-0.1-1-1-1h-1.2V128.7z"/>
		</g>
		<g>
			<path class="st1" d="M35.8,129.3h-2.7v2h2.9v0.9h-3.9v-6.4h3.9v0.9h-2.9v1.8h2.7V129.3z"/>
		</g>
		<g>
			<path class="st1" d="M39.2,132.2h-1v-6.4h2c1.6,0,2.2,1,2.2,2c0,1-0.6,2-2.2,2h-1.1L39.2,132.2z M39.2,128.9h1.1
				c0.6,0.1,1.2-0.4,1.2-1s-0.4-1.2-1-1.2c-0.1,0-0.1,0-0.2,0h-1.1V128.9z"/>
		</g>
		<g>
			<path class="st1" d="M42.9,130.2v-4.4h1v4.3c0,0.8,0.6,1.4,1.4,1.4s1.4-0.6,1.4-1.4v-4.3h1v4.4c0.1,1.1-0.8,2.1-1.9,2.1
				c-0.1,0-0.3,0-0.4,0c-1.1,0.2-2.1-0.5-2.3-1.6C42.9,130.5,42.9,130.4,42.9,130.2z"/>
		</g>
		<g>
			<path class="st1" d="M48.5,125.8h2.2c1.5,0,2,0.8,2,1.7c0,0.5-0.3,1-0.8,1.3c0.6,0.2,1.1,0.8,1,1.5c0,1.1-0.5,1.9-2.2,1.9h-2.2
				L48.5,125.8z M50.6,126.7h-1.2v1.8h1.2c0.8,0,1-0.5,1-0.9S51.5,126.7,50.6,126.7z M49.4,131.3h1.3c0.9,0,1.1-0.5,1.1-1
				s-0.3-1-1.1-1h-1.3V131.3z"/>
		</g>
		<g>
			<path class="st1" d="M54.4,131.3h2.8v0.9h-3.7v-6.4h1V131.3z"/>
		</g>
		<g>
			<path class="st1" d="M57.8,132.2v-6.4h1v6.4H57.8z"/>
		</g>
		<g>
			<path class="st1" d="M62.3,125.7c0.5,0,1,0.1,1.5,0.3v0.9c-0.5-0.2-0.9-0.3-1.4-0.3c-1.2,0-1.7,0.8-1.7,2.4s0.5,2.4,1.7,2.4
				c0.5,0,1-0.1,1.4-0.3v0.9c-0.5,0.2-1,0.3-1.5,0.3c-1.9,0-2.6-1.2-2.6-3.3S60.4,125.7,62.3,125.7z"/>
		</g>
		<g>
			<path class="st1" d="M69.2,130.6h-2l-0.4,1.6h-1l2-6.4h1l2,6.4h-1L69.2,130.6z M68.2,127l-0.8,2.8H69L68.2,127z"/>
		</g>
		<g>
			<path class="st1" d="M73.5,125.7c0.5,0,1,0.1,1.5,0.3v0.9c-0.5-0.2-0.9-0.3-1.4-0.3c-1.2,0-1.7,0.8-1.7,2.4s0.5,2.4,1.7,2.4
				c0.5,0,1-0.1,1.4-0.3v0.9c-0.5,0.2-1,0.3-1.5,0.3c-1.9,0-2.6-1.2-2.6-3.3S71.6,125.7,73.5,125.7z"/>
		</g>
		<g>
			<path class="st1" d="M78.3,125.7c0.5,0,1,0.1,1.5,0.3v0.9c-0.5-0.2-0.9-0.3-1.4-0.3c-1.2,0-1.7,0.8-1.7,2.4s0.5,2.4,1.7,2.4
				c0.5,0,1-0.1,1.4-0.3v0.9c-0.5,0.2-1,0.3-1.5,0.3c-1.9,0-2.6-1.2-2.6-3.3S76.4,125.7,78.3,125.7z"/>
		</g>
		<g>
			<path class="st1" d="M84.2,129.3h-2.7v2h2.9v0.9h-3.9v-6.4h3.9v0.9h-2.9v1.8h2.7V129.3z"/>
		</g>
		<g>
			<path class="st1" d="M89.5,130.3c0,1.2-0.7,2-2.4,2c-0.6,0-1.3-0.1-1.9-0.4V131c0.6,0.3,1.2,0.4,1.8,0.4c1.1,0,1.5-0.5,1.5-1.1
				s-0.3-0.9-1.2-1c-1.6-0.2-2.2-0.6-2.2-1.8c0-0.9,0.5-1.8,2.3-1.8c0.6,0,1.2,0.1,1.7,0.3v1c-0.5-0.2-1.1-0.3-1.7-0.3
				c-1,0-1.3,0.4-1.3,1c0,0.6,0.4,0.8,1.2,0.9C88.7,128.7,89.5,129,89.5,130.3z"/>
		</g>
		<g>
			<path class="st1" d="M94.4,130.3c0,1.2-0.7,2-2.4,2c-0.6,0-1.3-0.1-1.9-0.4V131c0.6,0.3,1.2,0.4,1.8,0.4c1.2,0,1.5-0.5,1.5-1.1
				s-0.3-0.9-1.2-1c-1.6-0.2-2.2-0.6-2.2-1.8c0-0.9,0.5-1.8,2.3-1.8c0.6,0,1.1,0.1,1.7,0.3v1c-0.5-0.2-1.1-0.3-1.7-0.3
				c-1,0-1.3,0.4-1.3,1c0,0.6,0.4,0.8,1.2,0.9C93.6,128.7,94.4,129,94.4,130.3z"/>
		</g>
		<g>
			<path class="st1" d="M9.2,135.7v5.5h-1v-5.5H6.6v-0.9h4.3v0.9H9.2z"/>
		</g>
		<g>
			<path class="st1" d="M11.1,138c0-1.8,0.4-3.3,2.5-3.3s2.5,1.5,2.5,3.3s-0.4,3.3-2.4,3.3S11.1,139.8,11.1,138z M12.1,138
				c0,1.5,0.3,2.4,1.5,2.4s1.5-0.9,1.5-2.4s-0.3-2.4-1.5-2.4S12,136.5,12.1,138L12.1,138z"/>
		</g>
		<g>
			<path class="st1" d="M18.3,141.2v-6.4h1v6.4H18.3z"/>
		</g>
		<g>
			<path class="st1" d="M24.1,141.2l-2.8-4.5v4.5h-0.9v-6.4h0.9l2.8,4.5v-4.5h0.9v6.4H24.1z"/>
		</g>
		<g>
			<path class="st1" d="M29.4,138.4h-2.6v2.8h-1v-6.4h3.8v0.9h-2.8v1.8h2.6V138.4z"/>
		</g>
		<g>
			<path class="st1" d="M30.2,138c0-1.8,0.4-3.3,2.5-3.3s2.5,1.5,2.5,3.3s-0.4,3.3-2.5,3.3S30.2,139.8,30.2,138z M31.2,138
				c0,1.5,0.3,2.4,1.5,2.4s1.5-0.9,1.5-2.4s-0.3-2.4-1.5-2.4S31.2,136.5,31.2,138L31.2,138z"/>
		</g>
		<g>
			<path class="st1" d="M36.8,141.2h-1v-6.4h2.1c1.7,0,2.2,0.7,2.2,1.9c0.1,0.7-0.3,1.4-1,1.7l1.3,2.8h-1.1l-1.2-2.6h-1.3V141.2z
				 M36.8,137.7h1.3c0.9,0,1-0.5,1-1s-0.1-1-1-1h-1.3V137.7z"/>
		</g>
		<g>
			<path class="st1" d="M44.5,140.3h-0.9l-1.6-3.9v4.8h-1v-6.4h1.2l1.7,4.3l1.7-4.3H47v6.4h-1v-4.8L44.5,140.3z"/>
		</g>
		<g>
			<path class="st1" d="M51,139.6h-2l-0.5,1.6h-1l2-6.4h1l2,6.4h-1L51,139.6z M50,136l-0.8,2.8h1.6L50,136z"/>
		</g>
		<g>
			<path class="st1" d="M54.5,135.7v5.5h-1v-5.5h-1.6v-0.9h4.3v0.9H54.5z"/>
		</g>
		<g>
			<path class="st1" d="M57,141.2v-6.4h1v6.4H57z"/>
		</g>
		<g>
			<path class="st1" d="M58.8,138c0-1.8,0.4-3.3,2.5-3.3s2.5,1.5,2.5,3.3s-0.4,3.3-2.5,3.3S58.8,139.8,58.8,138z M59.8,138
				c0,1.5,0.3,2.4,1.5,2.4s1.5-0.9,1.5-2.4s-0.3-2.4-1.5-2.4S59.8,136.5,59.8,138L59.8,138z"/>
		</g>
		<g>
			<path class="st1" d="M68.2,141.2l-2.8-4.5v4.5h-0.9v-6.4h0.9l2.8,4.5v-4.5H69v6.4H68.2z"/>
		</g>
		<g>
			<path class="st1" d="M74.6,139.6h-2l-0.4,1.6H71l2-6.4h1l2,6.4h-1L74.6,139.6z M73.6,136l-0.8,2.8h1.6L73.6,136z"/>
		</g>
		<g>
			<path class="st1" d="M80.2,141.2l-2.8-4.5v4.5h-0.9v-6.4h0.9l2.8,4.5v-4.5h0.9v6.4H80.2z"/>
		</g>
		<g>
			<path class="st1" d="M82.1,141.2v-6.4H84c2.1,0,2.7,1.4,2.7,3.2s-0.6,3.2-2.7,3.2H82.1z M83.1,140.3h1c1.3,0,1.7-0.9,1.7-2.3
				s-0.4-2.3-1.7-2.3H83L83.1,140.3z"/>
		</g>
		<g>
			<path class="st1" d="M7.8,150.2h-1v-6.4h2.1c1.6,0,2.2,0.9,2.2,2s-0.6,2-2.2,2H7.8V150.2z M7.8,146.9H9c0.6,0.1,1.2-0.4,1.2-1
				c0.1-0.6-0.4-1.2-1-1.2c-0.1,0-0.1,0-0.2,0H7.8V146.9z"/>
		</g>
		<g>
			<path class="st1" d="M12.7,150.2h-1v-6.4h2.1c1.6,0,2.2,0.7,2.2,1.9c0.1,0.7-0.3,1.4-1,1.7l1.3,2.8h-1.1l-1.2-2.6h-1.3V150.2z
				 M12.7,146.7h1.2c0.9,0,1-0.5,1-1s-0.1-1-1-1h-1.2V146.7z"/>
		</g>
		<g>
			<path class="st1" d="M16.6,147c0-1.8,0.4-3.3,2.5-3.3s2.5,1.5,2.5,3.3s-0.4,3.3-2.5,3.3S16.6,148.8,16.6,147z M17.6,147
				c0,1.5,0.3,2.4,1.5,2.4s1.5-0.9,1.5-2.4s-0.3-2.4-1.5-2.4S17.6,145.5,17.6,147L17.6,147z"/>
		</g>
		<g>
			<path class="st1" d="M24.3,144.7v5.5h-1v-5.5h-1.6v-0.9h4.3v0.9H24.3z"/>
		</g>
		<g>
			<path class="st1" d="M30.2,147.3h-2.6v2h2.9v0.9h-3.9v-6.4h3.9v0.9h-2.9v1.8h2.6V147.3z"/>
		</g>
		<g>
			<path class="st1" d="M33.7,143.7c0.5,0,1,0.1,1.5,0.3v0.9c-0.5-0.2-0.9-0.3-1.4-0.3c-1.2,0-1.7,0.8-1.7,2.4s0.5,2.4,1.7,2.4
				c0.5,0,1-0.1,1.4-0.3v0.9c-0.5,0.2-1,0.3-1.5,0.3c-1.9,0-2.6-1.2-2.6-3.3S31.8,143.7,33.7,143.7z"/>
		</g>
		<g>
			<path class="st1" d="M38.1,144.7v5.5h-1v-5.5h-1.6v-0.9h4.3v0.9H38.1z"/>
		</g>
		<g>
			<path class="st1" d="M10.4,156.4H7.8v2.8h-1v-6.4h3.9v0.9H7.8v1.8h2.6V156.4z"/>
		</g>
		<g>
			<path class="st1" d="M11.4,157.2v-4.4h0.9v4.3c-0.1,0.7,0.4,1.2,1,1.3c0.1,0,0.2,0,0.3,0c0.7,0.1,1.3-0.4,1.4-1
				c0-0.1,0-0.2,0-0.3v-4.3h1v4.4c0.1,1.1-0.8,2.1-1.9,2.1c-0.1,0-0.3,0-0.4,0c-1.1,0.2-2.1-0.5-2.3-1.6
				C11.4,157.5,11.4,157.4,11.4,157.2z"/>
		</g>
		<g>
			<path class="st1" d="M20.6,159.2l-2.8-4.5v4.5h-0.9v-6.4h0.9l2.8,4.5v-4.5h1v6.4H20.6z"/>
		</g>
		<g>
			<path class="st1" d="M22.4,159.2v-6.4h1.9c2.1,0,2.7,1.4,2.7,3.2s-0.6,3.2-2.7,3.2H22.4z M23.4,158.3h1c1.3,0,1.7-0.9,1.7-2.3
				s-0.4-2.3-1.7-2.3h-1V158.3z"/>
		</g>
		<g>
			<path class="st1" d="M30.7,157.6h-2l-0.5,1.6h-1l2-6.4h1l2,6.4h-1L30.7,157.6z M29.7,154l-0.8,2.8h1.6L29.7,154z"/>
		</g>
		<g>
			<path class="st1" d="M36.1,158.3h-0.9l-1.6-3.9l0,4.8h-1v-6.4h1.2l1.7,4.3l1.7-4.3h1.2v6.4h-1v-4.8L36.1,158.3z"/>
		</g>
		<g>
			<path class="st1" d="M43.2,156.3h-2.6v2h2.9v0.9h-3.9v-6.4h3.9v0.9h-2.9v1.8h2.7L43.2,156.3z"/>
		</g>
		<g>
			<path class="st1" d="M48,159.2l-2.8-4.5v4.5h-1v-6.4h0.9l2.8,4.5v-4.5h1v6.4H48z"/>
		</g>
		<g>
			<path class="st1" d="M52,153.7v5.5h-1v-5.5h-1.6v-0.9h4.3v0.9H52z"/>
		</g>
		<g>
			<path class="st1" d="M56.6,157.6h-2l-0.5,1.6h-1l2-6.4h1l2,6.4h-1L56.6,157.6z M55.6,154l-0.8,2.8h1.6L55.6,154z"/>
		</g>
		<g>
			<path class="st1" d="M59.6,158.3h2.8v0.9h-3.7v-6.4h1L59.6,158.3z"/>
		</g>
		<g>
			<path class="st1" d="M10.4,165.4H7.8v2.8h-1v-6.4h3.9v0.9H7.8v1.8h2.6V165.4z"/>
		</g>
		<g>
			<path class="st1" d="M12.4,168.2h-1v-6.4h2.1c1.6,0,2.2,0.7,2.2,1.9c0.1,0.7-0.3,1.4-1,1.7l1.3,2.8h-1.1l-1.1-2.6h-1.3V168.2z
				 M12.4,164.7h1.3c0.9,0,1-0.5,1-1s-0.1-1-1-1h-1.3V164.7z"/>
		</g>
		<g>
			<path class="st1" d="M20.2,165.3h-2.7v2h2.9v0.9h-3.9v-6.4h3.9v0.9h-2.9v1.8h2.7V165.3z"/>
		</g>
		<g>
			<path class="st1" d="M24.9,165.3h-2.6v2h2.9v0.9h-3.9v-6.4h3.9v0.9h-2.9v1.8h2.6V165.3z"/>
		</g>
		<g>
			<path class="st1" d="M26.1,168.2v-6.4H28c2.1,0,2.7,1.4,2.7,3.2s-0.6,3.2-2.7,3.2H26.1z M27.1,167.3h1c1.3,0,1.7-0.9,1.7-2.3
				s-0.4-2.3-1.7-2.3H27L27.1,167.3z"/>
		</g>
		<g>
			<path class="st1" d="M31.3,165c0-1.8,0.4-3.3,2.5-3.3s2.5,1.5,2.5,3.3s-0.4,3.3-2.5,3.3S31.3,166.8,31.3,165z M32.3,165
				c0,1.5,0.3,2.4,1.5,2.4s1.5-0.9,1.5-2.4s-0.3-2.4-1.5-2.4S32.3,163.5,32.3,165L32.3,165z"/>
		</g>
		<g>
			<path class="st1" d="M40.3,167.3h-0.9l-1.6-3.9v4.8h-1v-6.4h1.2l1.7,4.3l1.7-4.3h1.2v6.4h-1v-4.8L40.3,167.3z"/>
		</g>
		<g>
			<path class="st1" d="M47.8,166.3c0,1.2-0.7,2-2.4,2c-0.6,0-1.3-0.1-1.9-0.4V167c0.6,0.3,1.2,0.4,1.8,0.4c1.2,0,1.5-0.5,1.5-1.1
				s-0.3-0.9-1.2-1c-1.5-0.2-2.2-0.6-2.2-1.8c0-0.9,0.5-1.8,2.3-1.8c0.6,0,1.2,0.1,1.7,0.3v1c-0.5-0.2-1.1-0.3-1.7-0.3
				c-1,0-1.3,0.4-1.3,1s0.4,0.8,1.2,0.9C47.1,164.7,47.8,165,47.8,166.3z"/>
		</g>
	</g>
	<g>
		<rect x="3.3" y="24" class="st1" width="94.8" height="94.8"/>
	</g>
	<g>
		<path class="st1" d="M98.2,20.7H3.3V3.3h94.8V20.7z M4.3,19.7h92.8V4.3H4.3L4.3,19.7z"/>
	</g>
	<g class="st2">
		<path class="st1" d="M6.7,6.9h4.5v1.4H9.9v8.8H8.1V8.3H6.7V6.9z"/>
	</g>
	<g class="st2">
		<path class="st1" d="M11.2,17.1l1.9-10.2h1.9L17,17.1h-1.8l-0.3-1.9h-1.8l-0.3,1.9H11.2z M13.3,13.9h1.4L14,9.8h0L13.3,13.9z"/>
	</g>
	<g class="st2">
		<path class="st1" d="M19.6,12.4v4.7h-1.7V6.9h2.5c1.7,0,2.4,0.9,2.4,2.3v1.3c0,1.1-0.4,1.7-1.4,2l1.6,4.6h-1.8L19.6,12.4z
			 M19.6,8.3v3.2h0.6c0.6,0,0.8-0.3,0.8-0.8V9.2c0-0.6-0.3-0.8-0.8-0.8H19.6z"/>
	</g>
	<g class="st2">
		<path class="st1" d="M26.4,11.7h2.4v5.4h-1.2V16c-0.2,0.8-0.7,1.2-1.6,1.2c-1.5,0-2.1-1.2-2.1-2.7V9.6c0-1.6,0.8-2.7,2.6-2.7
			c1.9,0,2.4,1.1,2.4,2.6v0.9h-1.6v-1c0-0.6-0.2-1-0.9-1c-0.6,0-0.9,0.4-0.9,1v5.5c0,0.6,0.3,1,0.8,1c0.6,0,0.8-0.3,0.8-1V13h-0.8
			V11.7z"/>
	</g>
	<g class="st2">
		<path class="st1" d="M30.2,6.9h4.1v1.4h-2.4v2.9h1.7v1.4h-1.7v3.1h2.4v1.4h-4.1V6.9z"/>
	</g>
	<g class="st2">
		<path class="st1" d="M35.1,6.9h4.5v1.4h-1.4v8.8h-1.7V8.3h-1.4V6.9z"/>
	</g>
	<g>
		<g>
			<polygon class="st0" points="30.8,47 27.9,47 27.9,102.5 67.7,102.5 67.7,99.1 30.8,99.1 			"/>
		</g>
		<g>
			<path class="st0" d="M33.8,40.4v55.5h39.7V40.4H33.8z M66.7,45.3c0.4-0.4,1-0.5,1.6-0.5c0,0.6-0.1,1.1-0.5,1.6
				c-0.4,0.4-1,0.5-1.6,0.5C66.1,46.3,66.3,45.8,66.7,45.3z M66,64.5h-5.2c-0.4,0-0.8-0.2-0.8-0.6c0-0.4,0.2-0.8,0.6-0.8
				c0.1,0,0.1,0,0.2,0H66c0.4,0,0.8,0.2,0.8,0.6c0,0.4-0.2,0.8-0.6,0.8C66.1,64.5,66.1,64.5,66,64.5z M66.7,71.9
				c0,0.4-0.3,0.7-0.7,0.7h-5.2c-0.4,0-0.8-0.2-0.8-0.6c0-0.4,0.2-0.8,0.6-0.8c0.1,0,0.1,0,0.2,0H66C66.4,71.1,66.7,71.5,66.7,71.9
				C66.8,71.9,66.8,71.9,66.7,71.9L66.7,71.9z M64.2,50.1c0.4-0.3,0.9-0.5,1.3-0.5c0.5,0.1,0.9,0.4,1.2,0.8
				c-0.4,0.3-0.9,0.5-1.3,0.5C64.9,50.8,64.5,50.5,64.2,50.1z M65.7,48.6c0.3-0.4,0.7-0.7,1.2-0.8c0.5,0,1,0.2,1.3,0.5
				c-0.3,0.4-0.7,0.7-1.2,0.8C66.5,49.2,66,49,65.7,48.6z M64.2,45c0.9,0.3,1.3,1.3,0.9,2.2c-0.1,0.2-0.2,0.4-0.3,0.5
				c-0.5-0.3-0.8-0.7-1-1.2C63.8,46,63.9,45.4,64.2,45z M62.6,46.7c0.9,0.3,1.3,1.3,1,2.2c-0.1,0.2-0.2,0.4-0.3,0.5
				c-0.9-0.3-1.3-1.3-1-2.2C62.4,47,62.5,46.8,62.6,46.7z M42,66.9l8.2,0.2v-2.7c-1-0.1-1.9-0.3-2.9-0.6c-1.6-0.5-3.3-2.1-4.8-2.6
				l-0.4-0.1l0.4,0.1c1.4,0.4,2.9,0.2,4.2-0.5c1.8-1.2,1.9-2,3.2-2.5c-2.4-0.2-4.2-1.7-4.9-5s-1.1-4.4-2.5-5c2-0.2,4.8-0.2,8,3.1
				c2.5,2.5,5,2.5,7,0.6s3.4-2.8,4.5-1.5c0.3,0.3,0.5,0.5,0.8,0.8c0.3-1.1,0.9-2,1.7-2.7c0.4-0.4,0.8-0.8,1.1-1.3l0.3,0.2
				c-0.3,0.5-0.7,1-1.2,1.4c-0.8,0.7-1.4,1.7-1.7,2.7c0.3,0.3,0.6,0.5,1,0.7c-0.3,0-0.7,0-1,0c0,0.8,0.2,1.5,0.4,2.3h-0.3
				c-0.3-0.7-0.4-1.5-0.4-2.2c-0.3,0.1-0.7,0.1-1,0.3c-1.2,0.4-2,1.5-1.9,4c0.4,3.5-1.9,6.7-5.3,7.6c-0.6,0.2-1.2,0.3-1.8,0.4v2.8
				l4.6,0.1l3.2-0.3v-1.5c0-0.2,0.2-0.4,0.4-0.4c0,0,0,0,0,0h4.8c0.2,0,0.4,0.2,0.4,0.4c0,0,0,0,0,0v4.8c0,0.2-0.2,0.4-0.4,0.4H61
				c-0.2,0-0.4-0.2-0.4-0.4v-1.4l-3.2-0.3L42,68.8V66.9z M40,67.2c0-0.4,0.3-0.7,0.6-0.7H41c0.4,0,0.6,0.4,0.6,0.7v1.3
				c0,0.4-0.2,0.7-0.6,0.7c0,0,0,0,0,0h-0.4c-0.4,0-0.6-0.3-0.6-0.7L40,67.2z M68.8,88.9c0,0.1-0.2,0.2-0.3,0.2H39.1
				c-0.2,0-0.3-0.1-0.3-0.2v-4.7c0-0.1,0.1-0.2,0.3-0.2h29.3c0.2,0,0.3,0.1,0.3,0.2L68.8,88.9z M68.8,80.7c0,0.1-0.2,0.2-0.3,0.2
				H39.1c-0.2,0-0.3-0.1-0.3-0.2V76c0-0.1,0.1-0.2,0.3-0.2h29.3c0.2,0,0.3,0.1,0.3,0.2L68.8,80.7z"/>
		</g>
		<g>
			<path class="st0" d="M51,67.1h1v-2.7c-0.3,0-0.7,0-1,0V67.1z"/>
		</g>
	</g>
	<g class="st2">
		<path class="st1" d="M73,6.9v10.2h-1.7V9.3h0l-1.2,1.2h0V8.8l1.6-1.8H73z"/>
		<path class="st1" d="M74.5,14.5v-5c0-1.6,0.7-2.7,2.5-2.7c1.9,0,2.4,1.1,2.4,2.6v0.5h-1.6V9.2c0-0.6-0.2-1-0.8-1
			c-0.6,0-0.8,0.4-0.8,1v2.2h0c0.3-0.5,0.7-0.8,1.4-0.8c1.2,0,1.9,0.8,1.9,2.5v1.5c0,1.6-0.7,2.6-2.5,2.6
			C75.2,17.2,74.5,16.1,74.5,14.5z M77.8,14.8V13c0-0.7-0.2-1-0.8-1c-0.5,0-0.8,0.4-0.8,0.9v1.9c0,0.6,0.2,1,0.8,1
			C77.5,15.8,77.8,15.5,77.8,14.8z"/>
	</g>
	<g class="st2">
	</g>
	<g class="st2">
		<path class="st1" d="M82.3,10.8c0.7,0,1.2,0.6,1.2,1.2c0,0.7-0.6,1.2-1.2,1.2c-0.7,0-1.2-0.6-1.2-1.2C81,11.4,81.6,10.8,82.3,10.8
			z"/>
	</g>
	<g class="st2">
		<path class="st1" d="M87.9,6.9v10.2h-1.7V9.3h0L85,10.6h0V8.8l1.6-1.8H87.9z"/>
		<path class="st1" d="M89.3,14.5V9.6c0-1.6,0.8-2.7,2.5-2.7c1.7,0,2.5,1.2,2.5,2.7v4.9c0,1.6-0.8,2.7-2.5,2.7
			C90.1,17.2,89.3,16.1,89.3,14.5z M92.7,14.8V9.3c0-0.6-0.2-1-0.8-1c-0.6,0-0.8,0.4-0.8,1v5.5c0,0.6,0.2,1,0.8,1
			C92.5,15.8,92.7,15.4,92.7,14.8z"/>
	</g>
	<g>
		<path class="st1" d="M98.2,171.9h-95v-49.7h95V171.9z M4.2,170.9h93v-47.7h-93V170.9z"/>
	</g>
</g>
</svg>
