<?xml version="1.0" encoding="utf-8"?>
<!-- Generator: Adobe Illustrator 22.0.1, SVG Export Plug-In . SVG Version: 6.00 Build 0)  -->
<svg version="1.1" id="Layer_1" xmlns="http://www.w3.org/2000/svg" xmlns:xlink="http://www.w3.org/1999/xlink" x="0px" y="0px"
	 viewBox="0 0 101.5 166.2" style="enable-background:new 0 0 101.5 166.2;" xml:space="preserve">
<style type="text/css">
	.st0{fill:#FFFFFF;}
	.st1{fill:#00689D;}
	.st2{enable-background:new    ;}
</style>
<title>TARGET 1 B copy 10</title>
<g id="WHITE_BG">
	<g>
		<rect y="0" class="st0" width="101.5" height="166.2"/>
	</g>
</g>
<g id="TARGETS">
	<g>
		<g>
			<path class="st1" d="M6.9,132.2v-6.4h1.9c2.1,0,2.7,1.4,2.7,3.2s-0.6,3.2-2.7,3.2L6.9,132.2z M7.9,131.3h1c1.3,0,1.7-0.9,1.7-2.3
				s-0.4-2.3-1.7-2.3h-1L7.9,131.3z"/>
		</g>
		<g>
			<path class="st1" d="M15.8,129.3h-2.7v2h2.9v0.9h-3.9v-6.4h3.9v0.9h-2.9v1.8h2.7V129.3z"/>
		</g>
		<g>
			<path class="st1" d="M21.5,125.8l-2,6.4h-1l-2-6.4h1L19,131l1.5-5.2L21.5,125.8z"/>
		</g>
		<g>
			<path class="st1" d="M25.6,129.3H23v2h2.9v0.9H22v-6.4h3.9v0.9H23v1.8h2.6L25.6,129.3z"/>
		</g>
		<g>
			<path class="st1" d="M27.7,131.3h2.8v0.9h-3.7v-6.4h1L27.7,131.3z"/>
		</g>
		<g>
			<path class="st1" d="M30.5,129c0-1.8,0.4-3.3,2.5-3.3s2.5,1.5,2.5,3.3s-0.4,3.3-2.5,3.3S30.5,130.8,30.5,129z M31.5,129
				c0,1.5,0.3,2.4,1.5,2.4c1.2,0,1.5-0.9,1.5-2.4s-0.3-2.4-1.5-2.4S31.5,127.5,31.5,129L31.5,129z"/>
		</g>
		<g>
			<path class="st1" d="M37.1,132.2h-1v-6.4h2c1.6,0,2.2,1,2.2,2c0,1-0.6,2-2.2,2H37L37.1,132.2z M37.1,128.9h1.1
				c0.6,0.1,1.2-0.4,1.2-1s-0.4-1.2-1-1.2c-0.1,0-0.1,0-0.2,0h-1.1V128.9z"/>
		</g>
		<g>
			<path class="st1" d="M45.9,129.3h-2.7v2h2.9v0.9h-3.9v-6.4h3.9v0.9h-2.9v1.8h2.7V129.3z"/>
		</g>
		<g>
			<path class="st1" d="M50.6,129.4H48v2.8h-1v-6.4h3.8v0.9H48v1.8h2.6V129.4z"/>
		</g>
		<g>
			<path class="st1" d="M55,129.4h-2.6v2.8h-1v-6.4h3.8v0.9h-2.8v1.8H55V129.4z"/>
		</g>
		<g>
			<path class="st1" d="M59.6,129.3H57v2h2.9v0.9H56v-6.4h3.9v0.9H57v1.8h2.6V129.3z"/>
		</g>
		<g>
			<path class="st1" d="M63.1,125.7c0.5,0,1,0.1,1.5,0.3v0.9c-0.4-0.2-0.9-0.3-1.4-0.3c-1.2,0-1.7,0.8-1.7,2.4s0.5,2.4,1.7,2.4
				c0.5,0,1-0.1,1.4-0.3v0.9c-0.5,0.2-1,0.3-1.5,0.3c-1.9,0-2.6-1.2-2.6-3.3S61.2,125.7,63.1,125.7z"/>
		</g>
		<g>
			<path class="st1" d="M67.6,126.7v5.5h-1v-5.5H65v-0.9h4.3v0.9H67.6z"/>
		</g>
		<g>
			<path class="st1" d="M69.9,132.2v-6.4h1v6.4H69.9z"/>
		</g>
		<g>
			<path class="st1" d="M76.5,125.8l-2,6.4h-1l-2-6.4h1L74,131l1.5-5.2L76.5,125.8z"/>
		</g>
		<g>
			<path class="st1" d="M80.6,129.3H78v2h2.9v0.9H77v-6.4h3.9v0.9H78v1.8h2.7L80.6,129.3z"/>
		</g>
		<g>
			<path class="st1" d="M82.6,131.3l-0.7,2h-0.7l0.2-2H82.6z"/>
		</g>
		<g>
			<path class="st1" d="M10.1,139.6h-2l-0.4,1.6h-1l2-6.4h1l2,6.4h-1L10.1,139.6z M9.1,136l-0.8,2.8h1.6L9.1,136z"/>
		</g>
		<g>
			<path class="st1" d="M14.4,134.7c0.5,0,1,0.1,1.5,0.3v0.9c-0.5-0.2-0.9-0.3-1.4-0.3c-1.2,0-1.7,0.8-1.7,2.4s0.5,2.4,1.7,2.4
				c0.5,0,1-0.1,1.4-0.3v0.9c-0.5,0.2-1,0.3-1.5,0.3c-1.9,0-2.6-1.2-2.6-3.3S12.5,134.7,14.4,134.7z"/>
		</g>
		<g>
			<path class="st1" d="M19.1,134.7c0.5,0,1,0.1,1.5,0.3v0.9c-0.4-0.2-0.9-0.3-1.4-0.3c-1.2,0-1.7,0.8-1.7,2.4s0.5,2.4,1.7,2.4
				c0.5,0,1-0.1,1.4-0.3v0.9c-0.5,0.2-1,0.3-1.5,0.3c-1.9,0-2.6-1.2-2.6-3.3S17.2,134.7,19.1,134.7z"/>
		</g>
		<g>
			<path class="st1" d="M21.2,138c0-1.8,0.4-3.3,2.5-3.3s2.5,1.5,2.5,3.3s-0.4,3.3-2.5,3.3S21.2,139.8,21.2,138z M22.2,138
				c0,1.5,0.3,2.4,1.5,2.4s1.5-0.9,1.5-2.4s-0.3-2.4-1.5-2.4S22.2,136.5,22.2,138L22.2,138z"/>
		</g>
		<g>
			<path class="st1" d="M26.9,139.2v-4.4h1v4.3c-0.1,0.7,0.4,1.2,1,1.3c0.1,0,0.2,0,0.3,0c0.7,0.1,1.3-0.4,1.4-1c0-0.1,0-0.2,0-0.3
				v-4.3h1v4.4c0,1.1-0.9,2.1-2,2.1c-0.1,0-0.2,0-0.3,0c-1.1,0.1-2.2-0.6-2.3-1.8C26.9,139.4,26.9,139.3,26.9,139.2z"/>
		</g>
		<g>
			<path class="st1" d="M36.1,141.2l-2.8-4.5v4.5h-0.9v-6.4h0.9l2.8,4.5v-4.5h0.9v6.4H36.1z"/>
		</g>
		<g>
			<path class="st1" d="M40.1,135.7v5.5h-1v-5.5h-1.6v-0.9h4.3v0.9H40.1z"/>
		</g>
		<g>
			<path class="st1" d="M44.8,139.6h-2l-0.5,1.6h-1l2-6.4h1l2,6.4h-1L44.8,139.6z M43.8,136l-0.8,2.8h1.6L43.8,136z"/>
		</g>
		<g>
			<path class="st1" d="M46.8,134.8H49c1.6,0,2,0.8,2,1.7c0,0.5-0.3,1-0.8,1.3c0.6,0.2,1.1,0.8,1,1.5c0,1.1-0.5,1.9-2.2,1.9h-2.2
				V134.8z M49,135.7h-1.2v1.8H49c0.8,0,1-0.5,1-0.9S49.8,135.7,49,135.7z M47.8,140.3h1.3c0.9,0,1.1-0.5,1.1-1s-0.3-1-1.1-1h-1.3
				V140.3z"/>
		</g>
		<g>
			<path class="st1" d="M52.9,140.3h2.8v0.9h-3.7v-6.4h1L52.9,140.3z"/>
		</g>
		<g>
			<path class="st1" d="M59.8,138.3h-2.6v2H60v0.9h-3.8v-6.4H60v0.9h-2.9v1.8h2.7L59.8,138.3z"/>
		</g>
		<g>
			<path class="st1" d="M65.4,139.6h-2l-0.4,1.6h-1l2-6.4h1l2,6.4h-1L65.4,139.6z M64.4,136l-0.8,2.8h1.6L64.4,136z"/>
		</g>
		<g>
			<path class="st1" d="M71.2,141.2l-2.8-4.5v4.5h-0.9v-6.4h0.9l2.8,4.5v-4.5h1v6.4H71.2z"/>
		</g>
		<g>
			<path class="st1" d="M73,141.2v-6.4h1.9c2.1,0,2.7,1.4,2.7,3.2s-0.6,3.2-2.7,3.2H73z M74,140.3h1c1.3,0,1.7-0.9,1.7-2.3
				s-0.4-2.3-1.7-2.3h-1V140.3z"/>
		</g>
		<g>
			<path class="st1" d="M9.2,144.7v5.5h-1v-5.5H6.6v-0.9h4.3v0.9H9.2z"/>
		</g>
		<g>
			<path class="st1" d="M12.4,150.2h-1v-6.4h2.1c1.6,0,2.2,0.7,2.2,1.9c0.1,0.7-0.3,1.4-1,1.7l1.4,2.8h-1.2l-1.2-2.6h-1.3V150.2z
				 M12.4,146.7h1.3c0.9,0,1-0.5,1-1s-0.1-1-1-1h-1.3V146.7z"/>
		</g>
		<g>
			<path class="st1" d="M19.7,148.6h-2l-0.5,1.6h-1l2-6.4h1l2,6.4h-1L19.7,148.6z M18.7,145l-0.8,2.8h1.6L18.7,145z"/>
		</g>
		<g>
			<path class="st1" d="M25.4,150.2l-2.8-4.5v4.5h-0.9v-6.4h0.9l2.8,4.5v-4.5h0.9v6.4H25.4z"/>
		</g>
		<g>
			<path class="st1" d="M31.4,148.3c0,1.2-0.7,2-2.4,2c-0.6,0-1.3-0.1-1.9-0.4V149c0.6,0.3,1.2,0.4,1.8,0.4c1.1,0,1.5-0.5,1.5-1.1
				s-0.3-0.9-1.1-1c-1.6-0.2-2.2-0.6-2.2-1.8c0-0.9,0.5-1.8,2.3-1.8c0.6,0,1.2,0.1,1.7,0.3v1c-0.5-0.2-1.1-0.3-1.7-0.3
				c-1,0-1.3,0.4-1.3,1s0.4,0.8,1.2,0.9C30.6,146.7,31.4,147,31.4,148.3z"/>
		</g>
		<g>
			<path class="st1" d="M33.1,150.2h-1v-6.4h2c1.6,0,2.2,0.9,2.2,2s-0.6,2-2.2,2h-1V150.2z M33.1,146.9h1.1c0.6,0.1,1.2-0.4,1.2-1
				s-0.4-1.2-1-1.2c-0.1,0-0.1,0-0.2,0h-1.1V146.9z"/>
		</g>
		<g>
			<path class="st1" d="M39.5,148.6h-2l-0.5,1.6h-1l2-6.4h1l2,6.4h-1L39.5,148.6z M38.5,145l-0.8,2.8h1.6L38.5,145z"/>
		</g>
		<g>
			<path class="st1" d="M42.4,150.2h-1v-6.4h2.1c1.7,0,2.2,0.7,2.2,1.9c0.1,0.7-0.3,1.4-1,1.7l1.3,2.8h-1.1l-1.2-2.6h-1.3V150.2z
				 M42.4,146.7h1.2c0.9,0,1-0.5,1-1s-0.1-1-1-1h-1.2V146.7z"/>
		</g>
		<g>
			<path class="st1" d="M50.3,147.3h-2.6v2h2.9v0.9h-3.9v-6.4h3.9v0.9h-2.9v1.8h2.7L50.3,147.3z"/>
		</g>
		<g>
			<path class="st1" d="M55.1,150.2l-2.8-4.5v4.5h-1v-6.4h0.9l2.8,4.5v-4.5h1v6.4H55.1z"/>
		</g>
		<g>
			<path class="st1" d="M59.1,144.7v5.5h-1v-5.5h-1.6v-0.9h4.3v0.9H59.1z"/>
		</g>
		<g>
			<path class="st1" d="M7,159.2v-6.4h1v6.4H7z"/>
		</g>
		<g>
			<path class="st1" d="M12.8,159.2l-2.8-4.5v4.5H9.1v-6.4h0.9l2.8,4.5v-4.5h0.9v6.4H12.8z"/>
		</g>
		<g>
			<path class="st1" d="M18.8,157.3c0,1.2-0.7,2-2.4,2c-0.6,0-1.3-0.1-1.9-0.4V158c0.6,0.3,1.2,0.4,1.8,0.4c1.1,0,1.5-0.5,1.5-1.1
				s-0.3-0.9-1.2-1c-1.6-0.2-2.1-0.6-2.1-1.8c0-0.9,0.5-1.8,2.3-1.8c0.6,0,1.2,0.1,1.7,0.3v1c-0.5-0.2-1.1-0.3-1.7-0.3
				c-1,0-1.3,0.4-1.3,1s0.4,0.8,1.2,0.9C18,155.7,18.8,156,18.8,157.3z"/>
		</g>
		<g>
			<path class="st1" d="M21.5,153.7v5.5h-1v-5.5h-1.7v-0.9h4.3v0.9H21.5z"/>
		</g>
		<g>
			<path class="st1" d="M23.9,159.2v-6.4h1v6.4H23.9z"/>
		</g>
		<g>
			<path class="st1" d="M28.2,153.7v5.5h-1v-5.5h-1.6v-0.9h4.3v0.9H28.2z"/>
		</g>
		<g>
			<path class="st1" d="M30.3,157.2v-4.4h1v4.3c-0.1,0.7,0.4,1.3,1,1.3c0.1,0,0.2,0,0.3,0c0.6,0.1,1.3-0.3,1.4-1c0-0.1,0-0.2,0-0.3
				v-4.3h1v4.4c0,1.1-0.8,2.1-2,2.1c-0.1,0-0.2,0-0.3,0c-1.1,0.2-2.1-0.5-2.3-1.6C30.3,157.5,30.3,157.4,30.3,157.2z"/>
		</g>
		<g>
			<path class="st1" d="M38,153.7v5.5h-1v-5.5h-1.7v-0.9h4.3v0.9H38z"/>
		</g>
		<g>
			<path class="st1" d="M40.5,159.2v-6.4h1v6.4H40.5z"/>
		</g>
		<g>
			<path class="st1" d="M42.3,156c0-1.8,0.4-3.3,2.5-3.3s2.5,1.5,2.5,3.3s-0.4,3.3-2.5,3.3S42.3,157.8,42.3,156z M43.3,156
				c0,1.5,0.3,2.4,1.5,2.4s1.5-0.9,1.5-2.4s-0.3-2.4-1.5-2.4S43.3,154.5,43.3,156L43.3,156z"/>
		</g>
		<g>
			<path class="st1" d="M51.7,159.2l-2.8-4.5v4.5H48v-6.4h0.9l2.8,4.5v-4.5h0.9v6.4H51.7z"/>
		</g>
		<g>
			<path class="st1" d="M57.7,157.3c0,1.2-0.7,2-2.4,2c-0.6,0-1.3-0.1-1.9-0.4V158c0.6,0.3,1.2,0.4,1.8,0.4c1.2,0,1.5-0.5,1.5-1.1
				s-0.3-0.9-1.2-1c-1.5-0.2-2.2-0.6-2.2-1.8c0-0.9,0.5-1.8,2.3-1.8c0.6,0,1.2,0.1,1.7,0.3v1c-0.5-0.2-1.1-0.3-1.7-0.3
				c-1,0-1.3,0.4-1.3,1s0.4,0.8,1.2,0.9C56.9,155.7,57.7,156,57.7,157.3z"/>
		</g>
	</g>
	<g>
		<rect x="3.3" y="24" class="st1" width="94.8" height="94.8"/>
	</g>
	<g>
		<path class="st1" d="M98.2,20.7H3.3V3.3h94.8V20.7z M4.3,19.7h92.8V4.3H4.3L4.3,19.7z"/>
	</g>
	<g class="st2">
		<path class="st1" d="M6.7,6.9h4.5v1.4H9.9v8.8H8.1V8.3H6.7V6.9z"/>
	</g>
	<g class="st2">
		<path class="st1" d="M11.2,17.1l1.9-10.2h1.9L17,17.1h-1.8l-0.3-1.9h-1.8l-0.3,1.9H11.2z M13.3,13.9h1.4L14,9.8h0L13.3,13.9z"/>
	</g>
	<g class="st2">
		<path class="st1" d="M19.6,12.4v4.7h-1.7V6.9h2.5c1.7,0,2.4,0.9,2.4,2.3v1.3c0,1.1-0.4,1.7-1.4,2l1.6,4.6h-1.8L19.6,12.4z
			 M19.6,8.3v3.2h0.6c0.6,0,0.8-0.3,0.8-0.8V9.2c0-0.6-0.3-0.8-0.8-0.8H19.6z"/>
	</g>
	<g class="st2">
		<path class="st1" d="M26.4,11.7h2.4v5.4h-1.2V16c-0.2,0.8-0.7,1.2-1.6,1.2c-1.5,0-2.1-1.2-2.1-2.7V9.6c0-1.6,0.8-2.7,2.6-2.7
			c1.9,0,2.4,1.1,2.4,2.6v0.9h-1.6v-1c0-0.6-0.2-1-0.9-1c-0.6,0-0.9,0.4-0.9,1v5.5c0,0.6,0.3,1,0.8,1c0.6,0,0.8-0.3,0.8-1V13h-0.8
			V11.7z"/>
	</g>
	<g class="st2">
		<path class="st1" d="M30.2,6.9h4.1v1.4h-2.4v2.9h1.7v1.4h-1.7v3.1h2.4v1.4h-4.1V6.9z"/>
	</g>
	<g class="st2">
		<path class="st1" d="M35.1,6.9h4.5v1.4h-1.4v8.8h-1.7V8.3h-1.4V6.9z"/>
	</g>
	<g class="st2">
		<path class="st1" d="M77.3,6.9v10.2h-1.7V9.3h0l-1.2,1.2h0V8.8L76,6.9H77.3z"/>
		<path class="st1" d="M78.8,14.5v-5c0-1.6,0.7-2.7,2.5-2.7c1.9,0,2.4,1.1,2.4,2.6v0.5h-1.6V9.2c0-0.6-0.2-1-0.8-1
			c-0.6,0-0.8,0.4-0.8,1v2.2h0c0.3-0.5,0.7-0.8,1.4-0.8c1.2,0,1.9,0.8,1.9,2.5v1.5c0,1.6-0.7,2.6-2.5,2.6
			C79.5,17.2,78.8,16.1,78.8,14.5z M82.1,14.8V13c0-0.7-0.2-1-0.8-1c-0.5,0-0.8,0.4-0.8,0.9v1.9c0,0.6,0.2,1,0.8,1
			C81.8,15.8,82.1,15.5,82.1,14.8z"/>
	</g>
	<g class="st2">
	</g>
	<g class="st2">
		<path class="st1" d="M86.5,10.8c0.7,0,1.2,0.6,1.2,1.2c0,0.7-0.6,1.2-1.2,1.2c-0.7,0-1.2-0.6-1.2-1.2
			C85.3,11.4,85.9,10.8,86.5,10.8z"/>
	</g>
	<g class="st2">
		<path class="st1" d="M89.3,14.5v-5c0-1.6,0.7-2.7,2.5-2.7c1.9,0,2.4,1.1,2.4,2.6v0.5h-1.6V9.2c0-0.6-0.2-1-0.8-1
			c-0.6,0-0.8,0.4-0.8,1v2.2h0c0.3-0.5,0.7-0.8,1.4-0.8c1.2,0,1.9,0.8,1.9,2.5v1.5c0,1.6-0.7,2.6-2.5,2.6
			C90,17.2,89.3,16.1,89.3,14.5z M92.7,14.8V13c0-0.7-0.2-1-0.8-1c-0.5,0-0.8,0.4-0.8,0.9v1.9c0,0.6,0.2,1,0.8,1
			C92.4,15.8,92.7,15.5,92.7,14.8z"/>
	</g>
	<g>
		<g>
			<g>
				<path class="st0" d="M16,63.4h34.7c0.3,0,0.6,0.3,0.6,0.6v1.4c0,0.3-0.3,0.6-0.6,0.6H16c-0.3,0-0.6-0.3-0.6-0.6v-1.4
					C15.4,63.7,15.6,63.4,16,63.4z"/>
			</g>
			<g>
				<path class="st0" d="M16,89.5h34.7c0.3,0,0.6,0.3,0.6,0.6v2.8c0,0.3-0.3,0.6-0.6,0.6H16c-0.3,0-0.6-0.3-0.6-0.6v-2.8
					C15.4,89.8,15.6,89.5,16,89.5z"/>
			</g>
			<g>
				<path class="st0" d="M16,61.8h34.7c0.3,0,0.5-0.3,0.5-0.5v-0.3c-2.2-9.8-12-16-21.8-13.8c-6.9,1.5-12.3,6.9-13.8,13.8
					c0,0.1-0.1,0.2-0.1,0.2l0,0C15.5,61.5,15.7,61.7,16,61.8z"/>
			</g>
			<g>
				<path class="st0" d="M49.6,87.9c0.3,0,0.6-0.3,0.6-0.6l0,0V68.5c0-0.3-0.3-0.6-0.6-0.6c0,0,0,0,0,0H17.3c-0.3,0-0.6,0.3-0.6,0.6
					c0,0,0,0,0,0v18.8c0,0.3,0.3,0.6,0.6,0.6c0,0,0,0,0,0H49.6z M40.2,70.4h5.5v14.9h-5.5V70.4z M30.8,70.4h5.5v14.9h-5.5L30.8,70.4
					z M21.5,70.4h5.5v14.9h-5.5V70.4z"/>
			</g>
			<g>
				<path class="st0" d="M35.3,44.4c1.2,0,2.5,0.4,3.4,1.2c0.9,0.6,1.9,0.9,3,1h2.6V40h-2.6c-2,0-2.8-0.7-4-1.6
					c-0.9-0.5-1.9-0.8-2.9-0.8h-1.7v6.6C33.9,44.3,34.6,44.3,35.3,44.4z"/>
			</g>
		</g>
		<g>
			<path class="st0" d="M63.6,58.2v18.5c-0.6,0.2-1.2,0.4-1.7,0.7V62.1h-1.6v16.4c-0.4,0.3-0.7,0.6-1,0.9l0,0
				c-2.4,2.5-3.3,6.1-2.4,9.4c0.4,1.5,1.1,2.9,2.2,4l-8,10.3c-0.5,0.6-0.4,1.4,0.2,1.9c0,0,0,0,0,0c0.6,0.5,1.4,0.4,1.9-0.2
				c0,0,0,0,0,0L61,94.6c3.8,2.4,8.7,2,11.9-1h9.8v-1.9h-8.2c0.4-0.6,0.7-1.2,1-1.9h10.6V58.2H63.6z M69,93.7l-0.3,0.1
				c-0.2,0-0.3,0.1-0.5,0.1L68,94c-0.2,0-0.4,0.1-0.6,0.1h-0.2c-0.2,0-0.4,0-0.6,0h-0.2h-0.6h-0.2L65.2,94h-0.4h-0.2l-0.2-0.1
				L64,93.8l-0.3-0.1l-0.3-0.1l0,0c-1.4-0.5-2.5-1.5-3.4-2.7l-0.2-0.3l-0.2-0.3L59.4,90c-0.1-0.1-0.1-0.2-0.2-0.4s-0.1-0.2-0.1-0.3
				S59,89,59,88.8l-0.1-0.3c0-0.2-0.1-0.3-0.1-0.5c0-0.1,0-0.1,0-0.2c0-0.2-0.1-0.4-0.1-0.5v-0.2c0-0.2,0-0.4,0-0.5
				c0-0.1,0-0.2,0-0.2c0-0.2,0-0.3,0-0.5s0-0.2,0-0.3s0-0.3,0-0.4s0-0.2,0.1-0.4c0-0.1,0-0.1,0-0.2c0-0.1,0-0.1,0-0.2
				c0-0.1,0.1-0.3,0.1-0.4s0.1-0.2,0.1-0.3s0.1-0.3,0.2-0.4s0.1-0.2,0.1-0.3s0.1-0.2,0.2-0.4l0.2-0.3c0.1-0.1,0.1-0.2,0.2-0.3
				l0.2-0.3c0,0,0-0.1,0.1-0.1l0,0c0.5-0.6,1-1.1,1.7-1.5l0,0l0.3-0.2l0.2-0.1l0.4-0.2l0.3-0.1l0.4-0.2c1.1-0.4,2.2-0.6,3.4-0.6h0.3
				l0.4,0.1l0.4,0.1h0.2h0.2l0.4,0.1L69,79l0.4,0.2l0.3,0.2l0.3,0.2l0.3,0.2l0.1,0.1l0,0c0.9,0.6,1.6,1.3,2.2,2.1l0,0
				c0,0.1,0.1,0.1,0.1,0.2l0.2,0.2c0.1,0.1,0.2,0.3,0.2,0.4l0.1,0.2c0.1,0.2,0.1,0.3,0.2,0.4s0.1,0.2,0.1,0.3s0.1,0.3,0.1,0.4
				s0.1,0.2,0.1,0.4s0,0.2,0.1,0.3l0,0c0.2,1.1,0.2,2.2,0,3.2c-0.1,0.6-0.3,1.2-0.6,1.7L73.3,90L73,90.4c-0.1,0.1-0.1,0.1-0.1,0.2
				s-0.2,0.3-0.3,0.5l-0.1,0.1C71.6,92.3,70.4,93.2,69,93.7z M83.4,84.6c0,0.1-0.1,0.1-0.2,0.1H76c-0.2-1-0.5-2-0.9-2.9h8.1
				c0.1,0,0.2,0,0.2,0.1L83.4,84.6z M83.4,79.6c0,0.1-0.1,0.1-0.2,0.1h-9.6c-0.2-0.2-0.3-0.4-0.5-0.6c-1.1-1.1-2.5-1.9-4-2.3h14
				c0.1,0,0.2,0.1,0.2,0.1L83.4,79.6z M83.4,74.8c0,0.1-0.1,0.1-0.2,0.1H66.5c-0.1,0-0.2,0-0.2-0.1v-2.7c0-0.1,0.1-0.1,0.2-0.1h16.7
				c0.1,0,0.2,0,0.2,0.1L83.4,74.8z"/>
		</g>
	</g>
	<g>
		<path class="st1" d="M98.2,162.9h-95v-40.8h95V162.9z M4.2,161.9h93v-38.8h-93V161.9z"/>
	</g>
</g>
</svg>
