<?xml version="1.0" encoding="utf-8"?>
<!-- Generator: Adobe Illustrator 22.0.1, SVG Export Plug-In . SVG Version: 6.00 Build 0)  -->
<svg version="1.1" id="Layer_1" xmlns="http://www.w3.org/2000/svg" xmlns:xlink="http://www.w3.org/1999/xlink" x="0px" y="0px"
	 viewBox="0 0 101.5 166.2" style="enable-background:new 0 0 101.5 166.2;" xml:space="preserve">
<style type="text/css">
	.st0{fill:#FFFFFF;}
	.st1{fill:#00689D;}
	.st2{enable-background:new    ;}
</style>
<title>TARGET 1 B copy 8</title>
<g id="WHITE_BG">
	<g>
		<rect y="0" class="st0" width="101.5" height="166.2"/>
	</g>
</g>
<g id="TARGETS">
	<g>
		<g>
			<path class="st1" d="M9.4,125.7c0.5,0,1,0.1,1.5,0.3v0.9c-0.5-0.2-0.9-0.3-1.4-0.3c-1.2,0-1.7,0.8-1.7,2.4s0.5,2.4,1.7,2.4
				c0.5,0,1-0.1,1.4-0.3v0.9c-0.5,0.2-1,0.3-1.5,0.3c-1.9,0-2.6-1.2-2.6-3.3S7.5,125.7,9.4,125.7z"/>
		</g>
		<g>
			<path class="st1" d="M11.6,129c0-1.8,0.4-3.3,2.5-3.3s2.4,1.5,2.4,3.3s-0.4,3.3-2.4,3.3S11.6,130.8,11.6,129z M12.6,129
				c0,1.5,0.3,2.4,1.5,2.4s1.5-0.9,1.5-2.4s-0.3-2.4-1.5-2.4S12.6,127.5,12.6,129L12.6,129z"/>
		</g>
		<g>
			<path class="st1" d="M20.8,131.3h-0.9l-1.6-3.9v4.8h-1v-6.4h1.2l1.7,4.3l1.7-4.3h1.2v6.4h-1v-4.8L20.8,131.3z"/>
		</g>
		<g>
			<path class="st1" d="M24.2,125.8h2.1c1.6,0,2,0.8,2,1.7c0,0.5-0.3,1-0.8,1.3c0.6,0.2,1.1,0.8,1,1.5c0,1.1-0.5,1.9-2.2,1.9h-2.2
				V125.8z M26.4,126.7h-1.2v1.8h1.2c0.8,0,1-0.5,1-0.9S27.2,126.7,26.4,126.7z M25.2,131.3h1.3c0.9,0,1.1-0.5,1.1-1s-0.3-1-1.1-1
				h-1.3V131.3z"/>
		</g>
		<g>
			<path class="st1" d="M32.4,130.6h-2l-0.5,1.6h-1l2-6.4h1l2,6.4h-1L32.4,130.6z M31.4,127l-0.8,2.8h1.6L31.4,127z"/>
		</g>
		<g>
			<path class="st1" d="M35.9,126.7v5.5H35v-5.5h-1.7v-0.9h4.3v0.9H35.9z"/>
		</g>
		<g>
			<path class="st1" d="M39.2,129c0-1.8,0.4-3.3,2.5-3.3s2.5,1.5,2.5,3.3s-0.4,3.3-2.5,3.3S39.2,130.8,39.2,129z M40.2,129
				c0,1.5,0.3,2.4,1.5,2.4s1.5-0.9,1.5-2.4s-0.3-2.4-1.5-2.4S40.2,127.5,40.2,129L40.2,129z"/>
		</g>
		<g>
			<path class="st1" d="M45.9,132.2H45v-6.4h2.1c1.7,0,2.2,0.7,2.2,1.9c0.1,0.7-0.3,1.4-1,1.7l1.3,2.8h-1.2l-1.2-2.6h-1.3V132.2z
				 M45.9,128.7h1.3c0.9,0,1-0.5,1-1s-0.1-1-1-1h-1.3V128.7z"/>
		</g>
		<g>
			<path class="st1" d="M50,129c0-2,0.7-3.3,2.6-3.3c0.6,0,1.3,0.1,1.8,0.3v1c-0.5-0.2-1.1-0.4-1.7-0.4c-1.3,0-1.8,0.9-1.8,2.4
				s0.5,2.4,1.8,2.4c0.3,0,0.6,0,0.9-0.1v-1.7h-1.2v-0.9h2.1v3.2c-0.6,0.3-1.3,0.4-2,0.4C50.7,132.3,50,131,50,129z"/>
		</g>
		<g>
			<path class="st1" d="M58.5,130.6h-2l-0.5,1.6h-1l2-6.4h1l2,6.4h-1L58.5,130.6z M57.5,127l-0.8,2.8h1.6L57.5,127z"/>
		</g>
		<g>
			<path class="st1" d="M64.2,132.2l-2.8-4.5v4.5h-0.9v-6.4h0.9l2.8,4.5v-4.5h0.9v6.4H64.2z"/>
		</g>
		<g>
			<path class="st1" d="M66.2,132.2v-6.4h1v6.4H66.2z"/>
		</g>
		<g>
			<path class="st1" d="M67.9,132.2v-0.6l3.3-4.8h-3v-0.9h4.3v0.6l-3.3,4.8h3.4v0.9L67.9,132.2z"/>
		</g>
		<g>
			<path class="st1" d="M76.9,129.3h-2.7v2h2.9v0.9h-3.9v-6.4h3.9v0.9h-2.9v1.8h2.7V129.3z"/>
		</g>
		<g>
			<path class="st1" d="M78,132.2v-6.4h1.9c2.1,0,2.7,1.4,2.7,3.2s-0.6,3.2-2.7,3.2L78,132.2z M79,131.3h1c1.3,0,1.7-0.9,1.7-2.3
				s-0.4-2.3-1.7-2.3h-1V131.3z"/>
		</g>
		<g>
			<path class="st1" d="M9.4,134.7c0.5,0,1,0.1,1.5,0.3v0.9c-0.5-0.2-0.9-0.3-1.4-0.3c-1.2,0-1.7,0.8-1.7,2.4s0.5,2.4,1.7,2.4
				c0.5,0,1-0.1,1.4-0.3v0.9c-0.5,0.2-1,0.3-1.5,0.3c-1.9,0-2.6-1.2-2.6-3.3S7.5,134.7,9.4,134.7z"/>
		</g>
		<g>
			<path class="st1" d="M12.8,141.2h-1v-6.4h2.1c1.6,0,2.2,0.7,2.2,1.9c0.1,0.7-0.3,1.4-1,1.7l1.3,2.8h-1.1l-1.2-2.6h-1.3V141.2z
				 M12.8,137.7H14c0.9,0,1-0.5,1-1s-0.1-1-1-1h-1.2V137.7z"/>
		</g>
		<g>
			<path class="st1" d="M17.1,141.2v-6.4h1v6.4H17.1z"/>
		</g>
		<g>
			<path class="st1" d="M22.6,140.3h-0.9l-1.6-3.9v4.8h-1v-6.4h1.2l1.7,4.3l1.7-4.3H25v6.4h-1v-4.8L22.6,140.3z"/>
		</g>
		<g>
			<path class="st1" d="M29.6,138.3H27v2h2.9v0.9H26v-6.4h3.9v0.9H27v1.8h2.6L29.6,138.3z"/>
		</g>
		<g>
			<path class="st1" d="M35.3,139.6h-2l-0.5,1.6h-1l2-6.4h1l2,6.4h-1L35.3,139.6z M34.3,136l-0.8,2.8h1.6L34.3,136z"/>
		</g>
		<g>
			<path class="st1" d="M41,141.2l-2.8-4.5v4.5h-0.9v-6.4h0.9l2.8,4.5v-4.5h0.9v6.4H41z"/>
		</g>
		<g>
			<path class="st1" d="M42.8,141.2v-6.4h1.9c2.1,0,2.7,1.4,2.7,3.2s-0.6,3.2-2.7,3.2H42.8z M43.8,140.3h1c1.3,0,1.7-0.9,1.7-2.3
				s-0.4-2.3-1.7-2.3h-1V140.3z"/>
		</g>
		<g>
			<path class="st1" d="M49.8,141.2v-6.4h1v6.4H49.8z"/>
		</g>
		<g>
			<path class="st1" d="M52.8,140.3h2.8v0.9h-3.7v-6.4h1L52.8,140.3z"/>
		</g>
		<g>
			<path class="st1" d="M57,140.3h2.8v0.9H56v-6.4h1V140.3z"/>
		</g>
		<g>
			<path class="st1" d="M60.4,141.2v-6.4h1v6.4H60.4z"/>
		</g>
		<g>
			<path class="st1" d="M65,134.7c0.5,0,1,0.1,1.5,0.3v0.9c-0.5-0.2-0.9-0.3-1.4-0.3c-1.2,0-1.7,0.8-1.7,2.4s0.5,2.4,1.7,2.4
				c0.5,0,1-0.1,1.4-0.3v0.9c-0.5,0.2-1,0.3-1.5,0.3c-1.9,0-2.6-1.2-2.6-3.3S63.1,134.7,65,134.7z"/>
		</g>
		<g>
			<path class="st1" d="M67.5,141.2v-6.4h1v6.4H67.5z"/>
		</g>
		<g>
			<path class="st1" d="M71.7,135.7v5.5h-1v-5.5h-1.6v-0.9h4.3v0.9H71.7z"/>
		</g>
		<g>
			<path class="st1" d="M10.4,147.4H7.8v2.8h-1v-6.4h3.9v0.9H7.8v1.8h2.6V147.4z"/>
		</g>
		<g>
			<path class="st1" d="M11.6,150.2v-6.4h1v6.4H11.6z"/>
		</g>
		<g>
			<path class="st1" d="M17.3,150.2l-2.8-4.5v4.5h-1v-6.4h0.9l2.8,4.5v-4.5h0.9v6.4H17.3z"/>
		</g>
		<g>
			<path class="st1" d="M22.2,148.6h-2l-0.5,1.6h-1l2-6.4h1l2,6.4h-1L22.2,148.6z M21.2,145l-0.8,2.8H22L21.2,145z"/>
		</g>
		<g>
			<path class="st1" d="M27.9,150.2l-2.8-4.5v4.5h-1v-6.4H25l2.8,4.5v-4.5h1v6.4H27.9z"/>
		</g>
		<g>
			<path class="st1" d="M32.2,143.7c0.5,0,1,0.1,1.5,0.3v0.9c-0.4-0.2-0.9-0.3-1.4-0.3c-1.2,0-1.7,0.8-1.7,2.4s0.5,2.4,1.7,2.4
				c0.5,0,1-0.1,1.4-0.3v0.9c-0.5,0.2-1,0.3-1.5,0.3c-1.9,0-2.6-1.2-2.6-3.3S30.3,143.7,32.2,143.7z"/>
		</g>
		<g>
			<path class="st1" d="M34.7,150.2v-6.4h1v6.4H34.7z"/>
		</g>
		<g>
			<path class="st1" d="M39.8,148.6h-2l-0.5,1.6h-1l2-6.4h1l2,6.4h-1L39.8,148.6z M38.8,145l-0.8,2.8h1.6L38.8,145z"/>
		</g>
		<g>
			<path class="st1" d="M42.8,149.3h2.8v0.9h-3.7v-6.4h1L42.8,149.3z"/>
		</g>
		<g>
			<path class="st1" d="M50.8,148.6h-2l-0.5,1.6h-1l2-6.4h1l2,6.4h-1L50.8,148.6z M49.8,145l-0.8,2.8h1.6L49.8,145z"/>
		</g>
		<g>
			<path class="st1" d="M56.5,150.2l-2.8-4.5v4.5h-1v-6.4h0.9l2.8,4.5v-4.5h0.9v6.4H56.5z"/>
		</g>
		<g>
			<path class="st1" d="M58.3,150.2v-6.4h1.9c2.1,0,2.7,1.4,2.7,3.2s-0.6,3.2-2.7,3.2H58.3z M59.3,149.3h1c1.3,0,1.7-0.9,1.7-2.3
				s-0.4-2.3-1.7-2.3h-1V149.3z"/>
		</g>
		<g>
			<path class="st1" d="M68.3,148.6h-2l-0.4,1.6h-1l2-6.4h1l2,6.4h-1L68.3,148.6z M67.3,145l-0.8,2.8h1.6L67.3,145z"/>
		</g>
		<g>
			<path class="st1" d="M71.3,150.2h-1v-6.4h2.1c1.7,0,2.2,0.7,2.2,1.9c0.1,0.7-0.3,1.4-1,1.7l1.3,2.8h-1.1l-1.2-2.6h-1.3V150.2z
				 M71.3,146.7h1.3c0.9,0,1-0.5,1-1s-0.1-1-1-1h-1.3V146.7z"/>
		</g>
		<g>
			<path class="st1" d="M78.9,149.3H78l-1.6-3.9v4.8h-1v-6.4h1.2l1.7,4.3l1.7-4.3h1.2v6.4h-1v-4.8L78.9,149.3z"/>
		</g>
		<g>
			<path class="st1" d="M86.4,148.3c0,1.2-0.7,2-2.4,2c-0.6,0-1.3-0.1-1.9-0.4V149c0.6,0.3,1.2,0.4,1.8,0.4c1.2,0,1.5-0.5,1.5-1.1
				s-0.3-0.9-1.2-1c-1.6-0.2-2.2-0.6-2.2-1.8c0-0.9,0.5-1.8,2.3-1.8c0.6,0,1.2,0.1,1.7,0.3v1c-0.5-0.2-1.1-0.3-1.7-0.3
				c-1,0-1.3,0.4-1.3,1s0.4,0.8,1.2,0.9C85.7,146.7,86.4,147,86.4,148.3z"/>
		</g>
		<g>
			<path class="st1" d="M10.4,156.4H7.8v2.8h-1v-6.4h3.9v0.9H7.8v1.8h2.6V156.4z"/>
		</g>
		<g>
			<path class="st1" d="M12.2,158.3H15v0.9h-3.7v-6.4h0.9V158.3z"/>
		</g>
		<g>
			<path class="st1" d="M15,156c0-1.8,0.4-3.3,2.5-3.3s2.5,1.5,2.5,3.3s-0.4,3.3-2.5,3.3S15,157.8,15,156z M16,156
				c0,1.5,0.3,2.4,1.5,2.4s1.5-0.9,1.5-2.4s-0.3-2.4-1.5-2.4S16,154.5,16,156z"/>
		</g>
		<g>
			<path class="st1" d="M23.2,152.8h1.2l1.1,5l0.8-5h1l-1.2,6.4H25l-1.2-5.3l-1.2,5.3h-1.2l-1.2-6.4h1l0.8,5L23.2,152.8z"/>
		</g>
		<g>
			<path class="st1" d="M32.1,157.3c0,1.2-0.7,2-2.4,2c-0.6,0-1.3-0.1-1.9-0.4V158c0.6,0.3,1.2,0.4,1.8,0.4c1.1,0,1.5-0.5,1.5-1.1
				s-0.3-0.9-1.2-1c-1.5-0.2-2.1-0.6-2.1-1.8c0-0.9,0.5-1.8,2.3-1.8c0.6,0,1.2,0.1,1.7,0.3v1c-0.5-0.2-1.1-0.3-1.7-0.3
				c-1,0-1.3,0.4-1.3,1s0.4,0.8,1.2,0.9C31.3,155.7,32.1,156,32.1,157.3z"/>
		</g>
	</g>
	<g>
		<rect x="3.3" y="24" class="st1" width="94.8" height="94.8"/>
	</g>
	<g>
		<path class="st1" d="M98.2,20.7H3.3V3.3h94.8V20.7z M4.3,19.7h92.8V4.3H4.3L4.3,19.7z"/>
	</g>
	<g class="st2">
		<path class="st1" d="M6.7,6.9h4.5v1.4H9.9v8.8H8.1V8.3H6.7V6.9z"/>
	</g>
	<g class="st2">
		<path class="st1" d="M11.2,17.1l1.9-10.2h1.9L17,17.1h-1.8l-0.3-1.9h-1.8l-0.3,1.9H11.2z M13.3,13.9h1.4L14,9.8h0L13.3,13.9z"/>
	</g>
	<g class="st2">
		<path class="st1" d="M19.6,12.4v4.7h-1.7V6.9h2.5c1.7,0,2.4,0.9,2.4,2.3v1.3c0,1.1-0.4,1.7-1.4,2l1.6,4.6h-1.8L19.6,12.4z
			 M19.6,8.3v3.2h0.6c0.6,0,0.8-0.3,0.8-0.8V9.2c0-0.6-0.3-0.8-0.8-0.8H19.6z"/>
	</g>
	<g class="st2">
		<path class="st1" d="M26.4,11.7h2.4v5.4h-1.2V16c-0.2,0.8-0.7,1.2-1.6,1.2c-1.5,0-2.1-1.2-2.1-2.7V9.6c0-1.6,0.8-2.7,2.6-2.7
			c1.9,0,2.4,1.1,2.4,2.6v0.9h-1.6v-1c0-0.6-0.2-1-0.9-1c-0.6,0-0.9,0.4-0.9,1v5.5c0,0.6,0.3,1,0.8,1c0.6,0,0.8-0.3,0.8-1V13h-0.8
			V11.7z"/>
	</g>
	<g class="st2">
		<path class="st1" d="M30.2,6.9h4.1v1.4h-2.4v2.9h1.7v1.4h-1.7v3.1h2.4v1.4h-4.1V6.9z"/>
	</g>
	<g class="st2">
		<path class="st1" d="M35.1,6.9h4.5v1.4h-1.4v8.8h-1.7V8.3h-1.4V6.9z"/>
	</g>
	<g class="st2">
		<path class="st1" d="M77.3,6.9v10.2h-1.7V9.3h0l-1.2,1.2h0V8.8l1.6-1.8H77.3z"/>
		<path class="st1" d="M78.7,14.5v-5c0-1.6,0.7-2.7,2.5-2.7c1.9,0,2.4,1.1,2.4,2.6v0.5H82V9.2c0-0.6-0.2-1-0.8-1
			c-0.6,0-0.8,0.4-0.8,1v2.2h0c0.3-0.5,0.7-0.8,1.4-0.8c1.2,0,1.9,0.8,1.9,2.5v1.5c0,1.6-0.7,2.6-2.5,2.6
			C79.4,17.2,78.7,16.1,78.7,14.5z M82,14.8V13c0-0.7-0.2-1-0.8-1c-0.5,0-0.8,0.4-0.8,0.9v1.9c0,0.6,0.2,1,0.8,1
			C81.8,15.8,82,15.5,82,14.8z"/>
	</g>
	<g class="st2">
	</g>
	<g class="st2">
		<path class="st1" d="M86.5,10.8c0.7,0,1.2,0.6,1.2,1.2c0,0.7-0.6,1.2-1.2,1.2c-0.7,0-1.2-0.6-1.2-1.2
			C85.2,11.4,85.8,10.8,86.5,10.8z"/>
	</g>
	<g class="st2">
		<path class="st1" d="M89.1,14.4l3-7.5h1.7v7.2h0.7v1.3h-0.7v1.7h-1.6v-1.7h-3V14.4z M90.6,14.1h1.5V9.9h0L90.6,14.1z"/>
	</g>
	<g>
		<path class="st1" d="M98.2,162.9h-95v-40.8h95V162.9z M4.2,161.9h93v-38.8h-93V161.9z"/>
	</g>
	<g>
		<g>
			<path class="st0" d="M40.9,60.8c0.4,0,0.9,0.1,1.2,0.4c0.3,0.3,0.5,0.7,0.5,1.1V71c0,0.5,0.4,0.9,0.9,0.9c0.5,0,0.9-0.4,0.9-0.9
				l0,0V58.9c0-0.8,0.6-1.6,1.5-1.7c0.4,0,0.9,0.1,1.2,0.4c0.3,0.3,0.5,0.7,0.5,1.1v10.4c0,0.5,0.4,0.9,0.9,0.9
				c0.5,0,0.9-0.4,0.9-0.9V57c0-0.4,0.2-0.8,0.5-1.1c0.3-0.3,0.8-0.5,1.2-0.4c0.8,0.1,1.5,0.8,1.5,1.7v13c-0.1,0.5,0.3,1,0.8,1
				c0.5,0.1,1-0.3,1-0.8c0-0.1,0-0.1,0-0.2v-11c0-0.8,0.6-1.6,1.5-1.6c0.9,0,1.6,0.6,1.6,1.5c0,0,0,0,0,0.1v18.9l7.3-5
				c0.4-0.3,0.8-0.4,1.3-0.4c0.4,0.1,0.7,0.3,0.9,0.6c0.6,0.6,0.6,1.6-0.1,2.2c0,0,0,0-0.1,0l-8.5,8.2c-2,2-4.4,3.6-6.9,4.7
				c-0.3,0.1-0.6,0.2-0.9,0.2l-1,0.1c-0.5,0.1-1,0.1-1.5,0.1c-4.8-0.3-8.6-4.4-8.5-9.2v-17C39.4,61.6,40.1,61,40.9,60.8z"/>
		</g>
		<g>
			<path class="st0" d="M80.9,53.2l4-2.2l0.9,1.5l3.6-2.1l0.7,1.2l-7.3,4.7c2,2.1,4.3,3.8,6.8,5.1L88,65.5c-2.4-1-4.6-2.4-6.5-4.2
				c-1,2.3-2.1,2.7-4.4,1.8l0.2,5.2l-3.9-0.2c0.1-1.2,0.2-2.2,0.4-3.2c0.3-2.3,0.1-2.4-2-1.5l-0.8-1.2l-1.1,0.5l-0.7-1.3l1-0.7
				l-0.6-1.1c0.3-0.2,0.6-0.4,0.9-0.5c2.4-1.4,4.9-2.8,7.4-4.1L80.9,53.2z M78.9,60.6c0.1,0.2,0.2,0.5,0.2,0.8
				c-0.3-0.1-0.5-0.1-0.8-0.2c-0.3-0.2-0.5-0.5-0.8-0.7c-0.4,0.6-0.2,1.5,0.4,1.8c0.5,0.4,1.3,0.3,1.8-0.2c0.5-0.4,0.6-1.2,0.2-1.8
				c-0.4-0.7-1.2-0.9-1.9-0.5c0,0,0,0,0,0C78.4,60,78.6,60.3,78.9,60.6L78.9,60.6z"/>
		</g>
		<g>
			<g>
				<g>
					<g>
						<path class="st0" d="M75.8,86.7l-3.5-4.2c-1.1,1-1.1,2.8-0.1,3.8C73.2,87.3,74.7,87.5,75.8,86.7z"/>
					</g>
					<g>
						<path class="st0" d="M76.3,82.7c-0.9-1.1-2.5-1.3-3.7-0.4l3.5,4.2C77.2,85.4,77.3,83.8,76.3,82.7z"/>
					</g>
				</g>
				<g>
					<g>
						<path class="st0" d="M76.5,79.2l2.1-5c-1.5-0.4-3,0.4-3.4,1.9C74.9,77.3,75.4,78.6,76.5,79.2z"/>
					</g>
					<g>
						<path class="st0" d="M80.2,77.8c0.6-1.3,0-2.8-1.2-3.5l-2.1,5C78.3,79.8,79.7,79.1,80.2,77.8z"/>
					</g>
				</g>
			</g>
			<g>
				<g>
					<path class="st0" d="M86.3,75.6l-6.6,14.5c-0.1,0.3,0,0.7,0.3,0.9l1.1,0.5l0,0l-0.5,1.1c-0.1,0.1,0,0.3,0.1,0.3c0,0,0,0,0,0
						l0.5,0.2l-1.4,2.9c0,0,0,0.1,0,0.2c0,0,0.1,0,0.2,0l1.3-3l0.6,0.2c0.1,0.1,0.3,0,0.3-0.1c0,0,0,0,0,0l0.5-1l0,0l1,0.5
						c0.3,0.1,0.7,0,0.9-0.3L91.2,78c0.2-0.3,0-0.7-0.3-0.9c0,0,0,0,0,0l-1.2-0.5l1.3-2.7l1.4,0.6c0.1,0.1,0.3,0,0.3-0.1l0.1-0.3
						c0.1-0.1,0-0.3-0.1-0.3l-4.3-2c-0.1-0.1-0.3,0-0.3,0.1c0,0,0,0,0,0L88,72.2c-0.1,0.1,0,0.3,0.1,0.3l1.5,0.7l-1.2,2.6l-1.2-0.6
						C86.8,75.1,86.4,75.3,86.3,75.6C86.3,75.6,86.3,75.6,86.3,75.6z M83.4,89.8c0-0.1,0.2-0.2,0.3-0.1c0,0,0,0,0,0l1.2,0.6
						c0.1,0,0.2,0.2,0.1,0.3c0,0,0,0,0,0c0,0.1-0.2,0.2-0.3,0.1l-1.2-0.5C83.4,90,83.4,89.9,83.4,89.8z M84.3,87.8
						c0-0.1,0.2-0.2,0.3-0.1l1.2,0.5c0.1,0,0.2,0.2,0.1,0.3c-0.1,0.1-0.2,0.2-0.3,0.1L84.4,88C84.3,88,84.3,87.9,84.3,87.8
						L84.3,87.8z M85.2,85.8c0.1-0.1,0.2-0.2,0.3-0.1l1.2,0.5c0.1,0,0.2,0.2,0.1,0.3c-0.1,0.1-0.2,0.2-0.3,0.1l-1.2-0.5
						C85.3,86,85.2,85.9,85.2,85.8L85.2,85.8z M86.6,75.8c0.1-0.2,0.3-0.2,0.4-0.2l3.8,1.7c0.1,0,0.1,0.1,0.2,0.2c0,0.1,0,0.2,0,0.2
						l-3.5,7.6l-4.3-2L86.6,75.8z"/>
				</g>
				<g>
					<path class="st0" d="M79.6,96.8c0.1-0.2,0.4-0.8-0.2-0.3c-0.1,0.1-0.4,0-0.4,0.3s0.2,0.3,0.3,0.3S79.5,96.9,79.6,96.8z"/>
				</g>
			</g>
		</g>
		<g>
			<g>
				<path class="st0" d="M72.8,99.7l-2.6-2.1c-0.2-0.2-0.6-0.2-0.8,0c0,0,0,0,0,0l0,0c-8.3,9.9-22.4,11-32.4,3
					c-0.3-0.2-0.6-0.5-0.9-0.8L39,98c0.3-0.2-0.1-0.4-0.1-0.4l-10.1-5.1c-0.3-0.2-0.4,0-0.4,0.2v0.1l0,0v11.5c0,0.1,0.1,0.4,0.3,0.2
					l0,0l3.3-2.1c0.6,0.6,1.3,1.2,2,1.8c12,9.5,28.9,8.2,38.7-3.4c0,0,0.1-0.1,0.1-0.1C73.1,100.4,73.1,100,72.8,99.7
					C72.9,99.8,72.8,99.8,72.8,99.7z"/>
			</g>
			<g>
				<path class="st0" d="M72.7,48.8L72.7,48.8L72,37.4c0-0.1-0.1-0.4-0.3-0.2l0,0l-3.2,2.3c-0.7-0.6-1.4-1.2-2.1-1.7
					c-12.5-8.8-29.3-6.5-38.4,5.7l-0.1,0.1c-0.2,0.2-0.2,0.6,0.1,0.8c0,0,0,0,0.1,0l2.7,1.9c0.2,0.2,0.6,0.2,0.8-0.1c0,0,0,0,0,0
					l0,0c7.7-10.3,21.7-12.2,32.2-4.8c0.3,0.2,0.6,0.5,0.9,0.7l-2.8,2c-0.3,0.2,0.1,0.4,0.1,0.4l10.3,4.5
					C72.7,49.2,72.7,49.1,72.7,48.8L72.7,48.8z"/>
			</g>
		</g>
		<g>
			<g>
				<path class="st0" d="M19.4,78.2c-0.4,0.2-0.8,0.4-1.2,0.5c-1.2,0.3-2.4,0.5-3.7,0.4c-0.6,0-1.2-0.1-1.8-0.2
					c-0.4-0.1-0.7-0.1-1.1-0.2c-0.2,0-0.4-0.1-0.6-0.2c-0.5-0.1-1-0.3-1.4-0.6c-0.2-0.1-0.3-0.3-0.4-0.4V78c0,0.1,0,0.7,0,0.7
					c0,0.3,0.2,0.6,0.4,0.8c0.9,0.6,1.8,1,2.9,1.1c0.7,0.1,1.4,0.2,2.1,0.2c1,0,2-0.1,3-0.3l0,0c0.5-0.1,1-0.3,1.5-0.6l0,0
					c0.5-0.3,0.8-0.7,0.8-1c0,0,0-1.1,0-1.2C19.8,77.8,19.6,78,19.4,78.2z"/>
			</g>
			<g>
				<path class="st0" d="M14.1,74.5c3,0,5.4-0.9,5.4-2c0,0,0.1-1,0-1.2c0-0.1,0-0.3-0.1-0.4c0.3-0.2,0.6-0.5,0.6-0.9
					c0,0,0-1.1,0-1.4c-0.1-1.3-2.9-2.1-5.4-2.1s-5.4,0.8-5.4,2.2c0,0.1,0,1.2,0,1.2c0,0.1,0,0.2,0.1,0.2c-0.4,0.2-0.7,0.6-0.7,1.1
					c0,0.1,0,1.2,0,1.2c0,0.3,0.2,0.6,0.4,0.8c0.9,0.6,1.8,0.9,2.9,1C12.6,74.5,13.3,74.5,14.1,74.5z M14.7,67.1
					c2.9,0,4.9,0.9,4.9,1.6s-2,1.6-4.9,1.6s-4.9-0.9-4.9-1.6S11.8,67.1,14.7,67.1z M9.2,71.3c0-0.3,0.2-0.5,0.4-0.6
					c0.2,0.2,0.3,0.3,0.5,0.4c1.4,0.6,2.9,0.9,4.5,0.9c1.3,0,2.6-0.2,3.8-0.6c0.2-0.1,0.3-0.1,0.5-0.2c0,0,0,0.1,0,0.1
					c0,0.8-2,1.6-4.9,1.6S9.2,72.1,9.2,71.3z"/>
			</g>
			<g>
				<path class="st0" d="M12.5,78.7c0.7,0.1,1.4,0.2,2.1,0.2c1,0,2-0.1,3-0.3l0,0c0.5-0.1,1-0.3,1.5-0.6l0,0
					c0.1-0.1,0.2-0.1,0.3-0.2c0.2-0.1,0.3-0.3,0.4-0.5c0-0.1,0-0.2,0-0.3c0,0,0-1.1,0-1.2c-0.2,0.2-0.6,0.9-2.8,1.4
					c-0.9,0.2-1.8,0.2-2.8,0.2c-1.5,0-3-0.2-4.3-0.8c-0.2-0.1-0.5-0.3-0.7-0.5c-0.1-0.1-0.2-0.3-0.3-0.4v0.5v0.8
					c0,0.3,0.2,0.6,0.4,0.8C10.4,78.2,11.4,78.6,12.5,78.7z"/>
			</g>
			<g>
				<path class="st0" d="M19.9,73.2l-0.1-0.1c-0.1,0-0.1-0.1-0.2-0.1c-0.1,0.1-0.1,0.2-0.2,0.3c0.1,0,0.1,0.1,0.2,0.1
					c0.2,0.1,0.2,0.2,0.3,0.4c0,0.1-0.1,0.3-0.2,0.3c-0.1,0.1-0.1,0.1-0.2,0.2l-0.3,0.2l-0.5,0.2l-0.5,0.2L17.5,75l-0.8,0.1
					l-0.8,0.1l-1.2,0.1c-0.6,0-1.2,0-1.7-0.1C12.4,75.1,12,75,11.6,75c-0.4-0.1-0.9-0.2-1.3-0.4c-0.2-0.1-0.5-0.3-0.7-0.4
					c-0.2-0.2-0.3-0.4-0.4-0.6v0.7v0.7c0,0.3,0.2,0.6,0.4,0.8c0.9,0.6,1.8,1,2.9,1.1c0.7,0.1,1.4,0.2,2.1,0.2c1,0,2-0.1,3-0.3l0,0
					c0.5-0.1,1-0.3,1.5-0.6l0,0c0.1-0.1,0.2-0.2,0.3-0.2c0.2-0.1,0.3-0.3,0.4-0.5c0-0.1,0.1-0.2,0.1-0.3c0,0,0-1.1,0-1.2
					c0-0.1,0-0.2,0-0.3C19.9,73.4,19.9,73.3,19.9,73.2z"/>
			</g>
			<g>
				<path class="st0" d="M26.5,70.7c3,0,5.4-0.9,5.4-2c0,0,0.1-1,0-1.2c0-0.1,0-0.3-0.1-0.4c0.3-0.2,0.6-0.5,0.6-0.9
					c0,0,0-1.1,0-1.4c-0.2-1.3-2.9-2.1-5.4-2.1s-5.4,0.8-5.4,2.2c0,0.1,0,1.2,0,1.2c0,0.1,0,0.2,0.1,0.2C21.3,66.6,21,67,21,67.4
					c0,0.1,0,1.2,0,1.2c0,0.3,0.2,0.6,0.4,0.8c0.8,0.6,1.8,1,2.9,1.1C25.1,70.6,25.8,70.7,26.5,70.7z M27.1,63.3
					c2.9,0,4.9,0.8,4.9,1.6s-2,1.6-4.9,1.6s-4.9-0.8-4.9-1.6S24.2,63.3,27.1,63.3z M21.6,67.4c0-0.3,0.2-0.5,0.4-0.6
					c0.2,0.2,0.3,0.3,0.5,0.4c1.4,0.6,2.9,0.9,4.5,0.9c1.3,0,2.6-0.2,3.8-0.6l0.5-0.2c0,0,0,0.1,0,0.1c0,0.8-2,1.6-4.9,1.6
					S21.6,68.2,21.6,67.4z"/>
			</g>
			<g>
				<path class="st0" d="M32.5,69.6c0-0.1-0.1-0.1-0.1-0.2c0,0-0.1-0.1-0.1-0.1L32,69.1c-0.1,0.1-0.1,0.2-0.2,0.3
					c0.1,0,0.1,0.1,0.2,0.1c0.2,0.1,0.2,0.2,0.3,0.4c0,0.1-0.1,0.3-0.2,0.3l-0.2,0.2l-0.3,0.2L31,70.9L30.5,71l-0.6,0.2l-0.8,0.1
					l-0.8,0.1c-0.1,0-0.9,0.1-1.2,0.1c-0.6,0-1.2,0-1.7-0.1c-0.4-0.1-0.8-0.1-1.2-0.2c-0.4-0.1-0.9-0.2-1.3-0.4
					c-0.2-0.1-0.5-0.3-0.7-0.5c-0.2-0.2-0.3-0.4-0.4-0.6v0.7V71c0,0.3,0.2,0.6,0.4,0.8c0.9,0.6,1.9,1,2.9,1.1
					c0.7,0.1,1.4,0.2,2.1,0.2c1,0,2-0.1,3-0.3l0,0c0.5-0.1,1-0.3,1.5-0.6l0,0c0.1-0.1,0.2-0.2,0.3-0.2c0.2-0.1,0.3-0.3,0.4-0.5
					c0-0.1,0.1-0.2,0.1-0.3c0,0,0-1.1,0-1.2C32.5,69.8,32.5,69.7,32.5,69.6z"/>
			</g>
			<g>
				<path class="st0" d="M31.8,74.3c-0.4,0.2-0.8,0.4-1.2,0.5c-1.2,0.3-2.4,0.5-3.7,0.5c-0.6,0-1.2-0.1-1.8-0.1
					c-0.4-0.1-0.7-0.1-1.1-0.2l-0.5-0.2c-0.5-0.1-1-0.4-1.4-0.7c-0.2-0.1-0.3-0.3-0.4-0.4v0.5c0,0.1,0,0.7,0,0.7
					c0,0.3,0.2,0.6,0.4,0.8c0.9,0.6,1.9,1,2.9,1.1c0.7,0.1,1.4,0.2,2.1,0.2c1,0,2-0.1,3-0.3l0,0c0.5-0.1,1-0.3,1.5-0.6l0,0
					c0.5-0.3,0.8-0.7,0.8-1c0,0,0-1.1,0-1.2C32.3,74,32.1,74.2,31.8,74.3z"/>
			</g>
			<g>
				<path class="st0" d="M22.1,73.7c0.9,0.6,1.8,1,2.9,1.1c0.7,0.1,1.4,0.2,2.1,0.2c1,0,2-0.1,3-0.3l0,0c0.5-0.1,1.1-0.3,1.6-0.6
					l0,0c0.1-0.1,0.2-0.1,0.3-0.2c0.2-0.1,0.3-0.3,0.4-0.5c0-0.1,0-0.2,0-0.3c0,0,0-1.1,0-1.2c-0.2,0.2-0.6,0.9-2.8,1.4
					c-0.9,0.2-1.8,0.2-2.8,0.2c-1.5,0-3-0.3-4.3-0.8c-0.2-0.1-0.5-0.3-0.7-0.5c-0.1-0.1-0.2-0.3-0.3-0.4c0,0,0,0.5,0,0.5V73
					C21.6,73.3,21.8,73.6,22.1,73.7z"/>
			</g>
			<g>
				<path class="st0" d="M32.5,77.5c-0.2,0.2-0.4,0.5-0.6,0.6c-0.4,0.2-0.8,0.4-1.2,0.5c-1.2,0.3-2.4,0.5-3.7,0.5
					c-0.6,0-1.2-0.1-1.8-0.1c-0.4,0-0.7-0.1-1.1-0.2l-0.5-0.1c-0.5-0.1-1-0.4-1.4-0.7c-0.2-0.1-0.3-0.3-0.4-0.4V78
					c0,0.1,0,0.7,0,0.7c0,0.3,0.2,0.6,0.4,0.8c0.9,0.6,1.8,0.9,2.9,1c0.7,0.1,1.4,0.2,2.1,0.2c1,0,2-0.1,3-0.3l0,0
					c0.5-0.1,1-0.3,1.5-0.6l0,0c0.5-0.3,0.8-0.7,0.8-1C32.5,78.7,32.5,77.6,32.5,77.5z"/>
			</g>
			<g>
				<path class="st0" d="M25,78.6c0.7,0.1,1.4,0.2,2.1,0.2c1,0,2-0.1,3-0.3l0,0c0.5-0.1,1-0.3,1.5-0.6l0,0l0.4-0.3
					c0.2-0.1,0.3-0.3,0.4-0.5c0-0.1,0.1-0.2,0.1-0.3c0,0,0-1.1,0-1.2c-0.2,0.2-0.6,0.9-2.8,1.4c-0.9,0.2-1.8,0.2-2.8,0.2
					c-1.5,0-3-0.2-4.3-0.8c-0.2-0.1-0.5-0.3-0.7-0.5c-0.1-0.1-0.2-0.3-0.3-0.4c0,0,0,0.5,0,0.5v0.8c0,0.3,0.2,0.6,0.4,0.8
					C22.9,78.2,23.9,78.5,25,78.6z"/>
			</g>
		</g>
	</g>
</g>
</svg>
