<?xml version="1.0" encoding="utf-8"?>
<!-- Generator: Adobe Illustrator 22.0.1, SVG Export Plug-In . SVG Version: 6.00 Build 0)  -->
<svg version="1.1" id="Layer_1" xmlns="http://www.w3.org/2000/svg" xmlns:xlink="http://www.w3.org/1999/xlink" x="0px" y="0px"
	 viewBox="0 0 101.5 166.2" style="enable-background:new 0 0 101.5 166.2;" xml:space="preserve">
<style type="text/css">
	.st0{fill:#FFFFFF;}
	.st1{fill:#00689D;}
	.st2{enable-background:new    ;}
</style>
<title>TARGET 1.3</title>
<g id="WHITE_BG">
	<g>
		<rect y="0" class="st0" width="101.5" height="166.2"/>
	</g>
</g>
<g id="TARGETS">
	<g>
		<g>
			<path class="st1" d="M7.8,132.2h-1v-6.4h2.1c1.6,0,2.2,1,2.2,2c0,1-0.6,2-2.2,2H7.8V132.2z M7.8,128.9H9c0.6,0,1.1-0.5,1.1-1.1
				c0-0.6-0.5-1.1-1.1-1.1c0,0,0,0,0,0H7.8V128.9z"/>
		</g>
		<g>
			<path class="st1" d="M12.6,132.2h-0.9v-6.4h2.1c1.6,0,2.2,0.7,2.2,1.9c0.1,0.7-0.3,1.4-1,1.7l1.3,2.8h-1.2l-1.1-2.6h-1.3V132.2z
				 M12.6,128.7h1.3c0.9,0,1-0.5,1-1s-0.1-1-1-1h-1.3V128.7z"/>
		</g>
		<g>
			<path class="st1" d="M16.6,129c0-1.8,0.4-3.3,2.5-3.3s2.5,1.5,2.5,3.3s-0.4,3.3-2.5,3.3S16.6,130.8,16.6,129z M17.6,129
				c0,1.5,0.3,2.4,1.5,2.4s1.5-0.9,1.5-2.4s-0.3-2.4-1.5-2.4S17.6,127.5,17.6,129L17.6,129z"/>
		</g>
		<g>
			<path class="st1" d="M25.7,131.3h-0.9l-1.6-3.9v4.8h-1v-6.4h1.2l1.7,4.3l1.9-4.3h1.2v6.4h-1v-4.8L25.7,131.3z"/>
		</g>
		<g>
			<path class="st1" d="M29,129c0-1.8,0.4-3.3,2.5-3.3s2.5,1.5,2.5,3.3s-0.4,3.3-2.5,3.3S29,130.8,29,129z M30,129
				c0,1.5,0.3,2.4,1.5,2.4s1.5-0.9,1.5-2.4s-0.3-2.4-1.5-2.4S30,127.5,30,129L30,129z"/>
		</g>
		<g>
			<path class="st1" d="M36.7,126.7v5.5h-1v-5.5h-1.6v-0.9h4.3v0.9L36.7,126.7z"/>
		</g>
		<g>
			<path class="st1" d="M42.6,129.3H40v2h2.9v0.9H39v-6.4h3.9v0.9H40v1.8h2.7L42.6,129.3z"/>
		</g>
		<g>
			<path class="st1" d="M47.2,126.7v5.5h-1v-5.5h-1.6v-0.9h4.3v0.9L47.2,126.7z"/>
		</g>
		<g>
			<path class="st1" d="M52.9,132.2v-2.9h-2.6v2.9h-1v-6.4h1v2.6h2.6v-2.6h1v6.4L52.9,132.2z"/>
		</g>
		<g>
			<path class="st1" d="M58.4,129.3h-2.7v2h2.9v0.9h-3.9v-6.4h3.9v0.9h-2.9v1.8h2.7V129.3z"/>
		</g>
		<g>
			<path class="st1" d="M61.8,132.2h-1v-6.4h2.1c1.6,0,2.2,0.7,2.2,1.9c0.1,0.7-0.3,1.4-1,1.7l1.3,2.8h-1.1l-1.2-2.6h-1.3V132.2z
				 M61.8,128.7h1.3c0.9,0,1-0.5,1-1s-0.1-1-1-1h-1.3V128.7z"/>
		</g>
		<g>
			<path class="st1" d="M65.9,130.2v-4.4h1v4.3c0,0.8,0.6,1.4,1.4,1.4s1.4-0.6,1.4-1.4v-4.3h1v4.4c-0.1,1.3-1.2,2.2-2.5,2.1
				C67,132.2,66.1,131.3,65.9,130.2L65.9,130.2z"/>
		</g>
		<g>
			<path class="st1" d="M72.4,131.3h2.8v0.9h-3.7v-6.4h1L72.4,131.3z"/>
		</g>
		<g>
			<path class="st1" d="M79.3,129.3h-2.7v2h2.9v0.9h-3.9v-6.4h3.9v0.9h-2.9v1.8h2.7V129.3z"/>
		</g>
		<g>
			<path class="st1" d="M81.7,129c0-1.8,0.4-3.3,2.4-3.3s2.5,1.5,2.5,3.3s-0.4,3.3-2.5,3.3S81.7,130.8,81.7,129z M82.7,129
				c0,1.5,0.3,2.4,1.5,2.4s1.5-0.9,1.5-2.4s-0.3-2.4-1.5-2.4S82.6,127.5,82.7,129L82.7,129z"/>
		</g>
		<g>
			<path class="st1" d="M90.8,129.4h-2.6v2.8h-1v-6.4h3.8v0.9h-2.8v1.8h2.6V129.4z"/>
		</g>
		<g>
			<path class="st1" d="M7.8,140.3h2.8v0.9H6.9v-6.4h1L7.8,140.3z"/>
		</g>
		<g>
			<path class="st1" d="M14.4,139.6h-2l-0.4,1.6h-1l2-6.5h1l2,6.5h-1L14.4,139.6z M13.4,136l-0.8,2.8h1.6L13.4,136z"/>
		</g>
		<g>
			<path class="st1" d="M18.4,134.8h1.2l1.1,5l0.8-5h1l-1.2,6.4h-1.1L19,136l-1.1,5.3h-1.2l-1.2-6.4h1l0.8,5L18.4,134.8z"/>
		</g>
		<g>
			<path class="st1" d="M27.5,139.6h-2l-0.5,1.6h-1l2-6.5h1l2,6.5h-1L27.5,139.6z M26.5,136l-0.8,2.8h1.6L26.5,136z"/>
		</g>
		<g>
			<path class="st1" d="M33.2,141.2l-2.8-4.5v4.5h-0.9v-6.4h0.9l2.8,4.5v-4.5h0.9v6.4H33.2z"/>
		</g>
		<g>
			<path class="st1" d="M35,141.2v-6.4h1.9c2.1,0,2.7,1.4,2.7,3.2s-0.6,3.2-2.7,3.2H35z M36,140.3h1c1.3,0,1.7-0.9,1.7-2.3
				s-0.4-2.3-1.7-2.3h-1V140.3z"/>
		</g>
		<g>
			<path class="st1" d="M45.4,138.3h-2.6v2h2.9v0.9h-3.9v-6.4h3.9v0.9h-2.9v1.8h2.7L45.4,138.3z"/>
		</g>
		<g>
			<path class="st1" d="M50.2,141.2l-2.8-4.5v4.5h-1v-6.4h0.9l2.8,4.5v-4.5h1v6.4H50.2z"/>
		</g>
		<g>
			<path class="st1" d="M56.1,139.3c0,1.2-0.7,2-2.4,2c-0.6,0-1.3-0.1-1.9-0.4V140c0.6,0.3,1.2,0.4,1.8,0.4c1.2,0,1.5-0.5,1.5-1.1
				s-0.3-0.9-1.2-1c-1.5-0.2-2.2-0.6-2.2-1.8c0-0.9,0.5-1.8,2.3-1.8c0.6,0,1.2,0.1,1.7,0.3v1c-0.5-0.2-1.1-0.3-1.7-0.3
				c-1,0-1.3,0.4-1.3,1s0.4,0.8,1.2,0.9C55.3,137.7,56.1,138,56.1,139.3z"/>
		</g>
		<g>
			<path class="st1" d="M56.7,139.2v-4.4h1v4.3c0,0.8,0.6,1.4,1.4,1.4s1.4-0.6,1.4-1.4v-4.3h1v4.4c-0.1,1.3-1.2,2.2-2.5,2.2
				C57.8,141.3,56.9,140.4,56.7,139.2L56.7,139.2z"/>
		</g>
		<g>
			<path class="st1" d="M63.2,141.2h-1v-6.4h2.1c1.7,0,2.2,0.7,2.2,1.9c0.1,0.7-0.3,1.4-1,1.7l1.3,2.8h-1.2l-1.2-2.6h-1.3V141.2z
				 M63.2,137.7h1.3c0.9,0,1-0.5,1-1s-0.1-1-1-1h-1.3V137.7z"/>
		</g>
		<g>
			<path class="st1" d="M70.9,138.3h-2.7v2h2.9v0.9h-3.9v-6.4h3.9v0.9h-2.9v1.8h2.7V138.3z"/>
		</g>
		<g>
			<path class="st1" d="M10.5,147.3H7.8v2h2.9v0.9H6.9v-6.4h3.9v0.9H7.8v1.8h2.6V147.3z"/>
		</g>
		<g>
			<path class="st1" d="M14.9,150l2,0.4v1l-4-1.2c-1.3-0.4-1.6-1.6-1.6-3.2c0-1.9,0.4-3.3,2.5-3.3s2.4,1.4,2.4,3.3
				C16.2,148.4,16,149.6,14.9,150L14.9,150z M12.3,147c0,1.5,0.3,2.4,1.5,2.4s1.5-0.9,1.5-2.4s-0.3-2.4-1.5-2.4S12.3,145.5,12.3,147
				z"/>
		</g>
		<g>
			<path class="st1" d="M16.9,148.2v-4.4h1v4.3c-0.1,0.7,0.4,1.2,1,1.3c0.1,0,0.2,0,0.3,0c0.6,0.1,1.3-0.3,1.4-1c0-0.1,0-0.2,0-0.3
				v-4.3h1v4.4c0,1.1-0.8,2.1-2,2.1c-0.1,0-0.2,0-0.3,0c-1.1,0.1-2.2-0.7-2.3-1.8C16.9,148.4,16.9,148.3,16.9,148.2z"/>
		</g>
		<g>
			<path class="st1" d="M25.4,148.6h-2l-0.5,1.6h-1l2-6.5h1l2,6.5h-1L25.4,148.6z M24.4,145l-0.8,2.8h1.6L24.4,145z"/>
		</g>
		<g>
			<path class="st1" d="M28.3,149.3h2.8v0.9h-3.7v-6.4h1L28.3,149.3z"/>
		</g>
		<g>
			<path class="st1" d="M36.3,148.6h-2l-0.5,1.6h-1l2-6.5h1l2,6.5h-1L36.3,148.6z M35.3,145l-0.8,2.8h1.6L35.3,145z"/>
		</g>
		<g>
			<path class="st1" d="M40.6,143.7c0.5,0,1,0.1,1.5,0.3v0.9c-0.4-0.2-0.9-0.3-1.4-0.3c-1.2,0-1.7,0.8-1.7,2.4s0.5,2.4,1.7,2.4
				c0.5,0,1-0.1,1.4-0.3v0.9c-0.5,0.2-1,0.3-1.5,0.3c-1.9,0-2.6-1.2-2.6-3.3S38.7,143.7,40.6,143.7z"/>
		</g>
		<g>
			<path class="st1" d="M45.4,143.7c0.5,0,1,0.1,1.5,0.3v0.9c-0.5-0.2-0.9-0.3-1.4-0.3c-1.2,0-1.7,0.8-1.7,2.4s0.5,2.4,1.7,2.4
				c0.5,0,1-0.1,1.4-0.3v0.9c-0.5,0.2-1,0.3-1.5,0.3c-1.9,0-2.6-1.2-2.6-3.3S43.5,143.7,45.4,143.7z"/>
		</g>
		<g>
			<path class="st1" d="M51.3,147.3h-2.7v2h2.9v0.9h-3.9v-6.4h3.9v0.9h-2.9v1.8h2.7V147.3z"/>
		</g>
		<g>
			<path class="st1" d="M56.6,148.3c0,1.2-0.7,2-2.4,2c-0.6,0-1.3-0.1-1.9-0.4V149c0.6,0.3,1.2,0.4,1.8,0.4c1.2,0,1.5-0.5,1.5-1.1
				s-0.3-0.9-1.2-1c-1.6-0.2-2.2-0.6-2.2-1.8c0-0.9,0.5-1.8,2.3-1.8c0.6,0,1.2,0.1,1.7,0.3v1c-0.5-0.2-1.1-0.3-1.7-0.3
				c-1,0-1.3,0.4-1.3,1s0.4,0.8,1.2,0.9C55.8,146.7,56.6,147,56.6,148.3z"/>
		</g>
		<g>
			<path class="st1" d="M61.5,148.3c0,1.2-0.7,2-2.4,2c-0.6,0-1.3-0.1-1.9-0.4V149c0.6,0.3,1.2,0.4,1.8,0.4c1.2,0,1.5-0.5,1.5-1.1
				s-0.3-0.9-1.2-1c-1.5-0.2-2.2-0.6-2.2-1.8c0-0.9,0.5-1.8,2.3-1.8c0.6,0,1.2,0.1,1.7,0.3v1c-0.5-0.2-1.1-0.3-1.7-0.3
				c-1,0-1.3,0.4-1.3,1s0.4,0.8,1.2,0.9C60.7,146.7,61.5,147,61.5,148.3z"/>
		</g>
		<g>
			<path class="st1" d="M65.7,144.7v5.5h-1v-5.5h-1.6v-0.9h4.3v0.9H65.7z"/>
		</g>
		<g>
			<path class="st1" d="M67.5,147c0-1.8,0.4-3.3,2.4-3.3s2.5,1.5,2.5,3.3s-0.4,3.3-2.4,3.3S67.5,148.8,67.5,147z M68.5,147
				c0,1.5,0.3,2.4,1.5,2.4s1.5-0.9,1.5-2.4s-0.3-2.4-1.5-2.4S68.5,145.5,68.5,147L68.5,147z"/>
		</g>
		<g>
			<path class="st1" d="M6.6,158.3c0.2,0.1,0.4,0.1,0.7,0.1c0.5,0,0.8-0.2,0.8-0.7v-4.9h1v5.1c0,0.9-0.5,1.4-1.7,1.4
				c-0.2,0-0.5,0-0.7-0.1L6.6,158.3z"/>
		</g>
		<g>
			<path class="st1" d="M9.9,157.2v-4.4h1v4.3c-0.1,0.7,0.4,1.3,1,1.3c0.1,0,0.2,0,0.3,0c0.6,0.1,1.3-0.3,1.4-1c0-0.1,0-0.2,0-0.3
				v-4.3h1v4.4c0,1.1-0.8,2.1-2,2.1c-0.1,0-0.2,0-0.3,0c-1.1,0.2-2.2-0.6-2.4-1.7C9.9,157.5,9.9,157.3,9.9,157.2z"/>
		</g>
		<g>
			<path class="st1" d="M19.6,157.3c0,1.2-0.7,2-2.4,2c-0.6,0-1.3-0.1-1.9-0.4V158c0.6,0.3,1.2,0.4,1.8,0.4c1.1,0,1.5-0.5,1.5-1.1
				s-0.3-0.9-1.1-1c-1.6-0.2-2.2-0.6-2.2-1.8c0-0.9,0.5-1.8,2.3-1.8c0.6,0,1.2,0.1,1.7,0.3v1c-0.5-0.2-1.1-0.3-1.7-0.3
				c-1,0-1.3,0.4-1.3,1s0.4,0.8,1.2,0.9C18.9,155.7,19.6,156,19.6,157.3z"/>
		</g>
		<g>
			<path class="st1" d="M22.4,153.7v5.5h-1v-5.5h-1.6v-0.9H24v0.9H22.4z"/>
		</g>
		<g>
			<path class="st1" d="M24.8,159.2v-6.4h1v6.4H24.8z"/>
		</g>
		<g>
			<path class="st1" d="M29.3,152.7c0.5,0,1,0.1,1.5,0.3v0.9c-0.5-0.2-0.9-0.3-1.4-0.3c-1.2,0-1.7,0.8-1.7,2.4s0.5,2.4,1.7,2.4
				c0.5,0,1-0.1,1.4-0.3v0.9c-0.5,0.2-1,0.3-1.5,0.3c-1.9,0-2.6-1.2-2.6-3.3S27.4,152.7,29.3,152.7z"/>
		</g>
		<g>
			<path class="st1" d="M35.3,156.3h-2.6v2h2.9v0.9h-3.9v-6.4h3.9v0.9h-2.9v1.8h2.7L35.3,156.3z"/>
		</g>
	</g>
	<g>
		<rect x="3.3" y="24" class="st1" width="94.8" height="94.8"/>
	</g>
	<g>
		<path class="st1" d="M98.2,20.7H3.3V3.3h94.8V20.7z M4.3,19.7h92.8V4.3H4.3L4.3,19.7z"/>
	</g>
	<g class="st2">
		<path class="st1" d="M6.7,6.9h4.5v1.4H9.9v8.8H8.1V8.3H6.7V6.9z"/>
	</g>
	<g class="st2">
		<path class="st1" d="M11.2,17.1l1.9-10.2h1.9L17,17.1h-1.8l-0.3-1.9h-1.8l-0.3,1.9H11.2z M13.3,13.9h1.4L14,9.8h0L13.3,13.9z"/>
	</g>
	<g class="st2">
		<path class="st1" d="M19.6,12.4v4.7h-1.7V6.9h2.5c1.7,0,2.4,0.9,2.4,2.3v1.3c0,1.1-0.4,1.7-1.4,2l1.6,4.6h-1.8L19.6,12.4z
			 M19.6,8.3v3.2h0.6c0.6,0,0.8-0.3,0.8-0.8V9.2c0-0.6-0.3-0.8-0.8-0.8H19.6z"/>
	</g>
	<g class="st2">
		<path class="st1" d="M26.4,11.7h2.4v5.4h-1.2V16c-0.2,0.8-0.7,1.2-1.6,1.2c-1.5,0-2.1-1.2-2.1-2.7V9.6c0-1.6,0.8-2.7,2.6-2.7
			c1.9,0,2.4,1.1,2.4,2.6v0.9h-1.6v-1c0-0.6-0.2-1-0.9-1c-0.6,0-0.9,0.4-0.9,1v5.5c0,0.6,0.3,1,0.8,1c0.6,0,0.8-0.3,0.8-1V13h-0.8
			V11.7z"/>
	</g>
	<g class="st2">
		<path class="st1" d="M30.2,6.9h4.1v1.4h-2.4v2.9h1.7v1.4h-1.7v3.1h2.4v1.4h-4.1V6.9z"/>
	</g>
	<g class="st2">
		<path class="st1" d="M35.1,6.9h4.5v1.4h-1.4v8.8h-1.7V8.3h-1.4V6.9z"/>
	</g>
	<g class="st2">
		<path class="st1" d="M77.6,6.9v10.2h-1.7V9.3h0l-1.2,1.2h0V8.8l1.6-1.8H77.6z"/>
		<path class="st1" d="M79,14.5v-5c0-1.6,0.7-2.7,2.5-2.7c1.9,0,2.4,1.1,2.4,2.6v0.5h-1.6V9.2c0-0.6-0.2-1-0.8-1
			c-0.6,0-0.8,0.4-0.8,1v2.2h0c0.3-0.5,0.7-0.8,1.4-0.8c1.2,0,1.9,0.8,1.9,2.5v1.5c0,1.6-0.7,2.6-2.5,2.6C79.7,17.2,79,16.1,79,14.5
			z M82.3,14.8V13c0-0.7-0.2-1-0.8-1c-0.5,0-0.8,0.4-0.8,0.9v1.9c0,0.6,0.2,1,0.8,1C82.1,15.8,82.3,15.5,82.3,14.8z"/>
	</g>
	<g class="st2">
	</g>
	<g class="st2">
		<path class="st1" d="M86.8,10.8c0.7,0,1.2,0.6,1.2,1.2c0,0.7-0.6,1.2-1.2,1.2c-0.7,0-1.2-0.6-1.2-1.2
			C85.6,11.4,86.1,10.8,86.8,10.8z"/>
	</g>
	<g class="st2">
		<path class="st1" d="M94.3,9.1V10c0,0.9-0.5,1.4-1.2,1.7c0.9,0.2,1.3,0.8,1.3,1.7v1.5c0,1.4-0.8,2.3-2.5,2.3c-1.7,0-2.4-1-2.4-2.5
			v-1.3h1.6v1.5c0,0.6,0.2,1,0.8,1c0.5,0,0.8-0.4,0.8-0.9v-1.7c0-0.5-0.2-0.8-0.8-0.8h-0.7v-1.3h0.6c0.6,0,0.9-0.3,0.9-0.8V9.2
			c0-0.6-0.2-0.9-0.7-0.9s-0.7,0.4-0.7,1v1h-1.6V9.4c0-1.5,0.6-2.6,2.4-2.6C93.6,6.8,94.3,7.7,94.3,9.1z"/>
	</g>
	<g>
		<g>
			<g>
				<path class="st0" d="M81.1,79.6c0,1.5,1.2,2.8,2.8,2.8s2.8-1.2,2.8-2.8c0-1.5-1.2-2.8-2.8-2.8l0,0
					C82.3,76.9,81.1,78.1,81.1,79.6z"/>
			</g>
			<g>
				<path class="st0" d="M87.1,83.5h-0.2h-6.1h-0.2c-1.9,0.2-3.4,1.8-3.4,3.7v7.7c-0.1,0.6,0.4,1.1,1,1.2c0.6,0.1,1.1-0.4,1.2-1
					c0-0.1,0-0.1,0-0.2v-6.6c0-0.2,0.1-0.6,0.5-0.6s0.4,0.3,0.4,0.5V108c0.1,0.9,0.8,1.5,1.7,1.4c0.8-0.1,1.4-0.7,1.4-1.4V96.6
					c0-0.2,0.2-0.4,0.4-0.5c0,0,0,0,0,0l0,0c0.2,0,0.4,0.2,0.4,0.4c0,0,0,0,0,0.1V108c0,0.9,0.7,1.5,1.6,1.5c0.9,0,1.5-0.7,1.5-1.5
					V88.2c0-0.2,0.1-0.5,0.4-0.5s0.5,0.3,0.5,0.6v6.6c0,0.6,0.5,1.1,1.1,1.1s1.1-0.5,1.1-1.1v-7.7C90.5,85.3,89,83.7,87.1,83.5z"/>
			</g>
			<g>
				<path class="st0" d="M57.9,81.1c0,1.4,1.2,2.6,2.6,2.6c1.4,0,2.6-1.2,2.6-2.6c0-1.4-1.2-2.6-2.6-2.6
					C59.1,78.5,57.9,79.7,57.9,81.1C57.9,81.1,57.9,81.1,57.9,81.1z"/>
			</g>
			<g>
				<path class="st0" d="M63.7,88.6c0.3-0.1,0.4,0.4,0.4,0.4l1.8,5.9c0,0,0.3,1.3,1.4,0.9s0.7-1.6,0.7-1.6l-2.2-7.1c0,0-0.8-2-2.5-2
					h-5.6c-1.7,0-2.5,2-2.5,2l-2.2,7.1c0,0-0.4,1.3,0.7,1.6s1.4-0.9,1.4-0.9l1.8-5.9c0,0,0.1-0.5,0.4-0.4s0.2,0.6,0.2,0.6l-3.1,11.1
					h2.8v8c-0.1,0.8,0.5,1.4,1.2,1.5c0.8,0.1,1.4-0.5,1.5-1.2c0-0.1,0-0.2,0-0.2v-8h0.8v8c-0.1,0.8,0.5,1.4,1.2,1.5
					c0.8,0.1,1.4-0.5,1.5-1.2c0-0.1,0-0.2,0-0.2v-8h2.8l-3.1-11.1C63.4,89.2,63.3,88.7,63.7,88.6z"/>
			</g>
			<g>
				<path class="st0" d="M42.2,81.1c0,1.5,1.2,2.6,2.6,2.6c1.5,0,2.6-1.2,2.6-2.6c0-1.5-1.2-2.6-2.6-2.6c0,0,0,0,0,0
					C43.4,78.5,42.2,79.6,42.2,81.1C42.2,81.1,42.2,81.1,42.2,81.1z"/>
			</g>
			<g>
				<path class="st0" d="M50.1,87c0,0-0.8-2-2.5-2H42c-1.7,0-2.5,2-2.5,2l-2.2,7.1c0,0-0.4,1.3,0.7,1.6s1.4-0.9,1.4-0.9l1.8-5.9
					c0,0,0.1-0.5,0.4-0.4s0.2,0.6,0.2,0.6l-3.1,11.1h2.8v8c-0.1,0.8,0.5,1.4,1.2,1.5c0.8,0.1,1.4-0.5,1.5-1.2c0-0.1,0-0.2,0-0.2v-8
					h0.8v8c-0.1,0.8,0.5,1.4,1.2,1.5c0.8,0.1,1.4-0.5,1.5-1.2c0-0.1,0-0.2,0-0.2v-8h2.8l-3.1-11.1c0,0-0.1-0.5,0.2-0.6
					s0.4,0.4,0.4,0.4l1.8,5.9c0,0,0.3,1.3,1.4,0.9s0.7-1.6,0.7-1.6L50.1,87z"/>
			</g>
			<g>
				<path class="st0" d="M19.6,82.7c1.5,0,2.7-1.2,2.7-2.8c0-1.5-1.2-2.7-2.8-2.7c-1.5,0-2.7,1.2-2.7,2.8c0,0,0,0,0,0
					C16.8,81.5,18.1,82.7,19.6,82.7z"/>
			</g>
			<g>
				<path class="st0" d="M22.8,83.8h-0.2h-6h-0.2c-1.9,0.2-3.4,1.7-3.4,3.7V95c0,0.3,0.2,0.6,0.4,0.8L11,108.7
					c0,0.2,0.1,0.4,0.3,0.5c0,0,0,0,0,0h0.1c0.2,0,0.4-0.1,0.4-0.3l2.4-12.8c0.5-0.1,0.9-0.5,0.9-1v-6.6c0-0.2,0.1-0.6,0.5-0.6
					s0.4,0.3,0.4,0.5v19.6c0,0.8,0.7,1.5,1.5,1.5c0.8,0,1.5-0.7,1.5-1.5c0,0,0,0,0,0V96.8c0-0.2,0.2-0.4,0.4-0.4c0,0,0,0,0.1,0l0,0
					c0.2,0,0.4,0.2,0.4,0.4c0,0,0,0,0,0.1v11.3c0.1,0.8,0.8,1.5,1.7,1.4c0.8-0.1,1.4-0.7,1.4-1.4V88.5c0-0.2,0.1-0.5,0.4-0.5
					s0.5,0.3,0.5,0.6V95c-0.1,0.6,0.4,1.1,1,1.2c0.6,0.1,1.1-0.4,1.2-1c0-0.1,0-0.1,0-0.2v-7.6C26.1,85.6,24.7,84,22.8,83.8z"/>
			</g>
			<g>
				<path class="st0" d="M69.9,93.4c0,1.2,1,2.2,2.2,2.2s2.2-1,2.2-2.2s-1-2.2-2.2-2.2c0,0,0,0,0,0C70.9,91.1,69.9,92.1,69.9,93.4z"
					/>
			</g>
			<g>
				<path class="st0" d="M76.7,99.9c-1.3-3.5-1.6-3.4-2.8-3.5h-3.4c-1.2,0-1.4,0-2.8,3.5c-0.2,0.5-1,2.4-1,2.5s-0.3,0.8,0.4,1.1
					s0.9-0.6,0.9-0.6l1.4-3.4c0,0,0-0.1,0.1-0.1s0,0.1,0,0.1v8.8l0,0c0,0.6,0.5,1.2,1.1,1.2c0,0,0,0,0,0c0.6,0,1.1-0.5,1.1-1.1
					c0,0,0,0,0-0.1v-3.5c0,0,0-0.5,0.3-0.5s0.3,0.5,0.3,0.5v3.5c0,0.6,0.5,1.2,1.1,1.2c0,0,0,0,0,0c0.6,0,1.1-0.5,1.1-1.1
					c0,0,0,0,0-0.1l0,0v-8.8c0-0.1,0-0.1,0-0.1s0.1,0.1,0.1,0.1l1.2,3c0,0,0.4,0.8,1,0.5s0.3-1,0.3-1S76.8,100.4,76.7,99.9z"/>
			</g>
			<g>
				<path class="st0" d="M36.2,94.3c-0.4-0.2-0.9,0-1.1,0.4c-0.4,0.7-0.9,1.4-1.4,2.1c-0.2,0.2-0.4,0.3-0.7,0.3h-2.7
					c-0.3,0-0.5-0.1-0.7-0.3c-0.3-0.3-1.4-2.2-1.4-2.2c-0.1-0.2-0.4-0.4-0.7-0.4c-0.4,0-0.8,0.4-0.8,0.8l0,0c0,0.1,0,0.2,0.1,0.3
					l2.2,4c0.1,0.2,0.1,0.3,0.1,0.5v0.6l0,0c0,0.2,0,0.5-0.1,0.7l-1.1,4.2h1.2v3.1l0,0c0.1,0.6,0.6,1,1.2,1c0.5,0,0.9-0.5,1-1v-3
					c0,0,0-0.1,0-0.1H32v3.1c0.1,0.6,0.6,1,1.2,1c0.5,0,0.9-0.5,1-1v-3.1h1.2l-1.1-4.2c-0.1-0.2-0.1-0.4-0.1-0.6v-0.2l0,0v-0.6
					c0-0.2,0.1-0.4,0.1-0.5l2-3.7l0.2-0.4C36.7,94.9,36.6,94.5,36.2,94.3z"/>
			</g>
			<g>
				<path class="st0" d="M31.7,95.7c1.2,0,2.2-1,2.2-2.2c0-1.2-1-2.2-2.2-2.2s-2.2,1-2.2,2.2c0,0,0,0,0,0
					C29.5,94.7,30.5,95.7,31.7,95.7z"/>
			</g>
		</g>
		<g>
			<path class="st0" d="M71.9,57C71.9,57,71.9,57,71.9,57l-7.6-20.2c-0.1-0.2-0.2-0.3-0.4-0.3H51.7v-3.2h-2.3v3.1H37.7
				c-0.2,0-0.3,0.1-0.4,0.3l-7.8,20.2c0,0,0,0,0,0.1s0,0,0,0.1c0,4.3,3.8,7.8,8.5,7.8s8.5-3.5,8.5-7.8c0,0,0,0,0-0.1s0,0,0-0.1
				l-6.7-18.3h9.8l0.2,27.8h-7.1v2.3h16.5v-2.3h-7.2l-0.2-27.8h10.2l-6.8,18.2c0,0,0,0.1,0,0.1c0,0,0,0,0,0.1c0,4.3,3.8,7.8,8.5,7.8
				S72,61.4,71.9,57C72,57.1,71.9,57,71.9,57z M43.9,56.6H32l6.1-15.9L43.9,56.6z M57.5,56.6l6-15.9l6,15.9H57.5z"/>
		</g>
	</g>
	<g>
		<path class="st1" d="M98.2,162.9h-95v-40.8h95V162.9z M4.2,161.9h93v-38.8h-93V161.9z"/>
	</g>
</g>
</svg>
