<?xml version="1.0" encoding="utf-8"?>
<!-- Generator: Adobe Illustrator 22.0.1, SVG Export Plug-In . SVG Version: 6.00 Build 0)  -->
<svg version="1.1" id="Layer_1" xmlns="http://www.w3.org/2000/svg" xmlns:xlink="http://www.w3.org/1999/xlink" x="0px" y="0px"
	 viewBox="0 0 101.5 166.2" style="enable-background:new 0 0 101.5 166.2;" xml:space="preserve">
<style type="text/css">
	.st0{fill:#FFFFFF;}
	.st1{fill:#00689D;}
	.st2{enable-background:new    ;}
</style>
<title>TARGET 1 B copy 11</title>
<g id="WHITE_BG">
	<g>
		<rect y="0" class="st0" width="101.5" height="166.2"/>
	</g>
</g>
<g id="TARGETS">
	<g>
		<g>
			<path class="st1" d="M10.5,129.3H7.8v2h2.9v0.9H6.9v-6.4h3.9v0.9H7.8v1.8h2.6V129.3z"/>
		</g>
		<g>
			<path class="st1" d="M15.3,132.2l-2.8-4.5v4.5h-0.9v-6.4h0.9l2.8,4.5v-4.5h0.9v6.4H15.3z"/>
		</g>
		<g>
			<path class="st1" d="M21.3,130.3c0,1.2-0.7,2-2.4,2c-0.6,0-1.3-0.1-1.9-0.4V131c0.6,0.3,1.2,0.4,1.8,0.4c1.1,0,1.5-0.5,1.5-1.1
				s-0.3-0.9-1.1-1c-1.6-0.2-2.2-0.6-2.2-1.8c0-0.9,0.5-1.8,2.3-1.8c0.6,0,1.2,0.1,1.8,0.3v1c-0.5-0.2-1.1-0.3-1.7-0.3
				c-1,0-1.3,0.4-1.3,1c0,0.7,0.4,0.8,1.2,0.9C20.5,128.7,21.3,129,21.3,130.3z"/>
		</g>
		<g>
			<path class="st1" d="M22,130.2v-4.4h1v4.3c-0.1,0.7,0.4,1.2,1,1.3c0.1,0,0.2,0,0.3,0c0.7,0.1,1.3-0.4,1.4-1c0-0.1,0-0.2,0-0.3
				v-4.3h1v4.4c0,1.1-0.9,2.1-2,2.1c-0.1,0-0.2,0-0.3,0c-1.1,0.2-2.2-0.6-2.4-1.7C22,130.5,22,130.3,22,130.2z"/>
		</g>
		<g>
			<path class="st1" d="M28.5,132.2h-1v-6.4h2.1c1.6,0,2.2,0.7,2.2,1.9c0.1,0.7-0.3,1.4-1,1.7l1.3,2.8H31l-1.1-2.6h-1.3V132.2z
				 M28.5,128.7h1.3c0.9,0,1-0.5,1-1s-0.1-1-1-1h-1.3V128.7z"/>
		</g>
		<g>
			<path class="st1" d="M36.2,129.3h-2.7v2h2.9v0.9h-3.9v-6.4h3.9v0.9h-2.9v1.8h2.7V129.3z"/>
		</g>
		<g>
			<path class="st1" d="M39.7,132.2h-1v-6.4h2.1c1.6,0,2.2,0.7,2.2,1.9c0.1,0.7-0.3,1.4-1,1.7l1.3,2.8h-1.2l-1.2-2.6h-1.3V132.2z
				 M39.7,128.7h1.3c0.9,0,1-0.5,1-1s-0.1-1-1-1h-1.3V128.7z"/>
		</g>
		<g>
			<path class="st1" d="M47.5,129.3h-2.7v2h2.9v0.9h-3.9v-6.4h3.9v0.9h-2.9v1.8h2.7V129.3z"/>
		</g>
		<g>
			<path class="st1" d="M52.8,130.3c0,1.2-0.7,2-2.4,2c-0.6,0-1.3-0.1-1.9-0.4V131c0.6,0.3,1.2,0.4,1.8,0.4c1.2,0,1.5-0.5,1.5-1.1
				s-0.3-0.9-1.2-1c-1.6-0.2-2.2-0.6-2.2-1.8c0-0.9,0.5-1.8,2.3-1.8c0.6,0,1.2,0.1,1.7,0.3v1c-0.5-0.2-1.1-0.3-1.7-0.3
				c-1,0-1.3,0.4-1.3,1c0,0.7,0.4,0.8,1.2,0.9C52,128.7,52.8,129,52.8,130.3z"/>
		</g>
		<g>
			<path class="st1" d="M54.6,132.2h-1v-6.4h2c1.6,0,2.2,1,2.2,2c0,1-0.6,2-2.2,2h-1V132.2z M54.6,128.9h1.1c0.6,0.1,1.2-0.4,1.2-1
				s-0.4-1.2-1-1.2c-0.1,0-0.1,0-0.2,0h-1.1V128.9z"/>
		</g>
		<g>
			<path class="st1" d="M58.2,129c0-1.8,0.4-3.3,2.5-3.3s2.5,1.5,2.5,3.3s-0.4,3.3-2.5,3.3S58.2,130.8,58.2,129z M59.2,129
				c0,1.5,0.3,2.4,1.5,2.4s1.5-0.9,1.5-2.4s-0.3-2.4-1.5-2.4S59.2,127.5,59.2,129L59.2,129z"/>
		</g>
		<g>
			<path class="st1" d="M67.6,132.2l-2.8-4.5v4.5h-0.9v-6.4h0.9l2.8,4.5v-4.5h1v6.4H67.6z"/>
		</g>
		<g>
			<path class="st1" d="M73.4,130.3c0,1.2-0.7,2-2.4,2c-0.6,0-1.3-0.1-1.9-0.4V131c0.6,0.3,1.2,0.4,1.8,0.4c1.2,0,1.5-0.5,1.5-1.1
				s-0.3-0.9-1.2-1c-1.6-0.2-2.2-0.6-2.2-1.8c0-0.9,0.5-1.8,2.3-1.8c0.6,0,1.2,0.1,1.7,0.3v1c-0.5-0.2-1.1-0.3-1.7-0.3
				c-1,0-1.3,0.4-1.3,1c0,0.7,0.4,0.8,1.2,0.9C72.7,128.7,73.4,129,73.4,130.3z"/>
		</g>
		<g>
			<path class="st1" d="M74.4,132.2v-6.4h1v6.4H74.4z"/>
		</g>
		<g>
			<path class="st1" d="M81,125.8l-2,6.4h-1l-2-6.4h1l1.5,5.2l1.5-5.2H81z"/>
		</g>
		<g>
			<path class="st1" d="M85.1,129.3h-2.7v2h2.9v0.9h-3.9v-6.4h3.9v0.9h-2.9v1.8h2.7V129.3z"/>
		</g>
		<g>
			<path class="st1" d="M87.1,131.3l-0.7,2h-0.7l0.2-2H87.1z"/>
		</g>
		<g>
			<path class="st1" d="M7,141.2v-6.4h1v6.4H7z"/>
		</g>
		<g>
			<path class="st1" d="M12.8,141.2l-2.8-4.5v4.5H9.1v-6.4h0.9l2.8,4.5v-4.5h0.9v6.4H12.8z"/>
		</g>
		<g>
			<path class="st1" d="M17.1,134.7c0.5,0,1,0.1,1.5,0.3v0.9c-0.5-0.2-0.9-0.3-1.4-0.3c-1.2,0-1.7,0.8-1.7,2.4s0.5,2.4,1.7,2.4
				c0.5,0,1-0.1,1.4-0.3v0.9c-0.5,0.2-1,0.3-1.5,0.3c-1.9,0-2.6-1.2-2.6-3.3S15.2,134.7,17.1,134.7z"/>
		</g>
		<g>
			<path class="st1" d="M20.4,140.3h2.8v0.9h-3.7v-6.4h1V140.3z"/>
		</g>
		<g>
			<path class="st1" d="M23.7,139.2v-4.4h1v4.3c-0.1,0.7,0.4,1.2,1,1.3c0.1,0,0.2,0,0.3,0c0.7,0.1,1.3-0.4,1.4-1c0-0.1,0-0.2,0-0.3
				v-4.3h1v4.4c0,1.1-0.9,2.1-2,2.1c-0.1,0-0.2,0-0.3,0c-1.1,0.1-2.2-0.6-2.3-1.8C23.7,139.4,23.7,139.3,23.7,139.2z"/>
		</g>
		<g>
			<path class="st1" d="M33.3,139.3c0,1.2-0.7,2-2.4,2c-0.6,0-1.3-0.1-1.9-0.4V140c0.6,0.3,1.2,0.4,1.8,0.4c1.1,0,1.5-0.5,1.5-1.1
				s-0.3-0.9-1.2-1c-1.5-0.2-2.1-0.6-2.1-1.8c0-0.9,0.5-1.8,2.3-1.8c0.6,0,1.2,0.1,1.7,0.3v1c-0.5-0.2-1.1-0.3-1.7-0.3
				c-1,0-1.3,0.4-1.3,1s0.4,0.8,1.2,0.9C32.5,137.7,33.3,138,33.3,139.3z"/>
		</g>
		<g>
			<path class="st1" d="M34.2,141.2v-6.4h1v6.4H34.2z"/>
		</g>
		<g>
			<path class="st1" d="M40.8,134.8l-2,6.4h-1l-2-6.4h1l1.5,5.2l1.5-5.2L40.8,134.8z"/>
		</g>
		<g>
			<path class="st1" d="M44.9,138.3h-2.7v2h2.9v0.9h-3.9v-6.4h3.9v0.9h-2.9v1.8h2.7V138.3z"/>
		</g>
		<g>
			<path class="st1" d="M50.6,139.6h-2l-0.5,1.6h-1l2-6.4h1l2,6.4h-1L50.6,139.6z M49.6,136l-0.8,2.8h1.6L49.6,136z"/>
		</g>
		<g>
			<path class="st1" d="M56.3,141.2l-2.8-4.5v4.5h-0.9v-6.4h0.9l2.8,4.5v-4.5h0.9v6.4H56.3z"/>
		</g>
		<g>
			<path class="st1" d="M58.1,141.2v-6.4H60c2.1,0,2.7,1.4,2.7,3.2s-0.6,3.2-2.7,3.2H58.1z M59.1,140.3h1c1.3,0,1.7-0.9,1.7-2.3
				s-0.4-2.3-1.7-2.3h-1V140.3z"/>
		</g>
		<g>
			<path class="st1" d="M7.8,150.2h-1v-6.4H9c1.6,0,2.2,0.7,2.2,1.9c0.1,0.7-0.3,1.4-1,1.7l1.3,2.8h-1.2l-1.1-2.6H7.8V150.2z
				 M7.8,146.7h1.3c0.9,0,1-0.5,1-1s-0.1-1-1-1H7.8V146.7z"/>
		</g>
		<g>
			<path class="st1" d="M15.7,147.3H13v2h3v0.9h-3.9v-6.4H16v0.9h-3v1.8h2.7L15.7,147.3z"/>
		</g>
		<g>
			<path class="st1" d="M17.8,150.2h-1v-6.4h2c1.6,0,2.2,0.9,2.2,2s-0.6,2-2.2,2h-1.1L17.8,150.2z M17.8,146.9h1.1
				c0.6,0.1,1.2-0.4,1.2-1s-0.4-1.2-1-1.2c-0.1,0-0.1,0-0.2,0h-1.1V146.9z"/>
		</g>
		<g>
			<path class="st1" d="M22.6,150.2h-1v-6.4h2.1c1.6,0,2.2,0.7,2.2,1.9c0.1,0.7-0.3,1.4-1,1.7l1.3,2.8h-1.1l-1.2-2.6h-1.3V150.2z
				 M22.6,146.7h1.2c0.9,0,1-0.5,1-1s-0.1-1-1-1h-1.2V146.7z"/>
		</g>
		<g>
			<path class="st1" d="M30.4,147.3h-2.6v2h2.9v0.9h-3.9v-6.4h3.9v0.9h-2.9v1.8h2.6V147.3z"/>
		</g>
		<g>
			<path class="st1" d="M35.7,148.3c0,1.2-0.7,2-2.4,2c-0.6,0-1.3-0.1-1.9-0.4V149c0.6,0.3,1.2,0.4,1.8,0.4c1.1,0,1.5-0.5,1.5-1.1
				s-0.3-0.9-1.2-1c-1.6-0.2-2.2-0.6-2.2-1.8c0-0.9,0.5-1.8,2.3-1.8c0.6,0,1.2,0.1,1.7,0.3v1c-0.5-0.2-1.1-0.3-1.7-0.3
				c-1,0-1.3,0.4-1.3,1s0.4,0.8,1.2,0.9C35,146.7,35.7,147,35.7,148.3z"/>
		</g>
		<g>
			<path class="st1" d="M40.1,147.3h-2.7v2h2.9v0.9h-3.9v-6.4h3.9v0.9h-2.9v1.8h2.7V147.3z"/>
		</g>
		<g>
			<path class="st1" d="M44.9,150.2l-2.8-4.5v4.5h-0.9v-6.4h0.9l2.8,4.5v-4.5h0.9v6.4H44.9z"/>
		</g>
		<g>
			<path class="st1" d="M49,144.7v5.5h-1v-5.5h-1.7v-0.9h4.3v0.9H49z"/>
		</g>
		<g>
			<path class="st1" d="M53.7,148.6h-2l-0.5,1.6h-1l2-6.4h1l2,6.4h-1L53.7,148.6z M52.7,145l-0.8,2.8h1.6L52.7,145z"/>
		</g>
		<g>
			<path class="st1" d="M57.2,144.7v5.5h-1v-5.5h-1.6v-0.9h4.3v0.9H57.2z"/>
		</g>
		<g>
			<path class="st1" d="M59.7,150.2v-6.4h1v6.4H59.7z"/>
		</g>
		<g>
			<path class="st1" d="M66.3,143.8l-2,6.4h-1l-2-6.4h1l1.5,5.2l1.5-5.2L66.3,143.8z"/>
		</g>
		<g>
			<path class="st1" d="M70.4,147.3h-2.7v2h2.9v0.9h-3.9v-6.4h3.9v0.9h-2.9v1.8h2.7V147.3z"/>
		</g>
		<g>
			<path class="st1" d="M6.9,159.2v-6.4h1.9c2.1,0,2.7,1.4,2.7,3.2s-0.6,3.2-2.7,3.2H6.9z M7.9,158.3h1c1.3,0,1.7-0.9,1.7-2.3
				s-0.4-2.3-1.7-2.3h-1L7.9,158.3z"/>
		</g>
		<g>
			<path class="st1" d="M15.8,156.3h-2.7v2h2.9v0.9h-3.9v-6.4h3.9v0.9h-2.9v1.8h2.7L15.8,156.3z"/>
		</g>
		<g>
			<path class="st1" d="M19.4,152.7c0.5,0,1,0.1,1.5,0.3v0.9c-0.4-0.2-0.9-0.3-1.4-0.3c-1.2,0-1.7,0.8-1.7,2.4s0.5,2.4,1.7,2.4
				c0.5,0,1-0.1,1.4-0.3v0.9c-0.5,0.2-1,0.3-1.5,0.3c-1.9,0-2.6-1.2-2.6-3.3S17.5,152.7,19.4,152.7z"/>
		</g>
		<g>
			<path class="st1" d="M21.9,159.2v-6.4h1v6.4H21.9z"/>
		</g>
		<g>
			<path class="st1" d="M28,157.3c0,1.2-0.7,2-2.4,2c-0.6,0-1.3-0.1-1.9-0.4V158c0.6,0.3,1.2,0.4,1.8,0.4c1.1,0,1.5-0.5,1.5-1.1
				s-0.3-0.9-1.2-1c-1.5-0.2-2.2-0.6-2.2-1.8c0-0.9,0.5-1.8,2.3-1.8c0.6,0,1.2,0.1,1.7,0.3v1c-0.5-0.2-1.1-0.3-1.7-0.3
				c-1,0-1.3,0.4-1.3,1s0.4,0.8,1.2,0.9C27.2,155.7,28,156,28,157.3z"/>
		</g>
		<g>
			<path class="st1" d="M28.9,159.2v-6.4h1v6.4H28.9z"/>
		</g>
		<g>
			<path class="st1" d="M30.8,156c0-1.8,0.4-3.3,2.5-3.3s2.5,1.5,2.5,3.3s-0.4,3.3-2.5,3.3S30.8,157.8,30.8,156z M31.8,156
				c0,1.5,0.3,2.4,1.5,2.4s1.5-0.9,1.5-2.4s-0.3-2.4-1.5-2.4S31.7,154.5,31.8,156L31.8,156z"/>
		</g>
		<g>
			<path class="st1" d="M40.1,159.2l-2.8-4.5v4.5h-0.9v-6.4h0.9l2.8,4.5v-4.5h1v6.4H40.1z"/>
		</g>
		<g>
			<path class="st1" d="M43.7,156.4h-2.2v-0.9h2.2V156.4z"/>
		</g>
		<g>
			<path class="st1" d="M47.7,158.3h-0.9l-1.6-3.9v4.8h-1v-6.4h1.2l1.7,4.3l1.7-4.3h1.2v6.4h-1v-4.8L47.7,158.3z"/>
		</g>
		<g>
			<path class="st1" d="M54.2,157.6h-2l-0.5,1.6h-1l2-6.4h1l2,6.4h-1L54.2,157.6z M53.2,154l-0.8,2.8H54L53.2,154z"/>
		</g>
		<g>
			<path class="st1" d="M57.7,156.4l-0.5,0.6v2.2h-1v-6.4h1v3l2.3-3h1.2l-2.3,2.8l2.6,3.6h-1.2L57.7,156.4z"/>
		</g>
		<g>
			<path class="st1" d="M61.4,159.2v-6.4h1v6.4H61.4z"/>
		</g>
		<g>
			<path class="st1" d="M67.1,159.2l-2.8-4.5v4.5h-0.9v-6.4h0.9l2.8,4.5v-4.5H68v6.4H67.1z"/>
		</g>
		<g>
			<path class="st1" d="M68.7,156c0-2,0.7-3.3,2.6-3.3c0.6,0,1.3,0.1,1.8,0.3v1c-0.5-0.2-1.1-0.4-1.7-0.4c-1.3,0-1.8,0.9-1.8,2.4
				s0.5,2.4,1.8,2.4c0.3,0,0.6,0,0.9-0.1v-1.7h-1.1v-0.9h2.1v3.2c-0.6,0.3-1.3,0.4-2,0.4C69.4,159.3,68.7,158,68.7,156z"/>
		</g>
	</g>
	<g>
		<rect x="3.3" y="24" class="st1" width="94.8" height="94.8"/>
	</g>
	<g>
		<path class="st1" d="M98.2,20.7H3.3V3.3h94.8V20.7z M4.3,19.7h92.8V4.3H4.3L4.3,19.7z"/>
	</g>
	<g class="st2">
		<path class="st1" d="M6.7,6.9h4.5v1.4H9.9v8.8H8.1V8.3H6.7V6.9z"/>
	</g>
	<g class="st2">
		<path class="st1" d="M11.2,17.1l1.9-10.2h1.9L17,17.1h-1.8l-0.3-1.9h-1.8l-0.3,1.9H11.2z M13.3,13.9h1.4L14,9.8h0L13.3,13.9z"/>
	</g>
	<g class="st2">
		<path class="st1" d="M19.6,12.4v4.7h-1.7V6.9h2.5c1.7,0,2.4,0.9,2.4,2.3v1.3c0,1.1-0.4,1.7-1.4,2l1.6,4.6h-1.8L19.6,12.4z
			 M19.6,8.3v3.2h0.6c0.6,0,0.8-0.3,0.8-0.8V9.2c0-0.6-0.3-0.8-0.8-0.8H19.6z"/>
	</g>
	<g class="st2">
		<path class="st1" d="M26.4,11.7h2.4v5.4h-1.2V16c-0.2,0.8-0.7,1.2-1.6,1.2c-1.5,0-2.1-1.2-2.1-2.7V9.6c0-1.6,0.8-2.7,2.6-2.7
			c1.9,0,2.4,1.1,2.4,2.6v0.9h-1.6v-1c0-0.6-0.2-1-0.9-1c-0.6,0-0.9,0.4-0.9,1v5.5c0,0.6,0.3,1,0.8,1c0.6,0,0.8-0.3,0.8-1V13h-0.8
			V11.7z"/>
	</g>
	<g class="st2">
		<path class="st1" d="M30.2,6.9h4.1v1.4h-2.4v2.9h1.7v1.4h-1.7v3.1h2.4v1.4h-4.1V6.9z"/>
	</g>
	<g class="st2">
		<path class="st1" d="M35.1,6.9h4.5v1.4h-1.4v8.8h-1.7V8.3h-1.4V6.9z"/>
	</g>
	<g class="st2">
		<path class="st1" d="M78.3,6.9v10.2h-1.7V9.3h0l-1.2,1.2h0V8.8l1.6-1.8H78.3z"/>
		<path class="st1" d="M79.7,14.5v-5c0-1.6,0.7-2.7,2.5-2.7c1.9,0,2.4,1.1,2.4,2.6v0.5H83V9.2c0-0.6-0.2-1-0.8-1
			c-0.6,0-0.8,0.4-0.8,1v2.2h0c0.3-0.5,0.7-0.8,1.4-0.8c1.2,0,1.9,0.8,1.9,2.5v1.5c0,1.6-0.7,2.6-2.5,2.6
			C80.4,17.2,79.7,16.1,79.7,14.5z M83,14.8V13c0-0.7-0.2-1-0.8-1c-0.5,0-0.8,0.4-0.8,0.9v1.9c0,0.6,0.2,1,0.8,1
			C82.8,15.8,83,15.5,83,14.8z"/>
	</g>
	<g class="st2">
	</g>
	<g class="st2">
		<path class="st1" d="M87.5,10.8c0.7,0,1.2,0.6,1.2,1.2c0,0.7-0.6,1.2-1.2,1.2c-0.7,0-1.2-0.6-1.2-1.2
			C86.2,11.4,86.8,10.8,87.5,10.8z"/>
	</g>
	<g class="st2">
		<path class="st1" d="M90.1,6.9h4.3v1.6l-2.2,8.6h-1.7l2.3-8.8h-2.6V6.9z"/>
	</g>
	<g>
		<g>
			<path class="st0" d="M85.8,62.2c1.6,0,2.9-1.3,2.9-2.8s-1.3-2.9-2.8-2.9c-1.6,0-2.9,1.3-2.9,2.8c0,0,0,0,0,0
				C83,60.9,84.3,62.2,85.8,62.2z"/>
		</g>
		<g>
			<path class="st0" d="M89.2,63.5H89h-6.3h-0.2c-2,0.2-3.5,1.8-3.5,3.8v8c-0.1,0.6,0.4,1.2,1,1.2s1.2-0.4,1.2-1c0-0.1,0-0.1,0-0.2
				v-6.9c0-0.2,0.1-0.6,0.5-0.6s0.4,0.3,0.4,0.6V89c0,0.9,0.7,1.6,1.6,1.6s1.6-0.7,1.6-1.6c0,0,0,0,0,0V77.1c0-0.2,0.2-0.5,0.4-0.5
				c0,0,0,0,0.1,0l0,0c0.2,0,0.4,0.2,0.5,0.4c0,0,0,0,0,0.1V89c-0.1,0.9,0.6,1.7,1.5,1.7c0.9,0.1,1.7-0.6,1.7-1.5c0-0.1,0-0.2,0-0.3
				V68.4c0-0.2,0.1-0.6,0.4-0.6c0.5,0,0.6,0.3,0.6,0.6v6.8c-0.1,0.6,0.4,1.2,1,1.2s1.2-0.4,1.2-1c0-0.1,0-0.1,0-0.2v-8
				C92.7,65.3,91.2,63.7,89.2,63.5z"/>
		</g>
		<g>
			<path class="st0" d="M69.4,63.5c1.5,0,2.7-1.2,2.7-2.7c0-1.5-1.2-2.7-2.7-2.7s-2.7,1.2-2.7,2.7c0,0,0,0,0,0
				C66.6,62.3,67.9,63.5,69.4,63.5C69.4,63.5,69.4,63.5,69.4,63.5z"/>
		</g>
		<g>
			<path class="st0" d="M74.9,67.2c0,0-0.8-2.1-2.6-2.1h-5.8c-1.8,0-2.6,2.1-2.6,2.1l-2.3,7.4c0,0-0.4,1.3,0.8,1.7s1.5-1,1.5-1
				l1.8-6.2c0,0,0.1-0.5,0.5-0.4s0.2,0.6,0.2,0.6l-3.2,11.5h3v8.3c-0.1,0.8,0.5,1.5,1.3,1.5c0.8,0.1,1.5-0.5,1.5-1.3
				c0-0.1,0-0.2,0-0.2v-8.3h0.8v8.3c0,0.8,0.6,1.4,1.4,1.4s1.4-0.6,1.4-1.4c0,0,0,0,0,0v-8.3h3l-3.3-11.5c0,0-0.1-0.5,0.2-0.6
				s0.5,0.4,0.5,0.4l1.8,6.2c0,0,0.3,1.3,1.5,1s0.7-1.7,0.7-1.7L74.9,67.2z"/>
		</g>
		<g>
			<path class="st0" d="M17.4,63.7c1.5,0,2.8-1.2,2.8-2.8s-1.2-2.8-2.8-2.8s-2.8,1.2-2.8,2.8l0,0C14.6,62.5,15.8,63.7,17.4,63.7z"/>
		</g>
		<g>
			<path class="st0" d="M20.6,64.7h-0.2h-6h-0.2c-1.9,0.2-3.3,1.8-3.3,3.7V76c0,0.3,0.2,0.6,0.4,0.8L8.8,89.7c0,0.2,0.1,0.4,0.3,0.5
				c0,0,0,0,0,0h0.1c0.2,0,0.4-0.1,0.4-0.3L12,77c0.6,0,1-0.5,1-1.1v-6.5c0-0.2,0.1-0.6,0.5-0.6s0.4,0.3,0.4,0.5V89
				c0,0.8,0.7,1.5,1.5,1.5S17,89.8,17,89l0,0V77.7c0-0.2,0.2-0.4,0.4-0.4c0,0,0,0,0.1,0l0,0c0.2,0,0.4,0.2,0.4,0.4c0,0,0,0,0,0.1V89
				c0.1,0.8,0.8,1.5,1.7,1.4c0.8-0.1,1.4-0.7,1.4-1.4V69.4c0-0.2,0.1-0.5,0.4-0.5s0.5,0.3,0.5,0.6V76c-0.1,0.6,0.4,1.1,1,1.2
				c0.6,0.1,1.1-0.4,1.2-1c0-0.1,0-0.1,0-0.2v-7.6C23.9,66.5,22.5,64.9,20.6,64.7z"/>
		</g>
		<g>
			<path class="st0" d="M35,75.3c-0.4-0.2-0.9-0.1-1.1,0.4c0,0,0,0,0,0c-0.4,0.7-0.9,1.4-1.4,2.1c-0.2,0.2-0.4,0.3-0.7,0.3h-2.6
				c-0.3,0-0.5-0.1-0.7-0.3c-0.3-0.3-1.4-2.2-1.4-2.2c-0.1-0.2-0.4-0.4-0.7-0.4c-0.4,0-0.8,0.4-0.8,0.8l0,0c0,0.1,0,0.2,0.1,0.3
				l2.2,4c0.1,0.2,0.1,0.3,0.1,0.5v0.6l0,0c0,0.2,0,0.5-0.1,0.7l-1.1,4.2H28v3.1l0,0c-0.1,0.6,0.4,1.1,1,1.2s1.1-0.4,1.2-1
				c0-0.1,0-0.1,0-0.2v-3c0,0,0-0.1,0-0.1h0.6c0,0,0,0.1,0,0.1v3c-0.1,0.6,0.4,1.1,1,1.2s1.1-0.4,1.2-1c0-0.1,0-0.1,0-0.2v-3.1h1.2
				l-1.1-4.2C33,82,33,81.8,33,81.6v-0.2l0,0v-0.6c0-0.2,0.1-0.4,0.1-0.5l2-3.7l0.2-0.4C35.5,75.9,35.4,75.5,35,75.3
				C35,75.3,35,75.3,35,75.3z"/>
		</g>
		<g>
			<path class="st0" d="M30.5,76.7c1.2,0,2.2-1,2.2-2.2c0-1.2-1-2.2-2.2-2.2s-2.2,1-2.2,2.2c0,0,0,0,0,0
				C28.3,75.7,29.3,76.7,30.5,76.7z"/>
		</g>
		<g>
			<g>
				<path class="st0" d="M48.9,59c1.8,0,3.3-1.5,3.3-3.3s-1.5-3.3-3.3-3.3s-3.3,1.5-3.3,3.3c0,0,0,0,0,0C45.5,57.5,47,59,48.9,59
					C48.9,59,48.9,59,48.9,59z"/>
			</g>
			<g>
				<path class="st0" d="M52.8,60.3h-0.3h-7.3H45c-2,0.2-3.7,1.7-4,3.8h15.8C56.4,62,54.8,60.5,52.8,60.3z"/>
			</g>
		</g>
		<g>
			<path class="st0" d="M57.3,65.6H37.9v2h1.6v22.9h19V67.6H60v-2L57.3,65.6z M54.9,71.1H43.2v-2.1h11.6V71.1z"/>
		</g>
	</g>
	<g>
		<path class="st1" d="M98.2,162.9h-95v-40.8h95V162.9z M4.2,161.9h93v-38.8h-93V161.9z"/>
	</g>
</g>
</svg>
