<?xml version="1.0" encoding="utf-8"?>
<!-- Generator: Adobe Illustrator 22.0.1, SVG Export Plug-In . SVG Version: 6.00 Build 0)  -->
<svg version="1.1" id="Layer_1" xmlns="http://www.w3.org/2000/svg" xmlns:xlink="http://www.w3.org/1999/xlink" x="0px" y="0px"
	 viewBox="0 0 101.5 148.2" style="enable-background:new 0 0 101.5 148.2;" xml:space="preserve">
<style type="text/css">
	.st0{fill:#FFFFFF;}
	.st1{fill:#00689D;}
	.st2{enable-background:new    ;}
</style>
<title>TARGET 1.1</title>
<g id="WHITE_BG">
	<g>
		<rect y="0" class="st0" width="101.5" height="148.2"/>
	</g>
</g>
<g id="TARGETS">
	<g>
		<g>
			<path class="st1" d="M7.8,132.2h-1v-6.4H9c1.6,0,2.2,0.7,2.2,1.9c0.1,0.7-0.3,1.4-1,1.7l1.3,2.8h-1.2l-1.1-2.6H7.8V132.2z
				 M7.8,128.7h1.3c0.9,0,1-0.5,1-1s-0.1-1-1-1H7.8V128.7z"/>
		</g>
		<g>
			<path class="st1" d="M15.7,129.3H13v2h3v0.9h-3.9v-6.4H16v0.9h-3v1.8h2.7L15.7,129.3z"/>
		</g>
		<g>
			<path class="st1" d="M16.8,132.2v-6.4h1.9c2.1,0,2.7,1.4,2.7,3.2s-0.6,3.2-2.7,3.2H16.8z M17.8,131.3h1c1.3,0,1.7-0.9,1.7-2.3
				s-0.4-2.3-1.7-2.3h-1V131.3z"/>
		</g>
		<g>
			<path class="st1" d="M22.1,130.2v-4.4H23v4.3c-0.1,0.6,0.4,1.2,1,1.3c0.1,0,0.2,0,0.3,0c0.6,0.1,1.2-0.3,1.4-1c0-0.1,0-0.2,0-0.3
				v-4.3h1v4.4c0.1,1.1-0.8,2.1-1.9,2.1c-0.2,0-0.3,0-0.4,0c-1.1,0.2-2.2-0.6-2.3-1.7C22.1,130.4,22.1,130.3,22.1,130.2z"/>
		</g>
		<g>
			<path class="st1" d="M30,125.7c0.5,0,1,0.1,1.5,0.3v0.9c-0.5-0.2-0.9-0.3-1.4-0.3c-1.2,0-1.7,0.8-1.7,2.4c0,1.6,0.5,2.4,1.7,2.4
				c0.5,0,1-0.1,1.4-0.3v0.9c-0.5,0.2-1,0.3-1.5,0.3c-1.9,0-2.6-1.2-2.6-3.3S28.1,125.7,30,125.7z"/>
		</g>
		<g>
			<path class="st1" d="M36,129.3h-2.7v2h2.9v0.9h-3.9v-6.4h3.9v0.9h-2.9v1.8H36V129.3z"/>
		</g>
		<g>
			<path class="st1" d="M43,125.8l-2,6.5h-1l-2-6.5h1l1.5,5.2l1.5-5.2H43z"/>
		</g>
		<g>
			<path class="st1" d="M43.7,132.2v-6.4h1v6.4H43.7z"/>
		</g>
		<g>
			<path class="st1" d="M45.6,129c0-1.8,0.4-3.3,2.5-3.3s2.5,1.5,2.5,3.3s-0.4,3.3-2.5,3.3S45.6,130.8,45.6,129z M46.6,129
				c0,1.5,0.3,2.4,1.5,2.4s1.5-0.9,1.5-2.4s-0.3-2.4-1.5-2.4S46.5,127.5,46.6,129L46.6,129z"/>
		</g>
		<g>
			<path class="st1" d="M52.2,131.3h2.8v0.9h-3.7v-6.4h1L52.2,131.3z"/>
		</g>
		<g>
			<path class="st1" d="M59.1,129.3h-2.7v2h2.9v0.9h-3.9v-6.4h3.9v0.9h-2.9v1.8h2.7V129.3z"/>
		</g>
		<g>
			<path class="st1" d="M63.9,132.2l-2.8-4.5v4.5h-0.9v-6.4H61l2.8,4.5v-4.5h0.9v6.4H63.9z"/>
		</g>
		<g>
			<path class="st1" d="M68.2,125.7c0.5,0,1,0.1,1.5,0.3v0.9c-0.5-0.2-0.9-0.3-1.4-0.3c-1.2,0-1.7,0.8-1.7,2.4
				c0,1.6,0.5,2.4,1.7,2.4c0.5,0,1-0.1,1.4-0.3v0.9c-0.5,0.2-1,0.3-1.5,0.3c-1.9,0-2.6-1.2-2.6-3.3S66.3,125.7,68.2,125.7z"/>
		</g>
		<g>
			<path class="st1" d="M74.2,129.3h-2.7v2h2.9v0.9h-3.9v-6.4h3.9v0.9h-2.9v1.8h2.7V129.3z"/>
		</g>
		<g>
			<path class="st1" d="M10.5,138.3H7.8v2h2.9v0.9H6.9v-6.4h3.9v0.9H7.8v1.8h2.6V138.3z"/>
		</g>
		<g>
			<path class="st1" d="M16.2,134.8l-2,6.5h-1l-2-6.5h1l1.5,5.2l1.5-5.2L16.2,134.8z"/>
		</g>
		<g>
			<path class="st1" d="M20.3,138.3h-2.6v2h2.9v0.9h-3.9v-6.4h3.9v0.9h-2.9v1.8h2.6V138.3z"/>
		</g>
		<g>
			<path class="st1" d="M22.4,141.2h-1v-6.4h2.1c1.6,0,2.2,0.7,2.2,1.9c0.1,0.7-0.3,1.4-1,1.7l1.3,2.8h-1.1l-1.2-2.6h-1.3V141.2z
				 M22.4,137.7h1.3c0.9,0,1-0.5,1-1s-0.1-1-1-1h-1.3V137.7z"/>
		</g>
		<g>
			<path class="st1" d="M29,138.6v2.6h-1v-2.6l-2.2-3.8h1.1l1.6,3l1.6-3h1.1L29,138.6z"/>
		</g>
		<g>
			<path class="st1" d="M34.3,134.8h1.2l1.1,5l0.8-5h1l-1.2,6.5H36l-1.1-5.3l-1.2,5.3h-1.2l-1.2-6.5h1l0.8,5L34.3,134.8z"/>
		</g>
		<g>
			<path class="st1" d="M42.5,141.2v-2.9h-2.6v2.9h-1v-6.4h1v2.6h2.6v-2.6h1v6.4H42.5z"/>
		</g>
		<g>
			<path class="st1" d="M48,138.3h-2.7v2h2.9v0.9h-3.9v-6.4h3.9v0.9h-2.9v1.8H48V138.3z"/>
		</g>
		<g>
			<path class="st1" d="M50,141.2h-1v-6.4h2.1c1.7,0,2.2,0.7,2.2,1.9c0.1,0.7-0.3,1.4-1,1.7l1.3,2.8h-1.1l-1.2-2.6H50V141.2z
				 M50,137.7h1.2c0.9,0,1-0.5,1-1s-0.1-1-1-1H50V137.7z"/>
		</g>
		<g>
			<path class="st1" d="M57.9,138.3h-2.6v2h2.9v0.9h-3.9v-6.4h3.9v0.9h-2.9v1.8h2.7L57.9,138.3z"/>
		</g>
	</g>
	<g>
		<rect x="3.3" y="24" class="st1" width="94.8" height="94.8"/>
	</g>
	<g>
		<path class="st1" d="M98.2,20.7H3.3V3.3h94.8V20.7z M4.3,19.7h92.8V4.3H4.3L4.3,19.7z"/>
	</g>
	<g class="st2">
		<path class="st1" d="M6.7,6.9h4.5v1.4H9.9v8.8H8.1V8.3H6.7V6.9z"/>
	</g>
	<g class="st2">
		<path class="st1" d="M11.2,17.1l1.9-10.2h1.9L17,17.1h-1.8l-0.3-1.9h-1.8l-0.3,1.9H11.2z M13.3,13.9h1.4L14,9.8h0L13.3,13.9z"/>
	</g>
	<g class="st2">
		<path class="st1" d="M19.6,12.4v4.7h-1.7V6.9h2.5c1.7,0,2.4,0.9,2.4,2.3v1.3c0,1.1-0.4,1.7-1.4,2l1.6,4.6h-1.8L19.6,12.4z
			 M19.6,8.3v3.2h0.6c0.6,0,0.8-0.3,0.8-0.8V9.2c0-0.6-0.3-0.8-0.8-0.8H19.6z"/>
	</g>
	<g class="st2">
		<path class="st1" d="M26.4,11.7h2.4v5.4h-1.2V16c-0.2,0.8-0.7,1.2-1.6,1.2c-1.5,0-2.1-1.2-2.1-2.7V9.6c0-1.6,0.8-2.7,2.6-2.7
			c1.9,0,2.4,1.1,2.4,2.6v0.9h-1.6v-1c0-0.6-0.2-1-0.9-1c-0.6,0-0.9,0.4-0.9,1v5.5c0,0.6,0.3,1,0.8,1c0.6,0,0.8-0.3,0.8-1V13h-0.8
			V11.7z"/>
	</g>
	<g class="st2">
		<path class="st1" d="M30.2,6.9h4.1v1.4h-2.4v2.9h1.7v1.4h-1.7v3.1h2.4v1.4h-4.1V6.9z"/>
	</g>
	<g class="st2">
		<path class="st1" d="M35.1,6.9h4.5v1.4h-1.4v8.8h-1.7V8.3h-1.4V6.9z"/>
	</g>
	<g class="st2">
		<path class="st1" d="M79.4,6.9v10.2h-1.7V9.3h0l-1.2,1.2h0V8.8L78,6.9H79.4z"/>
		<path class="st1" d="M80.8,14.5v-5c0-1.6,0.7-2.7,2.5-2.7c1.9,0,2.4,1.1,2.4,2.6v0.5h-1.6V9.2c0-0.6-0.2-1-0.8-1
			c-0.6,0-0.8,0.4-0.8,1v2.2h0c0.3-0.5,0.7-0.8,1.4-0.8c1.2,0,1.9,0.8,1.9,2.5v1.5c0,1.6-0.7,2.6-2.5,2.6
			C81.5,17.2,80.8,16.1,80.8,14.5z M84.1,14.8V13c0-0.7-0.2-1-0.8-1c-0.5,0-0.8,0.4-0.8,0.9v1.9c0,0.6,0.2,1,0.8,1
			C83.9,15.8,84.1,15.5,84.1,14.8z"/>
	</g>
	<g class="st2">
	</g>
	<g class="st2">
		<path class="st1" d="M88.6,10.8c0.7,0,1.2,0.6,1.2,1.2c0,0.7-0.6,1.2-1.2,1.2c-0.7,0-1.2-0.6-1.2-1.2
			C87.3,11.4,87.9,10.8,88.6,10.8z"/>
	</g>
	<g class="st2">
		<path class="st1" d="M94.1,6.9v10.2h-1.7V9.3h0l-1.2,1.2h0V8.8l1.6-1.8H94.1z"/>
	</g>
	<g>
		<path class="st1" d="M98.2,144.9h-95v-22.8h95V144.9z M4.2,143.9h93v-20.8h-93V143.9z"/>
	</g>
	<g>
		<g>
			<path class="st0" d="M88.2,68.3c-0.4-9.8-2.9-12.2-2.9-12.2c-0.4-0.4-0.9-0.7-1.5-0.7l-47.4-0.8c0.2,0.7,0.1,1.5-0.1,2.2
				l-3.7,9.6c-0.1,0.2-0.2,0.5-0.4,0.7l11.3,0.3c0.3,0.1,0.7,1.4,0.7,1.4c0.8,3.5,3.6,7.6,8.2,8.4c0.9,0.2,1.8,0.2,2.7,0.2
				c2,0,4-0.3,6-0.8c0.1,0,0.3-0.1,0.4-0.1c0.2,0,0.4,0.1,0.5,0.3c3.4,3.6,3.9,20.8,3.9,20.8c0,1,0.5,1.2,0.7,1.2h0.1L84,98.5
				c1.1-0.1,0.7-1.3,0.7-1.3s-3.8-16.9-4.8-20.2s0.6-4.7,0.6-4.7c2.3-2,7-3,7-3C88.3,69.2,88.2,68.3,88.2,68.3z M62.3,71.6
				c0,0,0.1,4.2-6.5,4.2c-0.5,0-1.1,0-1.6-0.1c-8.2-0.7-8.4-7.1-8.4-8c0-0.3,0-3.2,4.3-3.2c0.8,0,1.6,0.1,2.4,0.2c0,0,2,1.3,1.7,5.6
				c0,0-0.5,2.7-1.5,3.7c0,0-0.1,0.3,0.1,0.3c0.1,0,0.3-0.1,0.4-0.1c1.7-0.7,3.1-2.1,3.8-3.8c0.7-1.6,0.8-3.5,0.2-5.1l0.9,0.2
				C58.1,65.5,62.8,67,62.3,71.6z"/>
		</g>
		<g>
			<path class="st0" d="M34.2,54.6l-2.8-4.8c-0.1-0.1-0.2-0.2-0.3-0.2l-3.6-1.8l-0.9-0.3l-0.6,5.8v0.1c0,0.2-0.1,0.5-0.1,0.9v0.1
				l0,0c-0.3,2.5-0.7,4.9-1.3,7.3c0,0.2-0.1,0.4-0.2,0.6c-0.1,0.2-0.2,0.5-0.3,0.7v0.1c0,0,0,0.1-0.1,0.1c-0.1,0.2-0.2,0.4-0.3,0.5
				l-0.1,0.1c-0.5,0.7-1.3,1.3-2.2,1.5l1.1,1.3c0.1,0.1,0.3,0.3,0.5,0.3l2.1,0.7c0.2,0.1,0.4,0.1,0.6,0l3.6-0.8c0.5-0.1,1-0.5,1.2-1
				l3.7-9.5C34.6,55.6,34.5,55,34.2,54.6z"/>
		</g>
		<g>
			<path class="st0" d="M22.4,62c0.6-1.3,1.2-5.2,1.5-7.9l-9-0.3l-0.1,0.1l0.9,4.4l4.2,4.8C21,63.3,21.9,62.8,22.4,62z"/>
		</g>
		<g>
			<polygon class="st0" points="24.2,52.1 24.8,47.2 23,44.2 13.3,45.5 16,51.8 			"/>
		</g>
	</g>
</g>
</svg>
