<?xml version="1.0" encoding="utf-8"?>
<!-- Generator: Adobe Illustrator 22.0.1, SVG Export Plug-In . SVG Version: 6.00 Build 0)  -->
<svg version="1.1" id="Layer_1" xmlns="http://www.w3.org/2000/svg" xmlns:xlink="http://www.w3.org/1999/xlink" x="0px" y="0px"
	 viewBox="0 0 101.5 148.1" style="enable-background:new 0 0 101.5 148.1;" xml:space="preserve">
<style type="text/css">
	.st0{fill:#FFFFFF;}
	.st1{fill:#00689D;}
	.st2{enable-background:new    ;}
</style>
<title>TARGET 1 B copy 13</title>
<g id="WHITE_BG">
	<g>
		<rect y="0" class="st0" width="101.5" height="148.1"/>
	</g>
</g>
<g id="TARGETS">
	<g>
		<g>
			<path class="st1" d="M7.8,132.2h-1v-6.4h2.1c1.6,0,2.2,1,2.2,2c0,1-0.6,2-2.2,2H7.8V132.2z M7.8,128.9H9c0.6,0.1,1.2-0.4,1.2-1
				c0.1-0.6-0.4-1.2-1-1.2c-0.1,0-0.1,0-0.2,0H7.8V128.9z"/>
		</g>
		<g>
			<path class="st1" d="M12.7,132.2h-1v-6.4h2.1c1.6,0,2.2,0.7,2.2,1.9c0.1,0.7-0.3,1.4-1,1.7l1.3,2.8h-1.1l-1.2-2.6h-1.3V132.2z
				 M12.7,128.7h1.2c0.9,0,1-0.5,1-1s-0.1-1-1-1h-1.2V128.7z"/>
		</g>
		<g>
			<path class="st1" d="M16.7,129c0-1.8,0.4-3.3,2.5-3.3s2.5,1.5,2.5,3.3s-0.4,3.3-2.5,3.3S16.7,130.8,16.7,129z M17.7,129
				c0,1.5,0.3,2.4,1.5,2.4s1.5-0.9,1.5-2.4s-0.3-2.4-1.5-2.4S17.7,127.5,17.7,129L17.7,129z"/>
		</g>
		<g>
			<path class="st1" d="M26.9,125.8l-2,6.4h-1l-2-6.4h1l1.5,5.2l1.5-5.2L26.9,125.8z"/>
		</g>
		<g>
			<path class="st1" d="M27.6,132.2v-6.4h1v6.4H27.6z"/>
		</g>
		<g>
			<path class="st1" d="M29.6,132.2v-6.4h1.9c2.1,0,2.7,1.4,2.7,3.2s-0.6,3.2-2.7,3.2L29.6,132.2z M30.6,131.3h1
				c1.3,0,1.7-0.9,1.7-2.3s-0.4-2.3-1.7-2.3h-1V131.3z"/>
		</g>
		<g>
			<path class="st1" d="M38.5,129.3h-2.7v2h2.9v0.9h-3.9v-6.4h3.9v0.9h-2.9v1.8h2.7V129.3z"/>
		</g>
		<g>
			<path class="st1" d="M41,130.2v-4.4h1v4.3c0,0.8,0.6,1.4,1.4,1.4s1.4-0.6,1.4-1.4v-4.3h1v4.4c0.1,1.1-0.8,2.1-1.9,2.1
				c-0.1,0-0.3,0-0.4,0c-1.1,0.2-2.1-0.5-2.3-1.6C41,130.5,41,130.4,41,130.2z"/>
		</g>
		<g>
			<path class="st1" d="M50.2,132.2l-2.8-4.5v4.5h-1v-6.4h0.9l2.8,4.5v-4.5h1v6.4H50.2z"/>
		</g>
		<g>
			<path class="st1" d="M52.1,132.2v-6.4h1v6.4H52.1z"/>
		</g>
		<g>
			<path class="st1" d="M58.8,125.8l-2,6.4h-1l-2-6.4h1l1.5,5.2l1.5-5.2L58.8,125.8z"/>
		</g>
		<g>
			<path class="st1" d="M62.9,129.3h-2.6v2h2.9v0.9h-3.9v-6.4h3.9v0.9h-2.9v1.8h2.7L62.9,129.3z"/>
		</g>
		<g>
			<path class="st1" d="M64.9,132.2H64v-6.4h2.1c1.7,0,2.2,0.7,2.2,1.9c0.1,0.7-0.3,1.4-1,1.7l1.3,2.8h-1.2l-1.2-2.6h-1.3V132.2z
				 M64.9,128.7h1.3c0.9,0,1-0.5,1-1s-0.1-1-1-1h-1.3V128.7z"/>
		</g>
		<g>
			<path class="st1" d="M73.2,130.3c0,1.2-0.7,2-2.4,2c-0.6,0-1.3-0.1-1.9-0.4V131c0.6,0.3,1.2,0.4,1.8,0.4c1.2,0,1.5-0.5,1.5-1.1
				s-0.3-0.9-1.2-1c-1.6-0.2-2.2-0.6-2.2-1.8c0-0.9,0.5-1.8,2.3-1.8c0.6,0,1.2,0.1,1.7,0.3v1c-0.5-0.2-1.1-0.3-1.7-0.3
				c-1,0-1.3,0.4-1.3,1c0,0.6,0.4,0.8,1.2,0.9C72.4,128.7,73.2,129,73.2,130.3z"/>
		</g>
		<g>
			<path class="st1" d="M77,130.6h-2l-0.4,1.6h-1l2-6.4h1l2,6.4h-1L77,130.6z M76,127l-0.8,2.8h1.6L76,127z"/>
		</g>
		<g>
			<path class="st1" d="M79.9,131.3h2.8v0.9H79v-6.4h1L79.9,131.3z"/>
		</g>
		<g>
			<path class="st1" d="M7.8,140.3h2.8v0.9H6.9v-6.4h1L7.8,140.3z"/>
		</g>
		<g>
			<path class="st1" d="M14.7,138.3h-2.6v2H15v0.9h-3.9v-6.4H15v0.9h-2.9v1.8h2.6V138.3z"/>
		</g>
		<g>
			<path class="st1" d="M15.6,138c0-2,0.7-3.3,2.6-3.3c0.6,0,1.3,0.1,1.8,0.3v1c-0.5-0.2-1.1-0.4-1.7-0.4c-1.3,0-1.8,0.9-1.8,2.4
				s0.5,2.4,1.8,2.4c0.3,0,0.6,0,0.9-0.1v-1.7h-1.1v-0.9h2.1v3.2c-0.6,0.3-1.3,0.4-2,0.4C16.3,141.3,15.6,140,15.6,138z"/>
		</g>
		<g>
			<path class="st1" d="M24.2,139.6h-2l-0.5,1.6h-1l2-6.4h1l2,6.4h-1L24.2,139.6z M23.2,136l-0.8,2.8H24L23.2,136z"/>
		</g>
		<g>
			<path class="st1" d="M27.1,140.3h2.8v0.9h-3.7v-6.4h1L27.1,140.3z"/>
		</g>
		<g>
			<path class="st1" d="M32,141.2v-6.4h1v6.4H32z"/>
		</g>
		<g>
			<path class="st1" d="M33.9,141.2v-6.4h1.9c2.1,0,2.7,1.4,2.7,3.2s-0.6,3.2-2.7,3.2H33.9z M34.9,140.3h1c1.3,0,1.7-0.9,1.7-2.3
				s-0.4-2.3-1.7-2.3h-1V140.3z"/>
		</g>
		<g>
			<path class="st1" d="M42.8,138.3h-2.7v2h2.9v0.9h-3.9v-6.4h3.9v0.9h-2.9v1.8h2.7V138.3z"/>
		</g>
		<g>
			<path class="st1" d="M47.5,141.2l-2.8-4.5v4.5h-0.9v-6.4h0.9l2.8,4.5v-4.5h1v6.4H47.5z"/>
		</g>
		<g>
			<path class="st1" d="M51.5,135.7v5.5h-1v-5.5h-1.7v-0.9h4.3v0.9H51.5z"/>
		</g>
		<g>
			<path class="st1" d="M53.8,141.2v-6.4h1v6.4H53.8z"/>
		</g>
		<g>
			<path class="st1" d="M58,135.7v5.5h-1v-5.5h-1.6v-0.9h4.3v0.9H58z"/>
		</g>
		<g>
			<path class="st1" d="M63,138.6v2.6h-1v-2.6l-2.2-3.8H61l1.6,3l1.6-3h1.1L63,138.6z"/>
		</g>
	</g>
	<g>
		<rect x="3.3" y="24" class="st1" width="94.8" height="94.8"/>
	</g>
	<g>
		<path class="st1" d="M98.2,20.7H3.3V3.3h94.8V20.7z M4.3,19.7h92.8V4.3H4.3L4.3,19.7z"/>
	</g>
	<g class="st2">
		<path class="st1" d="M6.7,6.9h4.5v1.4H9.9v8.8H8.1V8.3H6.7V6.9z"/>
	</g>
	<g class="st2">
		<path class="st1" d="M11.2,17.1l1.9-10.2h1.9L17,17.1h-1.8l-0.3-1.9h-1.8l-0.3,1.9H11.2z M13.3,13.9h1.4L14,9.8h0L13.3,13.9z"/>
	</g>
	<g class="st2">
		<path class="st1" d="M19.6,12.4v4.7h-1.7V6.9h2.5c1.7,0,2.4,0.9,2.4,2.3v1.3c0,1.1-0.4,1.7-1.4,2l1.6,4.6h-1.8L19.6,12.4z
			 M19.6,8.3v3.2h0.6c0.6,0,0.8-0.3,0.8-0.8V9.2c0-0.6-0.3-0.8-0.8-0.8H19.6z"/>
	</g>
	<g class="st2">
		<path class="st1" d="M26.4,11.7h2.4v5.4h-1.2V16c-0.2,0.8-0.7,1.2-1.6,1.2c-1.5,0-2.1-1.2-2.1-2.7V9.6c0-1.6,0.8-2.7,2.6-2.7
			c1.9,0,2.4,1.1,2.4,2.6v0.9h-1.6v-1c0-0.6-0.2-1-0.9-1c-0.6,0-0.9,0.4-0.9,1v5.5c0,0.6,0.3,1,0.8,1c0.6,0,0.8-0.3,0.8-1V13h-0.8
			V11.7z"/>
	</g>
	<g class="st2">
		<path class="st1" d="M30.2,6.9h4.1v1.4h-2.4v2.9h1.7v1.4h-1.7v3.1h2.4v1.4h-4.1V6.9z"/>
	</g>
	<g class="st2">
		<path class="st1" d="M35.1,6.9h4.5v1.4h-1.4v8.8h-1.7V8.3h-1.4V6.9z"/>
	</g>
	<g>
		<path class="st1" d="M98.2,144.9h-95v-22.8h95V144.9z M4.2,143.9h93v-20.8h-93V143.9z"/>
	</g>
	<g>
		<g>
			<g>
				<path class="st0" d="M71.6,91.7c0,0,0-0.1,0-0.1c0-0.1-0.1-0.2-0.1-0.2l-0.1-0.2L71.3,91c0,0-0.1-0.1-0.1-0.1L71,90.7l-3.7-4
					c-0.5-0.5-0.1-0.8-0.1-0.8l3.2-3.3l-5-5.1c0,0-3.2,3.3-4.6,4.6c-1.2,1.2-1.2,3.1,0,4.3l7.2,7.2l0,0c0.4,0.4,0.9,0.6,1.5,0.6l0,0
					h0.2h0.1l0.3-0.1c0.9-0.3,1.5-1.1,1.5-2c0,0,0,0,0-0.1C71.6,92,71.7,91.9,71.6,91.7z"/>
			</g>
			<g>
				<path class="st0" d="M79.3,77.5l-5,5.1l3.2,3.3c0,0,0.3,0.3-0.1,0.8l-3.7,4L73.5,91c0,0-0.1,0.1-0.1,0.1l-0.1,0.1l-0.1,0.2
					c0,0.1-0.1,0.2-0.1,0.2c0,0,0,0.1,0,0.1c0,0.2,0,0.3,0,0.5c0,0,0,0.1,0,0.1c0,0.9,0.6,1.7,1.5,2l0.3,0.1H75h0.2l0,0
					c0.6,0,1.1-0.2,1.5-0.6l0,0l7.2-7.2c1.2-1.2,1.2-3.1,0-4.3C82.6,80.8,79.3,77.5,79.3,77.5z"/>
			</g>
			<g>
				<path class="st0" d="M88.3,73.4c0-0.1,0-0.1-0.1-0.2c-0.1-0.2-0.2-0.4-0.4-0.6c0,0-8.5-8.5-9.6-9.6c-0.4-0.4-0.9-0.7-1.5-0.7H68
					c-0.6,0-1.1,0.2-1.5,0.7c-1,1-9.6,9.6-9.6,9.6c-0.2,0.2-0.3,0.4-0.4,0.6c0,0.1-0.1,0.1-0.1,0.2c-0.1,0.2-0.1,0.4-0.1,0.7
					c0,1.1,1,2,2.1,1.9c0.3,0,0.7-0.1,1-0.3l0.2-0.2l0.3-0.3l4.8-5c0,0,0.8-0.8,0.9,0.1v4.5h13.5v-4.4c0.2-0.8,0.9-0.1,0.9-0.1
					l4.8,5l0.3,0.3l0.2,0.2c1,0.6,2.2,0.2,2.7-0.7c0.2-0.3,0.3-0.6,0.3-0.9C88.4,73.9,88.4,73.6,88.3,73.4z"/>
			</g>
			<g>
				<path class="st0" d="M72.3,60.9c3.4,0,6.2-2.8,6.2-6.2c0-3.4-2.8-6.2-6.2-6.2c-3.4,0-6.2,2.8-6.2,6.2c0,0,0,0,0,0
					C66.2,58.1,68.9,60.9,72.3,60.9z"/>
			</g>
		</g>
		<g>
			<g>
				<g>
					<polygon class="st0" points="16.8,56.8 15.1,56.8 15.1,90.5 39.2,90.5 39.2,88.5 16.8,88.5 					"/>
				</g>
				<g>
					<path class="st0" d="M42.8,52.7H18.7v33.7h24.1V52.7z M39.9,80.9c0,0.1-0.1,0.1-0.2,0.1H21.8c-0.1,0-0.2-0.1-0.2-0.1v-2.8
						c0-0.1,0.1-0.1,0.2-0.1h17.8c0.1,0,0.2,0,0.2,0.1L39.9,80.9z M39.9,75.6c0,0.1-0.1,0.1-0.2,0.1H21.8c-0.1,0-0.2,0-0.2-0.1v-2.8
						c0-0.1,0.1-0.1,0.2-0.1h17.8c0.1,0,0.2,0.1,0.2,0.1L39.9,75.6z M39.9,70.5c0,0.1-0.1,0.1-0.2,0.1H21.8c-0.1,0-0.2-0.1-0.2-0.1
						v-2.8c0-0.1,0.1-0.1,0.2-0.1h17.8c0.1,0,0.2,0,0.2,0.1L39.9,70.5z"/>
				</g>
			</g>
			<g>
				<g>
					<path class="st0" d="M50.6,54.1c-0.1-1-0.9-1.7-1.9-1.6c-0.9,0.1-1.5,0.8-1.6,1.6v1.8h3.5L50.6,54.1z"/>
				</g>
				<g>
					<polygon class="st0" points="47.4,80.7 47,80.7 48.7,86.5 50.5,80.7 50,80.7 50.5,80.7 50.6,57.2 50.2,57.2 49.7,57.2 
						49.3,57.2 48.4,57.2 48,57.2 47.5,57.2 47.1,57.2 47,80.7 					"/>
				</g>
			</g>
		</g>
	</g>
	<g class="st2">
		<path class="st1" d="M77.3,6.9v10.2h-1.7V9.3h0l-1.2,1.2h0V8.8L76,6.9H77.3z"/>
		<path class="st1" d="M78.8,14.5v-5c0-1.6,0.7-2.7,2.5-2.7c1.9,0,2.4,1.1,2.4,2.6v0.5h-1.6V9.2c0-0.6-0.2-1-0.8-1
			c-0.6,0-0.8,0.4-0.8,1v2.2h0c0.3-0.5,0.7-0.8,1.4-0.8c1.2,0,1.9,0.8,1.9,2.5v1.5c0,1.6-0.7,2.6-2.5,2.6
			C79.5,17.2,78.8,16.1,78.8,14.5z M82.1,14.8V13c0-0.7-0.2-1-0.8-1c-0.5,0-0.8,0.4-0.8,0.9v1.9c0,0.6,0.2,1,0.8,1
			C81.8,15.8,82.1,15.5,82.1,14.8z"/>
	</g>
	<g class="st2">
	</g>
	<g class="st2">
		<path class="st1" d="M86.5,10.8c0.7,0,1.2,0.6,1.2,1.2c0,0.7-0.6,1.2-1.2,1.2c-0.7,0-1.2-0.6-1.2-1.2
			C85.3,11.4,85.9,10.8,86.5,10.8z"/>
	</g>
	<g class="st2">
		<path class="st1" d="M94.3,9.5v4.9c0,1.6-0.7,2.7-2.5,2.7c-1.9,0-2.4-1-2.4-2.5v-0.5h1.6v0.7c0,0.6,0.2,1,0.8,1
			c0.6,0,0.9-0.4,0.9-1v-2.2h0c-0.3,0.5-0.7,0.8-1.4,0.8c-1.2,0-1.9-0.8-1.9-2.5V9.4c0-1.6,0.7-2.6,2.5-2.6
			C93.6,6.8,94.3,8,94.3,9.5z M91,9.2V11c0,0.7,0.2,1,0.8,1c0.5,0,0.8-0.4,0.8-0.9V9.2c0-0.6-0.2-1-0.8-1C91.2,8.2,91,8.6,91,9.2z"
			/>
	</g>
</g>
</svg>
