<?xml version="1.0" encoding="utf-8"?>
<!-- Generator: Adobe Illustrator 22.0.1, SVG Export Plug-In . SVG Version: 6.00 Build 0)  -->
<svg version="1.1" id="Layer_1" xmlns="http://www.w3.org/2000/svg" xmlns:xlink="http://www.w3.org/1999/xlink" x="0px" y="0px"
	 viewBox="0 0 101.5 175.1" style="enable-background:new 0 0 101.5 175.1;" xml:space="preserve">
<style type="text/css">
	.st0{fill:#FFFFFF;}
	.st1{fill:#DDA63A;}
	.st2{enable-background:new    ;}
</style>
<title>TARGET 1.4</title>
<g id="WHITE_BG">
	<g>
		<rect y="0" class="st0" width="101.5" height="175.1"/>
	</g>
</g>
<g id="TARGETS">
	<g>
		<g>
			<path class="st1" d="M11.1,130.3c0,1.2-0.7,2-2.4,2c-0.6,0-1.3-0.1-1.9-0.3v-1c0.6,0.3,1.2,0.4,1.8,0.4c1.1,0,1.5-0.5,1.5-1.1
				s-0.3-0.9-1.2-1c-1.6-0.2-2.2-0.6-2.2-1.8c0-0.9,0.5-1.8,2.3-1.8c0.6,0,1.2,0.1,1.7,0.3v1c-0.5-0.2-1.1-0.3-1.7-0.3
				c-1,0-1.3,0.4-1.3,1c0,0.7,0.4,0.8,1.2,0.9C10.3,128.7,11.1,129,11.1,130.3z"/>
		</g>
		<g>
			<path class="st1" d="M11.8,130.2v-4.4h0.9v4.3c-0.1,0.7,0.4,1.2,1,1.3c0.1,0,0.2,0,0.3,0c0.6,0.1,1.3-0.3,1.4-1
				c0-0.1,0-0.2,0-0.3v-4.3h1v4.4c0,1.1-0.8,2.1-2,2.1c-0.1,0-0.2,0-0.3,0c-1.1,0.2-2.2-0.6-2.3-1.7
				C11.8,130.5,11.8,130.3,11.8,130.2z"/>
		</g>
		<g>
			<path class="st1" d="M21.5,130.3c0,1.2-0.7,2-2.4,2c-0.6,0-1.3-0.1-1.9-0.4V131c0.6,0.3,1.2,0.4,1.8,0.4c1.1,0,1.5-0.5,1.5-1.1
				s-0.3-0.9-1.1-1c-1.6-0.2-2.2-0.6-2.2-1.8c0-0.9,0.5-1.8,2.3-1.8c0.6,0,1.2,0.1,1.7,0.3v1c-0.5-0.2-1.1-0.3-1.7-0.3
				c-1,0-1.3,0.4-1.3,1c0,0.7,0.4,0.8,1.2,0.9C20.8,128.7,21.5,129,21.5,130.3z"/>
		</g>
		<g>
			<path class="st1" d="M24.6,126.7v5.5h-1v-5.5H22v-0.9h4.3v0.9L24.6,126.7z"/>
		</g>
		<g>
			<path class="st1" d="M29.3,130.7h-2l-0.5,1.6h-1l2-6.4h1l2,6.4h-1L29.3,130.7z M28.3,127l-0.8,2.8h1.6L28.3,127z"/>
		</g>
		<g>
			<path class="st1" d="M31.4,132.2v-6.4h0.9v6.4H31.4z"/>
		</g>
		<g>
			<path class="st1" d="M37.2,132.2l-2.8-4.5v4.5h-0.9v-6.4h0.9l2.8,4.5v-4.5H38v6.4H37.2z"/>
		</g>
		<g>
			<path class="st1" d="M42.1,130.7h-2l-0.5,1.6h-1l2-6.4h1l2,6.4h-1L42.1,130.7z M41.1,127l-0.8,2.8h1.6L41.1,127z"/>
		</g>
		<g>
			<path class="st1" d="M44.1,125.8h2.1c1.6,0,2,0.8,2,1.7c0,0.5-0.3,1-0.8,1.3c0.6,0.2,1.1,0.8,1,1.5c0,1.1-0.5,1.9-2.2,1.9h-2.2
				V125.8z M46.3,126.7h-1.2v1.8h1.2c0.4,0.1,0.9-0.2,0.9-0.7c0-0.1,0-0.1,0-0.2C47.3,127.2,47.1,126.7,46.3,126.7z M45.1,131.3h1.3
				c0.9,0,1.1-0.5,1.1-1s-0.3-1-1.1-1h-1.3V131.3z"/>
		</g>
		<g>
			<path class="st1" d="M50.2,131.3h2.8v0.9h-3.7v-6.4h1V131.3z"/>
		</g>
		<g>
			<path class="st1" d="M57.1,129.3h-2.7v2h2.9v0.9h-3.9v-6.4h3.9v0.9h-2.9v1.8h2.7V129.3z"/>
		</g>
		<g>
			<path class="st1" d="M63.1,129.4h-2.6v2.8h-1v-6.4h3.8v0.9h-2.9v1.8h2.6V129.4z"/>
		</g>
		<g>
			<path class="st1" d="M63.9,129c0-1.8,0.4-3.3,2.4-3.3s2.5,1.5,2.5,3.3s-0.4,3.3-2.5,3.3S63.9,130.8,63.9,129z M64.9,129
				c0,1.5,0.3,2.4,1.5,2.4s1.5-0.9,1.5-2.4s-0.3-2.4-1.5-2.4S64.8,127.5,64.9,129L64.9,129z"/>
		</g>
		<g>
			<path class="st1" d="M69.4,129c0-1.8,0.4-3.3,2.4-3.3s2.5,1.5,2.5,3.3s-0.4,3.3-2.5,3.3S69.4,130.8,69.4,129z M70.4,129
				c0,1.5,0.3,2.4,1.5,2.4s1.5-0.9,1.5-2.4s-0.3-2.4-1.5-2.4S70.4,127.5,70.4,129L70.4,129z"/>
		</g>
		<g>
			<path class="st1" d="M75.2,132.2v-6.4h1.9c2.1,0,2.7,1.4,2.7,3.2s-0.6,3.2-2.7,3.2L75.2,132.2z M76.2,131.3h1
				c1.3,0,1.7-0.9,1.7-2.3s-0.4-2.3-1.7-2.3h-1V131.3z"/>
		</g>
		<g>
			<path class="st1" d="M7.8,141.2h-1v-6.4h2.1c1.6,0,2.2,0.9,2.2,2s-0.6,2-2.2,2H7.8V141.2z M7.8,138H9c0.6,0.1,1.2-0.4,1.2-1
				c0.1-0.6-0.4-1.2-1-1.2c-0.1,0-0.1,0-0.2,0H7.8V138z"/>
		</g>
		<g>
			<path class="st1" d="M12.7,141.2h-1v-6.4h2.1c1.6,0,2.2,0.7,2.2,1.9c0.1,0.7-0.3,1.4-1,1.7l1.3,2.8h-1.1l-1.2-2.6h-1.3V141.2z
				 M12.7,137.7H14c0.9,0,1-0.5,1-1s-0.1-1-1-1h-1.3V137.7z"/>
		</g>
		<g>
			<path class="st1" d="M16.7,138c0-1.8,0.4-3.3,2.5-3.3s2.5,1.5,2.5,3.3s-0.4,3.3-2.5,3.3S16.7,139.8,16.7,138z M17.7,138
				c0,1.5,0.3,2.4,1.5,2.4s1.5-0.9,1.5-2.4s-0.3-2.4-1.5-2.4S17.7,136.5,17.7,138L17.7,138z"/>
		</g>
		<g>
			<path class="st1" d="M22.4,141.2v-6.4h1.9c2.1,0,2.7,1.4,2.7,3.2s-0.6,3.2-2.7,3.2H22.4z M23.3,140.3h1c1.3,0,1.7-0.9,1.7-2.3
				s-0.4-2.3-1.7-2.3h-1V140.3z"/>
		</g>
		<g>
			<path class="st1" d="M27.8,139.2v-4.4h1v4.3c-0.1,0.7,0.4,1.2,1,1.3c0.1,0,0.2,0,0.3,0c0.7,0.1,1.3-0.4,1.4-1c0-0.1,0-0.2,0-0.3
				v-4.3h1v4.4c0,1.1-0.9,2.1-2,2.1c-0.1,0-0.2,0-0.3,0c-1.1,0.1-2.2-0.6-2.3-1.8C27.8,139.4,27.8,139.3,27.8,139.2z"/>
		</g>
		<g>
			<path class="st1" d="M35.8,134.7c0.5,0,1,0.1,1.5,0.3v0.9c-0.5-0.2-0.9-0.3-1.4-0.3c-1.2,0-1.7,0.8-1.7,2.4s0.5,2.4,1.7,2.4
				c0.5,0,1-0.1,1.4-0.3v0.9c-0.5,0.2-1,0.3-1.5,0.3c-1.9,0-2.6-1.2-2.6-3.3S34,134.7,35.8,134.7z"/>
		</g>
		<g>
			<path class="st1" d="M40.5,135.7v5.5h-1v-5.5h-1.6v-0.9h4.3v0.9H40.5z"/>
		</g>
		<g>
			<path class="st1" d="M43,141.2v-6.4h1v6.4H43z"/>
		</g>
		<g>
			<path class="st1" d="M44.8,138c0-1.8,0.4-3.3,2.5-3.3s2.5,1.5,2.5,3.3s-0.4,3.3-2.5,3.3S44.8,139.8,44.8,138z M45.8,138
				c0,1.5,0.3,2.4,1.5,2.4s1.5-0.9,1.5-2.4s-0.3-2.4-1.5-2.4S45.8,136.5,45.8,138L45.8,138z"/>
		</g>
		<g>
			<path class="st1" d="M54.2,141.2l-2.8-4.5v4.5h-0.9v-6.4h0.9l2.8,4.5v-4.5h1v6.4H54.2z"/>
		</g>
		<g>
			<path class="st1" d="M60.5,139.7h-2l-0.5,1.6H57l2-6.4h1l2,6.4h-1L60.5,139.7z M59.5,136l-0.8,2.8h1.6L59.5,136z"/>
		</g>
		<g>
			<path class="st1" d="M66.2,141.2l-2.8-4.5v4.5h-0.9v-6.4h0.9l2.8,4.5v-4.5h0.9v6.4H66.2z"/>
		</g>
		<g>
			<path class="st1" d="M68.1,141.2v-6.4H70c2.1,0,2.7,1.4,2.7,3.2s-0.6,3.2-2.7,3.2H68.1z M69.1,140.3h1c1.3,0,1.7-0.9,1.7-2.3
				s-0.4-2.3-1.7-2.3H69L69.1,140.3z"/>
		</g>
		<g>
			<path class="st1" d="M7.8,150.2h-1v-6.4H9c1.6,0,2.2,0.7,2.2,1.9c0.1,0.7-0.3,1.4-1,1.7l1.3,2.8h-1.2l-1.1-2.6H7.8V150.2z
				 M7.8,146.7h1.3c0.9,0,1-0.5,1-1s-0.1-1-1-1H7.8V146.7z"/>
		</g>
		<g>
			<path class="st1" d="M15.7,147.3H13v2h3v0.9h-3.9v-6.4H16v0.9h-3v1.8h2.7L15.7,147.3z"/>
		</g>
		<g>
			<path class="st1" d="M21,148.3c0,1.2-0.7,2-2.4,2c-0.6,0-1.3-0.1-1.9-0.4V149c0.6,0.3,1.2,0.4,1.8,0.4c1.1,0,1.5-0.5,1.5-1.1
				s-0.3-0.9-1.2-1c-1.5-0.2-2.2-0.6-2.2-1.8c0-0.9,0.5-1.8,2.3-1.8c0.6,0,1.2,0.1,1.7,0.3v1c-0.5-0.2-1.1-0.3-1.7-0.3
				c-1,0-1.3,0.4-1.3,1c0,0.7,0.4,0.8,1.2,0.9C20.2,146.7,21,147,21,148.3z"/>
		</g>
		<g>
			<path class="st1" d="M21.8,150.2v-6.4h1v6.4H21.8z"/>
		</g>
		<g>
			<path class="st1" d="M24.8,149.3h2.8v0.9h-3.7v-6.4h1V149.3z"/>
		</g>
		<g>
			<path class="st1" d="M28.2,150.2v-6.4h1v6.4H28.2z"/>
		</g>
		<g>
			<path class="st1" d="M33.8,147.3h-2.6v2h2.9v0.9h-3.9v-6.4h3.9v0.9h-2.9v1.8h2.6V147.3z"/>
		</g>
		<g>
			<path class="st1" d="M38.7,150.2l-2.7-4.5v4.5h-1v-6.4h0.9l2.8,4.5v-4.5h0.9v6.4L38.7,150.2z"/>
		</g>
		<g>
			<path class="st1" d="M42.8,144.7v5.5h-1v-5.5h-1.6v-0.9h4.3v0.9H42.8z"/>
		</g>
		<g>
			<path class="st1" d="M10.1,157.7h-2l-0.4,1.6h-1l2-6.4h1l2,6.4h-1L10.1,157.7z M9.1,154l-0.8,2.8h1.6L9.1,154z"/>
		</g>
		<g>
			<path class="st1" d="M11.8,156c0-2,0.7-3.3,2.6-3.3c0.6,0,1.3,0.1,1.8,0.3v1c-0.5-0.2-1.1-0.4-1.7-0.4c-1.3,0-1.8,0.9-1.8,2.4
				s0.5,2.4,1.8,2.4c0.3,0,0.6,0,0.9-0.1v-1.7h-1.1v-0.9h2.1v3.2c-0.6,0.3-1.3,0.4-2,0.4C12.5,159.3,11.8,158,11.8,156z"/>
		</g>
		<g>
			<path class="st1" d="M18.3,159.2h-1v-6.4h2.1c1.6,0,2.2,0.7,2.2,1.9c0.1,0.7-0.3,1.4-1,1.7l1.3,2.8h-1.1l-1.2-2.6h-1.3V159.2z
				 M18.3,155.7h1.2c0.9,0,1-0.5,1-1s-0.1-1-1-1h-1.2V155.7z"/>
		</g>
		<g>
			<path class="st1" d="M22.7,159.2v-6.4h1v6.4H22.7z"/>
		</g>
		<g>
			<path class="st1" d="M27.1,152.7c0.5,0,1,0.1,1.5,0.3v0.9c-0.5-0.2-0.9-0.3-1.4-0.3c-1.2,0-1.7,0.8-1.7,2.4s0.5,2.4,1.7,2.4
				c0.5,0,1-0.1,1.4-0.3v0.9c-0.5,0.2-1,0.3-1.5,0.3c-1.9,0-2.6-1.2-2.6-3.3S25.2,152.7,27.1,152.7z"/>
		</g>
		<g>
			<path class="st1" d="M29.5,157.2v-4.4h1v4.3c-0.1,0.7,0.4,1.2,1,1.3c0.1,0,0.2,0,0.3,0c0.7,0.1,1.3-0.4,1.4-1c0-0.1,0-0.2,0-0.3
				v-4.3h1v4.4c0.1,1.1-0.8,2.1-1.9,2.1c-0.1,0-0.3,0-0.4,0c-1.1,0.2-2.1-0.6-2.3-1.7C29.5,157.5,29.5,157.4,29.5,157.2z"/>
		</g>
		<g>
			<path class="st1" d="M35.9,158.3h2.8v0.9H35v-6.4h1L35.9,158.3z"/>
		</g>
		<g>
			<path class="st1" d="M40.7,153.7v5.5h-1v-5.5h-1.6v-0.9h4.3v0.9H40.7z"/>
		</g>
		<g>
			<path class="st1" d="M43,157.2v-4.4h1v4.3c0,0.8,0.6,1.4,1.4,1.4s1.4-0.6,1.4-1.4v-4.3h1v4.4c0.1,1.1-0.8,2.1-1.9,2.1
				c-0.1,0-0.3,0-0.4,0c-1.1,0.2-2.1-0.5-2.4-1.5C43,157.6,43,157.4,43,157.2z"/>
		</g>
		<g>
			<path class="st1" d="M49.5,159.2h-1v-6.4h2.1c1.7,0,2.2,0.7,2.2,1.9c0.1,0.7-0.3,1.4-1,1.7l1.3,2.8H52l-1.2-2.6h-1.4V159.2z
				 M49.5,155.7h1.2c0.9,0,1-0.5,1-1s-0.1-1-1-1h-1.2V155.7z"/>
		</g>
		<g>
			<path class="st1" d="M56.8,157.7h-2l-0.5,1.6h-1l2-6.4h1l2,6.4h-1L56.8,157.7z M55.8,154l-0.8,2.8h1.6L55.8,154z"/>
		</g>
		<g>
			<path class="st1" d="M59.8,158.3h2.8v0.9h-3.7v-6.4h1L59.8,158.3z"/>
		</g>
		<g>
			<path class="st1" d="M7.8,168.2h-1v-6.4h2.1c1.6,0,2.2,0.9,2.2,2s-0.6,2-2.2,2H7.8V168.2z M7.8,165H9c0.6,0.1,1.2-0.4,1.2-1
				c0.1-0.6-0.4-1.2-1-1.2c-0.1,0-0.1,0-0.2,0H7.8V165z"/>
		</g>
		<g>
			<path class="st1" d="M12.7,168.2h-1v-6.4h2.1c1.6,0,2.2,0.7,2.2,1.9c0.1,0.7-0.3,1.4-1,1.7l1.3,2.8h-1.1l-1.2-2.6h-1.3V168.2z
				 M12.7,164.7H14c0.9,0,1-0.5,1-1s-0.1-1-1-1h-1.3V164.7z"/>
		</g>
		<g>
			<path class="st1" d="M20.1,166.7H18l-0.5,1.6h-1l2-6.4h1l2,6.4h-1L20.1,166.7z M19.1,163l-0.8,2.8h1.6L19.1,163z"/>
		</g>
		<g>
			<path class="st1" d="M24.4,161.7c0.5,0,1,0.1,1.5,0.3v0.9c-0.5-0.2-0.9-0.3-1.4-0.3c-1.2,0-1.7,0.8-1.7,2.4s0.5,2.4,1.7,2.4
				c0.5,0,1-0.1,1.4-0.3v0.9c-0.5,0.2-1,0.3-1.5,0.3c-1.9,0-2.6-1.2-2.6-3.3S22.5,161.7,24.4,161.7z"/>
		</g>
		<g>
			<path class="st1" d="M28.8,162.7v5.5h-1v-5.5h-1.7v-0.9h4.3v0.9H28.8z"/>
		</g>
		<g>
			<path class="st1" d="M31.3,168.2v-6.4h1v6.4H31.3z"/>
		</g>
		<g>
			<path class="st1" d="M35.9,161.7c0.5,0,1,0.1,1.5,0.3v0.9c-0.5-0.2-0.9-0.3-1.4-0.3c-1.2,0-1.7,0.8-1.7,2.4s0.5,2.4,1.7,2.4
				c0.5,0,1-0.1,1.4-0.3v0.9c-0.5,0.2-1,0.3-1.5,0.3c-1.9,0-2.6-1.2-2.6-3.3S34,161.7,35.9,161.7z"/>
		</g>
		<g>
			<path class="st1" d="M41.8,165.3h-2.7v2h2.9v0.9h-3.9v-6.4h3.9v0.9h-2.9v1.8h2.7V165.3z"/>
		</g>
		<g>
			<path class="st1" d="M47,166.3c0,1.2-0.7,2-2.4,2c-0.6,0-1.3-0.1-1.9-0.4V167c0.6,0.3,1.2,0.4,1.8,0.4c1.2,0,1.5-0.5,1.5-1.1
				s-0.3-0.9-1.2-1c-1.5-0.2-2.2-0.6-2.2-1.8c0-0.9,0.5-1.8,2.3-1.8c0.6,0,1.2,0.1,1.7,0.3v1c-0.5-0.2-1.1-0.3-1.7-0.3
				c-1,0-1.3,0.4-1.3,1s0.4,0.8,1.2,0.9C46.2,164.7,47,165,47,166.3z"/>
		</g>
	</g>
	<g>
		<rect x="3.3" y="24" class="st1" width="94.8" height="94.8"/>
	</g>
	<g>
		<path class="st1" d="M98.2,20.7H3.3V3.3h94.8V20.7z M4.3,19.7h92.8V4.3H4.3L4.3,19.7z"/>
	</g>
	<g class="st2">
		<path class="st1" d="M6.7,6.9h4.5v1.4H9.9v8.8H8.1V8.3H6.7V6.9z"/>
	</g>
	<g class="st2">
		<path class="st1" d="M11.2,17.1l1.9-10.2h1.9L17,17.1h-1.8l-0.3-1.9h-1.8l-0.3,1.9H11.2z M13.3,13.9h1.4L14,9.8h0L13.3,13.9z"/>
	</g>
	<g class="st2">
		<path class="st1" d="M19.6,12.5v4.7h-1.7V6.9h2.5c1.7,0,2.4,0.9,2.4,2.3v1.3c0,1.1-0.4,1.7-1.4,2l1.6,4.6h-1.8L19.6,12.5z
			 M19.6,8.3v3.2h0.6c0.6,0,0.8-0.3,0.8-0.8V9.2c0-0.6-0.3-0.8-0.8-0.8H19.6z"/>
	</g>
	<g class="st2">
		<path class="st1" d="M26.4,11.7h2.4v5.4h-1.2V16c-0.2,0.8-0.7,1.2-1.6,1.2c-1.5,0-2.1-1.2-2.1-2.7V9.6c0-1.6,0.8-2.7,2.6-2.7
			c1.9,0,2.4,1.1,2.4,2.6v0.9h-1.6v-1c0-0.6-0.2-1-0.9-1c-0.6,0-0.9,0.4-0.9,1v5.5c0,0.6,0.3,1,0.8,1c0.6,0,0.8-0.3,0.8-1V13h-0.8
			V11.7z"/>
	</g>
	<g class="st2">
		<path class="st1" d="M30.2,6.9h4.1v1.4h-2.4v2.9h1.7v1.4h-1.7v3.1h2.4v1.4h-4.1V6.9z"/>
	</g>
	<g class="st2">
		<path class="st1" d="M35.1,6.9h4.5v1.4h-1.4v8.8h-1.7V8.3h-1.4V6.9z"/>
	</g>
	<g class="st2">
		<path class="st1" d="M79.3,15.2c0-1,0.3-1.7,1.3-2.7l1-1c0.6-0.6,0.6-0.9,0.6-1.8V9c0-0.6-0.3-0.8-0.6-0.8c-0.4,0-0.7,0.2-0.7,0.8
			v1.3h-1.6V9.1c0-1.4,0.8-2.2,2.3-2.2c1.5,0,2.2,0.7,2.2,2.1v1c0,1-0.2,1.6-1.1,2.6l-1.1,1.2c-0.4,0.5-0.7,0.8-0.7,1.6v0.5h2.8v1.4
			h-4.4V15.2z"/>
	</g>
	<g class="st2">
	</g>
	<g class="st2">
		<path class="st1" d="M86.6,10.8c0.7,0,1.2,0.6,1.2,1.2c0,0.7-0.6,1.2-1.2,1.2c-0.7,0-1.2-0.6-1.2-1.2C85.4,11.4,86,10.8,86.6,10.8
			z"/>
	</g>
	<g class="st2">
		<path class="st1" d="M89.1,14.4l3-7.5h1.7v7.2h0.7v1.3h-0.7v1.7h-1.6v-1.7h-3V14.4z M90.6,14.1h1.5V9.9h0L90.6,14.1z"/>
	</g>
	<g>
		<path class="st1" d="M98.2,171.8h-95v-49.7h95V171.8z M4.2,170.8h93v-47.7h-93V170.8z"/>
	</g>
	<g>
		<g>
			<path class="st0" d="M52.1,79c3-0.1,9.6-1,10.1-9.6c0.4-5.9-1.1-7.7-3.5-10.9c-1.4-2.2-2.3-4.7-2.5-7.3c-0.1-3-0.2-5.6-3.1-6.3
				c0.4-3.1,1-4.6,1.8-5.5c0.8-1,1.9-1.7,3.1-2.1l-0.5-1.5c-1.7,0.6-3.1,1.7-4.1,3.2c-1,1.8-1.7,3.7-2,5.7c-1.1,0-2.9,0.6-4,4
				c-1.5,4.9-0.4,5.6-2.9,9.7s-3.5,5.8-2.8,12.5S49,79.1,52.1,79z"/>
		</g>
		<g>
			<path class="st0" d="M51.2,44.2c0.3-6.2-6.7-8.1-6.7-8.1c-0.1,2.1,0.5,4.2,1.8,5.9C48.5,45,51.2,44.2,51.2,44.2z"/>
		</g>
		<g>
			<path class="st0" d="M25.2,59.8c0,0,3.4-1.8,3.4-4c0-2.7-3.3-6.2-3.3-6.2s-3.4,3.6-3.4,6.2C21.9,58,24.5,59.3,25.2,59.8z"/>
		</g>
		<g>
			<path class="st0" d="M19.8,63.7c0,0,0.8,1.1,4.8,1.7c0,0,0.4-3.8-1-5.4c0,0-0.7-1.2-5.8-4C17.8,56,17.2,62,19.8,63.7z"/>
		</g>
		<g>
			<path class="st0" d="M19.4,71.7c0,0,0.9,1.2,5.2,1.9c0,0,0.5-4.2-1.1-5.9c0,0-0.8-1.2-6.2-4.4C17.3,63.3,16.6,69.7,19.4,71.7z"/>
		</g>
		<g>
			<path class="st0" d="M17.4,71.7c0,0-0.9,6.9,1.8,8.9c0,0,1.1,1.3,5.4,2c0,0,0.6-4.3-0.9-6C23.6,76.6,22.8,74.8,17.4,71.7z"/>
		</g>
		<g>
			<path class="st0" d="M23.4,84.9c0,0-1.4-1.9-7-4.8c0,0-0.5,7.2,2.3,9.2c0,0,1.4,1.4,5.7,2C24.5,91.3,25,86.6,23.4,84.9z"/>
		</g>
		<g>
			<path class="st0" d="M26.9,60.1c-1.5,1.6-1,5.4-1,5.4c4-0.6,4.8-1.7,4.8-1.7c2.6-1.8,2-7.7,2-7.7C27.7,58.9,26.9,60.1,26.9,60.1z
				"/>
		</g>
		<g>
			<path class="st0" d="M27,67.7c-1.6,1.7-1.1,5.9-1.1,5.9c4.3-0.7,5.2-1.9,5.2-1.9c2.8-1.9,2.1-8.4,2.1-8.4
				C27.8,66.4,27,67.7,27,67.7z"/>
		</g>
		<g>
			<path class="st0" d="M26.8,76.6c-1.6,1.7-0.9,6-0.9,6c4.3-0.7,5.4-2,5.4-2c2.8-1.9,1.8-8.9,1.8-8.9
				C27.7,74.8,26.8,76.6,26.8,76.6z"/>
		</g>
		<g>
			<path class="st0" d="M27,84.9c-1.5,1.7-1,6.4-1,6.4c4.3-0.7,5.7-2,5.7-2c2.8-2,2.3-9.2,2.3-9.2C28.5,83,27,84.9,27,84.9z"/>
		</g>
		<g>
			<rect x="24.3" y="92.4" class="st0" width="1.9" height="18"/>
		</g>
		<g>
			<path class="st0" d="M19.2,38.4c0-0.3-0.2-0.7-0.5-0.7c-0.3,0-0.7,0.2-0.7,0.5c0,0.1,0,0.1,0,0.2v16.5l1.2,0.7V38.4z"/>
		</g>
		<g>
			<path class="st0" d="M21.8,52V36.4c0-0.3-0.4-0.6-0.7-0.5c-0.3,0-0.5,0.3-0.5,0.5v18.8C20.8,54.1,21.2,53,21.8,52z"/>
		</g>
		<g>
			<path class="st0" d="M24.4,33.2c0-0.3-0.2-0.7-0.5-0.7c-0.3,0-0.7,0.2-0.7,0.5c0,0.1,0,0.1,0,0.2V50c0.5-0.6,0.9-1.3,1.2-1.7
				V33.2z"/>
		</g>
		<g>
			<path class="st0" d="M32.6,38.4c0-0.3-0.2-0.7-0.5-0.7c-0.3,0-0.7,0.2-0.7,0.5c0,0.1,0,0.1,0,0.2v17.2l1.2-0.7V38.4z"/>
		</g>
		<g>
			<path class="st0" d="M30,55.1V36.4c0-0.3-0.4-0.6-0.7-0.5c-0.3,0-0.5,0.3-0.5,0.5V52C29.3,53,29.7,54.1,30,55.1L30,55.1z"/>
		</g>
		<g>
			<path class="st0" d="M27.3,33.2c0-0.3-0.2-0.7-0.5-0.7c-0.3,0-0.7,0.2-0.7,0.5c0,0.1,0,0.1,0,0.2v15.2l1.2,1.7V33.2z"/>
		</g>
		<g>
			<path class="st0" d="M80.7,89.2c-2.1-1.6-4.7-2.4-7.3-2.4c-0.6,0-1.2,0-1.8,0.2l-0.2,0c-1.7,0.4-4.6,1.1-8,5.3l-0.1,0.1
				c-0.1,0.1-0.1,0.2-0.1,0.2c0,0.1,0,0.2,0.1,0.2l0.1,0.1c0.6,0.9,1,1.7,1.4,2.4c0.1,0.2,0.4,0.3,0.6,0.2c0,0,0.1-0.1,0.1-0.1
				l0.1-0.1c2.9-4,5.2-4.6,6.7-4.9h0.2c0.3-0.1,0.6-0.1,0.9-0.1c1.8,0,3.6,0.6,5.1,1.6c1.7,1.3,2.6,3.5,2.6,6.4
				c0,4.8-2.3,6.7-4.3,7.4c-0.8,0.3-1.6,0.4-2.4,0.4c-1.2,0-2.5-0.3-3.6-0.8l-0.1-0.1c-1.7-0.7-4.2-2.3-6.6-7
				c-4.9-9.8-9-10.8-11.7-11.4h-0.2c-0.6-0.1-1.2-0.2-1.7-0.2c-2.6,0-5.1,0.8-7.2,2.4c-1.8,1.4-3.9,4.2-3.9,9.2
				c-0.4,5.9,4.1,10.9,10,11.3c0.3,0,0.6,0,0.8,0c0.8,0,1.7-0.1,2.5-0.2c1.5-0.3,3-1,4.2-1.9l1.4,1.3c0.2,0.2,0.4,0.2,0.6,0
				c0.1-0.1,0.1-0.2,0.1-0.3l1.1-6.8v-0.1c0-0.1,0-0.2-0.1-0.3c-0.1-0.1-0.2-0.1-0.3-0.1l0,0l-6.6,1.8h-0.1c-0.1,0-0.2,0.1-0.2,0.1
				c-0.1,0.1-0.1,0.2-0.1,0.3c0,0.1,0.1,0.2,0.1,0.3l1.4,1.2c-0.7,0.4-1.4,0.7-2.1,0.9c-0.6,0.1-1.2,0.2-1.8,0.2
				c-2.2,0.1-4.3-0.9-5.7-2.6v-0.1c-1.1-1.4-1.7-3.2-1.5-5.1c0-2.9,0.8-5,2.5-6.4c1.4-1,3.2-1.6,4.9-1.6c0.3,0,0.6,0,0.9,0.1h0.2
				c2.2,0.5,5.1,1.2,9.2,9.4c2.2,4.4,4.9,7.2,8.3,8.7c1.6,0.8,3.4,1.2,5.2,1.2c1.2,0,2.5-0.2,3.7-0.7c2-0.7,6.7-3.3,6.7-10.8
				C84.6,93.4,82.4,90.6,80.7,89.2z"/>
		</g>
		<g>
			<path class="st0" d="M84,46.4c-1-1.2-2.5-1.9-4-2.1c0.2-1.5,0.5-2.9,0.9-4.3c0.4-1,1-1.9,1.9-2.6l-1.5-0.1
				c-1.2,1.2-2,2.8-2.2,4.5v-8.8l-1.3-0.2v7.5c-0.3-1.1-0.7-2.3-1.2-3.4c-0.3-0.7-0.7-1.3-1.2-1.8l-1.3,0.1c0.9,1.3,1.7,2.8,2.1,4.4
				c0.4,1.5,0.6,3,0.5,4.6c-1.5,0.1-2.9,0.8-3.9,1.9c-1.8,2-1,5.3-1,5.3s0.1,0.3,0.2,1h5.7c0.2,0,0.3,0.1,0.3,0.3v0.5
				c0,0.2-0.1,0.3-0.3,0.3h-5.5c0.3,1.3,0.6,3.2,1.1,5.4h4.3c0.2,0,0.3,0.1,0.3,0.3c0,0,0,0,0,0v0.5c0,0.2-0.1,0.3-0.3,0.3l0,0h-4.1
				l1.1,5.4h3c0.2,0,0.3,0.1,0.3,0.3c0,0,0,0,0,0v0.5c0,0.1-0.1,0.3-0.3,0.3c0,0,0,0,0,0h-2.8c1.1,5.8,2.2,11.1,2.2,11.4
				c0.1,0.7,0.6,2.5,1.3,2.5c0.9,0,1.2-2,1.2-2L84.8,52C84.8,52,85.8,48.6,84,46.4z"/>
		</g>
	</g>
</g>
</svg>
