<?xml version="1.0" encoding="utf-8"?>
<!-- Generator: Adobe Illustrator 22.0.1, SVG Export Plug-In . SVG Version: 6.00 Build 0)  -->
<svg version="1.1" id="Layer_1" xmlns="http://www.w3.org/2000/svg" xmlns:xlink="http://www.w3.org/1999/xlink" x="0px" y="0px"
	 viewBox="0 0 101.5 184.3" style="enable-background:new 0 0 101.5 184.3;" xml:space="preserve">
<style type="text/css">
	.st0{fill:#FFFFFF;}
	.st1{fill:#DDA63A;}
	.st2{enable-background:new    ;}
</style>
<title>TARGET 1 B</title>
<g id="WHITE_BG">
	<g>
		<rect y="0" class="st0" width="101.5" height="184.2"/>
	</g>
</g>
<g id="TARGETS">
	<g>
		<g>
			<path class="st1" d="M7.8,132.2h-1v-6.4h2.1c1.6,0,2.2,1,2.2,2c0,1-0.6,2-2.2,2H7.8V132.2z M7.8,128.9H9c0.6,0.1,1.2-0.4,1.2-1
				c0.1-0.6-0.4-1.2-1-1.2c-0.1,0-0.1,0-0.2,0H7.8V128.9z"/>
		</g>
		<g>
			<path class="st1" d="M12.7,132.2h-1v-6.4h2.1c1.6,0,2.2,0.7,2.2,1.9c0.1,0.7-0.3,1.4-1,1.7l1.3,2.8h-1.1l-1.2-2.6h-1.3V132.2z
				 M12.7,128.7H14c0.9,0,1-0.5,1-1s-0.1-1-1-1h-1.3V128.7z"/>
		</g>
		<g>
			<path class="st1" d="M20.6,129.3h-2.6v2h2.9v0.9H17v-6.4h3.9v0.9h-3v1.8h2.6V129.3z"/>
		</g>
		<g>
			<path class="st1" d="M26.3,125.8l-2,6.4h-1l-2-6.4h1l1.5,5.2l1.5-5.2L26.3,125.8z"/>
		</g>
		<g>
			<path class="st1" d="M30.4,129.3h-2.6v2h2.9v0.9h-3.9v-6.4h3.9v0.9h-2.9v1.8h2.6V129.3z"/>
		</g>
		<g>
			<path class="st1" d="M35.2,132.2l-2.8-4.5v4.5h-0.9v-6.4h0.9l2.8,4.5v-4.5H36v6.4H35.2z"/>
		</g>
		<g>
			<path class="st1" d="M39.2,126.7v5.5h-1v-5.5h-1.6v-0.9h4.3v0.9H39.2z"/>
		</g>
		<g>
			<path class="st1" d="M10.1,139.6h-2l-0.4,1.6h-1l2-6.4h1l2,6.4h-1L10.1,139.6z M9.1,136l-0.8,2.8h1.6L9.1,136z"/>
		</g>
		<g>
			<path class="st1" d="M11.8,138c0-2,0.7-3.3,2.6-3.3c0.6,0,1.3,0.1,1.8,0.3v1c-0.5-0.2-1.1-0.4-1.7-0.4c-1.3,0-1.8,0.9-1.8,2.4
				s0.5,2.4,1.8,2.4c0.3,0,0.6,0,0.9-0.1v-1.7h-1.1v-0.9h2.1v3.2c-0.6,0.3-1.3,0.4-2,0.4C12.5,141.3,11.8,140,11.8,138z"/>
		</g>
		<g>
			<path class="st1" d="M18.3,141.2h-1v-6.4h2.1c1.6,0,2.2,0.7,2.2,1.9c0.1,0.7-0.3,1.4-1,1.7l1.3,2.8h-1.1l-1.1-2.6h-1.3V141.2z
				 M18.3,137.7h1.3c0.9,0,1-0.5,1-1s-0.1-1-1-1h-1.3V137.7z"/>
		</g>
		<g>
			<path class="st1" d="M22.5,141.2v-6.4h1v6.4H22.5z"/>
		</g>
		<g>
			<path class="st1" d="M27.1,134.7c0.5,0,1,0.1,1.5,0.3v0.9c-0.5-0.2-0.9-0.3-1.4-0.3c-1.2,0-1.7,0.8-1.7,2.4s0.5,2.4,1.7,2.4
				c0.5,0,1-0.1,1.4-0.3v0.9c-0.5,0.2-1,0.3-1.5,0.3c-1.9,0-2.6-1.2-2.6-3.3S25.2,134.7,27.1,134.7z"/>
		</g>
		<g>
			<path class="st1" d="M29.4,139.2v-4.4h1v4.3c-0.1,0.7,0.4,1.2,1,1.3c0.1,0,0.2,0,0.3,0c0.7,0.1,1.3-0.4,1.4-1c0-0.1,0-0.2,0-0.3
				v-4.3H34v4.4c0.1,1.1-0.8,2.1-1.9,2.1c-0.1,0-0.3,0-0.4,0c-1.1,0.1-2.1-0.7-2.3-1.8C29.4,139.4,29.4,139.3,29.4,139.2z"/>
		</g>
		<g>
			<path class="st1" d="M35.9,140.3h2.8v0.9H35v-6.4h1L35.9,140.3z"/>
		</g>
		<g>
			<path class="st1" d="M40.7,135.7v5.5h-1v-5.5H38v-0.9h4.3v0.9H40.7z"/>
		</g>
		<g>
			<path class="st1" d="M42.9,139.2v-4.4h1v4.3c0,0.8,0.6,1.4,1.4,1.4s1.4-0.6,1.4-1.4v-4.3h1v4.4c0.1,1.1-0.8,2.1-1.9,2.1
				c-0.1,0-0.3,0-0.4,0c-1.1,0.2-2.1-0.5-2.4-1.5C42.9,139.6,42.9,139.4,42.9,139.2z"/>
		</g>
		<g>
			<path class="st1" d="M49.4,141.2h-1v-6.4h2.1c1.7,0,2.2,0.7,2.2,1.9c0.1,0.7-0.3,1.4-1,1.7l1.3,2.8h-1.1l-1.2-2.6h-1.3V141.2z
				 M49.4,137.7h1.3c0.9,0,1-0.5,1-1s-0.1-1-1-1h-1.3V137.7z"/>
		</g>
		<g>
			<path class="st1" d="M56.8,139.6h-2l-0.5,1.6h-1l2-6.4h1l2,6.4h-1L56.8,139.6z M55.8,136l-0.8,2.8h1.6L55.8,136z"/>
		</g>
		<g>
			<path class="st1" d="M59.7,140.3h2.8v0.9h-3.7v-6.4h1L59.7,140.3z"/>
		</g>
		<g>
			<path class="st1" d="M66.6,135.7v5.5h-1v-5.5H64v-0.9h4.3v0.9H66.6z"/>
		</g>
		<g>
			<path class="st1" d="M69.7,141.2h-1v-6.4h2.1c1.6,0,2.2,0.7,2.2,1.9c0.1,0.7-0.3,1.4-1,1.7l1.3,2.8h-1.1l-1.2-2.6h-1.3V141.2z
				 M69.7,137.7H71c0.9,0,1-0.5,1-1s-0.1-1-1-1h-1.3V137.7z"/>
		</g>
		<g>
			<path class="st1" d="M77,139.6h-2l-0.4,1.6h-1l2-6.4h1l2,6.4h-1L77,139.6z M76,136l-0.8,2.8h1.6L76,136z"/>
		</g>
		<g>
			<path class="st1" d="M79,141.2v-6.4h1.9c2.1,0,2.7,1.4,2.7,3.2s-0.6,3.2-2.7,3.2H79z M80,140.3h1c1.3,0,1.7-0.9,1.7-2.3
				s-0.4-2.3-1.7-2.3h-1V140.3z"/>
		</g>
		<g>
			<path class="st1" d="M88,138.3h-2.7v2h2.9v0.9h-3.9v-6.4h3.9v0.9h-2.9v1.8H88V138.3z"/>
		</g>
		<g>
			<path class="st1" d="M7.8,150.2h-1v-6.4H9c1.6,0,2.2,0.7,2.2,1.9c0.1,0.7-0.3,1.4-1,1.7l1.3,2.8h-1.2l-1.1-2.6H7.8V150.2z
				 M7.8,146.7h1.3c0.9,0,1-0.5,1-1s-0.1-1-1-1H7.8V146.7z"/>
		</g>
		<g>
			<path class="st1" d="M15.7,147.3H13v2h3v0.9h-3.9v-6.4H16v0.9h-3v1.8h2.7L15.7,147.3z"/>
		</g>
		<g>
			<path class="st1" d="M20.9,148.3c0,1.2-0.7,2-2.4,2c-0.6,0-1.3-0.1-1.9-0.4V149c0.6,0.3,1.2,0.4,1.8,0.4c1.1,0,1.5-0.5,1.5-1.1
				s-0.3-0.9-1.2-1c-1.5-0.2-2.1-0.6-2.1-1.8c0-0.9,0.5-1.8,2.3-1.8c0.6,0,1.2,0.1,1.7,0.3v1c-0.5-0.2-1.1-0.3-1.7-0.3
				c-1,0-1.3,0.4-1.3,1s0.4,0.8,1.2,0.9C20.1,146.7,20.9,147,20.9,148.3z"/>
		</g>
		<g>
			<path class="st1" d="M23.8,144.7v5.5h-1v-5.5h-1.7v-0.9h4.3v0.9H23.8z"/>
		</g>
		<g>
			<path class="st1" d="M27,150.2h-1v-6.4h2.1c1.6,0,2.2,0.7,2.2,1.9c0.1,0.7-0.3,1.4-1,1.7l1.3,2.8h-1.1l-1.2-2.6H27V150.2z
				 M27,146.7h1.2c0.9,0,1-0.5,1-1s-0.1-1-1-1H27V146.7z"/>
		</g>
		<g>
			<path class="st1" d="M31.3,150.2v-6.4h1v6.4H31.3z"/>
		</g>
		<g>
			<path class="st1" d="M35.9,143.7c0.5,0,1,0.1,1.5,0.3v0.9c-0.4-0.2-0.9-0.3-1.4-0.3c-1.2,0-1.7,0.8-1.7,2.4s0.5,2.4,1.7,2.4
				c0.5,0,1-0.1,1.4-0.3v0.9c-0.5,0.2-1,0.3-1.5,0.3c-1.9,0-2.6-1.2-2.6-3.3S34,143.7,35.9,143.7z"/>
		</g>
		<g>
			<path class="st1" d="M40.5,144.7v5.5h-1v-5.5h-1.7v-0.9h4.3v0.9H40.5z"/>
		</g>
		<g>
			<path class="st1" d="M42.9,150.2v-6.4h1v6.4H42.9z"/>
		</g>
		<g>
			<path class="st1" d="M44.8,147c0-1.8,0.4-3.3,2.5-3.3s2.5,1.5,2.5,3.3s-0.4,3.3-2.5,3.3S44.8,148.8,44.8,147z M45.8,147
				c0,1.5,0.3,2.4,1.5,2.4s1.5-0.9,1.5-2.4s-0.3-2.4-1.5-2.4S45.8,145.5,45.8,147L45.8,147z"/>
		</g>
		<g>
			<path class="st1" d="M54.2,150.2l-2.8-4.5v4.5h-0.9v-6.4h0.9l2.8,4.5v-4.5H55v6.4H54.2z"/>
		</g>
		<g>
			<path class="st1" d="M60.2,148.3c0,1.2-0.7,2-2.4,2c-0.6,0-1.3-0.1-1.9-0.4V149c0.6,0.3,1.2,0.4,1.8,0.4c1.1,0,1.5-0.5,1.5-1.1
				s-0.3-0.9-1.2-1c-1.6-0.2-2.2-0.6-2.2-1.8c0-0.9,0.5-1.8,2.3-1.8c0.6,0,1.2,0.1,1.7,0.3v1c-0.5-0.2-1.1-0.3-1.7-0.3
				c-1,0-1.3,0.4-1.3,1s0.4,0.8,1.2,0.9C59.4,146.7,60.2,147,60.2,148.3z"/>
		</g>
		<g>
			<path class="st1" d="M61.8,149.3l-0.7,2h-0.7l0.2-2H61.8z"/>
		</g>
		<g>
			<path class="st1" d="M10.3,158.3H9.4l-1.6-3.9v4.8h-1v-6.4h1.3l1.7,4.3l1.7-4.3h1.2v6.4h-0.9v-4.8L10.3,158.3z"/>
		</g>
		<g>
			<path class="st1" d="M16.8,157.6h-2l-0.4,1.6h-1l2-6.4h1l2,6.4h-1L16.8,157.6z M15.8,154l-0.8,2.8h1.6L15.8,154z"/>
		</g>
		<g>
			<path class="st1" d="M19.8,159.2h-1v-6.4h2.1c1.6,0,2.2,0.7,2.2,1.9c0.1,0.7-0.3,1.4-1,1.7l1.3,2.8h-1.1l-1.2-2.6h-1.3V159.2z
				 M19.8,155.7H21c0.9,0,1-0.5,1-1s-0.1-1-1-1h-1.2V155.7z"/>
		</g>
		<g>
			<path class="st1" d="M25.4,156.4l-0.5,0.6v2.2H24v-6.4h1v3l2.3-3h1.1l-2.3,2.8l2.5,3.6h-1.2L25.4,156.4z"/>
		</g>
		<g>
			<path class="st1" d="M32.7,156.3H30v2h3v0.9h-3.9v-6.4H33v0.9h-3v1.8h2.7L32.7,156.3z"/>
		</g>
		<g>
			<path class="st1" d="M36.1,153.7v5.5h-1v-5.5h-1.6v-0.9h4.3v0.9H36.1z"/>
		</g>
		<g>
			<path class="st1" d="M39.5,159.2v-6.4h1.9c2.1,0,2.7,1.4,2.7,3.2s-0.6,3.2-2.7,3.2H39.5z M40.5,158.3h1c1.3,0,1.7-0.9,1.7-2.3
				s-0.4-2.3-1.7-2.3h-1V158.3z"/>
		</g>
		<g>
			<path class="st1" d="M45,159.2v-6.4h1v6.4H45z"/>
		</g>
		<g>
			<path class="st1" d="M51.2,157.3c0,1.2-0.7,2-2.4,2c-0.6,0-1.3-0.1-1.9-0.4V158c0.6,0.3,1.2,0.4,1.8,0.4c1.1,0,1.5-0.5,1.5-1.1
				s-0.3-0.9-1.2-1c-1.6-0.2-2.2-0.6-2.2-1.8c0-0.9,0.5-1.8,2.3-1.8c0.6,0,1.2,0.1,1.7,0.3v1c-0.5-0.2-1.1-0.3-1.7-0.3
				c-1,0-1.3,0.4-1.3,1s0.4,0.8,1.2,0.9C50.4,155.7,51.2,156,51.2,157.3z"/>
		</g>
		<g>
			<path class="st1" d="M54.1,153.7v5.5h-1v-5.5h-1.6v-0.9h4.3v0.9H54.1z"/>
		</g>
		<g>
			<path class="st1" d="M56,156c0-1.8,0.4-3.3,2.5-3.3s2.5,1.5,2.5,3.3s-0.4,3.3-2.5,3.3S56,157.8,56,156z M57,156
				c0,1.5,0.3,2.4,1.5,2.4s1.5-0.9,1.5-2.4s-0.3-2.4-1.5-2.4S56.9,154.5,57,156L57,156z"/>
		</g>
		<g>
			<path class="st1" d="M62.7,159.2h-1v-6.4h2.1c1.7,0,2.2,0.7,2.2,1.9c0.1,0.7-0.3,1.4-1,1.7l1.3,2.8h-1.2l-1.2-2.6h-1.3V159.2z
				 M62.7,155.7H64c0.9,0,1-0.5,1-1s-0.1-1-1-1h-1.3V155.7z"/>
		</g>
		<g>
			<path class="st1" d="M69,153.7v5.5h-1v-5.5h-1.7v-0.9h4.3v0.9H69z"/>
		</g>
		<g>
			<path class="st1" d="M71.4,159.2v-6.4h1v6.4H71.4z"/>
		</g>
		<g>
			<path class="st1" d="M73.4,156c0-1.8,0.4-3.3,2.4-3.3s2.5,1.5,2.5,3.3s-0.4,3.3-2.5,3.3S73.4,157.8,73.4,156z M74.4,156
				c0,1.5,0.3,2.4,1.5,2.4s1.5-0.9,1.5-2.4s-0.3-2.4-1.5-2.4S74.3,154.5,74.4,156L74.4,156z"/>
		</g>
		<g>
			<path class="st1" d="M82.8,159.2l-2.8-4.5v4.5h-0.9v-6.4H80l2.8,4.5v-4.5h0.9v6.4H82.8z"/>
		</g>
		<g>
			<path class="st1" d="M88.8,157.3c0,1.2-0.7,2-2.4,2c-0.6,0-1.3-0.1-1.9-0.4V158c0.6,0.3,1.2,0.4,1.8,0.4c1.1,0,1.5-0.5,1.5-1.1
				s-0.3-0.9-1.2-1c-1.6-0.2-2.2-0.6-2.2-1.8c0-0.9,0.5-1.8,2.3-1.8c0.6,0,1.2,0.1,1.7,0.3v1c-0.5-0.2-1.1-0.3-1.7-0.3
				c-1,0-1.3,0.4-1.3,1s0.4,0.8,1.2,0.9C88.1,155.7,88.8,156,88.8,157.3z"/>
		</g>
		<g>
			<path class="st1" d="M10.1,166.6h-2l-0.4,1.6h-1l2-6.4h1l2,6.4h-1L10.1,166.6z M9.1,163l-0.8,2.8h1.6L9.1,163z"/>
		</g>
		<g>
			<path class="st1" d="M15.8,168.2l-2.8-4.5v4.5h-0.9v-6.4H13l2.8,4.5v-4.5h0.9v6.4H15.8z"/>
		</g>
		<g>
			<path class="st1" d="M17.6,168.2v-6.4h1.9c2.1,0,2.7,1.4,2.7,3.2s-0.6,3.2-2.7,3.2H17.6z M18.6,167.3h1c1.3,0,1.7-0.9,1.7-2.3
				s-0.4-2.3-1.7-2.3h-1V167.3z"/>
		</g>
		<g>
			<path class="st1" d="M28,165.3h-2.6v2h2.9v0.9h-3.9v-6.4h3.9v0.9h-2.9v1.8H28V165.3z"/>
		</g>
		<g>
			<path class="st1" d="M32.6,161.8h1.1l-1.9,3.1l1.9,3.3h-1.2l-1.4-2.6l-1.4,2.6h-1.1l1.9-3.3l-1.9-3.1h1.1l1.4,2.5L32.6,161.8z"/>
		</g>
		<g>
			<path class="st1" d="M35.3,168.2h-1v-6.4h2c1.6,0,2.2,0.9,2.2,2s-0.6,2-2.2,2h-1V168.2z M35.3,164.9h1.1c0.6,0.1,1.2-0.4,1.2-1
				s-0.4-1.2-1-1.2c-0.1,0-0.1,0-0.2,0h-1.1V164.9z"/>
		</g>
		<g>
			<path class="st1" d="M39,165c0-1.8,0.4-3.3,2.5-3.3s2.5,1.5,2.5,3.3s-0.4,3.3-2.5,3.3S39,166.8,39,165z M40,165
				c0,1.5,0.3,2.4,1.5,2.4s1.5-0.9,1.5-2.4s-0.3-2.4-1.5-2.4S40,163.5,40,165z"/>
		</g>
		<g>
			<path class="st1" d="M45.6,168.2h-1v-6.4h2.1c1.7,0,2.2,0.7,2.2,1.9c0.1,0.7-0.3,1.4-1,1.7l1.3,2.8h-1.1l-1.1-2.6h-1.4V168.2z
				 M45.6,164.7h1.3c0.9,0,1-0.5,1-1s-0.1-1-1-1h-1.3V164.7z"/>
		</g>
		<g>
			<path class="st1" d="M51.8,162.7v5.5h-1v-5.5h-1.6v-0.9h4.3v0.9H51.8z"/>
		</g>
		<g>
			<path class="st1" d="M11.1,175.3c0,1.2-0.7,2-2.4,2c-0.6,0-1.3-0.1-1.9-0.4V176c0.6,0.3,1.2,0.4,1.8,0.4c1.1,0,1.5-0.5,1.5-1.1
				s-0.3-0.9-1.2-1c-1.6-0.2-2.2-0.6-2.2-1.8c0-0.9,0.5-1.8,2.3-1.8c0.6,0,1.2,0.1,1.7,0.3v1c-0.5-0.2-1.1-0.3-1.7-0.3
				c-1,0-1.3,0.4-1.3,1s0.4,0.8,1.2,0.9C10.3,173.7,11.1,174,11.1,175.3z"/>
		</g>
		<g>
			<path class="st1" d="M11.7,175.2v-4.4h1v4.3c-0.1,0.7,0.4,1.2,1,1.3c0.1,0,0.2,0,0.3,0c0.7,0.1,1.3-0.4,1.4-1c0-0.1,0-0.2,0-0.3
				v-4.3h1v4.4c0.1,1.1-0.8,2.1-1.9,2.1c-0.1,0-0.3,0-0.4,0c-1.1,0.2-2.2-0.6-2.3-1.7C11.7,175.5,11.7,175.3,11.7,175.2z"/>
		</g>
		<g>
			<path class="st1" d="M17.3,170.8h2.1c1.6,0,2,0.8,2,1.7c0,0.5-0.3,1-0.8,1.3c0.6,0.2,1.1,0.8,1,1.5c0,1.1-0.5,1.9-2.2,1.9h-2.2
				V170.8z M19.4,171.7h-1.2v1.8h1.2c0.4,0.1,0.9-0.2,0.9-0.7c0-0.1,0-0.1,0-0.2C20.4,172.2,20.3,171.7,19.4,171.7z M18.2,176.3h1.3
				c0.9,0,1.1-0.5,1.1-1s-0.3-1-1.1-1h-1.3L18.2,176.3z"/>
		</g>
		<g>
			<path class="st1" d="M26.5,175.3c0,1.2-0.7,2-2.4,2c-0.6,0-1.3-0.1-1.9-0.4V176c0.6,0.3,1.2,0.4,1.8,0.4c1.1,0,1.5-0.5,1.5-1.1
				s-0.3-0.9-1.2-1c-1.5-0.2-2.2-0.6-2.2-1.8c0-0.9,0.5-1.8,2.3-1.8c0.6,0,1.2,0.1,1.7,0.3v1c-0.5-0.2-1.1-0.3-1.7-0.3
				c-1,0-1.3,0.4-1.3,1s0.4,0.8,1.2,0.9C25.7,173.7,26.5,174,26.5,175.3z"/>
		</g>
		<g>
			<path class="st1" d="M27.3,177.2v-6.4h1v6.4H27.3z"/>
		</g>
		<g>
			<path class="st1" d="M29.3,177.2v-6.4h1.9c2.1,0,2.7,1.4,2.7,3.2s-0.6,3.2-2.7,3.2H29.3z M30.3,176.3h1c1.3,0,1.7-0.9,1.7-2.3
				s-0.4-2.3-1.7-2.3h-1L30.3,176.3z"/>
		</g>
		<g>
			<path class="st1" d="M34.7,177.2v-6.4h1v6.4H34.7z"/>
		</g>
		<g>
			<path class="st1" d="M40.4,174.3h-2.7v2h2.9v0.9h-3.9v-6.4h3.9v0.9h-2.9v1.8h2.7V174.3z"/>
		</g>
		<g>
			<path class="st1" d="M45.7,175.3c0,1.2-0.7,2-2.4,2c-0.6,0-1.3-0.1-1.9-0.4V176c0.6,0.3,1.2,0.4,1.8,0.4c1.2,0,1.5-0.5,1.5-1.1
				s-0.3-0.9-1.2-1c-1.5-0.2-2.2-0.6-2.2-1.8c0-0.9,0.5-1.8,2.3-1.8c0.6,0,1.2,0.1,1.7,0.3v1c-0.5-0.2-1.1-0.3-1.7-0.3
				c-1,0-1.3,0.4-1.3,1s0.4,0.8,1.2,0.9C44.9,173.7,45.7,174,45.7,175.3z"/>
		</g>
	</g>
	<g>
		<rect x="3.3" y="24" class="st1" width="94.8" height="94.8"/>
	</g>
	<g>
		<path class="st1" d="M98.2,20.7H3.3V3.3h94.8V20.7z M4.3,19.7h92.8V4.3H4.3L4.3,19.7z"/>
	</g>
	<g class="st2">
		<path class="st1" d="M6.7,6.9h4.5v1.4H9.9v8.8H8.1V8.3H6.7V6.9z"/>
	</g>
	<g class="st2">
		<path class="st1" d="M11.2,17.1l1.9-10.2h1.9L17,17.1h-1.8l-0.3-1.9h-1.8l-0.3,1.9H11.2z M13.3,13.9h1.4L14,9.8h0L13.3,13.9z"/>
	</g>
	<g class="st2">
		<path class="st1" d="M19.6,12.4v4.7h-1.7V6.9h2.5c1.7,0,2.4,0.9,2.4,2.3v1.3c0,1.1-0.4,1.7-1.4,2l1.6,4.6h-1.8L19.6,12.4z
			 M19.6,8.3v3.2h0.6c0.6,0,0.8-0.3,0.8-0.8V9.2c0-0.6-0.3-0.8-0.8-0.8H19.6z"/>
	</g>
	<g class="st2">
		<path class="st1" d="M26.4,11.7h2.4v5.4h-1.2V16c-0.2,0.8-0.7,1.2-1.6,1.2c-1.5,0-2.1-1.2-2.1-2.7V9.6c0-1.6,0.8-2.7,2.6-2.7
			c1.9,0,2.4,1.1,2.4,2.6v0.9h-1.6v-1c0-0.6-0.2-1-0.9-1c-0.6,0-0.9,0.4-0.9,1v5.5c0,0.6,0.3,1,0.8,1c0.6,0,0.8-0.3,0.8-1V13h-0.8
			V11.7z"/>
	</g>
	<g class="st2">
		<path class="st1" d="M30.2,6.9h4.1v1.4h-2.4v2.9h1.7v1.4h-1.7v3.1h2.4v1.4h-4.1V6.9z"/>
	</g>
	<g class="st2">
		<path class="st1" d="M35.1,6.9h4.5v1.4h-1.4v8.8h-1.7V8.3h-1.4V6.9z"/>
	</g>
	<g class="st2">
		<path class="st1" d="M89.4,6.9h2.5c1.7,0,2.3,0.8,2.3,2.2v1c0,0.9-0.3,1.4-1,1.6c0.9,0.2,1.3,0.8,1.3,1.7v1.3
			c0,1.4-0.6,2.2-2.4,2.2h-2.7V6.9z M91.1,11.2h0.6c0.6,0,0.8-0.3,0.8-0.8V9.2c0-0.6-0.3-0.8-0.8-0.8h-0.6V11.2z M91.1,12.5v3.2h0.8
			c0.6,0,0.8-0.3,0.8-0.8v-1.5c0-0.5-0.3-0.8-0.9-0.8H91.1z"/>
	</g>
	<g class="st2">
		<path class="st1" d="M78.7,15.2c0-1,0.3-1.7,1.3-2.7l1-1c0.6-0.6,0.6-0.9,0.6-1.8V8.9c0-0.6-0.3-0.8-0.6-0.8
			c-0.4,0-0.7,0.2-0.7,0.8v1.3h-1.6V9c0-1.4,0.8-2.2,2.3-2.2c1.5,0,2.2,0.7,2.2,2.1v1c0,1-0.2,1.6-1.1,2.6L81,13.6
			c-0.4,0.5-0.7,0.8-0.7,1.6v0.5h2.8v1.4h-4.4V15.2z"/>
	</g>
	<g>
		<polygon class="st1" points="85.4,9.9 85.4,14.1 87.6,12 		"/>
	</g>
	<g>
		<path class="st1" d="M98.2,180.9h-95v-58.8h95V180.9z M4.2,179.9h93v-56.8h-93V179.9z"/>
	</g>
	<g>
		<g>
			<g>
				<path class="st0" d="M36.4,48.3c0,0,2.2-1.2,2.2-2.6c0-1.8-2.2-4-2.2-4s-2.2,2.3-2.2,4C34.3,47.1,35.9,48,36.4,48.3z"/>
			</g>
			<g>
				<path class="st0" d="M32.9,50.9c0,0,0.5,0.7,3.1,1.1c0,0,0.3-2.5-0.7-3.5c0,0-0.5-0.7-3.7-2.6C31.6,45.9,31.2,49.7,32.9,50.9z"
					/>
			</g>
			<g>
				<path class="st0" d="M32.6,56c0,0,0.6,0.8,3.4,1.2c0,0,0.3-2.7-0.7-3.8c0,0-0.5-0.8-4-2.8C31.3,50.6,30.9,54.8,32.6,56z"/>
			</g>
			<g>
				<path class="st0" d="M31.3,56c0,0-0.6,4.5,1.2,5.8c0,0,0.7,0.8,3.5,1.3c0,0,0.4-2.8-0.6-3.9C35.4,59.2,34.8,58.1,31.3,56z"/>
			</g>
			<g>
				<path class="st0" d="M35.2,64.6c0,0-0.9-1.2-4.5-3.1c0,0-0.3,4.7,1.5,5.9c0,0,0.9,0.9,3.7,1.3C35.9,68.7,36.3,65.7,35.2,64.6z"
					/>
			</g>
			<g>
				<path class="st0" d="M37.5,48.5c-1,1-0.7,3.5-0.7,3.5c2.6-0.4,3.1-1.1,3.1-1.1c1.7-1.2,1.3-5,1.3-5C38,47.8,37.5,48.5,37.5,48.5
					z"/>
			</g>
			<g>
				<path class="st0" d="M37.6,53.4c-1,1.1-0.7,3.8-0.7,3.8c2.8-0.4,3.4-1.2,3.4-1.2c1.8-1.2,1.4-5.4,1.4-5.4
					C38.1,52.6,37.6,53.4,37.6,53.4z"/>
			</g>
			<g>
				<path class="st0" d="M37.5,59.2c-1,1.1-0.6,3.9-0.6,3.9c2.8-0.4,3.5-1.3,3.5-1.3c1.8-1.2,1.2-5.8,1.2-5.8
					C38,58.1,37.5,59.2,37.5,59.2z"/>
			</g>
			<g>
				<path class="st0" d="M37.6,64.6c-1,1.1-0.7,4.1-0.7,4.1c2.8-0.4,3.7-1.3,3.7-1.3c1.8-1.2,1.5-5.9,1.5-5.9
					C38.5,63.4,37.6,64.6,37.6,64.6z"/>
			</g>
			<g>
				<rect x="35.8" y="69.5" class="st0" width="1.2" height="7.4"/>
			</g>
			<g>
				<path class="st0" d="M32.5,37.6c0-0.2-0.1-0.4-0.3-0.5s-0.4,0.1-0.5,0.3c0,0,0,0.1,0,0.1v7.6l0.8,0.5V37.6z"/>
			</g>
			<g>
				<path class="st0" d="M34.2,43.3v-7.1c0-0.2-0.2-0.4-0.4-0.4c0,0,0,0,0,0c-0.2,0-0.4,0.2-0.4,0.4v9.1
					C33.6,44.6,33.8,43.9,34.2,43.3z"/>
			</g>
			<g>
				<path class="st0" d="M35.9,34.2c0-0.2-0.2-0.4-0.4-0.4c-0.2,0-0.4,0.2-0.4,0.4c0,0,0,0,0,0V42l0.8-1.1V34.2z"/>
			</g>
			<g>
				<path class="st0" d="M41.2,37.6c0-0.2-0.2-0.4-0.4-0.4s-0.4,0.2-0.4,0.4v8l0.8-0.5V37.6z"/>
			</g>
			<g>
				<path class="st0" d="M39.5,45.3v-9c0-0.2-0.2-0.4-0.5-0.3c-0.2,0-0.3,0.2-0.3,0.3v7C39,44,39.3,44.7,39.5,45.3L39.5,45.3z"/>
			</g>
			<g>
				<path class="st0" d="M37.8,34.2c0-0.2-0.2-0.4-0.4-0.4c-0.2,0-0.4,0.2-0.4,0.4c0,0,0,0,0,0v6.7l0.8,1.1V34.2z"/>
			</g>
			<g>
				<path class="st0" d="M51,48.3c0,0,2.2-1.2,2.2-2.6c0-1.8-2.2-4-2.2-4s-2.2,2.3-2.2,4C48.8,47.1,50.5,48,51,48.3z"/>
			</g>
			<g>
				<path class="st0" d="M47.4,50.9c0,0,0.5,0.7,3.1,1.1c0,0,0.3-2.5-0.7-3.5c0,0-0.5-0.8-3.7-2.6C46.1,45.9,45.8,49.7,47.4,50.9z"
					/>
			</g>
			<g>
				<path class="st0" d="M47.2,56c0,0,0.6,0.8,3.4,1.2c0,0,0.3-2.7-0.7-3.8c0,0-0.5-0.8-4-2.8C45.8,50.6,45.4,54.8,47.2,56z"/>
			</g>
			<g>
				<path class="st0" d="M45.9,56c0,0-0.6,4.5,1.2,5.8c0,0,0.7,0.8,3.5,1.3c0,0,0.4-2.8-0.6-3.9C49.9,59.2,49.4,58.1,45.9,56z"/>
			</g>
			<g>
				<path class="st0" d="M49.8,64.6c0,0-0.9-1.2-4.5-3.1c0,0-0.3,4.7,1.5,5.9c0,0,0.9,0.9,3.7,1.3C50.5,68.7,50.8,65.7,49.8,64.6z"
					/>
			</g>
			<g>
				<path class="st0" d="M52.1,48.5c-1,1-0.7,3.5-0.7,3.5c2.6-0.4,3.1-1.1,3.1-1.1c1.7-1.2,1.3-5,1.3-5
					C52.5,47.7,52.1,48.5,52.1,48.5z"/>
			</g>
			<g>
				<path class="st0" d="M52.1,53.4c-1,1.1-0.7,3.8-0.7,3.8c2.8-0.5,3.4-1.2,3.4-1.2c1.8-1.3,1.4-5.4,1.4-5.4
					C52.6,52.6,52.1,53.4,52.1,53.4z"/>
			</g>
			<g>
				<path class="st0" d="M54.9,61.8c1.8-1.2,1.2-5.8,1.2-5.8c-3.5,2-4.1,3.2-4.1,3.2c-1,1.1-0.6,3.9-0.6,3.9
					C54.2,62.6,54.9,61.8,54.9,61.8z"/>
			</g>
			<g>
				<path class="st0" d="M52.1,64.6c-1,1.1-0.7,4.1-0.7,4.1c2.8-0.4,3.7-1.3,3.7-1.3c1.8-1.3,1.5-5.9,1.5-5.9
					C53,63.4,52.1,64.6,52.1,64.6z"/>
			</g>
			<g>
				<rect x="50.3" y="69.5" class="st0" width="1.2" height="7.4"/>
			</g>
			<g>
				<path class="st0" d="M47,37.6c0-0.2-0.2-0.4-0.4-0.4c-0.2,0-0.4,0.2-0.4,0.4c0,0,0,0,0,0v7.6l0.8,0.5V37.6z"/>
			</g>
			<g>
				<path class="st0" d="M48.7,43.3v-7.1c0-0.2-0.2-0.4-0.4-0.4s-0.4,0.2-0.4,0.4v9.1C48.1,44.6,48.4,43.9,48.7,43.3z"/>
			</g>
			<g>
				<path class="st0" d="M50.4,34.2c0-0.2-0.2-0.4-0.4-0.4c-0.2,0-0.4,0.2-0.4,0.4V42l0.8-1.1V34.2z"/>
			</g>
			<g>
				<path class="st0" d="M55.7,37.6c0-0.2-0.2-0.4-0.4-0.4c-0.2,0-0.4,0.2-0.4,0.4v8l0.8-0.5V37.6z"/>
			</g>
			<g>
				<path class="st0" d="M54,45.3v-9c0-0.2-0.1-0.4-0.3-0.5c-0.2,0-0.4,0.1-0.5,0.3c0,0,0,0.1,0,0.1v7C53.5,44,53.8,44.7,54,45.3
					L54,45.3z"/>
			</g>
			<g>
				<path class="st0" d="M52.3,34.2c0-0.2-0.2-0.4-0.4-0.4c-0.2,0-0.4,0.2-0.4,0.4v6.7l0.8,1.1V34.2z"/>
			</g>
			<g>
				<path class="st0" d="M65.1,48.4c0,0,2.2-1.2,2.2-2.6c0-1.8-2.2-4-2.2-4s-2.2,2.3-2.2,4C62.9,47.3,64.6,48.1,65.1,48.4z"/>
			</g>
			<g>
				<path class="st0" d="M61.5,51c0,0,0.5,0.7,3.1,1.1c0,0,0.3-2.5-0.7-3.5c0,0-0.5-0.8-3.7-2.6C60.2,46,59.9,49.8,61.5,51z"/>
			</g>
			<g>
				<path class="st0" d="M61.3,56.1c0,0,0.6,0.8,3.4,1.2c0,0,0.3-2.7-0.7-3.8c0,0-0.5-0.8-4-2.8C59.9,50.7,59.5,54.9,61.3,56.1z"/>
			</g>
			<g>
				<path class="st0" d="M60,56.1c0,0-0.6,4.5,1.2,5.8c0,0,0.7,0.8,3.5,1.3c0,0,0.4-2.8-0.6-3.9C64,59.3,63.5,58.2,60,56.1z"/>
			</g>
			<g>
				<path class="st0" d="M60.9,67.5c0,0,0.9,0.9,3.7,1.3c0,0,0.3-3-0.7-4.1c0,0-0.9-1.2-4.5-3.1C59.4,61.6,59.1,66.3,60.9,67.5z"/>
			</g>
			<g>
				<path class="st0" d="M66.2,48.6c-1,1-0.7,3.5-0.7,3.5c2.6-0.4,3.1-1.1,3.1-1.1c1.7-1.2,1.3-5,1.3-5
					C66.6,47.9,66.2,48.6,66.2,48.6z"/>
			</g>
			<g>
				<path class="st0" d="M66.2,53.6c-1,1.1-0.7,3.8-0.7,3.8c2.8-0.5,3.4-1.2,3.4-1.2c1.8-1.3,1.4-5.4,1.4-5.4
					C66.7,52.7,66.2,53.6,66.2,53.6z"/>
			</g>
			<g>
				<path class="st0" d="M69,61.9c1.8-1.3,1.2-5.8,1.2-5.8c-3.5,2-4.1,3.2-4.1,3.2c-1,1.1-0.6,3.9-0.6,3.9
					C68.3,62.7,69,61.9,69,61.9z"/>
			</g>
			<g>
				<path class="st0" d="M66.2,64.7c-1,1.1-0.7,4.1-0.7,4.1c2.8-0.4,3.7-1.3,3.7-1.3c1.8-1.3,1.5-5.9,1.5-5.9
					C67.1,63.5,66.2,64.7,66.2,64.7z"/>
			</g>
			<g>
				<rect x="64.4" y="69.6" class="st0" width="1.2" height="7.4"/>
			</g>
			<g>
				<path class="st0" d="M61.1,37.7c0-0.2-0.2-0.4-0.4-0.4s-0.4,0.2-0.4,0.4v7.6l0.8,0.5V37.7z"/>
			</g>
			<g>
				<path class="st0" d="M62.8,43.4v-7c0-0.2-0.2-0.4-0.4-0.4c0,0,0,0,0,0c-0.2,0-0.4,0.2-0.4,0.4v9l0,0
					C62.2,44.7,62.5,44.1,62.8,43.4z"/>
			</g>
			<g>
				<path class="st0" d="M64.5,34.3c0-0.2-0.2-0.4-0.4-0.4c-0.2,0-0.4,0.2-0.4,0.4v7.8l0.8-1.1V34.3z"/>
			</g>
			<g>
				<path class="st0" d="M69.8,37.7c0-0.2-0.2-0.4-0.4-0.4l0,0c-0.2,0-0.4,0.2-0.4,0.4v0v8l0.8-0.5L69.8,37.7z"/>
			</g>
			<g>
				<path class="st0" d="M68.1,45.4v-9c0-0.2-0.1-0.4-0.3-0.5c-0.2,0-0.4,0.1-0.5,0.3c0,0,0,0.1,0,0.1v7
					C67.7,44.1,67.9,44.7,68.1,45.4z"/>
			</g>
			<g>
				<path class="st0" d="M66.4,34.3c0-0.2-0.2-0.4-0.4-0.4c-0.2,0-0.4,0.2-0.4,0.4V41l0.8,1.1V34.3z"/>
			</g>
		</g>
		<g>
			<path class="st0" d="M70.6,90.1l-7.2,5.7c-0.1,0.1-0.2,0.1-0.3,0.1c-0.2,0-0.2-0.2-0.2-0.4v-2.9H33.1c-0.1,0-0.2-0.1-0.2-0.3v-5
				c0-0.2,0.1-0.3,0.2-0.3h29.7v-2.8c0-0.2,0.1-0.3,0.2-0.4c0.1,0,0.2,0,0.3,0.1l7.2,5.5c0.2,0.1,0.2,0.4,0.1,0.6
				C70.7,90,70.6,90.1,70.6,90.1L70.6,90.1z"/>
		</g>
		<g>
			<path class="st0" d="M31,104.3l7.2,5.7c0.1,0.1,0.2,0.1,0.3,0.1c0.2,0,0.2-0.1,0.2-0.3v-2.9h29.8c0.1,0,0.3-0.1,0.2-0.3
				c0,0,0,0,0,0v-5c0-0.2-0.1-0.3-0.2-0.3H38.8v-2.8c0-0.2,0-0.3-0.2-0.3c-0.1,0-0.2,0-0.3,0.1l-7.2,5.5c-0.1,0.1-0.2,0.2-0.2,0.4
				C30.9,104.1,30.9,104.2,31,104.3z"/>
		</g>
	</g>
</g>
</svg>
