<?xml version="1.0" encoding="utf-8"?>
<!-- Generator: Adobe Illustrator 22.0.1, SVG Export Plug-In . SVG Version: 6.00 Build 0)  -->
<svg version="1.1" id="Layer_1" xmlns="http://www.w3.org/2000/svg" xmlns:xlink="http://www.w3.org/1999/xlink" x="0px" y="0px"
	 viewBox="0 0 101.5 166.3" style="enable-background:new 0 0 101.5 166.3;" xml:space="preserve">
<style type="text/css">
	.st0{fill:#FFFFFF;}
	.st1{fill:#DDA63A;}
	.st2{enable-background:new    ;}
</style>
<title>TARGET 1 B copy</title>
<g id="WHITE_BG">
	<g>
		<rect y="0" class="st0" width="101.5" height="166.3"/>
	</g>
</g>
<g id="TARGETS">
	<g>
		<g>
			<path class="st1" d="M10.5,129.3H7.8v2h2.9v0.9H6.9v-6.4h3.9v0.9H7.8v1.8h2.6V129.3z"/>
		</g>
		<g>
			<path class="st1" d="M15.3,132.2l-2.8-4.5v4.5h-0.9v-6.4h0.9l2.8,4.5v-4.5h0.9v6.4H15.3z"/>
		</g>
		<g>
			<path class="st1" d="M21.2,130.3c0,1.2-0.7,2-2.4,2c-0.6,0-1.3-0.1-1.9-0.4V131c0.6,0.3,1.2,0.4,1.8,0.4c1.1,0,1.5-0.5,1.5-1.1
				s-0.3-0.9-1.2-1c-1.6-0.2-2.2-0.6-2.2-1.8c0-0.9,0.5-1.8,2.3-1.8c0.6,0,1.2,0.1,1.7,0.3v1c-0.5-0.2-1.1-0.3-1.7-0.3
				c-1,0-1.3,0.4-1.3,1c0,0.7,0.4,0.8,1.2,0.9C20.4,128.7,21.2,129,21.2,130.3z"/>
		</g>
		<g>
			<path class="st1" d="M21.8,130.2v-4.4h1v4.3c-0.1,0.7,0.4,1.2,1,1.3c0.1,0,0.2,0,0.3,0c0.6,0.1,1.3-0.3,1.4-1c0-0.1,0-0.2,0-0.3
				v-4.3h1v4.4c0.1,1.1-0.8,2.1-1.9,2.1c-0.1,0-0.3,0-0.4,0c-1.1,0.2-2.1-0.6-2.3-1.7C21.8,130.5,21.8,130.3,21.8,130.2z"/>
		</g>
		<g>
			<path class="st1" d="M28.3,132.2h-1v-6.4h2.1c1.6,0,2.2,0.7,2.2,1.9c0.1,0.7-0.3,1.4-1,1.7l1.3,2.8h-1.1l-1.2-2.6h-1.3V132.2z
				 M28.3,128.7h1.2c0.9,0,1-0.5,1-1s-0.1-1-1-1h-1.2V128.7z"/>
		</g>
		<g>
			<path class="st1" d="M36.1,129.3h-2.6v2h2.9v0.9h-3.9v-6.4h3.9v0.9h-2.9v1.8h2.7L36.1,129.3z"/>
		</g>
		<g>
			<path class="st1" d="M42.8,130.3c0,1.2-0.7,2-2.4,2c-0.6,0-1.3-0.1-1.9-0.4V131c0.6,0.3,1.2,0.4,1.8,0.4c1.1,0,1.5-0.5,1.5-1.1
				s-0.3-0.9-1.2-1c-1.6-0.2-2.2-0.6-2.2-1.8c0-0.9,0.5-1.8,2.3-1.8c0.6,0,1.2,0.1,1.7,0.3v1c-0.5-0.2-1.1-0.3-1.7-0.3
				c-1,0-1.3,0.4-1.3,1c0,0.7,0.4,0.8,1.2,0.9C42,128.7,42.8,129,42.8,130.3z"/>
		</g>
		<g>
			<path class="st1" d="M45.6,126.7v5.5h-1v-5.5H43v-0.9h4.3v0.9H45.6z"/>
		</g>
		<g>
			<path class="st1" d="M50.4,130.6h-2l-0.5,1.6h-1l2-6.4h1l2,6.4h-1L50.4,130.6z M49.4,127l-0.8,2.8h1.6L49.4,127z"/>
		</g>
		<g>
			<path class="st1" d="M52.4,125.8h2.1c1.6,0,2,0.8,2,1.7c0,0.5-0.3,1-0.8,1.3c0.6,0.2,1.1,0.8,1,1.5c0,1.1-0.5,1.9-2.2,1.9h-2.2
				L52.4,125.8z M54.5,126.7h-1.2v1.8h1.2c0.8,0,1-0.5,1-0.9S55.4,126.7,54.5,126.7z M53.3,131.3h1.3c0.9,0,1.1-0.5,1.1-1
				s-0.3-1-1.1-1h-1.3V131.3z"/>
		</g>
		<g>
			<path class="st1" d="M58.4,131.3h2.8v0.9h-3.7v-6.4h1V131.3z"/>
		</g>
		<g>
			<path class="st1" d="M65.3,129.3h-2.7v2h2.9v0.9h-3.9v-6.4h3.9v0.9h-2.9v1.8h2.7V129.3z"/>
		</g>
		<g>
			<path class="st1" d="M71.3,129.4h-2.6v2.8h-1v-6.4h3.8v0.9h-2.8v1.8h2.6L71.3,129.4z"/>
		</g>
		<g>
			<path class="st1" d="M72.1,129c0-1.8,0.4-3.3,2.5-3.3s2.4,1.5,2.4,3.3c0,1.8-0.4,3.3-2.4,3.3S72.1,130.8,72.1,129z M73.1,129
				c0,1.5,0.3,2.4,1.5,2.4s1.4-0.9,1.4-2.4s-0.3-2.4-1.5-2.4S73.1,127.5,73.1,129L73.1,129z"/>
		</g>
		<g>
			<path class="st1" d="M77.7,129c0-1.8,0.4-3.3,2.5-3.3s2.4,1.5,2.4,3.3s-0.4,3.3-2.4,3.3S77.7,130.8,77.7,129z M78.7,129
				c0,1.5,0.3,2.4,1.5,2.4s1.5-0.9,1.5-2.4s-0.3-2.4-1.5-2.4S78.7,127.5,78.7,129L78.7,129z"/>
		</g>
		<g>
			<path class="st1" d="M83.4,132.2v-6.4h1.9c2.1,0,2.7,1.4,2.7,3.2s-0.6,3.2-2.7,3.2L83.4,132.2z M84.4,131.3h1
				c1.3,0,1.7-0.9,1.7-2.3s-0.4-2.3-1.7-2.3h-1V131.3z"/>
		</g>
		<g>
			<path class="st1" d="M9.4,134.7c0.5,0,1,0.1,1.5,0.3v0.9c-0.5-0.2-0.9-0.3-1.4-0.3c-1.2,0-1.7,0.8-1.7,2.4s0.5,2.4,1.7,2.4
				c0.5,0,1-0.1,1.4-0.3v0.9c-0.5,0.2-1,0.3-1.5,0.3c-1.9,0-2.6-1.2-2.6-3.3S7.5,134.7,9.4,134.7z"/>
		</g>
		<g>
			<path class="st1" d="M11.6,138c0-1.8,0.4-3.3,2.5-3.3s2.4,1.5,2.4,3.3s-0.4,3.3-2.4,3.3S11.6,139.8,11.6,138z M12.6,138
				c0,1.5,0.3,2.4,1.5,2.4s1.5-0.9,1.5-2.4s-0.3-2.4-1.5-2.4S12.6,136.5,12.6,138L12.6,138z"/>
		</g>
		<g>
			<path class="st1" d="M20.6,140.3h-0.9l-1.6-3.9l0,4.8h-1v-6.4h1.2l1.7,4.3l1.7-4.3h1.2v6.4h-1v-4.8L20.6,140.3z"/>
		</g>
		<g>
			<path class="st1" d="M27.5,140.3h-0.9l-1.6-3.9v4.8h-1v-6.4h1.2l1.8,4.3l1.7-4.3H30v6.4h-1v-4.8L27.5,140.3z"/>
		</g>
		<g>
			<path class="st1" d="M30.9,138c0-1.8,0.4-3.3,2.5-3.3s2.5,1.5,2.5,3.3s-0.4,3.3-2.5,3.3S30.9,139.8,30.9,138z M31.9,138
				c0,1.5,0.3,2.4,1.5,2.4s1.5-0.9,1.5-2.4s-0.3-2.4-1.5-2.4S31.8,136.5,31.9,138L31.9,138z"/>
		</g>
		<g>
			<path class="st1" d="M36.5,141.2v-6.4h1.9c2.1,0,2.7,1.4,2.7,3.2s-0.6,3.2-2.7,3.2H36.5z M37.5,140.3h1c1.3,0,1.7-0.9,1.7-2.3
				s-0.4-2.3-1.7-2.3h-1V140.3z"/>
		</g>
		<g>
			<path class="st1" d="M42,141.2v-6.4h1v6.4H42z"/>
		</g>
		<g>
			<path class="st1" d="M46.3,135.7v5.5h-1v-5.5h-1.6v-0.9H48v0.9H46.3z"/>
		</g>
		<g>
			<path class="st1" d="M51.3,138.6v2.6h-1v-2.6l-2.2-3.8h1.1l1.6,3l1.6-3h1.1L51.3,138.6z"/>
		</g>
		<g>
			<path class="st1" d="M58.7,140.3h-0.9l-1.6-3.9v4.8h-1v-6.4h1.2l1.7,4.3l1.8-4.3h1.2v6.4h-1v-4.8L58.7,140.3z"/>
		</g>
		<g>
			<path class="st1" d="M65.2,139.6h-2l-0.5,1.6h-1l2-6.4h1l2,6.4h-1L65.2,139.6z M64.2,136l-0.8,2.8H65L64.2,136z"/>
		</g>
		<g>
			<path class="st1" d="M68.2,141.2h-1v-6.4h2.1c1.7,0,2.2,0.7,2.2,1.9c0.1,0.7-0.3,1.4-1,1.7l1.3,2.8h-1.1l-1.2-2.6h-1.3V141.2z
				 M68.2,137.7h1.2c0.9,0,1-0.5,1-1s-0.1-1-1-1h-1.2V137.7z"/>
		</g>
		<g>
			<path class="st1" d="M73.9,138.4l-0.5,0.6v2.2h-1v-6.4h1v3l2.3-3h1.2l-2.3,2.8l2.6,3.6h-1.2L73.9,138.4z"/>
		</g>
		<g>
			<path class="st1" d="M81.1,138.3h-2.6v2h2.9v0.9h-3.9v-6.4h3.9v0.9h-2.9v1.8h2.7L81.1,138.3z"/>
		</g>
		<g>
			<path class="st1" d="M84.6,135.7v5.5h-0.9v-5.5H82v-0.9h4.3v0.9H84.6z"/>
		</g>
		<g>
			<path class="st1" d="M90.9,139.3c0,1.2-0.7,2-2.4,2c-0.6,0-1.3-0.1-1.9-0.4V140c0.6,0.3,1.2,0.4,1.8,0.4c1.2,0,1.5-0.5,1.5-1.1
				s-0.3-0.9-1.2-1c-1.6-0.2-2.2-0.6-2.2-1.8c0-0.9,0.5-1.8,2.3-1.8c0.6,0,1.2,0.1,1.7,0.3v1c-0.5-0.2-1.1-0.3-1.7-0.3
				c-1,0-1.3,0.4-1.3,1s0.4,0.8,1.2,0.9C90.2,137.7,90.9,138,90.9,139.3z"/>
		</g>
		<g>
			<path class="st1" d="M10.1,148.6h-2l-0.4,1.6h-1l2-6.4h1l2,6.4h-1L10.1,148.6z M9.1,145l-0.8,2.8h1.6L9.1,145z"/>
		</g>
		<g>
			<path class="st1" d="M15.8,150.2l-2.8-4.5v4.5h-0.9v-6.4H13l2.8,4.5v-4.5h0.9v6.4H15.8z"/>
		</g>
		<g>
			<path class="st1" d="M17.6,150.2v-6.4h1.9c2.1,0,2.7,1.4,2.7,3.2s-0.6,3.2-2.7,3.2H17.6z M18.6,149.3h1c1.3,0,1.7-0.9,1.7-2.3
				s-0.4-2.3-1.7-2.3h-1V149.3z"/>
		</g>
		<g>
			<path class="st1" d="M26.5,144.7v5.5h-1v-5.5h-1.7v-0.9h4.3v0.9H26.5z"/>
		</g>
		<g>
			<path class="st1" d="M28.8,150.2v-6.4h1v6.4H28.8z"/>
		</g>
		<g>
			<path class="st1" d="M34.3,149.3h-0.9l-1.6-3.9v4.8h-1v-6.4H32l1.7,4.3l1.7-4.3h1.2v6.4h-1v-4.8L34.3,149.3z"/>
		</g>
		<g>
			<path class="st1" d="M41.3,147.3h-2.7v2h2.9v0.9h-3.9v-6.4h3.9v0.9h-2.9v1.8h2.7V147.3z"/>
		</g>
		<g>
			<path class="st1" d="M43.4,149.3h2.8v0.9h-3.7v-6.4h1L43.4,149.3z"/>
		</g>
		<g>
			<path class="st1" d="M48.2,147.6v2.6h-1v-2.6l-2.2-3.8h1.1l1.6,3l1.6-3h1.1L48.2,147.6z"/>
		</g>
		<g>
			<path class="st1" d="M55.5,148.6h-2l-0.5,1.6h-1l2-6.4h1l2,6.4h-1L55.5,148.6z M54.5,145l-0.8,2.8h1.6L54.5,145z"/>
		</g>
		<g>
			<path class="st1" d="M59.8,143.7c0.5,0,1,0.1,1.5,0.3v0.9c-0.5-0.2-0.9-0.3-1.4-0.3c-1.2,0-1.7,0.8-1.7,2.4s0.5,2.4,1.7,2.4
				c0.5,0,1-0.1,1.4-0.3v0.9c-0.5,0.2-1,0.3-1.5,0.3c-1.9,0-2.6-1.2-2.6-3.3S57.9,143.7,59.8,143.7z"/>
		</g>
		<g>
			<path class="st1" d="M64.5,143.7c0.5,0,1,0.1,1.5,0.3v0.9c-0.4-0.2-0.9-0.3-1.4-0.3c-1.2,0-1.7,0.8-1.7,2.4s0.5,2.4,1.7,2.4
				c0.5,0,1-0.1,1.4-0.3v0.9c-0.5,0.2-1,0.3-1.5,0.3c-1.9,0-2.6-1.2-2.6-3.3S62.6,143.7,64.5,143.7z"/>
		</g>
		<g>
			<path class="st1" d="M70.5,147.3h-2.7v2h2.9v0.9h-3.9v-6.4h3.9v0.9h-2.9v1.8h2.7V147.3z"/>
		</g>
		<g>
			<path class="st1" d="M75.7,148.3c0,1.2-0.7,2-2.4,2c-0.6,0-1.3-0.1-1.9-0.4V149c0.6,0.3,1.2,0.4,1.8,0.4c1.2,0,1.5-0.5,1.5-1.1
				s-0.3-0.9-1.2-1c-1.6-0.2-2.2-0.6-2.2-1.8c0-0.9,0.5-1.8,2.3-1.8c0.6,0,1.2,0.1,1.7,0.3v1c-0.5-0.2-1.1-0.3-1.7-0.3
				c-1,0-1.3,0.4-1.3,1s0.4,0.8,1.2,0.9C74.9,146.7,75.7,147,75.7,148.3z"/>
		</g>
		<g>
			<path class="st1" d="M80.5,148.3c0,1.2-0.7,2-2.4,2c-0.6,0-1.3-0.1-1.9-0.4V149c0.6,0.3,1.2,0.4,1.8,0.4c1.2,0,1.5-0.5,1.5-1.1
				s-0.3-0.9-1.2-1c-1.6-0.2-2.2-0.6-2.2-1.8c0-0.9,0.5-1.8,2.3-1.8c0.6,0,1.2,0.1,1.7,0.3v1c-0.5-0.2-1.1-0.3-1.7-0.3
				c-1,0-1.3,0.4-1.3,1s0.4,0.8,1.2,0.9C79.7,146.7,80.5,147,80.5,148.3z"/>
		</g>
		<g>
			<path class="st1" d="M84.7,144.7v5.5h-1v-5.5h-1.6v-0.9h4.3v0.9H84.7z"/>
		</g>
		<g>
			<path class="st1" d="M86.6,147c0-1.8,0.4-3.3,2.4-3.3s2.5,1.5,2.5,3.3s-0.4,3.3-2.5,3.3S86.6,148.8,86.6,147z M87.6,147
				c0,1.5,0.3,2.4,1.5,2.4s1.5-0.9,1.5-2.4s-0.3-2.4-1.5-2.4S87.6,145.5,87.6,147L87.6,147z"/>
		</g>
		<g>
			<path class="st1" d="M7,159.2v-6.4h1v6.4H7z"/>
		</g>
		<g>
			<path class="st1" d="M12.8,159.2l-2.8-4.5v4.5H9.1v-6.4h0.9l2.8,4.5v-4.5h0.9v6.4H12.8z"/>
		</g>
		<g>
			<path class="st1" d="M18.1,156.4h-2.6v2.8h-0.9v-6.4h3.8v0.9h-2.9v1.8h2.6V156.4z"/>
		</g>
		<g>
			<path class="st1" d="M18.8,156c0-1.8,0.4-3.3,2.5-3.3s2.5,1.5,2.5,3.3s-0.4,3.3-2.5,3.3S18.8,157.8,18.8,156z M19.8,156
				c0,1.5,0.3,2.4,1.5,2.4s1.5-0.9,1.5-2.4s-0.3-2.4-1.5-2.4S19.8,154.5,19.8,156L19.8,156z"/>
		</g>
		<g>
			<path class="st1" d="M25.5,159.2h-1v-6.4h2.1c1.6,0,2.2,0.7,2.2,1.9c0.1,0.7-0.3,1.4-1,1.7l1.3,2.8H28l-1.2-2.6h-1.3V159.2z
				 M25.5,155.7h1.3c0.9,0,1-0.5,1-1s-0.1-1-1-1h-1.3V155.7z"/>
		</g>
		<g>
			<path class="st1" d="M33.1,158.3h-0.9l-1.6-3.9l0,4.8h-1v-6.4H31l1.7,4.3l1.7-4.3h1.2v6.4h-1v-4.8L33.1,158.3z"/>
		</g>
		<g>
			<path class="st1" d="M39.7,157.6h-2l-0.5,1.6h-1l2-6.4h1l2,6.4h-1L39.7,157.6z M38.7,154l-0.8,2.8h1.6L38.7,154z"/>
		</g>
		<g>
			<path class="st1" d="M43.3,153.7v5.5h-1v-5.5h-1.6v-0.9H45v0.9H43.3z"/>
		</g>
		<g>
			<path class="st1" d="M45.7,159.2v-6.4h1v6.4H45.7z"/>
		</g>
		<g>
			<path class="st1" d="M47.6,156c0-1.8,0.4-3.3,2.5-3.3s2.5,1.5,2.5,3.3s-0.4,3.3-2.5,3.3S47.6,157.8,47.6,156z M48.6,156
				c0,1.5,0.3,2.4,1.5,2.4s1.5-0.9,1.5-2.4s-0.3-2.4-1.5-2.4S48.6,154.5,48.6,156L48.6,156z"/>
		</g>
		<g>
			<path class="st1" d="M57,159.2l-2.8-4.5v4.5h-0.9v-6.4h0.9l2.8,4.5v-4.5h0.9v6.4H57z"/>
		</g>
	</g>
	<g>
		<rect x="3.3" y="24" class="st1" width="94.8" height="94.8"/>
	</g>
	<g>
		<path class="st1" d="M98.2,20.7H3.3V3.3h94.8V20.7z M4.3,19.7h92.8V4.3H4.3L4.3,19.7z"/>
	</g>
	<g class="st2">
		<path class="st1" d="M6.7,6.9h4.5v1.4H9.9v8.8H8.1V8.3H6.7V6.9z"/>
	</g>
	<g class="st2">
		<path class="st1" d="M11.2,17.1l1.9-10.2h1.9L17,17.1h-1.8l-0.3-1.9h-1.8l-0.3,1.9H11.2z M13.3,13.9h1.4L14,9.8h0L13.3,13.9z"/>
	</g>
	<g class="st2">
		<path class="st1" d="M19.6,12.4v4.7h-1.7V6.9h2.5c1.7,0,2.4,0.9,2.4,2.3v1.3c0,1.1-0.4,1.7-1.4,2l1.6,4.6h-1.8L19.6,12.4z
			 M19.6,8.3v3.2h0.6c0.6,0,0.8-0.3,0.8-0.8V9.2c0-0.6-0.3-0.8-0.8-0.8H19.6z"/>
	</g>
	<g class="st2">
		<path class="st1" d="M26.4,11.7h2.4v5.4h-1.2V16c-0.2,0.8-0.7,1.2-1.6,1.2c-1.5,0-2.1-1.2-2.1-2.7V9.6c0-1.6,0.8-2.7,2.6-2.7
			c1.9,0,2.4,1.1,2.4,2.6v0.9h-1.6v-1c0-0.6-0.2-1-0.9-1c-0.6,0-0.9,0.4-0.9,1v5.5c0,0.6,0.3,1,0.8,1c0.6,0,0.8-0.3,0.8-1V13h-0.8
			V11.7z"/>
	</g>
	<g class="st2">
		<path class="st1" d="M30.2,6.9h4.1v1.4h-2.4v2.9h1.7v1.4h-1.7v3.1h2.4v1.4h-4.1V6.9z"/>
	</g>
	<g class="st2">
		<path class="st1" d="M35.1,6.9h4.5v1.4h-1.4v8.8h-1.7V8.3h-1.4V6.9z"/>
	</g>
	<g class="st2">
		<path class="st1" d="M89.4,14.5V9.6c0-1.6,0.8-2.7,2.5-2.7c1.9,0,2.4,1.1,2.4,2.6v1.2h-1.6V9.2c0-0.6-0.2-1-0.8-1
			c-0.6,0-0.9,0.4-0.9,1v5.5c0,0.6,0.3,1,0.9,1c0.6,0,0.8-0.4,0.8-1v-1.9h1.6v1.8c0,1.5-0.6,2.5-2.4,2.5
			C90.2,17.2,89.4,16.1,89.4,14.5z"/>
	</g>
	<g class="st2">
		<path class="st1" d="M78.7,15.2c0-1,0.3-1.7,1.3-2.7l1-1c0.6-0.6,0.6-0.9,0.6-1.8V8.9c0-0.6-0.3-0.8-0.6-0.8
			c-0.4,0-0.7,0.2-0.7,0.8v1.3h-1.6V9c0-1.4,0.8-2.2,2.3-2.2c1.5,0,2.2,0.7,2.2,2.1v1c0,1-0.2,1.6-1.1,2.6L81,13.6
			c-0.4,0.5-0.7,0.8-0.7,1.6v0.5h2.8v1.4h-4.4V15.2z"/>
	</g>
	<g>
		<polygon class="st1" points="85.4,9.9 85.4,14.1 87.6,12 		"/>
	</g>
	<g>
		<path class="st1" d="M98.2,162.9h-95v-40.7h95V162.9z M4.2,161.9h93v-38.7h-93V161.9z"/>
	</g>
	<g>
		<g>
			<rect x="31.1" y="94.9" class="st0" width="1" height="10.1"/>
		</g>
		<g>
			<g>
				<rect x="40.1" y="90.5" class="st0" width="3" height="0.7"/>
			</g>
			<g>
				<rect x="55.1" y="90.5" class="st0" width="3" height="0.7"/>
			</g>
			<g>
				<rect x="65.1" y="90.5" class="st0" width="3" height="0.7"/>
			</g>
			<g>
				<rect x="50.1" y="90.5" class="st0" width="3" height="0.7"/>
			</g>
			<g>
				<rect x="20.1" y="90.5" class="st0" width="3" height="0.7"/>
			</g>
			<g>
				<rect x="70.1" y="90.5" class="st0" width="3" height="0.7"/>
			</g>
			<g>
				<rect x="80.1" y="90.5" class="st0" width="2.8" height="0.7"/>
			</g>
			<g>
				<rect x="20.1" y="76.4" class="st0" width="3" height="0.7"/>
			</g>
			<g>
				<rect x="50.1" y="76.4" class="st0" width="3" height="0.7"/>
			</g>
			<g>
				<rect x="65.1" y="76.4" class="st0" width="3" height="0.7"/>
			</g>
			<g>
				<rect x="70.1" y="76.4" class="st0" width="3" height="0.7"/>
			</g>
			<g>
				<rect x="80.1" y="76.4" class="st0" width="2.8" height="0.7"/>
			</g>
			<g>
				<rect x="35.1" y="76.4" class="st0" width="3" height="0.7"/>
			</g>
			<g>
				<rect x="25.1" y="76.4" class="st0" width="3" height="0.7"/>
			</g>
			<g>
				<rect x="20.1" y="62.2" class="st0" width="3" height="0.7"/>
			</g>
			<g>
				<rect x="80.1" y="62.2" class="st0" width="2.8" height="0.7"/>
			</g>
			<g>
				<rect x="50.1" y="62.2" class="st0" width="3" height="0.7"/>
			</g>
			<g>
				<rect x="65.1" y="62.2" class="st0" width="3" height="0.7"/>
			</g>
			<g>
				<rect x="35.1" y="62.2" class="st0" width="3" height="0.7"/>
			</g>
			<g>
				<rect x="40.1" y="62.2" class="st0" width="3" height="0.7"/>
			</g>
			<g>
				<rect x="25.1" y="62.2" class="st0" width="3" height="0.7"/>
			</g>
			<g>
				<rect x="30.1" y="62.2" class="st0" width="3" height="0.7"/>
			</g>
			<g>
				<rect x="60.1" y="48" class="st0" width="3" height="0.7"/>
			</g>
			<g>
				<rect x="65.1" y="48" class="st0" width="3" height="0.7"/>
			</g>
			<g>
				<rect x="55.1" y="48" class="st0" width="3" height="0.7"/>
			</g>
			<g>
				<rect x="20.1" y="48" class="st0" width="3" height="0.7"/>
			</g>
			<g>
				<rect x="50.1" y="48" class="st0" width="3" height="0.7"/>
			</g>
			<g>
				<rect x="30.1" y="48" class="st0" width="3" height="0.7"/>
			</g>
			<g>
				<rect x="35.1" y="48" class="st0" width="3" height="0.7"/>
			</g>
			<g>
				<rect x="45.1" y="48" class="st0" width="3" height="0.7"/>
			</g>
			<g>
				<rect x="40.1" y="48" class="st0" width="3" height="0.7"/>
			</g>
			<g>
				<rect x="75.1" y="48" class="st0" width="3" height="0.7"/>
			</g>
			<g>
				<rect x="70.1" y="48" class="st0" width="3" height="0.7"/>
			</g>
			<g>
				<rect x="25.1" y="48" class="st0" width="3" height="0.7"/>
			</g>
			<g>
				<path class="st0" d="M75.3,103.4V91.2h2.8v-0.7h-2.8V77.1h2.8v-0.7h-2.2c0.5-0.1,0.9-0.3,1.4-0.5c0.1-0.1,0.2-0.1,0.3-0.2
					c0.3-0.3,0.6-0.6,0.7-1c0.3-0.9,0.4-1.9,0.3-2.9L78.2,72c-1,0.5-1.9,1.1-2.7,1.9c-0.4,0.6-0.6,1.3-0.5,2.1h-0.6
					c0.1-0.7-0.1-1.5-0.5-2.1c-0.7-0.7-1.5-1.3-2.4-1.7L71,71.8c0,0-0.2,2.4,0.6,3.6c0.1,0.1,0.2,0.3,0.4,0.4
					c0.1,0.1,0.2,0.1,0.3,0.2c0.6,0.3,1.3,0.5,2,0.6v26.9H60.4V91.2h2.6v-0.7h-2.6v-8.9h-1v21.8H46.2V91.2h1.8v-0.7h-3v0.7h0.2v12.2
					H18.6V72.9l26.7-8.1l14.2-9.3l25-5.8v-2l-1.7,0.4V48H80v0.7h0.2l-21.1,4.9L46,62.2h-1v0.6l-0.2,0.1l-26.2,7.9V37.3h-2.2v68.4
					h68.7v-2.2H75.3z"/>
			</g>
			<g>
				<path class="st0" d="M74.8,63.1c0,0,1.5-0.8,1.5-1.7c0-1.2-1.4-2.6-1.4-2.7l0,0c0,0-1.4,1.5-1.4,2.7
					C73.3,62.3,74.4,62.9,74.8,63.1z"/>
			</g>
			<g>
				<path class="st0" d="M72.4,64.8c0,0,0.4,0.5,2.1,0.7c0,0,0.2-1.6-0.4-2.3c-0.7-0.7-1.5-1.3-2.4-1.7h-0.1c0,0,0,0.3,0,0.7h-1.5
					v0.7h1.5c0,0.1,0,0.2,0,0.3C71.7,63.8,72,64.4,72.4,64.8z"/>
			</g>
			<g>
				<path class="st0" d="M74.5,72.9c0,0,0.3-1.8-0.4-2.6c-0.7-0.8-1.5-1.5-2.5-2l-0.2-0.2c-0.1,1-0.1,2.1,0.2,3.1
					c0.1,0.3,0.3,0.6,0.6,0.8C72.8,72.5,73.6,72.8,74.5,72.9z"/>
			</g>
			<g>
				<path class="st0" d="M77.1,64.8c1.1-0.8,0.8-3.3,0.8-3.3c-0.9,0.4-1.8,1-2.5,1.7c-0.6,0.7-0.4,2.3-0.4,2.3
					C76.8,65.2,77.1,64.8,77.1,64.8z"/>
			</g>
			<g>
				<path class="st0" d="M75.5,66.5C74.8,67.2,75,69,75,69c1.8-0.3,2.2-0.8,2.2-0.8c0.7-0.7,1-1.7,0.9-2.7c0-0.2,0-0.4,0-0.5
					c0-0.1,0-0.3,0-0.4C75.9,65.9,75.5,66.5,75.5,66.5z"/>
			</g>
			<g>
				<path class="st0" d="M77.3,72c1.2-0.8,0.8-3.8,0.8-3.8c-2.3,1.3-2.7,2.1-2.7,2.1C74.8,71,75,72.8,75,72.8
					C76.9,72.6,77.3,72,77.3,72z"/>
			</g>
			<g>
				<path class="st0" d="M72.2,58.7V56c0-0.1-0.1-0.3-0.3-0.3c-0.1,0-0.3,0.1-0.3,0.3v5l0.5,0.3V58.7z"/>
			</g>
			<g>
				<path class="st0" d="M72.7,61.1c0.1-0.5,0.3-0.9,0.5-1.3v-4.7c0-0.1-0.1-0.3-0.3-0.3c-0.1,0-0.3,0.1-0.3,0.3V61.1z"/>
			</g>
			<g>
				<path class="st0" d="M74,58.7l0.4-0.5v-4.4c0-0.1-0.1-0.3-0.3-0.3c-0.1,0-0.3,0.1-0.3,0.3v5.2L74,58.7z"/>
			</g>
			<g>
				<path class="st0" d="M77.9,61v-5c0-0.1-0.1-0.3-0.3-0.3c-0.1,0-0.3,0.1-0.3,0.3v5.3L77.9,61z"/>
			</g>
			<g>
				<path class="st0" d="M76.8,61.1L76.8,61.1v-6c0-0.1-0.1-0.3-0.3-0.3c-0.1,0-0.3,0.1-0.3,0.3c0,0,0,0,0,0v4.7
					C76.5,60.2,76.7,60.6,76.8,61.1z"/>
			</g>
			<g>
				<path class="st0" d="M75.7,58.7v-5c0-0.1-0.1-0.3-0.3-0.3c-0.1,0-0.3,0.1-0.3,0.3l0,0v4.5l0.4,0.5c0,0.1,0.1,0.1,0.1,0.2V58.7z"
					/>
			</g>
			<g>
				<path class="st0" d="M74.5,69c0,0,0.2-1.8-0.5-2.5c-0.7-0.7-1.5-1.3-2.4-1.7l-0.3-0.2c0,0.4,0,0.7,0,1.1v0.6
					c0,0.3,0.1,0.7,0.2,1c0.1,0.4,0.3,0.7,0.6,0.9C72.2,68.1,72.7,68.7,74.5,69z"/>
			</g>
			<g>
				<path class="st0" d="M61.4,65.5c0-1.2-1.4-2.7-1.4-2.7s-1.4,1.5-1.4,2.7c0,1,1.1,1.5,1.4,1.7C59.9,67.2,61.4,66.5,61.4,65.5z"/>
			</g>
			<g>
				<path class="st0" d="M57.6,68.9c0,0,0.4,0.5,2.1,0.7c0,0,0.2-1.6-0.5-2.3c-0.7-0.7-1.5-1.3-2.4-1.7h-0.1c0,0.6,0,1.1,0.1,1.7
					C56.9,67.9,57.1,68.5,57.6,68.9z"/>
			</g>
			<g>
				<path class="st0" d="M59.7,77c0,0,0.3-1.8-0.4-2.6c0,0-0.4-0.7-2.5-2l-0.2-0.2c-0.1,1-0.1,2.1,0.2,3.1c0.1,0.3,0.3,0.6,0.5,0.8
					C57.3,76.1,57.8,76.7,59.7,77z"/>
			</g>
			<g>
				<path class="st0" d="M59.6,80.7c0,0,0.2-2-0.5-2.7c-0.7-0.7-1.5-1.3-2.4-1.7l-0.6-0.3c0,0,0,0.2,0,0.5h-1.1v0.7h1.1
					c0,0.8,0.2,1.6,0.6,2.3c0.1,0.1,0.2,0.3,0.4,0.4C57.9,80.4,58.7,80.7,59.6,80.7z"/>
			</g>
			<g>
				<path class="st0" d="M60.7,67.3c-0.6,0.7-0.4,2.3-0.4,2.3c1.7-0.3,2.1-0.7,2.1-0.7c0.5-0.4,0.8-1,0.8-1.7c0.1-0.5,0.1-1.1,0-1.6
					l0,0C62.2,66,61.4,66.6,60.7,67.3z"/>
			</g>
			<g>
				<path class="st0" d="M60.7,70.6c-0.7,0.7-0.5,2.5-0.5,2.5c1.8-0.3,2.2-0.8,2.2-0.8c0.3-0.2,0.5-0.6,0.7-0.9
					c0.3-0.9,0.4-1.8,0.3-2.7l-0.3,0.2C62.2,69.3,61.4,69.9,60.7,70.6z"/>
			</g>
			<g>
				<path class="st0" d="M60.6,74.4c-0.7,0.7-0.4,2.6-0.4,2.6c0.8,0,1.6-0.3,2.3-0.8c0.3-0.2,0.4-0.5,0.6-0.8c0.3-1,0.4-2,0.2-3
					l-0.2,0.1C61,73.7,60.6,74.4,60.6,74.4z"/>
			</g>
			<g>
				<path class="st0" d="M60.7,78c-0.7,0.7-0.5,2.7-0.5,2.7c0.9-0.1,1.7-0.4,2.5-0.9c0.1-0.1,0.3-0.2,0.4-0.4
					c0.5-1.1,0.7-2.3,0.6-3.5l-0.6,0.3C62.2,76.7,61.4,77.3,60.7,78z"/>
			</g>
			<g>
				<path class="st0" d="M57.3,60.2v-0.1c0-0.1-0.1-0.3-0.3-0.3s-0.3,0.1-0.3,0.3v2.1h-1.7v0.7h1.7v2.2l0.5,0.3V60.2z"/>
			</g>
			<g>
				<path class="st0" d="M57.9,65.2c0.1-0.5,0.3-0.9,0.5-1.3v-4.7c0-0.1-0.1-0.3-0.3-0.3s-0.3,0.1-0.3,0.3
					C57.9,59.2,57.9,65.2,57.9,65.2z"/>
			</g>
			<g>
				<path class="st0" d="M59.6,62.3v-4.5c0-0.1-0.1-0.3-0.3-0.3c-0.1,0-0.3,0.1-0.3,0.3V63L59.6,62.3z"/>
			</g>
			<g>
				<path class="st0" d="M63.1,65.1v-5c0-0.1-0.1-0.3-0.3-0.3s-0.3,0.1-0.3,0.3l0,0v5.3L63.1,65.1z"/>
			</g>
			<g>
				<path class="st0" d="M62,65.2L62,65.2v-6c0-0.1-0.1-0.3-0.3-0.3s-0.3,0.1-0.3,0.3v4.7C61.7,64.3,61.9,64.8,62,65.2z"/>
			</g>
			<g>
				<path class="st0" d="M60.8,63v-5.2c0-0.1-0.1-0.3-0.3-0.3s-0.3,0.1-0.3,0.3v4.5L60.8,63z"/>
			</g>
			<g>
				<path class="st0" d="M59.7,73.1c0,0,0.2-1.8-0.5-2.5c-0.7-0.7-1.5-1.3-2.4-1.7l-0.3-0.2c0,0.4,0,0.7,0,1.1v0.6
					c0,0.3,0.1,0.7,0.2,1c0.1,0.4,0.3,0.7,0.6,0.9C57.4,72.3,57.8,72.8,59.7,73.1z"/>
			</g>
			<g>
				<path class="st0" d="M47.2,74.4c0-1.2-1.4-2.7-1.4-2.7s-1.4,1.5-1.4,2.7c0,0.9,1.1,1.5,1.4,1.7C45.8,76.1,47.2,75.3,47.2,74.4z"
					/>
			</g>
			<g>
				<path class="st0" d="M45.5,78.5c0,0,0.2-1.6-0.5-2.3c-0.6-0.6-1.3-1.2-2.1-1.5l-0.3-0.2c-0.1,0.7,0,1.3,0.1,2h-2.6v0.7h2.8
					c0,0.1,0.1,0.2,0.1,0.2c0.1,0.2,0.2,0.3,0.4,0.4C43.4,77.8,43.8,78.3,45.5,78.5z"/>
			</g>
			<g>
				<path class="st0" d="M45.1,83.3c-0.5-0.6-1.1-1.2-1.8-1.6c-0.3-0.2-0.5-0.3-0.9-0.6c0,0-0.4,3,0.8,3.8c0.1,0.1,0.2,0.2,0.3,0.2
					c0.6,0.3,1.3,0.6,2,0.6C45.5,85.9,45.8,84.1,45.1,83.3z"/>
			</g>
			<g>
				<path class="st0" d="M45.4,89.6c0,0,0.2-2-0.4-2.7c-0.4-0.5-0.9-0.9-1.5-1.2c-0.4-0.3-0.9-0.5-1.5-0.9c0,0-0.2,3.1,1,3.9
					c0.2,0.2,0.4,0.3,0.7,0.4C44.2,89.4,44.8,89.5,45.4,89.6z"/>
			</g>
			<g>
				<path class="st0" d="M46.5,76.2c-0.6,0.7-0.5,2.3-0.5,2.3c1.7-0.3,2.1-0.7,2.1-0.7c0.6-0.6,0.9-1.4,0.9-2.2c0-0.3,0-0.6,0-0.9
					c0-0.1,0-0.2,0-0.2C48.1,74.9,47.2,75.5,46.5,76.2z"/>
			</g>
			<g>
				<path class="st0" d="M46.5,79.5C45.8,80.2,46,82,46,82c1.8-0.3,2.2-0.8,2.2-0.8c0.4-0.3,0.6-0.7,0.8-1.1
					c0.2-0.8,0.3-1.7,0.2-2.5L49,77.7C48.1,78.2,47.2,78.8,46.5,79.5z"/>
			</g>
			<g>
				<path class="st0" d="M46.4,83.3c-0.7,0.7-0.4,2.6-0.4,2.6c0.8,0,1.7-0.4,2.3-0.9c0.3-0.2,0.5-0.5,0.7-0.9
					c0.2-0.9,0.3-1.9,0.2-2.9L49,81.3C46.8,82.6,46.4,83.3,46.4,83.3z"/>
			</g>
			<g>
				<path class="st0" d="M46.5,86.9c-0.7,0.7-0.5,2.7-0.5,2.7c0.9-0.1,1.7-0.4,2.5-0.9c0.2-0.1,0.3-0.3,0.4-0.5
					c0.4-1.1,0.6-2.3,0.5-3.4L49,85.1C48.1,85.6,47.2,86.2,46.5,86.9z"/>
			</g>
			<g>
				<path class="st0" d="M43.2,69c0-0.1-0.1-0.3-0.3-0.3s-0.3,0.1-0.3,0.3v5l0.2,0.1l0.3,0.2V69z"/>
			</g>
			<g>
				<path class="st0" d="M43.7,74.1L43.7,74.1c0.1-0.5,0.3-0.9,0.5-1.3v-4.7c0-0.1,0-0.1-0.1-0.2c-0.1-0.1-0.1-0.1-0.2-0.1
					c-0.1,0-0.1,0-0.2,0.1c0,0.1-0.1,0.1-0.1,0.2V74.1z"/>
			</g>
			<g>
				<path class="st0" d="M45.4,71.2v-4.4c0-0.1-0.1-0.3-0.2-0.3c-0.1,0-0.3,0.1-0.3,0.2c0,0,0,0.1,0,0.1v5.2L45.4,71.2z"/>
			</g>
			<g>
				<path class="st0" d="M48.9,69c0-0.1-0.1-0.3-0.3-0.3s-0.3,0.1-0.3,0.3v5.3l0.5-0.3V69z"/>
			</g>
			<g>
				<path class="st0" d="M47.3,72.8c0.2,0.4,0.4,0.9,0.5,1.3l0,0v-6c0-0.1-0.1-0.3-0.3-0.3s-0.3,0.1-0.3,0.3V72.8z"/>
			</g>
			<g>
				<path class="st0" d="M46.7,71.9v-5.2c0-0.1-0.1-0.3-0.3-0.3s-0.3,0.1-0.3,0.3v4.4C46.3,71.4,46.5,71.7,46.7,71.9z"/>
			</g>
			<g>
				<path class="st0" d="M45.5,82c0,0,0.2-1.8-0.5-2.5c-0.5-0.6-1.2-1.1-1.9-1.4l-0.7-0.4c0,0.4,0,0.7,0,1.1v0.6
					c0,0.7,0.3,1.4,0.9,1.9l0,0C43.2,81.2,43.6,81.7,45.5,82z"/>
			</g>
			<g>
				<path class="st0" d="M33,78.7c0-1.2-1.4-2.6-1.4-2.6s-1.4,1.5-1.4,2.6c0,1,1.1,1.5,1.4,1.7C31.6,80.4,33,79.7,33,78.7z"/>
			</g>
			<g>
				<path class="st0" d="M29.2,82.1c0,0,0.4,0.5,2.1,0.7c0,0,0.2-1.6-0.5-2.3c-0.7-0.7-1.5-1.3-2.4-1.7h-0.1c0,0.6,0,1.1,0.1,1.7
					C28.5,81.1,28.8,81.7,29.2,82.1z"/>
			</g>
			<g>
				<path class="st0" d="M31.3,90.2c0,0,0.3-1.8-0.4-2.6c-0.7-0.8-1.5-1.5-2.5-2l-0.2-0.2c-0.1,1-0.1,2.1,0.2,3.1
					c0.1,0.3,0.3,0.6,0.5,0.8C29.6,89.8,30.4,90.1,31.3,90.2z"/>
			</g>
			<g>
				<path class="st0" d="M31.2,93.9c0,0,0.2-2-0.5-2.7c-0.7-0.7-1.5-1.3-2.4-1.7l-0.6-0.3c0,0.5,0,0.9,0,1.4h-2.7v0.7h2.9
					c0.1,0.5,0.2,1,0.5,1.4c0.1,0.1,0.2,0.3,0.4,0.4C29.5,93.6,30.4,93.9,31.2,93.9z"/>
			</g>
			<g>
				<path class="st0" d="M32.3,80.5c-0.6,0.7-0.5,2.3-0.5,2.3c1.7-0.3,2.1-0.7,2.1-0.7c0.8-0.5,0.9-1.9,0.9-2.7c0-0.4,0-0.6,0-0.6
					C33.9,79.2,33,79.8,32.3,80.5z"/>
			</g>
			<g>
				<path class="st0" d="M32.3,83.8c-0.7,0.7-0.5,2.5-0.5,2.5c1.8-0.3,2.2-0.8,2.2-0.8c0.4-0.3,0.6-0.7,0.7-1.1
					c0.2-0.8,0.3-1.6,0.2-2.4L34.8,82C33.9,82.5,33,83.1,32.3,83.8z"/>
			</g>
			<g>
				<path class="st0" d="M32.2,87.6c-0.7,0.7-0.4,2.6-0.4,2.6c1.8-0.3,2.3-0.8,2.3-0.8c0.3-0.3,0.5-0.6,0.6-1
					c0.2-0.9,0.3-1.9,0.2-2.8l-0.2,0.1C32.6,86.9,32.2,87.6,32.2,87.6z"/>
			</g>
			<g>
				<path class="st0" d="M32.3,91.2c-0.7,0.7-0.4,2.7-0.4,2.7c0.9-0.1,1.7-0.4,2.4-0.9c0.2-0.1,0.3-0.3,0.5-0.5
					c0.2-0.4,0.4-0.9,0.4-1.3h2.9v-0.7h-2.8c0-0.5,0-0.9,0-1.4l-0.5,0.3C33.9,89.9,33,90.5,32.3,91.2z"/>
			</g>
			<g>
				<path class="st0" d="M29,73.3c0-0.1-0.1-0.3-0.3-0.3s-0.3,0.1-0.3,0.3v5l0.5,0.3V73.3z"/>
			</g>
			<g>
				<path class="st0" d="M29.8,72.2c-0.1,0-0.3,0.1-0.3,0.3v6l0,0c0.1-0.5,0.3-0.9,0.5-1.3v-4.7C30.1,72.3,30,72.2,29.8,72.2z"/>
			</g>
			<g>
				<path class="st0" d="M31.2,75.5v-4.4c0-0.1-0.1-0.3-0.3-0.3s-0.3,0.1-0.3,0.3v5.2L31.2,75.5z"/>
			</g>
			<g>
				<path class="st0" d="M34.7,73.3c0-0.1-0.1-0.3-0.3-0.3s-0.3,0.1-0.3,0.3v5.3l0.5-0.3V73.3z"/>
			</g>
			<g>
				<path class="st0" d="M33.6,78.4v-6c0-0.1-0.1-0.3-0.3-0.3s-0.3,0.1-0.3,0.3v4.7C33.3,77.5,33.5,78,33.6,78.4L33.6,78.4z"/>
			</g>
			<g>
				<path class="st0" d="M32.5,76.2v-5.2c0-0.1-0.1-0.3-0.3-0.3c-0.1,0-0.3,0.1-0.3,0.3v4.4L32.5,76.2z"/>
			</g>
			<g>
				<path class="st0" d="M31.3,86.3c0,0,0.2-1.8-0.5-2.5c-0.7-0.7-1.5-1.3-2.4-1.7l-0.3-0.2c0,0.4,0,0.7,0,1.1l0,0.6
					c0,0.3,0.1,0.7,0.2,1c0.1,0.4,0.3,0.7,0.6,0.9C29.1,85.5,29.5,86,31.3,86.3z"/>
			</g>
		</g>
	</g>
</g>
</svg>
