<?xml version="1.0" encoding="utf-8"?>
<!-- Generator: Adobe Illustrator 22.0.1, SVG Export Plug-In . SVG Version: 6.00 Build 0)  -->
<svg version="1.1" id="Layer_1" xmlns="http://www.w3.org/2000/svg" xmlns:xlink="http://www.w3.org/1999/xlink" x="0px" y="0px"
	 viewBox="0 0 101.5 157.1" style="enable-background:new 0 0 101.5 157.1;" xml:space="preserve">
<style type="text/css">
	.st0{fill:#FFFFFF;}
	.st1{fill:#DDA63A;}
	.st2{enable-background:new    ;}
</style>
<title>TARGET 1.1</title>
<g id="WHITE_BG">
	<g>
		<rect y="0" class="st0" width="101.5" height="157.1"/>
	</g>
</g>
<g id="TARGETS">
	<g>
		<g>
			<path class="st1" d="M6.8,130.2v-4.4h1v4.3c-0.1,0.6,0.4,1.2,1,1.3c0.1,0,0.2,0,0.3,0c0.6,0.1,1.2-0.3,1.4-1c0-0.1,0-0.2,0-0.3
				v-4.3h1v4.4c0,1.1-0.8,2.1-2,2.1c-0.1,0-0.2,0-0.3,0c-1.1,0.2-2.1-0.5-2.4-1.5C6.8,130.6,6.8,130.4,6.8,130.2z"/>
		</g>
		<g>
			<path class="st1" d="M16.1,132.2l-2.8-4.5v4.5h-0.9v-6.4h0.9l2.8,4.5v-4.5h1v6.4L16.1,132.2z"/>
		</g>
		<g>
			<path class="st1" d="M18,132.2v-6.4h1v6.4H18z"/>
		</g>
		<g>
			<path class="st1" d="M24.6,125.8l-2,6.5h-1l-2-6.5h1l1.5,5.2l1.5-5.2L24.6,125.8z"/>
		</g>
		<g>
			<path class="st1" d="M28.8,129.3h-2.6v2H29v0.9h-3.8v-6.4H29v0.9h-2.9v1.8h2.6V129.3z"/>
		</g>
		<g>
			<path class="st1" d="M30.8,132.2h-1v-6.4H32c1.6,0,2.2,0.7,2.2,1.9c0.1,0.7-0.3,1.4-1,1.7l1.3,2.8h-1.2l-1.2-2.6h-1.3V132.2z
				 M30.8,128.7h1.3c0.9,0,1-0.5,1-1s-0.1-1-1-1h-1.3V128.7z"/>
		</g>
		<g>
			<path class="st1" d="M39.1,130.3c0,1.2-0.7,2-2.4,2c-0.6,0-1.3-0.1-1.9-0.4v-1c0.6,0.3,1.2,0.4,1.8,0.4c1.2,0,1.5-0.5,1.5-1.1
				s-0.3-0.9-1.2-1c-1.5-0.2-2.2-0.6-2.2-1.8c0-0.9,0.5-1.8,2.3-1.8c0.6,0,1.2,0.1,1.7,0.3v1c-0.5-0.2-1.1-0.3-1.7-0.3
				c-1,0-1.3,0.4-1.3,1s0.4,0.8,1.2,0.9C38.3,128.7,39.1,129,39.1,130.3z"/>
		</g>
		<g>
			<path class="st1" d="M42.8,130.6h-2l-0.5,1.6h-1l2-6.4h1l2,6.4h-1L42.8,130.6z M41.8,127l-0.8,2.8h1.6L41.8,127z"/>
		</g>
		<g>
			<path class="st1" d="M45.8,131.3h2.8v0.9h-3.7v-6.4h1V131.3z"/>
		</g>
		<g>
			<path class="st1" d="M53.8,130.6h-2l-0.5,1.6h-1l2-6.4h1l2,6.4h-1L53.8,130.6z M52.8,127l-0.8,2.8h1.6L52.8,127z"/>
		</g>
		<g>
			<path class="st1" d="M58.1,125.7c0.5,0,1,0.1,1.5,0.3v0.9c-0.5-0.2-0.9-0.3-1.4-0.3c-1.2,0-1.7,0.8-1.7,2.4
				c0,1.6,0.5,2.4,1.7,2.4c0.5,0,1-0.1,1.4-0.3v0.9c-0.5,0.2-1,0.3-1.5,0.3c-1.9,0-2.6-1.2-2.6-3.3S56.2,125.7,58.1,125.7z"/>
		</g>
		<g>
			<path class="st1" d="M62.8,125.7c0.5,0,1,0.1,1.5,0.3v0.9c-0.5-0.2-0.9-0.3-1.4-0.3c-1.2,0-1.7,0.8-1.7,2.4
				c0,1.6,0.5,2.4,1.7,2.4c0.5,0,1-0.1,1.4-0.3v0.9c-0.5,0.2-1,0.3-1.5,0.3c-1.9,0-2.6-1.2-2.6-3.3S60.9,125.7,62.8,125.7z"/>
		</g>
		<g>
			<path class="st1" d="M68.8,129.3h-2.7v2H69v0.9h-3.8v-6.4H69v0.9h-2.9v1.8h2.7V129.3z"/>
		</g>
		<g>
			<path class="st1" d="M73.9,130.3c0,1.2-0.7,2-2.4,2c-0.6,0-1.3-0.1-1.9-0.3v-1c0.6,0.3,1.2,0.4,1.8,0.4c1.2,0,1.5-0.5,1.5-1.1
				s-0.3-0.9-1.2-1c-1.6-0.2-2.2-0.6-2.2-1.8c0-0.9,0.5-1.8,2.3-1.8c0.6,0,1.2,0.1,1.7,0.3v1c-0.5-0.2-1.1-0.3-1.7-0.3
				c-1,0-1.3,0.4-1.3,1s0.4,0.8,1.2,0.9C73.1,128.7,73.9,129,73.9,130.3z"/>
		</g>
		<g>
			<path class="st1" d="M78.8,130.3c0,1.2-0.7,2-2.4,2c-0.6,0-1.3-0.1-1.9-0.4v-1c0.6,0.3,1.2,0.4,1.8,0.4c1.1,0,1.5-0.5,1.5-1.1
				s-0.3-0.9-1.2-1c-1.6-0.2-2.2-0.6-2.2-1.8c0-0.9,0.5-1.8,2.3-1.8c0.6,0,1.2,0.1,1.7,0.3v1c-0.5-0.2-1.1-0.3-1.7-0.3
				c-1,0-1.3,0.4-1.3,1s0.4,0.8,1.2,0.9C78,128.7,78.8,129,78.8,130.3z"/>
		</g>
		<g>
			<path class="st1" d="M83,126.7v5.5h-1v-5.5h-1.6v-0.9h4.3v0.9L83,126.7z"/>
		</g>
		<g>
			<path class="st1" d="M84.8,129c0-1.8,0.4-3.3,2.4-3.3s2.5,1.5,2.5,3.3s-0.4,3.3-2.5,3.3S84.8,130.8,84.8,129z M85.8,129
				c0,1.5,0.3,2.4,1.5,2.4s1.5-0.9,1.5-2.4s-0.3-2.4-1.5-2.4S85.8,127.5,85.8,129L85.8,129z"/>
		</g>
		<g>
			<path class="st1" d="M11.1,139.3c0,1.2-0.7,2-2.4,2c-0.6,0-1.3-0.1-1.9-0.3v-1c0.6,0.3,1.2,0.4,1.8,0.4c1.1,0,1.5-0.5,1.5-1.1
				s-0.3-0.9-1.2-1c-1.6-0.2-2.2-0.6-2.2-1.8c0-0.9,0.5-1.9,2.3-1.9c0.6,0,1.2,0.1,1.7,0.3v1c-0.5-0.2-1.1-0.3-1.7-0.3
				c-1,0-1.3,0.4-1.3,1s0.4,0.8,1.2,0.9C10.3,137.7,11.1,138,11.1,139.3z"/>
		</g>
		<g>
			<path class="st1" d="M14.8,139.6h-2l-0.5,1.6h-1l2-6.4h1l2,6.4h-1L14.8,139.6z M13.8,136l-0.8,2.8h1.6L13.8,136z"/>
		</g>
		<g>
			<path class="st1" d="M20.3,138.4h-2.6v2.8h-1v-6.4h3.8v0.9h-2.9v1.8h2.6V138.4z"/>
		</g>
		<g>
			<path class="st1" d="M24.9,138.3h-2.7v2h2.9v0.9h-3.9v-6.4h3.9v0.9h-2.9v1.8h2.7V138.3z"/>
		</g>
		<g>
			<path class="st1" d="M30.6,139.6h-2l-0.5,1.6h-1l2-6.4h1l2,6.4h-1L30.6,139.6z M29.6,136l-0.8,2.8h1.6L29.6,136z"/>
		</g>
		<g>
			<path class="st1" d="M36.3,141.2l-2.8-4.5v4.5h-0.9v-6.4h0.9l2.8,4.5v-4.5h0.9v6.4H36.3z"/>
		</g>
		<g>
			<path class="st1" d="M38.2,141.2v-6.4H40c2.1,0,2.7,1.4,2.7,3.2s-0.6,3.2-2.7,3.2H38.2z M39.2,140.3h1c1.3,0,1.7-0.9,1.7-2.3
				s-0.4-2.3-1.7-2.3h-1V140.3z"/>
		</g>
		<g>
			<path class="st1" d="M48.6,141.2l-2.8-4.5v4.5H45v-6.4h0.9l2.8,4.5v-4.5h0.9v6.4H48.6z"/>
		</g>
		<g>
			<path class="st1" d="M50.4,139.2v-4.4h1v4.3c0,0.8,0.6,1.4,1.4,1.4s1.4-0.6,1.4-1.4l0,0v-4.3h1v4.4c-0.1,1.3-1.2,2.2-2.5,2.1
				c-1.1-0.1-2-1-2.1-2.1H50.4z"/>
		</g>
		<g>
			<path class="st1" d="M58.1,135.7v5.5h-1v-5.5h-1.6v-0.9h4.3v0.9H58.1z"/>
		</g>
		<g>
			<path class="st1" d="M61.4,141.2h-1v-6.4h2.1c1.7,0,2.2,0.7,2.2,1.9c0.1,0.7-0.3,1.4-1,1.7l1.3,2.8h-1.1l-1.2-2.6h-1.3V141.2z
				 M61.4,137.7h1.3c0.9,0,1-0.5,1-1s-0.1-1-1-1h-1.3V137.7z"/>
		</g>
		<g>
			<path class="st1" d="M65.8,141.2v-6.4h0.9v6.4H65.8z"/>
		</g>
		<g>
			<path class="st1" d="M70.2,135.7v5.5h-1v-5.5h-1.6v-0.9h4.3v0.9H70.2z"/>
		</g>
		<g>
			<path class="st1" d="M72.6,141.2v-6.4h1v6.4H72.6z"/>
		</g>
		<g>
			<path class="st1" d="M74.4,138c0-1.8,0.4-3.3,2.5-3.3s2.4,1.5,2.4,3.3s-0.4,3.3-2.4,3.3S74.4,139.8,74.4,138z M75.4,138
				c0,1.5,0.3,2.4,1.5,2.4s1.5-0.9,1.5-2.4s-0.3-2.4-1.5-2.4S75.4,136.5,75.4,138L75.4,138z"/>
		</g>
		<g>
			<path class="st1" d="M80.2,139.2v-4.4h1v4.3c0,0.8,0.6,1.4,1.4,1.4s1.4-0.6,1.4-1.4l0,0v-4.3h1v4.4c-0.1,1.3-1.2,2.2-2.5,2.1
				C81.3,141.2,80.4,140.3,80.2,139.2L80.2,139.2z"/>
		</g>
		<g>
			<path class="st1" d="M89.8,139.3c0,1.2-0.7,2-2.4,2c-0.6,0-1.3-0.1-1.9-0.4v-1c0.6,0.3,1.2,0.4,1.8,0.4c1.1,0,1.5-0.5,1.5-1.1
				s-0.3-0.9-1.2-1c-1.6-0.2-2.2-0.6-2.2-1.8c0-0.9,0.5-1.9,2.3-1.9c0.6,0,1.2,0.1,1.7,0.3v1c-0.5-0.2-1.1-0.3-1.7-0.3
				c-1,0-1.3,0.4-1.3,1s0.4,0.8,1.2,0.9C89,137.7,89.8,138,89.8,139.3z"/>
		</g>
		<g>
			<path class="st1" d="M10.4,147.4H7.8v2.8h-1v-6.4h3.9v0.9H7.8v1.8h2.6V147.4z"/>
		</g>
		<g>
			<path class="st1" d="M11.2,147c0-1.8,0.4-3.3,2.4-3.3s2.5,1.5,2.5,3.3s-0.4,3.3-2.5,3.3S11.2,148.8,11.2,147z M12.2,147
				c0,1.5,0.3,2.4,1.5,2.4s1.5-0.9,1.5-2.4s-0.3-2.4-1.5-2.4S12.2,145.5,12.2,147L12.2,147z"/>
		</g>
		<g>
			<path class="st1" d="M16.8,147c0-1.8,0.4-3.3,2.5-3.3s2.5,1.5,2.5,3.3s-0.4,3.3-2.5,3.3S16.8,148.8,16.8,147z M17.8,147
				c0,1.5,0.3,2.4,1.5,2.4s1.5-0.9,1.5-2.4s-0.3-2.4-1.5-2.4S17.8,145.5,17.8,147L17.8,147z"/>
		</g>
		<g>
			<path class="st1" d="M22.6,150.2v-6.4h1.9c2.1,0,2.7,1.4,2.7,3.2s-0.6,3.2-2.7,3.2H22.6z M23.6,149.3h1c1.3,0,1.7-0.9,1.7-2.3
				s-0.4-2.3-1.7-2.3h-1V149.3z"/>
		</g>
	</g>
	<g>
		<rect x="3.3" y="24" class="st1" width="94.8" height="94.8"/>
	</g>
	<g>
		<path class="st1" d="M98.2,20.7H3.3V3.3h94.8V20.7z M4.3,19.7h92.8V4.3H4.3L4.3,19.7z"/>
	</g>
	<g class="st2">
		<path class="st1" d="M6.7,6.9h4.5v1.4H9.9v8.8H8.1V8.3H6.7V6.9z"/>
	</g>
	<g class="st2">
		<path class="st1" d="M11.2,17.1l1.9-10.2h1.9L17,17.1h-1.8l-0.3-1.9h-1.8l-0.3,1.9H11.2z M13.3,13.9h1.4L14,9.8h0L13.3,13.9z"/>
	</g>
	<g class="st2">
		<path class="st1" d="M19.6,12.4v4.7h-1.7V6.9h2.5c1.7,0,2.4,0.9,2.4,2.3v1.3c0,1.1-0.4,1.7-1.4,2l1.6,4.6h-1.8L19.6,12.4z
			 M19.6,8.3v3.2h0.6c0.6,0,0.8-0.3,0.8-0.8V9.2c0-0.6-0.3-0.8-0.8-0.8H19.6z"/>
	</g>
	<g class="st2">
		<path class="st1" d="M26.4,11.7h2.4v5.4h-1.2V16c-0.2,0.8-0.7,1.2-1.6,1.2c-1.5,0-2.1-1.2-2.1-2.7V9.6c0-1.6,0.8-2.7,2.6-2.7
			c1.9,0,2.4,1.1,2.4,2.6v0.9h-1.6v-1c0-0.6-0.2-1-0.9-1c-0.6,0-0.9,0.4-0.9,1v5.5c0,0.6,0.3,1,0.8,1c0.6,0,0.8-0.3,0.8-1V13h-0.8
			V11.7z"/>
	</g>
	<g class="st2">
		<path class="st1" d="M30.2,6.9h4.1v1.4h-2.4v2.9h1.7v1.4h-1.7v3.1h2.4v1.4h-4.1V6.9z"/>
	</g>
	<g class="st2">
		<path class="st1" d="M35.1,6.9h4.5v1.4h-1.4v8.8h-1.7V8.3h-1.4V6.9z"/>
	</g>
	<g class="st2">
		<path class="st1" d="M81.2,15.2c0-1,0.3-1.7,1.3-2.7l1-1c0.6-0.6,0.6-0.9,0.6-1.8V9c0-0.6-0.3-0.8-0.6-0.8c-0.4,0-0.7,0.2-0.7,0.8
			v1.3h-1.6V9c0-1.4,0.8-2.2,2.3-2.2c1.5,0,2.2,0.7,2.2,2.1v1c0,1-0.2,1.6-1.1,2.6l-1.1,1.2c-0.4,0.5-0.7,0.8-0.7,1.6v0.5h2.8v1.4
			h-4.4V15.2z"/>
	</g>
	<g class="st2">
	</g>
	<g class="st2">
		<path class="st1" d="M88.6,10.8c0.7,0,1.2,0.6,1.2,1.2c0,0.7-0.6,1.2-1.2,1.2c-0.7,0-1.2-0.6-1.2-1.2
			C87.3,11.4,87.9,10.8,88.6,10.8z"/>
	</g>
	<g class="st2">
		<path class="st1" d="M94.1,6.9v10.2h-1.7V9.3h0l-1.2,1.2h0V8.8l1.6-1.8H94.1z"/>
	</g>
	<g>
		<path class="st1" d="M98.2,153.8H3.3v-31.6h94.8V153.8z M4.3,152.8h92.8v-29.6H4.3L4.3,152.8z"/>
	</g>
	<g>
		<g>
			<path class="st0" d="M85.4,56.7C84,55,82,54,79.8,53.8c0.2-2.1,0.7-4.1,1.3-6.1c0.5-1.5,1.5-2.7,2.7-3.6l-2.2-0.1
				c-1.7,1.7-2.7,4-3,6.4V38l-1.9-0.3v10.6c-0.4-1.6-1-3.2-1.6-4.7c-0.4-0.9-1-1.8-1.7-2.6l-1.9,0.1c1.3,1.9,2.3,4,2.9,6.2
				c0.6,2.1,0.8,4.3,0.7,6.5c-2.1,0.1-4.1,1.1-5.5,2.7c-2.5,2.8-1.5,7.5-1.5,7.5s0.1,0.5,0.3,1.3h7.9c0.2,0,0.4,0.2,0.4,0.4v0.7
				c0,0.2-0.2,0.4-0.4,0.4l0,0h-7.6c0.4,1.9,0.9,4.5,1.5,7.6h6c0.2,0,0.4,0.2,0.4,0.4v0.7c0,0.2-0.2,0.4-0.4,0.4h-5.7
				c0.5,2.4,1,5,1.5,7.6h4.2c0.2,0,0.4,0.2,0.4,0.4l0,0v0.7c0,0.2-0.2,0.4-0.4,0.4l0,0h-3.8c1.6,8.1,3.1,15.6,3.1,16.1
				c0.2,1,0.9,3.6,1.9,3.5c1.3-0.1,1.7-2.8,1.7-2.8l7.4-37.3C86.5,64.5,87.9,59.8,85.4,56.7z"/>
		</g>
		<g>
			<path class="st0" d="M53,93c4.7-9.3,7.2-19.6,7.4-30c-0.1-15.5-7.8-22.5-9.6-23.9l0,0C50.7,39,50.6,39,50.5,39
				c-0.1,0-0.3,0-0.4,0.1l-0.3,0.2C46,42.2,40,50.9,40,62c0,11.8,8.7,30.8,8.7,30.8c-2.8,3.4-5.3,8.3-5.7,11.1c0,0.2,0,0.3,0,0.4
				l0,0c0,0,0,0.1,0,0.1c0,0.2,0.2,0.3,0.4,0.3c0.1,0,0.2,0,0.3-0.1l0.3-0.4c1.6-1.9,3.9-3.1,6.4-3.2c3.3,0,5.6,2.2,7.2,3.6
				c0.5,0.4,0.5,0.6,1,0.5s0.2-0.9,0.2-0.9C57.6,98.5,53,93,53,93z M47.6,54.3c-1.4,0-2.6-1.1-2.6-2.5c0-1.4,1.1-2.6,2.5-2.6
				c1.4,0,2.6,1.1,2.6,2.5c0,0,0,0,0,0C50.2,53.2,49,54.3,47.6,54.3C47.6,54.3,47.6,54.3,47.6,54.3z"/>
		</g>
		<g>
			<g>
				<path class="st0" d="M24,52.1c0,0-3.6,3.8-3.6,6.6c0,2.4,2.7,3.8,3.5,4.3c0,0,3.6-1.9,3.6-4.3C27.6,55.8,24,52.1,24,52.1z"/>
			</g>
			<g>
				<path class="st0" d="M16,59c0,0-0.6,6.3,2.1,8.2c0,0,0.9,1.2,5.2,1.8c0,0,0.5-4.1-1.1-5.8C22.2,63.3,21.4,62.1,16,59z"/>
			</g>
			<g>
				<path class="st0" d="M15.4,66.8c0,0-0.7,6.9,2.3,9c0,0,1,1.3,5.6,2c0,0,0.5-4.4-1.2-6.3C22.1,71.5,21.2,70.1,15.4,66.8z"/>
			</g>
			<g>
				<path class="st0" d="M15.6,75.7c0,0-1,7.4,2,9.5c0,0,1.2,1.4,5.8,2.1c0,0,0.7-4.6-1-6.4C22.3,81,21.4,79.1,15.6,75.7z"/>
			</g>
			<g>
				<path class="st0" d="M14.6,84.8c0,0-0.5,7.7,2.5,9.8c0,0,1.5,1.5,6.1,2.2c0,0,0.6-5-1.1-6.8C22.1,89.9,20.5,87.9,14.6,84.8z"/>
			</g>
			<g>
				<path class="st0" d="M32,59c0,0,0.6,6.3-2.1,8.2c0,0-0.9,1.2-5.2,1.8c0,0-0.5-4.1,1.1-5.8C25.8,63.3,26.6,62.1,32,59z"/>
			</g>
			<g>
				<path class="st0" d="M32.5,66.8c0,0,0.7,6.9-2.3,9c0,0-1,1.3-5.5,2c0,0-0.5-4.4,1.2-6.3C25.9,71.5,26.7,70.1,32.5,66.8z"/>
			</g>
			<g>
				<path class="st0" d="M32.4,75.7c0,0,1,7.4-2,9.5c0,0-1.2,1.4-5.8,2.1c0,0-0.7-4.6,1-6.4C25.7,81,26.6,79.1,32.4,75.7z"/>
			</g>
			<g>
				<path class="st0" d="M33.4,84.8c0,0,0.5,7.7-2.5,9.8c0,0-1.5,1.5-6.1,2.2c0,0-0.6-5,1.1-6.8C25.9,89.9,27.4,87.9,33.4,84.8z"/>
			</g>
			<g>
				<rect x="23" y="97.9" class="st0" width="2" height="7.2"/>
			</g>
			<g>
				<path class="st0" d="M17.5,45.2c0-0.4-0.3-0.7-0.7-0.7s-0.7,0.3-0.7,0.7l0,0v12.5l1.3,0.8V45.2z"/>
			</g>
			<g>
				<path class="st0" d="M20.3,43.1c0-0.4-0.2-0.7-0.6-0.8c-0.4,0-0.7,0.2-0.8,0.6c0,0.1,0,0.1,0,0.2V58c0.3-1.2,0.8-2.3,1.4-3.3
					V43.1z"/>
			</g>
			<g>
				<path class="st0" d="M23.1,39.6c0-0.4-0.3-0.7-0.7-0.7c-0.4,0-0.7,0.3-0.7,0.7v12.9c0.5-0.7,1-1.3,1.4-1.8V39.6z"/>
			</g>
			<g>
				<path class="st0" d="M30.5,45.2c0-0.4,0.3-0.7,0.7-0.7s0.7,0.3,0.7,0.7l0,0v12.5l-1.3,0.8V45.2z"/>
			</g>
			<g>
				<path class="st0" d="M27.7,43.1c0-0.4,0.2-0.7,0.6-0.8c0.4,0,0.7,0.2,0.8,0.6c0,0.1,0,0.1,0,0.2V58c-0.3-1.2-0.8-2.3-1.4-3.3
					V43.1z"/>
			</g>
			<g>
				<path class="st0" d="M24.9,39.6c0-0.4,0.3-0.7,0.7-0.7c0.4,0,0.7,0.3,0.7,0.7v12.9c-0.5-0.7-1-1.3-1.4-1.8V39.6z"/>
			</g>
		</g>
	</g>
</g>
</svg>
