<?xml version="1.0" encoding="utf-8"?>
<!-- Generator: Adobe Illustrator 22.0.1, SVG Export Plug-In . SVG Version: 6.00 Build 0)  -->
<svg version="1.1" id="Layer_1" xmlns="http://www.w3.org/2000/svg" xmlns:xlink="http://www.w3.org/1999/xlink" x="0px" y="0px"
	 viewBox="0 0 101.5 175.1" style="enable-background:new 0 0 101.5 175.1;" xml:space="preserve">
<style type="text/css">
	.st0{fill:#FFFFFF;}
	.st1{fill:#DDA63A;}
	.st2{enable-background:new    ;}
</style>
<title>TARGET 1.3</title>
<g id="WHITE_BG">
	<g>
		<rect y="0" class="st0" width="101.5" height="175.1"/>
	</g>
</g>
<g id="TARGETS">
	<g>
		<g>
			<path class="st1" d="M6.9,132.2v-6.4h1.9c2.1,0,2.7,1.4,2.7,3.2s-0.6,3.2-2.7,3.2H6.9z M7.9,131.3h1c1.3,0,1.7-0.9,1.7-2.3
				s-0.4-2.3-1.7-2.3h-1L7.9,131.3z"/>
		</g>
		<g>
			<path class="st1" d="M12.1,129c0-1.8,0.4-3.3,2.4-3.3s2.4,1.5,2.4,3.3s-0.4,3.3-2.5,3.3S12.1,130.8,12.1,129z M13.1,129
				c0,1.5,0.3,2.4,1.5,2.4s1.5-0.9,1.5-2.4s-0.3-2.4-1.5-2.4S13.1,127.5,13.1,129L13.1,129z"/>
		</g>
		<g>
			<path class="st1" d="M17.7,130.2v-4.4h1v4.3c-0.1,0.6,0.4,1.2,1,1.3c0.1,0,0.2,0,0.3,0c0.6,0.1,1.2-0.3,1.4-1c0-0.1,0-0.2,0-0.3
				v-4.3h1v4.4c0.1,1.1-0.7,2.1-1.9,2.1c-0.2,0-0.3,0-0.5,0c-1.1,0.2-2.1-0.6-2.3-1.7C17.7,130.5,17.7,130.3,17.7,130.2z"/>
		</g>
		<g>
			<path class="st1" d="M23.3,125.8h2.1c1.6,0,2,0.8,2,1.8c0,0.5-0.3,1-0.8,1.3c0.6,0.2,1.1,0.8,1,1.5c0,1-0.5,1.9-2.2,1.9h-2.2
				V125.8z M25.4,126.7h-1.2v1.8h1.2c0.8,0,1-0.5,1-0.9S26.3,126.7,25.4,126.7z M24.2,131.3h1.3c0.9,0,1.1-0.5,1.1-1s-0.3-1-1.1-1
				h-1.3L24.2,131.3z"/>
		</g>
		<g>
			<path class="st1" d="M29.3,131.3h2.8v0.9h-3.7v-6.4h1L29.3,131.3z"/>
		</g>
		<g>
			<path class="st1" d="M36.2,129.3h-2.6v2h2.9v0.9h-3.9v-6.4h3.9v0.9h-2.9v1.8h2.7L36.2,129.3z"/>
		</g>
		<g>
			<path class="st1" d="M40.7,126.7v5.5h-1v-5.5h-1.7v-0.9h4.3v0.9L40.7,126.7z"/>
		</g>
		<g>
			<path class="st1" d="M46.6,132.2v-2.9H44v2.9h-1v-6.4h1v2.6h2.6v-2.6h1v6.4L46.6,132.2z"/>
		</g>
		<g>
			<path class="st1" d="M52.1,129.3h-2.7v2h2.9v0.9h-3.9v-6.4h3.9v0.9h-2.9v1.8h2.7V129.3z"/>
		</g>
		<g>
			<path class="st1" d="M7.8,141.2h-1v-6.4h2.1c1.6,0,2.2,1,2.2,2s-0.6,2-2.2,2H7.8V141.2z M7.8,137.9H9c0.6,0,1.1-0.5,1.1-1.1
				c0-0.6-0.5-1.1-1.1-1.1H7.8V137.9z"/>
		</g>
		<g>
			<path class="st1" d="M12.7,141.2h-1v-6.4h2.1c1.6,0,2.2,0.7,2.2,1.9c0.1,0.7-0.3,1.4-1,1.7l1.3,2.8h-1.1l-1.2-2.6h-1.3V141.2z
				 M12.7,137.7H14c0.9,0,1-0.5,1-1s-0.1-1-1-1h-1.3V137.7z"/>
		</g>
		<g>
			<path class="st1" d="M16.7,138c0-1.8,0.4-3.3,2.5-3.3s2.5,1.5,2.5,3.3s-0.4,3.3-2.5,3.3S16.7,139.8,16.7,138z M17.7,138
				c0,1.5,0.3,2.4,1.5,2.4s1.5-0.9,1.5-2.4s-0.3-2.4-1.5-2.4S17.7,136.5,17.7,138L17.7,138z"/>
		</g>
		<g>
			<path class="st1" d="M22.4,141.2v-6.4h1.9c2.1,0,2.7,1.4,2.7,3.2s-0.6,3.2-2.7,3.2H22.4z M23.3,140.3h1c1.3,0,1.7-0.9,1.7-2.3
				s-0.4-2.3-1.7-2.3h-1V140.3z"/>
		</g>
		<g>
			<path class="st1" d="M27.8,139.2v-4.4h1v4.3c-0.1,0.6,0.4,1.2,1,1.3c0.1,0,0.2,0,0.3,0c0.6,0.1,1.3-0.3,1.4-1c0-0.1,0-0.2,0-0.3
				v-4.3h1v4.4c0,1.1-0.8,2.1-2,2.1c-0.1,0-0.2,0-0.3,0c-1.1,0.2-2.1-0.6-2.3-1.7C27.8,139.5,27.8,139.4,27.8,139.2z"/>
		</g>
		<g>
			<path class="st1" d="M35.7,134.7c0.5,0,1,0.1,1.5,0.3v0.9c-0.5-0.2-0.9-0.3-1.4-0.3c-1.2,0-1.7,0.8-1.7,2.4s0.5,2.4,1.7,2.4
				c0.5,0,1-0.1,1.4-0.3v0.9c-0.5,0.2-1,0.3-1.5,0.3c-1.9,0-2.6-1.2-2.6-3.3S33.8,134.7,35.7,134.7z"/>
		</g>
		<g>
			<path class="st1" d="M40.3,135.7v5.5h-1v-5.5h-1.6v-0.9H42v0.9H40.3z"/>
		</g>
		<g>
			<path class="st1" d="M42.8,141.2v-6.4h1v6.4H42.8z"/>
		</g>
		<g>
			<path class="st1" d="M49.6,134.8l-2,6.5h-1l-2-6.5h1L47,140l1.5-5.2L49.6,134.8z"/>
		</g>
		<g>
			<path class="st1" d="M50.2,141.2v-6.4h1v6.4H50.2z"/>
		</g>
		<g>
			<path class="st1" d="M54.6,135.7v5.5h-1v-5.5H52v-0.9h4.3v0.9H54.6z"/>
		</g>
		<g>
			<path class="st1" d="M59.6,138.6v2.6h-1v-2.6l-2.2-3.8h1.1l1.6,3l1.6-3h1.1L59.6,138.6z"/>
		</g>
		<g>
			<path class="st1" d="M66.8,139.6h-2l-0.4,1.6h-1l2-6.4h1l2,6.4h-1L66.8,139.6z M65.8,136l-0.8,2.8h1.6L65.8,136z"/>
		</g>
		<g>
			<path class="st1" d="M72.5,141.2l-2.8-4.5v4.5h-0.9v-6.4h0.9l2.8,4.5v-4.5h0.9v6.4H72.5z"/>
		</g>
		<g>
			<path class="st1" d="M74.3,141.2v-6.4h1.9c2.1,0,2.7,1.4,2.7,3.2s-0.6,3.2-2.7,3.2H74.3z M75.3,140.3h1c1.3,0,1.7-0.9,1.7-2.3
				s-0.4-2.3-1.7-2.3h-1V140.3z"/>
		</g>
		<g>
			<path class="st1" d="M7,150.2v-6.4h1v6.4H7z"/>
		</g>
		<g>
			<path class="st1" d="M12.8,150.2l-2.8-4.5v4.5H9.1v-6.4h0.9l2.8,4.5v-4.5h0.9v6.4L12.8,150.2z"/>
		</g>
		<g>
			<path class="st1" d="M17,143.7c0.5,0,1,0.1,1.5,0.3v0.9c-0.5-0.2-0.9-0.3-1.4-0.3c-1.2,0-1.7,0.8-1.7,2.4s0.5,2.4,1.7,2.4
				c0.5,0,1-0.1,1.4-0.3v0.9c-0.5,0.2-1,0.3-1.5,0.3c-1.9,0-2.6-1.2-2.6-3.3S15.1,143.7,17,143.7z"/>
		</g>
		<g>
			<path class="st1" d="M19.1,147c0-1.8,0.4-3.3,2.5-3.3s2.5,1.5,2.5,3.3s-0.4,3.3-2.5,3.3S19.1,148.8,19.1,147z M20.1,147
				c0,1.5,0.3,2.4,1.5,2.4s1.5-0.9,1.5-2.4s-0.3-2.4-1.5-2.4S20.1,145.5,20.1,147L20.1,147z"/>
		</g>
		<g>
			<path class="st1" d="M28.2,149.3h-0.9l-1.6-3.9v4.8h-1v-6.4H26l1.7,4.4l1.7-4.4h1.2v6.4h-1v-4.8L28.2,149.3z"/>
		</g>
		<g>
			<path class="st1" d="M35.2,147.3h-2.7v2h2.9v0.9h-3.9v-6.4h3.9v0.9h-2.9v1.8h2.7V147.3z"/>
		</g>
		<g>
			<path class="st1" d="M40.4,148.3c0,1.2-0.7,2-2.4,2c-0.6,0-1.3-0.1-1.9-0.3v-1c0.6,0.3,1.2,0.4,1.8,0.4c1.2,0,1.5-0.5,1.5-1.1
				s-0.3-0.9-1.2-1c-1.5-0.2-2.2-0.6-2.2-1.8c0-0.9,0.5-1.9,2.3-1.9c0.6,0,1.2,0.1,1.7,0.3v1c-0.5-0.2-1.1-0.3-1.7-0.3
				c-1,0-1.3,0.4-1.3,1s0.4,0.8,1.2,0.9C39.6,146.7,40.4,147,40.4,148.3z"/>
		</g>
		<g>
			<path class="st1" d="M42.5,147c0-1.8,0.4-3.3,2.5-3.3s2.5,1.5,2.5,3.3s-0.4,3.3-2.5,3.3S42.5,148.8,42.5,147z M43.5,147
				c0,1.5,0.3,2.4,1.5,2.4s1.5-0.9,1.5-2.4s-0.3-2.4-1.5-2.4S43.5,145.5,43.5,147L43.5,147z"/>
		</g>
		<g>
			<path class="st1" d="M51.7,147.4h-2.6v2.8h-1v-6.4h3.8v0.9h-2.9v1.8h2.6L51.7,147.4z"/>
		</g>
		<g>
			<path class="st1" d="M11.1,157.3c0,1.2-0.7,2-2.4,2c-0.6,0-1.3-0.1-1.9-0.3v-1c0.6,0.3,1.2,0.4,1.8,0.4c1.1,0,1.5-0.5,1.5-1.1
				s-0.3-0.9-1.2-1c-1.6-0.2-2.2-0.6-2.2-1.8c0-0.9,0.5-1.9,2.3-1.9c0.6,0,1.2,0.1,1.7,0.3v1c-0.5-0.2-1.1-0.3-1.7-0.3
				c-1,0-1.3,0.4-1.3,1s0.4,0.8,1.2,0.9C10.3,155.7,11.1,156,11.1,157.3z"/>
		</g>
		<g>
			<path class="st1" d="M15.2,158.3h-0.9l-1.6-3.9v4.8h-0.9v-6.4H13l1.7,4.4l1.7-4.4h1.2v6.4h-1v-4.8L15.2,158.3z"/>
		</g>
		<g>
			<path class="st1" d="M21.8,157.6h-2l-0.5,1.6h-1l2-6.4h1l2,6.4h-1L21.8,157.6z M20.8,154l-0.8,2.8h1.6L20.8,154z"/>
		</g>
		<g>
			<path class="st1" d="M24.7,158.3h2.8v0.9h-3.7v-6.4h1L24.7,158.3z"/>
		</g>
		<g>
			<path class="st1" d="M29,158.3h2.8v0.9H28v-6.4h1V158.3z"/>
		</g>
		<g>
			<path class="st1" d="M34.2,156.4H32v-0.9h2.2L34.2,156.4z"/>
		</g>
		<g>
			<path class="st1" d="M38.9,157.3c0,1.2-0.7,2-2.4,2c-0.6,0-1.3-0.1-1.9-0.4v-1c0.6,0.3,1.2,0.4,1.8,0.4c1.2,0,1.5-0.5,1.5-1.1
				s-0.3-0.9-1.2-1c-1.5-0.2-2.2-0.6-2.2-1.8c0-0.9,0.5-1.9,2.3-1.9c0.6,0,1.2,0.1,1.7,0.3v1c-0.5-0.2-1.1-0.3-1.7-0.3
				c-1,0-1.3,0.4-1.3,1s0.4,0.8,1.2,0.9C38.1,155.7,38.9,156,38.9,157.3z"/>
		</g>
		<g>
			<path class="st1" d="M42.1,152.7c0.5,0,1,0.1,1.5,0.3v0.9c-0.5-0.2-0.9-0.3-1.4-0.3c-1.2,0-1.7,0.8-1.7,2.4s0.5,2.4,1.7,2.4
				c0.5,0,1-0.1,1.4-0.3v0.9c-0.5,0.2-1,0.3-1.5,0.3c-1.9,0-2.6-1.2-2.6-3.3S40.2,152.7,42.1,152.7z"/>
		</g>
		<g>
			<path class="st1" d="M47.7,157.6h-2l-0.5,1.6h-1l2-6.4h1l2,6.4h-1L47.7,157.6z M46.7,154l-0.8,2.8h1.6L46.7,154z"/>
		</g>
		<g>
			<path class="st1" d="M50.6,158.3h2.8v0.9h-3.7v-6.4h1L50.6,158.3z"/>
		</g>
		<g>
			<path class="st1" d="M57.5,156.3h-2.7v2h2.9v0.9h-3.9v-6.4h3.9v0.9h-2.9v1.8h2.7V156.3z"/>
		</g>
		<g>
			<path class="st1" d="M63.5,156.4h-2.6v2.8H60v-6.4h3.8v0.9h-2.9v1.8h2.6L63.5,156.4z"/>
		</g>
		<g>
			<path class="st1" d="M64.3,156c0-1.8,0.4-3.3,2.5-3.3s2.4,1.5,2.4,3.3s-0.4,3.3-2.4,3.3S64.3,157.8,64.3,156z M65.3,156
				c0,1.5,0.3,2.4,1.5,2.4s1.5-0.9,1.5-2.4s-0.3-2.4-1.5-2.4S65.3,154.5,65.3,156L65.3,156z"/>
		</g>
		<g>
			<path class="st1" d="M69.9,156c0-1.8,0.4-3.3,2.4-3.3s2.5,1.5,2.5,3.3s-0.4,3.3-2.5,3.3S69.9,157.8,69.9,156z M70.9,156
				c0,1.5,0.3,2.4,1.5,2.4s1.5-0.9,1.5-2.4s-0.3-2.4-1.5-2.4S70.8,154.5,70.9,156L70.9,156z"/>
		</g>
		<g>
			<path class="st1" d="M75.7,159.2v-6.4h1.9c2.1,0,2.7,1.4,2.7,3.2s-0.6,3.2-2.7,3.2H75.7z M76.6,158.3h1c1.3,0,1.7-0.9,1.7-2.3
				s-0.4-2.3-1.7-2.3h-1V158.3z"/>
		</g>
		<g>
			<path class="st1" d="M7.8,168.2h-1v-6.4h2.1c1.6,0,2.2,0.9,2.2,2s-0.6,2-2.2,2H7.8V168.2z M7.8,165H9c0.6,0.1,1.2-0.4,1.2-1
				c0.1-0.6-0.4-1.2-1-1.2c-0.1,0-0.1,0-0.2,0H7.8V165z"/>
		</g>
		<g>
			<path class="st1" d="M12.7,168.2h-1v-6.4h2.1c1.6,0,2.2,0.7,2.2,1.9c0.1,0.7-0.3,1.4-1,1.7l1.3,2.8h-1.1l-1.2-2.6h-1.3V168.2z
				 M12.7,164.7H14c0.9,0,1-0.5,1-1s-0.1-1-1-1h-1.3V164.7z"/>
		</g>
		<g>
			<path class="st1" d="M16.7,165c0-1.8,0.4-3.3,2.5-3.3s2.5,1.5,2.5,3.3s-0.4,3.3-2.5,3.3S16.7,166.8,16.7,165z M17.7,165
				c0,1.5,0.3,2.4,1.5,2.4s1.5-0.9,1.5-2.4s-0.3-2.4-1.5-2.4S17.7,163.5,17.7,165L17.7,165z"/>
		</g>
		<g>
			<path class="st1" d="M22.4,168.2v-6.4h1.9c2.1,0,2.7,1.4,2.7,3.2s-0.6,3.2-2.7,3.2H22.4z M23.3,167.3h1c1.3,0,1.7-0.9,1.7-2.3
				s-0.4-2.3-1.7-2.3h-1V167.3z"/>
		</g>
		<g>
			<path class="st1" d="M27.8,166.2v-4.4h1v4.3c-0.1,0.7,0.4,1.2,1,1.3c0.1,0,0.2,0,0.3,0c0.7,0.1,1.3-0.4,1.4-1c0-0.1,0-0.2,0-0.3
				v-4.3h1v4.4c0,1.1-0.8,2.1-2,2.1c-0.1,0-0.2,0-0.3,0c-1.1,0.2-2.1-0.6-2.3-1.7C27.8,166.5,27.8,166.4,27.8,166.2z"/>
		</g>
		<g>
			<path class="st1" d="M35.7,161.7c0.5,0,1,0.1,1.5,0.3v0.9c-0.5-0.2-0.9-0.3-1.4-0.3c-1.2,0-1.7,0.8-1.7,2.4s0.5,2.4,1.7,2.4
				c0.5,0,1-0.1,1.4-0.3v0.9c-0.5,0.2-1,0.3-1.5,0.3c-1.9,0-2.6-1.2-2.6-3.3S33.8,161.7,35.7,161.7z"/>
		</g>
		<g>
			<path class="st1" d="M41.7,165.3H39v2h3v0.9h-3.9v-6.4H42v0.9h-3v1.8h2.7L41.7,165.3z"/>
		</g>
		<g>
			<path class="st1" d="M43.8,168.2h-1v-6.4h2.1c1.7,0,2.2,0.7,2.2,1.9c0.1,0.7-0.3,1.4-1,1.7l1.3,2.8h-1.1l-1.2-2.6h-1.3V168.2z
				 M43.8,164.7H45c0.9,0,1-0.5,1-1s-0.1-1-1-1h-1.2V164.7z"/>
		</g>
		<g>
			<path class="st1" d="M52,166.3c0,1.2-0.7,2-2.4,2c-0.6,0-1.3-0.1-1.9-0.4v-1c0.6,0.3,1.2,0.4,1.8,0.4c1.2,0,1.5-0.5,1.5-1.1
				s-0.3-0.9-1.2-1c-1.5-0.2-2.2-0.6-2.2-1.8c0-0.9,0.5-1.9,2.3-1.9c0.6,0,1.2,0.1,1.7,0.3v1c-0.5-0.2-1.1-0.3-1.7-0.3
				c-1,0-1.3,0.4-1.3,1s0.4,0.8,1.2,0.9C51.3,164.7,52,165,52,166.3z"/>
		</g>
	</g>
	<g>
		<rect x="3.3" y="24" class="st1" width="94.8" height="94.8"/>
	</g>
	<g>
		<path class="st1" d="M98.2,20.7H3.3V3.3h94.8V20.7z M4.3,19.7h92.8V4.3H4.3L4.3,19.7z"/>
	</g>
	<g class="st2">
		<path class="st1" d="M6.7,6.9h4.5v1.4H9.9v8.8H8.1V8.3H6.7V6.9z"/>
	</g>
	<g class="st2">
		<path class="st1" d="M11.2,17.1l1.9-10.2h1.9L17,17.1h-1.8l-0.3-1.9h-1.8l-0.3,1.9H11.2z M13.3,13.9h1.4L14,9.8h0L13.3,13.9z"/>
	</g>
	<g class="st2">
		<path class="st1" d="M19.6,12.4v4.7h-1.7V6.9h2.5c1.7,0,2.4,0.9,2.4,2.3v1.3c0,1.1-0.4,1.7-1.4,2l1.6,4.6h-1.8L19.6,12.4z
			 M19.6,8.3v3.2h0.6c0.6,0,0.8-0.3,0.8-0.8V9.2c0-0.6-0.3-0.8-0.8-0.8H19.6z"/>
	</g>
	<g class="st2">
		<path class="st1" d="M26.4,11.7h2.4v5.4h-1.2V16c-0.2,0.8-0.7,1.2-1.6,1.2c-1.5,0-2.1-1.2-2.1-2.7V9.6c0-1.6,0.8-2.7,2.6-2.7
			c1.9,0,2.4,1.1,2.4,2.6v0.9h-1.6v-1c0-0.6-0.2-1-0.9-1c-0.6,0-0.9,0.4-0.9,1v5.5c0,0.6,0.3,1,0.8,1c0.6,0,0.8-0.3,0.8-1V13h-0.8
			V11.7z"/>
	</g>
	<g class="st2">
		<path class="st1" d="M30.2,6.9h4.1v1.4h-2.4v2.9h1.7v1.4h-1.7v3.1h2.4v1.4h-4.1V6.9z"/>
	</g>
	<g class="st2">
		<path class="st1" d="M35.1,6.9h4.5v1.4h-1.4v8.8h-1.7V8.3h-1.4V6.9z"/>
	</g>
	<g class="st2">
		<path class="st1" d="M79.4,15.2c0-1,0.3-1.7,1.3-2.7l1-1c0.6-0.6,0.6-0.9,0.6-1.8V9c0-0.6-0.3-0.8-0.6-0.8C81.3,8.2,81,8.4,81,9
			v1.3h-1.6V9c0-1.4,0.8-2.2,2.3-2.2C83.3,6.8,84,7.5,84,9v1c0,1-0.2,1.6-1.1,2.6l-1.1,1.2c-0.4,0.5-0.7,0.8-0.7,1.6v0.5h2.8v1.4
			h-4.4V15.2z"/>
	</g>
	<g class="st2">
	</g>
	<g class="st2">
		<path class="st1" d="M86.8,10.8c0.7,0,1.2,0.6,1.2,1.2c0,0.7-0.6,1.2-1.2,1.2c-0.7,0-1.2-0.6-1.2-1.2
			C85.6,11.4,86.1,10.8,86.8,10.8z"/>
	</g>
	<g class="st2">
		<path class="st1" d="M94.3,9.1V10c0,0.9-0.5,1.4-1.2,1.7c0.9,0.2,1.3,0.8,1.3,1.7v1.5c0,1.4-0.8,2.3-2.5,2.3c-1.7,0-2.4-1-2.4-2.5
			v-1.3h1.6v1.5c0,0.6,0.2,1,0.8,1c0.5,0,0.8-0.4,0.8-0.9v-1.7c0-0.5-0.2-0.8-0.8-0.8h-0.7v-1.3h0.6c0.6,0,0.9-0.3,0.9-0.8V9.2
			c0-0.6-0.2-0.9-0.7-0.9s-0.7,0.4-0.7,1v1h-1.6V9.4c0-1.5,0.6-2.6,2.4-2.6C93.6,6.8,94.3,7.7,94.3,9.1z"/>
	</g>
	<g>
		<path class="st1" d="M98.2,171.8h-95v-49.7h95V171.8z M4.2,170.8h93v-47.7h-93V170.8z"/>
	</g>
	<g>
		<g>
			<g>
				<path class="st0" d="M20.1,55.4c0,0-2.3,2.5-2.3,4.3c0,1.5,1.8,2.5,2.3,2.8c0,0,2.4-1.2,2.4-2.8C22.4,57.8,20.1,55.4,20.1,55.4z
					"/>
			</g>
			<g>
				<path class="st0" d="M14.9,59.9c0,0-0.4,4.1,1.4,5.4c0,0,0.6,0.8,3.4,1.2c0,0,0.3-2.7-0.7-3.8C18.9,62.7,18.4,61.9,14.9,59.9z"
					/>
			</g>
			<g>
				<path class="st0" d="M14.5,65c0,0-0.4,4.5,1.5,5.9c0,0,0.6,0.8,3.6,1.3c0,0,0.3-2.9-0.8-4.1C18.8,68.1,18.3,67.2,14.5,65z"/>
			</g>
			<g>
				<path class="st0" d="M14.6,70.9c0,0-0.6,4.9,1.3,6.2c0,0,0.8,0.9,3.8,1.4c0,0,0.5-3-0.6-4.2C19,74.3,18.3,73.1,14.6,70.9z"/>
			</g>
			<g>
				<path class="st0" d="M13.9,76.8c0,0-0.3,5,1.6,6.4c0,0,1,1,4,1.4c0,0,0.4-3.3-0.7-4.5C18.8,80.2,17.8,78.8,13.9,76.8z"/>
			</g>
			<g>
				<path class="st0" d="M25.3,59.9c0,0,0.4,4.1-1.4,5.4c0,0-0.6,0.8-3.4,1.2c0,0-0.3-2.7,0.7-3.8C21.3,62.7,21.8,61.9,25.3,59.9z"
					/>
			</g>
			<g>
				<path class="st0" d="M25.6,65c0,0,0.4,4.5-1.5,5.9c0,0-0.6,0.8-3.6,1.3c0,0-0.3-2.9,0.8-4.1C21.3,68.1,21.9,67.2,25.6,65z"/>
			</g>
			<g>
				<path class="st0" d="M25.6,70.9c0,0,0.6,4.9-1.3,6.2c0,0-0.8,0.9-3.8,1.4c0,0-0.5-3,0.7-4.2C21.2,74.3,21.8,73.1,25.6,70.9z"/>
			</g>
			<g>
				<path class="st0" d="M26.2,76.8c0,0,0.3,5-1.6,6.4c0,0-1,1-4,1.4c0,0-0.4-3.3,0.7-4.5C21.3,80.2,22.3,78.8,26.2,76.8z"/>
			</g>
			<g>
				<rect x="19.4" y="85.4" class="st0" width="1.3" height="11.3"/>
			</g>
			<g>
				<path class="st0" d="M15.8,50.3c0-0.2-0.2-0.4-0.4-0.4S15,50.1,15,50.3v8.8l0.9,0.5L15.8,50.3z"/>
			</g>
			<g>
				<path class="st0" d="M17.6,48.9c0-0.2-0.2-0.4-0.4-0.4s-0.4,0.2-0.4,0.4v10.4c0.2-0.8,0.5-1.5,0.9-2.2L17.6,48.9z"/>
			</g>
			<g>
				<path class="st0" d="M19.5,46.7c0-0.2-0.2-0.4-0.4-0.4s-0.4,0.2-0.4,0.4v9.1l0.9-1.2L19.5,46.7z"/>
			</g>
			<g>
				<path class="st0" d="M24.3,50.3c0-0.2,0.2-0.4,0.4-0.4c0.2,0,0.4,0.2,0.4,0.4c0,0,0,0,0,0v8.8l-0.9,0.5V50.3z"/>
			</g>
			<g>
				<path class="st0" d="M22.5,48.9c0-0.2,0.2-0.4,0.4-0.4s0.4,0.2,0.4,0.4v10.4c-0.2-0.8-0.5-1.5-0.9-2.2L22.5,48.9z"/>
			</g>
			<g>
				<path class="st0" d="M20.7,46.7c0-0.2,0.2-0.4,0.4-0.4s0.4,0.2,0.4,0.4v9.1l-0.9-1.2L20.7,46.7z"/>
			</g>
		</g>
		<g>
			<g>
				<path class="st0" d="M33.8,55.4c0,0-2.3,2.5-2.3,4.3c0,1.5,1.8,2.5,2.3,2.8c0,0,2.4-1.2,2.4-2.8C36.2,57.8,33.8,55.4,33.8,55.4z
					"/>
			</g>
			<g>
				<path class="st0" d="M28.6,59.9c0,0-0.4,4.1,1.4,5.4c0,0,0.6,0.8,3.4,1.2c0,0,0.3-2.7-0.7-3.8C32.6,62.7,32.1,61.9,28.6,59.9z"
					/>
			</g>
			<g>
				<path class="st0" d="M28.2,65c0,0-0.4,4.5,1.5,5.9c0,0,0.6,0.8,3.6,1.3c0,0,0.3-2.9-0.8-4.1C32.5,68.1,32,67.2,28.2,65z"/>
			</g>
			<g>
				<path class="st0" d="M28.3,70.9c0,0-0.6,4.9,1.3,6.2c0,0,0.8,0.9,3.8,1.4c0,0,0.5-3-0.7-4.2C32.7,74.3,32,73.1,28.3,70.9z"/>
			</g>
			<g>
				<path class="st0" d="M27.6,76.8c0,0-0.3,5,1.6,6.4c0,0,1,1,4,1.4c0,0,0.4-3.3-0.7-4.5C32.5,80.2,31.5,78.8,27.6,76.8z"/>
			</g>
			<g>
				<path class="st0" d="M39,59.9c0,0,0.4,4.1-1.4,5.4c0,0-0.6,0.8-3.4,1.2c0,0-0.3-2.7,0.7-3.8C35,62.7,35.5,61.9,39,59.9z"/>
			</g>
			<g>
				<path class="st0" d="M39.4,65c0,0,0.4,4.5-1.5,5.9c0,0-0.6,0.8-3.6,1.3c0,0-0.3-2.9,0.8-4.1C35,68.1,35.6,67.2,39.4,65z"/>
			</g>
			<g>
				<path class="st0" d="M39.3,70.9c0,0,0.7,4.9-1.3,6.2c0,0-0.8,0.9-3.8,1.4c0,0-0.5-3,0.7-4.2C34.9,74.3,35.5,73.1,39.3,70.9z"/>
			</g>
			<g>
				<path class="st0" d="M39.9,76.8c0,0,0.3,5-1.6,6.4c0,0-1,1-4,1.4c0,0-0.4-3.3,0.7-4.5C35,80.2,36,78.8,39.9,76.8z"/>
			</g>
			<g>
				<rect x="33.1" y="85.4" class="st0" width="1.3" height="11.3"/>
			</g>
			<g>
				<path class="st0" d="M29.5,50.3c0-0.2-0.2-0.4-0.4-0.4s-0.4,0.2-0.4,0.4v8.8l0.9,0.5L29.5,50.3z"/>
			</g>
			<g>
				<path class="st0" d="M31.4,48.9c0-0.2-0.2-0.4-0.4-0.4s-0.4,0.2-0.4,0.4v10.4c0.2-0.8,0.5-1.5,0.9-2.2L31.4,48.9z"/>
			</g>
			<g>
				<path class="st0" d="M33.2,46.7c0-0.2-0.2-0.4-0.4-0.4s-0.4,0.2-0.4,0.4v9.1l0.9-1.2L33.2,46.7z"/>
			</g>
			<g>
				<path class="st0" d="M38,50.3c0-0.2,0.2-0.4,0.4-0.4c0.2,0,0.4,0.2,0.4,0.4l0,0v8.8L38,59.6V50.3z"/>
			</g>
			<g>
				<path class="st0" d="M36.2,48.9c0-0.2,0.2-0.4,0.4-0.4s0.4,0.2,0.4,0.4v10.4c-0.2-0.8-0.5-1.5-0.9-2.2L36.2,48.9z"/>
			</g>
			<g>
				<path class="st0" d="M34.4,46.7c0-0.2,0.2-0.4,0.4-0.4s0.4,0.2,0.4,0.4v9.1l-0.9-1.2L34.4,46.7z"/>
			</g>
		</g>
		<g>
			<g>
				<path class="st0" d="M47.5,55.4c0,0-2.3,2.5-2.3,4.3c0,1.5,1.8,2.5,2.3,2.8c0,0,2.4-1.2,2.4-2.8C49.9,57.8,47.5,55.4,47.5,55.4z
					"/>
			</g>
			<g>
				<path class="st0" d="M42.3,59.9c0,0-0.4,4.1,1.4,5.4c0,0,0.6,0.8,3.4,1.2c0,0,0.3-2.7-0.7-3.8C46.3,62.7,45.8,61.9,42.3,59.9z"
					/>
			</g>
			<g>
				<path class="st0" d="M41.9,65c0,0-0.4,4.5,1.5,5.9c0,0,0.6,0.8,3.6,1.3c0,0,0.3-2.9-0.8-4.1C46.2,68.1,45.7,67.2,41.9,65z"/>
			</g>
			<g>
				<path class="st0" d="M42,70.9c0,0-0.7,4.9,1.3,6.2c0,0,0.8,0.9,3.8,1.4c0,0,0.5-3-0.7-4.2C46.4,74.3,45.8,73.1,42,70.9z"/>
			</g>
			<g>
				<path class="st0" d="M41.3,76.8c0,0-0.3,5,1.7,6.4c0,0,1,1,4,1.4c0,0,0.4-3.3-0.7-4.5C46.2,80.2,45.2,78.8,41.3,76.8z"/>
			</g>
			<g>
				<path class="st0" d="M52.7,59.9c0,0,0.4,4.1-1.4,5.4c0,0-0.6,0.8-3.4,1.2c0,0-0.3-2.7,0.7-3.8C48.7,62.7,49.2,61.9,52.7,59.9z"
					/>
			</g>
			<g>
				<path class="st0" d="M53.1,65c0,0,0.4,4.5-1.5,5.9c0,0-0.6,0.8-3.6,1.3c0,0-0.3-2.9,0.8-4.1C48.7,68.1,49.3,67.2,53.1,65z"/>
			</g>
			<g>
				<path class="st0" d="M53,70.9c0,0,0.7,4.9-1.3,6.2c0,0-0.8,0.9-3.8,1.4c0,0-0.5-3,0.7-4.2C48.6,74.3,49.2,73.1,53,70.9z"/>
			</g>
			<g>
				<path class="st0" d="M53.6,76.8c0,0,0.3,5-1.6,6.4c0,0-1,1-4,1.4c0,0-0.4-3.3,0.7-4.5C48.8,80.2,49.7,78.8,53.6,76.8z"/>
			</g>
			<g>
				<rect x="46.8" y="85.4" class="st0" width="1.3" height="11.3"/>
			</g>
			<g>
				<path class="st0" d="M43.2,50.3c0-0.2-0.2-0.4-0.4-0.4s-0.4,0.2-0.4,0.4v8.8l0.9,0.5L43.2,50.3z"/>
			</g>
			<g>
				<path class="st0" d="M45,48.9c0-0.2-0.2-0.4-0.4-0.4c-0.2,0-0.4,0.2-0.5,0.4v10.4c0.2-0.8,0.5-1.5,0.9-2.2L45,48.9z"/>
			</g>
			<g>
				<path class="st0" d="M46.9,46.7c0-0.2-0.2-0.4-0.4-0.4c-0.2,0-0.4,0.2-0.4,0.4l0,0v9.1l0.9-1.2V46.7z"/>
			</g>
			<g>
				<path class="st0" d="M51.8,50.3c0-0.2,0.2-0.4,0.4-0.4c0.2,0,0.4,0.2,0.4,0.4l0,0v8.8l-0.9,0.5V50.3z"/>
			</g>
			<g>
				<path class="st0" d="M49.9,48.9c0-0.2,0.2-0.4,0.4-0.4s0.4,0.2,0.4,0.4v10.4c-0.2-0.8-0.5-1.5-0.9-2.2L49.9,48.9z"/>
			</g>
			<g>
				<path class="st0" d="M48.1,46.7c0-0.2,0.2-0.4,0.5-0.4c0.2,0,0.4,0.2,0.4,0.4v9.1l-0.9-1.2V46.7z"/>
			</g>
		</g>
		<g>
			<path class="st0" d="M72.5,62l-3.4,10.7L73,84.6h-4.5l-2.6-8.5l-2.6,8.5h-4.1L63,72.5L59.5,62H64l2.2,7.3l2.2-7.3H72.5z"/>
		</g>
		<g>
			<path class="st0" d="M75.5,79.6c0-2.7,0.9-4.4,3.4-7.1l2.6-2.7c1.5-1.6,1.7-2.4,1.7-4.7v-2.2c0-1.7-0.8-2-1.6-2s-1.8,0.5-1.8,2.1
				v3.4h-4.2v-3.3c0-3.8,2-5.9,6-5.9s5.9,1.8,5.9,5.7v2.6c0,2.7-0.5,4.3-2.9,6.8l-2.9,3.1c-1.2,1.2-1.9,2-1.9,4.2v1.3h7.5v3.7H75.5
				V79.6z"/>
		</g>
	</g>
</g>
</svg>
