<?xml version="1.0" encoding="utf-8"?>
<!-- Generator: Adobe Illustrator 22.0.1, SVG Export Plug-In . SVG Version: 6.00 Build 0)  -->
<svg version="1.1" id="Layer_1" xmlns="http://www.w3.org/2000/svg" xmlns:xlink="http://www.w3.org/1999/xlink" x="0px" y="0px"
	 viewBox="0 0 101.5 157.1" style="enable-background:new 0 0 101.5 157.1;" xml:space="preserve">
<style type="text/css">
	.st0{fill:#FFFFFF;}
	.st1{fill:#DDA63A;}
	.st2{enable-background:new    ;}
</style>
<title>TARGET 1.5</title>
<g id="WHITE_BG">
	<g>
		<rect y="0" class="st0" width="101.5" height="157.1"/>
	</g>
</g>
<g id="TARGETS">
	<g>
		<g>
			<path class="st1" d="M10.3,131.3H9.4l-1.6-3.9v4.8h-1v-6.4h1.3l1.7,4.3l1.7-4.3h1.2v6.4h-0.9v-4.8L10.3,131.3z"/>
		</g>
		<g>
			<path class="st1" d="M16.8,130.7h-2l-0.4,1.6h-1l2-6.4h1l2,6.4h-1L16.8,130.7z M15.8,127l-0.8,2.8h1.6L15.8,127z"/>
		</g>
		<g>
			<path class="st1" d="M19.1,132.2v-6.4h1v6.4H19.1z"/>
		</g>
		<g>
			<path class="st1" d="M24.8,132.2l-2.8-4.5v4.5h-1v-6.4H22l2.8,4.5v-4.5h0.9v6.4H24.8z"/>
		</g>
		<g>
			<path class="st1" d="M29,126.7v5.5h-1v-5.5h-1.6v-0.9h4.3v0.9L29,126.7z"/>
		</g>
		<g>
			<path class="st1" d="M33.7,130.7h-2l-0.5,1.6h-1l2-6.4h1l2,6.4h-1L33.7,130.7z M32.7,127l-0.8,2.8h1.6L32.7,127z"/>
		</g>
		<g>
			<path class="st1" d="M36,132.2v-6.4h1v6.4H36z"/>
		</g>
		<g>
			<path class="st1" d="M41.7,132.2l-2.8-4.5v4.5H38v-6.4h0.9l2.8,4.5v-4.5h0.9v6.4H41.7z"/>
		</g>
		<g>
			<path class="st1" d="M47.2,126.7v5.5h-1v-5.5h-1.6v-0.9h4.3v0.9L47.2,126.7z"/>
		</g>
		<g>
			<path class="st1" d="M53.1,132.2v-2.9h-2.6v2.9h-1v-6.4h1v2.6h2.6v-2.6H54v6.4H53.1z"/>
		</g>
		<g>
			<path class="st1" d="M58.6,129.3h-2.7v2h2.9v0.9H55v-6.4h3.9v0.9h-3v1.8h2.7V129.3z"/>
		</g>
		<g>
			<path class="st1" d="M61.2,129c0-2,0.7-3.3,2.6-3.3c0.6,0,1.3,0.1,1.8,0.3v1c-0.5-0.2-1.1-0.4-1.7-0.4c-1.3,0-1.8,0.9-1.8,2.4
				s0.5,2.4,1.8,2.4c0.3,0,0.6,0,0.9-0.1v-1.7h-1.1v-0.9h2.1v3.2c-0.6,0.3-1.3,0.4-2,0.4C61.9,132.3,61.2,131,61.2,129z"/>
		</g>
		<g>
			<path class="st1" d="M70.3,129.3h-2.7v2h2.9v0.9h-3.9v-6.4h3.9v0.9h-2.9v1.8h2.7V129.3z"/>
		</g>
		<g>
			<path class="st1" d="M75.2,132.2l-2.8-4.5v4.5h-1v-6.4h0.9l2.8,4.5v-4.5h1v6.4H75.2z"/>
		</g>
		<g>
			<path class="st1" d="M80.6,129.3h-2.7v2h2.9v0.9H77v-6.4h3.9v0.9h-3v1.8h2.7V129.3z"/>
		</g>
		<g>
			<path class="st1" d="M84,126.7v5.5h-1v-5.5h-1.6v-0.9h4.3v0.9L84,126.7z"/>
		</g>
		<g>
			<path class="st1" d="M86.5,132.2v-6.4h1v6.4H86.5z"/>
		</g>
		<g>
			<path class="st1" d="M91.1,125.7c0.5,0,1,0.1,1.5,0.3v0.9c-0.4-0.2-0.9-0.3-1.4-0.3c-1.2,0-1.7,0.8-1.7,2.4s0.5,2.4,1.7,2.4
				c0.5,0,1-0.1,1.4-0.3v0.9c-0.5,0.2-1,0.3-1.5,0.3c-1.9,0-2.6-1.2-2.6-3.3S89.2,125.7,91.1,125.7z"/>
		</g>
		<g>
			<path class="st1" d="M6.9,141.2v-6.4h1.9c2.1,0,2.7,1.4,2.7,3.2s-0.6,3.2-2.7,3.2H6.9z M7.9,140.3h1c1.3,0,1.7-0.9,1.7-2.3
				s-0.4-2.3-1.7-2.3h-1L7.9,140.3z"/>
		</g>
		<g>
			<path class="st1" d="M12.5,141.2v-6.4h0.9v6.4H12.5z"/>
		</g>
		<g>
			<path class="st1" d="M19.1,134.8l-2,6.4h-1l-2-6.4h1l1.5,5.2l1.5-5.2L19.1,134.8z"/>
		</g>
		<g>
			<path class="st1" d="M23.2,138.3h-2.6v2h2.9v0.9h-3.9v-6.4h3.9v0.9h-2.9v1.8h2.6V138.3z"/>
		</g>
		<g>
			<path class="st1" d="M25.3,141.2h-1v-6.4h2.1c1.6,0,2.2,0.7,2.2,1.9c0.1,0.7-0.3,1.4-1,1.7l1.3,2.8h-1.1l-1.2-2.6h-1.3V141.2z
				 M25.3,137.7h1.2c0.9,0,1-0.5,1-1s-0.1-1-1-1h-1.2V137.7z"/>
		</g>
		<g>
			<path class="st1" d="M33.7,139.3c0,1.2-0.7,2-2.4,2c-0.6,0-1.3-0.1-1.9-0.4V140c0.6,0.3,1.2,0.4,1.8,0.4c1.2,0,1.5-0.5,1.5-1.1
				s-0.3-0.9-1.2-1c-1.6-0.2-2.2-0.6-2.2-1.8c0-0.9,0.5-1.8,2.3-1.8c0.6,0,1.2,0.1,1.7,0.3v1c-0.5-0.2-1.1-0.3-1.7-0.3
				c-1,0-1.3,0.4-1.3,1c0,0.7,0.4,0.8,1.2,0.9C32.9,137.7,33.7,138,33.7,139.3z"/>
		</g>
		<g>
			<path class="st1" d="M34.6,141.2v-6.4h1v6.4H34.6z"/>
		</g>
		<g>
			<path class="st1" d="M39,135.7v5.5h-1v-5.5h-1.6v-0.9h4.3v0.9H39z"/>
		</g>
		<g>
			<path class="st1" d="M44,138.7v2.6h-1v-2.6l-2.2-3.8h1.1l1.6,3l1.6-3h1.1L44,138.7z"/>
		</g>
		<g>
			<path class="st1" d="M48.1,141.2v-6.4h1v6.4H48.1z"/>
		</g>
		<g>
			<path class="st1" d="M53.8,141.2l-2.8-4.5v4.5h-1v-6.4H51l2.8,4.5v-4.5h0.9v6.4H53.8z"/>
		</g>
		<g>
			<path class="st1" d="M60.6,138.4H58v2.8h-1v-6.4h3.8v0.9H58v1.8h2.6L60.6,138.4z"/>
		</g>
		<g>
			<path class="st1" d="M61.3,138c0-1.8,0.4-3.3,2.5-3.3c2.1,0,2.4,1.5,2.4,3.3s-0.4,3.3-2.5,3.3S61.3,139.8,61.3,138z M62.3,138
				c0,1.5,0.3,2.4,1.5,2.4c1.2,0,1.5-0.9,1.5-2.4s-0.3-2.4-1.5-2.4S62.3,136.5,62.3,138L62.3,138z"/>
		</g>
		<g>
			<path class="st1" d="M66.9,138c0-1.8,0.4-3.3,2.4-3.3s2.5,1.5,2.5,3.3s-0.4,3.3-2.5,3.3S66.9,139.8,66.9,138z M67.9,138
				c0,1.5,0.3,2.4,1.5,2.4s1.5-0.9,1.5-2.4s-0.3-2.4-1.5-2.4S67.9,136.5,67.9,138L67.9,138z"/>
		</g>
		<g>
			<path class="st1" d="M72.7,141.2v-6.4h1.9c2.1,0,2.7,1.4,2.7,3.2s-0.6,3.2-2.7,3.2H72.7z M73.7,140.3h1c1.3,0,1.7-0.9,1.7-2.3
				s-0.4-2.3-1.7-2.3h-1V140.3z"/>
		</g>
		<g>
			<path class="st1" d="M7.8,150.2h-1v-6.4h2.1c1.6,0,2.2,0.9,2.2,2s-0.6,2-2.2,2H7.8V150.2z M7.8,147H9c0.6,0.1,1.2-0.4,1.2-1
				c0.1-0.6-0.4-1.2-1-1.2c-0.1,0-0.1,0-0.2,0H7.8V147z"/>
		</g>
		<g>
			<path class="st1" d="M12.6,150.2h-1v-6.4h2.1c1.6,0,2.2,0.7,2.2,1.9c0.1,0.7-0.3,1.4-1,1.7l1.3,2.8H15l-1.2-2.6h-1.3V150.2z
				 M12.6,146.7h1.3c0.9,0,1-0.5,1-1s-0.1-1-1-1h-1.3V146.7z"/>
		</g>
		<g>
			<path class="st1" d="M16.5,147c0-1.8,0.4-3.3,2.5-3.3s2.5,1.5,2.5,3.3s-0.4,3.3-2.5,3.3S16.5,148.8,16.5,147z M17.5,147
				c0,1.5,0.3,2.4,1.5,2.4s1.5-0.9,1.5-2.4s-0.3-2.4-1.5-2.4S17.5,145.5,17.5,147L17.5,147z"/>
		</g>
		<g>
			<path class="st1" d="M22.3,150.2v-6.4h1.9c2.1,0,2.7,1.4,2.7,3.2s-0.6,3.2-2.7,3.2H22.3z M23.3,149.3h1c1.3,0,1.7-0.9,1.7-2.3
				s-0.4-2.3-1.7-2.3h-1V149.3z"/>
		</g>
		<g>
			<path class="st1" d="M27.7,148.2v-4.4h1v4.3c-0.1,0.7,0.4,1.3,1.1,1.3c0.1,0,0.1,0,0.2,0c0.6,0.1,1.3-0.3,1.4-1
				c0-0.1,0-0.2,0-0.3v-4.3h1v4.4c0,1.1-0.8,2.1-2,2.1c-0.1,0-0.2,0-0.4,0c-1.1,0.1-2.1-0.7-2.3-1.8
				C27.7,148.4,27.7,148.3,27.7,148.2z"/>
		</g>
		<g>
			<path class="st1" d="M35.8,143.7c0.5,0,1,0.1,1.5,0.3v0.9c-0.4-0.2-0.9-0.3-1.4-0.3c-1.2,0-1.7,0.8-1.7,2.4s0.5,2.4,1.7,2.4
				c0.5,0,1-0.1,1.4-0.3v0.9c-0.5,0.2-1,0.3-1.5,0.3c-1.9,0-2.6-1.2-2.6-3.3S33.9,143.7,35.8,143.7z"/>
		</g>
		<g>
			<path class="st1" d="M40.3,144.7v5.5h-1v-5.5h-1.6v-0.9H42v0.9H40.3z"/>
		</g>
		<g>
			<path class="st1" d="M42.8,150.2v-6.4h1v6.4H42.8z"/>
		</g>
		<g>
			<path class="st1" d="M44.7,147c0-1.8,0.4-3.3,2.5-3.3s2.5,1.5,2.5,3.3s-0.4,3.3-2.5,3.3S44.7,148.8,44.7,147z M45.7,147
				c0,1.5,0.3,2.4,1.5,2.4s1.5-0.9,1.5-2.4s-0.3-2.4-1.5-2.4S45.7,145.5,45.7,147L45.7,147z"/>
		</g>
		<g>
			<path class="st1" d="M54.1,150.2l-2.8-4.5v4.5h-1v-6.4h0.9l2.8,4.5v-4.5h0.9v6.4L54.1,150.2z"/>
		</g>
	</g>
	<g>
		<rect x="3.3" y="24" class="st1" width="94.8" height="94.8"/>
	</g>
	<g>
		<path class="st1" d="M98.2,20.7H3.3V3.3h94.8V20.7z M4.3,19.7h92.8V4.3H4.3L4.3,19.7z"/>
	</g>
	<g class="st2">
		<path class="st1" d="M6.7,6.9h4.5v1.4H9.9v8.8H8.1V8.3H6.7V6.9z"/>
	</g>
	<g class="st2">
		<path class="st1" d="M11.2,17.1l1.9-10.2h1.9L17,17.1h-1.8l-0.3-1.9h-1.8l-0.3,1.9H11.2z M13.3,13.9h1.4L14,9.8h0L13.3,13.9z"/>
	</g>
	<g class="st2">
		<path class="st1" d="M19.6,12.5v4.7h-1.7V6.9h2.5c1.7,0,2.4,0.9,2.4,2.3v1.3c0,1.1-0.4,1.7-1.4,2l1.6,4.6h-1.8L19.6,12.5z
			 M19.6,8.3v3.2h0.6c0.6,0,0.8-0.3,0.8-0.8V9.2c0-0.6-0.3-0.8-0.8-0.8H19.6z"/>
	</g>
	<g class="st2">
		<path class="st1" d="M26.4,11.7h2.4v5.4h-1.2V16c-0.2,0.8-0.7,1.2-1.6,1.2c-1.5,0-2.1-1.2-2.1-2.7V9.6c0-1.6,0.8-2.7,2.6-2.7
			c1.9,0,2.4,1.1,2.4,2.6v0.9h-1.6v-1c0-0.6-0.2-1-0.9-1c-0.6,0-0.9,0.4-0.9,1v5.5c0,0.6,0.3,1,0.8,1c0.6,0,0.8-0.3,0.8-1V13h-0.8
			V11.7z"/>
	</g>
	<g class="st2">
		<path class="st1" d="M30.2,6.9h4.1v1.4h-2.4v2.9h1.7v1.4h-1.7v3.1h2.4v1.4h-4.1V6.9z"/>
	</g>
	<g class="st2">
		<path class="st1" d="M35.1,6.9h4.5v1.4h-1.4v8.8h-1.7V8.3h-1.4V6.9z"/>
	</g>
	<g class="st2">
		<path class="st1" d="M79.2,15.2c0-1,0.3-1.7,1.3-2.7l1-1c0.6-0.6,0.6-0.9,0.6-1.8V9c0-0.6-0.3-0.8-0.6-0.8c-0.4,0-0.7,0.2-0.7,0.8
			v1.3h-1.6V9.1c0-1.4,0.8-2.2,2.3-2.2c1.5,0,2.2,0.7,2.2,2.1v1c0,1-0.2,1.6-1.1,2.6l-1.1,1.2c-0.4,0.5-0.7,0.8-0.7,1.6v0.5h2.8v1.4
			h-4.4V15.2z"/>
	</g>
	<g class="st2">
	</g>
	<g class="st2">
		<path class="st1" d="M86.6,10.8c0.7,0,1.2,0.6,1.2,1.2c0,0.7-0.6,1.2-1.2,1.2c-0.7,0-1.2-0.6-1.2-1.2
			C85.3,11.4,85.9,10.8,86.6,10.8z"/>
	</g>
	<g class="st2">
		<path class="st1" d="M94.3,12.4v2.5c0,1.4-0.7,2.3-2.4,2.3c-1.7,0-2.4-1-2.4-2.5v-1.2h1.6v1.3c0,0.6,0.2,1,0.8,1
			c0.5,0,0.7-0.4,0.7-0.9v-2.5c0-0.6-0.2-0.9-0.7-0.9c-0.5,0-0.8,0.3-0.8,0.9v0.2h-1.6V6.9h4.5v1.4h-2.9v2.5h0
			c0.3-0.5,0.8-0.7,1.4-0.7C93.5,10.2,94.3,10.8,94.3,12.4z"/>
	</g>
	<g>
		<path class="st1" d="M98.2,153.8H3.3v-31.6h94.8V153.8z M4.3,152.8h92.8v-29.6H4.3L4.3,152.8z"/>
	</g>
	<g>
		<g>
			<g>
				<path class="st0" d="M50.8,69.5c0.6-0.4,2.7-1.5,2.7-3.3c0-2.2-2.8-5.1-2.8-5.1S48,63.9,48,66.2C48,68,50.8,69.5,50.8,69.5z"/>
			</g>
			<g>
				<path class="st0" d="M52.1,69.7c-1.2,1.3-0.9,4.4-0.9,4.4c3.3-0.5,4-1.4,4-1.4c2.1-1.5,1.6-6.4,1.6-6.4
					C52.8,68.8,52.1,69.7,52.1,69.7z"/>
			</g>
			<g>
				<path class="st0" d="M52.2,76c-1.3,1.4-0.9,4.8-0.9,4.8c3.5-0.6,4.3-1.6,4.3-1.6c2.3-1.6,1.8-6.9,1.8-6.9
					C52.9,75,52.2,76,52.2,76z"/>
			</g>
			<g>
				<path class="st0" d="M52.1,83.4c-1.3,1.4-0.8,4.9-0.8,4.9c3.5-0.6,4.5-1.6,4.5-1.6c2.3-1.6,1.5-7.4,1.5-7.4
					C52.8,81.9,52.1,83.4,52.1,83.4z"/>
			</g>
			<g>
				<path class="st0" d="M52.2,90.3c-1.3,1.4-0.9,5.3-0.9,5.3c3.5-0.6,4.7-1.7,4.7-1.7c2.3-1.6,1.9-7.6,1.9-7.6
					C53.4,88.7,52.2,90.3,52.2,90.3z"/>
			</g>
			<g>
				<path class="st0" d="M46.2,72.7c0,0,0.7,0.9,4,1.4c0,0,0.3-3.2-0.9-4.4c0,0-0.6-0.9-4.8-3.3C44.6,66.4,44.1,71.3,46.2,72.7z"/>
			</g>
			<g>
				<path class="st0" d="M45.9,79.3c0,0,0.7,1,4.3,1.6c0,0,0.4-3.4-0.9-4.8c0,0-0.7-1-5.1-3.6C44.2,72.4,43.6,77.7,45.9,79.3z"/>
			</g>
			<g>
				<path class="st0" d="M44.2,79.3c0,0-0.8,5.8,1.5,7.4c0,0,0.9,1.1,4.5,1.6c0,0,0.5-3.5-0.8-4.9C49.4,83.4,48.7,81.9,44.2,79.3z"
					/>
			</g>
			<g>
				<path class="st0" d="M49.2,90.3c0,0-1.2-1.6-5.8-4c0,0-0.4,6,1.9,7.6c0,0,1.2,1.1,4.7,1.7C50.1,95.5,50.6,91.7,49.2,90.3z"/>
			</g>
			<g>
				<path class="st0" d="M56.8,55.8c-0.1-0.3-0.4-0.4-0.6-0.4c-0.2,0-0.3,0.2-0.4,0.4V66l1-0.6V55.8z"/>
			</g>
			<g>
				<path class="st0" d="M54.7,65.6V54.1c-0.1-0.3-0.4-0.4-0.6-0.4c-0.2,0-0.3,0.2-0.4,0.4v9C54.1,63.9,54.4,64.8,54.7,65.6
					L54.7,65.6z"/>
			</g>
			<g>
				<path class="st0" d="M52.5,51.4c0-0.3-0.2-0.5-0.5-0.5l0,0c-0.3,0-0.5,0.2-0.5,0.5l0,0V60l1,1.4L52.5,51.4z"/>
			</g>
			<g>
				<path class="st0" d="M45.7,55.8c0-0.3-0.2-0.5-0.5-0.5l0,0c-0.3,0-0.5,0.2-0.5,0.5l0,0v9.6l1,0.6L45.7,55.8z"/>
			</g>
			<g>
				<path class="st0" d="M47.8,63.1v-9c0-0.3-0.2-0.5-0.5-0.5c-0.3,0-0.5,0.2-0.5,0.5c0,0,0,0,0,0v11.6
					C47.1,64.8,47.4,63.9,47.8,63.1z"/>
			</g>
			<g>
				<path class="st0" d="M50,51.4c0-0.3-0.2-0.5-0.5-0.5l0,0c-0.3,0-0.5,0.2-0.5,0.5l0,0v10l1-1.4V51.4z"/>
			</g>
			<g>
				<rect x="49.8" y="97.9" class="st0" width="2" height="12"/>
			</g>
		</g>
		<g>
			<g>
				<path class="st0" d="M23.9,47.4c1.6,0,2.7-1.3,2.3-4c-0.4-2-1.2-3.9-2.4-5.6c0,0-2.1,4-2.2,6S22,47.4,23.9,47.4z"/>
			</g>
			<g>
				<path class="st0" d="M25.1,48.6c-1.1,1.7-1.6,3.4,0,4.3c1,0.6,3-0.4,4-2.9c0.7-1.8,1-3.8,0.9-5.8C30,44.3,26.2,46.9,25.1,48.6z"
					/>
			</g>
			<g>
				<path class="st0" d="M25.1,56c-1.1,1.7-1.6,3.4,0,4.3c1,0.6,3-0.4,4-2.9c0.7-1.8,1-3.8,0.9-5.8C30,51.7,26.2,54.3,25.1,56z"/>
			</g>
			<g>
				<path class="st0" d="M25.2,63.2c-1.1,1.7-1.6,3.4,0,4.3c1,0.6,3-0.4,4-2.9c0.7-1.8,1-3.8,0.9-5.8C30.1,58.8,26.3,61.5,25.2,63.2
					z"/>
			</g>
			<g>
				<path class="st0" d="M25.2,70.6c-1.1,1.7-1.6,3.4,0,4.3c1,0.6,3-0.4,4-2.9c0.7-1.9,1-3.8,0.9-5.8C30.1,66.2,26.3,68.9,25.2,70.6
					z"/>
			</g>
			<g>
				<path class="st0" d="M22.9,52.9c1.6-1,1.1-2.7,0-4.3s-5-4.3-5-4.3c-0.1,2,0.2,3.9,0.9,5.8C19.8,52.5,21.8,53.6,22.9,52.9z"/>
			</g>
			<g>
				<path class="st0" d="M22.9,60.3c1.6-1,1.1-2.7,0-4.3s-5-4.3-5-4.3c-0.1,2,0.2,3.9,0.9,5.8C19.8,59.9,21.8,60.9,22.9,60.3z"/>
			</g>
			<g>
				<path class="st0" d="M22.8,67.5c1.6-1,1.1-2.7,0-4.3s-5-4.3-5-4.3c-0.1,2,0.3,3.9,0.9,5.8C19.7,67.1,21.7,68.1,22.8,67.5z"/>
			</g>
			<g>
				<path class="st0" d="M22.8,74.9c1.6-1,1.1-2.7,0-4.3s-5-4.3-5-4.3c0,2,0.3,3.9,1,5.8C19.7,74.5,21.7,75.5,22.8,74.9z"/>
			</g>
			<g>
				<path class="st0" d="M29.4,74.6c0,0-2.1,13.2-4.4,24.3V77.5h-2V99c-2.3-11-4.4-24.4-4.4-24.4C18,84.7,19.5,94.8,23,104.2l0,0
					v5.7h2v-5.7C28.6,94.8,30.1,84.7,29.4,74.6z"/>
			</g>
		</g>
		<g>
			<g>
				<path class="st0" d="M77.6,85.5h-2v12L74.1,93c-0.3-0.9-1.3-1.4-2.1-1.1c-0.3,0.1-0.5,0.2-0.7,0.4l-8.5,8.9l9.2-3.9l3.7,7.4l0,0
					v5.3h2L77.6,85.5z"/>
			</g>
			<g>
				<path class="st0" d="M74.4,53.9h1c0.4,0,0.7,0.3,0.7,0.7v0.5c0,0.4-0.3,0.7-0.7,0.7h-1c-0.4,0-0.7-0.3-0.7-0.7v-0.5
					C73.6,54.3,74,53.9,74.4,53.9z"/>
			</g>
			<g>
				<path class="st0" d="M71.6,53.9h1c0.4,0,0.7,0.3,0.7,0.7v0.5c0,0.4-0.3,0.7-0.7,0.7h-1c-0.4,0-0.7-0.3-0.7-0.7v-0.5
					C70.9,54.3,71.2,53.9,71.6,53.9z"/>
			</g>
			<g>
				<path class="st0" d="M74.6,51.4h0.8c0.4,0,0.7,0.3,0.7,0.7v0.6c0,0.4-0.3,0.7-0.7,0.7h-0.8c-0.4,0-0.7-0.3-0.7-0.7v-0.6
					C73.9,51.7,74.2,51.4,74.6,51.4z"/>
			</g>
			<g>
				<path class="st0" d="M71.9,51.5h0.8c0.4,0,0.7,0.3,0.7,0.7v0.6c0,0.4-0.3,0.7-0.7,0.7h-0.8c-0.4,0-0.7-0.3-0.7-0.7v-0.6
					C71.1,51.8,71.5,51.5,71.9,51.5z"/>
			</g>
			<g>
				<path class="st0" d="M74.5,56.4h1c0.4,0,0.7,0.3,0.7,0.7v0.5c0,0.4-0.3,0.7-0.7,0.7h-1c-0.4,0-0.7-0.3-0.7-0.7v-0.5
					C73.7,56.7,74.1,56.4,74.5,56.4z"/>
			</g>
			<g>
				<path class="st0" d="M71.6,56.4h1c0.4,0,0.7,0.3,0.7,0.7v0.5c0,0.4-0.3,0.7-0.7,0.7h-1c-0.4,0-0.7-0.3-0.7-0.7v-0.5
					C70.9,56.7,71.2,56.4,71.6,56.4z"/>
			</g>
			<g>
				<path class="st0" d="M74.4,58.8h1c0.4,0,0.7,0.3,0.7,0.7v0.5c0,0.4-0.3,0.7-0.7,0.7h-1c-0.4,0-0.7-0.3-0.7-0.7v-0.5
					C73.6,59.1,74,58.8,74.4,58.8z"/>
			</g>
			<g>
				<path class="st0" d="M73.3,60.1v-0.5c0-0.4-0.3-0.7-0.7-0.7h-1c-0.3,0-0.5,0.1-0.6,0.4c0.2,0.4,0.6,1,0.9,1.6h0.7
					C72.9,60.8,73.3,60.5,73.3,60.1C73.3,60.1,73.3,60.1,73.3,60.1z"/>
			</g>
			<g>
				<path class="st0" d="M74.5,61.2h1c0.4,0,0.7,0.3,0.7,0.7v0.5c0,0.4-0.3,0.7-0.7,0.7h-1c-0.4,0-0.7-0.3-0.7-0.7v-0.5
					C73.7,61.5,74.1,61.2,74.5,61.2z"/>
			</g>
			<g>
				<path class="st0" d="M73.3,62.5v-0.5c0-0.4-0.3-0.7-0.7-0.7H72c0.3,0.6,0.6,1.3,0.8,1.9C73.1,63,73.3,62.8,73.3,62.5z"/>
			</g>
			<g>
				<path class="st0" d="M74.5,63.6h1c0.4,0,0.7,0.3,0.7,0.7v0.5c0,0.4-0.3,0.7-0.7,0.7h-1c-0.4,0-0.7-0.3-0.7-0.7v-0.5
					C73.7,64,74.1,63.6,74.5,63.6z"/>
			</g>
			<g>
				<path class="st0" d="M74.5,68.1h1c0.4,0,0.7-0.3,0.7-0.7v-0.5c0-0.4-0.3-0.7-0.7-0.7h-1c-0.3,0-0.6,0.2-0.7,0.5
					c0.1,0.4,0.2,0.9,0.3,1.4C74.2,68,74.3,68.1,74.5,68.1z"/>
			</g>
			<g>
				<path class="st0" d="M75.4,70.4c0.4,0,0.7-0.3,0.7-0.7v-0.6c0-0.4-0.3-0.7-0.7-0.7h-1c-0.1,0-0.2,0-0.3,0.1
					c0.1,0.6,0.2,1.3,0.4,2L75.4,70.4z"/>
			</g>
			<g>
				<path class="st0" d="M75,72.9h0.4c0.4,0,0.7-0.3,0.7-0.7v-0.5c0-0.4-0.3-0.7-0.7-0.7h-0.8c0.1,0.4,0.1,0.8,0.2,1.2
					S74.9,72.6,75,72.9z"/>
			</g>
			<g>
				<path class="st0" d="M76.2,74.5V74c0-0.4-0.3-0.7-0.7-0.7h-0.4c0.1,0.7,0.3,1.4,0.4,2C75.9,75.2,76.2,74.9,76.2,74.5z"/>
			</g>
			<g>
				<path class="st0" d="M76.2,76.9v-0.5c0-0.4-0.3-0.7-0.6-0.7c0.2,0.7,0.3,1.3,0.4,1.7C76.1,77.3,76.2,77.1,76.2,76.9z"/>
			</g>
			<g>
				<path class="st0" d="M74.6,49.2h1.1c0.3,0,0.5,0.2,0.5,0.5v0.9c0,0.3-0.2,0.5-0.5,0.5h-1.1c-0.3,0-0.5-0.2-0.5-0.5v-0.9
					C74.1,49.4,74.3,49.2,74.6,49.2z"/>
			</g>
			<g>
				<path class="st0" d="M74.7,47h0.9c0.3,0,0.5,0.2,0.5,0.5v0.8c0,0.3-0.2,0.5-0.5,0.5h-0.9c-0.3,0-0.5-0.2-0.5-0.5v-0.8
					C74.2,47.2,74.4,47,74.7,47z"/>
			</g>
			<g>
				<path class="st0" d="M72.1,46.9h0.9c0.3,0,0.5,0.2,0.5,0.5v0.8c0,0.3-0.2,0.5-0.5,0.5h-0.9c-0.3,0-0.5-0.2-0.5-0.5v-0.8
					C71.7,47.1,71.9,46.9,72.1,46.9z"/>
			</g>
			<g>
				<path class="st0" d="M72.7,44.7h0.8c0.3,0,0.5,0.2,0.5,0.5v0.7c0,0.3-0.2,0.5-0.5,0.5h-0.8c-0.3,0-0.5-0.2-0.5-0.5v-0.7
					C72.2,45,72.4,44.7,72.7,44.7z"/>
			</g>
			<g>
				<path class="st0" d="M74.9,44.6h0.8c0.3,0,0.5,0.2,0.5,0.5v0.7c0,0.3-0.2,0.5-0.5,0.5h-0.8c-0.3,0-0.5-0.2-0.5-0.5v-0.7
					C74.4,44.9,74.6,44.6,74.9,44.6z"/>
			</g>
			<g>
				<path class="st0" d="M75,42.8h0.6c0.3,0,0.5,0.2,0.5,0.5v0.4c0,0.3-0.2,0.5-0.5,0.5H75c-0.3,0-0.5-0.2-0.5-0.5v-0.4
					C74.6,43,74.8,42.8,75,42.8z"/>
			</g>
			<g>
				<path class="st0" d="M73,42.8h0.6c0.3,0,0.5,0.2,0.5,0.5v0.4c0,0.3-0.2,0.5-0.5,0.5H73c-0.3,0-0.5-0.2-0.5-0.5v-0.4
					C72.5,43,72.7,42.8,73,42.8z"/>
			</g>
			<g>
				<path class="st0" d="M73.7,41h0.4c0.3,0,0.5,0.2,0.5,0.5v0.4c0,0.3-0.2,0.5-0.5,0.5h-0.4c-0.3,0-0.5-0.2-0.5-0.5v-0.4
					C73.2,41.2,73.4,41,73.7,41z"/>
			</g>
			<g>
				<path class="st0" d="M75.3,41h0.4c0.3,0,0.5,0.2,0.5,0.5v0.4c0,0.3-0.2,0.5-0.5,0.5h-0.4c-0.3,0-0.5-0.2-0.5-0.5v-0.4
					C74.8,41.2,75.1,41,75.3,41z"/>
			</g>
			<g>
				<path class="st0" d="M71.9,49.2H73c0.3,0,0.5,0.2,0.5,0.5v0.9c0,0.3-0.2,0.5-0.5,0.5h-1.1c-0.3,0-0.5-0.2-0.5-0.5v-0.9
					C71.4,49.4,71.7,49.2,71.9,49.2z"/>
			</g>
			<g>
				<path class="st0" d="M75.6,40H76c0.1,0,0.2,0.1,0.2,0.2v0.2c0,0.1-0.1,0.2-0.2,0.2h-0.4c-0.1,0-0.2-0.1-0.2-0.2v-0.2
					C75.4,40.1,75.5,40,75.6,40z"/>
			</g>
			<g>
				<path class="st0" d="M74.2,40h0.4c0.1,0,0.2,0.1,0.2,0.2v0.2c0,0.1-0.1,0.2-0.2,0.2h-0.4c-0.1,0-0.2-0.1-0.2-0.2v-0.2
					C74,40.1,74.1,40,74.2,40z"/>
			</g>
			<g>
				<path class="st0" d="M74.8,38.9h0.4c0.1,0,0.2,0.1,0.2,0.2v0.2c0,0.1-0.1,0.2-0.2,0.2h-0.4c-0.1,0-0.2-0.1-0.2-0.2v-0.2
					C74.6,39,74.7,38.9,74.8,38.9z"/>
			</g>
			<g>
				<path class="st0" d="M75.9,37.9h0.2c0.1,0,0.2,0.1,0.2,0.2v0.1c0,0.1-0.1,0.2-0.2,0.2h-0.2c-0.1,0-0.2-0.1-0.2-0.2v-0.1
					C75.6,38.1,75.7,37.9,75.9,37.9z"/>
			</g>
			<g>
				<path class="st0" d="M77.4,53.9h1c0.4,0,0.7,0.3,0.7,0.7v0.5c0,0.4-0.3,0.7-0.7,0.7h-1c-0.4,0-0.7-0.3-0.7-0.7v-0.5
					C76.6,54.3,77,53.9,77.4,53.9z"/>
			</g>
			<g>
				<path class="st0" d="M80.3,53.9h1c0.4,0,0.7,0.3,0.7,0.7v0.5c0,0.4-0.3,0.7-0.7,0.7h-1c-0.4,0-0.7-0.3-0.7-0.7v-0.5
					C79.6,54.3,79.9,53.9,80.3,53.9z"/>
			</g>
			<g>
				<path class="st0" d="M77.3,51.4h0.8c0.4,0,0.7,0.3,0.7,0.7v0.6c0,0.4-0.3,0.7-0.7,0.7h-0.8c-0.4,0-0.7-0.3-0.7-0.7v-0.6
					C76.6,51.7,76.9,51.4,77.3,51.4z"/>
			</g>
			<g>
				<path class="st0" d="M80.2,51.5H81c0.4,0,0.7,0.3,0.7,0.7v0.6c0,0.4-0.3,0.7-0.7,0.7h-0.8c-0.4,0-0.7-0.3-0.7-0.7v-0.6
					C79.5,51.8,79.8,51.5,80.2,51.5z"/>
			</g>
			<g>
				<path class="st0" d="M77.4,56.4h1c0.4,0,0.7,0.3,0.7,0.7v0.5c0,0.4-0.3,0.7-0.7,0.7h-1c-0.4,0-0.7-0.3-0.7-0.7v-0.5
					C76.7,56.7,77,56.4,77.4,56.4z"/>
			</g>
			<g>
				<path class="st0" d="M80.3,56.4h1c0.4,0,0.7,0.3,0.7,0.7v0.5c0,0.4-0.3,0.7-0.7,0.7h-1c-0.4,0-0.7-0.3-0.7-0.7v-0.5
					C79.6,56.7,79.9,56.4,80.3,56.4z"/>
			</g>
			<g>
				<path class="st0" d="M77.3,58.8h1c0.4,0,0.7,0.3,0.7,0.7v0.5c0,0.4-0.3,0.7-0.7,0.7h-1c-0.4,0-0.7-0.3-0.7-0.7v-0.5
					C76.5,59.1,76.9,58.8,77.3,58.8z"/>
			</g>
			<g>
				<path class="st0" d="M80.3,58.8h1c0.4,0,0.7,0.3,0.7,0.7v0.5c0,0.4-0.3,0.7-0.7,0.7h-1c-0.4,0-0.7-0.3-0.7-0.7v-0.5
					C79.6,59.1,79.9,58.8,80.3,58.8z"/>
			</g>
			<g>
				<path class="st0" d="M77.5,61.2h1c0.4,0,0.7,0.3,0.7,0.7v0.5c0,0.4-0.3,0.7-0.7,0.7h-1c-0.4,0-0.7-0.3-0.7-0.7v-0.5
					C76.7,61.5,77.1,61.2,77.5,61.2z"/>
			</g>
			<g>
				<path class="st0" d="M80.3,61.2h1c0.4,0,0.7,0.3,0.7,0.7v0.5c0,0.4-0.3,0.7-0.7,0.7h-1c-0.4,0-0.7-0.3-0.7-0.7v-0.5
					C79.6,61.5,79.9,61.2,80.3,61.2z"/>
			</g>
			<g>
				<path class="st0" d="M77.3,63.6h1c0.4,0,0.7,0.3,0.7,0.7v0.5c0,0.4-0.3,0.7-0.7,0.7h-1c-0.4,0-0.7-0.3-0.7-0.7v-0.5
					C76.5,64,76.9,63.6,77.3,63.6z"/>
			</g>
			<g>
				<path class="st0" d="M79.4,64.4V65c0,0.3,0.2,0.6,0.5,0.7c0.4-0.7,0.8-1.3,1.3-1.9c-0.1,0-0.1,0-0.2,0h-1
					C79.7,63.8,79.4,64.1,79.4,64.4z"/>
			</g>
			<g>
				<path class="st0" d="M77.3,66h1c0.4,0,0.7,0.3,0.7,0.7v0.5c0,0.4-0.3,0.7-0.7,0.7h-1c-0.4,0-0.7-0.3-0.7-0.7v-0.5
					C76.5,66.4,76.9,66,77.3,66z"/>
			</g>
			<g>
				<path class="st0" d="M78.7,68.6c-0.1-0.1-0.3-0.2-0.5-0.2h-0.9c-0.4,0-0.7,0.3-0.7,0.7v0v0.6c0,0.4,0.3,0.7,0.7,0.7h0h0.9
					C78.3,69.8,78.5,69.1,78.7,68.6z"/>
			</g>
			<g>
				<path class="st0" d="M78,70.9h-0.8c-0.4,0-0.7,0.3-0.7,0.7v0.5c0,0.4,0.3,0.7,0.7,0.7h0.2C77.7,72.2,77.9,71.5,78,70.9z"/>
			</g>
			<g>
				<path class="st0" d="M77.4,73.3h-0.2c-0.4,0-0.7,0.3-0.7,0.7v0v0.6c0,0.3,0.2,0.5,0.4,0.6C77.1,74.6,77.2,73.9,77.4,73.3z"/>
			</g>
			<g>
				<path class="st0" d="M76.8,75.8c-0.2,0.1-0.3,0.3-0.3,0.6v0.6C76.6,76.6,76.7,76.2,76.8,75.8z"/>
			</g>
			<g>
				<path class="st0" d="M77.3,49.2h1.1c0.3,0,0.5,0.2,0.5,0.5v0.9c0,0.3-0.2,0.5-0.5,0.5h-1.1c-0.3,0-0.5-0.2-0.5-0.5v-0.9
					C76.8,49.4,77,49.2,77.3,49.2z"/>
			</g>
			<g>
				<path class="st0" d="M77.2,46.9h0.9c0.3,0,0.5,0.2,0.5,0.5v0.8c0,0.3-0.2,0.5-0.5,0.5h-0.9c-0.3,0-0.5-0.2-0.5-0.5v-0.8
					C76.7,47.1,76.9,46.9,77.2,46.9z"/>
			</g>
			<g>
				<path class="st0" d="M79.6,46.9h0.9c0.3,0,0.5,0.2,0.5,0.5v0.8c0,0.3-0.2,0.5-0.5,0.5h-0.9c-0.3,0-0.5-0.2-0.5-0.5v-0.8
					C79.1,47.1,79.3,46.9,79.6,46.9z"/>
			</g>
			<g>
				<path class="st0" d="M79.5,44.9h0.8c0.3,0,0.5,0.2,0.5,0.5v0.7c0,0.3-0.2,0.5-0.5,0.5h-0.8c-0.3,0-0.5-0.2-0.5-0.5v-0.7
					C79,45.1,79.2,44.9,79.5,44.9z"/>
			</g>
			<g>
				<path class="st0" d="M77.3,44.7h0.8c0.3,0,0.5,0.2,0.5,0.5v0.7c0,0.3-0.2,0.5-0.5,0.5h-0.8c-0.3,0-0.5-0.2-0.5-0.5v-0.7
					C76.8,45,77,44.7,77.3,44.7z"/>
			</g>
			<g>
				<path class="st0" d="M77.1,42.8h0.6c0.3,0,0.5,0.2,0.5,0.5v0.4c0,0.3-0.2,0.5-0.5,0.5h-0.6c-0.3,0-0.5-0.2-0.5-0.5v-0.4
					C76.6,43,76.9,42.8,77.1,42.8z"/>
			</g>
			<g>
				<path class="st0" d="M79.2,42.9h0.6c0.3,0,0.5,0.2,0.5,0.5v0.4c0,0.3-0.2,0.5-0.5,0.5h-0.6c-0.3,0-0.5-0.2-0.5-0.5v-0.4
					C78.7,43.2,78.9,42.9,79.2,42.9z"/>
			</g>
			<g>
				<path class="st0" d="M78.8,41h0.4c0.3,0,0.5,0.2,0.5,0.5v0.4c0,0.3-0.2,0.5-0.5,0.5h-0.4c-0.3,0-0.5-0.2-0.5-0.5v-0.4
					C78.3,41.2,78.6,41,78.8,41z"/>
			</g>
			<g>
				<path class="st0" d="M77.1,41h0.4c0.3,0,0.5,0.2,0.5,0.5v0.4c0,0.3-0.2,0.5-0.5,0.5h-0.4c-0.3,0-0.5-0.2-0.5-0.5v-0.4
					C76.6,41.2,76.8,41,77.1,41z"/>
			</g>
			<g>
				<path class="st0" d="M79.9,49.2H81c0.3,0,0.5,0.2,0.5,0.5v0.9c0,0.3-0.2,0.5-0.5,0.5h-1.1c-0.3,0-0.5-0.2-0.5-0.5v-0.9
					C79.4,49.4,79.6,49.2,79.9,49.2z"/>
			</g>
			<g>
				<path class="st0" d="M76.9,40h0.4c0.1,0,0.2,0.1,0.2,0.2v0.2c0,0.1-0.1,0.2-0.2,0.2h-0.4c-0.1,0-0.2-0.1-0.2-0.2v-0.2
					C76.7,40.1,76.8,40,76.9,40z"/>
			</g>
			<g>
				<path class="st0" d="M76.3,38.9h0.4c0.1,0,0.2,0.1,0.2,0.2v0.2c0,0.1-0.1,0.2-0.2,0.2h-0.4c-0.1,0-0.2-0.1-0.2-0.2v-0.2
					C76.1,39,76.2,38.9,76.3,38.9z"/>
			</g>
			<g>
				<path class="st0" d="M78.3,40h0.4c0.1,0,0.2,0.1,0.2,0.2v0.2c0,0.1-0.1,0.2-0.2,0.2h-0.4c-0.1,0-0.2-0.1-0.2-0.2v-0.2
					C78,40.1,78.1,40,78.3,40z"/>
			</g>
			<g>
				<path class="st0" d="M77.5,38.9h0.4c0.1,0,0.2,0.1,0.2,0.2v0.2c0,0.1-0.1,0.2-0.2,0.2h-0.4c-0.1,0-0.2-0.1-0.2-0.2v-0.2
					C77.3,39,77.4,38.9,77.5,38.9z"/>
			</g>
			<g>
				<path class="st0" d="M76.8,37.9h0.2c0.1,0,0.2,0.1,0.2,0.2v0.1c0,0.1-0.1,0.2-0.2,0.2h-0.2c-0.1,0-0.2-0.1-0.2-0.2v-0.1
					C76.6,38.1,76.7,37.9,76.8,37.9z"/>
			</g>
			<g>
				<path class="st0" d="M86.8,63.8c-1-1.1-2.7-1.3-3.9-0.5c-0.6,0.6-1.1,1.2-1.6,1.9c-0.8,1.3-1.5,2.7-1.9,4.1c0,0.1-0.8,2.8-1,3.4
					c0,0.1-0.4,1.7-0.6,2.4c0,0.1-0.5,1.7-0.6,2.3c-0.3,1.3-0.7,2.5-1.2,3.7c0.2-0.9-0.2-1.7-0.5-2.8c-0.4-1.7-0.7-2.8-0.7-3
					c-0.1-0.6-1.5-7.6-2-9.2c-0.5-2.1-1.2-4.1-2.1-6c-0.1-0.1-0.8-1.5-1.1-2c-1-1.6-2.2-3.1-3.8-4.2c1.2,1.4,2.7,6.5,3,8.6
					c0.6,2.7,0.9,5.5,1.1,8.3c0.2,4.2,1.5,8.2,3.9,11.7c0,0,0.7,0.9,2.8,0.9c1.2,0.1,2.3-0.3,3.1-1.1c0.9-1,1.6-2.2,2.1-3.5
					c0.7-2,1-4.1,1-6.2c0.1-1.6,0.8-6.3,1-7.3c0.6,0.2,1.2,0.5,1.8,0.8c1.2,0.6,2.3,1.5,2.9,2.7C88.8,67,88.1,65.1,86.8,63.8z"/>
			</g>
			<g>
				<path class="st0" d="M73.2,63.7L73.2,63.7c0,0.3,0.2,0.6,0.2,0.9c0,0,0-0.3,0-0.4S73.3,63.7,73.2,63.7z"/>
			</g>
		</g>
	</g>
</g>
</svg>
