<?xml version="1.0" encoding="utf-8"?>
<!-- Generator: Adobe Illustrator 22.0.1, SVG Export Plug-In . SVG Version: 6.00 Build 0)  -->
<svg version="1.1" id="Layer_1" xmlns="http://www.w3.org/2000/svg" xmlns:xlink="http://www.w3.org/1999/xlink" x="0px" y="0px"
	 viewBox="0 0 101.5 184.2" style="enable-background:new 0 0 101.5 184.2;" xml:space="preserve">
<style type="text/css">
	.st0{fill:#FFFFFF;}
	.st1{fill:#DDA63A;}
	.st2{enable-background:new    ;}
</style>
<title>TARGET 1 A</title>
<g id="WHITE_BG">
	<g>
		<rect y="0" class="st0" width="101.5" height="184.2"/>
	</g>
</g>
<g id="TARGETS">
	<g>
		<g>
			<path class="st1" d="M7,132.2v-6.4h1v6.4H7z"/>
		</g>
		<g>
			<path class="st1" d="M12.8,132.2l-2.8-4.5v4.5H9.1v-6.4h0.9l2.8,4.5v-4.5h0.9v6.4H12.8z"/>
		</g>
		<g>
			<path class="st1" d="M19.1,125.8l-2,6.4h-1l-2-6.4h1l1.5,5.2l1.5-5.2L19.1,125.8z"/>
		</g>
		<g>
			<path class="st1" d="M23.3,129.3h-2.7v2h2.9v0.9h-3.9v-6.4h3.9v0.9h-2.9v1.8h2.6L23.3,129.3z"/>
		</g>
		<g>
			<path class="st1" d="M28.7,130.3c0,1.2-0.7,2-2.4,2c-0.6,0-1.3-0.1-1.9-0.4V131c0.6,0.3,1.2,0.4,1.8,0.4c1.1,0,1.5-0.5,1.5-1.1
				s-0.3-0.9-1.2-1c-1.5-0.2-2.1-0.6-2.1-1.8c0-0.9,0.5-1.8,2.3-1.8c0.6,0,1.2,0.1,1.7,0.3v1c-0.5-0.2-1.1-0.3-1.7-0.3
				c-1,0-1.3,0.4-1.3,1c0,0.7,0.4,0.8,1.2,0.9C28,128.7,28.7,129,28.7,130.3z"/>
		</g>
		<g>
			<path class="st1" d="M31.6,126.7v5.5h-1v-5.5H29v-0.9h4.3v0.9L31.6,126.7z"/>
		</g>
		<g>
			<path class="st1" d="M35.2,132.2v-6.4h1v6.4H35.2z"/>
		</g>
		<g>
			<path class="st1" d="M40.9,132.2l-2.8-4.5v4.5h-0.9v-6.4h0.9l2.8,4.5v-4.5h1v6.4H40.9z"/>
		</g>
		<g>
			<path class="st1" d="M45,132.2h-1v-6.4h2.1c1.7,0,2.2,0.7,2.2,1.9c0.1,0.7-0.3,1.4-1,1.7l1.3,2.8h-1.1l-1.2-2.6H45V132.2z
				 M45,128.7h1.3c0.9,0,1-0.5,1-1s-0.1-1-1-1H45V128.7z"/>
		</g>
		<g>
			<path class="st1" d="M49.1,130.2v-4.4H50v4.3c0,0.8,0.6,1.4,1.4,1.4s1.4-0.6,1.4-1.4v-4.3h1v4.4c0,1.1-0.9,2.1-2,2.1
				c-0.1,0-0.2,0-0.3,0c-1.1,0.1-2.2-0.7-2.3-1.8C49.1,130.4,49.1,130.3,49.1,130.2z"/>
		</g>
		<g>
			<path class="st1" d="M55.6,132.2h-1v-6.4h2.1c1.7,0,2.2,0.7,2.2,1.9c0.1,0.7-0.3,1.4-1,1.7l1.3,2.8h-1.1l-1.2-2.6h-1.3V132.2z
				 M55.6,128.7h1.3c0.9,0,1-0.5,1-1s-0.1-1-1-1h-1.3V128.7z"/>
		</g>
		<g>
			<path class="st1" d="M62.9,130.7h-2l-0.5,1.6h-1l2-6.4h1l2,6.4h-1L62.9,130.7z M61.9,127l-0.8,2.8h1.6L61.9,127z"/>
		</g>
		<g>
			<path class="st1" d="M65.9,131.3h2.8v0.9h-3.7v-6.4h1L65.9,131.3z"/>
		</g>
		<g>
			<path class="st1" d="M7,141.2v-6.4h1v6.4H7z"/>
		</g>
		<g>
			<path class="st1" d="M12.8,141.2l-2.8-4.5v4.5H9.1v-6.4h0.9l2.8,4.5v-4.5h0.9v6.4L12.8,141.2z"/>
		</g>
		<g>
			<path class="st1" d="M18.1,138.4h-2.6v2.8h-1v-6.4h3.8v0.9h-2.8v1.8h2.6V138.4z"/>
		</g>
		<g>
			<path class="st1" d="M20.1,141.2h-1v-6.4h2.1c1.6,0,2.2,0.7,2.2,1.9c0.1,0.7-0.3,1.4-1,1.7l1.3,2.8h-1.1l-1.2-2.6h-1.3V141.2z
				 M20.1,137.7h1.3c0.9,0,1-0.5,1-1s-0.1-1-1-1h-1.3V137.7z"/>
		</g>
		<g>
			<path class="st1" d="M27.4,139.7h-2l-0.5,1.6h-1l2-6.4h1l2,6.4h-1L27.4,139.7z M26.4,136l-0.8,2.8h1.6L26.4,136z"/>
		</g>
		<g>
			<path class="st1" d="M33.5,139.3c0,1.2-0.7,2-2.4,2c-0.6,0-1.3-0.1-1.9-0.4V140c0.6,0.3,1.2,0.4,1.8,0.4c1.1,0,1.5-0.5,1.5-1.1
				s-0.3-0.9-1.1-1c-1.6-0.2-2.2-0.6-2.2-1.8c0-0.9,0.5-1.8,2.3-1.8c0.6,0,1.2,0.1,1.7,0.3v1c-0.5-0.2-1.1-0.3-1.7-0.3
				c-1,0-1.3,0.4-1.3,1c0,0.7,0.4,0.8,1.2,0.9C32.8,137.7,33.5,138,33.5,139.3z"/>
		</g>
		<g>
			<path class="st1" d="M36.4,135.7v5.5h-1v-5.5h-1.7v-0.9h4.3v0.9H36.4z"/>
		</g>
		<g>
			<path class="st1" d="M39.7,141.2h-1v-6.4h2.1c1.7,0,2.2,0.7,2.2,1.9c0.1,0.7-0.3,1.4-1,1.7l1.3,2.8h-1.1l-1.2-2.6h-1.3V141.2z
				 M39.7,137.7h1.3c0.9,0,1-0.5,1-1s-0.1-1-1-1h-1.3V137.7z"/>
		</g>
		<g>
			<path class="st1" d="M43.9,139.2v-4.4h1v4.3c0,0.8,0.6,1.4,1.4,1.4s1.4-0.6,1.4-1.4v-4.3h1v4.4c0,1.1-0.9,2.1-2,2.1
				c-0.1,0-0.2,0-0.3,0c-1.1,0.2-2.2-0.6-2.4-1.7C43.9,139.5,43.9,139.4,43.9,139.2z"/>
		</g>
		<g>
			<path class="st1" d="M51.8,134.7c0.5,0,1,0.1,1.5,0.3v0.9c-0.5-0.2-0.9-0.3-1.4-0.3c-1.2,0-1.7,0.8-1.7,2.4s0.5,2.4,1.7,2.4
				c0.5,0,1-0.1,1.4-0.3v0.9c-0.5,0.2-1,0.3-1.5,0.3c-1.9,0-2.6-1.2-2.6-3.3S49.9,134.7,51.8,134.7z"/>
		</g>
		<g>
			<path class="st1" d="M56.5,135.7v5.5h-1v-5.5h-1.6v-0.9h4.3v0.9H56.5z"/>
		</g>
		<g>
			<path class="st1" d="M58.8,139.2v-4.4h1v4.3c0,0.8,0.6,1.4,1.4,1.4s1.4-0.6,1.4-1.4v-4.3h1v4.4c-0.1,1.3-1.2,2.2-2.5,2.2
				C59.8,141.3,58.9,140.4,58.8,139.2L58.8,139.2z"/>
		</g>
		<g>
			<path class="st1" d="M65.3,141.2h-1v-6.4h2.1c1.7,0,2.2,0.7,2.2,1.9c0.1,0.7-0.3,1.4-1,1.7l1.3,2.8h-1.1l-1.2-2.6h-1.3V141.2z
				 M65.3,137.7h1.2c0.9,0,1-0.5,1-1s-0.1-1-1-1h-1.2V137.7z"/>
		</g>
		<g>
			<path class="st1" d="M73.1,138.3h-2.7v2h2.9v0.9h-3.9v-6.4h3.9v0.9h-2.9v1.8h2.7V138.3z"/>
		</g>
		<g>
			<path class="st1" d="M75.1,140.3l-0.7,2h-0.7l0.2-2H75.1z"/>
		</g>
		<g>
			<path class="st1" d="M10.1,148.7h-2l-0.4,1.6h-1l2-6.4h1l2,6.4h-1L10.1,148.7z M9.1,145l-0.8,2.8h1.6L9.1,145z"/>
		</g>
		<g>
			<path class="st1" d="M11.8,147c0-2,0.7-3.3,2.6-3.3c0.6,0,1.3,0.1,1.8,0.3v1c-0.5-0.2-1.1-0.4-1.7-0.4c-1.3,0-1.8,0.9-1.8,2.4
				s0.5,2.4,1.8,2.4c0.3,0,0.6,0,0.9-0.1v-1.7h-1.1v-0.9h2.1v3.2c-0.6,0.3-1.3,0.4-2,0.4C12.5,150.3,11.8,149,11.8,147z"/>
		</g>
		<g>
			<path class="st1" d="M18.3,150.2h-1v-6.4h2.1c1.6,0,2.2,0.7,2.2,1.9c0.1,0.7-0.3,1.4-1,1.7l1.3,2.8h-1.1l-1.2-2.6h-1.3V150.2z
				 M18.3,146.7h1.2c0.9,0,1-0.5,1-1s-0.1-1-1-1h-1.2V146.7z"/>
		</g>
		<g>
			<path class="st1" d="M22.7,150.2v-6.4h1v6.4H22.7z"/>
		</g>
		<g>
			<path class="st1" d="M27.3,143.7c0.5,0,1,0.1,1.5,0.3v0.9c-0.5-0.2-0.9-0.3-1.4-0.3c-1.2,0-1.7,0.8-1.7,2.4s0.5,2.4,1.7,2.4
				c0.5,0,1-0.1,1.4-0.3v0.9c-0.5,0.2-1,0.3-1.5,0.3c-1.9,0-2.6-1.2-2.6-3.3S25.4,143.7,27.3,143.7z"/>
		</g>
		<g>
			<path class="st1" d="M29.5,148.2v-4.4h1v4.3c-0.1,0.7,0.4,1.2,1,1.3c0.1,0,0.2,0,0.3,0c0.7,0.1,1.3-0.4,1.4-1c0-0.1,0-0.2,0-0.3
				v-4.3h1v4.4c0,1.1-0.9,2.1-2,2.1c-0.1,0-0.2,0-0.3,0c-1.1,0.1-2.2-0.6-2.3-1.8C29.5,148.4,29.5,148.3,29.5,148.2z"/>
		</g>
		<g>
			<path class="st1" d="M35.9,149.3h2.8v0.9H35v-6.4h1L35.9,149.3z"/>
		</g>
		<g>
			<path class="st1" d="M40.7,144.7v5.5h-1v-5.5h-1.6v-0.9h4.3v0.9H40.7z"/>
		</g>
		<g>
			<path class="st1" d="M42.8,148.2v-4.4h1v4.3c0,0.8,0.6,1.4,1.4,1.4s1.4-0.6,1.4-1.4v-4.3h1v4.4c0,1.1-0.9,2.1-2,2.1
				c-0.1,0-0.2,0-0.3,0c-1.1,0.2-2.2-0.6-2.3-1.7C42.9,148.5,42.8,148.3,42.8,148.2z"/>
		</g>
		<g>
			<path class="st1" d="M49.3,150.2h-1v-6.4h2.1c1.7,0,2.2,0.7,2.2,1.9c0.1,0.7-0.3,1.4-1,1.7l1.3,2.8h-1.1l-1.2-2.6h-1.3V150.2z
				 M49.3,146.7h1.3c0.9,0,1-0.5,1-1s-0.1-1-1-1h-1.3V146.7z"/>
		</g>
		<g>
			<path class="st1" d="M56.7,148.7h-2l-0.5,1.6h-1l2-6.4h1l2,6.4h-1L56.7,148.7z M55.7,145l-0.8,2.8h1.6L55.7,145z"/>
		</g>
		<g>
			<path class="st1" d="M59.6,149.3h2.8v0.9h-3.7v-6.4h1L59.6,149.3z"/>
		</g>
		<g>
			<path class="st1" d="M7.8,159.2h-1v-6.4H9c1.6,0,2.2,0.7,2.2,1.9c0.1,0.7-0.3,1.4-1,1.7l1.3,2.8h-1.2l-1.1-2.6H7.8V159.2z
				 M7.8,155.7h1.3c0.9,0,1-0.5,1-1s-0.1-1-1-1H7.8V155.7z"/>
		</g>
		<g>
			<path class="st1" d="M15.6,156.3h-2.7v2h2.9v0.9H12v-6.4h3.9v0.9h-3v1.8h2.6L15.6,156.3z"/>
		</g>
		<g>
			<path class="st1" d="M20.9,157.3c0,1.2-0.7,2-2.4,2c-0.6,0-1.3-0.1-1.9-0.4V158c0.6,0.3,1.2,0.4,1.8,0.4c1.1,0,1.5-0.5,1.5-1.1
				s-0.3-0.9-1.1-1c-1.6-0.2-2.2-0.6-2.2-1.8c0-0.9,0.5-1.8,2.3-1.8c0.6,0,1.2,0.1,1.7,0.3v1c-0.5-0.2-1.1-0.3-1.7-0.3
				c-1,0-1.3,0.4-1.3,1c0,0.7,0.4,0.8,1.2,0.9C20.1,155.7,20.9,156,20.9,157.3z"/>
		</g>
		<g>
			<path class="st1" d="M25.2,156.3h-2.6v2h2.9v0.9h-3.9v-6.4h3.9v0.9h-2.9v1.8h2.6V156.3z"/>
		</g>
		<g>
			<path class="st1" d="M29.6,157.7h-2l-0.5,1.6h-1l2-6.4h1l2,6.4H30L29.6,157.7z M28.6,154l-0.8,2.8h1.6L28.6,154z"/>
		</g>
		<g>
			<path class="st1" d="M32.5,159.2h-1v-6.4h2.1c1.7,0,2.2,0.7,2.2,1.9c0.1,0.7-0.3,1.4-1,1.7l1.3,2.8H35l-1.2-2.6h-1.3V159.2z
				 M32.5,155.7h1.3c0.9,0,1-0.5,1-1s-0.1-1-1-1h-1.3V155.7z"/>
		</g>
		<g>
			<path class="st1" d="M39.2,152.7c0.5,0,1,0.1,1.5,0.3v0.9c-0.4-0.2-0.9-0.3-1.4-0.3c-1.2,0-1.7,0.8-1.7,2.4s0.5,2.4,1.7,2.4
				c0.5,0,1-0.1,1.4-0.3v0.9c-0.5,0.2-1,0.3-1.5,0.3c-1.9,0-2.6-1.2-2.6-3.3S37.3,152.7,39.2,152.7z"/>
		</g>
		<g>
			<path class="st1" d="M45.1,159.2v-2.9h-2.6v2.9h-1v-6.4h1v2.6h2.6v-2.6h1v6.4H45.1z"/>
		</g>
		<g>
			<path class="st1" d="M47.8,158.3l-0.7,2h-0.7l0.2-2H47.8z"/>
		</g>
		<g>
			<path class="st1" d="M9.2,162.7v5.5h-1v-5.5H6.6v-0.9h4.3v0.9H9.2z"/>
		</g>
		<g>
			<path class="st1" d="M15.1,165.3h-2.7v2h2.9v0.9h-3.9v-6.4h3.9v0.9h-2.9v1.8h2.6L15.1,165.3z"/>
		</g>
		<g>
			<path class="st1" d="M18.7,161.7c0.5,0,1,0.1,1.5,0.3v0.9c-0.5-0.2-0.9-0.3-1.4-0.3c-1.2,0-1.7,0.8-1.7,2.4s0.5,2.4,1.7,2.4
				c0.5,0,1-0.1,1.4-0.3v0.9c-0.5,0.2-1,0.3-1.5,0.3c-1.9,0-2.6-1.2-2.6-3.3S16.8,161.7,18.7,161.7z"/>
		</g>
		<g>
			<path class="st1" d="M24.6,168.2v-2.9H22v2.9h-1v-6.4h1v2.6h2.6v-2.6h1v6.4H24.6z"/>
		</g>
		<g>
			<path class="st1" d="M30.1,168.2l-2.8-4.5v4.5h-1v-6.4h0.9l2.8,4.5v-4.5H31v6.4H30.1z"/>
		</g>
		<g>
			<path class="st1" d="M31.9,165c0-1.8,0.4-3.3,2.5-3.3s2.5,1.5,2.5,3.3s-0.4,3.3-2.5,3.3S31.9,166.8,31.9,165z M32.9,165
				c0,1.5,0.3,2.4,1.5,2.4s1.5-0.9,1.5-2.4s-0.3-2.4-1.5-2.4S32.9,163.5,32.9,165L32.9,165z"/>
		</g>
		<g>
			<path class="st1" d="M38.5,167.3h2.8v0.9h-3.7v-6.4h1L38.5,167.3z"/>
		</g>
		<g>
			<path class="st1" d="M41.3,165c0-1.8,0.4-3.3,2.5-3.3s2.5,1.5,2.5,3.3s-0.4,3.3-2.5,3.3S41.3,166.8,41.3,165z M42.3,165
				c0,1.5,0.3,2.4,1.5,2.4s1.5-0.9,1.5-2.4s-0.3-2.4-1.5-2.4S42.2,163.5,42.3,165L42.3,165z"/>
		</g>
		<g>
			<path class="st1" d="M46.8,165c0-2,0.7-3.3,2.6-3.3c0.6,0,1.3,0.1,1.8,0.3v1c-0.5-0.2-1.1-0.4-1.7-0.4c-1.3,0-1.8,0.9-1.8,2.4
				s0.5,2.4,1.8,2.4c0.3,0,0.6,0,0.9-0.1v-1.7h-1.1v-0.9h2.1v3.2c-0.6,0.3-1.3,0.4-2,0.4C47.5,168.3,46.8,167,46.8,165z"/>
		</g>
		<g>
			<path class="st1" d="M54.9,165.6v2.6h-1v-2.6l-2.2-3.8h1.1l1.6,3l1.6-3H57L54.9,165.6z"/>
		</g>
		<g>
			<path class="st1" d="M62.1,166.7h-2l-0.5,1.6h-1l2-6.4h1l2,6.4h-1L62.1,166.7z M61.1,163l-0.8,2.8h1.6L61.1,163z"/>
		</g>
		<g>
			<path class="st1" d="M67.8,168.2l-2.8-4.5v4.5h-1v-6.4h1l2.8,4.5v-4.5h0.9v6.4L67.8,168.2z"/>
		</g>
		<g>
			<path class="st1" d="M69.6,168.2v-6.4h1.9c2.1,0,2.7,1.4,2.7,3.2s-0.6,3.2-2.7,3.2H69.6z M70.6,167.3h1c1.3,0,1.7-0.9,1.7-2.3
				s-0.4-2.3-1.7-2.3h-1V167.3z"/>
		</g>
		<g>
			<path class="st1" d="M6.8,174c0-2,0.7-3.3,2.6-3.3c0.6,0,1.3,0.1,1.8,0.3v1c-0.5-0.2-1.1-0.4-1.7-0.4c-1.3,0-1.8,0.9-1.8,2.4
				s0.5,2.4,1.8,2.4c0.3,0,0.6,0,0.9-0.1v-1.7H9.3v-0.9h2.1v3.2c-0.6,0.3-1.3,0.4-2,0.4C7.5,177.3,6.8,176,6.8,174z"/>
		</g>
		<g>
			<path class="st1" d="M15.9,174.3h-2.6v2h2.9v0.9h-3.9v-6.4h3.9v0.9h-2.9v1.8h2.7L15.9,174.3z"/>
		</g>
		<g>
			<path class="st1" d="M20.7,177.2l-2.7-4.5v4.5h-0.9v-6.4h0.9l2.8,4.5v-4.5h0.9v6.4L20.7,177.2z"/>
		</g>
		<g>
			<path class="st1" d="M26.2,174.3h-2.6v2h2.9v0.9h-3.9v-6.4h3.9v0.9h-2.9v1.8h2.6V174.3z"/>
		</g>
		<g>
			<path class="st1" d="M28.6,170.8h2.1c1.6,0,2,0.8,2,1.7c0,0.5-0.3,1-0.8,1.3c0.6,0.2,1.1,0.8,1,1.5c0,1.1-0.5,1.9-2.2,1.9h-2.2
				V170.8z M30.8,171.7h-1.2v1.8h1.2c0.8,0,1-0.5,1-0.9S31.6,171.7,30.8,171.7L30.8,171.7z M29.6,176.3h1.3c0.9,0,1.1-0.5,1.1-1
				s-0.3-1-1.1-1h-1.3V176.3z"/>
		</g>
		<g>
			<path class="st1" d="M36.8,175.7h-2l-0.5,1.6h-1l2-6.4h1l2,6.4h-1L36.8,175.7z M35.8,172l-0.8,2.8h1.6L35.8,172z"/>
		</g>
		<g>
			<path class="st1" d="M42.5,177.2l-2.8-4.5v4.5h-1v-6.4h0.9l2.8,4.5v-4.5h1v6.4H42.5z"/>
		</g>
		<g>
			<path class="st1" d="M45.7,174.4l-0.5,0.6v2.2h-1v-6.4h1v3l2.3-3h1.2l-2.3,2.8l2.5,3.6h-1.2L45.7,174.4z"/>
		</g>
		<g>
			<path class="st1" d="M53.4,175.3c0,1.2-0.7,2-2.4,2c-0.6,0-1.3-0.1-1.9-0.4V176c0.6,0.3,1.2,0.4,1.8,0.4c1.2,0,1.5-0.5,1.5-1.1
				s-0.3-0.9-1.2-1c-1.5-0.2-2.2-0.6-2.2-1.8c0-0.9,0.5-1.8,2.3-1.8c0.6,0,1.2,0.1,1.7,0.3v1c-0.5-0.2-1.1-0.3-1.7-0.3
				c-1,0-1.3,0.4-1.3,1s0.4,0.8,1.2,0.9C52.6,173.7,53.4,174,53.4,175.3z"/>
		</g>
	</g>
	<g>
		<rect x="3.3" y="24" class="st1" width="94.8" height="94.8"/>
	</g>
	<g>
		<path class="st1" d="M98.2,20.7H3.3V3.3h94.8V20.7z M4.3,19.7h92.8V4.3H4.3L4.3,19.7z"/>
	</g>
	<g class="st2">
		<path class="st1" d="M6.7,6.9h4.5v1.4H9.9v8.8H8.1V8.3H6.7V6.9z"/>
	</g>
	<g class="st2">
		<path class="st1" d="M11.2,17.1l1.9-10.2h1.9L17,17.1h-1.8l-0.3-1.9h-1.8l-0.3,1.9H11.2z M13.3,13.9h1.4L14,9.8h0L13.3,13.9z"/>
	</g>
	<g class="st2">
		<path class="st1" d="M19.6,12.5v4.7h-1.7V6.9h2.5c1.7,0,2.4,0.9,2.4,2.3v1.3c0,1.1-0.4,1.7-1.4,2l1.6,4.6h-1.8L19.6,12.5z
			 M19.6,8.3v3.2h0.6c0.6,0,0.8-0.3,0.8-0.8V9.2c0-0.6-0.3-0.8-0.8-0.8H19.6z"/>
	</g>
	<g class="st2">
		<path class="st1" d="M26.4,11.7h2.4v5.4h-1.2V16c-0.2,0.8-0.7,1.2-1.6,1.2c-1.5,0-2.1-1.2-2.1-2.7V9.6c0-1.6,0.8-2.7,2.6-2.7
			c1.9,0,2.4,1.1,2.4,2.6v0.9h-1.6v-1c0-0.6-0.2-1-0.9-1c-0.6,0-0.9,0.4-0.9,1v5.5c0,0.6,0.3,1,0.8,1c0.6,0,0.8-0.3,0.8-1V13h-0.8
			V11.7z"/>
	</g>
	<g class="st2">
		<path class="st1" d="M30.2,6.9h4.1v1.4h-2.4v2.9h1.7v1.4h-1.7v3.1h2.4v1.4h-4.1V6.9z"/>
	</g>
	<g class="st2">
		<path class="st1" d="M35.1,6.9h4.5v1.4h-1.4v8.8h-1.7V8.3h-1.4V6.9z"/>
	</g>
	<g class="st2">
		<path class="st1" d="M88.8,17.1l1.9-10.2h1.9l1.9,10.2h-1.8l-0.3-1.9h-1.8l-0.3,1.9H88.8z M90.9,13.9h1.4l-0.7-4.1h0L90.9,13.9z"
			/>
	</g>
	<g class="st2">
		<path class="st1" d="M78.7,15.2c0-1,0.3-1.7,1.3-2.7l1-1c0.6-0.6,0.6-0.9,0.6-1.8V8.9c0-0.6-0.3-0.8-0.6-0.8
			c-0.4,0-0.7,0.2-0.7,0.8v1.3h-1.6V9c0-1.4,0.8-2.2,2.3-2.2c1.5,0,2.2,0.7,2.2,2.1v1c0,1-0.2,1.6-1.1,2.6L81,13.7
			c-0.4,0.5-0.7,0.8-0.7,1.6v0.5h2.8v1.4h-4.4V15.2z"/>
	</g>
	<g>
		<polygon class="st1" points="85.4,9.9 85.4,14.1 87.6,12 		"/>
	</g>
	<g>
		<path class="st1" d="M98.2,180.9h-95v-58.8h95V180.9z M4.2,179.9h93v-56.8h-93V179.9z"/>
	</g>
	<g>
		<g>
			<g>
				<path class="st0" d="M21.7,75c-5.4,0-9.7,4.4-9.7,9.7c0,5.4,4.4,9.7,9.7,9.7s9.7-4.4,9.7-9.7l0,0C31.5,79.4,27.1,75,21.7,75z
					 M21.7,91.2c-3.6,0-6.5-2.9-6.5-6.5c0-3.6,2.9-6.5,6.5-6.5s6.5,2.9,6.5,6.5l0,0C28.3,88.3,25.4,91.3,21.7,91.2
					C21.8,91.3,21.8,91.3,21.7,91.2L21.7,91.2z"/>
			</g>
			<g>
				<circle class="st0" cx="21.7" cy="84.8" r="5"/>
			</g>
			<g>
				<path class="st0" d="M45.1,81c-3.5,0-6.3,2.9-6.3,6.4s2.9,6.3,6.4,6.3c3.5,0,6.3-2.8,6.3-6.3C51.4,83.8,48.6,81,45.1,81
					C45.1,81,45.1,81,45.1,81z M45.1,91.6c-2.4,0-4.3-1.9-4.3-4.3c0-2.4,1.9-4.3,4.3-4.3c2.4,0,4.3,1.9,4.3,4.3l0,0
					C49.3,89.7,47.5,91.6,45.1,91.6C45.1,91.6,45.1,91.7,45.1,91.6L45.1,91.6z"/>
			</g>
			<g>
				<path class="st0" d="M45.1,84.5c-1.6,0-2.9,1.3-2.9,2.8s1.3,2.8,2.8,2.8c1.6,0,2.9-1.3,2.9-2.8l0,0
					C47.9,85.8,46.6,84.5,45.1,84.5z"/>
			</g>
			<g>
				<path class="st0" d="M53.1,75.2l-14.5-2.3v-2.7h-0.5v-4.2c0-0.3,0.1-0.6,0.3-0.8c0.2-0.2,0.6-0.3,0.9-0.3V64
					c-0.6,0-1.1,0.2-1.5,0.6c-0.4,0.4-0.6,0.9-0.5,1.5v4.2h-0.5v2.3l-1.8-0.3l-3.5-11H17.1v11.1c-2,1.1-3.7,2.7-4.9,4.6l0.9,0.7
					c3.9-4.8,11-5.4,15.8-1.5c2.6,2.1,4.1,5.3,4.1,8.6v0.3h4.9c0,0,1.8-5.2,7.2-5.2c3-0.2,5.7,1.7,6.7,4.5h1.4L53.1,75.2z
					 M24.9,72.2h-6.3v-9.3h6.3V72.2z M26.5,72.2v-9.3h3.2l3.2,9.3H26.5z"/>
			</g>
		</g>
		<g>
			<g>
				<path class="st0" d="M71.4,85c-0.4,0.5-0.9,1-1.4,1.4c0.6,0.6,1.2,1.2,1.9,2H68l-0.7,0.8l-0.3,0.4h5.8c0.4,0.6,0.7,1.3,0.9,1.9
					h-7.8c-0.2,0.4-0.3,0.8-0.4,1.2H74c0.1,0.4,0.2,0.8,0.3,1.2h1.6c-0.4-2.8-1.5-5.4-3.2-7.7C72.3,86,71.8,85.5,71.4,85z"/>
			</g>
			<g>
				<path class="st0" d="M73.6,50.6c-0.2,0.7-0.5,1.3-0.9,1.9h-5.8c0.1,0.1,0.2,0.3,0.3,0.4l0.7,0.8h3.9l0,0c-0.7,0.8-1.3,1.4-1.9,2
					c0.5,0.5,1,1,1.4,1.5c0.4-0.5,0.9-0.9,1.3-1.5c1.7-2.2,2.7-4.7,3.1-7.4h-1.6c-0.1,0.3-0.2,0.6-0.2,1h-8.6
					c0.1,0.4,0.3,0.8,0.4,1.2L73.6,50.6z"/>
			</g>
			<g>
				<path class="st0" d="M80.9,71.5c-2.3,0.3-4.2,2-4.6,4.3c0,0.3,0,0.7,0.1,1c0,0,3.5-2.3,10.7-1.6c0,0-7.4-0.2-12,3.2
					c-0.4,0.3-0.7,0.6-1.1,0.9c1-2.5,1.6-5.2,1.7-7.9l0,0c-0.1-3.1-0.8-6.2-2-9c-1-2.2-2.4-4.2-4.2-5.8c-0.8-0.8-1.7-1.7-2.7-2.8
					c-1.2-1.6-2-3.4-2.4-5.4h-1.5c0.4,2.7,1.5,5.2,3.1,7.4c1,1.2,1.9,2.1,2.8,2.9c1.6,1.4,2.9,3.1,3.8,5c1.1,2.4,1.6,5,1.7,7.6l0,0
					c-0.1,2.5-0.7,4.9-1.7,7.2c-0.9,1.9-2.2,3.6-3.8,5c-0.8,0.9-1.8,1.8-2.8,3c-1.7,2.2-2.8,4.9-3.2,7.7h1.6c0.4-2.1,1.2-4,2.5-5.7
					c1-1.1,1.8-2,2.7-2.8c1.2-1.1,2.3-2.3,3.2-3.7l0,0c0.5-0.7,1.1-1.4,1.7-1.9c0.9-0.8,1.9-1.4,3-1.8c1.2,1.1,3.5,2.7,5.7,2.1
					c3-0.8,4.1-4.5,8.1-5C92.3,75.2,85.6,70.7,80.9,71.5z"/>
			</g>
			<g>
				<path class="st0" d="M57.4,60.3c-0.4-1.3-2.6-2.4-2.6-2.4s-1,2.2-0.6,3.5c0.3,1,1.8,1.3,2.2,1.4C56.5,62.7,57.8,61.3,57.4,60.3z
					"/>
			</g>
			<g>
				<path class="st0" d="M54.5,65.5c0,0,0.6,0.4,2.6,0.1c0,0-0.4-1.9-1.4-2.4c0,0-0.5-0.4-3.4-1C52.3,62.1,53,65,54.5,65.5z"/>
			</g>
			<g>
				<path class="st0" d="M56.9,66.8c0,0-0.6-0.5-3.7-1.1c0,0,0.7,3.2,2.4,3.7c0,0,0.6,0.4,2.8,0.1C58.4,69.4,57.9,67.3,56.9,66.8z"
					/>
			</g>
			<g>
				<path class="st0" d="M57.7,65.3c1.8-0.9,2-1.6,2-1.6c0.9-1.3-0.3-4-0.3-4c-1.9,2.2-2.1,2.8-2.1,2.8
					C56.9,63.6,57.7,65.3,57.7,65.3z"/>
			</g>
			<g>
				<path class="st0" d="M61.2,67.5c1-1.4-0.3-4.3-0.3-4.3c-2.1,2.4-2.2,3.1-2.2,3.1c-0.5,1.1,0.4,3,0.4,3
					C60.9,68.2,61.2,67.5,61.2,67.5z"/>
			</g>
			<g>
				<path class="st0" d="M50.8,55.4c-0.1-0.2-0.2-0.3-0.4-0.2s-0.3,0.2-0.2,0.4l2,6l0.7,0.2L50.8,55.4z"/>
			</g>
			<g>
				<path class="st0" d="M53.5,61.3c0-0.6,0-1.1,0.1-1.7L51.7,54c-0.1-0.2-0.2-0.3-0.4-0.2c0,0,0,0,0,0c-0.2,0.1-0.3,0.2-0.2,0.4
					c0,0,0,0,0,0L53.5,61.3L53.5,61.3z"/>
			</g>
			<g>
				<path class="st0" d="M54.2,57.4L52.4,52c-0.1-0.2-0.2-0.2-0.4-0.2c-0.2,0.1-0.3,0.2-0.2,0.4c0,0,0,0,0,0l2.1,6.2
					C54,58,54.2,57.7,54.2,57.4z"/>
			</g>
			<g>
				<path class="st0" d="M59.2,59.2l-2-6C57.1,53,56.9,53,56.8,53c-0.2,0.1-0.3,0.2-0.2,0.4c0,0,0,0,0,0l2.1,6.3L59.2,59.2z"/>
			</g>
			<g>
				<path class="st0" d="M58,59.8L58,59.8l-2.4-7.1c-0.1-0.2-0.2-0.3-0.4-0.2C55,52.5,55,52.7,55,52.9l1.9,5.6
					C57.3,58.9,57.7,59.3,58,59.8z"/>
			</g>
			<g>
				<path class="st0" d="M55.9,57.7l-2.1-6.2c-0.1-0.2-0.2-0.3-0.4-0.2c0,0,0,0,0,0c-0.2,0.1-0.2,0.2-0.2,0.4l1.8,5.4
					C55.3,57.3,55.6,57.5,55.9,57.7z"/>
			</g>
			<g>
				<path class="st0" d="M65.8,81.5c0.5,0.8,1,1.6,1.6,2.3c0.4-0.4,0.7-0.8,1.1-1.1l0.3-0.3c-0.7-0.8-1.4-1.6-1.9-2.5H71
					c0.3-0.4,0.5-0.8,0.7-1.2h-5.5v-0.1c-0.3-0.6-0.5-1.2-0.7-1.8h6.9c0.2-0.4,0.3-0.8,0.4-1.2h-7.7c-0.2-0.7-0.3-1.3-0.4-1.9h8.6
					c0.1-0.4,0.2-0.8,0.2-1.2h-8.9c0-0.4-0.1-0.8-0.1-1.1s0-0.8,0.1-1.2h8.9c0-0.4-0.1-0.8-0.2-1.2h-8.6c0.1-0.6,0.2-1.3,0.4-1.9
					h7.7c-0.1-0.4-0.2-0.8-0.4-1.2h-6.9c0.2-0.6,0.4-1.2,0.7-1.8v-0.1h5.5c-0.2-0.4-0.4-0.8-0.7-1.2h-4.1c0.5-0.9,1.2-1.7,1.9-2.5
					l-0.3-0.3l-1.1-1.1c-1,1.1-1.8,2.4-2.4,3.8c-1.2,2.7-1.9,5.6-2,8.5l0,0c0,0.1,0,0.2,0,0.2s0,0.2,0,0.2l0,0
					c0.1,2.2,0.5,4.3,1.2,6.4c-1.7-2.4-3.2-4.9-4.5-7.5L59,70.6C60.8,74.5,63.1,78.2,65.8,81.5L65.8,81.5z"/>
			</g>
		</g>
	</g>
</g>
</svg>
