<?xml version="1.0" encoding="utf-8"?>
<!-- Generator: Adobe Illustrator 22.0.1, SVG Export Plug-In . SVG Version: 6.00 Build 0)  -->
<svg version="1.1" id="Layer_1" xmlns="http://www.w3.org/2000/svg" xmlns:xlink="http://www.w3.org/1999/xlink" x="0px" y="0px"
	 viewBox="0 0 101.5 148.1" style="enable-background:new 0 0 101.5 148.1;" xml:space="preserve">
<style type="text/css">
	.st0{fill:#FFFFFF;}
	.st1{fill:#DDA63A;}
	.st2{enable-background:new    ;}
</style>
<title>TARGET 1.2</title>
<g id="WHITE_BG">
	<g>
		<rect y="0" class="st0" width="101.5" height="148.1"/>
	</g>
</g>
<g id="TARGETS">
	<g>
		<g>
			<path class="st1" d="M10.5,129.3H7.8v2h2.9v0.9H6.9v-6.4h3.9v0.9H7.8v1.8h2.6V129.3z"/>
		</g>
		<g>
			<path class="st1" d="M15.3,132.2l-2.8-4.5v4.5h-0.9v-6.4h0.9l2.8,4.5v-4.5h0.9v6.4L15.3,132.2z"/>
		</g>
		<g>
			<path class="st1" d="M17.1,132.2v-6.4H19c2.1,0,2.7,1.4,2.7,3.2s-0.6,3.2-2.7,3.2H17.1z M18.1,131.3h1c1.3,0,1.7-0.9,1.7-2.3
				s-0.4-2.3-1.7-2.3h-1V131.3z"/>
		</g>
		<g>
			<path class="st1" d="M27.1,130.6h-2l-0.5,1.6h-1l2-6.4h1l2,6.4h-1L27.1,130.6z M26.1,127l-0.8,2.8h1.6L26.1,127z"/>
		</g>
		<g>
			<path class="st1" d="M30.1,131.3h2.8v0.9h-3.7v-6.4h1L30.1,131.3z"/>
		</g>
		<g>
			<path class="st1" d="M34.3,131.3h2.8v0.9h-3.7v-6.4h1L34.3,131.3z"/>
		</g>
		<g>
			<path class="st1" d="M42.7,129.4h-2.6v2.8h-1v-6.4h3.8v0.9h-2.8v1.8h2.6V129.4z"/>
		</g>
		<g>
			<path class="st1" d="M43.4,129c0-1.8,0.4-3.3,2.5-3.3s2.5,1.5,2.5,3.3s-0.4,3.3-2.5,3.3S43.4,130.8,43.4,129z M44.4,129
				c0,1.5,0.3,2.4,1.5,2.4s1.5-0.9,1.5-2.4s-0.3-2.4-1.5-2.4S44.4,127.5,44.4,129L44.4,129z"/>
		</g>
		<g>
			<path class="st1" d="M50.1,132.2h-1v-6.4h2.1c1.7,0,2.2,0.7,2.2,1.9c0.1,0.7-0.3,1.4-1,1.7l1.3,2.8h-1.1l-1.2-2.6h-1.3V132.2z
				 M50.1,128.7h1.3c0.9,0,1-0.5,1-1s-0.1-1-1-1h-1.3V128.7z"/>
		</g>
		<g>
			<path class="st1" d="M57.8,131.3h-0.9l-1.6-3.9v4.8h-1v-6.4h1.3l1.7,4.3l1.7-4.3h1.2v6.4h-1v-4.8L57.8,131.3z"/>
		</g>
		<g>
			<path class="st1" d="M65.3,130.3c0,1.2-0.7,2-2.4,2c-0.7,0-1.3-0.1-1.9-0.3v-1c0.6,0.3,1.2,0.4,1.8,0.4c1.2,0,1.5-0.5,1.5-1.1
				s-0.3-0.9-1.2-1c-1.5-0.2-2.2-0.6-2.2-1.8c0-0.9,0.5-1.8,2.3-1.8c0.6,0,1.2,0.1,1.7,0.3v1c-0.5-0.2-1.1-0.3-1.7-0.3
				c-1,0-1.3,0.4-1.3,1c0,0.7,0.4,0.8,1.2,0.9C64.6,128.7,65.3,129,65.3,130.3z"/>
		</g>
		<g>
			<path class="st1" d="M67.4,129c0-1.8,0.4-3.3,2.4-3.3s2.5,1.5,2.5,3.3s-0.4,3.3-2.5,3.3S67.4,130.8,67.4,129z M68.4,129
				c0,1.5,0.3,2.4,1.5,2.4s1.5-0.9,1.5-2.4s-0.3-2.4-1.5-2.4S68.4,127.5,68.4,129L68.4,129z"/>
		</g>
		<g>
			<path class="st1" d="M76.6,129.4H74v2.8h-1v-6.4h3.8v0.9H74v1.8h2.6L76.6,129.4z"/>
		</g>
		<g>
			<path class="st1" d="M10.3,140.3H9.4l-1.6-3.9v4.8h-1v-6.4h1.3l1.7,4.4l1.7-4.4h1.2v6.4h-0.9v-4.8L10.3,140.3z"/>
		</g>
		<g>
			<path class="st1" d="M16.8,139.6h-2l-0.4,1.6h-1l2-6.4h1l2,6.4h-1L16.8,139.6z M15.8,136l-0.8,2.8h1.6L15.8,136z"/>
		</g>
		<g>
			<path class="st1" d="M19.8,140.3h2.8v0.9h-3.7v-6.4h1V140.3z"/>
		</g>
		<g>
			<path class="st1" d="M26.8,141.2l-2.8-4.5v4.5h-0.9v-6.4H24l2.8,4.5v-4.5h1v6.4L26.8,141.2z"/>
		</g>
		<g>
			<path class="st1" d="M28.5,139.2v-4.4h1v4.3c-0.1,0.6,0.4,1.2,1,1.3c0.1,0,0.2,0,0.3,0c0.6,0.1,1.2-0.3,1.4-1c0-0.1,0-0.2,0-0.3
				v-4.3h1v4.4c0,1.1-0.8,2.1-2,2.1c-0.1,0-0.2,0-0.3,0c-1.1,0.2-2.1-0.5-2.3-1.6C28.5,139.5,28.5,139.4,28.5,139.2z"/>
		</g>
		<g>
			<path class="st1" d="M36.4,135.7v5.5h-1v-5.5h-1.7v-0.9h4.3v0.9H36.4z"/>
		</g>
		<g>
			<path class="st1" d="M39.7,141.2h-1v-6.4h2.1c1.7,0,2.2,0.7,2.2,1.9c0.1,0.7-0.3,1.4-1,1.7l1.3,2.8h-1.1l-1.2-2.6h-1.3V141.2z
				 M39.7,137.7h1.3c0.9,0,1-0.5,1-1s-0.1-1-1-1h-1.3V137.7z"/>
		</g>
		<g>
			<path class="st1" d="M44,141.2v-6.4h1v6.4H44z"/>
		</g>
		<g>
			<path class="st1" d="M48.4,135.7v5.5h-1v-5.5h-1.7v-0.9h4.3v0.9H48.4z"/>
		</g>
		<g>
			<path class="st1" d="M50.9,141.2v-6.4h1v6.4H50.9z"/>
		</g>
		<g>
			<path class="st1" d="M52.7,138c0-1.8,0.4-3.3,2.5-3.3s2.5,1.5,2.5,3.3s-0.4,3.3-2.5,3.3S52.7,139.8,52.7,138z M53.7,138
				c0,1.5,0.3,2.4,1.5,2.4s1.5-0.9,1.5-2.4s-0.3-2.4-1.5-2.4S53.7,136.5,53.7,138L53.7,138z"/>
		</g>
		<g>
			<path class="st1" d="M62.1,141.2l-2.8-4.5v4.5h-1v-6.4h0.9l2.8,4.5v-4.5h1v6.4H62.1z"/>
		</g>
	</g>
	<g>
		<rect x="3.3" y="24" class="st1" width="94.8" height="94.8"/>
	</g>
	<g>
		<path class="st1" d="M98.2,20.7H3.3V3.3h94.8V20.7z M4.3,19.7h92.8V4.3H4.3L4.3,19.7z"/>
	</g>
	<g>
		<path class="st1" d="M98.2,144.8H3.3v-22.6h94.8V144.8z M4.3,143.8h92.8v-20.6H4.3L4.3,143.8z"/>
	</g>
	<g class="st2">
		<path class="st1" d="M6.7,6.9h4.5v1.4H9.9v8.8H8.1V8.3H6.7V6.9z"/>
	</g>
	<g class="st2">
		<path class="st1" d="M11.2,17.1l1.9-10.2h1.9L17,17.1h-1.8l-0.3-1.9h-1.8l-0.3,1.9H11.2z M13.3,13.9h1.4L14,9.8h0L13.3,13.9z"/>
	</g>
	<g class="st2">
		<path class="st1" d="M19.6,12.4v4.7h-1.7V6.9h2.5c1.7,0,2.4,0.9,2.4,2.3v1.3c0,1.1-0.4,1.7-1.4,2l1.6,4.6h-1.8L19.6,12.4z
			 M19.6,8.3v3.2h0.6c0.6,0,0.8-0.3,0.8-0.8V9.2c0-0.6-0.3-0.8-0.8-0.8H19.6z"/>
	</g>
	<g class="st2">
		<path class="st1" d="M26.4,11.7h2.4v5.4h-1.2V16c-0.2,0.8-0.7,1.2-1.6,1.2c-1.5,0-2.1-1.2-2.1-2.7V9.6c0-1.6,0.8-2.7,2.6-2.7
			c1.9,0,2.4,1.1,2.4,2.6v0.9h-1.6v-1c0-0.6-0.2-1-0.9-1c-0.6,0-0.9,0.4-0.9,1v5.5c0,0.6,0.3,1,0.8,1c0.6,0,0.8-0.3,0.8-1V13h-0.8
			V11.7z"/>
	</g>
	<g class="st2">
		<path class="st1" d="M30.2,6.9h4.1v1.4h-2.4v2.9h1.7v1.4h-1.7v3.1h2.4v1.4h-4.1V6.9z"/>
	</g>
	<g class="st2">
		<path class="st1" d="M35.1,6.9h4.5v1.4h-1.4v8.8h-1.7V8.3h-1.4V6.9z"/>
	</g>
	<g class="st2">
		<path class="st1" d="M79.7,15.2c0-1,0.3-1.7,1.3-2.7l1-1c0.6-0.6,0.6-0.9,0.6-1.8V9c0-0.6-0.3-0.8-0.6-0.8c-0.4,0-0.7,0.2-0.7,0.8
			v1.3h-1.6V9c0-1.4,0.8-2.2,2.3-2.2c1.5,0,2.2,0.7,2.2,2.1v1c0,1-0.2,1.6-1.1,2.6l-1.1,1.2c-0.4,0.5-0.7,0.8-0.7,1.6v0.5h2.8v1.4
			h-4.4V15.2z"/>
	</g>
	<g class="st2">
	</g>
	<g class="st2">
		<path class="st1" d="M87.1,10.8c0.7,0,1.2,0.6,1.2,1.2c0,0.7-0.6,1.2-1.2,1.2c-0.7,0-1.2-0.6-1.2-1.2
			C85.8,11.4,86.4,10.8,87.1,10.8z"/>
	</g>
	<g class="st2">
		<path class="st1" d="M89.8,15.2c0-1,0.3-1.7,1.3-2.7l1-1c0.6-0.6,0.6-0.9,0.6-1.8V9c0-0.6-0.3-0.8-0.6-0.8c-0.4,0-0.7,0.2-0.7,0.8
			v1.3h-1.6V9c0-1.4,0.8-2.2,2.3-2.2c1.5,0,2.2,0.7,2.2,2.1v1c0,1-0.2,1.6-1.1,2.6l-1.1,1.2c-0.4,0.5-0.7,0.8-0.7,1.6v0.5h2.8v1.4
			h-4.4V15.2z"/>
	</g>
	<g>
		<g>
			<g>
				<path class="st0" d="M44.2,63.4v1l0,0l0,0c0,0.2,0.2,0.4,0.5,0.4h11.5c0.2,0,0.4-0.2,0.5-0.5l0,0v-1.1c6.5-2.1,8.8-7.4,9.9-13.8
					l0,0c0,0,0,0,0-0.1c0-0.2-0.2-0.4-0.5-0.5H34.5c-0.2,0-0.5,0.2-0.5,0.4c0,0,0,0,0,0v0.2C35.2,56.1,37.6,61.4,44.2,63.4"/>
			</g>
			<g>
				<path class="st0" d="M56.7,33.3c-0.2,0.2-3.7,5.3,0.1,9.4c1.7,1.9,1.6,3.6,1.1,4.7h2.4c0.6-2.1-0.1-4.4-1.7-5.9
					c-2.8-3,0-7.2,0.1-7.2c0.3-0.4,0.2-1-0.3-1.3c0,0-0.1-0.1-0.1-0.1C57.7,32.7,57.1,32.9,56.7,33.3"/>
			</g>
			<g>
				<path class="st0" d="M50.6,47.4H53c0.6-2.1-0.1-4.4-1.7-5.9c-2.8-3,0-7.2,0.1-7.2c0.3-0.4,0.1-1-0.3-1.3c0,0-0.1,0-0.1-0.1
					c-0.5-0.3-1.2-0.1-1.6,0.3c-0.2,0.2-3.7,5.3,0.1,9.4C51.2,44.7,51.1,46.3,50.6,47.4"/>
			</g>
			<g>
				<path class="st0" d="M42.1,33.3c-0.2,0.2-3.7,5.3,0.1,9.4c1.7,1.9,1.6,3.6,1.1,4.7h2.4c0.6-2.1-0.1-4.4-1.7-5.9
					c-2.8-3,0-7.2,0.1-7.2c0.3-0.4,0.2-1-0.3-1.3c0,0-0.1-0.1-0.1-0.1C43.1,32.7,42.5,32.9,42.1,33.3"/>
			</g>
		</g>
		<g>
			<g>
				<path class="st0" d="M20.5,79.5c1.7,0,3.1-1.4,3.1-3.1c0-1.7-1.4-3.1-3.1-3.1c-1.7,0-3.1,1.4-3.1,3.1c0,0,0,0,0,0
					C17.4,78.2,18.8,79.5,20.5,79.5z"/>
			</g>
			<g>
				<path class="st0" d="M24.1,80.7h-0.2h-6.8h-0.2c-2.1,0.2-3.8,2-3.8,4.1v8.6c0,0.4,0.2,0.8,0.6,1c0,0,0,0.1-0.1,0.2l-2.8,14.6
					c-0.1,0.3,0.1,0.6,0.4,0.6h0.1c0.3,0,0.5-0.2,0.5-0.4l2.8-14.6c0-0.1,0-0.1,0-0.2c0.5-0.2,0.8-0.6,0.8-1.1v-7.4
					c0-0.3,0.1-0.7,0.6-0.7s0.4,0.4,0.4,0.6v22.2c0.1,1,0.9,1.7,1.9,1.6c0.9-0.1,1.5-0.7,1.6-1.6V95.4c0-0.3,0.2-0.5,0.5-0.5
					s0.5,0.2,0.5,0.5v12.8c0.1,1,0.9,1.7,1.9,1.6c0.9-0.1,1.5-0.7,1.6-1.6V86c0-0.2,0.1-0.6,0.4-0.6c0.5,0,0.6,0.4,0.6,0.7v7.4
					c0,0.7,0.5,1.2,1.2,1.2c0.7,0,1.2-0.5,1.2-1.2v-8.6C27.8,82.7,26.2,80.9,24.1,80.7z"/>
			</g>
		</g>
		<g>
			<g>
				<path class="st0" d="M50.4,80.2c1.7,0,3-1.3,3-3s-1.3-3-3-3s-3,1.3-3,3S48.8,80.2,50.4,80.2z"/>
			</g>
			<g>
				<path class="st0" d="M59,92.2L56.5,84c0,0-0.9-2.4-2.9-2.4h-6.4c-2,0-2.9,2.4-2.9,2.4l-2.5,8.2c0,0-0.4,1.5,0.8,1.9
					s1.6-1.1,1.6-1.1l2-6.8c0,0,0.1-0.5,0.5-0.4s0.2,0.7,0.2,0.7l-3.5,12.8h3.3v9.2c-0.1,0.9,0.6,1.6,1.4,1.7
					c0.9,0.1,1.6-0.6,1.7-1.4c0-0.1,0-0.2,0-0.3v-9.1h0.9v9.2c-0.1,0.9,0.6,1.6,1.4,1.7c0.9,0.1,1.6-0.6,1.7-1.4c0-0.1,0-0.2,0-0.3
					v-9.2h3.3l-3.5-12.8c0,0-0.1-0.6,0.2-0.7s0.5,0.4,0.5,0.4l2,6.8c0,0,0.4,1.5,1.7,1.1S59,92.2,59,92.2z M54,93.9
					c0,2-1.6,3.6-3.6,3.6s-3.6-1.6-3.6-3.6c0-2,1.6-3.6,3.6-3.6c0,0,0,0,0,0C52.4,90.3,54,91.9,54,93.9z"/>
			</g>
			<g>
				<path class="st0" d="M51.6,92.1c-0.6,0-1,0.7-1.2,1c-0.3-0.3-0.5-1-1.2-1S48,92.7,48,93.5c0,0.4,0.2,0.7,0.4,1l2,2l2-2l0,0
					c0.3-0.3,0.4-0.6,0.4-1C52.8,92.7,52.4,92.1,51.6,92.1z"/>
			</g>
		</g>
		<g>
			<g>
				<path class="st0" d="M34.9,93.5c1.4,0,2.6-1.2,2.6-2.6c0-1.4-1.2-2.6-2.6-2.6c-1.4,0-2.6,1.2-2.6,2.6S33.4,93.5,34.9,93.5
					L34.9,93.5z"/>
			</g>
			<g>
				<path class="st0" d="M41.1,101.1c0-0.1-0.8-2-1-2.6c-1.6-4.1-1.8-4-3.3-4.1h-4c-1.4,0-1.7,0-3.3,4.1c-0.2,0.6-1.2,2.8-1.2,3
					s-0.4,1,0.5,1.3s1.1-0.7,1.1-0.7l1.6-4c0,0,0-0.1,0.1-0.1s0.1,0.1,0.1,0.1v10.3l0,0c-0.1,0.7,0.5,1.4,1.2,1.5s1.4-0.5,1.5-1.2
					c0-0.1,0-0.2,0-0.2v-4.1c0,0,0-0.6,0.4-0.6s0.4,0.6,0.4,0.6v4.1c0,0.7,0.5,1.4,1.3,1.4c0,0,0.1,0,0.1,0c0.7,0,1.3-0.6,1.3-1.3
					c0,0,0,0,0-0.1l0,0V98.2c0-0.1,0-0.1,0-0.1s0.1,0.1,0.1,0.1l1.5,3.6c0,0,0.4,1,1.2,0.6C41.2,102.1,41.3,101.6,41.1,101.1z"/>
			</g>
		</g>
		<g>
			<g>
				<path class="st0" d="M62.7,87.9l-2.2,6.9c0,0-0.4,1.3,0.7,1.6s1.4-0.9,1.4-0.9l1.7-5.8c0,0,0.1-0.4,0.4-0.3S65,90,65,90l-3,10.9
					h2.8v7.8c0,0.8,0.6,1.4,1.4,1.4s1.4-0.6,1.4-1.4v-7.8h0.8v7.8c0,0.8,0.6,1.4,1.4,1.4s1.4-0.6,1.4-1.4v-7.8h2.8L70.8,90
					c0,0-0.1-0.5,0.2-0.6s0.4,0.3,0.4,0.3l1.8,5.8c0,0,0.3,1.2,1.4,0.9s0.7-1.6,0.7-1.6L73.2,88c0,0-0.8-2-2.5-2h-5.5
					C63.4,86,62.7,88,62.7,87.9"/>
			</g>
			<g>
				<g>
					<path class="st0" d="M65.5,79.7c0-0.4-0.5-0.9-1.3-0.4c-1.1,0.5-0.9,2.1-0.9,2.1s0,0.2,0.1,0.2c0.1-0.2,0.3-0.6,1.2-0.8
						c0.2,0,0.3-0.1,0.4-0.1c0.1-0.3,0.3-0.5,0.5-0.7C65.5,79.8,65.5,79.8,65.5,79.7z"/>
				</g>
				<g>
					<path class="st0" d="M71.8,79.3c-0.9-0.4-1.3,0.1-1.3,0.4c0,0.1,0,0.1,0,0.2c0.2,0.2,0.3,0.4,0.5,0.7c0.2,0.1,0.3,0.2,0.5,0.2
						c0.9,0.1,1.1,0.5,1.2,0.8c0,0.1,0,0,0.1-0.2S72.9,79.8,71.8,79.3z"/>
				</g>
				<g>
					<path class="st0" d="M68,79.3c-1.7,0-3,1.3-3,3s1.3,3,3,3s3-1.3,3-3c0-1.6-1.3-3-2.9-3C68.1,79.3,68,79.3,68,79.3z"/>
				</g>
			</g>
		</g>
		<g>
			<g>
				<path class="st0" d="M90.6,89.6v6.1c0,0.6-0.5,1-1,1c-0.6,0-1-0.5-1-1v-6.3c0-0.2-0.1-0.6-0.5-0.6s-0.4,0.3-0.4,0.5v19
					c0,0.8-0.7,1.5-1.5,1.5s-1.5-0.7-1.5-1.5v-11c0-0.2-0.1-0.4-0.4-0.4c0,0,0,0-0.1,0l0,0c-0.2,0-0.4,0.2-0.4,0.4c0,0,0,0,0,0.1v11
					c0,0.8-0.7,1.5-1.5,1.5s-1.5-0.7-1.5-1.5v-19c0-0.2-0.1-0.5-0.4-0.5s-0.5,0.3-0.5,0.6v6.3c0,0.6-0.5,1-1,1c-0.6,0-1-0.5-1-1
					v-7.4c0-1.8,1.4-3.4,3.2-3.6h6.2c1.8,0.2,3.2,1.7,3.2,3.6L90.6,89.6L90.6,89.6z"/>
			</g>
			<g>
				<g>
					<path class="st0" d="M86,80.9c-0.2-0.2-0.4-0.4-0.8-0.2s-0.3,0.2-0.6,0.3c-0.5,0.2-1.1,0.4-1.7,0.5c-0.4,0.1-0.9,0.1-1.3,0.1
						c0.2,1.5,1.5,2.5,2.9,2.4c1.2-0.1,2.2-1.1,2.4-2.3C86.6,81.4,86.3,81.1,86,80.9z"/>
				</g>
				<g>
					<path class="st0" d="M82.8,80.9c0.5-0.1,1-0.3,1.5-0.5c0.4-0.2,0.8-0.3,0.8-0.3c0.2-0.1,0.4-0.1,0.6-0.1c0.1,0,0.2,0.1,0.2,0.2
						l0.2,0.2c0,0,0.1,0.1,0.7,0.6C87,81,87,81,87.1,81s0.1-0.5,0.1-0.7c-0.1-0.7-0.4-1.3-0.8-1.8c-0.1-0.2-0.3-0.3-0.6-0.3
						c-0.4,0.1-0.3-0.2-0.6-0.3c-0.8-0.3-1.7-0.1-2.3,0.4c-0.8,0.6-1.4,1.5-1.7,2.4C81,80.9,81.3,81,81.6,81
						C82,81,82.4,81,82.8,80.9z"/>
				</g>
			</g>
		</g>
	</g>
</g>
</svg>
