<?xml version="1.0" encoding="utf-8"?>
<!-- Generator: Adobe Illustrator 22.0.1, SVG Export Plug-In . SVG Version: 6.00 Build 0)  -->
<svg version="1.1" id="Layer_1" xmlns="http://www.w3.org/2000/svg" xmlns:xlink="http://www.w3.org/1999/xlink" x="0px" y="0px"
	 viewBox="0 0 101.5 157.1" style="enable-background:new 0 0 101.5 157.1;" xml:space="preserve">
<style type="text/css">
	.st0{fill:#FFFFFF;}
	.st1{fill:#DD1367;}
	.st2{enable-background:new    ;}
</style>
<title>Artboard 23</title>
<g id="WHITE_BG">
	<g>
		<rect y="0" class="st0" width="101.5" height="157.1"/>
	</g>
	<g>
		<path class="st1" d="M98.2,153.8H3.3v-31.6h94.8V153.8z M4.3,152.8h92.8v-29.6H4.3L4.3,152.8z"/>
	</g>
</g>
<g id="TARGETS">
	<g>
		<g>
			<path class="st1" d="M10.5,129.3H7.8v2h2.9v0.9H6.9v-6.4h3.9v0.9H7.8v1.8h2.6V129.3z"/>
		</g>
		<g>
			<path class="st1" d="M15.3,132.2l-2.8-4.5v4.5h-0.9v-6.4h0.9l2.8,4.5v-4.5h0.9v6.4L15.3,132.2z"/>
		</g>
		<g>
			<path class="st1" d="M21.3,130.3c0,1.2-0.7,2-2.4,2c-0.6,0-1.3-0.1-1.9-0.4V131c0.6,0.3,1.2,0.4,1.8,0.4c1.1,0,1.5-0.5,1.5-1.1
				s-0.3-0.9-1.1-1c-1.6-0.2-2.2-0.6-2.2-1.8c0-0.9,0.5-1.8,2.3-1.8c0.6,0,1.2,0,1.8,0.3v1c-0.5-0.2-1.1-0.3-1.7-0.3
				c-1,0-1.3,0.4-1.3,1s0.4,0.8,1.2,0.9C20.5,128.7,21.3,129,21.3,130.3z"/>
		</g>
		<g>
			<path class="st1" d="M22,130.2v-4.4h1v4.3c-0.1,0.6,0.4,1.2,1,1.3c0.1,0,0.2,0,0.3,0c0.6,0.1,1.3-0.3,1.4-1c0-0.1,0-0.2,0-0.3
				v-4.3h1v4.4c0,1.1-0.8,2.1-2,2.1c-0.1,0-0.2,0-0.3,0c-1.1,0.2-2.2-0.5-2.4-1.7C22,130.5,22,130.4,22,130.2z"/>
		</g>
		<g>
			<path class="st1" d="M28.5,132.2h-1v-6.4h2.1c1.6,0,2.2,0.7,2.2,1.9c0.1,0.7-0.3,1.4-1,1.7l1.3,2.8H31l-1.1-2.6h-1.3V132.2z
				 M28.5,128.7h1.3c0.9,0,1-0.5,1-1s-0.1-1-1-1h-1.3V128.7z"/>
		</g>
		<g>
			<path class="st1" d="M36.4,129.3h-2.7v2h2.9v0.9h-3.9v-6.4h3.9v0.9h-2.9v1.8h2.7V129.3z"/>
		</g>
		<g>
			<path class="st1" d="M42.5,129.3h-2.7v2h2.9v0.9h-3.9v-6.4h3.9v0.9h-2.9v1.8h2.7V129.3z"/>
		</g>
		<g>
			<path class="st1" d="M46.9,132l2,0.4v1l-4-1.2c-1.3-0.4-1.6-1.6-1.6-3.2c0-1.9,0.4-3.3,2.5-3.3s2.5,1.4,2.5,3.3
				C48.2,130.5,48,131.6,46.9,132L46.9,132z M44.3,129c0,1.5,0.3,2.4,1.5,2.4s1.5-0.9,1.5-2.4s-0.3-2.4-1.5-2.4S44.3,127.5,44.3,129
				z"/>
		</g>
		<g>
			<path class="st1" d="M49,130.2v-4.4h1v4.3c0,0.8,0.6,1.4,1.4,1.4s1.4-0.6,1.4-1.4v-4.3h1v4.4c0,1.1-0.8,2.1-2,2.1
				c-0.1,0-0.2,0-0.3,0c-1.1,0.2-2.2-0.5-2.4-1.7C49,130.5,49,130.4,49,130.2z"/>
		</g>
		<g>
			<path class="st1" d="M57.4,130.6h-2l-0.5,1.6h-1l2-6.4h1l2,6.4h-1L57.4,130.6z M56.4,127l-0.8,2.8h1.6L56.4,127z"/>
		</g>
		<g>
			<path class="st1" d="M60.4,131.3h2.8v0.9h-3.7v-6.4h1L60.4,131.3z"/>
		</g>
		<g>
			<path class="st1" d="M6.8,138c0-1.8,0.4-3.3,2.5-3.3s2.5,1.5,2.5,3.3s-0.4,3.3-2.5,3.3S6.8,139.8,6.8,138z M7.8,138
				c0,1.5,0.3,2.4,1.5,2.4s1.5-0.9,1.5-2.4s-0.3-2.4-1.5-2.4S7.8,136.5,7.8,138L7.8,138z"/>
		</g>
		<g>
			<path class="st1" d="M13.4,141.2h-0.9v-6.4h2c1.7,0,2.2,1,2.2,2s-0.6,2-2.2,2h-1.1V141.2z M13.4,137.9h1.1c0.6,0,1.1-0.5,1.1-1.1
				c0-0.6-0.5-1.1-1.1-1.1h-1.1V137.9z"/>
		</g>
		<g>
			<path class="st1" d="M18.2,141.2h-1v-6.4h2c1.6,0,2.2,1,2.2,2s-0.6,2-2.2,2h-1.1L18.2,141.2z M18.2,137.9h1.1
				c0.6,0,1.1-0.5,1.1-1.1c0-0.6-0.5-1.1-1.1-1.1h-1.1V137.9z"/>
		</g>
		<g>
			<path class="st1" d="M21.9,138c0-1.8,0.4-3.3,2.5-3.3s2.5,1.5,2.5,3.3s-0.4,3.3-2.5,3.3S21.9,139.8,21.9,138z M22.9,138
				c0,1.5,0.3,2.4,1.5,2.4s1.5-0.9,1.5-2.4s-0.3-2.4-1.5-2.4S22.9,136.5,22.9,138L22.9,138z"/>
		</g>
		<g>
			<path class="st1" d="M28.7,141.2h-1v-6.4h2.1c1.6,0,2.2,0.7,2.2,1.9c0.1,0.7-0.3,1.4-1,1.7l1.3,2.8h-1.1l-1.1-2.6h-1.3V141.2z
				 M28.7,137.7h1.2c0.9,0,1-0.5,1-1s-0.1-1-1-1h-1.2V137.7z"/>
		</g>
		<g>
			<path class="st1" d="M34.9,135.7v5.5h-1v-5.5h-1.6v-0.9h4.3v0.9H34.9z"/>
		</g>
		<g>
			<path class="st1" d="M37,139.2v-4.4h1v4.3c0,0.8,0.6,1.4,1.4,1.4s1.4-0.6,1.4-1.4l0,0v-4.3h1v4.4c0.1,1.1-0.8,2.1-1.9,2.1
				c-0.2,0-0.3,0-0.4,0c-1.1,0.2-2.1-0.5-2.3-1.6C37,139.5,37,139.4,37,139.2z"/>
		</g>
		<g>
			<path class="st1" d="M46.3,141.2l-2.8-4.5v4.5h-1v-6.4h0.9l2.8,4.5v-4.5h1v6.4H46.3z"/>
		</g>
		<g>
			<path class="st1" d="M48.2,141.2v-6.4h1v6.4H48.2z"/>
		</g>
		<g>
			<path class="st1" d="M52.6,135.7v5.5h-1v-5.5H50v-0.9h4.3v0.9H52.6z"/>
		</g>
		<g>
			<path class="st1" d="M54.9,141.2v-6.4h1v6.4H54.9z"/>
		</g>
		<g>
			<path class="st1" d="M60.5,138.3h-2.6v2h2.9v0.9h-3.9v-6.4h3.9v0.9h-2.9v1.8h2.7L60.5,138.3z"/>
		</g>
		<g>
			<path class="st1" d="M65.8,139.3c0,1.2-0.7,2-2.4,2c-0.6,0-1.3-0.1-1.9-0.4V140c0.6,0.3,1.2,0.4,1.8,0.4c1.1,0,1.5-0.5,1.5-1.1
				s-0.3-0.9-1.2-1c-1.5-0.2-2.2-0.6-2.2-1.8c0-0.9,0.5-1.9,2.3-1.9c0.6,0,1.2,0.1,1.7,0.3v1c-0.5-0.2-1.1-0.3-1.7-0.3
				c-1,0-1.3,0.4-1.3,1s0.4,0.8,1.2,0.9C65.1,137.7,65.8,138,65.8,139.3z"/>
		</g>
		<g>
			<path class="st1" d="M71.2,139.6h-2l-0.4,1.6h-1l2-6.4h1l2,6.4h-1L71.2,139.6z M70.2,136l-0.8,2.8H71L70.2,136z"/>
		</g>
		<g>
			<path class="st1" d="M76.9,141.2l-2.8-4.5v4.5h-1v-6.4H74l2.8,4.5v-4.5h1v6.4H76.9z"/>
		</g>
		<g>
			<path class="st1" d="M78.7,141.2v-6.4h1.9c2.1,0,2.7,1.4,2.7,3.2s-0.6,3.2-2.7,3.2H78.7z M79.7,140.3h1c1.3,0,1.7-0.9,1.7-2.3
				s-0.4-2.3-1.7-2.3h-1V140.3z"/>
		</g>
		<g>
			<path class="st1" d="M10.5,147.3H7.8v2h2.9v0.9H6.9v-6.4h3.9v0.9H7.8v1.8h2.6V147.3z"/>
		</g>
		<g>
			<path class="st1" d="M15.3,150.2l-2.8-4.5v4.5h-0.9v-6.4h0.9l2.8,4.5v-4.5h0.9v6.4H15.3z"/>
		</g>
		<g>
			<path class="st1" d="M17.1,150.2v-6.4H19c2.1,0,2.7,1.4,2.7,3.2s-0.6,3.2-2.7,3.2H17.1z M18.1,149.3h1c1.3,0,1.7-0.9,1.7-2.3
				s-0.4-2.3-1.7-2.3h-1V149.3z"/>
		</g>
		<g>
			<path class="st1" d="M23.9,150.2v-6.4h1.9c2.1,0,2.7,1.4,2.7,3.2s-0.6,3.2-2.7,3.2H23.9z M24.9,149.3h1c1.3,0,1.7-0.9,1.7-2.3
				s-0.4-2.3-1.7-2.3h-1V149.3z"/>
		</g>
		<g>
			<path class="st1" d="M29.4,150.2v-6.4h1v6.4H29.4z"/>
		</g>
		<g>
			<path class="st1" d="M35.6,148.3c0,1.2-0.7,2-2.4,2c-0.6,0-1.3-0.1-1.9-0.4V149c0.6,0.3,1.2,0.4,1.8,0.4c1.1,0,1.5-0.5,1.5-1.1
				s-0.3-0.9-1.2-1c-1.6-0.2-2.2-0.6-2.2-1.8c0-0.9,0.5-1.9,2.3-1.9c0.6,0,1.2,0.1,1.7,0.3v1c-0.5-0.2-1.1-0.3-1.7-0.3
				c-1,0-1.3,0.4-1.3,1s0.4,0.8,1.2,0.9C34.8,146.7,35.6,147,35.6,148.3z"/>
		</g>
		<g>
			<path class="st1" d="M38.8,143.7c0.5,0,1,0.1,1.5,0.3v0.9c-0.5-0.2-0.9-0.3-1.4-0.3c-1.2,0-1.7,0.8-1.7,2.4s0.5,2.4,1.7,2.4
				c0.5,0,1-0.1,1.4-0.3v0.9c-0.5,0.2-1,0.3-1.5,0.3c-1.9,0-2.6-1.2-2.6-3.3S36.9,143.7,38.8,143.7z"/>
		</g>
		<g>
			<path class="st1" d="M42.1,150.2h-1v-6.4h2.1c1.7,0,2.2,0.7,2.2,1.9c0.1,0.7-0.3,1.4-1,1.7l1.3,2.8h-1.1l-1.2-2.6h-1.3V150.2z
				 M42.1,146.7h1.2c0.9,0,1-0.5,1-1s-0.1-1-1-1h-1.2V146.7z"/>
		</g>
		<g>
			<path class="st1" d="M46.4,150.2v-6.4h1v6.4H46.4z"/>
		</g>
		<g>
			<path class="st1" d="M51.8,149.3h-0.9l-1.6-3.9l0,4.8h-1v-6.4h1.2l1.7,4.4l1.7-4.4h1.2v6.4h-1v-4.8L51.8,149.3z"/>
		</g>
		<g>
			<path class="st1" d="M55.4,150.2v-6.4h1v6.4H55.4z"/>
		</g>
		<g>
			<path class="st1" d="M61.1,150.2l-2.8-4.5v4.5h-1v-6.4h0.9l2.8,4.5v-4.5h1v6.4H61.1z"/>
		</g>
		<g>
			<path class="st1" d="M66,148.6h-2l-0.5,1.6h-1l2-6.4h1l2,6.4h-1L66,148.6z M65,145l-0.8,2.8h1.6L65,145z"/>
		</g>
		<g>
			<path class="st1" d="M69.5,144.7v5.5h-1v-5.5h-1.6v-0.9h4.3v0.9H69.5z"/>
		</g>
		<g>
			<path class="st1" d="M71.9,150.2v-6.4h0.9v6.4H71.9z"/>
		</g>
		<g>
			<path class="st1" d="M73.8,147c0-1.8,0.4-3.3,2.4-3.3s2.5,1.5,2.5,3.3s-0.4,3.3-2.5,3.3S73.8,148.8,73.8,147z M74.8,147
				c0,1.5,0.3,2.4,1.5,2.4s1.5-0.9,1.5-2.4s-0.3-2.4-1.5-2.4S74.8,145.5,74.8,147L74.8,147z"/>
		</g>
		<g>
			<path class="st1" d="M83.2,150.2l-2.8-4.5v4.5h-0.9v-6.4h0.9l2.8,4.5v-4.5H84v6.4H83.2z"/>
		</g>
	</g>
	<g>
		<rect x="3.3" y="24" class="st1" width="94.8" height="94.8"/>
	</g>
	<g>
		<path class="st1" d="M98.2,20.7H3.3V3.3h94.8V20.7z M4.3,19.7h92.8V4.3H4.3L4.3,19.7z"/>
	</g>
	<g class="st2">
		<path class="st1" d="M6.7,6.9h4.5v1.4H9.9v8.8H8.1V8.3H6.7V6.9z"/>
	</g>
	<g class="st2">
		<path class="st1" d="M11.2,17.1l1.9-10.2h1.9L17,17.1h-1.8l-0.3-1.9h-1.8l-0.3,1.9H11.2z M13.3,13.9h1.4L14,9.8h0L13.3,13.9z"/>
	</g>
	<g class="st2">
		<path class="st1" d="M19.6,12.4v4.7h-1.7V6.9h2.5c1.7,0,2.4,0.9,2.4,2.3v1.3c0,1.1-0.4,1.7-1.4,2l1.6,4.6h-1.8L19.6,12.4z
			 M19.6,8.3v3.2h0.6c0.6,0,0.8-0.3,0.8-0.8V9.2c0-0.6-0.3-0.8-0.8-0.8H19.6z"/>
	</g>
	<g class="st2">
		<path class="st1" d="M26.4,11.7h2.4v5.4h-1.2V16c-0.2,0.8-0.7,1.2-1.6,1.2c-1.5,0-2.1-1.2-2.1-2.7V9.6c0-1.6,0.8-2.7,2.6-2.7
			c1.9,0,2.4,1.1,2.4,2.6v0.9h-1.6v-1c0-0.6-0.2-1-0.9-1c-0.6,0-0.9,0.4-0.9,1v5.5c0,0.6,0.3,1,0.8,1c0.6,0,0.8-0.3,0.8-1V13h-0.8
			V11.7z"/>
	</g>
	<g class="st2">
		<path class="st1" d="M30.2,6.9h4.1v1.4h-2.4v2.9h1.7v1.4h-1.7v3.1h2.4v1.4h-4.1V6.9z"/>
	</g>
	<g class="st2">
		<path class="st1" d="M35.1,6.9h4.5v1.4h-1.4v8.8h-1.7V8.3h-1.4V6.9z"/>
	</g>
	<g class="st2">
		<path class="st1" d="M77.5,6.9v10.2h-1.7V9.3h0l-1.2,1.2h0V8.8l1.6-1.8H77.5z"/>
		<path class="st1" d="M78.9,14.5V9.6c0-1.6,0.8-2.7,2.5-2.7C83.2,6.8,84,8,84,9.6v4.9c0,1.6-0.8,2.7-2.5,2.7
			C79.7,17.2,78.9,16.1,78.9,14.5z M82.3,14.8V9.3c0-0.6-0.2-1-0.8-1c-0.6,0-0.8,0.4-0.8,1v5.5c0,0.6,0.2,1,0.8,1
			C82.1,15.8,82.3,15.4,82.3,14.8z"/>
	</g>
	<g class="st2">
	</g>
	<g class="st2">
		<path class="st1" d="M86.8,10.8c0.7,0,1.2,0.6,1.2,1.2c0,0.7-0.6,1.2-1.2,1.2c-0.7,0-1.2-0.6-1.2-1.2
			C85.6,11.4,86.1,10.8,86.8,10.8z"/>
	</g>
	<g class="st2">
		<path class="st1" d="M94.3,9.1V10c0,0.9-0.5,1.4-1.2,1.7c0.9,0.2,1.3,0.8,1.3,1.7v1.5c0,1.4-0.8,2.3-2.5,2.3c-1.7,0-2.4-1-2.4-2.5
			v-1.3h1.6v1.5c0,0.6,0.2,1,0.8,1c0.5,0,0.8-0.4,0.8-0.9v-1.7c0-0.5-0.2-0.8-0.8-0.8h-0.7v-1.3h0.6c0.6,0,0.9-0.3,0.9-0.8V9.2
			c0-0.6-0.2-0.9-0.7-0.9s-0.7,0.4-0.7,1v1h-1.6V9.4c0-1.5,0.6-2.6,2.4-2.6C93.6,6.8,94.3,7.7,94.3,9.1z"/>
	</g>
	<g>
		<g>
			<g>
				<path class="st0" d="M66.8,59.1H34.6c-0.2,0-0.3,0.2-0.3,0.3v8.8c0,0.2,0.1,0.4,0.3,0.4c0,0,0,0,0,0h32.2c0.2,0,0.4-0.1,0.4-0.3
					c0,0,0,0,0,0v-8.8C67.2,59.2,67,59.1,66.8,59.1z"/>
			</g>
			<g>
				<path class="st0" d="M66.8,74.8H34.6c-0.2,0-0.4,0.2-0.3,0.4V84c0,0.2,0.2,0.4,0.3,0.4h32.2c0.2,0,0.4-0.2,0.4-0.4l0,0v-8.8
					C67.2,75,67,74.8,66.8,74.8L66.8,74.8z"/>
			</g>
		</g>
		<g>
			<g>
				<path class="st0" d="M89.1,82.4c-0.4-1.7,0.4-4.4,0.3-7.6s-0.4-4-2.5-7c-2.6-3.4-5.6-6.5-8.8-9.3c-0.7-0.6-1.7-1.4-2.3-0.9
					s0,1.5,0.4,2.2s3.4,4,4.6,5.8c1.3,2.1,2.2,4.4,2.7,6.9c0.2,1,0.4,4.6-0.1,4.9s-0.7-0.3-0.8-0.8s-0.2-3.8-0.5-5.6
					s-1.5-2.8-2.4-2.5c-0.8,0.2-0.3,1.5-0.4,3.8s-0.1,4.9-0.4,9.4c-0.2,3.2,1.3,6.3,3.8,8.3c0.7,0.6,5.5,6.8,10.1,12.9V88.5
					c-0.5-0.6-0.9-1.1-1-1.2C90.5,86,89.6,84.3,89.1,82.4z"/>
			</g>
			<g>
				<path class="st0" d="M12.4,61.4c0.4,1.7-0.4,4.4-0.3,7.6s0.4,4,2.5,7c2.6,3.4,5.6,6.5,8.8,9.3c0.7,0.6,1.7,1.4,2.3,0.9
					s0-1.5-0.4-2.2s-3.4-4-4.6-5.8c-1.3-2.1-2.2-4.5-2.7-6.9c-0.1-1-0.4-4.6,0.1-4.8s0.7,0.3,0.8,0.8s0.2,3.8,0.5,5.6
					s1.5,2.8,2.5,2.5c0.8-0.2,0.3-1.5,0.4-3.8s0.1-4.9,0.4-9.4c0.2-3.2-1.3-6.3-3.8-8.2c-0.7-0.6-5.5-6.8-10.1-12.9v14.4l1,1.2
					C11,57.8,12,59.5,12.4,61.4z"/>
			</g>
			<g>
				<path class="st0" d="M65.1,35.3c-1.4,1.3-3.1,2.2-4.9,2.6c-1.7,0.4-4.3-0.4-7.5-0.5s-4,0.4-6.9,2.4c-3.4,2.5-6.5,5.4-9.4,8.5
					c-0.6,0.7-1.4,1.7-0.9,2.2s1.5,0,2.2-0.4s4-3.3,5.8-4.5c2.1-1.2,4.4-2.1,6.8-2.5c1-0.1,4.5-0.3,4.8,0.2s-0.3,0.7-0.8,0.8
					s-3.7,0.2-5.5,0.4S46,46.1,46.3,47c0.2,0.7,1.5,0.3,3.8,0.4s4.9,0.2,9.3,0.5c3.2,0.2,6.3-1.1,8.2-3.6c0.8-1,13.3-9.9,20.5-15
					H70.5C67.8,32.3,65.4,35,65.1,35.3z"/>
			</g>
			<g>
				<path class="st0" d="M36.3,108.6c1.4-1.3,3.1-2.2,4.9-2.7c1.7-0.4,4.3,0.4,7.5,0.4s4-0.4,6.9-2.4c3.4-2.5,6.5-5.4,9.3-8.5
					c0.6-0.7,1.4-1.7,0.9-2.2s-1.5,0-2.2,0.4s-4,3.3-5.8,4.5c-2.1,1.2-4.4,2.1-6.9,2.5c-1,0.1-4.5,0.3-4.8-0.2s0.3-0.7,0.8-0.8
					s3.7-0.2,5.5-0.4s2.8-1.4,2.5-2.4c-0.2-0.7-1.5-0.4-3.8-0.4s-4.9-0.2-9.3-0.5c-3.2-0.2-6.3,1.1-8.2,3.6c-0.8,0.9-11.8,8.8-19,14
					h17C34.1,111,36,108.9,36.3,108.6z"/>
			</g>
		</g>
	</g>
</g>
</svg>
