<?xml version="1.0" encoding="utf-8"?>
<!-- Generator: Adobe Illustrator 22.0.1, SVG Export Plug-In . SVG Version: 6.00 Build 0)  -->
<svg version="1.1" id="Layer_1" xmlns="http://www.w3.org/2000/svg" xmlns:xlink="http://www.w3.org/1999/xlink" x="0px" y="0px"
	 viewBox="0 0 101.5 157.1" style="enable-background:new 0 0 101.5 157.1;" xml:space="preserve">
<style type="text/css">
	.st0{fill:#FFFFFF;}
	.st1{fill:#DD1367;}
	.st2{enable-background:new    ;}
</style>
<title>TARGET 1 B copy 6</title>
<g id="WHITE_BG">
	<g>
		<rect y="0" class="st0" width="101.5" height="157.1"/>
	</g>
</g>
<g id="TARGETS">
	<g>
		<g>
			<path class="st1" d="M7.8,132.2h-1v-6.4H9c1.6,0,2.2,0.7,2.2,1.9c0.1,0.7-0.3,1.4-1,1.7l1.3,2.8h-1.2l-1.1-2.6H7.8V132.2z
				 M7.8,128.7h1.3c0.9,0,1-0.5,1-1s-0.1-1-1-1H7.8V128.7z"/>
		</g>
		<g>
			<path class="st1" d="M15.7,129.3H13v2h3v0.9h-3.9v-6.4H16v0.9h-3v1.8h2.7L15.7,129.3z"/>
		</g>
		<g>
			<path class="st1" d="M21,130.3c0,1.2-0.7,2-2.4,2c-0.6,0-1.3-0.1-1.9-0.4V131c0.6,0.3,1.2,0.4,1.8,0.4c1.1,0,1.5-0.5,1.5-1.1
				s-0.3-0.9-1.2-1c-1.5-0.2-2.2-0.6-2.2-1.8c0-0.9,0.5-1.8,2.3-1.8c0.6,0,1.2,0.1,1.7,0.3v1c-0.5-0.2-1.1-0.3-1.7-0.3
				c-1,0-1.3,0.4-1.3,1c0,0.6,0.4,0.8,1.2,0.9C20.2,128.7,21,129,21,130.3z"/>
		</g>
		<g>
			<path class="st1" d="M22.6,132.2h-1v-6.4h2c1.6,0,2.2,1,2.2,2c0,1-0.6,2-2.2,2h-1.1V132.2z M22.6,128.9h1.1
				c0.6,0.1,1.2-0.4,1.2-1s-0.4-1.2-1-1.2c-0.1,0-0.1,0-0.2,0h-1.1V128.9z"/>
		</g>
		<g>
			<path class="st1" d="M26.3,129c0-1.8,0.4-3.3,2.5-3.3s2.5,1.5,2.5,3.3s-0.4,3.3-2.5,3.3S26.3,130.8,26.3,129z M27.3,129
				c0,1.5,0.3,2.4,1.5,2.4s1.5-0.9,1.5-2.4s-0.3-2.4-1.5-2.4S27.3,127.5,27.3,129L27.3,129z"/>
		</g>
		<g>
			<path class="st1" d="M35.8,132.2l-2.8-4.5v4.5h-0.9v-6.4h0.9l2.8,4.5v-4.5h0.9v6.4H35.8z"/>
		</g>
		<g>
			<path class="st1" d="M41.7,130.3c0,1.2-0.7,2-2.4,2c-0.6,0-1.3-0.1-1.9-0.4V131c0.6,0.3,1.2,0.4,1.8,0.4c1.1,0,1.5-0.5,1.5-1.1
				s-0.3-0.9-1.2-1c-1.6-0.2-2.2-0.6-2.2-1.8c0-0.9,0.5-1.8,2.3-1.8c0.6,0,1.2,0.1,1.7,0.3v1c-0.5-0.2-1.1-0.3-1.7-0.3
				c-1,0-1.3,0.4-1.3,1c0,0.6,0.4,0.8,1.2,0.9C41,128.7,41.7,129,41.7,130.3z"/>
		</g>
		<g>
			<path class="st1" d="M42.7,132.2v-6.4h1v6.4H42.7z"/>
		</g>
		<g>
			<path class="st1" d="M44.7,125.8h2.2c1.5,0,2,0.8,2,1.7c0,0.5-0.3,1-0.8,1.3c0.6,0.2,1.1,0.8,1,1.5c0,1.1-0.5,1.9-2.2,1.9h-2.2
				L44.7,125.8z M46.9,126.7h-1.2v1.8h1.2c0.4,0.1,0.9-0.2,0.9-0.7c0-0.1,0-0.1,0-0.2C47.9,127.2,47.7,126.7,46.9,126.7z
				 M45.7,131.3h1.3c0.9,0,1.1-0.5,1.1-1s-0.3-1-1.1-1h-1.3V131.3z"/>
		</g>
		<g>
			<path class="st1" d="M50.8,131.3h2.8v0.9h-3.7v-6.4h1L50.8,131.3z"/>
		</g>
		<g>
			<path class="st1" d="M57.6,129.3H55v2h2.9v0.9H54v-6.4h3.9v0.9H55v1.8h2.7L57.6,129.3z"/>
		</g>
		<g>
			<path class="st1" d="M63.3,130.6h-2l-0.5,1.6h-1l2-6.4h1l2,6.4h-1L63.3,130.6z M62.3,127l-0.8,2.8h1.6L62.3,127z"/>
		</g>
		<g>
			<path class="st1" d="M69,132.2l-2.8-4.5v4.5h-1v-6.4h0.9l2.9,4.5v-4.5h0.9v6.4H69z"/>
		</g>
		<g>
			<path class="st1" d="M70.8,132.2v-6.4h1.9c2.1,0,2.7,1.4,2.7,3.2s-0.6,3.2-2.7,3.2L70.8,132.2z M71.8,131.3h1
				c1.3,0,1.7-0.9,1.7-2.3s-0.4-2.3-1.7-2.3h-1V131.3z"/>
		</g>
		<g>
			<path class="st1" d="M9.5,134.8h1.2l1.1,5l0.8-5h1l-1.2,6.4h-1.1l-1.1-5.3L9,141.3H7.8l-1.2-6.4h1l0.8,5L9.5,134.8z"/>
		</g>
		<g>
			<path class="st1" d="M17.8,138.3h-2.7v2h2.9v0.9h-3.9v-6.4h3.9v0.9h-2.9v1.8h2.7V138.3z"/>
		</g>
		<g>
			<path class="st1" d="M19.9,140.3h2.8v0.9h-3.7v-6.4h1V140.3z"/>
		</g>
		<g>
			<path class="st1" d="M24.1,140.3h2.8v0.9h-3.7v-6.4h1L24.1,140.3z"/>
		</g>
		<g>
			<path class="st1" d="M29.3,138.4h-2.2v-0.9h2.2L29.3,138.4z"/>
		</g>
		<g>
			<path class="st1" d="M33.3,140.3h-0.9l-1.6-3.9v4.8h-1v-6.4H31l1.7,4.3l1.7-4.3h1.2v6.4h-1l0-4.8L33.3,140.3z"/>
		</g>
		<g>
			<path class="st1" d="M39.8,139.6h-2l-0.5,1.6h-1l2-6.4h1l2,6.4h-1L39.8,139.6z M38.8,136l-0.8,2.8h1.6L38.8,136z"/>
		</g>
		<g>
			<path class="st1" d="M45.5,141.2l-2.8-4.5v4.5h-0.9v-6.4h0.9l2.8,4.5v-4.5h0.9v6.4H45.5z"/>
		</g>
		<g>
			<path class="st1" d="M50.4,139.6h-2l-0.5,1.6h-1l2-6.4h1l2,6.4h-1L50.4,139.6z M49.4,136l-0.8,2.8h1.6L49.4,136z"/>
		</g>
		<g>
			<path class="st1" d="M52.2,138c0-2,0.7-3.3,2.6-3.3c0.6,0,1.3,0.1,1.8,0.3v1c-0.5-0.2-1.1-0.4-1.7-0.4c-1.3,0-1.8,0.9-1.8,2.4
				s0.5,2.4,1.8,2.4c0.3,0,0.6,0,0.9-0.1v-1.7h-1.1v-0.9h2.1v3.2c-0.6,0.3-1.3,0.4-2,0.4C52.9,141.3,52.2,140,52.2,138z"/>
		</g>
		<g>
			<path class="st1" d="M61.3,138.3h-2.6v2h2.9v0.9h-3.9v-6.4h3.9v0.9h-2.9v1.8h2.6V138.3z"/>
		</g>
		<g>
			<path class="st1" d="M62.4,141.2v-6.4h1.9c2.1,0,2.7,1.4,2.7,3.2s-0.6,3.2-2.7,3.2H62.4z M63.4,140.3h1c1.3,0,1.7-0.9,1.7-2.3
				s-0.4-2.3-1.7-2.3h-1L63.4,140.3z"/>
		</g>
		<g>
			<path class="st1" d="M10.3,149.3H9.4l-1.6-3.9v4.8h-1v-6.4h1.3l1.7,4.3l1.7-4.3h1.2v6.4h-0.9v-4.8L10.3,149.3z"/>
		</g>
		<g>
			<path class="st1" d="M13.9,150.2v-6.4h0.9v6.4H13.9z"/>
		</g>
		<g>
			<path class="st1" d="M15.8,147c0-2,0.7-3.3,2.6-3.3c0.6,0,1.3,0.1,1.8,0.3v1c-0.5-0.2-1.1-0.4-1.7-0.4c-1.3,0-1.8,0.9-1.8,2.4
				s0.5,2.4,1.8,2.4c0.3,0,0.6,0,0.9-0.1v-1.7h-1.1v-0.9h2.1v3.2c-0.6,0.3-1.3,0.4-2,0.4C16.5,150.3,15.8,149,15.8,147z"/>
		</g>
		<g>
			<path class="st1" d="M22.3,150.2h-1v-6.4h2.1c1.6,0,2.2,0.7,2.2,1.9c0.1,0.7-0.3,1.4-1,1.7l1.3,2.8h-1.1l-1.2-2.6h-1.3V150.2z
				 M22.3,146.7h1.2c0.9,0,1-0.5,1-1s-0.1-1-1-1h-1.2V146.7z"/>
		</g>
		<g>
			<path class="st1" d="M29.6,148.6h-2l-0.5,1.6h-1l2-6.4h1l2,6.4h-1L29.6,148.6z M28.6,145l-0.8,2.8h1.6L28.6,145z"/>
		</g>
		<g>
			<path class="st1" d="M33.2,144.7v5.5h-1v-5.5h-1.6v-0.9h4.3v0.9H33.2z"/>
		</g>
		<g>
			<path class="st1" d="M35.5,150.2v-6.4h1v6.4H35.5z"/>
		</g>
		<g>
			<path class="st1" d="M37.5,147c0-1.8,0.4-3.3,2.5-3.3s2.5,1.5,2.5,3.3s-0.4,3.3-2.5,3.3S37.5,148.8,37.5,147z M38.5,147
				c0,1.5,0.3,2.4,1.5,2.4s1.5-0.9,1.5-2.4s-0.3-2.4-1.5-2.4S38.4,145.5,38.5,147L38.5,147z"/>
		</g>
		<g>
			<path class="st1" d="M46.8,150.2l-2.8-4.5v4.5h-0.9v-6.4H44l2.8,4.5v-4.5h0.9v6.4H46.8z"/>
		</g>
		<g>
			<path class="st1" d="M50.9,150.2H50v-6.4h2c1.6,0,2.2,0.9,2.2,2s-0.6,2-2.2,2h-1.1V150.2z M50.9,146.9h1.1c0.6,0.1,1.2-0.4,1.2-1
				s-0.4-1.2-1-1.2c-0.1,0-0.1,0-0.2,0h-1.1V146.9z"/>
		</g>
		<g>
			<path class="st1" d="M54.6,147c0-1.8,0.4-3.3,2.5-3.3s2.5,1.5,2.5,3.3s-0.4,3.3-2.5,3.3S54.6,148.8,54.6,147z M55.6,147
				c0,1.5,0.3,2.4,1.5,2.4s1.5-0.9,1.5-2.4s-0.3-2.4-1.5-2.4S55.6,145.5,55.6,147L55.6,147z"/>
		</g>
		<g>
			<path class="st1" d="M61.2,149.3H64v0.9h-3.7v-6.4h1L61.2,149.3z"/>
		</g>
		<g>
			<path class="st1" d="M64.6,150.2v-6.4h1v6.4H64.6z"/>
		</g>
		<g>
			<path class="st1" d="M69.2,143.7c0.5,0,1,0.1,1.5,0.3v0.9c-0.4-0.2-0.9-0.3-1.4-0.3c-1.2,0-1.7,0.8-1.7,2.4s0.5,2.4,1.7,2.4
				c0.5,0,1-0.1,1.4-0.3v0.9c-0.5,0.2-1,0.3-1.5,0.3c-1.9,0-2.6-1.2-2.6-3.3S67.3,143.7,69.2,143.7z"/>
		</g>
		<g>
			<path class="st1" d="M71.7,150.2v-6.4h1v6.4H71.7z"/>
		</g>
		<g>
			<path class="st1" d="M77.4,147.3h-2.7v2h2.9v0.9h-3.9v-6.4h3.9v0.9h-2.9v1.8h2.7V147.3z"/>
		</g>
		<g>
			<path class="st1" d="M82.7,148.3c0,1.2-0.7,2-2.4,2c-0.6,0-1.3-0.1-1.9-0.4V149c0.6,0.3,1.2,0.4,1.8,0.4c1.1,0,1.5-0.5,1.5-1.1
				s-0.3-0.9-1.2-1c-1.6-0.2-2.2-0.6-2.2-1.8c0-0.9,0.5-1.8,2.3-1.8c0.6,0,1.2,0.1,1.7,0.3v1c-0.5-0.2-1.1-0.3-1.7-0.3
				c-1,0-1.3,0.4-1.3,1s0.4,0.8,1.2,0.9C81.9,146.7,82.7,147,82.7,148.3z"/>
		</g>
	</g>
	<g>
		<rect x="3.3" y="24" class="st1" width="94.8" height="94.8"/>
	</g>
	<g>
		<path class="st1" d="M98.2,20.7H3.3V3.3h94.8V20.7z M4.3,19.7h92.8V4.3H4.3L4.3,19.7z"/>
	</g>
	<g class="st2">
		<path class="st1" d="M6.7,6.9h4.5v1.4H9.9v8.8H8.1V8.3H6.7V6.9z"/>
	</g>
	<g class="st2">
		<path class="st1" d="M11.2,17.1l1.9-10.2h1.9L17,17.1h-1.8l-0.3-1.9h-1.8l-0.3,1.9H11.2z M13.3,13.9h1.4L14,9.8h0L13.3,13.9z"/>
	</g>
	<g class="st2">
		<path class="st1" d="M19.6,12.4v4.7h-1.7V6.9h2.5c1.7,0,2.4,0.9,2.4,2.3v1.3c0,1.1-0.4,1.7-1.4,2l1.6,4.6h-1.8L19.6,12.4z
			 M19.6,8.3v3.2h0.6c0.6,0,0.8-0.3,0.8-0.8V9.2c0-0.6-0.3-0.8-0.8-0.8H19.6z"/>
	</g>
	<g class="st2">
		<path class="st1" d="M26.4,11.7h2.4v5.4h-1.2V16c-0.2,0.8-0.7,1.2-1.6,1.2c-1.5,0-2.1-1.2-2.1-2.7V9.6c0-1.6,0.8-2.7,2.6-2.7
			c1.9,0,2.4,1.1,2.4,2.6v0.9h-1.6v-1c0-0.6-0.2-1-0.9-1c-0.6,0-0.9,0.4-0.9,1v5.5c0,0.6,0.3,1,0.8,1c0.6,0,0.8-0.3,0.8-1V13h-0.8
			V11.7z"/>
	</g>
	<g class="st2">
		<path class="st1" d="M30.2,6.9h4.1v1.4h-2.4v2.9h1.7v1.4h-1.7v3.1h2.4v1.4h-4.1V6.9z"/>
	</g>
	<g class="st2">
		<path class="st1" d="M35.1,6.9h4.5v1.4h-1.4v8.8h-1.7V8.3h-1.4V6.9z"/>
	</g>
	<g>
		<path class="st1" d="M98.2,153.8H3.3v-31.6h94.8V153.8z M4.3,152.8h92.8v-29.6H4.3L4.3,152.8z"/>
	</g>
	<g class="st2">
		<path class="st1" d="M78.2,6.9v10.2h-1.7V9.3h0l-1.2,1.2h0V8.8l1.6-1.8H78.2z"/>
		<path class="st1" d="M79.6,14.5V9.6c0-1.6,0.8-2.7,2.5-2.7c1.7,0,2.5,1.2,2.5,2.7v4.9c0,1.6-0.8,2.7-2.5,2.7
			C80.4,17.2,79.6,16.1,79.6,14.5z M83,14.8V9.3c0-0.6-0.2-1-0.8-1c-0.6,0-0.8,0.4-0.8,1v5.5c0,0.6,0.2,1,0.8,1
			C82.7,15.8,83,15.4,83,14.8z"/>
	</g>
	<g class="st2">
	</g>
	<g class="st2">
		<path class="st1" d="M87.5,10.8c0.7,0,1.2,0.6,1.2,1.2c0,0.7-0.6,1.2-1.2,1.2c-0.7,0-1.2-0.6-1.2-1.2
			C86.2,11.4,86.8,10.8,87.5,10.8z"/>
	</g>
	<g class="st2">
		<path class="st1" d="M90.1,6.9h4.3v1.6l-2.2,8.6h-1.7l2.3-8.8h-2.6V6.9z"/>
	</g>
	<g>
		<g>
			<path class="st0" d="M33.4,93.6c-4.1-1.5-6.6-2.2-8.7-3.2s-3.1-1.8-3.6-1.2c-0.6,0.8-0.2,2.2,1.3,3.2s4.3,2.1,4.9,2.4
				s0.9,0.7,0.4,1.1s-3.5-1.3-4.4-1.9c-2-1.4-3.7-3.2-5.1-5.2c-1.1-1.8-3-6-3.4-6.5S13.7,80.7,13,81s-0.4,1.5-0.1,2.4
				c1.2,4.1,2.8,8,4.8,11.7c1.8,3.1,2.4,3.7,5.3,5.1s5.7,1.7,7,2.8c1.5,1.2,2.6,2.7,3.3,4.5c0.1,0.2,0.2,0.4,0.3,0.7H43
				c-1.8-3.7-3.5-7.1-3.7-7.8C38.6,97.3,36.4,94.7,33.4,93.6z"/>
		</g>
		<g>
			<path class="st0" d="M88.6,81c-0.7-0.3-1.3,0.7-1.8,1.3s-2.3,4.7-3.4,6.6c-1.4,2-3.1,3.7-5.1,5.2c-0.9,0.6-4,2.2-4.4,1.9
				s0-0.8,0.4-1.1c1.7-0.7,3.3-1.5,4.9-2.4c1.5-1,1.9-2.5,1.3-3.2c-0.5-0.6-1.5,0.3-3.6,1.2s-4.6,1.6-8.7,3.2
				c-3,1.1-5.2,3.7-5.9,6.8c-0.2,0.7-1.8,4.1-3.7,7.8H68l0.3-0.7c0.7-1.8,1.8-3.3,3.3-4.5c1.3-1,4.1-1.4,7-2.8s3.4-2,5.3-5.1
				c2-3.7,3.6-7.7,4.9-11.7C89,82.6,89.3,81.3,88.6,81z"/>
		</g>
		<g>
			<path class="st0" d="M40,49.9c1.5,0,2.7-1.2,2.7-2.7s-1.2-2.7-2.7-2.7s-2.7,1.2-2.7,2.7S38.5,49.9,40,49.9L40,49.9z"/>
		</g>
		<g>
			<path class="st0" d="M56.2,60.7c-0.3,0-0.5,0.1-0.7,0.4l0,0c-0.1,0-1.1,1.9-1.5,2.3c-0.2,0.2-0.4,0.3-0.7,0.3h-2.7
				c-0.3,0-0.5-0.1-0.7-0.3c-0.3-0.3-1.4-2.2-1.5-2.3l0,0c-0.1-0.2-0.4-0.4-0.7-0.4h-0.1v-0.1l-2.2-7.3c0,0-0.8-2.1-2.6-2.1h-5.8
				c-1.8,0-2.6,2.1-2.6,2.1l-2.2,7.3c0,0-0.4,1.3,0.7,1.7c1.1,0.3,1.5-1,1.5-1l1.8-6.1c0,0,0.1-0.5,0.5-0.4s0.2,0.6,0.2,0.6
				l-3.1,11.4h2.9V75c-0.1,0.8,0.5,1.5,1.3,1.5c0,0,0,0,0,0c0.8,0.1,1.5-0.5,1.5-1.3c0,0,0,0,0,0v-8.4h0.8V75
				c-0.1,0.8,0.5,1.5,1.3,1.5c0,0,0,0,0,0c0.8,0.1,1.5-0.5,1.5-1.3c0,0,0,0,0,0v-8.4h2.9L43,55.4c0,0-0.1-0.5,0.2-0.6
				s0.5,0.4,0.5,0.4l1.8,6.1c0,0,0.3,1.3,1.5,1c0.1,0,0.2-0.1,0.3-0.1l2.1,3.8c0.1,0.2,0.1,0.4,0.1,0.5v0.8l-1.1,4.4h1.2v3.6l0,0
				c-0.1,0.6,0.4,1.1,1,1.2c0,0,0,0,0,0c0.6,0.1,1.2-0.4,1.2-1c0,0,0,0,0,0v-3.8h0.6v3.6c-0.1,0.6,0.4,1.1,1,1.2c0,0,0,0,0,0
				c0.6,0.1,1.2-0.4,1.2-1c0,0,0,0,0,0v-3.8h1.2l-1.2-4.4v-0.8c0-0.2,0.1-0.4,0.1-0.5l2.1-3.8c0.1-0.2,0.2-0.4,0.2-0.7
				C57,61.1,56.7,60.7,56.2,60.7z"/>
		</g>
		<g>
			<path class="st0" d="M52,62.2c1.2,0,2.3-1,2.3-2.2c0-1.2-1-2.3-2.2-2.3c-1.2,0-2.3,1-2.3,2.2c0,0,0,0,0,0l0,0
				C49.8,61.2,50.8,62.2,52,62.2z"/>
		</g>
		<g>
			<path class="st0" d="M23.1,48.5c1.6,0,2.9-1.2,2.9-2.8c0-1.6-1.2-2.9-2.8-2.9c-1.6,0-2.9,1.2-2.9,2.8v0
				C20.3,47.2,21.6,48.5,23.1,48.5z"/>
		</g>
		<g>
			<path class="st0" d="M17.5,62.4c0.6,0,1.1-0.5,1.1-1.1v-6.8c0-0.3,0.1-0.6,0.5-0.6s0.4,0.3,0.4,0.6v20.3
				c-0.1,0.9,0.6,1.6,1.4,1.7c0.9,0.1,1.6-0.6,1.7-1.4c0,0,0,0,0,0V63c0-0.2,0.2-0.5,0.4-0.5c0,0,0,0,0,0l0,0c0.2,0,0.4,0.2,0.5,0.4
				v11.8c-0.1,0.9,0.6,1.6,1.4,1.7c0.9,0.1,1.6-0.6,1.7-1.4c0,0,0,0,0,0V54.4c0-0.2,0.1-0.6,0.4-0.6c0.3,0,0.5,0.3,0.5,0.6v6.8
				c0,0.4,0.3,0.8,0.7,1c0,0.1,0,0.2,0,0.2l2.6,13.4c0,0.3,0.3,0.5,0.5,0.5h0.1c0.3-0.1,0.5-0.4,0.4-0.7l-2.5-13.4
				c0-0.1,0-0.1-0.1-0.2c0.3-0.2,0.5-0.5,0.5-0.9v-7.9c0-2-1.5-3.6-3.5-3.8h-6.6c-2,0.2-3.5,1.8-3.5,3.8v7.9
				C16.3,61.9,16.8,62.4,17.5,62.4C17.4,62.4,17.4,62.4,17.5,62.4L17.5,62.4z"/>
		</g>
		<g>
			<rect x="57.4" y="70" class="st0" width="13" height="6.3"/>
		</g>
		<g>
			<path class="st0" d="M69.3,63H68c0-1-0.8-1.8-1.8-1.8c-1,0-1.8,0.8-1.8,1.8h-1.3v6.3h6.2V63z M66.2,61.6c0.8,0,1.4,0.6,1.4,1.4
				c0,0,0,0,0,0l0,0h-2.7C64.8,62.3,65.4,61.6,66.2,61.6C66.2,61.6,66.2,61.6,66.2,61.6L66.2,61.6L66.2,61.6z"/>
		</g>
		<g>
			<path class="st0" d="M77.3,48.4c1.6,0,2.8-1.3,2.8-2.8s-1.3-2.9-2.8-2.9c-1.6,0-2.8,1.3-2.8,2.8v0l0,0
				C74.5,47.1,75.7,48.4,77.3,48.4C77.3,48.4,77.3,48.4,77.3,48.4L77.3,48.4z"/>
		</g>
		<g>
			<path class="st0" d="M71.6,62.3c0.6,0,1.1-0.5,1.1-1.1v-6.8c0-0.3,0.1-0.6,0.5-0.6s0.4,0.3,0.4,0.6v20.3
				c-0.1,0.9,0.6,1.6,1.4,1.7s1.6-0.6,1.7-1.4c0,0,0,0,0,0V63c0-0.2,0.2-0.4,0.4-0.5h0.1c0.2,0,0.4,0.2,0.4,0.4c0,0,0,0,0,0v11.7
				c-0.1,0.9,0.6,1.6,1.4,1.7s1.6-0.6,1.7-1.4c0,0,0,0,0,0V54.4c0-0.2,0.1-0.6,0.4-0.6s0.5,0.3,0.5,0.6v6.8c0.1,0.6,0.6,1.1,1.2,1
				c0,0,0,0,0,0c0.5-0.1,0.9-0.5,1-1v-7.9c0-2-1.5-3.6-3.4-3.8H74c-2,0.2-3.5,1.8-3.4,3.8v7.9C70.5,61.8,71,62.3,71.6,62.3z"/>
		</g>
		<g>
			<rect x="81.6" y="63" class="st0" width="3.7" height="8"/>
		</g>
	</g>
</g>
</svg>
