<?xml version="1.0" encoding="utf-8"?>
<!-- Generator: Adobe Illustrator 22.0.1, SVG Export Plug-In . SVG Version: 6.00 Build 0)  -->
<svg version="1.1" id="Layer_1" xmlns="http://www.w3.org/2000/svg" xmlns:xlink="http://www.w3.org/1999/xlink" x="0px" y="0px"
	 viewBox="0 0 101.5 184.2" style="enable-background:new 0 0 101.5 184.2;" xml:space="preserve">
<style type="text/css">
	.st0{fill:#FFFFFF;}
	.st1{fill:#DD1367;}
	.st2{enable-background:new    ;}
</style>
<title>TARGET 1 B copy 5</title>
<g id="WHITE_BG">
	<g>
		<rect y="0" class="st0" width="101.5" height="184.2"/>
	</g>
</g>
<g id="TARGETS">
	<g>
		<g>
			<path class="st1" d="M10.5,129.3H7.8v2h2.9v0.9H6.9v-6.4h3.9v0.9H7.8v1.8h2.6V129.3z"/>
		</g>
		<g>
			<path class="st1" d="M15.3,132.2l-2.8-4.5v4.5h-0.9v-6.4h0.9l2.8,4.5v-4.5h0.9v6.4H15.3z"/>
		</g>
		<g>
			<path class="st1" d="M20.6,132.2v-2.9h-2.6v2.9h-1v-6.4h1v2.6h2.6v-2.6h1v6.4H20.6z"/>
		</g>
		<g>
			<path class="st1" d="M25.6,130.6h-2l-0.5,1.6h-1l2-6.4h1l2,6.4h-1L25.6,130.6z M24.6,127l-0.8,2.8h1.6L24.6,127z"/>
		</g>
		<g>
			<path class="st1" d="M31.3,132.2l-2.8-4.5v4.5h-0.9v-6.4h0.9l2.8,4.5v-4.5h0.9v6.4H31.3z"/>
		</g>
		<g>
			<path class="st1" d="M35.7,125.7c0.5,0,1,0.1,1.5,0.3v0.9c-0.5-0.2-0.9-0.3-1.4-0.3c-1.2,0-1.7,0.8-1.7,2.4s0.5,2.4,1.7,2.4
				c0.5,0,1-0.1,1.4-0.3v0.9c-0.5,0.2-1,0.3-1.5,0.3c-1.9,0-2.6-1.2-2.6-3.3S33.8,125.7,35.7,125.7z"/>
		</g>
		<g>
			<path class="st1" d="M41.7,129.3H39v2h2.9v0.9h-3.8v-6.4h3.9v0.9H39v1.8h2.7L41.7,129.3z"/>
		</g>
		<g>
			<path class="st1" d="M42.8,132.2v-6.4h1.9c2.1,0,2.7,1.4,2.7,3.2s-0.6,3.2-2.7,3.2L42.8,132.2z M43.8,131.3h1
				c1.3,0,1.7-0.9,1.7-2.3s-0.4-2.3-1.7-2.3h-1V131.3z"/>
		</g>
		<g>
			<path class="st1" d="M7.8,141.2h-1v-6.4H9c1.6,0,2.2,0.7,2.2,1.9c0.1,0.7-0.3,1.4-1,1.7l1.3,2.8h-1.2l-1.1-2.6H7.8V141.2z
				 M7.8,137.7h1.3c0.9,0,1-0.5,1-1s-0.1-1-1-1H7.8V137.7z"/>
		</g>
		<g>
			<path class="st1" d="M15.6,138.3h-2.7v2h2.9v0.9H12v-6.4h3.9v0.9h-3v1.8h2.6L15.6,138.3z"/>
		</g>
		<g>
			<path class="st1" d="M17.6,141.2h-1v-6.4h2c1.6,0,2.2,0.9,2.2,2s-0.6,2-2.2,2h-1.1L17.6,141.2z M17.6,137.9h1.1
				c0.6,0.1,1.2-0.4,1.2-1s-0.4-1.2-1-1.2c-0.1,0-0.1,0-0.2,0h-1.1V137.9z"/>
		</g>
		<g>
			<path class="st1" d="M22.3,141.2h-1v-6.4h2.1c1.6,0,2.2,0.7,2.2,1.9c0.1,0.7-0.3,1.4-1,1.7l1.3,2.8h-1.2l-1.1-2.6h-1.3V141.2z
				 M22.3,137.7h1.3c0.9,0,1-0.5,1-1s-0.1-1-1-1h-1.3V137.7z"/>
		</g>
		<g>
			<path class="st1" d="M30.2,138.3h-2.6v2h2.9v0.9h-3.9v-6.4h3.9v0.9h-2.9v1.8h2.6V138.3z"/>
		</g>
		<g>
			<path class="st1" d="M35.5,139.3c0,1.2-0.7,2-2.4,2c-0.6,0-1.3-0.1-1.9-0.4V140c0.6,0.3,1.2,0.4,1.8,0.4c1.2,0,1.5-0.5,1.5-1.1
				s-0.3-0.9-1.2-1c-1.5-0.2-2.1-0.6-2.1-1.8c0-0.9,0.5-1.8,2.3-1.8c0.6,0,1.2,0.1,1.7,0.3v1c-0.5-0.2-1.1-0.3-1.7-0.3
				c-1,0-1.3,0.4-1.3,1s0.4,0.8,1.2,0.9C34.7,137.7,35.5,138,35.5,139.3z"/>
		</g>
		<g>
			<path class="st1" d="M39.9,138.3h-2.7v2h2.9v0.9h-3.9v-6.4h3.9v0.9h-2.9v1.8h2.7V138.3z"/>
		</g>
		<g>
			<path class="st1" d="M44.7,141.2l-2.8-4.5v4.5H41v-6.4h0.9l2.8,4.5v-4.5h1v6.4H44.7z"/>
		</g>
		<g>
			<path class="st1" d="M48.7,135.7v5.5h-1v-5.5h-1.7v-0.9h4.3v0.9H48.7z"/>
		</g>
		<g>
			<path class="st1" d="M53.4,139.6h-2l-0.5,1.6h-1l2-6.4h1l2,6.4h-1L53.4,139.6z M52.4,136l-0.8,2.8h1.6L52.4,136z"/>
		</g>
		<g>
			<path class="st1" d="M57,135.7v5.5h-1v-5.5h-1.7v-0.9h4.3v0.9H57z"/>
		</g>
		<g>
			<path class="st1" d="M59.4,141.2v-6.4h1v6.4H59.4z"/>
		</g>
		<g>
			<path class="st1" d="M61.4,138c0-1.8,0.4-3.3,2.5-3.3c2,0,2.5,1.5,2.5,3.3s-0.4,3.3-2.5,3.3S61.4,139.8,61.4,138z M62.4,138
				c0,1.5,0.3,2.4,1.5,2.4s1.5-0.9,1.5-2.4s-0.3-2.4-1.5-2.4S62.3,136.5,62.4,138L62.4,138z"/>
		</g>
		<g>
			<path class="st1" d="M70.8,141.2l-2.8-4.5v4.5h-0.9v-6.4H68l2.8,4.5v-4.5h0.9v6.4H70.8z"/>
		</g>
		<g>
			<path class="st1" d="M10.4,147.4H7.8v2.8h-1v-6.4h3.9v0.9H7.8v1.8h2.6V147.4z"/>
		</g>
		<g>
			<path class="st1" d="M11.2,147c0-1.8,0.4-3.3,2.5-3.3s2.5,1.5,2.5,3.3s-0.4,3.3-2.5,3.3S11.2,148.8,11.2,147z M12.2,147
				c0,1.5,0.3,2.4,1.5,2.4s1.5-0.9,1.5-2.4s-0.3-2.4-1.5-2.4S12.1,145.5,12.2,147L12.2,147z"/>
		</g>
		<g>
			<path class="st1" d="M17.8,150.2h-1v-6.4h2.1c1.6,0,2.2,0.7,2.2,1.9c0.1,0.7-0.3,1.4-1,1.7l1.3,2.8h-1.1l-1.2-2.6h-1.3V150.2z
				 M17.8,146.7H19c0.9,0,1-0.5,1-1s-0.1-1-1-1h-1.2V146.7z"/>
		</g>
		<g>
			<path class="st1" d="M23.4,150.2v-6.4h1.9c2.1,0,2.7,1.4,2.7,3.2s-0.6,3.2-2.7,3.2H23.4z M24.3,149.3h1c1.3,0,1.7-0.9,1.7-2.3
				s-0.4-2.3-1.7-2.3h-1V149.3z"/>
		</g>
		<g>
			<path class="st1" d="M32.3,147.3h-2.7v2h2.9v0.9h-3.9v-6.4h3.9v0.9h-2.9v1.8h2.7V147.3z"/>
		</g>
		<g>
			<path class="st1" d="M38,143.8l-2,6.4h-1l-2-6.4h1l1.5,5.2l1.5-5.2H38z"/>
		</g>
		<g>
			<path class="st1" d="M42.1,147.3h-2.7v2h2.9v0.9h-3.9v-6.4h3.9v0.9h-2.9v1.8h2.7V147.3z"/>
		</g>
		<g>
			<path class="st1" d="M44.2,149.3H47v0.9h-3.8v-6.4h1L44.2,149.3z"/>
		</g>
		<g>
			<path class="st1" d="M47,147c0-1.8,0.4-3.3,2.5-3.3s2.5,1.5,2.5,3.3s-0.4,3.3-2.5,3.3S47,148.8,47,147z M48,147
				c0,1.5,0.3,2.4,1.5,2.4s1.5-0.9,1.5-2.4s-0.3-2.4-1.5-2.4S47.9,145.5,48,147L48,147z"/>
		</g>
		<g>
			<path class="st1" d="M53.6,150.2h-1v-6.4h2c1.6,0,2.2,0.9,2.2,2s-0.6,2-2.2,2h-1.1L53.6,150.2z M53.6,146.9h1.1
				c0.6,0.1,1.2-0.4,1.2-1s-0.4-1.2-1-1.2c-0.1,0-0.1,0-0.2,0h-1.1V146.9z"/>
		</g>
		<g>
			<path class="st1" d="M57.5,150.2v-6.4h1v6.4H57.5z"/>
		</g>
		<g>
			<path class="st1" d="M63.2,150.2l-2.8-4.5v4.5h-0.9v-6.4h0.9l2.8,4.5v-4.5h0.9v6.4H63.2z"/>
		</g>
		<g>
			<path class="st1" d="M64.8,147c0-2,0.7-3.3,2.6-3.3c0.6,0,1.3,0.1,1.8,0.3v1c-0.5-0.2-1.1-0.4-1.7-0.4c-1.3,0-1.8,0.9-1.8,2.4
				s0.5,2.4,1.8,2.4c0.3,0,0.6,0,0.9-0.1v-1.7h-1.1v-0.9h2.1v3.2c-0.6,0.3-1.3,0.4-2,0.4C65.5,150.3,64.8,149,64.8,147z"/>
		</g>
		<g>
			<path class="st1" d="M9.4,152.7c0.5,0,1,0.1,1.5,0.3v0.9c-0.5-0.2-0.9-0.3-1.4-0.3c-1.2,0-1.7,0.8-1.7,2.4s0.5,2.4,1.7,2.4
				c0.5,0,1-0.1,1.4-0.3v0.9c-0.5,0.2-1,0.3-1.5,0.3c-1.9,0-2.6-1.2-2.6-3.3S7.5,152.7,9.4,152.7z"/>
		</g>
		<g>
			<path class="st1" d="M11.5,156c0-1.8,0.4-3.3,2.4-3.3s2.5,1.5,2.5,3.3s-0.5,3.3-2.5,3.3S11.5,157.8,11.5,156z M12.5,156
				c0,1.5,0.3,2.4,1.5,2.4s1.5-0.9,1.5-2.4s-0.3-2.4-1.5-2.4S12.5,154.5,12.5,156L12.5,156z"/>
		</g>
		<g>
			<path class="st1" d="M17.1,157.2v-4.4h1v4.3c-0.1,0.7,0.4,1.2,1,1.3c0.1,0,0.2,0,0.3,0c0.6,0.1,1.3-0.3,1.4-1c0-0.1,0-0.2,0-0.3
				v-4.3h1v4.4c0.1,1.1-0.8,2.1-1.9,2.1c-0.1,0-0.3,0-0.4,0c-1.1,0.2-2.1-0.5-2.3-1.6C17.1,157.5,17.1,157.4,17.1,157.2z"/>
		</g>
		<g>
			<path class="st1" d="M26.2,159.2l-2.8-4.5v4.5h-0.9v-6.4h0.9l2.8,4.5v-4.5h0.9v6.4H26.2z"/>
		</g>
		<g>
			<path class="st1" d="M30.3,153.7v5.5h-1v-5.5h-1.6v-0.9h4.3v0.9H30.3z"/>
		</g>
		<g>
			<path class="st1" d="M33.4,159.2h-1v-6.4h2.1c1.7,0,2.2,0.7,2.2,1.9c0.1,0.7-0.3,1.4-1,1.7l1.3,2.8h-1.1l-1.2-2.6h-1.3V159.2z
				 M33.4,155.7h1.3c0.9,0,1-0.5,1-1s-0.1-1-1-1h-1.3V155.7z"/>
		</g>
		<g>
			<path class="st1" d="M37.7,159.2v-6.4h1v6.4H37.7z"/>
		</g>
		<g>
			<path class="st1" d="M43.3,156.3h-2.7v2h2.9v0.9h-3.9v-6.4h3.9v0.9h-2.9v1.8h2.7V156.3z"/>
		</g>
		<g>
			<path class="st1" d="M48.6,157.3c0,1.2-0.7,2-2.4,2c-0.6,0-1.3-0.1-1.9-0.4V158c0.6,0.3,1.2,0.4,1.8,0.4c1.2,0,1.5-0.5,1.5-1.1
				s-0.3-0.9-1.2-1c-1.5-0.2-2.2-0.6-2.2-1.8c0-0.9,0.5-1.8,2.3-1.8c0.6,0,1.2,0.1,1.7,0.3v1c-0.5-0.2-1.1-0.3-1.7-0.3
				c-1,0-1.3,0.4-1.3,1s0.4,0.8,1.2,0.9C47.8,155.7,48.6,156,48.6,157.3z"/>
		</g>
		<g>
			<path class="st1" d="M50.9,159.2v-6.4h1v6.4H50.9z"/>
		</g>
		<g>
			<path class="st1" d="M56.6,159.2l-2.8-4.5v4.5h-0.9v-6.4h0.9l2.8,4.5v-4.5h0.9v6.4H56.6z"/>
		</g>
		<g>
			<path class="st1" d="M10.4,165.4H7.8v2.8h-1v-6.4h3.9v0.9H7.8v1.8h2.6V165.4z"/>
		</g>
		<g>
			<path class="st1" d="M11.4,168.2v-6.4h1v6.4H11.4z"/>
		</g>
		<g>
			<path class="st1" d="M17.2,168.2l-2.8-4.5v4.5h-0.9v-6.4h0.9l2.8,4.5v-4.5H18v6.4H17.2z"/>
		</g>
		<g>
			<path class="st1" d="M22.1,166.6H20l-0.5,1.6h-1l2-6.4h1l2,6.4h-1L22.1,166.6z M21.1,163l-0.8,2.8h1.6L21.1,163z"/>
		</g>
		<g>
			<path class="st1" d="M27.8,168.2l-2.8-4.5v4.5h-1v-6.4h1l2.8,4.5v-4.5h0.9v6.4H27.8z"/>
		</g>
		<g>
			<path class="st1" d="M32,161.7c0.5,0,1,0.1,1.5,0.3v0.9c-0.4-0.2-0.9-0.3-1.4-0.3c-1.2,0-1.7,0.8-1.7,2.4s0.5,2.4,1.7,2.4
				c0.5,0,1-0.1,1.4-0.3v0.9c-0.5,0.2-1,0.3-1.5,0.3c-1.9,0-2.6-1.2-2.6-3.3S30.1,161.7,32,161.7z"/>
		</g>
		<g>
			<path class="st1" d="M34.5,168.2v-6.4h1v6.4H34.5z"/>
		</g>
		<g>
			<path class="st1" d="M39.6,166.6h-2l-0.5,1.6h-1l2-6.4h1l2,6.4h-1L39.6,166.6z M38.6,163l-0.8,2.8h1.6L38.6,163z"/>
		</g>
		<g>
			<path class="st1" d="M42.6,167.3h2.8v0.9h-3.7v-6.4h1L42.6,167.3z"/>
		</g>
		<g>
			<path class="st1" d="M7,177.2v-6.4h1v6.4H7z"/>
		</g>
		<g>
			<path class="st1" d="M12.8,177.2l-2.8-4.5v4.5H9.1v-6.4h0.9l2.8,4.5v-4.5h0.9v6.4H12.8z"/>
		</g>
		<g>
			<path class="st1" d="M18.8,175.3c0,1.2-0.7,2-2.4,2c-0.6,0-1.3-0.1-1.9-0.4V176c0.6,0.3,1.2,0.4,1.8,0.4c1.1,0,1.5-0.5,1.5-1.1
				s-0.3-0.9-1.1-1c-1.6-0.2-2.2-0.6-2.2-1.8c0-0.9,0.5-1.8,2.3-1.8c0.6,0,1.2,0.1,1.7,0.3v1c-0.5-0.2-1.1-0.3-1.7-0.3
				c-1,0-1.3,0.4-1.3,1s0.4,0.8,1.2,0.9C18,173.7,18.8,174,18.8,175.3z"/>
		</g>
		<g>
			<path class="st1" d="M21.5,171.7v5.5h-1v-5.5h-1.7v-0.9h4.3v0.9H21.5z"/>
		</g>
		<g>
			<path class="st1" d="M23.8,177.2v-6.4h1v6.4H23.8z"/>
		</g>
		<g>
			<path class="st1" d="M28,171.7v5.5h-1v-5.5h-1.6v-0.9h4.3v0.9H28z"/>
		</g>
		<g>
			<path class="st1" d="M30.2,175.2v-4.4h1v4.3c-0.1,0.7,0.4,1.2,1,1.3c0.1,0,0.2,0,0.3,0c0.7,0.1,1.3-0.4,1.4-1c0-0.1,0-0.2,0-0.3
				v-4.3h1v4.4c0.1,1.1-0.8,2.1-1.9,2.1c-0.1,0-0.3,0-0.4,0c-1.1,0.2-2.2-0.5-2.4-1.7C30.2,175.5,30.2,175.3,30.2,175.2z"/>
		</g>
		<g>
			<path class="st1" d="M37.9,171.7v5.5H37v-5.5h-1.7v-0.9h4.3v0.9H37.9z"/>
		</g>
		<g>
			<path class="st1" d="M40.2,177.2v-6.4h1v6.4H40.2z"/>
		</g>
		<g>
			<path class="st1" d="M42.1,174c0-1.8,0.4-3.3,2.5-3.3s2.5,1.5,2.5,3.3s-0.4,3.3-2.5,3.3S42.1,175.8,42.1,174z M43.1,174
				c0,1.5,0.3,2.4,1.5,2.4s1.4-0.9,1.4-2.4s-0.3-2.4-1.5-2.4S43.1,172.5,43.1,174L43.1,174z"/>
		</g>
		<g>
			<path class="st1" d="M51.4,177.2l-2.8-4.5v4.5h-0.9v-6.4h0.9l2.8,4.5v-4.5h1v6.4H51.4z"/>
		</g>
		<g>
			<path class="st1" d="M57.4,175.3c0,1.2-0.7,2-2.4,2c-0.6,0-1.3-0.1-1.9-0.4V176c0.6,0.3,1.2,0.4,1.8,0.4c1.2,0,1.5-0.5,1.5-1.1
				s-0.3-0.9-1.2-1c-1.5-0.2-2.2-0.6-2.2-1.8c0-0.9,0.5-1.8,2.3-1.8c0.6,0,1.2,0.1,1.7,0.3v1c-0.5-0.2-1.1-0.3-1.7-0.3
				c-1,0-1.3,0.4-1.3,1s0.4,0.8,1.2,0.9C56.6,173.7,57.4,174,57.4,175.3z"/>
		</g>
	</g>
	<g>
		<rect x="3.3" y="24" class="st1" width="94.8" height="94.8"/>
	</g>
	<g>
		<path class="st1" d="M98.2,20.7H3.3V3.3h94.8V20.7z M4.3,19.7h92.8V4.3H4.3L4.3,19.7z"/>
	</g>
	<g class="st2">
		<path class="st1" d="M6.7,6.9h4.5v1.4H9.9v8.8H8.1V8.3H6.7V6.9z"/>
	</g>
	<g class="st2">
		<path class="st1" d="M11.2,17.1l1.9-10.2h1.9L17,17.1h-1.8l-0.3-1.9h-1.8l-0.3,1.9H11.2z M13.3,13.9h1.4L14,9.8h0L13.3,13.9z"/>
	</g>
	<g class="st2">
		<path class="st1" d="M19.6,12.4v4.7h-1.7V6.9h2.5c1.7,0,2.4,0.9,2.4,2.3v1.3c0,1.1-0.4,1.7-1.4,2l1.6,4.6h-1.8L19.6,12.4z
			 M19.6,8.3v3.2h0.6c0.6,0,0.8-0.3,0.8-0.8V9.2c0-0.6-0.3-0.8-0.8-0.8H19.6z"/>
	</g>
	<g class="st2">
		<path class="st1" d="M26.4,11.7h2.4v5.4h-1.2V16c-0.2,0.8-0.7,1.2-1.6,1.2c-1.5,0-2.1-1.2-2.1-2.7V9.6c0-1.6,0.8-2.7,2.6-2.7
			c1.9,0,2.4,1.1,2.4,2.6v0.9h-1.6v-1c0-0.6-0.2-1-0.9-1c-0.6,0-0.9,0.4-0.9,1v5.5c0,0.6,0.3,1,0.8,1c0.6,0,0.8-0.3,0.8-1V13h-0.8
			V11.7z"/>
	</g>
	<g class="st2">
		<path class="st1" d="M30.2,6.9h4.1v1.4h-2.4v2.9h1.7v1.4h-1.7v3.1h2.4v1.4h-4.1V6.9z"/>
	</g>
	<g class="st2">
		<path class="st1" d="M35.1,6.9h4.5v1.4h-1.4v8.8h-1.7V8.3h-1.4V6.9z"/>
	</g>
	<g>
		<path class="st1" d="M98.2,180.8h-95v-58.7h95V180.8z M4.2,179.8h93v-56.7h-93V179.8z"/>
	</g>
	<g class="st2">
		<path class="st1" d="M77.3,6.9v10.2h-1.7V9.3h0l-1.2,1.2h0V8.8l1.6-1.8H77.3z"/>
		<path class="st1" d="M78.7,14.5V9.6c0-1.6,0.8-2.7,2.5-2.7c1.7,0,2.5,1.2,2.5,2.7v4.9c0,1.6-0.8,2.7-2.5,2.7
			C79.5,17.2,78.7,16.1,78.7,14.5z M82,14.8V9.3c0-0.6-0.2-1-0.8-1c-0.6,0-0.8,0.4-0.8,1v5.5c0,0.6,0.2,1,0.8,1
			C81.8,15.8,82,15.4,82,14.8z"/>
	</g>
	<g class="st2">
	</g>
	<g class="st2">
		<path class="st1" d="M86.6,10.8c0.7,0,1.2,0.6,1.2,1.2c0,0.7-0.6,1.2-1.2,1.2c-0.7,0-1.2-0.6-1.2-1.2
			C85.3,11.4,85.9,10.8,86.6,10.8z"/>
	</g>
	<g class="st2">
		<path class="st1" d="M89.3,14.5v-5c0-1.6,0.7-2.7,2.5-2.7c1.9,0,2.4,1.1,2.4,2.6v0.5h-1.6V9.2c0-0.6-0.2-1-0.8-1
			c-0.6,0-0.8,0.4-0.8,1v2.2h0c0.3-0.5,0.7-0.8,1.4-0.8c1.2,0,1.9,0.8,1.9,2.5v1.5c0,1.6-0.7,2.6-2.5,2.6
			C90,17.2,89.3,16.1,89.3,14.5z M92.7,14.8V13c0-0.7-0.2-1-0.8-1c-0.5,0-0.8,0.4-0.8,0.9v1.9c0,0.6,0.2,1,0.8,1
			C92.4,15.8,92.7,15.5,92.7,14.8z"/>
	</g>
	<g>
		<g>
			<g>
				<path class="st0" d="M69.2,33.2c-9.9,0-18,8.1-18,18s8.1,18,18,18s18-8.1,18-18l0,0C87.1,41.2,79.1,33.2,69.2,33.2z M69.2,67.9
					c-9.2,0-16.7-7.4-16.7-16.6c0-9.2,7.4-16.7,16.6-16.7c9.2,0,16.7,7.4,16.7,16.6l0,0C85.8,60.3,78.4,67.8,69.2,67.9z"/>
			</g>
			<g>
				<path class="st0" d="M69.2,35.4c-8.8,0-15.9,7.1-15.9,15.8S60.4,67,69.1,67.1C77.9,67.1,85,60,85,51.3
					C85,42.5,78,35.4,69.2,35.4C69.2,35.4,69.2,35.4,69.2,35.4z M83.4,48.7c0,0.2,0,0.4-0.1,0.5c-0.1,0.1-0.3,0.3-0.4,0.3h-0.1
					c-0.1,0-0.3,0-0.4-0.1c-0.1-0.1-0.3-0.3-0.3-0.4c0-0.2,0-0.4,0.1-0.5c0.2-0.3,0.6-0.4,0.9-0.2c0,0,0,0,0,0
					C83.2,48.3,83.3,48.5,83.4,48.7z M82.4,45.9c0.3,0.2,0.5,0.5,0.4,0.9c-0.1,0.2-0.2,0.3-0.4,0.4h-0.2c-0.1,0-0.2,0-0.3-0.1
					c-0.2-0.1-0.3-0.2-0.4-0.4c-0.1-0.2-0.1-0.3,0-0.5c0.1-0.2,0.2-0.3,0.4-0.4C82,45.8,82.2,45.9,82.4,45.9z M80.4,44.2
					c0-0.2,0.2-0.3,0.3-0.4c0.3-0.2,0.7-0.1,0.9,0.2c0,0,0,0,0,0l0,0c0.1,0.2,0.1,0.3,0.1,0.5c0,0.2-0.2,0.3-0.3,0.4
					c-0.1,0.1-0.2,0.1-0.3,0.1h-0.2c-0.2,0-0.3-0.2-0.4-0.3C80.3,44.5,80.3,44.3,80.4,44.2z M75.4,39c0.1-0.2,0.2-0.3,0.4-0.3
					c0.3-0.1,0.7,0.1,0.8,0.4c0,0,0,0.1,0,0.1c0,0.2,0,0.3-0.1,0.5c-0.1,0.2-0.2,0.3-0.4,0.3h-0.2c-0.1,0-0.2,0-0.3-0.1
					c-0.2-0.1-0.3-0.2-0.3-0.4C75.3,39.3,75.3,39.1,75.4,39L75.4,39z M74,49.4c-0.1,0-0.2-0.1-0.2-0.2l0,0v-0.9h2.4v0.9
					c0,0.1-0.1,0.2-0.2,0.2l0,0v5.9h-1.9C74.1,55.3,74,49.4,74,49.4z M69.2,47.6h-7.6v-0.5h15.2v0.5H69.2z M68.2,49.4
					c-0.1,0-0.2-0.1-0.2-0.2l0,0v-0.9h2.4v0.9c0,0.1-0.1,0.2-0.2,0.2l0,0v5.9h-1.9C68.3,55.3,68.2,49.4,68.2,49.4z M62.5,49.4
					c-0.1,0-0.2-0.1-0.2-0.2l0,0v-0.9h2.4v0.9c0,0.1-0.1,0.2-0.2,0.2l0,0v5.9h-1.9C62.6,55.3,62.5,49.4,62.5,49.4z M69.2,46.5h-8.1
					l-0.3-0.3c-0.1-0.1-0.1-0.2,0-0.3c0,0,0,0,0,0h0.1l8.4-3.1l8.4,3.1c0.1,0.1,0.1,0.2,0,0.3c0,0,0,0,0,0l0,0l-0.3,0.3H69.2z
					 M73.2,38.1c0.2-0.3,0.5-0.5,0.9-0.4c0.2,0.1,0.3,0.2,0.4,0.4c0.1,0.2,0.1,0.3,0,0.5c-0.1,0.2-0.2,0.3-0.4,0.4
					c-0.1,0-0.2,0.1-0.3,0.1c-0.4,0-0.7-0.3-0.7-0.7C73.2,38.2,73.2,38.2,73.2,38.1z M71.2,37.2c0.3-0.2,0.7-0.2,0.9,0.1
					c0,0,0,0,0,0c0,0.1,0,0.1,0.1,0.1c0.2,0.3,0.1,0.7-0.2,0.9c0,0,0,0,0,0c-0.1,0.1-0.2,0.1-0.4,0.1h-0.1c-0.2,0-0.3-0.1-0.4-0.3
					C71,37.9,71,37.7,71,37.6C70.9,37.5,71,37.3,71.2,37.2z M69.2,36.8c0.4,0,0.7,0.3,0.7,0.7s-0.3,0.7-0.7,0.7
					c-0.4,0-0.7-0.3-0.7-0.7c0,0,0,0,0,0C68.5,37.1,68.8,36.8,69.2,36.8C69.2,36.8,69.2,36.8,69.2,36.8z M66.6,37.1
					c0.2,0,0.4,0,0.5,0.1c0.1,0.1,0.3,0.3,0.3,0.4c0.1,0.4-0.1,0.7-0.5,0.8h-0.1c-0.3,0-0.6-0.3-0.7-0.6
					C66,37.5,66.3,37.2,66.6,37.1L66.6,37.1z M64.2,37.7c0.2-0.1,0.3-0.1,0.5,0c0.2,0.1,0.3,0.2,0.3,0.4c0.1,0.2,0.1,0.3,0,0.5
					c-0.1,0.2-0.2,0.3-0.4,0.4h-0.2c-0.4,0-0.7-0.3-0.7-0.7c0,0,0,0,0,0C63.8,38,64,37.8,64.2,37.7z M61.9,38.8
					c0.3-0.2,0.7-0.1,0.9,0.2c0.2,0.3,0.1,0.7-0.2,0.9l0,0c-0.3,0.2-0.7,0.1-0.9-0.2c0,0,0,0,0,0l0,0C61.5,39.4,61.6,39,61.9,38.8
					C61.9,38.8,61.9,38.8,61.9,38.8z M56.7,44.1c0.1-0.2,0.2-0.3,0.4-0.3c0.2,0,0.4,0,0.5,0.1c0.3,0.2,0.4,0.6,0.2,0.9
					c0,0,0,0-0.1,0.1c-0.1,0.3-0.5,0.4-0.7,0.2c0,0-0.1,0-0.1,0C56.6,44.8,56.4,44.4,56.7,44.1z M55.6,46.3c0.2-0.3,0.5-0.5,0.9-0.4
					c0.2,0.1,0.3,0.2,0.4,0.4c0.1,0.2,0.1,0.3,0,0.5c-0.1,0.3-0.4,0.4-0.6,0.5h-0.2C55.7,47.1,55.5,46.7,55.6,46.3
					C55.6,46.3,55.6,46.3,55.6,46.3z M55.7,48.2c0.2,0,0.3,0.1,0.4,0.3c0.1,0.2,0.1,0.3,0.1,0.5c-0.1,0.3-0.4,0.6-0.7,0.6h-0.1
					c-0.4-0.1-0.6-0.4-0.6-0.8l0,0C55,48.4,55.4,48.1,55.7,48.2L55.7,48.2z M54.7,51.2c0-0.4,0.3-0.7,0.7-0.7c0.4,0,0.7,0.3,0.7,0.7
					c0,0.4-0.3,0.7-0.7,0.7C55,51.9,54.7,51.6,54.7,51.2C54.7,51.2,54.7,51.2,54.7,51.2z M55,53.7c0-0.2,0-0.4,0.1-0.5
					c0.1-0.1,0.3-0.2,0.4-0.3c0.4,0,0.7,0.2,0.7,0.6c0,0.3-0.2,0.6-0.5,0.7h-0.1c-0.2,0.1-0.5-0.1-0.6-0.3C55,53.8,55,53.7,55,53.7z
					 M56.3,56.6c-0.3,0-0.5-0.2-0.6-0.5c-0.1-0.2-0.1-0.3,0-0.5c0.1-0.2,0.2-0.3,0.4-0.4c0.4-0.1,0.8,0.1,0.9,0.5
					c0.1,0.3-0.1,0.7-0.4,0.8l0,0C56.5,56.5,56.4,56.5,56.3,56.6z M57.6,58.7c-0.1,0.1-0.2,0.1-0.3,0.1c-0.4,0-0.7-0.3-0.7-0.7
					c0,0,0,0,0,0c0-0.2,0.1-0.5,0.3-0.6c0.3-0.2,0.7-0.1,0.9,0.2c0,0,0,0,0,0C58,58,57.9,58.4,57.6,58.7z M58.1,42
					c0.3-0.3,0.7-0.3,1-0.1l0,0c0.3,0.2,0.4,0.6,0.2,0.9c0,0,0,0-0.1,0.1l0,0c-0.1,0.2-0.3,0.2-0.5,0.2S58.4,43,58.3,43
					c-0.3-0.1-0.5-0.5-0.3-0.8C58,42.1,58,42,58.1,42z M59.1,60.6c-0.2,0.2-0.6,0.3-0.8,0.1c0,0,0,0-0.1-0.1c-0.2-0.3-0.2-0.8,0.1-1
					s0.8-0.2,1,0.1C59.5,60,59.4,60.4,59.1,60.6z M59.9,40.2c0.2-0.2,0.6-0.3,0.9,0c0,0,0,0,0,0l0.1,0.1c0.3,0.3,0.2,0.7-0.1,1
					c0,0,0,0,0,0l0,0c-0.2,0.2-0.6,0.3-0.8,0.1c0,0,0,0-0.1-0.1c-0.3-0.2-0.3-0.6-0.1-0.9c0,0,0,0,0,0
					C59.8,40.2,59.9,40.2,59.9,40.2z M60.9,62.2c-0.1,0.2-0.3,0.2-0.5,0.2c-0.2,0-0.3-0.1-0.4-0.2c-0.3-0.3-0.3-0.7-0.1-1l0,0
					C60,61,60.2,61,60.4,61c0.2,0,0.4,0,0.5,0.2C61.1,61.5,61.1,61.9,60.9,62.2z M61.2,56.9h0.6V56c0-0.1,0-0.1,0.1-0.1h15
					c0.1,0,0.1,0,0.1,0.1v0.9h0.4v1H61.1L61.2,56.9z M63,63.5c-0.2,0.3-0.6,0.4-0.9,0.2c-0.3-0.2-0.4-0.6-0.2-0.9
					c0.2-0.3,0.6-0.4,0.9-0.2C63,62.8,63.1,63.1,63,63.5z M65.2,64.4c-0.1,0.3-0.3,0.5-0.6,0.5h-0.2C64,64.8,63.9,64.4,64,64
					c0.1-0.2,0.2-0.3,0.4-0.4c0.3-0.2,0.7,0,0.9,0.3C65.2,64,65.2,64.2,65.2,64.4z M66.8,65.5L66.8,65.5c-0.5,0-0.7-0.4-0.7-0.8
					s0.4-0.6,0.8-0.6c0.2,0,0.3,0.1,0.4,0.3c0.1,0.1,0.2,0.3,0.1,0.5C67.4,65.2,67.1,65.4,66.8,65.5z M69.2,65.7
					c-0.4,0-0.7-0.3-0.7-0.7s0.3-0.7,0.7-0.7c0.4,0,0.7,0.3,0.7,0.7v0l0,0C69.9,65.3,69.6,65.6,69.2,65.7
					C69.2,65.7,69.2,65.7,69.2,65.7z M72.2,65.2c-0.1,0.1-0.3,0.3-0.4,0.3h-0.1c-0.4,0.1-0.7-0.2-0.8-0.6s0.2-0.7,0.6-0.8l0,0
					c0.2,0,0.4,0,0.5,0.1c0.1,0.1,0.3,0.3,0.3,0.4C72.2,64.7,72.2,65,72.2,65.2z M74.2,64.8c-0.2,0.1-0.3,0.1-0.5,0
					c-0.2-0.1-0.3-0.2-0.4-0.4c-0.1-0.2-0.1-0.3,0-0.5c0.1-0.2,0.2-0.3,0.4-0.3c0.2-0.1,0.3-0.1,0.5,0c0.3,0.2,0.5,0.5,0.4,0.9
					C74.5,64.6,74.4,64.7,74.2,64.8z M76.4,63.7c-0.1,0.1-0.2,0.1-0.3,0.1c-0.2,0-0.5-0.1-0.6-0.3c-0.1-0.2-0.2-0.4-0.1-0.5
					s0.2-0.3,0.3-0.4c0.2-0.1,0.3-0.1,0.5-0.1c0.2,0,0.3,0.2,0.4,0.3C76.8,63.1,76.7,63.5,76.4,63.7C76.4,63.7,76.4,63.7,76.4,63.7
					L76.4,63.7z M78.4,62.3c-0.2,0.2-0.6,0.3-0.8,0.1c0,0,0,0-0.1-0.1c-0.3-0.3-0.2-0.7,0.1-1c0,0,0,0,0,0l0,0
					c0.3-0.3,0.7-0.2,1,0.1c0,0,0,0,0,0l0,0C78.8,61.6,78.7,62,78.4,62.3z M78.5,41.2c-0.1,0.1-0.3,0.2-0.5,0.2h-0.1
					c-0.2,0-0.3-0.1-0.4-0.2c-0.1-0.1-0.2-0.3-0.2-0.5c0-0.2,0-0.4,0.2-0.5c0.2-0.3,0.6-0.4,0.9-0.2c0.2,0.1,0.3,0.3,0.3,0.6
					C78.7,40.8,78.6,41,78.5,41.2z M80.2,60.5c-0.1,0.1-0.3,0.2-0.5,0.2h-0.1c-0.2,0-0.3-0.1-0.4-0.2c-0.3-0.3-0.3-0.7-0.1-1l0,0
					c0.1-0.1,0.3-0.2,0.5-0.2c0.2,0,0.4,0,0.5,0.2C80.4,59.7,80.4,60.1,80.2,60.5z M80.1,42.9C80,43,79.9,43,79.7,43.1h-0.1
					c-0.2,0-0.3-0.1-0.5-0.2c-0.1-0.1-0.2-0.3-0.2-0.5c0-0.2,0.1-0.3,0.2-0.5c0.1-0.1,0.3-0.2,0.5-0.2c0.2,0,0.3,0.1,0.5,0.2
					C80.4,42.3,80.4,42.7,80.1,42.9z M81.6,58.5c-0.1,0.2-0.2,0.3-0.4,0.3H81c-0.1,0-0.2,0-0.3-0.1c-0.3-0.2-0.5-0.6-0.3-0.9
					c0.1-0.2,0.2-0.3,0.4-0.3c0.2,0,0.4,0,0.5,0.1c0.2,0.1,0.3,0.2,0.3,0.4C81.7,58.1,81.7,58.3,81.6,58.5L81.6,58.5z M82.7,56.2
					c-0.1,0.2-0.2,0.3-0.3,0.4c-0.1,0-0.2,0.1-0.3,0.1h-0.2c-0.4-0.1-0.5-0.5-0.4-0.9l0,0c0.1-0.2,0.2-0.3,0.3-0.4
					c0.2-0.1,0.3-0.1,0.5,0C82.6,55.5,82.8,55.8,82.7,56.2C82.7,56.2,82.7,56.2,82.7,56.2z M83,54.2c-0.1,0.1-0.2,0.1-0.4,0.1h-0.1
					c-0.4-0.1-0.6-0.4-0.6-0.8c0-0.2,0.1-0.3,0.3-0.4c0.1-0.1,0.3-0.1,0.5-0.1c0.4,0.1,0.6,0.4,0.6,0.8C83.3,53.9,83.2,54.1,83,54.2
					z M82.9,51.9c-0.4,0-0.7-0.3-0.7-0.7s0.3-0.7,0.7-0.7c0.4,0,0.7,0.3,0.7,0.7c0,0,0,0,0,0C83.6,51.5,83.3,51.9,82.9,51.9
					L82.9,51.9z"/>
			</g>
		</g>
		<g>
			<g>
				<path class="st0" d="M32,59c3,0,5.4-2.4,5.4-5.4c0-3-2.4-5.4-5.4-5.4s-5.4,2.4-5.4,5.4l0,0C26.6,56.6,29,59,32,59
					C32,59,32,59,32,59z"/>
			</g>
			<g>
				<path class="st0" d="M38.2,61.1H25.7c-3.3,0.3-5.9,2.8-6.4,6.1h25.4C44.2,63.9,41.5,61.4,38.2,61.1z"/>
			</g>
			<g>
				<path class="st0" d="M32,81.4c-4,0-7.3,3.3-7.3,7.3c0,4,3.3,7.3,7.3,7.3s7.3-3.3,7.3-7.3C39.3,84.6,36,81.4,32,81.4z M27.4,83.9
					c0.1,0,0.1,0.1,0.2,0.1s0,0.4-0.1,0.4c-0.1,0.2-0.4,0.4-0.7,0.3h-0.1C26.9,84.4,27.1,84.1,27.4,83.9L27.4,83.9z M26.4,85.1
					c0.1-0.1,0.3-0.1,0.4-0.1c0.2,0,0.4,0.1,0.4,0.2s-0.4,0.3-0.5,0.4s-0.6,0.7-0.8,0.7h-0.1C25.9,85.8,26.1,85.4,26.4,85.1
					L26.4,85.1z M32,95.4c-0.7,0-1.4-0.1-2-0.3V95c0.2-0.5,0.7-0.8,1.3-0.8c1.1-0.1,2.6,0.7,2.8,0.6s0.7-0.7,1.4-0.7h0.3
					C34.7,94.9,33.4,95.4,32,95.4z M30.7,90.9c0.3-0.5,0.8-0.5,0.4,0.3c-0.1,0.2-0.4,1.3-0.5,1.2S30.7,91,30.7,90.9L30.7,90.9z
					 M33.5,89.4c0.2,0,0.6,0.3,0.4,0.4c-0.2,0.1-0.5,0.1-0.7-0.1C33.1,89.6,33.4,89.4,33.5,89.4L33.5,89.4z M36.6,93.6
					c-0.3-0.1-0.3,0.1-0.5,0.1s0.2-0.5-0.3-0.1s-0.4-0.1-0.6-0.7c-0.1-0.6,0.2-1.2,0.7-1.5c0.4-0.2,0.8-0.3,1.2-0.3
					c0.8-0.2,1-0.7,1.1-0.4c0,0.1,0.1,0.1,0.1,0.2C37.9,91.9,37.3,92.8,36.6,93.6L36.6,93.6z M36.9,89.9c-0.1,0-0.1-0.1-0.2-0.3
					s0.1-0.3,0.2-0.2s0.3,0.3,0.3,0.4S37,89.9,36.9,89.9L36.9,89.9z M37.6,90.5c-0.2,0.1-0.5,0.1-0.7-0.1C36.7,90.3,37,90,37.1,90
					C37.4,90.1,37.8,90.4,37.6,90.5L37.6,90.5z M38.6,88.8c0,0.4,0,0.9-0.1,1.3c-0.4-0.4-0.5-1.1-0.1-1.6c0.1-0.1-0.2-0.5-0.1-0.5
					c0.1,0,0.2,0,0.3,0.1L38.6,88.8z M37.8,87.6c-0.1-0.1-0.4-0.4-0.4,0.1s0.5,0.5,0,0.8s-0.5,0.2-0.7,0.3c-0.3,0.2-0.4,0.5-0.4,0.8
					c0.1,0.3,0.7,1,0.2,0.9c-0.4-0.2-0.8-0.5-1.1-0.9c-0.1-0.3-0.2-0.7-0.4-1c-0.1-0.3-0.4-0.4-0.6-0.2s0.1,0.3-0.1,0.7
					s-0.3,0.7-0.6,0.4c-0.7-0.8-1.6-0.4-1.8-1.2c-0.1-0.5-0.5-0.4-0.8-0.7s-0.5-0.4-0.6-0.2s1,1,1.1,1.3s-0.3,0.6-0.7,0.7
					s-0.5-0.2-0.8-0.5s-0.4-0.5-0.5-0.4v0.1c0,0.4,0.3,0.8,0.6,1.1c0.3,0.2,0.6,0.3,0.5,0.5s0,0.1-0.3,0.4v0.8
					c0,0.3-0.1,0.6-0.2,0.8c-0.1,0.4-0.2,0.1-0.4,0.6c-0.1,0.3-0.2,0.6-0.4,0.9c-0.2,0.2-0.6,0.4-0.9,0.4c-0.1,0-0.1,0-0.1-0.1
					c-0.2-0.2-0.2-0.8-0.2-1.2c0-0.2-0.2,0.3-0.3-0.6c-0.1-0.6-0.4,0.1-0.5-0.3s-0.2-0.3-0.4-0.5s-0.4,0-0.7,0.1s-0.2,0.2-0.4,0.1
					c-0.4-0.8-0.6-1.8-0.6-2.7c0-0.3,0-0.5,0.1-0.8c0.2-0.3,0.2-0.4,0.3-0.4c0.1,0,0.2-0.1,0.3-0.1l0.2-0.1c0.4,0.1,0.7,0.2,1.1,0.3
					c0.4,0.2,0.8,0.3,1.2,0.4h0.2c0.3-0.1,0.5-0.3,0.4-0.5s-0.2-0.3-0.5-0.2c-0.1,0.1-0.3-0.4-0.5-0.4s0.2,0.6,0.1,0.6
					s-0.4-0.6-0.5-0.7s-0.3-0.3-0.4-0.2c-0.4,0.4-1.1,0.4-1.2,0.5c-0.1,0-0.1,0-0.1,0.1c-0.2,0.1-0.3,0-0.3-0.2s0.1-0.3,0.1-0.4
					c0.2-0.1,0.5-0.1,0.7,0c0.2,0.1,0.3,0,0.4-0.1s0-0.2,0-0.3c0-0.1,0.1-0.2,0.2-0.2c0.2-0.1,0.4-0.2,0.5-0.3c0.3-0.1,0.7-0.1,1,0
					c0.2,0.1,0.5,0,0.7-0.1c0.2-0.2,0.4-0.4,0.5-0.4s-0.2-0.4-0.5,0s-0.4,0.4-0.6,0.4s-0.9-0.2-1-0.5s0.2-0.4,0.5-0.6
					s1.1-0.1,1.3-0.2c0.4-0.1,0.9-0.3,1.2-0.1s-1.1,0.5-0.7,0.7c0.2,0.1,0.9-0.4,1.1-0.5c0.6-0.3-0.6-0.4-0.4-1s-1.2-0.5-2-0.4
					c1-0.6,2.2-1,3.4-1c3.3,0,6.1,2.4,6.6,5.6C38.4,87.9,38,87.8,37.8,87.6L37.8,87.6z"/>
			</g>
			<g>
				<path class="st0" d="M45.5,69.7H14.2v3.2h2.6v37h30.7v-37h2.6v-3.2H45.5z M44.5,89.8c0,0.3-0.3,0.5-0.6,0.6s-0.6,0.1-1,0.1
					c-0.3,0-0.6,0.3-0.7,0.6c-0.2,0.6-0.4,1.2-0.6,1.8c-0.1,0.3,0,0.7,0.3,0.8c0.3,0.2,0.5,0.4,0.7,0.6c0.3,0.1,0.4,0.5,0.2,0.7
					c0,0,0,0.1,0,0.1c-0.4,0.7-0.8,1.4-1.4,1.9c-0.2,0.2-0.5,0.3-0.8,0.1c-0.3-0.2-0.6-0.3-0.9-0.5c-0.3-0.2-0.7-0.2-0.9,0.1
					c0,0,0,0,0,0c-0.5,0.4-1,0.8-1.5,1.1C37,98,37,98.3,37.1,98.7l0.3,0.9c0.1,0.3,0,0.7-0.3,0.8c-0.7,0.4-1.4,0.6-2.2,0.8
					c-0.3,0.1-0.6-0.1-0.7-0.4c0,0,0,0,0,0c-0.1-0.3-0.3-0.6-0.4-0.9c-0.1-0.6-0.4-0.8-0.8-0.8h-1.9c-0.4,0-0.7,0.2-0.7,0.6
					c-0.1,0.3-0.2,0.6-0.3,0.9c0,0.3-0.3,0.5-0.6,0.4c0,0-0.1,0-0.1,0c-0.8-0.1-1.6-0.4-2.3-0.7c-0.3-0.1-0.4-0.4-0.3-0.7
					c0,0,0,0,0,0c0.1-0.4,0.1-0.6,0.2-1c0.1-0.3,0-0.7-0.3-0.9c-0.5-0.3-1-0.7-1.5-1.1c-0.3-0.2-0.7-0.1-0.9,0.1
					c-0.3,0.2-0.5,0.3-0.8,0.5c-0.3,0.2-0.7,0.2-0.9-0.1c0,0,0,0,0,0c-0.6-0.6-1-1.2-1.4-1.9c-0.2-0.2-0.1-0.6,0.1-0.8
					c0,0,0.1,0,0.1,0c0.3-0.2,0.6-0.4,0.8-0.7c0.3-0.2,0.4-0.6,0.2-0.9c0,0,0,0,0,0c-0.2-0.6-0.4-1.2-0.6-1.8
					c-0.1-0.4-0.4-0.5-0.8-0.5h-0.9c-0.3,0-0.6-0.2-0.6-0.4c0-0.1,0-0.1,0-0.2c-0.1-0.8-0.1-1.6,0-2.4c0-0.3,0.3-0.5,0.6-0.6
					s0.6-0.1,1-0.1c0.3,0,0.6-0.3,0.7-0.6c0.2-0.6,0.4-1.2,0.6-1.8c0.1-0.3,0-0.7-0.3-0.8c-0.3-0.2-0.5-0.4-0.7-0.6
					c-0.3-0.1-0.4-0.5-0.2-0.7c0,0,0-0.1,0-0.1c0.4-0.7,0.8-1.4,1.4-1.9c0.2-0.2,0.5-0.3,0.8-0.1c0.3,0.2,0.6,0.3,0.9,0.5
					c0.3,0.2,0.7,0.2,0.9-0.1c0,0,0,0,0,0c0.4-0.3,1.2-0.9,1.5-1.1s0.3-0.5,0.2-0.9l-0.3-0.9c-0.1-0.3,0-0.7,0.3-0.8
					c0.7-0.4,1.4-0.6,2.2-0.8c0.3-0.1,0.6,0.1,0.7,0.4c0,0,0,0,0,0c0.1,0.3,0.3,0.6,0.4,0.9c0.1,0.3,0.5,0.5,0.8,0.5h1.9
					c0.4,0,0.7-0.2,0.7-0.6c0.1-0.3,0.2-0.6,0.3-0.9c0-0.3,0.3-0.5,0.6-0.4c0,0,0.1,0,0.1,0c0.8,0.1,1.6,0.4,2.3,0.7
					c0.3,0.1,0.4,0.4,0.3,0.7c0,0,0,0,0,0c-0.1,0.4-0.1,0.6-0.2,1c-0.1,0.3,0,0.7,0.3,0.9c0.5,0.3,1,0.7,1.5,1.1
					c0.3,0.2,0.7,0.1,0.9-0.1c0.3-0.2,0.5-0.3,0.8-0.5c0.2-0.2,0.5-0.2,0.7,0c0,0,0,0.1,0.1,0.1c0.6,0.6,1,1.2,1.4,1.9
					c0.2,0.2,0.1,0.6-0.1,0.8c0,0-0.1,0-0.1,0c-0.3,0.2-0.6,0.4-0.8,0.7c-0.3,0.2-0.4,0.6-0.2,0.9c0,0,0,0,0,0
					c0.2,0.6,0.4,1.2,0.6,1.8c0.1,0.4,0.4,0.5,0.8,0.5h0.9c0.3,0,0.6,0.2,0.6,0.4c0,0,0,0.1,0,0.2C44.5,87.9,44.6,88.9,44.5,89.8z"
					/>
			</g>
		</g>
	</g>
</g>
</svg>
