<?xml version="1.0" encoding="utf-8"?>
<!-- Generator: Adobe Illustrator 22.0.1, SVG Export Plug-In . SVG Version: 6.00 Build 0)  -->
<svg version="1.1" id="Layer_1" xmlns="http://www.w3.org/2000/svg" xmlns:xlink="http://www.w3.org/1999/xlink" x="0px" y="0px"
	 viewBox="0 0 101.5 166.2" style="enable-background:new 0 0 101.5 166.2;" xml:space="preserve">
<style type="text/css">
	.st0{fill:#FFFFFF;}
	.st1{fill:#DD1367;}
	.st2{enable-background:new    ;}
</style>
<title>TARGET 1.2</title>
<g id="WHITE_BG">
	<g>
		<rect y="0" class="st0" width="101.5" height="166.2"/>
	</g>
	<g>
		<path class="st1" d="M98.2,162.9h-95v-40.7h95V162.9z M4.2,161.9h93v-38.7h-93V161.9z"/>
	</g>
</g>
<g id="TARGETS">
	<g>
		<g>
			<path class="st1" d="M7.8,132.2h-1v-6.4h2.1c1.6,0,2.2,1,2.2,2c0,1-0.6,2-2.2,2H7.8V132.2z M7.8,128.9H9c0.6,0,1.1-0.5,1.1-1.1
				c0-0.6-0.5-1.1-1.1-1.1c0,0,0,0,0,0H7.8V128.9z"/>
		</g>
		<g>
			<path class="st1" d="M12.7,132.2h-1v-6.4h2.1c1.6,0,2.2,0.7,2.2,1.9c0.1,0.7-0.3,1.4-1,1.7l1.3,2.8h-1.1l-1.2-2.6h-1.3V132.2z
				 M12.7,128.7h1.2c0.9,0,1-0.5,1-1s-0.1-1-1-1h-1.2V128.7z"/>
		</g>
		<g>
			<path class="st1" d="M16.7,129c0-1.8,0.4-3.3,2.5-3.3s2.5,1.5,2.5,3.3s-0.4,3.3-2.5,3.3S16.7,130.8,16.7,129z M17.7,129
				c0,1.5,0.3,2.4,1.5,2.4s1.5-0.9,1.5-2.4s-0.3-2.4-1.5-2.4S17.7,127.5,17.7,129L17.7,129z"/>
		</g>
		<g>
			<path class="st1" d="M25.9,131.3H25l-1.6-3.9l0,4.8h-1v-6.4h1.2l1.7,4.3l1.7-4.3h1.2v6.4h-1v-4.8L25.9,131.3z"/>
		</g>
		<g>
			<path class="st1" d="M29.3,129c0-1.8,0.4-3.3,2.5-3.3s2.5,1.5,2.5,3.3s-0.4,3.3-2.5,3.3S29.3,130.8,29.3,129z M30.3,129
				c0,1.5,0.3,2.4,1.5,2.4c1.2,0,1.5-0.9,1.5-2.4s-0.3-2.4-1.5-2.4S30.2,127.5,30.3,129L30.3,129z"/>
		</g>
		<g>
			<path class="st1" d="M36.9,126.7v5.5h-1v-5.5h-1.6v-0.9h4.3v0.9L36.9,126.7z"/>
		</g>
		<g>
			<path class="st1" d="M42.8,129.3h-2.7v2h2.9v0.9h-3.9v-6.4h3.9v0.9h-2.9v1.8h2.7V129.3z"/>
		</g>
		<g>
			<path class="st1" d="M45.2,130.2v-4.4h1v4.3c0,0.8,0.6,1.4,1.4,1.4s1.4-0.6,1.4-1.4v-4.3h1v4.4c0.1,1.1-0.8,2.1-1.9,2.1
				c-0.2,0-0.3,0-0.4,0c-1.1,0.2-2.1-0.5-2.3-1.6C45.2,130.5,45.2,130.4,45.2,130.2z"/>
		</g>
		<g>
			<path class="st1" d="M54.5,132.2l-2.8-4.5v4.5h-1v-6.4h0.9l2.8,4.5v-4.5h1v6.4H54.5z"/>
		</g>
		<g>
			<path class="st1" d="M56.4,132.2v-6.4h1v6.4H56.4z"/>
		</g>
		<g>
			<path class="st1" d="M63,125.8l-2,6.5h-1l-2-6.5h1l1.5,5.2l1.5-5.2H63z"/>
		</g>
		<g>
			<path class="st1" d="M67.2,129.3h-2.7v2h2.9v0.9h-3.9v-6.4h3.9v0.9h-2.9v1.8h2.7V129.3z"/>
		</g>
		<g>
			<path class="st1" d="M69.2,132.2h-1v-6.4h2.1c1.7,0,2.2,0.7,2.2,1.9c0.1,0.7-0.3,1.4-1,1.7l1.3,2.8h-1.1l-1.2-2.6h-1.3V132.2z
				 M69.2,128.7h1.2c0.9,0,1-0.5,1-1s-0.1-1-1-1h-1.2V128.7z"/>
		</g>
		<g>
			<path class="st1" d="M77.7,130.3c0,1.2-0.7,2-2.4,2c-0.6,0-1.3-0.1-1.9-0.4v-1c0.6,0.3,1.2,0.4,1.8,0.4c1.2,0,1.5-0.5,1.5-1.1
				s-0.3-0.9-1.2-1c-1.6-0.2-2.2-0.6-2.2-1.8c0-0.9,0.5-1.8,2.3-1.8c0.6,0,1.2,0.1,1.7,0.3v1c-0.5-0.2-1.1-0.3-1.7-0.3
				c-1,0-1.3,0.4-1.3,1s0.4,0.8,1.2,0.9C76.9,128.7,77.7,129,77.7,130.3z"/>
		</g>
		<g>
			<path class="st1" d="M81.4,130.6h-2l-0.4,1.6h-1l2-6.4h1l2,6.4h-1L81.4,130.6z M80.4,127l-0.8,2.8h1.6L80.4,127z"/>
		</g>
		<g>
			<path class="st1" d="M84.3,131.3h2.8v0.9h-3.7v-6.4h1L84.3,131.3z"/>
		</g>
		<g>
			<path class="st1" d="M11.1,139.3c0,1.2-0.7,2-2.4,2c-0.6,0-1.3-0.1-1.9-0.3v-1c0.6,0.3,1.2,0.4,1.8,0.4c1.1,0,1.5-0.5,1.5-1.1
				s-0.3-0.9-1.2-1c-1.6-0.2-2.2-0.6-2.2-1.8c0-0.9,0.5-1.9,2.3-1.9c0.6,0,1.2,0.1,1.7,0.3v1c-0.5-0.2-1.1-0.3-1.7-0.3
				c-1,0-1.3,0.4-1.3,1s0.4,0.8,1.2,0.9C10.3,137.7,11.1,138,11.1,139.3z"/>
		</g>
		<g>
			<path class="st1" d="M11.6,138c0-1.8,0.4-3.3,2.4-3.3s2.5,1.5,2.5,3.3s-0.4,3.3-2.5,3.3S11.6,139.8,11.6,138z M12.6,138
				c0,1.5,0.3,2.4,1.5,2.4s1.5-0.9,1.5-2.4s-0.3-2.4-1.5-2.4S12.6,136.5,12.6,138L12.6,138z"/>
		</g>
		<g>
			<path class="st1" d="M19.8,134.7c0.5,0,1,0.1,1.5,0.3v0.9c-0.5-0.2-0.9-0.3-1.4-0.3c-1.2,0-1.7,0.8-1.7,2.4s0.5,2.4,1.7,2.4
				c0.5,0,1-0.1,1.4-0.3v0.9c-0.5,0.2-1,0.3-1.5,0.3c-1.9,0-2.6-1.2-2.6-3.3S18,134.7,19.8,134.7z"/>
		</g>
		<g>
			<path class="st1" d="M22.3,141.2v-6.4h1v6.4H22.3z"/>
		</g>
		<g>
			<path class="st1" d="M27.5,139.6h-2l-0.5,1.6h-1l2-6.4h1l2,6.4h-1L27.5,139.6z M26.5,136l-0.8,2.8h1.6L26.5,136z"/>
		</g>
		<g>
			<path class="st1" d="M30.4,140.3h2.8v0.9h-3.7v-6.4h1V140.3z"/>
		</g>
		<g>
			<path class="st1" d="M34.7,140.3l-0.7,2h-0.7l0.2-2H34.7z"/>
		</g>
		<g>
			<path class="st1" d="M40.5,138.3h-2.7v2h2.9v0.9h-3.9v-6.4h3.9v0.9h-2.9v1.8h2.7V138.3z"/>
		</g>
		<g>
			<path class="st1" d="M44,134.7c0.5,0,1,0.1,1.5,0.3v0.9c-0.5-0.2-0.9-0.3-1.4-0.3c-1.2,0-1.7,0.8-1.7,2.4s0.5,2.4,1.7,2.4
				c0.5,0,1-0.1,1.4-0.3v0.9c-0.5,0.2-1,0.3-1.5,0.3c-1.9,0-2.6-1.2-2.6-3.3S42.1,134.7,44,134.7z"/>
		</g>
		<g>
			<path class="st1" d="M46.2,138c0-1.8,0.4-3.3,2.5-3.3s2.5,1.5,2.5,3.3s-0.4,3.3-2.5,3.3S46.2,139.8,46.2,138z M47.2,138
				c0,1.5,0.3,2.4,1.5,2.4s1.5-0.9,1.5-2.4s-0.3-2.4-1.5-2.4S47.1,136.5,47.2,138L47.2,138z"/>
		</g>
		<g>
			<path class="st1" d="M55.5,141.2l-2.8-4.5v4.5h-1v-6.4h0.9l2.8,4.5v-4.5h0.9v6.4H55.5z"/>
		</g>
		<g>
			<path class="st1" d="M57.2,138c0-1.8,0.4-3.3,2.5-3.3s2.5,1.5,2.5,3.3s-0.4,3.3-2.5,3.3S57.2,139.8,57.2,138z M58.2,138
				c0,1.5,0.3,2.4,1.5,2.4s1.5-0.9,1.5-2.4s-0.3-2.4-1.5-2.4S58.2,136.5,58.2,138L58.2,138z"/>
		</g>
		<g>
			<path class="st1" d="M66.3,140.3h-0.9l-1.6-3.9v4.8h-1v-6.4h1.3l1.7,4.4l1.7-4.4h1.2v6.4h-1v-4.8L66.3,140.3z"/>
		</g>
		<g>
			<path class="st1" d="M69.9,141.2v-6.4h0.9v6.4H69.9z"/>
		</g>
		<g>
			<path class="st1" d="M74.4,134.7c0.5,0,1,0.1,1.5,0.3v0.9c-0.5-0.2-0.9-0.3-1.4-0.3c-1.2,0-1.7,0.8-1.7,2.4s0.5,2.4,1.7,2.4
				c0.5,0,1-0.1,1.4-0.3v0.9c-0.5,0.2-1,0.3-1.5,0.3c-1.9,0-2.6-1.2-2.6-3.3S72.6,134.7,74.4,134.7z"/>
		</g>
		<g>
			<path class="st1" d="M10.1,148.6h-2l-0.4,1.6h-1l2-6.4h1l2,6.4h-1L10.1,148.6z M9.1,145l-0.8,2.8h1.6L9.1,145z"/>
		</g>
		<g>
			<path class="st1" d="M15.9,150.2l-2.8-4.5v4.5h-0.9v-6.4h0.9l2.8,4.5v-4.5h0.9v6.4H15.9z"/>
		</g>
		<g>
			<path class="st1" d="M17.8,150.2v-6.4h1.9c2.1,0,2.7,1.4,2.7,3.2s-0.6,3.2-2.7,3.2H17.8z M18.7,149.3h1c1.3,0,1.7-0.9,1.7-2.3
				s-0.4-2.3-1.7-2.3h-1V149.3z"/>
		</g>
		<g>
			<path class="st1" d="M25.5,150.2h-1v-6.4h2.1c1.6,0,2.2,1,2.2,2s-0.6,2-2.2,2h-1.1V150.2z M25.5,146.9h1.1c0.6,0,1.1-0.5,1.1-1.1
				c0-0.6-0.5-1.1-1.1-1.1h-1.1V146.9z"/>
		</g>
		<g>
			<path class="st1" d="M29.3,147c0-1.8,0.4-3.3,2.5-3.3s2.5,1.5,2.5,3.3s-0.4,3.3-2.5,3.3S29.3,148.8,29.3,147z M30.3,147
				c0,1.5,0.3,2.4,1.5,2.4c1.2,0,1.5-0.9,1.5-2.4s-0.3-2.4-1.5-2.4S30.3,145.5,30.3,147L30.3,147z"/>
		</g>
		<g>
			<path class="st1" d="M35.9,149.3h2.8v0.9H35v-6.4h1L35.9,149.3z"/>
		</g>
		<g>
			<path class="st1" d="M39.3,150.2v-6.4h1v6.4H39.3z"/>
		</g>
		<g>
			<path class="st1" d="M43.6,144.7v5.5h-1v-5.5H41v-0.9h4.3v0.9H43.6z"/>
		</g>
		<g>
			<path class="st1" d="M45.9,150.2v-6.4h1v6.4H45.9z"/>
		</g>
		<g>
			<path class="st1" d="M50.4,143.7c0.5,0,1,0.1,1.5,0.3v0.9c-0.5-0.2-0.9-0.3-1.4-0.3c-1.2,0-1.7,0.8-1.7,2.4s0.5,2.4,1.7,2.4
				c0.5,0,1-0.1,1.4-0.3v0.9c-0.5,0.2-1,0.3-1.5,0.3c-1.9,0-2.6-1.2-2.6-3.3S48.5,143.7,50.4,143.7z"/>
		</g>
		<g>
			<path class="st1" d="M55.7,148.6h-2l-0.5,1.6h-1l2-6.4h1l2,6.4h-1L55.7,148.6z M54.7,145l-0.8,2.8h1.6L54.7,145z"/>
		</g>
		<g>
			<path class="st1" d="M58.7,149.3h2.8v0.9h-3.7v-6.4h1L58.7,149.3z"/>
		</g>
		<g>
			<path class="st1" d="M7,159.2v-6.4h1v6.4H7z"/>
		</g>
		<g>
			<path class="st1" d="M12.8,159.2l-2.8-4.5v4.5H9.1v-6.4h0.9l2.8,4.5v-4.5h0.9v6.4L12.8,159.2z"/>
		</g>
		<g>
			<path class="st1" d="M17.1,152.7c0.5,0,1,0.1,1.5,0.3v0.9c-0.5-0.2-0.9-0.3-1.4-0.3c-1.2,0-1.7,0.8-1.7,2.4s0.5,2.4,1.7,2.4
				c0.5,0,1-0.1,1.4-0.3v0.9c-0.5,0.2-1,0.3-1.5,0.3c-1.9,0-2.6-1.2-2.6-3.3S15.2,152.7,17.1,152.7z"/>
		</g>
		<g>
			<path class="st1" d="M20.4,158.3h2.8v0.9h-3.7v-6.4h1V158.3z"/>
		</g>
		<g>
			<path class="st1" d="M23.7,157.2v-4.4h1v4.3c-0.1,0.7,0.4,1.2,1,1.3c0.1,0,0.2,0,0.3,0c0.7,0.1,1.3-0.4,1.4-1c0-0.1,0-0.2,0-0.3
				v-4.3h1v4.4c0,1.1-0.8,2.1-2,2.1c-0.1,0-0.2,0-0.3,0c-1.1,0.2-2.1-0.6-2.3-1.6C23.7,157.5,23.7,157.4,23.7,157.2z"/>
		</g>
		<g>
			<path class="st1" d="M33.3,157.3c0,1.2-0.7,2-2.4,2c-0.6,0-1.2-0.1-1.8-0.3v-1c0.6,0.3,1.2,0.4,1.8,0.4c1.1,0,1.5-0.5,1.5-1.1
				s-0.3-0.9-1.2-1c-1.5-0.2-2.1-0.6-2.1-1.8c0-0.9,0.5-1.9,2.3-1.9c0.6,0,1.2,0.1,1.7,0.3v1c-0.5-0.2-1.1-0.3-1.7-0.3
				c-1,0-1.3,0.4-1.3,1s0.4,0.8,1.2,0.9C32.5,155.7,33.3,156,33.3,157.3z"/>
		</g>
		<g>
			<path class="st1" d="M34.2,159.2v-6.4h1v6.4H34.2z"/>
		</g>
		<g>
			<path class="st1" d="M36.2,156c0-1.8,0.4-3.3,2.5-3.3s2.5,1.5,2.5,3.3s-0.4,3.3-2.5,3.3S36.2,157.8,36.2,156z M37.2,156
				c0,1.5,0.3,2.4,1.5,2.4s1.5-0.9,1.5-2.4s-0.3-2.4-1.5-2.4S37.1,154.5,37.2,156L37.2,156z"/>
		</g>
		<g>
			<path class="st1" d="M45.6,159.2l-2.8-4.5v4.5h-0.9v-6.4h0.9l2.8,4.5v-4.5h0.9v6.4H45.6z"/>
		</g>
	</g>
	<g>
		<rect x="3.3" y="24" class="st1" width="94.8" height="94.8"/>
	</g>
	<g>
		<path class="st1" d="M98.2,20.7H3.3V3.3h94.8V20.7z M4.3,19.7h92.8V4.3H4.3L4.3,19.7z"/>
	</g>
	<g class="st2">
		<path class="st1" d="M6.7,6.9h4.5v1.4H9.9v8.8H8.1V8.3H6.7V6.9z"/>
	</g>
	<g class="st2">
		<path class="st1" d="M11.2,17.1l1.9-10.2h1.9L17,17.1h-1.8l-0.3-1.9h-1.8l-0.3,1.9H11.2z M13.3,13.9h1.4L14,9.8h0L13.3,13.9z"/>
	</g>
	<g class="st2">
		<path class="st1" d="M19.6,12.4v4.7h-1.7V6.9h2.5c1.7,0,2.4,0.9,2.4,2.3v1.3c0,1.1-0.4,1.7-1.4,2l1.6,4.6h-1.8L19.6,12.4z
			 M19.6,8.3v3.2h0.6c0.6,0,0.8-0.3,0.8-0.8V9.2c0-0.6-0.3-0.8-0.8-0.8H19.6z"/>
	</g>
	<g class="st2">
		<path class="st1" d="M26.4,11.7h2.4v5.4h-1.2V16c-0.2,0.8-0.7,1.2-1.6,1.2c-1.5,0-2.1-1.2-2.1-2.7V9.6c0-1.6,0.8-2.7,2.6-2.7
			c1.9,0,2.4,1.1,2.4,2.6v0.9h-1.6v-1c0-0.6-0.2-1-0.9-1c-0.6,0-0.9,0.4-0.9,1v5.5c0,0.6,0.3,1,0.8,1c0.6,0,0.8-0.3,0.8-1V13h-0.8
			V11.7z"/>
	</g>
	<g class="st2">
		<path class="st1" d="M30.2,6.9h4.1v1.4h-2.4v2.9h1.7v1.4h-1.7v3.1h2.4v1.4h-4.1V6.9z"/>
	</g>
	<g class="st2">
		<path class="st1" d="M35.1,6.9h4.5v1.4h-1.4v8.8h-1.7V8.3h-1.4V6.9z"/>
	</g>
	<g class="st2">
		<path class="st1" d="M77.8,6.9v10.2h-1.7V9.3h0l-1.2,1.2h0V8.8l1.6-1.8H77.8z"/>
		<path class="st1" d="M79.2,14.5V9.6c0-1.6,0.8-2.7,2.5-2.7c1.7,0,2.5,1.2,2.5,2.7v4.9c0,1.6-0.8,2.7-2.5,2.7
			C80,17.2,79.2,16.1,79.2,14.5z M82.6,14.8V9.3c0-0.6-0.2-1-0.8-1c-0.6,0-0.8,0.4-0.8,1v5.5c0,0.6,0.2,1,0.8,1
			C82.3,15.8,82.6,15.4,82.6,14.8z"/>
	</g>
	<g class="st2">
	</g>
	<g class="st2">
		<path class="st1" d="M87.1,10.8c0.7,0,1.2,0.6,1.2,1.2c0,0.7-0.6,1.2-1.2,1.2c-0.7,0-1.2-0.6-1.2-1.2
			C85.8,11.4,86.4,10.8,87.1,10.8z"/>
	</g>
	<g class="st2">
		<path class="st1" d="M89.8,15.2c0-1,0.3-1.7,1.3-2.7l1-1c0.6-0.6,0.6-0.9,0.6-1.8V9c0-0.6-0.3-0.8-0.6-0.8c-0.4,0-0.7,0.2-0.7,0.8
			v1.3h-1.6V9c0-1.4,0.8-2.2,2.3-2.2c1.5,0,2.2,0.7,2.2,2.1v1c0,1-0.2,1.6-1.1,2.6l-1.1,1.2c-0.4,0.5-0.7,0.8-0.7,1.6v0.5h2.8v1.4
			h-4.4V15.2z"/>
	</g>
	<g>
		<g>
			<path class="st0" d="M60.5,50.7h25.1c0.2,0,0.4,0.2,0.4,0.4v1c0,0.2-0.2,0.4-0.4,0.4H60.5c-0.2,0-0.4-0.2-0.4-0.4v-1
				C60.1,50.9,60.3,50.7,60.5,50.7z"/>
		</g>
		<g>
			<path class="st0" d="M60.5,69.6h25.1c0.2,0,0.4,0.2,0.4,0.4v2c0,0.2-0.2,0.4-0.4,0.4H60.5c-0.2,0-0.4-0.2-0.4-0.4v-2
				C60.1,69.8,60.3,69.6,60.5,69.6z"/>
		</g>
		<g>
			<path class="st0" d="M60.5,49.5h25.2c0.2,0,0.4-0.2,0.4-0.4v-0.2c-1.6-7.1-8.7-11.6-15.8-10c-5,1.1-8.9,5-10,10
				c0,0.1,0,0.1,0,0.2l0,0C60.2,49.2,60.3,49.4,60.5,49.5z"/>
		</g>
		<g>
			<path class="st0" d="M84.9,68.4c0.2,0,0.4-0.2,0.4-0.4c0,0,0,0,0,0V54.4c0-0.2-0.2-0.4-0.4-0.4l0,0H61.5c-0.2,0-0.4,0.2-0.4,0.4
				V68c0,0.2,0.2,0.4,0.4,0.4l0,0L84.9,68.4z M78.1,55.8h4v10.8h-4V55.8z M71.3,55.8h4v10.8h-4V55.8z M64.6,55.8h4v10.8h-4V55.8z"/>
		</g>
		<g>
			<path class="st0" d="M74.6,36.8c0.9,0,1.8,0.3,2.5,0.9c0.6,0.4,1.4,0.7,2.2,0.7h1.9v-4.8h-1.9c-1.1,0-2.1-0.4-2.9-1.1
				C75.8,32.1,75,32,74.3,32h-1.2v4.8C73.6,36.8,74.1,36.8,74.6,36.8z"/>
		</g>
	</g>
	<g>
		<g>
			<g>
				<path class="st0" d="M20.8,85.7c1.4,0,2.6-1.1,2.6-2.6c0-0.9-0.5-1.8-1.3-2.3c0.1-0.1,0.1-0.3,0.1-0.4c-0.1-0.6-0.7-1.1-1.3-1
					c-0.6-0.1-1.2,0.4-1.3,1c0,0.1,0,0.3,0.1,0.4c-1.3,0.6-1.8,2.1-1.2,3.4C18.9,85.1,19.8,85.7,20.8,85.7z"/>
			</g>
			<g>
				<path class="st0" d="M28.1,95.1l-2.1-6.9c0,0-0.8-2-2.4-2H18c-1.7,0-2.4,2-2.4,2l-2.1,6.9c0,0-0.3,1.1,0.5,1.5
					c0,0-0.1,0.1-0.1,0.1l-2.5,13.1c0,0.2,0.1,0.4,0.3,0.5h0.1c0.2,0,0.4-0.1,0.4-0.3l2.5-13.1c0,0,0-0.1,0-0.1c0.7-0.1,0.9-1,0.9-1
					l1.7-5.7c0,0,0.1-0.4,0.4-0.3s0.2,0.6,0.2,0.6l-3,10.8h2.8v7.8c-0.1,0.7,0.5,1.4,1.2,1.5c0.7,0.1,1.4-0.5,1.5-1.2
					c0-0.1,0-0.2,0-0.2V101h0.8v7.8c-0.1,0.7,0.5,1.4,1.2,1.5c0.7,0.1,1.4-0.5,1.5-1.2c0-0.1,0-0.2,0-0.2V101h2.8l-3-10.8
					c0,0-0.1-0.5,0.2-0.6s0.4,0.3,0.4,0.3l1.8,5.8c0,0,0.3,1.2,1.4,0.9S28.1,95.1,28.1,95.1z"/>
			</g>
		</g>
		<g>
			<g>
				<path class="st0" d="M48.7,85.3c1.4,0,2.5-1.1,2.5-2.5c0-1.4-1.1-2.5-2.5-2.5c-1.4,0-2.5,1.1-2.5,2.5c0,0,0,0,0,0
					C46.1,84.2,47.3,85.3,48.7,85.3z"/>
			</g>
			<g>
				<path class="st0" d="M55.8,95.4l-2.1-6.8c0,0-0.8-2-2.4-2H46c-1.7,0-2.4,2-2.4,2l-2.1,6.8c0,0-0.4,1.2,0.7,1.6s1.4-0.9,1.4-0.9
					l1.7-5.7c0,0,0.1-0.4,0.4-0.3s0.2,0.6,0.2,0.6l-2.9,10.7h2.7v7.7c0.1,0.7,0.7,1.3,1.4,1.2c0.6-0.1,1.1-0.6,1.2-1.2v-7.7H49v7.7
					c0,0.7,0.6,1.3,1.3,1.3c0.7,0,1.3-0.6,1.3-1.3v-7.7h2.7l-2.9-10.7c0,0-0.1-0.5,0.2-0.6s0.4,0.3,0.4,0.3l1.7,5.7
					c0,0,0.3,1.2,1.4,0.9S55.8,95.4,55.8,95.4z"/>
			</g>
		</g>
		<g>
			<g>
				<path class="st0" d="M39.1,95.5c-0.4-0.2-0.9-0.1-1.1,0.3c0,0,0,0,0,0c-0.4,0.7-0.9,1.4-1.3,2.1c-0.2,0.2-0.4,0.3-0.7,0.3h-2.6
					c-0.3,0-0.5-0.1-0.7-0.3c-0.3-0.3-1.3-2.1-1.4-2.1c-0.1-0.2-0.4-0.4-0.7-0.3c-0.4,0-0.8,0.3-0.8,0.8c0,0.1,0,0.2,0.1,0.3
					l2.1,3.9c0.1,0.2,0.1,0.3,0.1,0.5v0.6l0,0c0,0.2,0,0.4-0.1,0.7l-1,4h1.1v3l0,0c0,0.6,0.4,1,1,1s1-0.4,1-1v-3H35c0,0,0,0.1,0,0.1
					v2.9c0,0.6,0.5,1,1,1c0.6,0,1-0.5,1-1v-3h1.1l-1-4c-0.1-0.2-0.1-0.4-0.1-0.5v-0.2l0,0v-0.5c0-0.2,0.1-0.4,0.1-0.5l2-3.6l0.2-0.4
					C39.6,96.1,39.5,95.7,39.1,95.5C39.1,95.5,39.1,95.5,39.1,95.5z"/>
			</g>
			<g>
				<path class="st0" d="M34.8,96.9c1.2,0,2.1-0.9,2.1-2.1c0-1.2-0.9-2.1-2.1-2.1c-1.2,0-2.1,0.9-2.1,2.1c0,0,0,0,0,0
					C32.6,95.9,33.6,96.9,34.8,96.9C34.8,96.9,34.8,96.9,34.8,96.9z"/>
			</g>
		</g>
		<g>
			<g>
				<path class="st0" d="M65.6,92.2c1.3,0,2.4-1.1,2.4-2.4c0-1.3-1.1-2.4-2.4-2.4c-1.3,0-2.4,1.1-2.4,2.4
					C63.2,91.1,64.2,92.2,65.6,92.2C65.6,92.2,65.6,92.2,65.6,92.2z"/>
			</g>
			<g>
				<path class="st0" d="M75.7,107.1l-1-2l0,0l-2.4-4.8c-0.2-0.4-0.7-0.7-1.2-0.6h-3.5l-0.1-4.3c0-1.3-0.3-2.1-1.3-2.3
					c-0.5-0.1-1-0.1-1.5,0h-0.1l0,0l-4.1,1.3h-0.1h-0.1l0,0c-0.2,0.1-0.4,0.3-0.4,0.5l-1.2,3.3c-0.2,0.5,0.1,1.1,0.6,1.3
					c0.5,0.2,1.1-0.1,1.3-0.6l0,0l1-2.8l1.5-0.5h0.1v4.6c0,1,0.3,2.1,1.4,2.3l0.3,0.1c0.2,0,0.4,0,0.5,0h5.1l1.3,2.6
					c0,0,0,0.1,0,0.1l0.5,0.9l0.5,0.9v0.1l0,0l0.5,1c0.3,0.6,1,0.9,1.7,0.7C75.7,108.5,76,107.8,75.7,107.1c0,0,0-0.1,0-0.2
					L75.7,107.1z"/>
			</g>
			<g>
				<path class="st0" d="M68.3,104.2c0,0.1,0,0.2,0,0.2c0,2.7-2.2,4.9-4.9,5c-2.7,0-4.9-2.2-5-4.9c0-1.1,0.4-2.2,1.1-3.1l-1.2-1
					c-2.2,2.8-1.7,6.9,1.1,9.1c2.8,2.2,6.9,1.7,9.1-1.1c0.9-1.1,1.4-2.5,1.4-4c0-0.1,0-0.2,0-0.2H68.3z"/>
			</g>
		</g>
		<g>
			<g>
				<path class="st0" d="M81.9,84.5c1.4,0,2.6-1.2,2.6-2.6s-1.2-2.6-2.6-2.6c-1.4,0-2.6,1.2-2.6,2.6S80.4,84.5,81.9,84.5
					C81.9,84.5,81.9,84.5,81.9,84.5z"/>
			</g>
			<g>
				<path class="st0" d="M84.9,85.5h-6.1c-1.8,0.2-3.2,1.7-3.2,3.5v7.2c0,0.6,0.4,1,1,1s1-0.4,1-1V90c0-0.2,0.1-0.6,0.5-0.6
					s0.3,0.3,0.4,0.5v18.7c0,0.8,0.7,1.5,1.5,1.5c0.8,0,1.5-0.7,1.5-1.5V97.9c0-0.2,0.1-0.4,0.3-0.4c0,0,0,0,0.1,0l0,0
					c0.2,0,0.4,0.2,0.4,0.4c0,0,0,0,0,0.1v10.8c0,0.8,0.7,1.5,1.5,1.5c0.8,0,1.5-0.7,1.5-1.5V90c0-0.2,0.1-0.5,0.4-0.5
					s0.5,0.3,0.5,0.6v6.2c0,0.6,0.4,1,1,1s1-0.4,1-1V89C88.1,87.2,86.7,85.7,84.9,85.5z"/>
			</g>
		</g>
	</g>
	<g>
		<g>
			<path class="st0" d="M30.2,69.8c-0.5,0.3-1.1,0.6-1.7,0.8c-1.7,0.5-3.5,0.7-5.4,0.7c-0.9,0-1.8-0.1-2.7-0.2
				c-0.5-0.1-1.1-0.2-1.6-0.3c-0.3-0.1-0.5-0.1-0.8-0.2c-0.7-0.2-1.5-0.5-2.1-1c-0.2-0.2-0.4-0.4-0.6-0.6v0.7c0,0.2,0,1,0,1
				c0,0.5,0.3,0.9,0.6,1.1c1.2,0.9,2.7,1.4,4.2,1.5c1,0.2,2,0.2,3,0.2c1.5,0,3-0.2,4.4-0.5l0,0c0.8-0.2,1.6-0.4,2.4-0.8l0,0
				c0.7-0.4,1.2-1,1.2-1.5c0,0,0.1-1.6,0-1.7C30.9,69.3,30.6,69.6,30.2,69.8z"/>
		</g>
		<g>
			<path class="st0" d="M22.5,64.5c4.3,0,7.9-1.3,7.9-2.9c0,0,0.1-1.5,0.1-1.8c0-0.2-0.1-0.4-0.1-0.6c0.5-0.3,0.8-0.8,0.9-1.3
				c0,0,0.1-1.7,0-2c-0.2-2-4.2-3-7.9-3s-7.9,1.1-7.9,3.2c0,0.1,0.1,1.8,0.1,1.8c0,0.1,0,0.2,0.1,0.3c-0.6,0.3-1,0.9-1,1.6
				c0,0.1,0.1,1.8,0.1,1.8c0,0.4,0.3,0.9,0.6,1.1c1.2,0.9,2.7,1.4,4.2,1.6C20.5,64.5,21.5,64.5,22.5,64.5z M23.4,53.7
				c4.2,0,7.1,1.2,7.1,2.4s-2.9,2.4-7.1,2.4s-7.1-1.2-7.1-2.4S19.2,53.7,23.4,53.7z M15.4,59.8c0.1-0.4,0.3-0.7,0.6-0.9
				c0.2,0.2,0.5,0.4,0.8,0.6c2,0.9,4.3,1.4,6.5,1.3c1.9,0,3.8-0.3,5.5-0.8c0.2-0.1,0.5-0.2,0.7-0.3c0,0.1,0,0.1,0,0.2
				c0,1.1-2.9,2.4-7.1,2.4S15.4,60.9,15.4,59.8z"/>
		</g>
		<g>
			<path class="st0" d="M20.2,70.5c1,0.2,2,0.2,3,0.2c1.5,0,3-0.2,4.4-0.5h0c0.8-0.2,1.5-0.5,2.2-0.9l0,0c0.2-0.1,0.3-0.2,0.5-0.3
				c0.3-0.2,0.5-0.5,0.6-0.8c0.1-0.1,0.1-0.3,0.1-0.4c0,0,0-1.6,0-1.7c-0.3,0.3-0.9,1.3-4,2c-1.3,0.2-2.7,0.3-4,0.3
				c-2.5,0-5.1-0.5-6.3-1.2c-0.4-0.2-0.7-0.4-1-0.7c-0.2-0.2-0.3-0.4-0.5-0.6c0,0,0,0.8,0,0.8v1.1c0.1,0.4,0.3,0.8,0.7,1.1
				C17.2,69.9,18.7,70.4,20.2,70.5z"/>
		</g>
		<g>
			<path class="st0" d="M31,62.6c-0.2-0.2-0.3-0.3-0.5-0.3c-0.1,0.2-0.2,0.3-0.4,0.5c0.1,0,0.2,0.1,0.3,0.2c0.2,0.1,0.4,0.3,0.4,0.6
				c0,0.2-0.1,0.4-0.3,0.5c-0.1,0.1-0.2,0.2-0.3,0.2l-0.5,0.3c0,0-0.5,0.2-0.7,0.3c0,0-0.5,0.2-0.7,0.2s-0.7,0.2-0.9,0.2l-1.2,0.2
				L25,65.5c-0.1,0-1.3,0.1-1.8,0.1c-0.8,0-1.7-0.1-2.5-0.2c-0.6-0.1-1.2-0.2-1.8-0.3c-0.6-0.1-1.3-0.3-1.9-0.6
				c-0.4-0.2-0.7-0.4-1-0.7c-0.2-0.2-0.5-0.5-0.6-0.8v1v1c0,0.5,0.3,0.9,0.6,1.1c1.2,0.9,2.7,1.4,4.2,1.6c1,0.1,2,0.2,3,0.2
				c1.5,0,3-0.2,4.4-0.5l0,0c0.8-0.2,1.6-0.5,2.3-0.9l0,0c0.2-0.1,0.3-0.2,0.5-0.3c0.3-0.2,0.5-0.5,0.6-0.8c0.1-0.1,0.1-0.3,0.1-0.5
				c0,0,0.1-1.7,0.1-1.7c0-0.1,0-0.3-0.1-0.4C31.2,62.8,31.1,62.7,31,62.6z"/>
		</g>
		<g>
			<path class="st0" d="M40.6,58.9c4.3,0,7.8-1.3,7.8-2.9c0,0,0.1-1.5,0.1-1.8c0-0.2-0.1-0.4-0.1-0.6c0.5-0.3,0.8-0.8,0.9-1.3
				c0,0,0.1-1.7,0-2c-0.2-2-4.2-3-7.9-3s-7.9,1.1-7.9,3.2c0,0.1,0.1,1.8,0.1,1.8c0,0.1,0,0.2,0.1,0.3c-0.6,0.3-1,0.9-1,1.6
				c0,0.1,0.1,1.8,0.1,1.8c0,0.4,0.3,0.9,0.6,1.1c1.2,0.9,2.7,1.4,4.2,1.5C38.5,58.8,39.6,58.9,40.6,58.9z M41.4,48
				c4.2,0,7.1,1.2,7.1,2.4s-2.9,2.4-7.1,2.4s-7.1-1.3-7.1-2.4S37.2,48,41.4,48z M33.5,54.1c0-0.3,0.2-0.6,0.6-0.9
				c0.2,0.2,0.5,0.4,0.8,0.6c2,0.9,4.3,1.4,6.5,1.3c1.9,0,3.8-0.3,5.6-0.9c0.2-0.1,0.5-0.2,0.7-0.3c0,0.1,0,0.1,0,0.2
				c0,1.1-2.9,2.4-7.1,2.4S33.5,55.3,33.5,54.1z"/>
		</g>
		<g>
			<path class="st0" d="M49.3,57.3c0-0.1-0.1-0.2-0.2-0.3c-0.1-0.1-0.1-0.1-0.2-0.2c-0.1-0.1-0.2-0.1-0.3-0.2
				c-0.1,0.2-0.2,0.3-0.3,0.5c0.1,0,0.2,0.1,0.3,0.2c0.2,0.1,0.4,0.3,0.4,0.6c0,0.2-0.1,0.4-0.3,0.5c-0.1,0.1-0.2,0.2-0.3,0.2
				c0,0-0.3,0.2-0.5,0.2s-0.5,0.2-0.7,0.3l-0.7,0.2c-0.1,0-0.7,0.2-0.9,0.2c0,0-0.8,0.2-1.2,0.2c-0.1,0-0.9,0.1-1.2,0.1
				c-0.1,0-1.3,0.1-1.8,0.1c-0.8,0-1.7-0.1-2.5-0.2c-0.6-0.1-1.2-0.2-1.8-0.3c-0.6-0.1-1.3-0.3-1.9-0.6c-0.4-0.2-0.7-0.4-1-0.7
				c-0.2-0.2-0.5-0.5-0.6-0.8v1v1c0,0.4,0.3,0.9,0.6,1.1c1.3,0.9,2.7,1.4,4.2,1.5c1,0.2,2,0.2,3.1,0.2c1.5,0,3-0.2,4.4-0.5l0,0
				c0.8-0.2,1.5-0.5,2.2-0.9l0,0c0.2-0.1,0.3-0.2,0.5-0.3c0.3-0.2,0.5-0.5,0.6-0.8c0.1-0.1,0.1-0.3,0.1-0.4c0,0,0.1-1.7,0.1-1.7
				C49.3,57.5,49.3,57.4,49.3,57.3z"/>
		</g>
		<g>
			<path class="st0" d="M48.3,64.2c-0.5,0.3-1.1,0.6-1.7,0.8c-1.7,0.5-3.5,0.7-5.4,0.7c-0.9,0-1.8-0.1-2.7-0.2
				c-0.6-0.1-1-0.2-1.6-0.3l-0.8-0.2c-0.7-0.2-1.5-0.6-2.1-1c-0.2-0.2-0.4-0.4-0.6-0.6V64c0,0.2,0,1,0,1c0,0.4,0.3,0.9,0.6,1.1
				c1.2,0.9,2.7,1.4,4.2,1.6c1,0.2,2,0.2,3,0.2c1.5,0,3-0.2,4.4-0.5l0,0c0.8-0.2,1.5-0.5,2.2-0.9l0,0c0.7-0.4,1.2-1,1.2-1.5
				c0,0,0.1-1.6,0-1.7C48.9,63.6,48.6,63.9,48.3,64.2z"/>
		</g>
		<g>
			<path class="st0" d="M34.1,63.3c1.2,0.9,2.7,1.4,4.2,1.6c1,0.2,2,0.2,3,0.2c1.5,0,3-0.2,4.4-0.5l0,0c0.8-0.2,1.6-0.5,2.3-0.9l0,0
				c0.2-0.1,0.3-0.2,0.5-0.3c0.3-0.2,0.5-0.5,0.6-0.8c0.1-0.1,0.1-0.3,0.1-0.4c0,0,0-1.6,0-1.7c-0.3,0.3-0.9,1.4-4,2
				c-1.3,0.2-2.7,0.3-4,0.3c-2.5,0-5.1-0.5-6.3-1.2c-0.4-0.2-0.7-0.4-1-0.7c-0.2-0.2-0.3-0.4-0.5-0.6c0,0,0,0.8,0,0.8v1.1
				C33.5,62.7,33.7,63.1,34.1,63.3z"/>
		</g>
		<g>
			<path class="st0" d="M49.3,68.9c-0.3,0.4-0.6,0.7-1,0.9c-0.5,0.3-1.1,0.6-1.7,0.8c-1.7,0.5-3.5,0.7-5.4,0.7
				c-0.9,0-1.7-0.1-2.6-0.2c-0.5-0.1-1.1-0.2-1.6-0.3c-0.3-0.1-0.5-0.1-0.8-0.2c-0.7-0.2-1.5-0.5-2.1-1c-0.2-0.2-0.4-0.4-0.6-0.6
				v0.7c0,0.2,0,1,0,1c0,0.5,0.3,0.9,0.6,1.1c1.2,0.9,2.7,1.4,4.2,1.6c1,0.2,2,0.2,3,0.2c1.5,0,3-0.2,4.4-0.5l0,0
				c0.8-0.2,1.5-0.5,2.2-0.9l0,0c0.7-0.4,1.2-1,1.2-1.5C49.3,70.6,49.4,69,49.3,68.9z"/>
		</g>
		<g>
			<path class="st0" d="M38.3,70.5c1,0.1,2,0.2,3.1,0.2c1.5,0,3-0.2,4.4-0.5h0c0.8-0.2,1.5-0.5,2.2-0.9l0,0c0.2-0.1,0.3-0.2,0.5-0.3
				c0.3-0.2,0.5-0.5,0.6-0.8c0.1-0.1,0.1-0.3,0.1-0.4c0,0,0-1.6,0-1.7c-0.3,0.3-0.9,1.4-4,2c-1.3,0.2-2.7,0.3-4,0.3
				c-2.5,0-5.1-0.5-6.3-1.2c-0.4-0.2-0.7-0.4-1-0.7c-0.2-0.2-0.3-0.4-0.5-0.6c0,0,0,0.8,0,0.8v1.1c0,0.5,0.3,0.9,0.7,1.1
				C35.4,69.8,36.8,70.4,38.3,70.5z"/>
		</g>
	</g>
</g>
</svg>
