<?xml version="1.0" encoding="utf-8"?>
<!-- Generator: Adobe Illustrator 22.0.1, SVG Export Plug-In . SVG Version: 6.00 Build 0)  -->
<svg version="1.1" id="Layer_1" xmlns="http://www.w3.org/2000/svg" xmlns:xlink="http://www.w3.org/1999/xlink" x="0px" y="0px"
	 viewBox="0 0 101.5 184.1" style="enable-background:new 0 0 101.5 184.1;" xml:space="preserve">
<style type="text/css">
	.st0{fill:#FFFFFF;}
	.st1{fill:#DD1367;}
	.st2{enable-background:new    ;}
</style>
<title>TARGET 1 B copy 8</title>
<g id="WHITE_BG">
	<g>
		<rect y="0" class="st0" width="101.5" height="183.9"/>
	</g>
</g>
<g id="TARGETS">
	<g>
		<g>
			<path class="st1" d="M10.5,129.3H7.8v2h2.9v0.9H6.9v-6.4h3.9v0.9h-3v1.8h2.6v0.8H10.5z"/>
		</g>
		<g>
			<path class="st1" d="M15.3,132.2l-2.8-4.5v4.5h-0.9v-6.4h0.9l2.8,4.5v-4.5h0.9v6.4L15.3,132.2L15.3,132.2z"/>
		</g>
		<g>
			<path class="st1" d="M19.7,125.7c0.5,0,1,0.1,1.5,0.3v0.9c-0.4-0.2-0.9-0.3-1.4-0.3c-1.2,0-1.7,0.8-1.7,2.4
				c0,1.6,0.5,2.4,1.7,2.4c0.5,0,1-0.1,1.4-0.3v0.9c-0.5,0.2-1,0.3-1.5,0.3c-1.9,0-2.6-1.2-2.6-3.3S17.8,125.7,19.7,125.7z"/>
		</g>
		<g>
			<path class="st1" d="M21.8,129c0-1.8,0.4-3.3,2.5-3.3s2.5,1.5,2.5,3.3s-0.4,3.3-2.5,3.3S21.8,130.8,21.8,129z M22.8,129
				c0,1.5,0.3,2.4,1.5,2.4s1.5-0.9,1.5-2.4s-0.3-2.4-1.5-2.4S22.8,127.5,22.8,129L22.8,129z"/>
		</g>
		<g>
			<path class="st1" d="M27.4,130.2v-4.4h1v4.3c-0.1,0.7,0.4,1.2,1,1.3c0.1,0,0.2,0,0.3,0c0.6,0.1,1.3-0.3,1.4-1c0-0.1,0-0.2,0-0.3
				v-4.3H32v4.4c0,1.1-0.8,2.1-2,2.1c-0.1,0-0.2,0-0.3,0c-1.1,0.1-2.1-0.7-2.3-1.8C27.4,130.4,27.4,130.3,27.4,130.2z"/>
		</g>
		<g>
			<path class="st1" d="M33.9,132.2H33v-6.4h2c1.7,0,2.2,0.7,2.2,1.9c0.1,0.7-0.3,1.4-1,1.7l1.3,2.8h-1.1l-1.2-2.6h-1.3V132.2z
				 M33.9,128.7h1.3c0.9,0,1-0.5,1-1s-0.1-1-1-1h-1.3V128.7z"/>
		</g>
		<g>
			<path class="st1" d="M41.4,130.6h-2l-0.5,1.6h-1l2-6.4h1l2,6.4h-1L41.4,130.6z M40.4,127l-0.8,2.8h1.6L40.4,127z"/>
		</g>
		<g>
			<path class="st1" d="M43.1,129c0-2,0.7-3.3,2.6-3.3c0.6,0,1.3,0.1,1.8,0.3v1c-0.5-0.2-1.1-0.4-1.7-0.4c-1.3,0-1.8,0.9-1.8,2.4
				s0.5,2.4,1.8,2.4c0.3,0,0.6,0,0.9-0.1v-1.7h-1.1v-0.9h2.1v3.2c-0.6,0.3-1.3,0.4-2,0.4C43.8,132.3,43.1,131,43.1,129z"/>
		</g>
		<g>
			<path class="st1" d="M52.2,129.3h-2.6v2h2.9v0.9h-3.9v-6.4h3.9v0.9h-2.9v1.8h2.7L52.2,129.3z"/>
		</g>
		<g>
			<path class="st1" d="M6.9,141.2v-6.4h1.9c2.1,0,2.7,1.4,2.7,3.2s-0.6,3.2-2.7,3.2H6.9z M7.9,140.3h1c1.3,0,1.7-0.9,1.7-2.3
				s-0.4-2.3-1.7-2.3h-1L7.9,140.3z"/>
		</g>
		<g>
			<path class="st1" d="M15.8,138.3h-2.7v2H16v0.9h-3.9v-6.4H16v0.9h-2.9v1.8h2.7V138.3z"/>
		</g>
		<g>
			<path class="st1" d="M21.5,134.8l-2,6.4h-1l-2-6.4h1L19,140l1.5-5.2H21.5z"/>
		</g>
		<g>
			<path class="st1" d="M25.6,138.3H23v2h2.9v0.9H22v-6.4h3.9v0.9H23v1.8h2.6V138.3z"/>
		</g>
		<g>
			<path class="st1" d="M27.7,140.3h2.8v0.9h-3.7v-6.4h1L27.7,140.3z"/>
		</g>
		<g>
			<path class="st1" d="M30.6,138c0-1.8,0.4-3.3,2.4-3.3s2.5,1.5,2.5,3.3s-0.4,3.3-2.5,3.3S30.6,139.8,30.6,138z M31.6,138
				c0,1.5,0.3,2.4,1.5,2.4c1.2,0,1.5-0.9,1.5-2.4s-0.3-2.4-1.5-2.4S31.6,136.5,31.6,138L31.6,138z"/>
		</g>
		<g>
			<path class="st1" d="M37.2,141.2h-1v-6.4h2c1.6,0,2.2,0.9,2.2,2s-0.6,2-2.2,2h-1V141.2z M37.2,137.9h1.1c0.6,0.1,1.2-0.4,1.2-1
				s-0.4-1.2-1-1.2c-0.1,0-0.1,0-0.2,0h-1.1V137.9z"/>
		</g>
		<g>
			<path class="st1" d="M44.5,140.3h-0.9l-1.6-3.9v4.8h-1v-6.4h1.2l1.8,4.3l1.7-4.3H47v6.4h-1v-4.8L44.5,140.3z"/>
		</g>
		<g>
			<path class="st1" d="M51.5,138.3h-2.6v2h2.9v0.9h-3.9v-6.4h3.9v0.9h-2.9v1.8h2.7L51.5,138.3z"/>
		</g>
		<g>
			<path class="st1" d="M56.3,141.2l-2.8-4.5v4.5h-1v-6.4h0.9l2.8,4.5v-4.5h1v6.4H56.3z"/>
		</g>
		<g>
			<path class="st1" d="M60.5,135.7v5.5h-1v-5.5h-1.6v-0.9h4.3v0.9H60.5z"/>
		</g>
		<g>
			<path class="st1" d="M10.1,148.6h-2l-0.4,1.6h-1l2-6.4h1l2,6.4h-1L10.1,148.6z M9.1,145l-0.8,2.8h1.6L9.1,145z"/>
		</g>
		<g>
			<path class="st1" d="M16.1,148.3c0,1.2-0.7,2-2.4,2c-0.6,0-1.3-0.1-1.9-0.4V149c0.6,0.3,1.2,0.4,1.8,0.4c1.1,0,1.5-0.5,1.5-1.1
				s-0.3-0.9-1.2-1c-1.6-0.2-2.2-0.6-2.2-1.8c0-0.9,0.5-1.8,2.3-1.8c0.6,0,1.2,0.1,1.7,0.3v1c-0.5-0.2-1.1-0.3-1.7-0.3
				c-1,0-1.3,0.4-1.3,1s0.4,0.8,1.2,0.9C15.4,146.7,16.1,147,16.1,148.3z"/>
		</g>
		<g>
			<path class="st1" d="M21,148.3c0,1.2-0.7,2-2.4,2c-0.6,0-1.3-0.1-1.9-0.4V149c0.6,0.3,1.2,0.4,1.8,0.4c1.1,0,1.5-0.5,1.5-1.1
				s-0.3-0.9-1.2-1c-1.5-0.2-2.1-0.6-2.1-1.8c0-0.9,0.5-1.8,2.3-1.8c0.6,0,1.2,0.1,1.7,0.3v1c-0.5-0.2-1.1-0.3-1.7-0.3
				c-1,0-1.3,0.4-1.3,1s0.4,0.8,1.2,0.9C20.2,146.7,21,147,21,148.3z"/>
		</g>
		<g>
			<path class="st1" d="M21.9,150.2v-6.4h1v6.4H21.9z"/>
		</g>
		<g>
			<path class="st1" d="M28.1,148.3c0,1.2-0.7,2-2.4,2c-0.6,0-1.3-0.1-1.9-0.4V149c0.6,0.3,1.2,0.4,1.8,0.4c1.1,0,1.5-0.5,1.5-1.1
				s-0.3-0.9-1.2-1c-1.5-0.2-2.1-0.6-2.1-1.8c0-0.9,0.5-1.8,2.3-1.8c0.6,0,1.2,0.1,1.7,0.3v1c-0.5-0.2-1.1-0.3-1.7-0.3
				c-1,0-1.3,0.4-1.3,1s0.4,0.8,1.2,0.9C27.3,146.7,28.1,147,28.1,148.3z"/>
		</g>
		<g>
			<path class="st1" d="M30.9,144.7v5.5h-1v-5.5h-1.6v-0.9h4.3v0.9H30.9z"/>
		</g>
		<g>
			<path class="st1" d="M35.6,148.6h-2l-0.5,1.6h-1l2-6.4h1l2,6.4H36L35.6,148.6z M34.6,145l-0.8,2.8h1.6L34.6,145z"/>
		</g>
		<g>
			<path class="st1" d="M41.3,150.2l-2.8-4.5v4.5h-1v-6.4h0.9l2.8,4.5v-4.5h1v6.4H41.3z"/>
		</g>
		<g>
			<path class="st1" d="M45.6,143.7c0.5,0,1,0.1,1.5,0.3v0.9c-0.5-0.2-0.9-0.3-1.4-0.3c-1.2,0-1.7,0.8-1.7,2.4s0.5,2.4,1.7,2.4
				c0.5,0,1-0.1,1.4-0.3v0.9c-0.5,0.2-1,0.3-1.5,0.3c-1.9,0-2.6-1.2-2.6-3.3S43.8,143.7,45.6,143.7z"/>
		</g>
		<g>
			<path class="st1" d="M51.6,147.3H49v2h2.9v0.9H48v-6.4h3.9v0.9H49v1.8h2.7L51.6,147.3z"/>
		</g>
		<g>
			<path class="st1" d="M57.3,148.6h-2l-0.5,1.6h-1l2-6.4h1l2,6.4h-1L57.3,148.6z M56.3,145l-0.8,2.8h1.6L56.3,145z"/>
		</g>
		<g>
			<path class="st1" d="M63,150.2l-2.8-4.5v4.5h-0.9v-6.4h0.9l2.8,4.5v-4.5h1v6.4H63z"/>
		</g>
		<g>
			<path class="st1" d="M64.8,150.2v-6.4h1.9c2.1,0,2.7,1.4,2.7,3.2s-0.6,3.2-2.7,3.2H64.8z M65.8,149.3h1c1.3,0,1.7-0.9,1.7-2.3
				s-0.4-2.3-1.7-2.3h-1V149.3z"/>
		</g>
		<g>
			<path class="st1" d="M7,159.2v-6.4h1v6.4H7z"/>
		</g>
		<g>
			<path class="st1" d="M12.8,159.2l-2.8-4.5v4.5H9.1v-6.4H10l2.8,4.5v-4.5h0.9v6.4H12.8z"/>
		</g>
		<g>
			<path class="st1" d="M19.1,152.8l-2,6.4h-1l-2-6.4h1l1.5,5.2l1.5-5.2H19.1z"/>
		</g>
		<g>
			<path class="st1" d="M23.3,156.3h-2.7v2h2.9v0.9h-3.9v-6.4h3.9v0.9h-2.9v1.8h2.6L23.3,156.3z"/>
		</g>
		<g>
			<path class="st1" d="M28.6,157.3c0,1.2-0.7,2-2.4,2c-0.6,0-1.3-0.1-1.9-0.4V158c0.6,0.3,1.2,0.4,1.8,0.4c1.1,0,1.5-0.5,1.5-1.1
				s-0.3-0.9-1.2-1c-1.5-0.2-2.1-0.6-2.1-1.8c0-0.9,0.5-1.8,2.3-1.8c0.6,0,1.2,0.1,1.7,0.3v1c-0.5-0.2-1.1-0.3-1.7-0.3
				c-1,0-1.3,0.4-1.3,1s0.4,0.8,1.2,0.9C27.8,155.7,28.6,156,28.6,157.3z"/>
		</g>
		<g>
			<path class="st1" d="M31.4,153.7v5.5h-1v-5.5h-1.7v-0.9H33v0.9H31.4z"/>
		</g>
		<g>
			<path class="st1" d="M37.2,158.3h-0.9l-1.6-3.9v4.8h-1v-6.4H35l1.7,4.3l1.7-4.3h1.2v6.4h-1v-4.8L37.2,158.3z"/>
		</g>
		<g>
			<path class="st1" d="M44.2,156.3h-2.7v2h2.9v0.9h-3.9v-6.4h3.9v0.9h-2.9v1.8h2.7V156.3z"/>
		</g>
		<g>
			<path class="st1" d="M49,159.2l-2.8-4.5v4.5h-0.9v-6.4h0.9l2.8,4.5v-4.5h0.9v6.4H49z"/>
		</g>
		<g>
			<path class="st1" d="M53.2,153.7v5.5h-1v-5.5h-1.6v-0.9h4.3v0.9H53.2z"/>
		</g>
		<g>
			<path class="st1" d="M56.7,159.2v-6.4h1v6.4H56.7z"/>
		</g>
		<g>
			<path class="st1" d="M62.4,159.2l-2.8-4.5v4.5h-0.9v-6.4h0.9l2.8,4.5v-4.5h0.9v6.4H62.4z"/>
		</g>
		<g>
			<path class="st1" d="M66.6,158.3h2.8v0.9h-3.7v-6.4h1L66.6,158.3z"/>
		</g>
		<g>
			<path class="st1" d="M73.5,156.3h-2.7v2h2.9v0.9h-3.9v-6.4h3.9v0.9h-2.9v1.8h2.7V156.3z"/>
		</g>
		<g>
			<path class="st1" d="M77.7,157.6h-2l-0.4,1.6h-1l2-6.4h1l2,6.4h-1L77.7,157.6z M76.7,154l-0.8,2.8h1.6L76.7,154z"/>
		</g>
		<g>
			<path class="st1" d="M83.7,157.3c0,1.2-0.7,2-2.4,2c-0.6,0-1.3-0.1-1.9-0.4V158c0.6,0.3,1.2,0.4,1.8,0.4c1.1,0,1.5-0.5,1.5-1.1
				s-0.3-0.9-1.2-1c-1.6-0.2-2.2-0.6-2.2-1.8c0-0.9,0.5-1.8,2.3-1.8c0.6,0,1.2,0.1,1.7,0.3v1c-0.5-0.2-1.1-0.3-1.7-0.3
				c-1,0-1.3,0.4-1.3,1s0.4,0.8,1.2,0.9C82.9,155.7,83.7,156,83.7,157.3z"/>
		</g>
		<g>
			<path class="st1" d="M86.4,153.7v5.5h-1v-5.5h-1.6v-0.9h4.3v0.9H86.4z"/>
		</g>
		<g>
			<path class="st1" d="M6.9,168.2v-6.4h1.9c2.1,0,2.7,1.4,2.7,3.2s-0.6,3.2-2.7,3.2H6.9z M7.9,167.3h1c1.3,0,1.7-0.9,1.7-2.3
				s-0.4-2.3-1.7-2.3h-1L7.9,167.3z"/>
		</g>
		<g>
			<path class="st1" d="M15.8,165.3h-2.7v2H16v0.9h-3.9v-6.4H16v0.9h-2.9v1.8h2.7V165.3z"/>
		</g>
		<g>
			<path class="st1" d="M21.5,161.8l-2,6.4h-1l-2-6.4h1L19,167l1.5-5.2H21.5z"/>
		</g>
		<g>
			<path class="st1" d="M25.6,165.3H23v2h2.9v0.9H22v-6.4h3.9v0.9H23v1.8h2.6V165.3z"/>
		</g>
		<g>
			<path class="st1" d="M27.7,167.3h2.8v0.9h-3.7v-6.4h1L27.7,167.3z"/>
		</g>
		<g>
			<path class="st1" d="M30.5,165c0-1.8,0.4-3.3,2.5-3.3s2.5,1.5,2.5,3.3s-0.4,3.3-2.5,3.3S30.5,166.8,30.5,165z M31.5,165
				c0,1.5,0.3,2.4,1.5,2.4s1.5-0.9,1.5-2.4s-0.3-2.4-1.5-2.4S31.5,163.5,31.5,165L31.5,165z"/>
		</g>
		<g>
			<path class="st1" d="M37.2,168.2h-1v-6.4h2c1.6,0,2.2,0.9,2.2,2s-0.6,2-2.2,2h-1V168.2z M37.2,164.9h1.1c0.6,0.1,1.2-0.4,1.2-1
				s-0.4-1.2-1-1.2c-0.1,0-0.1,0-0.2,0h-1.1V164.9z"/>
		</g>
		<g>
			<path class="st1" d="M44.6,165.3h-2.7v2h2.9v0.9H41v-6.4h3.9v0.9h-3v1.8h2.7C44.6,164.5,44.6,165.3,44.6,165.3z"/>
		</g>
		<g>
			<path class="st1" d="M45.7,168.2v-6.4h1.9c2.1,0,2.7,1.4,2.7,3.2s-0.6,3.2-2.7,3.2H45.7z M46.7,167.3h1c1.3,0,1.7-0.9,1.7-2.3
				s-0.4-2.3-1.7-2.3h-1V167.3z"/>
		</g>
		<g>
			<path class="st1" d="M9.4,170.7c0.5,0,1,0.1,1.5,0.3v0.9c-0.5-0.2-0.9-0.3-1.4-0.3c-1.2,0-1.7,0.8-1.7,2.4s0.5,2.4,1.7,2.4
				c0.5,0,1-0.1,1.4-0.3v0.9c-0.5,0.2-1,0.3-1.5,0.3c-1.9,0-2.6-1.2-2.6-3.3S7.5,170.7,9.4,170.7z"/>
		</g>
		<g>
			<path class="st1" d="M11.5,174c0-1.8,0.4-3.3,2.4-3.3s2.5,1.5,2.5,3.3s-0.5,3.3-2.5,3.3S11.5,175.8,11.5,174z M12.5,174
				c0,1.5,0.3,2.4,1.5,2.4s1.5-0.9,1.5-2.4s-0.3-2.4-1.5-2.4S12.5,172.5,12.5,174L12.5,174z"/>
		</g>
		<g>
			<path class="st1" d="M17.1,175.2v-4.4h1v4.3c-0.1,0.7,0.4,1.2,1,1.3c0.1,0,0.2,0,0.3,0c0.6,0.1,1.3-0.3,1.4-1c0-0.1,0-0.2,0-0.3
				v-4.3h1v4.4c0.1,1.1-0.8,2.1-1.9,2.1c-0.1,0-0.3,0-0.4,0c-1.1,0.2-2.1-0.5-2.3-1.6C17.1,175.5,17.1,175.4,17.1,175.2z"/>
		</g>
		<g>
			<path class="st1" d="M26.2,177.2l-2.8-4.5v4.5h-0.9v-6.4h0.9l2.8,4.5v-4.5h0.9v6.4H26.2z"/>
		</g>
		<g>
			<path class="st1" d="M30.3,171.7v5.5h-1v-5.5h-1.6v-0.9H32v0.9H30.3z"/>
		</g>
		<g>
			<path class="st1" d="M33.4,177.2h-1v-6.4h2.1c1.7,0,2.2,0.7,2.2,1.9c0.1,0.7-0.3,1.4-1,1.7l1.3,2.8h-1.1l-1.2-2.6h-1.3V177.2z
				 M33.4,173.7h1.3c0.9,0,1-0.5,1-1s-0.1-1-1-1h-1.3V173.7z"/>
		</g>
		<g>
			<path class="st1" d="M37.7,177.2v-6.4h1v6.4H37.7z"/>
		</g>
		<g>
			<path class="st1" d="M43.3,174.3h-2.7v2h2.9v0.9h-3.9v-6.4h3.9v0.9h-2.9v1.8h2.7V174.3z"/>
		</g>
		<g>
			<path class="st1" d="M48.6,175.3c0,1.2-0.7,2-2.4,2c-0.6,0-1.3-0.1-1.9-0.4V176c0.6,0.3,1.2,0.4,1.8,0.4c1.2,0,1.5-0.5,1.5-1.1
				s-0.3-0.9-1.2-1c-1.5-0.2-2.2-0.6-2.2-1.8c0-0.9,0.5-1.8,2.3-1.8c0.6,0,1.2,0.1,1.7,0.3v1c-0.5-0.2-1.1-0.3-1.7-0.3
				c-1,0-1.3,0.4-1.3,1s0.4,0.8,1.2,0.9C47.8,173.7,48.6,174,48.6,175.3z"/>
		</g>
	</g>
	<g>
		<rect x="3.3" y="24" class="st1" width="94.8" height="94.8"/>
	</g>
	<g>
		<path class="st1" d="M98.2,20.7H3.3V3.3h94.8L98.2,20.7L98.2,20.7z M4.3,19.7h92.8V4.3H4.3V19.7z"/>
	</g>
	<g class="st2">
		<path class="st1" d="M6.7,6.9h4.5v1.4H9.9v8.8H8.1V8.3H6.7V6.9z"/>
	</g>
	<g class="st2">
		<path class="st1" d="M11.2,17.1l1.9-10.2H15l2,10.2h-1.8l-0.3-1.9h-1.8l-0.3,1.9H11.2z M13.3,13.9h1.4L14,9.8l0,0L13.3,13.9z"/>
	</g>
	<g class="st2">
		<path class="st1" d="M19.6,12.4v4.7h-1.7V6.9h2.5c1.7,0,2.4,0.9,2.4,2.3v1.3c0,1.1-0.4,1.7-1.4,2l1.6,4.6h-1.8L19.6,12.4z
			 M19.6,8.3v3.2h0.6c0.6,0,0.8-0.3,0.8-0.8V9.2c0-0.6-0.3-0.8-0.8-0.8L19.6,8.3L19.6,8.3z"/>
	</g>
	<g class="st2">
		<path class="st1" d="M26.4,11.7h2.4v5.4h-1.2V16c-0.2,0.8-0.7,1.2-1.6,1.2c-1.5,0-2.1-1.2-2.1-2.7V9.6c0-1.6,0.8-2.7,2.6-2.7
			c1.9,0,2.4,1.1,2.4,2.6v0.9h-1.6v-1c0-0.6-0.2-1-0.9-1c-0.6,0-0.9,0.4-0.9,1v5.5c0,0.6,0.3,1,0.8,1c0.6,0,0.8-0.3,0.8-1V13h-0.8
			v-1.3H26.4z"/>
	</g>
	<g class="st2">
		<path class="st1" d="M30.2,6.9h4.1v1.4h-2.4v2.9h1.7v1.4h-1.7v3.1h2.4v1.4h-4.1C30.2,17.1,30.2,6.9,30.2,6.9z"/>
	</g>
	<g class="st2">
		<path class="st1" d="M35.1,6.9h4.5v1.4h-1.4v8.8h-1.7V8.3h-1.4C35.1,8.3,35.1,6.9,35.1,6.9z"/>
	</g>
	<g class="st2">
		<path class="st1" d="M89.4,6.9h2.5c1.7,0,2.3,0.8,2.3,2.2v1c0,0.9-0.3,1.4-1,1.6c0.9,0.2,1.3,0.8,1.3,1.7v1.3
			c0,1.4-0.6,2.2-2.4,2.2h-2.7C89.4,16.9,89.4,6.9,89.4,6.9z M91.1,11.2h0.6c0.6,0,0.8-0.3,0.8-0.8V9.2c0-0.6-0.3-0.8-0.8-0.8h-0.6
			V11.2z M91.1,12.5v3.2h0.8c0.6,0,0.8-0.3,0.8-0.8v-1.5c0-0.5-0.3-0.8-0.9-0.8L91.1,12.5L91.1,12.5z"/>
	</g>
	<g class="st2">
		<path class="st1" d="M76.8,6.9v10.2H75V9.3l0,0l-1.2,1.2l0,0V8.8L75.4,7L76.8,6.9L76.8,6.9z"/>
		<path class="st1" d="M78.2,14.5v-5c0-1.6,0.8-2.7,2.5-2.7s2.5,1.2,2.5,2.7v4.9c0,1.6-0.8,2.7-2.5,2.7C79,17.2,78.2,16,78.2,14.5z
			 M81.5,14.7V9.3c0-0.6-0.2-1-0.8-1c-0.6,0-0.8,0.4-0.8,1v5.5c0,0.6,0.2,1,0.8,1S81.5,15.3,81.5,14.7z"/>
	</g>
	<g>
		<polygon class="st1" points="85.4,9.9 85.4,14.1 87.6,12 		"/>
	</g>
	<g>
		<g>
			<path class="st0" d="M88.4,69.9c0-0.4-0.4-0.7-0.7-0.7l0,0c-0.4,0-0.7,0-1.1,0s-0.8-0.1-0.9-0.5c-0.2-0.7-0.4-1.4-0.7-2.1
				c-0.1-0.4,0-0.8,0.3-1l0.9-0.8c0.3-0.2,0.4-0.6,0.2-0.9c-0.5-0.8-1-1.6-1.7-2.2c-0.2-0.3-0.7-0.3-1-0.1l0,0l-0.9,0.6
				c-0.3,0.3-0.7,0.3-1,0.1c-0.6-0.5-1.3-1-1.8-1.3c-0.3-0.2-0.5-0.6-0.4-1s0.2-0.8,0.3-1.2c0.1-0.3-0.1-0.7-0.4-0.9
				c-0.8-0.4-1.7-0.7-2.7-0.8c-0.4-0.1-0.8,0.1-0.9,0.5s-0.2,0.7-0.4,1s-0.3,0.7-0.8,0.7c-0.9,0-1.6,0-2.2,0c-0.4,0-0.8-0.2-0.9-0.6
				c-0.2-0.4-0.3-0.7-0.4-1.1c-0.1-0.3-0.5-0.5-0.8-0.5c-0.9,0.2-1.8,0.5-2.6,0.9c-0.4,0.1-0.5,0.6-0.4,0.9c0.1,0.4,0.2,0.7,0.3,1
				s0.1,0.8-0.2,1s-1.3,0.9-1.8,1.3c-0.3,0.3-0.7,0.3-1.1,0.1s-0.7-0.4-1-0.6c-0.3-0.2-0.8-0.2-1,0.1c-0.6,0.7-1.2,1.5-1.6,2.3
				c-0.2,0.3-0.1,0.8,0.2,1l0,0l0.8,0.7c0.3,0.2,0.6,0.5,0.4,1s-0.5,1.7-0.7,2.1c-0.1,0.4-0.4,0.7-0.8,0.7l-1.2,0.1
				c-0.4,0-0.7,0.3-0.7,0.7c-0.1,0.9-0.1,1.9,0,2.8c0,0.4,0.4,0.7,0.7,0.7l0,0h1.1c0.4,0,0.8,0.1,0.9,0.5c0.2,0.7,0.4,1.4,0.7,2.1
				c0.1,0.4,0,0.8-0.3,1c-0.3,0.3-0.6,0.5-0.9,0.8c-0.3,0.2-0.4,0.6-0.2,0.9c0.5,0.8,1,1.6,1.7,2.2c0.2,0.3,0.7,0.3,1,0.1l0,0
				c0.3-0.2,0.6-0.4,0.9-0.6s0.7-0.4,1-0.1s1.4,1,1.8,1.3c0.3,0.2,0.5,0.6,0.4,1s-0.2,0.8-0.3,1.2c-0.1,0.4,0.1,0.7,0.4,0.9
				c0.8,0.4,1.7,0.7,2.7,0.8c0.4,0.1,0.8-0.1,0.9-0.5s0.2-0.7,0.4-1s0.3-0.7,0.8-0.7c0.8,0,1.4,0,2.2,0c0.4,0,0.8,0.2,0.9,0.6
				c0.2,0.4,0.3,0.7,0.4,1.1c0.1,0.3,0.5,0.5,0.8,0.5c0.9-0.2,1.8-0.5,2.6-0.9c0.4-0.1,0.5-0.6,0.4-0.9c-0.1-0.4-0.2-0.7-0.3-1
				s-0.1-0.8,0.2-1s1.4-1,1.8-1.3c0.3-0.3,0.8-0.4,1.2-0.1c0.4,0.2,0.7,0.4,1,0.6s0.7,0.1,0.9-0.1c0.6-0.7,1.2-1.5,1.6-2.3
				c0.2-0.3,0.1-0.8-0.2-1l0,0c-0.3-0.2-0.5-0.4-0.8-0.7s-0.6-0.6-0.4-1s0.5-1.6,0.7-2.1c0.1-0.4,0.4-0.7,0.8-0.7s0.8-0.1,1.2-0.1
				c0.4,0,0.7-0.3,0.7-0.7C88.5,71.7,88.5,70.8,88.4,69.9z M73.8,80.7c-5,0-9.1-4.1-9.1-9.1s4.1-9.1,9.1-9.1s9.1,4.1,9.1,9.1l0,0
				C82.9,76.7,78.8,80.7,73.8,80.7z"/>
		</g>
		<g>
			<path class="st0" d="M67.1,69c0.2,0.1,0.4,0,0.4-0.1s0-0.2,0-0.3s0.1-0.2,0.2-0.2c0.2-0.1,0.4-0.2,0.6-0.4c0.4-0.1,0.8-0.1,1.2,0
				c0.3,0.1,0.6,0.1,0.8-0.2c0.2-0.2,0.4-0.4,0.6-0.5c0.1-0.1-0.3-0.4-0.6,0s-0.5,0.4-0.7,0.4s-1.1-0.2-1.2-0.5s0.3-0.5,0.6-0.7
				c0.5-0.1,1-0.2,1.5-0.2c0.5-0.1,1.1-0.3,1.4-0.1s-1.3,0.6-0.8,0.9c0.2,0.1,1-0.5,1.3-0.6c0.7-0.4-0.7-0.5-0.5-1.2
				s-1.6-0.5-2.5-0.4c-0.4,0.3-0.9,0.6-1.2,1c0.1,0,0.2,0.1,0.2,0.1c0,0.2,0,0.4-0.1,0.5c-0.2,0.2-0.5,0.4-0.8,0.4
				c-0.1,0-0.1,0-0.2-0.1c-0.1,0.2-0.3,0.4-0.4,0.6c0.2-0.1,0.4-0.2,0.6-0.2s0.5,0.1,0.5,0.2s-0.5,0.4-0.6,0.5
				c-0.3,0.3-0.7,0.8-1,0.8c-0.1,0-0.1,0-0.2,0c-0.1,0.2-0.1,0.3-0.2,0.5C66.5,69,66.8,68.9,67.1,69z"/>
		</g>
		<g>
			<path class="st0" d="M80.3,71.2c-0.2,0.2-0.5,0.3-0.8,0.3c-0.2,0.1-0.5,0.7-0.4,1s0.8,1.1,0.2,1.1c-0.5-0.3-1-0.6-1.3-1.1
				c-0.2-0.4-0.3-0.9-0.5-1.2c-0.1-0.2-0.3-0.4-0.6-0.3c-0.1,0-0.1,0-0.2,0.1c-0.3,0.2,0.1,0.4-0.1,0.8s-0.3,0.8-0.7,0.4
				c-0.8-0.9-1.9-0.5-2.1-1.5c-0.1-0.5-0.6-0.5-1-0.8s-0.6-0.5-0.7-0.2s1.2,1.2,1.3,1.5S73,72,72.6,72.1s-0.5-0.2-0.9-0.6
				s-0.5-0.7-0.6-0.4c0,0.5,0.3,1,0.7,1.3c0.3,0.2,0.7,0.3,0.6,0.6s0,0.2-0.4,0.5c-0.3,0.2-0.5,0.6-0.4,1c0,0.5-0.1,0.5-0.2,0.9
				s-0.3,0.1-0.4,0.7c-0.1,0.4-0.3,0.7-0.5,1c-0.3,0.3-0.7,0.4-1.1,0.4S69,76.5,69,76c0-0.2-0.2,0.3-0.4-0.7
				c-0.1-0.7-0.5,0.1-0.5-0.4s-0.2-0.4-0.5-0.6s-0.5,0-0.8,0.2s-0.2,0.2-0.6,0.1l0,0c0.9,2.2,2.8,3.9,5.1,4.6
				c-0.1-0.1-0.2-0.3-0.1-0.4c0.3-0.6,0.9-1,1.6-1c1.3-0.1,3,0.8,3.3,0.7s0.8-0.9,1.6-0.8c0.3,0,0.5,0,0.7,0.2
				c0.3-0.2,0.6-0.4,0.8-0.7c-0.1,0-0.2,0-0.3-0.1c-0.4-0.2-0.4,0.1-0.6,0s0.2-0.6-0.4-0.2s-0.5-0.1-0.8-0.8
				c-0.2-0.7,0.2-1.4,0.8-1.7c0.5-0.2,1-0.3,1.4-0.4c1-0.2,1.2-0.8,1.3-0.5l0.1,0.2c0.1,0.2,0.1,0.3,0.1,0.5
				c0.1-0.4,0.3-0.8,0.3-1.2c-0.2-0.1-1.1-1.3-0.4-2.1c0.1-0.1-0.2-0.5-0.1-0.5c0.3,0,0.6,0.2,0.7,0.5c0-0.4-0.1-0.8-0.2-1.2
				c0,0.1,0,0.2,0,0.3c-0.1,0.3-0.4,0.4-0.7,0.3c-0.1,0-0.2-0.1-0.3-0.2c-0.1-0.1-0.4-0.4-0.4,0.1S80.8,70.9,80.3,71.2z M72.8,74.4
				c-0.1,0.2-0.4,1.5-0.6,1.4s0.1-1.6,0.2-1.7C72.6,73.5,73.3,73.5,72.8,74.4z M76,72.8c-0.2,0.1-0.5,0.1-0.8-0.1
				c-0.2-0.2,0.1-0.4,0.2-0.4C75.8,72.3,76.2,72.6,76,72.8z M79.3,72.5c-0.1-0.2,0.1-0.3,0.3-0.2c0.2,0.1,0.3,0.3,0.4,0.5
				c0,0.1-0.3,0.1-0.4,0.1S79.4,72.7,79.3,72.5L79.3,72.5z M80.4,73.5c-0.2,0.1-0.5,0.1-0.8-0.1c-0.2-0.2,0.1-0.4,0.2-0.4
				C80.2,73,80.6,73.4,80.4,73.5L80.4,73.5z"/>
		</g>
		<g>
			<path class="st0" d="M66.8,69.9c0.4,0.1,0.9,0.2,1.3,0.3c0.5,0.2,1.2,0.6,1.6,0.4s0.6-0.3,0.5-0.6s-0.3-0.4-0.6-0.2
				c-0.1,0.1-0.3-0.5-0.5-0.4s0.2,0.7,0.1,0.7s-0.5-0.7-0.5-0.8s-0.3-0.4-0.5-0.2c-0.5,0.4-1.2,0.4-1.4,0.5c0,0-0.1,0.1-0.2,0.1
				c-0.3,0.1-0.4-0.2-0.4-0.4c-0.1,0.4-0.2,0.9-0.3,1.4v-0.1c0.3-0.5,0.3-0.5,0.4-0.6c0.1,0,0.2-0.1,0.3-0.1L66.8,69.9z"/>
		</g>
	</g>
	<g>
		<path class="st0" d="M74,97.4l-2.8-2.2c-0.2-0.2-0.6-0.3-0.8,0l0,0l0,0c-8.8,10.5-24,11.6-34.8,3c-0.3-0.3-0.6-0.5-0.9-0.8l3.2-2
			c0.3-0.2-0.1-0.5-0.1-0.5L27,89.5c-0.3-0.2-0.4,0-0.4,0.2v0.1l0,0L26.4,102c0,0.1,0.1,0.4,0.4,0.2l0,0l3.5-2.2
			c0.7,0.7,1.4,1.3,2.2,1.9c12.8,10.3,30.9,8.9,41.5-3.5l0.1-0.1C74.3,98.1,74.3,97.7,74,97.4L74,97.4z"/>
	</g>
	<g>
		<path class="st0" d="M26.6,46.8l2.9,2.1c0.2,0.2,0.6,0.2,0.8,0c0,0,0,0,0-0.1l0,0c8.2-11,23.3-13,34.5-5c0.3,0.2,0.7,0.5,1,0.8
			l-3,2.2C62.5,47,63,47.3,63,47.3L74.1,52c0.3,0.2,0.4-0.1,0.4-0.2v-0.1l0,0l-0.7-12.3c0-0.1-0.1-0.4-0.4-0.2l0,0L70,41.6
			c-0.7-0.6-1.5-1.2-2.3-1.8c-13.4-9.5-31.4-7.1-41.2,5.9l-0.1,0.1C26.2,46.2,26.2,46.6,26.6,46.8C26.5,46.8,26.5,46.8,26.6,46.8z"
			/>
	</g>
	<g>
		<g>
			<path class="st0" d="M25.8,80.8c-0.5,0.3-1,0.6-1.6,0.7c-1.6,0.5-3.4,0.7-5.1,0.6c-0.8,0-1.7-0.1-2.5-0.2c-0.5-0.1-1-0.2-1.5-0.3
				l-0.8-0.2c-0.7-0.2-1.4-0.5-2-1c-0.2-0.2-0.4-0.4-0.6-0.6v0.7c0,0.2,0,1,0,1c0,0.4,0.2,0.8,0.6,1.1c1.2,0.8,2.5,1.3,3.9,1.5
				c1,0.1,1.9,0.2,2.9,0.2c1.4,0,2.8-0.1,4.1-0.5l0,0c0.8-0.2,1.5-0.4,2.2-0.8l0,0c0.7-0.4,1.1-0.9,1.1-1.4c0,0,0-1.5,0-1.6
				C26.4,80.3,26.1,80.5,25.8,80.8z"/>
		</g>
		<g>
			<path class="st0" d="M18.5,75.7c4.1,0,7.4-1.2,7.4-2.8c0,0,0.1-1.4,0.1-1.7c0-0.2,0-0.4-0.1-0.6c0.5-0.3,0.8-0.7,0.8-1.2
				c0,0,0.1-1.6,0-1.9c-0.2-1.8-3.9-2.8-7.4-2.8s-7.5,1.1-7.5,3c0,0.1,0.1,1.7,0.1,1.7c0,0.1,0,0.2,0.1,0.3
				c-0.5,0.3-0.9,0.9-0.9,1.5c0,0.1,0.1,1.7,0.1,1.7c0,0.4,0.2,0.8,0.6,1.1c1.2,0.8,2.5,1.3,3.9,1.5C16.6,75.7,17.5,75.7,18.5,75.7z
				 M19.3,65.5c4,0,6.7,1.2,6.7,2.2S23.2,70,19.3,70s-6.7-1.2-6.7-2.2S15.3,65.5,19.3,65.5z M11.8,71.3c0.1-0.4,0.3-0.7,0.6-0.8
				c0.2,0.2,0.5,0.4,0.8,0.5c1.9,0.9,4,1.3,6.1,1.2c1.8,0,3.5-0.2,5.2-0.8c0.2-0.1,0.4-0.2,0.6-0.3c0,0.1,0,0.1,0,0.2
				c0,1.1-2.8,2.2-6.7,2.2S11.8,72.3,11.8,71.3z"/>
		</g>
		<g>
			<path class="st0" d="M16.3,81.4c1,0.1,1.9,0.2,2.9,0.2c1.4,0,2.8-0.1,4.1-0.5l0,0c0.7-0.2,1.4-0.5,2.1-0.8l0,0
				c0.2-0.1,0.4-0.2,0.6-0.3c0.2-0.2,0.4-0.4,0.6-0.7c0-0.1,0.1-0.2,0.1-0.4c0,0,0-1.5,0-1.6c-0.2,0.3-0.9,1.3-3.8,1.9
				c-1.2,0.2-2.5,0.3-3.8,0.3c-2.4,0-4.8-0.5-5.9-1.2c-0.3-0.2-0.6-0.4-0.9-0.6c-0.2-0.2-0.3-0.4-0.4-0.6v0.7v1.1
				c0,0.4,0.3,0.8,0.6,1C13.5,80.8,14.9,81.3,16.3,81.4z"/>
		</g>
		<g>
			<path class="st0" d="M26.5,74l-0.2-0.2c-0.1-0.1-0.2-0.1-0.3-0.2c-0.1,0.2-0.2,0.3-0.3,0.4c0.1,0,0.2,0.1,0.3,0.2
				c0.2,0.1,0.3,0.3,0.4,0.6c0,0.2-0.1,0.4-0.3,0.5l-0.3,0.2l-0.4,0.2c0,0-0.5,0.2-0.6,0.3L24,76.3l-0.9,0.2L22,76.6
				c-0.1,0-0.9,0.1-1.2,0.1c-0.1,0-1.2,0.1-1.7,0.1c-0.8,0-1.6-0.1-2.4-0.2c-0.6-0.1-1.1-0.2-1.7-0.3c-0.6-0.1-1.2-0.3-1.8-0.6
				c-0.3-0.2-0.7-0.4-0.9-0.6s-0.4-0.5-0.6-0.8v1v0.9c0,0.4,0.2,0.8,0.6,1.1c1.2,0.8,2.5,1.3,3.9,1.5c1,0.1,1.9,0.2,2.9,0.2
				c1.4,0,2.8-0.1,4.1-0.5l0,0c0.7-0.2,1.4-0.5,2.1-0.8l0,0c0.2-0.1,0.3-0.2,0.5-0.3c0.2-0.2,0.4-0.4,0.6-0.7
				c0.1-0.1,0.1-0.2,0.1-0.4l0.1-1.6c0-0.1,0-0.3-0.1-0.4C26.6,74.2,26.6,74.1,26.5,74z"/>
		</g>
		<g>
			<path class="st0" d="M35.6,70.4c4.1,0,7.4-1.2,7.4-2.8c0,0,0.1-1.4,0.1-1.7c0-0.2-0.1-0.4-0.1-0.6c0.5-0.3,0.8-0.7,0.8-1.2
				c0,0,0.1-1.6,0-1.9c-0.2-1.8-3.9-2.8-7.4-2.8s-7.5,1.1-7.5,3c0,0.1,0.1,1.7,0.1,1.7c0,0.1,0,0.2,0.1,0.3
				c-0.5,0.3-0.9,0.9-0.9,1.5c0,0.1,0.1,1.7,0.1,1.7c0,0.4,0.2,0.8,0.6,1.1c1.2,0.8,2.5,1.3,3.9,1.5C33.6,70.3,34.6,70.4,35.6,70.4z
				 M36.3,60.2c4,0,6.7,1.2,6.7,2.2s-2.7,2.2-6.7,2.2s-6.7-1.2-6.7-2.2S32.4,60.2,36.3,60.2z M28.9,65.9c0.1-0.4,0.3-0.7,0.6-0.8
				c0.2,0.2,0.5,0.4,0.8,0.6c1.9,0.9,4,1.3,6.1,1.2c1.8,0,3.5-0.2,5.2-0.8c0.2-0.1,0.4-0.2,0.6-0.3c0,0.1,0,0.1,0,0.2
				c0,1.1-2.7,2.2-6.7,2.2S28.9,67,28.9,65.9z"/>
		</g>
		<g>
			<path class="st0" d="M43.7,68.9c0-0.1-0.1-0.2-0.2-0.3c-0.1-0.1-0.1-0.1-0.2-0.2c-0.1-0.1-0.2-0.1-0.3-0.2
				c-0.1,0.2-0.2,0.3-0.3,0.4c0.1,0,0.2,0.1,0.3,0.2c0.2,0.1,0.3,0.3,0.3,0.6c0,0.2-0.1,0.4-0.3,0.5c-0.1,0.1-0.2,0.1-0.3,0.2
				l-0.4,0.2c0,0-0.5,0.2-0.7,0.3l-0.7,0.2L40,71c0,0-0.8,0.1-1.1,0.2l-1.2,0.1c-0.1,0-1.2,0.1-1.7,0.1c-0.8,0-1.6-0.1-2.4-0.2
				c-0.6-0.1-1.1-0.2-1.7-0.3c-0.6-0.1-1.2-0.3-1.8-0.6c-0.3-0.2-0.6-0.4-0.9-0.6c-0.2-0.2-0.4-0.5-0.6-0.8v1v0.9
				c0,0.4,0.2,0.8,0.6,1.1c1.2,0.8,2.5,1.3,3.9,1.5c1,0.1,1.9,0.2,2.9,0.2c1.4,0,2.8-0.2,4.2-0.5l0,0c0.7-0.2,1.4-0.4,2.1-0.8l0,0
				c0.2-0.1,0.3-0.2,0.5-0.3c0.2-0.2,0.4-0.4,0.6-0.7c0-0.1,0.1-0.3,0.1-0.4l0.1-1.6C43.7,69.2,43.7,69,43.7,68.9z"/>
		</g>
		<g>
			<path class="st0" d="M42.9,75.4c-0.5,0.3-1,0.6-1.6,0.7c-1.6,0.5-3.3,0.7-5,0.6c-0.8,0-1.7-0.1-2.5-0.2c-0.6-0.1-1-0.2-1.5-0.3
				L31.5,76c-0.7-0.2-1.4-0.6-2-1c-0.2-0.2-0.4-0.4-0.5-0.6v0.7c0,0.2,0,1,0,1c0,0.4,0.2,0.8,0.6,1.1c1.2,0.8,2.5,1.3,3.9,1.5
				c1,0.1,1.9,0.2,2.9,0.2c1.4,0,2.8-0.2,4.2-0.5l0,0c0.7-0.2,1.4-0.4,2.1-0.8l0,0c0.7-0.4,1.1-0.9,1.1-1.4c0,0,0.1-1.5,0-1.6
				C43.4,74.9,43.2,75.2,42.9,75.4z"/>
		</g>
		<g>
			<path class="st0" d="M29.5,74.6c1.2,0.8,2.5,1.3,3.9,1.5c1,0.1,1.9,0.2,2.9,0.2c1.4,0,2.8-0.2,4.1-0.5l0,0
				c0.7-0.2,1.4-0.4,2.1-0.8l0,0c0.2-0.1,0.3-0.2,0.5-0.3c0.2-0.2,0.4-0.4,0.6-0.7c0-0.1,0.1-0.3,0.1-0.4c0,0,0-1.5,0-1.6
				c-0.2,0.3-0.9,1.3-3.8,1.9c-1.2,0.2-2.5,0.3-3.8,0.3c-2.4,0-4.8-0.5-5.9-1.2c-0.3-0.2-0.7-0.4-0.9-0.6c-0.2-0.2-0.3-0.4-0.5-0.6
				v0.7v1.1C28.8,74,29.1,74.4,29.5,74.6z"/>
		</g>
		<g>
			<path class="st0" d="M43.8,79.9c-0.2,0.3-0.6,0.6-0.9,0.8c-0.5,0.3-1,0.6-1.6,0.7c-1.6,0.5-3.4,0.7-5.1,0.6
				c-0.8,0-1.7-0.1-2.5-0.2c-0.6-0.1-1-0.2-1.5-0.3c-0.3-0.1-0.5-0.1-0.8-0.2c-0.7-0.2-1.4-0.5-2-0.9c-0.2-0.2-0.4-0.4-0.5-0.6v0.7
				c0,0.2,0,1,0,1c0,0.4,0.2,0.8,0.6,1.1c1.2,0.8,2.6,1.3,4,1.4c1,0.1,1.9,0.2,2.9,0.2c1.4,0,2.8-0.1,4.1-0.5l0,0
				c0.7-0.2,1.4-0.4,2.1-0.8l0,0c0.7-0.4,1.1-0.9,1.1-1.4C43.8,81.5,43.8,80,43.8,79.9z"/>
		</g>
		<g>
			<path class="st0" d="M33.4,81.4c1,0.1,1.9,0.2,2.9,0.2c1.4,0,2.8-0.1,4.1-0.5l0,0c0.7-0.2,1.4-0.4,2.1-0.8l0,0
				c0.2-0.1,0.3-0.2,0.5-0.3c0.2-0.2,0.4-0.4,0.6-0.7c0.1-0.1,0.1-0.2,0.1-0.4c0,0,0-1.5,0-1.6c-0.2,0.3-0.9,1.3-3.8,1.9
				c-1.2,0.2-2.5,0.3-3.8,0.3c-2.4,0-4.8-0.5-5.9-1.2c-0.3-0.2-0.6-0.4-0.9-0.6c-0.2-0.2-0.3-0.4-0.5-0.6c0,0,0,0.7,0,0.8V79
				c0,0.4,0.3,0.8,0.6,1C30.6,80.7,32,81.3,33.4,81.4z"/>
		</g>
	</g>
	<g>
		<path class="st1" d="M98.2,180.8h-95v-58.7h95V180.8z M4.2,179.8h93v-56.7h-93C4.2,123.1,4.2,179.8,4.2,179.8z"/>
	</g>
</g>
</svg>
