<?xml version="1.0" encoding="utf-8"?>
<!-- Generator: Adobe Illustrator 22.0.1, SVG Export Plug-In . SVG Version: 6.00 Build 0)  -->
<svg version="1.1" id="Layer_1" xmlns="http://www.w3.org/2000/svg" xmlns:xlink="http://www.w3.org/1999/xlink" x="0px" y="0px"
	 viewBox="0 0 101.5 175.1" style="enable-background:new 0 0 101.5 175.1;" xml:space="preserve">
<style type="text/css">
	.st0{fill:#FFFFFF;}
	.st1{fill:#DD1367;}
	.st2{enable-background:new    ;}
</style>
<title>TARGET 1 B copy 4</title>
<g id="WHITE_BG">
	<g>
		<rect y="0" class="st0" width="101.5" height="175.2"/>
	</g>
</g>
<g id="TARGETS">
	<g>
		<g>
			<path class="st1" d="M7,132.2v-6.4h1v6.4H7z"/>
		</g>
		<g>
			<path class="st1" d="M12.5,131.3h-0.9l-1.6-3.9v4.8H9.1v-6.4h1.2l1.7,4.3l1.7-4.3H15v6.4h-1v-4.8L12.5,131.3z"/>
		</g>
		<g>
			<path class="st1" d="M16.9,132.2h-1v-6.4h2c1.6,0,2.2,1,2.2,2c0,1-0.6,2-2.2,2h-1V132.2z M16.9,128.9H18c0.6,0.1,1.2-0.4,1.2-1
				s-0.4-1.2-1-1.2c-0.1,0-0.1,0-0.2,0h-1.1V128.9z"/>
		</g>
		<g>
			<path class="st1" d="M21.6,132.2h-1v-6.4h2.1c1.6,0,2.2,0.7,2.2,1.9c0.1,0.7-0.3,1.4-1,1.7l1.3,2.8h-1.1l-1.2-2.6h-1.3V132.2z
				 M21.6,128.7h1.3c0.9,0,1-0.5,1-1s-0.1-1-1-1h-1.3V128.7z"/>
		</g>
		<g>
			<path class="st1" d="M25.6,129c0-1.8,0.4-3.3,2.5-3.3s2.5,1.5,2.5,3.3s-0.4,3.3-2.5,3.3S25.6,130.8,25.6,129z M26.6,129
				c0,1.5,0.3,2.4,1.5,2.4s1.5-0.9,1.5-2.4s-0.3-2.4-1.5-2.4S26.6,127.5,26.6,129L26.6,129z"/>
		</g>
		<g>
			<path class="st1" d="M35.8,125.8l-2,6.4h-1l-2-6.4h1l1.5,5.2l1.5-5.2L35.8,125.8z"/>
		</g>
		<g>
			<path class="st1" d="M39.9,129.3h-2.7v2h2.9v0.9h-3.9v-6.4h3.9v0.9h-2.9v1.8h2.7V129.3z"/>
		</g>
		<g>
			<path class="st1" d="M41,132.2v-6.4h1.9c2.1,0,2.7,1.4,2.7,3.2s-0.6,3.2-2.7,3.2L41,132.2z M42,131.3h1c1.3,0,1.7-0.9,1.7-2.3
				s-0.4-2.3-1.7-2.3h-1V131.3z"/>
		</g>
		<g>
			<path class="st1" d="M7.8,141.2h-1v-6.4H9c1.6,0,2.2,0.7,2.2,1.9c0.1,0.7-0.3,1.4-1,1.7l1.3,2.8h-1.2l-1.1-2.6H7.8V141.2z
				 M7.8,137.7h1.3c0.9,0,1-0.5,1-1s-0.1-1-1-1H7.8V137.7z"/>
		</g>
		<g>
			<path class="st1" d="M15.7,138.3H13v2h3v0.9h-3.9v-6.4H16v0.9h-3v1.8h2.7L15.7,138.3z"/>
		</g>
		<g>
			<path class="st1" d="M16.6,138c0-2,0.7-3.3,2.6-3.3c0.6,0,1.3,0.1,1.8,0.3v1c-0.5-0.2-1.1-0.4-1.7-0.4c-1.3,0-1.8,0.9-1.8,2.4
				s0.5,2.4,1.8,2.4c0.3,0,0.6,0,0.9-0.1v-1.7h-1.1v-0.9h2.1v3.2c-0.6,0.3-1.3,0.4-2,0.4C17.3,141.3,16.6,140,16.6,138z"/>
		</g>
		<g>
			<path class="st1" d="M22,139.2v-4.4h1v4.3c-0.1,0.7,0.4,1.3,1,1.3c0.1,0,0.2,0,0.3,0c0.6,0.1,1.3-0.3,1.4-1c0-0.1,0-0.2,0-0.3
				v-4.3h1v4.4c0,1.1-0.8,2.1-2,2.1c-0.1,0-0.2,0-0.3,0c-1.1,0.1-2.2-0.7-2.3-1.8C22,139.4,22,139.3,22,139.2z"/>
		</g>
		<g>
			<path class="st1" d="M28.3,140.3h2.8v0.9h-3.7v-6.4h1L28.3,140.3z"/>
		</g>
		<g>
			<path class="st1" d="M34.8,139.6h-2l-0.5,1.6h-1l2-6.4h1l2,6.4h-1L34.8,139.6z M33.8,136l-0.8,2.8h1.6L33.8,136z"/>
		</g>
		<g>
			<path class="st1" d="M38.3,135.7v5.5h-1v-5.5h-1.6v-0.9H40v0.9H38.3z"/>
		</g>
		<g>
			<path class="st1" d="M40.7,141.2v-6.4h1v6.4H40.7z"/>
		</g>
		<g>
			<path class="st1" d="M42.6,138c0-1.8,0.4-3.3,2.5-3.3s2.5,1.5,2.5,3.3s-0.4,3.3-2.5,3.3S42.6,139.8,42.6,138z M43.6,138
				c0,1.5,0.3,2.4,1.5,2.4s1.5-0.9,1.5-2.4s-0.3-2.4-1.5-2.4S43.6,136.5,43.6,138L43.6,138z"/>
		</g>
		<g>
			<path class="st1" d="M52,141.2l-2.8-4.5v4.5h-0.9v-6.4h0.9l2.8,4.5v-4.5h0.9v6.4H52z"/>
		</g>
		<g>
			<path class="st1" d="M55.1,138c0-1.8,0.4-3.3,2.5-3.3s2.5,1.5,2.5,3.3s-0.4,3.3-2.5,3.3S55.1,139.8,55.1,138z M56.1,138
				c0,1.5,0.3,2.4,1.5,2.4s1.5-0.9,1.5-2.4s-0.3-2.4-1.5-2.4S56,136.5,56.1,138L56.1,138z"/>
		</g>
		<g>
			<path class="st1" d="M64.2,138.4h-2.6v2.8h-1v-6.4h3.8v0.9h-2.9v1.8h2.6V138.4z"/>
		</g>
		<g>
			<path class="st1" d="M6.8,147c0-2,0.7-3.3,2.6-3.3c0.6,0,1.3,0.1,1.8,0.3v1c-0.5-0.2-1.1-0.4-1.7-0.4c-1.3,0-1.8,0.9-1.8,2.4
				s0.5,2.4,1.8,2.4c0.3,0,0.6,0,0.9-0.1v-1.7H9.3v-0.9h2.1v3.2c-0.6,0.3-1.3,0.4-2,0.4C7.5,150.3,6.8,149,6.8,147z"/>
		</g>
		<g>
			<path class="st1" d="M13.3,149.3h2.8v0.9h-3.7v-6.4h0.9V149.3z"/>
		</g>
		<g>
			<path class="st1" d="M16.1,147c0-1.8,0.4-3.3,2.5-3.3s2.5,1.5,2.5,3.3s-0.4,3.3-2.5,3.3S16.1,148.8,16.1,147z M17.1,147
				c0,1.5,0.3,2.4,1.5,2.4s1.5-0.9,1.5-2.4s-0.3-2.4-1.5-2.4S17,145.5,17.1,147L17.1,147z"/>
		</g>
		<g>
			<path class="st1" d="M21.7,143.8h2.1c1.6,0,2,0.8,2,1.7c0,0.5-0.3,1-0.8,1.3c0.6,0.2,1.1,0.8,1,1.5c0,1.1-0.5,1.9-2.2,1.9h-2.2
				V143.8z M23.9,144.7h-1.2v1.8h1.2c0.8,0,1-0.5,1-0.9S24.7,144.7,23.9,144.7z M22.7,149.3H24c0.9,0,1.1-0.5,1.1-1s-0.3-1-1.1-1
				h-1.3V149.3z"/>
		</g>
		<g>
			<path class="st1" d="M29.9,148.6h-2l-0.5,1.6h-1l2-6.4h1l2,6.4h-1L29.9,148.6z M28.9,145l-0.9,2.8h1.6L28.9,145z"/>
		</g>
		<g>
			<path class="st1" d="M32.8,149.3h2.8v0.9h-3.7v-6.4h1L32.8,149.3z"/>
		</g>
		<g>
			<path class="st1" d="M41.1,147.4h-2.6v2.8h-1v-6.4h3.8v0.9h-2.9v1.8h2.6V147.4z"/>
		</g>
		<g>
			<path class="st1" d="M42.1,150.2v-6.4h1v6.4H42.1z"/>
		</g>
		<g>
			<path class="st1" d="M47.9,150.2l-2.8-4.5v4.5h-0.9v-6.4H45l2.8,4.5v-4.5h1v6.4H47.9z"/>
		</g>
		<g>
			<path class="st1" d="M52.8,148.6h-2l-0.5,1.6h-1l2-6.4h1l2,6.4h-1L52.8,148.6z M51.8,145l-0.8,2.8h1.6L51.8,145z"/>
		</g>
		<g>
			<path class="st1" d="M58.5,150.2l-2.8-4.5v4.5h-0.9v-6.4h0.9l2.8,4.5v-4.5h0.9v6.4H58.5z"/>
		</g>
		<g>
			<path class="st1" d="M62.8,143.7c0.5,0,1,0.1,1.5,0.3v0.9c-0.4-0.2-0.9-0.3-1.4-0.3c-1.2,0-1.7,0.8-1.7,2.4s0.5,2.4,1.7,2.4
				c0.5,0,1-0.1,1.4-0.3v0.9c-0.5,0.2-1,0.3-1.5,0.3c-1.9,0-2.6-1.2-2.6-3.3S61,143.7,62.8,143.7z"/>
		</g>
		<g>
			<path class="st1" d="M65.3,150.2v-6.4h1v6.4H65.3z"/>
		</g>
		<g>
			<path class="st1" d="M70.5,148.6h-2l-0.5,1.6h-1l2-6.4h1l2,6.4h-1L70.5,148.6z M69.5,145l-0.8,2.8h1.6L69.5,145z"/>
		</g>
		<g>
			<path class="st1" d="M73.4,149.3h2.8v0.9h-3.7v-6.4h1L73.4,149.3z"/>
		</g>
		<g>
			<path class="st1" d="M10.3,158.3H9.4l-1.6-3.9v4.8h-1v-6.4h1.3l1.7,4.3l1.7-4.3h1.2v6.4h-0.9v-4.8L10.3,158.3z"/>
		</g>
		<g>
			<path class="st1" d="M16.8,157.6h-2l-0.4,1.6h-1l2-6.4h1l2,6.4h-1L16.8,157.6z M15.8,154l-0.8,2.8h1.6L15.8,154z"/>
		</g>
		<g>
			<path class="st1" d="M19.8,159.2h-1v-6.4h2.1c1.6,0,2.2,0.7,2.2,1.9c0.1,0.7-0.3,1.4-1,1.7l1.3,2.8h-1.2l-1.1-2.6h-1.3V159.2z
				 M19.8,155.7h1.3c0.9,0,1-0.5,1-1s-0.1-1-1-1h-1.3V155.7z"/>
		</g>
		<g>
			<path class="st1" d="M25.5,156.4L25,157v2.2h-1v-6.4h1v3l2.3-3h1.2l-2.4,2.8l2.6,3.6h-1.2L25.5,156.4z"/>
		</g>
		<g>
			<path class="st1" d="M32.7,156.3h-2.7v2H33v0.9h-3.9v-6.4H33v0.9h-2.9v1.8h2.7V156.3z"/>
		</g>
		<g>
			<path class="st1" d="M36,153.7v5.5h-1v-5.5h-1.6v-0.9h4.3v0.9H36z"/>
		</g>
		<g>
			<path class="st1" d="M42.4,157.3c0,1.2-0.7,2-2.4,2c-0.6,0-1.3-0.1-1.9-0.4V158c0.6,0.3,1.2,0.4,1.8,0.4c1.2,0,1.5-0.5,1.5-1.1
				s-0.3-0.9-1.2-1c-1.5-0.2-2.2-0.6-2.2-1.8c0-0.9,0.5-1.8,2.3-1.8c0.6,0,1.2,0.1,1.7,0.3v1c-0.5-0.2-1.1-0.3-1.7-0.3
				c-1,0-1.3,0.4-1.3,1s0.4,0.8,1.2,0.9C41.6,155.7,42.4,156,42.4,157.3z"/>
		</g>
		<g>
			<path class="st1" d="M47.8,157.6h-2l-0.5,1.6h-1l2-6.4h1l2,6.4h-1L47.8,157.6z M46.8,154l-0.8,2.8h1.6L46.8,154z"/>
		</g>
		<g>
			<path class="st1" d="M53.5,159.2l-2.8-4.5v4.5h-0.9v-6.4h0.9l2.8,4.5v-4.5h1v6.4H53.5z"/>
		</g>
		<g>
			<path class="st1" d="M55.3,159.2v-6.4h1.9c2.1,0,2.7,1.4,2.7,3.2s-0.6,3.2-2.7,3.2H55.3z M56.3,158.3h1c1.3,0,1.7-0.9,1.7-2.3
				s-0.4-2.3-1.7-2.3h-1V158.3z"/>
		</g>
		<g>
			<path class="st1" d="M7,168.2v-6.4h1v6.4H7z"/>
		</g>
		<g>
			<path class="st1" d="M12.8,168.2l-2.8-4.5v4.5H9.1v-6.4h0.9l2.8,4.5v-4.5h0.9v6.4H12.8z"/>
		</g>
		<g>
			<path class="st1" d="M18.8,166.3c0,1.2-0.7,2-2.4,2c-0.6,0-1.3-0.1-1.9-0.4V167c0.6,0.3,1.2,0.4,1.8,0.4c1.1,0,1.5-0.5,1.5-1.1
				s-0.3-0.9-1.1-1c-1.6-0.2-2.2-0.6-2.2-1.8c0-0.9,0.5-1.8,2.3-1.8c0.6,0,1.2,0.1,1.7,0.3v1c-0.5-0.2-1.1-0.3-1.7-0.3
				c-1,0-1.3,0.4-1.3,1s0.4,0.8,1.2,0.9C18,164.7,18.8,165,18.8,166.3z"/>
		</g>
		<g>
			<path class="st1" d="M21.5,162.7v5.5h-1v-5.5h-1.7v-0.9h4.3v0.9H21.5z"/>
		</g>
		<g>
			<path class="st1" d="M23.8,168.2v-6.4h1v6.4H23.8z"/>
		</g>
		<g>
			<path class="st1" d="M28,162.7v5.5h-1v-5.5h-1.6v-0.9h4.3v0.9H28z"/>
		</g>
		<g>
			<path class="st1" d="M30.2,166.2v-4.4h1v4.3c-0.1,0.7,0.4,1.2,1,1.3c0.1,0,0.2,0,0.3,0c0.7,0.1,1.3-0.4,1.4-1c0-0.1,0-0.2,0-0.3
				v-4.3h1v4.4c0.1,1.1-0.8,2.1-1.9,2.1c-0.1,0-0.3,0-0.4,0c-1.1,0.2-2.1-0.5-2.3-1.6C30.2,166.5,30.2,166.4,30.2,166.2z"/>
		</g>
		<g>
			<path class="st1" d="M37.9,162.7v5.5H37v-5.5h-1.7v-0.9h4.3v0.9H37.9z"/>
		</g>
		<g>
			<path class="st1" d="M40.2,168.2v-6.4h1v6.4H40.2z"/>
		</g>
		<g>
			<path class="st1" d="M42.1,165c0-1.8,0.4-3.3,2.5-3.3s2.5,1.5,2.5,3.3s-0.4,3.3-2.5,3.3S42.1,166.8,42.1,165z M43.1,165
				c0,1.5,0.3,2.4,1.5,2.4s1.4-0.9,1.4-2.4s-0.3-2.4-1.5-2.4S43.1,163.5,43.1,165L43.1,165z"/>
		</g>
		<g>
			<path class="st1" d="M51.4,168.2l-2.8-4.5v4.5h-0.9v-6.4h0.9l2.8,4.5v-4.5h1v6.4H51.4z"/>
		</g>
		<g>
			<path class="st1" d="M57.4,166.3c0,1.2-0.7,2-2.4,2c-0.6,0-1.3-0.1-1.9-0.4V167c0.6,0.3,1.2,0.4,1.8,0.4c1.2,0,1.5-0.5,1.5-1.1
				s-0.3-0.9-1.2-1c-1.5-0.2-2.2-0.6-2.2-1.8c0-0.9,0.5-1.8,2.3-1.8c0.6,0,1.2,0.1,1.7,0.3v1c-0.5-0.2-1.1-0.3-1.7-0.3
				c-1,0-1.3,0.4-1.3,1s0.4,0.8,1.2,0.9C56.6,164.7,57.4,165,57.4,166.3z"/>
		</g>
	</g>
	<g>
		<path class="st1" d="M98.2,171.9h-95v-49.7h95V171.9z M4.2,170.9h93v-47.7h-93V170.9z"/>
	</g>
	<g>
		<rect x="3.3" y="24" class="st1" width="94.8" height="94.8"/>
	</g>
	<g>
		<path class="st1" d="M98.2,20.7H3.3V3.3h94.8V20.7z M4.3,19.7h92.8V4.3H4.3L4.3,19.7z"/>
	</g>
	<g class="st2">
		<path class="st1" d="M6.7,6.9h4.5v1.4H9.9v8.8H8.1V8.3H6.7V6.9z"/>
	</g>
	<g class="st2">
		<path class="st1" d="M11.2,17.1l1.9-10.2h1.9L17,17.1h-1.8l-0.3-1.9h-1.8l-0.3,1.9H11.2z M13.3,13.9h1.4L14,9.8h0L13.3,13.9z"/>
	</g>
	<g class="st2">
		<path class="st1" d="M19.6,12.4v4.7h-1.7V6.9h2.5c1.7,0,2.4,0.9,2.4,2.3v1.3c0,1.1-0.4,1.7-1.4,2l1.6,4.6h-1.8L19.6,12.4z
			 M19.6,8.3v3.2h0.6c0.6,0,0.8-0.3,0.8-0.8V9.2c0-0.6-0.3-0.8-0.8-0.8H19.6z"/>
	</g>
	<g class="st2">
		<path class="st1" d="M26.4,11.7h2.4v5.4h-1.2V16c-0.2,0.8-0.7,1.2-1.6,1.2c-1.5,0-2.1-1.2-2.1-2.7V9.6c0-1.6,0.8-2.7,2.6-2.7
			c1.9,0,2.4,1.1,2.4,2.6v0.9h-1.6v-1c0-0.6-0.2-1-0.9-1c-0.6,0-0.9,0.4-0.9,1v5.5c0,0.6,0.3,1,0.8,1c0.6,0,0.8-0.3,0.8-1V13h-0.8
			V11.7z"/>
	</g>
	<g class="st2">
		<path class="st1" d="M30.2,6.9h4.1v1.4h-2.4v2.9h1.7v1.4h-1.7v3.1h2.4v1.4h-4.1V6.9z"/>
	</g>
	<g class="st2">
		<path class="st1" d="M35.1,6.9h4.5v1.4h-1.4v8.8h-1.7V8.3h-1.4V6.9z"/>
	</g>
	<g class="st2">
		<path class="st1" d="M77.5,6.9v10.2h-1.7V9.3h0l-1.2,1.2h0V8.8l1.6-1.8H77.5z"/>
		<path class="st1" d="M78.9,14.5V9.6c0-1.6,0.8-2.7,2.5-2.7c1.7,0,2.5,1.2,2.5,2.7v4.9c0,1.6-0.8,2.7-2.5,2.7
			C79.7,17.2,78.9,16.1,78.9,14.5z M82.2,14.8V9.3c0-0.6-0.2-1-0.8-1c-0.6,0-0.8,0.4-0.8,1v5.5c0,0.6,0.2,1,0.8,1
			C82,15.8,82.2,15.4,82.2,14.8z"/>
	</g>
	<g class="st2">
	</g>
	<g class="st2">
		<path class="st1" d="M86.7,10.8c0.7,0,1.2,0.6,1.2,1.2c0,0.7-0.6,1.2-1.2,1.2c-0.7,0-1.2-0.6-1.2-1.2C85.5,11.4,86,10.8,86.7,10.8
			z"/>
	</g>
	<g class="st2">
		<path class="st1" d="M94.4,12.4v2.5c0,1.4-0.7,2.3-2.4,2.3c-1.7,0-2.4-1-2.4-2.5v-1.2h1.6v1.3c0,0.6,0.2,1,0.8,1
			c0.5,0,0.7-0.4,0.7-0.9v-2.5c0-0.6-0.2-0.9-0.7-0.9c-0.5,0-0.8,0.3-0.8,0.9v0.2h-1.6V6.9h4.5v1.4h-2.9v2.5h0
			c0.3-0.5,0.8-0.7,1.4-0.7C93.5,10.2,94.4,10.8,94.4,12.4z"/>
	</g>
	<g>
		<g>
			<polygon class="st0" points="30,47.3 27.1,47.3 27.1,102.2 66.4,102.2 66.4,98.9 30,98.9 			"/>
		</g>
		<g>
			<path class="st0" d="M33,40.8v54.8h39.3V40.8H33z M52.7,46c6.7,0,12.2,5.5,12.2,12.2s-5.5,12.2-12.2,12.2s-12.2-5.5-12.2-12.2
				l0,0C40.5,51.5,45.9,46,52.7,46C52.7,46,52.7,46,52.7,46z M67.5,88.1c0,0.1-0.1,0.2-0.3,0.2h-29c-0.2,0-0.3-0.1-0.3-0.2v-4.7
				c0-0.1,0.1-0.2,0.3-0.2h29c0.2,0,0.3,0.1,0.3,0.2V88.1z M67.5,80c0,0.1-0.1,0.2-0.3,0.2h-29c-0.2,0-0.3-0.1-0.3-0.2v-4.6
				c0-0.1,0.1-0.2,0.3-0.2h29c0.2,0,0.3,0.1,0.3,0.2V80z"/>
		</g>
		<g>
			<path class="st0" d="M52.7,70.1c6.5,0,11.8-5.4,11.8-11.9s-5.4-11.8-11.9-11.8c-6.5,0-11.8,5.3-11.8,11.8
				c0,6.5,5.2,11.9,11.8,11.9C52.6,70.1,52.6,70.1,52.7,70.1z M52.7,47.1c6.1,0,11.1,5,11.1,11.1s-5,11.1-11.1,11.1
				s-11.1-5-11.1-11.1l0,0C41.6,52,46.6,47.1,52.7,47.1z"/>
		</g>
		<g>
			<path class="st0" d="M52.7,68.4c5.6,0,10.2-4.6,10.2-10.2c0-5.6-4.6-10.2-10.2-10.2c-5.6,0-10.2,4.6-10.2,10.2l0,0
				c0,5.6,4.5,10.2,10,10.2C52.6,68.4,52.6,68.4,52.7,68.4z M55.9,57c-0.1,0-0.1,0-0.2-0.1l0,0v-0.6h1.6v0.6c0,0.1-0.1,0.2-0.2,0.2
				l0,0v3.8h-1.2C55.9,60.9,55.9,57,55.9,57z M52.7,55.8h-5v-0.3h10v0.4L52.7,55.8z M52.1,57c-0.1,0-0.1,0-0.2-0.1l0,0v-0.6h1.6v0.6
				c0,0.1,0,0.1-0.1,0.2l0,0v3.8h-1.3V57z M48.3,57c-0.1,0-0.2-0.1-0.2-0.2v-0.6h1.6v0.6c0,0.1,0,0.1-0.1,0.2l0,0v3.8h-1.2L48.3,57z
				 M52.8,55.1h-5.3l-0.2-0.2c-0.1,0-0.1-0.1,0-0.2l0,0l5.5-2.1l5.6,2.1c0.1,0.1,0.1,0.2,0,0.2l0,0l-0.3,0.2H52.8z M47.4,61.9h0.4
				v-0.6c0-0.1,0-0.1,0.1-0.1h9.8c0.1,0,0.1,0,0.1,0.1v0.6h0.4v0.6H47.4V61.9z M48.6,66.2c-0.1,0.1-0.2,0.2-0.3,0.2h-0.1
				c-0.1,0-0.2,0-0.2-0.1c-0.2-0.1-0.3-0.5-0.2-0.7c0.1-0.2,0.5-0.3,0.7-0.2C48.7,65.7,48.8,66,48.6,66.2z M50.1,66.8
				c-0.1,0.2-0.3,0.3-0.5,0.3h-0.2c-0.2-0.1-0.4-0.4-0.3-0.6c0.1-0.2,0.4-0.4,0.6-0.3c0.1,0,0.2,0.1,0.3,0.2
				C50.1,66.5,50.1,66.7,50.1,66.8z M51.1,67.6L51.1,67.6c-0.2,0-0.3-0.1-0.4-0.2c-0.1-0.1-0.1-0.2-0.1-0.4s0.1-0.2,0.2-0.3
				s0.2-0.1,0.4-0.1s0.2,0.1,0.3,0.2s0.1,0.2,0.1,0.4C51.6,67.4,51.3,67.6,51.1,67.6z M52.7,67.7c-0.3,0-0.5-0.2-0.5-0.5
				s0.2-0.5,0.5-0.5s0.5,0.2,0.5,0.5C53.2,67.5,53,67.7,52.7,67.7C52.7,67.7,52.7,67.7,52.7,67.7z M54.7,67.3
				c-0.1,0.1-0.2,0.2-0.3,0.2h-0.1c-0.2,0-0.4-0.2-0.5-0.4c0-0.1,0-0.3,0.1-0.4c0.2-0.2,0.5-0.3,0.7-0.1c0,0,0,0,0,0
				c0.1,0.1,0.2,0.2,0.2,0.3S54.8,67.3,54.7,67.3z M56.3,66.9c-0.1,0.1-0.1,0.2-0.3,0.2h-0.2c-0.2,0-0.4-0.1-0.5-0.3v-0.4
				c0.1-0.1,0.2-0.2,0.3-0.2c0.2-0.1,0.5,0,0.6,0.2c0,0,0,0.1,0,0.1C56.3,66.6,56.3,66.8,56.3,66.9z M57.7,66.1
				c0,0.1-0.1,0.2-0.2,0.3c-0.1,0-0.1,0-0.2,0.1h-0.1c-0.3,0-0.5-0.3-0.4-0.6c0-0.3,0.3-0.5,0.6-0.4c0,0,0,0,0,0
				C57.6,65.6,57.8,65.9,57.7,66.1z M58.8,65.5c-0.1,0.1-0.2,0.1-0.3,0.1c-0.2,0-0.3-0.1-0.4-0.2c-0.2-0.2-0.1-0.5,0.1-0.7
				s0.5-0.1,0.7,0.1c0,0,0,0,0,0C59,64.9,59,65,59,65.1C59,65.3,58.9,65.4,58.8,65.5z M61,62.9c-0.1,0.1-0.2,0.2-0.3,0.2h-0.1
				c-0.1,0-0.2,0-0.2-0.1s-0.2-0.2-0.2-0.3v-0.4c0.1-0.1,0.2-0.2,0.3-0.2c0.2-0.1,0.5,0.1,0.6,0.3l0,0C61,62.6,61,62.7,61,62.9z
				 M61.7,61.4c-0.1,0.2-0.3,0.3-0.5,0.3H61c-0.2-0.1-0.4-0.4-0.3-0.6l0,0c0-0.1,0.1-0.2,0.2-0.3c0.1-0.1,0.3-0.1,0.4,0
				c0.1,0,0.2,0.1,0.3,0.2C61.7,61.1,61.7,61.3,61.7,61.4L61.7,61.4z M61.7,60.2L61.7,60.2c-0.4-0.1-0.5-0.3-0.5-0.6
				c0-0.1,0.1-0.2,0.2-0.3s0.2-0.1,0.4-0.1s0.4,0.3,0.4,0.6S61.9,60.3,61.7,60.2z M62.3,58.2c0,0.3-0.2,0.5-0.4,0.5c0,0,0,0-0.1,0
				c-0.1,0-0.3,0-0.3-0.1c-0.2-0.2-0.2-0.5,0-0.7c0,0,0,0,0,0l0,0c0.1-0.1,0.2-0.1,0.3-0.1C62,57.8,62.2,58,62.3,58.2z M62.1,56.5
				c0,0.1,0,0.3-0.1,0.4c-0.1,0.1-0.2,0.2-0.3,0.2h-0.5C61.1,57,61,56.9,61,56.8c0-0.1,0-0.3,0.1-0.4c0.1-0.1,0.2-0.2,0.3-0.2
				c0.1,0,0.3,0,0.4,0.1C62,56.4,62,56.5,62.1,56.5z M61.5,54.7c0.2,0.1,0.3,0.4,0.2,0.6l0,0c0,0.1-0.1,0.2-0.3,0.2H61
				c-0.1,0-0.2-0.1-0.2-0.3v-0.4c0.1-0.1,0.2-0.2,0.3-0.2C61.2,54.6,61.4,54.6,61.5,54.7L61.5,54.7z M60.3,53.3
				c0.1-0.1,0.2-0.1,0.4,0s0.2,0.1,0.3,0.2v0.4c0,0.1-0.1,0.2-0.2,0.3c-0.1,0-0.1,0-0.2,0.1h-0.1c-0.1,0-0.2-0.1-0.3-0.2v-0.4
				C60.1,53.5,60.2,53.4,60.3,53.3L60.3,53.3z M59.3,52.1c0.2-0.2,0.5-0.1,0.7,0.1c0,0,0,0,0,0c0.1,0.1,0.1,0.2,0.1,0.3
				c0,0.2-0.2,0.4-0.5,0.5c-0.3,0-0.5-0.2-0.5-0.4c0,0,0,0,0-0.1l0,0C59.1,52.3,59.2,52.2,59.3,52.1L59.3,52.1z M59.2,63.8
				c0.1-0.1,0.2-0.2,0.3-0.2c0.1,0,0.3,0,0.4,0.1c0.2,0.2,0.2,0.5,0.1,0.7c-0.1,0.1-0.2,0.2-0.3,0.2h-0.1c-0.1,0-0.2,0-0.3-0.1
				c-0.1-0.1-0.2-0.2-0.2-0.3S59.1,63.8,59.2,63.8L59.2,63.8z M58.1,51c0.2-0.2,0.5-0.2,0.7-0.1c0.1,0.1,0.2,0.2,0.2,0.3
				c0,0.1,0,0.3-0.1,0.4c-0.1,0.1-0.2,0.2-0.3,0.2l0,0c-0.1,0-0.2,0-0.3-0.1c-0.1-0.1-0.2-0.2-0.2-0.3S58,51.1,58.1,51z M56.8,50.2
				c0.2-0.2,0.4-0.3,0.7-0.2l0,0c0.1,0.1,0.2,0.2,0.2,0.3c0.1,0.1,0.1,0.3,0,0.4c-0.1,0.1-0.2,0.2-0.3,0.2h-0.1
				c-0.1,0-0.2,0-0.2-0.1s-0.2-0.2-0.2-0.3C56.7,50.4,56.7,50.3,56.8,50.2L56.8,50.2z M55.3,49.6c0-0.1,0.1-0.2,0.2-0.3
				c0.1-0.1,0.3-0.1,0.4,0c0.1,0,0.2,0.1,0.3,0.2v0.4c0,0.1-0.1,0.2-0.3,0.3h-0.4c-0.1,0-0.2-0.1-0.3-0.2
				C55.2,49.8,55.2,49.7,55.3,49.6L55.3,49.6z M54.3,48.9c0.3,0,0.4,0.3,0.4,0.6l0,0c0,0.1-0.1,0.2-0.2,0.3
				c-0.1,0.1-0.2,0.1-0.3,0.1h-0.1c-0.1,0-0.2-0.1-0.3-0.2s-0.1-0.2-0.1-0.4S54,48.8,54.3,48.9z M52.6,48.7c0.3,0,0.5,0.2,0.5,0.5
				s-0.2,0.5-0.5,0.5s-0.5-0.2-0.5-0.5l0,0C52.2,48.9,52.4,48.7,52.6,48.7z M51,48.9c0.1,0,0.3,0,0.4,0.1c0.1,0.1,0.2,0.2,0.2,0.3
				c0,0.3-0.1,0.5-0.4,0.6h-0.1c-0.1,0-0.2,0-0.3-0.1c-0.1-0.1-0.2-0.2-0.2-0.3C50.6,49.1,50.7,48.9,51,48.9z M49.4,49.3
				c0.1-0.1,0.3-0.1,0.4,0c0.1,0.1,0.2,0.2,0.2,0.3V50c-0.1,0.1-0.2,0.2-0.3,0.2h-0.4c-0.1-0.1-0.2-0.2-0.2-0.3
				C49.1,49.7,49.2,49.4,49.4,49.3z M47.9,50c0.2-0.1,0.6,0,0.7,0.2l0,0c0.1,0.1,0.1,0.2,0,0.4s-0.1,0.2-0.2,0.3
				c-0.1,0-0.1,0-0.2,0.1c-0.2,0-0.3-0.1-0.4-0.2C47.6,50.4,47.7,50.1,47.9,50z M46.5,50.9c0.1-0.1,0.2-0.1,0.4-0.1s0.5,0.2,0.4,0.5
				c0,0.1-0.1,0.3-0.2,0.3c-0.1,0.1-0.2,0.1-0.3,0.1c-0.2,0-0.3-0.1-0.4-0.2C46.3,51.4,46.4,51.1,46.5,50.9z M46.5,64.8
				c0.2-0.2,0.5-0.3,0.7-0.1c0.2,0.2,0.3,0.5,0.1,0.7c-0.1,0.1-0.2,0.2-0.4,0.2c-0.3,0-0.5-0.2-0.5-0.4c0,0,0,0,0-0.1
				C46.4,65,46.4,64.9,46.5,64.8z M45.4,52.1c0.1-0.1,0.2-0.2,0.3-0.2s0.3,0,0.3,0.1c0.2,0.2,0.2,0.5,0.1,0.7l0,0
				c-0.1,0.1-0.2,0.2-0.4,0.2c-0.1,0-0.2,0-0.3-0.1C45.3,52.6,45.2,52.3,45.4,52.1z M44.4,53.5c0.2-0.2,0.4-0.3,0.7-0.2l0,0
				c0.2,0.2,0.3,0.4,0.2,0.7c-0.1,0.2-0.2,0.2-0.4,0.2s-0.2,0-0.2-0.1C44.5,54,44.3,53.8,44.4,53.5C44.4,53.5,44.4,53.5,44.4,53.5z
				 M43.7,55c0.1-0.2,0.4-0.4,0.6-0.3l0,0c0.1,0,0.2,0.1,0.3,0.2v0.4c0,0.1-0.1,0.2-0.2,0.3H44C43.8,55.5,43.7,55.2,43.7,55L43.7,55
				z M43.8,56.2c0.1,0,0.2,0.1,0.3,0.2s0.1,0.2,0.1,0.4c0,0.2-0.3,0.4-0.5,0.4h-0.1c-0.3-0.1-0.4-0.3-0.4-0.6
				C43.3,56.3,43.6,56.1,43.8,56.2z M43.1,58.2c0-0.3,0.2-0.5,0.4-0.5c0,0,0,0,0.1,0l0,0c0.3,0,0.5,0.2,0.5,0.5s-0.2,0.5-0.5,0.5
				C43.4,58.7,43.2,58.5,43.1,58.2z M43.3,59.9c0-0.3,0.1-0.5,0.4-0.6c0.1,0,0.3,0,0.4,0.1c0.1,0.1,0.2,0.2,0.2,0.3
				c0,0.3-0.1,0.5-0.4,0.6h-0.1C43.5,60.3,43.3,60.1,43.3,59.9C43.3,59.9,43.3,59.9,43.3,59.9L43.3,59.9z M44.2,61.8
				c-0.2,0-0.4-0.1-0.5-0.3v-0.4c0-0.1,0.1-0.2,0.3-0.2c0.2-0.1,0.5,0.1,0.6,0.3C44.7,61.4,44.5,61.7,44.2,61.8L44.2,61.8z
				 M45.1,63.1c-0.1,0-0.1,0-0.2,0.1c-0.2,0-0.3-0.1-0.4-0.2c-0.1-0.2,0-0.6,0.2-0.7c0.3-0.2,0.5-0.1,0.7,0.2l0,0v0.4
				C45.3,63,45.2,63.1,45.1,63.1z M45.3,64c0-0.1,0.1-0.2,0.2-0.3c0.2-0.2,0.5-0.1,0.7,0.1c0,0,0,0,0,0l0,0c0.2,0.2,0.2,0.5,0,0.7
				c0,0,0,0,0,0l0,0c-0.1,0.1-0.2,0.1-0.3,0.1c-0.2,0-0.3-0.1-0.4-0.2C45.3,64.2,45.3,64.1,45.3,64z"/>
		</g>
	</g>
</g>
</svg>
