<?xml version="1.0" encoding="utf-8"?>
<!-- Generator: Adobe Illustrator 22.0.1, SVG Export Plug-In . SVG Version: 6.00 Build 0)  -->
<svg version="1.1" id="Layer_1" xmlns="http://www.w3.org/2000/svg" xmlns:xlink="http://www.w3.org/1999/xlink" x="0px" y="0px"
	 viewBox="0 0 101.5 157.1" style="enable-background:new 0 0 101.5 157.1;" xml:space="preserve">
<style type="text/css">
	.st0{fill:#FFFFFF;}
	.st1{fill:#DD1367;}
	.st2{enable-background:new    ;}
</style>
<title>TARGET 1 B copy 9</title>
<g id="WHITE_BG">
	<g>
		<rect y="0" class="st0" width="101.5" height="157.1"/>
	</g>
</g>
<g id="TARGETS">
	<g>
		<g>
			<path class="st1" d="M7.8,132.2h-1v-6.4H9c1.6,0,2.2,0.7,2.2,1.9c0.1,0.7-0.3,1.4-1,1.7l1.3,2.8h-1.2l-1.1-2.6H7.8V132.2z
				 M7.8,128.7h1.3c0.9,0,1-0.5,1-1s-0.1-1-1-1H7.8V128.7z"/>
		</g>
		<g>
			<path class="st1" d="M15.7,129.3H13v2h3v0.9h-3.9v-6.4H16v0.9h-3v1.8h2.7L15.7,129.3z"/>
		</g>
		<g>
			<path class="st1" d="M16.8,132.2v-6.4h1.9c2.1,0,2.7,1.4,2.7,3.2s-0.6,3.2-2.7,3.2L16.8,132.2z M17.8,131.3h1
				c1.3,0,1.7-0.9,1.7-2.3s-0.4-2.3-1.7-2.3h-1V131.3z"/>
		</g>
		<g>
			<path class="st1" d="M22.1,130.2v-4.4H23v4.3c-0.1,0.7,0.4,1.2,1,1.3c0.1,0,0.2,0,0.3,0c0.6,0.1,1.3-0.3,1.4-1c0-0.1,0-0.2,0-0.3
				v-4.3h1v4.4c0,1.1-0.8,2.1-2,2.1c-0.1,0-0.2,0-0.3,0c-1.1,0.2-2.2-0.6-2.3-1.7C22.1,130.4,22.1,130.3,22.1,130.2z"/>
		</g>
		<g>
			<path class="st1" d="M30,125.7c0.5,0,1,0.1,1.5,0.3v0.9c-0.4-0.2-0.9-0.3-1.4-0.3c-1.2,0-1.7,0.8-1.7,2.4s0.5,2.4,1.7,2.4
				c0.5,0,1-0.1,1.4-0.3v0.9c-0.5,0.2-1,0.3-1.5,0.3c-1.9,0-2.6-1.2-2.6-3.3S28.1,125.7,30,125.7z"/>
		</g>
		<g>
			<path class="st1" d="M36,129.3h-2.7v2h2.9v0.9h-3.9v-6.4h3.9v0.9h-2.9v1.8H36V129.3z"/>
		</g>
		<g>
			<path class="st1" d="M40.5,126.7v5.5h-1v-5.5h-1.6v-0.9h4.3v0.9H40.5z"/>
		</g>
		<g>
			<path class="st1" d="M43.8,132.2h-1v-6.4h2.1c1.7,0,2.2,0.7,2.2,1.9c0.1,0.7-0.3,1.4-1,1.7l1.3,2.8h-1.1l-1.2-2.6h-1.3V132.2z
				 M43.8,128.7H45c0.9,0,1-0.5,1-1s-0.1-1-1-1h-1.2V128.7z"/>
		</g>
		<g>
			<path class="st1" d="M51.1,130.6h-2l-0.5,1.6h-1l2-6.4h1l2,6.4h-1L51.1,130.6z M50.1,127l-0.8,2.8H51L50.1,127z"/>
		</g>
		<g>
			<path class="st1" d="M56.8,132.2l-2.8-4.5v4.5h-0.9v-6.4H54l2.8,4.5v-4.5h0.9v6.4H56.8z"/>
		</g>
		<g>
			<path class="st1" d="M62.8,130.3c0,1.2-0.7,2-2.4,2c-0.6,0-1.3-0.1-1.9-0.4V131c0.6,0.3,1.2,0.4,1.8,0.4c1.1,0,1.5-0.5,1.5-1.1
				s-0.3-0.9-1.2-1c-1.6-0.2-2.2-0.6-2.2-1.8c0-0.9,0.5-1.8,2.3-1.8c0.6,0,1.2,0.1,1.7,0.3v1c-0.5-0.2-1.1-0.3-1.7-0.3
				c-1,0-1.3,0.4-1.3,1c0,0.7,0.4,0.8,1.2,0.9C62,128.7,62.8,129,62.8,130.3z"/>
		</g>
		<g>
			<path class="st1" d="M66.5,130.6h-2l-0.4,1.6H63l2-6.4h1l2,6.4h-1L66.5,130.6z M65.5,127l-0.8,2.8h1.6L65.5,127z"/>
		</g>
		<g>
			<path class="st1" d="M70.9,125.7c0.5,0,1,0.1,1.5,0.3v0.9c-0.5-0.2-0.9-0.3-1.4-0.3c-1.2,0-1.7,0.8-1.7,2.4s0.5,2.4,1.7,2.4
				c0.5,0,1-0.1,1.4-0.3v0.9c-0.5,0.2-1,0.3-1.5,0.3c-1.9,0-2.6-1.2-2.6-3.3S69,125.7,70.9,125.7z"/>
		</g>
		<g>
			<path class="st1" d="M75.3,126.7v5.5h-0.9v-5.5h-1.7v-0.9H77v0.9H75.3z"/>
		</g>
		<g>
			<path class="st1" d="M77.8,132.2v-6.4h1v6.4H77.8z"/>
		</g>
		<g>
			<path class="st1" d="M79.8,129c0-1.8,0.4-3.3,2.5-3.3s2.4,1.5,2.4,3.3s-0.4,3.3-2.4,3.3S79.8,130.8,79.8,129z M80.8,129
				c0,1.5,0.3,2.4,1.5,2.4s1.5-0.9,1.5-2.4s-0.3-2.4-1.5-2.4S80.7,127.5,80.8,129L80.8,129z"/>
		</g>
		<g>
			<path class="st1" d="M89.2,132.2l-2.8-4.5v4.5h-0.9v-6.4h0.9l2.8,4.5v-4.5h0.9v6.4H89.2z"/>
		</g>
		<g>
			<path class="st1" d="M9.4,134.7c0.5,0,1,0.1,1.5,0.3v0.9c-0.5-0.2-0.9-0.3-1.4-0.3c-1.2,0-1.7,0.8-1.7,2.4s0.5,2.4,1.7,2.4
				c0.5,0,1-0.1,1.4-0.3v0.9c-0.5,0.2-1,0.3-1.5,0.3c-1.9,0-2.6-1.2-2.6-3.3S7.5,134.7,9.4,134.7z"/>
		</g>
		<g>
			<path class="st1" d="M11.5,138c0-1.8,0.4-3.3,2.4-3.3s2.5,1.5,2.5,3.3s-0.5,3.3-2.5,3.3S11.5,139.8,11.5,138z M12.5,138
				c0,1.5,0.3,2.4,1.5,2.4s1.5-0.9,1.5-2.4s-0.3-2.4-1.5-2.4S12.5,136.5,12.5,138L12.5,138z"/>
		</g>
		<g>
			<path class="st1" d="M21.4,139.3c0,1.2-0.7,2-2.4,2c-0.6,0-1.3-0.1-1.9-0.4V140c0.6,0.3,1.2,0.4,1.8,0.4c1.1,0,1.5-0.5,1.5-1.1
				s-0.3-0.9-1.2-1c-1.5-0.2-2.2-0.6-2.2-1.8c0-0.9,0.5-1.8,2.3-1.8c0.6,0,1.1,0.1,1.7,0.3v1c-0.5-0.2-1.1-0.3-1.7-0.3
				c-1,0-1.3,0.4-1.3,1s0.4,0.8,1.2,0.9C20.6,137.7,21.4,138,21.4,139.3z"/>
		</g>
		<g>
			<path class="st1" d="M24.1,135.7v5.5h-1v-5.5h-1.6v-0.9h4.3v0.9H24.1z"/>
		</g>
		<g>
			<path class="st1" d="M30.5,139.3c0,1.2-0.7,2-2.4,2c-0.6,0-1.3-0.1-1.9-0.4V140c0.6,0.3,1.2,0.4,1.8,0.4c1.1,0,1.5-0.5,1.5-1.1
				s-0.3-0.9-1.1-1c-1.6-0.2-2.2-0.6-2.2-1.8c0-0.9,0.5-1.8,2.3-1.8c0.6,0,1.2,0.1,1.7,0.3v1c-0.5-0.2-1.1-0.3-1.7-0.3
				c-1,0-1.3,0.4-1.3,1s0.4,0.8,1.2,0.9C29.7,137.7,30.5,138,30.5,139.3z"/>
		</g>
		<g>
			<path class="st1" d="M36.2,138.4h-2.6v2.8h-1v-6.4h3.8v0.9h-2.8v1.8h2.6L36.2,138.4z"/>
		</g>
		<g>
			<path class="st1" d="M36.9,138c0-1.8,0.4-3.3,2.5-3.3s2.5,1.5,2.5,3.3s-0.4,3.3-2.5,3.3S36.9,139.8,36.9,138z M37.9,138
				c0,1.5,0.3,2.4,1.5,2.4s1.5-0.9,1.5-2.4s-0.3-2.4-1.5-2.4S37.9,136.5,37.9,138L37.9,138z"/>
		</g>
		<g>
			<path class="st1" d="M43.5,141.2h-1v-6.4h2.1c1.7,0,2.2,0.7,2.2,1.9c0.1,0.7-0.3,1.4-1,1.7l1.3,2.8H46l-1.2-2.6h-1.3V141.2z
				 M43.5,137.7h1.2c0.9,0,1-0.5,1-1s-0.1-1-1-1h-1.2V137.7z"/>
		</g>
		<g>
			<path class="st1" d="M52.5,140.3h-0.9l-1.6-3.9v4.8h-1v-6.4h1.2l1.7,4.3l1.7-4.3H55v6.4h-1v-4.8L52.5,140.3z"/>
		</g>
		<g>
			<path class="st1" d="M56.1,141.2v-6.4h1v6.4H56.1z"/>
		</g>
		<g>
			<path class="st1" d="M58.1,138c0-2,0.7-3.3,2.6-3.3c0.6,0,1.2,0.1,1.8,0.3v1c-0.5-0.2-1.1-0.4-1.7-0.4c-1.3,0-1.8,0.9-1.8,2.4
				s0.5,2.4,1.8,2.4c0.3,0,0.6,0,0.9-0.1v-1.7h-1.1v-0.9h2.1v3.2c-0.6,0.3-1.3,0.4-2,0.4C58.8,141.3,58.1,140,58.1,138z"/>
		</g>
		<g>
			<path class="st1" d="M64.5,141.2h-1v-6.4h2.1c1.6,0,2.2,0.7,2.2,1.9c0.1,0.7-0.3,1.4-1,1.7l1.3,2.8H67l-1.2-2.6h-1.3V141.2z
				 M64.5,137.7h1.3c0.9,0,1-0.5,1-1s-0.1-1-1-1h-1.3V137.7z"/>
		</g>
		<g>
			<path class="st1" d="M71.9,139.6h-2l-0.4,1.6h-1l2-6.4h1l2,6.4h-1L71.9,139.6z M70.9,136l-0.9,2.8h1.6L70.9,136z"/>
		</g>
		<g>
			<path class="st1" d="M77.6,141.2l-2.8-4.5v4.5h-0.9v-6.4h0.9l2.8,4.5v-4.5h0.9v6.4H77.6z"/>
		</g>
		<g>
			<path class="st1" d="M81.6,135.7v5.5h-1v-5.5H79v-0.9h4.3v0.9H81.6z"/>
		</g>
		<g>
			<path class="st1" d="M7.8,150.2h-1v-6.4H9c1.6,0,2.2,0.7,2.2,1.9c0.1,0.7-0.3,1.4-1,1.7l1.3,2.8h-1.2l-1.1-2.6H7.8V150.2z
				 M7.8,146.7h1.3c0.9,0,1-0.5,1-1s-0.1-1-1-1H7.8V146.7z"/>
		</g>
		<g>
			<path class="st1" d="M15.7,147.3H13v2h3v0.9h-3.9v-6.4H16v0.9h-3v1.8h2.7L15.7,147.3z"/>
		</g>
		<g>
			<path class="st1" d="M20.2,149.3h-0.9l-1.6-3.9v4.8h-0.9v-6.4H18l1.7,4.3l1.7-4.3h1.3v6.4h-1v-4.8L20.2,149.3z"/>
		</g>
		<g>
			<path class="st1" d="M23.8,150.2v-6.4h1v6.4H23.8z"/>
		</g>
		<g>
			<path class="st1" d="M28.1,144.7v5.5h-1v-5.5h-1.6v-0.9h4.3v0.9H28.1z"/>
		</g>
		<g>
			<path class="st1" d="M32.7,144.7v5.5h-1v-5.5H30v-0.9h4.3v0.9H32.7z"/>
		</g>
		<g>
			<path class="st1" d="M37.4,148.6h-2l-0.5,1.6h-1l2-6.4h1l2,6.4h-1L37.4,148.6z M36.4,145l-0.8,2.8h1.6L36.4,145z"/>
		</g>
		<g>
			<path class="st1" d="M43.1,150.2l-2.8-4.5v4.5h-0.9v-6.4h0.9l2.7,4.5v-4.5h1v6.4H43.1z"/>
		</g>
		<g>
			<path class="st1" d="M47.5,143.7c0.5,0,1.1,0.1,1.5,0.3v0.9c-0.5-0.2-0.9-0.3-1.4-0.3c-1.2,0-1.7,0.8-1.7,2.4s0.5,2.4,1.7,2.4
				c0.5,0,1-0.1,1.4-0.3v0.9c-0.5,0.2-1,0.3-1.5,0.3c-1.9,0-2.6-1.2-2.6-3.3S45.6,143.7,47.5,143.7z"/>
		</g>
		<g>
			<path class="st1" d="M53.4,147.3h-2.7v2h2.9v0.9h-3.9v-6.4h3.9v0.9h-2.9v1.8h2.7V147.3z"/>
		</g>
		<g>
			<path class="st1" d="M58.7,148.3c0,1.2-0.7,2-2.4,2c-0.6,0-1.3-0.1-1.9-0.4V149c0.6,0.3,1.2,0.4,1.8,0.4c1.2,0,1.5-0.5,1.5-1.1
				s-0.3-0.9-1.2-1c-1.5-0.2-2.2-0.6-2.2-1.8c0-0.9,0.5-1.8,2.3-1.8c0.6,0,1.2,0.1,1.7,0.3v1c-0.5-0.2-1.1-0.3-1.7-0.3
				c-1,0-1.3,0.4-1.3,1s0.4,0.8,1.2,0.9C57.9,146.7,58.7,147,58.7,148.3z"/>
		</g>
	</g>
	<g>
		<rect x="3.3" y="24" class="st1" width="94.8" height="94.8"/>
	</g>
	<g>
		<path class="st1" d="M98.2,20.7H3.3V3.3h94.8V20.7z M4.3,19.7h92.8V4.3H4.3L4.3,19.7z"/>
	</g>
	<g class="st2">
		<path class="st1" d="M6.7,6.9h4.5v1.4H9.9v8.8H8.1V8.3H6.7V6.9z"/>
	</g>
	<g class="st2">
		<path class="st1" d="M11.2,17.1l1.9-10.2h1.9L17,17.1h-1.8l-0.3-1.9h-1.8l-0.3,1.9H11.2z M13.3,13.9h1.4L14,9.8h0L13.3,13.9z"/>
	</g>
	<g class="st2">
		<path class="st1" d="M19.6,12.4v4.7h-1.7V6.9h2.5c1.7,0,2.4,0.9,2.4,2.3v1.3c0,1.1-0.4,1.7-1.4,2l1.6,4.6h-1.8L19.6,12.4z
			 M19.6,8.3v3.2h0.6c0.6,0,0.8-0.3,0.8-0.8V9.2c0-0.6-0.3-0.8-0.8-0.8H19.6z"/>
	</g>
	<g class="st2">
		<path class="st1" d="M26.4,11.7h2.4v5.4h-1.2V16c-0.2,0.8-0.7,1.2-1.6,1.2c-1.5,0-2.1-1.2-2.1-2.7V9.6c0-1.6,0.8-2.7,2.6-2.7
			c1.9,0,2.4,1.1,2.4,2.6v0.9h-1.6v-1c0-0.6-0.2-1-0.9-1c-0.6,0-0.9,0.4-0.9,1v5.5c0,0.6,0.3,1,0.8,1c0.6,0,0.8-0.3,0.8-1V13h-0.8
			V11.7z"/>
	</g>
	<g class="st2">
		<path class="st1" d="M30.2,6.9h4.1v1.4h-2.4v2.9h1.7v1.4h-1.7v3.1h2.4v1.4h-4.1V6.9z"/>
	</g>
	<g class="st2">
		<path class="st1" d="M35.1,6.9h4.5v1.4h-1.4v8.8h-1.7V8.3h-1.4V6.9z"/>
	</g>
	<g class="st2">
		<path class="st1" d="M89.4,14.5V9.6c0-1.6,0.8-2.7,2.5-2.7c1.9,0,2.4,1.1,2.4,2.6v1.2h-1.6V9.2c0-0.6-0.2-1-0.8-1
			c-0.6,0-0.9,0.4-0.9,1v5.5c0,0.6,0.3,1,0.9,1c0.6,0,0.8-0.4,0.8-1v-1.9h1.6v1.8c0,1.5-0.6,2.5-2.4,2.5
			C90.2,17.2,89.4,16.1,89.4,14.5z"/>
	</g>
	<g class="st2">
		<path class="st1" d="M76.8,6.9v10.2H75V9.3h0l-1.2,1.2h0V8.8l1.6-1.8H76.8z"/>
		<path class="st1" d="M78.2,14.5V9.5c0-1.6,0.8-2.7,2.5-2.7c1.7,0,2.5,1.2,2.5,2.7v4.9c0,1.6-0.8,2.7-2.5,2.7
			C79,17.2,78.2,16,78.2,14.5z M81.5,14.7V9.3c0-0.6-0.2-1-0.8-1c-0.6,0-0.8,0.4-0.8,1v5.5c0,0.6,0.2,1,0.8,1
			C81.3,15.8,81.5,15.3,81.5,14.7z"/>
	</g>
	<g>
		<polygon class="st1" points="85.4,9.9 85.4,14.1 87.6,12 		"/>
	</g>
	<g>
		<path class="st1" d="M98.2,153.8H3.3v-31.6h94.8V153.8z M4.3,152.8h92.8v-29.6H4.3L4.3,152.8z"/>
	</g>
	<g>
		<g>
			<g>
				<path class="st0" d="M15.8,73.8c1.5,0,2.7-1.3,2.7-2.8s-1.3-2.7-2.8-2.7c-1.5,0-2.7,1.2-2.7,2.7C13,72.6,14.3,73.8,15.8,73.8
					C15.8,73.8,15.8,73.8,15.8,73.8z"/>
			</g>
			<g>
				<path class="st0" d="M19,74.8h-6.5c-1.9,0.2-3.4,1.7-3.4,3.6v7.6c0.1,0.6,0.6,1,1.2,1c0.5,0,0.9-0.5,1-1v-6.5
					c0-0.2,0.1-0.6,0.5-0.6s0.4,0.3,0.4,0.5V99c0.1,0.9,0.8,1.5,1.7,1.4c0.8-0.1,1.4-0.7,1.4-1.4V87.8c0-0.2,0.2-0.4,0.4-0.4
					c0,0,0,0,0.1,0l0,0c0.2,0,0.4,0.2,0.4,0.4c0,0,0,0,0,0V99c0.1,0.9,0.8,1.5,1.7,1.4c0.8-0.1,1.4-0.7,1.4-1.4V79.5
					c0-0.2,0.1-0.5,0.4-0.5c0.3,0,0.5,0.2,0.5,0.5c0,0,0,0.1,0,0.1v6.5c0.1,0.6,0.6,1,1.2,1c0.5,0,0.9-0.5,1-1v-7.6
					C22.4,76.6,20.9,75,19,74.8z"/>
			</g>
		</g>
		<g>
			<g>
				<polygon class="st0" points="31.3,50 36.8,52.7 36.8,50.7 33.7,49.4 36.8,48.1 36.8,46 31.3,48.8 				"/>
			</g>
			<g>
				<path class="st0" d="M44.7,48.8c1-0.3,1.6-1.2,1.6-2.2v-1.2c0-2-0.9-3.2-3.1-3.2c-2.4,0-3.2,1.4-3.2,3.5v1.2h2.1v-1.4
					c0-0.8,0.3-1.3,1-1.3s1,0.5,1,1.2v1.5c0,0.7-0.5,1.1-1.2,1.1H42v1.8h1c0.8,0,1.1,0.4,1.1,1.1v2.3c0,0.7-0.3,1.2-1,1.2
					S42,53.9,42,53.1v-2h-2.1v1.8c0,2.1,0.8,3.4,3.2,3.4s3.3-1.2,3.3-3.2v-2C46.6,50,45.8,49,44.7,48.8z"/>
			</g>
			<g>
				<path class="st0" d="M54.9,50.3c-1.3-0.1-2.5,0.9-2.6,2.2c0,0.2,0,0.3,0,0.5v0.6c-0.1,1.4,1,2.7,2.4,2.7s2.7-1,2.7-2.4
					c0-0.1,0-0.2,0-0.3V53c0.2-1.3-0.8-2.5-2.1-2.7C55.2,50.3,55.1,50.3,54.9,50.3z M55.7,53.8c0,0.6-0.2,1-0.8,1s-0.8-0.4-0.8-1
					v-1.1c0-0.6,0.2-1,0.8-1s0.8,0.4,0.8,1V53.8z"/>
			</g>
			<g>
				<path class="st0" d="M50.3,48.3c1.3,0.1,2.5-0.9,2.6-2.2c0-0.2,0-0.3,0-0.5v-0.6c0.1-1.4-1-2.7-2.4-2.7s-2.7,1-2.7,2.4
					c0,0.1,0,0.2,0,0.3v0.6c-0.2,1.3,0.8,2.5,2.1,2.7C50,48.3,50.1,48.3,50.3,48.3z M49.5,44.7c0-0.6,0.2-1,0.8-1s0.8,0.4,0.8,1v1.1
					c0,0.6-0.2,1-0.8,1s-0.8-0.4-0.8-1V44.7z"/>
			</g>
			<g>
				<polygon class="st0" points="55.7,42.4 48.1,56.2 49.5,56.2 57.1,42.4 				"/>
			</g>
		</g>
		<g>
			<g>
				<path class="st0" d="M74.6,76.1c1.4,0,2.6-1.1,2.6-2.5c0-1-0.5-1.9-1.4-2.3c0.1-0.1,0.1-0.3,0.2-0.4c-0.2-0.7-0.9-1.2-1.6-1
					c-0.5,0.1-0.9,0.5-1,1c0,0.1,0,0.3,0.1,0.4c-0.9,0.4-1.5,1.3-1.4,2.3C72,75,73.2,76.1,74.6,76.1C74.6,76.1,74.6,76.1,74.6,76.1z
					"/>
			</g>
			<g>
				<path class="st0" d="M82,85.5l-2.2-6.9c0,0-0.8-2-2.5-2h-5.5c-1.7,0-2.5,2-2.5,2l-2.2,6.9c0,0-0.3,1,0.5,1.5c0,0,0,0.1,0,0.1
					l-2.5,13c0,0.2,0.1,0.4,0.3,0.5c0,0,0,0,0,0h0.1c0.2,0,0.4-0.1,0.4-0.3l2.5-13c0,0,0-0.1,0-0.1c0.7-0.1,0.9-1,0.9-1l1.7-5.8
					c0,0,0.1-0.4,0.4-0.3s0.2,0.6,0.2,0.6l-3,10.8h2.8v7.8c0,0.7,0.6,1.3,1.4,1.3c0.7,0,1.3-0.6,1.3-1.3v-7.7H75v7.8
					c0,0.7,0.6,1.3,1.4,1.3c0.7,0,1.3-0.6,1.3-1.3v-7.8h2.8l-3-10.8c0,0-0.1-0.5,0.2-0.6s0.4,0.3,0.4,0.3l1.7,5.8
					c0,0,0.3,1.2,1.4,0.9S82,85.5,82,85.5z"/>
			</g>
		</g>
		<g>
			<g>
				<path class="st0" d="M87,86.1c1.3,0,2.3-1,2.3-2.3s-1-2.3-2.3-2.3c-1.3,0-2.3,1-2.3,2.3S85.7,86.1,87,86.1L87,86.1z"/>
			</g>
			<g>
				<path class="st0" d="M92.5,92.8c0-0.1-0.7-1.7-0.9-2.2C90.3,87,90,87,88.8,87h-3.5c-1.2,0-1.5,0-2.9,3.6c-0.2,0.5-1,2.5-1,2.6
					S81,94,81.8,94.3s1-0.6,1-0.6l1.4-3.5c0,0,0-0.1,0.1-0.1s0.1,0.1,0.1,0.1v9.1l0,0c0,0.7,0.5,1.2,1.1,1.2c0,0,0,0,0,0
					c0.6,0,1.2-0.5,1.2-1.2c0,0,0,0,0-0.1v-3.6c0,0,0-0.6,0.4-0.6s0.4,0.6,0.4,0.6v3.6c0,0.7,0.5,1.2,1.1,1.2c0,0,0,0,0.1,0
					c0.6,0,1.2-0.5,1.2-1.2c0,0,0,0,0-0.1l0,0v-9.1c0-0.1,0-0.1,0.1-0.1s0.1,0.1,0.1,0.1l1.3,3.1c0,0,0.4,0.8,1.1,0.5
					S92.5,92.8,92.5,92.8z"/>
			</g>
		</g>
		<g>
			<g>
				<path class="st0" d="M42.8,97.2c-0.5,0.3-1,0.5-1.6,0.7c-1.6,0.5-3.2,0.7-4.9,0.6c-0.8,0-1.6-0.1-2.4-0.2
					c-0.5-0.1-1-0.2-1.5-0.3c-0.2-0.1-0.5-0.1-0.7-0.2c-0.7-0.2-1.3-0.5-1.9-0.9c-0.2-0.2-0.4-0.3-0.5-0.6V97c0,0.2,0,1,0,1
					c0,0.4,0.2,0.8,0.6,1c1.1,0.8,2.4,1.3,3.8,1.4c0.9,0.1,1.8,0.2,2.8,0.2c1.3,0,2.7-0.1,4-0.5l0,0c0.7-0.2,1.4-0.4,2-0.8l0,0
					c0.7-0.4,1.1-0.9,1.1-1.4c0,0,0-1.4,0-1.6C43.3,96.7,43.1,97,42.8,97.2z"/>
			</g>
			<g>
				<path class="st0" d="M35.8,92.3c4,0,7.2-1.2,7.2-2.7c0,0,0.1-1.4,0-1.7c0-0.2,0-0.4-0.1-0.6c0.4-0.3,0.7-0.7,0.8-1.2
					c0,0,0.1-1.5,0-1.8c-0.2-1.8-3.8-2.8-7.2-2.8s-7.2,1-7.2,2.9c0,0.1,0.1,1.7,0.1,1.7c0,0.1,0,0.2,0.1,0.3
					c-0.5,0.3-0.9,0.8-0.9,1.4c0,0.1,0.1,1.7,0.1,1.7c0,0.4,0.2,0.8,0.6,1c1.1,0.8,2.4,1.3,3.8,1.4C33.9,92.3,34.9,92.3,35.8,92.3z
					 M36.5,82.4c3.8,0,6.5,1.1,6.5,2.2s-2.7,2.2-6.5,2.2s-6.5-1.1-6.5-2.2S32.7,82.4,36.5,82.4z M29.3,88c0.1-0.3,0.3-0.6,0.6-0.8
					c0.2,0.2,0.5,0.4,0.7,0.5c1.9,0.8,3.9,1.2,5.9,1.2c1.7,0,3.4-0.2,5.1-0.8c0.2-0.1,0.4-0.2,0.6-0.3c0,0.1,0,0.1,0,0.2
					c0,1-2.7,2.2-6.5,2.2S29.3,89,29.3,88z"/>
			</g>
			<g>
				<path class="st0" d="M33.7,97.8c0.9,0.1,1.8,0.2,2.8,0.2c1.3,0,2.7-0.1,4-0.5l0,0c0.7-0.2,1.4-0.4,2-0.8l0,0
					c0.2-0.1,0.3-0.2,0.5-0.3c0.2-0.2,0.4-0.4,0.5-0.7c0-0.1,0.1-0.2,0.1-0.4c0,0,0-1.5,0-1.6c-0.2,0.3-0.8,1.2-3.7,1.8
					c-1.2,0.2-2.4,0.3-3.6,0.3c-2,0-3.9-0.3-5.7-1.1c-0.3-0.2-0.6-0.4-0.9-0.6c-0.2-0.2-0.3-0.3-0.4-0.5c0,0,0,0.7,0,0.7v1
					c0,0.4,0.2,0.8,0.6,1C30.9,97.2,32.2,97.7,33.7,97.8z"/>
			</g>
			<g>
				<path class="st0" d="M43.5,90.6c-0.1-0.1-0.1-0.1-0.2-0.2c-0.1-0.1-0.2-0.1-0.3-0.2c-0.1,0.2-0.2,0.3-0.3,0.4
					c0.1,0,0.2,0.1,0.3,0.2c0.2,0.1,0.3,0.3,0.3,0.6c0,0.2-0.1,0.4-0.3,0.5c-0.1,0.1-0.2,0.1-0.3,0.2l-0.4,0.2c0,0-0.4,0.2-0.6,0.3
					l-0.6,0.2c-0.1,0-0.6,0.2-0.8,0.2c-0.1,0-0.8,0.1-1.1,0.2l-1.1,0.1c-0.1,0-1.2,0.1-1.7,0.1c-0.8,0-1.5-0.1-2.3-0.2
					c-0.5-0.1-1.1-0.2-1.6-0.3c-0.6-0.1-1.2-0.3-1.7-0.5c-0.3-0.2-0.6-0.4-0.9-0.6c-0.2-0.2-0.4-0.5-0.6-0.8v0.9v0.9
					c0,0.4,0.2,0.8,0.6,1c1.1,0.8,2.4,1.3,3.8,1.4c0.9,0.1,1.8,0.2,2.8,0.2c1.3,0,2.7-0.1,4-0.4l0,0c0.7-0.2,1.4-0.4,2-0.8l0,0
					c0.2-0.1,0.3-0.2,0.5-0.3c0.2-0.2,0.4-0.4,0.5-0.7c0-0.1,0.1-0.2,0.1-0.4c0,0,0-1.5,0-1.5c0-0.1,0-0.2,0-0.4
					C43.5,90.8,43.5,90.7,43.5,90.6z"/>
			</g>
			<g>
				<path class="st0" d="M52.2,87.1c4,0,7.2-1.2,7.2-2.7c0,0,0.1-1.4,0.1-1.7c0-0.2-0.1-0.4-0.1-0.6c0.4-0.3,0.7-0.7,0.8-1.2
					c0,0,0.1-1.5,0-1.8c-0.2-1.8-3.8-2.8-7.2-2.8s-7.2,1-7.2,2.9c0,0.1,0.1,1.7,0.1,1.7c0,0.1,0,0.2,0.1,0.3
					c-0.5,0.3-0.9,0.8-0.9,1.4c0,0.1,0.1,1.7,0.1,1.7c0,0.4,0.2,0.8,0.6,1c1.1,0.8,2.5,1.3,3.8,1.5C50.4,87.1,51.3,87.2,52.2,87.1z
					 M53,77.3c3.8,0,6.5,1.1,6.5,2.2s-2.7,2.2-6.5,2.2s-6.5-1.1-6.5-2.2S49.2,77.3,53,77.3z M45.8,82.8c0.1-0.3,0.3-0.6,0.6-0.8
					c0.2,0.2,0.5,0.4,0.7,0.5c1.9,0.8,3.9,1.2,5.9,1.2c1.7,0,3.4-0.2,5-0.7c0.2-0.1,0.4-0.2,0.6-0.3c0,0.1,0,0.1,0,0.2
					c0,1-2.7,2.2-6.5,2.2S45.8,83.9,45.8,82.8L45.8,82.8z"/>
			</g>
			<g>
				<path class="st0" d="M60.1,85.7c0-0.1-0.1-0.2-0.2-0.3c-0.1-0.1-0.1-0.1-0.2-0.2c-0.1-0.1-0.2-0.1-0.3-0.2
					c-0.1,0.2-0.2,0.3-0.3,0.4c0.1,0,0.2,0.1,0.3,0.2c0.2,0.1,0.3,0.3,0.3,0.6c0,0.2-0.1,0.4-0.3,0.5c-0.1,0.1-0.2,0.1-0.3,0.2
					l-0.4,0.2c0,0-0.4,0.2-0.6,0.3c0,0-0.4,0.2-0.6,0.2s-0.6,0.2-0.8,0.2c-0.1,0-0.8,0.1-1.1,0.2l-1.1,0.1l-1.7,0.1
					c-0.8,0-1.5,0-2.3-0.2c-0.5-0.1-1.1-0.2-1.6-0.3c-0.6-0.1-1.2-0.3-1.7-0.5c-0.3-0.1-0.6-0.3-0.9-0.6c-0.2-0.2-0.4-0.5-0.6-0.8
					v0.9v0.9c0,0.4,0.2,0.8,0.6,1c1.1,0.8,2.4,1.3,3.8,1.4c0.9,0.1,1.8,0.2,2.8,0.2c1.3,0,2.7-0.1,4-0.5l0,0c0.7-0.2,1.4-0.4,2-0.8
					l0,0c0.2-0.1,0.3-0.2,0.5-0.3c0.2-0.2,0.4-0.4,0.5-0.7c0-0.1,0.1-0.2,0.1-0.4c0,0,0.1-1.5,0.1-1.5C60.1,86,60.1,85.8,60.1,85.7z
					"/>
			</g>
			<g>
				<path class="st0" d="M59.3,92c-0.5,0.3-1,0.5-1.6,0.7c-1.6,0.5-3.2,0.7-4.9,0.6c-0.8,0-1.6-0.1-2.4-0.2c-0.5-0.1-1-0.2-1.5-0.3
					l-0.7-0.2c-0.7-0.2-1.3-0.5-1.9-0.9c-0.2-0.2-0.4-0.3-0.5-0.6v0.6c0,0.2,0,1,0,1c0,0.4,0.2,0.8,0.6,1c1.1,0.8,2.4,1.3,3.8,1.4
					c0.9,0.1,1.9,0.2,2.8,0.2c1.3,0,2.7-0.1,4-0.5l0,0c0.7-0.2,1.4-0.4,2-0.8l0,0c0.7-0.4,1.1-0.9,1.1-1.4c0,0,0-1.4,0-1.6
					C59.9,91.5,59.6,91.8,59.3,92z"/>
			</g>
			<g>
				<path class="st0" d="M46.3,91.2c1.1,0.8,2.4,1.3,3.8,1.4c0.9,0.1,1.8,0.2,2.8,0.2c1.3,0,2.7-0.1,4-0.5l0,0
					c0.7-0.2,1.4-0.4,2-0.8l0,0c0.2-0.1,0.3-0.2,0.5-0.3c0.2-0.2,0.4-0.4,0.5-0.7c0-0.1,0.1-0.2,0.1-0.4c0,0,0-1.5,0-1.6
					c-0.2,0.3-0.8,1.2-3.7,1.8c-1.2,0.2-2.4,0.3-3.6,0.3c-2,0-3.9-0.3-5.7-1.1c-0.3-0.2-0.6-0.4-0.9-0.6c-0.2-0.2-0.3-0.3-0.4-0.5
					c0,0,0,0.7,0,0.7v1C45.7,90.6,46,91,46.3,91.2z"/>
			</g>
			<g>
				<path class="st0" d="M60.2,96.3c-0.2,0.3-0.5,0.6-0.9,0.8c-0.5,0.3-1,0.5-1.6,0.7c-1.6,0.5-3.2,0.7-4.9,0.6
					c-0.8,0-1.6-0.1-2.4-0.2c-0.5-0.1-1-0.1-1.5-0.2c-0.3-0.1-0.5-0.1-0.7-0.2c-0.7-0.2-1.3-0.5-1.9-0.9c-0.2-0.2-0.4-0.4-0.5-0.6
					V97c0,0.2,0,1,0,1c0,0.4,0.2,0.8,0.6,1c1.1,0.8,2.4,1.3,3.8,1.4c0.9,0.1,1.8,0.2,2.8,0.2c1.3,0,2.7-0.1,4-0.4l0,0
					c0.7-0.2,1.4-0.4,2-0.8l0,0c0.7-0.4,1-0.9,1-1.4C60.2,97.9,60.2,96.4,60.2,96.3z"/>
			</g>
			<g>
				<path class="st0" d="M50.2,97.7c0.9,0.2,1.9,0.2,2.8,0.2c1.3,0,2.7-0.1,4-0.4l0,0c0.7-0.2,1.4-0.4,2-0.8l0,0
					c0.2-0.1,0.3-0.2,0.4-0.3c0.2-0.2,0.4-0.4,0.5-0.7c0-0.1,0.1-0.2,0.1-0.4c0,0,0-1.5,0-1.6c-0.2,0.3-0.8,1.2-3.7,1.8
					c-1.2,0.2-2.4,0.3-3.6,0.3c-2,0.1-3.9-0.3-5.7-1.1c-0.3-0.2-0.6-0.4-0.9-0.6c-0.2-0.2-0.3-0.3-0.4-0.5c0,0,0,0.7,0,0.7v1
					c0,0.4,0.2,0.8,0.6,1C47.4,97.2,48.8,97.7,50.2,97.7z"/>
			</g>
		</g>
		<g>
			<path class="st0" d="M57.7,66.2L50.5,72c-0.1,0.1-0.2,0.1-0.3,0.1c-0.2,0-0.2-0.1-0.2-0.3v-2.9H31.1c-0.1,0-0.2-0.1-0.2-0.3v-5
				c0-0.2,0.1-0.3,0.2-0.3h18.9v-2.8c0-0.2,0-0.3,0.2-0.4c0.1,0,0.2,0,0.3,0.1l7.2,5.5c0.1,0.1,0.2,0.2,0.2,0.4
				C57.9,66.1,57.8,66.2,57.7,66.2z"/>
		</g>
	</g>
</g>
</svg>
