<?xml version="1.0" encoding="utf-8"?>
<!-- Generator: Adobe Illustrator 22.0.1, SVG Export Plug-In . SVG Version: 6.00 Build 0)  -->
<svg version="1.1" id="Layer_1" xmlns="http://www.w3.org/2000/svg" xmlns:xlink="http://www.w3.org/1999/xlink" x="0px" y="0px"
	 viewBox="0 0 101.5 148.1" style="enable-background:new 0 0 101.5 148.1;" xml:space="preserve">
<style type="text/css">
	.st0{fill:#FFFFFF;}
	.st1{fill:#DD1367;}
	.st2{enable-background:new    ;}
</style>
<title>TARGET 1.1</title>
<g id="WHITE_BG">
	<g>
		<rect y="0" class="st0" width="101.5" height="148.1"/>
	</g>
	<g>
		<path class="st1" d="M98.2,144.9h-95v-22.7h95V144.9z M4.2,143.9h93v-20.7h-93V143.9z"/>
	</g>
</g>
<g id="TARGETS">
	<g>
		<g>
			<path class="st1" d="M7.8,132.2h-1v-6.4H9c1.6,0,2.2,0.7,2.2,1.9c0.1,0.7-0.3,1.4-1,1.7l1.3,2.8h-1.2l-1.1-2.6H7.8V132.2z
				 M7.8,128.7h1.3c0.9,0,1-0.5,1-1s-0.1-1-1-1H7.8V128.7z"/>
		</g>
		<g>
			<path class="st1" d="M15.7,129.3H13v2h3v0.9h-3.9v-6.4H16v0.9h-3v1.8h2.7L15.7,129.3z"/>
		</g>
		<g>
			<path class="st1" d="M16.8,132.2v-6.4h1.9c2.1,0,2.7,1.4,2.7,3.2s-0.6,3.2-2.7,3.2H16.8z M17.8,131.3h1c1.3,0,1.7-0.9,1.7-2.3
				s-0.4-2.3-1.7-2.3h-1V131.3z"/>
		</g>
		<g>
			<path class="st1" d="M22.1,130.2v-4.4H23v4.3c-0.1,0.6,0.4,1.2,1,1.3c0.1,0,0.2,0,0.3,0c0.6,0.1,1.2-0.3,1.4-1c0-0.1,0-0.2,0-0.3
				v-4.3h1v4.4c0.1,1.1-0.8,2.1-1.9,2.1c-0.2,0-0.3,0-0.4,0c-1.1,0.2-2.2-0.6-2.3-1.7C22.1,130.4,22.1,130.3,22.1,130.2z"/>
		</g>
		<g>
			<path class="st1" d="M30,125.7c0.5,0,1,0.1,1.5,0.3v0.9c-0.5-0.2-0.9-0.3-1.4-0.3c-1.2,0-1.7,0.8-1.7,2.4c0,1.6,0.5,2.4,1.7,2.4
				c0.5,0,1-0.1,1.4-0.3v0.9c-0.5,0.2-1,0.3-1.5,0.3c-1.9,0-2.6-1.2-2.6-3.3S28.1,125.7,30,125.7z"/>
		</g>
		<g>
			<path class="st1" d="M36,129.3h-2.7v2h2.9v0.9h-3.9v-6.4h3.9v0.9h-2.9v1.8H36V129.3z"/>
		</g>
		<g>
			<path class="st1" d="M38.6,132.2v-6.4h1v6.4H38.6z"/>
		</g>
		<g>
			<path class="st1" d="M44.3,132.2l-2.8-4.5v4.5h-1v-6.4h0.9l2.8,4.5v-4.5h0.9v6.4H44.3z"/>
		</g>
		<g>
			<path class="st1" d="M48.6,125.7c0.5,0,1,0.1,1.5,0.3v0.9c-0.5-0.2-0.9-0.3-1.4-0.3c-1.2,0-1.7,0.8-1.7,2.4
				c0,1.6,0.5,2.4,1.7,2.4c0.5,0,1-0.1,1.4-0.3v0.9c-0.5,0.2-1,0.3-1.5,0.3c-1.9,0-2.6-1.2-2.6-3.3S46.7,125.7,48.6,125.7z"/>
		</g>
		<g>
			<path class="st1" d="M50.7,129c0-1.8,0.4-3.3,2.5-3.3s2.5,1.5,2.5,3.3s-0.4,3.3-2.5,3.3S50.7,130.8,50.7,129z M51.7,129
				c0,1.5,0.3,2.4,1.5,2.4s1.5-0.9,1.5-2.4s-0.3-2.4-1.5-2.4S51.6,127.5,51.7,129L51.7,129z"/>
		</g>
		<g>
			<path class="st1" d="M59.7,131.3h-0.9l-1.6-3.9v4.8h-1v-6.4h1.2l1.7,4.3l1.8-4.3h1.2v6.4h-1l0-4.8L59.7,131.3z"/>
		</g>
		<g>
			<path class="st1" d="M66.8,129.3h-2.6v2H67v0.9h-3.8v-6.4H67v0.9h-2.9v1.8h2.7L66.8,129.3z"/>
		</g>
		<g>
			<path class="st1" d="M7,141.2v-6.4h1v6.4H7z"/>
		</g>
		<g>
			<path class="st1" d="M12.8,141.2l-2.8-4.5v4.5H9.1v-6.4h0.9l2.8,4.5v-4.5h0.9v6.4L12.8,141.2z"/>
		</g>
		<g>
			<path class="st1" d="M18,138.3h-2.6v2h2.9v0.9h-3.9v-6.4h3.9v0.9h-2.9v1.8H18V138.3z"/>
		</g>
		<g>
			<path class="st1" d="M22.5,141l2,0.4v1l-4-1.2c-1.3-0.4-1.6-1.6-1.6-3.2c0-1.9,0.4-3.3,2.5-3.3s2.5,1.4,2.5,3.3
				C23.8,139.5,23.6,140.6,22.5,141L22.5,141z M19.9,138c0,1.5,0.3,2.4,1.5,2.4s1.5-0.9,1.5-2.4s-0.3-2.4-1.5-2.4
				S19.9,136.5,19.9,138z"/>
		</g>
		<g>
			<path class="st1" d="M24.6,139.2v-4.4h1v4.3c-0.1,0.7,0.4,1.2,1,1.3c0.1,0,0.2,0,0.3,0c0.6,0.1,1.2-0.3,1.4-1c0-0.1,0-0.2,0-0.3
				v-4.3h1v4.4c0.1,1.1-0.8,2.1-1.9,2.1c-0.2,0-0.3,0-0.4,0c-1.1,0.2-2.2-0.6-2.3-1.7C24.6,139.5,24.6,139.3,24.6,139.2z"/>
		</g>
		<g>
			<path class="st1" d="M33,139.6h-2l-0.5,1.6h-1l2-6.4h1l2,6.4h-1L33,139.6z M32,136l-0.8,2.8h1.6L32,136z"/>
		</g>
		<g>
			<path class="st1" d="M35.9,140.3h2.8v0.9H35v-6.4h1L35.9,140.3z"/>
		</g>
		<g>
			<path class="st1" d="M39.4,141.2v-6.4h1v6.4H39.4z"/>
		</g>
		<g>
			<path class="st1" d="M43.6,135.7v5.5h-1v-5.5H41v-0.9h4.3v0.9H43.6z"/>
		</g>
		<g>
			<path class="st1" d="M45.9,141.2v-6.4h1v6.4H45.9z"/>
		</g>
		<g>
			<path class="st1" d="M51.6,138.3h-2.7v2h2.9v0.9H48v-6.4h3.9v0.9h-3v1.8h2.7V138.3z"/>
		</g>
		<g>
			<path class="st1" d="M56.7,139.3c0,1.2-0.7,2-2.4,2c-0.6,0-1.3-0.1-1.9-0.4v-1c0.6,0.3,1.2,0.4,1.8,0.4c1.2,0,1.5-0.5,1.5-1.1
				s-0.3-0.9-1.2-1c-1.5-0.2-2.2-0.6-2.2-1.8c0-0.9,0.5-1.9,2.3-1.9c0.6,0,1.2,0.1,1.7,0.3v1c-0.5-0.2-1.1-0.3-1.7-0.3
				c-1,0-1.3,0.4-1.3,1s0.4,0.8,1.2,0.9C56,137.7,56.7,138,56.7,139.3z"/>
		</g>
	</g>
	<g>
		<rect x="3.3" y="24" class="st1" width="94.8" height="94.8"/>
	</g>
	<g>
		<path class="st1" d="M98.2,20.7H3.3V3.3h94.8V20.7z M4.3,19.7h92.8V4.3H4.3L4.3,19.7z"/>
	</g>
	<g class="st2">
		<path class="st1" d="M6.7,6.9h4.5v1.4H9.9v8.8H8.1V8.3H6.7V6.9z"/>
	</g>
	<g class="st2">
		<path class="st1" d="M11.2,17.1l1.9-10.2h1.9L17,17.1h-1.8l-0.3-1.9h-1.8l-0.3,1.9H11.2z M13.3,13.9h1.4L14,9.8h0L13.3,13.9z"/>
	</g>
	<g class="st2">
		<path class="st1" d="M19.6,12.4v4.7h-1.7V6.9h2.5c1.7,0,2.4,0.9,2.4,2.3v1.3c0,1.1-0.4,1.7-1.4,2l1.6,4.6h-1.8L19.6,12.4z
			 M19.6,8.3v3.2h0.6c0.6,0,0.8-0.3,0.8-0.8V9.2c0-0.6-0.3-0.8-0.8-0.8H19.6z"/>
	</g>
	<g class="st2">
		<path class="st1" d="M26.4,11.7h2.4v5.4h-1.2V16c-0.2,0.8-0.7,1.2-1.6,1.2c-1.5,0-2.1-1.2-2.1-2.7V9.6c0-1.6,0.8-2.7,2.6-2.7
			c1.9,0,2.4,1.1,2.4,2.6v0.9h-1.6v-1c0-0.6-0.2-1-0.9-1c-0.6,0-0.9,0.4-0.9,1v5.5c0,0.6,0.3,1,0.8,1c0.6,0,0.8-0.3,0.8-1V13h-0.8
			V11.7z"/>
	</g>
	<g class="st2">
		<path class="st1" d="M30.2,6.9h4.1v1.4h-2.4v2.9h1.7v1.4h-1.7v3.1h2.4v1.4h-4.1V6.9z"/>
	</g>
	<g class="st2">
		<path class="st1" d="M35.1,6.9h4.5v1.4h-1.4v8.8h-1.7V8.3h-1.4V6.9z"/>
	</g>
	<g class="st2">
		<path class="st1" d="M79.3,6.9v10.2h-1.7V9.3h0l-1.2,1.2h0V8.8l1.6-1.8H79.3z"/>
		<path class="st1" d="M80.7,14.5V9.6c0-1.6,0.8-2.7,2.5-2.7c1.7,0,2.5,1.2,2.5,2.7v4.9c0,1.6-0.8,2.7-2.5,2.7
			C81.5,17.2,80.7,16.1,80.7,14.5z M84.1,14.8V9.3c0-0.6-0.2-1-0.8-1c-0.6,0-0.8,0.4-0.8,1v5.5c0,0.6,0.2,1,0.8,1
			C83.9,15.8,84.1,15.4,84.1,14.8z"/>
	</g>
	<g class="st2">
	</g>
	<g class="st2">
		<path class="st1" d="M88.6,10.8c0.7,0,1.2,0.6,1.2,1.2c0,0.7-0.6,1.2-1.2,1.2c-0.7,0-1.2-0.6-1.2-1.2
			C87.4,11.4,87.9,10.8,88.6,10.8z"/>
	</g>
	<g class="st2">
		<path class="st1" d="M94.1,6.9v10.2h-1.7V9.3h0l-1.2,1.2h0V8.8l1.6-1.8H94.1z"/>
	</g>
	<g>
		<g>
			<g>
				<g>
					<path class="st0" d="M68.2,59.2c7.3,0,13.3-2.2,13.3-4.9c0,0,0.2-2.5,0.1-3.1c0-0.3-0.1-0.7-0.2-1c0.8-0.5,1.4-1.3,1.5-2.2
						c0,0,0.1-2.8,0.1-3.4c-0.3-3.3-7-5.1-13.4-5.1c-6.5,0-13.4,1.9-13.4,5.4c0,0.2,0.1,3.1,0.1,3.1c0,0.2,0.1,0.4,0.2,0.6
						c-1,0.6-1.6,1.6-1.7,2.7c0,0.2,0.1,3.1,0.1,3.1c0,0.8,0.4,1.5,1,1.9c1.4,1.1,3.9,2.1,7.1,2.6C64.7,59.1,66.4,59.2,68.2,59.2z
						 M69.5,40.8c7.1,0,12,2.1,12,4s-4.9,4-12,4s-12-2.1-12-4S62.4,40.8,69.5,40.8z M56.1,51.2c0.1-0.6,0.5-1.2,1-1.5
						c0.4,0.4,0.9,0.7,1.3,1c2.4,1.3,6.4,2.2,11,2.2c3.2,0.1,6.4-0.4,9.4-1.5c0.4-0.1,0.8-0.3,1.2-0.5c0,0.1,0.1,0.2,0.1,0.3
						c0,1.9-4.9,4-12,4S56.1,53.1,56.1,51.2z"/>
				</g>
				<g>
					<path class="st0" d="M82.8,56.5c-0.1-0.2-0.2-0.4-0.3-0.5c-0.1-0.1-0.2-0.2-0.3-0.3c-0.2-0.1-0.4-0.2-0.6-0.3
						c-0.2,0.3-0.4,0.6-0.6,0.8c0.2,0.1,0.4,0.2,0.5,0.3c0.4,0.2,0.6,0.6,0.6,1c0,0.3-0.2,0.7-0.5,0.9c-0.2,0.1-0.3,0.3-0.5,0.4
						c-0.1,0-0.6,0.3-0.8,0.4s-0.8,0.4-1.2,0.5c0,0-0.8,0.3-1.2,0.4c-0.1,0-1.2,0.3-1.6,0.4c-0.1,0-1.4,0.2-2,0.3
						c-0.2,0-1.5,0.2-2.1,0.2c-0.2,0-2.2,0.1-3.1,0.1c-1.4,0-2.8-0.1-4.2-0.3c-1-0.1-2.1-0.3-3-0.5c-1.1-0.2-2.2-0.6-3.2-1
						c-0.6-0.3-1.2-0.7-1.6-1.1c-0.4-0.4-0.7-0.9-1-1.4c0,0,0,1.7,0,1.8V60c0,0.8,0.4,1.5,1,1.9c1.3,1.2,3.9,2.1,7.1,2.6
						c1.7,0.3,3.4,0.4,5.2,0.4c2.5,0,5.1-0.2,7.5-0.8h0.1c1.3-0.3,2.6-0.8,3.8-1.5l0,0c0.3-0.2,0.6-0.4,0.8-0.6
						c0.4-0.3,0.8-0.8,1-1.3c0.1-0.2,0.1-0.5,0.1-0.7c0,0,0.1-2.8,0.1-2.9C82.9,57,82.9,56.7,82.8,56.5z"/>
				</g>
				<g>
					<path class="st0" d="M81.3,68.2c-0.9,0.6-1.9,1-2.9,1.3c-2.9,0.8-6,1.2-9.1,1.1c-1.5,0-3-0.1-4.5-0.3C63.9,70.1,63,70,62,69.7
						c-0.5-0.1-0.9-0.2-1.3-0.4c-1.3-0.4-2.5-0.9-3.5-1.7c-0.4-0.3-0.7-0.7-1-1.1v1.2c0,0.3,0,1.8,0,1.8c0,0.8,0.4,1.5,1,1.9
						c1.3,1.2,3.9,2.1,7.1,2.6c1.7,0.3,3.4,0.4,5.2,0.4c2.5,0,5.1-0.3,7.6-0.8h0.1c1.3-0.3,2.6-0.8,3.8-1.5l0,0c1.2-0.8,2-1.6,2-2.6
						c0,0,0.1-2.7,0.1-2.9C82.5,67.3,81.9,67.8,81.3,68.2z"/>
				</g>
				<g>
					<path class="st0" d="M57.2,66.7c1.3,1.2,3.9,2.1,7.1,2.6c1.7,0.3,3.4,0.4,5.2,0.4c2.5,0,5-0.3,7.4-0.8H77
						c1.3-0.3,2.6-0.8,3.8-1.5l0,0c0.3-0.2,0.6-0.4,0.8-0.6c0.4-0.3,0.8-0.8,1-1.3c0.1-0.2,0.1-0.5,0.1-0.7c0,0,0.1-2.7,0.1-2.9
						c-0.4,0.6-1.6,2.3-6.8,3.4c-2.2,0.4-4.5,0.6-6.8,0.6c-4.2-0.1-8.7-0.8-10.6-2.1c-0.6-0.3-1.2-0.7-1.7-1.2
						c-0.3-0.3-0.6-0.6-0.8-1c0,0,0,1.3,0,1.3v1.9C56.1,65.7,56.6,66.3,57.2,66.7z"/>
				</g>
				<g>
					<path class="st0" d="M82.9,76.2c-0.4,0.6-1,1.1-1.6,1.5c-0.9,0.6-1.9,1-2.9,1.3c-2.9,0.8-6,1.2-9.1,1.1c-1.5,0-3-0.1-4.5-0.3
						c-1-0.1-1.8-0.3-2.7-0.5c-0.5-0.1-0.9-0.2-1.3-0.4c-1.3-0.4-2.5-0.9-3.5-1.7c-0.4-0.3-0.7-0.7-1-1.1v1.2c0,0.3,0,1.8,0,1.8
						c0,0.8,0.4,1.5,1,1.9c1.3,1.2,3.9,2.1,7.1,2.6c1.7,0.3,3.4,0.4,5.2,0.4c2.5,0,5-0.3,7.5-0.8h0.1c1.3-0.3,2.6-0.8,3.8-1.5l0,0
						c1.2-0.8,2-1.6,2-2.6C82.9,79.1,83,76.4,82.9,76.2z"/>
				</g>
				<g>
					<path class="st0" d="M64.3,78.9c1.7,0.3,3.4,0.4,5.2,0.4c2.5,0,5-0.3,7.4-0.8H77c1.3-0.3,2.6-0.8,3.8-1.4l0,0
						c0.3-0.2,0.6-0.4,0.8-0.6c0.4-0.3,0.8-0.8,1-1.3c0.1-0.2,0.1-0.5,0.1-0.7c0,0,0.1-2.7,0.1-2.9c-0.4,0.6-1.6,2.3-6.8,3.4
						c-2.2,0.4-4.5,0.6-6.8,0.6c-4.2-0.1-8.7-0.8-10.6-2.1C58,73,57.5,72.6,57,72.2c-0.3-0.3-0.6-0.6-0.8-1c0,0,0,1.3,0,1.3l0.1,1.9
						c0,0.7,0.4,1.4,1,1.9C58.6,77.4,61.2,78.4,64.3,78.9z"/>
				</g>
				<g>
					<path class="st0" d="M81.5,87.2c-0.9,0.6-1.9,1-2.9,1.3c-2.9,0.8-6,1.2-9.1,1.1c-1.5,0-3-0.1-4.5-0.3c-0.9-0.1-1.8-0.3-2.7-0.5
						c-0.5-0.1-0.9-0.2-1.3-0.4c-1.3-0.4-2.5-0.9-3.5-1.7c-0.4-0.3-0.7-0.7-1-1.1v1.2c0,0.3,0,1.8,0,1.8c0,0.8,0.4,1.5,1,1.9
						c1.3,1.2,3.9,2.1,7.1,2.6c1.7,0.3,3.4,0.4,5.2,0.4c2.5,0,5-0.3,7.4-0.8h0.1c1.4-0.3,2.7-0.8,3.9-1.5l0,0c1.2-0.8,2-1.6,2-2.6
						c0,0,0.1-2.7,0.1-2.9C82.6,86.3,82.1,86.8,81.5,87.2z"/>
				</g>
				<g>
					<path class="st0" d="M57.4,85.8c1.3,1.2,3.9,2.1,7.1,2.6c1.7,0.3,3.4,0.4,5.2,0.4c2.5,0,5-0.2,7.4-0.8h0.1
						c1.3-0.3,2.6-0.8,3.8-1.5l0,0c0.3-0.2,0.6-0.4,0.8-0.6c0.4-0.3,0.8-0.8,1-1.3c0.1-0.2,0.1-0.5,0.1-0.7c0,0,0.1-2.7,0.1-2.9
						c-0.4,0.6-1.6,2.3-6.8,3.4c-2.2,0.4-4.5,0.6-6.8,0.6c-4.2-0.1-8.7-0.8-10.6-2.1c-0.6-0.3-1.2-0.7-1.7-1.1
						c-0.3-0.3-0.6-0.6-0.8-1c0,0,0,1.3,0,1.3l0,1.9C56.4,84.7,56.8,85.4,57.4,85.8z"/>
				</g>
				<g>
					<path class="st0" d="M83.1,95.2c-0.4,0.6-1,1.1-1.6,1.5c-0.9,0.6-1.9,1-2.9,1.3c-2.9,0.8-6,1.2-9.1,1.1c-1.5,0-3-0.1-4.5-0.3
						c-1-0.1-1.8-0.3-2.7-0.5c-0.5-0.1-0.9-0.2-1.3-0.4c-1.3-0.4-2.5-0.9-3.5-1.7c-0.4-0.3-0.7-0.6-1-1.1v1.2c0,0.3,0,1.8,0,1.8
						c0,0.8,0.4,1.5,1,1.9c1.3,1.2,3.9,2.1,7.1,2.6c1.7,0.3,3.4,0.4,5.2,0.4c2.5,0,5-0.3,7.4-0.8h0.1c1.3-0.3,2.6-0.8,3.8-1.5l0,0
						c1.2-0.8,2-1.6,2-2.6C83.1,98.1,83.2,95.5,83.1,95.2z"/>
				</g>
				<g>
					<path class="st0" d="M64.5,97.9c1.7,0.3,3.4,0.4,5.2,0.4c2.5,0,5-0.3,7.4-0.8h0.1c1.3-0.3,2.6-0.8,3.8-1.5l0,0
						c0.3-0.2,0.6-0.4,0.8-0.6c0.4-0.3,0.8-0.8,1-1.3c0.1-0.2,0.2-0.5,0.2-0.7c0,0,0.1-2.7,0.1-2.9c-0.4,0.6-1.6,2.3-6.8,3.4
						c-2.2,0.4-4.5,0.6-6.8,0.6c-4.2-0.1-8.7-0.8-10.6-2.1c-0.6-0.3-1.2-0.7-1.7-1.1c-0.3-0.3-0.6-0.6-0.8-1c0,0,0,1.3,0,1.3v1.9
						c0.1,0.7,0.4,1.4,1,1.9C58.8,96.5,61.3,97.4,64.5,97.9z"/>
				</g>
			</g>
			<g>
				<g>
					<path class="st0" d="M31.9,97.8c7.3,0,13.3-2.2,13.3-4.9c0,0,0.2-2.5,0.1-3.1c0-0.3-0.1-0.7-0.2-1c0.8-0.5,1.4-1.3,1.5-2.2
						c0,0,0.1-2.8,0.1-3.4c-0.3-3.4-7-5.2-13.4-5.2c-6.5,0-13.4,1.9-13.4,5.4c0,0.2,0.1,3.1,0.1,3.1c0,0.2,0.1,0.4,0.2,0.6
						c-1,0.6-1.6,1.6-1.7,2.7c0,0.2,0.1,3.1,0.1,3.1c0,0.8,0.4,1.5,1,1.9c1.4,1.2,3.9,2.1,7.1,2.6C28.4,97.6,30.2,97.8,31.9,97.8z
						 M33.3,79.4c7.1,0,12,2.1,12,4s-4.9,4-12,4s-12-2.1-12-4S26.2,79.4,33.3,79.4z M19.9,89.8c0.1-0.6,0.5-1.2,1-1.5
						c0.4,0.4,0.9,0.7,1.4,1c2.4,1.3,6.4,2.2,11,2.2c3.2,0.1,6.4-0.4,9.5-1.4c0.4-0.2,0.8-0.3,1.2-0.5c0,0.1,0.1,0.2,0.1,0.3
						c0,1.9-4.9,4-12,4S19.9,91.7,19.9,89.8z"/>
				</g>
				<g>
					<path class="st0" d="M46.6,95.1c-0.1-0.2-0.2-0.4-0.3-0.5c-0.1-0.1-0.2-0.2-0.3-0.3c-0.2-0.1-0.4-0.2-0.5-0.3
						c-0.2,0.3-0.4,0.6-0.6,0.8c0.2,0.1,0.4,0.2,0.5,0.3c0.4,0.2,0.6,0.6,0.6,1c0,0.3-0.2,0.7-0.5,0.9c-0.2,0.1-0.3,0.3-0.5,0.4
						c-0.1,0-0.5,0.3-0.8,0.4s-0.8,0.4-1.2,0.5c0,0-0.8,0.3-1.2,0.4c-0.1,0-1.2,0.3-1.6,0.4c-0.1,0-1.4,0.2-2,0.3
						c-0.2,0-1.5,0.2-2.1,0.2c-0.2,0-2.2,0.1-3.1,0.1c-1.4,0-2.8-0.1-4.2-0.3c-1-0.2-2.1-0.3-3-0.6c-1.1-0.2-2.2-0.6-3.2-1
						c-0.6-0.3-1.2-0.7-1.6-1.1c-0.4-0.4-0.7-0.9-1-1.4V97v1.6c0,0.8,0.4,1.5,1,1.9c1.3,1.2,3.9,2.1,7.1,2.6
						c1.7,0.3,3.4,0.4,5.2,0.4c2.5,0,5-0.3,7.4-0.8h0.1c1.3-0.3,2.6-0.8,3.8-1.5l0,0c0.3-0.2,0.6-0.4,0.8-0.6c0.4-0.3,0.8-0.8,1-1.3
						c0.1-0.2,0.1-0.5,0.1-0.7c0,0,0.1-2.8,0.1-2.9C46.6,95.6,46.6,95.3,46.6,95.1z"/>
				</g>
			</g>
		</g>
		<g>
			<path class="st0" d="M32.4,40l8.5,10.8C41,51,41,51.2,41,51.3c-0.1,0.2-0.2,0.3-0.5,0.3h-4.3v19.2c0,0.2-0.2,0.4-0.4,0.4h-7.4
				c-0.2,0-0.4-0.1-0.4-0.4V51.6h-4.3c-0.3,0-0.5-0.1-0.5-0.3c0-0.2,0-0.3,0.1-0.5l8.2-10.7c0.1-0.2,0.3-0.3,0.6-0.3
				C32.1,39.8,32.3,39.9,32.4,40z"/>
		</g>
	</g>
</g>
</svg>
