<?xml version="1.0" encoding="utf-8"?>
<!-- Generator: Adobe Illustrator 22.0.1, SVG Export Plug-In . SVG Version: 6.00 Build 0)  -->
<svg version="1.1" id="Layer_1" xmlns="http://www.w3.org/2000/svg" xmlns:xlink="http://www.w3.org/1999/xlink" x="0px" y="0px"
	 viewBox="0 0 101.5 175.2" style="enable-background:new 0 0 101.5 175.2;" xml:space="preserve">
<style type="text/css">
	.st0{fill:#FFFFFF;}
	.st1{fill:#DD1367;}
	.st2{enable-background:new    ;}
</style>
<title>TARGET 1 B copy 7</title>
<g id="WHITE_BG">
	<g>
		<rect y="0" class="st0" width="101.5" height="175.2"/>
	</g>
</g>
<g id="TARGETS">
	<g>
		<g>
			<path class="st1" d="M11.1,130.3c0,1.2-0.7,2-2.4,2c-0.6,0-1.3-0.1-1.9-0.4V131c0.6,0.3,1.2,0.4,1.8,0.4c1.1,0,1.5-0.5,1.5-1.1
				s-0.3-0.9-1.2-1c-1.6-0.2-2.2-0.6-2.2-1.8c0-0.9,0.5-1.8,2.3-1.8c0.6,0,1.2,0.1,1.7,0.3v1c-0.5-0.2-1.1-0.3-1.7-0.3
				c-1,0-1.3,0.4-1.3,1c0,0.6,0.4,0.8,1.2,0.9C10.3,128.7,11.1,129,11.1,130.3z"/>
		</g>
		<g>
			<path class="st1" d="M12.7,132.2h-1v-6.4h2c1.6,0,2.2,1,2.2,2c0,1-0.6,2-2.2,2h-1V132.2z M12.7,128.9h1.1c0.6,0.1,1.2-0.4,1.2-1
				c0.1-0.6-0.4-1.2-1-1.2c-0.1,0-0.1,0-0.2,0h-1.1V128.9z"/>
		</g>
		<g>
			<path class="st1" d="M20.2,129.3h-2.6v2h2.9v0.9h-3.9v-6.4h3.9v0.9h-2.9v1.8h2.6V129.3z"/>
		</g>
		<g>
			<path class="st1" d="M23.8,125.7c0.5,0,1,0.1,1.5,0.3v0.9c-0.4-0.2-0.9-0.3-1.4-0.3c-1.2,0-1.7,0.8-1.7,2.4s0.5,2.4,1.7,2.4
				c0.5,0,1-0.1,1.4-0.3v0.9c-0.5,0.2-1,0.3-1.5,0.3c-1.9,0-2.6-1.2-2.6-3.3S22,125.7,23.8,125.7z"/>
		</g>
		<g>
			<path class="st1" d="M26.3,132.2v-6.4h1v6.4H26.3z"/>
		</g>
		<g>
			<path class="st1" d="M31.6,130.6h-2l-0.5,1.6h-1l2-6.4h1l2,6.4h-1L31.6,130.6z M30.6,127l-0.8,2.8h1.6L30.6,127z"/>
		</g>
		<g>
			<path class="st1" d="M34.6,131.3h2.8v0.9h-3.7v-6.4h1L34.6,131.3z"/>
		</g>
		<g>
			<path class="st1" d="M42.5,130.6h-2l-0.5,1.6H39l2-6.4h1l2,6.4h-1L42.5,130.6z M41.5,127l-0.8,2.8h1.6L41.5,127z"/>
		</g>
		<g>
			<path class="st1" d="M48.2,132.2l-2.8-4.5v4.5h-0.9v-6.4h0.9l2.8,4.5v-4.5h1v6.4H48.2z"/>
		</g>
		<g>
			<path class="st1" d="M50.1,132.2v-6.4H52c2.1,0,2.7,1.4,2.7,3.2s-0.6,3.2-2.7,3.2L50.1,132.2z M51.1,131.3h1
				c1.3,0,1.7-0.9,1.7-2.3s-0.4-2.3-1.7-2.3H51L51.1,131.3z"/>
		</g>
		<g>
			<path class="st1" d="M6.9,141.2v-6.4h1.9c2.1,0,2.7,1.4,2.7,3.2s-0.6,3.2-2.7,3.2H6.9z M7.9,140.3h1c1.3,0,1.7-0.9,1.7-2.3
				s-0.4-2.3-1.7-2.3h-1L7.9,140.3z"/>
		</g>
		<g>
			<path class="st1" d="M12.3,141.2v-6.4h0.9v6.4H12.3z"/>
		</g>
		<g>
			<path class="st1" d="M17.9,138.4h-2.6v2.8h-0.9v-6.4h3.8v0.9h-2.9v1.8h2.6V138.4z"/>
		</g>
		<g>
			<path class="st1" d="M22.5,138.4h-2.6v2.8h-1v-6.4h3.8v0.9h-2.8v1.8h2.6V138.4z"/>
		</g>
		<g>
			<path class="st1" d="M26.9,138.3h-2.6v2h2.9v0.9h-3.9v-6.4h3.9v0.9h-2.9v1.8h2.6V138.3z"/>
		</g>
		<g>
			<path class="st1" d="M29,141.2h-1v-6.4h2.1c1.6,0,2.2,0.7,2.2,1.9c0.1,0.7-0.3,1.4-1,1.7l1.3,2.8h-1.1l-1.2-2.6H29V141.2z
				 M29,137.7h1.3c0.9,0,1-0.5,1-1s-0.1-1-1-1H29V137.7z"/>
		</g>
		<g>
			<path class="st1" d="M36.8,138.3h-2.7v2h2.9v0.9h-3.9v-6.4h3.9v0.9h-2.9v1.8h2.7V138.3z"/>
		</g>
		<g>
			<path class="st1" d="M41.7,141.2l-2.8-4.5v4.5H38v-6.4h0.9l2.8,4.5v-4.5h0.9v6.4H41.7z"/>
		</g>
		<g>
			<path class="st1" d="M45.7,135.7v5.5h-1v-5.5H43v-0.9h4.3v0.9H45.7z"/>
		</g>
		<g>
			<path class="st1" d="M48,141.2v-6.4h1v6.4H48z"/>
		</g>
		<g>
			<path class="st1" d="M53.2,139.6h-2l-0.5,1.6h-1l2-6.4h1l2,6.4h-1L53.2,139.6z M52.2,136l-0.8,2.8H53L52.2,136z"/>
		</g>
		<g>
			<path class="st1" d="M56.2,140.3H59v0.9h-3.8v-6.4h1L56.2,140.3z"/>
		</g>
		<g>
			<path class="st1" d="M9.2,144.7v5.5h-1v-5.5H6.6v-0.9h4.3v0.9H9.2z"/>
		</g>
		<g>
			<path class="st1" d="M12.4,150.2h-1v-6.4h2.1c1.6,0,2.2,0.7,2.2,1.9c0.1,0.7-0.3,1.4-1,1.7l1.4,2.8h-1.2l-1.2-2.6h-1.3V150.2z
				 M12.4,146.7h1.3c0.9,0,1-0.5,1-1s-0.1-1-1-1h-1.3V146.7z"/>
		</g>
		<g>
			<path class="st1" d="M20.2,147.3h-2.7v2h2.9v0.9h-3.9v-6.4h3.9v0.9h-2.9v1.8h2.7V147.3z"/>
		</g>
		<g>
			<path class="st1" d="M24.4,148.6h-2l-0.5,1.6h-1l2-6.4h1l2,6.4h-1L24.4,148.6z M23.4,145l-0.8,2.8h1.6L23.4,145z"/>
		</g>
		<g>
			<path class="st1" d="M27.9,144.7v5.5H27v-5.5h-1.7v-0.9h4.3v0.9H27.9z"/>
		</g>
		<g>
			<path class="st1" d="M33.7,149.3h-0.9l-1.6-3.9v4.8h-1v-6.4h1.2l1.7,4.3l1.7-4.3h1.2v6.4h-1l0-4.8L33.7,149.3z"/>
		</g>
		<g>
			<path class="st1" d="M40.7,147.3H38v2h3v0.9h-3.9v-6.4H41v0.9h-3v1.8h2.7V147.3z"/>
		</g>
		<g>
			<path class="st1" d="M45.5,150.2l-2.8-4.5v4.5h-1v-6.4h0.9l2.8,4.5v-4.5h0.9v6.4H45.5z"/>
		</g>
		<g>
			<path class="st1" d="M49.5,144.7v5.5h-1v-5.5h-1.6v-0.9h4.3v0.9H49.5z"/>
		</g>
		<g>
			<path class="st1" d="M56.5,147.4h-2.6v2.8h-1v-6.4h3.8v0.9h-2.8v1.8h2.6V147.4z"/>
		</g>
		<g>
			<path class="st1" d="M57.2,147c0-1.8,0.4-3.3,2.5-3.3s2.5,1.5,2.5,3.3s-0.4,3.3-2.5,3.3S57.2,148.8,57.2,147z M58.2,147
				c0,1.5,0.3,2.4,1.5,2.4s1.5-0.9,1.5-2.4s-0.3-2.4-1.5-2.4S58.2,145.5,58.2,147L58.2,147z"/>
		</g>
		<g>
			<path class="st1" d="M63.8,150.2h-1v-6.4H65c1.7,0,2.2,0.7,2.2,1.9c0.1,0.7-0.3,1.4-1,1.7l1.3,2.8h-1.2l-1.2-2.6h-1.3V150.2z
				 M63.8,146.7h1.3c0.9,0,1-0.5,1-1s-0.1-1-1-1h-1.3V146.7z"/>
		</g>
		<g>
			<path class="st1" d="M6.9,159.2v-6.4h1.9c2.1,0,2.7,1.4,2.7,3.2s-0.6,3.2-2.7,3.2H6.9z M7.9,158.3h1c1.3,0,1.7-0.9,1.7-2.3
				s-0.4-2.3-1.7-2.3h-1L7.9,158.3z"/>
		</g>
		<g>
			<path class="st1" d="M15.8,156.3h-2.7v2h2.9v0.9h-3.9v-6.4h3.9v0.9h-2.9v1.8h2.7V156.3z"/>
		</g>
		<g>
			<path class="st1" d="M21.5,152.8l-2,6.4h-1l-2-6.4h1L19,158l1.5-5.2L21.5,152.8z"/>
		</g>
		<g>
			<path class="st1" d="M25.6,156.3H23v2h2.9v0.9H22v-6.4h3.9v0.9H23v1.8h2.6L25.6,156.3z"/>
		</g>
		<g>
			<path class="st1" d="M27.7,158.3h2.8v0.9h-3.7v-6.4h1L27.7,158.3z"/>
		</g>
		<g>
			<path class="st1" d="M30.5,156c0-1.8,0.4-3.3,2.5-3.3s2.5,1.5,2.5,3.3s-0.4,3.3-2.5,3.3S30.5,157.8,30.5,156z M31.5,156
				c0,1.5,0.3,2.4,1.5,2.4c1.2,0,1.5-0.9,1.5-2.4s-0.3-2.4-1.5-2.4S31.5,154.5,31.5,156L31.5,156z"/>
		</g>
		<g>
			<path class="st1" d="M37.1,159.2h-1v-6.4h2c1.6,0,2.2,0.9,2.2,2s-0.6,2-2.2,2H37L37.1,159.2z M37.1,155.9h1.1
				c0.6,0.1,1.2-0.4,1.2-1s-0.4-1.2-1-1.2c-0.1,0-0.1,0-0.2,0h-1.1V155.9z"/>
		</g>
		<g>
			<path class="st1" d="M41.1,159.2v-6.4h1v6.4H41.1z"/>
		</g>
		<g>
			<path class="st1" d="M46.8,159.2l-2.8-4.5v4.5h-1v-6.4H44l2.8,4.5v-4.5h1v6.4H46.8z"/>
		</g>
		<g>
			<path class="st1" d="M48.6,156c0-2,0.7-3.3,2.6-3.3c0.6,0,1.3,0.1,1.8,0.3v1c-0.5-0.2-1.1-0.4-1.7-0.4c-1.3,0-1.8,0.9-1.8,2.4
				s0.5,2.4,1.8,2.4c0.3,0,0.6,0,0.9-0.1v-1.7h-1.1v-0.9h2.1v3.2c-0.6,0.3-1.3,0.4-2,0.4C49.3,159.3,48.6,158,48.6,156z"/>
		</g>
		<g>
			<path class="st1" d="M9.4,161.7c0.5,0,1,0.1,1.5,0.3v0.9c-0.5-0.2-0.9-0.3-1.4-0.3c-1.2,0-1.7,0.8-1.7,2.4s0.5,2.4,1.7,2.4
				c0.5,0,1-0.1,1.4-0.3v0.9c-0.5,0.2-1,0.3-1.5,0.3c-1.9,0-2.6-1.2-2.6-3.3S7.5,161.7,9.4,161.7z"/>
		</g>
		<g>
			<path class="st1" d="M11.5,165c0-1.8,0.4-3.3,2.4-3.3s2.5,1.5,2.5,3.3s-0.5,3.3-2.5,3.3S11.5,166.8,11.5,165z M12.5,165
				c0,1.5,0.3,2.4,1.5,2.4s1.5-0.9,1.5-2.4s-0.3-2.4-1.5-2.4S12.5,163.5,12.5,165L12.5,165z"/>
		</g>
		<g>
			<path class="st1" d="M17.1,166.2v-4.4h1v4.3c-0.1,0.7,0.4,1.2,1,1.3c0.1,0,0.2,0,0.3,0c0.6,0.1,1.3-0.3,1.4-1c0-0.1,0-0.2,0-0.3
				v-4.3h1v4.4c0.1,1.1-0.8,2.1-1.9,2.1c-0.1,0-0.3,0-0.4,0c-1.1,0.2-2.1-0.5-2.3-1.6C17.1,166.5,17.1,166.4,17.1,166.2z"/>
		</g>
		<g>
			<path class="st1" d="M26.4,168.2l-2.8-4.5v4.5h-1v-6.4h0.9l2.8,4.5v-4.5h1v6.4H26.4z"/>
		</g>
		<g>
			<path class="st1" d="M30.4,162.7v5.5h-1v-5.5h-1.7v-0.9H32v0.9H30.4z"/>
		</g>
		<g>
			<path class="st1" d="M33.5,168.2h-1v-6.4h2.1c1.7,0,2.2,0.7,2.2,1.9c0.1,0.7-0.3,1.4-1,1.7l1.3,2.8H36l-1.2-2.6h-1.3V168.2z
				 M33.5,164.7h1.3c0.9,0,1-0.5,1-1s-0.1-1-1-1h-1.3V164.7z"/>
		</g>
		<g>
			<path class="st1" d="M37.9,168.2v-6.4h1v6.4H37.9z"/>
		</g>
		<g>
			<path class="st1" d="M43.5,165.3h-2.6v2h2.9v0.9h-3.9v-6.4h3.9v0.9h-2.9v1.8h2.7L43.5,165.3z"/>
		</g>
		<g>
			<path class="st1" d="M48.7,166.3c0,1.2-0.7,2-2.4,2c-0.6,0-1.3-0.1-1.9-0.4V167c0.6,0.3,1.2,0.4,1.8,0.4c1.1,0,1.5-0.5,1.5-1.1
				s-0.3-0.9-1.2-1c-1.6-0.2-2.2-0.6-2.2-1.8c0-0.9,0.5-1.8,2.3-1.8c0.6,0,1.2,0.1,1.7,0.3v1c-0.5-0.2-1.1-0.3-1.7-0.3
				c-1,0-1.3,0.4-1.3,1s0.4,0.8,1.2,0.9C47.9,164.7,48.7,165,48.7,166.3z"/>
		</g>
	</g>
	<g>
		<rect x="3.3" y="24" class="st1" width="94.8" height="94.8"/>
	</g>
	<g>
		<path class="st1" d="M98.2,20.7H3.3V3.3h94.8V20.7z M4.3,19.7h92.8V4.3H4.3L4.3,19.7z"/>
	</g>
	<g class="st2">
		<path class="st1" d="M6.7,6.9h4.5v1.4H9.9v8.8H8.1V8.3H6.7V6.9z"/>
	</g>
	<g class="st2">
		<path class="st1" d="M11.2,17.1l1.9-10.2h1.9L17,17.1h-1.8l-0.3-1.9h-1.8l-0.3,1.9H11.2z M13.3,13.9h1.4L14,9.8h0L13.3,13.9z"/>
	</g>
	<g class="st2">
		<path class="st1" d="M19.6,12.4v4.7h-1.7V6.9h2.5c1.7,0,2.4,0.9,2.4,2.3v1.3c0,1.1-0.4,1.7-1.4,2l1.6,4.6h-1.8L19.6,12.4z
			 M19.6,8.3v3.2h0.6c0.6,0,0.8-0.3,0.8-0.8V9.2c0-0.6-0.3-0.8-0.8-0.8H19.6z"/>
	</g>
	<g class="st2">
		<path class="st1" d="M26.4,11.7h2.4v5.4h-1.2V16c-0.2,0.8-0.7,1.2-1.6,1.2c-1.5,0-2.1-1.2-2.1-2.7V9.6c0-1.6,0.8-2.7,2.6-2.7
			c1.9,0,2.4,1.1,2.4,2.6v0.9h-1.6v-1c0-0.6-0.2-1-0.9-1c-0.6,0-0.9,0.4-0.9,1v5.5c0,0.6,0.3,1,0.8,1c0.6,0,0.8-0.3,0.8-1V13h-0.8
			V11.7z"/>
	</g>
	<g class="st2">
		<path class="st1" d="M30.2,6.9h4.1v1.4h-2.4v2.9h1.7v1.4h-1.7v3.1h2.4v1.4h-4.1V6.9z"/>
	</g>
	<g class="st2">
		<path class="st1" d="M35.1,6.9h4.5v1.4h-1.4v8.8h-1.7V8.3h-1.4V6.9z"/>
	</g>
	<g class="st2">
		<path class="st1" d="M88.8,17.1l1.9-10.2h1.9l1.9,10.2h-1.8l-0.3-1.9h-1.8l-0.3,1.9H88.8z M90.9,13.9h1.4l-0.7-4.1h0L90.9,13.9z"
			/>
	</g>
	<g class="st2">
		<path class="st1" d="M76.8,6.9v10.2H75V9.3h0l-1.2,1.2h0V8.8l1.6-1.8H76.8z"/>
		<path class="st1" d="M78.2,14.5V9.5c0-1.6,0.8-2.7,2.5-2.7c1.7,0,2.5,1.2,2.5,2.7v4.9c0,1.6-0.8,2.7-2.5,2.7
			C79,17.2,78.2,16,78.2,14.5z M81.5,14.7V9.3c0-0.6-0.2-1-0.8-1c-0.6,0-0.8,0.4-0.8,1v5.5c0,0.6,0.2,1,0.8,1
			C81.3,15.8,81.5,15.3,81.5,14.7z"/>
	</g>
	<g>
		<polygon class="st1" points="85.4,9.9 85.4,14.1 87.6,12 		"/>
	</g>
	<g>
		<path class="st1" d="M98.2,171.9h-95v-49.7h95V171.9z M4.2,170.9h93v-47.7h-93V170.9z"/>
	</g>
	<g>
		<g>
			<path class="st0" d="M76.5,96.8c0.9-1.5,3.4-2.9,5.7-5.2s2.6-3.2,3.2-6.8c0.5-4.3,0.7-8.6,0.4-12.9c-0.1-0.9-0.2-2.2-1-2.2
				s-1,1.1-1.3,1.9s-0.5,5.3-0.8,7.4c-0.6,2.4-1.6,4.7-3,6.8c-0.6,0.9-3,3.5-3.5,3.4s-0.3-0.8,0-1.2s2.5-2.8,3.6-4.3s0.9-3,0.1-3.6
				c-0.7-0.4-1.3,0.8-3,2.5s-3.6,3.4-7,6.4c-2.4,2.2-3.6,5.4-3.2,8.6c0.1,0.7-0.6,5.7-1.4,11.4h10.2c-0.2-3.6-0.4-6.5-0.4-6.8
				C74.9,100.4,75.5,98.5,76.5,96.8z"/>
		</g>
		<g>
			<path class="st0" d="M34.8,97.7c0.4-3.2-0.8-6.4-3.2-8.6c-3.4-3-5.3-4.8-7-6.4s-2.3-2.9-3-2.5c-0.9,0.5-1,2,0.1,3.6
				s3.2,3.8,3.6,4.3s0.6,1,0,1.2s-2.9-2.5-3.5-3.4c-1.4-2.1-2.4-4.4-3-6.8c-0.4-2.2-0.6-6.8-0.9-7.4s-0.5-1.9-1.3-1.9
				s-0.9,1.3-1,2.2c-0.3,4.3-0.2,8.6,0.4,12.9c0.6,3.6,0.9,4.4,3.2,6.8s4.8,3.7,5.7,5.2c1,1.7,1.5,3.5,1.5,5.5
				c0,0.4-0.2,3.7-0.4,6.8h10.2C35.5,104.5,34.8,98.8,34.8,97.7z"/>
		</g>
		<g>
			<path class="st0" d="M72.8,58.6c0-0.6-0.5-1-1.1-1c-0.6,0-1,0-1.6,0s-1.2-0.2-1.3-0.8c-0.2-1.1-0.6-2.1-1-3.1
				c-0.2-0.6-0.1-1.2,0.4-1.6c0.5-0.4,0.9-0.8,1.4-1.2c0.4-0.3,0.6-0.9,0.3-1.4c-0.7-1.2-1.5-2.3-2.5-3.3c-0.4-0.5-1-0.5-1.5-0.2
				l0,0c-0.5,0.3-0.9,0.6-1.3,0.9c-0.4,0.4-1.1,0.5-1.5,0.1c-1-0.7-2-1.5-2.7-1.9c-0.5-0.3-0.8-0.9-0.6-1.5c0.2-0.6,0.3-1.1,0.4-1.7
				c0.2-0.5-0.1-1.1-0.6-1.3c-1.3-0.6-2.6-1-4-1.2c-0.6-0.1-1.1,0.2-1.3,0.8c-0.2,0.6-0.4,1-0.5,1.5c-0.1,0.6-0.6,1-1.2,1H49
				c-0.6,0.1-1.2-0.2-1.4-0.8c-0.2-0.6-0.4-1.1-0.7-1.7c-0.2-0.5-0.7-0.8-1.3-0.7c-1.4,0.3-2.7,0.7-4,1.3c-0.5,0.2-0.8,0.8-0.6,1.4
				c0,0,0,0,0,0l0,0c0.2,0.6,0.3,1,0.5,1.6c0.3,0.5,0.1,1.2-0.3,1.5c-0.9,0.6-1.8,1.3-2.6,2c-0.5,0.4-1.1,0.4-1.6,0.1
				c-0.5-0.3-1-0.6-1.5-0.9c-0.5-0.3-1.1-0.2-1.4,0.2c-0.9,1-1.7,2.2-2.3,3.4c-0.3,0.5-0.2,1.2,0.3,1.5c0,0,0,0,0,0l0,0
				c0.5,0.4,0.8,0.7,1.3,1c0.5,0.3,0.8,0.9,0.6,1.4c-0.2,0.6-0.8,2.5-1,3.1c-0.1,0.6-0.7,1-1.3,1c-0.6,0-1.2,0.1-1.8,0.1
				c-0.5,0.1-0.9,0.5-1,1c-0.2,1.4-0.1,2.8,0.1,4.2c0,0.6,0.5,1,1.1,1c0,0,0,0,0,0l0,0c0.6,0,1,0,1.6,0.1c0.6,0.1,1.2,0.2,1.3,0.8
				c0.3,1.1,0.6,2.1,1,3.1c0.2,0.6,0.1,1.2-0.4,1.6c-0.5,0.4-0.9,0.7-1.4,1.2c-0.4,0.3-0.5,0.9-0.3,1.4c0.7,1.2,1.5,2.3,2.5,3.3
				c0.4,0.5,1,0.5,1.5,0.2l0,0c0.5-0.3,0.9-0.6,1.3-0.9c0.4-0.4,1.1-0.5,1.6-0.1c0.5,0.4,2,1.5,2.7,1.9c0.5,0.3,0.8,0.9,0.6,1.5
				c-0.2,0.6-0.3,1.1-0.4,1.7c-0.2,0.5,0.1,1.1,0.6,1.3c1.3,0.6,2.6,1,4,1.2c0.6,0.1,1.2-0.2,1.3-0.8c0.2-0.6,0.4-1,0.5-1.5
				c0.1-0.6,0.6-1,1.2-1h3.3c0.6-0.1,1.2,0.3,1.4,0.9c0.2,0.6,0.4,1.1,0.7,1.7c0.2,0.5,0.7,0.8,1.3,0.7c1.4-0.3,2.7-0.7,4-1.3
				c0.6-0.2,0.8-0.9,0.6-1.4c0,0,0,0,0,0v-0.1c-0.2-0.6-0.3-1-0.5-1.6c-0.3-0.5-0.1-1.2,0.3-1.5c0.5-0.4,2.1-1.5,2.6-2
				c0.5-0.4,1.1-0.4,1.6-0.1c0.5,0.3,1,0.6,1.5,0.9c0.5,0.3,1.1,0.2,1.4-0.2c0.9-1,1.7-2.2,2.4-3.4c0.3-0.5,0.2-1.1-0.3-1.5
				c0,0,0,0,0,0l0,0c-0.5-0.4-0.8-0.7-1.3-1c-0.5-0.3-0.8-0.9-0.6-1.4c0.2-0.6,0.8-2.4,1-3.1c0.2-0.6,0.7-1,1.3-1
				c0.6,0,1.2-0.1,1.8-0.1c0.5-0.1,0.9-0.5,1-1C73,61.4,73,60,72.8,58.6z M50.8,74.8c-7.5,0-13.6-6.2-13.6-13.7
				c0-7.5,6.2-13.6,13.7-13.6c7.5,0,13.6,6.2,13.6,13.7C64.5,68.7,58.4,74.8,50.8,74.8C50.8,74.8,50.8,74.8,50.8,74.8z"/>
		</g>
		<g>
			<path class="st0" d="M40.8,57.2c0.3,0.2,0.5,0,0.7-0.2c0.1-0.1,0.1-0.3,0-0.5c-0.1-0.2,0.2-0.3,0.3-0.3c0.3-0.2,0.6-0.3,0.9-0.5
				c0.6-0.2,1.2-0.2,1.8,0c0.4,0.2,0.9,0.1,1.2-0.2c0.2-0.3,0.5-0.5,0.9-0.7c0.2-0.1-0.4-0.7-0.9,0s-0.8,0.7-1,0.7S43,55,42.9,54.6
				s0.5-0.8,1-1c0.7-0.2,1.5-0.3,2.3-0.3c0.7-0.2,1.7-0.5,2.1-0.2s-2,0.9-1.2,1.3c0.3,0.2,1.6-0.7,2-1c1-0.5-1-0.7-0.7-1.8
				s-2.4-0.8-3.8-0.7c-0.7,0.4-1.3,0.9-1.9,1.4c0.2,0,0.3,0.1,0.4,0.2c0,0.3,0,0.5-0.2,0.8c-0.3,0.3-0.8,0.5-1.3,0.6
				c-0.1,0-0.2-0.1-0.2-0.1c-0.2,0.3-0.4,0.6-0.6,0.9c0.3-0.2,0.6-0.3,0.9-0.3c0.3,0,0.7,0.1,0.8,0.3s-0.8,0.6-0.9,0.7
				c-0.4,0.4-1.1,1.2-1.5,1.2c-0.1,0-0.2,0-0.3,0c-0.1,0.3-0.2,0.5-0.3,0.8C39.9,57.1,40.3,57.1,40.8,57.2z"/>
		</g>
		<g>
			<path class="st0" d="M60.6,60.5c-0.4,0.3-0.8,0.4-1.3,0.5c-0.4,0.3-0.7,0.9-0.6,1.5c0.1,0.5,1.2,1.7,0.4,1.7
				c-0.8-0.4-1.4-0.9-1.9-1.6c-0.2-0.7-0.5-1.3-0.7-1.8c-0.1-0.4-0.5-0.6-0.9-0.4c0,0,0,0,0,0c-0.1,0-0.1,0.1-0.2,0.1
				c-0.4,0.3,0.1,0.6-0.2,1.2s-0.5,1.2-1,0.7c-1.2-1.4-2.9-0.7-3.1-2.2c-0.1-0.8-0.8-0.7-1.4-1.2s-0.9-0.7-1-0.4s1.8,1.8,2,2.2
				c0.2,0.6-0.6,1.1-1.2,1.2S48.6,61.6,48,61s-0.8-1-0.8-0.5c0,0.8,0.4,1.5,1.1,2c0.5,0.3,1,0.5,0.9,1c-0.1,0.5,0,0.2-0.5,0.8
				c-0.5,0.3-0.7,0.9-0.6,1.5c0,0.5-0.1,1-0.3,1.4c-0.1,0.6-0.4,0.1-0.6,1c-0.1,0.6-0.4,1.1-0.8,1.5c-0.5,0.4-1,0.6-1.6,0.6
				c-0.5,0-0.6-1.5-0.6-2.3c0-0.3-0.4,0.5-0.5-1.1c-0.1-1-0.8,0.1-0.8-0.6s-0.4-0.5-0.7-1s-0.8,0-1.2,0.2s-0.3,0.3-0.9,0.1l0,0
				c1.4,3.3,4.2,5.9,7.7,6.9c-0.2-0.1-0.3-0.4-0.1-0.6c0.5-0.9,1.4-1.4,2.4-1.4c2-0.2,4.5,1.3,4.9,1s1.2-1.3,2.5-1.3
				c0.4,0,0.8,0.1,1.1,0.3c0.4-0.3,0.8-0.6,1.2-1c-0.1,0-0.3-0.1-0.4-0.1c-0.7-0.3-0.6,0.2-0.9,0.1s0.4-0.9-0.6-0.2
				s-0.7-0.1-1.1-1.2c-0.3-1,0.3-2.1,1.3-2.6c0.7-0.2,1.4-0.4,2.2-0.5c1.4-0.4,1.8-1.2,2-0.7l0.1,0.3c0.1,0.2,0.2,0.5,0.2,0.7
				c0.2-0.6,0.4-1.2,0.5-1.8c-0.3-0.1-1.6-2-0.6-3.2c0.2-0.2-0.4-0.8-0.2-0.8c0.5,0,0.9,0.3,1,0.7c0-0.6-0.1-1.3-0.3-1.9
				c0,0.1,0,0.3,0,0.4c-0.2,0.4-0.6,0.6-1,0.4c-0.2-0.1-0.3-0.2-0.4-0.3c-0.1-0.2-0.6-0.7-0.6,0.2S61.3,60,60.6,60.5z M49.3,65.3
				c-0.2,0.3-0.6,2.3-0.9,2.1s0.1-2.3,0.2-2.5C49,64,50,64,49.3,65.3z M54.2,62.9c-0.4,0.2-0.8,0.2-1.2-0.1
				c-0.3-0.2,0.2-0.6,0.4-0.6C53.8,62.2,54.4,62.7,54.2,62.9L54.2,62.9z M59.2,62.5c-0.1-0.3,0.2-0.5,0.4-0.3
				c0.3,0.1,0.5,0.4,0.6,0.7c0,0.2-0.5,0.2-0.6,0.1S59.3,62.8,59.2,62.5L59.2,62.5z M60.8,64c-0.4,0.2-0.8,0.1-1.2-0.1
				c-0.3-0.2,0.2-0.6,0.4-0.6C60.4,63.3,61,63.8,60.8,64L60.8,64z"/>
		</g>
		<g>
			<path class="st0" d="M40.3,58.6c0.7,0.1,1.3,0.3,2,0.5c0.7,0.3,1.8,0.9,2.4,0.6c0.5-0.2,0.8-0.4,0.8-0.8s-0.4-0.6-0.9-0.3
				c-0.2,0.1-0.5-0.7-0.8-0.7s0.4,1,0.1,1s-0.7-1-0.8-1.2s-0.5-0.6-0.8-0.3c-0.7,0.7-1.9,0.6-2.1,0.8c-0.1,0.1-0.2,0.1-0.2,0.1
				c-0.5,0.2-0.6-0.3-0.6-0.7c-0.2,0.7-0.4,1.4-0.4,2.1l0.1-0.1c0.4-0.7,0.5-0.8,0.6-0.9c0.1-0.1,0.3-0.1,0.5-0.2L40.3,58.6z"/>
		</g>
	</g>
</g>
</svg>
