<?xml version="1.0" encoding="utf-8"?>
<!-- Generator: Adobe Illustrator 22.0.1, SVG Export Plug-In . SVG Version: 6.00 Build 0)  -->
<svg version="1.1" id="Layer_1" xmlns="http://www.w3.org/2000/svg" xmlns:xlink="http://www.w3.org/1999/xlink" x="0px" y="0px"
	 viewBox="0 0 101.5 157.1" style="enable-background:new 0 0 101.5 157.1;" xml:space="preserve">
<style type="text/css">
	.st0{fill:#FFFFFF;}
	.st1{fill:#DD1367;}
	.st2{enable-background:new    ;}
</style>
<title>TARGET 1 B copy 3</title>
<g id="WHITE_BG">
	<g>
		<rect y="0" class="st0" width="101.5" height="157.1"/>
	</g>
	<g>
		<path class="st1" d="M98.2,153.8H3.3v-31.6h94.8V153.8z M4.3,152.8h92.8v-29.6H4.3L4.3,152.8z"/>
	</g>
</g>
<g id="TARGETS">
	<g>
		<g>
			<path class="st1" d="M10.1,130.6h-2l-0.4,1.6h-1l2-6.4h1l2,6.4h-1L10.1,130.6z M9.1,127l-0.8,2.8h1.6L9.1,127z"/>
		</g>
		<g>
			<path class="st1" d="M12.1,132.2v-6.4H14c2.1,0,2.7,1.4,2.7,3.2s-0.6,3.2-2.7,3.2L12.1,132.2z M13.1,131.3h1
				c1.3,0,1.7-0.9,1.7-2.3s-0.4-2.3-1.7-2.3h-1V131.3z"/>
		</g>
		<g>
			<path class="st1" d="M17.3,129c0-1.8,0.4-3.3,2.5-3.3s2.5,1.5,2.5,3.3s-0.4,3.3-2.5,3.3S17.3,130.8,17.3,129z M18.3,129
				c0,1.5,0.3,2.4,1.5,2.4s1.5-0.9,1.5-2.4s-0.3-2.4-1.5-2.4S18.3,127.5,18.3,129L18.3,129z"/>
		</g>
		<g>
			<path class="st1" d="M24,132.2h-1v-6.4h2c1.6,0,2.2,1,2.2,2c0,1-0.6,2-2.2,2h-1V132.2z M24,129h1.1c0.6,0.1,1.2-0.4,1.2-1
				s-0.4-1.2-1-1.2c-0.1,0-0.1,0-0.2,0H24V129z"/>
		</g>
		<g>
			<path class="st1" d="M30.2,126.7v5.5h-1v-5.5h-1.7v-0.9h4.3v0.9H30.2z"/>
		</g>
		<g>
			<path class="st1" d="M37.1,129.4h-2.6v2.8h-1v-6.4h3.8v0.9h-2.8v1.8h2.6L37.1,129.4z"/>
		</g>
		<g>
			<path class="st1" d="M38.1,132.2v-6.4h1v6.4H38.1z"/>
		</g>
		<g>
			<path class="st1" d="M44.3,130.3c0,1.2-0.7,2-2.4,2c-0.6,0-1.3-0.1-1.9-0.4V131c0.6,0.3,1.2,0.4,1.8,0.4c1.1,0,1.5-0.5,1.5-1.1
				s-0.3-0.9-1.2-1c-1.6-0.2-2.2-0.6-2.2-1.8c0-0.9,0.5-1.8,2.3-1.8c0.6,0,1.2,0.1,1.7,0.3v1c-0.5-0.2-1.1-0.3-1.7-0.3
				c-1,0-1.3,0.4-1.3,1c0,0.7,0.4,0.8,1.2,0.9C43.6,128.7,44.3,129,44.3,130.3z"/>
		</g>
		<g>
			<path class="st1" d="M47.6,125.7c0.5,0,1,0.1,1.5,0.3v0.9c-0.5-0.2-0.9-0.3-1.4-0.3c-1.2,0-1.7,0.8-1.7,2.4s0.5,2.4,1.7,2.4
				c0.5,0,1-0.1,1.4-0.3v0.9c-0.5,0.2-1,0.3-1.5,0.3c-1.9,0-2.6-1.2-2.6-3.3S45.7,125.7,47.6,125.7z"/>
		</g>
		<g>
			<path class="st1" d="M52.9,130.6h-2l-0.5,1.6h-1l2-6.4h1l2,6.4h-1L52.9,130.6z M51.9,127l-0.8,2.8h1.6L51.9,127z"/>
		</g>
		<g>
			<path class="st1" d="M55.9,131.3h2.8v0.9h-3.7v-6.4h1L55.9,131.3z"/>
		</g>
		<g>
			<path class="st1" d="M63.9,130.6h-2l-0.5,1.6h-1l2-6.4h1l2,6.4h-1L63.9,130.6z M62.9,127l-0.8,2.8h1.6L62.9,127z"/>
		</g>
		<g>
			<path class="st1" d="M69.6,132.2l-2.8-4.5v4.5h-0.9v-6.4h0.9l2.8,4.5v-4.5h0.9v6.4H69.6z"/>
		</g>
		<g>
			<path class="st1" d="M71.4,132.2v-6.4h1.9c2.1,0,2.7,1.4,2.7,3.2s-0.6,3.2-2.7,3.2L71.4,132.2z M72.4,131.3h1
				c1.3,0,1.7-0.9,1.7-2.3s-0.4-2.3-1.7-2.3h-1V131.3z"/>
		</g>
		<g>
			<path class="st1" d="M11.1,139.3c0,1.2-0.7,2-2.4,2c-0.6,0-1.3-0.1-1.9-0.4V140c0.6,0.3,1.2,0.4,1.8,0.4c1.1,0,1.5-0.5,1.5-1.1
				s-0.3-0.9-1.2-1c-1.6-0.2-2.2-0.6-2.2-1.8c0-0.9,0.5-1.8,2.3-1.8c0.6,0,1.2,0.1,1.7,0.3v1c-0.5-0.2-1.1-0.3-1.7-0.3
				c-1,0-1.3,0.4-1.3,1s0.4,0.8,1.2,0.9C10.3,137.7,11.1,138,11.1,139.3z"/>
		</g>
		<g>
			<path class="st1" d="M11.6,138c0-1.8,0.4-3.3,2.4-3.3s2.5,1.5,2.5,3.3s-0.4,3.3-2.5,3.3S11.6,139.8,11.6,138z M12.6,138
				c0,1.5,0.3,2.4,1.5,2.4s1.5-0.9,1.5-2.4s-0.3-2.4-1.5-2.4S12.6,136.5,12.6,138L12.6,138z"/>
		</g>
		<g>
			<path class="st1" d="M19.8,134.7c0.5,0,1,0.1,1.5,0.3v0.9c-0.5-0.2-0.9-0.3-1.4-0.3c-1.2,0-1.7,0.8-1.7,2.4s0.5,2.4,1.7,2.4
				c0.5,0,1-0.1,1.4-0.3v0.9c-0.5,0.2-1,0.3-1.5,0.3c-1.9,0-2.6-1.2-2.6-3.3S18,134.7,19.8,134.7z"/>
		</g>
		<g>
			<path class="st1" d="M22.3,141.2v-6.4h1v6.4H22.3z"/>
		</g>
		<g>
			<path class="st1" d="M27.6,139.6h-2l-0.5,1.6h-1l2-6.4h1l2,6.4h-1L27.6,139.6z M26.6,136l-0.8,2.8h1.6L26.6,136z"/>
		</g>
		<g>
			<path class="st1" d="M30.6,140.3h2.8v0.9h-3.7v-6.4h1L30.6,140.3z"/>
		</g>
		<g>
			<path class="st1" d="M36.3,141.2h-1v-6.4h2c1.6,0,2.2,0.9,2.2,2s-0.6,2-2.2,2h-1.1L36.3,141.2z M36.3,137.9h1.1
				c0.6,0.1,1.2-0.4,1.2-1s-0.4-1.2-1-1.2c-0.1,0-0.1,0-0.2,0h-1.1V137.9z"/>
		</g>
		<g>
			<path class="st1" d="M40,138c0-1.8,0.4-3.3,2.5-3.3s2.5,1.5,2.5,3.3s-0.4,3.3-2.5,3.3S40,139.8,40,138z M41,138
				c0,1.5,0.3,2.4,1.5,2.4s1.5-0.9,1.5-2.4s-0.3-2.4-1.5-2.4S41,136.5,41,138z"/>
		</g>
		<g>
			<path class="st1" d="M46.6,140.3h2.8v0.9h-3.7v-6.4h1L46.6,140.3z"/>
		</g>
		<g>
			<path class="st1" d="M50,141.2v-6.4h1v6.4H50z"/>
		</g>
		<g>
			<path class="st1" d="M54.6,134.7c0.5,0,1,0.1,1.5,0.3v0.9c-0.5-0.2-0.9-0.3-1.4-0.3c-1.2,0-1.7,0.8-1.7,2.4s0.5,2.4,1.7,2.4
				c0.5,0,1-0.1,1.4-0.3v0.9c-0.5,0.2-1,0.3-1.5,0.3c-1.9,0-2.6-1.2-2.6-3.3S52.7,134.7,54.6,134.7z"/>
		</g>
		<g>
			<path class="st1" d="M57.1,141.2v-6.4h1v6.4H57.1z"/>
		</g>
		<g>
			<path class="st1" d="M62.7,138.3h-2.7v2H63v0.9h-3.9v-6.4H63v0.9h-2.9v1.8h2.7V138.3z"/>
		</g>
		<g>
			<path class="st1" d="M67.9,139.3c0,1.2-0.7,2-2.4,2c-0.6,0-1.3-0.1-1.9-0.4V140c0.6,0.3,1.2,0.4,1.8,0.4c1.2,0,1.5-0.5,1.5-1.1
				s-0.3-0.9-1.2-1c-1.6-0.2-2.2-0.6-2.2-1.8c0-0.9,0.5-1.8,2.3-1.8c0.6,0,1.2,0.1,1.7,0.3v1c-0.5-0.2-1.1-0.3-1.7-0.3
				c-1,0-1.3,0.4-1.3,1s0.4,0.8,1.2,0.9C67.1,137.7,67.9,138,67.9,139.3z"/>
		</g>
		<g>
			<path class="st1" d="M72.1,135.7v5.5h-1v-5.5h-1.6v-0.9h4.3v0.9H72.1z"/>
		</g>
		<g>
			<path class="st1" d="M78,141.2v-2.9h-2.6v2.9h-0.9v-6.4h0.9v2.6H78v-2.6h1v6.4H78z"/>
		</g>
		<g>
			<path class="st1" d="M83,139.6h-2l-0.4,1.6h-1l2-6.4h1l2,6.4h-1L83,139.6z M82,136l-0.8,2.8h1.6L82,136z"/>
		</g>
		<g>
			<path class="st1" d="M86.5,135.7v5.5h-1v-5.5h-1.6v-0.9h4.3v0.9H86.5z"/>
		</g>
		<g>
			<path class="st1" d="M7.8,150.2h-1v-6.4h2.1c1.6,0,2.2,0.9,2.2,2s-0.6,2-2.2,2H7.8V150.2z M7.8,146.9H9c0.6,0.1,1.2-0.4,1.2-1
				c0.1-0.6-0.4-1.2-1-1.2c-0.1,0-0.1,0-0.2,0H7.8V146.9z"/>
		</g>
		<g>
			<path class="st1" d="M12.7,150.2h-1v-6.4h2.1c1.6,0,2.2,0.7,2.2,1.9c0.1,0.7-0.3,1.4-1,1.7l1.3,2.8h-1.1l-1.2-2.6h-1.3V150.2z
				 M12.7,146.7H14c0.9,0,1-0.5,1-1s-0.1-1-1-1h-1.3V146.7z"/>
		</g>
		<g>
			<path class="st1" d="M16.7,147c0-1.8,0.4-3.3,2.5-3.3s2.5,1.5,2.5,3.3s-0.4,3.3-2.5,3.3S16.7,148.8,16.7,147z M17.7,147
				c0,1.5,0.3,2.4,1.5,2.4s1.5-0.9,1.5-2.4s-0.3-2.4-1.5-2.4S17.7,145.5,17.7,147L17.7,147z"/>
		</g>
		<g>
			<path class="st1" d="M25.9,149.3H25l-1.6-3.9l0,4.8h-1v-6.4h1.2l1.7,4.3l1.7-4.3h1.2v6.4h-1v-4.8L25.9,149.3z"/>
		</g>
		<g>
			<path class="st1" d="M29.3,147c0-1.8,0.4-3.3,2.5-3.3s2.5,1.5,2.5,3.3s-0.4,3.3-2.5,3.3S29.3,148.8,29.3,147z M30.3,147
				c0,1.5,0.3,2.4,1.5,2.4c1.2,0,1.5-0.9,1.5-2.4s-0.3-2.4-1.5-2.4S30.2,145.5,30.3,147L30.3,147z"/>
		</g>
		<g>
			<path class="st1" d="M36.9,144.7v5.5h-1v-5.5h-1.6v-0.9h4.3v0.9H36.9z"/>
		</g>
		<g>
			<path class="st1" d="M42.8,147.3h-2.7v2h2.9v0.9h-3.9v-6.4h3.9v0.9h-2.9v1.8h2.7V147.3z"/>
		</g>
		<g>
			<path class="st1" d="M48,148.3c0,1.2-0.7,2-2.4,2c-0.6,0-1.3-0.1-1.9-0.4V149c0.6,0.3,1.2,0.4,1.8,0.4c1.2,0,1.5-0.5,1.5-1.1
				s-0.3-0.9-1.2-1c-1.6-0.2-2.2-0.6-2.2-1.8c0-0.9,0.5-1.8,2.3-1.8c0.6,0,1.2,0.1,1.7,0.3v1c-0.5-0.2-1.1-0.3-1.7-0.3
				c-1,0-1.3,0.4-1.3,1s0.4,0.8,1.2,0.9C47.2,146.7,48,147,48,148.3z"/>
		</g>
		<g>
			<path class="st1" d="M53.7,147.3h-2.7v2H54v0.9h-3.9v-6.4H54v0.9h-2.9v1.8h2.7V147.3z"/>
		</g>
		<g>
			<path class="st1" d="M58.2,150l2,0.4v1l-4-1.2c-1.3-0.4-1.6-1.6-1.6-3.2c0-1.9,0.4-3.3,2.5-3.3s2.5,1.4,2.5,3.3
				C59.5,148.5,59.3,149.6,58.2,150L58.2,150z M55.6,147c0,1.5,0.3,2.4,1.5,2.4s1.5-0.9,1.5-2.4s-0.3-2.4-1.5-2.4
				S55.6,145.5,55.6,147z"/>
		</g>
		<g>
			<path class="st1" d="M60.2,148.2v-4.4h1v4.3c0,0.8,0.6,1.4,1.4,1.4s1.4-0.6,1.4-1.4v-4.3h1v4.4c-0.1,1.3-1.3,2.2-2.6,2.1
				C61.3,150.1,60.5,149.3,60.2,148.2L60.2,148.2z"/>
		</g>
		<g>
			<path class="st1" d="M68.7,148.6h-2l-0.4,1.6h-1l2-6.4h1l2,6.4h-1L68.7,148.6z M67.7,145l-0.8,2.8h1.6L67.7,145z"/>
		</g>
		<g>
			<path class="st1" d="M71.7,149.3h2.8v0.9h-3.7v-6.4h1L71.7,149.3z"/>
		</g>
		<g>
			<path class="st1" d="M75.1,150.2v-6.4h1v6.4H75.1z"/>
		</g>
		<g>
			<path class="st1" d="M79.3,144.7v5.5h-1v-5.5h-1.6v-0.9H81v0.9H79.3z"/>
		</g>
		<g>
			<path class="st1" d="M84.3,147.6v2.6h-1v-2.6l-2.2-3.8h1.1l1.6,3l1.6-3h1.1L84.3,147.6z"/>
		</g>
	</g>
	<g>
		<rect x="3.3" y="24" class="st1" width="94.8" height="94.8"/>
	</g>
	<g class="st2">
		<path class="st1" d="M77.2,6.9v10.2h-1.7V9.3h0l-1.2,1.2h0V8.8l1.6-1.8H77.2z"/>
		<path class="st1" d="M78.6,14.5V9.6c0-1.6,0.8-2.7,2.5-2.7c1.7,0,2.5,1.2,2.5,2.7v4.9c0,1.6-0.8,2.7-2.5,2.7
			C79.4,17.2,78.6,16.1,78.6,14.5z M82,14.8V9.3c0-0.6-0.2-1-0.8-1c-0.6,0-0.8,0.4-0.8,1v5.5c0,0.6,0.2,1,0.8,1
			C81.8,15.8,82,15.4,82,14.8z"/>
	</g>
	<g class="st2">
	</g>
	<g class="st2">
		<path class="st1" d="M86.5,10.8c0.7,0,1.2,0.6,1.2,1.2c0,0.7-0.6,1.2-1.2,1.2c-0.7,0-1.2-0.6-1.2-1.2
			C85.3,11.4,85.8,10.8,86.5,10.8z"/>
	</g>
	<g class="st2">
		<path class="st1" d="M89.1,14.4l3-7.5h1.7v7.2h0.7v1.3h-0.7v1.7h-1.6v-1.7h-3V14.4z M90.6,14.1h1.5V9.9h0L90.6,14.1z"/>
	</g>
	<g>
		<path class="st1" d="M98.2,20.7H3.3V3.3h94.8V20.7z M4.3,19.7h92.8V4.3H4.3L4.3,19.7z"/>
	</g>
	<g class="st2">
		<path class="st1" d="M6.7,6.9h4.5v1.4H9.9v8.8H8.1V8.3H6.7V6.9z"/>
	</g>
	<g class="st2">
		<path class="st1" d="M11.2,17.1l1.9-10.2h1.9L17,17.1h-1.8l-0.3-1.9h-1.8l-0.3,1.9H11.2z M13.3,13.9h1.4L14,9.8h0L13.3,13.9z"/>
	</g>
	<g class="st2">
		<path class="st1" d="M19.6,12.4v4.7h-1.7V6.9h2.5c1.7,0,2.4,0.9,2.4,2.3v1.3c0,1.1-0.4,1.7-1.4,2l1.6,4.6h-1.8L19.6,12.4z
			 M19.6,8.3v3.2h0.6c0.6,0,0.8-0.3,0.8-0.8V9.2c0-0.6-0.3-0.8-0.8-0.8H19.6z"/>
	</g>
	<g class="st2">
		<path class="st1" d="M26.4,11.7h2.4v5.4h-1.2V16c-0.2,0.8-0.7,1.2-1.6,1.2c-1.5,0-2.1-1.2-2.1-2.7V9.6c0-1.6,0.8-2.7,2.6-2.7
			c1.9,0,2.4,1.1,2.4,2.6v0.9h-1.6v-1c0-0.6-0.2-1-0.9-1c-0.6,0-0.9,0.4-0.9,1v5.5c0,0.6,0.3,1,0.8,1c0.6,0,0.8-0.3,0.8-1V13h-0.8
			V11.7z"/>
	</g>
	<g class="st2">
		<path class="st1" d="M30.2,6.9h4.1v1.4h-2.4v2.9h1.7v1.4h-1.7v3.1h2.4v1.4h-4.1V6.9z"/>
	</g>
	<g class="st2">
		<path class="st1" d="M35.1,6.9h4.5v1.4h-1.4v8.8h-1.7V8.3h-1.4V6.9z"/>
	</g>
	<g>
		<g>
			<polygon class="st0" points="30,47.4 27.1,47.4 27.1,102.3 66.4,102.3 66.4,99 30,99 			"/>
		</g>
		<g>
			<path class="st0" d="M33,40.8v54.8h39.3V40.8H33z M47.7,58.7l4.8-4.8h0.1l4.9,4.9c0.1,0.1,0,0.1,0,0v0.1h-9.7
				c-0.1,0-0.1,0-0.1-0.1V58.7z M43.4,63.3V73c0,0.1,0,0.1-0.1,0.1h-0.1l-4.8-4.8v-0.1l4.8-4.8C43.3,63.3,43.3,63.3,43.4,63.3
				L43.4,63.3z M57.5,77.6l-4.8,4.8h-0.1l-4.8-4.8v-0.1L57.5,77.6l0-0.2c0.1,0,0.1,0,0.1,0.1C57.6,77.5,57.6,77.6,57.5,77.6
				C57.5,77.6,57.5,77.6,57.5,77.6z M57.8,72.9C57.8,73,57.8,73,57.8,72.9L47.7,73c-0.1,0-0.1,0-0.1-0.1v-3c0-0.1,0-0.1,0.1-0.1h10
				c0.1,0,0.1,0,0.1,0.1V72.9z M57.8,66.5C57.8,66.6,57.8,66.6,57.8,66.5l-10.1,0.1c-0.1,0-0.1,0-0.1-0.1v-3c0-0.1,0-0.1,0.1-0.1h10
				c0.1,0,0.1,0,0.1,0.1V66.5z M61.9,73.2v-9.9l5,4.9L61.9,73.2z"/>
		</g>
		<g>
			<path class="st1" d="M57.5,58.8C57.5,58.9,57.6,58.9,57.5,58.8z"/>
		</g>
	</g>
</g>
</svg>
