<?xml version="1.0" encoding="utf-8"?>
<!-- Generator: Adobe Illustrator 22.0.1, SVG Export Plug-In . SVG Version: 6.00 Build 0)  -->
<svg version="1.1" id="Layer_1" xmlns="http://www.w3.org/2000/svg" xmlns:xlink="http://www.w3.org/1999/xlink" x="0px" y="0px"
	 viewBox="0 0 101.5 175.2" style="enable-background:new 0 0 101.5 175.2;" xml:space="preserve">
<style type="text/css">
	.st0{fill:#FFFFFF;}
	.st1{fill:#3F7E44;}
	.st2{enable-background:new    ;}
</style>
<title>TARGET 1 B copy 9</title>
<g id="WHITE_BG">
	<g>
		<rect y="0" class="st0" width="101.5" height="175.2"/>
	</g>
</g>
<g id="TARGETS">
	<g>
		<g>
			<path class="st1" d="M7.8,132.2h-1v-6.4h2.1c1.6,0,2.2,1,2.2,2c0,1-0.6,2-2.2,2H7.8V132.2z M7.8,128.9H9c0.6,0.1,1.2-0.4,1.2-1
				c0.1-0.6-0.4-1.2-1-1.2c-0.1,0-0.1,0-0.2,0H7.8V128.9z"/>
		</g>
		<g>
			<path class="st1" d="M12.7,132.2h-1v-6.4h2.1c1.6,0,2.2,0.7,2.2,1.9c0.1,0.7-0.3,1.4-1,1.7l1.3,2.8h-1.1l-1.2-2.6h-1.3V132.2z
				 M12.7,128.7H14c0.9,0,1-0.5,1-1s-0.1-1-1-1h-1.3V128.7z"/>
		</g>
		<g>
			<path class="st1" d="M16.7,129c0-1.8,0.4-3.3,2.5-3.3s2.5,1.5,2.5,3.3s-0.4,3.3-2.5,3.3S16.7,130.8,16.7,129z M17.7,129
				c0,1.5,0.3,2.4,1.5,2.4s1.5-0.9,1.5-2.4s-0.3-2.4-1.5-2.4S17.7,127.5,17.7,129L17.7,129z"/>
		</g>
		<g>
			<path class="st1" d="M25.9,131.3H25l-1.6-3.9l0,4.8h-1v-6.4h1.2l1.7,4.3l1.7-4.3h1.2v6.4h-1v-4.8L25.9,131.3z"/>
		</g>
		<g>
			<path class="st1" d="M29.3,129c0-1.8,0.4-3.3,2.5-3.3s2.5,1.5,2.5,3.3s-0.4,3.3-2.5,3.3S29.3,130.8,29.3,129z M30.3,129
				c0,1.5,0.3,2.4,1.5,2.4c1.2,0,1.5-0.9,1.5-2.4s-0.3-2.4-1.5-2.4S30.2,127.5,30.3,129L30.3,129z"/>
		</g>
		<g>
			<path class="st1" d="M36.9,126.7v5.5h-1v-5.5h-1.6v-0.9h4.3v0.9H36.9z"/>
		</g>
		<g>
			<path class="st1" d="M42.8,129.3h-2.7v2h2.9v0.9h-3.9v-6.4h3.9v0.9h-2.9v1.8h2.7V129.3z"/>
		</g>
		<g>
			<path class="st1" d="M10.3,140.3H9.4l-1.6-3.9v4.8h-1v-6.4h1.3l1.7,4.3l1.7-4.3h1.2v6.4h-0.9v-4.8L10.3,140.3z"/>
		</g>
		<g>
			<path class="st1" d="M17.3,138.3h-2.7v2h2.9v0.9h-3.9v-6.4h3.9v0.9h-2.9v1.8h2.7V138.3z"/>
		</g>
		<g>
			<path class="st1" d="M21,134.7c0.5,0,1,0.1,1.5,0.3v0.9c-0.4-0.2-0.9-0.3-1.4-0.3c-1.2,0-1.7,0.8-1.7,2.4s0.5,2.4,1.7,2.4
				c0.5,0,1-0.1,1.4-0.3v0.9c-0.5,0.2-1,0.3-1.5,0.3c-1.9,0-2.6-1.2-2.6-3.3S19.1,134.7,21,134.7z"/>
		</g>
		<g>
			<path class="st1" d="M26.9,141.2v-2.9h-2.6v2.9h-1v-6.4h1v2.6h2.6v-2.6h1v6.4H26.9z"/>
		</g>
		<g>
			<path class="st1" d="M31.9,139.6h-2l-0.5,1.6h-1l2-6.4h1l2,6.4h-1L31.9,139.6z M30.9,136l-0.8,2.8h1.6L30.9,136z"/>
		</g>
		<g>
			<path class="st1" d="M37.6,141.2l-2.8-4.5v4.5h-1v-6.4h0.9l2.8,4.5v-4.5h0.9v6.4H37.6z"/>
		</g>
		<g>
			<path class="st1" d="M39.4,141.2v-6.4h1v6.4H39.4z"/>
		</g>
		<g>
			<path class="st1" d="M45.6,139.3c0,1.2-0.7,2-2.4,2c-0.6,0-1.3-0.1-1.9-0.4V140c0.6,0.3,1.2,0.4,1.8,0.4c1.2,0,1.5-0.5,1.5-1.1
				s-0.3-0.9-1.2-1c-1.5-0.2-2.2-0.6-2.2-1.8c0-0.9,0.5-1.8,2.3-1.8c0.6,0,1.2,0.1,1.7,0.3v1c-0.5-0.2-1.1-0.3-1.7-0.3
				c-1,0-1.3,0.4-1.3,1s0.4,0.8,1.2,0.9C44.9,137.7,45.6,138,45.6,139.3z"/>
		</g>
		<g>
			<path class="st1" d="M49.8,140.3h-0.9l-1.6-3.9v4.8h-1v-6.4h1.2l1.7,4.3l1.7-4.3h1.2v6.4h-1v-4.8L49.8,140.3z"/>
		</g>
		<g>
			<path class="st1" d="M57.5,139.3c0,1.2-0.7,2-2.4,2c-0.6,0-1.3-0.1-1.9-0.4V140c0.6,0.3,1.2,0.4,1.8,0.4c1.2,0,1.5-0.5,1.5-1.1
				s-0.3-0.9-1.2-1c-1.5-0.2-2.2-0.6-2.2-1.8c0-0.9,0.5-1.8,2.3-1.8c0.6,0,1.2,0.1,1.7,0.3v1c-0.5-0.2-1.1-0.3-1.7-0.3
				c-1,0-1.3,0.4-1.3,1s0.4,0.8,1.2,0.9C56.7,137.7,57.5,138,57.5,139.3z"/>
		</g>
		<g>
			<path class="st1" d="M61.7,135.7v5.5h-1v-5.5h-1.6v-0.9h4.3v0.9H61.7z"/>
		</g>
		<g>
			<path class="st1" d="M63.5,138c0-1.8,0.4-3.3,2.5-3.3c2,0,2.4,1.5,2.4,3.3s-0.4,3.3-2.4,3.3S63.5,139.8,63.5,138z M64.5,138
				c0,1.5,0.3,2.4,1.5,2.4s1.5-0.9,1.5-2.4s-0.3-2.4-1.5-2.4S64.5,136.5,64.5,138L64.5,138z"/>
		</g>
		<g>
			<path class="st1" d="M7.8,150.2h-1v-6.4H9c1.6,0,2.2,0.7,2.2,1.9c0.1,0.7-0.3,1.4-1,1.7l1.3,2.8h-1.2l-1.1-2.6H7.8V150.2z
				 M7.8,146.7h1.3c0.9,0,1-0.5,1-1s-0.1-1-1-1H7.8V146.7z"/>
		</g>
		<g>
			<path class="st1" d="M15.2,148.6h-2l-0.4,1.6h-1l2-6.4h1l2,6.4h-1L15.2,148.6z M14.2,145l-0.8,2.8H15L14.2,145z"/>
		</g>
		<g>
			<path class="st1" d="M17.3,150.2v-6.4h1v6.4H17.3z"/>
		</g>
		<g>
			<path class="st1" d="M23.5,148.3c0,1.2-0.7,2-2.4,2c-0.6,0-1.3-0.1-1.9-0.4V149c0.6,0.3,1.2,0.4,1.8,0.4c1.1,0,1.5-0.5,1.5-1.1
				s-0.3-0.9-1.2-1c-1.5-0.2-2.2-0.6-2.2-1.8c0-0.9,0.5-1.8,2.3-1.8c0.6,0,1.2,0.1,1.7,0.3v1c-0.5-0.2-1.1-0.3-1.7-0.3
				c-1,0-1.3,0.4-1.3,1s0.4,0.8,1.2,0.9C22.8,146.7,23.5,147,23.5,148.3z"/>
		</g>
		<g>
			<path class="st1" d="M27.8,147.3h-2.6v2h2.9v0.9h-3.9v-6.4h3.9v0.9h-2.9v1.8h2.6V147.3z"/>
		</g>
		<g>
			<path class="st1" d="M32.8,143.7c0.5,0,1,0.1,1.5,0.3v0.9c-0.5-0.2-0.9-0.3-1.4-0.3c-1.2,0-1.7,0.8-1.7,2.4s0.5,2.4,1.7,2.4
				c0.5,0,1-0.1,1.4-0.3v0.9c-0.5,0.2-1,0.3-1.5,0.3c-1.9,0-2.6-1.2-2.6-3.3S30.9,143.7,32.8,143.7z"/>
		</g>
		<g>
			<path class="st1" d="M38.2,148.6h-2l-0.5,1.6h-1l2-6.4h1l2,6.4h-1L38.2,148.6z M37.2,145l-0.8,2.8H38L37.2,145z"/>
		</g>
		<g>
			<path class="st1" d="M41.2,150.2h-1v-6.4h2c1.6,0,2.2,0.9,2.2,2s-0.6,2-2.2,2h-1.1L41.2,150.2z M41.2,146.9h1.1
				c0.6,0.1,1.2-0.4,1.2-1s-0.4-1.2-1-1.2c-0.1,0-0.1,0-0.2,0h-1.1V146.9z"/>
		</g>
		<g>
			<path class="st1" d="M47.6,148.6h-2l-0.5,1.6h-1l2-6.4h1l2,6.4h-1L47.6,148.6z M46.6,145l-0.8,2.8h1.6L46.6,145z"/>
		</g>
		<g>
			<path class="st1" d="M51.9,143.7c0.5,0,1,0.1,1.5,0.3v0.9c-0.5-0.2-0.9-0.3-1.4-0.3c-1.2,0-1.7,0.8-1.7,2.4s0.5,2.4,1.7,2.4
				c0.5,0,1-0.1,1.4-0.3v0.9c-0.5,0.2-1,0.3-1.5,0.3c-1.9,0-2.6-1.2-2.6-3.3S50,143.7,51.9,143.7z"/>
		</g>
		<g>
			<path class="st1" d="M54.3,150.2v-6.4h1v6.4H54.3z"/>
		</g>
		<g>
			<path class="st1" d="M58.5,144.7v5.5h-1v-5.5h-1.6v-0.9h4.3v0.9H58.5z"/>
		</g>
		<g>
			<path class="st1" d="M63.5,147.6v2.6h-1v-2.6l-2.2-3.8h1.1l1.6,3l1.6-3h1.1L63.5,147.6z"/>
		</g>
		<g>
			<path class="st1" d="M71.1,147.4h-2.6v2.8h-1v-6.4h3.8v0.9h-2.8v1.8h2.6V147.4z"/>
		</g>
		<g>
			<path class="st1" d="M71.8,147c0-1.8,0.4-3.3,2.4-3.3s2.5,1.5,2.5,3.3s-0.4,3.3-2.5,3.3S71.8,148.8,71.8,147z M72.8,147
				c0,1.5,0.3,2.4,1.5,2.4s1.5-0.9,1.5-2.4s-0.3-2.4-1.5-2.4S72.8,145.5,72.8,147L72.8,147z"/>
		</g>
		<g>
			<path class="st1" d="M78.4,150.2h-1v-6.4h2.1c1.7,0,2.2,0.7,2.2,1.9c0.1,0.7-0.3,1.4-1,1.7l1.3,2.8h-1.1l-1.2-2.6h-1.3V150.2z
				 M78.4,146.7h1.3c0.9,0,1-0.5,1-1s-0.1-1-1-1h-1.3V146.7z"/>
		</g>
		<g>
			<path class="st1" d="M9.4,152.7c0.5,0,1,0.1,1.5,0.3v0.9c-0.5-0.2-0.9-0.3-1.4-0.3c-1.2,0-1.7,0.8-1.7,2.4s0.5,2.4,1.7,2.4
				c0.5,0,1-0.1,1.4-0.3v0.9c-0.5,0.2-1,0.3-1.5,0.3c-1.9,0-2.6-1.2-2.6-3.3S7.5,152.7,9.4,152.7z"/>
		</g>
		<g>
			<path class="st1" d="M12.6,158.3h2.8v0.9h-3.7v-6.4h0.9V158.3z"/>
		</g>
		<g>
			<path class="st1" d="M16,159.2v-6.4h1v6.4H16z"/>
		</g>
		<g>
			<path class="st1" d="M21.4,158.3h-0.9l-1.6-3.9l0,4.8H18v-6.4h1.2l1.7,4.3l1.7-4.3h1.2v6.4h-1v-4.8L21.4,158.3z"/>
		</g>
		<g>
			<path class="st1" d="M27.9,157.6h-2l-0.5,1.6h-1l2-6.4h1l2,6.4h-1L27.9,157.6z M26.9,154l-0.8,2.8h1.6L26.9,154z"/>
		</g>
		<g>
			<path class="st1" d="M31.4,153.7v5.5h-1v-5.5h-1.6v-0.9h4.3v0.9H31.4z"/>
		</g>
		<g>
			<path class="st1" d="M37.2,156.3h-2.7v2h2.9v0.9h-3.9v-6.4h3.9v0.9h-2.9v1.8h2.7V156.3z"/>
		</g>
		<g>
			<path class="st1" d="M40.6,159.2h-1v-6.4h2c1.6,0,2.2,0.9,2.2,2s-0.6,2-2.2,2h-1.1L40.6,159.2z M40.6,155.9h1.1
				c0.6,0.1,1.2-0.4,1.2-1s-0.4-1.2-1-1.2c-0.1,0-0.1,0-0.2,0h-1.1V155.9z"/>
		</g>
		<g>
			<path class="st1" d="M45.5,158.3h2.8v0.9h-3.7v-6.4h1L45.5,158.3z"/>
		</g>
		<g>
			<path class="st1" d="M52,157.6h-2l-0.5,1.6h-1l2-6.4h1l2,6.4h-1L52,157.6z M51,154l-0.8,2.8h1.6L51,154z"/>
		</g>
		<g>
			<path class="st1" d="M57.7,159.2l-2.8-4.5v4.5H54v-6.4h0.9l2.8,4.5v-4.5h0.9v6.4H57.7z"/>
		</g>
		<g>
			<path class="st1" d="M63.2,159.2l-2.8-4.5v4.5h-1v-6.4h0.9l2.8,4.5v-4.5H64v6.4H63.2z"/>
		</g>
		<g>
			<path class="st1" d="M65.2,159.2v-6.4h1v6.4H65.2z"/>
		</g>
		<g>
			<path class="st1" d="M70.9,159.2l-2.8-4.5v4.5h-0.9v-6.4h0.9l2.8,4.5v-4.5h0.9v6.4H70.9z"/>
		</g>
		<g>
			<path class="st1" d="M72.5,156c0-2,0.7-3.3,2.6-3.3c0.6,0,1.3,0.1,1.8,0.3v1c-0.5-0.2-1.1-0.4-1.7-0.4c-1.3,0-1.8,0.9-1.8,2.4
				s0.5,2.4,1.8,2.4c0.3,0,0.6,0,0.9-0.1v-1.7H75v-0.9h2.1v3.2c-0.6,0.3-1.3,0.4-2,0.4C73.2,159.3,72.5,158,72.5,156z"/>
		</g>
		<g>
			<path class="st1" d="M10.1,166.6h-2l-0.4,1.6h-1l2-6.4h1l2,6.4h-1L10.1,166.6z M9.1,163l-0.8,2.8h1.6L9.1,163z"/>
		</g>
		<g>
			<path class="st1" d="M15.8,168.2l-2.8-4.5v4.5h-0.9v-6.4H13l2.8,4.5v-4.5h0.9v6.4H15.8z"/>
		</g>
		<g>
			<path class="st1" d="M17.6,168.2v-6.4h1.9c2.1,0,2.7,1.4,2.7,3.2s-0.6,3.2-2.7,3.2H17.6z M18.6,167.3h1c1.3,0,1.7-0.9,1.7-2.3
				s-0.4-2.3-1.7-2.3h-1V167.3z"/>
		</g>
		<g>
			<path class="st1" d="M27.8,167.3h-0.9l-1.6-3.9l0,4.8h-1v-6.4h1.2l1.7,4.3l1.7-4.3h1.2v6.4h-1v-4.8L27.8,167.3z"/>
		</g>
		<g>
			<path class="st1" d="M34.4,166.6h-2l-0.5,1.6h-1l2-6.4h1l2,6.4h-1L34.4,166.6z M33.4,163l-0.8,2.8h1.6L33.4,163z"/>
		</g>
		<g>
			<path class="st1" d="M40.1,168.2l-2.8-4.5v4.5h-0.9v-6.4h0.9l2.8,4.5v-4.5h0.9v6.4H40.1z"/>
		</g>
		<g>
			<path class="st1" d="M45,166.6h-2l-0.5,1.6h-1l2-6.4h1l2,6.4h-1L45,166.6z M44,163l-0.8,2.8h1.6L44,163z"/>
		</g>
		<g>
			<path class="st1" d="M46.7,165c0-2,0.7-3.3,2.6-3.3c0.6,0,1.3,0.1,1.8,0.3v1c-0.5-0.2-1.1-0.4-1.7-0.4c-1.3,0-1.8,0.9-1.8,2.4
				s0.5,2.4,1.8,2.4c0.3,0,0.6,0,0.9-0.1v-1.7h-1.1v-0.9h2.1v3.2c-0.6,0.3-1.3,0.4-2,0.4C47.4,168.3,46.7,167,46.7,165z"/>
		</g>
		<g>
			<path class="st1" d="M55.9,165.3h-2.6v2h2.9v0.9h-3.9v-6.4h3.9v0.9h-2.9v1.8h2.7L55.9,165.3z"/>
		</g>
		<g>
			<path class="st1" d="M60.4,167.3h-0.9l-1.6-3.9v4.8H57v-6.4h1.2l1.7,4.3l1.7-4.3h1.2v6.4h-1v-4.8L60.4,167.3z"/>
		</g>
		<g>
			<path class="st1" d="M67.4,165.3h-2.7v2h2.9v0.9h-3.9v-6.4h3.9v0.9h-2.9v1.8h2.7V165.3z"/>
		</g>
		<g>
			<path class="st1" d="M72.2,168.2l-2.8-4.5v4.5h-0.9v-6.4h0.9l2.8,4.5v-4.5h0.9v6.4H72.2z"/>
		</g>
		<g>
			<path class="st1" d="M76.2,162.7v5.5h-1v-5.5h-1.6v-0.9h4.3v0.9H76.2z"/>
		</g>
	</g>
	<g>
		<rect x="3.3" y="24" class="st1" width="94.8" height="94.8"/>
	</g>
	<g>
		<path class="st1" d="M98.2,20.7H3.3V3.3h94.8V20.7z M4.3,19.7h92.8V4.3H4.3L4.3,19.7z"/>
	</g>
	<g class="st2">
		<path class="st1" d="M6.7,6.9h4.5v1.4H9.9v8.8H8.1V8.3H6.7V6.9z"/>
	</g>
	<g class="st2">
		<path class="st1" d="M11.2,17.1l1.9-10.2h1.9L17,17.1h-1.8l-0.3-1.9h-1.8l-0.3,1.9H11.2z M13.3,13.9h1.4L14,9.8h0L13.3,13.9z"/>
	</g>
	<g class="st2">
		<path class="st1" d="M19.6,12.4v4.7h-1.7V6.9h2.5c1.7,0,2.4,0.9,2.4,2.3v1.3c0,1.1-0.4,1.7-1.4,2l1.6,4.6h-1.8L19.6,12.4z
			 M19.6,8.3v3.2h0.6c0.6,0,0.8-0.3,0.8-0.8V9.2c0-0.6-0.3-0.8-0.8-0.8H19.6z"/>
	</g>
	<g class="st2">
		<path class="st1" d="M26.4,11.7h2.4v5.4h-1.2V16c-0.2,0.8-0.7,1.2-1.6,1.2c-1.5,0-2.1-1.2-2.1-2.7V9.6c0-1.6,0.8-2.7,2.6-2.7
			c1.9,0,2.4,1.1,2.4,2.6v0.9h-1.6v-1c0-0.6-0.2-1-0.9-1c-0.6,0-0.9,0.4-0.9,1v5.5c0,0.6,0.3,1,0.8,1c0.6,0,0.8-0.3,0.8-1V13h-0.8
			V11.7z"/>
	</g>
	<g class="st2">
		<path class="st1" d="M30.2,6.9h4.1v1.4h-2.4v2.9h1.7v1.4h-1.7v3.1h2.4v1.4h-4.1V6.9z"/>
	</g>
	<g class="st2">
		<path class="st1" d="M35.1,6.9h4.5v1.4h-1.4v8.8h-1.7V8.3h-1.4V6.9z"/>
	</g>
	<g class="st2">
		<path class="st1" d="M89.4,6.9h2.5c1.7,0,2.3,0.8,2.3,2.2v1c0,0.9-0.3,1.4-1,1.6c0.9,0.2,1.3,0.8,1.3,1.7v1.3
			c0,1.4-0.6,2.2-2.4,2.2h-2.7V6.9z M91.1,11.2h0.6c0.6,0,0.8-0.3,0.8-0.8V9.2c0-0.6-0.3-0.8-0.8-0.8h-0.6V11.2z M91.1,12.5v3.2h0.8
			c0.6,0,0.8-0.3,0.8-0.8v-1.5c0-0.5-0.3-0.8-0.9-0.8H91.1z"/>
	</g>
	<g class="st2">
		<path class="st1" d="M77.1,6.9v10.2h-1.7V9.3h0l-1.2,1.2h0V8.8l1.6-1.8H77.1z"/>
		<path class="st1" d="M83.2,9.1V10c0,0.9-0.5,1.4-1.2,1.7c0.9,0.2,1.3,0.8,1.3,1.7v1.5c0,1.4-0.8,2.3-2.5,2.3c-1.7,0-2.4-1-2.4-2.5
			v-1.3H80v1.5c0,0.6,0.2,1,0.8,1c0.5,0,0.8-0.4,0.8-0.9v-1.7c0-0.5-0.2-0.8-0.8-0.8H80v-1.3h0.6c0.6,0,0.9-0.3,0.9-0.8V9.1
			c0-0.6-0.2-0.9-0.7-0.9s-0.7,0.4-0.7,1v1h-1.6V9.3c0-1.5,0.6-2.6,2.4-2.6C82.5,6.8,83.2,7.7,83.2,9.1z"/>
	</g>
	<g>
		<polygon class="st1" points="85.4,9.9 85.4,14.1 87.6,12 		"/>
	</g>
	<g>
		<path class="st1" d="M98.2,171.9h-95v-49.7h95V171.9z M4.2,170.9h93v-47.7h-93V170.9z"/>
	</g>
	<g>
		<g>
			<path class="st0" d="M50.9,87.7h38.6c0.3,0,0.6,0.3,0.6,0.6v1.2c0,0.3-0.3,0.6-0.6,0.6H50.9c-0.3,0-0.6-0.3-0.6-0.6v-1.2
				C50.3,88,50.6,87.7,50.9,87.7z"/>
		</g>
		<g>
			<g>
				<path class="st0" d="M82.4,60.7c1.3,0,2.4-1.1,2.4-2.5c0-1.3-1.1-2.4-2.5-2.4c-1.3,0-2.4,1.1-2.4,2.4
					C80,59.6,81.1,60.7,82.4,60.7C82.4,60.7,82.4,60.7,82.4,60.7z"/>
			</g>
			<g>
				<path class="st0" d="M89.5,70.4l-2.1-6.6c0,0-0.7-1.9-2.4-1.9h-5.3c-1.6,0-2.4,1.9-2.4,1.9l-2.1,6.6c0,0-0.4,1.2,0.6,1.6
					s1.3-0.9,1.3-0.9l1.7-5.5c0,0,0.1-0.4,0.4-0.3s0.2,0.5,0.2,0.5l-2.8,10.3h2.7v7.4c0,0.7,0.6,1.3,1.3,1.3s1.3-0.6,1.3-1.3v-7.4
					h0.7v7.4c0,0.7,0.6,1.3,1.3,1.3s1.3-0.6,1.3-1.3v-7.4h2.7l-2.9-10.3c0,0-0.1-0.4,0.2-0.5s0.4,0.3,0.4,0.3l1.7,5.5
					c0,0,0.3,1.2,1.3,0.9S89.5,70.4,89.5,70.4z"/>
			</g>
		</g>
		<g>
			<g>
				<path class="st0" d="M57.1,59.7c0,1.3,1.1,2.4,2.4,2.4c1.3,0,2.4-1.1,2.4-2.4c0-0.9-0.5-1.7-1.2-2.1c0.1-0.1,0.1-0.3,0.1-0.4
					c-0.2-0.7-0.8-1.1-1.5-0.9c-0.4,0.1-0.8,0.5-0.9,0.9c0,0.1,0,0.2,0.1,0.3C57.7,58,57.1,58.8,57.1,59.7z"/>
			</g>
			<g>
				<path class="st0" d="M64.3,64.4c0,0-0.7-1.8-2.3-1.8h-5c-1.6,0-2.3,1.8-2.3,1.8l-2,6.4c0,0-0.3,1,0.4,1.4c0,0,0,0-0.1,0.1
					l-2.3,12.1c0,0.2,0.1,0.4,0.3,0.4c0,0,0,0,0,0h0.1c0.2,0,0.3-0.1,0.4-0.3l2.3-12.1c0,0,0-0.1,0-0.1c0.6-0.1,0.9-0.9,0.9-0.9
					l1.6-5.4c0,0,0.1-0.4,0.4-0.3s0.2,0.5,0.2,0.5l-2.8,10h2.6v7.2c0.1,0.7,0.7,1.2,1.3,1.1c0.6-0.1,1.1-0.5,1.1-1.1v-7.1h0.7v7.2
					c0.1,0.7,0.7,1.2,1.3,1.1c0.6-0.1,1.1-0.5,1.1-1.1v-7.2h2.6l-2.8-10c0,0-0.1-0.4,0.2-0.5s0.4,0.3,0.4,0.3l1.6,5.4
					c0,0,0.3,1.2,1.3,0.8s0.7-1.5,0.7-1.5L64.3,64.4z"/>
			</g>
		</g>
		<g>
			<g>
				<path class="st0" d="M75,72.6c-0.3-0.2-0.7,0-0.9,0.3c0,0,0,0,0,0c-0.3,0.6-0.7,1.2-1.1,1.7c-0.1,0.2-0.3,0.3-0.6,0.3h-2.2
					c-0.2,0-0.4-0.1-0.6-0.3c-0.3-0.3-1.1-1.8-1.2-1.8c-0.2-0.3-0.6-0.4-0.9-0.2c-0.2,0.1-0.3,0.3-0.3,0.5c0,0.1,0,0.2,0.1,0.3
					l1.8,3.2c0.1,0.1,0.1,0.3,0.1,0.4v0.5l0,0c0,0.2,0,0.4-0.1,0.6l-0.8,3.4h0.9v2.5l0,0c0.1,0.5,0.5,0.8,1,0.8
					c0.4,0,0.7-0.4,0.8-0.8v-2.4c0,0,0-0.1,0-0.1h0.5v2.5c0.1,0.5,0.5,0.8,1,0.8c0.4,0,0.7-0.4,0.8-0.8v-2.5h1l-0.9-3.4
					c0-0.1-0.1-0.3-0.1-0.4v-0.1l0,0v-0.5c0-0.1,0-0.3,0.1-0.4l1.7-3l0.2-0.3C75.4,73.1,75.3,72.7,75,72.6C75,72.6,75,72.6,75,72.6z
					"/>
			</g>
			<g>
				<path class="st0" d="M71.1,73.9c1,0,1.8-0.8,1.8-1.8c0-1-0.8-1.8-1.8-1.8c-1,0-1.8,0.8-1.8,1.8C69.3,73.1,70.1,73.9,71.1,73.9
					C71.1,73.9,71.1,73.9,71.1,73.9z"/>
			</g>
		</g>
		<g>
			<g>
				<polygon class="st0" points="13.5,54.5 11.4,54.5 11.4,95.1 40.5,95.1 40.5,92.6 13.5,92.6 				"/>
			</g>
			<g>
				<path class="st0" d="M44.8,49.6h-29v40.5h29V49.6z M41.3,83.1c0,0.1-0.1,0.2-0.2,0.2H19.6c-0.1,0-0.2-0.1-0.2-0.2v-3.4
					c0-0.1,0.1-0.1,0.2-0.1H41c0.1,0,0.2,0.1,0.2,0.1V83.1z M41.3,77.1c0,0.1-0.1,0.1-0.2,0.1H19.6c-0.1,0-0.2-0.1-0.2-0.1v-3.4
					c0-0.1,0.1-0.2,0.2-0.2H41c0.1,0,0.2,0.1,0.2,0.2V77.1z M41.2,62c-4.5,6-13,7.3-19,2.8c-1.1-0.8-2-1.7-2.8-2.8l-0.1-0.1
					c0,0,0.1-0.1,0.1-0.1c4.5-6,13-7.2,19-2.8c1.1,0.8,2,1.7,2.8,2.8l0.1,0.1L41.2,62z"/>
			</g>
			<g>
				<path class="st0" d="M26.8,59.2c0.2,0,0.4-0.1,0.5-0.2c0-0.1,0.1-0.2,0.1-0.3c0,0-0.1-0.1-0.2-0.1s-0.2,0-0.2,0.1
					s-0.2,0.3-0.3,0.4S26.7,59.2,26.8,59.2z"/>
			</g>
			<g>
				<path class="st0" d="M34.1,63c0.1-0.1-0.1-0.3-0.3-0.3s-0.2,0.2-0.1,0.2C33.8,63.1,33.9,63.1,34.1,63z"/>
			</g>
			<g>
				<path class="st0" d="M31.3,62.3c-0.1,0-0.2,0.2-0.1,0.2c0.1,0.1,0.3,0.1,0.4,0C31.7,62.5,31.4,62.3,31.3,62.3z"/>
			</g>
			<g>
				<path class="st0" d="M29.4,63.3c0,0.1-0.2,0.9-0.1,1s0.3-0.7,0.4-0.8C30,63,29.6,63,29.4,63.3z"/>
			</g>
			<g>
				<path class="st0" d="M31.8,65.9c-0.1,0.1-1.1-0.5-1.9-0.4c-0.4,0-0.7,0.2-0.9,0.6c0,0.1,0,0.2,0.1,0.2c1.4,0.4,2.9,0.1,4.1-0.8
					c-0.1-0.1-0.3-0.1-0.4-0.1C32.2,65.4,31.9,65.8,31.8,65.9z"/>
			</g>
			<g>
				<path class="st0" d="M33.8,62.6c0-0.1-0.1-0.2-0.2-0.3c-0.1,0-0.2,0-0.2,0.1s0.1,0.2,0.1,0.2S33.8,62.6,33.8,62.6z"/>
			</g>
			<g>
				<path class="st0" d="M29.1,64.2c0-0.2,0.1-0.3,0.1-0.5c0-0.2,0-0.4,0.2-0.6c0.2-0.2,0.1-0.1,0.2-0.3s-0.1-0.2-0.3-0.4
					c-0.2-0.2-0.4-0.5-0.4-0.8c0-0.2,0.1,0,0.3,0.2s0.3,0.4,0.5,0.3s0.5-0.2,0.4-0.5s-0.8-0.7-0.8-0.8s0.2,0,0.4,0.1
					s0.5,0.1,0.5,0.5c0.1,0.6,0.8,0.3,1.2,0.8c0.2,0.2,0.3,0,0.4-0.2c0.1-0.2-0.1-0.3,0.1-0.5c0.1-0.1,0.3-0.1,0.4,0
					c0,0,0,0.1,0,0.1c0.1,0.2,0.2,0.4,0.3,0.7c0.2,0.3,0.4,0.5,0.7,0.6c0.3,0-0.1-0.5-0.1-0.6c0-0.2,0.1-0.4,0.2-0.5
					c0.2,0,0.3-0.1,0.5-0.2c0.3-0.2,0-0.2,0-0.5s0.2-0.1,0.2-0.1c0.1,0.1,0.3,0.2,0.4,0.1c0.1,0,0.1-0.1,0.1-0.1c0-0.1,0-0.1,0-0.2
					c-0.5-2.1-2.3-3.5-4.5-3.5c-0.9,0-1.7,0.2-2.5,0.7c0.5,0,1.6-0.2,1.5,0.2s0.7,0.5,0.3,0.7c-0.2,0.1-0.6,0.4-0.8,0.4
					c-0.3-0.2,0.6-0.4,0.4-0.5s-0.5,0-0.8,0.1c-0.3,0-0.6,0.1-0.9,0.1c-0.2,0.1-0.4,0.2-0.4,0.4s0.6,0.3,0.7,0.3s0.2,0,0.4-0.3
					s0.4,0,0.4,0c-0.1,0.1-0.2,0.2-0.3,0.3c-0.1,0.1-0.3,0.2-0.5,0.1c-0.2-0.1-0.5-0.1-0.7,0C27.1,60,27,60,26.9,60.1
					c-0.1,0-0.2,0.1-0.1,0.1s0,0.1,0,0.2c0,0.1-0.2,0.1-0.2,0.1c0,0,0,0,0,0c-0.2-0.1-0.4,0-0.5,0.1c0,0,0,0.1,0,0.1
					c0,0.2,0.1,0.4,0.3,0.2c0.1-0.1,0.5,0,0.8-0.3s0.3,0,0.3,0.1s0.2,0.5,0.3,0.4s-0.1-0.4,0-0.4S27.9,61,28,61s0.3-0.1,0.3,0.1
					s-0.1,0.2-0.3,0.3s-0.7-0.1-0.9-0.2c-0.2-0.1-0.5-0.1-0.8-0.2l-0.3,0.1c0,0,0,0.1-0.2,0.3l0,0c0,0.2,0,0.3,0,0.5
					c0,0.6,0.1,1.2,0.4,1.8l0,0c0.3,0.1,0.2,0,0.4,0s0.3-0.3,0.5-0.1s0.2,0.1,0.3,0.4c0,0.2,0.3-0.2,0.3,0.2
					c0.1,0.6,0.2,0.3,0.2,0.4c0,0.3,0,0.8,0.2,0.8c0.2,0,0.5-0.1,0.6-0.2c0.1-0.2,0.2-0.4,0.3-0.6C29,64.2,29.1,64.4,29.1,64.2z"/>
			</g>
			<g>
				<path class="st0" d="M34.5,61.3c0,0,0.2,0.2,0.1,0.3c-0.4,0.5,0.1,1.2,0.2,1.2c0.1-0.3,0.1-0.6,0.1-0.9c0-0.1,0-0.2,0-0.3
					C34.8,61.4,34.7,61.3,34.5,61.3z"/>
			</g>
			<g>
				<path class="st0" d="M26.8,59.7c0-0.1,0.4-0.2,0.3-0.3s-0.2-0.1-0.3-0.1c-0.1,0-0.3,0.1-0.4,0.1l0,0c-0.1,0.2-0.2,0.4-0.3,0.7
					c0,0,0.1,0,0.1,0C26.4,60.2,26.6,59.9,26.8,59.7z"/>
			</g>
			<g>
				<path class="st0" d="M34.5,63.1c-0.1-0.2-0.2,0.1-0.8,0.3c-0.3,0.1-0.6,0.1-0.8,0.2c-0.4,0.2-0.6,0.6-0.5,1
					c0.2,0.4,0.1,0.7,0.4,0.4s0.1,0,0.2,0.1s0.1-0.2,0.3,0c0,0,0.1,0,0.1,0.1c0.4-0.5,0.8-1,1-1.6c0-0.1,0-0.2-0.1-0.3L34.5,63.1z"
					/>
			</g>
		</g>
	</g>
</g>
</svg>
