<?xml version="1.0" encoding="utf-8"?>
<!-- Generator: Adobe Illustrator 22.0.1, SVG Export Plug-In . SVG Version: 6.00 Build 0)  -->
<svg version="1.1" id="Layer_1" xmlns="http://www.w3.org/2000/svg" xmlns:xlink="http://www.w3.org/1999/xlink" x="0px" y="0px"
	 viewBox="0 0 101.5 166.2" style="enable-background:new 0 0 101.5 166.2;" xml:space="preserve">
<style type="text/css">
	.st0{fill:#FFFFFF;}
	.st1{fill:#3F7E44;}
	.st2{enable-background:new    ;}
</style>
<title>TARGET 1 B copy 8</title>
<g id="WHITE_BG">
	<g>
		<rect y="0" class="st0" width="101.5" height="166.1"/>
	</g>
</g>
<g id="TARGETS">
	<g>
		<g>
			<path class="st1" d="M7,132.2v-6.4h1v6.4H7z"/>
		</g>
		<g>
			<path class="st1" d="M12.5,131.3h-0.9l-1.6-3.9v4.8H9v-6.4h1.2l1.8,4.3l1.7-4.3H15v6.4h-1v-4.8L12.5,131.3z"/>
		</g>
		<g>
			<path class="st1" d="M16.9,132.2h-1v-6.4h2c1.6,0,2.2,1,2.2,2c0,1-0.6,2-2.2,2h-1V132.2z M16.9,128.9H18c0.6,0.1,1.2-0.4,1.2-1
				s-0.4-1.2-1-1.2c-0.1,0-0.1,0-0.2,0h-1.1V128.9z"/>
		</g>
		<g>
			<path class="st1" d="M21.7,131.3h2.8v0.9h-3.7v-6.4h1L21.7,131.3z"/>
		</g>
		<g>
			<path class="st1" d="M28.6,129.3H26v2h2.9v0.9H25v-6.4h3.9v0.9H26v1.8h2.6V129.3z"/>
		</g>
		<g>
			<path class="st1" d="M33.1,131.3h-0.9l-1.6-3.9v4.8h-1v-6.4h1.2l1.7,4.3l1.7-4.3h1.2v6.4h-1v-4.8L33.1,131.3z"/>
		</g>
		<g>
			<path class="st1" d="M40.2,129.3h-2.6v2h2.9v0.9h-3.9v-6.4h3.9v0.9h-2.9v1.8h2.7L40.2,129.3z"/>
		</g>
		<g>
			<path class="st1" d="M45,132.2l-2.8-4.5v4.5h-0.9v-6.4h0.9l2.8,4.5v-4.5h0.9v6.4H45z"/>
		</g>
		<g>
			<path class="st1" d="M49,126.7v5.5h-1v-5.5h-1.6v-0.9h4.3v0.9H49z"/>
		</g>
		<g>
			<path class="st1" d="M54.5,126.7v5.5h-1v-5.5h-1.7v-0.9h4.3v0.9H54.5z"/>
		</g>
		<g>
			<path class="st1" d="M60.2,132.2v-2.9h-2.6v2.9h-1v-6.4h1v2.6h2.6v-2.6h1v6.4H60.2z"/>
		</g>
		<g>
			<path class="st1" d="M65.7,129.3h-2.7v2H66v0.9h-3.9v-6.4H66v0.9h-2.9v1.8h2.7V129.3z"/>
		</g>
		<g>
			<path class="st1" d="M68.2,130.2v-4.4h0.9v4.3c0,0.8,0.6,1.4,1.4,1.4s1.4-0.6,1.4-1.4v-4.3h1v4.4c-0.1,1.3-1.2,2.2-2.5,2.1
				C69.2,132.2,68.3,131.3,68.2,130.2L68.2,130.2z"/>
		</g>
		<g>
			<path class="st1" d="M77.4,132.2l-2.8-4.5v4.5h-0.9v-6.4h0.9l2.8,4.5v-4.5h0.9v6.4H77.4z"/>
		</g>
		<g>
			<path class="st1" d="M10.4,138.4H7.8v2.8h-1v-6.4h3.9v0.9H7.8v1.8h2.6V138.4z"/>
		</g>
		<g>
			<path class="st1" d="M12.4,141.2h-1v-6.4h2.1c1.6,0,2.2,0.7,2.2,1.9c0.1,0.7-0.3,1.4-1,1.7l1.3,2.8h-1.1l-1.1-2.6h-1.3V141.2z
				 M12.4,137.7h1.3c0.9,0,1-0.5,1-1s-0.1-1-1-1h-1.3V137.7z"/>
		</g>
		<g>
			<path class="st1" d="M19.7,139.6h-2l-0.5,1.6h-1l2-6.4h1l2,6.4h-1L19.7,139.6z M18.7,136l-0.8,2.8h1.6L18.7,136z"/>
		</g>
		<g>
			<path class="st1" d="M25.1,140.3h-0.9l-1.6-3.9v4.8h-1v-6.4H23l1.7,4.3l1.7-4.3h1.2v6.4h-1v-4.8L25.1,140.3z"/>
		</g>
		<g>
			<path class="st1" d="M32.2,138.3h-2.7v2h2.9v0.9h-3.9v-6.4h3.9v0.9h-2.9v1.8h2.7V138.3z"/>
		</g>
		<g>
			<path class="st1" d="M35.9,134.8h1.2l1.1,5l0.8-5h1l-1.2,6.4h-1.2l-1.2-5.3l-1.2,5.3h-1.2l-1.2-6.5h1l0.8,5L35.9,134.8z"/>
		</g>
		<g>
			<path class="st1" d="M40.4,138c0-1.8,0.4-3.3,2.5-3.3s2.5,1.5,2.5,3.3s-0.4,3.3-2.5,3.3S40.4,139.8,40.4,138z M41.4,138
				c0,1.5,0.3,2.4,1.5,2.4s1.5-0.9,1.5-2.4s-0.3-2.4-1.5-2.4S41.4,136.5,41.4,138L41.4,138z"/>
		</g>
		<g>
			<path class="st1" d="M47,141.2h-1v-6.4h2.1c1.7,0,2.2,0.7,2.2,1.9c0.1,0.7-0.3,1.4-1,1.7l1.3,2.8h-1.1l-1.2-2.6H47V141.2z
				 M47,137.7h1.2c0.9,0,1-0.5,1-1s-0.1-1-1-1H47V137.7z"/>
		</g>
		<g>
			<path class="st1" d="M52.6,138.4l-0.5,0.6v2.2h-1v-6.4h1v3l2.3-3h1.2l-2.3,2.8l2.5,3.6h-1.2L52.6,138.4z"/>
		</g>
		<g>
			<path class="st1" d="M9.4,143.7c0.5,0,1,0.1,1.5,0.3v0.9c-0.5-0.2-0.9-0.3-1.4-0.3c-1.2,0-1.7,0.8-1.7,2.4s0.5,2.4,1.7,2.4
				c0.5,0,1-0.1,1.4-0.3v0.9c-0.5,0.2-1,0.3-1.5,0.3c-1.9,0-2.6-1.2-2.6-3.3S7.5,143.7,9.4,143.7z"/>
		</g>
		<g>
			<path class="st1" d="M11.6,147c0-1.8,0.4-3.3,2.5-3.3s2.4,1.5,2.4,3.3s-0.4,3.3-2.4,3.3S11.6,148.8,11.6,147z M12.6,147
				c0,1.5,0.3,2.4,1.5,2.4s1.5-0.9,1.5-2.4s-0.3-2.4-1.5-2.4S12.6,145.5,12.6,147L12.6,147z"/>
		</g>
		<g>
			<path class="st1" d="M20.9,150.2l-2.8-4.5v4.5h-1v-6.4h0.9l2.8,4.5v-4.5h0.9v6.4H20.9z"/>
		</g>
		<g>
			<path class="st1" d="M27.3,143.8l-2,6.4h-1l-2-6.4h1l1.5,5.2l1.5-5.2L27.3,143.8z"/>
		</g>
		<g>
			<path class="st1" d="M31.5,147.3h-2.7v2h2.9v0.9h-3.9v-6.4h3.9v0.9h-2.9v1.8h2.7V147.3z"/>
		</g>
		<g>
			<path class="st1" d="M36.2,150.2l-2.8-4.5v4.5h-0.9v-6.4h0.9l2.8,4.5v-4.5h1v6.4H36.2z"/>
		</g>
		<g>
			<path class="st1" d="M40.3,144.7v5.5h-1v-5.5h-1.7v-0.9h4.3v0.9H40.3z"/>
		</g>
		<g>
			<path class="st1" d="M42.6,150.2v-6.4h1v6.4H42.6z"/>
		</g>
		<g>
			<path class="st1" d="M44.5,147c0-1.8,0.4-3.3,2.5-3.3s2.5,1.5,2.5,3.3s-0.4,3.3-2.5,3.3S44.5,148.8,44.5,147z M45.5,147
				c0,1.5,0.3,2.4,1.5,2.4s1.5-0.9,1.5-2.4s-0.3-2.4-1.5-2.4S45.5,145.5,45.5,147L45.5,147z"/>
		</g>
		<g>
			<path class="st1" d="M53.9,150.2l-2.8-4.5v4.5h-0.9v-6.4h0.9l2.8,4.5v-4.5h0.9v6.4H53.9z"/>
		</g>
		<g>
			<path class="st1" d="M57,147c0-1.8,0.4-3.3,2.5-3.3s2.5,1.5,2.5,3.3s-0.4,3.3-2.5,3.3S57,148.8,57,147z M58,147
				c0,1.5,0.3,2.4,1.5,2.4s1.5-0.9,1.5-2.4s-0.3-2.4-1.5-2.4S58,145.5,58,147z"/>
		</g>
		<g>
			<path class="st1" d="M66.4,150.2l-2.8-4.5v4.5h-0.9v-6.4h0.9l2.8,4.5v-4.5h0.9v6.4H66.4z"/>
		</g>
		<g>
			<path class="st1" d="M9.4,152.7c0.5,0,1,0.1,1.5,0.3v0.9c-0.5-0.2-0.9-0.3-1.4-0.3c-1.2,0-1.7,0.8-1.7,2.4s0.5,2.4,1.7,2.4
				c0.5,0,1-0.1,1.4-0.3v0.9c-0.5,0.2-1,0.3-1.5,0.3c-1.9,0-2.6-1.2-2.6-3.3S7.5,152.7,9.4,152.7z"/>
		</g>
		<g>
			<path class="st1" d="M12.8,158.3h2.8v0.9h-3.7v-6.4h1L12.8,158.3z"/>
		</g>
		<g>
			<path class="st1" d="M16.2,159.2v-6.4h1v6.4H16.2z"/>
		</g>
		<g>
			<path class="st1" d="M21.5,158.3h-0.9l-1.6-3.9v4.8h-1v-6.4h1.2l1.7,4.3l1.7-4.3H24v6.4h-1v-4.8L21.5,158.3z"/>
		</g>
		<g>
			<path class="st1" d="M28.1,157.6H26l-0.5,1.6h-1l2-6.4h1l2,6.4h-1L28.1,157.6z M27.1,154l-0.8,2.8h1.6L27.1,154z"/>
		</g>
		<g>
			<path class="st1" d="M31.6,153.7v5.5h-1v-5.5H29v-0.9h4.3v0.9H31.6z"/>
		</g>
		<g>
			<path class="st1" d="M37.4,156.3h-2.7v2h2.9v0.9h-3.9v-6.4h3.9v0.9h-2.9v1.8h2.7V156.3z"/>
		</g>
		<g>
			<path class="st1" d="M42.4,152.7c0.5,0,1,0.1,1.5,0.3v0.9c-0.5-0.2-0.9-0.3-1.4-0.3c-1.2,0-1.7,0.8-1.7,2.4s0.5,2.4,1.7,2.4
				c0.5,0,1-0.1,1.4-0.3v0.9c-0.5,0.2-1,0.3-1.5,0.3c-1.9,0-2.6-1.2-2.6-3.3S40.5,152.7,42.4,152.7z"/>
		</g>
		<g>
			<path class="st1" d="M48.3,159.2v-2.9h-2.6v2.9h-1v-6.4h1v2.6h2.6v-2.6h1v6.4H48.3z"/>
		</g>
		<g>
			<path class="st1" d="M53.3,157.6h-2l-0.5,1.6h-1l2-6.4h1l2,6.4h-1L53.3,157.6z M52.3,154l-0.8,2.8h1.6L52.3,154z"/>
		</g>
		<g>
			<path class="st1" d="M59,159.2l-2.8-4.5v4.5h-1v-6.4h0.9l2.8,4.5v-4.5h0.9v6.4H59z"/>
		</g>
		<g>
			<path class="st1" d="M60.7,156c0-2,0.7-3.3,2.6-3.3c0.6,0,1.3,0.1,1.8,0.3v1c-0.5-0.2-1.1-0.4-1.7-0.4c-1.3,0-1.8,0.9-1.8,2.4
				s0.5,2.4,1.8,2.4c0.3,0,0.6,0,0.9-0.1v-1.7h-1.1v-0.9h2.1v3.2c-0.6,0.3-1.3,0.4-2,0.4C61.4,159.3,60.7,158,60.7,156z"/>
		</g>
		<g>
			<path class="st1" d="M69.9,156.3h-2.7v2h2.9v0.9h-3.9v-6.4h3.9v0.9h-2.9v1.8h2.7V156.3z"/>
		</g>
	</g>
	<g>
		<rect x="3.3" y="24" class="st1" width="94.8" height="94.8"/>
	</g>
	<g>
		<path class="st1" d="M98.2,20.7H3.3V3.3h94.8V20.7z M4.3,19.7h92.8V4.3H4.3L4.3,19.7z"/>
	</g>
	<g class="st2">
		<path class="st1" d="M6.7,6.9h4.5v1.4H9.9v8.8H8.1V8.3H6.7V6.9z"/>
	</g>
	<g class="st2">
		<path class="st1" d="M11.2,17.1l1.9-10.2h1.9L17,17.1h-1.8l-0.3-1.9h-1.8l-0.3,1.9H11.2z M13.3,13.9h1.4L14,9.8h0L13.3,13.9z"/>
	</g>
	<g class="st2">
		<path class="st1" d="M19.6,12.4v4.7h-1.7V6.9h2.5c1.7,0,2.4,0.9,2.4,2.3v1.3c0,1.1-0.4,1.7-1.4,2l1.6,4.6h-1.8L19.6,12.4z
			 M19.6,8.3v3.2h0.6c0.6,0,0.8-0.3,0.8-0.8V9.2c0-0.6-0.3-0.8-0.8-0.8H19.6z"/>
	</g>
	<g class="st2">
		<path class="st1" d="M26.4,11.7h2.4v5.4h-1.2V16c-0.2,0.8-0.7,1.2-1.6,1.2c-1.5,0-2.1-1.2-2.1-2.7V9.6c0-1.6,0.8-2.7,2.6-2.7
			c1.9,0,2.4,1.1,2.4,2.6v0.9h-1.6v-1c0-0.6-0.2-1-0.9-1c-0.6,0-0.9,0.4-0.9,1v5.5c0,0.6,0.3,1,0.8,1c0.6,0,0.8-0.3,0.8-1V13h-0.8
			V11.7z"/>
	</g>
	<g class="st2">
		<path class="st1" d="M30.2,6.9h4.1v1.4h-2.4v2.9h1.7v1.4h-1.7v3.1h2.4v1.4h-4.1V6.9z"/>
	</g>
	<g class="st2">
		<path class="st1" d="M35.1,6.9h4.5v1.4h-1.4v8.8h-1.7V8.3h-1.4V6.9z"/>
	</g>
	<g class="st2">
		<path class="st1" d="M88.8,17.1l1.9-10.2h1.9l1.9,10.2h-1.8l-0.3-1.9h-1.8l-0.3,1.9H88.8z M90.9,13.9h1.4l-0.7-4.1h0L90.9,13.9z"
			/>
	</g>
	<g class="st2">
		<path class="st1" d="M77.1,6.9v10.2h-1.7V9.3h0l-1.2,1.2h0V8.8l1.6-1.8H77.1z"/>
		<path class="st1" d="M83.2,9.1V10c0,0.9-0.5,1.4-1.2,1.7c0.9,0.2,1.3,0.8,1.3,1.7v1.5c0,1.4-0.8,2.3-2.5,2.3c-1.7,0-2.4-1-2.4-2.5
			v-1.3H80v1.5c0,0.6,0.2,1,0.8,1c0.5,0,0.8-0.4,0.8-0.9v-1.7c0-0.5-0.2-0.8-0.8-0.8H80v-1.3h0.6c0.6,0,0.9-0.3,0.9-0.8V9.1
			c0-0.6-0.2-0.9-0.7-0.9s-0.7,0.4-0.7,1v1h-1.6V9.3c0-1.5,0.6-2.6,2.4-2.6C82.5,6.8,83.2,7.7,83.2,9.1z"/>
	</g>
	<g>
		<polygon class="st1" points="85.4,9.9 85.4,14.1 87.6,12 		"/>
	</g>
	<g>
		<g>
			<path class="st0" d="M27.1,83.9v15.7c0,3.2-1.4,5.3-5,5.3s-5.2-2.1-5.2-5.3V83.9h3.5v16.1c0,1.2,0.5,2.1,1.7,2.1s1.7-0.8,1.7-2.1
				V83.9H27.1z"/>
		</g>
		<g>
			<path class="st0" d="M32.2,91.6v13.1h-3V83.9h3.4l3.8,11.9V83.9h2.9v20.8h-3.1L32.2,91.6z"/>
		</g>
		<g>
			<path class="st0" d="M41.3,83.9h8.2v2.8h-4.7v6h3.5v2.8h-3.5v9.2h-3.5V83.9z"/>
		</g>
		<g>
			<path class="st0" d="M50.5,99.3V89.2c0-3.3,1.5-5.6,5.2-5.6c3.9,0,4.9,2.2,4.9,5.2v2.4h-3.2v-2.7c0-1.3-0.4-2-1.7-2
				S54,87.4,54,88.7v11.2c0,1.3,0.5,2.2,1.8,2.2s1.7-0.8,1.7-2v-3.9h3.2v3.6c0,3-1.2,5.2-4.9,5.2S50.5,102.5,50.5,99.3z"/>
		</g>
		<g>
			<path class="st0" d="M62.4,99.3V89.2c0-3.3,1.5-5.6,5.2-5.6c3.9,0,5,2.2,5,5.2v2.4h-3.2v-2.7c0-1.3-0.4-2-1.7-2S66,87.4,66,88.7
				v11.1c0,1.3,0.5,2.2,1.8,2.2s1.7-0.8,1.7-2v-3.9h3.2v3.6c0,3-1.2,5.2-5,5.2S62.4,102.5,62.4,99.3z"/>
		</g>
		<g>
			<path class="st0" d="M74.3,99.3V89.2c0-3.3,1.5-5.6,5.2-5.6c3.9,0,4.9,2.2,4.9,5.2v2.4h-3.2v-2.7c0-1.3-0.4-2-1.7-2
				s-1.8,0.9-1.8,2.2v11.1c0,1.3,0.5,2.2,1.8,2.2s1.7-0.8,1.7-2v-3.9h3.2v3.6c0,3-1.2,5.2-4.9,5.2S74.3,102.5,74.3,99.3z"/>
		</g>
		<g>
			<path class="st0" d="M84.3,54.8C70.6,36.3,44.5,32.5,26,46.2c-3.3,2.4-6.2,5.3-8.6,8.6l-0.3,0.4l0.3,0.4
				C31.1,74,57.2,77.9,75.7,64.1c3.3-2.4,6.2-5.3,8.6-8.6l0.3-0.4L84.3,54.8 M39.6,46.5c0.2-0.3,0.8-1,0.9-1.1
				c0.2-0.2,0.4-0.3,0.7-0.3c0.2,0,0.5,0.1,0.5,0.2c0,0.3-0.1,0.6-0.2,0.9c-0.4,0.4-0.9,0.6-1.5,0.7C39.7,46.9,39.5,46.6,39.6,46.5
				 M38.9,47.9L38.9,47.9c0.4-0.3,0.8-0.5,1.2-0.5c0.3-0.1,0.8,0.1,0.9,0.3s-0.9,0.7-1,0.8c-0.5,0.5-1.2,1.4-1.7,1.5
				c-0.1,0-0.2,0-0.4,0C38.2,49.3,38.5,48.6,38.9,47.9 M46.4,63.5c-0.1,0.7-0.4,1.3-0.9,1.8C45,65.7,44.4,66,43.7,66
				c-0.6,0-0.7-1.8-0.7-2.6c0-0.3-0.4,0.6-0.7-1.2c-0.1-1.2-0.9,0.1-0.9-0.7s-0.4-0.6-0.8-1.1s-0.9,0-1.4,0.3S38.8,61,38,60.8l0,0
				c-0.7-1.7-1.1-3.6-1.1-5.5c0-0.5,0-0.9,0.1-1.4l0.1-0.1c0.8-0.9,0.7-1.1,0.7-1.1l0.8-0.3c0.8,0.1,1.6,0.3,2.3,0.6
				c0.8,0.3,2.1,1,2.8,0.7c0.5-0.2,1-0.5,0.9-1s-0.5-0.7-1-0.3c-0.2,0.1-0.6-0.8-1-0.8s0.4,1.2,0.1,1.2s-0.8-1.2-0.9-1.3
				s-0.5-0.7-0.9-0.3c-0.8,0.8-2.2,0.7-2.5,0.9c-0.8,0.6-1-0.2-1-0.7c0-0.1,0.1-0.2,0.1-0.3c0.4-0.3,0.9-0.4,1.4-0.2
				c0.4,0.2,0.6-0.1,0.8-0.2s0.1-0.4,0-0.6s0.2-0.3,0.4-0.4c0.4-0.2,0.8-0.4,1.1-0.6c0.7-0.2,1.4-0.2,2.1,0c0.5,0.2,1.1,0.1,1.4-0.3
				c0.3-0.3,0.6-0.6,1-0.8c0.2-0.1-0.5-0.8-1.1,0s-0.9,0.8-1.2,0.8s-1.9-0.4-2.1-0.9s0.5-0.9,1.1-1.2c0.9-0.2,1.8-0.3,2.7-0.4
				c0.8-0.2,1.9-0.6,2.5-0.2s-2.3,1-1.4,1.5c0.3,0.2,1.8-0.9,2.3-1.1c1.2-0.6-1.2-0.8-0.9-2.1c0.3-1.4-2.9-0.9-4.6-0.8
				c6.5-4.2,15.2-2.4,19.4,4.1c0.9,1.4,1.5,2.9,1.9,4.4c0,0.2,0,0.4-0.1,0.7c-0.2,0.5-0.7,0.7-1.2,0.5c-0.2-0.1-0.4-0.2-0.5-0.4
				c-0.1-0.2-0.8-0.8-0.7,0.2s1,1.1,0,1.7c-0.4,0.3-0.9,0.5-1.5,0.6c-0.5,0.4-0.7,1-0.6,1.7c0.1,0.5,1.4,2,0.4,1.9
				c-0.9-0.4-1.6-1.1-2.2-1.9c-0.3-0.8-0.6-1.5-0.8-2.1c-0.1-0.4-0.6-0.7-1-0.5c-0.1,0-0.2,0.1-0.3,0.2c-0.5,0.3,0.1,0.7-0.2,1.4
				s-0.6,1.4-1.2,0.8c-1.4-1.6-3.4-0.8-3.7-2.5c-0.2-1-1-0.9-1.7-1.4s-1.1-0.8-1.2-0.4s2.2,2.1,2.3,2.6c0.2,0.7-0.7,1.3-1.3,1.4
				s-1-0.4-1.6-1s-0.9-1.2-1-0.6c0.1,0.9,0.5,1.8,1.3,2.3c0.6,0.4,1.2,0.5,1,1.1s0,0.2-0.6,0.9c-0.6,0.4-0.8,1-0.7,1.7
				c0,0.9-0.2,0.9-0.3,1.7S46.7,62.3,46.4,63.5 M61.5,57.8c0.5,0,1.2,0.6,0.9,0.9c-0.4,0.2-1,0.2-1.3-0.1
				C60.7,58.3,61.3,57.8,61.5,57.8 M60.9,57.4c-0.2,0-0.3-0.2-0.4-0.5s0.2-0.5,0.5-0.4c0.3,0.2,0.6,0.5,0.7,0.8
				C61.6,57.5,61,57.4,60.9,57.4 M54.7,57.4c-0.4,0.2-1,0.2-1.3-0.1c-0.3-0.3,0.2-0.7,0.4-0.8C54.2,56.5,54.9,57.1,54.7,57.4
				 M49,60.1c-0.2,0.3-0.7,2.7-1.1,2.4s0.1-2.7,0.2-2.9C48.7,58.6,49.9,58.6,49,60.1 M50.9,69.3c-1.4,0-2.7-0.2-4-0.6
				c-0.2-0.2-0.3-0.4-0.2-0.7c0.5-1,1.6-1.7,2.8-1.7c2.3-0.2,5.3,1.5,5.8,1.2s1.4-1.5,2.8-1.5c0.5,0,0.9,0.1,1.3,0.3
				C57,68.3,54,69.3,50.9,69.3 M60.8,65.2c-0.2,0-0.3-0.1-0.4-0.2c-0.8-0.4-0.7,0.2-1,0.1s0.4-1-0.7-0.3s-0.8-0.1-1.3-1.4
				c-0.3-1.2,0.3-2.5,1.5-3c0.8-0.3,1.7-0.5,2.5-0.7c1.7-0.4,2-1.4,2.3-0.8l0.2,0.3c0.1,0.3,0.2,0.6,0.2,0.9
				C63.3,62.1,62.2,63.8,60.8,65.2 M64.6,58.2c-0.4-0.1-2-2.3-0.7-3.7c0.2-0.2-0.4-0.9-0.2-0.9c0.7-0.1,1,0.4,1.2,1
				c0,0.3,0,0.5,0,0.8C64.9,56.3,64.8,57.2,64.6,58.2"/>
		</g>
	</g>
	<g>
		<path class="st1" d="M98.2,162.9h-95v-40.7h95V162.9z M4.2,161.9h93v-38.7h-93V161.9z"/>
	</g>
</g>
</svg>
