<?xml version="1.0" encoding="utf-8"?>
<!-- Generator: Adobe Illustrator 22.0.1, SVG Export Plug-In . SVG Version: 6.00 Build 0)  -->
<svg version="1.1" id="Layer_1" xmlns="http://www.w3.org/2000/svg" xmlns:xlink="http://www.w3.org/1999/xlink" x="0px" y="0px"
	 viewBox="0 0 101.5 156.5" style="enable-background:new 0 0 101.5 156.5;" xml:space="preserve">
<style type="text/css">
	.st0{fill:#FFFFFF;}
	.st1{fill:#3F7E44;}
	.st2{enable-background:new    ;}
</style>
<title>TARGET 1.3</title>
<g id="WHITE_BG">
	<g>
		<rect y="0" class="st0" width="101.5" height="156.5"/>
	</g>
</g>
<g id="TARGETS">
	<g>
		<g>
			<path class="st1" d="M6.9,125.8H9c1.6,0,2,0.8,2,1.7c0,0.5-0.3,1-0.8,1.3c0.6,0.2,1.1,0.8,1,1.5c0,1-0.5,1.9-2.2,1.9H6.9V125.8z
				 M9.1,126.7H7.8v1.8h1.2c0.8,0,0.9-0.5,0.9-0.9S9.9,126.7,9.1,126.7z M7.8,131.3h1.3c0.9,0,1.1-0.5,1.1-1s-0.3-1-1.1-1H7.8
				L7.8,131.3z"/>
		</g>
		<g>
			<path class="st1" d="M11.8,130.2v-4.4h0.9v4.3c-0.1,0.7,0.4,1.3,1,1.3c0.1,0,0.2,0,0.3,0c0.6,0.1,1.3-0.3,1.4-1
				c0-0.1,0-0.2,0-0.3v-4.3h1v4.4c0,1.1-0.9,2.1-2,2.1c-0.1,0-0.2,0-0.3,0c-1.1,0.2-2.2-0.6-2.3-1.7
				C11.8,130.4,11.8,130.3,11.8,130.2z"/>
		</g>
		<g>
			<path class="st1" d="M17.5,132.2v-6.4h1v6.4H17.5z"/>
		</g>
		<g>
			<path class="st1" d="M20.5,131.3h2.8v0.9h-3.7v-6.4h1L20.5,131.3z"/>
		</g>
		<g>
			<path class="st1" d="M23.8,132.2v-6.4h1.9c2.1,0,2.7,1.4,2.7,3.2s-0.6,3.2-2.7,3.2H23.8z M24.8,131.3h1c1.3,0,1.7-0.9,1.7-2.3
				s-0.4-2.3-1.7-2.3h-1V131.3z"/>
		</g>
		<g>
			<path class="st1" d="M32,129.4l-0.5,0.6v2.2h-1v-6.4h1v3l2.3-3H35l-2.3,2.8l2.6,3.6H34L32,129.4z"/>
		</g>
		<g>
			<path class="st1" d="M39.3,132.2l-2.8-4.5v4.5h-0.9v-6.4h0.9l2.8,4.5v-4.5h0.9v6.4L39.3,132.2z"/>
		</g>
		<g>
			<path class="st1" d="M40.9,129c0-1.8,0.4-3.3,2.5-3.3s2.5,1.5,2.5,3.3s-0.4,3.3-2.5,3.3S40.9,130.8,40.9,129z M41.9,129
				c0,1.5,0.3,2.4,1.5,2.4s1.5-0.9,1.5-2.4s-0.3-2.4-1.5-2.4S41.9,127.5,41.9,129L41.9,129z"/>
		</g>
		<g>
			<path class="st1" d="M49.2,125.8h1.2l1.1,5l0.8-5h1l-1.2,6.4h-1.2l-1.2-5.3l-1.2,5.3h-1.2l-1.2-6.4h1l0.8,5L49.2,125.8z"/>
		</g>
		<g>
			<path class="st1" d="M54.8,131.3h2.8v0.9h-3.7v-6.4h1L54.8,131.3z"/>
		</g>
		<g>
			<path class="st1" d="M61.7,129.3H59v2h3v0.9h-3.9v-6.4H62v0.9h-3v1.8h2.7L61.7,129.3z"/>
		</g>
		<g>
			<path class="st1" d="M62.8,132.2v-6.4h1.9c2.1,0,2.7,1.4,2.7,3.2s-0.6,3.2-2.7,3.2H62.8z M63.8,131.3h1c1.3,0,1.7-0.9,1.7-2.3
				s-0.4-2.3-1.7-2.3h-1L63.8,131.3z"/>
		</g>
		<g>
			<path class="st1" d="M68,129c0-2,0.7-3.3,2.6-3.3c0.6,0,1.3,0.1,1.8,0.3v1c-0.5-0.2-1.1-0.4-1.7-0.4c-1.3,0-1.8,0.9-1.8,2.4
				s0.5,2.4,1.8,2.4c0.3,0,0.6,0,0.9-0.1v-1.8h-1.1v-0.9h2.1v3.2c-0.6,0.3-1.3,0.4-2,0.4C68.7,132.3,68,131,68,129z"/>
		</g>
		<g>
			<path class="st1" d="M77.2,129.3h-2.7v2h2.9v0.9h-3.9v-6.4h3.9v0.9h-2.9v1.8h2.7V129.3z"/>
		</g>
		<g>
			<path class="st1" d="M10.1,139.6h-2l-0.4,1.6h-1l2-6.5h1l2,6.5h-1L10.1,139.6z M9.1,136l-0.8,2.8h1.6L9.1,136z"/>
		</g>
		<g>
			<path class="st1" d="M15.8,141.2l-2.8-4.5v4.5h-0.9v-6.4H13l2.8,4.5v-4.5h0.9v6.4L15.8,141.2z"/>
		</g>
		<g>
			<path class="st1" d="M17.6,141.2v-6.4h1.9c2.1,0,2.7,1.4,2.7,3.2s-0.6,3.2-2.7,3.2H17.6z M18.6,140.3h1c1.3,0,1.7-0.9,1.7-2.3
				s-0.4-2.3-1.7-2.3h-1V140.3z"/>
		</g>
		<g>
			<path class="st1" d="M27,134.7c0.5,0,1,0.1,1.5,0.3v0.9c-0.4-0.2-0.9-0.3-1.4-0.3c-1.2,0-1.7,0.8-1.7,2.4s0.5,2.4,1.7,2.4
				c0.5,0,1-0.1,1.4-0.3v0.9c-0.5,0.2-1,0.3-1.5,0.3c-1.9,0-2.6-1.2-2.6-3.3S25.1,134.7,27,134.7z"/>
		</g>
		<g>
			<path class="st1" d="M32.3,139.6h-2l-0.5,1.6h-1l2-6.5h1l2,6.5h-1L32.3,139.6z M31.3,136l-0.8,2.8h1.6L31.3,136z"/>
		</g>
		<g>
			<path class="st1" d="M35.3,141.2h-1v-6.4h2c1.6,0,2.2,0.9,2.2,2s-0.6,2-2.2,2h-1V141.2z M35.3,137.9h1.1c0.6,0,1.1-0.5,1.1-1.1
				c0-0.6-0.5-1.1-1.1-1.1h-1.1V137.9z"/>
		</g>
		<g>
			<path class="st1" d="M41.8,139.6h-2l-0.5,1.6h-1l2-6.5h1l2,6.5h-1L41.8,139.6z M40.8,136l-0.8,2.8h1.6L40.8,136z"/>
		</g>
		<g>
			<path class="st1" d="M46.2,134.7c0.5,0,1,0.1,1.5,0.3v0.9c-0.5-0.2-0.9-0.3-1.4-0.3c-1.2,0-1.7,0.8-1.7,2.4s0.5,2.4,1.7,2.4
				c0.5,0,1-0.1,1.4-0.3v0.9c-0.5,0.2-1,0.3-1.5,0.3c-1.9,0-2.6-1.2-2.6-3.3S44.3,134.7,46.2,134.7z"/>
		</g>
		<g>
			<path class="st1" d="M48.5,141.2v-6.4h1v6.4H48.5z"/>
		</g>
		<g>
			<path class="st1" d="M52.9,135.7v5.5h-1v-5.5h-1.6v-0.9h4.3v0.9H52.9z"/>
		</g>
		<g>
			<path class="st1" d="M57.9,138.6v2.6h-1v-2.6l-2.2-3.8h1.1l1.6,3l1.6-3H60L57.9,138.6z"/>
		</g>
		<g>
			<path class="st1" d="M63.9,135.7v5.5H63v-5.5h-1.7v-0.9h4.3v0.9H63.9z"/>
		</g>
		<g>
			<path class="st1" d="M65.8,138c0-1.8,0.4-3.3,2.5-3.3s2.5,1.5,2.5,3.3s-0.4,3.3-2.5,3.3S65.8,139.8,65.8,138z M66.8,138
				c0,1.5,0.3,2.4,1.5,2.4s1.5-0.9,1.5-2.4s-0.3-2.4-1.5-2.4S66.8,136.5,66.8,138L66.8,138z"/>
		</g>
		<g>
			<path class="st1" d="M76.3,140.3h-0.9l-1.6-3.9v4.8h-1v-6.4h1.2l1.7,4.3l1.7-4.3h1.2v6.4h-1v-4.8L76.3,140.3z"/>
		</g>
		<g>
			<path class="st1" d="M83.4,138.3h-2.7v2h2.9v0.9h-3.9v-6.4h3.9v0.9h-2.9v1.8h2.7V138.3z"/>
		</g>
		<g>
			<path class="st1" d="M88.1,138.3h-2.7v2h2.9v0.9h-3.9v-6.4h3.9v0.9h-2.9v1.8h2.7V138.3z"/>
		</g>
		<g>
			<path class="st1" d="M91.5,135.7v5.5h-1v-5.5h-1.6v-0.9h4.3v0.9H91.5z"/>
		</g>
		<g>
			<path class="st1" d="M9.4,143.7c0.5,0,1,0.1,1.5,0.3v0.9c-0.5-0.2-0.9-0.3-1.4-0.3c-1.2,0-1.7,0.8-1.7,2.4s0.5,2.4,1.7,2.4
				c0.5,0,1-0.1,1.4-0.3v0.9c-0.5,0.2-1,0.3-1.5,0.3c-1.9,0-2.6-1.2-2.6-3.3S7.5,143.7,9.4,143.7z"/>
		</g>
		<g>
			<path class="st1" d="M12.6,149.3h2.8v0.9h-3.7v-6.4h0.9V149.3z"/>
		</g>
		<g>
			<path class="st1" d="M16,150.2v-6.4h1v6.4H16z"/>
		</g>
		<g>
			<path class="st1" d="M21.5,149.3h-0.9l-1.6-3.9l0,4.8h-1v-6.4h1.2l1.7,4.3l1.7-4.3H24v6.4h-1v-4.8L21.5,149.3z"/>
		</g>
		<g>
			<path class="st1" d="M28,148.6h-2l-0.5,1.6h-1l2-6.5h1l2,6.5h-1L28,148.6z M27,145l-0.8,2.8h1.6L27,145z"/>
		</g>
		<g>
			<path class="st1" d="M31.5,144.7v5.5h-0.9v-5.5h-1.7v-0.9h4.3v0.9H31.5z"/>
		</g>
		<g>
			<path class="st1" d="M37.3,147.3h-2.7v2h2.9v0.9h-3.9v-6.4h3.9v0.9h-2.9v1.8h2.7V147.3z"/>
		</g>
		<g>
			<path class="st1" d="M42.4,143.7c0.5,0,1,0.1,1.5,0.3v0.9c-0.5-0.2-0.9-0.3-1.4-0.3c-1.2,0-1.7,0.8-1.7,2.4s0.5,2.4,1.7,2.4
				c0.5,0,1-0.1,1.4-0.3v0.9c-0.5,0.2-1,0.3-1.5,0.3c-1.9,0-2.6-1.2-2.6-3.3S40.5,143.7,42.4,143.7z"/>
		</g>
		<g>
			<path class="st1" d="M48.3,150.2v-2.9h-2.6v2.9h-1v-6.4h1v2.6h2.6v-2.6h1v6.4H48.3z"/>
		</g>
		<g>
			<path class="st1" d="M53.3,148.6h-2l-0.5,1.6h-1l2-6.5h1l2,6.5h-1L53.3,148.6z M52.3,145l-0.8,2.8h1.6L52.3,145z"/>
		</g>
		<g>
			<path class="st1" d="M59,150.2l-2.8-4.5v4.5h-1v-6.4h0.9l2.8,4.5v-4.5h0.9v6.4H59z"/>
		</g>
		<g>
			<path class="st1" d="M60.7,147c0-2,0.7-3.3,2.6-3.3c0.6,0,1.3,0.1,1.8,0.3v1c-0.5-0.2-1.1-0.4-1.7-0.4c-1.3,0-1.8,0.9-1.8,2.4
				s0.5,2.4,1.8,2.4c0.3,0,0.6,0,0.9-0.1v-1.8h-1.1v-0.9h2.1v3.2c-0.6,0.3-1.3,0.4-2,0.4C61.4,150.3,60.7,149,60.7,147z"/>
		</g>
		<g>
			<path class="st1" d="M69.8,147.3h-2.7v2h2.9v0.9h-3.9v-6.4h3.9v0.9h-2.9v1.8h2.7V147.3z"/>
		</g>
	</g>
	<g>
		<rect x="3.3" y="24" class="st1" width="94.8" height="94.8"/>
	</g>
	<g>
		<path class="st1" d="M98.2,20.7H3.3V3.3h94.8V20.7z M4.3,19.7h92.8V4.3H4.3L4.3,19.7z"/>
	</g>
	<g class="st2">
		<path class="st1" d="M6.7,6.9h4.5v1.4H9.9v8.8H8.1V8.3H6.7V6.9z"/>
	</g>
	<g class="st2">
		<path class="st1" d="M11.2,17.1l1.9-10.2h1.9L17,17.1h-1.8l-0.3-1.9h-1.8l-0.3,1.9H11.2z M13.3,13.9h1.4L14,9.8h0L13.3,13.9z"/>
	</g>
	<g class="st2">
		<path class="st1" d="M19.6,12.4v4.7h-1.7V6.9h2.5c1.7,0,2.4,0.9,2.4,2.3v1.3c0,1.1-0.4,1.7-1.4,2l1.6,4.6h-1.8L19.6,12.4z
			 M19.6,8.3v3.2h0.6c0.6,0,0.8-0.3,0.8-0.8V9.2c0-0.6-0.3-0.8-0.8-0.8H19.6z"/>
	</g>
	<g class="st2">
		<path class="st1" d="M26.4,11.7h2.4v5.4h-1.2V16c-0.2,0.8-0.7,1.2-1.6,1.2c-1.5,0-2.1-1.2-2.1-2.7V9.6c0-1.6,0.8-2.7,2.6-2.7
			c1.9,0,2.4,1.1,2.4,2.6v0.9h-1.6v-1c0-0.6-0.2-1-0.9-1c-0.6,0-0.9,0.4-0.9,1v5.5c0,0.6,0.3,1,0.8,1c0.6,0,0.8-0.3,0.8-1V13h-0.8
			V11.7z"/>
	</g>
	<g class="st2">
		<path class="st1" d="M30.2,6.9h4.1v1.4h-2.4v2.9h1.7v1.4h-1.7v3.1h2.4v1.4h-4.1V6.9z"/>
	</g>
	<g class="st2">
		<path class="st1" d="M35.1,6.9h4.5v1.4h-1.4v8.8h-1.7V8.3h-1.4V6.9z"/>
	</g>
	<g class="st2">
		<path class="st1" d="M77.8,6.9v10.2h-1.7V9.3h0l-1.2,1.2h0V8.8l1.6-1.8H77.8z"/>
		<path class="st1" d="M83.9,9.1V10c0,0.9-0.5,1.4-1.2,1.7c0.9,0.2,1.3,0.8,1.3,1.7v1.5c0,1.4-0.8,2.3-2.5,2.3c-1.7,0-2.4-1-2.4-2.5
			v-1.3h1.6v1.5c0,0.6,0.2,1,0.8,1c0.5,0,0.8-0.4,0.8-0.9v-1.7c0-0.5-0.2-0.8-0.8-0.8h-0.7v-1.3h0.6c0.6,0,0.9-0.3,0.9-0.8V9.2
			c0-0.6-0.2-0.9-0.7-0.9s-0.7,0.4-0.7,1v1h-1.6V9.4c0-1.5,0.6-2.6,2.4-2.6C83.2,6.8,83.9,7.7,83.9,9.1z"/>
	</g>
	<g class="st2">
	</g>
	<g class="st2">
		<path class="st1" d="M86.8,10.8c0.7,0,1.2,0.6,1.2,1.2c0,0.7-0.6,1.2-1.2,1.2c-0.7,0-1.2-0.6-1.2-1.2
			C85.6,11.4,86.1,10.8,86.8,10.8z"/>
	</g>
	<g class="st2">
		<path class="st1" d="M94.3,9.1V10c0,0.9-0.5,1.4-1.2,1.7c0.9,0.2,1.3,0.8,1.3,1.7v1.5c0,1.4-0.8,2.3-2.5,2.3c-1.7,0-2.4-1-2.4-2.5
			v-1.3h1.6v1.5c0,0.6,0.2,1,0.8,1c0.5,0,0.8-0.4,0.8-0.9v-1.7c0-0.5-0.2-0.8-0.8-0.8h-0.7v-1.3h0.6c0.6,0,0.9-0.3,0.9-0.8V9.2
			c0-0.6-0.2-0.9-0.7-0.9s-0.7,0.4-0.7,1v1h-1.6V9.4c0-1.5,0.6-2.6,2.4-2.6C93.6,6.8,94.3,7.7,94.3,9.1z"/>
	</g>
	<g>
		<g>
			<path class="st0" d="M81.1,79.7c0,1.5,1.2,2.8,2.7,2.8c1.5,0,2.8-1.2,2.8-2.7c0-1.5-1.2-2.8-2.7-2.8c0,0,0,0,0,0
				C82.4,77,81.1,78.2,81.1,79.7z"/>
		</g>
		<g>
			<path class="st0" d="M87.1,83.6h-0.2h-6.1h-0.2c-1.9,0.2-3.4,1.8-3.4,3.7V95c-0.1,0.6,0.4,1.1,1,1.2c0.6,0.1,1.1-0.4,1.2-1
				c0-0.1,0-0.1,0-0.2v-6.7c0-0.2,0.1-0.6,0.5-0.6s0.4,0.3,0.4,0.5v19.8c-0.1,0.9,0.6,1.6,1.4,1.7s1.6-0.6,1.7-1.4
				c0-0.1,0-0.2,0-0.2V96.7c0-0.2,0.2-0.4,0.4-0.4c0,0,0,0,0,0l0,0c0.2,0,0.4,0.2,0.4,0.4c0,0,0,0,0,0.1v11.4c0,0.9,0.7,1.5,1.6,1.5
				c0.9,0,1.5-0.7,1.5-1.5V88.3c0-0.2,0.1-0.5,0.4-0.5s0.5,0.3,0.5,0.6V95c0,0.6,0.5,1.1,1.1,1.1s1.1-0.5,1.1-1.1v-7.7
				C90.5,85.4,89,83.8,87.1,83.6z"/>
		</g>
		<g>
			<path class="st0" d="M57.9,81.2c0,1.4,1.2,2.6,2.6,2.6s2.6-1.2,2.6-2.6c0-1.4-1.2-2.6-2.6-2.6S57.9,79.8,57.9,81.2L57.9,81.2z"/>
		</g>
		<g>
			<path class="st0" d="M63.7,88.7c0.3-0.1,0.4,0.3,0.4,0.3l1.8,6c0,0,0.3,1.3,1.4,1s0.7-1.6,0.7-1.6l-2.2-7.1c0,0-0.8-2.1-2.5-2.1
				h-5.6c-1.7,0-2.5,2.1-2.5,2.1l-2.2,7.1c0,0-0.4,1.3,0.7,1.6s1.4-1,1.4-1l1.8-6c0,0,0.1-0.4,0.4-0.3s0.2,0.6,0.2,0.6l-3.1,11.1
				h2.8v8c-0.1,0.8,0.5,1.4,1.2,1.5c0.8,0.1,1.4-0.5,1.5-1.2c0-0.1,0-0.2,0-0.2v-8h0.8v8c-0.1,0.8,0.5,1.4,1.2,1.5
				c0.8,0.1,1.4-0.5,1.5-1.2c0-0.1,0-0.2,0-0.2v-8h2.8l-3.1-11.1C63.4,89.2,63.3,88.8,63.7,88.7z"/>
		</g>
		<g>
			<path class="st0" d="M42.2,81.2c0,1.5,1.2,2.6,2.6,2.6c1.5,0,2.6-1.2,2.6-2.6c0-1.5-1.2-2.6-2.6-2.6c0,0,0,0,0,0
				C43.4,78.5,42.2,79.7,42.2,81.2C42.2,81.2,42.2,81.2,42.2,81.2z"/>
		</g>
		<g>
			<path class="st0" d="M50.1,87.1c0,0-0.8-2.1-2.5-2.1H42c-1.7,0-2.5,2.1-2.5,2.1l-2.2,7.1c0,0-0.4,1.3,0.7,1.6s1.4-0.9,1.4-0.9
				l1.8-5.9c0,0,0.1-0.4,0.4-0.4s0.2,0.6,0.2,0.6l-3.1,11.1h2.8v8c-0.1,0.8,0.5,1.4,1.2,1.5c0.8,0.1,1.4-0.5,1.5-1.2
				c0-0.1,0-0.2,0-0.2v-8h0.8v8c-0.1,0.8,0.5,1.4,1.2,1.5c0.8,0.1,1.4-0.5,1.5-1.2c0-0.1,0-0.2,0-0.2v-8h2.8l-3.1-11.1
				c0,0-0.1-0.5,0.2-0.6s0.4,0.4,0.4,0.4l1.8,5.9c0,0,0.3,1.3,1.4,0.9s0.7-1.6,0.7-1.6L50.1,87.1z"/>
		</g>
		<g>
			<path class="st0" d="M19.6,82.8c1.5,0,2.7-1.2,2.7-2.8c0-1.5-1.2-2.7-2.8-2.7s-2.7,1.2-2.7,2.8c0,0,0,0,0,0
				C16.8,81.6,18,82.8,19.6,82.8C19.6,82.8,19.6,82.8,19.6,82.8z"/>
		</g>
		<g>
			<path class="st0" d="M22.8,83.9h-6.4C14.5,84,13,85.6,13,87.5v7.6c0,0.3,0.2,0.6,0.4,0.8L11,108.8c0,0.2,0.1,0.4,0.3,0.5h0.1
				c0.2,0,0.4-0.1,0.4-0.3l2.4-12.8c0.5-0.1,0.9-0.5,0.9-1v-6.6c0-0.2,0.1-0.6,0.5-0.6s0.4,0.3,0.4,0.5v19.6c0,0.8,0.7,1.5,1.5,1.5
				c0.8,0,1.5-0.7,1.5-1.5c0,0,0,0,0,0V96.9c0-0.2,0.2-0.4,0.4-0.4c0,0,0,0,0.1,0l0,0c0.2,0,0.4,0.2,0.4,0.4c0,0,0,0,0,0.1v11.3
				c0.1,0.8,0.8,1.5,1.7,1.4c0.8-0.1,1.4-0.7,1.4-1.4V88.6c0-0.2,0.1-0.5,0.4-0.5s0.5,0.3,0.5,0.6v6.5c0.1,0.6,0.6,1,1.2,1
				c0.5,0,0.9-0.5,1-1v-7.6C26.1,85.6,24.7,84.1,22.8,83.9z"/>
		</g>
		<g>
			<path class="st0" d="M70.3,93.4c0,1.2,1,2.2,2.2,2.2s2.2-1,2.2-2.2c0-1.2-1-2.2-2.2-2.2C71.3,91.2,70.3,92.2,70.3,93.4L70.3,93.4
				z"/>
		</g>
		<g>
			<path class="st0" d="M77,100c-1.3-3.4-1.6-3.4-2.8-3.5h-3.4c-1.2,0-1.4,0-2.8,3.5c-0.2,0.5-1,2.4-1,2.5s-0.3,0.8,0.4,1.1
				s0.9-0.6,0.9-0.6l1.4-3.4c0,0,0-0.1,0.1-0.1s0,0.1,0.1,0.1v8.8l0,0c0,0.6,0.5,1.1,1.1,1.1c0.6,0,1.1-0.5,1.1-1.1c0,0,0,0,0,0V105
				c0,0,0-0.5,0.3-0.5s0.3,0.5,0.3,0.5v3.5c0,0.6,0.5,1.2,1.1,1.2c0,0,0,0,0,0c0.6,0,1.1-0.5,1.1-1.1c0,0,0,0,0-0.1l0,0v-8.8
				c0-0.1,0-0.1,0-0.1s0.1,0.1,0.1,0.1l1.2,3c0,0,0.4,0.8,1,0.5s0.3-1,0.3-1S77.2,100.5,77,100z"/>
		</g>
		<g>
			<path class="st0" d="M36.2,94.4c-0.4-0.2-0.9-0.1-1.1,0.4c0,0,0,0,0,0c-0.4,0.7-0.9,1.5-1.4,2.1c-0.2,0.2-0.4,0.3-0.7,0.3h-2.7
				c-0.3,0-0.5-0.1-0.7-0.3c-0.3-0.3-1.4-2.2-1.4-2.2c-0.1-0.2-0.4-0.4-0.7-0.4c-0.4,0-0.8,0.4-0.8,0.8c0,0.1,0,0.2,0.1,0.3l2.2,4
				c0.1,0.2,0.1,0.3,0.1,0.5v0.6l0,0c0,0.2,0,0.5-0.1,0.7l-1.1,4.2h1.2v3.1l0,0c-0.1,0.6,0.4,1.1,1,1.2s1.1-0.4,1.2-1
				c0-0.1,0-0.1,0-0.2v-3c0,0,0-0.1,0-0.1H32v3.1c-0.1,0.6,0.4,1.1,1,1.2s1.1-0.4,1.2-1c0-0.1,0-0.1,0-0.2v-3.1h1.2l-1.1-4.2
				c-0.1-0.2-0.1-0.4-0.1-0.6v-0.2l0,0V100c0-0.2,0.1-0.4,0.1-0.5l2-3.7l0.2-0.4C36.7,95.1,36.6,94.6,36.2,94.4
				C36.3,94.4,36.2,94.4,36.2,94.4z"/>
		</g>
		<g>
			<path class="st0" d="M31.7,95.8c1.2,0,2.2-1,2.2-2.2c0-1.2-1-2.2-2.2-2.2s-2.2,1-2.2,2.2c0,0,0,0,0,0
				C29.5,94.8,30.5,95.8,31.7,95.8C31.7,95.8,31.7,95.8,31.7,95.8z"/>
		</g>
		<g>
			<path class="st0" d="M85,50.3c-14-18.8-40.5-22.7-59.3-8.7c-3.3,2.5-6.3,5.4-8.7,8.7l-0.3,0.4l0.3,0.4
				c14,18.8,40.6,22.7,59.4,8.7c3.3-2.5,6.3-5.4,8.7-8.7l0.3-0.4L85,50.3 M39.5,41.9c0.2-0.3,0.8-1,0.9-1.2c0.2-0.2,0.4-0.3,0.7-0.3
				c0.2,0,0.5,0.1,0.5,0.2c0,0.3-0.1,0.6-0.2,0.9c-0.4,0.4-0.9,0.6-1.5,0.7C39.6,42.2,39.4,42,39.5,41.9 M38.8,43.3
				C38.8,43.3,38.8,43.3,38.8,43.3c0.4-0.3,0.8-0.5,1.2-0.5c0.3-0.1,0.8,0.1,0.9,0.3S40,43.9,39.8,44c-0.5,0.5-1.3,1.4-1.7,1.5
				c-0.1,0-0.3,0-0.4,0C38,44.8,38.4,44,38.8,43.3 M46.5,59.1c-0.1,0.7-0.4,1.3-0.9,1.8c-0.5,0.5-1.2,0.7-2,0.8
				c-0.7,0-0.7-1.8-0.7-2.7c0-0.3-0.4,0.6-0.7-1.3c-0.1-1.2-0.9,0.1-1-0.7s-0.4-0.6-0.8-1.1s-0.9,0-1.5,0.3s-0.3,0.4-1.1,0.1h0
				c-0.7-1.8-1.1-3.7-1.1-5.6c0-0.5,0-1,0.1-1.4c0,0,0.1-0.1,0.1-0.1c0.8-0.9,0.7-1.1,0.7-1.1l0.8-0.3c0.8,0.1,1.6,0.3,2.3,0.6
				c0.8,0.3,2.1,1,2.9,0.7c0.5-0.2,1-0.5,0.9-1s-0.5-0.7-1.1-0.3c-0.2,0.1-0.6-0.9-1-0.8s0.4,1.2,0.1,1.2s-0.9-1.2-1-1.4
				s-0.5-0.7-0.9-0.3c-0.8,0.8-2.2,0.8-2.5,1c-0.8,0.6-1.1-0.2-1-0.7c0-0.1,0.1-0.2,0.1-0.3c0.5-0.3,1.1-0.4,1.6-0.2
				c0.4,0.2,0.6-0.1,0.8-0.2c0.1-0.2,0.1-0.4,0-0.6c-0.1-0.2,0.2-0.3,0.4-0.4c0.4-0.2,0.7-0.4,1.1-0.7c0.7-0.2,1.5-0.2,2.2,0
				c0.5,0.3,1.1,0.1,1.4-0.3c0.3-0.3,0.6-0.6,1-0.9c0.2-0.1-0.5-0.8-1.1,0s-0.9,0.8-1.2,0.8s-1.9-0.4-2.1-0.9s0.5-0.9,1.1-1.2
				c0.9-0.2,1.8-0.3,2.7-0.4c0.9-0.2,2-0.6,2.5-0.2s-2.3,1-1.4,1.5c0.3,0.2,1.9-0.9,2.4-1.2c1.2-0.6-1.2-0.8-0.9-2.1
				c0.3-1.5-3-0.9-4.6-0.8c6.6-4.3,15.5-2.5,19.8,4.2c0.9,1.4,1.5,2.8,1.9,4.4c0,0.2,0,0.4-0.1,0.7c-0.2,0.5-0.7,0.7-1.2,0.5
				c-0.2-0.1-0.4-0.2-0.5-0.4c-0.2-0.2-0.8-0.8-0.7,0.2s1,1.1,0,1.7c-0.4,0.3-1,0.5-1.5,0.6c-0.5,0.4-0.8,1.1-0.7,1.7
				c0.1,0.5,1.4,2,0.4,2c-0.9-0.4-1.7-1.1-2.2-1.9c-0.3-0.8-0.6-1.6-0.9-2.2c-0.1-0.4-0.6-0.7-1.1-0.6c-0.1,0-0.2,0.1-0.3,0.2
				c-0.5,0.3,0.2,0.7-0.2,1.4s-0.6,1.4-1.2,0.8c-1.4-1.6-3.4-0.8-3.8-2.6c-0.2-1-1-0.9-1.7-1.4s-1.1-0.8-1.2-0.5s2.2,2.2,2.3,2.6
				c0.2,0.7-0.7,1.3-1.4,1.5s-1-0.4-1.6-1.1s-1-1.2-1-0.6c0.1,1,0.5,1.8,1.3,2.4c0.6,0.4,1.2,0.5,1,1.1s0,0.3-0.7,0.9
				c-0.6,0.4-0.8,1.1-0.7,1.7c0,0.9-0.2,0.9-0.3,1.7s-0.5,0.1-0.7,1.2 M61.8,53.4c0.5,0,1.2,0.6,0.9,0.9c-0.4,0.2-1,0.2-1.4-0.1
				C61,53.9,61.6,53.4,61.8,53.4 M61.2,53c-0.2-0.1-0.3-0.2-0.4-0.5s0.2-0.6,0.5-0.4c0.3,0.2,0.6,0.5,0.7,0.8
				C61.9,53.1,61.4,53.1,61.2,53 M54.9,53c-0.4,0.2-1,0.2-1.4-0.1c-0.4-0.3,0.2-0.7,0.4-0.8C54.4,52.1,55.2,52.7,54.9,53 M49,55.8
				c-0.2,0.3-0.7,2.7-1.1,2.5s0.1-2.8,0.2-3C48.7,54.2,50,54.2,49,55.8 M51,65.1c-1.4,0-2.7-0.2-4-0.6c-0.2-0.2-0.3-0.5-0.2-0.7
				c0.5-1,1.6-1.7,2.8-1.7c2.3-0.2,5.4,1.5,5.8,1.2s1.5-1.6,2.9-1.5c0.5,0,0.9,0.1,1.3,0.3C57.2,64.1,54.1,65.1,51,65.1 M61.1,60.9
				c-0.2,0-0.3-0.1-0.5-0.2c-0.8-0.4-0.7,0.2-1.1,0.1s0.4-1-0.7-0.3s-0.8-0.1-1.3-1.4c-0.3-1.3,0.3-2.6,1.5-3.1
				c0.8-0.3,1.7-0.5,2.6-0.7c1.7-0.5,2.1-1.5,2.4-0.8c0.1,0.1,0.1,0.2,0.2,0.3c0.1,0.3,0.2,0.6,0.2,0.9
				C63.7,57.8,62.5,59.5,61.1,60.9 M65,53.7c-0.4-0.1-2-2.3-0.7-3.8c0.2-0.2-0.4-1-0.2-1c0.7,0,1.1,0.4,1.2,1c0,0.3,0,0.5,0,0.8
				C65.3,51.7,65.2,52.7,65,53.7"/>
		</g>
	</g>
	<g>
		<path class="st1" d="M98.2,153.8h-95v-31.7h95V153.8z M4.2,152.8h93v-29.7h-93V152.8z"/>
	</g>
</g>
</svg>
