<?xml version="1.0" encoding="utf-8"?>
<!-- Generator: Adobe Illustrator 22.0.1, SVG Export Plug-In . SVG Version: 6.00 Build 0)  -->
<svg version="1.1" id="Layer_1" xmlns="http://www.w3.org/2000/svg" xmlns:xlink="http://www.w3.org/1999/xlink" x="0px" y="0px"
	 viewBox="0 0 101.5 175.2" style="enable-background:new 0 0 101.5 175.2;" xml:space="preserve">
<style type="text/css">
	.st0{fill:#FFFFFF;}
	.st1{fill:#3F7E44;}
	.st2{enable-background:new    ;}
</style>
<title>TARGET 1.1</title>
<g id="WHITE_BG">
	<g>
		<rect y="0" class="st0" width="101.5" height="175.2"/>
	</g>
</g>
<g id="TARGETS">
	<g>
		<g>
			<path class="st1" d="M11.1,130.3c0,1.2-0.7,2-2.4,2c-0.6,0-1.3-0.1-1.9-0.3v-1c0.6,0.3,1.2,0.4,1.8,0.4c1.1,0,1.5-0.5,1.5-1.1
				s-0.3-0.9-1.2-1c-1.6-0.2-2.2-0.6-2.2-1.8c0-0.9,0.5-1.8,2.3-1.8c0.6,0,1.2,0.1,1.7,0.3v1c-0.5-0.2-1.1-0.3-1.7-0.3
				c-1,0-1.3,0.4-1.3,1s0.4,0.8,1.2,0.9C10.3,128.7,11.1,129,11.1,130.3z"/>
		</g>
		<g>
			<path class="st1" d="M13.9,126.7v5.5H13v-5.5h-1.7v-0.9h4.3v0.9L13.9,126.7z"/>
		</g>
		<g>
			<path class="st1" d="M17.2,132.2h-1v-6.4h2.1c1.6,0,2.2,0.7,2.2,1.9c0.1,0.7-0.3,1.4-1,1.7l1.3,2.8h-1.1l-1.2-2.6h-1.3V132.2z
				 M17.2,128.7h1.3c0.9,0,1-0.5,1-1s-0.1-1-1-1h-1.3V128.7z"/>
		</g>
		<g>
			<path class="st1" d="M24.9,129.3h-2.6v2h2.9v0.9h-3.9v-6.4h3.9v0.9h-2.9v1.8h2.6V129.3z"/>
		</g>
		<g>
			<path class="st1" d="M29.7,132.2l-2.7-4.5v4.5h-1v-6.4h0.9l2.8,4.5v-4.5h1v6.4H29.7z"/>
		</g>
		<g>
			<path class="st1" d="M31.3,129c0-2,0.7-3.3,2.6-3.3c0.6,0,1.3,0.1,1.8,0.3v1c-0.5-0.2-1.1-0.4-1.7-0.4c-1.3,0-1.8,0.9-1.8,2.4
				c0,1.5,0.5,2.4,1.8,2.4c0.3,0,0.6,0,0.9-0.1v-1.7h-1.1v-0.9h2.1v3.2c-0.6,0.3-1.3,0.4-2,0.4C32,132.3,31.3,131,31.3,129z"/>
		</g>
		<g>
			<path class="st1" d="M39,126.7v5.5h-1v-5.5h-1.6v-0.9h4.3v0.9L39,126.7z"/>
		</g>
		<g>
			<path class="st1" d="M44.9,132.2v-2.9h-2.6v2.9h-1v-6.4h1v2.6h2.6v-2.6h1v6.4L44.9,132.2z"/>
		</g>
		<g>
			<path class="st1" d="M50.4,129.3h-2.6v2h2.9v0.9h-3.9v-6.4h3.9v0.9h-2.9v1.8h2.7L50.4,129.3z"/>
		</g>
		<g>
			<path class="st1" d="M55.2,132.2l-2.8-4.5v4.5h-0.9v-6.4h0.9l2.8,4.5v-4.5H56v6.4H55.2z"/>
		</g>
		<g>
			<path class="st1" d="M7.8,141.2h-1v-6.4H9c1.6,0,2.2,0.7,2.2,1.9c0.1,0.7-0.3,1.4-1,1.7l1.3,2.8h-1.2l-1.1-2.6H7.8V141.2z
				 M7.8,137.7h1.3c0.9,0,1-0.5,1-1s-0.1-1-1-1H7.8V137.7z"/>
		</g>
		<g>
			<path class="st1" d="M15.6,138.3h-2.7v2h2.9v0.9H12v-6.4h3.9v0.9h-3v1.8h2.6L15.6,138.3z"/>
		</g>
		<g>
			<path class="st1" d="M20.7,139.3c0,1.2-0.7,2-2.4,2c-0.6,0-1.3-0.1-1.9-0.4v-1c0.6,0.3,1.2,0.4,1.8,0.4c1.1,0,1.5-0.5,1.5-1.1
				s-0.3-0.9-1.1-1c-1.6-0.2-2.2-0.6-2.2-1.8c0-0.9,0.5-1.9,2.3-1.9c0.6,0,1.2,0.1,1.7,0.3v1c-0.5-0.2-1.1-0.3-1.7-0.3
				c-1,0-1.3,0.4-1.3,1s0.4,0.8,1.2,0.9C19.9,137.7,20.7,138,20.7,139.3z"/>
		</g>
		<g>
			<path class="st1" d="M21.5,141.2v-6.4h1v6.4H21.5z"/>
		</g>
		<g>
			<path class="st1" d="M24.5,140.3h2.8v0.9h-3.7v-6.4h1V140.3z"/>
		</g>
		<g>
			<path class="st1" d="M27.9,141.2v-6.4h1v6.4H27.9z"/>
		</g>
		<g>
			<path class="st1" d="M33.6,138.3h-2.6v2h2.9v0.9H30v-6.4h3.9v0.9h-2.9v1.8h2.6V138.3z"/>
		</g>
		<g>
			<path class="st1" d="M38.4,141.2l-2.8-4.5v4.5h-0.9v-6.4h0.9l2.8,4.5v-4.5h1v6.4H38.4z"/>
		</g>
		<g>
			<path class="st1" d="M42.6,134.7c0.5,0,1,0.1,1.5,0.3v0.9c-0.5-0.2-0.9-0.3-1.4-0.3c-1.2,0-1.7,0.8-1.7,2.4s0.5,2.4,1.7,2.4
				c0.5,0,1-0.1,1.4-0.3v0.9c-0.5,0.2-1,0.3-1.5,0.3c-1.9,0-2.6-1.2-2.6-3.3S40.7,134.7,42.6,134.7z"/>
		</g>
		<g>
			<path class="st1" d="M48.5,138.3h-2.6v2h2.9v0.9h-3.9v-6.4h3.9v0.9h-2.9v1.8h2.7L48.5,138.3z"/>
		</g>
		<g>
			<path class="st1" d="M54.2,139.6h-2l-0.5,1.6h-1l2-6.4h1l2,6.4h-1L54.2,139.6z M53.2,136l-0.8,2.8H54L53.2,136z"/>
		</g>
		<g>
			<path class="st1" d="M59.8,141.2l-2.8-4.5v4.5h-1v-6.4H57l2.8,4.5v-4.5h0.9v6.4H59.8z"/>
		</g>
		<g>
			<path class="st1" d="M61.7,141.2v-6.4h1.9c2.1,0,2.7,1.4,2.7,3.2s-0.6,3.2-2.7,3.2H61.7z M62.6,140.3h1c1.3,0,1.7-0.9,1.7-2.3
				s-0.4-2.3-1.7-2.3h-1L62.6,140.3z"/>
		</g>
		<g>
			<path class="st1" d="M10.1,148.6h-2l-0.4,1.6h-1l2-6.4h1l2,6.4h-1L10.1,148.6z M9.1,145l-0.8,2.8h1.6L9.1,145z"/>
		</g>
		<g>
			<path class="st1" d="M12.1,150.2v-6.4H14c2.1,0,2.7,1.4,2.7,3.2s-0.6,3.2-2.7,3.2H12.1z M13.1,149.3h1c1.3,0,1.7-0.9,1.7-2.3
				s-0.4-2.3-1.7-2.3h-1V149.3z"/>
		</g>
		<g>
			<path class="st1" d="M20.4,148.6h-2l-0.5,1.6h-1l2-6.4h1l2,6.4h-1L20.4,148.6z M19.4,145l-0.8,2.8h1.6L19.4,145z"/>
		</g>
		<g>
			<path class="st1" d="M23.4,150.2h-1v-6.4h2c1.6,0,2.2,1,2.2,2s-0.6,2-2.2,2h-1.1L23.4,150.2z M23.4,146.9h1.1
				c0.6,0,1.1-0.5,1.1-1.1c0-0.6-0.5-1.1-1.1-1.1h-1.1V146.9z"/>
		</g>
		<g>
			<path class="st1" d="M29.6,144.7v5.5h-1v-5.5H27v-0.9h4.3v0.9H29.6z"/>
		</g>
		<g>
			<path class="st1" d="M31.9,150.2v-6.4h1v6.4H31.9z"/>
		</g>
		<g>
			<path class="st1" d="M38.5,143.8l-2,6.5h-1l-2-6.5h1L36,149l1.5-5.2L38.5,143.8z"/>
		</g>
		<g>
			<path class="st1" d="M42.6,147.3H40v2h2.9v0.9H39v-6.4h3.9v0.9H40v1.8h2.7L42.6,147.3z"/>
		</g>
		<g>
			<path class="st1" d="M47.7,143.7c0.5,0,1,0.1,1.5,0.3v0.9c-0.5-0.2-0.9-0.3-1.4-0.3c-1.2,0-1.7,0.8-1.7,2.4s0.5,2.4,1.7,2.4
				c0.5,0,1-0.1,1.4-0.3v0.9c-0.5,0.2-1,0.3-1.5,0.3c-1.9,0-2.6-1.2-2.6-3.3S45.8,143.7,47.7,143.7z"/>
		</g>
		<g>
			<path class="st1" d="M53,148.6h-2l-0.5,1.6h-1l2-6.4h1l2,6.4h-1L53,148.6z M52,145l-0.8,2.8h1.6L52,145z"/>
		</g>
		<g>
			<path class="st1" d="M56,150.2h-1v-6.4h2c1.6,0,2.2,1,2.2,2s-0.6,2-2.2,2h-1V150.2z M56,147h1.1c0.6,0,1.1-0.5,1.1-1.1
				c0-0.6-0.5-1.1-1.1-1.1H56V147z"/>
		</g>
		<g>
			<path class="st1" d="M62.5,148.6h-2l-0.5,1.6h-1l2-6.4h1l2,6.4h-1L62.5,148.6z M61.5,145l-0.8,2.8h1.6L61.5,145z"/>
		</g>
		<g>
			<path class="st1" d="M66.8,143.7c0.5,0,1,0.1,1.5,0.3v0.9c-0.5-0.2-0.9-0.3-1.4-0.3c-1.2,0-1.7,0.8-1.7,2.4s0.5,2.4,1.7,2.4
				c0.5,0,1-0.1,1.4-0.3v0.9c-0.5,0.2-1,0.3-1.5,0.3c-1.9,0-2.6-1.2-2.6-3.3S65,143.7,66.8,143.7z"/>
		</g>
		<g>
			<path class="st1" d="M69.3,150.2v-6.4h1v6.4H69.3z"/>
		</g>
		<g>
			<path class="st1" d="M73.6,144.7v5.5h-0.9v-5.5H71v-0.9h4.3v0.9H73.6z"/>
		</g>
		<g>
			<path class="st1" d="M78.6,147.6v2.6h-1v-2.6l-2.2-3.8h1.1l1.6,3l1.6-3h1.1L78.6,147.6z"/>
		</g>
		<g>
			<path class="st1" d="M9.2,153.7v5.5h-1v-5.5H6.6v-0.9h4.3v0.9H9.2z"/>
		</g>
		<g>
			<path class="st1" d="M11.1,156c0-1.8,0.4-3.3,2.5-3.3s2.5,1.5,2.5,3.3s-0.4,3.3-2.4,3.3S11.1,157.8,11.1,156z M12.1,156
				c0,1.5,0.3,2.4,1.5,2.4s1.5-0.9,1.5-2.4s-0.3-2.4-1.5-2.4S12,154.5,12.1,156L12.1,156z"/>
		</g>
		<g>
			<path class="st1" d="M20.7,152.7c0.5,0,1,0.1,1.5,0.3v0.9c-0.5-0.2-0.9-0.3-1.4-0.3c-1.2,0-1.7,0.8-1.7,2.4s0.5,2.4,1.7,2.4
				c0.5,0,1-0.1,1.4-0.3v0.9c-0.5,0.2-1,0.3-1.5,0.3c-1.9,0-2.6-1.2-2.6-3.3S18.9,152.7,20.7,152.7z"/>
		</g>
		<g>
			<path class="st1" d="M24.1,158.3h2.8v0.9h-3.7v-6.4h1L24.1,158.3z"/>
		</g>
		<g>
			<path class="st1" d="M27.5,159.2v-6.4h1v6.4H27.5z"/>
		</g>
		<g>
			<path class="st1" d="M32.9,158.3H32l-1.6-3.9l0,4.8h-1v-6.4h1.2l1.7,4.4l1.7-4.4h1.2v6.4h-1v-4.8L32.9,158.3z"/>
		</g>
		<g>
			<path class="st1" d="M39.5,157.6h-2l-0.5,1.6h-1l2-6.4h1l2,6.4h-1L39.5,157.6z M38.5,154l-0.8,2.8h1.6L38.5,154z"/>
		</g>
		<g>
			<path class="st1" d="M43,153.7v5.5h-1v-5.5h-1.6v-0.9h4.3v0.9H43z"/>
		</g>
		<g>
			<path class="st1" d="M48.8,156.3h-2.6v2h2.9v0.9h-3.9v-6.4h3.9v0.9h-2.9v1.8h2.7L48.8,156.3z"/>
		</g>
		<g>
			<path class="st1" d="M52.2,159.2h-1v-6.4h2.1c1.7,0,2.2,0.8,2.2,1.9c0.1,0.7-0.3,1.4-1,1.7l1.3,2.8h-1.1l-1.2-2.6h-1.3V159.2z
				 M52.2,155.7h1.3c0.9,0,1-0.5,1-1s-0.1-1-1-1h-1.3V155.7z"/>
		</g>
		<g>
			<path class="st1" d="M60.1,156.3h-2.7v2h2.9v0.9h-3.9v-6.4h3.9v0.9h-2.9v1.8h2.7V156.3z"/>
		</g>
		<g>
			<path class="st1" d="M62.1,158.3h2.8v0.9h-3.7v-6.4h1V158.3z"/>
		</g>
		<g>
			<path class="st1" d="M68.6,157.6h-2l-0.4,1.6h-1l2-6.4h1l2,6.4h-1L68.6,157.6z M67.6,154l-0.8,2.8h1.6L67.6,154z"/>
		</g>
		<g>
			<path class="st1" d="M72.3,153.7v5.5h-1v-5.5h-1.6v-0.9h4.3v0.9H72.3z"/>
		</g>
		<g>
			<path class="st1" d="M78.1,156.3h-2.7v2h2.9v0.9h-3.9v-6.4h3.9v0.9h-2.9v1.8h2.7V156.3z"/>
		</g>
		<g>
			<path class="st1" d="M79.2,159.2v-6.4h1.9c2.1,0,2.7,1.4,2.7,3.2s-0.6,3.2-2.7,3.2H79.2z M80.2,158.3h1c1.3,0,1.7-0.9,1.7-2.3
				s-0.4-2.3-1.7-2.3h-1V158.3z"/>
		</g>
		<g>
			<path class="st1" d="M6.9,168.2v-6.4h1.9c2.1,0,2.7,1.4,2.7,3.2s-0.6,3.2-2.7,3.2H6.9z M7.9,167.3h1c1.3,0,1.7-0.9,1.7-2.3
				s-0.4-2.3-1.7-2.3h-1L7.9,167.3z"/>
		</g>
		<g>
			<path class="st1" d="M12.3,168.2v-6.4h0.9v6.4H12.3z"/>
		</g>
		<g>
			<path class="st1" d="M18.5,166.3c0,1.2-0.7,2-2.4,2c-0.6,0-1.3-0.1-1.9-0.4v-1c0.6,0.3,1.2,0.4,1.8,0.4c1.1,0,1.5-0.5,1.5-1.1
				s-0.3-0.9-1.2-1c-1.6-0.2-2.2-0.6-2.2-1.8c0-0.9,0.5-1.9,2.3-1.9c0.6,0,1.2,0.1,1.7,0.3v1c-0.5-0.2-1.1-0.3-1.7-0.3
				c-1,0-1.3,0.4-1.3,1s0.4,0.8,1.2,0.9C17.8,164.7,18.5,165,18.5,166.3z"/>
		</g>
		<g>
			<path class="st1" d="M22.3,166.6h-2l-0.5,1.6h-1l2-6.4h1l2,6.4h-1L22.3,166.6z M21.3,163l-0.8,2.8h1.6L21.3,163z"/>
		</g>
		<g>
			<path class="st1" d="M28.3,166.3c0,1.2-0.7,2-2.4,2c-0.6,0-1.3-0.1-1.9-0.3v-1c0.6,0.3,1.2,0.4,1.8,0.4c1.1,0,1.5-0.5,1.5-1.1
				s-0.3-0.9-1.2-1c-1.5-0.2-2.1-0.6-2.1-1.8c0-0.9,0.5-1.9,2.3-1.9c0.6,0,1.2,0.1,1.7,0.3v1c-0.5-0.2-1.1-0.3-1.7-0.3
				c-1,0-1.3,0.4-1.3,1s0.4,0.8,1.2,0.9C27.5,164.7,28.3,165,28.3,166.3z"/>
		</g>
		<g>
			<path class="st1" d="M31.1,162.7v5.5h-0.9v-5.5h-1.7v-0.9h4.3v0.9H31.1z"/>
		</g>
		<g>
			<path class="st1" d="M37,165.3h-2.7v2h2.9v0.9h-3.9v-6.4h3.9v0.9h-2.9v1.8H37V165.3z"/>
		</g>
		<g>
			<path class="st1" d="M39,168.2h-1v-6.4h2.1c1.7,0,2.2,0.7,2.2,1.9c0.1,0.7-0.3,1.4-1,1.7l1.3,2.8h-1.1l-1.2-2.6H39V168.2z
				 M39,164.7h1.3c0.9,0,1-0.5,1-1s-0.1-1-1-1H39V164.7z"/>
		</g>
		<g>
			<path class="st1" d="M47.3,166.3c0,1.2-0.7,2-2.4,2c-0.6,0-1.3-0.1-1.9-0.3v-1c0.6,0.3,1.2,0.4,1.8,0.4c1.1,0,1.5-0.5,1.5-1.1
				s-0.3-0.9-1.2-1c-1.6-0.2-2.2-0.6-2.2-1.8c0-0.9,0.5-1.9,2.3-1.9c0.6,0,1.2,0.1,1.7,0.3v1c-0.5-0.2-1.1-0.3-1.7-0.3
				c-1,0-1.3,0.4-1.3,1s0.4,0.8,1.2,0.9C46.5,164.7,47.3,165,47.3,166.3z"/>
		</g>
	</g>
	<g>
		<rect x="3.3" y="24" class="st1" width="94.8" height="94.8"/>
	</g>
	<g>
		<path class="st1" d="M98.2,20.7H3.3V3.3h94.8V20.7z M4.3,19.7h92.8V4.3H4.3L4.3,19.7z"/>
	</g>
	<g class="st2">
		<path class="st1" d="M6.7,6.9h4.5v1.4H9.9v8.8H8.1V8.3H6.7V6.9z"/>
	</g>
	<g class="st2">
		<path class="st1" d="M11.2,17.1l1.9-10.2h1.9L17,17.1h-1.8l-0.3-1.9h-1.8l-0.3,1.9H11.2z M13.3,13.9h1.4L14,9.8h0L13.3,13.9z"/>
	</g>
	<g class="st2">
		<path class="st1" d="M19.6,12.4v4.7h-1.7V6.9h2.5c1.7,0,2.4,0.9,2.4,2.3v1.3c0,1.1-0.4,1.7-1.4,2l1.6,4.6h-1.8L19.6,12.4z
			 M19.6,8.3v3.2h0.6c0.6,0,0.8-0.3,0.8-0.8V9.2c0-0.6-0.3-0.8-0.8-0.8H19.6z"/>
	</g>
	<g class="st2">
		<path class="st1" d="M26.4,11.7h2.4v5.4h-1.2V16c-0.2,0.8-0.7,1.2-1.6,1.2c-1.5,0-2.1-1.2-2.1-2.7V9.6c0-1.6,0.8-2.7,2.6-2.7
			c1.9,0,2.4,1.1,2.4,2.6v0.9h-1.6v-1c0-0.6-0.2-1-0.9-1c-0.6,0-0.9,0.4-0.9,1v5.5c0,0.6,0.3,1,0.8,1c0.6,0,0.8-0.3,0.8-1V13h-0.8
			V11.7z"/>
	</g>
	<g class="st2">
		<path class="st1" d="M30.2,6.9h4.1v1.4h-2.4v2.9h1.7v1.4h-1.7v3.1h2.4v1.4h-4.1V6.9z"/>
	</g>
	<g class="st2">
		<path class="st1" d="M35.1,6.9h4.5v1.4h-1.4v8.8h-1.7V8.3h-1.4V6.9z"/>
	</g>
	<g class="st2">
		<path class="st1" d="M79.6,6.9v10.2h-1.7V9.3h0l-1.2,1.2h0V8.8l1.6-1.8H79.6z"/>
		<path class="st1" d="M85.7,9.1V10c0,0.9-0.5,1.4-1.2,1.7c0.9,0.2,1.3,0.8,1.3,1.7v1.5c0,1.4-0.8,2.3-2.5,2.3c-1.7,0-2.4-1-2.4-2.5
			v-1.3h1.6v1.5c0,0.6,0.2,1,0.8,1c0.5,0,0.8-0.4,0.8-0.9v-1.7c0-0.5-0.2-0.8-0.8-0.8h-0.7v-1.3h0.6c0.6,0,0.9-0.3,0.9-0.8V9.2
			c0-0.6-0.2-0.9-0.7-0.9s-0.7,0.4-0.7,1v1h-1.6V9.4c0-1.5,0.6-2.6,2.4-2.6C85,6.8,85.7,7.7,85.7,9.1z"/>
	</g>
	<g class="st2">
	</g>
	<g class="st2">
		<path class="st1" d="M88.6,10.8c0.7,0,1.2,0.6,1.2,1.2c0,0.7-0.6,1.2-1.2,1.2c-0.7,0-1.2-0.6-1.2-1.2
			C87.4,11.4,87.9,10.8,88.6,10.8z"/>
	</g>
	<g class="st2">
		<path class="st1" d="M94.1,6.9v10.2h-1.7V9.3h0l-1.2,1.2h0V8.8l1.6-1.8H94.1z"/>
	</g>
	<g>
		<g>
			<g>
				<path class="st0" d="M59.3,72.4h1.6v4.3c0,0.1,0.1,0.2,0.1,0.2h0h2c0.1,0,0.2-0.1,0.2-0.2l0,0v-4.4h3.2c2.1,0,3.8-1.7,3.8-3.8
					c0-1-0.4-1.9-1.1-2.6c1.7-1,2.3-3.1,1.3-4.8c-0.6-1.1-1.8-1.8-3.1-1.8h-0.2c-0.2-2.6-2.4-4.6-5.1-4.5c-2.5,0.2-4.5,2.3-4.5,4.8
					c0,0.7,0.2,1.4,0.5,2.1c-2.9,0.6-4.7,3.5-4.1,6.4C54.5,70.7,56.7,72.4,59.3,72.4L59.3,72.4z"/>
			</g>
			<g>
				<path class="st0" d="M52.8,79.2c0,0.5,0.4,0.9,0.9,0.9s0.9-0.4,0.9-0.9s-0.4-0.9-0.9-0.9c0,0,0,0,0,0
					C53.2,78.3,52.8,78.7,52.8,79.2z"/>
			</g>
			<g>
				<path class="st0" d="M57,79.2c-0.1,0.5,0.3,1,0.8,1c0.5,0.1,1-0.3,1-0.8c0-0.1,0-0.1,0-0.2c-0.1-0.5-0.5-0.9-1-0.8
					C57.4,78.4,57,78.8,57,79.2z"/>
			</g>
			<g>
				<path class="st0" d="M61.2,79.2c0,0.5,0.4,0.9,0.9,0.9s0.9-0.4,0.9-0.9s-0.4-0.9-0.9-0.9c0,0,0,0,0,0
					C61.6,78.3,61.2,78.7,61.2,79.2z"/>
			</g>
			<g>
				<path class="st0" d="M66.3,80.1c0.5,0.1,1-0.3,1-0.8c0.1-0.5-0.3-1-0.8-1c-0.1,0-0.1,0-0.2,0c-0.5,0.1-0.9,0.5-0.8,1
					C65.5,79.7,65.8,80.1,66.3,80.1z"/>
			</g>
			<g>
				<path class="st0" d="M69.5,79.2c0,0.5,0.4,0.9,0.9,0.9s0.9-0.4,0.9-0.9s-0.4-0.9-0.9-0.9c0,0,0,0,0,0
					C69.9,78.3,69.5,78.7,69.5,79.2z"/>
			</g>
			<g>
				<path class="st0" d="M54.7,76c0.1,0.5,0.5,0.9,1,0.8c0.4,0,0.8-0.4,0.8-0.8c0.1-0.5-0.3-1-0.8-1c-0.5-0.1-1,0.3-1,0.8
					C54.7,75.9,54.7,75.9,54.7,76z"/>
			</g>
			<g>
				<path class="st0" d="M68.7,76.9c0.5-0.1,0.9-0.5,0.8-1c0-0.4-0.4-0.8-0.8-0.8c-0.5-0.1-1,0.3-1,0.8c-0.1,0.5,0.3,1,0.8,1
					C68.6,76.9,68.6,76.9,68.7,76.9z"/>
			</g>
		</g>
		<g>
			<path class="st0" d="M39.6,42L28,47.2l-1.1-0.4l2.1-0.9l3.1-3l-0.6-0.8l-7.4-4.4l9-0.5l2.3,3.2l3.1-0.6c0,0,2.7,1.7,2.2,2.8
				C40.4,42.1,39.6,42,39.6,42z"/>
		</g>
		<g>
			<g>
				<path class="st0" d="M76.5,58.9v21.2c0,0.2,0.2,0.3,0.3,0.3h7.8v-0.3l0,0v-7.6c0-0.2,0.2-0.4,0.4-0.4h3.9c0.2,0,0.4,0.2,0.4,0.4
					v7.9h1.3c0.2,0,0.3-0.2,0.3-0.3V41.5c0-0.2-0.2-0.4-0.4-0.4c-0.1,0-0.1,0-0.2,0.1l0,0l-0.1,0.2L87,45.5l-0.6,0.8L82,51.9
					l-3.5,4.4l-1.8,2.2l-0.1,0.1C76.5,58.7,76.5,58.8,76.5,58.9z M89.3,51c0,0.2-0.2,0.4-0.4,0.4h-3.4c-0.2,0-0.4-0.2-0.4-0.4
					c0-0.1,0-0.2,0.1-0.2l0.1-0.1c0.9-1.2,2.5-3.1,3.2-4l0.1-0.1c0.1-0.1,0.2-0.1,0.3-0.1c0.2,0,0.3,0.1,0.4,0.3V51z M84.5,67.5
					c0-0.2,0.2-0.3,0.3-0.3H89c0.2,0,0.3,0.2,0.3,0.3v2.6c0,0.2-0.2,0.3-0.3,0.3h-4.1c-0.2,0-0.3-0.2-0.3-0.3L84.5,67.5z M84.5,62.7
					c0-0.2,0.2-0.3,0.3-0.3H89c0.2,0,0.3,0.2,0.3,0.3v2.6c0,0.2-0.2,0.3-0.3,0.3h-4.1c-0.2,0-0.3-0.1-0.3-0.3L84.5,62.7z M84.5,58
					c0-0.2,0.2-0.3,0.3-0.3H89c0.2,0,0.3,0.1,0.3,0.3v2.6c0,0.2-0.2,0.3-0.3,0.3h-4.1c-0.2,0-0.3-0.1-0.3-0.3L84.5,58z M84.5,53.2
					c0-0.2,0.2-0.3,0.3-0.3H89c0.2,0,0.3,0.2,0.3,0.3v2.6c0,0.2-0.2,0.3-0.3,0.3h-4.1c-0.2,0-0.3-0.2-0.3-0.3L84.5,53.2z M83,60.6
					c0,0.2-0.1,0.3-0.3,0.3h-4.1c-0.2,0-0.3-0.2-0.3-0.3v-0.7c0,0,0-0.1,0-0.1l0,0l0,0v-0.1c0.5-0.8,2.9-3.7,3.9-4.9l0.1-0.1
					c0.1-0.1,0.2-0.1,0.3-0.1c0.2,0,0.3,0.1,0.4,0.3L83,60.6z M78.5,62.4h4.2c0.2,0,0.3,0.2,0.3,0.3v2.6c0,0.2-0.1,0.3-0.3,0.3l0,0
					h-4.1c-0.2,0-0.3-0.1-0.3-0.3l0,0v-2.6C78.2,62.6,78.4,62.4,78.5,62.4L78.5,62.4z M83,70.1c0,0.2-0.1,0.3-0.3,0.3h-4.1
					c-0.2,0-0.3-0.2-0.3-0.3v-2.6c0-0.2,0.1-0.3,0.3-0.3h4.1c0.2,0,0.3,0.2,0.3,0.3L83,70.1z M78.2,72.4c0-0.2,0.2-0.4,0.4-0.4h4
					c0.2,0,0.4,0.2,0.4,0.4v2.4c0,0.2-0.2,0.4-0.4,0.4h-4c-0.2,0-0.4-0.2-0.4-0.4V72.4z"/>
			</g>
			<g>
				<path class="st0" d="M77.1,56.8L77,56.6c-0.1-0.1-0.1-0.3,0-0.4l10.3-13c0.1-0.1,0.3-0.1,0.4,0l0.1,0.1c0.1,0.1,0.1,0.3,0,0.4
					l-10.3,13C77.4,56.8,77.2,56.9,77.1,56.8z"/>
			</g>
		</g>
		<g>
			<g>
				<g>
					<path class="st0" d="M58.2,35.4c-1.8,1.1-2.4,3.4-1.3,5.2s3.4,2.4,5.2,1.3c1.8-1.1,2.4-3.4,1.3-5.2
						C62.3,34.9,59.9,34.3,58.2,35.4z"/>
				</g>
				<g>
					<path class="st0" d="M63.5,43.9l-0.8-1.4c-0.1-0.1-0.3-0.2-0.4-0.1c-0.1,0.1-0.2,0.3-0.1,0.4l0.9,1.4c0.1,0.1,0.3,0.2,0.4,0.1
						C63.5,44.2,63.6,44,63.5,43.9z"/>
				</g>
				<g>
					<path class="st0" d="M57.8,34.9c0.2-0.1,0.2-0.3,0.2-0.4c0,0,0,0,0,0l-0.8-1.4c-0.1-0.1-0.3-0.2-0.4-0.1
						c-0.1,0.1-0.1,0.2-0.1,0.4l0.8,1.4C57.6,34.9,57.7,35,57.8,34.9z"/>
				</g>
				<g>
					<path class="st0" d="M56.3,40.8c-0.1-0.1-0.3-0.2-0.4-0.1l-1.4,0.8c-0.1,0.1-0.2,0.3-0.1,0.4c0.1,0.1,0.3,0.2,0.4,0.1l1.4-0.8
						C56.4,41.2,56.4,41,56.3,40.8z"/>
				</g>
				<g>
					<path class="st0" d="M63.8,36.4c0.1,0.1,0.3,0.2,0.4,0.1l1.4-0.8c0.1-0.1,0.2-0.3,0.1-0.4c-0.1-0.1-0.3-0.2-0.4-0.1L63.9,36
						C63.7,36.1,63.7,36.3,63.8,36.4z"/>
				</g>
				<g>
					<path class="st0" d="M60.4,44.9v-1.7c0-0.2-0.1-0.3-0.3-0.3c-0.2,0-0.3,0.1-0.3,0.3v1.7c0,0.2,0.2,0.3,0.3,0.3
						C60.3,45.2,60.4,45.1,60.4,44.9z"/>
				</g>
				<g>
					<path class="st0" d="M60.3,34v-1.7c0-0.2-0.1-0.3-0.3-0.3c-0.2,0-0.3,0.1-0.3,0.3V34c0,0.2,0.2,0.3,0.3,0.3
						C60.1,34.3,60.3,34.2,60.3,34z"/>
				</g>
				<g>
					<path class="st0" d="M55.7,38.7c0-0.2-0.1-0.3-0.3-0.3h-1.7c-0.2,0-0.3,0.1-0.3,0.3c0,0.2,0.1,0.3,0.3,0.3h1.7
						C55.6,39,55.7,38.9,55.7,38.7z"/>
				</g>
				<g>
					<path class="st0" d="M64.7,38.9h1.7c0.2,0,0.3-0.1,0.3-0.3c0-0.2-0.1-0.3-0.3-0.3h-1.7c-0.2,0-0.3,0.1-0.3,0.3
						C64.4,38.8,64.5,38.9,64.7,38.9z"/>
				</g>
				<g>
					<path class="st0" d="M58,42.8c0.1-0.1,0-0.3-0.1-0.4c-0.1-0.1-0.3,0-0.4,0.1L56.7,44c-0.1,0.2,0,0.3,0.1,0.4
						c0.1,0.1,0.3,0,0.4-0.1L58,42.8z"/>
				</g>
				<g>
					<path class="st0" d="M63.4,33.3c0.1-0.1,0-0.3-0.1-0.4c-0.1-0.1-0.3,0-0.4,0.1l0,0l-0.8,1.4c-0.1,0.1,0,0.3,0.1,0.4
						c0.1,0.1,0.3,0,0.4-0.1L63.4,33.3z"/>
				</g>
				<g>
					<path class="st0" d="M56.2,36.1l-1.4-0.8c-0.1-0.1-0.3,0-0.4,0.1c-0.1,0.1,0,0.3,0.1,0.4l1.4,0.8c0.1,0.1,0.3,0,0.4-0.1
						C56.4,36.4,56.3,36.2,56.2,36.1z"/>
				</g>
				<g>
					<path class="st0" d="M63.9,41.2l1.4,0.8c0.1,0.1,0.3,0,0.4-0.1c0.1-0.1,0-0.3-0.1-0.4l-1.4-0.8c-0.1-0.1-0.3,0-0.4,0.1
						C63.7,40.9,63.8,41.1,63.9,41.2z"/>
				</g>
			</g>
			<g>
				<path class="st0" d="M80.4,45.7L77.5,43l1-1.1l-4-0.9l1.2,3.9l1-1.1l2.9,2.7c0.2,0.2,0.5,0.2,0.7,0c0,0,0,0,0,0
					C80.5,46.3,80.6,46,80.4,45.7z"/>
			</g>
			<g>
				<path class="st0" d="M71.2,45.7l2.8,2.7l-1,1.1l4,1l-1.2-4l-1,1.1l-2.9-2.7c-0.2-0.2-0.5-0.2-0.7,0c0,0,0,0,0,0
					C71,45.1,70.9,45.4,71.2,45.7C71.1,45.6,71.1,45.7,71.2,45.7z"/>
			</g>
		</g>
		<g>
			<g>
				<g>
					<path class="st0" d="M29.6,61.4c0-1-0.8-1.8-1.8-1.8s-1.8,0.8-1.8,1.8s0.8,1.8,1.8,1.8c0,0,0,0,0,0
						C28.8,63.2,29.6,62.4,29.6,61.4z"/>
				</g>
				<g>
					<path class="st0" d="M29.9,63.8h-4.1c-1.2,0.1-2.1,1.1-2.1,2.4v4.9c0,0.4,0.3,0.7,0.7,0.7c0,0,0,0,0,0c0.4,0,0.7-0.3,0.7-0.7
						l0,0v-4.2c0-0.2,0-0.4,0.3-0.4s0.2,0.2,0.2,0.3v12.6c0,0.6,0.4,1,1,1s1-0.4,1-1v-7.3c0-0.1,0.1-0.3,0.2-0.3c0,0,0,0,0.1,0l0,0
						c0.1,0,0.3,0.1,0.3,0.3c0,0,0,0,0,0v7.3c0,0.6,0.4,1,1,1s1-0.4,1-1V66.8c0-0.1,0-0.3,0.2-0.3s0.3,0.2,0.3,0.4v4.2
						c0,0.4,0.2,0.7,0.6,0.8c0.4,0,0.7-0.2,0.8-0.6c0-0.1,0-0.1,0-0.2v-4.9C32.1,64.9,31.2,63.9,29.9,63.8z"/>
				</g>
			</g>
			<g>
				<g>
					<path class="st0" d="M42.6,61.7c0,1,0.7,1.8,1.7,1.8c1,0,1.8-0.7,1.8-1.7c0-1-0.7-1.8-1.7-1.8c0,0,0,0,0,0
						C43.4,60,42.6,60.7,42.6,61.7z"/>
				</g>
				<g>
					<path class="st0" d="M47.8,65.6c0,0-0.5-1.4-1.7-1.4h-3.7c-1.1,0-1.7,1.4-1.7,1.4l-1.4,4.7c0,0-0.3,0.9,0.5,1.1
						s0.9-0.6,0.9-0.6l1.2-3.9c0,0,0.1-0.3,0.3-0.2s0.1,0.4,0.1,0.4l-2,7.3h1.9v5.2c0,0.5,0.4,0.9,0.9,0.9c0.5,0,0.9-0.4,0.9-0.9
						c0,0,0,0,0,0v-5.2h0.5v5.2c0,0.5,0.4,0.9,0.9,0.9c0.5,0,0.9-0.4,0.9-0.9c0,0,0,0,0,0v-5.2h1.9l-2-7.3c0,0-0.1-0.3,0.1-0.4
						s0.3,0.2,0.3,0.2l1.2,3.9c0,0,0.2,0.8,0.9,0.6s0.5-1.1,0.5-1.1L47.8,65.6z"/>
				</g>
			</g>
			<g>
				<g>
					<path class="st0" d="M38.5,71.4c-0.2-0.1-0.5,0-0.7,0.2c-0.2,0.4-0.5,0.9-0.8,1.3C36.9,73,36.8,73,36.6,73H35
						c-0.2,0-0.3-0.1-0.4-0.2c-0.2-0.2-0.8-1.3-0.8-1.3c-0.1-0.1-0.2-0.2-0.4-0.2c-0.3,0-0.5,0.2-0.5,0.5c0,0.1,0,0.1,0,0.2l1.3,2.4
						c0,0.1,0.1,0.2,0.1,0.3V75l0,0c0,0.1,0,0.3-0.1,0.4l-0.6,2.5h0.7v1.8l0,0c0,0.4,0.3,0.6,0.6,0.6s0.6-0.3,0.6-0.6V78
						c0,0,0,0,0-0.1H36c0,0,0,0,0,0.1v1.8c0,0.4,0.4,0.6,0.7,0.6c0.3,0,0.5-0.3,0.6-0.6v-1.8H38l-0.6-2.5c0-0.1,0-0.2,0-0.3V75l0,0
						v-0.3c0-0.1,0-0.2,0.1-0.3l1.2-2.2l0.1-0.2C38.8,71.7,38.7,71.5,38.5,71.4C38.5,71.4,38.5,71.4,38.5,71.4z"/>
				</g>
				<g>
					<path class="st0" d="M35.8,72.2c0.7,0,1.3-0.6,1.3-1.3c0-0.7-0.6-1.3-1.3-1.3c-0.7,0-1.3,0.6-1.3,1.3S35.1,72.2,35.8,72.2
						C35.8,72.2,35.8,72.2,35.8,72.2z"/>
				</g>
			</g>
			<g>
				<g>
					<path class="st0" d="M16,62.2c0.1,1,0.9,1.7,1.9,1.6c0.9-0.1,1.5-0.7,1.6-1.6c0-0.6-0.3-1.2-0.9-1.5c0.1-0.1,0.1-0.2,0.1-0.3
						c-0.1-0.5-0.6-0.8-1.1-0.6c-0.3,0.1-0.6,0.3-0.6,0.6c0,0.1,0,0.2,0.1,0.3C16.4,61,16,61.6,16,62.2z"/>
				</g>
				<g>
					<path class="st0" d="M21.2,65.6c0,0-0.5-1.3-1.6-1.3h-3.7c-1.1,0-1.6,1.3-1.6,1.3l-1.4,4.7c0,0-0.2,0.7,0.3,1v0.1l-1.7,8.8
						c0,0.1,0.1,0.3,0.2,0.3c0,0,0,0,0,0l0,0c0.1,0,0.3,0,0.3-0.2c0,0,0,0,0,0l1.7-8.8v-0.1c0.4-0.1,0.6-0.6,0.6-0.6l1.2-3.9
						c0,0,0.1-0.3,0.3-0.2s0.1,0.4,0.1,0.4l-2,7.3h1.8v5.2c0,0.5,0.4,0.9,0.9,0.9c0.5,0,0.9-0.4,0.9-0.9v-5.2H18v5.2
						c0.1,0.5,0.5,0.9,1,0.8c0.4,0,0.8-0.4,0.8-0.8v-5.2h1.9l-2-7.3c0,0-0.1-0.3,0.1-0.4s0.3,0.2,0.3,0.2l1.2,3.9
						c0,0,0.2,0.8,0.9,0.6s0.5-1.1,0.5-1.1L21.2,65.6z"/>
				</g>
			</g>
		</g>
		<g>
			<g>
				<rect x="10.5" y="83.5" class="st0" width="18.8" height="5.6"/>
			</g>
			<g>
				<rect x="31" y="83.5" class="st0" width="18.8" height="5.6"/>
			</g>
			<g>
				<rect x="51.6" y="83.5" class="st0" width="18.8" height="5.6"/>
			</g>
			<g>
				<rect x="72.2" y="83.5" class="st0" width="18.8" height="5.6"/>
			</g>
			<g>
				<rect x="10.6" y="91.4" class="st0" width="80.5" height="5.6"/>
			</g>
		</g>
	</g>
	<g>
		<path class="st1" d="M98.2,171.9h-95v-49.7h95V171.9z M4.2,170.9h93v-47.7h-93V170.9z"/>
	</g>
	<g>
		<path d="M90.7,103.3h-0.1l-0.2,0.1c-2.5,1.3-10.4,4.3-17.5-2.5c-0.1-0.1-0.3-0.2-0.4-0.2s-0.2,0.1-0.4,0.2
			c-2.1,1.6-11.9,8.2-20.6,0.1l-0.1-0.1c-0.1-0.1-0.2-0.1-0.3-0.1c-0.1,0-0.2,0-0.3,0.1l-0.1,0.1c-8.7,8.1-18.4,1.5-20.6-0.1
			c-0.1-0.1-0.2-0.2-0.4-0.2c-0.2,0-0.3,0.1-0.4,0.2c-7.1,6.8-15,3.7-17.5,2.5l-0.2-0.1h-0.1c-0.3,0-0.5,0.2-0.5,0.5v3.4
			c0,0.1,0,0.3,0.1,0.3c8.2,7.2,16.1,0.5,17.9-1.3c0.1-0.1,0.1-0.1,0.2-0.2c0.1,0,0.1-0.1,0.2-0.1c0.1,0,0.3,0.1,0.4,0.2
			c9.3,8.9,19.1,1.7,21.1,0l0.2-0.2c0,0,0.1-0.1,0.2-0.1c0.1,0,0.1,0,0.2,0.1l0.2,0.2c2,1.7,11.8,8.9,21.1,0l0,0
			c0.2-0.2,0.4-0.2,0.6,0c0.1,0,0.1,0.1,0.1,0.1c1.8,1.8,9.6,8.5,17.8,1.3c0.1-0.1,0.1-0.2,0.2-0.3v-3.5
			C91.1,103.5,90.9,103.3,90.7,103.3"/>
	</g>
</g>
</svg>
