<?xml version="1.0" encoding="utf-8"?>
<!-- Generator: Adobe Illustrator 22.0.1, SVG Export Plug-In . SVG Version: 6.00 Build 0)  -->
<svg version="1.1" id="Layer_1" xmlns="http://www.w3.org/2000/svg" xmlns:xlink="http://www.w3.org/1999/xlink" x="0px" y="0px"
	 viewBox="0 0 101.5 166.3" style="enable-background:new 0 0 101.5 166.3;" xml:space="preserve">
<style type="text/css">
	.st0{fill:#FFFFFF;}
	.st1{fill:#3F7E44;}
	.st2{enable-background:new    ;}
</style>
<title>TARGET 1.2</title>
<g id="WHITE_BG">
	<g>
		<rect y="0" class="st0" width="101.5" height="166.2"/>
	</g>
</g>
<g id="TARGETS">
	<g>
		<g>
			<path class="st1" d="M7,132.2v-6.4h1v6.4H7z"/>
		</g>
		<g>
			<path class="st1" d="M12.8,132.2l-2.8-4.5v4.5H9.1v-6.4h0.9l2.8,4.5v-4.5h0.9v6.4H12.8z"/>
		</g>
		<g>
			<path class="st1" d="M16.8,126.7v5.5h-1v-5.5h-1.6v-0.9h4.3v0.9L16.8,126.7z"/>
		</g>
		<g>
			<path class="st1" d="M22.6,129.3h-2.6v2h2.9v0.9H19v-6.4h3.9v0.9h-3v1.8h2.6V129.3z"/>
		</g>
		<g>
			<path class="st1" d="M23.5,129c0-2,0.7-3.3,2.6-3.3c0.6,0,1.3,0.1,1.8,0.3v1c-0.5-0.2-1.1-0.4-1.7-0.4c-1.3,0-1.8,0.9-1.8,2.4
				s0.5,2.4,1.8,2.4c0.3,0,0.6,0,0.9-0.1v-1.7H26v-0.9h2.1v3.2c-0.6,0.3-1.3,0.4-2,0.4C24.2,132.3,23.5,131,23.5,129z"/>
		</g>
		<g>
			<path class="st1" d="M30,132.2h-1v-6.4h2.1c1.7,0,2.2,0.7,2.2,1.9c0.1,0.7-0.3,1.4-1,1.7l1.3,2.8h-1.2l-1.2-2.6H30V132.2z
				 M30,128.7h1.3c0.9,0,1-0.5,1-1s-0.1-1-1-1H30V128.7z"/>
		</g>
		<g>
			<path class="st1" d="M37.3,130.6h-2l-0.5,1.6h-1l2-6.4h1l2,6.4h-1L37.3,130.6z M36.3,127l-0.8,2.8h1.6L36.3,127z"/>
		</g>
		<g>
			<path class="st1" d="M40.8,126.7v5.5h-1v-5.5h-1.7v-0.9h4.3v0.9L40.8,126.7z"/>
		</g>
		<g>
			<path class="st1" d="M46.6,129.3H44v2h2.9v0.9H43v-6.4h3.9v0.9H44v1.8h2.6V129.3z"/>
		</g>
		<g>
			<path class="st1" d="M51.6,125.7c0.5,0,1,0.1,1.5,0.3v0.9c-0.5-0.2-0.9-0.3-1.4-0.3c-1.2,0-1.7,0.8-1.7,2.4
				c0,1.6,0.5,2.4,1.7,2.4c0.5,0,1-0.1,1.4-0.3v0.9c-0.5,0.2-1,0.3-1.5,0.3c-1.9,0-2.6-1.2-2.6-3.3S49.7,125.7,51.6,125.7z"/>
		</g>
		<g>
			<path class="st1" d="M54.9,131.3h2.8v0.9H54v-6.4h1L54.9,131.3z"/>
		</g>
		<g>
			<path class="st1" d="M58.3,132.2v-6.4h1v6.4H58.3z"/>
		</g>
		<g>
			<path class="st1" d="M63.8,131.3h-0.9l-1.6-3.9l0,4.8h-1v-6.4h1.2l1.7,4.3l1.7-4.3h1.2v6.4h-1v-4.8L63.8,131.3z"/>
		</g>
		<g>
			<path class="st1" d="M70.3,130.6h-2l-0.4,1.6h-1l2-6.4h1l2,6.4h-1L70.3,130.6z M69.3,127l-0.8,2.8h1.6L69.3,127z"/>
		</g>
		<g>
			<path class="st1" d="M73.9,126.7v5.5h-1v-5.5h-1.6v-0.9h4.3v0.9L73.9,126.7z"/>
		</g>
		<g>
			<path class="st1" d="M79.7,129.3H77v2h2.9v0.9h-3.9v-6.4h3.9v0.9H77v1.8h2.7L79.7,129.3z"/>
		</g>
		<g>
			<path class="st1" d="M9.4,134.7c0.5,0,1,0.1,1.5,0.3v0.9c-0.5-0.2-0.9-0.3-1.4-0.3c-1.2,0-1.7,0.8-1.7,2.4s0.5,2.4,1.7,2.4
				c0.5,0,1-0.1,1.4-0.3v0.9c-0.5,0.2-1,0.3-1.5,0.3c-1.9,0-2.6-1.2-2.6-3.3S7.5,134.7,9.4,134.7z"/>
		</g>
		<g>
			<path class="st1" d="M15.3,141.2v-2.9h-2.6v2.9h-1v-6.4h1v2.6h2.6v-2.6h1v6.4H15.3z"/>
		</g>
		<g>
			<path class="st1" d="M20.3,139.6h-2l-0.5,1.6h-1l2-6.4h1l2,6.4h-1L20.3,139.6z M19.3,136l-0.8,2.8h1.6L19.3,136z"/>
		</g>
		<g>
			<path class="st1" d="M26,141.2l-2.8-4.5v4.5h-1v-6.4h0.9l2.9,4.5v-4.5h0.9v6.4H26z"/>
		</g>
		<g>
			<path class="st1" d="M27.6,138c0-2,0.7-3.3,2.6-3.3c0.6,0,1.2,0.1,1.8,0.3v1c-0.5-0.2-1.1-0.4-1.7-0.4c-1.3,0-1.8,0.9-1.8,2.4
				s0.5,2.4,1.8,2.4c0.3,0,0.6,0,0.9-0.1v-1.7h-1.1v-0.9h2.1v3.2c-0.6,0.3-1.3,0.4-2,0.4C28.3,141.3,27.6,140,27.6,138z"/>
		</g>
		<g>
			<path class="st1" d="M36.8,138.3h-2.7v2H37v0.9h-3.8v-6.4H37v0.9h-2.9v1.8h2.7V138.3z"/>
		</g>
		<g>
			<path class="st1" d="M42.6,140.3h-0.9l-1.6-3.9v4.8h-1v-6.4h1.2l1.7,4.4l1.7-4.4h1.2v6.4h-1v-4.8L42.6,140.3z"/>
		</g>
		<g>
			<path class="st1" d="M49.7,138.3H47v2h3v0.9h-3.9v-6.4H50v0.9h-3v1.8h2.7L49.7,138.3z"/>
		</g>
		<g>
			<path class="st1" d="M53.9,139.6h-2l-0.5,1.6h-1l2-6.4h1l2,6.4h-1L53.9,139.6z M52.9,136l-0.8,2.8h1.6L52.9,136z"/>
		</g>
		<g>
			<path class="st1" d="M59.9,139.3c0,1.2-0.7,2-2.4,2c-0.6,0-1.3-0.1-1.9-0.3v-1c0.6,0.3,1.2,0.4,1.8,0.4c1.2,0,1.5-0.5,1.5-1.1
				s-0.3-0.9-1.2-1c-1.5-0.2-2.2-0.6-2.2-1.8c0-0.9,0.5-1.9,2.3-1.9c0.6,0,1.2,0.1,1.7,0.3v1c-0.5-0.2-1.1-0.3-1.7-0.3
				c-1,0-1.3,0.4-1.3,1s0.4,0.8,1.2,0.9C59.1,137.7,59.9,138,59.9,139.3z"/>
		</g>
		<g>
			<path class="st1" d="M60.5,139.2v-4.4h1v4.3c0,0.8,0.6,1.4,1.4,1.4s1.4-0.6,1.4-1.4l0,0v-4.3h1v4.4c-0.1,1.3-1.2,2.2-2.5,2.2
				C61.6,141.3,60.7,140.4,60.5,139.2L60.5,139.2z"/>
		</g>
		<g>
			<path class="st1" d="M67,141.2h-1v-6.4h2.1c1.7,0,2.2,0.7,2.2,1.9c0.1,0.7-0.3,1.4-1,1.7l1.3,2.8h-1.1l-1.2-2.6H67V141.2z
				 M67,137.7h1.3c0.9,0,1-0.5,1-1s-0.1-1-1-1H67V137.7z"/>
		</g>
		<g>
			<path class="st1" d="M74.7,138.3h-2.7v2H75v0.9h-3.9v-6.4H75v0.9h-2.9v1.8h2.7V138.3z"/>
		</g>
		<g>
			<path class="st1" d="M79.9,139.3c0,1.2-0.7,2-2.4,2c-0.6,0-1.3-0.1-1.9-0.3v-1c0.6,0.3,1.2,0.4,1.8,0.4c1.2,0,1.5-0.5,1.5-1.1
				s-0.3-0.9-1.2-1c-1.6-0.2-2.2-0.6-2.2-1.8c0-0.9,0.5-1.9,2.3-1.9c0.6,0,1.2,0.1,1.7,0.3v1c-0.5-0.2-1.1-0.3-1.7-0.3
				c-1,0-1.3,0.4-1.3,1s0.4,0.8,1.2,0.9C79.1,137.7,79.9,138,79.9,139.3z"/>
		</g>
		<g>
			<path class="st1" d="M7,150.2v-6.4h1v6.4H7z"/>
		</g>
		<g>
			<path class="st1" d="M12.8,150.2l-2.8-4.5v4.5H9.1v-6.4h0.9l2.8,4.5v-4.5h0.9v6.4L12.8,150.2z"/>
		</g>
		<g>
			<path class="st1" d="M16.8,144.7v5.5h-1v-5.5h-1.6v-0.9h4.3v0.9H16.8z"/>
		</g>
		<g>
			<path class="st1" d="M18.6,147c0-1.8,0.4-3.3,2.5-3.3s2.5,1.5,2.5,3.3s-0.4,3.3-2.5,3.3S18.6,148.8,18.6,147z M19.6,147
				c0,1.5,0.3,2.4,1.5,2.4s1.5-0.9,1.5-2.4s-0.3-2.4-1.5-2.4S19.6,145.5,19.6,147L19.6,147z"/>
		</g>
		<g>
			<path class="st1" d="M26.7,150.2h-1v-6.4h2c1.6,0,2.2,1,2.2,2s-0.6,2-2.2,2h-1.1L26.7,150.2z M26.7,146.9h1.1
				c0.6,0,1.1-0.5,1.1-1.1c0-0.6-0.5-1.1-1.1-1.1h-1.1V146.9z"/>
		</g>
		<g>
			<path class="st1" d="M30.4,147c0-1.8,0.4-3.3,2.5-3.3s2.5,1.5,2.5,3.3s-0.4,3.3-2.5,3.3S30.4,148.8,30.4,147z M31.4,147
				c0,1.5,0.3,2.4,1.5,2.4s1.5-0.9,1.5-2.4s-0.3-2.4-1.5-2.4S31.4,145.5,31.4,147L31.4,147z"/>
		</g>
		<g>
			<path class="st1" d="M37,149.3h2.8v0.9H36v-6.4h1V149.3z"/>
		</g>
		<g>
			<path class="st1" d="M40.4,150.2v-6.4h1v6.4H40.4z"/>
		</g>
		<g>
			<path class="st1" d="M44.9,143.7c0.5,0,1,0.1,1.5,0.3v0.9c-0.5-0.2-0.9-0.3-1.4-0.3c-1.2,0-1.7,0.8-1.7,2.4s0.5,2.4,1.7,2.4
				c0.5,0,1-0.1,1.4-0.3v0.9c-0.5,0.2-1,0.3-1.5,0.3c-1.9,0-2.6-1.2-2.6-3.3S43,143.7,44.9,143.7z"/>
		</g>
		<g>
			<path class="st1" d="M47.2,150.2v-6.4h1v6.4H47.2z"/>
		</g>
		<g>
			<path class="st1" d="M52.9,147.3h-2.6v2h2.9v0.9h-3.9v-6.4h3.9v0.9h-2.9v1.8h2.7L52.9,147.3z"/>
		</g>
		<g>
			<path class="st1" d="M58,148.3c0,1.2-0.7,2-2.4,2c-0.6,0-1.3-0.1-1.9-0.4v-1c0.6,0.3,1.2,0.4,1.8,0.4c1.2,0,1.5-0.5,1.5-1.1
				s-0.3-0.9-1.2-1c-1.6-0.2-2.2-0.6-2.2-1.8c0-0.9,0.5-1.9,2.3-1.9c0.6,0,1.2,0.1,1.7,0.3v1c-0.5-0.2-1.1-0.3-1.7-0.3
				c-1,0-1.3,0.4-1.3,1s0.4,0.8,1.2,0.9C57.3,146.7,58,147,58,148.3z"/>
		</g>
		<g>
			<path class="st1" d="M63.4,148.6h-2l-0.5,1.6h-1l2-6.4h1l2,6.4h-1L63.4,148.6z M62.4,145l-0.8,2.8h1.6L62.4,145z"/>
		</g>
		<g>
			<path class="st1" d="M69.1,150.2l-2.8-4.5v4.5h-0.9v-6.4h0.9l2.8,4.5v-4.5h1v6.4H69.1z"/>
		</g>
		<g>
			<path class="st1" d="M70.9,150.2v-6.4h1.9c2.1,0,2.7,1.4,2.7,3.2s-0.6,3.2-2.7,3.2H70.9z M71.9,149.3h1c1.3,0,1.7-0.9,1.7-2.3
				s-0.4-2.3-1.7-2.3h-1V149.3z"/>
		</g>
		<g>
			<path class="st1" d="M7.8,159.2h-1v-6.4h2.1c1.6,0,2.2,1,2.2,2s-0.6,2-2.2,2H7.8V159.2z M7.8,156H9c0.6,0.1,1.2-0.4,1.2-1
				c0.1-0.6-0.4-1.2-1-1.2c-0.1,0-0.1,0-0.2,0H7.8V156z"/>
		</g>
		<g>
			<path class="st1" d="M12.6,158.3h2.8v0.9h-3.7v-6.4h1L12.6,158.3z"/>
		</g>
		<g>
			<path class="st1" d="M19.1,157.6H17l-0.5,1.6h-1l2-6.4h1l2,6.4h-1L19.1,157.6z M18.1,154l-0.8,2.8h1.6L18.1,154z"/>
		</g>
		<g>
			<path class="st1" d="M24.8,159.2l-2.8-4.5v4.5h-0.9v-6.4h0.9l2.8,4.5v-4.5h0.9v6.4L24.8,159.2z"/>
		</g>
		<g>
			<path class="st1" d="M30.3,159.2l-2.8-4.5v4.5h-1v-6.4h0.9l2.8,4.5v-4.5h0.9v6.4H30.3z"/>
		</g>
		<g>
			<path class="st1" d="M32.2,159.2v-6.4h1v6.4H32.2z"/>
		</g>
		<g>
			<path class="st1" d="M38,159.2l-2.8-4.5v4.5h-0.9v-6.4h0.9l2.8,4.5v-4.5h0.9v6.4H38z"/>
		</g>
		<g>
			<path class="st1" d="M39.6,156c0-2,0.7-3.3,2.6-3.3c0.6,0,1.3,0.1,1.8,0.3v1c-0.5-0.2-1.1-0.4-1.7-0.4c-1.3,0-1.8,0.9-1.8,2.4
				s0.5,2.4,1.8,2.4c0.3,0,0.6,0,0.9-0.1v-1.7h-1.1v-0.9h2.1v3.2c-0.6,0.3-1.3,0.4-2,0.4C40.3,159.3,39.6,158,39.6,156z"/>
		</g>
	</g>
	<g>
		<rect x="3.3" y="24" class="st1" width="94.8" height="94.8"/>
	</g>
	<g>
		<path class="st1" d="M98.2,20.7H3.3V3.3h94.8V20.7z M4.3,19.7h92.8V4.3H4.3L4.3,19.7z"/>
	</g>
	<g class="st2">
		<path class="st1" d="M6.7,6.9h4.5v1.4H9.9v8.8H8.1V8.3H6.7V6.9z"/>
	</g>
	<g class="st2">
		<path class="st1" d="M11.2,17.1l1.9-10.2h1.9L17,17.1h-1.8l-0.3-1.9h-1.8l-0.3,1.9H11.2z M13.3,13.9h1.4L14,9.8h0L13.3,13.9z"/>
	</g>
	<g class="st2">
		<path class="st1" d="M19.6,12.4v4.7h-1.7V6.9h2.5c1.7,0,2.4,0.9,2.4,2.3v1.3c0,1.1-0.4,1.7-1.4,2l1.6,4.6h-1.8L19.6,12.4z
			 M19.6,8.3v3.2h0.6c0.6,0,0.8-0.3,0.8-0.8V9.2c0-0.6-0.3-0.8-0.8-0.8H19.6z"/>
	</g>
	<g class="st2">
		<path class="st1" d="M26.4,11.7h2.4v5.4h-1.2V16c-0.2,0.8-0.7,1.2-1.6,1.2c-1.5,0-2.1-1.2-2.1-2.7V9.6c0-1.6,0.8-2.7,2.6-2.7
			c1.9,0,2.4,1.1,2.4,2.6v0.9h-1.6v-1c0-0.6-0.2-1-0.9-1c-0.6,0-0.9,0.4-0.9,1v5.5c0,0.6,0.3,1,0.8,1c0.6,0,0.8-0.3,0.8-1V13h-0.8
			V11.7z"/>
	</g>
	<g class="st2">
		<path class="st1" d="M30.2,6.9h4.1v1.4h-2.4v2.9h1.7v1.4h-1.7v3.1h2.4v1.4h-4.1V6.9z"/>
	</g>
	<g class="st2">
		<path class="st1" d="M35.1,6.9h4.5v1.4h-1.4v8.8h-1.7V8.3h-1.4V6.9z"/>
	</g>
	<g class="st2">
		<path class="st1" d="M78.1,6.9v10.2h-1.7V9.3h0l-1.2,1.2h0V8.8l1.6-1.8H78.1z"/>
		<path class="st1" d="M84.2,9.1V10c0,0.9-0.5,1.4-1.2,1.7c0.9,0.2,1.3,0.8,1.3,1.7v1.5c0,1.4-0.8,2.3-2.5,2.3c-1.7,0-2.4-1-2.4-2.5
			v-1.3H81v1.5c0,0.6,0.2,1,0.8,1c0.5,0,0.8-0.4,0.8-0.9v-1.7c0-0.5-0.2-0.8-0.8-0.8H81v-1.3h0.6c0.6,0,0.9-0.3,0.9-0.8V9.2
			c0-0.6-0.2-0.9-0.7-0.9s-0.7,0.4-0.7,1v1h-1.6V9.4c0-1.5,0.6-2.6,2.4-2.6C83.5,6.8,84.2,7.7,84.2,9.1z"/>
	</g>
	<g class="st2">
	</g>
	<g class="st2">
		<path class="st1" d="M87.1,10.8c0.7,0,1.2,0.6,1.2,1.2c0,0.7-0.6,1.2-1.2,1.2c-0.7,0-1.2-0.6-1.2-1.2
			C85.8,11.4,86.4,10.8,87.1,10.8z"/>
	</g>
	<g class="st2">
		<path class="st1" d="M89.8,15.2c0-1,0.3-1.7,1.3-2.7l1-1c0.6-0.6,0.6-0.9,0.6-1.8V9c0-0.6-0.3-0.8-0.6-0.8c-0.4,0-0.7,0.2-0.7,0.8
			v1.3h-1.6V9c0-1.4,0.8-2.2,2.3-2.2c1.5,0,2.2,0.7,2.2,2.1v1c0,1-0.2,1.6-1.1,2.6l-1.1,1.2c-0.4,0.5-0.7,0.8-0.7,1.6v0.5h2.8v1.4
			h-4.4V15.2z"/>
	</g>
	<g>
		<path class="st1" d="M98.2,162.9h-95v-40.7h95V162.9z M4.2,161.9h93v-38.7h-93V161.9z"/>
	</g>
	<g>
		<g>
			<path class="st0" d="M68.2,46.1c-0.9,0-1.6,0.7-1.6,1.6c0,0,0,0,0,0v10.6c-0.1,0.9,0.6,1.7,1.5,1.8c0.9,0.1,1.7-0.6,1.8-1.5
				c0-0.1,0-0.2,0-0.3V47.8C69.8,46.9,69.1,46.1,68.2,46.1z"/>
		</g>
		<g>
			<path class="st0" d="M89.3,46.1c-0.9,0-1.6,0.7-1.6,1.6c0,0,0,0,0,0v10.6c-0.1,0.9,0.6,1.7,1.5,1.8c0.9,0.1,1.7-0.6,1.8-1.5
				c0-0.1,0-0.2,0-0.3V47.8C90.9,46.9,90.2,46.1,89.3,46.1z"/>
		</g>
		<g>
			<path class="st0" d="M86.1,47.4H71.5c-0.2,0-0.4,0.2-0.4,0.4v10.3c0,0.2,0.2,0.4,0.4,0.5h5.6l-0.7,40.9c0,0.2,0.2,0.4,0.4,0.4
				h3.9c0.2,0,0.4-0.1,0.4-0.4c0,0,0,0,0,0l-0.9-40.9h5.8c0.2,0,0.4-0.2,0.4-0.5V47.8C86.5,47.6,86.3,47.4,86.1,47.4
				C86.1,47.4,86.1,47.4,86.1,47.4z"/>
		</g>
	</g>
	<g>
		<g>
			<g>
				<polygon class="st0" points="18.8,48.3 15.9,48.3 15.9,103.1 55.2,103.1 55.2,99.8 18.8,99.8 				"/>
			</g>
			<g>
				<path class="st0" d="M21.8,45v51.4H61V41.6H21.8V45z M56.3,86.9c0,0.1-0.1,0.2-0.3,0.2H27c-0.2,0-0.3-0.1-0.3-0.2v-4.7
					c0-0.1,0.1-0.2,0.3-0.2h29c0.2,0,0.3,0.1,0.3,0.2L56.3,86.9z M56.3,78.9c0,0.1-0.1,0.2-0.3,0.2H27c-0.2,0-0.3-0.1-0.3-0.2v-4.7
					c0-0.1,0.1-0.2,0.3-0.2h29c0.2,0,0.3,0.1,0.3,0.2L56.3,78.9z M56.2,58.4c-6,8.1-17.5,9.8-25.6,3.8c-1.4-1.1-2.7-2.3-3.8-3.8
					l-0.1-0.2l0.1-0.2c6.1-8.1,17.6-9.8,25.7-3.8c1.4,1.1,2.7,2.3,3.8,3.8l0.1,0.2L56.2,58.4z"/>
			</g>
		</g>
		<g>
			<g>
				<path class="st0" d="M40.2,60.2c0,0.1-0.3,1.2-0.1,1.3s0.4-0.9,0.5-1C41,59.7,40.5,59.7,40.2,60.2z"/>
			</g>
			<g>
				<path class="st0" d="M46.2,59.1c0-0.1-0.2-0.3-0.3-0.4s-0.3,0-0.2,0.2s0.1,0.2,0.2,0.2S46.2,59.2,46.2,59.1z"/>
			</g>
			<g>
				<path class="st0" d="M43.4,63.7c-0.2,0.1-1.5-0.6-2.5-0.5c-0.5,0-1,0.3-1.2,0.7c0,0.1,0,0.2,0.1,0.3c1.9,0.6,3.9,0.2,5.5-1
					C45,63.1,44.8,63,44.6,63C44,63,43.6,63.5,43.4,63.7z"/>
			</g>
			<g>
				<path class="st0" d="M47.1,59.9c-0.1-0.3-0.3,0.2-1,0.4c-0.4,0.1-0.8,0.2-1.1,0.3c-0.5,0.2-0.8,0.8-0.6,1.3
					c0.2,0.5,0.1,0.9,0.6,0.6s0.1,0.1,0.3,0.1s0.1-0.2,0.5,0l0.2,0.1c0.6-0.6,1.1-1.4,1.4-2.2c0-0.1,0-0.3-0.1-0.4L47.1,59.9z"/>
			</g>
			<g>
				<path class="st0" d="M47.6,57.9c0-0.3-0.3-0.4-0.5-0.4c-0.1,0,0.2,0.3,0.1,0.4c-0.5,0.6,0.2,1.6,0.3,1.6
					c0.1-0.4,0.1-0.8,0.1-1.3C47.6,58.1,47.6,58,47.6,57.9z"/>
			</g>
			<g>
				<path class="st0" d="M42.7,58.8c-0.1,0-0.3,0.2-0.2,0.3c0.2,0.1,0.4,0.1,0.6,0C43.3,59.1,43,58.8,42.7,58.8z"/>
			</g>
			<g>
				<path class="st0" d="M39.8,61.3C39.9,61,40,61,40,60.6c-0.1-0.3,0.1-0.6,0.3-0.8c0.3-0.3,0.2-0.1,0.3-0.4s-0.2-0.3-0.5-0.5
					c-0.3-0.2-0.5-0.6-0.6-1c0-0.2,0.1,0,0.4,0.3s0.4,0.5,0.7,0.5s0.7-0.3,0.6-0.6s-1.1-1-1-1.1s0.2,0,0.5,0.2s0.7,0.2,0.7,0.6
					c0.1,0.8,1,0.4,1.6,1.1c0.2,0.3,0.3,0,0.5-0.3s-0.1-0.5,0.1-0.6c0.2-0.1,0.4-0.1,0.5,0.1c0,0,0,0.1,0.1,0.1
					c0.1,0.3,0.2,0.6,0.4,0.9c0.2,0.4,0.6,0.7,1,0.8c0.4,0-0.1-0.6-0.2-0.8c0-0.3,0.1-0.6,0.3-0.8c0.2,0,0.5-0.1,0.7-0.2
					c0.4-0.3,0-0.3,0-0.7s0.2-0.2,0.3-0.1c0.1,0.2,0.4,0.3,0.5,0.1c0.1,0,0.1-0.1,0.2-0.2c0-0.1,0-0.2,0-0.3c-0.7-2.8-3.1-4.7-6-4.7
					c-1.2,0-2.3,0.4-3.3,1c0.7,0,2.2-0.3,2,0.3s0.9,0.7,0.4,0.9c-0.2,0.1-0.9,0.6-1,0.5c-0.4-0.2,0.8-0.5,0.6-0.7s-0.7,0-1.1,0.1
					c-0.4,0-0.8,0.1-1.2,0.2c-0.3,0.1-0.6,0.3-0.5,0.5s0.8,0.4,0.9,0.4s0.2,0,0.5-0.3s0.6,0,0.5,0c-0.2,0.1-0.3,0.2-0.5,0.4
					c-0.2,0.2-0.4,0.2-0.6,0.1c-0.3-0.1-0.6-0.1-0.9,0c-0.2,0.1-0.3,0.2-0.5,0.3c-0.1,0-0.2,0.1-0.2,0.2s0.1,0.2,0,0.2
					s-0.2,0.2-0.3,0.1c-0.2-0.1-0.5-0.1-0.7,0.1c0,0,0,0.1,0,0.2c0,0.2,0.1,0.6,0.5,0.3c0.1-0.1,0.7-0.1,1.1-0.4
					c0.2-0.2,0.4,0.1,0.4,0.1s0.3,0.6,0.4,0.6s-0.2-0.5-0.1-0.5s0.3,0.4,0.4,0.3s0.4-0.1,0.5,0.1s-0.2,0.3-0.4,0.4s-0.9-0.2-1.3-0.3
					C36.8,57.1,36.4,57,36,57l-0.4,0.1c0,0,0,0.1-0.3,0.5c0,0,0,0,0,0.1c-0.1,1,0.1,2.1,0.5,3l0,0c0.3,0.1,0.2,0,0.5-0.1
					s0.5-0.3,0.6-0.1s0.3,0.2,0.4,0.5s0.3-0.2,0.4,0.3c0.1,0.8,0.3,0.4,0.3,0.5c0,0.4,0,1.1,0.3,1.2c0.3,0,0.6-0.1,0.8-0.3
					c0.2-0.2,0.3-0.5,0.4-0.8C39.6,61.4,39.8,61.6,39.8,61.3z"/>
			</g>
			<g>
				<path class="st0" d="M36.6,55.3c0.1-0.1,0.5-0.2,0.5-0.3s-0.2-0.2-0.4-0.2c-0.2,0-0.3,0.1-0.5,0.2l0,0c-0.2,0.3-0.3,0.6-0.5,0.9
					c0.1,0,0.1,0,0.2,0C36.1,55.9,36.4,55.5,36.6,55.3z"/>
			</g>
			<g>
				<path class="st0" d="M46.5,59.7c0.1-0.1-0.2-0.4-0.4-0.4s-0.3,0.2-0.2,0.3C46.1,59.8,46.3,59.8,46.5,59.7z"/>
			</g>
			<g>
				<path class="st0" d="M36.7,54.6c0.2,0,0.5-0.1,0.7-0.3c0.1-0.1,0.1-0.3,0.1-0.4c0-0.1-0.2-0.1-0.2-0.1s-0.2,0-0.3,0.1
					s-0.3,0.4-0.4,0.5S36.5,54.5,36.7,54.6z"/>
			</g>
		</g>
	</g>
</g>
</svg>
