<?xml version="1.0" encoding="utf-8"?>
<!-- Generator: Adobe Illustrator 22.0.1, SVG Export Plug-In . SVG Version: 6.00 Build 0)  -->
<svg version="1.1" id="Layer_1" xmlns="http://www.w3.org/2000/svg" xmlns:xlink="http://www.w3.org/1999/xlink" x="0px" y="0px"
	 viewBox="0 0 101.5 166.2" style="enable-background:new 0 0 101.5 166.2;" xml:space="preserve">
<style type="text/css">
	.st0{fill:#FFFFFF;}
	.st1{fill:#FCC30B;}
	.st2{enable-background:new    ;}
</style>
<title>TARGET 1 B copy 4</title>
<g id="WHITE_BG">
	<g>
		<rect y="0" class="st0" width="101.5" height="166.2"/>
	</g>
</g>
<g id="TARGETS">
	<g>
		<g>
			<path class="st1" d="M10.5,129.3H7.8v2h2.9v0.9H6.9v-6.4h3.9v0.9H7.8v1.8h2.6V129.3z"/>
		</g>
		<g>
			<path class="st1" d="M15.2,125.8h1.1l-1.9,3.1l1.9,3.3h-1.1l-1.4-2.6l-1.4,2.6h-1.1l1.9-3.3l-1.9-3.1h1.1l1.4,2.5L15.2,125.8z"/>
		</g>
		<g>
			<path class="st1" d="M17.9,132.2H17v-6.4h2c1.6,0,2.2,1,2.2,2c0,1-0.6,2-2.2,2h-1.1V132.2z M17.9,128.9H19c0.6,0.1,1.2-0.4,1.2-1
				s-0.4-1.2-1-1.2c-0.1,0-0.1,0-0.2,0h-1.1V128.9z"/>
		</g>
		<g>
			<path class="st1" d="M24.2,130.6h-2l-0.5,1.6h-1l2-6.4h1l2,6.4h-1L24.2,130.6z M23.2,127l-0.8,2.8H24L23.2,127z"/>
		</g>
		<g>
			<path class="st1" d="M29.9,132.2l-2.8-4.5v4.5h-1v-6.4h0.9l2.8,4.5v-4.5h0.9v6.4H29.9z"/>
		</g>
		<g>
			<path class="st1" d="M31.8,132.2v-6.4h1.9c2.1,0,2.7,1.4,2.7,3.2s-0.6,3.2-2.7,3.2L31.8,132.2z M32.7,131.3h1
				c1.3,0,1.7-0.9,1.7-2.3s-0.4-2.3-1.7-2.3h-1V131.3z"/>
		</g>
		<g>
			<path class="st1" d="M41.8,130.6h-2l-0.5,1.6h-1l2-6.4h1l2,6.4h-1L41.8,130.6z M40.8,127l-0.8,2.8h1.6L40.8,127z"/>
		</g>
		<g>
			<path class="st1" d="M47.5,132.2l-2.8-4.5v4.5h-0.9v-6.4h0.9l2.8,4.5v-4.5h0.9v6.4H47.5z"/>
		</g>
		<g>
			<path class="st1" d="M49.3,132.2v-6.4h1.9c2.1,0,2.7,1.4,2.7,3.2s-0.6,3.2-2.7,3.2L49.3,132.2z M50.3,131.3h1
				c1.3,0,1.7-0.9,1.7-2.3s-0.4-2.3-1.7-2.3h-1V131.3z"/>
		</g>
		<g>
			<path class="st1" d="M56,130.2v-4.4h1v4.3c0,0.8,0.6,1.4,1.4,1.4s1.4-0.6,1.4-1.4v-4.3h1v4.4c-0.1,1.3-1.2,2.2-2.5,2.2
				C57.1,132.3,56.2,131.4,56,130.2L56,130.2z"/>
		</g>
		<g>
			<path class="st1" d="M62.5,132.2h-1v-6.4h2c1.6,0,2.2,1,2.2,2c0,1-0.6,2-2.2,2h-1.1L62.5,132.2z M62.5,128.9h1.1
				c0.6,0.1,1.2-0.4,1.2-1c0.1-0.6-0.4-1.2-1-1.2c-0.1,0-0.1,0-0.2,0h-1.1V128.9z"/>
		</g>
		<g>
			<path class="st1" d="M66.3,129c0-2,0.7-3.3,2.6-3.3c0.6,0,1.3,0.1,1.8,0.3v1c-0.5-0.2-1.1-0.4-1.7-0.4c-1.3,0-1.8,0.9-1.8,2.4
				s0.5,2.4,1.8,2.4c0.3,0,0.6,0,0.9-0.1v-1.7h-1.1v-0.9h2.1v3.2c-0.6,0.3-1.3,0.4-2,0.4C67,132.3,66.3,131,66.3,129z"/>
		</g>
		<g>
			<path class="st1" d="M72.8,132.2h-1v-6.4h2.1c1.7,0,2.2,0.7,2.2,1.9c0.1,0.7-0.3,1.4-1,1.7l1.3,2.8h-1.1l-1.2-2.6h-1.3V132.2z
				 M72.8,128.7h1.3c0.9,0,1-0.5,1-1s-0.1-1-1-1h-1.3V128.7z"/>
		</g>
		<g>
			<path class="st1" d="M80.1,130.6h-2l-0.4,1.6h-1l2-6.4h1l2,6.4h-1L80.1,130.6z M79.1,127l-0.8,2.8h1.6L79.1,127z"/>
		</g>
		<g>
			<path class="st1" d="M82.1,132.2v-6.4H84c2.1,0,2.7,1.4,2.7,3.2s-0.6,3.2-2.7,3.2L82.1,132.2z M83.1,131.3h1
				c1.3,0,1.7-0.9,1.7-2.3s-0.4-2.3-1.7-2.3h-1V131.3z"/>
		</g>
		<g>
			<path class="st1" d="M91.1,129.3h-2.7v2h2.9v0.9h-3.9v-6.4h3.9v0.9h-2.9v1.8h2.7V129.3z"/>
		</g>
		<g>
			<path class="st1" d="M10.5,138.3H7.8v2h2.9v0.9H6.9v-6.4h3.9v0.9H7.8v1.8h2.6V138.3z"/>
		</g>
		<g>
			<path class="st1" d="M15.3,141.2l-2.8-4.5v4.5h-0.9v-6.4h0.9l2.8,4.5v-4.5h0.9v6.4H15.3z"/>
		</g>
		<g>
			<path class="st1" d="M20.7,138.3h-2.6v2H21v0.9h-3.9v-6.4H21v0.9h-2.9v1.8h2.6V138.3z"/>
		</g>
		<g>
			<path class="st1" d="M22.8,141.2h-1v-6.4h2.1c1.6,0,2.2,0.7,2.2,1.9c0.1,0.7-0.3,1.4-1,1.7l1.3,2.8h-1.1l-1.2-2.6h-1.3V141.2z
				 M22.8,137.7H24c0.9,0,1-0.5,1-1s-0.1-1-1-1h-1.2V137.7z"/>
		</g>
		<g>
			<path class="st1" d="M26.9,138c0-2,0.7-3.3,2.6-3.3c0.6,0,1.3,0.1,1.8,0.3v1c-0.5-0.2-1.1-0.4-1.7-0.4c-1.3,0-1.8,0.9-1.8,2.4
				s0.5,2.4,1.8,2.4c0.3,0,0.6,0,0.9-0.1v-1.7h-1.1v-0.9h2.1v3.2c-0.6,0.3-1.3,0.4-2,0.4C27.6,141.3,26.9,140,26.9,138z"/>
		</g>
		<g>
			<path class="st1" d="M35,138.6v2.6h-1v-2.6l-2.2-3.8h1.1l1.6,3l1.6-3h1.1L35,138.6z"/>
		</g>
		<g>
			<path class="st1" d="M43.2,139.3c0,1.2-0.7,2-2.4,2c-0.6,0-1.3-0.1-1.9-0.4V140c0.6,0.3,1.2,0.4,1.8,0.4c1.2,0,1.5-0.5,1.5-1.1
				s-0.3-0.9-1.2-1c-1.5-0.2-2.2-0.6-2.2-1.8c0-0.9,0.5-1.8,2.3-1.8c0.6,0,1.2,0.1,1.7,0.3v1c-0.5-0.2-1.1-0.3-1.7-0.3
				c-1,0-1.3,0.4-1.3,1s0.4,0.8,1.2,0.9C42.4,137.7,43.2,138,43.2,139.3z"/>
		</g>
		<g>
			<path class="st1" d="M47.5,138.3h-2.6v2h2.9v0.9H44v-6.4h3.9v0.9h-3v1.8h2.7L47.5,138.3z"/>
		</g>
		<g>
			<path class="st1" d="M49.6,141.2h-1v-6.4h2.1c1.7,0,2.2,0.7,2.2,1.9c0.1,0.7-0.3,1.4-1,1.7l1.3,2.8h-1.2l-1.1-2.6h-1.4V141.2z
				 M49.6,137.7h1.3c0.9,0,1-0.5,1-1s-0.1-1-1-1h-1.3V137.7z"/>
		</g>
		<g>
			<path class="st1" d="M58.1,134.8l-2,6.4h-1l-2-6.4h1l1.5,5.2l1.5-5.2L58.1,134.8z"/>
		</g>
		<g>
			<path class="st1" d="M58.8,141.2v-6.4h1v6.4H58.8z"/>
		</g>
		<g>
			<path class="st1" d="M63.3,134.7c0.5,0,1,0.1,1.5,0.3v0.9c-0.4-0.2-0.9-0.3-1.4-0.3c-1.2,0-1.7,0.8-1.7,2.4s0.5,2.4,1.7,2.4
				c0.5,0,1-0.1,1.4-0.3v0.9c-0.5,0.2-1,0.3-1.5,0.3c-1.9,0-2.6-1.2-2.6-3.3S61.5,134.7,63.3,134.7z"/>
		</g>
		<g>
			<path class="st1" d="M69.3,138.3h-2.7v2h2.9v0.9h-3.9v-6.4h3.9v0.9h-2.9v1.8h2.7L69.3,138.3z"/>
		</g>
		<g>
			<path class="st1" d="M74.6,139.3c0,1.2-0.7,2-2.4,2c-0.6,0-1.3-0.1-1.9-0.4V140c0.6,0.3,1.2,0.4,1.8,0.4c1.2,0,1.5-0.5,1.5-1.1
				s-0.3-0.9-1.2-1c-1.6-0.2-2.2-0.6-2.2-1.8c0-0.9,0.5-1.8,2.3-1.8c0.6,0,1.2,0.1,1.7,0.3v1c-0.5-0.2-1.1-0.3-1.7-0.3
				c-1,0-1.3,0.4-1.3,1s0.4,0.8,1.2,0.9C73.8,137.7,74.6,138,74.6,139.3z"/>
		</g>
		<g>
			<path class="st1" d="M80.3,138.4h-2.6v2.8h-1v-6.4h3.8v0.9h-2.8v1.8h2.6L80.3,138.4z"/>
		</g>
		<g>
			<path class="st1" d="M81,138c0-1.8,0.4-3.3,2.4-3.3s2.6,1.5,2.6,3.3s-0.4,3.3-2.5,3.3S81,139.8,81,138z M82,138
				c0,1.5,0.3,2.4,1.5,2.4s1.5-0.9,1.5-2.4s-0.3-2.4-1.5-2.4S82,136.5,82,138z"/>
		</g>
		<g>
			<path class="st1" d="M87.6,141.2h-1v-6.4h2.1c1.7,0,2.2,0.7,2.2,1.9c0.1,0.7-0.3,1.4-1,1.7l1.3,2.8h-1.1l-1.1-2.6h-1.4V141.2z
				 M87.6,137.7h1.3c0.9,0,1-0.5,1-1s-0.1-1-1-1h-1.3V137.7z"/>
		</g>
		<g>
			<path class="st1" d="M6.9,150.2v-6.4h1.9c2.1,0,2.7,1.4,2.7,3.2s-0.6,3.2-2.7,3.2H6.9z M7.9,149.3h1c1.3,0,1.7-0.9,1.7-2.3
				s-0.4-2.3-1.7-2.3h-1L7.9,149.3z"/>
		</g>
		<g>
			<path class="st1" d="M15.8,147.3h-2.7v2h2.9v0.9h-3.9v-6.4h3.9v0.9h-2.9v1.8h2.7L15.8,147.3z"/>
		</g>
		<g>
			<path class="st1" d="M21.5,143.8l-2,6.4h-1l-2-6.4h1L19,149l1.5-5.2L21.5,143.8z"/>
		</g>
		<g>
			<path class="st1" d="M25.6,147.3H23v2h2.9v0.9H22v-6.4h3.9v0.9H23v1.8h2.6L25.6,147.3z"/>
		</g>
		<g>
			<path class="st1" d="M27.7,149.3h2.8v0.9h-3.7v-6.4h1L27.7,149.3z"/>
		</g>
		<g>
			<path class="st1" d="M30.5,147c0-1.8,0.4-3.3,2.5-3.3s2.5,1.5,2.5,3.3s-0.4,3.3-2.5,3.3S30.5,148.8,30.5,147z M31.5,147
				c0,1.5,0.3,2.4,1.5,2.4c1.2,0,1.5-0.9,1.5-2.4s-0.3-2.4-1.5-2.4S31.5,145.5,31.5,147L31.5,147z"/>
		</g>
		<g>
			<path class="st1" d="M37.1,150.2h-1v-6.4h2c1.6,0,2.2,0.9,2.2,2s-0.6,2-2.2,2H37L37.1,150.2z M37.1,146.9h1.1
				c0.6,0.1,1.2-0.4,1.2-1s-0.4-1.2-1-1.2c-0.1,0-0.1,0-0.2,0h-1.1V146.9z"/>
		</g>
		<g>
			<path class="st1" d="M41,150.2v-6.4h1v6.4H41z"/>
		</g>
		<g>
			<path class="st1" d="M46.7,150.2l-2.8-4.5v4.5H43v-6.4h0.9l2.8,4.5v-4.5h0.9v6.4H46.7z"/>
		</g>
		<g>
			<path class="st1" d="M48.4,147c0-2,0.7-3.3,2.6-3.3c0.6,0,1.2,0.1,1.8,0.3v1c-0.5-0.2-1.1-0.4-1.7-0.4c-1.3,0-1.8,0.9-1.8,2.4
				s0.5,2.4,1.8,2.4c0.3,0,0.6,0,0.9-0.1v-1.7H51v-0.9h2v3.2c-0.6,0.3-1.3,0.4-2,0.4C49.1,150.3,48.4,149,48.4,147z"/>
		</g>
		<g>
			<path class="st1" d="M9.4,152.7c0.5,0,1,0.1,1.5,0.3v0.9c-0.5-0.2-0.9-0.3-1.4-0.3c-1.2,0-1.7,0.8-1.7,2.4s0.5,2.4,1.7,2.4
				c0.5,0,1-0.1,1.4-0.3v0.9c-0.5,0.2-1,0.3-1.5,0.3c-1.9,0-2.6-1.2-2.6-3.3S7.5,152.7,9.4,152.7z"/>
		</g>
		<g>
			<path class="st1" d="M11.5,156c0-1.8,0.4-3.3,2.4-3.3s2.5,1.5,2.5,3.3s-0.5,3.3-2.5,3.3S11.5,157.8,11.5,156z M12.5,156
				c0,1.5,0.3,2.4,1.5,2.4s1.5-0.9,1.5-2.4s-0.3-2.4-1.5-2.4S12.5,154.5,12.5,156L12.5,156z"/>
		</g>
		<g>
			<path class="st1" d="M17.1,157.2v-4.4h1v4.3c-0.1,0.7,0.4,1.2,1,1.3c0.1,0,0.2,0,0.3,0c0.6,0.1,1.3-0.3,1.4-1c0-0.1,0-0.2,0-0.3
				v-4.3h1v4.4c0.1,1.1-0.8,2.1-1.9,2.1c-0.1,0-0.3,0-0.4,0c-1.1,0.2-2.1-0.5-2.3-1.6C17.1,157.5,17.1,157.4,17.1,157.2z"/>
		</g>
		<g>
			<path class="st1" d="M26.4,159.2l-2.8-4.5v4.5h-1v-6.4h0.9l2.8,4.5v-4.5h1v6.4H26.4z"/>
		</g>
		<g>
			<path class="st1" d="M30.4,153.7v5.5h-1v-5.5h-1.7v-0.9H32v0.9H30.4z"/>
		</g>
		<g>
			<path class="st1" d="M33.5,159.2h-1v-6.4h2.1c1.7,0,2.2,0.7,2.2,1.9c0.1,0.7-0.3,1.4-1,1.7l1.3,2.8H36l-1.2-2.6h-1.3V159.2z
				 M33.5,155.7h1.3c0.9,0,1-0.5,1-1s-0.1-1-1-1h-1.3V155.7z"/>
		</g>
		<g>
			<path class="st1" d="M37.9,159.2v-6.4h1v6.4H37.9z"/>
		</g>
		<g>
			<path class="st1" d="M43.5,156.3h-2.6v2h2.9v0.9H40v-6.4h3.9v0.9h-3v1.8h2.7L43.5,156.3z"/>
		</g>
		<g>
			<path class="st1" d="M48.8,157.3c0,1.2-0.7,2-2.4,2c-0.6,0-1.3-0.1-1.9-0.4V158c0.6,0.3,1.2,0.4,1.8,0.4c1.2,0,1.5-0.5,1.5-1.1
				s-0.3-0.9-1.2-1c-1.6-0.2-2.2-0.6-2.2-1.8c0-0.9,0.5-1.8,2.3-1.8c0.6,0,1.2,0.1,1.7,0.3v1c-0.5-0.2-1.1-0.3-1.7-0.3
				c-1,0-1.3,0.4-1.3,1s0.4,0.8,1.2,0.9C48.1,155.7,48.8,156,48.8,157.3z"/>
		</g>
	</g>
	<g>
		<rect x="3.3" y="24" class="st1" width="94.8" height="94.8"/>
	</g>
	<g>
		<path class="st1" d="M98.2,20.7H3.3V3.3h94.8V20.7z M4.3,19.7h92.8V4.3H4.3L4.3,19.7z"/>
	</g>
	<g class="st2">
		<path class="st1" d="M6.7,6.9h4.5v1.4H9.9v8.8H8.1V8.3H6.7V6.9z"/>
	</g>
	<g class="st2">
		<path class="st1" d="M11.2,17.1l1.9-10.2h1.9L17,17.1h-1.8l-0.3-1.9h-1.8l-0.3,1.9H11.2z M13.3,13.9h1.4L14,9.8h0L13.3,13.9z"/>
	</g>
	<g class="st2">
		<path class="st1" d="M19.6,12.4v4.7h-1.7V6.9h2.5c1.7,0,2.4,0.9,2.4,2.3v1.3c0,1.1-0.4,1.7-1.4,2l1.6,4.6h-1.8L19.6,12.4z
			 M19.6,8.3v3.2h0.6c0.6,0,0.8-0.3,0.8-0.8V9.2c0-0.6-0.3-0.8-0.8-0.8H19.6z"/>
	</g>
	<g class="st2">
		<path class="st1" d="M26.4,11.7h2.4v5.4h-1.2V16c-0.2,0.8-0.7,1.2-1.6,1.2c-1.5,0-2.1-1.2-2.1-2.7V9.6c0-1.6,0.8-2.7,2.6-2.7
			c1.9,0,2.4,1.1,2.4,2.6v0.9h-1.6v-1c0-0.6-0.2-1-0.9-1c-0.6,0-0.9,0.4-0.9,1v5.5c0,0.6,0.3,1,0.8,1c0.6,0,0.8-0.3,0.8-1V13h-0.8
			V11.7z"/>
	</g>
	<g class="st2">
		<path class="st1" d="M30.2,6.9h4.1v1.4h-2.4v2.9h1.7v1.4h-1.7v3.1h2.4v1.4h-4.1V6.9z"/>
	</g>
	<g class="st2">
		<path class="st1" d="M35.1,6.9h4.5v1.4h-1.4v8.8h-1.7V8.3h-1.4V6.9z"/>
	</g>
	<g class="st2">
		<path class="st1" d="M89.4,6.9h2.5c1.7,0,2.3,0.8,2.3,2.2v1c0,0.9-0.3,1.4-1,1.6c0.9,0.2,1.3,0.8,1.3,1.7v1.3
			c0,1.4-0.6,2.2-2.4,2.2h-2.7V6.9z M91.1,11.2h0.6c0.6,0,0.8-0.3,0.8-0.8V9.2c0-0.6-0.3-0.8-0.8-0.8h-0.6V11.2z M91.1,12.5v3.2h0.8
			c0.6,0,0.8-0.3,0.8-0.8v-1.5c0-0.5-0.3-0.8-0.9-0.8H91.1z"/>
	</g>
	<g class="st2">
		<path class="st1" d="M78.9,6.9h4.3v1.6L81,17.1h-1.7l2.3-8.8h-2.6V6.9z"/>
	</g>
	<g>
		<polygon class="st1" points="85.4,9.9 85.4,14.1 87.6,12 		"/>
	</g>
	<g>
		<path class="st1" d="M98.2,162.9h-95v-40.7h95V162.9z M4.2,161.9h93v-38.7h-93V161.9z"/>
	</g>
	<g>
		<g>
			<path class="st0" d="M87.8,71.5c0-20.5-16.6-37.1-37.1-37.1S13.6,51,13.7,71.5c0,15.2,9.3,28.8,23.3,34.4c2.8,1.3,5.9,1.9,9,1.7
				c2.2-0.1,6.2-0.9,6.2-7.2v-6.9h1c0.7-0.1,1.4,0.4,1.7,1.1c0.3,0.7,0.5,1.3,0.8,2c0.2,0.6,0.9,1,1.5,0.8c1.7-0.3,3.3-0.9,4.8-1.6
				c0.7-0.3,1-1,0.7-1.7c0,0,0,0,0,0c-0.2-0.7-0.3-1.2-0.5-1.9s-0.2-1.4,0.4-1.8s2.5-1.8,3.2-2.4c0.6-0.5,1.4-0.6,2-0.1
				c0.7,0.4,1.2,0.7,1.8,1.1c0.5,0.4,1.3,0.3,1.7-0.2c1.1-1.3,2-2.7,2.7-4.2c0.4-0.6,0.2-1.4-0.4-1.8c-0.6-0.4-1-0.8-1.6-1.2
				s-1-1-0.7-1.7s0.9-2.8,1.2-3.8c0.2-0.7,0.8-1.2,1.5-1.3c0.8,0,1.4-0.1,2.2-0.2c0.7,0,1.2-0.5,1.3-1.2c0.2-1.7,0.2-3.3-0.1-5
				c0-0.7-0.6-1.3-1.3-1.2c0,0,0,0,0,0c-0.7,0-1.3-0.1-2-0.1s-1.4-0.2-1.6-1c-0.3-1.3-0.7-2.5-1.3-3.8c-0.3-0.7-0.1-1.5,0.5-1.9
				c0.6-0.5,1.1-0.9,1.6-1.4c0.5-0.4,0.6-1.1,0.3-1.7c-0.8-1.5-1.8-2.8-3-4c-0.5-0.5-1.3-0.6-1.8-0.2c-0.6,0.4-1,0.7-1.6,1.1
				s-1.3,0.7-1.9,0.2c-1.1-0.8-2.5-1.8-3.2-2.3c-0.6-0.4-0.9-1.1-0.7-1.8c0.2-0.8,0.3-1.3,0.5-2.1c0.2-0.6-0.1-1.3-0.7-1.6
				c-1.5-0.7-3.1-1.2-4.8-1.5c-0.7-0.2-1.4,0.2-1.6,0.9c0,0,0,0,0,0c-0.3,0.7-0.4,1.2-0.7,1.8s-0.6,1.3-1.4,1.2c-1.6,0-2.8,0-4,0
				c-0.7,0-1.3-0.4-1.6-1c-0.3-0.7-0.5-1.3-0.8-2c-0.2-0.6-0.9-1-1.5-0.8c-1.7,0.3-3.3,0.9-4.8,1.6c-0.7,0.3-1,1-0.7,1.7
				c0,0,0,0,0,0c0.2,0.7,0.3,1.2,0.5,1.9s0.3,1.4-0.4,1.8s-2.3,1.6-3.2,2.4c-0.6,0.5-1.4,0.6-2,0.1c-0.7-0.4-1.2-0.7-1.8-1.1
				c-0.5-0.4-1.3-0.3-1.7,0.2c-1.1,1.2-2.1,2.6-2.9,4.1c-0.4,0.6-0.2,1.4,0.4,1.8c0,0,0,0,0,0c0.6,0.5,1,0.8,1.5,1.2s1,1,0.7,1.7
				s-0.9,3-1.2,3.8c-0.2,0.7-0.8,1.2-1.5,1.3c-0.8,0-1.4,0.1-2.1,0.2c-0.7,0-1.2,0.5-1.3,1.2c-0.2,1.7-0.2,3.3,0.1,5
				c0,0.7,0.7,1.2,1.4,1.2c0.7,0,1.3,0.1,2,0.1s1.4,0.2,1.6,1c0.3,1.3,0.8,2.5,1.3,3.8c0.3,0.7,0.1,1.5-0.5,1.9
				c-0.6,0.5-1.1,0.9-1.6,1.4c-0.5,0.4-0.7,1.1-0.3,1.7c0.8,1.5,1.8,2.8,3,4c0.5,0.5,1.3,0.6,1.8,0.2c0.6-0.4,1-0.7,1.6-1.1
				s1.3-0.7,1.9-0.2s2.5,1.8,3.2,2.3c0.6,0.4,0.9,1.1,0.7,1.8c-0.2,0.8-0.3,1.3-0.5,2.1c-0.2,0.6,0.1,1.3,0.7,1.6
				c1.5,0.7,3.1,1.2,4.8,1.5c0.7,0.2,1.4-0.2,1.6-0.9c0,0,0,0,0,0c0.3-0.7,0.4-1.2,0.7-1.8s0.6-1.3,1.4-1.2h0.6l0.1,6.9
				c0.3,2.3-1.2,4.4-3.5,4.8c-0.1,0-0.2,0-0.4,0c-2.8,0.2-5.5-0.4-8-1.6c-17.8-7.1-26.4-27.3-19.3-45s27.3-26.4,45-19.3
				s26.4,27.3,19.3,45c-0.1,0.2-0.2,0.4-0.3,0.6c-1.6,3.7-3.8,7.1-6.5,10l0,0c-0.1,0.1-0.2,0.3-0.4,0.2c-1.1-0.5-2.3-0.7-3.5-0.4
				c-1.1,0.2-2.2,0.8-3,1.6c-0.2,0.2-2.5,3-2.5,3c-0.1,0.1-0.1,0.2,0,0.3c0,0,0,0,0,0l1.5,1.3c0.1,0.1,0.1,0.2,0,0.3c0,0,0,0,0,0
				l-2,2.5c-0.2,0.3-0.2,0.7,0.1,1c0.2,0.3,0.7,0.4,1,0.1c0,0,0.1-0.1,0.1-0.1l2.1-2.6c0.1-0.1,0.2-0.1,0.3,0c0,0,0,0,0,0
				c0.2,0.2,2.4,2,2.4,2s0.1,0.1,0,0.2l-2,2.5c-0.2,0.4-0.2,0.8,0.1,1.1c0.3,0.3,0.8,0.3,1.1,0l2.1-2.7c0,0,0.1-0.2,0.2-0.1
				s1.5,1.2,1.5,1.2c0.1,0.1,0.3,0.1,0.4,0c0,0,0,0,0,0c0,0,2.1-2.6,2.4-3c0.6-0.9,1-2,0.9-3.1c0-1.3-0.5-2.6-1.3-3.6
				c0,0-0.1-0.1,0.1-0.3l0,0C84.3,89.9,87.8,80.9,87.8,71.5L87.8,71.5z M34.5,71.6c0-9.1,7.4-16.5,16.5-16.4
				c9.1,0,16.5,7.4,16.4,16.5c0,9.1-7.4,16.4-16.5,16.4C41.9,88.1,34.5,80.7,34.5,71.6C34.5,71.6,34.5,71.6,34.5,71.6z"/>
		</g>
		<g>
			<path class="st0" d="M38.8,66.9c0.4,0.3,0.7-0.1,0.8-0.2s0.1-0.4,0-0.6s0.2-0.3,0.4-0.4s0.8-0.5,1.1-0.7c0.7-0.2,1.5-0.2,2.2,0
				c0.5,0.3,1.1,0.1,1.5-0.3c0.3-0.4,0.7-0.6,1.1-0.9c0.2-0.1-0.5-0.8-1.1,0c-0.6,0.7-0.9,0.8-1.2,0.8s-2-0.4-2.2-1s0.5-0.9,1.1-1.2
				c0.9-0.2,1.8-0.3,2.8-0.4c0.9-0.2,2-0.6,2.6-0.2s-2.4,1-1.4,1.6c0.3,0.2,1.9-0.9,2.4-1.2c1.2-0.6-1.2-0.9-0.9-2.2s-2.9-1-4.6-0.8
				c-0.8,0.5-1.6,1.1-2.3,1.8c0.2,0,0.4,0.1,0.5,0.2c0,0.3,0,0.6-0.2,0.9c-0.4,0.4-1,0.7-1.5,0.7c-0.1,0-0.2-0.1-0.3-0.1
				c-0.3,0.3-0.5,0.7-0.7,1c0.3-0.2,0.7-0.3,1.1-0.4c0.4-0.1,0.8,0.1,0.9,0.4s-0.9,0.7-1.1,0.8c-0.5,0.5-1.3,1.4-1.7,1.5
				c-0.1,0-0.2,0-0.3,0c-0.1,0.3-0.2,0.6-0.3,1C37.7,66.8,38.3,66.7,38.8,66.9z"/>
		</g>
		<g>
			<path class="st0" d="M55.5,84.3c0.5-0.3,1.5-1.6,3-1.5c0.5,0,0.9,0.1,1.3,0.3c0.5-0.4,1-0.8,1.5-1.2c-0.2,0-0.3-0.1-0.5-0.2
				c-0.8-0.4-0.7,0.2-1.1,0.1s0.5-1-0.7-0.3s-0.9-0.1-1.4-1.4c-0.3-1.2,0.3-2.6,1.5-3.1c0.9-0.3,1.7-0.5,2.6-0.7
				c1.8-0.4,2.1-1.5,2.4-0.8l0.2,0.3c0.1,0.3,0.2,0.6,0.2,0.9c0.3-0.7,0.5-1.4,0.6-2.2c-0.4-0.2-2-2.4-0.7-3.8c0.2-0.2-0.4-1-0.2-1
				c0.6,0,1.1,0.3,1.2,0.9c0-0.8-0.2-1.5-0.3-2.2c0,0.2,0,0.3-0.1,0.5c-0.2,0.5-0.7,0.7-1.2,0.5c-0.2-0.1-0.4-0.2-0.5-0.4
				c-0.2-0.2-0.8-0.8-0.8,0.2s1,1.1,0,1.7c-0.5,0.3-1,0.5-1.5,0.6c-0.5,0.4-0.8,1.1-0.8,1.7c0.1,0.6,1.4,2.1,0.5,2
				c-0.9-0.4-1.7-1.1-2.2-2c-0.3-0.8-0.6-1.6-0.9-2.2c-0.2-0.5-0.6-0.7-1.1-0.5c-0.1,0-0.2,0.1-0.3,0.1c-0.5,0.3,0.2,0.7-0.2,1.5
				s-0.6,1.4-1.2,0.8c-1.4-1.6-3.5-0.8-3.8-2.6c-0.2-1-1-0.9-1.7-1.4s-1.1-0.8-1.2-0.4s2.2,2.2,2.4,2.7c0.2,0.7-0.7,1.3-1.4,1.5
				s-1-0.4-1.7-1.1s-1-1.2-1-0.7c0.1,1,0.5,1.9,1.3,2.4c0.6,0.4,1.2,0.5,1,1.2s0,0.3-0.7,0.9c-0.6,0.4-0.8,1.1-0.7,1.8
				c0,0.9-0.2,1-0.3,1.7s-0.5,0.1-0.8,1.2c-0.1,0.7-0.4,1.3-0.9,1.8c-0.6,0.5-1.3,0.8-2,0.8c-0.7,0-0.8-1.8-0.7-2.7
				c0-0.3-0.5,0.6-0.7-1.3c-0.1-1.2-0.9,0.1-1-0.7s-0.4-0.7-0.8-1.2s-0.9,0-1.5,0.3s-0.3,0.4-1.1,0.1l0,0c1.7,4,5.1,7.1,9.3,8.3
				c-0.2-0.2-0.3-0.5-0.2-0.7c0.6-1,1.7-1.7,2.9-1.7C51.9,82.8,55,84.6,55.5,84.3z M62.9,75.1c-0.4,0.2-1,0.2-1.4-0.1
				c-0.4-0.3,0.2-0.8,0.5-0.8C62.5,74.2,63.2,74.8,62.9,75.1z M61,73.2c-0.1-0.4,0.2-0.6,0.5-0.4c0.3,0.2,0.6,0.5,0.7,0.8
				c0,0.2-0.6,0.2-0.7,0.1S61.1,73.5,61,73.2z M49,76.6c-0.2,0.3-0.8,2.8-1.1,2.5s0.2-2.8,0.3-3C48.8,75,50,75,49,76.6z M55,73.7
				c-0.5,0.2-1,0.2-1.4-0.1c-0.4-0.3,0.2-0.8,0.5-0.8C54.5,72.8,55.3,73.5,55,73.7z"/>
		</g>
		<g>
			<path class="st0" d="M38.3,68.5c0.8,0.1,1.6,0.3,2.4,0.6c0.8,0.3,2.2,1,2.9,0.7c0.6-0.2,1-0.5,1-1s-0.5-0.7-1.1-0.3
				c-0.2,0.2-0.6-0.9-1-0.8s0.4,1.2,0.1,1.3s-0.9-1.2-1-1.4s-0.5-0.7-1-0.3c-0.9,0.8-2.2,0.8-2.5,1c-0.1,0.1-0.2,0.1-0.3,0.2
				c-0.6,0.2-0.8-0.3-0.8-0.8c-0.2,0.8-0.4,1.6-0.5,2.4l0.1-0.1c0.5-0.9,0.6-1,0.7-1.1s0.5-0.2,0.5-0.2L38.3,68.5z"/>
		</g>
	</g>
</g>
</svg>
