<?xml version="1.0" encoding="utf-8"?>
<!-- Generator: Adobe Illustrator 22.0.1, SVG Export Plug-In . SVG Version: 6.00 Build 0)  -->
<svg version="1.1" id="Layer_1" xmlns="http://www.w3.org/2000/svg" xmlns:xlink="http://www.w3.org/1999/xlink" x="0px" y="0px"
	 viewBox="0 0 101.5 175.2" style="enable-background:new 0 0 101.5 175.2;" xml:space="preserve">
<style type="text/css">
	.st0{fill:#FFFFFF;}
	.st1{fill:#FCC30B;}
	.st2{enable-background:new    ;}
	.st3{fill:none;}
</style>
<title>TARGET 1 B copy 3</title>
<g id="WHITE_BG">
	<g>
		<rect y="0" class="st0" width="101.5" height="175.2"/>
	</g>
</g>
<g id="TARGETS">
	<g>
		<g>
			<path class="st1" d="M7.8,132.2h-1v-6.4h2.1c1.6,0,2.2,1,2.2,2c0,1-0.6,2-2.2,2H7.8V132.2z M7.8,128.9H9c0.6,0.1,1.2-0.4,1.2-1
				c0.1-0.6-0.4-1.2-1-1.2c-0.1,0-0.1,0-0.2,0H7.8V128.9z"/>
		</g>
		<g>
			<path class="st1" d="M12.6,132.2h-1v-6.4h2.1c1.6,0,2.2,0.7,2.2,1.9c0.1,0.7-0.3,1.4-1,1.7l1.3,2.8H15l-1.2-2.6h-1.3V132.2z
				 M12.6,128.7h1.3c0.9,0,1-0.5,1-1s-0.1-1-1-1h-1.3V128.7z"/>
		</g>
		<g>
			<path class="st1" d="M16.5,129c0-1.8,0.4-3.3,2.5-3.3s2.5,1.5,2.5,3.3s-0.4,3.3-2.5,3.3S16.5,130.8,16.5,129z M17.5,129
				c0,1.5,0.3,2.4,1.5,2.4s1.5-0.9,1.5-2.4s-0.3-2.4-1.5-2.4S17.5,127.5,17.5,129L17.5,129z"/>
		</g>
		<g>
			<path class="st1" d="M25.6,131.3h-0.9l-1.6-3.9v4.8h-0.9v-6.4h1.2l1.7,4.3l1.7-4.3h1.2v6.4h-1l0-4.8L25.6,131.3z"/>
		</g>
		<g>
			<path class="st1" d="M29,129c0-1.8,0.4-3.3,2.5-3.3s2.5,1.5,2.5,3.3s-0.4,3.3-2.5,3.3S29,130.8,29,129z M30,129
				c0,1.5,0.3,2.4,1.5,2.4s1.5-0.9,1.5-2.4s-0.3-2.4-1.5-2.4S29.9,127.5,30,129L30,129z"/>
		</g>
		<g>
			<path class="st1" d="M36.6,126.7v5.5h-1v-5.5H34v-0.9h4.3v0.9H36.6z"/>
		</g>
		<g>
			<path class="st1" d="M42.4,129.3h-2.6v2h2.9v0.9h-3.9v-6.4h3.9v0.9h-2.9v1.8h2.7L42.4,129.3z"/>
		</g>
		<g>
			<path class="st1" d="M48.1,130.6h-2l-0.5,1.6h-1l2-6.4h1l2,6.4h-1L48.1,130.6z M47.1,127l-0.8,2.8h1.6L47.1,127z"/>
		</g>
		<g>
			<path class="st1" d="M52.4,125.7c0.5,0,1,0.1,1.5,0.3v0.9c-0.5-0.2-0.9-0.3-1.4-0.3c-1.2,0-1.7,0.8-1.7,2.4s0.5,2.4,1.7,2.4
				c0.5,0,1-0.1,1.4-0.3v0.9c-0.5,0.2-1,0.3-1.5,0.3c-1.9,0-2.6-1.2-2.6-3.3S50.5,125.7,52.4,125.7z"/>
		</g>
		<g>
			<path class="st1" d="M57.1,125.7c0.5,0,1,0.1,1.5,0.3v0.9c-0.5-0.2-0.9-0.3-1.4-0.3c-1.2,0-1.7,0.8-1.7,2.4s0.5,2.4,1.7,2.4
				c0.5,0,1-0.1,1.4-0.3v0.9c-0.5,0.2-1,0.3-1.5,0.3c-1.9,0-2.6-1.2-2.6-3.3S55.2,125.7,57.1,125.7z"/>
		</g>
		<g>
			<path class="st1" d="M63,129.3h-2.6v2h2.9v0.9h-3.9v-6.4h3.9v0.9h-2.9v1.8H63V129.3z"/>
		</g>
		<g>
			<path class="st1" d="M68.2,130.3c0,1.2-0.7,2-2.4,2c-0.6,0-1.3-0.1-1.9-0.4V131c0.6,0.3,1.2,0.4,1.8,0.4c1.1,0,1.5-0.5,1.5-1.1
				s-0.3-0.9-1.2-1c-1.6-0.2-2.2-0.6-2.2-1.8c0-0.9,0.5-1.8,2.3-1.8c0.6,0,1.2,0.1,1.7,0.3v1c-0.5-0.2-1.1-0.3-1.7-0.3
				c-1,0-1.3,0.4-1.3,1c0,0.7,0.4,0.8,1.2,0.9C67.4,128.7,68.2,129,68.2,130.3z"/>
		</g>
		<g>
			<path class="st1" d="M73,130.3c0,1.2-0.7,2-2.4,2c-0.6,0-1.3-0.1-1.9-0.4V131c0.6,0.3,1.2,0.4,1.8,0.4c1.2,0,1.5-0.5,1.5-1.1
				s-0.3-0.9-1.2-1c-1.6-0.2-2.2-0.6-2.2-1.8c0-0.9,0.5-1.8,2.3-1.8c0.6,0,1.2,0.1,1.7,0.3v1c-0.5-0.2-1.1-0.3-1.7-0.3
				c-1,0-1.3,0.4-1.3,1c0,0.7,0.4,0.8,1.2,0.9C72.3,128.7,73,129,73,130.3z"/>
		</g>
		<g>
			<path class="st1" d="M77.3,126.7v5.5h-1v-5.5h-1.6v-0.9h4.3v0.9H77.3z"/>
		</g>
		<g>
			<path class="st1" d="M79.1,129c0-1.8,0.4-3.3,2.5-3.3s2.4,1.5,2.4,3.3c0,1.8-0.4,3.3-2.4,3.3S79.1,130.8,79.1,129z M80.1,129
				c0,1.5,0.3,2.4,1.5,2.4s1.5-0.9,1.5-2.4s-0.3-2.4-1.5-2.4S80.1,127.5,80.1,129L80.1,129z"/>
		</g>
		<g>
			<path class="st1" d="M7.8,141.2h-1v-6.4H9c1.6,0,2.2,0.7,2.2,1.9c0.1,0.7-0.3,1.4-1,1.7l1.3,2.8h-1.2l-1.1-2.6H7.8V141.2z
				 M7.8,137.7h1.3c0.9,0,1-0.5,1-1s-0.1-1-1-1H7.8V137.7z"/>
		</g>
		<g>
			<path class="st1" d="M15.7,138.3H13v2h3v0.9h-3.9v-6.4H16v0.9h-3v1.8h2.7L15.7,138.3z"/>
		</g>
		<g>
			<path class="st1" d="M21,139.3c0,1.2-0.7,2-2.4,2c-0.6,0-1.3-0.1-1.9-0.4V140c0.6,0.3,1.2,0.4,1.8,0.4c1.1,0,1.5-0.5,1.5-1.1
				s-0.3-0.9-1.2-1c-1.5-0.2-2.2-0.6-2.2-1.8c0-0.9,0.5-1.8,2.3-1.8c0.6,0,1.2,0.1,1.7,0.3v1c-0.5-0.2-1.1-0.3-1.7-0.3
				c-1,0-1.3,0.4-1.3,1s0.4,0.8,1.2,0.9C20.2,137.7,21,138,21,139.3z"/>
		</g>
		<g>
			<path class="st1" d="M25.4,138.3h-2.7v2h2.9v0.9h-3.9v-6.4h3.9v0.9h-2.9v1.8h2.7V138.3z"/>
		</g>
		<g>
			<path class="st1" d="M29.6,139.6h-2l-0.5,1.6h-1l2-6.4h1l2,6.4H30L29.6,139.6z M28.6,136l-0.8,2.8h1.6L28.6,136z"/>
		</g>
		<g>
			<path class="st1" d="M32.5,141.2h-1v-6.4h2.1c1.7,0,2.2,0.7,2.2,1.9c0.1,0.7-0.3,1.4-1,1.7l1.3,2.8H35l-1.2-2.6h-1.3V141.2z
				 M32.5,137.7h1.3c0.9,0,1-0.5,1-1s-0.1-1-1-1h-1.3V137.7z"/>
		</g>
		<g>
			<path class="st1" d="M39.2,134.7c0.5,0,1,0.1,1.5,0.3v0.9c-0.4-0.2-0.9-0.3-1.4-0.3c-1.2,0-1.7,0.8-1.7,2.4s0.5,2.4,1.7,2.4
				c0.5,0,1-0.1,1.4-0.3v0.9c-0.5,0.2-1,0.3-1.5,0.3c-1.9,0-2.6-1.2-2.6-3.3S37.3,134.7,39.2,134.7z"/>
		</g>
		<g>
			<path class="st1" d="M45,141.2v-2.9h-2.6v2.9h-1v-6.4h1v2.6h2.6v-2.6h1v6.4H45z"/>
		</g>
		<g>
			<path class="st1" d="M47.8,140.3l-0.7,2h-0.7l0.2-2H47.8z"/>
		</g>
		<g>
			<path class="st1" d="M9.2,144.7v5.5h-1v-5.5H6.6v-0.9h4.3v0.9H9.2z"/>
		</g>
		<g>
			<path class="st1" d="M15,147.3h-2.6v2h2.9v0.9h-3.9v-6.4h3.9v0.9h-2.9v1.8H15V147.3z"/>
		</g>
		<g>
			<path class="st1" d="M18.5,143.7c0.5,0,1,0.1,1.5,0.3v0.9c-0.5-0.2-0.9-0.3-1.4-0.3c-1.2,0-1.7,0.8-1.7,2.4s0.5,2.4,1.7,2.4
				c0.5,0,1-0.1,1.4-0.3v0.9c-0.5,0.2-1,0.3-1.5,0.3c-1.9,0-2.6-1.2-2.6-3.3S16.6,143.7,18.5,143.7z"/>
		</g>
		<g>
			<path class="st1" d="M24.4,150.2v-2.9h-2.6v2.9h-1v-6.4h1v2.6h2.6v-2.6h1v6.4H24.4z"/>
		</g>
		<g>
			<path class="st1" d="M30,150.2l-2.8-4.5v4.5h-0.9v-6.4h0.9l2.9,4.5v-4.5h0.9v6.4H30z"/>
		</g>
		<g>
			<path class="st1" d="M31.6,147c0-1.8,0.4-3.3,2.5-3.3s2.5,1.5,2.5,3.3s-0.4,3.3-2.5,3.3S31.6,148.8,31.6,147z M32.6,147
				c0,1.5,0.3,2.4,1.5,2.4s1.5-0.9,1.5-2.4s-0.3-2.4-1.5-2.4S32.6,145.5,32.6,147L32.6,147z"/>
		</g>
		<g>
			<path class="st1" d="M38.2,149.3H41v0.9h-3.7v-6.4h1L38.2,149.3z"/>
		</g>
		<g>
			<path class="st1" d="M41,147c0-1.8,0.4-3.3,2.5-3.3s2.5,1.5,2.5,3.3s-0.4,3.3-2.5,3.3S41,148.8,41,147z M42,147
				c0,1.5,0.3,2.4,1.5,2.4s1.5-0.9,1.5-2.4s-0.3-2.4-1.5-2.4S42,145.5,42,147z"/>
		</g>
		<g>
			<path class="st1" d="M46.6,147c0-2,0.7-3.3,2.6-3.3c0.6,0,1.3,0.1,1.8,0.3v1c-0.5-0.2-1.1-0.4-1.7-0.4c-1.3,0-1.8,0.9-1.8,2.4
				s0.5,2.4,1.8,2.4c0.3,0,0.6,0,0.9-0.1v-1.7h-1.1v-0.9h2.1v3.2c-0.6,0.3-1.3,0.4-2,0.4C47.3,150.3,46.6,149,46.6,147z"/>
		</g>
		<g>
			<path class="st1" d="M54.6,147.6v2.6h-1v-2.6l-2.2-3.8h1.1l1.6,3l1.6-3h1.1L54.6,147.6z"/>
		</g>
		<g>
			<path class="st1" d="M61.8,148.6h-2l-0.5,1.6h-1l2-6.4h1l2,6.4h-1L61.8,148.6z M60.8,145l-0.8,2.8h1.6L60.8,145z"/>
		</g>
		<g>
			<path class="st1" d="M67.5,150.2l-2.8-4.5v4.5h-0.9v-6.4h0.9l2.8,4.5v-4.5h0.9v6.4H67.5z"/>
		</g>
		<g>
			<path class="st1" d="M69.4,150.2v-6.4h1.9c2.1,0,2.7,1.4,2.7,3.2s-0.6,3.2-2.7,3.2H69.4z M70.4,149.3h1c1.3,0,1.7-0.9,1.7-2.3
				s-0.4-2.3-1.7-2.3h-1V149.3z"/>
		</g>
		<g>
			<path class="st1" d="M7,159.2v-6.4h1v6.4H7z"/>
		</g>
		<g>
			<path class="st1" d="M12.8,159.2l-2.8-4.5v4.5H9.1v-6.4h0.9l2.8,4.5v-4.5h0.9v6.4H12.8z"/>
		</g>
		<g>
			<path class="st1" d="M19.1,152.8l-2,6.4h-1l-2-6.4h1l1.5,5.2l1.5-5.2L19.1,152.8z"/>
		</g>
		<g>
			<path class="st1" d="M23.3,156.3h-2.7v2h2.9v0.9h-3.9v-6.4h3.9v0.9h-2.9v1.8h2.6L23.3,156.3z"/>
		</g>
		<g>
			<path class="st1" d="M28.6,157.3c0,1.2-0.7,2-2.4,2c-0.6,0-1.3-0.1-1.9-0.4V158c0.6,0.3,1.2,0.4,1.8,0.4c1.1,0,1.5-0.5,1.5-1.1
				s-0.3-0.9-1.2-1c-1.5-0.2-2.1-0.6-2.1-1.8c0-0.9,0.5-1.8,2.3-1.8c0.6,0,1.2,0.1,1.7,0.3v1c-0.5-0.2-1.1-0.3-1.7-0.3
				c-1,0-1.3,0.4-1.3,1s0.4,0.8,1.2,0.9C27.8,155.7,28.6,156,28.6,157.3z"/>
		</g>
		<g>
			<path class="st1" d="M31.3,153.7v5.5h-1v-5.5h-1.7v-0.9H33v0.9H31.3z"/>
		</g>
		<g>
			<path class="st1" d="M36.9,158.3H36l-1.6-3.9l0,4.8h-1v-6.4h1.2l1.7,4.3l1.7-4.3h1.2v6.4h-1v-4.8L36.9,158.3z"/>
		</g>
		<g>
			<path class="st1" d="M44,156.3h-2.7v2h2.9v0.9h-3.9v-6.4h3.9v0.9h-2.9v1.8H44V156.3z"/>
		</g>
		<g>
			<path class="st1" d="M48.8,159.2l-2.8-4.5v4.5h-1v-6.4h0.9l2.8,4.5v-4.5h1v6.4H48.8z"/>
		</g>
		<g>
			<path class="st1" d="M52.8,153.7v5.5h-1v-5.5h-1.7v-0.9h4.3v0.9H52.8z"/>
		</g>
		<g>
			<path class="st1" d="M59.1,157.3c0,1.2-0.7,2-2.4,2c-0.6,0-1.3-0.1-1.9-0.4V158c0.6,0.3,1.2,0.4,1.8,0.4c1.1,0,1.5-0.5,1.5-1.1
				s-0.3-0.9-1.2-1c-1.6-0.2-2.2-0.6-2.2-1.8c0-0.9,0.5-1.8,2.3-1.8c0.6,0,1.2,0.1,1.7,0.3v1c-0.5-0.2-1.1-0.3-1.7-0.3
				c-1,0-1.3,0.4-1.3,1s0.4,0.8,1.2,0.9C58.3,155.7,59.1,156,59.1,157.3z"/>
		</g>
		<g>
			<path class="st1" d="M61.4,159.2v-6.4h1v6.4H61.4z"/>
		</g>
		<g>
			<path class="st1" d="M67.2,159.2l-2.8-4.5v4.5h-1v-6.4h0.9l2.8,4.5v-4.5H68v6.4H67.2z"/>
		</g>
		<g>
			<path class="st1" d="M9.4,161.7c0.5,0,1,0.1,1.5,0.3v0.9c-0.5-0.2-0.9-0.3-1.4-0.3c-1.2,0-1.7,0.8-1.7,2.4s0.5,2.4,1.7,2.4
				c0.5,0,1-0.1,1.4-0.3v0.9c-0.5,0.2-1,0.3-1.5,0.3c-1.9,0-2.6-1.2-2.6-3.3S7.5,161.7,9.4,161.7z"/>
		</g>
		<g>
			<path class="st1" d="M12.8,167.3h2.8v0.9h-3.7v-6.4h1L12.8,167.3z"/>
		</g>
		<g>
			<path class="st1" d="M19.6,165.3H17v2h2.9v0.9H16v-6.4h3.9v0.9H17v1.8h2.6L19.6,165.3z"/>
		</g>
		<g>
			<path class="st1" d="M23.9,166.6h-2l-0.5,1.6h-1l2-6.4h1l2,6.4h-1L23.9,166.6z M22.9,163l-0.9,2.8h1.6L22.9,163z"/>
		</g>
		<g>
			<path class="st1" d="M29.5,168.2l-2.8-4.5v4.5h-1v-6.4h0.9l2.8,4.5v-4.5h0.9v6.4H29.5z"/>
		</g>
		<g>
			<path class="st1" d="M36.3,165.3h-2.7v2h2.9v0.9h-3.9v-6.4h3.9v0.9h-2.9v1.8h2.7V165.3z"/>
		</g>
		<g>
			<path class="st1" d="M41.1,168.2l-2.8-4.5v4.5h-0.9v-6.4h0.9l2.8,4.5v-4.5H42v6.4H41.1z"/>
		</g>
		<g>
			<path class="st1" d="M46.5,165.3h-2.6v2h2.9v0.9H43v-6.4h3.9v0.9h-3v1.8h2.7L46.5,165.3z"/>
		</g>
		<g>
			<path class="st1" d="M48.6,168.2h-1v-6.4h2.1c1.7,0,2.2,0.7,2.2,1.9c0.1,0.7-0.3,1.4-1,1.7l1.3,2.8h-1.1l-1.2-2.6h-1.3V168.2z
				 M48.6,164.7h1.2c0.9,0,1-0.5,1-1s-0.1-1-1-1h-1.2V164.7z"/>
		</g>
		<g>
			<path class="st1" d="M52.6,165c0-2,0.7-3.3,2.6-3.3c0.6,0,1.3,0.1,1.8,0.3v1c-0.5-0.2-1.1-0.4-1.7-0.4c-1.3,0-1.8,0.9-1.8,2.4
				s0.5,2.4,1.8,2.4c0.3,0,0.6,0,0.9-0.1v-1.7h-1.1v-0.9h2.1v3.2c-0.6,0.3-1.3,0.4-2,0.4C53.3,168.3,52.6,167,52.6,165z"/>
		</g>
		<g>
			<path class="st1" d="M60.7,165.6v2.6h-1v-2.6l-2.2-3.8h1.1l1.6,3l1.6-3h1.1L60.7,165.6z"/>
		</g>
	</g>
	<g>
		<rect x="3.3" y="24" class="st1" width="94.8" height="94.8"/>
	</g>
	<g>
		<path class="st1" d="M98.2,20.7H3.3V3.3h94.8V20.7z M4.3,19.7h92.8V4.3H4.3L4.3,19.7z"/>
	</g>
	<g class="st2">
		<path class="st1" d="M6.7,6.9h4.5v1.4H9.9v8.8H8.1V8.3H6.7V6.9z"/>
	</g>
	<g class="st2">
		<path class="st1" d="M11.2,17.1l1.9-10.2h1.9L17,17.1h-1.8l-0.3-1.9h-1.8l-0.3,1.9H11.2z M13.3,13.9h1.4L14,9.8h0L13.3,13.9z"/>
	</g>
	<g class="st2">
		<path class="st1" d="M19.6,12.4v4.7h-1.7V6.9h2.5c1.7,0,2.4,0.9,2.4,2.3v1.3c0,1.1-0.4,1.7-1.4,2l1.6,4.6h-1.8L19.6,12.4z
			 M19.6,8.3v3.2h0.6c0.6,0,0.8-0.3,0.8-0.8V9.2c0-0.6-0.3-0.8-0.8-0.8H19.6z"/>
	</g>
	<g class="st2">
		<path class="st1" d="M26.4,11.7h2.4v5.4h-1.2V16c-0.2,0.8-0.7,1.2-1.6,1.2c-1.5,0-2.1-1.2-2.1-2.7V9.6c0-1.6,0.8-2.7,2.6-2.7
			c1.9,0,2.4,1.1,2.4,2.6v0.9h-1.6v-1c0-0.6-0.2-1-0.9-1c-0.6,0-0.9,0.4-0.9,1v5.5c0,0.6,0.3,1,0.8,1c0.6,0,0.8-0.3,0.8-1V13h-0.8
			V11.7z"/>
	</g>
	<g class="st2">
		<path class="st1" d="M30.2,6.9h4.1v1.4h-2.4v2.9h1.7v1.4h-1.7v3.1h2.4v1.4h-4.1V6.9z"/>
	</g>
	<g class="st2">
		<path class="st1" d="M35.1,6.9h4.5v1.4h-1.4v8.8h-1.7V8.3h-1.4V6.9z"/>
	</g>
	<g class="st2">
		<path class="st1" d="M88.8,17.1l1.9-10.2h1.9l1.9,10.2h-1.8l-0.3-1.9h-1.8l-0.3,1.9H88.8z M90.9,13.9h1.4l-0.7-4.1h0L90.9,13.9z"
			/>
	</g>
	<g class="st2">
		<path class="st1" d="M78.9,6.9h4.3v1.6L81,17.1h-1.7l2.3-8.8h-2.6V6.9z"/>
	</g>
	<g>
		<polygon class="st1" points="85.4,9.9 85.4,14.1 87.6,12 		"/>
	</g>
	<g>
		<path class="st1" d="M98.2,171.9h-95v-49.7h95V171.9z M4.2,170.9h93v-47.7h-93V170.9z"/>
	</g>
	<g>
		<g>
			<path class="st0" d="M15.4,106.6H7.3v-2h8.1c0.6,0.1,1.3-0.2,1.7-0.6c0.4-0.4,0.6-0.9,0.6-1.5v-2.8h2v2.8c0,1.1-0.4,2.1-1.1,2.9
				C17.8,106.2,16.6,106.7,15.4,106.6z"/>
		</g>
		<g>
			<path class="st3" d="M18.7,94.2c-1.1,0-1.9,0.9-1.9,1.9c0,1.1,0.9,1.9,1.9,1.9c1.1,0,1.9-0.9,1.9-1.9c0,0,0,0,0,0
				C20.7,95.1,19.8,94.2,18.7,94.2C18.7,94.2,18.7,94.2,18.7,94.2z"/>
		</g>
		<g>
			<path class="st3" d="M35,38.9c1.1,0,1.9-0.8,1.9-1.9c0-1.1-0.8-1.9-1.9-1.9c-1.1,0-1.9,0.8-1.9,1.9C33.1,38.1,33.9,38.9,35,38.9
				C35,38.9,35,38.9,35,38.9z"/>
		</g>
		<g>
			<circle class="st3" cx="84.8" cy="47.3" r="1.9"/>
		</g>
		<g>
			<path class="st3" d="M75.3,101.5c0,1.1,0.9,1.9,1.9,1.9s1.9-0.9,1.9-1.9c0-1.1-0.9-1.9-1.9-1.9c0,0,0,0,0,0
				C76.1,99.6,75.3,100.4,75.3,101.5C75.3,101.5,75.3,101.5,75.3,101.5z"/>
		</g>
		<g>
			<path class="st3" d="M50.8,68.5c0.4,0,0.8-0.3,0.8-0.8v-3.9c0-0.4-0.4-0.8-0.8-0.8c-0.4,0-0.8,0.3-0.8,0.8v3.9
				C50,68.1,50.3,68.5,50.8,68.5z"/>
		</g>
		<g>
			<path class="st3" d="M52.5,65v2.2c1.9,1,2.6,3.3,1.7,5.1S50.9,74.9,49,74s-2.6-3.3-1.7-5.1c0.4-0.7,1-1.3,1.7-1.7V65
				c-3.1,1-4.8,4.2-3.8,7.3s4.2,4.8,7.3,3.8s4.8-4.2,3.8-7.3C55.7,67,54.3,65.6,52.5,65z"/>
		</g>
		<g>
			<path class="st0" d="M50.8,59.4c-6.2,0-11.2,5-11.2,11.2c0,6.2,5,11.2,11.2,11.2c6.2,0,11.2-5,11.2-11.2
				C62,64.4,57,59.4,50.8,59.4C50.8,59.4,50.8,59.4,50.8,59.4z M49.9,63.8c0-0.4,0.4-0.8,0.8-0.8c0.4,0,0.8,0.3,0.8,0.8v3.9
				c0,0.4-0.4,0.8-0.8,0.8c-0.4,0-0.8-0.3-0.8-0.8V63.8z M50.8,76.4c-3.2,0-5.8-2.7-5.8-5.9c0-2.5,1.6-4.7,4-5.5v2.2
				c-1.9,1-2.6,3.2-1.7,5.1c1,1.9,3.2,2.6,5.1,1.7s2.6-3.2,1.7-5.1c-0.4-0.7-0.9-1.3-1.7-1.7V65c3.1,1,4.8,4.2,3.8,7.3
				C55.6,74.7,53.3,76.4,50.8,76.4L50.8,76.4z"/>
		</g>
		<g>
			<path class="st0" d="M31.3,70.5c0,0.5,0.4,0.9,0.9,0.9H37c0.5,0,0.9-0.4,0.9-0.9c0-0.5-0.4-0.9-0.9-0.9h-4.9
				C31.7,69.6,31.3,70,31.3,70.5z"/>
		</g>
		<g>
			<path class="st0" d="M70.3,70.5c0-0.5-0.4-0.9-0.9-0.9h-4.9c-0.5,0-0.9,0.4-0.9,0.9c0,0.5,0.4,0.9,0.9,0.9h4.9
				C69.9,71.4,70.3,71,70.3,70.5z"/>
		</g>
		<g>
			<path class="st0" d="M51.7,56.8v-4.9c-0.1-0.5-0.5-0.9-1-0.8c-0.4,0-0.8,0.4-0.8,0.8v4.9c0.1,0.5,0.5,0.9,1,0.8
				C51.3,57.6,51.7,57.2,51.7,56.8z"/>
		</g>
		<g>
			<path class="st0" d="M49.8,84.3v4.9c0.1,0.5,0.5,0.9,1,0.8c0.4,0,0.8-0.4,0.8-0.8v-4.9c-0.1-0.5-0.5-0.9-1-0.8
				C50.2,83.5,49.9,83.8,49.8,84.3z"/>
		</g>
		<g>
			<path class="st0" d="M38.4,64.5c0.4,0.2,1,0,1.2-0.4c0.2-0.4,0.1-0.9-0.3-1.2l-4.3-2.4c-0.4-0.2-1-0.1-1.2,0.4
				c-0.2,0.4-0.1,0.9,0.3,1.2L38.4,64.5z"/>
		</g>
		<g>
			<path class="st0" d="M62.2,78.1l4.3,2.4c0.4,0.3,1,0.1,1.3-0.3c0.3-0.4,0.1-1-0.3-1.3l-4.3-2.4c-0.4-0.3-1-0.1-1.3,0.3
				C61.6,77.3,61.8,77.9,62.2,78.1z"/>
		</g>
		<g>
			<path class="st0" d="M57.2,59.4c0.4,0.2,0.9,0.1,1.2-0.3l2.4-4.3c0.2-0.4,0-1-0.4-1.2c-0.4-0.2-0.9-0.1-1.2,0.3l-2.4,4.3
				C56.6,58.6,56.7,59.1,57.2,59.4z"/>
		</g>
		<g>
			<path class="st0" d="M43.2,82l-2.4,4.3c-0.2,0.4,0,1,0.4,1.2c0.4,0.2,0.9,0.1,1.2-0.3l2.4-4.3c0.2-0.4,0.1-1-0.4-1.2
				C44,81.5,43.4,81.6,43.2,82z"/>
		</g>
		<g>
			<path class="st0" d="M44.4,59.4c0.4-0.2,0.6-0.8,0.4-1.2l-2.4-4.2c-0.3-0.4-0.8-0.6-1.3-0.3s-0.6,0.8-0.3,1.3l2.4,4.2
				C43.4,59.5,43.9,59.6,44.4,59.4z"/>
		</g>
		<g>
			<path class="st0" d="M57.2,81.7c-0.4,0.3-0.6,0.8-0.4,1.2l2.5,4.2c0.3,0.4,0.8,0.5,1.3,0.3c0.4-0.3,0.5-0.8,0.3-1.2L58.4,82
				C58.1,81.6,57.6,81.5,57.2,81.7z"/>
		</g>
		<g>
			<path class="st0" d="M63.1,64.5l4.3-2.5c0.4-0.3,0.5-0.8,0.3-1.3c-0.3-0.4-0.8-0.5-1.2-0.3l-4.2,2.4c-0.4,0.3-0.6,0.8-0.3,1.3
				C62.1,64.5,62.7,64.7,63.1,64.5L63.1,64.5L63.1,64.5z"/>
		</g>
		<g>
			<path class="st0" d="M35.1,80.6l4.2-2.4c0.4-0.3,0.6-0.8,0.3-1.3c-0.3-0.4-0.8-0.6-1.3-0.3l0,0L34.2,79c-0.4,0.3-0.5,0.8-0.3,1.3
				C34.2,80.7,34.7,80.8,35.1,80.6L35.1,80.6z"/>
		</g>
		<g>
			<path class="st0" d="M76.7,48.3H81c0.6,2.1,2.7,3.3,4.8,2.8c1.4-0.4,2.4-1.4,2.8-2.8h5.3v-2h-5.4c-0.4-1.4-1.4-2.4-2.8-2.8
				c0-0.6,0-1.8,0-2c0-0.9,0-2.6,0.9-3.5c0.5-0.5,1.2-0.7,1.9-0.7h5.3v-2h-5.3c-1.2-0.1-2.5,0.4-3.4,1.2c-1.5,1.5-1.5,3.7-1.5,4.9v2
				c-1.3,0.4-2.4,1.4-2.8,2.8h-4.3c-3,0-5.5-2.4-5.5-5.5V28h-2v12.9C69.3,45,72.6,48.3,76.7,48.3z M84.7,45.4c1.1,0,1.9,0.9,1.9,1.9
				c0,1.1-0.9,1.9-1.9,1.9s-1.9-0.9-1.9-1.9v0C82.8,46.3,83.7,45.4,84.7,45.4C84.7,45.4,84.7,45.4,84.7,45.4L84.7,45.4z"/>
		</g>
		<g>
			<path class="st0" d="M7.4,37.6L7.4,37.6l5.1,3.9l0,0l0,0c0,0,0.1,0.1,0.2,0.1c0.1,0,0.2-0.1,0.2-0.2l0,0l0,0v-3.2l18.4-0.1
				c0.4,1.3,1.4,2.3,2.8,2.7h0.1v-0.4h2v0.3c1.3-0.4,2.3-1.4,2.6-2.7h7.6c0.9,0,1.8,0.4,2.5,1c0.6,0.7,0.9,1.6,0.9,2.5v7.2h2v-7.2
				c0.1-1.5-0.5-2.9-1.5-4c-1.1-1-2.5-1.5-4-1.5h-7.5c-0.3-1.3-1.4-2.4-2.7-2.8l0-5.2h-2v5.2c-1.5,0.3-2.6,1.5-2.9,2.9H13v-2.8
				c0-0.1-0.1-0.2-0.2-0.2c0,0,0,0,0,0c0,0-0.1,0-0.1,0l0,0l-5.2,4v0c-0.1,0.1-0.1,0.1-0.1,0.2C7.3,37.5,7.3,37.5,7.4,37.6L7.4,37.6
				z M35,35.1c1.1,0,1.9,0.8,1.9,1.9c0,1.1-0.8,1.9-1.9,1.9c-1.1,0-1.9-0.8-1.9-1.9c0,0,0,0,0,0C33.1,36,34,35.1,35,35.1z"/>
		</g>
		<g>
			<rect x="17.7" y="80.3" class="st0" width="2" height="2"/>
		</g>
		<g>
			<rect x="17.7" y="88.3" class="st0" width="2" height="2"/>
		</g>
		<g>
			<rect x="17.7" y="76.3" class="st0" width="2" height="2"/>
		</g>
		<g>
			<rect x="17.7" y="84.3" class="st0" width="2" height="2"/>
		</g>
		<g>
			<path class="st0" d="M94.1,84.4L94.1,84.4L94.1,84.4L89,80.4l0,0l0,0c0,0-0.1-0.1-0.2-0.1c-0.1,0-0.2,0.1-0.2,0.2l0,0l0,0v3.2
				h-6.9c-1.4-0.1-2.8,0.3-3.9,1.3c-1.1,1.1-1.7,2.6-1.6,4.2v8.5c-1.4,0.4-2.4,1.4-2.8,2.8H55.2c-1.8,0-3.3-1.4-3.4-3.2v-5.2h-2v5.2
				c0.1,2.9,2.5,5.2,5.4,5.2h18.3c0.4,1.4,1.4,2.4,2.8,2.8v9.5h2v-9.5c1.4-0.4,2.4-1.4,2.8-2.8h12.9v-2H81c-0.4-1.4-1.4-2.4-2.8-2.8
				v-8.5c-0.1-1,0.3-2,0.9-2.7c0.7-0.6,1.6-0.8,2.5-0.8h6.9v2.8c0,0.1,0.1,0.2,0.2,0.2c0,0,0,0,0,0c0,0,0.1,0,0.2,0l0,0l5.1-4l0,0
				c0.1-0.1,0.1-0.1,0.1-0.2C94.1,84.5,94.1,84.4,94.1,84.4z M79.1,101.5c0,1.1-0.9,1.9-1.9,1.9c-1.1,0-1.9-0.9-1.9-1.9
				c0-1.1,0.9-1.9,1.9-1.9l0,0C78.3,99.6,79.1,100.4,79.1,101.5C79.1,101.5,79.1,101.5,79.1,101.5L79.1,101.5z"/>
		</g>
		<g>
			<path class="st0" d="M44.7,109h-2.9v-9.6c0-2.5-2-4.6-4.6-4.6H22.4c-0.4-1.2-1.4-2.2-2.7-2.5c-0.7-0.2-1.3-0.2-2,0
				c-1.2,0.3-2.2,1.3-2.7,2.5H7.3v2h7.6c0.3,1.5,1.4,2.7,2.8,3.1c0.7,0.2,1.3,0.2,2,0c1.5-0.4,2.6-1.6,2.9-3.1h14.6
				c1.4,0,2.6,1.2,2.6,2.6v9.6h-3.1c-0.1,0-0.2,0.1-0.2,0.3c0,0,0,0.1,0,0.1l0,0l4,5.1h0c0.1,0,0.1,0.1,0.2,0.1c0.1,0,0.1,0,0.2,0
				l0,0h0l3.8-5.1l0,0l0,0c0,0,0.1-0.1,0.1-0.2C44.8,109.2,44.8,109.1,44.7,109z M18.7,98c-1.1,0-1.9-0.9-1.9-1.9s0.9-1.9,1.9-1.9
				s1.9,0.9,1.9,1.9l0,0C20.7,97.1,19.8,98,18.7,98C18.8,98,18.7,98,18.7,98L18.7,98z"/>
		</g>
		<g>
			
				<rect x="83.8" y="60.1" transform="matrix(4.886881e-03 -1 1 4.886881e-03 23.1402 145.5532)" class="st0" width="1.9" height="2"/>
		</g>
		<g>
			
				<rect x="83.8" y="56.4" transform="matrix(4.886881e-03 -1 1 4.886881e-03 26.9086 141.8233)" class="st0" width="1.9" height="2"/>
		</g>
		<g>
			
				<rect x="83.8" y="52.6" transform="matrix(4.886881e-03 -1 1 4.886881e-03 30.6769 138.1134)" class="st0" width="1.9" height="2"/>
		</g>
		<g>
			<path class="st0" d="M77.8,74.4v-2.8h3.8c2.2,0,4.1-1.8,4.1-4.1V65l0,0v-1h-2v3.6c0,1.1-0.9,2.1-2.1,2.1h-3.8v-3.2
				c0-0.1-0.1-0.2-0.2-0.2c0,0-0.1,0-0.2,0l0,0l-5.1,4h-0.1c0,0.1-0.1,0.1-0.1,0.2c0,0.1,0,0.1,0,0.2l0,0l0,0l5.1,3.9l0,0l0,0
				c0,0,0.1,0.1,0.2,0.1c0.1,0,0.2-0.1,0.2-0.2l0,0l0,0L77.8,74.4z"/>
		</g>
		<g>
			<path class="st0" d="M34.1,40.8v4.3c0,0.5-0.2,1.1-0.6,1.5c-0.5,0.4-1.1,0.6-1.7,0.6h-8.1c-1.5,0-3,0.5-4.2,1.5
				c-1.2,1.2-1.9,2.8-1.8,4.5v13.6c-1.3,0.4-2.4,1.4-2.7,2.7H7.3v2H15c0.4,1.4,1.4,2.4,2.8,2.8c0.7,0.2,1.3,0.2,2,0
				c1.4-0.4,2.4-1.4,2.8-2.8h6.9v-2h-6.9c-0.4-1.3-1.4-2.4-2.8-2.8V53.1c-0.1-1.1,0.3-2.2,1.1-3c0.8-0.7,1.9-1,2.9-1h8.1
				c2.2,0.2,4.1-1.5,4.3-3.7c0-0.1,0-0.3,0-0.4v-4.3c0,0,0,0-0.1,0C35.4,40.9,34.8,40.9,34.1,40.8z M20.6,70.5
				c0,1.1-0.9,1.9-1.9,1.9c-1.1,0-1.9-0.9-1.9-1.9c0-1.1,0.9-1.9,1.9-1.9h0C19.8,68.6,20.6,69.4,20.6,70.5z"/>
		</g>
		<g>
			<path class="st0" d="M34.1,40.4v0.4c0.6,0.1,1.3,0.1,1.9,0c0,0,0,0,0.1,0v-0.3L34.1,40.4z"/>
		</g>
	</g>
</g>
</svg>
