<?xml version="1.0" encoding="utf-8"?>
<!-- Generator: Adobe Illustrator 22.0.1, SVG Export Plug-In . SVG Version: 6.00 Build 0)  -->
<svg version="1.1" id="Layer_1" xmlns="http://www.w3.org/2000/svg" xmlns:xlink="http://www.w3.org/1999/xlink" x="0px" y="0px"
	 viewBox="0 0 101.5 148.2" style="enable-background:new 0 0 101.5 148.2;" xml:space="preserve">
<style type="text/css">
	.st0{fill:#FFFFFF;}
	.st1{fill:#FCC30B;}
	.st2{enable-background:new    ;}
</style>
<title>TARGET 1.1</title>
<g id="WHITE_BG">
	<g>
		<rect y="0" class="st0" width="101.5" height="148.2"/>
	</g>
</g>
<g id="TARGETS">
	<g>
		<g>
			<path class="st1" d="M6.8,130.2v-4.4h1v4.3c-0.1,0.6,0.4,1.2,1,1.3c0.1,0,0.2,0,0.3,0c0.6,0.1,1.2-0.3,1.4-1c0-0.1,0-0.2,0-0.3
				v-4.3h1v4.4c0,1.1-0.8,2.1-2,2.1c-0.1,0-0.2,0-0.3,0c-1.1,0.2-2.1-0.5-2.4-1.5C6.8,130.6,6.8,130.4,6.8,130.2z"/>
		</g>
		<g>
			<path class="st1" d="M16.1,132.2l-2.8-4.5v4.5h-0.9v-6.4h0.9l2.8,4.5v-4.5h1v6.4L16.1,132.2z"/>
		</g>
		<g>
			<path class="st1" d="M18,132.2v-6.4h1v6.4H18z"/>
		</g>
		<g>
			<path class="st1" d="M24.6,125.8l-2,6.5h-1l-2-6.5h1l1.5,5.2l1.5-5.2L24.6,125.8z"/>
		</g>
		<g>
			<path class="st1" d="M28.8,129.3h-2.6v2H29v0.9h-3.8v-6.4H29v0.9h-2.9v1.8h2.6V129.3z"/>
		</g>
		<g>
			<path class="st1" d="M30.8,132.2h-1v-6.4H32c1.6,0,2.2,0.7,2.2,1.9c0.1,0.7-0.3,1.4-1,1.7l1.3,2.8h-1.2l-1.2-2.6h-1.3V132.2z
				 M30.8,128.7h1.3c0.9,0,1-0.5,1-1s-0.1-1-1-1h-1.3V128.7z"/>
		</g>
		<g>
			<path class="st1" d="M39.2,130.3c0,1.2-0.7,2-2.4,2c-0.6,0-1.3-0.1-1.9-0.4v-1c0.6,0.3,1.2,0.4,1.8,0.4c1.1,0,1.5-0.5,1.5-1.1
				s-0.3-0.9-1.2-1c-1.6-0.2-2.2-0.6-2.2-1.8c0-0.9,0.5-1.8,2.3-1.8c0.6,0,1.2,0.1,1.7,0.3v1c-0.5-0.2-1.1-0.3-1.7-0.3
				c-1,0-1.3,0.4-1.3,1s0.4,0.8,1.2,0.9C38.5,128.7,39.2,129,39.2,130.3z"/>
		</g>
		<g>
			<path class="st1" d="M43,130.6h-2l-0.5,1.6h-1l2-6.4h1l2,6.4h-1L43,130.6z M42,127l-0.8,2.8h1.6L42,127z"/>
		</g>
		<g>
			<path class="st1" d="M45.9,131.3h2.8v0.9H45v-6.4h1L45.9,131.3z"/>
		</g>
		<g>
			<path class="st1" d="M53.9,130.6h-2l-0.5,1.6h-1l2-6.4h1l2,6.4h-1L53.9,130.6z M52.9,127l-0.8,2.8h1.6L52.9,127z"/>
		</g>
		<g>
			<path class="st1" d="M58.2,125.7c0.5,0,1,0.1,1.5,0.3v0.9c-0.5-0.2-0.9-0.3-1.4-0.3c-1.2,0-1.7,0.8-1.7,2.4
				c0,1.6,0.5,2.4,1.7,2.4c0.5,0,1-0.1,1.4-0.3v0.9c-0.5,0.2-1,0.3-1.5,0.3c-1.9,0-2.6-1.2-2.6-3.3S56.3,125.7,58.2,125.7z"/>
		</g>
		<g>
			<path class="st1" d="M63,125.7c0.5,0,1,0.1,1.5,0.3v0.9c-0.5-0.2-0.9-0.3-1.4-0.3c-1.2,0-1.7,0.8-1.7,2.4c0,1.6,0.5,2.4,1.7,2.4
				c0.5,0,1-0.1,1.4-0.3v0.9c-0.5,0.2-1,0.3-1.5,0.3c-1.9,0-2.6-1.2-2.6-3.3S61.1,125.7,63,125.7z"/>
		</g>
		<g>
			<path class="st1" d="M68.9,129.3h-2.7v2h2.9v0.9h-3.9v-6.4h3.9v0.9h-2.9v1.8h2.7V129.3z"/>
		</g>
		<g>
			<path class="st1" d="M74.2,130.3c0,1.2-0.7,2-2.4,2c-0.6,0-1.3-0.1-1.9-0.3v-1c0.6,0.3,1.2,0.4,1.8,0.4c1.2,0,1.5-0.5,1.5-1.1
				s-0.3-0.9-1.2-1c-1.6-0.2-2.2-0.6-2.2-1.8c0-0.9,0.5-1.8,2.3-1.8c0.6,0,1.2,0.1,1.7,0.3v1c-0.5-0.2-1.1-0.3-1.7-0.3
				c-1,0-1.3,0.4-1.3,1s0.4,0.8,1.2,0.9C73.4,128.7,74.2,129,74.2,130.3z"/>
		</g>
		<g>
			<path class="st1" d="M79.1,130.3c0,1.2-0.7,2-2.4,2c-0.6,0-1.3-0.1-1.9-0.4v-1c0.6,0.3,1.2,0.4,1.8,0.4c1.2,0,1.5-0.5,1.5-1.1
				s-0.3-0.9-1.2-1c-1.6-0.2-2.2-0.6-2.2-1.8c0-0.9,0.5-1.8,2.3-1.8c0.6,0,1.2,0.1,1.7,0.3v1c-0.5-0.2-1.1-0.3-1.7-0.3
				c-1,0-1.3,0.4-1.3,1s0.4,0.8,1.2,0.9C78.3,128.7,79.1,129,79.1,130.3z"/>
		</g>
		<g>
			<path class="st1" d="M83.3,126.7v5.5h-1v-5.5h-1.6v-0.9h4.3v0.9L83.3,126.7z"/>
		</g>
		<g>
			<path class="st1" d="M85.1,129c0-1.8,0.4-3.3,2.5-3.3s2.5,1.5,2.5,3.3s-0.4,3.3-2.5,3.3S85.1,130.8,85.1,129z M86.1,129
				c0,1.5,0.3,2.4,1.5,2.4s1.5-0.9,1.5-2.4s-0.3-2.4-1.5-2.4S86.1,127.5,86.1,129L86.1,129z"/>
		</g>
		<g>
			<path class="st1" d="M10.3,140.3H9.4l-1.6-3.9v4.8h-1v-6.4h1.3l1.7,4.4l1.7-4.4h1.2v6.4h-0.9v-4.8L10.3,140.3z"/>
		</g>
		<g>
			<path class="st1" d="M13.6,138c0-1.8,0.4-3.3,2.5-3.3s2.5,1.5,2.5,3.3s-0.4,3.3-2.5,3.3S13.6,139.8,13.6,138z M14.6,138
				c0,1.5,0.3,2.4,1.5,2.4s1.5-0.9,1.5-2.4s-0.3-2.4-1.5-2.4S14.6,136.5,14.6,138L14.6,138z"/>
		</g>
		<g>
			<path class="st1" d="M19.4,141.2v-6.4h1.9c2.1,0,2.7,1.4,2.7,3.2s-0.6,3.2-2.7,3.2H19.4z M20.4,140.3h1c1.3,0,1.7-0.9,1.7-2.3
				s-0.4-2.3-1.7-2.3h-1V140.3z"/>
		</g>
		<g>
			<path class="st1" d="M28.5,138.3h-2.6v2h2.9v0.9h-3.9v-6.4h3.9v0.9h-2.9v1.8h2.6V138.3z"/>
		</g>
		<g>
			<path class="st1" d="M30.5,141.2h-1v-6.4h2.1c1.6,0,2.2,0.7,2.2,1.9c0.1,0.7-0.3,1.4-1,1.7l1.3,2.8H33l-1.2-2.6h-1.3V141.2z
				 M30.5,137.7h1.2c0.9,0,1-0.5,1-1s-0.1-1-1-1h-1.2V137.7z"/>
		</g>
		<g>
			<path class="st1" d="M38.5,141.2l-2.8-4.5v4.5h-0.9v-6.4h0.9l2.8,4.5v-4.5h0.9v6.4H38.5z"/>
		</g>
		<g>
			<path class="st1" d="M45.3,138.3h-2.6v2h2.9v0.9h-3.9v-6.4h3.9v0.9h-2.9v1.8h2.7L45.3,138.3z"/>
		</g>
		<g>
			<path class="st1" d="M50.1,141.2l-2.8-4.5v4.5h-1v-6.4h0.9l2.8,4.5v-4.5h1v6.4H50.1z"/>
		</g>
		<g>
			<path class="st1" d="M55.5,138.3h-2.6v2h2.9v0.9h-3.9v-6.4h3.9v0.9h-2.9v1.8h2.7L55.5,138.3z"/>
		</g>
		<g>
			<path class="st1" d="M57.5,141.2h-1v-6.4h2.1c1.7,0,2.2,0.7,2.2,1.9c0.1,0.7-0.3,1.4-1,1.7l1.3,2.8H60l-1.2-2.6h-1.3V141.2z
				 M57.5,137.7h1.3c0.9,0,1-0.5,1-1s-0.1-1-1-1h-1.3V137.7z"/>
		</g>
		<g>
			<path class="st1" d="M61.5,138c0-2,0.7-3.3,2.6-3.3c0.6,0,1.3,0.1,1.8,0.3v1c-0.5-0.2-1.1-0.4-1.7-0.4c-1.3,0-1.8,0.9-1.8,2.4
				s0.5,2.4,1.8,2.4c0.3,0,0.6,0,0.9-0.1v-1.7h-1.1v-0.9h2.1v3.2c-0.6,0.3-1.3,0.4-2,0.4C62.2,141.3,61.5,140,61.5,138z"/>
		</g>
		<g>
			<path class="st1" d="M69.6,138.6v2.6h-1v-2.6l-2.2-3.8h1.1l1.6,3l1.6-3h1.1L69.6,138.6z"/>
		</g>
	</g>
	<g>
		<rect x="3.3" y="24" class="st1" width="94.8" height="94.8"/>
	</g>
	<g>
		<path class="st1" d="M98.2,20.7H3.3V3.3h94.8V20.7z M4.3,19.7h92.8V4.3H4.3L4.3,19.7z"/>
	</g>
	<g class="st2">
		<path class="st1" d="M6.7,6.9h4.5v1.4H9.9v8.8H8.1V8.3H6.7V6.9z"/>
	</g>
	<g class="st2">
		<path class="st1" d="M11.2,17.1l1.9-10.2h1.9L17,17.1h-1.8l-0.3-1.9h-1.8l-0.3,1.9H11.2z M13.3,13.9h1.4L14,9.8h0L13.3,13.9z"/>
	</g>
	<g class="st2">
		<path class="st1" d="M19.6,12.4v4.7h-1.7V6.9h2.5c1.7,0,2.4,0.9,2.4,2.3v1.3c0,1.1-0.4,1.7-1.4,2l1.6,4.6h-1.8L19.6,12.4z
			 M19.6,8.3v3.2h0.6c0.6,0,0.8-0.3,0.8-0.8V9.2c0-0.6-0.3-0.8-0.8-0.8H19.6z"/>
	</g>
	<g class="st2">
		<path class="st1" d="M26.4,11.7h2.4v5.4h-1.2V16c-0.2,0.8-0.7,1.2-1.6,1.2c-1.5,0-2.1-1.2-2.1-2.7V9.6c0-1.6,0.8-2.7,2.6-2.7
			c1.9,0,2.4,1.1,2.4,2.6v0.9h-1.6v-1c0-0.6-0.2-1-0.9-1c-0.6,0-0.9,0.4-0.9,1v5.5c0,0.6,0.3,1,0.8,1c0.6,0,0.8-0.3,0.8-1V13h-0.8
			V11.7z"/>
	</g>
	<g class="st2">
		<path class="st1" d="M30.2,6.9h4.1v1.4h-2.4v2.9h1.7v1.4h-1.7v3.1h2.4v1.4h-4.1V6.9z"/>
	</g>
	<g class="st2">
		<path class="st1" d="M35.1,6.9h4.5v1.4h-1.4v8.8h-1.7V8.3h-1.4V6.9z"/>
	</g>
	<g class="st2">
		<path class="st1" d="M81.5,6.9h4.3v1.6l-2.2,8.6h-1.7l2.3-8.8h-2.6V6.9z"/>
	</g>
	<g class="st2">
	</g>
	<g class="st2">
		<path class="st1" d="M88.6,10.8c0.7,0,1.2,0.6,1.2,1.2c0,0.7-0.6,1.2-1.2,1.2c-0.7,0-1.2-0.6-1.2-1.2
			C87.3,11.4,87.9,10.8,88.6,10.8z"/>
	</g>
	<g class="st2">
		<path class="st1" d="M94.1,6.9v10.2h-1.7V9.3h0l-1.2,1.2h0V8.8l1.6-1.8H94.1z"/>
	</g>
	<g>
		<path class="st1" d="M98.2,144.8h-95v-22.7h95V144.8z M4.2,143.8h93v-20.7h-93V143.8z"/>
	</g>
	<g>
		<g>
			<g>
				<path class="st0" d="M50.7,40.3C44.3,40.3,39,45.6,39,52s5.2,11.7,11.7,11.7s11.7-5.2,11.7-11.7c0,0,0,0,0-0.1
					C62.4,45.5,57.2,40.3,50.7,40.3z M49.9,45c0-0.5,0.4-0.9,0.9-0.9c0.5,0,0.9,0.4,0.9,0.9v4c0,0.5-0.4,0.9-0.9,0.9
					c-0.5,0-0.9-0.4-0.9-0.9V45z M50.7,58.1c-3.4,0-6.1-2.7-6.1-6.1c0-2.7,1.7-5,4.3-5.8v2.2c-2,1-2.8,3.4-1.8,5.4
					c1,2,3.4,2.8,5.4,1.8c2-1,2.8-3.4,1.8-5.4c-0.4-0.8-1-1.4-1.8-1.8v-2.3c3.2,1,5,4.4,4,7.6C55.7,56.3,53.4,58,50.7,58.1
					L50.7,58.1z"/>
			</g>
			<g>
				<path class="st0" d="M37.3,51.9c0-0.5-0.4-0.9-0.9-1h-5.1c-0.5,0.1-0.8,0.7-0.7,1.2c0.1,0.3,0.4,0.6,0.7,0.7h5.1
					C36.9,52.8,37.2,52.4,37.3,51.9z"/>
			</g>
			<g>
				<path class="st0" d="M70.2,51h-5.1c-0.5,0.1-0.8,0.7-0.7,1.2c0.1,0.3,0.4,0.6,0.7,0.7h5.1c0.5-0.1,0.8-0.7,0.7-1.2
					C70.8,51.4,70.6,51.1,70.2,51z"/>
			</g>
			<g>
				<path class="st0" d="M50.7,38.5c0.5,0,0.9-0.4,1-0.9v-5.1c-0.2-0.5-0.7-0.8-1.2-0.7c-0.3,0.1-0.6,0.4-0.7,0.7v5.1
					C49.9,38.1,50.3,38.4,50.7,38.5z"/>
			</g>
			<g>
				<path class="st0" d="M50.7,65.4c-0.5,0-1,0.4-1,0.9v5.1c0.2,0.5,0.7,0.8,1.2,0.7c0.3-0.1,0.6-0.4,0.7-0.7v-5.1
					C51.6,65.8,51.2,65.4,50.7,65.4z"/>
			</g>
			<g>
				<path class="st0" d="M33.3,43.1l4.5,2.5c0.5,0.2,1.1-0.1,1.3-0.6c0.1-0.4,0-0.8-0.3-1.1l-4.5-2.5c-0.5-0.2-1.1,0.1-1.3,0.6
					C32.9,42.4,33,42.8,33.3,43.1L33.3,43.1z"/>
			</g>
			<g>
				<path class="st0" d="M68.1,60.8l-4.5-2.5c-0.5-0.2-1.1,0.1-1.3,0.6c-0.1,0.4,0,0.8,0.3,1.1l4.5,2.5c0.5,0.2,1.1-0.1,1.3-0.6
					C68.5,61.5,68.4,61.1,68.1,60.8L68.1,60.8z"/>
			</g>
			<g>
				<path class="st0" d="M57.4,40.3c0.4,0.2,1,0.1,1.3-0.3l2.5-4.5c0.2-0.5-0.1-1.1-0.7-1.3c-0.4-0.1-0.8,0-1,0.3L57,39
					C56.8,39.5,57,40,57.4,40.3z"/>
			</g>
			<g>
				<path class="st0" d="M44.1,63.6c-0.4-0.2-1-0.1-1.3,0.3l-2.5,4.5c-0.2,0.5,0.1,1.1,0.7,1.3c0.4,0.1,0.8,0,1-0.3l2.5-4.5
					C44.7,64.5,44.5,63.9,44.1,63.6z"/>
			</g>
			<g>
				<path class="st0" d="M42.8,40c0.3,0.4,0.8,0.5,1.3,0.3c0.4-0.3,0.6-0.8,0.4-1.3l-2.6-4.5c-0.4-0.4-1-0.4-1.4,0
					c-0.3,0.3-0.4,0.7-0.3,1L42.8,40z"/>
			</g>
			<g>
				<path class="st0" d="M58.7,63.9c-0.4-0.4-1-0.4-1.4,0c-0.3,0.3-0.4,0.7-0.3,1l2.6,4.4c0.4,0.4,1,0.4,1.4,0
					c0.3-0.3,0.4-0.7,0.3-1L58.7,63.9z"/>
			</g>
			<g>
				<path class="st0" d="M63.7,45.6l4.4-2.6c0.4-0.4,0.4-1,0-1.4c-0.3-0.3-0.7-0.4-1-0.3L62.7,44c-0.4,0.4-0.4,1,0,1.4
					C63,45.7,63.3,45.8,63.7,45.6L63.7,45.6z"/>
			</g>
			<g>
				<path class="st0" d="M37.8,58.3l-4.5,2.6c-0.4,0.4-0.4,1,0,1.4c0.3,0.3,0.7,0.4,1,0.3l4.4-2.6c0.4-0.4,0.4-1,0-1.4
					C38.5,58.3,38.2,58.2,37.8,58.3L37.8,58.3z"/>
			</g>
		</g>
		<g>
			<path class="st0" d="M81.1,81.4c0,1.5,1.2,2.8,2.8,2.8s2.8-1.2,2.8-2.8c0-1.5-1.2-2.8-2.8-2.8l0,0C82.3,78.6,81.1,79.9,81.1,81.4
				z"/>
		</g>
		<g>
			<path class="st0" d="M87.1,85.3h-0.2h-6.1h-0.2c-1.9,0.2-3.4,1.8-3.4,3.7v7.7c-0.1,0.6,0.4,1.1,1,1.2c0.6,0.1,1.1-0.4,1.2-1
				c0-0.1,0-0.1,0-0.2V90c0-0.2,0.1-0.6,0.5-0.6s0.4,0.3,0.4,0.5v19.8c0.1,0.9,0.8,1.5,1.7,1.4c0.8-0.1,1.4-0.7,1.4-1.4V98.4
				c0-0.2,0.2-0.4,0.4-0.4c0,0,0,0,0,0l0,0c0.2,0,0.4,0.2,0.4,0.4c0,0,0,0,0,0.1v11.4c0,0.9,0.7,1.5,1.6,1.5c0.9,0,1.5-0.7,1.5-1.5
				V90c0-0.2,0.1-0.5,0.4-0.5s0.5,0.3,0.5,0.6v6.6c0,0.6,0.5,1.1,1.1,1.1s1.1-0.5,1.1-1.1V89C90.5,87.1,89,85.4,87.1,85.3z"/>
		</g>
		<g>
			<path class="st0" d="M57.9,82.9c0,1.4,1.2,2.6,2.6,2.6c1.4,0,2.6-1.2,2.6-2.6c0-1.4-1.2-2.6-2.6-2.6
				C59.1,80.3,57.9,81.5,57.9,82.9C57.9,82.9,57.9,82.9,57.9,82.9z"/>
		</g>
		<g>
			<path class="st0" d="M63.7,90.4c0.3-0.1,0.4,0.3,0.4,0.3l1.8,5.9c0,0,0.3,1.3,1.4,0.9S68,96,68,96l-2.2-7.1c0,0-0.8-2.1-2.5-2.1
				h-5.6c-1.7,0-2.5,2.1-2.5,2.1L53.1,96c0,0-0.4,1.3,0.7,1.6s1.4-0.9,1.4-0.9l1.8-6c0,0,0.1-0.4,0.4-0.3s0.2,0.6,0.2,0.6L54.6,102
				h2.8v8c-0.1,0.8,0.5,1.4,1.2,1.5c0.8,0.1,1.4-0.5,1.5-1.2c0-0.1,0-0.2,0-0.2v-8h0.8v8c-0.1,0.8,0.5,1.4,1.2,1.5
				c0.8,0.1,1.4-0.5,1.5-1.2c0-0.1,0-0.2,0-0.2v-8h2.8l-3.1-11.1C63.4,90.9,63.3,90.4,63.7,90.4z"/>
		</g>
		<g>
			<path class="st0" d="M42.2,82.9c0,1.5,1.2,2.6,2.6,2.6c1.5,0,2.6-1.2,2.6-2.6c0-1.5-1.2-2.6-2.6-2.6c0,0,0,0,0,0
				C43.4,80.2,42.2,81.4,42.2,82.9C42.2,82.9,42.2,82.9,42.2,82.9z"/>
		</g>
		<g>
			<path class="st0" d="M50.1,88.8c0,0-0.8-2-2.5-2H42c-1.7,0-2.5,2-2.5,2l-2.2,7.1c0,0-0.4,1.3,0.7,1.6s1.4-0.9,1.4-0.9l1.8-5.9
				c0,0,0.1-0.5,0.4-0.4s0.2,0.6,0.2,0.6l-3,11.1h2.8v8c-0.1,0.8,0.5,1.4,1.2,1.5c0.8,0.1,1.4-0.5,1.5-1.2c0-0.1,0-0.2,0-0.2v-8h0.8
				v8c-0.1,0.8,0.5,1.4,1.2,1.5c0.8,0.1,1.4-0.5,1.5-1.2c0-0.1,0-0.2,0-0.2v-8h2.8l-3.1-11.1c0,0-0.1-0.5,0.2-0.6s0.4,0.4,0.4,0.4
				l1.8,5.9c0,0,0.3,1.3,1.4,0.9s0.7-1.6,0.7-1.6L50.1,88.8z"/>
		</g>
		<g>
			<path class="st0" d="M19.6,84.5c1.5,0,2.8-1.2,2.8-2.8S21.1,79,19.6,79s-2.8,1.2-2.8,2.8S18.1,84.5,19.6,84.5L19.6,84.5z"/>
		</g>
		<g>
			<path class="st0" d="M22.8,85.6h-0.2h-6h-0.2c-1.9,0.2-3.4,1.7-3.4,3.7v7.6c0,0.3,0.2,0.6,0.4,0.8L11,110.5
				c0,0.2,0.1,0.4,0.3,0.5c0,0,0,0,0,0h0.1c0.2,0,0.4-0.1,0.4-0.3l2.4-12.8c0.5-0.1,0.9-0.5,0.9-1v-6.6c0-0.2,0.1-0.6,0.5-0.6
				s0.4,0.3,0.4,0.5v19.6c0,0.8,0.7,1.5,1.5,1.5c0.8,0,1.5-0.7,1.5-1.5c0,0,0,0,0,0V98.5c0-0.2,0.2-0.4,0.4-0.4c0,0,0,0,0.1,0l0,0
				c0.2,0,0.4,0.2,0.4,0.4c0,0,0,0,0,0.1v11.3c0.1,0.8,0.8,1.5,1.7,1.4c0.8-0.1,1.4-0.7,1.4-1.4V90.2c0-0.2,0.1-0.5,0.4-0.5
				S24,90,24,90.3v6.6c0.1,0.6,0.6,1,1.2,1c0.5,0,0.9-0.5,1-1v-7.6C26.1,87.3,24.7,85.7,22.8,85.6z"/>
		</g>
		<g>
			<path class="st0" d="M70.2,95.1c0,1.2,1,2.2,2.2,2.2s2.2-1,2.2-2.2c0-1.2-1-2.2-2.2-2.2c0,0,0,0,0,0
				C71.2,92.9,70.2,93.9,70.2,95.1C70.2,95.1,70.2,95.1,70.2,95.1z"/>
		</g>
		<g>
			<path class="st0" d="M77,101.7c-1.3-3.4-1.6-3.4-2.8-3.5h-3.4c-1.2,0-1.4,0-2.8,3.5c-0.2,0.5-1,2.4-1,2.5s-0.3,0.8,0.4,1.1
				s0.9-0.6,0.9-0.6l1.4-3.4c0,0,0-0.1,0.1-0.1s0,0.1,0,0.1v8.8l0,0c0,0.6,0.5,1.2,1.1,1.2c0,0,0,0,0,0c0.6,0,1.1-0.5,1.1-1.2
				c0,0,0,0,0,0v-3.5c0,0,0-0.5,0.3-0.5s0.3,0.5,0.3,0.5v3.5c0,0.6,0.5,1.2,1.1,1.2c0,0,0,0,0,0c0.6,0,1.1-0.5,1.1-1.1
				c0,0,0,0,0-0.1l0,0v-8.8c0-0.1,0-0.1,0-0.1s0.1,0.1,0.1,0.1l1.2,3c0,0,0.4,0.8,1,0.5s0.3-1,0.3-1S77.1,102.2,77,101.7z"/>
		</g>
		<g>
			<path class="st0" d="M36.2,96.1c-0.4-0.2-0.9-0.1-1.1,0.4c0,0,0,0,0,0c-0.4,0.7-0.9,1.5-1.4,2.1c-0.2,0.2-0.4,0.3-0.7,0.3h-2.7
				c-0.3,0-0.5-0.1-0.7-0.3c-0.3-0.3-1.4-2.2-1.4-2.2c-0.1-0.2-0.4-0.4-0.7-0.4c-0.4,0-0.8,0.4-0.8,0.8c0,0.1,0,0.2,0.1,0.3l2.2,4
				c0.1,0.2,0.1,0.3,0.1,0.5v0.6l0,0c0,0.2,0,0.5-0.1,0.7l-1.1,4.2h1.2v3.1l0,0c-0.1,0.6,0.4,1.1,1,1.2s1.1-0.4,1.2-1
				c0-0.1,0-0.1,0-0.2v-3c0,0,0-0.1,0-0.1H32v3.1c-0.1,0.6,0.4,1.1,1,1.2s1.1-0.4,1.2-1c0-0.1,0-0.1,0-0.2v-3.1h1.2l-1.1-4.2
				c-0.1-0.2-0.1-0.4-0.1-0.6v-0.2l0,0v-0.6c0-0.2,0.1-0.4,0.1-0.5l2-3.7l0.2-0.4C36.7,96.7,36.6,96.3,36.2,96.1z"/>
		</g>
		<g>
			<path class="st0" d="M31.7,97.5c1.2,0,2.2-1,2.2-2.2c0-1.2-1-2.2-2.2-2.2s-2.2,1-2.2,2.2c0,0,0,0,0,0
				C29.5,96.5,30.5,97.5,31.7,97.5C31.7,97.5,31.7,97.5,31.7,97.5z"/>
		</g>
	</g>
</g>
</svg>
