<?xml version="1.0" encoding="utf-8"?>
<!-- Generator: Adobe Illustrator 22.0.1, SVG Export Plug-In . SVG Version: 6.00 Build 0)  -->
<svg version="1.1" id="Layer_1" xmlns="http://www.w3.org/2000/svg" xmlns:xlink="http://www.w3.org/1999/xlink" x="0px" y="0px"
	 viewBox="0 0 101.5 157.2" style="enable-background:new 0 0 101.5 157.2;" xml:space="preserve">
<style type="text/css">
	.st0{fill:#FFFFFF;}
	.st1{fill:#FCC30B;}
	.st2{enable-background:new    ;}
</style>
<title>TARGET 1.2</title>
<g id="WHITE_BG">
	<g>
		<rect y="0" class="st0" width="101.5" height="157.2"/>
	</g>
</g>
<g id="TARGETS">
	<g>
		<g>
			<path class="st1" d="M7,132.2v-6.4h1v6.4H7z"/>
		</g>
		<g>
			<path class="st1" d="M12.8,132.2l-2.8-4.5v4.5H9.1v-6.4h0.9l2.8,4.5v-4.5h0.9v6.4H12.8z"/>
		</g>
		<g>
			<path class="st1" d="M17,125.7c0.5,0,1,0.1,1.5,0.3v0.9c-0.5-0.2-0.9-0.3-1.4-0.3c-1.2,0-1.7,0.8-1.7,2.4c0,1.6,0.5,2.4,1.7,2.4
				c0.5,0,1-0.1,1.4-0.3v0.9c-0.5,0.2-1,0.3-1.5,0.3c-1.9,0-2.6-1.2-2.6-3.3S15.1,125.7,17,125.7z"/>
		</g>
		<g>
			<path class="st1" d="M20.3,132.2h-1v-6.4h2.1c1.6,0,2.2,0.7,2.2,1.9c0.1,0.7-0.3,1.4-1,1.7l1.3,2.8h-1.2l-1.1-2.6h-1.3V132.2z
				 M20.3,128.7h1.3c0.9,0,1-0.5,1-1s-0.1-1-1-1h-1.3V128.7z"/>
		</g>
		<g>
			<path class="st1" d="M28,129.3h-2.6v2h2.9v0.9h-3.9v-6.4h3.9v0.9h-2.9v1.8H28V129.3z"/>
		</g>
		<g>
			<path class="st1" d="M32.2,130.6h-2l-0.5,1.6h-1l2-6.4h1l2,6.4h-1L32.2,130.6z M31.2,127l-0.8,2.8H32L31.2,127z"/>
		</g>
		<g>
			<path class="st1" d="M38.2,130.3c0,1.2-0.7,2-2.4,2c-0.6,0-1.3-0.1-1.9-0.4v-1c0.6,0.3,1.2,0.4,1.8,0.4c1.1,0,1.5-0.5,1.5-1.1
				s-0.3-0.9-1.2-1c-1.6-0.2-2.2-0.6-2.2-1.8c0-0.9,0.5-1.8,2.3-1.8c0.6,0,1.2,0.1,1.7,0.3v1c-0.5-0.2-1.1-0.3-1.7-0.3
				c-1,0-1.3,0.4-1.3,1s0.4,0.8,1.2,0.9C37.5,128.7,38.2,129,38.2,130.3z"/>
		</g>
		<g>
			<path class="st1" d="M42.6,129.3H40v2h2.9v0.9H39v-6.4h3.9v0.9H40v1.8h2.7L42.6,129.3z"/>
		</g>
		<g>
			<path class="st1" d="M45,129c0-2,0.7-3.3,2.6-3.3c0.6,0,1.2,0.1,1.8,0.3v1c-0.5-0.2-1.1-0.4-1.7-0.4c-1.3,0-1.8,0.9-1.8,2.4
				c0,1.5,0.5,2.4,1.8,2.4c0.3,0,0.6,0,0.9-0.1v-1.7h-1.1v-0.9h2.1v3.2c-0.6,0.3-1.3,0.4-2,0.4C45.7,132.3,45,131,45,129z"/>
		</g>
		<g>
			<path class="st1" d="M51.5,131.3h2.8v0.9h-3.7v-6.4h1L51.5,131.3z"/>
		</g>
		<g>
			<path class="st1" d="M54.3,129c0-1.8,0.4-3.3,2.5-3.3s2.5,1.5,2.5,3.3s-0.4,3.3-2.5,3.3S54.3,130.8,54.3,129z M55.3,129
				c0,1.5,0.3,2.4,1.5,2.4s1.5-0.9,1.5-2.4s-0.3-2.4-1.5-2.4S55.3,127.5,55.3,129L55.3,129z"/>
		</g>
		<g>
			<path class="st1" d="M60.1,125.8h2.2c1.5,0,2,0.8,2,1.8c0,0.5-0.3,1-0.8,1.3c0.6,0.2,1.1,0.8,1,1.5c0,1-0.5,1.9-2.2,1.9h-2.2
				L60.1,125.8z M62.2,126.7H61v1.8h1.2c0.4,0.1,0.9-0.2,0.9-0.7c0-0.1,0-0.1,0-0.2C63.2,127.2,63.1,126.7,62.2,126.7z M61,131.3
				h1.3c0.9,0,1.1-0.5,1.1-1s-0.3-1-1.1-1H61V131.3z"/>
		</g>
		<g>
			<path class="st1" d="M68.2,130.6h-2l-0.4,1.6h-1l2-6.4h1l2,6.4h-1L68.2,130.6z M67.2,127l-0.8,2.8h1.6L67.2,127z"/>
		</g>
		<g>
			<path class="st1" d="M71.2,131.3H74v0.9h-3.7v-6.4h0.9V131.3z"/>
		</g>
		<g>
			<path class="st1" d="M7.8,141.2h-1v-6.4h2.1c1.6,0,2.2,1,2.2,2s-0.6,2-2.2,2H7.8V141.2z M7.8,137.9H9c0.6,0,1.1-0.5,1.1-1.1
				c0-0.6-0.5-1.1-1.1-1.1H7.8V137.9z"/>
		</g>
		<g>
			<path class="st1" d="M15.3,138.3h-2.7v2h2.9v0.9h-3.9v-6.4h3.9v0.9h-2.9v1.8h2.7V138.3z"/>
		</g>
		<g>
			<path class="st1" d="M17.4,141.2h-1v-6.4h2.1c1.6,0,2.2,0.7,2.2,1.9c0.1,0.7-0.3,1.4-1,1.7l1.3,2.8h-1.1l-1.2-2.6h-1.3V141.2z
				 M17.4,137.7h1.3c0.9,0,1-0.5,1-1s-0.1-1-1-1h-1.3V137.7z"/>
		</g>
		<g>
			<path class="st1" d="M24.1,134.7c0.5,0,1,0.1,1.5,0.3v0.9c-0.5-0.2-0.9-0.3-1.4-0.3c-1.2,0-1.7,0.8-1.7,2.4s0.5,2.4,1.7,2.4
				c0.5,0,1-0.1,1.4-0.3v0.9c-0.5,0.2-1,0.3-1.5,0.3c-1.9,0-2.6-1.2-2.6-3.3S22.2,134.7,24.1,134.7z"/>
		</g>
		<g>
			<path class="st1" d="M29.9,138.3h-2.6v2h2.9v0.9h-3.9v-6.4h3.9v0.9h-2.9v1.8h2.6V138.3z"/>
		</g>
		<g>
			<path class="st1" d="M34.7,141.2l-2.8-4.5v4.5H31v-6.4h0.9l2.8,4.5v-4.5h1v6.4H34.7z"/>
		</g>
		<g>
			<path class="st1" d="M38.7,135.7v5.5h-1v-5.5h-1.6v-0.9h4.3v0.9H38.7z"/>
		</g>
		<g>
			<path class="st1" d="M43.5,139.6h-2l-0.5,1.6h-1l2-6.4h1l2,6.4h-1L43.5,139.6z M42.5,136l-0.8,2.8h1.6L42.5,136z"/>
		</g>
		<g>
			<path class="st1" d="M45.2,138c0-2,0.7-3.3,2.6-3.3c0.6,0,1.2,0.1,1.8,0.3v1c-0.5-0.2-1.1-0.4-1.7-0.4c-1.3,0-1.8,0.9-1.8,2.4
				s0.5,2.4,1.8,2.4c0.3,0,0.6,0,0.9-0.1v-1.7h-1.1v-0.9h2.1v3.2c-0.6,0.3-1.3,0.4-2,0.4C45.9,141.3,45.2,140,45.2,138z"/>
		</g>
		<g>
			<path class="st1" d="M54.3,138.3h-2.7v2h2.9v0.9h-3.9v-6.4h3.9v0.9h-2.9v1.8h2.7V138.3z"/>
		</g>
		<g>
			<path class="st1" d="M56.7,138c0-1.8,0.4-3.3,2.5-3.3s2.5,1.5,2.5,3.3s-0.4,3.3-2.5,3.3S56.7,139.8,56.7,138z M57.7,138
				c0,1.5,0.3,2.4,1.5,2.4s1.5-0.9,1.5-2.4s-0.3-2.4-1.5-2.4S57.7,136.5,57.7,138L57.7,138z"/>
		</g>
		<g>
			<path class="st1" d="M65.9,138.4h-2.6v2.8h-1v-6.4h3.8v0.9h-2.8v1.8h2.6V138.4z"/>
		</g>
		<g>
			<path class="st1" d="M7.8,150.2h-1v-6.4H9c1.6,0,2.2,0.7,2.2,1.9c0.1,0.7-0.3,1.4-1,1.7l1.3,2.8h-1.2l-1.1-2.6H7.8V150.2z
				 M7.8,146.7h1.3c0.9,0,1-0.5,1-1s-0.1-1-1-1H7.8V146.7z"/>
		</g>
		<g>
			<path class="st1" d="M15.6,147.3h-2.7v2h2.9v0.9H12v-6.4h3.9v0.9h-3v1.8h2.6L15.6,147.3z"/>
		</g>
		<g>
			<path class="st1" d="M20.4,150.2l-2.8-4.5v4.5h-1v-6.4h0.9l2.8,4.5v-4.5h1v6.4H20.4z"/>
		</g>
		<g>
			<path class="st1" d="M25.8,147.3h-2.7v2h2.9v0.9h-3.9v-6.4h3.9v0.9h-2.9v1.8h2.6L25.8,147.3z"/>
		</g>
		<g>
			<path class="st1" d="M29.4,143.8h1.2l1.1,5l0.8-5h1l-1.2,6.5h-1.2L30,145l-1.2,5.3h-1.1l-1.2-6.5h1l0.8,5L29.4,143.8z"/>
		</g>
		<g>
			<path class="st1" d="M36.7,148.6h-2l-0.5,1.6h-1l2-6.4h1l2,6.4h-1L36.7,148.6z M35.7,145l-0.8,2.8h1.6L35.7,145z"/>
		</g>
		<g>
			<path class="st1" d="M38.7,143.8h2.2c1.5,0,2,0.8,2,1.8c0,0.5-0.3,1-0.8,1.3c0.6,0.2,1.1,0.8,1,1.5c0,1-0.5,1.9-2.2,1.9h-2.2
				V143.8z M40.9,144.7h-1.2v1.8h1.2c0.4,0.1,0.9-0.2,0.9-0.7c0-0.1,0-0.1,0-0.2C41.8,145.2,41.7,144.7,40.9,144.7z M39.7,149.3h1.3
				c0.9,0,1.1-0.5,1.1-1s-0.3-1-1.1-1h-1.3L39.7,149.3z"/>
		</g>
		<g>
			<path class="st1" d="M44.7,149.3h2.8v0.9h-3.7v-6.4h1L44.7,149.3z"/>
		</g>
		<g>
			<path class="st1" d="M51.6,147.3H49v2h2.9v0.9H48v-6.4h3.9v0.9H49v1.8h2.7L51.6,147.3z"/>
		</g>
		<g>
			<path class="st1" d="M57.7,147.3h-2.6v2H58v0.9h-3.9v-6.4H58v0.9h-2.9v1.8h2.7L57.7,147.3z"/>
		</g>
		<g>
			<path class="st1" d="M62.5,150.2l-2.8-4.5v4.5h-0.9v-6.4h0.9l2.8,4.5v-4.5h0.9v6.4H62.5z"/>
		</g>
		<g>
			<path class="st1" d="M67.9,147.3h-2.7v2h2.9v0.9h-3.9v-6.4h3.9v0.9h-2.9v1.8h2.7V147.3z"/>
		</g>
		<g>
			<path class="st1" d="M70,150.2h-1v-6.4h2.1c1.7,0,2.2,0.7,2.2,1.9c0.1,0.7-0.3,1.4-1,1.7l1.3,2.8h-1.1l-1.2-2.6H70V150.2z
				 M70,146.7h1.3c0.9,0,1-0.5,1-1s-0.1-1-1-1H70V146.7z"/>
		</g>
		<g>
			<path class="st1" d="M74,147c0-2,0.7-3.3,2.6-3.3c0.6,0,1.3,0.1,1.8,0.3v1c-0.5-0.2-1.1-0.4-1.7-0.4c-1.3,0-1.8,0.9-1.8,2.4
				s0.5,2.4,1.8,2.4c0.3,0,0.6,0,0.9-0.1v-1.7h-1.1v-0.9h2.1v3.2c-0.6,0.3-1.3,0.4-2,0.4C74.7,150.3,74,149,74,147z"/>
		</g>
		<g>
			<path class="st1" d="M82.1,147.6v2.6h-1v-2.6l-2.2-3.8H80l1.6,3l1.6-3h1.1L82.1,147.6z"/>
		</g>
	</g>
	<g>
		<rect x="3.3" y="24" class="st1" width="94.8" height="94.8"/>
	</g>
	<g>
		<path class="st1" d="M98.2,20.7H3.3V3.3h94.8V20.7z M4.3,19.7h92.8V4.3H4.3L4.3,19.7z"/>
	</g>
	<g class="st2">
		<path class="st1" d="M6.7,6.9h4.5v1.4H9.9v8.8H8.1V8.3H6.7V6.9z"/>
	</g>
	<g class="st2">
		<path class="st1" d="M11.2,17.1l1.9-10.2h1.9L17,17.1h-1.8l-0.3-1.9h-1.8l-0.3,1.9H11.2z M13.3,13.9h1.4L14,9.8h0L13.3,13.9z"/>
	</g>
	<g class="st2">
		<path class="st1" d="M19.6,12.4v4.7h-1.7V6.9h2.5c1.7,0,2.4,0.9,2.4,2.3v1.3c0,1.1-0.4,1.7-1.4,2l1.6,4.6h-1.8L19.6,12.4z
			 M19.6,8.3v3.2h0.6c0.6,0,0.8-0.3,0.8-0.8V9.2c0-0.6-0.3-0.8-0.8-0.8H19.6z"/>
	</g>
	<g class="st2">
		<path class="st1" d="M26.4,11.7h2.4v5.4h-1.2V16c-0.2,0.8-0.7,1.2-1.6,1.2c-1.5,0-2.1-1.2-2.1-2.7V9.6c0-1.6,0.8-2.7,2.6-2.7
			c1.9,0,2.4,1.1,2.4,2.6v0.9h-1.6v-1c0-0.6-0.2-1-0.9-1c-0.6,0-0.9,0.4-0.9,1v5.5c0,0.6,0.3,1,0.8,1c0.6,0,0.8-0.3,0.8-1V13h-0.8
			V11.7z"/>
	</g>
	<g class="st2">
		<path class="st1" d="M30.2,6.9h4.1v1.4h-2.4v2.9h1.7v1.4h-1.7v3.1h2.4v1.4h-4.1V6.9z"/>
	</g>
	<g class="st2">
		<path class="st1" d="M35.1,6.9h4.5v1.4h-1.4v8.8h-1.7V8.3h-1.4V6.9z"/>
	</g>
	<g class="st2">
		<path class="st1" d="M80,6.9h4.3v1.6L82,17.1h-1.7l2.3-8.8H80V6.9z"/>
	</g>
	<g class="st2">
	</g>
	<g class="st2">
		<path class="st1" d="M87.1,10.8c0.7,0,1.2,0.6,1.2,1.2c0,0.7-0.6,1.2-1.2,1.2c-0.7,0-1.2-0.6-1.2-1.2
			C85.8,11.4,86.4,10.8,87.1,10.8z"/>
	</g>
	<g class="st2">
		<path class="st1" d="M89.8,15.2c0-1,0.3-1.7,1.3-2.7l1-1c0.6-0.6,0.6-0.9,0.6-1.8V9c0-0.6-0.3-0.8-0.6-0.8c-0.4,0-0.7,0.2-0.7,0.8
			v1.3h-1.6V9c0-1.4,0.8-2.2,2.3-2.2c1.5,0,2.2,0.7,2.2,2.1v1c0,1-0.2,1.6-1.1,2.6l-1.1,1.2c-0.4,0.5-0.7,0.8-0.7,1.6v0.5h2.8v1.4
			h-4.4V15.2z"/>
	</g>
	<g>
		<path class="st1" d="M98.2,153.8H3.3v-31.6h94.8V153.8z M4.3,152.8h92.8v-29.6H4.3L4.3,152.8z"/>
	</g>
	<g>
		<g>
			<g>
				<path class="st0" d="M50.4,60.6c-5.9,0-10.8,4.8-10.8,10.8c0,5.9,4.8,10.8,10.8,10.8c5.9,0,10.8-4.8,10.8-10.8c0,0,0,0,0,0
					C61.1,65.4,56.3,60.6,50.4,60.6C50.4,60.6,50.4,60.6,50.4,60.6z M49.6,64.8c0-0.4,0.4-0.7,0.8-0.8c0.4,0,0.8,0.3,0.8,0.8v3.7
					c0,0.4-0.4,0.7-0.8,0.8c-0.4,0-0.8-0.3-0.8-0.8V64.8z M50.4,76.8c-3.1,0-5.6-2.5-5.6-5.6c0-2.5,1.6-4.6,3.9-5.4V68
					c-1.8,0.9-2.5,3.1-1.6,4.9c0.9,1.8,3.1,2.5,4.9,1.6s2.5-3.1,1.6-4.9c-0.4-0.7-0.9-1.3-1.6-1.6v-2.1c2.9,0.9,4.6,4,3.7,7
					C55,75.3,52.8,76.9,50.4,76.8L50.4,76.8z"/>
			</g>
			<g>
				<path class="st0" d="M38,71.3c0-0.5-0.4-0.8-0.8-0.9h-4.7c-0.5,0-0.8,0.4-0.8,0.9c0,0.5,0.4,0.8,0.8,0.9h4.7
					C37.7,72.1,38,71.7,38,71.3z"/>
			</g>
			<g>
				<path class="st0" d="M68.3,70.4h-4.7c-0.5,0-0.8,0.4-0.8,0.9c0,0.5,0.4,0.9,0.8,0.9h4.7c0.5,0,0.8-0.4,0.8-0.9
					C69.1,70.8,68.7,70.4,68.3,70.4z"/>
			</g>
			<g>
				<path class="st0" d="M50.4,58.9c0.5,0,0.8-0.4,0.9-0.8v-4.7c-0.1-0.5-0.5-0.8-1-0.8c-0.4,0-0.7,0.4-0.8,0.8v4.7
					C49.5,58.6,49.9,58.9,50.4,58.9z"/>
			</g>
			<g>
				<path class="st0" d="M50.4,83.6c-0.5,0-0.9,0.4-0.9,0.8v4.7c0.1,0.5,0.5,0.8,1,0.8c0.4,0,0.7-0.4,0.8-0.8v-4.7
					C51.2,84,50.8,83.6,50.4,83.6z"/>
			</g>
			<g>
				<path class="st0" d="M34.4,63.1l4.1,2.3c0.5,0.1,1-0.1,1.1-0.6c0.1-0.3,0-0.7-0.2-0.9l-4.1-2.3c-0.4-0.2-0.9,0-1.2,0.3
					C33.9,62.4,34.1,62.9,34.4,63.1z"/>
			</g>
			<g>
				<path class="st0" d="M66.3,79.4L62.2,77c-0.5-0.2-1,0-1.2,0.5c-0.2,0.4,0,0.8,0.3,1.1l4.1,2.3c0.4,0.2,0.9,0,1.2-0.3
					C66.8,80.1,66.7,79.6,66.3,79.4z"/>
			</g>
			<g>
				<path class="st0" d="M56.5,60.5c0.4,0.2,0.9,0.1,1.2-0.3l2.3-4.1c0.2-0.4,0-1-0.4-1.2c-0.4-0.2-0.9-0.1-1.1,0.3l-2.3,4.1
					C55.9,59.8,56.1,60.3,56.5,60.5z"/>
			</g>
			<g>
				<path class="st0" d="M44.2,82c-0.4-0.2-0.9-0.1-1.2,0.3l-2.3,4.1c-0.2,0.4,0,1,0.4,1.2c0.4,0.2,0.9,0.1,1.1-0.3l2.3-4.1
					C44.8,82.7,44.6,82.2,44.2,82z"/>
			</g>
			<g>
				<path class="st0" d="M43,60.3c0.3,0.4,0.8,0.5,1.2,0.3c0.4-0.2,0.6-0.7,0.3-1.2l-2.3-4.1c-0.2-0.4-0.8-0.6-1.2-0.3
					c-0.4,0.2-0.6,0.8-0.3,1.2L43,60.3z"/>
			</g>
			<g>
				<path class="st0" d="M57.7,82.2c-0.3-0.4-0.8-0.5-1.2-0.2c-0.4,0.2-0.6,0.7-0.3,1.2l2.3,4.1c0.2,0.4,0.8,0.6,1.2,0.3
					c0.4-0.2,0.6-0.8,0.3-1.2l0,0L57.7,82.2z"/>
			</g>
			<g>
				<path class="st0" d="M62.2,65.5l4.1-2.3c0.4-0.2,0.6-0.8,0.3-1.2c-0.2-0.4-0.8-0.6-1.2-0.3l-4.1,2.3c-0.4,0.2-0.6,0.8-0.3,1.2
					C61.3,65.6,61.8,65.7,62.2,65.5L62.2,65.5z"/>
			</g>
			<g>
				<path class="st0" d="M38.5,77.1l-4.1,2.3c-0.4,0.2-0.6,0.8-0.4,1.2c0.2,0.4,0.8,0.6,1.2,0.4l4.1-2.3c0.4-0.3,0.5-0.8,0.3-1.2
					C39.4,77.1,38.9,76.9,38.5,77.1z"/>
			</g>
		</g>
		<g>
			<g>
				<g>
					<g>
						<path class="st0" d="M74.3,48l-1.8,2C62,40.8,46,41.9,36.8,52.4c-1.5,1.7-2.8,3.7-3.8,5.7c7.1-12,22.7-16,34.7-8.9
							c1.2,0.7,2.3,1.5,3.3,2.3l-1.8,2c-0.5,0.6-0.5,1.5,0.1,2l4,3.6l1.1-1.3l3.3,3l1.1-1.2l-3.3-3l2.6-2.9l3.3,3l1.1-1.2l-3.3-3
							l1.1-1.2l-4-3.6C75.7,47.3,74.8,47.4,74.3,48C74.3,48,74.3,48,74.3,48z"/>
					</g>
					<g>
						<path class="st0" d="M70,33c-1.6,0.4-5.2,1-6.9,2.9c-1.5,1.7-1.9,3.9-0.7,7.1c0,0,7.4-2.8,9-8.3c-0.7,4.3-3.8,7.8-8,8.9
							c0,0,4.4,2.5,7.9-2.3s1.5-10.6,1.5-10.6C72.1,31.8,71.2,32.6,70,33z"/>
					</g>
				</g>
				<g>
					<g>
						<path class="st0" d="M25.5,95l1.8-2c10.6,9.2,26.6,8,35.8-2.6c1.5-1.7,2.7-3.6,3.7-5.7c-7.2,12-22.7,16-34.7,8.8
							c-1.1-0.7-2.2-1.4-3.2-2.3l1.8-2c0.5-0.6,0.5-1.5-0.1-2l-4-3.6l-1.1,1.2l-3.3-3L21,83.1l3.3,3L21.6,89l-3.3-3l-1.1,1.2l3.3,3
							l-1.1,1.2l4,3.6C24,95.6,24.9,95.6,25.5,95z"/>
					</g>
					<g>
						<path class="st0" d="M29.8,109.9c1.6-0.4,5.2-1,6.9-2.9c1.5-1.7,1.9-3.9,0.7-7.1c0,0-7.4,2.8-9,8.3c0.7-4.3,3.8-7.8,8-8.9
							c0,0-4.4-2.5-7.9,2.3S27,112.1,27,112.1C27.7,111.1,28.6,110.3,29.8,109.9z"/>
					</g>
				</g>
			</g>
			<g>
				<g>
					<g>
						<path class="st0" d="M27.2,47l2,1.8c-9.2,10.6-8,26.6,2.6,35.8c1.7,1.5,3.6,2.7,5.7,3.7c-12-7.2-15.9-22.7-8.8-34.7
							c0.7-1.1,1.4-2.2,2.3-3.2l2,1.8c0.6,0.5,1.5,0.5,2-0.1l3.6-4l-1.2-1.1l3-3.3l-1.2-1.1l-3,3.3l-2.9-2.7l3-3.3L35,38.8l-3,3.3
							L30.8,41l-3.6,4C26.6,45.6,26.7,46.5,27.2,47z"/>
					</g>
					<g>
						<path class="st0" d="M12.3,51.3c0.4,1.6,1,5.2,2.9,6.9c1.7,1.5,3.9,1.9,7.1,0.7c0,0-2.9-7.4-8.3-9c4.3,0.7,7.8,3.8,8.9,8
							c0,0,2.5-4.4-2.3-7.9s-10.6-1.5-10.6-1.5C11.1,49.2,11.9,50.2,12.3,51.3z"/>
					</g>
				</g>
				<g>
					<g>
						<path class="st0" d="M74.2,95.8l-2-1.8c9.2-10.6,8-26.6-2.5-35.8c-1.7-1.5-3.6-2.7-5.7-3.7c12,7.2,15.9,22.7,8.8,34.7
							c-0.7,1.1-1.4,2.2-2.3,3.2l-2-1.8c-0.6-0.5-1.5-0.5-2,0.1l-3.6,4l1.3,1.2l-3,3.3l1.2,1.1l3-3.3l2.9,2.7l-3,3.3l1.2,1.1l3-3.3
							l1.2,1.1l3.6-4C74.9,97.4,74.9,96.4,74.2,95.8C74.3,95.9,74.3,95.9,74.2,95.8z"/>
					</g>
					<g>
						<path class="st0" d="M89.2,91.5c-0.4-1.6-1-5.2-2.9-6.9c-1.7-1.5-3.9-1.9-7.1-0.7c0,0,2.8,7.4,8.3,9c-4.3-0.7-7.8-3.8-8.9-8
							c0,0-2.5,4.4,2.3,7.9s10.6,1.6,10.6,1.6C90.4,93.7,89.6,92.7,89.2,91.5z"/>
					</g>
				</g>
			</g>
		</g>
	</g>
</g>
</svg>
