<?xml version="1.0" encoding="utf-8"?>
<!-- Generator: Adobe Illustrator 22.0.1, SVG Export Plug-In . SVG Version: 6.00 Build 0)  -->
<svg version="1.1" id="Layer_1" xmlns="http://www.w3.org/2000/svg" xmlns:xlink="http://www.w3.org/1999/xlink" x="0px" y="0px"
	 viewBox="0 0 101.5 157.1" style="enable-background:new 0 0 101.5 157.1;" xml:space="preserve">
<style type="text/css">
	.st0{fill:#FFFFFF;}
	.st1{fill:#FCC30B;}
	.st2{enable-background:new    ;}
</style>
<title>TARGET 1.3</title>
<g id="WHITE_BG">
	<g>
		<rect y="0" class="st0" width="101.5" height="157.1"/>
	</g>
</g>
<g id="TARGETS">
	<g>
		<g>
			<path class="st1" d="M6.9,132.2v-6.4h1.9c2.1,0,2.7,1.4,2.7,3.2s-0.6,3.2-2.7,3.2H6.9z M7.9,131.3h1c1.3,0,1.7-0.9,1.7-2.3
				s-0.4-2.3-1.7-2.3h-1L7.9,131.3z"/>
		</g>
		<g>
			<path class="st1" d="M12.1,129c0-1.8,0.4-3.3,2.4-3.3s2.4,1.5,2.4,3.3s-0.4,3.3-2.5,3.3S12.1,130.8,12.1,129z M13.1,129
				c0,1.5,0.3,2.4,1.5,2.4s1.5-0.9,1.5-2.4s-0.3-2.4-1.5-2.4S13.1,127.5,13.1,129L13.1,129z"/>
		</g>
		<g>
			<path class="st1" d="M17.7,130.2v-4.4h1v4.3c-0.1,0.7,0.4,1.2,1,1.3c0.1,0,0.2,0,0.3,0c0.6,0.1,1.3-0.3,1.4-1c0-0.1,0-0.2,0-0.3
				v-4.3h1v4.4c0,1.1-0.8,2.1-2,2.1c-0.1,0-0.3,0-0.4,0c-1.1,0.1-2.1-0.7-2.3-1.8C17.7,130.4,17.7,130.3,17.7,130.2z"/>
		</g>
		<g>
			<path class="st1" d="M23.3,125.8h2.1c1.6,0,2,0.8,2,1.7c0,0.5-0.3,1-0.8,1.3c0.6,0.2,1.1,0.8,1,1.5c0,1-0.5,1.9-2.2,1.9h-2.2
				V125.8z M25.4,126.7h-1.2v1.8h1.2c0.8,0,1-0.5,1-0.9S26.3,126.7,25.4,126.7z M24.2,131.3h1.3c0.9,0,1.1-0.5,1.1-1s-0.3-1-1.1-1
				h-1.3L24.2,131.3z"/>
		</g>
		<g>
			<path class="st1" d="M29.3,131.3h2.8v0.9h-3.7v-6.4h1L29.3,131.3z"/>
		</g>
		<g>
			<path class="st1" d="M36.2,129.3h-2.6v2h2.9v0.9h-3.9v-6.4h3.9v0.9h-2.9v1.8h2.7L36.2,129.3z"/>
		</g>
		<g>
			<path class="st1" d="M40.7,126.7v5.5h-1v-5.5h-1.7v-0.9h4.3v0.9L40.7,126.7z"/>
		</g>
		<g>
			<path class="st1" d="M46.5,132.2v-2.9h-2.6v2.9h-1v-6.4h1v2.6h2.6v-2.6h1v6.4L46.5,132.2z"/>
		</g>
		<g>
			<path class="st1" d="M52,129.3h-2.7v2h2.9v0.9h-3.9v-6.4h3.9v0.9h-2.9v1.8H52V129.3z"/>
		</g>
		<g>
			<path class="st1" d="M7,141.2v-6.4h1v6.4H7z"/>
		</g>
		<g>
			<path class="st1" d="M12.5,140.3h-0.9l-1.6-3.9v4.8H9.1v-6.4h1.2l1.7,4.3l1.7-4.3H15v6.4h-1v-4.8L12.5,140.3z"/>
		</g>
		<g>
			<path class="st1" d="M16.9,141.2h-1v-6.4h2c1.6,0,2.2,0.9,2.2,2s-0.6,2-2.2,2h-1V141.2z M16.9,137.9H18c0.6,0,1.1-0.5,1.1-1.1
				c0-0.6-0.5-1.1-1.1-1.1h-1.1V137.9z"/>
		</g>
		<g>
			<path class="st1" d="M21.6,141.2h-1v-6.4h2.1c1.6,0,2.2,0.7,2.2,1.9c0.1,0.7-0.3,1.4-1,1.7l1.3,2.8h-1.1l-1.2-2.6h-1.3V141.2z
				 M21.6,137.7h1.3c0.9,0,1-0.5,1-1s-0.1-1-1-1h-1.3V137.7z"/>
		</g>
		<g>
			<path class="st1" d="M25.6,138c0-1.8,0.4-3.3,2.5-3.3s2.5,1.5,2.5,3.3s-0.4,3.3-2.5,3.3S25.6,139.8,25.6,138z M26.6,138
				c0,1.5,0.3,2.4,1.5,2.4s1.5-0.9,1.5-2.4s-0.3-2.4-1.5-2.4S26.5,136.5,26.6,138L26.6,138z"/>
		</g>
		<g>
			<path class="st1" d="M35.8,134.8l-2,6.4h-1l-2-6.4h1l1.5,5.2l1.5-5.2L35.8,134.8z"/>
		</g>
		<g>
			<path class="st1" d="M39.9,138.3h-2.7v2h2.9v0.9h-3.9v-6.4h3.9v0.9h-2.9v1.8h2.7V138.3z"/>
		</g>
		<g>
			<path class="st1" d="M44.4,140.3h-0.9l-1.6-3.9v4.8H41v-6.4h1.2l1.8,4.3l1.7-4.3h1.2v6.4H46v-4.8L44.4,140.3z"/>
		</g>
		<g>
			<path class="st1" d="M51.5,138.3h-2.7v2h2.9v0.9h-3.9v-6.4h3.9v0.9h-2.9v1.8h2.7V138.3z"/>
		</g>
		<g>
			<path class="st1" d="M56.3,141.2l-2.8-4.5v4.5h-0.9v-6.4h0.9l2.8,4.5v-4.5h0.9v6.4H56.3z"/>
		</g>
		<g>
			<path class="st1" d="M60.3,135.7v5.5h-1v-5.5h-1.6v-0.9h4.3v0.9H60.3z"/>
		</g>
		<g>
			<path class="st1" d="M63.8,141.2v-6.4h1v6.4H63.8z"/>
		</g>
		<g>
			<path class="st1" d="M69.6,141.2l-2.8-4.5v4.5h-0.9v-6.4h0.9l2.8,4.5v-4.5h1v6.4H69.6z"/>
		</g>
		<g>
			<path class="st1" d="M10.5,147.3H7.8v2h2.9v0.9H6.9v-6.4h3.9v0.9H7.8v1.8h2.6V147.3z"/>
		</g>
		<g>
			<path class="st1" d="M15.3,150.2l-2.8-4.5v4.5h-0.9v-6.4h0.9l2.8,4.5v-4.5h0.9v6.4H15.3z"/>
		</g>
		<g>
			<path class="st1" d="M20.7,147.3h-2.6v2H21v0.9h-3.9v-6.4H21v0.9h-2.9v1.8h2.6V147.3z"/>
		</g>
		<g>
			<path class="st1" d="M22.8,150.2h-1v-6.4h2.1c1.6,0,2.2,0.7,2.2,1.9c0.1,0.7-0.3,1.4-1,1.7l1.3,2.8h-1.1l-1.2-2.6h-1.3V150.2z
				 M22.8,146.7H24c0.9,0,1-0.5,1-1s-0.1-1-1-1h-1.2V146.7z"/>
		</g>
		<g>
			<path class="st1" d="M26.8,147c0-2,0.7-3.3,2.6-3.3c0.6,0,1.3,0.1,1.8,0.3v1c-0.5-0.2-1.1-0.4-1.7-0.4c-1.3,0-1.8,0.9-1.8,2.4
				s0.5,2.4,1.8,2.4c0.3,0,0.6,0,0.9-0.1v-1.8h-1.1v-0.9h2.1v3.2c-0.6,0.3-1.3,0.4-2,0.4C27.5,150.3,26.8,149,26.8,147z"/>
		</g>
		<g>
			<path class="st1" d="M34.9,147.6v2.6h-1v-2.6l-2.2-3.8h1.1l1.6,3l1.6-3H37L34.9,147.6z"/>
		</g>
		<g>
			<path class="st1" d="M42.5,147.3h-2.7v2h2.9v0.9h-3.9v-6.4h3.9v0.9h-2.9v1.8h2.7V147.3z"/>
		</g>
		<g>
			<path class="st1" d="M47.1,147.4h-2.6v2.8h-1v-6.4h3.8v0.9h-2.8v1.8h2.6V147.4z"/>
		</g>
		<g>
			<path class="st1" d="M51.5,147.4h-2.6v2.8H48v-6.4h3.8v0.9h-2.9v1.8h2.6L51.5,147.4z"/>
		</g>
		<g>
			<path class="st1" d="M52.7,150.2v-6.4h1v6.4H52.7z"/>
		</g>
		<g>
			<path class="st1" d="M57.1,143.7c0.5,0,1,0.1,1.5,0.3v0.9c-0.5-0.2-0.9-0.3-1.4-0.3c-1.2,0-1.7,0.8-1.7,2.4s0.5,2.4,1.7,2.4
				c0.5,0,1-0.1,1.4-0.3v0.9c-0.5,0.2-1,0.3-1.5,0.3c-1.9,0-2.6-1.2-2.6-3.3S55.2,143.7,57.1,143.7z"/>
		</g>
		<g>
			<path class="st1" d="M59.6,150.2v-6.4h1v6.4H59.6z"/>
		</g>
		<g>
			<path class="st1" d="M65.2,147.3h-2.7v2h2.9v0.9h-3.9v-6.4h3.9v0.9h-2.9v1.8h2.7V147.3z"/>
		</g>
		<g>
			<path class="st1" d="M70.1,150.2l-2.8-4.5v4.5h-1v-6.4h0.9l2.8,4.5v-4.5h0.9v6.4H70.1z"/>
		</g>
		<g>
			<path class="st1" d="M74.4,143.7c0.5,0,1,0.1,1.5,0.3v0.9c-0.5-0.2-0.9-0.3-1.4-0.3c-1.2,0-1.7,0.8-1.7,2.4s0.5,2.4,1.7,2.4
				c0.5,0,1-0.1,1.4-0.3v0.9c-0.5,0.2-1,0.3-1.5,0.3c-1.9,0-2.6-1.2-2.6-3.3S72.5,143.7,74.4,143.7z"/>
		</g>
		<g>
			<path class="st1" d="M79.2,147.6v2.6h-1v-2.6l-2.2-3.8h1.1l1.6,3l1.6-3h1.1L79.2,147.6z"/>
		</g>
	</g>
	<g>
		<rect x="3.3" y="24" class="st1" width="94.8" height="94.8"/>
	</g>
	<g>
		<path class="st1" d="M98.2,20.7H3.3V3.3h94.8V20.7z M4.3,19.7h92.8V4.3H4.3L4.3,19.7z"/>
	</g>
	<g class="st2">
		<path class="st1" d="M6.7,6.9h4.5v1.4H9.9v8.8H8.1V8.3H6.7V6.9z"/>
	</g>
	<g class="st2">
		<path class="st1" d="M11.2,17.1l1.9-10.2h1.9L17,17.1h-1.8l-0.3-1.9h-1.8l-0.3,1.9H11.2z M13.3,13.9h1.4L14,9.8h0L13.3,13.9z"/>
	</g>
	<g class="st2">
		<path class="st1" d="M19.6,12.4v4.7h-1.7V6.9h2.5c1.7,0,2.4,0.9,2.4,2.3v1.3c0,1.1-0.4,1.7-1.4,2l1.6,4.6h-1.8L19.6,12.4z
			 M19.6,8.3v3.2h0.6c0.6,0,0.8-0.3,0.8-0.8V9.2c0-0.6-0.3-0.8-0.8-0.8H19.6z"/>
	</g>
	<g class="st2">
		<path class="st1" d="M26.4,11.7h2.4v5.4h-1.2V16c-0.2,0.8-0.7,1.2-1.6,1.2c-1.5,0-2.1-1.2-2.1-2.7V9.6c0-1.6,0.8-2.7,2.6-2.7
			c1.9,0,2.4,1.1,2.4,2.6v0.9h-1.6v-1c0-0.6-0.2-1-0.9-1c-0.6,0-0.9,0.4-0.9,1v5.5c0,0.6,0.3,1,0.8,1c0.6,0,0.8-0.3,0.8-1V13h-0.8
			V11.7z"/>
	</g>
	<g class="st2">
		<path class="st1" d="M30.2,6.9h4.1v1.4h-2.4v2.9h1.7v1.4h-1.7v3.1h2.4v1.4h-4.1V6.9z"/>
	</g>
	<g class="st2">
		<path class="st1" d="M35.1,6.9h4.5v1.4h-1.4v8.8h-1.7V8.3h-1.4V6.9z"/>
	</g>
	<g class="st2">
		<path class="st1" d="M79.7,6.9H84v1.6l-2.2,8.6H80l2.3-8.8h-2.6V6.9z"/>
	</g>
	<g class="st2">
	</g>
	<g class="st2">
		<path class="st1" d="M86.8,10.8c0.7,0,1.2,0.6,1.2,1.2c0,0.7-0.6,1.2-1.2,1.2c-0.7,0-1.2-0.6-1.2-1.2
			C85.6,11.4,86.1,10.8,86.8,10.8z"/>
	</g>
	<g class="st2">
		<path class="st1" d="M94.3,9.1V10c0,0.9-0.5,1.4-1.2,1.7c0.9,0.2,1.3,0.8,1.3,1.7v1.5c0,1.4-0.8,2.3-2.5,2.3c-1.7,0-2.4-1-2.4-2.5
			v-1.3h1.6v1.5c0,0.6,0.2,1,0.8,1c0.5,0,0.8-0.4,0.8-0.9v-1.7c0-0.5-0.2-0.8-0.8-0.8h-0.7v-1.3h0.6c0.6,0,0.9-0.3,0.9-0.8V9.2
			c0-0.6-0.2-0.9-0.7-0.9s-0.7,0.4-0.7,1v1h-1.6V9.4c0-1.5,0.6-2.6,2.4-2.6C93.6,6.8,94.3,7.7,94.3,9.1z"/>
	</g>
	<g>
		<path class="st1" d="M98.2,153.8H3.3v-31.6h94.8V153.8z M4.3,152.8h92.8v-29.6H4.3L4.3,152.8z"/>
	</g>
	<g>
		<g>
			<path class="st0" d="M23.8,72c0,0.7,0.5,1.3,1.2,1.3h6.8c0.7,0,1.3-0.6,1.3-1.3c0-0.7-0.6-1.3-1.3-1.3H25
				C24.3,70.8,23.8,71.3,23.8,72z"/>
		</g>
		<g>
			<path class="st0" d="M77.6,72c0-0.7-0.5-1.2-1.2-1.3h-6.8c-0.7,0-1.3,0.6-1.3,1.3c0,0.7,0.6,1.3,1.3,1.3l0,0h6.8
				C77.1,73.2,77.6,72.7,77.6,72z"/>
		</g>
		<g>
			<path class="st0" d="M52,53.1v-6.8c0-0.7-0.6-1.3-1.3-1.3s-1.3,0.6-1.3,1.3l0,0v6.8c0,0.7,0.6,1.3,1.3,1.3S52,53.8,52,53.1z"/>
		</g>
		<g>
			<path class="st0" d="M49.4,91v6.8c0,0.7,0.6,1.3,1.3,1.3s1.3-0.6,1.3-1.3V91c0-0.7-0.6-1.3-1.3-1.3S49.4,90.3,49.4,91L49.4,91z"
				/>
		</g>
		<g>
			<path class="st0" d="M33.6,63.7c0.6,0.3,1.4,0,1.7-0.7c0.2-0.5,0.1-1.2-0.4-1.5L29,58.2c-0.6-0.3-1.4-0.1-1.7,0.5
				c-0.3,0.6-0.1,1.4,0.5,1.7l0,0L33.6,63.7z"/>
		</g>
		<g>
			<path class="st0" d="M66.5,82.6l5.9,3.4c0.6,0.3,1.4,0,1.7-0.7c0.2-0.5,0.1-1.2-0.4-1.5l-5.9-3.4c-0.6-0.3-1.4,0-1.7,0.6
				C65.8,81.5,66,82.2,66.5,82.6z"/>
		</g>
		<g>
			<path class="st0" d="M61.2,56.2l3.4-5.9c0.3-0.6,0.1-1.3-0.5-1.7c-0.6-0.3-1.3-0.2-1.7,0.4L59,55c-0.3,0.6,0,1.4,0.7,1.7
				C60.2,56.9,60.9,56.7,61.2,56.2L61.2,56.2z"/>
		</g>
		<g>
			<path class="st0" d="M40.2,87.8l-3.4,5.9c-0.2,0.7,0.1,1.4,0.8,1.6c0.5,0.2,1.1,0,1.4-0.4l3.4-5.9c0.4-0.6,0.1-1.4-0.5-1.7
				S40.5,87.3,40.2,87.8L40.2,87.8L40.2,87.8z"/>
		</g>
		<g>
			<path class="st0" d="M41.8,56.7c0.6-0.3,0.8-1.1,0.5-1.7L39,49.1c-0.4-0.6-1.2-0.7-1.8-0.4c-0.5,0.4-0.7,1-0.4,1.6l3.4,5.9
				C40.5,56.8,41.3,57,41.8,56.7z"/>
		</g>
		<g>
			<path class="st0" d="M59.5,87.4c-0.6,0.3-0.8,1.1-0.5,1.7l3.4,5.9c0.4,0.6,1.1,0.8,1.7,0.5c0.6-0.4,0.8-1.1,0.5-1.7l-3.4-5.9
				C60.9,87.3,60.1,87.1,59.5,87.4z"/>
		</g>
		<g>
			<path class="st0" d="M67.8,63.7l5.9-3.4c0.6-0.4,0.7-1.1,0.4-1.7c-0.3-0.6-1.1-0.8-1.7-0.5l-5.9,3.4c-0.5,0.4-0.7,1.1-0.4,1.7
				C66.4,63.8,67.2,64,67.8,63.7z"/>
		</g>
		<g>
			<path class="st0" d="M29,86l5.9-3.4c0.6-0.4,0.8-1.1,0.5-1.7c-0.4-0.6-1.1-0.8-1.7-0.5l-5.9,3.4c-0.6,0.4-0.7,1.2-0.4,1.8
				C27.7,86.1,28.4,86.3,29,86z"/>
		</g>
		<g>
			<path class="st0" d="M50.7,56.3c-8.8,0-15.9,7.1-15.9,15.9S41.9,88,50.7,88s15.9-7.1,15.9-15.9l0,0
				C66.6,63.4,59.5,56.3,50.7,56.3z M47.1,80.1l-1.6-5.2l-1.6,5.2h-2.5l2.3-7.4l-2.1-6.4h2.7l1.4,4.4l1.4-4.4h2.5l-2.1,6.5l2.4,7.2
				H47.1z M59,68.5c0.1,1.6-0.6,3.1-1.8,4.2l-1.8,1.9c-0.7,0.6-1.2,1.5-1.1,2.5v0.8h4.6V80h-7.2v-3c0-1.6,0.6-2.7,2.1-4.3l1.5-1.7
				c0.8-0.7,1.1-1.8,1-2.8v-1.3c0-1-0.5-1.2-1-1.2s-1.1,0.3-1.1,1.3V69h-2.5v-2c0-2.3,1.2-3.6,3.7-3.6s3.6,1.1,3.6,3.5V68.5z"/>
		</g>
		<g>
			<path class="st0" d="M90,76.1l-3.1-0.4c-0.2,0-0.5,0.1-0.5,0.4c0,0,0,0,0,0c-2.6,20-21,34-40.9,31.3c-8.6-1.1-16.5-5.3-22.3-11.7
				l1-0.9l2.3-2.1l0.1-0.1c0.1-0.1,0.1-0.4,0-0.5c-0.1-0.1-0.1-0.1-0.2-0.1h-0.1l-10.2-1.8H16c-0.1,0-0.2,0-0.3,0.1
				c-0.1,0.1-0.1,0.2-0.1,0.2v0.2l0.9,10.2v0.1l0,0c0,0.1,0,0.2,0.1,0.3c0.1,0.1,0.4,0.1,0.5,0l0,0l0.1-0.1l2.3-2.1l0.7-0.6
				c15,16.6,40.5,17.9,57.1,3c7.1-6.4,11.8-15.2,13-24.8C90.4,76.3,90.2,76.1,90,76.1z"/>
		</g>
		<g>
			<path class="st0" d="M50.8,35.3c10.4,0,20.3,4.4,27.2,12.2l-0.9,0.6l-2.6,1.8L74.4,50c-0.2,0.1-0.2,0.3-0.1,0.5
				c0,0.1,0.1,0.1,0.2,0.2h0.1l9.8,3.4h0.1c0.1,0,0.2,0,0.3-0.1c0.1-0.1,0.1-0.1,0.2-0.2v-0.1v-0.1l0.6-10.2v-0.1l0,0
				c0-0.1,0-0.2,0-0.3c-0.1-0.2-0.3-0.2-0.5-0.1l0,0L85,42.9l-2.7,1.8l-0.9,0.6c-14.6-16.9-40.1-18.7-57-4.1
				c-7.7,6.6-12.6,15.9-13.7,26c0,0.3,0.2,0.5,0.4,0.5l3.1,0.3c0.2,0,0.5-0.2,0.5-0.4C16.6,49.2,32.2,35.3,50.8,35.3z"/>
		</g>
	</g>
</g>
</svg>
