<?xml version="1.0" encoding="utf-8"?>
<!-- Generator: Adobe Illustrator 22.0.1, SVG Export Plug-In . SVG Version: 6.00 Build 0)  -->
<svg version="1.1" id="Layer_1" xmlns="http://www.w3.org/2000/svg" xmlns:xlink="http://www.w3.org/1999/xlink" x="0px" y="0px"
	 viewBox="0 0 101.5 166" style="enable-background:new 0 0 101.5 166;" xml:space="preserve">
<style type="text/css">
	.st0{fill:#FFFFFF;}
	.st1{fill:#FD9D24;}
	.st2{enable-background:new    ;}
</style>
<title>TARGET 1 B copy 6</title>
<g id="WHITE_BG">
	<g>
		<rect y="0" class="st0" width="101.5" height="166"/>
	</g>
</g>
<g id="TARGETS">
	<g>
		<g>
			<path class="st1" d="M7.8,132.2h-1v-6.4h2.1c1.6,0,2.2,1,2.2,2c0,1-0.6,2-2.2,2H7.8V132.2z M7.8,128.9H9c0.6,0.1,1.2-0.4,1.2-1
				c0.1-0.6-0.4-1.2-1-1.2c-0.1,0-0.1,0-0.2,0H7.8V128.9z"/>
		</g>
		<g>
			<path class="st1" d="M12.7,132.2h-1v-6.4h2.1c1.6,0,2.2,0.7,2.2,1.9c0.1,0.7-0.3,1.4-1,1.7l1.3,2.8h-1.1l-1.2-2.6h-1.3V132.2z
				 M12.7,128.7h1.2c0.9,0,1-0.5,1-1s-0.1-1-1-1h-1.2V128.7z"/>
		</g>
		<g>
			<path class="st1" d="M16.7,129c0-1.8,0.4-3.3,2.5-3.3s2.5,1.5,2.5,3.3s-0.4,3.3-2.5,3.3S16.7,130.8,16.7,129z M17.7,129
				c0,1.5,0.3,2.4,1.5,2.4s1.5-0.9,1.5-2.4s-0.3-2.4-1.5-2.4S17.7,127.5,17.7,129L17.7,129z"/>
		</g>
		<g>
			<path class="st1" d="M26.9,125.8l-2,6.4h-1l-2-6.4h1l1.5,5.2l1.5-5.2L26.9,125.8z"/>
		</g>
		<g>
			<path class="st1" d="M27.6,132.2v-6.4h1v6.4H27.6z"/>
		</g>
		<g>
			<path class="st1" d="M29.6,132.2v-6.4h1.9c2.1,0,2.7,1.4,2.7,3.2s-0.6,3.2-2.7,3.2L29.6,132.2z M30.6,131.3h1
				c1.3,0,1.7-0.9,1.7-2.3s-0.4-2.3-1.7-2.3h-1L30.6,131.3z"/>
		</g>
		<g>
			<path class="st1" d="M38.5,129.3h-2.7v2h2.9v0.9h-3.9v-6.4h3.9v0.9h-2.9v1.8h2.7V129.3z"/>
		</g>
		<g>
			<path class="st1" d="M44.2,130.6h-2l-0.5,1.6h-1l2-6.4h1l2,6.4h-1L44.2,130.6z M43.2,127l-0.8,2.8H44L43.2,127z"/>
		</g>
		<g>
			<path class="st1" d="M48.5,125.7c0.5,0,1,0.1,1.5,0.3v0.9c-0.4-0.2-0.9-0.3-1.4-0.3c-1.2,0-1.7,0.8-1.7,2.4s0.5,2.4,1.7,2.4
				c0.5,0,1-0.1,1.4-0.3v0.9c-0.5,0.2-1,0.3-1.5,0.3c-1.9,0-2.6-1.2-2.6-3.3S46.6,125.7,48.5,125.7z"/>
		</g>
		<g>
			<path class="st1" d="M53.2,125.7c0.5,0,1,0.1,1.5,0.3v0.9c-0.5-0.2-0.9-0.3-1.4-0.3c-1.2,0-1.7,0.8-1.7,2.4s0.5,2.4,1.7,2.4
				c0.5,0,1-0.1,1.4-0.3v0.9c-0.5,0.2-1,0.3-1.5,0.3c-1.9,0-2.6-1.2-2.6-3.3S51.3,125.7,53.2,125.7z"/>
		</g>
		<g>
			<path class="st1" d="M59.2,129.3h-2.6v2h2.9v0.9h-3.9v-6.4h3.9v0.9h-2.9v1.8h2.7L59.2,129.3z"/>
		</g>
		<g>
			<path class="st1" d="M64.5,130.3c0,1.2-0.7,2-2.4,2c-0.6,0-1.3-0.1-1.9-0.4V131c0.6,0.3,1.2,0.4,1.8,0.4c1.2,0,1.5-0.5,1.5-1.1
				s-0.3-0.9-1.2-1c-1.5-0.2-2.2-0.6-2.2-1.8c0-0.9,0.5-1.8,2.3-1.8c0.6,0,1.2,0.1,1.7,0.3v1c-0.5-0.2-1.1-0.3-1.7-0.3
				c-1,0-1.3,0.4-1.3,1c0,0.6,0.4,0.8,1.2,0.9C63.7,128.7,64.5,129,64.5,130.3z"/>
		</g>
		<g>
			<path class="st1" d="M69.3,130.3c0,1.2-0.7,2-2.4,2c-0.6,0-1.3-0.1-1.9-0.4V131c0.6,0.3,1.2,0.4,1.8,0.4c1.2,0,1.5-0.5,1.5-1.1
				s-0.3-0.9-1.2-1c-1.6-0.2-2.2-0.6-2.2-1.8c0-0.9,0.5-1.8,2.3-1.8c0.6,0,1.2,0.1,1.7,0.3v1c-0.5-0.2-1.1-0.3-1.7-0.3
				c-1,0-1.3,0.4-1.3,1c0,0.6,0.4,0.8,1.2,0.9C68.6,128.7,69.3,129,69.3,130.3z"/>
		</g>
		<g>
			<path class="st1" d="M73.6,126.7v5.5h-1v-5.5H71v-0.9h4.3v0.9H73.6z"/>
		</g>
		<g>
			<path class="st1" d="M75.4,129c0-1.8,0.4-3.3,2.4-3.3s2.5,1.5,2.5,3.3s-0.4,3.3-2.5,3.3S75.4,130.8,75.4,129z M76.4,129
				c0,1.5,0.3,2.4,1.5,2.4s1.5-0.9,1.5-2.4s-0.3-2.4-1.5-2.4S76.4,127.5,76.4,129L76.4,129z"/>
		</g>
		<g>
			<path class="st1" d="M11.1,139.3c0,1.2-0.7,2-2.4,2c-0.6,0-1.3-0.1-1.9-0.4V140c0.6,0.3,1.2,0.4,1.8,0.4c1.1,0,1.5-0.5,1.5-1.1
				s-0.3-0.9-1.2-1c-1.6-0.2-2.2-0.6-2.2-1.8c0-0.9,0.5-1.8,2.3-1.8c0.6,0,1.2,0.1,1.7,0.3v1c-0.5-0.2-1.1-0.3-1.7-0.3
				c-1,0-1.3,0.4-1.3,1s0.4,0.8,1.2,0.9C10.3,137.7,11.1,138,11.1,139.3z"/>
		</g>
		<g>
			<path class="st1" d="M14.8,139.6h-2l-0.5,1.6h-1l2-6.4h1l2,6.4h-1L14.8,139.6z M13.8,136l-0.8,2.8h1.6L13.8,136z"/>
		</g>
		<g>
			<path class="st1" d="M20.3,138.4h-2.6v2.8h-1v-6.4h3.8v0.9h-2.9v1.8h2.6V138.4z"/>
		</g>
		<g>
			<path class="st1" d="M24.9,138.3h-2.6v2h2.9v0.9h-3.9v-6.4h3.9v0.9h-2.9v1.8h2.6V138.3z"/>
		</g>
		<g>
			<path class="st1" d="M30.5,139.6h-2l-0.5,1.6H27l2-6.4h1l2,6.4h-1L30.5,139.6z M29.5,136l-0.8,2.8h1.6L29.5,136z"/>
		</g>
		<g>
			<path class="st1" d="M36.2,141.2l-2.8-4.5v4.5h-1v-6.4h0.9l2.8,4.5v-4.5h1v6.4H36.2z"/>
		</g>
		<g>
			<path class="st1" d="M38.1,141.2v-6.4H40c2.1,0,2.7,1.4,2.7,3.2s-0.6,3.2-2.7,3.2H38.1z M39.1,140.3h1c1.3,0,1.7-0.9,1.7-2.3
				s-0.4-2.3-1.7-2.3h-1V140.3z"/>
		</g>
		<g>
			<path class="st1" d="M45.1,141.2v-6.4h1v6.4H45.1z"/>
		</g>
		<g>
			<path class="st1" d="M50.8,141.2l-2.8-4.5v4.5h-1v-6.4h1l2.8,4.5v-4.5h1v6.4H50.8z"/>
		</g>
		<g>
			<path class="st1" d="M55.2,134.7c0.5,0,1,0.1,1.5,0.3v0.9c-0.5-0.2-0.9-0.3-1.4-0.3c-1.2,0-1.7,0.8-1.7,2.4s0.5,2.4,1.7,2.4
				c0.5,0,1-0.1,1.4-0.3v0.9c-0.5,0.2-1,0.3-1.5,0.3c-1.9,0-2.6-1.2-2.6-3.3S53.3,134.7,55.2,134.7z"/>
		</g>
		<g>
			<path class="st1" d="M58.5,140.3h2.8v0.9h-3.7v-6.4h1L58.5,140.3z"/>
		</g>
		<g>
			<path class="st1" d="M61.7,139.2v-4.4h1v4.3c0.1,0.7,0.7,1.3,1.5,1.2c0.7-0.1,1.2-0.6,1.2-1.2v-4.3h1v4.4
				c-0.1,1.3-1.3,2.2-2.6,2.1C62.8,141.1,61.9,140.3,61.7,139.2L61.7,139.2z"/>
		</g>
		<g>
			<path class="st1" d="M71.4,139.3c0,1.2-0.7,2-2.4,2c-0.6,0-1.3-0.1-1.9-0.4V140c0.6,0.3,1.2,0.4,1.8,0.4c1.2,0,1.5-0.5,1.5-1.1
				s-0.3-0.9-1.2-1c-1.6-0.2-2.2-0.6-2.2-1.8c0-0.9,0.5-1.8,2.3-1.8c0.6,0,1.2,0.1,1.7,0.3v1c-0.5-0.2-1.1-0.3-1.7-0.3
				c-1,0-1.3,0.4-1.3,1s0.4,0.8,1.2,0.9C70.7,137.7,71.4,138,71.4,139.3z"/>
		</g>
		<g>
			<path class="st1" d="M72.4,141.2v-6.4h0.9v6.4H72.4z"/>
		</g>
		<g>
			<path class="st1" d="M79.1,134.8l-2,6.4h-1l-2-6.4h1l1.5,5.2l1.5-5.2L79.1,134.8z"/>
		</g>
		<g>
			<path class="st1" d="M83.2,138.3h-2.7v2h2.9v0.9h-3.9v-6.4h3.9v0.9h-2.9v1.8h2.7V138.3z"/>
		</g>
		<g>
			<path class="st1" d="M6.8,147c0-2,0.7-3.3,2.6-3.3c0.6,0,1.3,0.1,1.8,0.3v1c-0.5-0.2-1.1-0.4-1.7-0.4c-1.3,0-1.8,0.9-1.8,2.4
				s0.5,2.4,1.8,2.4c0.3,0,0.6,0,0.9-0.1v-1.7H9.3v-0.9h2.1v3.2c-0.6,0.3-1.3,0.4-2,0.4C7.5,150.3,6.8,149,6.8,147z"/>
		</g>
		<g>
			<path class="st1" d="M13.3,150.2h-0.9v-6.4h2.1c1.6,0,2.2,0.7,2.2,1.9c0.1,0.7-0.3,1.4-1,1.7l1.3,2.8h-1.1l-1.2-2.6h-1.3V150.2z
				 M13.3,146.7h1.3c0.9,0,1-0.5,1-1s-0.1-1-1-1h-1.3V146.7z"/>
		</g>
		<g>
			<path class="st1" d="M21.1,147.3h-2.6v2h2.9v0.9h-3.9v-6.4h3.9v0.9h-2.9v1.8h2.6V147.3z"/>
		</g>
		<g>
			<path class="st1" d="M25.9,147.3h-2.6v2h2.9v0.9h-3.9v-6.4h3.9v0.9h-2.9v1.8h2.6V147.3z"/>
		</g>
		<g>
			<path class="st1" d="M30.6,150.2l-2.8-4.5v4.5H27v-6.4h0.9l2.8,4.5v-4.5h0.9v6.4H30.6z"/>
		</g>
		<g>
			<path class="st1" d="M37,148.6h-2l-0.5,1.6h-1l2-6.4h1l2,6.4h-1L37,148.6z M36,145l-0.8,2.8h1.6L36,145z"/>
		</g>
		<g>
			<path class="st1" d="M42.8,150.2l-2.8-4.5v4.5h-1v-6.4h0.9l2.8,4.5v-4.5h1v6.4H42.8z"/>
		</g>
		<g>
			<path class="st1" d="M44.6,150.2v-6.4h1.9c2.1,0,2.7,1.4,2.7,3.2s-0.6,3.2-2.7,3.2H44.6z M45.6,149.3h1c1.3,0,1.7-0.9,1.7-2.3
				s-0.4-2.3-1.7-2.3h-1V149.3z"/>
		</g>
		<g>
			<path class="st1" d="M52.3,150.2h-1v-6.4h2c1.6,0,2.2,0.9,2.2,2s-0.6,2-2.2,2h-1.1L52.3,150.2z M52.3,146.9h1.1
				c0.6,0.1,1.2-0.4,1.2-1s-0.4-1.2-1-1.2c-0.1,0-0.1,0-0.2,0h-1.1V146.9z"/>
		</g>
		<g>
			<path class="st1" d="M56,148.2v-4.4h1v4.3c0,0.8,0.6,1.4,1.4,1.4s1.4-0.6,1.4-1.4v-4.3h1v4.4c-0.1,1.3-1.3,2.2-2.6,2.1
				C57.1,150.1,56.2,149.3,56,148.2L56,148.2z"/>
		</g>
		<g>
			<path class="st1" d="M61.6,143.8h2.1c1.6,0,2,0.8,2,1.7c0,0.5-0.3,1-0.8,1.3c0.6,0.2,1.1,0.8,1,1.5c0,1.1-0.5,1.9-2.2,1.9h-2.2
				V143.8z M63.8,144.7h-1.2v1.8h1.2c0.4,0.1,0.9-0.2,0.9-0.7c0-0.1,0-0.1,0-0.2C64.7,145.2,64.6,144.7,63.8,144.7z M62.5,149.3h1.3
				c0.9,0,1.1-0.5,1.1-1s-0.3-1-1.1-1h-1.3V149.3z"/>
		</g>
		<g>
			<path class="st1" d="M67.6,149.3h2.8v0.9h-3.7v-6.4h1L67.6,149.3z"/>
		</g>
		<g>
			<path class="st1" d="M71,150.2v-6.4h1v6.4H71z"/>
		</g>
		<g>
			<path class="st1" d="M75.6,143.7c0.5,0,1,0.1,1.5,0.3v0.9c-0.5-0.2-0.9-0.3-1.4-0.3c-1.2,0-1.7,0.8-1.7,2.4s0.5,2.4,1.7,2.4
				c0.5,0,1-0.1,1.4-0.3v0.9c-0.5,0.2-1,0.3-1.5,0.3c-1.9,0-2.6-1.2-2.6-3.3S73.7,143.7,75.6,143.7z"/>
		</g>
		<g>
			<path class="st1" d="M11.1,157.3c0,1.2-0.7,2-2.4,2c-0.6,0-1.3-0.1-1.9-0.4V158c0.6,0.3,1.2,0.4,1.8,0.4c1.1,0,1.5-0.5,1.5-1.1
				s-0.3-0.9-1.2-1c-1.6-0.2-2.2-0.6-2.2-1.8c0-0.9,0.5-1.8,2.3-1.8c0.6,0,1.2,0.1,1.7,0.3v1c-0.5-0.2-1.1-0.3-1.7-0.3
				c-1,0-1.3,0.4-1.3,1s0.4,0.8,1.2,0.9C10.3,155.7,11.1,156,11.1,157.3z"/>
		</g>
		<g>
			<path class="st1" d="M12.8,159.2h-1v-6.4h2.1c1.6,0,2.2,0.9,2.2,2s-0.6,2-2.2,2h-1.1L12.8,159.2z M12.8,155.9H14
				c0.6,0.1,1.2-0.4,1.2-1c0.1-0.6-0.4-1.2-1-1.2c-0.1,0-0.1,0-0.2,0h-1.2V155.9z"/>
		</g>
		<g>
			<path class="st1" d="M19.2,157.6h-2l-0.5,1.6h-1l2-6.4h1l2,6.4h-1L19.2,157.6z M18.2,154l-0.8,2.8H19L18.2,154z"/>
		</g>
		<g>
			<path class="st1" d="M23.5,152.7c0.5,0,1,0.1,1.5,0.3v0.9c-0.5-0.2-0.9-0.3-1.4-0.3c-1.2,0-1.7,0.8-1.7,2.4s0.5,2.4,1.7,2.4
				c0.5,0,1-0.1,1.4-0.3v0.9c-0.5,0.2-1,0.3-1.5,0.3c-1.9,0-2.6-1.2-2.6-3.3S21.6,152.7,23.5,152.7z"/>
		</g>
		<g>
			<path class="st1" d="M29.5,156.3h-2.6v2h2.9v0.9h-3.9v-6.4h3.9v0.9h-2.9v1.8h2.6V156.3z"/>
		</g>
		<g>
			<path class="st1" d="M34.8,157.3c0,1.2-0.7,2-2.4,2c-0.6,0-1.3-0.1-1.9-0.4V158c0.6,0.3,1.2,0.4,1.8,0.4c1.2,0,1.5-0.5,1.5-1.1
				s-0.3-0.9-1.2-1c-1.5-0.2-2.1-0.6-2.1-1.8c0-0.9,0.5-1.8,2.3-1.8c0.6,0,1.2,0.1,1.7,0.3v1c-0.5-0.2-1.1-0.3-1.7-0.3
				c-1,0-1.3,0.4-1.3,1s0.4,0.8,1.2,0.9C34,155.7,34.8,156,34.8,157.3z"/>
		</g>
	</g>
	<g>
		<rect x="3.3" y="24" class="st1" width="94.8" height="94.8"/>
	</g>
	<g>
		<path class="st1" d="M98.2,20.7H3.3V3.3h94.8V20.7z M4.3,19.7h92.8V4.3H4.3L4.3,19.7z"/>
	</g>
	<g class="st2">
		<path class="st1" d="M6.7,6.9h4.5v1.4H9.9v8.8H8.1V8.3H6.7V6.9z"/>
	</g>
	<g class="st2">
		<path class="st1" d="M11.2,17.1l1.9-10.2h1.9L17,17.1h-1.8l-0.3-1.9h-1.8l-0.3,1.9H11.2z M13.3,13.9h1.4L14,9.8h0L13.3,13.9z"/>
	</g>
	<g class="st2">
		<path class="st1" d="M19.6,12.4v4.7h-1.7V6.9h2.5c1.7,0,2.4,0.9,2.4,2.3v1.3c0,1.1-0.4,1.7-1.4,2l1.6,4.6h-1.8L19.6,12.4z
			 M19.6,8.3v3.2h0.6c0.6,0,0.8-0.3,0.8-0.8V9.2c0-0.6-0.3-0.8-0.8-0.8H19.6z"/>
	</g>
	<g class="st2">
		<path class="st1" d="M26.4,11.7h2.4v5.4h-1.2V16c-0.2,0.8-0.7,1.2-1.6,1.2c-1.5,0-2.1-1.2-2.1-2.7V9.6c0-1.6,0.8-2.7,2.6-2.7
			c1.9,0,2.4,1.1,2.4,2.6v0.9h-1.6v-1c0-0.6-0.2-1-0.9-1c-0.6,0-0.9,0.4-0.9,1v5.5c0,0.6,0.3,1,0.8,1c0.6,0,0.8-0.3,0.8-1V13h-0.8
			V11.7z"/>
	</g>
	<g class="st2">
		<path class="st1" d="M30.2,6.9h4.1v1.4h-2.4v2.9h1.7v1.4h-1.7v3.1h2.4v1.4h-4.1V6.9z"/>
	</g>
	<g class="st2">
		<path class="st1" d="M35.1,6.9h4.5v1.4h-1.4v8.8h-1.7V8.3h-1.4V6.9z"/>
	</g>
	<g class="st2">
		<path class="st1" d="M80.3,6.9v10.2h-1.7V9.3h0l-1.2,1.2h0V8.8l1.6-1.8H80.3z"/>
	</g>
	<g class="st2">
		<path class="st1" d="M84.4,6.9v10.2h-1.7V9.3h0l-1.2,1.2h0V8.8L83,6.9H84.4z"/>
	</g>
	<g class="st2">
	</g>
	<g class="st2">
		<path class="st1" d="M87.5,10.8c0.7,0,1.2,0.6,1.2,1.2c0,0.7-0.6,1.2-1.2,1.2c-0.7,0-1.2-0.6-1.2-1.2
			C86.2,11.4,86.8,10.8,87.5,10.8z"/>
	</g>
	<g class="st2">
		<path class="st1" d="M90.1,6.9h4.3v1.6l-2.2,8.6h-1.7l2.3-8.8h-2.6V6.9z"/>
	</g>
	<g>
		<g>
			<path class="st0" d="M17.5,59h2.4v6.3c0,0.1,0.1,0.2,0.2,0.2H23c0.1,0,0.2-0.1,0.2-0.2c0,0,0,0,0,0V59h4.7c3,0,5.5-2.5,5.5-5.5
				c0-1.4-0.5-2.7-1.5-3.8c2.5-1.4,3.3-4.5,1.9-7c-0.9-1.6-2.6-2.6-4.5-2.6H29c-0.2-3.9-3.4-6.9-7.3-6.7s-6.9,3.4-6.7,7.3
				c0,1,0.3,2,0.8,3c-4.2,1-6.7,5.2-5.7,9.4C11,56.5,14,58.9,17.5,59z"/>
		</g>
		<g>
			<path class="st0" d="M81.4,42.2c0.7,0,1.3-0.5,1.3-1.2h2.7c-0.1-1.8-1.4-3.3-3.2-3.5v-0.7c-0.1-1.5,1-2.9,2.5-3.1
				c0.1,0,0.2,0,0.3,0c1.5,0,2.9,1,2.9,3.3v21.2h-0.8c-0.5,0-0.9,0.4-0.9,0.9l0,0v5.6c0,0.5,0.4,0.9,0.9,0.9c0,0,0,0,0,0h3.1
				c0.5,0,0.9-0.4,0.9-0.9c0,0,0,0,0,0V59c0-0.5-0.4-0.9-0.9-0.9l0,0h-0.7V36.9c0.2-2.5-1.7-4.7-4.2-4.9c-0.1,0-0.2,0-0.3,0l0,0
				c-2.5,0-4.5,2-4.5,4.4c0,0.1,0,0.2,0,0.3v0.7c-1.8,0.2-3.2,1.8-3.2,3.6h2.7C80.2,41.7,80.8,42.2,81.4,42.2z"/>
		</g>
		<g>
			<path class="st0" d="M43,60.3v5.1c0,0.1,0.1,0.2,0.1,0.2c0,0,0,0,0,0h2.2c0.1,0,0.2-0.1,0.2-0.2v-5.1c3.6-0.7,6.1-4,6-7.6
				c0-4.5-3.5-12-7.6-12s-7.5,7.5-7.5,12C36.4,56.4,39.2,59.7,43,60.3z"/>
		</g>
		<g>
			<g>
				<rect x="57.7" y="54.9" class="st0" width="20.1" height="2.4"/>
			</g>
			<g>
				<rect x="57.7" y="51.5" class="st0" width="20.1" height="2.4"/>
			</g>
			<g>
				<polygon class="st0" points="79,56.2 79,59 56.6,59 56.6,56.2 54.9,56.2 54.9,65.4 56.6,65.4 56.6,61 79,61 79,65.4 80.6,65.4 
					80.6,56.2 				"/>
			</g>
		</g>
		<g>
			<g>
				<path class="st0" d="M64.9,79.7c1.8,0,3.2-1.4,3.2-3.2s-1.4-3.2-3.2-3.2s-3.2,1.4-3.2,3.2S63.2,79.7,64.9,79.7L64.9,79.7z"/>
			</g>
			<g>
				<path class="st0" d="M68.7,81h-0.2h-7h-0.2c-2.2,0.2-3.9,2.1-3.9,4.3v8.9c0,0.7,0.6,1.2,1.2,1.2s1.2-0.6,1.2-1.2v-7.7
					c0-0.3,0.1-0.7,0.6-0.7c0.4,0,0.4,0.4,0.5,0.6v23c0,1,0.8,1.8,1.8,1.8s1.8-0.8,1.8-1.8V96.2c0-0.3,0.2-0.5,0.4-0.5
					c0,0,0,0,0.1,0l0,0c0.3,0,0.5,0.2,0.5,0.5c0,0,0,0,0,0v13.2c0,1,0.8,1.8,1.8,1.8s1.8-0.8,1.8-1.8v-23c0-0.2,0.1-0.6,0.4-0.6
					c0.5,0,0.6,0.4,0.6,0.7v7.7c0,0.7,0.6,1.2,1.2,1.2s1.2-0.6,1.2-1.2v-8.9C72.6,83,70.9,81.2,68.7,81z"/>
			</g>
		</g>
		<g>
			<g>
				<path class="st0" d="M20.9,82.3c1.7,0,3-1.3,3.1-2.9c0-1.1-0.6-2.2-1.6-2.7c0.1-0.2,0.2-0.3,0.2-0.5c-0.1-0.8-0.8-1.3-1.5-1.2
					c-0.8-0.1-1.4,0.5-1.5,1.2c0,0.2,0,0.3,0.1,0.4C18,77.2,17.3,79,18,80.5C18.5,81.6,19.6,82.3,20.9,82.3z"/>
			</g>
			<g>
				<path class="st0" d="M29.5,93.3l-2.5-8.2c0,0-0.9-2.4-2.9-2.4h-6.4c-2,0-2.9,2.4-2.9,2.4l-2.5,8.2c0,0-0.4,1.2,0.5,1.7
					c0,0,0,0.1,0,0.1l-3,15.4c0,0.3,0.1,0.5,0.4,0.5c0,0,0,0,0,0h0.1c0.2,0,0.4-0.2,0.5-0.4l3-15.4c0,0,0-0.1,0-0.1
					c0.8-0.1,1.1-1.1,1.1-1.1l2-6.8c0,0,0.1-0.5,0.5-0.4s0.2,0.7,0.2,0.7L14,100.4h3.3v9.2c0,0.9,0.7,1.6,1.6,1.6
					c0.9,0,1.6-0.7,1.6-1.6c0,0,0,0,0,0v-9.2h0.9v9.2c0,0.9,0.7,1.6,1.6,1.6c0.9,0,1.6-0.7,1.6-1.6c0,0,0,0,0,0v-9.2h3.3l-3.6-12.8
					c0,0-0.1-0.6,0.2-0.7s0.5,0.4,0.5,0.4l2,6.8c0,0,0.4,1.5,1.6,1.1S29.5,93.3,29.5,93.3z"/>
			</g>
		</g>
		<g>
			<g>
				<path class="st0" d="M43,88.6c1.6,0,2.9-1.4,2.8-3c0-1.6-1.4-2.9-3-2.8c-1.6,0-2.8,1.3-2.8,2.9C40,87.3,41.3,88.6,43,88.6
					C42.9,88.6,43,88.6,43,88.6z"/>
			</g>
			<g>
				<path class="st0" d="M55.1,106.6l-1.2-2.4c0,0,0,0,0-0.1L51,98.3c-0.3-0.5-0.8-0.8-1.4-0.8h-4.2l-0.1-5.2c0-1.6-0.4-2.5-1.6-2.8
					c-0.6-0.1-1.2-0.1-1.8,0h-0.2l0,0l-4.9,1.6h-0.1h-0.1h-0.1c-0.2,0.1-0.4,0.4-0.5,0.6l-1.4,3.9c-0.3,0.6,0,1.4,0.6,1.6
					c0.6,0.3,1.4,0,1.6-0.6c0-0.1,0-0.1,0.1-0.2l1.2-3.4l1.8-0.4h0.1v5.5c0,1.2,0.4,2.5,1.6,2.8l0.4,0.1c0.2,0,0.4,0,0.6,0h6.2
					l1.6,3.2c0,0,0,0.1,0,0.1l0.6,1.1l0.5,1.1l0.1,0.1l0,0l0.7,1.3c0.4,0.7,1.4,1,2.1,0.6C55.2,108.2,55.5,107.3,55.1,106.6
					L55.1,106.6z"/>
			</g>
			<g>
				<path class="st0" d="M46.2,103.1c0,0.1,0,0.2,0,0.3c0,3.3-2.6,5.9-5.9,5.9c-3.3,0-5.9-2.6-5.9-5.9c0-1.3,0.4-2.6,1.3-3.7
					l-1.5-1.2c-2.6,3.4-2,8.3,1.3,10.9c3.4,2.6,8.3,2,10.9-1.3c1.1-1.4,1.6-3.1,1.6-4.8c0-0.1,0-0.2,0-0.3H46.2z"/>
			</g>
		</g>
		<g>
			<g>
				<path class="st0" d="M91.7,95.7l-2.2-7.2c0,0-0.8-2.1-2.5-2.1h-5.6c-1.7,0-2.5,2.1-2.5,2.1l-2.2,7.2c0,0-0.4,1.3,0.7,1.6
					s1.4-0.9,1.4-0.9l1.8-6c0,0,0.1-0.5,0.4-0.4s0.2,0.6,0.2,0.6l-3.1,11.2H81v8c-0.1,0.8,0.5,1.4,1.3,1.5c0.8,0.1,1.4-0.5,1.5-1.3
					c0-0.1,0-0.2,0-0.2v-8h0.8v8c-0.1,0.8,0.5,1.4,1.3,1.5c0.8,0.1,1.4-0.5,1.5-1.3c0-0.1,0-0.2,0-0.2v-8h2.9l-3.1-11.2
					c0,0-0.1-0.5,0.2-0.6s0.4,0.4,0.4,0.4l1.8,6c0,0,0.3,1.3,1.4,0.9S91.7,95.7,91.7,95.7z"/>
			</g>
			<g>
				<path class="st0" d="M79.4,81.9c0.1-0.2,0.4-0.7,1.2-0.8c0.2,0,0.3-0.1,0.5-0.2c0.1-0.3,0.3-0.5,0.5-0.8c0-0.1,0-0.1,0-0.2
					c0-0.4-0.5-0.9-1.4-0.5c-1.1,0.5-1,2.2-1,2.2S79.4,82,79.4,81.9z"/>
			</g>
			<g>
				<path class="st0" d="M87.4,80.9c0.2,0.1,0.3,0.2,0.5,0.2c0.9,0.1,1.2,0.5,1.2,0.8c0,0.1,0,0,0.1-0.2s0.1-1.6-1-2.2
					c-0.9-0.4-1.3,0.1-1.4,0.5c0,0.1,0,0.1,0,0.2C87,80.4,87.2,80.7,87.4,80.9z"/>
			</g>
			<g>
				<path class="st0" d="M84.2,85.7c1.7,0,3-1.3,3-3s-1.3-3-3-3s-3,1.3-3,3S82.6,85.7,84.2,85.7z"/>
			</g>
		</g>
	</g>
	<g>
		<path class="st1" d="M98.2,162.9h-95v-40.7h95V162.9z M4.2,161.9h93v-38.7h-93V161.9z"/>
	</g>
</g>
</svg>
