<?xml version="1.0" encoding="utf-8"?>
<!-- Generator: Adobe Illustrator 22.0.1, SVG Export Plug-In . SVG Version: 6.00 Build 0)  -->
<svg version="1.1" id="Layer_1" xmlns="http://www.w3.org/2000/svg" xmlns:xlink="http://www.w3.org/1999/xlink" x="0px" y="0px"
	 viewBox="0 0 101.5 157.1" style="enable-background:new 0 0 101.5 157.1;" xml:space="preserve">
<style type="text/css">
	.st0{fill:#FFFFFF;}
	.st1{fill:#FD9D24;}
	.st2{enable-background:new    ;}
</style>
<title>TARGET 1 B copy 3</title>
<g id="WHITE_BG">
	<g>
		<rect y="0" class="st0" width="101.5" height="157.1"/>
	</g>
</g>
<g id="TARGETS">
	<g>
		<g>
			<path class="st1" d="M7.8,132.2h-1v-6.4h2.1c1.6,0,2.2,1,2.2,2c0,1-0.6,2-2.2,2H7.8V132.2z M7.8,128.9H9c0.6,0.1,1.2-0.4,1.2-1
				c0.1-0.6-0.4-1.2-1-1.2c-0.1,0-0.1,0-0.2,0H7.8V128.9z"/>
		</g>
		<g>
			<path class="st1" d="M12.7,132.2h-1v-6.4h2.1c1.6,0,2.2,0.7,2.2,1.9c0.1,0.7-0.3,1.4-1,1.7l1.3,2.8h-1.1l-1.2-2.6h-1.3V132.2z
				 M12.7,128.7h1.2c0.9,0,1-0.5,1-1s-0.1-1-1-1h-1.2V128.7z"/>
		</g>
		<g>
			<path class="st1" d="M16.7,129c0-1.8,0.4-3.3,2.5-3.3s2.5,1.5,2.5,3.3s-0.4,3.3-2.5,3.3S16.7,130.8,16.7,129z M17.7,129
				c0,1.5,0.3,2.4,1.5,2.4s1.5-0.9,1.5-2.4s-0.3-2.4-1.5-2.4S17.7,127.5,17.7,129L17.7,129z"/>
		</g>
		<g>
			<path class="st1" d="M24.4,126.7v5.5h-1v-5.5h-1.6v-0.9H26v0.9H24.4z"/>
		</g>
		<g>
			<path class="st1" d="M30.1,129.3h-2.6v2h2.9v0.9h-3.9v-6.4h3.9v0.9h-2.9v1.8h2.6V129.3z"/>
		</g>
		<g>
			<path class="st1" d="M33.8,125.7c0.5,0,1,0.1,1.5,0.3v0.9c-0.5-0.2-0.9-0.3-1.4-0.3c-1.2,0-1.7,0.8-1.7,2.4s0.5,2.4,1.7,2.4
				c0.5,0,1-0.1,1.4-0.3v0.9c-0.5,0.2-1,0.3-1.5,0.3c-1.9,0-2.6-1.2-2.6-3.3S31.9,125.7,33.8,125.7z"/>
		</g>
		<g>
			<path class="st1" d="M38.2,126.7v5.5h-1v-5.5h-1.6v-0.9h4.3v0.9H38.2z"/>
		</g>
		<g>
			<path class="st1" d="M43.7,126.7v5.5h-1v-5.5h-1.6v-0.9h4.3v0.9H43.7z"/>
		</g>
		<g>
			<path class="st1" d="M49.4,132.2v-2.9h-2.6v2.9h-1v-6.4h1v2.6h2.6v-2.6h1v6.4H49.4z"/>
		</g>
		<g>
			<path class="st1" d="M54.9,129.3h-2.7v2h2.9v0.9h-3.9v-6.4h3.9v0.9h-2.9v1.8h2.7V129.3z"/>
		</g>
		<g>
			<path class="st1" d="M59.9,125.8H61l1.1,5l0.8-5h1l-1.2,6.4h-1.2l-1.2-5.3l-1.2,5.3h-1.2l-1.2-6.4h1l0.8,5L59.9,125.8z"/>
		</g>
		<g>
			<path class="st1" d="M64.4,129c0-1.8,0.4-3.3,2.5-3.3s2.4,1.5,2.4,3.3s-0.4,3.3-2.4,3.3S64.4,130.8,64.4,129z M65.4,129
				c0,1.5,0.3,2.4,1.5,2.4s1.5-0.9,1.5-2.4s-0.3-2.4-1.5-2.4S65.4,127.5,65.4,129L65.4,129z"/>
		</g>
		<g>
			<path class="st1" d="M71.1,132.2h-1v-6.4h2.1c1.7,0,2.2,0.7,2.2,1.9c0.1,0.7-0.3,1.4-1,1.7l1.3,2.8h-1.1l-1.2-2.6h-1.3V132.2z
				 M71.1,128.7h1.3c0.9,0,1-0.5,1-1s-0.1-1-1-1h-1.3V128.7z"/>
		</g>
		<g>
			<path class="st1" d="M76.3,131.3h2.8v0.9h-3.7v-6.4h1L76.3,131.3z"/>
		</g>
		<g>
			<path class="st1" d="M79.6,132.2v-6.4h1.9c2.1,0,2.7,1.4,2.7,3.2s-0.6,3.2-2.7,3.2L79.6,132.2z M80.6,131.3h1
				c1.3,0,1.7-0.9,1.7-2.3s-0.4-2.3-1.7-2.3h-1V131.3z"/>
		</g>
		<g>
			<path class="st1" d="M84.6,128l0.2-2.1H86l-0.8,2.1H84.6z"/>
		</g>
		<g>
			<path class="st1" d="M90.1,130.3c0,1.2-0.7,2-2.4,2c-0.6,0-1.3-0.1-1.9-0.4V131c0.6,0.3,1.2,0.4,1.8,0.4c1.2,0,1.5-0.5,1.5-1.1
				s-0.3-0.9-1.2-1c-1.6-0.2-2.2-0.6-2.2-1.8c0-0.9,0.5-1.8,2.3-1.8c0.6,0,1.2,0.1,1.7,0.3v1c-0.5-0.2-1.1-0.3-1.7-0.3
				c-1,0-1.3,0.4-1.3,1c0,0.7,0.4,0.8,1.2,0.9C89.3,128.7,90.1,129,90.1,130.3z"/>
		</g>
		<g>
			<path class="st1" d="M9.4,134.7c0.5,0,1,0.1,1.5,0.3v0.9c-0.5-0.2-0.9-0.3-1.4-0.3c-1.2,0-1.7,0.8-1.7,2.4s0.5,2.4,1.7,2.4
				c0.5,0,1-0.1,1.4-0.3v0.9c-0.5,0.2-1,0.3-1.5,0.3c-1.9,0-2.6-1.2-2.6-3.3S7.5,134.7,9.4,134.7z"/>
		</g>
		<g>
			<path class="st1" d="M11.8,139.2v-4.4h0.9v4.3c-0.1,0.7,0.4,1.3,1,1.3c0.1,0,0.2,0,0.3,0c0.6,0.1,1.3-0.3,1.4-1
				c0-0.1,0-0.2,0-0.3v-4.3h1v4.4c0,1.1-0.8,2.1-2,2.1c-0.1,0-0.2,0-0.3,0c-1.1,0.2-2.2-0.6-2.3-1.7
				C11.8,139.4,11.7,139.3,11.8,139.2z"/>
		</g>
		<g>
			<path class="st1" d="M18.2,140.3H21v0.9h-3.7v-6.4h1L18.2,140.3z"/>
		</g>
		<g>
			<path class="st1" d="M23,135.7v5.5h-1v-5.5h-1.6v-0.9h4.3v0.9H23z"/>
		</g>
		<g>
			<path class="st1" d="M25.1,139.2v-4.4h1v4.3c-0.1,0.7,0.4,1.2,1,1.3c0.1,0,0.2,0,0.3,0c0.6,0.1,1.3-0.3,1.4-1c0-0.1,0-0.2,0-0.3
				v-4.3h1v4.4c0,1.1-0.8,2.1-2,2.1c-0.1,0-0.2,0-0.3,0c-1.1,0.2-2.2-0.6-2.3-1.7C25.2,139.5,25.1,139.3,25.1,139.2z"/>
		</g>
		<g>
			<path class="st1" d="M31.6,141.2h-1v-6.4h2.1c1.7,0,2.2,0.7,2.2,1.9c0.1,0.7-0.3,1.4-1,1.7l1.3,2.8h-1.2l-1.1-2.6h-1.4V141.2z
				 M31.6,137.7h1.3c0.9,0,1-0.5,1-1s-0.1-1-1-1h-1.3V137.7z"/>
		</g>
		<g>
			<path class="st1" d="M39,139.6h-2l-0.5,1.6h-1l2-6.4h1l2,6.4h-1L39,139.6z M38,136l-0.8,2.8h1.6L38,136z"/>
		</g>
		<g>
			<path class="st1" d="M41.9,140.3h2.8v0.9H41v-6.4h1L41.9,140.3z"/>
		</g>
		<g>
			<path class="st1" d="M49.9,139.6h-2l-0.5,1.6h-1l2-6.4h1l2,6.4h-1L49.9,139.6z M48.9,136l-0.8,2.8h1.6L48.9,136z"/>
		</g>
		<g>
			<path class="st1" d="M55.6,141.2l-2.8-4.5v4.5h-1v-6.4h0.9l2.8,4.5v-4.5h1v6.4H55.6z"/>
		</g>
		<g>
			<path class="st1" d="M57.4,141.2v-6.4h1.9c2.1,0,2.7,1.4,2.7,3.2s-0.6,3.2-2.7,3.2H57.4z M58.4,140.3h1c1.3,0,1.7-0.9,1.7-2.3
				s-0.4-2.3-1.7-2.3h-1V140.3z"/>
		</g>
		<g>
			<path class="st1" d="M10.6,150.2l-2.8-4.5v4.5H6.9v-6.4h0.9l2.8,4.5v-4.5h0.9v6.4H10.6z"/>
		</g>
		<g>
			<path class="st1" d="M15.5,148.6h-2l-0.5,1.6h-1l2-6.4h1l2,6.4h-1L15.5,148.6z M14.5,145l-0.8,2.8h1.6L14.5,145z"/>
		</g>
		<g>
			<path class="st1" d="M19,144.7v5.5h-1v-5.5h-1.6v-0.9h4.3v0.9H19z"/>
		</g>
		<g>
			<path class="st1" d="M21.3,148.2v-4.4h1v4.3c-0.1,0.7,0.4,1.2,1,1.3c0.1,0,0.2,0,0.3,0c0.6,0.1,1.3-0.3,1.4-0.9
				c0-0.1,0-0.3,0-0.4v-4.3h1v4.4c0,1.1-0.8,2.1-2,2.1c-0.1,0-0.2,0-0.3,0c-1.1,0.2-2.2-0.6-2.3-1.7
				C21.3,148.5,21.3,148.3,21.3,148.2z"/>
		</g>
		<g>
			<path class="st1" d="M27.8,150.2h-1v-6.4h2.1c1.6,0,2.2,0.7,2.2,1.9c0.1,0.7-0.3,1.4-1,1.7l1.3,2.8h-1.1l-1.2-2.6h-1.3V150.2z
				 M27.8,146.7H29c0.9,0,1-0.5,1-1s-0.1-1-1-1h-1.2V146.7z"/>
		</g>
		<g>
			<path class="st1" d="M35.1,148.6h-2l-0.5,1.6h-1l2-6.4h1l2,6.4h-1L35.1,148.6z M34.1,145l-0.8,2.8h1.6L34.1,145z"/>
		</g>
		<g>
			<path class="st1" d="M38.1,149.3h2.8v0.9h-3.7v-6.4h1L38.1,149.3z"/>
		</g>
		<g>
			<path class="st1" d="M46.4,150.2v-2.9h-2.6v2.9h-1v-6.4h1v2.6h2.6v-2.6h1v6.4H46.4z"/>
		</g>
		<g>
			<path class="st1" d="M51.9,147.3h-2.6v2h2.9v0.9h-3.9v-6.4h3.9v0.9h-2.9v1.8h2.7L51.9,147.3z"/>
		</g>
		<g>
			<path class="st1" d="M54,150.2h-1v-6.4h2.1c1.6,0,2.2,0.7,2.2,1.9c0.1,0.7-0.3,1.4-1,1.7l1.3,2.8h-1.1l-1.2-2.6H54V150.2z
				 M54,146.7h1.3c0.9,0,1-0.5,1-1s-0.1-1-1-1H54V146.7z"/>
		</g>
		<g>
			<path class="st1" d="M58.2,150.2v-6.4h1v6.4H58.2z"/>
		</g>
		<g>
			<path class="st1" d="M62.6,144.7v5.5h-1v-5.5H60v-0.9h4.3v0.9H62.6z"/>
		</g>
		<g>
			<path class="st1" d="M67.3,148.6h-2l-0.4,1.6h-1l2-6.4h1l2,6.4h-1L67.3,148.6z M66.3,145l-0.8,2.8h1.6L66.3,145z"/>
		</g>
		<g>
			<path class="st1" d="M69.1,147c0-2,0.7-3.3,2.6-3.3c0.6,0,1.3,0.1,1.8,0.3v1c-0.5-0.2-1.1-0.4-1.7-0.4c-1.3,0-1.8,0.9-1.8,2.4
				s0.5,2.4,1.8,2.4c0.3,0,0.6,0,0.9-0.1v-1.7h-1.1v-0.9h2.1v3.2c-0.6,0.3-1.3,0.4-2,0.4C69.8,150.3,69.1,149,69.1,147z"/>
		</g>
		<g>
			<path class="st1" d="M78.2,147.3h-2.7v2h2.9v0.9h-3.9v-6.4h3.9v0.9h-2.9v1.8h2.7V147.3z"/>
		</g>
	</g>
	<g>
		<rect x="3.3" y="24" class="st1" width="94.8" height="94.8"/>
	</g>
	<g class="st2">
		<path class="st1" d="M79.3,6.9v10.2h-1.7V9.3h0l-1.2,1.2h0V8.8L78,6.9H79.3z"/>
	</g>
	<g class="st2">
		<path class="st1" d="M83.4,6.9v10.2h-1.7V9.3h0l-1.2,1.2h0V8.8L82,6.9H83.4z"/>
	</g>
	<g class="st2">
	</g>
	<g class="st2">
		<path class="st1" d="M86.5,10.8c0.7,0,1.2,0.6,1.2,1.2c0,0.7-0.6,1.2-1.2,1.2c-0.7,0-1.2-0.6-1.2-1.2
			C85.2,11.4,85.8,10.8,86.5,10.8z"/>
	</g>
	<g class="st2">
		<path class="st1" d="M89.1,14.4l3-7.5h1.7v7.2h0.7v1.3h-0.7v1.7h-1.6v-1.7h-3V14.4z M90.6,14.1h1.5V9.9h0L90.6,14.1z"/>
	</g>
	<g>
		<path class="st1" d="M98.2,20.7H3.3V3.3h94.8V20.7z M4.3,19.7h92.8V4.3H4.3L4.3,19.7z"/>
	</g>
	<g class="st2">
		<path class="st1" d="M6.7,6.9h4.5v1.4H9.9v8.8H8.1V8.3H6.7V6.9z"/>
	</g>
	<g class="st2">
		<path class="st1" d="M11.2,17.1l1.9-10.2h1.9L17,17.1h-1.8l-0.3-1.9h-1.8l-0.3,1.9H11.2z M13.3,13.9h1.4L14,9.8h0L13.3,13.9z"/>
	</g>
	<g class="st2">
		<path class="st1" d="M19.6,12.4v4.7h-1.7V6.9h2.5c1.7,0,2.4,0.9,2.4,2.3v1.3c0,1.1-0.4,1.7-1.4,2l1.6,4.6h-1.8L19.6,12.4z
			 M19.6,8.3v3.2h0.6c0.6,0,0.8-0.3,0.8-0.8V9.2c0-0.6-0.3-0.8-0.8-0.8H19.6z"/>
	</g>
	<g class="st2">
		<path class="st1" d="M26.4,11.7h2.4v5.4h-1.2V16c-0.2,0.8-0.7,1.2-1.6,1.2c-1.5,0-2.1-1.2-2.1-2.7V9.6c0-1.6,0.8-2.7,2.6-2.7
			c1.9,0,2.4,1.1,2.4,2.6v0.9h-1.6v-1c0-0.6-0.2-1-0.9-1c-0.6,0-0.9,0.4-0.9,1v5.5c0,0.6,0.3,1,0.8,1c0.6,0,0.8-0.3,0.8-1V13h-0.8
			V11.7z"/>
	</g>
	<g class="st2">
		<path class="st1" d="M30.2,6.9h4.1v1.4h-2.4v2.9h1.7v1.4h-1.7v3.1h2.4v1.4h-4.1V6.9z"/>
	</g>
	<g class="st2">
		<path class="st1" d="M35.1,6.9h4.5v1.4h-1.4v8.8h-1.7V8.3h-1.4V6.9z"/>
	</g>
	<g>
		<path class="st1" d="M98.2,153.8H3.3v-31.6h94.8V153.8z M4.3,152.8h92.8v-29.6H4.3L4.3,152.8z"/>
	</g>
	<g>
		<g>
			<path class="st0" d="M85.6,102.4c-8.5-0.6-17.1-0.2-25.5,1.4c-1.6,0.3-3,0.5-4.5,0.7c-1.9-0.7-2.2-1.9-2.1-2.3l0.3-1.8l0,0
				c0.1-0.3,0.3-0.6,0.5-0.8c0.7-0.6,1.4-0.5,2.5-0.6c0.7,0,1.4-0.2,2-0.7c0.5-0.4,0.8-0.8,0.6-1.1S59,97,58.8,97s-0.6,0.6-0.8,0.7
				s-0.1-0.1-0.1-0.1c0-0.4,0.2-0.8,0.5-1.2c0.2-0.2,0.2-0.5,0-0.8c0,0,0,0,0,0C57.5,95.2,57,96.7,57,97s-0.2,1-0.5,1.1
				c-0.5,0-1.1,0.1-1.6,0.2c-0.2,0.1-0.1-0.1-0.1-0.1l2-2.7c0.3-0.3,0.1-0.4,1.4-1c0.7-0.2,1.4-0.7,1.9-1.2c0.4-0.4,0.6-0.7,0.2-1
				s-0.9,0.4-1.2,0.7c-0.2,0.2-0.4,0.3-0.6,0.3c0.1-0.4,0.2-0.7,0.5-1c0.2-0.2,0.1-0.5-0.1-0.7c0,0,0,0,0,0
				c-0.2-0.2-0.5-0.1-0.7,0.1c-0.4,0.3-0.6,1.2-0.7,1.7s-0.6,0.7-0.9,0.9c-0.3,0.4-0.6,0.7-0.9,1.1c-0.1,0.2-1,1.2-1,1.2l0,0
				c-0.1-1,0.1-2.1,0.7-2.9c1-1.4,1.9-2.9,1.3-4.8c0,0-0.3-0.8-0.9-0.6s-0.5,0.6-0.3,1.1c0.1,0.5,0.1,1-0.1,1.5
				c-0.1-0.2-0.2-0.3-0.3-0.5c-0.4-0.4-0.6-0.9-0.6-1.5c0,0-0.3-0.6-0.7-0.4s-0.5,0.5-0.4,1.2l1,2.3c0.2,0.6,0.1,0.6-0.1,0.8
				c-0.2,0.3-0.4,0.6-0.6,0.9c-0.1,0.2-0.1,0.2-0.2-0.1c-0.2-0.6-0.4-1.2-0.7-1.8c-0.2-0.4-0.8-0.8-0.7-1.5c0.2-0.8,0.1-1.6-0.2-2.4
				c0,0-0.3-0.6-0.8-0.4c-0.3,0.1-0.5,0.5-0.4,0.8c0,0,0,0,0,0c0.2,0.5,0.2,0.9,0.2,1.4c-0.3-0.1-0.5-0.4-0.6-0.7
				c-0.2-0.5-0.7-1.6-1.3-1.3s-0.5,0.7-0.2,1.3c0.4,0.9,1,1.7,1.8,2.3c1.4,1.2,1.2,1.2,1.3,1.8s1.4,4.2,1.4,4.2s0,0.2-0.2,0
				c-0.6-0.3-1.3-0.6-1.9-0.8c-0.4-0.2-0.3-1.1-0.2-1.6s0-2.6-1.1-2.3c-0.4,0.1-0.6,0.6-0.4,0.9c0,0,0,0,0,0.1
				c0.2,0.5,0.2,1.1,0.1,1.7c0,0,0,0.3-0.2,0.1s-0.5-1.1-0.8-1.2s-0.3-0.2-0.8,0.1s-0.2,0.9,0.3,1.6c0.5,0.8,1.3,1.4,2.2,1.7
				c1.3,0.6,1.2,1,1.9,2.1c0.4,0.7,0.4,1.6-0.1,2.3c-0.2,0.4-0.4,0.8-0.7,1.2c-0.3,0.6-0.9,1.1-1.5,1.4c-0.5,0.2-0.9,0.4-1.4,0.6
				c-5.4,0.3-9.9,0.1-15.4,0.7c-2.9,0.3-5.2,0.5-7.2,0.6c-0.2-0.8,0-1.6,0.5-2.3c0.4-0.5,1.1-0.7,1.8-0.5c0.4,0.1,0.7,1.2,0.9,1.7
				s0.5,0.2,0.6-0.1c0-0.3-0.1-0.7-0.2-1c-0.1-0.3,0-0.3,0.3-0.2s0.5,0.3,0.9,0.5s0.8,0.1,0.8-0.3s-0.4-0.4-0.8-0.6
				s-0.6-0.2-0.3-0.5c0.3-0.2,0.4-0.6,0.3-0.9c-0.1-0.3-0.5-0.4-0.9,0.2s-0.9,0.6-1,0.2s0.7-1.3,1-1.8c0.3-0.5,0.9-0.8,1.5-0.9
				c0.6-0.2,0.9-0.2,0.9-0.4s-0.7-0.2-1-0.2c-0.2,0-0.4-0.1-0.5-0.4c0,0,0-0.1,0-0.1c0-0.3,0.5-0.7,0.9-1.1c0.4-0.4,0.5-0.6,0.3-0.9
				s-0.7-0.2-1.1,0.2c-0.3,0.3-0.6,0.7-0.9,1.1c-0.2,0.2-0.4-0.2-0.6-0.5s-0.6-0.5-0.8-0.3s0,0.4,0.3,0.7c0.3,0.4,0.5,0.9,0.5,1.4
				c0,0.5-0.3,1-0.8,1.2c-0.2,0.1-0.2-0.7-0.6-0.7s-0.5,0.5-0.5,1.2s-0.7,1-1,0.6c-0.4-0.6-0.6-1.3-0.6-2c0-0.5,0.7-1,1.1-1.3
				s1-0.4,0.7-0.8s-1.5,0.1-1.9,0.6s-0.6,0.3-0.7,0.1c-0.1-0.5-0.1-1,0-1.5c0.2-0.7,0.8-1.2,1.6-1.3c0.6,0,1.2,0.3,1.7,0.7
				c0.2,0.2,0.6,0.2,0.7-0.1s-0.6-0.7-0.9-0.9s-0.5-0.2-0.4-0.4s0.9-0.6,1.2-0.7s0.9-0.4,0.5-0.8s-1.4,0.3-1.7,0.4s-0.2-0.6-0.3-0.7
				s0-0.8-0.5-0.8s-0.4,0.9-0.5,1.4s-0.4,0.4-1,0.9c-0.4,0.4-0.9,0.8-1.2,1.2c-0.2,0.2-0.3-0.3-0.3-1.1c0-0.6,0.1-1.2,0.4-1.7
				c0.4-0.4,0.8-0.8,1.3-1.1c0.1-0.1,0.2-0.3,0.1-0.4c-0.1-0.1-0.3-0.2-0.4-0.1l0,0c-0.4,0.2-0.7,0.3-0.9,0.1s0.2-0.8,0.5-1.3
				s0.3-1.1-0.1-1.3s-0.9,0.3-1,0.8s-0.4,0.5-0.6,0.1s-0.5-0.5-0.6-0.4s-0.3,0.2,0.1,0.7c0.3,0.4,0.4,0.9,0.4,1.4
				c0,0.4-0.3,0.5-0.6,0.3s-0.7-0.4-0.8-0.2s0.2,0.5,0.6,0.6s0.3,0.8,0.4,1.1s-0.1,0.5-0.4,0.4c-0.5-0.2-0.9-0.7-1-1.2
				c0-0.3,0-0.6-0.1-0.9c-0.1-0.2-0.5-0.1-0.5,0.2c0,0.3,0,0.7,0,1c-0.1,0.2-0.5-0.1-1-0.3s-1,0-1,0.3s1,0.8,1.2,0.8
				s0.4,0.2,0.3,0.4s-0.6,0.5-0.8,0.7s0.1,0.6,0.4,0.3c0.4-0.3,0.8-0.6,1.3-0.6c0.4,0,0.7,0.2,0.9,0.5c0.1,0.2-0.2,0.3-0.6,0.4
				s-0.5,0.3-0.5,0.5s0.1,0.3,0.5,0.2c0.3-0.1,0.6-0.2,0.9-0.2c0.4,0,0.5,0.4,0.5,0.4c0.2,0.7,1.1,2.8,1.2,3.1s0,0.6-0.4,0.6
				s-0.9,0-0.9,0.4s0.9,0.4,1.4,0.4s0.5,0.6,0.6,1.3s-0.8,0.8-1.3,0.4c-0.7-0.6-1.3-1.4-1.8-2.1c-0.1-0.4-0.1-0.8,0.2-1.1
				c0.2-0.3,0.5-0.2,0.7-0.3c0.2-0.1,0.2-0.3,0.1-0.5c0,0,0,0,0,0c-0.1-0.2-0.6,0-0.7,0.2s-0.4,0.2-0.4,0s0.1-0.8,0.1-1
				s-0.1-0.5-0.5-0.3s-0.4,1.8-0.4,2.4s-0.3,0.7-0.5,0.6c-0.4-0.3-0.7-0.6-1-1c-0.1-0.3-0.1-0.4,0.2-0.9c0.2-0.2,0.3-0.4,0.4-0.7
				c0-0.2-0.3-0.3-0.4-0.1c-0.1,0.2-0.3,0.4-0.5,0.5c-0.2,0-0.1-0.8-0.1-0.9s0-0.4-0.3-0.4s-0.2,0.9-0.2,1s-0.3,0.1-0.7,0.1
				s-0.5,0.4-0.2,0.4c0.3,0,0.6,0.1,0.9,0.3c0.2,0.1,0.2,0.8,0.1,1s-0.4,0-1,0s-1.2,0-1.2,0.3s0.4,0.7,1,0.7s1.1-0.1,1.2,0.1
				s-0.1,0.2-0.3,0.4s-0.3,0.4-0.1,0.6s0.5,0.1,0.8-0.1c0.2-0.3,0.6-0.4,1-0.3c0.5,0.1,1,0.3,1.4,0.6c0.3,0.2,0.1,0.5-0.2,0.6
				c-0.4,0.1-0.8,0.3-1.1,0.6c-0.3,0.3-0.7,0.3-1,0c-0.3-0.2-0.7-0.5-0.8-0.3s0.2,0.6,0.4,0.7s0.3,0.1,0.1,0.4
				c-0.2,0.3-0.5,0.6-0.8,0.8c-0.1,0.1-0.2,0.4,0,0.5c0.1,0.1,0.2,0.1,0.3,0.1c0.4-0.2,0.8-0.5,1.2-0.9c0.1-0.1,0.2-0.3,0.3,0
				c0,0.3,0,0.5,0,0.8c0,0.2-0.1,0.4,0.1,0.5c0.1,0,0.3,0,0.4-0.2c0-0.2,0.1-0.5,0.1-0.8c0-0.4,0.1-0.9,0.4-1.2
				c0.4-0.4,1.2-0.2,1.8-0.2s0.6,0.4,0.6,0.7s-0.7,0.6-0.9,0.8s-0.7,0.2-0.5,0.6s0.3,0.2,0.5,0.2s0.8-0.6,1.2-0.7s0.8,0,1.1,0.9
				c0.1,0.4,0.3,0.7,0.4,1.1c-3.3,0.1-5.8-0.1-8.9,0c-3.8,0-4.8,1-4.8,1.6v0.8c0,0.6,0.3,0.9,1.2,0.9h78.3c0.7,0,1.2-0.2,1.2-0.9
				v-0.2l0,0V105C91.1,102.9,91,103,85.6,102.4z"/>
		</g>
		<g>
			<path class="st0" d="M88.5,98.7c-1.1-1.5-1.1-3.4,0-4.9c0,0,0,0,0-0.1c0,0,0-0.1-0.1-0.1l0,0c-1.1,0.2-2,0.9-2.6,1.9
				c0,0-2.2-1.9-4.3-1.9c-2.4,0-4.1,2.2-4.4,2.6l0,0l0,0l0,0l0,0c0.3,0.4,2,2.6,4.4,2.6c2.1,0,4.3-1.9,4.3-1.9
				C86.4,97.8,87.3,98.5,88.5,98.7L88.5,98.7C88.5,98.7,88.5,98.7,88.5,98.7L88.5,98.7L88.5,98.7z M80.2,96.5
				c-0.4,0-0.7-0.3-0.7-0.7c0-0.4,0.3-0.7,0.7-0.7s0.7,0.3,0.7,0.7C80.9,96.2,80.6,96.5,80.2,96.5z"/>
		</g>
		<g>
			<path class="st0" d="M41.8,100.3c0,0,1.6-1.1,1.7-1.1s0.4-0.2,0.3-0.4s-0.4-0.2-0.4-0.2h-2.3c-0.4,0-0.4-0.4-0.4-0.4
				c-0.1-0.7-0.4-1.3-0.7-1.9c-0.2-0.3-0.3-0.3-0.4-0.3s-0.2,0.1-0.2,0.4c0,0.6-0.2,1.1-0.3,1.7c-0.2,0.5-0.4,0.5-0.8,0.5
				s-1.7,0-1.7,0c-0.1,0-0.2,0-0.3,0c-0.1,0-0.3,0.1-0.3,0.2c0,0.1,0,0.2,0.1,0.3c0.3,0.2,1.6,0.9,1.9,1.1c0.2,0.1,0.3,0.4,0.3,0.6
				c0,0.1-0.7,1.7-0.8,2s0.1,0.4,0.1,0.4c0.2,0.1,0.5-0.1,0.5-0.1c0.6-0.3,1.4-1,1.7-1.3c0.1-0.1,0.4-0.2,0.5,0c0,0,0,0,0,0
				c0.5,0.5,1.1,1,1.7,1.4c0.1,0.1,0.3,0.1,0.4,0c0.2-0.1,0-0.4,0-0.4s-0.5-1.6-0.7-2S41.8,100.3,41.8,100.3z"/>
		</g>
		<g>
			<path class="st0" d="M68.7,95.8c0-0.3-0.3-0.6-0.6-0.6s-0.6,0.3-0.6,0.6c0,0.3,0.3,0.6,0.6,0.6S68.7,96.2,68.7,95.8L68.7,95.8z"
				/>
		</g>
		<g>
			<path class="st0" d="M72.6,91.5c0-0.8-0.6-1.5-1.4-1.5s-1.5,0.6-1.5,1.4s0.6,1.5,1.4,1.5c0,0,0,0,0,0C72,93,72.6,92.4,72.6,91.5z
				"/>
		</g>
		<g>
			<polygon class="st0" points="58.6,43.8 66.3,46.8 68.4,44.8 72.2,50.1 75.7,45.2 85,58.9 88.2,58.9 87.8,58.2 75.8,40.6 
				72.2,45.7 63.1,33.1 44.4,58.9 47.8,58.9 			"/>
		</g>
		<g>
			<path class="st0" d="M73.4,64.5h1c0,0,0.1,0,0.1-0.1l0,0v-2.3H77c0.1,0,0.2-0.1,0.2-0.2c0,0,0,0,0-0.1l-3-9.9l0,0
				c0-0.1-0.1-0.1-0.2-0.1c0,0-0.1,0-0.1,0.1v0.1L70.8,62c0,0,0,0.1,0,0.1c0,0.1,0.1,0.2,0.2,0.2h2.5L73.4,64.5
				C73.4,64.5,73.4,64.5,73.4,64.5z"/>
		</g>
		<g>
			<path class="st0" d="M65.4,64.5h1c0,0,0.1,0,0.1-0.1c0,0,0,0,0,0v-2.3H69c0.1,0,0.2-0.1,0.2-0.2c0,0,0,0,0-0.1l-3-9.9l0,0
				c0-0.1-0.1-0.1-0.2-0.1c-0.1,0-0.1,0-0.1,0.1V52l-3.1,9.9c0,0,0,0.1,0,0.1c0,0.1,0.1,0.2,0.2,0.2h2.5L65.4,64.5
				C65.5,64.5,65.4,64.5,65.4,64.5z"/>
		</g>
		<g>
			<path class="st0" d="M57.3,64.5h1c0,0,0.1,0,0.1-0.1l0,0v-2.3h2.5c0.1,0,0.2-0.1,0.2-0.2c0,0,0,0,0-0.1L58,52l0,0
				c0-0.1-0.1-0.1-0.2-0.1c-0.1,0-0.1,0-0.2,0.1V52l-3.1,9.9c0,0,0,0.1,0,0.1c0,0.1,0.1,0.2,0.2,0.2h2.5L57.3,64.5
				C57.3,64.5,57.3,64.5,57.3,64.5z"/>
		</g>
		<g>
			<path class="st0" d="M63.9,88.1c0-0.3-0.3-0.6-0.6-0.6s-0.6,0.3-0.6,0.6c0,0.3,0.3,0.6,0.6,0.6C63.6,88.7,63.9,88.5,63.9,88.1z"
				/>
		</g>
		<g>
			<path class="st0" d="M16.4,55.3v-8.5h0.1c0.2,0,0.3-0.2,0.3-0.3l0,0v-1.3h-3.5v1.3c0,0.2,0.2,0.3,0.3,0.3l0,0h0.1v8.5L16.4,55.3z
				"/>
		</g>
		<g>
			<path class="st0" d="M24.2,55.3v-8.5h0.1c0.2,0,0.3-0.2,0.3-0.3l0,0v-1.3h-3.5v1.3c0,0.2,0.2,0.3,0.3,0.3l0,0h0.1v8.5L24.2,55.3z
				"/>
		</g>
		<g>
			<path class="st0" d="M32,55.3v-8.5h0.1c0.2,0,0.3-0.2,0.3-0.3l0,0v-1.3h-3.5v1.3c0,0.2,0.2,0.3,0.3,0.3l0,0h0.1v8.5L32,55.3z"/>
		</g>
		<g>
			<path class="st0" d="M39.8,55.3v-8.5h0.1c0.2,0,0.3-0.2,0.3-0.3l0,0v-1.3h-3.5v1.3c0,0.2,0.2,0.3,0.3,0.3l0,0h0.1v8.5L39.8,55.3z
				"/>
		</g>
		<g>
			<path class="st0" d="M11.6,59h29.6v-1.4h-1v-1.3c0-0.1-0.1-0.2-0.2-0.2H12.8c-0.1,0-0.2,0.1-0.2,0.2v1.3h-1L11.6,59z"/>
		</g>
		<g>
			<path class="st0" d="M11.1,42.6H42l0.6-0.6c0.2-0.2,0.2-0.5,0-0.6c0,0-0.1-0.1-0.1-0.1l-16-6l-16,6c-0.2,0.1-0.3,0.4-0.2,0.6
				c0,0,0,0.1,0.1,0.1L11.1,42.6z"/>
		</g>
		<g>
			<polygon class="st0" points="40.2,43.4 26.3,43.4 12.4,43.4 12.4,44.2 26.3,44.2 40.2,44.2 			"/>
		</g>
		<g>
			<path class="st0" d="M10.7,67.8h80c0.3,0,0.6,0.3,0.6,0.6V71c0,0.3-0.3,0.6-0.6,0.6h-80c-0.3,0-0.6-0.3-0.6-0.6v-2.6
				C10.2,68.1,10.4,67.8,10.7,67.8z"/>
		</g>
		<g>
			<path class="st0" d="M90.6,76.9L90.6,76.9L90.2,77c-2.5,1.3-10.4,4.3-17.5-2.5c-0.1-0.1-0.3-0.2-0.4-0.2c-0.1,0-0.3,0.1-0.4,0.2
				c-2.1,1.6-11.9,8.2-20.6,0.1l-0.1-0.1c-0.1-0.1-0.2-0.1-0.4-0.1c-0.1,0-0.2,0.1-0.3,0.1l-0.1,0.1c-8.7,8.1-18.5,1.5-20.6-0.1
				c-0.1-0.1-0.2-0.2-0.4-0.2c-0.2,0-0.3,0.1-0.4,0.2c-7.1,6.8-15,3.7-17.5,2.5l-0.2-0.1H11c-0.3,0-0.5,0.2-0.5,0.5c0,0,0,0,0,0V80
				c0,0.1,0,0.3,0.1,0.3c8.2,7.2,16.1,0.5,17.9-1.3c0.1-0.1,0.1-0.1,0.2-0.2c0.1-0.1,0.2-0.1,0.3-0.1c0.1,0,0.3,0.1,0.3,0.2
				c9.3,8.9,19.1,1.7,21.1,0l0.2-0.2c0-0.1,0.1-0.1,0.2-0.1c0.1,0,0.2,0,0.2,0.1l0.2,0.2c2,1.7,11.8,8.9,21.1,0l0,0
				c0.2-0.1,0.4-0.1,0.6,0c0.1,0,0.1,0.1,0.1,0.1c1.8,1.8,9.6,8.5,17.8,1.3c0.1-0.1,0.2-0.2,0.2-0.3v-2.7
				C91.1,77.1,90.9,76.9,90.6,76.9C90.6,76.9,90.6,76.9,90.6,76.9"/>
		</g>
	</g>
</g>
</svg>
