<?xml version="1.0" encoding="utf-8"?>
<!-- Generator: Adobe Illustrator 22.0.1, SVG Export Plug-In . SVG Version: 6.00 Build 0)  -->
<svg version="1.1" id="Layer_1" xmlns="http://www.w3.org/2000/svg" xmlns:xlink="http://www.w3.org/1999/xlink" x="0px" y="0px"
	 viewBox="0 0 101.5 157.4" style="enable-background:new 0 0 101.5 157.4;" xml:space="preserve">
<style type="text/css">
	.st0{fill:#FFFFFF;}
	.st1{fill:#FD9D24;}
	.st2{enable-background:new    ;}
</style>
<title>TARGET 1 B copy 4</title>
<g id="WHITE_BG">
	<g>
		<rect y="0" class="st0" width="101.5" height="157.4"/>
	</g>
</g>
<g id="TARGETS">
	<g>
		<g>
			<path class="st1" d="M7.8,132.2h-1v-6.4H9c1.6,0,2.2,0.7,2.2,1.9c0.1,0.7-0.3,1.4-1,1.7l1.3,2.8h-1.2l-1.1-2.6H7.8V132.2z
				 M7.8,128.7h1.3c0.9,0,1-0.5,1-1s-0.1-1-1-1H7.8V128.7z"/>
		</g>
		<g>
			<path class="st1" d="M15.7,129.3H13v2h3v0.9h-3.9v-6.4H16v0.9h-3v1.8h2.7L15.7,129.3z"/>
		</g>
		<g>
			<path class="st1" d="M16.8,132.2v-6.4h1.9c2.1,0,2.7,1.4,2.7,3.2s-0.6,3.2-2.7,3.2L16.8,132.2z M17.8,131.3h1
				c1.3,0,1.7-0.9,1.7-2.3s-0.4-2.3-1.7-2.3h-1V131.3z"/>
		</g>
		<g>
			<path class="st1" d="M22.1,130.2v-4.4H23v4.3c-0.1,0.7,0.4,1.3,1,1.3c0.1,0,0.2,0,0.3,0c0.6,0.1,1.3-0.3,1.4-1c0-0.1,0-0.2,0-0.3
				v-4.3h1v4.4c0,1.1-0.8,2.1-2,2.1c-0.1,0-0.2,0-0.3,0c-1.1,0.2-2.2-0.6-2.3-1.8C22.1,130.4,22.1,130.3,22.1,130.2z"/>
		</g>
		<g>
			<path class="st1" d="M30,125.7c0.5,0,1,0.1,1.5,0.3v0.9c-0.4-0.2-0.9-0.3-1.4-0.3c-1.2,0-1.7,0.8-1.7,2.4s0.5,2.4,1.7,2.4
				c0.5,0,1-0.1,1.4-0.3v0.9c-0.5,0.2-1,0.3-1.5,0.3c-1.9,0-2.6-1.2-2.6-3.3S28.1,125.7,30,125.7z"/>
		</g>
		<g>
			<path class="st1" d="M35.9,129.3h-2.7v2h2.9v0.9h-3.9v-6.4h3.9v0.9h-2.9v1.8h2.7V129.3z"/>
		</g>
		<g>
			<path class="st1" d="M40.4,126.7v5.5h-1v-5.5h-1.7v-0.9h4.3v0.9H40.4z"/>
		</g>
		<g>
			<path class="st1" d="M46.1,132.2v-2.9h-2.6v2.9h-1v-6.4h1v2.6h2.6v-2.6h1v6.4H46.1z"/>
		</g>
		<g>
			<path class="st1" d="M51.6,129.3H49v2h2.9v0.9H48v-6.4h3.9v0.9H49v1.8h2.7L51.6,129.3z"/>
		</g>
		<g>
			<path class="st1" d="M57.3,130.6h-2l-0.5,1.6h-1l2-6.4h1l2,6.4h-1L57.3,130.6z M56.3,127l-0.8,2.8h1.6L56.3,127z"/>
		</g>
		<g>
			<path class="st1" d="M59.3,132.2v-6.4h1.9c2.1,0,2.7,1.4,2.7,3.2s-0.6,3.2-2.7,3.2L59.3,132.2z M60.3,131.3h1
				c1.3,0,1.7-0.9,1.7-2.3s-0.4-2.3-1.7-2.3h-1V131.3z"/>
		</g>
		<g>
			<path class="st1" d="M69.1,125.8l-2,6.4h-1l-2-6.4h1l1.5,5.2l1.5-5.2L69.1,125.8z"/>
		</g>
		<g>
			<path class="st1" d="M73.2,129.3h-2.7v2h2.9v0.9h-3.9v-6.4h3.9v0.9h-2.9v1.8h2.7V129.3z"/>
		</g>
		<g>
			<path class="st1" d="M75.3,132.2h-1v-6.4h2.1c1.7,0,2.2,0.7,2.2,1.9c0.1,0.7-0.3,1.4-1,1.7l1.3,2.8h-1.1l-1.2-2.6h-1.3V132.2z
				 M75.3,128.7h1.3c0.9,0,1-0.5,1-1s-0.1-1-1-1h-1.3V128.7z"/>
		</g>
		<g>
			<path class="st1" d="M83.7,130.3c0,1.2-0.7,2-2.4,2c-0.6,0-1.3-0.1-1.9-0.4V131c0.6,0.3,1.2,0.4,1.8,0.4c1.2,0,1.5-0.5,1.5-1.1
				s-0.3-0.9-1.2-1c-1.6-0.2-2.2-0.6-2.2-1.8c0-0.9,0.5-1.8,2.3-1.8c0.6,0,1.2,0.1,1.7,0.3v1c-0.5-0.2-1.1-0.3-1.7-0.3
				c-1,0-1.3,0.4-1.3,1c0,0.7,0.4,0.8,1.2,0.9C82.9,128.7,83.7,129,83.7,130.3z"/>
		</g>
		<g>
			<path class="st1" d="M88,129.3h-2.7v2h2.9v0.9h-3.9v-6.4h3.9v0.9h-2.9v1.8H88V129.3z"/>
		</g>
		<g>
			<path class="st1" d="M10.5,138.3H7.8v2h2.9v0.9H6.9v-6.4h3.9v0.9H7.8v1.8h2.6V138.3z"/>
		</g>
		<g>
			<path class="st1" d="M15.1,138.4h-2.6v2.8h-1v-6.4h3.8v0.9h-2.8v1.8h2.6V138.4z"/>
		</g>
		<g>
			<path class="st1" d="M19.7,138.4h-2.6v2.8h-1v-6.4H20v0.9h-2.9v1.8h2.6V138.4z"/>
		</g>
		<g>
			<path class="st1" d="M24.3,138.3h-2.7v2h2.9v0.9h-3.9v-6.4h3.9v0.9h-2.9v1.8h2.6L24.3,138.3z"/>
		</g>
		<g>
			<path class="st1" d="M27.8,134.7c0.5,0,1,0.1,1.5,0.3v0.9c-0.4-0.2-0.9-0.3-1.4-0.3c-1.2,0-1.7,0.8-1.7,2.4s0.5,2.4,1.7,2.4
				c0.5,0,1-0.1,1.4-0.3v0.9c-0.5,0.2-1,0.3-1.5,0.3c-1.9,0-2.6-1.2-2.6-3.3S25.9,134.7,27.8,134.7z"/>
		</g>
		<g>
			<path class="st1" d="M32.2,135.7v5.5h-1v-5.5h-1.6v-0.9h4.3v0.9H32.2z"/>
		</g>
		<g>
			<path class="st1" d="M38.6,139.3c0,1.2-0.7,2-2.4,2c-0.6,0-1.3-0.1-1.9-0.4V140c0.6,0.3,1.2,0.4,1.8,0.4c1.2,0,1.5-0.5,1.5-1.1
				s-0.3-0.9-1.2-1c-1.5-0.2-2.2-0.6-2.2-1.8c0-0.9,0.5-1.8,2.3-1.8c0.6,0,1.2,0.1,1.7,0.3v1c-0.5-0.2-1.1-0.3-1.7-0.3
				c-1,0-1.3,0.4-1.3,1s0.4,0.8,1.2,0.9C37.8,137.7,38.6,138,38.6,139.3z"/>
		</g>
		<g>
			<path class="st1" d="M40.7,138c0-1.8,0.4-3.3,2.5-3.3s2.5,1.5,2.5,3.3s-0.4,3.3-2.5,3.3S40.7,139.8,40.7,138z M41.7,138
				c0,1.5,0.3,2.4,1.5,2.4s1.5-0.9,1.5-2.4s-0.3-2.4-1.5-2.4S41.7,136.5,41.7,138L41.7,138z"/>
		</g>
		<g>
			<path class="st1" d="M49.9,138.4h-2.6v2.8h-1v-6.4h3.8v0.9h-2.9v1.8h2.6L49.9,138.4z"/>
		</g>
		<g>
			<path class="st1" d="M55.9,141.2l-2.8-4.5v4.5h-0.9v-6.4h0.9l2.8,4.5v-4.5h0.9v6.4H55.9z"/>
		</g>
		<g>
			<path class="st1" d="M60.8,139.6h-2l-0.5,1.6h-1l2-6.4h1l2,6.4h-1L60.8,139.6z M59.8,136l-0.8,2.8h1.6L59.8,136z"/>
		</g>
		<g>
			<path class="st1" d="M64.4,135.7v5.5h-1v-5.5h-1.6v-0.9H66v0.9H64.4z"/>
		</g>
		<g>
			<path class="st1" d="M66.6,139.2v-4.4h1v4.3c0,0.8,0.6,1.4,1.4,1.4s1.4-0.6,1.4-1.4v-4.3h1v4.4c-0.1,1.3-1.2,2.2-2.5,2.1
				C67.7,141.2,66.8,140.3,66.6,139.2L66.6,139.2z"/>
		</g>
		<g>
			<path class="st1" d="M73.1,141.2h-1v-6.4h2.1c1.7,0,2.2,0.7,2.2,1.9c0.1,0.7-0.3,1.4-1,1.7l1.3,2.8h-1.1l-1.2-2.6h-1.3V141.2z
				 M73.1,137.7h1.3c0.9,0,1-0.5,1-1s-0.1-1-1-1h-1.3V137.7z"/>
		</g>
		<g>
			<path class="st1" d="M80.5,139.6h-2l-0.5,1.6h-1l2-6.4h1l2,6.4h-1L80.5,139.6z M79.5,136l-0.8,2.8h1.6L79.5,136z"/>
		</g>
		<g>
			<path class="st1" d="M83.4,140.3h2.8v0.9h-3.7v-6.4h1L83.4,140.3z"/>
		</g>
		<g>
			<path class="st1" d="M6.9,150.2v-6.4h1.9c2.1,0,2.7,1.4,2.7,3.2s-0.6,3.2-2.7,3.2H6.9z M7.9,149.3h1c1.3,0,1.7-0.9,1.7-2.3
				s-0.4-2.3-1.7-2.3h-1L7.9,149.3z"/>
		</g>
		<g>
			<path class="st1" d="M12.3,150.2v-6.4h0.9v6.4H12.3z"/>
		</g>
		<g>
			<path class="st1" d="M18.5,148.3c0,1.2-0.7,2-2.4,2c-0.6,0-1.3-0.1-1.9-0.4V149c0.6,0.3,1.2,0.4,1.8,0.4c1.1,0,1.5-0.5,1.5-1.1
				s-0.3-0.9-1.2-1c-1.6-0.2-2.2-0.6-2.2-1.8c0-0.9,0.5-1.8,2.3-1.8c0.6,0,1.2,0.1,1.7,0.3v1c-0.5-0.2-1.1-0.3-1.7-0.3
				c-1,0-1.3,0.4-1.3,1s0.4,0.8,1.2,0.9C17.8,146.7,18.5,147,18.5,148.3z"/>
		</g>
		<g>
			<path class="st1" d="M22.3,148.6h-2l-0.5,1.6h-1l2-6.4h1l2,6.4h-1L22.3,148.6z M21.3,145l-0.8,2.8h1.6L21.3,145z"/>
		</g>
		<g>
			<path class="st1" d="M28.3,148.3c0,1.2-0.7,2-2.4,2c-0.6,0-1.3-0.1-1.9-0.4V149c0.6,0.3,1.2,0.4,1.8,0.4c1.1,0,1.5-0.5,1.5-1.1
				s-0.3-0.9-1.2-1c-1.5-0.2-2.1-0.6-2.1-1.8c0-0.9,0.5-1.8,2.3-1.8c0.6,0,1.2,0.1,1.8,0.3v1c-0.5-0.2-1.1-0.3-1.7-0.3
				c-1,0-1.3,0.4-1.3,1s0.4,0.8,1.2,0.9C27.5,146.7,28.3,147,28.3,148.3z"/>
		</g>
		<g>
			<path class="st1" d="M31,144.7v5.5h-1v-5.5h-1.6v-0.9h4.3v0.9H31z"/>
		</g>
		<g>
			<path class="st1" d="M37,147.3h-2.7v2h2.9v0.9h-3.9v-6.4h3.9v0.9h-2.9v1.8H37V147.3z"/>
		</g>
		<g>
			<path class="st1" d="M39,150.2h-1v-6.4h2.1c1.7,0,2.2,0.7,2.2,1.9c0.1,0.7-0.3,1.4-1,1.7l1.3,2.8h-1.1l-1.2-2.6H39V150.2z
				 M39,146.7h1.3c0.9,0,1-0.5,1-1s-0.1-1-1-1H39V146.7z"/>
		</g>
		<g>
			<path class="st1" d="M47.3,148.3c0,1.2-0.7,2-2.4,2c-0.6,0-1.3-0.1-1.9-0.4V149c0.6,0.3,1.2,0.4,1.8,0.4c1.1,0,1.5-0.5,1.5-1.1
				s-0.3-0.9-1.2-1c-1.6-0.2-2.2-0.6-2.2-1.8c0-0.9,0.5-1.8,2.3-1.8c0.6,0,1.2,0.1,1.8,0.3v1c-0.5-0.2-1.1-0.3-1.7-0.3
				c-1,0-1.3,0.4-1.3,1s0.4,0.8,1.2,0.9C46.5,146.7,47.3,147,47.3,148.3z"/>
		</g>
	</g>
	<g>
		<rect x="3.3" y="24" class="st1" width="94.8" height="94.8"/>
	</g>
	<g>
		<path class="st1" d="M98.2,20.7H3.3V3.3h94.8V20.7z M4.3,19.7h92.8V4.3H4.3L4.3,19.7z"/>
	</g>
	<g class="st2">
		<path class="st1" d="M6.7,6.9h4.5v1.4H9.9v8.8H8.1V8.3H6.7V6.9z"/>
	</g>
	<g class="st2">
		<path class="st1" d="M11.2,17.1l1.9-10.2h1.9L17,17.1h-1.8l-0.3-1.9h-1.8l-0.3,1.9H11.2z M13.3,13.9h1.4L14,9.8h0L13.3,13.9z"/>
	</g>
	<g class="st2">
		<path class="st1" d="M19.6,12.4v4.7h-1.7V6.9h2.5c1.7,0,2.4,0.9,2.4,2.3v1.3c0,1.1-0.4,1.7-1.4,2l1.6,4.6h-1.8L19.6,12.4z
			 M19.6,8.3v3.2h0.6c0.6,0,0.8-0.3,0.8-0.8V9.2c0-0.6-0.3-0.8-0.8-0.8H19.6z"/>
	</g>
	<g class="st2">
		<path class="st1" d="M26.4,11.7h2.4v5.4h-1.2V16c-0.2,0.8-0.7,1.2-1.6,1.2c-1.5,0-2.1-1.2-2.1-2.7V9.6c0-1.6,0.8-2.7,2.6-2.7
			c1.9,0,2.4,1.1,2.4,2.6v0.9h-1.6v-1c0-0.6-0.2-1-0.9-1c-0.6,0-0.9,0.4-0.9,1v5.5c0,0.6,0.3,1,0.8,1c0.6,0,0.8-0.3,0.8-1V13h-0.8
			V11.7z"/>
	</g>
	<g class="st2">
		<path class="st1" d="M30.2,6.9h4.1v1.4h-2.4v2.9h1.7v1.4h-1.7v3.1h2.4v1.4h-4.1V6.9z"/>
	</g>
	<g class="st2">
		<path class="st1" d="M35.1,6.9h4.5v1.4h-1.4v8.8h-1.7V8.3h-1.4V6.9z"/>
	</g>
	<g class="st2">
		<path class="st1" d="M79.6,6.9v10.2h-1.7V9.3h0l-1.2,1.2h0V8.8l1.6-1.8H79.6z"/>
	</g>
	<g class="st2">
		<path class="st1" d="M83.6,6.9v10.2h-1.7V9.3h0l-1.2,1.2h0V8.8l1.6-1.8H83.6z"/>
	</g>
	<g class="st2">
	</g>
	<g class="st2">
		<path class="st1" d="M86.7,10.8c0.7,0,1.2,0.6,1.2,1.2c0,0.7-0.6,1.2-1.2,1.2c-0.7,0-1.2-0.6-1.2-1.2C85.5,11.4,86,10.8,86.7,10.8
			z"/>
	</g>
	<g class="st2">
		<path class="st1" d="M94.4,12.4v2.5c0,1.4-0.7,2.3-2.4,2.3c-1.7,0-2.4-1-2.4-2.5v-1.2h1.6v1.3c0,0.6,0.2,1,0.8,1
			c0.5,0,0.7-0.4,0.7-0.9v-2.5c0-0.6-0.2-0.9-0.7-0.9c-0.5,0-0.8,0.3-0.8,0.9v0.2h-1.6V6.9h4.5v1.4h-2.9v2.5h0
			c0.3-0.5,0.8-0.7,1.4-0.7C93.5,10.2,94.4,10.8,94.4,12.4z"/>
	</g>
	<g>
		<path class="st1" d="M98.2,153.8H3.3v-31.6h94.8V153.8z M4.3,152.8h92.8v-29.6H4.3L4.3,152.8z"/>
	</g>
	<g>
		<g>
			<g>
				<rect x="10.5" y="77.3" class="st0" width="18.8" height="5.6"/>
			</g>
			<g>
				<rect x="31.1" y="77.3" class="st0" width="18.8" height="5.6"/>
			</g>
			<g>
				<rect x="51.7" y="77.3" class="st0" width="18.8" height="5.6"/>
			</g>
			<g>
				<rect x="72.3" y="77.3" class="st0" width="18.8" height="5.6"/>
			</g>
		</g>
		<g>
			<polygon class="st0" points="75.8,46.6 74.9,41.4 74.8,46.6 			"/>
		</g>
		<g>
			<polygon class="st0" points="78.7,46.6 79.6,41.4 79.7,46.6 			"/>
		</g>
		<g>
			<polygon class="st0" points="72.6,46.6 73.7,46.6 72.7,40.4 			"/>
		</g>
		<g>
			<path class="st0" d="M79.6,36.8c-0.2-0.3-0.9-0.2-1.7,0.2l0,0c0,0,0-0.1,0-0.1c0.1-0.9-0.2-1.6-0.5-1.7s-0.7,0.7-0.8,1.6v0.2
				L76.4,37c-0.7-0.5-1.5-0.7-1.7-0.5s0.2,1,0.9,1.5c0.1,0.1,0.2,0.1,0.3,0.2c-0.1,0-0.2,0.1-0.2,0.1c-0.8,0.4-1.3,1-1.1,1.3
				s0.9,0.2,1.7-0.2c0.3-0.1,0.5-0.3,0.7-0.5V39c0,0.7,0,0.7,0,2.3v5.3h0.4v-5.3c0-1.4,0-1.6,0-2.1c0.1,0.1,0.2,0.2,0.4,0.3
				c0.7,0.5,1.5,0.8,1.7,0.5s-0.2-1-0.9-1.5l-0.3-0.2l0.2-0.1C79.3,37.7,79.8,37.1,79.6,36.8z M77.1,38.3c-0.2,0-0.3-0.2-0.3-0.4
				c0,0,0,0,0,0c0-0.2,0.4-0.3,0.4-0.3s0.3,0.2,0.3,0.4C77.5,38.2,77.3,38.3,77.1,38.3C77.2,38.3,77.2,38.3,77.1,38.3z"/>
		</g>
		<g>
			<path class="st0" d="M89.1,38.5l-0.3-0.2l0.2-0.1c0.8-0.5,1.3-1,1.1-1.4s-0.9-0.2-1.7,0.2l0,0c0,0,0-0.1,0-0.1
				c0-0.9-0.2-1.6-0.5-1.7s-0.7,0.7-0.7,1.6c0,0.1,0,0.1,0,0.2L86.9,37c-0.7-0.5-1.5-0.7-1.7-0.5s0.2,1,0.9,1.5l0.3,0.2l-0.2,0.1
				c-0.8,0.4-1.3,1-1.1,1.3s0.9,0.2,1.7-0.2c0.3-0.1,0.5-0.3,0.7-0.5V39c0,0.7,0,0.7,0,2.3v5.3H88v-5.3c0-1.4,0-1.6,0-2.1
				c0.1,0.1,0.2,0.2,0.4,0.3c0.7,0.5,1.5,0.8,1.7,0.5S89.8,39,89.1,38.5z M87.6,38.3c-0.2,0-0.3-0.2-0.3-0.4c0-0.2,0.4-0.3,0.4-0.3
				S88,37.8,88,38C88,38.2,87.8,38.3,87.6,38.3C87.7,38.3,87.7,38.3,87.6,38.3z"/>
		</g>
		<g>
			<polygon class="st0" points="84.3,46.6 83.5,41.4 83.4,46.6 			"/>
		</g>
		<g>
			<polygon class="st0" points="85.2,46.6 86,41.4 86.1,46.6 			"/>
		</g>
		<g>
			<polygon class="st0" points="81.1,46.6 82.3,46.6 81.2,40.4 			"/>
		</g>
		<g>
			<polygon class="st0" points="89.7,46.8 88.8,41.7 88.8,46.8 			"/>
		</g>
		<g>
			<polygon class="st0" points="89.9,46.5 91,46.4 90.6,40.9 			"/>
		</g>
		<g>
			<g>
				<path class="st0" d="M56.7,56.4c0-1-0.8-1.8-1.8-1.8s-1.8,0.8-1.8,1.8s0.8,1.8,1.8,1.8c0,0,0,0,0,0
					C55.9,58.2,56.7,57.4,56.7,56.4z"/>
			</g>
			<g>
				<path class="st0" d="M57,58.9h-4.1c-1.2,0.1-2.1,1.1-2.1,2.3V66c0,0.4,0.3,0.7,0.7,0.7s0.7-0.3,0.7-0.7v-4.2
					c0-0.2,0-0.4,0.3-0.4s0.2,0.2,0.2,0.3v12.5c0.1,0.5,0.7,0.9,1.2,0.8c0.4-0.1,0.7-0.4,0.8-0.8v-7.2c0-0.1,0.1-0.3,0.2-0.3
					c0,0,0,0,0,0l0,0c0.1,0,0.3,0.1,0.3,0.2c0,0,0,0,0,0v7.2c0,0.6,0.4,1,1,1s1-0.4,1-1V61.8c0-0.1,0-0.3,0.2-0.3s0.3,0.2,0.3,0.4
					V66c0,0.4,0.3,0.7,0.7,0.7s0.7-0.3,0.7-0.7v-4.9C59.1,60,58.2,59,57,58.9z"/>
			</g>
		</g>
		<g>
			<g>
				<path class="st0" d="M63.7,56.5c0,0.9,0.8,1.7,1.7,1.7c0.9,0,1.7-0.8,1.7-1.7c0-0.9-0.8-1.7-1.7-1.7S63.7,55.6,63.7,56.5
					C63.7,56.5,63.7,56.5,63.7,56.5z"/>
			</g>
			<g>
				<path class="st0" d="M68.8,60.4c0,0-0.5-1.3-1.6-1.3h-3.6c-1.1,0-1.6,1.3-1.6,1.3l-1.4,4.7c0,0-0.2,0.8,0.5,1.1s0.9-0.6,0.9-0.6
					l1.2-3.9c0,0,0.1-0.3,0.3-0.2s0.1,0.4,0.1,0.4l-2,7.3h1.9v5.2c-0.1,0.5,0.3,0.9,0.8,1c0.5,0.1,0.9-0.3,1-0.8c0-0.1,0-0.1,0-0.2
					v-5.2h0.5v5.2c-0.1,0.5,0.3,0.9,0.8,1c0.5,0.1,0.9-0.3,1-0.8c0-0.1,0-0.1,0-0.2v-5.2h1.9l-2-7.3c0,0-0.1-0.3,0.1-0.4
					s0.3,0.2,0.3,0.2l1.2,3.9c0,0,0.2,0.8,0.9,0.6s0.5-1.1,0.5-1.1L68.8,60.4z"/>
			</g>
		</g>
		<g>
			<path class="st0" d="M16.8,68.4h1.7V73c0,0.1,0.1,0.2,0.2,0.2c0,0,0,0,0,0h2.1c0.1,0,0.2-0.1,0.1-0.2v-4.7h3.4c2.2,0,4-1.8,4-4
				c0-1-0.4-2-1.1-2.7c1.8-1,2.4-3.3,1.4-5.1c-0.7-1.2-1.9-1.9-3.3-1.9h-0.2c-0.2-2.8-2.6-4.9-5.4-4.7c-2.8,0.2-4.9,2.6-4.7,5.4
				c0,0.6,0.2,1.2,0.5,1.8c-3,0.7-5,3.7-4.3,6.8C11.8,66.5,14.1,68.4,16.8,68.4L16.8,68.4z"/>
		</g>
		<g>
			<path class="st0" d="M11.3,75.5c0.4,0,0.7-0.3,0.7-0.7c0-0.4-0.3-0.7-0.7-0.8c-0.4,0-0.7,0.3-0.8,0.8
				C10.6,75.2,10.9,75.5,11.3,75.5z"/>
		</g>
		<g>
			<path class="st0" d="M13.9,74.8c0,0.4,0.4,0.7,0.8,0.7c0.3,0,0.6-0.3,0.7-0.7c0-0.4-0.2-0.8-0.7-0.8s-0.8,0.2-0.8,0.7
				C13.9,74.7,13.9,74.7,13.9,74.8z"/>
		</g>
		<g>
			<path class="st0" d="M18,74c-0.4,0-0.7,0.3-0.8,0.8c0,0.4,0.3,0.7,0.8,0.7c0.4,0,0.7-0.3,0.7-0.7C18.7,74.3,18.4,74,18,74z"/>
		</g>
		<g>
			<path class="st0" d="M20.6,74.8c0,0.4,0.4,0.7,0.8,0.7c0.3,0,0.6-0.3,0.7-0.7c0-0.4-0.2-0.8-0.7-0.8s-0.8,0.2-0.8,0.7
				C20.6,74.7,20.6,74.7,20.6,74.8z"/>
		</g>
		<g>
			<path class="st0" d="M23.9,74.8c0,0.4,0.3,0.7,0.8,0.7c0.4,0,0.7-0.3,0.7-0.7c0-0.4-0.3-0.7-0.7-0.8C24.2,74,23.9,74.4,23.9,74.8
				z"/>
		</g>
		<g>
			<path class="st0" d="M27.2,74.8c0,0.4,0.4,0.7,0.8,0.7c0.3,0,0.6-0.3,0.7-0.7c0-0.4-0.2-0.8-0.7-0.8s-0.8,0.2-0.8,0.7
				C27.2,74.7,27.2,74.7,27.2,74.8z"/>
		</g>
		<g>
			<path class="st0" d="M12.3,72.2c0,0.4,0.3,0.8,0.7,0.8c0,0,0,0,0.1,0c0.4,0,0.7-0.3,0.8-0.7c0-0.4-0.3-0.7-0.8-0.8
				C12.6,71.5,12.3,71.8,12.3,72.2z"/>
		</g>
		<g>
			<path class="st0" d="M15.6,72.2c0,0.4,0.3,0.8,0.8,0.8s0.8-0.3,0.8-0.8s-0.3-0.8-0.8-0.8S15.6,71.8,15.6,72.2z"/>
		</g>
		<g>
			<path class="st0" d="M22.2,72.2c0,0.4,0.3,0.8,0.7,0.8c0,0,0,0,0.1,0c0.4,0,0.7-0.3,0.7-0.7c0-0.4-0.3-0.7-0.7-0.8
				C22.6,71.5,22.3,71.8,22.2,72.2z"/>
		</g>
		<g>
			<path class="st0" d="M25.6,72.2c0,0.4,0.3,0.7,0.7,0.7c0.4,0,0.7-0.3,0.8-0.7c0-0.4-0.3-0.7-0.8-0.8
				C25.9,71.5,25.6,71.8,25.6,72.2z"/>
		</g>
		<g>
			<g>
				<path class="st0" d="M35.6,56.2c0,0-1.1,1.2-1.1,2s0.8,1.2,1.1,1.3c0,0,1.1-0.6,1.1-1.3C36.5,57.4,36.1,56.7,35.6,56.2z"/>
			</g>
			<g>
				<path class="st0" d="M33.2,58.3c0,0-0.2,1.9,0.7,2.5c0,0,0.3,0.3,1.6,0.5c0,0,0.1-1.2-0.4-1.8C34.5,59.1,33.9,58.6,33.2,58.3z"
					/>
			</g>
			<g>
				<path class="st0" d="M33,60.7c0,0-0.2,2.1,0.7,2.7c0,0,0.3,0.4,1.7,0.6c0,0,0.1-1.4-0.4-1.9C34.4,61.5,33.8,61.1,33,60.7z"/>
			</g>
			<g>
				<path class="st0" d="M33.1,63.4c0,0-0.3,2.3,0.6,2.9c0,0,0.4,0.4,1.8,0.6c0,0,0.2-1.4-0.3-1.9C35.2,65,34.9,64.4,33.1,63.4z"/>
			</g>
			<g>
				<path class="st0" d="M32.8,66.2c0,0-0.1,2.3,0.8,3c0.6,0.4,1.2,0.6,1.9,0.6c0,0,0.2-1.5-0.4-2.1C34.5,67.1,33.7,66.6,32.8,66.2z
					"/>
			</g>
			<g>
				<path class="st0" d="M38,58.3c0,0,0.2,1.9-0.6,2.5c0,0-0.3,0.4-1.6,0.6c0,0-0.1-1.2,0.3-1.8C36.7,59.1,37.3,58.6,38,58.3z"/>
			</g>
			<g>
				<path class="st0" d="M38.2,60.7c0,0,0.2,2.1-0.7,2.7c0,0-0.3,0.4-1.7,0.6c0,0-0.2-1.3,0.3-1.9C36.8,61.5,37.5,61,38.2,60.7z"/>
			</g>
			<g>
				<path class="st0" d="M38.2,63.4c0,0,0.3,2.3-0.6,2.9c-0.5,0.4-1.1,0.7-1.8,0.7c0,0-0.2-1.4,0.3-1.9C36.2,65,36.5,64.4,38.2,63.4
					z"/>
			</g>
			<g>
				<path class="st0" d="M38.5,66.1c0,0,0.2,2.4-0.7,3c-0.5,0.4-1.2,0.6-1.8,0.7c0,0-0.2-1.5,0.3-2.1C36.9,67.1,37.7,66.5,38.5,66.1
					z"/>
			</g>
			<g>
				<path class="st0" d="M33.6,54.1c0-0.1-0.1-0.2-0.3-0.2c-0.1,0-0.1,0.1-0.2,0.2v3.8l0.4,0.2V54.1z"/>
			</g>
			<g>
				<path class="st0" d="M34.4,53.5c0-0.1-0.1-0.2-0.2-0.2c-0.1,0-0.2,0.1-0.2,0.2c0,0,0,0,0,0V58l0,0c0.1-0.3,0.2-0.7,0.4-1
					L34.4,53.5z"/>
			</g>
			<g>
				<path class="st0" d="M35.3,52.4c0-0.1-0.1-0.2-0.2-0.2c0,0,0,0,0,0c-0.1,0-0.2,0.1-0.2,0.2l0,0v3.9l0.4-0.6L35.3,52.4z"/>
			</g>
			<g>
				<path class="st0" d="M37.5,54.1c0-0.1,0.1-0.2,0.2-0.2c0,0,0,0,0,0c0.1,0,0.2,0.1,0.2,0.2v3.8l-0.4,0.2L37.5,54.1z"/>
			</g>
			<g>
				<path class="st0" d="M36.7,53.4c0-0.1,0.1-0.2,0.2-0.2l0,0c0.1,0,0.2,0.1,0.2,0.2c0,0,0,0,0,0V58l0,0c-0.1-0.3-0.2-0.7-0.4-1
					L36.7,53.4z"/>
			</g>
			<g>
				<path class="st0" d="M35.8,52.4c0-0.1,0.1-0.2,0.2-0.2c0,0,0,0,0,0c0.1,0,0.2,0.1,0.2,0.2v3.9l-0.4-0.5V52.4z"/>
			</g>
			<g>
				<rect x="35.4" y="70.2" class="st0" width="0.6" height="5.3"/>
			</g>
		</g>
		<g>
			<g>
				<path class="st0" d="M43.9,56.1c0,0-1.1,1.2-1.1,2s0.8,1.2,1.1,1.3c0,0,1.1-0.6,1.1-1.3S43.9,56.1,43.9,56.1z"/>
			</g>
			<g>
				<path class="st0" d="M41.5,58.3c0,0-0.2,1.9,0.7,2.5c0,0,0.3,0.4,1.6,0.5c0,0,0.1-1.2-0.4-1.8C42.8,59,42.2,58.6,41.5,58.3z"/>
			</g>
			<g>
				<path class="st0" d="M41.3,60.6c0,0-0.2,2.1,0.7,2.7c0,0,0.3,0.4,1.7,0.6c0,0,0.1-1.4-0.4-1.9C42.8,61.5,42.1,61,41.3,60.6z"/>
			</g>
			<g>
				<path class="st0" d="M41.4,63.4c0,0-0.3,2.3,0.6,2.9c0,0,0.4,0.4,1.8,0.6c0,0,0.2-1.4-0.3-1.9C43.5,65,43.2,64.4,41.4,63.4z"/>
			</g>
			<g>
				<path class="st0" d="M41.1,66.1c0,0-0.1,2.4,0.8,3c0.5,0.4,1.2,0.6,1.9,0.7c0,0,0.2-1.5-0.4-2.1C42.8,67,42,66.5,41.1,66.1z"/>
			</g>
			<g>
				<path class="st0" d="M46.3,58.2c0,0,0.2,1.9-0.6,2.5c0,0-0.3,0.4-1.6,0.6c0,0-0.2-1.2,0.3-1.8C45,59,45.6,58.5,46.3,58.2z"/>
			</g>
			<g>
				<path class="st0" d="M46.5,60.6c0,0,0.2,2.1-0.7,2.7c0,0-0.3,0.4-1.7,0.6c-0.1-0.7,0-1.4,0.3-2C45.1,61.4,45.8,60.9,46.5,60.6z"
					/>
			</g>
			<g>
				<path class="st0" d="M46.5,63.3c0,0,0.3,2.3-0.6,2.9c-0.5,0.4-1.1,0.6-1.8,0.7c0,0-0.2-1.4,0.3-2C44.5,64.9,44.8,64.3,46.5,63.3
					z"/>
			</g>
			<g>
				<path class="st0" d="M46.8,66.1c0,0,0.2,2.3-0.7,3c-0.5,0.4-1.2,0.6-1.8,0.7c0,0-0.2-1.5,0.3-2.1C45.2,67,46,66.4,46.8,66.1z"/>
			</g>
			<g>
				<path class="st0" d="M41.9,54.1c0-0.1-0.1-0.2-0.2-0.2c-0.1,0-0.2,0.1-0.2,0.2c0,0,0,0,0,0v3.8l0.4,0.2L41.9,54.1z"/>
			</g>
			<g>
				<path class="st0" d="M42.7,53.4c0-0.1-0.1-0.2-0.2-0.2l0,0c-0.1,0-0.2,0.1-0.2,0.2V58l0,0c0.1-0.3,0.2-0.7,0.4-1L42.7,53.4z"/>
			</g>
			<g>
				<path class="st0" d="M43.6,52.3c0-0.1-0.1-0.2-0.2-0.2c0,0,0,0,0,0c-0.1,0-0.2,0.1-0.2,0.2l0,0v3.9c0.1-0.2,0.3-0.4,0.4-0.6
					L43.6,52.3z"/>
			</g>
			<g>
				<path class="st0" d="M45.9,54c0-0.1,0.1-0.2,0.2-0.2l0,0c0.1,0,0.2,0.1,0.2,0.2v3.8L45.9,58V54z"/>
			</g>
			<g>
				<path class="st0" d="M45,53.4c0-0.1,0.1-0.2,0.2-0.2l0,0c0.1,0,0.2,0.1,0.2,0.2c0,0,0,0,0,0v4.5l0,0c-0.1-0.3-0.2-0.7-0.4-1
					L45,53.4z"/>
			</g>
			<g>
				<path class="st0" d="M44.1,52.3c0-0.1,0.1-0.2,0.2-0.2c0,0,0,0,0,0c0.1,0,0.2,0.1,0.2,0.2l0,0v3.9l-0.4-0.6V52.3z"/>
			</g>
			<g>
				<rect x="43.7" y="70.1" class="st0" width="0.6" height="5.3"/>
			</g>
		</g>
		<g>
			<path class="st0" d="M88.9,46.4H72.6v29c0,0.2,0.1,0.3,0.3,0.3h1.5v-7.6c0-0.1,0.1-0.3,0.2-0.3h4c0.1,0,0.3,0.1,0.3,0.3
				c0,0,0,0,0,0v7.6h11.8c0.2,0,0.3-0.1,0.3-0.3v-29L88.9,46.4z M89.2,72.2c0,0.2-0.1,0.3-0.3,0.3H81c-0.2,0-0.3-0.1-0.3-0.3v-4
				c0-0.2,0.1-0.3,0.3-0.3h7.9c0.2,0,0.3,0.1,0.3,0.3L89.2,72.2z M89.2,65.7c0,0.2-0.1,0.3-0.3,0.3H74.7c-0.1,0-0.2-0.1-0.2-0.1
				c0,0-0.1-0.1-0.1-0.2v-4c0-0.2,0.1-0.3,0.3-0.3h14.2c0.1,0,0.2,0.1,0.3,0.2c0,0,0,0,0,0L89.2,65.7z M89.2,59.3
				c0,0.2-0.1,0.3-0.3,0.3H74.7c-0.1,0-0.2-0.1-0.2-0.2c0,0,0,0,0-0.1v-4c0-0.2,0.1-0.3,0.3-0.3h14.2c0.1,0,0.2,0.1,0.3,0.2
				c0,0,0,0,0,0L89.2,59.3z M89.2,52.7c0,0.2-0.1,0.3-0.3,0.3H74.7c-0.2,0-0.3-0.1-0.3-0.3v-4c0-0.2,0.1-0.3,0.3-0.3h14.2
				c0.2,0,0.3,0.1,0.3,0.3V52.7z"/>
		</g>
	</g>
	<g>
		<g>
			<path d="M90.4,100.2L90.4,100.2l-0.3,0.1c-2.5,1.3-10.4,4.3-17.5-2.5c-0.1-0.1-0.3-0.2-0.4-0.2c-0.2,0-0.3,0.1-0.4,0.2
				c-2.1,1.6-11.9,8.2-20.6,0.1L51,97.8c-0.1-0.1-0.2-0.1-0.3-0.1c-0.1,0-0.2,0.1-0.3,0.1L50.2,98c-8.7,8.1-18.5,1.5-20.6-0.1
				c-0.1-0.1-0.2-0.2-0.4-0.2c-0.2,0-0.3,0.1-0.4,0.2c-7.1,6.8-15,3.7-17.5,2.5l-0.2-0.1h-0.1c-0.3,0-0.5,0.2-0.5,0.5c0,0,0,0,0,0
				v3.4c0,0.1,0,0.2,0.1,0.3c8.2,7.2,16.1,0.5,17.9-1.3c0.1-0.1,0.1-0.1,0.2-0.2c0.1-0.1,0.1-0.1,0.2-0.1c0.1,0,0.3,0.1,0.4,0.2
				c9.3,8.9,19.1,1.7,21.1,0l0.2-0.2c0.1,0,0.1-0.1,0.2-0.1c0.1,0,0.1,0,0.2,0.1L51,103c2,1.7,11.8,8.9,21.1,0l0,0
				c0.1-0.1,0.2-0.1,0.3-0.1c0.1,0,0.2,0,0.3,0.1c0.1,0,0.1,0.1,0.1,0.1c1.8,1.8,9.6,8.5,17.9,1.3c0.1-0.1,0.2-0.2,0.2-0.3v-3.4
				C90.8,100.4,90.6,100.2,90.4,100.2"/>
		</g>
		<g>
			<path d="M90.4,89L90.4,89l-0.3,0.1c-2.5,1.3-10.4,4.3-17.5-2.5c-0.1-0.1-0.3-0.2-0.4-0.2c-0.2,0-0.3,0.1-0.4,0.2
				c-2.1,1.6-11.9,8.2-20.6,0.1L51,86.6c-0.1-0.1-0.2-0.1-0.3-0.1c-0.1,0-0.2,0.1-0.3,0.1l-0.1,0.1c-8.7,8.1-18.5,1.5-20.6-0.1
				c-0.1-0.1-0.2-0.2-0.4-0.2c-0.2,0-0.3,0.1-0.4,0.2c-7.1,6.8-15,3.7-17.5,2.5L11,89h-0.1c-0.3,0-0.5,0.2-0.5,0.5c0,0,0,0,0,0v3.4
				c0,0.1,0,0.3,0.1,0.3c8.2,7.2,16.1,0.5,17.9-1.3c0.1-0.1,0.1-0.1,0.2-0.2c0.1,0,0.1-0.1,0.2-0.1c0.1,0,0.3,0.1,0.4,0.2
				c9.3,8.9,19.1,1.7,21.1,0l0.2-0.2c0.1,0,0.1-0.1,0.2-0.1c0.1,0,0.1,0,0.2,0.1l0.2,0.2c2,1.7,11.8,8.9,21.1,0l0,0
				c0.1-0.1,0.2-0.1,0.3-0.1c0.1,0,0.2,0,0.3,0.1c0.1,0,0.1,0.1,0.1,0.1c1.8,1.8,9.6,8.5,17.9,1.3c0.1-0.1,0.1-0.2,0.2-0.3v-3.4
				C90.9,89.2,90.7,89,90.4,89C90.4,89,90.4,89,90.4,89"/>
		</g>
	</g>
</g>
</svg>
