<?xml version="1.0" encoding="utf-8"?>
<!-- Generator: Adobe Illustrator 22.0.1, SVG Export Plug-In . SVG Version: 6.00 Build 0)  -->
<svg version="1.1" id="Layer_1" xmlns="http://www.w3.org/2000/svg" xmlns:xlink="http://www.w3.org/1999/xlink" x="0px" y="0px"
	 viewBox="0 0 101.5 175.1" style="enable-background:new 0 0 101.5 175.1;" xml:space="preserve">
<style type="text/css">
	.st0{fill:#FFFFFF;}
	.st1{fill:#FD9D24;}
	.st2{enable-background:new    ;}
</style>
<title>TARGET 1 B copy 9</title>
<g id="WHITE_BG">
	<g>
		<rect y="0" class="st0" width="101.5" height="175.1"/>
	</g>
</g>
<g id="TARGETS">
	<g>
		<g>
			<path class="st1" d="M11.1,130.3c0,1.2-0.7,2-2.4,2c-0.6,0-1.3-0.1-1.9-0.4V131c0.6,0.3,1.2,0.4,1.8,0.4c1.1,0,1.5-0.5,1.5-1.1
				s-0.3-0.9-1.2-1c-1.6-0.2-2.2-0.6-2.2-1.8c0-0.9,0.5-1.8,2.3-1.8c0.6,0,1.2,0.1,1.7,0.3v1c-0.5-0.2-1.1-0.3-1.7-0.3
				c-1,0-1.3,0.4-1.3,1c0,0.7,0.4,0.8,1.2,0.9C10.3,128.7,11.1,129,11.1,130.3z"/>
		</g>
		<g>
			<path class="st1" d="M11.7,130.2v-4.4h1v4.3c-0.1,0.7,0.4,1.3,1.1,1.3c0.1,0,0.2,0,0.3,0c0.6,0.1,1.3-0.3,1.4-1
				c0-0.1,0-0.2,0-0.3v-4.3h0.9v4.4c0,1.1-0.8,2.1-2,2.1c-0.1,0-0.2,0-0.3,0c-1.1,0.1-2.2-0.7-2.3-1.8
				C11.7,130.4,11.7,130.3,11.7,130.2z"/>
		</g>
		<g>
			<path class="st1" d="M18.2,132.2h-1v-6.4h2c1.6,0,2.2,1,2.2,2c0,1-0.6,2-2.2,2h-1V132.2z M18.2,128.9h1.1c0.6,0.1,1.2-0.4,1.2-1
				s-0.4-1.2-1-1.2c-0.1,0-0.1,0-0.2,0h-1.1V128.9z"/>
		</g>
		<g>
			<path class="st1" d="M23,132.2h-1v-6.4h2c1.6,0,2.2,1,2.2,2c0,1-0.6,2-2.2,2H23V132.2z M23,129h1.1c0.6,0.1,1.2-0.4,1.2-1
				s-0.4-1.2-1-1.2c-0.1,0-0.1,0-0.2,0H23V129z"/>
		</g>
		<g>
			<path class="st1" d="M26.7,129c0-1.8,0.4-3.3,2.5-3.3s2.5,1.5,2.5,3.3s-0.4,3.3-2.5,3.3S26.7,130.8,26.7,129z M27.7,129
				c0,1.5,0.3,2.4,1.5,2.4s1.5-0.9,1.5-2.4s-0.3-2.4-1.5-2.4S27.7,127.5,27.7,129L27.7,129z"/>
		</g>
		<g>
			<path class="st1" d="M33.4,132.2h-1v-6.4h2.1c1.7,0,2.2,0.7,2.2,1.9c0.1,0.7-0.3,1.4-1,1.7l1.3,2.8h-1.1l-1.2-2.6h-1.3V132.2z
				 M33.4,128.7h1.3c0.9,0,1-0.5,1-1s-0.1-1-1-1h-1.3V128.7z"/>
		</g>
		<g>
			<path class="st1" d="M39.5,126.7v5.5h-1v-5.5h-1.6v-0.9h4.3v0.9H39.5z"/>
		</g>
		<g>
			<path class="st1" d="M43.9,131.3h2.8v0.9H43v-6.4h1L43.9,131.3z"/>
		</g>
		<g>
			<path class="st1" d="M50.8,129.3h-2.6v2h2.9v0.9h-3.9v-6.4h3.9v0.9h-2.9v1.8h2.6V129.3z"/>
		</g>
		<g>
			<path class="st1" d="M55,130.6h-2l-0.5,1.6h-1l2-6.4h1l2,6.4h-1L55,130.6z M54,127l-0.8,2.8h1.6L54,127z"/>
		</g>
		<g>
			<path class="st1" d="M61,130.3c0,1.2-0.7,2-2.4,2c-0.6,0-1.3-0.1-1.9-0.4V131c0.6,0.3,1.2,0.4,1.8,0.4c1.1,0,1.5-0.5,1.5-1.1
				s-0.3-0.9-1.2-1c-1.6-0.2-2.2-0.6-2.2-1.8c0-0.9,0.5-1.8,2.3-1.8c0.6,0,1.2,0.1,1.7,0.3v1c-0.5-0.2-1.1-0.3-1.7-0.3
				c-1,0-1.3,0.4-1.3,1c0,0.7,0.4,0.8,1.2,0.9C60.2,128.7,61,129,61,130.3z"/>
		</g>
		<g>
			<path class="st1" d="M63.8,126.7v5.5h-1v-5.5h-1.6v-0.9h4.3v0.9H63.8z"/>
		</g>
		<g>
			<path class="st1" d="M6.9,141.2v-6.4h1.9c2.1,0,2.7,1.4,2.7,3.2s-0.6,3.2-2.7,3.2H6.9z M7.9,140.3h1c1.3,0,1.7-0.9,1.7-2.3
				s-0.4-2.3-1.7-2.3h-1L7.9,140.3z"/>
		</g>
		<g>
			<path class="st1" d="M15.8,138.3h-2.7v2h2.9v0.9h-3.9v-6.4h3.9v0.9h-2.9v1.8h2.7V138.3z"/>
		</g>
		<g>
			<path class="st1" d="M21.5,134.8l-2,6.4h-1l-2-6.4h1L19,140l1.5-5.2L21.5,134.8z"/>
		</g>
		<g>
			<path class="st1" d="M25.6,138.3H23v2h2.9v0.9H22v-6.4h3.9v0.9H23v1.8h2.6L25.6,138.3z"/>
		</g>
		<g>
			<path class="st1" d="M27.7,140.3h2.8v0.9h-3.7v-6.4h1L27.7,140.3z"/>
		</g>
		<g>
			<path class="st1" d="M30.5,138c0-1.8,0.4-3.3,2.5-3.3s2.5,1.5,2.5,3.3s-0.4,3.3-2.5,3.3S30.5,139.8,30.5,138z M31.5,138
				c0,1.5,0.3,2.4,1.5,2.4c1.2,0,1.5-0.9,1.5-2.4s-0.3-2.4-1.5-2.4S31.5,136.5,31.5,138L31.5,138z"/>
		</g>
		<g>
			<path class="st1" d="M37.1,141.2h-1v-6.4h2c1.6,0,2.2,0.9,2.2,2s-0.6,2-2.2,2H37L37.1,141.2z M37.1,137.9h1.1
				c0.6,0.1,1.2-0.4,1.2-1s-0.4-1.2-1-1.2c-0.1,0-0.1,0-0.2,0h-1.1V137.9z"/>
		</g>
		<g>
			<path class="st1" d="M44.6,138.3h-2.7v2h2.9v0.9H41v-6.4h3.9v0.9h-3v1.8h2.7V138.3z"/>
		</g>
		<g>
			<path class="st1" d="M45.7,141.2v-6.4h1.9c2.1,0,2.7,1.4,2.7,3.2s-0.6,3.2-2.7,3.2H45.7z M46.7,140.3h1c1.3,0,1.7-0.9,1.7-2.3
				s-0.4-2.3-1.7-2.3h-1V140.3z"/>
		</g>
		<g>
			<path class="st1" d="M9.4,143.7c0.5,0,1,0.1,1.5,0.3v0.9c-0.5-0.2-0.9-0.3-1.4-0.3c-1.2,0-1.7,0.8-1.7,2.4s0.5,2.4,1.7,2.4
				c0.5,0,1-0.1,1.4-0.3v0.9c-0.5,0.2-1,0.3-1.5,0.3c-1.9,0-2.6-1.2-2.6-3.3S7.5,143.7,9.4,143.7z"/>
		</g>
		<g>
			<path class="st1" d="M11.6,147c0-1.8,0.4-3.3,2.5-3.3s2.4,1.5,2.4,3.3s-0.4,3.3-2.4,3.3S11.6,148.8,11.6,147z M12.6,147
				c0,1.5,0.3,2.4,1.5,2.4s1.5-0.9,1.5-2.4s-0.3-2.4-1.5-2.4S12.6,145.5,12.6,147L12.6,147z"/>
		</g>
		<g>
			<path class="st1" d="M17.2,148.2v-4.4h1v4.3c-0.1,0.7,0.4,1.3,1,1.3c0.1,0,0.2,0,0.3,0c0.6,0.1,1.3-0.3,1.4-1c0-0.1,0-0.2,0-0.3
				v-4.3h1v4.4c0,1.1-0.8,2.1-2,2.1c-0.1,0-0.2,0-0.3,0c-1.1,0.1-2.2-0.7-2.3-1.8C17.2,148.4,17.2,148.3,17.2,148.2z"/>
		</g>
		<g>
			<path class="st1" d="M26.3,150.2l-2.8-4.5v4.5h-0.9v-6.4h0.9l2.8,4.5v-4.5h0.9v6.4H26.3z"/>
		</g>
		<g>
			<path class="st1" d="M30.3,144.7v5.5h-1v-5.5h-1.7v-0.9H32v0.9H30.3z"/>
		</g>
		<g>
			<path class="st1" d="M33.4,150.2h-1v-6.4h2.1c1.7,0,2.2,0.7,2.2,1.9c0.1,0.7-0.3,1.4-1,1.7l1.3,2.8h-1.1l-1.2-2.6h-1.3V150.2z
				 M33.4,146.7h1.3c0.9,0,1-0.5,1-1s-0.1-1-1-1h-1.3V146.7z"/>
		</g>
		<g>
			<path class="st1" d="M37.8,150.2v-6.4h1v6.4H37.8z"/>
		</g>
		<g>
			<path class="st1" d="M43.5,147.3h-2.6v2h2.9v0.9h-3.9v-6.4h3.9v0.9h-2.9v1.8h2.7L43.5,147.3z"/>
		</g>
		<g>
			<path class="st1" d="M48.8,148.3c0,1.2-0.7,2-2.4,2c-0.6,0-1.3-0.1-1.9-0.4V149c0.6,0.3,1.2,0.4,1.8,0.4c1.2,0,1.5-0.5,1.5-1.1
				s-0.3-0.9-1.2-1c-1.5-0.2-2.2-0.6-2.2-1.8c0-0.9,0.5-1.8,2.3-1.8c0.6,0,1.2,0.1,1.7,0.3v1c-0.5-0.2-1.1-0.3-1.7-0.3
				c-1,0-1.3,0.4-1.3,1s0.4,0.8,1.2,0.9C48,146.7,48.8,147,48.8,148.3z"/>
		</g>
		<g>
			<path class="st1" d="M51,150.2v-6.4h1v6.4H51z"/>
		</g>
		<g>
			<path class="st1" d="M56.8,150.2l-2.8-4.5v4.5h-0.9v-6.4H54l2.8,4.5v-4.5h0.9v6.4H56.8z"/>
		</g>
		<g>
			<path class="st1" d="M11.1,157.3c0,1.2-0.7,2-2.4,2c-0.6,0-1.3-0.1-1.9-0.4V158c0.6,0.3,1.2,0.4,1.8,0.4c1.1,0,1.5-0.5,1.5-1.1
				s-0.3-0.9-1.2-1c-1.6-0.2-2.2-0.6-2.2-1.8c0-0.9,0.5-1.8,2.3-1.8c0.6,0,1.2,0.1,1.7,0.3v1c-0.5-0.2-1.1-0.3-1.7-0.3
				c-1,0-1.3,0.4-1.3,1s0.4,0.8,1.2,0.9C10.3,155.7,11.1,156,11.1,157.3z"/>
		</g>
		<g>
			<path class="st1" d="M11.8,157.2v-4.4h0.9v4.3c-0.1,0.7,0.4,1.2,1,1.3c0.1,0,0.2,0,0.3,0c0.6,0.1,1.3-0.3,1.4-1
				c0-0.1,0-0.2,0-0.3v-4.3h1v4.4c0.1,1.1-0.8,2.1-1.9,2.1c-0.1,0-0.3,0-0.4,0c-1.1,0.2-2.1-0.5-2.3-1.6
				C11.8,157.5,11.8,157.4,11.8,157.2z"/>
		</g>
		<g>
			<path class="st1" d="M21.5,157.3c0,1.2-0.7,2-2.4,2c-0.6,0-1.3-0.1-1.9-0.4V158c0.6,0.3,1.2,0.4,1.8,0.4c1.1,0,1.5-0.5,1.5-1.1
				s-0.3-0.9-1.1-1c-1.6-0.2-2.2-0.6-2.2-1.8c0-0.9,0.5-1.8,2.3-1.8c0.6,0,1.2,0.1,1.7,0.3v1c-0.5-0.2-1.1-0.3-1.7-0.3
				c-1,0-1.3,0.4-1.3,1s0.4,0.8,1.2,0.9C20.8,155.7,21.5,156,21.5,157.3z"/>
		</g>
		<g>
			<path class="st1" d="M24.3,153.7v5.5h-1v-5.5h-1.6v-0.9h4.3v0.9H24.3z"/>
		</g>
		<g>
			<path class="st1" d="M29,157.6h-2l-0.5,1.6h-1l2-6.4h1l2,6.4h-1L29,157.6z M28,154l-0.8,2.8h1.6L28,154z"/>
		</g>
		<g>
			<path class="st1" d="M31.1,159.2v-6.4h1v6.4H31.1z"/>
		</g>
		<g>
			<path class="st1" d="M36.9,159.2l-2.8-4.5v4.5h-0.9v-6.4H34l2.8,4.5v-4.5h1v6.4H36.9z"/>
		</g>
		<g>
			<path class="st1" d="M41.8,157.6h-2l-0.5,1.6h-1l2-6.4h1l2,6.4h-1L41.8,157.6z M40.8,154l-0.8,2.8h1.6L40.8,154z"/>
		</g>
		<g>
			<path class="st1" d="M43.8,152.8h2.1c1.6,0,2,0.8,2,1.7c0,0.5-0.3,1-0.8,1.3c0.6,0.2,1.1,0.8,1,1.5c0,1.1-0.5,1.9-2.2,1.9h-2.2
				V152.8z M46,153.7h-1.2v1.8H46c0.4,0.1,0.9-0.2,0.9-0.7c0-0.1,0-0.1,0-0.2C46.9,154.2,46.8,153.7,46,153.7L46,153.7z M44.7,158.3
				H46c0.9,0,1.1-0.5,1.1-1s-0.3-1-1.1-1h-1.3L44.7,158.3z"/>
		</g>
		<g>
			<path class="st1" d="M49.8,158.3h2.8v0.9h-3.7v-6.4h1L49.8,158.3z"/>
		</g>
		<g>
			<path class="st1" d="M56.7,156.3h-2.7v2H57v0.9h-3.9v-6.4H57v0.9h-2.9v1.8h2.7V156.3z"/>
		</g>
		<g>
			<path class="st1" d="M62.4,157.6h-2l-0.5,1.6h-1l2-6.4h1l2,6.4h-1L62.4,157.6z M61.4,154l-0.8,2.8h1.6L61.4,154z"/>
		</g>
		<g>
			<path class="st1" d="M68.1,159.2l-2.8-4.5v4.5h-0.9v-6.4h0.9l2.8,4.5v-4.5h1v6.4H68.1z"/>
		</g>
		<g>
			<path class="st1" d="M69.9,159.2v-6.4h1.9c2.1,0,2.7,1.4,2.7,3.2s-0.6,3.2-2.7,3.2H69.9z M70.9,158.3h1c1.3,0,1.7-0.9,1.7-2.3
				s-0.4-2.3-1.7-2.3h-1V158.3z"/>
		</g>
		<g>
			<path class="st1" d="M7.8,168.2h-1v-6.4H9c1.6,0,2.2,0.7,2.2,1.9c0.1,0.7-0.3,1.4-1,1.7l1.3,2.8h-1.2l-1.1-2.6H7.8V168.2z
				 M7.8,164.7h1.3c0.9,0,1-0.5,1-1s-0.1-1-1-1H7.8V164.7z"/>
		</g>
		<g>
			<path class="st1" d="M15.6,165.3h-2.7v2h2.9v0.9H12v-6.4h3.9v0.9h-3v1.8h2.6L15.6,165.3z"/>
		</g>
		<g>
			<path class="st1" d="M20.7,166.3c0,1.2-0.7,2-2.4,2c-0.6,0-1.3-0.1-1.9-0.4V167c0.6,0.3,1.2,0.4,1.8,0.4c1.1,0,1.5-0.5,1.5-1.1
				s-0.3-0.9-1.1-1c-1.6-0.2-2.2-0.6-2.2-1.8c0-0.9,0.5-1.8,2.3-1.8c0.6,0,1.2,0.1,1.7,0.3v1c-0.5-0.2-1.1-0.3-1.7-0.3
				c-1,0-1.3,0.4-1.3,1s0.4,0.8,1.2,0.9C19.9,164.7,20.7,165,20.7,166.3z"/>
		</g>
		<g>
			<path class="st1" d="M21.6,168.2v-6.4h1v6.4H21.6z"/>
		</g>
		<g>
			<path class="st1" d="M24.6,167.3h2.8v0.9h-3.7v-6.4h1L24.6,167.3z"/>
		</g>
		<g>
			<path class="st1" d="M28.2,168.2v-6.4h1v6.4H28.2z"/>
		</g>
		<g>
			<path class="st1" d="M33.8,165.3h-2.6v2h2.9v0.9h-3.9v-6.4h3.9v0.9h-2.9v1.8h2.6V165.3z"/>
		</g>
		<g>
			<path class="st1" d="M38.6,168.2l-2.8-4.5v4.5H35v-6.4h0.9l2.8,4.5v-4.5h0.9v6.4H38.6z"/>
		</g>
		<g>
			<path class="st1" d="M42.7,162.7v5.5h-1v-5.5H40v-0.9h4.3v0.9H42.7z"/>
		</g>
		<g>
			<path class="st1" d="M46.1,161.8h2.1c1.6,0,2,0.8,2,1.7c0,0.5-0.3,1-0.8,1.3c0.6,0.2,1.1,0.8,1,1.5c0,1.1-0.5,1.9-2.2,1.9h-2.2
				V161.8z M48.2,162.7H47v1.8h1.2c0.8,0,1-0.5,1-0.9S49.1,162.7,48.2,162.7z M47,167.3h1.3c0.9,0,1.1-0.5,1.1-1s-0.3-1-1.1-1H47
				V167.3z"/>
		</g>
		<g>
			<path class="st1" d="M51,166.2v-4.4h1v4.3c0,0.8,0.6,1.4,1.4,1.4s1.4-0.6,1.4-1.4v-4.3h1v4.4c-0.1,1.3-1.3,2.2-2.6,2.1
				C52,168.1,51.2,167.3,51,166.2L51,166.2z"/>
		</g>
		<g>
			<path class="st1" d="M56.7,168.2v-6.4h1v6.4H56.7z"/>
		</g>
		<g>
			<path class="st1" d="M59.7,167.3h2.8v0.9h-3.7v-6.4h1L59.7,167.3z"/>
		</g>
		<g>
			<path class="st1" d="M63,168.2v-6.4h1.9c2.1,0,2.7,1.4,2.7,3.2s-0.6,3.2-2.7,3.2H63z M64,167.3h1c1.3,0,1.7-0.9,1.7-2.3
				s-0.4-2.3-1.7-2.3h-1L64,167.3z"/>
		</g>
		<g>
			<path class="st1" d="M68.4,168.2v-6.4h1v6.4H68.4z"/>
		</g>
		<g>
			<path class="st1" d="M74.1,168.2l-2.8-4.5v4.5h-0.9v-6.4h0.9l2.8,4.5v-4.5h1v6.4H74.1z"/>
		</g>
		<g>
			<path class="st1" d="M75.7,165c0-2,0.7-3.3,2.6-3.3c0.6,0,1.2,0.1,1.8,0.3v1c-0.5-0.2-1.1-0.4-1.7-0.4c-1.3,0-1.8,0.9-1.8,2.4
				s0.5,2.4,1.8,2.4c0.3,0,0.6,0,0.9-0.1v-1.7h-1.1v-0.9h2.1v3.2c-0.6,0.3-1.3,0.4-2,0.4C76.4,168.3,75.7,167,75.7,165z"/>
		</g>
	</g>
	<g>
		<rect x="3.3" y="24" class="st1" width="94.8" height="94.8"/>
	</g>
	<g>
		<path class="st1" d="M98.2,20.7H3.3V3.3h94.8V20.7z M4.3,19.7h92.8V4.3H4.3L4.3,19.7z"/>
	</g>
	<g class="st2">
		<path class="st1" d="M6.7,6.9h4.5v1.4H9.9v8.8H8.1V8.3H6.7V6.9z"/>
	</g>
	<g class="st2">
		<path class="st1" d="M11.2,17.1l1.9-10.2h1.9L17,17.1h-1.8l-0.3-1.9h-1.8l-0.3,1.9H11.2z M13.3,13.9h1.4L14,9.8h0L13.3,13.9z"/>
	</g>
	<g class="st2">
		<path class="st1" d="M19.6,12.4v4.7h-1.7V6.9h2.5c1.7,0,2.4,0.9,2.4,2.3v1.3c0,1.1-0.4,1.7-1.4,2l1.6,4.6h-1.8L19.6,12.4z
			 M19.6,8.3v3.2h0.6c0.6,0,0.8-0.3,0.8-0.8V9.2c0-0.6-0.3-0.8-0.8-0.8H19.6z"/>
	</g>
	<g class="st2">
		<path class="st1" d="M26.4,11.7h2.4v5.4h-1.2V16c-0.2,0.8-0.7,1.2-1.6,1.2c-1.5,0-2.1-1.2-2.1-2.7V9.6c0-1.6,0.8-2.7,2.6-2.7
			c1.9,0,2.4,1.1,2.4,2.6v0.9h-1.6v-1c0-0.6-0.2-1-0.9-1c-0.6,0-0.9,0.4-0.9,1v5.5c0,0.6,0.3,1,0.8,1c0.6,0,0.8-0.3,0.8-1V13h-0.8
			V11.7z"/>
	</g>
	<g class="st2">
		<path class="st1" d="M30.2,6.9h4.1v1.4h-2.4v2.9h1.7v1.4h-1.7v3.1h2.4v1.4h-4.1V6.9z"/>
	</g>
	<g class="st2">
		<path class="st1" d="M35.1,6.9h4.5v1.4h-1.4v8.8h-1.7V8.3h-1.4V6.9z"/>
	</g>
	<g class="st2">
		<path class="st1" d="M89.4,14.5V9.6c0-1.6,0.8-2.7,2.5-2.7c1.9,0,2.4,1.1,2.4,2.6v1.2h-1.6V9.2c0-0.6-0.2-1-0.8-1
			c-0.6,0-0.9,0.4-0.9,1v5.5c0,0.6,0.3,1,0.9,1c0.6,0,0.8-0.4,0.8-1v-1.9h1.6v1.8c0,1.5-0.6,2.5-2.4,2.5
			C90.2,17.2,89.4,16.1,89.4,14.5z"/>
	</g>
	<g class="st2">
		<path class="st1" d="M78.9,6.9v10.2h-1.7V9.3h0l-1.2,1.2h0V8.8l1.6-1.8H78.9z"/>
	</g>
	<g class="st2">
		<path class="st1" d="M82.9,6.9v10.2h-1.7V9.3h0L80,10.5h0V8.8l1.6-1.8H82.9z"/>
	</g>
	<g>
		<polygon class="st1" points="85.4,9.9 85.4,14.1 87.6,12 		"/>
	</g>
	<g>
		<path class="st1" d="M98.2,171.9h-95v-49.7h95V171.9z M4.2,170.9h93v-47.7h-93V170.9z"/>
	</g>
	<g>
		<g>
			<path class="st0" d="M85.8,79.5c-1.6-1.2-3.6-1.9-5.7-1.9c-0.5,0-0.9,0-1.4,0.1h-0.1c-1.4,0.3-3.6,0.8-6.3,4.1l-0.1,0.1
				c0,0.1-0.1,0.1-0.1,0.2c0,0.1,0,0.1,0,0.2l0.1,0.1c0.4,0.7,0.8,1.4,1.1,1.9c0.1,0.2,0.3,0.2,0.5,0.1c0,0,0.1,0,0.1-0.1v-0.1
				c2.3-3.2,4.1-3.6,5.2-3.8h0.1c0.2,0,0.5-0.1,0.7-0.1c1.4,0,2.8,0.4,4,1.3c1.4,1.3,2.2,3.1,2,5c0,3.8-1.8,5.2-3.3,5.8
				c-0.6,0.2-1.2,0.3-1.9,0.3c-1,0-1.9-0.2-2.8-0.6l-0.1-0.1c-1.3-0.6-3.3-1.8-5.1-5.5c-3.8-7.7-7-8.4-9.1-8.8h-0.1
				c-0.5-0.1-0.9-0.1-1.4-0.1c-2,0-4,0.6-5.6,1.8c-1.4,1.1-3,3.2-3,7.2c-0.3,4.6,3.3,8.5,7.8,8.8c0.2,0,0.4,0,0.6,0
				c0.6,0,1.3-0.1,1.9-0.2c1.2-0.3,2.3-0.8,3.3-1.5l1.1,1c0.1,0.1,0.3,0.1,0.4,0c0.1-0.1,0.1-0.1,0.1-0.2l0.9-5.3v-0.1
				c0-0.1,0-0.2-0.1-0.2c-0.1-0.1-0.1-0.1-0.2-0.1l0,0l-5.2,1.4h-0.1c-0.1,0-0.1,0.1-0.2,0.1c-0.1,0.1-0.1,0.1-0.1,0.2
				c0,0.1,0,0.2,0.1,0.2l1.1,1c-0.5,0.3-1.1,0.6-1.7,0.7c-0.5,0.1-0.9,0.1-1.4,0.1c-1.7,0-3.3-0.7-4.4-2l0,0c-0.9-1.1-1.3-2.6-1.2-4
				c-0.2-1.9,0.6-3.7,2-5c1.1-0.8,2.5-1.2,3.8-1.2c0.2,0,0.5,0,0.7,0.1h0.1c1.7,0.4,4,0.9,7.2,7.4c1.7,3.4,3.8,5.6,6.5,6.8
				c1.3,0.6,2.7,1,4.1,1c1,0,1.9-0.2,2.9-0.5c1.6-0.6,5.2-2.6,5.2-8.5C88.9,82.7,87.2,80.6,85.8,79.5z"/>
		</g>
		<g>
			<path class="st0" d="M65.9,47.3h8.5c0.6,0,1.1,0.5,1.1,1.1v4.5c0,0.6-0.5,1.1-1.1,1.1h-8.5c-0.6,0-1.1-0.5-1.1-1.1v-4.5
				C64.8,47.8,65.2,47.3,65.9,47.3z"/>
		</g>
		<g>
			<path class="st0" d="M54.7,64h8.5c0.6,0,1.1,0.5,1.1,1.1v4.6c0,0.6-0.5,1.1-1.1,1.1h-8.5c-0.6,0-1.1-0.5-1.1-1.1v-4.6
				C53.6,64.5,54.1,64,54.7,64z"/>
		</g>
		<g>
			<path class="st0" d="M67.1,64h8.5c0.6,0,1.1,0.5,1.1,1.1v4.6c0,0.6-0.5,1.1-1.1,1.1h-8.5c-0.6,0-1.1-0.5-1.1-1.1v-4.6
				C66,64.5,66.5,64,67.1,64z"/>
		</g>
		<g>
			<path class="st0" d="M79.4,64h8.5c0.6,0,1.1,0.5,1.1,1.1v4.6c0,0.6-0.5,1.1-1.1,1.1h-8.5c-0.6,0-1.1-0.5-1.1-1.1v-4.6
				C78.2,64.5,78.7,64,79.4,64z"/>
		</g>
		<g>
			<path class="st0" d="M60.1,55.6h8.5c0.6,0,1.1,0.5,1.1,1.1v4.5c0,0.6-0.5,1.1-1.1,1.1h-8.5c-0.6,0-1.1-0.5-1.1-1.1v-4.5
				C59,56.1,59.5,55.6,60.1,55.6z"/>
		</g>
		<g>
			<path class="st0" d="M72.4,55.6h8.5c0.6,0,1.1,0.5,1.1,1.1v4.5c0,0.6-0.5,1.1-1.1,1.1h-8.5c-0.6,0-1.1-0.5-1.1-1.1v-4.5
				C71.2,56.1,71.7,55.6,72.4,55.6z"/>
		</g>
		<g>
			<path class="st0" d="M43.1,87.2l-7.2,5.7C35.8,93,35.7,93,35.6,93c-0.2,0-0.2-0.1-0.2-0.4v-2.9H14.5c-0.2,0-0.3-0.1-0.2-0.3v-5
				c0-0.1,0.1-0.3,0.2-0.3c0,0,0,0,0,0h20.9v-2.8c0-0.2,0.1-0.3,0.2-0.4c0.1,0,0.2,0,0.3,0.1l7.2,5.5c0.1,0.1,0.2,0.2,0.2,0.4
				C43.3,87.1,43.2,87.2,43.1,87.2z"/>
		</g>
		<g>
			<g>
				<path class="st0" d="M26.9,68.8c-0.5,0.3-1,0.5-1.5,0.7c-1.5,0.4-3.1,0.6-4.8,0.6c-0.8,0-1.6-0.1-2.4-0.2
					c-0.5-0.1-0.9-0.2-1.4-0.3c-0.2-0.1-0.5-0.1-0.7-0.2c-0.7-0.2-1.3-0.5-1.9-0.9c-0.2-0.1-0.4-0.3-0.5-0.6v0.6c0,0.2,0,0.9,0,0.9
					c0,0.4,0.2,0.8,0.6,1c1.1,0.8,2.4,1.3,3.7,1.4c0.9,0.1,1.8,0.2,2.7,0.2c1.3,0,2.6-0.1,3.9-0.4l0,0c0.7-0.2,1.4-0.4,2-0.8l0,0
					c0.6-0.4,1-0.8,1-1.3c0,0,0-1.4,0-1.5C27.4,68.4,27.1,68.6,26.9,68.8z"/>
			</g>
			<g>
				<path class="st0" d="M20,64.1c3.8,0,7-1.2,7-2.6c0,0,0.1-1.3,0.1-1.6c0-0.2,0-0.4-0.1-0.5c0.4-0.2,0.7-0.7,0.8-1.2
					c0,0,0.1-1.5,0-1.8c-0.2-1.7-3.7-2.7-7-2.7s-7,1-7,2.8c0,0.1,0.1,1.6,0.1,1.6c0,0.1,0,0.2,0.1,0.3c-0.5,0.3-0.8,0.8-0.9,1.4
					c0,0.1,0.1,1.6,0.1,1.6c0,0.4,0.2,0.8,0.6,1c1.1,0.8,2.4,1.3,3.7,1.4C18.2,64,19.1,64.1,20,64.1z M20.7,54.5
					c3.7,0,6.3,1.1,6.3,2.1s-2.6,2.1-6.3,2.1s-6.3-1.1-6.3-2.1S17,54.5,20.7,54.5L20.7,54.5z M13.7,59.9c0.1-0.3,0.3-0.6,0.5-0.8
					c0.2,0.2,0.5,0.4,0.7,0.5c1.8,0.8,3.8,1.2,5.8,1.1c1.7,0,3.3-0.2,4.9-0.8c0.2-0.1,0.4-0.2,0.6-0.3c0,0.1,0,0.1,0,0.2
					c0,1-2.6,2.1-6.3,2.1S13.7,60.9,13.7,59.9L13.7,59.9z"/>
			</g>
			<g>
				<path class="st0" d="M18,69.4c0.9,0.1,1.8,0.2,2.7,0.2c1.3,0,2.6-0.1,3.9-0.4l0,0c0.7-0.2,1.4-0.4,2-0.8l0,0
					c0.2-0.1,0.3-0.2,0.4-0.3c0.2-0.2,0.4-0.4,0.5-0.7c0-0.1,0.1-0.2,0.1-0.4c0,0,0-1.4,0-1.5c-0.2,0.3-0.8,1.2-3.6,1.8
					c-1.2,0.2-2.4,0.3-3.5,0.3c-1.9,0-3.8-0.4-5.5-1.1c-0.3-0.2-0.6-0.4-0.9-0.6c-0.2-0.2-0.3-0.3-0.4-0.5c0,0,0,0.7,0,0.7v1
					c0,0.4,0.2,0.8,0.6,1C15.4,68.9,16.7,69.3,18,69.4z"/>
			</g>
			<g>
				<path class="st0" d="M27.5,62.4c-0.1-0.1-0.1-0.1-0.2-0.2c-0.1-0.1-0.2-0.1-0.3-0.2c-0.1,0.2-0.2,0.3-0.3,0.4
					c0.1,0,0.2,0.1,0.3,0.2c0.2,0.1,0.3,0.3,0.3,0.5c0,0.2-0.1,0.4-0.2,0.5c-0.1,0.1-0.2,0.1-0.3,0.2c0,0-0.3,0.2-0.4,0.2l-0.6,0.3
					l-0.6,0.2l-0.8,0.2c-0.1,0-0.7,0.1-1.1,0.2L22.2,65l-1.6,0.1c-0.7,0-1.5-0.1-2.2-0.2c-0.5-0.1-1.1-0.2-1.6-0.3
					c-0.6-0.1-1.1-0.3-1.7-0.5c-0.3-0.1-0.6-0.3-0.9-0.6c-0.2-0.2-0.4-0.5-0.6-0.7c0,0,0,0.9,0,0.9v0.8c0,0.4,0.2,0.8,0.6,1
					c1.1,0.8,2.4,1.3,3.7,1.4c0.9,0.1,1.8,0.2,2.7,0.2c1.3,0,2.6-0.1,3.9-0.4l0,0c0.7-0.2,1.4-0.4,2-0.8l0,0
					c0.2-0.1,0.3-0.2,0.4-0.3c0.2-0.2,0.4-0.4,0.5-0.7c0-0.1,0.1-0.2,0.1-0.4c0,0,0.1-1.5,0.1-1.5c0-0.1,0-0.2,0-0.3
					C27.6,62.6,27.6,62.5,27.5,62.4z"/>
			</g>
			<g>
				<path class="st0" d="M36,59.1c3.8,0,7-1.2,7-2.6c0,0,0.1-1.3,0-1.6c0-0.2,0-0.4-0.1-0.5c0.4-0.2,0.7-0.7,0.8-1.2
					c0,0,0.1-1.5,0-1.8c-0.2-1.7-3.7-2.7-7-2.7s-7,1-7,2.8c0,0.1,0.1,1.6,0.1,1.6c0,0.1,0,0.2,0.1,0.3c-0.5,0.3-0.8,0.8-0.8,1.4
					c0,0.1,0.1,1.6,0.1,1.6c0,0.4,0.2,0.8,0.5,1c1.1,0.8,2.4,1.2,3.7,1.4C34.2,59,35.1,59.1,36,59.1z M36.7,49.5
					c3.7,0,6.3,1.1,6.3,2.1s-2.6,2.1-6.3,2.1s-6.3-1.1-6.3-2.1S33,49.5,36.7,49.5L36.7,49.5z M29.7,54.9c0.1-0.3,0.3-0.6,0.5-0.8
					c0.2,0.2,0.4,0.4,0.7,0.5c1.8,0.8,3.8,1.2,5.8,1.1c1.7,0,3.3-0.2,4.9-0.8c0.2-0.1,0.4-0.2,0.6-0.3c0,0.1,0,0.1,0,0.2
					c0,1-2.6,2.1-6.3,2.1S29.7,55.9,29.7,54.9L29.7,54.9z"/>
			</g>
			<g>
				<path class="st0" d="M43.7,57.7c0-0.1-0.1-0.2-0.2-0.3l-0.2-0.2c-0.1-0.1-0.2-0.1-0.3-0.2c-0.1,0.2-0.2,0.3-0.3,0.4
					c0.1,0,0.2,0.1,0.3,0.2c0.2,0.1,0.3,0.3,0.3,0.5c0,0.2-0.1,0.4-0.2,0.5c-0.1,0.1-0.2,0.1-0.3,0.2l-0.4,0.2c0,0-0.4,0.2-0.6,0.3
					s-0.4,0.2-0.6,0.2l-0.8,0.2c0,0-0.7,0.1-1.1,0.2L38.2,60c-0.1,0-1.2,0.1-1.6,0.1c-0.7,0-1.5-0.1-2.2-0.2
					c-0.5-0.1-1.1-0.2-1.6-0.3c-0.6-0.1-1.1-0.3-1.7-0.5c-0.3-0.2-0.6-0.4-0.9-0.6c-0.2-0.2-0.4-0.5-0.5-0.7v0.9v0.8
					c0,0.4,0.2,0.8,0.5,1c1.1,0.8,2.4,1.2,3.7,1.4c0.9,0.1,1.8,0.2,2.7,0.2c1.3,0,2.6-0.1,3.9-0.4l0,0c0.7-0.2,1.4-0.4,2-0.8l0,0
					c0.1-0.1,0.3-0.2,0.4-0.3c0.2-0.2,0.4-0.4,0.5-0.7c0-0.1,0.1-0.2,0.1-0.4c0,0,0-1.5,0-1.5C43.7,57.9,43.7,57.8,43.7,57.7z"/>
			</g>
			<g>
				<path class="st0" d="M42.9,63.8c-0.5,0.3-1,0.5-1.5,0.7c-1.5,0.4-3.1,0.7-4.8,0.6c-0.8,0-1.6-0.1-2.3-0.2
					c-0.5-0.1-1-0.2-1.4-0.3c-0.2-0.1-0.5-0.1-0.7-0.2c-0.7-0.2-1.3-0.5-1.9-0.9c-0.2-0.2-0.4-0.3-0.5-0.5v0.6c0,0.2,0,0.9,0,0.9
					c0,0.4,0.2,0.8,0.5,1c1.1,0.8,2.4,1.2,3.7,1.4c0.9,0.1,1.8,0.2,2.7,0.2c1.3,0,2.6-0.1,3.9-0.4l0,0c0.7-0.2,1.4-0.4,2-0.8l0,0
					c0.6-0.4,1-0.8,1-1.3c0,0,0.1-1.4,0-1.5C43.4,63.3,43.2,63.6,42.9,63.8z"/>
			</g>
			<g>
				<path class="st0" d="M30.3,63c1.1,0.8,2.4,1.3,3.7,1.4c0.9,0.1,1.8,0.2,2.7,0.2c1.3,0,2.6-0.1,3.9-0.4l0,0
					c0.7-0.2,1.4-0.4,2-0.8l0,0c0.1-0.1,0.3-0.2,0.4-0.3c0.2-0.2,0.4-0.4,0.5-0.7c0-0.1,0.1-0.2,0.1-0.4c0,0,0-1.4,0-1.5
					c-0.2,0.3-0.8,1.2-3.6,1.8c-1.2,0.2-2.4,0.3-3.5,0.3c-1.9,0-3.8-0.3-5.5-1.1c-0.3-0.2-0.6-0.4-0.9-0.6c-0.2-0.2-0.3-0.3-0.4-0.5
					c0,0,0,0.7,0,0.7v1C29.8,62.4,30,62.8,30.3,63z"/>
			</g>
			<g>
				<path class="st0" d="M43.8,68c-0.2,0.3-0.5,0.6-0.8,0.8c-0.5,0.3-1,0.5-1.5,0.7c-1.5,0.4-3.1,0.6-4.8,0.6
					c-0.8,0-1.6-0.1-2.4-0.2c-0.5-0.1-0.9-0.2-1.4-0.3l-0.7-0.2c-0.7-0.2-1.3-0.5-1.9-0.9c-0.2-0.1-0.4-0.3-0.5-0.5v0.6
					c0,0.2,0,0.9,0,0.9c0,0.4,0.2,0.8,0.5,1c1.1,0.8,2.4,1.2,3.7,1.4c0.9,0.1,1.8,0.2,2.7,0.2c1.3,0,2.6-0.1,3.9-0.4l0,0
					c0.7-0.2,1.4-0.4,2-0.8l0,0c0.7-0.4,1-0.8,1-1.3C43.7,69.5,43.8,68.1,43.8,68z"/>
			</g>
			<g>
				<path class="st0" d="M34,69.4c0.9,0.1,1.8,0.2,2.7,0.2c1.3,0,2.6-0.1,3.9-0.4l0,0c0.7-0.2,1.4-0.4,2-0.8l0,0
					c0.2-0.1,0.3-0.2,0.4-0.3c0.2-0.2,0.4-0.4,0.5-0.7c0-0.1,0.1-0.2,0.1-0.4c0,0,0-1.4,0-1.5c-0.2,0.3-0.8,1.2-3.6,1.8
					c-1.2,0.2-2.4,0.3-3.5,0.3c-1.9,0.1-3.8-0.3-5.6-1.1c-0.3-0.2-0.6-0.4-0.9-0.6c-0.2-0.2-0.3-0.3-0.4-0.5c0,0,0,0.7,0,0.7v1
					c0,0.4,0.2,0.8,0.5,1C31.3,68.8,32.6,69.3,34,69.4z"/>
			</g>
		</g>
	</g>
</g>
</svg>
