<?xml version="1.0" encoding="utf-8"?>
<!-- Generator: Adobe Illustrator 22.0.1, SVG Export Plug-In . SVG Version: 6.00 Build 0)  -->
<svg version="1.1" id="Layer_1" xmlns="http://www.w3.org/2000/svg" xmlns:xlink="http://www.w3.org/1999/xlink" x="0px" y="0px"
	 viewBox="0 0 101.5 157.2" style="enable-background:new 0 0 101.5 157.2;" xml:space="preserve">
<style type="text/css">
	.st0{fill:#FFFFFF;}
	.st1{fill:#FD9D24;}
	.st2{enable-background:new    ;}
</style>
<title>TARGET 1.2</title>
<g id="WHITE_BG">
	<g>
		<rect y="0" class="st0" width="101.5" height="157.1"/>
	</g>
</g>
<g id="TARGETS">
	<g>
		<g>
			<path class="st1" d="M10.1,130.6h-2l-0.4,1.6h-1l2-6.4h1l2,6.4h-1L10.1,130.6z M9.1,127l-0.8,2.8h1.6L9.1,127z"/>
		</g>
		<g>
			<path class="st1" d="M15.6,129.4h-2.6v2.8h-1v-6.4h3.8v0.9h-2.8v1.8h2.6V129.4z"/>
		</g>
		<g>
			<path class="st1" d="M20.1,129.4h-2.6v2.8h-1v-6.4h3.8v0.9h-2.9v1.8h2.6V129.4z"/>
		</g>
		<g>
			<path class="st1" d="M20.9,129c0-1.8,0.4-3.3,2.5-3.3s2.5,1.5,2.5,3.3s-0.4,3.3-2.5,3.3S20.9,130.8,20.9,129z M21.9,129
				c0,1.5,0.3,2.4,1.5,2.4s1.5-0.9,1.5-2.4s-0.3-2.4-1.5-2.4S21.8,127.5,21.9,129L21.9,129z"/>
		</g>
		<g>
			<path class="st1" d="M27.6,132.2h-1v-6.4h2.1c1.6,0,2.2,0.7,2.2,1.9c0.1,0.7-0.3,1.4-1,1.7l1.3,2.8h-1.1l-1.2-2.6h-1.3V132.2z
				 M27.6,128.7h1.3c0.9,0,1-0.5,1-1s-0.1-1-1-1h-1.3V128.7z"/>
		</g>
		<g>
			<path class="st1" d="M31.8,132.2v-6.4h1.9c2.1,0,2.7,1.4,2.7,3.2s-0.6,3.2-2.7,3.2H31.8z M32.8,131.3h1c1.3,0,1.7-0.9,1.7-2.3
				s-0.4-2.3-1.7-2.3h-1V131.3z"/>
		</g>
		<g>
			<path class="st1" d="M40.1,130.6h-2l-0.5,1.6h-1l2-6.4h1l2,6.4h-1L40.1,130.6z M39.1,127l-0.8,2.8h1.6L39.1,127z"/>
		</g>
		<g>
			<path class="st1" d="M42.1,125.8h2.2c1.5,0,2,0.8,2,1.8c0,0.5-0.3,1-0.8,1.3c0.6,0.2,1.1,0.8,1,1.5c0,1-0.5,1.9-2.2,1.9h-2.2
				L42.1,125.8z M44.3,126.7h-1.2v1.8h1.2c0.4,0.1,0.9-0.2,0.9-0.7c0-0.1,0-0.1,0-0.2C45.3,127.2,45.1,126.7,44.3,126.7z
				 M43.1,131.3h1.3c0.9,0,1.1-0.5,1.1-1s-0.3-1-1.1-1h-1.3V131.3z"/>
		</g>
		<g>
			<path class="st1" d="M48.2,131.3h2.8v0.9h-3.7v-6.4h1V131.3z"/>
		</g>
		<g>
			<path class="st1" d="M55,129.3h-2.6v2h2.9v0.9h-3.9v-6.4h3.9v0.9h-2.9v1.8H55V129.3z"/>
		</g>
		<g>
			<path class="st1" d="M60.7,130.6h-2l-0.5,1.6h-1l2-6.4h1l2,6.4h-1L60.7,130.6z M59.7,127l-0.8,2.8h1.6L59.7,127z"/>
		</g>
		<g>
			<path class="st1" d="M66.4,132.2l-2.8-4.5v4.5h-1v-6.4h0.9l2.8,4.5v-4.5h0.9v6.4H66.4z"/>
		</g>
		<g>
			<path class="st1" d="M68.2,132.2v-6.4h1.9c2.1,0,2.7,1.4,2.7,3.2s-0.6,3.2-2.7,3.2H68.2z M69.2,131.3h1c1.3,0,1.7-0.9,1.7-2.3
				s-0.4-2.3-1.7-2.3h-1V131.3z"/>
		</g>
		<g>
			<path class="st1" d="M11.1,139.3c0,1.2-0.7,2-2.4,2c-0.6,0-1.3-0.1-1.9-0.3v-1c0.6,0.3,1.2,0.4,1.8,0.4c1.1,0,1.5-0.5,1.5-1.1
				s-0.3-0.9-1.2-1c-1.6-0.2-2.2-0.6-2.2-1.8c0-0.9,0.5-1.9,2.3-1.9c0.6,0,1.2,0.1,1.7,0.3v1c-0.5-0.2-1.1-0.3-1.7-0.3
				c-1,0-1.3,0.4-1.3,1s0.4,0.8,1.2,0.9C10.3,137.7,11.1,138,11.1,139.3z"/>
		</g>
		<g>
			<path class="st1" d="M11.8,139.2v-4.4h0.9v4.3c-0.1,0.6,0.4,1.2,1,1.3c0.1,0,0.2,0,0.3,0c0.6,0.1,1.2-0.3,1.4-1
				c0-0.1,0-0.2,0-0.3v-4.3h1v4.4c0.1,1.1-0.8,2.1-1.9,2.1c-0.2,0-0.3,0-0.4,0c-1.1,0.2-2.1-0.5-2.3-1.6
				C11.8,139.5,11.8,139.4,11.8,139.2z"/>
		</g>
		<g>
			<path class="st1" d="M21.5,139.3c0,1.2-0.7,2-2.4,2c-0.6,0-1.3-0.1-1.9-0.4v-1c0.6,0.3,1.2,0.4,1.8,0.4c1.1,0,1.5-0.5,1.5-1.1
				s-0.3-0.9-1.1-1c-1.6-0.2-2.2-0.6-2.2-1.8c0-0.9,0.5-1.9,2.3-1.9c0.6,0,1.2,0.1,1.7,0.3v1c-0.5-0.2-1.1-0.3-1.7-0.3
				c-1,0-1.3,0.4-1.3,1s0.4,0.8,1.2,0.9C20.8,137.7,21.5,138,21.5,139.3z"/>
		</g>
		<g>
			<path class="st1" d="M24.3,135.7v5.5h-1v-5.5h-1.6v-0.9h4.3v0.9H24.3z"/>
		</g>
		<g>
			<path class="st1" d="M29,139.6h-2l-0.5,1.6h-1l2-6.4h1l2,6.4h-1L29,139.6z M28,136l-0.8,2.8h1.6L28,136z"/>
		</g>
		<g>
			<path class="st1" d="M31.1,141.2v-6.4h1v6.4H31.1z"/>
		</g>
		<g>
			<path class="st1" d="M36.9,141.2l-2.8-4.5v4.5h-0.9v-6.4H34l2.8,4.5v-4.5h1v6.4H36.9z"/>
		</g>
		<g>
			<path class="st1" d="M41.8,139.6h-2l-0.5,1.6h-1l2-6.4h1l2,6.4h-1L41.8,139.6z M40.8,136l-0.8,2.8h1.6L40.8,136z"/>
		</g>
		<g>
			<path class="st1" d="M43.8,134.8h2.1c1.6,0,2,0.8,2,1.8c0,0.5-0.3,1-0.8,1.3c0.6,0.2,1.1,0.8,1,1.5c0,1-0.5,1.9-2.2,1.9h-2.2
				V134.8z M46,135.7h-1.2v1.8H46c0.4,0.1,0.9-0.2,0.9-0.7c0-0.1,0-0.1,0-0.2C46.9,136.2,46.8,135.7,46,135.7L46,135.7z M44.7,140.3
				H46c0.9,0,1.1-0.5,1.1-1s-0.3-1-1.1-1h-1.3L44.7,140.3z"/>
		</g>
		<g>
			<path class="st1" d="M49.8,140.3h2.8v0.9h-3.7v-6.4h1L49.8,140.3z"/>
		</g>
		<g>
			<path class="st1" d="M56.7,138.3h-2.7v2H57v0.9h-3.9v-6.4H57v0.9h-2.9v1.8h2.7V138.3z"/>
		</g>
		<g>
			<path class="st1" d="M9.2,144.7v5.5h-1v-5.5H6.6v-0.9h4.3v0.9H9.2z"/>
		</g>
		<g>
			<path class="st1" d="M12.4,150.2h-1v-6.4h2.1c1.6,0,2.2,0.7,2.2,1.9c0.1,0.7-0.3,1.4-1,1.7l1.4,2.8h-1.2l-1.2-2.6h-1.3V150.2z
				 M12.4,146.7h1.3c0.9,0,1-0.5,1-1s-0.1-1-1-1h-1.3V146.7z"/>
		</g>
		<g>
			<path class="st1" d="M19.7,148.6h-2l-0.5,1.6h-1l2-6.4h1l2,6.4h-1L19.7,148.6z M18.7,145l-0.8,2.8h1.6L18.7,145z"/>
		</g>
		<g>
			<path class="st1" d="M25.4,150.2l-2.8-4.5v4.5h-0.9v-6.4h0.9l2.8,4.5v-4.5h0.9v6.4H25.4z"/>
		</g>
		<g>
			<path class="st1" d="M31.4,148.3c0,1.2-0.7,2-2.4,2c-0.6,0-1.3-0.1-1.9-0.4v-1c0.6,0.3,1.2,0.4,1.8,0.4c1.1,0,1.5-0.5,1.5-1.1
				s-0.3-0.9-1.1-1c-1.6-0.2-2.2-0.6-2.2-1.8c0-0.9,0.5-1.9,2.3-1.9c0.6,0,1.2,0.1,1.7,0.3v1c-0.5-0.2-1.1-0.3-1.7-0.3
				c-1,0-1.3,0.4-1.3,1s0.4,0.8,1.2,0.9C30.6,146.7,31.4,147,31.4,148.3z"/>
		</g>
		<g>
			<path class="st1" d="M33.1,150.2h-1v-6.4h2c1.6,0,2.2,1,2.2,2s-0.6,2-2.2,2h-1V150.2z M33.1,146.9h1.1c0.6,0,1.1-0.5,1.1-1.1
				c0-0.6-0.5-1.1-1.1-1.1h-1.1V146.9z"/>
		</g>
		<g>
			<path class="st1" d="M36.8,147c0-1.8,0.4-3.3,2.5-3.3s2.5,1.5,2.5,3.3s-0.4,3.3-2.5,3.3S36.8,148.8,36.8,147z M37.8,147
				c0,1.5,0.3,2.4,1.5,2.4s1.5-0.9,1.5-2.4s-0.3-2.4-1.5-2.4S37.8,145.5,37.8,147L37.8,147z"/>
		</g>
		<g>
			<path class="st1" d="M43.4,150.2h-1v-6.4h2.1c1.7,0,2.2,0.7,2.2,1.9c0.1,0.7-0.3,1.4-1,1.7l1.3,2.8h-1.1l-1.2-2.6h-1.3V150.2z
				 M43.4,146.7h1.3c0.9,0,1-0.5,1-1s-0.1-1-1-1h-1.3V146.7z"/>
		</g>
		<g>
			<path class="st1" d="M49.5,144.7v5.5h-1v-5.5h-1.7v-0.9h4.3v0.9H49.5z"/>
		</g>
		<g>
			<path class="st1" d="M57.1,148.3c0,1.2-0.7,2-2.4,2c-0.6,0-1.3-0.1-1.9-0.3v-1c0.6,0.3,1.2,0.4,1.8,0.4c1.2,0,1.5-0.5,1.5-1.1
				s-0.3-0.9-1.2-1c-1.6-0.2-2.2-0.6-2.2-1.8c0-0.9,0.5-1.9,2.3-1.9c0.6,0,1.2,0.1,1.7,0.3v1c-0.5-0.2-1.1-0.3-1.7-0.3
				c-1,0-1.3,0.4-1.3,1s0.4,0.8,1.2,0.9C56.3,146.7,57.1,147,57.1,148.3z"/>
		</g>
		<g>
			<path class="st1" d="M60.3,147.6v2.6h-1v-2.6l-2.2-3.8h1.1l1.6,3l1.6-3h1.1L60.3,147.6z"/>
		</g>
		<g>
			<path class="st1" d="M66.9,148.3c0,1.2-0.7,2-2.4,2c-0.6,0-1.3-0.1-1.9-0.4v-1c0.6,0.3,1.2,0.4,1.8,0.4c1.2,0,1.5-0.5,1.5-1.1
				s-0.3-0.9-1.2-1c-1.5-0.2-2.2-0.6-2.2-1.8c0-0.9,0.5-1.9,2.3-1.9c0.6,0,1.2,0.1,1.7,0.3v1c-0.5-0.2-1.1-0.3-1.7-0.3
				c-1,0-1.3,0.4-1.3,1s0.4,0.8,1.2,0.9C66.2,146.7,66.9,147,66.9,148.3z"/>
		</g>
		<g>
			<path class="st1" d="M69.7,144.7v5.5h-1v-5.5h-1.6v-0.9h4.3v0.9H69.7z"/>
		</g>
		<g>
			<path class="st1" d="M75.6,147.3h-2.7v2h2.9v0.9H72v-6.4h3.9v0.9h-2.9v1.8h2.7V147.3z"/>
		</g>
		<g>
			<path class="st1" d="M80.1,149.3h-0.9l-1.6-3.9v4.8h-1v-6.4h1.2l1.7,4.4l1.7-4.4h1.3v6.4h-1v-4.8L80.1,149.3z"/>
		</g>
		<g>
			<path class="st1" d="M87.7,148.3c0,1.2-0.7,2-2.4,2c-0.6,0-1.3-0.1-1.9-0.4v-1c0.6,0.3,1.2,0.4,1.8,0.4c1.2,0,1.5-0.5,1.5-1.1
				s-0.3-0.9-1.2-1c-1.6-0.2-2.2-0.6-2.2-1.8c0-0.9,0.5-1.9,2.3-1.9c0.6,0,1.2,0.1,1.7,0.3v1c-0.5-0.2-1.1-0.3-1.7-0.3
				c-1,0-1.3,0.4-1.3,1s0.4,0.8,1.2,0.9C87,146.7,87.7,147,87.7,148.3z"/>
		</g>
	</g>
	<g>
		<rect x="3.3" y="24" class="st1" width="94.8" height="94.8"/>
	</g>
	<g>
		<path class="st1" d="M98.2,20.7H3.3V3.3h94.8V20.7z M4.3,19.7h92.8V4.3H4.3L4.3,19.7z"/>
	</g>
	<g class="st2">
		<path class="st1" d="M6.7,6.9h4.5v1.4H9.9v8.8H8.1V8.3H6.7V6.9z"/>
	</g>
	<g class="st2">
		<path class="st1" d="M11.2,17.1l1.9-10.2h1.9L17,17.1h-1.8l-0.3-1.9h-1.8l-0.3,1.9H11.2z M13.3,13.9h1.4L14,9.8h0L13.3,13.9z"/>
	</g>
	<g class="st2">
		<path class="st1" d="M19.6,12.4v4.7h-1.7V6.9h2.5c1.7,0,2.4,0.9,2.4,2.3v1.3c0,1.1-0.4,1.7-1.4,2l1.6,4.6h-1.8L19.6,12.4z
			 M19.6,8.3v3.2h0.6c0.6,0,0.8-0.3,0.8-0.8V9.2c0-0.6-0.3-0.8-0.8-0.8H19.6z"/>
	</g>
	<g class="st2">
		<path class="st1" d="M26.4,11.7h2.4v5.4h-1.2V16c-0.2,0.8-0.7,1.2-1.6,1.2c-1.5,0-2.1-1.2-2.1-2.7V9.6c0-1.6,0.8-2.7,2.6-2.7
			c1.9,0,2.4,1.1,2.4,2.6v0.9h-1.6v-1c0-0.6-0.2-1-0.9-1c-0.6,0-0.9,0.4-0.9,1v5.5c0,0.6,0.3,1,0.8,1c0.6,0,0.8-0.3,0.8-1V13h-0.8
			V11.7z"/>
	</g>
	<g class="st2">
		<path class="st1" d="M30.2,6.9h4.1v1.4h-2.4v2.9h1.7v1.4h-1.7v3.1h2.4v1.4h-4.1V6.9z"/>
	</g>
	<g class="st2">
		<path class="st1" d="M35.1,6.9h4.5v1.4h-1.4v8.8h-1.7V8.3h-1.4V6.9z"/>
	</g>
	<g class="st2">
		<path class="st1" d="M79.9,6.9v10.2h-1.7V9.3h0L77,10.6h0V8.8l1.6-1.8H79.9z"/>
	</g>
	<g class="st2">
		<path class="st1" d="M84,6.9v10.2h-1.7V9.3h0l-1.2,1.2h0V8.8l1.6-1.8H84z"/>
	</g>
	<g class="st2">
	</g>
	<g class="st2">
		<path class="st1" d="M87.1,10.8c0.7,0,1.2,0.6,1.2,1.2c0,0.7-0.6,1.2-1.2,1.2c-0.7,0-1.2-0.6-1.2-1.2
			C85.8,11.4,86.4,10.8,87.1,10.8z"/>
	</g>
	<g class="st2">
		<path class="st1" d="M89.8,15.2c0-1,0.3-1.7,1.3-2.7l1-1c0.6-0.6,0.6-0.9,0.6-1.8V9c0-0.6-0.3-0.8-0.6-0.8c-0.4,0-0.7,0.2-0.7,0.8
			v1.3h-1.6V9c0-1.4,0.8-2.2,2.3-2.2c1.5,0,2.2,0.7,2.2,2.1v1c0,1-0.2,1.6-1.1,2.6l-1.1,1.2c-0.4,0.5-0.7,0.8-0.7,1.6v0.5h2.8v1.4
			h-4.4V15.2z"/>
	</g>
	<g>
		<path class="st1" d="M98.2,153.8H3.3v-31.6h94.8V153.8z M4.3,152.8h92.8v-29.6H4.3L4.3,152.8z"/>
	</g>
	<g>
		<g>
			<g>
				<path class="st0" d="M76.3,79.1h3.4c0.6,0,1-0.4,1-1s-0.4-1-1-1h-8.1c-0.6,0-1,0.4-1,1s0.4,1,1,1h2.6L72.8,85h-3.9
					c0,0-8.6,0-18.1,13.5c-3.2,4.1,3.3,4.1,3.3,4.1h37.2v-10h-8c-0.5,0-0.8-0.4-0.8-0.8l0,0v-2.4c0-0.5,0.4-0.8,0.8-0.8l0,0h8V85
					H74.9L76.3,79.1z M68.9,89.1c0,0-1.1,2.2-1.4,2.9s-0.6,0.6-0.6,0.6h-6.5c-1.5,0-1.4-0.1-1-0.6c1.2-1.5,2.8-2.7,4.5-3.5h4.6
					C68.9,88.4,69,88.7,68.9,89.1L68.9,89.1z M75.4,88.5h4.1c0.5,0,0.8,0.4,0.8,0.8l0,0v9.6c0,0.5-0.4,0.8-0.8,0.8h-4.1
					c-0.5,0-0.8-0.4-0.8-0.8v-9.6C74.5,88.8,74.9,88.4,75.4,88.5L75.4,88.5L75.4,88.5z"/>
			</g>
			<g>
				<path class="st0" d="M38.1,91.1c-0.8,0-1.6,0.2-2.3,0.5l-1.3-2.1l1-1.8l1.2,0.1c0.5,0,0.7-0.1,0.7-0.5v-0.3
					c0-0.3-0.2-0.6-0.5-0.6c0,0-0.1,0-0.1,0h-4.3c-0.2,0-0.3,0.1-0.3,0.3c0,0,0,0,0,0V87c0,0.2,0.1,0.3,0.3,0.3l1.3,0.1l-0.5,1
					l-7.7-0.8l0-1.2c0-0.3-0.2-0.5-0.4-0.7l-2.3-1.3l0,0c-0.1-0.1-0.3-0.1-0.4-0.1c-0.4,0-0.8,0.4-0.8,0.8c0,0,0,0,0,0
					c0,0.3,0.2,0.6,0.4,0.7l0,0l1.9,1.1v1l0,0l-1.5,3.3c-0.6-0.2-1.2-0.3-1.8-0.3c-3.2,0-5.8,2.6-5.8,5.8s2.6,5.8,5.8,5.8
					c3.2,0,5.8-2.6,5.8-5.8c0-1.9-0.9-3.7-2.5-4.8l0.9-1.9l4.3,7c0.1,0.2,0.4,0.4,0.7,0.4l2.7,0.1c0.4,3.2,3.3,5.4,6.4,5.1
					c3.2-0.4,5.4-3.3,5.1-6.4c-0.4-2.9-2.8-5.1-5.8-5.1L38.1,91.1z M24.8,96.7c0,2.3-1.9,4.2-4.2,4.2c-2.3,0-4.2-1.9-4.2-4.2
					s1.9-4.2,4.2-4.2c0,0,0,0,0,0c0.4,0,0.7,0.1,1.1,0.2L20,96.4l0,0c0,0.1-0.1,0.2-0.1,0.3c0,0.4,0.4,0.8,0.8,0.8
					c0.3,0,0.6-0.2,0.7-0.5l0,0l0,0l0,0l1.7-3.6C24.1,94.2,24.7,95.5,24.8,96.7z M34.4,92.4c-1.1,0.9-1.8,2.1-2,3.5l-1.4,0l2.6-4.8
					L34.4,92.4z M35.3,93.8l1.4,2.2H34C34.2,95.2,34.6,94.4,35.3,93.8z M32.3,90l-2.7,5l-3.5-5.7L32.3,90z M38.1,101.1
					c-2,0-3.8-1.5-4.1-3.5l4.1,0.1l0,0c0.4,0,0.8-0.4,0.8-0.8c0-0.2,0-0.3-0.1-0.4L36.6,93c2.2-0.8,4.6,0.2,5.4,2.4
					c0.8,2.2-0.2,4.6-2.4,5.4C39.2,101,38.6,101.1,38.1,101.1L38.1,101.1z"/>
			</g>
			<g>
				<path class="st0" d="M10.7,105.1h80c0.3,0,0.6,0.3,0.6,0.6v3.6c0,0.3-0.3,0.6-0.6,0.6h-80c-0.3,0-0.6-0.3-0.6-0.6v-3.6
					C10.1,105.4,10.4,105.1,10.7,105.1z"/>
			</g>
		</g>
		<g>
			<g>
				<g>
					<path class="st0" d="M45.4,49.2l-2.1-9.4c0-0.5-0.5-0.9-1-0.9l-15.7,0.1h-8.7h-7.6v2.9h6.4c0.4,0,0.8,0.3,0.8,0.8V48
						c0,0.4-0.3,0.8-0.8,0.8h-6.4v10.8h12.3c-0.1-0.4-0.1-0.7-0.1-1.1l0,0c0.2-2.5,2.3-4.4,4.8-4.2c2.3,0.2,4,1.9,4.2,4.2l0,0
						c0,0.4,0,0.8-0.1,1.1H44c0.8,0,1.4-0.6,1.4-1.4c0,0,0-0.1,0-0.1v-3.5L45.4,49.2L45.4,49.2z M31.5,48c0,0.4-0.3,0.8-0.8,0.8
						c0,0,0,0,0,0H20.2c-0.4,0-0.8-0.3-0.8-0.8v-5.4c0-0.4,0.4-0.8,0.8-0.8h10.5c0.4,0,0.8,0.3,0.8,0.8l0,0V48z M38.3,56.2
						c0,0.5-0.4,0.8-0.8,0.8h0h-3c-0.5,0-0.8-0.4-0.8-0.8V42.7c0-0.5,0.4-0.8,0.8-0.8h3c0.5,0,0.8,0.4,0.8,0.8v0V56.2z M43.5,52.4
						h-2.7c-0.3,0-0.5-0.2-0.5-0.5c0,0,0,0,0-0.1c0-0.9,0-9.6,0-9.6s-0.1-0.4,0.5-0.4h1.5l1.6,7.4v2.6C44,51.8,44,52.4,43.5,52.4
						L43.5,52.4z"/>
				</g>
				<g>
					<path class="st0" d="M26.9,54.7c-2,0-3.7,1.6-3.7,3.7c0,0,0,0,0,0l0,0c0,2,1.7,3.7,3.7,3.7l0,0c2,0,3.7-1.7,3.7-3.7l0,0
						C30.6,56.4,28.9,54.7,26.9,54.7z M26.9,60.3c-1.1,0-1.9-0.8-1.9-1.9c0-1.1,0.8-1.9,1.9-1.9s1.9,0.8,1.9,1.9c0,0,0,0,0,0
						C28.8,59.5,27.9,60.3,26.9,60.3C26.9,60.3,26.9,60.3,26.9,60.3z"/>
				</g>
			</g>
			<g>
				<path class="st0" d="M87.6,33.1H86c-0.1,0-0.1,0-0.1,0.1v0.8h-5.1V43h5.2v19c0,0.1,0,0.1,0.1,0.1c0,0,0,0,0,0h1.5
					c0.1,0,0.1,0,0.1-0.1c0,0,0,0,0,0V33.2C87.7,33.1,87.6,33.1,87.6,33.1z"/>
			</g>
			<g>
				<g>
					<path class="st0" d="M59,43.6c1.1,0,2-0.9,2-1.9c0-0.7-0.4-1.4-1-1.7c0.1-0.1,0.1-0.2,0.1-0.3c0-0.6-0.4-1-1-1s-1,0.4-1,1
						c0,0.1,0,0.2,0.1,0.3c-0.7,0.3-1.2,1-1.2,1.7C57,42.8,57.9,43.6,59,43.6z"/>
				</g>
				<g>
					<path class="st0" d="M64.6,50.7l-1.6-5.2c0,0-0.6-1.5-1.9-1.5h-4.2c-1.3,0-1.9,1.5-1.9,1.5l-1.6,5.2c0,0-0.2,0.8,0.4,1.1
						c0,0,0,0,0,0.1l-1.9,9.9c0,0.2,0.1,0.3,0.2,0.4l0,0c0.1,0,0.3-0.1,0.3-0.2l2-9.9c0,0,0-0.1,0-0.1c0.5-0.1,0.7-0.7,0.7-0.7
						l1.3-4.4c0,0,0.1-0.3,0.3-0.3s0.2,0.4,0.2,0.4l-2.3,8.2h2.1v5.9c0,0.6,0.5,1,1,1c0.6,0,1-0.5,1-1v-5.9h0.6v5.9c0,0.6,0.4,1,1,1
						s1-0.4,1-1v-5.9h2.1L61.2,47c0,0-0.1-0.4,0.2-0.4s0.3,0.3,0.3,0.3l1.3,4.4c0,0,0.2,0.9,1.1,0.7S64.6,50.7,64.6,50.7z"/>
				</g>
			</g>
			<g>
				<g>
					<path class="st0" d="M73.7,47.7c1,0,1.9-0.8,1.9-1.9S74.7,44,73.7,44s-1.9,0.8-1.9,1.9S72.6,47.7,73.7,47.7L73.7,47.7z"/>
				</g>
				<g>
					<path class="st0" d="M81.4,59.2l-0.8-1.5l0,0L78.8,54c-0.2-0.3-0.5-0.5-0.9-0.5h-2.7v-3.3c0-1-0.3-1.6-1-1.8
						c-0.4-0.1-0.8-0.1-1.2,0H73l0,0l-3.1,1h-0.1h-0.1l0,0c-0.2,0.1-0.3,0.2-0.3,0.4l-0.9,2.5c-0.1,0.4,0.1,0.8,0.5,1
						c0.4,0.1,0.8-0.1,1-0.5l0.8-2.2l1.2-0.4l0,0v3.5c0,0.8,0.3,1.6,1.1,1.8l0.2,0.1h0.4h3.9l1,2v0.1l0.4,0.7l0.4,0.7c0,0,0,0,0,0.1
						l0,0l0.4,0.8c0.3,0.5,0.8,0.7,1.3,0.4C81.4,60.1,81.6,59.7,81.4,59.2z"/>
				</g>
				<g>
					<path class="st0" d="M75.7,57c0,0.1,0,0.1,0,0.2c0,2.1-1.7,3.8-3.7,3.8c-2.1,0-3.8-1.7-3.8-3.7c0-0.9,0.3-1.7,0.8-2.4l-1-0.7
						c-1.7,2.1-1.4,5.3,0.8,7c2.1,1.7,5.3,1.4,7-0.8c0.7-0.9,1.1-2.1,1.1-3.2c0-0.1,0-0.1,0-0.2L75.7,57z"/>
				</g>
			</g>
			<g>
				<path class="st0" d="M10.7,64.5h80c0.3,0,0.6,0.3,0.6,0.6v3.6c0,0.3-0.3,0.6-0.6,0.6h-80c-0.3,0-0.6-0.3-0.6-0.6v-3.6
					C10.1,64.8,10.4,64.5,10.7,64.5z"/>
			</g>
		</g>
	</g>
</g>
</svg>
