<?xml version="1.0" encoding="utf-8"?>
<!-- Generator: Adobe Illustrator 22.0.1, SVG Export Plug-In . SVG Version: 6.00 Build 0)  -->
<svg version="1.1" id="Layer_1" xmlns="http://www.w3.org/2000/svg" xmlns:xlink="http://www.w3.org/1999/xlink" x="0px" y="0px"
	 viewBox="0 0 101.5 166" style="enable-background:new 0 0 101.5 166;" xml:space="preserve">
<style type="text/css">
	.st0{fill:#FFFFFF;}
	.st1{fill:#FD9D24;}
	.st2{enable-background:new    ;}
	.st3{fill:none;}
	.st4{fill:none;stroke:#FFFFFF;stroke-width:0;stroke-linecap:round;stroke-linejoin:round;}
</style>
<title>TARGET 1 B copy 7</title>
<g id="WHITE_BG">
	<g>
		<rect y="0" class="st0" width="101.5" height="166"/>
	</g>
</g>
<g>
	<g>
		<path class="st1" d="M11.1,130.3c0,1.2-0.7,2-2.4,2c-0.6,0-1.3-0.1-1.9-0.4V131c0.6,0.3,1.2,0.4,1.8,0.4c1.1,0,1.5-0.5,1.5-1.1
			s-0.3-0.9-1.2-1c-1.6-0.2-2.2-0.6-2.2-1.8c0-0.9,0.5-1.8,2.3-1.8c0.6,0,1.2,0.1,1.7,0.3v1c-0.5-0.2-1.1-0.3-1.7-0.3
			c-1,0-1.3,0.4-1.3,1c0,0.6,0.4,0.8,1.2,0.9C10.3,128.7,11.1,129,11.1,130.3z"/>
	</g>
	<g>
		<path class="st1" d="M13.9,126.7v5.5H13v-5.5h-1.7v-0.9h4.3v0.9H13.9z"/>
	</g>
	<g>
		<path class="st1" d="M17.2,132.2h-1v-6.4h2.1c1.6,0,2.2,0.7,2.2,1.9c0.1,0.7-0.3,1.4-1,1.7l1.3,2.8h-1.1l-1.2-2.6h-1.3V132.2z
			 M17.2,128.7h1.3c0.9,0,1-0.5,1-1s-0.1-1-1-1h-1.3V128.7z"/>
	</g>
	<g>
		<path class="st1" d="M21.2,129c0-1.8,0.4-3.3,2.5-3.3s2.5,1.5,2.5,3.3s-0.4,3.3-2.5,3.3S21.2,130.8,21.2,129z M22.2,129
			c0,1.5,0.3,2.4,1.5,2.4s1.5-0.9,1.5-2.4s-0.3-2.4-1.5-2.4S22.2,127.5,22.2,129L22.2,129z"/>
	</g>
	<g>
		<path class="st1" d="M30.6,132.2l-2.8-4.5v4.5h-0.9v-6.4h0.9l2.8,4.5v-4.5h1v6.4L30.6,132.2L30.6,132.2z"/>
	</g>
	<g>
		<path class="st1" d="M32.3,129c0-2,0.7-3.3,2.6-3.3c0.6,0,1.3,0.1,1.8,0.3v1c-0.5-0.2-1.1-0.4-1.7-0.4c-1.3,0-1.8,0.9-1.8,2.4
			s0.5,2.4,1.8,2.4c0.3,0,0.6,0,0.9-0.1v-1.7h-1.1v-0.9h2.1v3.2c-0.6,0.3-1.3,0.4-2,0.4C33,132.3,32.3,131,32.3,129z"/>
	</g>
	<g>
		<path class="st1" d="M42.9,132.2l-2.8-4.5v4.5h-0.9v-6.4h0.9l2.8,4.5v-4.5h0.9v6.4L42.9,132.2L42.9,132.2z"/>
	</g>
	<g>
		<path class="st1" d="M47.8,130.6h-2l-0.5,1.6h-1l2-6.4h1l2,6.4h-1L47.8,130.6z M46.8,127l-0.8,2.8h1.6L46.8,127z"/>
	</g>
	<g>
		<path class="st1" d="M51.3,126.7v5.5h-1v-5.5h-1.6v-0.9H53v0.9H51.3z"/>
	</g>
	<g>
		<path class="st1" d="M53.7,132.2v-6.4h1v6.4H53.7z"/>
	</g>
	<g>
		<path class="st1" d="M55.6,129c0-1.8,0.4-3.3,2.5-3.3s2.5,1.5,2.5,3.3s-0.4,3.3-2.5,3.3S55.6,130.8,55.6,129z M56.6,129
			c0,1.5,0.3,2.4,1.5,2.4s1.5-0.9,1.5-2.4s-0.3-2.4-1.5-2.4S56.6,127.5,56.6,129L56.6,129z"/>
	</g>
	<g>
		<path class="st1" d="M65.1,132.2l-2.8-4.5v4.5h-1v-6.4h0.9l2.8,4.5v-4.5h1v6.4L65.1,132.2L65.1,132.2z"/>
	</g>
	<g>
		<path class="st1" d="M70,130.6h-2l-0.4,1.6h-1l2-6.4h1l2,6.4h-1L70,130.6z M69,127l-0.8,2.8h1.6L69,127z"/>
	</g>
	<g>
		<path class="st1" d="M72.9,131.3h2.8v0.9H72v-6.4h1L72.9,131.3z"/>
	</g>
	<g>
		<path class="st1" d="M10.1,139.6h-2l-0.4,1.6h-1l2-6.4h1l2,6.4h-1L10.1,139.6z M9.1,136l-0.8,2.8h1.6L9.1,136z"/>
	</g>
	<g>
		<path class="st1" d="M15.8,141.2l-2.8-4.5v4.5h-0.9v-6.4H13l2.8,4.5v-4.5h0.9v6.4H15.8z"/>
	</g>
	<g>
		<path class="st1" d="M17.6,141.2v-6.4h1.9c2.1,0,2.7,1.4,2.7,3.2s-0.6,3.2-2.7,3.2H17.6z M18.6,140.3h1c1.3,0,1.7-0.9,1.7-2.3
			s-0.4-2.3-1.7-2.3h-1V140.3z"/>
	</g>
	<g>
		<path class="st1" d="M25.4,141.2h-1v-6.4h2.1c1.6,0,2.2,0.7,2.2,1.9c0.1,0.7-0.3,1.4-1,1.7l1.3,2.8h-1.1l-1.2-2.6h-1.3V141.2z
			 M25.4,137.7h1.2c0.9,0,1-0.5,1-1s-0.1-1-1-1h-1.2V137.7z"/>
	</g>
	<g>
		<path class="st1" d="M33.2,138.3h-2.7v2h2.9v0.9h-3.9v-6.4h3.9v0.9h-2.9v1.8h2.7V138.3z"/>
	</g>
	<g>
		<path class="st1" d="M34.2,138c0-2,0.7-3.3,2.6-3.3c0.6,0,1.3,0.1,1.8,0.3v1c-0.5-0.2-1.1-0.4-1.7-0.4c-1.3,0-1.8,0.9-1.8,2.4
			s0.5,2.4,1.8,2.4c0.3,0,0.6,0,0.9-0.1v-1.7h-1.1v-0.9h2.1v3.2c-0.6,0.3-1.3,0.4-2,0.4C35,141.3,34.2,140,34.2,138z"/>
	</g>
	<g>
		<path class="st1" d="M39.9,141.2v-6.4h1v6.4H39.9z"/>
	</g>
	<g>
		<path class="st1" d="M41.9,138c0-1.8,0.4-3.3,2.5-3.3s2.5,1.5,2.5,3.3s-0.4,3.3-2.5,3.3S41.9,139.8,41.9,138z M42.9,138
			c0,1.5,0.3,2.4,1.5,2.4s1.5-0.9,1.5-2.4s-0.3-2.4-1.5-2.4S42.8,136.5,42.9,138L42.9,138z"/>
	</g>
	<g>
		<path class="st1" d="M51.2,141.2l-2.8-4.5v4.5h-0.9v-6.4h0.9l2.8,4.5v-4.5h0.9v6.4H51.2z"/>
	</g>
	<g>
		<path class="st1" d="M56.1,139.6h-2l-0.5,1.6h-1l2-6.4h1l2,6.4h-1L56.1,139.6z M55.1,136l-0.8,2.8H56L55.1,136z"/>
	</g>
	<g>
		<path class="st1" d="M59.1,140.3h2.8v0.9h-3.7v-6.4h1L59.1,140.3z"/>
	</g>
	<g>
		<path class="st1" d="M6.9,150.2v-6.4h1.9c2.1,0,2.7,1.4,2.7,3.2s-0.6,3.2-2.7,3.2H6.9z M7.9,149.3h1c1.3,0,1.7-0.9,1.7-2.3
			s-0.4-2.3-1.7-2.3h-1L7.9,149.3z"/>
	</g>
	<g>
		<path class="st1" d="M15.8,147.3h-2.7v2H16v0.9h-3.9v-6.4H16v0.9h-2.9v1.8h2.7V147.3z"/>
	</g>
	<g>
		<path class="st1" d="M21.5,143.8l-2,6.4h-1l-2-6.4h1L19,149l1.5-5.2H21.5z"/>
	</g>
	<g>
		<path class="st1" d="M25.6,147.3H23v2h2.9v0.9H22v-6.4h3.9v0.9H23v1.8h2.6V147.3z"/>
	</g>
	<g>
		<path class="st1" d="M27.7,149.3h2.8v0.9h-3.7v-6.4h1L27.7,149.3z"/>
	</g>
	<g>
		<path class="st1" d="M30.5,147c0-1.8,0.4-3.3,2.5-3.3s2.5,1.5,2.5,3.3s-0.4,3.3-2.5,3.3S30.5,148.8,30.5,147z M31.5,147
			c0,1.5,0.3,2.4,1.5,2.4s1.5-0.9,1.5-2.4s-0.3-2.4-1.5-2.4S31.5,145.5,31.5,147L31.5,147z"/>
	</g>
	<g>
		<path class="st1" d="M37.1,150.2h-1v-6.4h2c1.6,0,2.2,0.9,2.2,2s-0.6,2-2.2,2H37L37.1,150.2z M37.1,146.9h1.1
			c0.6,0.1,1.2-0.4,1.2-1s-0.4-1.2-1-1.2c-0.1,0-0.1,0-0.2,0h-1.1V146.9z"/>
	</g>
	<g>
		<path class="st1" d="M44.2,149.3h-0.9l-1.6-3.9v4.8h-1v-6.4H42l1.7,4.3l1.7-4.3h1.2v6.4h-1v-4.8L44.2,149.3z"/>
	</g>
	<g>
		<path class="st1" d="M51.3,147.3h-2.7v2h2.9v0.9h-3.9v-6.4h3.9v0.9h-2.9v1.8h2.7V147.3z"/>
	</g>
	<g>
		<path class="st1" d="M56.1,150.2l-2.8-4.5v4.5h-0.9v-6.4h0.9l2.8,4.5v-4.5h1v6.4H56.1z"/>
	</g>
	<g>
		<path class="st1" d="M60.1,144.7v5.5h-1v-5.5h-1.6v-0.9h4.3v0.9H60.1z"/>
	</g>
	<g>
		<path class="st1" d="M7.8,159.2h-1v-6.4h2.1c1.6,0,2.2,0.9,2.2,2s-0.6,2-2.2,2H7.8V159.2z M7.8,155.9H9c0.6,0.1,1.2-0.4,1.2-1
			c0.1-0.6-0.4-1.2-1-1.2c-0.1,0-0.1,0-0.2,0H7.8V155.9z"/>
	</g>
	<g>
		<path class="st1" d="M12.6,158.3h2.8v0.9h-3.7v-6.4h1L12.6,158.3z"/>
	</g>
	<g>
		<path class="st1" d="M19.1,157.6H17l-0.5,1.6h-1l2-6.4h1l2,6.4h-1L19.1,157.6z M18.1,154l-0.8,2.8h1.6L18.1,154z"/>
	</g>
	<g>
		<path class="st1" d="M24.8,159.2l-2.8-4.5v4.5h-0.9v-6.4H22l2.8,4.5v-4.5h0.9v6.4H24.8z"/>
	</g>
	<g>
		<path class="st1" d="M30.3,159.2l-2.8-4.5v4.5h-1v-6.4h0.9l2.8,4.5v-4.5h0.9v6.4H30.3z"/>
	</g>
	<g>
		<path class="st1" d="M32.2,159.2v-6.4h1v6.4H32.2z"/>
	</g>
	<g>
		<path class="st1" d="M38,159.2l-2.8-4.5v4.5h-0.9v-6.4h0.9l2.8,4.5v-4.5h0.9v6.4H38z"/>
	</g>
	<g>
		<path class="st1" d="M39.6,156c0-2,0.7-3.3,2.6-3.3c0.6,0,1.3,0.1,1.8,0.3v1c-0.5-0.2-1.1-0.4-1.7-0.4c-1.3,0-1.8,0.9-1.8,2.4
			s0.5,2.4,1.8,2.4c0.3,0,0.6,0,0.9-0.1v-1.7h-1.1v-0.9h2.1v3.2c-0.6,0.3-1.3,0.4-2,0.4C40.3,159.3,39.6,158,39.6,156z"/>
	</g>
</g>
<g>
	<rect x="3.3" y="24" class="st1" width="94.8" height="94.8"/>
</g>
<g>
	<path class="st1" d="M98.2,20.7H3.3V3.3h94.8L98.2,20.7L98.2,20.7z M4.3,19.7h92.8V4.3H4.3V19.7z"/>
</g>
<g class="st2">
	<path class="st1" d="M6.7,6.9h4.5v1.4H9.9v8.8H8.1V8.3H6.7V6.9z"/>
</g>
<g class="st2">
	<path class="st1" d="M11.2,17.1l1.9-10.2H15l2,10.2h-1.8l-0.3-1.9h-1.8l-0.3,1.9H11.2z M13.3,13.9h1.4L14,9.8l0,0L13.3,13.9z"/>
</g>
<g class="st2">
	<path class="st1" d="M19.6,12.4v4.7h-1.7V6.9h2.5c1.7,0,2.4,0.9,2.4,2.3v1.3c0,1.1-0.4,1.7-1.4,2l1.6,4.6h-1.8L19.6,12.4z
		 M19.6,8.3v3.2h0.6c0.6,0,0.8-0.3,0.8-0.8V9.2c0-0.6-0.3-0.8-0.8-0.8L19.6,8.3L19.6,8.3z"/>
</g>
<g class="st2">
	<path class="st1" d="M26.4,11.7h2.4v5.4h-1.2V16c-0.2,0.8-0.7,1.2-1.6,1.2c-1.5,0-2.1-1.2-2.1-2.7V9.6c0-1.6,0.8-2.7,2.6-2.7
		c1.9,0,2.4,1.1,2.4,2.6v0.9h-1.6v-1c0-0.6-0.2-1-0.9-1c-0.6,0-0.9,0.4-0.9,1v5.5c0,0.6,0.3,1,0.8,1c0.6,0,0.8-0.3,0.8-1V13h-0.8
		v-1.3H26.4z"/>
</g>
<g class="st2">
	<path class="st1" d="M30.2,6.9h4.1v1.4h-2.4v2.9h1.7v1.4h-1.7v3.1h2.4v1.4h-4.1C30.2,17.1,30.2,6.9,30.2,6.9z"/>
</g>
<g class="st2">
	<path class="st1" d="M35.1,6.9h4.5v1.4h-1.4v8.8h-1.7V8.3h-1.4C35.1,8.3,35.1,6.9,35.1,6.9z"/>
</g>
<g class="st2">
	<path class="st1" d="M88.8,17.1l1.9-10.2h1.9l1.9,10.2h-1.8l-0.3-1.9h-1.8l-0.3,1.9H88.8z M90.9,13.9h1.4l-0.7-4.1l0,0L90.9,13.9z"
		/>
</g>
<g class="st2">
	<path class="st1" d="M78.9,6.9v10.2h-1.7V9.3l0,0L76,10.5l0,0V8.8L77.6,7L78.9,6.9L78.9,6.9z"/>
</g>
<g class="st2">
	<path class="st1" d="M82.9,6.9v10.2h-1.7V9.3l0,0L80,10.5l0,0V8.8L81.6,7L82.9,6.9L82.9,6.9z"/>
</g>
<g>
	<polygon class="st1" points="85.4,9.9 85.4,14.1 87.6,12 	"/>
</g>
<g>
	<path class="st1" d="M98.2,162.9h-95v-40.7h95V162.9z M4.2,161.9h93v-38.7h-93C4.2,123.2,4.2,161.9,4.2,161.9z"/>
</g>
<g>
	<g>
		<g>
			<g>
				<g>
					<path class="st0" d="M61.7,51.1H38.1c-0.2,0-0.4,0.2-0.4,0.4v1c0,0.2,0.2,0.4,0.4,0.4h23.7c0.2,0,0.4-0.2,0.4-0.4v-1
						C62.2,51.3,62,51.1,61.7,51.1z"/>
				</g>
				<g>
					<path class="st0" d="M61.7,68.9H38.1c-0.2,0-0.4,0.2-0.4,0.4v1.9c0,0.2,0.2,0.4,0.4,0.4h23.7c0.2,0,0.4-0.2,0.4-0.4v-1.9
						C62.2,69.1,62,68.9,61.7,68.9z"/>
				</g>
				<g>
					<path class="st0" d="M62.1,49.4c-1.3-5.6-6.2-9.7-12.2-9.7c-6,0-10.9,4.2-12.2,9.7c0,0,0,0.1,0,0.2c0,0,0,0,0,0
						c0,0.2,0.2,0.3,0.4,0.4c0,0,0,0,0,0c0,0,0,0,0,0h23.5h0.1h0.1c0.2,0,0.4-0.2,0.4-0.4L62.1,49.4z"/>
				</g>
				<g>
					<path class="st0" d="M61,54.2H38.9c-0.2,0-0.4,0.2-0.4,0.4v12.8c0,0.2,0.2,0.4,0.4,0.4H61c0.2,0,0.4-0.2,0.4-0.4V54.6
						C61.5,54.4,61.3,54.2,61,54.2z M45.6,66.1h-3.8V55.9h3.8V66.1z M52,66.1h-3.8V55.9H52V66.1z M58.4,66.1h-3.8V55.9h3.8V66.1z"/>
				</g>
				<g>
					<path class="st0" d="M49.9,38.1v-4.6H51c0,0,1.1-0.1,1.9,0.5c0.8,0.6,1.4,1.1,2.7,1.1h1.7v4.5h-1.8c0,0-1.2,0-2-0.7
						c-0.4-0.3-0.9-0.7-2.3-0.8C49.8,38,49.9,38.1,49.9,38.1z"/>
				</g>
			</g>
		</g>
		<g>
			<rect x="18.6" y="64.2" class="st3" width="3.7" height="3.8"/>
			<path class="st0" d="M32.3,60.5H15.5c-0.1,0-0.1,0.1-0.1,0.1v11.1c0,0.1,0.1,0.1,0.1,0.1h9.7v-7.4h4v7.4h3.1
				c0.1,0,0.1-0.1,0.1-0.1L32.3,60.5C32.4,60.5,32.3,60.5,32.3,60.5z M22.2,68h-3.7v-3.8h3.7V68z"/>
			<path class="st4" d="M14.4,59.6C14.3,59.6,14.3,59.6,14.4,59.6"/>
			<path class="st0" d="M24,51L24,51c-0.2-0.2-0.2-0.2-0.3-0.2s-0.2,0.1-0.2,0.1L23.3,51l-9,8.4c-0.1,0.1-0.1,0.1,0.1,0.2h19.1
				c0.1,0,0.1,0,0.1-0.1v-0.1L24,51z"/>
		</g>
		<path class="st0" d="M82.5,68.8v2.8c0,0.1,0,0.1,0.1,0.1h1.3c0.1,0,0.1,0,0.1-0.1l0,0v-2.8c2-0.4,3.4-2.2,3.3-4.2
			c0-2.5-1.9-6.6-4.2-6.6c-2.3,0-4.1,4.1-4.1,6.6C78.9,66.7,80.4,68.5,82.5,68.8z"/>
		<path class="st0" d="M75.6,41.2H75v-2c0.3-0.1,0.6-0.4,0.6-0.8c0-0.4-0.3-0.8-0.8-0.8c-0.4,0-0.8,0.3-0.8,0.8
			c0,0.3,0.2,0.6,0.6,0.8v2h-7.7c-0.1,0-0.2,0.1-0.2,0.2v30.1c0,0.1,0.1,0.2,0.2,0.2l0,0h8.8c0.1,0,0.2-0.1,0.2-0.2l0,0V41.4
			C75.8,41.3,75.7,41.2,75.6,41.2z M70.4,68.2c0,0.1-0.1,0.1-0.1,0.1h-2c-0.1,0-0.1-0.1-0.1-0.1V66c0-0.1,0.1-0.1,0.1-0.1h2
			c0.1,0,0.1,0.1,0.1,0.1V68.2z M70.4,63c0,0.1-0.1,0.1-0.1,0.1h-2c-0.1,0-0.1-0.1-0.1-0.1v-2.2c0-0.1,0.1-0.1,0.1-0.1h2
			c0.1,0,0.1,0.1,0.1,0.1V63z M70.4,57.9c0,0.1-0.1,0.1-0.1,0.1h-2c-0.1,0-0.1-0.1-0.1-0.1v-2.2c0-0.1,0.1-0.1,0.1-0.1h2
			c0.1,0,0.1,0.1,0.1,0.1V57.9z M70.4,52.7c0,0.1-0.1,0.1-0.1,0.1h-2c-0.1,0-0.1-0.1-0.1-0.1v-2.2c0-0.1,0.1-0.1,0.1-0.1h2
			c0.1,0,0.1,0.1,0.1,0.1V52.7z M70.4,47.6c0,0.1-0.1,0.1-0.1,0.1h-2c-0.1,0-0.1-0.1-0.1-0.1v-2.2c0-0.1,0.1-0.1,0.1-0.1h2
			c0.1,0,0.1,0.1,0.1,0.1V47.6z M74.3,68.2c0,0.1-0.1,0.1-0.1,0.1h-2c-0.1,0-0.1-0.1-0.1-0.1V66c0-0.1,0.1-0.1,0.1-0.1h2
			c0.1,0,0.1,0.1,0.1,0.1V68.2z M74.3,63c0,0.1-0.1,0.1-0.1,0.1h-2c-0.1,0-0.1-0.1-0.1-0.1v-2.2c0-0.1,0.1-0.1,0.1-0.1h2
			c0.1,0,0.1,0.1,0.1,0.1V63z M74.3,57.9c0,0.1-0.1,0.1-0.1,0.1h-2c-0.1,0-0.1-0.1-0.1-0.1v-2.2c0-0.1,0.1-0.1,0.1-0.1h2
			c0.1,0,0.1,0.1,0.1,0.1V57.9z M74.3,52.7c0,0.1-0.1,0.1-0.1,0.1h-2c-0.1,0-0.1-0.1-0.1-0.1v-2.2c0-0.1,0.1-0.1,0.1-0.1h2
			c0.1,0,0.1,0.1,0.1,0.1V52.7z M74.3,47.6c0,0.1-0.1,0.1-0.1,0.1h-2c-0.1,0-0.1-0.1-0.1-0.1v-2.2c0-0.1,0.1-0.1,0.1-0.1h2
			c0.1,0,0.1,0.1,0.1,0.1V47.6z"/>
	</g>
	<g>
		<g>
			<polygon class="st3" points="56.6,91.5 55.9,92.4 63.8,92.4 63.1,91.5 			"/>
			<path class="st0" d="M64.5,91.3c1-0.4,1.6-1.3,1.6-2.3l-0.6-8.4c0-1.4-1.1-2.5-2.5-2.5h-6.4c-1.4,0-2.5,1.1-2.5,2.5L53.5,89
				c0,1.1,0.7,2,1.6,2.3L53,94.1h1.6l0.6-0.8h9.3l0.6,0.8h1.6L64.5,91.3z M55.5,80.5c0-0.2,0.2-0.4,0.4-0.4h7.9
				c0.2,0,0.4,0.2,0.4,0.4l0.3,3.6c0,0.2-0.1,0.4-0.3,0.4h-8.6c-0.2,0-0.3-0.2-0.3-0.4L55.5,80.5z M55.1,88.1c0-0.6,0.5-1,1-1
				s1,0.5,1,1c0,0.6-0.5,1-1,1S55.1,88.7,55.1,88.1z M55.9,92.4l0.7-0.9h6.5l0.7,0.9H55.9z M63.5,89.2c-0.6,0-1-0.5-1-1
				c0-0.6,0.5-1,1-1c0.6,0,1,0.5,1,1C64.6,88.7,64.1,89.2,63.5,89.2z"/>
		</g>
		<g>
			<path class="st0" d="M50.5,80.4h-0.5h-0.5h-0.9l0,0c0-0.6,0.1-1-0.6-1H37.6c-0.7,0-0.6,0.5-0.6,1l0,0h-0.9h-0.5H35
				c-0.1,0-0.2,0.1-0.2,0.2v2.4c0,0.1,0.1,0.2,0.2,0.2h1.1c0.1,0,0.2-0.1,0.2-0.2v-1.6h0.6l-0.5,7.3v3.6h0.5c0,0,0,0,0,0v1.1
				c0,0.3,0.3,0.6,0.6,0.6H38c0.3,0,0.6-0.3,0.6-0.6v-1.1c0,0,0,0,0,0h8.3c0,0,0,0,0,0v1.1c0,0.3,0.3,0.6,0.6,0.6H48
				c0.3,0,0.6-0.3,0.6-0.6v-1.1c0,0,0,0,0,0h0.5v-3.6l-0.5-7.3h0.6v1.6c0,0.1,0.1,0.2,0.2,0.2h1.1c0.1,0,0.2-0.1,0.2-0.2v-2.4
				C50.6,80.4,50.5,80.4,50.5,80.4z M38.3,81.1c0-0.3,0.3-0.5,0.6-0.5h7.7c0.3,0,0.6,0.2,0.6,0.5l0.6,5.7c0,0.3-0.3,0.5-0.6,0.5
				h-8.8c-0.3,0-0.6-0.2-0.6-0.5L38.3,81.1z M38.7,91c-0.6,0-1-0.4-1-1c0-0.6,0.4-1,1-1c0.6,0,1,0.4,1,1C39.7,90.6,39.2,91,38.7,91z
				 M44.8,91h-4.1v-0.6h4.1V91z M44.8,89.7h-4.1v-0.6h4.1V89.7z M46.8,91c-0.6,0-1-0.4-1-1c0-0.6,0.4-1,1-1c0.6,0,1,0.4,1,1
				C47.8,90.6,47.4,91,46.8,91z"/>
		</g>
	</g>
	<g>
		<rect x="61.3" y="103.7" class="st0" width="2.4" height="2"/>
		<rect x="66.1" y="103.7" class="st0" width="2.4" height="2"/>
		<rect x="56.4" y="103.7" class="st0" width="2.4" height="2"/>
		<rect x="71" y="103.7" class="st0" width="2.4" height="2"/>
		<rect x="75.8" y="103.7" class="st0" width="2.4" height="2"/>
		<circle class="st1" cx="17.7" cy="104.7" r="2"/>
		<path class="st1" d="M52.7,104.7c0-1.1-0.9-2-2-2c-1.1,0-2,0.9-2,2s0.9,2,2,2C51.8,106.6,52.7,105.7,52.7,104.7z"/>
		<path class="st0" d="M50.7,100.6c-1.9,0-3.5,1.3-3.9,3.1H21.6c-0.4-1.7-2-3.1-3.9-3.1c-2.2,0-4.1,1.8-4.1,4.1
			c0,2.2,1.8,4.1,4.1,4.1c1.9,0,3.5-1.3,3.9-3.1h25.2c0.4,1.7,2,3.1,3.9,3.1c2.2,0,4.1-1.8,4.1-4.1C54.8,102.4,53,100.6,50.7,100.6z
			 M17.7,106.6c-1.1,0-2-0.9-2-2s0.9-2,2-2c1.1,0,2,0.9,2,2S18.8,106.6,17.7,106.6z M50.7,106.6c-1.1,0-2-0.9-2-2s0.9-2,2-2
			c1.1,0,2,0.9,2,2S51.8,106.6,50.7,106.6z"/>
		<circle class="st1" cx="83.8" cy="104.7" r="2"/>
		<path class="st0" d="M83.8,100.6c-2.2,0-4.1,1.8-4.1,4.1c0,2.2,1.8,4.1,4.1,4.1c2.2,0,4.1-1.8,4.1-4.1
			C87.8,102.4,86,100.6,83.8,100.6z M83.8,106.6c-1.1,0-2-0.9-2-2s0.9-2,2-2c1.1,0,2,0.9,2,2S84.9,106.6,83.8,106.6z"/>
	</g>
</g>
</svg>
