<?xml version="1.0" encoding="utf-8"?>
<!-- Generator: Adobe Illustrator 22.0.1, SVG Export Plug-In . SVG Version: 6.00 Build 0)  -->
<svg version="1.1" id="Layer_1" xmlns="http://www.w3.org/2000/svg" xmlns:xlink="http://www.w3.org/1999/xlink" x="0px" y="0px"
	 viewBox="0 0 101.5 148.1" style="enable-background:new 0 0 101.5 148.1;" xml:space="preserve">
<style type="text/css">
	.st0{fill:#FFFFFF;}
	.st1{fill:#FD9D24;}
	.st2{enable-background:new    ;}
	.st3{fill:none;}
</style>
<title>TARGET 1.1</title>
<g id="WHITE_BG">
	<g>
		<rect y="0" class="st0" width="101.5" height="148.1"/>
	</g>
</g>
<g id="TARGETS">
	<g>
		<g>
			<path class="st1" d="M11.1,130.3c0,1.2-0.7,2-2.4,2c-0.6,0-1.3-0.1-1.9-0.3v-1c0.6,0.3,1.2,0.4,1.8,0.4c1.1,0,1.5-0.5,1.5-1.1
				s-0.3-0.9-1.2-1c-1.6-0.2-2.2-0.6-2.2-1.8c0-0.9,0.5-1.8,2.3-1.8c0.6,0,1.2,0.1,1.7,0.3v1c-0.5-0.2-1.1-0.3-1.7-0.3
				c-1,0-1.3,0.4-1.3,1s0.4,0.8,1.2,0.9C10.3,128.7,11.1,129,11.1,130.3z"/>
		</g>
		<g>
			<path class="st1" d="M14.8,130.6h-2l-0.5,1.6h-1l2-6.4h1l2,6.4h-1L14.8,130.6z M13.8,127l-0.8,2.8h1.6L13.8,127z"/>
		</g>
		<g>
			<path class="st1" d="M20.3,129.4h-2.6v2.8h-1v-6.4h3.8v0.9h-2.9v1.8h2.6V129.4z"/>
		</g>
		<g>
			<path class="st1" d="M24.9,129.3h-2.7v2h2.9v0.9h-3.9v-6.4h3.9v0.9h-2.9v1.8h2.7V129.3z"/>
		</g>
		<g>
			<path class="st1" d="M30.6,130.6h-2l-0.5,1.6h-1l2-6.4h1l2,6.4h-1L30.6,130.6z M29.6,127l-0.8,2.8h1.6L29.6,127z"/>
		</g>
		<g>
			<path class="st1" d="M36.3,132.2l-2.8-4.5v4.5h-0.9v-6.4h0.9l2.8,4.5v-4.5h0.9v6.4H36.3z"/>
		</g>
		<g>
			<path class="st1" d="M38.2,132.2v-6.4H40c2.1,0,2.7,1.4,2.7,3.2s-0.6,3.2-2.7,3.2H38.2z M39.2,131.3h1c1.3,0,1.7-0.9,1.7-2.3
				s-0.4-2.3-1.7-2.3h-1V131.3z"/>
		</g>
		<g>
			<path class="st1" d="M48.2,130.6h-2l-0.5,1.6h-1l2-6.4h1l2,6.4h-1L48.2,130.6z M47.2,127l-0.8,2.8H48L47.2,127z"/>
		</g>
		<g>
			<path class="st1" d="M53.7,129.4h-2.6v2.8h-1v-6.4H54v0.9h-2.9v1.8h2.6V129.4z"/>
		</g>
		<g>
			<path class="st1" d="M58.2,129.4h-2.6v2.8h-1v-6.4h3.8v0.9h-2.9v1.8h2.6V129.4z"/>
		</g>
		<g>
			<path class="st1" d="M59,129c0-1.8,0.4-3.3,2.5-3.3s2.5,1.5,2.5,3.3s-0.4,3.3-2.5,3.3S59,130.8,59,129z M60,129
				c0,1.5,0.3,2.4,1.5,2.4s1.5-0.9,1.5-2.4s-0.3-2.4-1.5-2.4S60,127.5,60,129z"/>
		</g>
		<g>
			<path class="st1" d="M65.8,132.2h-1v-6.4h2.1c1.7,0,2.2,0.7,2.2,1.9c0.1,0.7-0.3,1.4-1,1.7l1.3,2.8h-1.1l-1.2-2.6h-1.3V132.2z
				 M65.8,128.7H67c0.9,0,1-0.5,1-1s-0.1-1-1-1h-1.2V128.7z"/>
		</g>
		<g>
			<path class="st1" d="M70,132.2v-6.4h1.9c2.1,0,2.7,1.4,2.7,3.2s-0.6,3.2-2.7,3.2H70z M70.9,131.3h1c1.3,0,1.7-0.9,1.7-2.3
				s-0.4-2.3-1.7-2.3H71L70.9,131.3z"/>
		</g>
		<g>
			<path class="st1" d="M78.3,130.6h-2l-0.4,1.6h-1l2-6.4h1l2,6.4h-1L78.3,130.6z M77.3,127l-0.8,2.8h1.6L77.3,127z"/>
		</g>
		<g>
			<path class="st1" d="M80.3,125.8h2.1c1.6,0,2,0.8,2,1.8c0,0.5-0.3,1-0.8,1.3c0.6,0.2,1.1,0.8,1,1.5c0,1-0.5,1.9-2.2,1.9h-2.2
				V125.8z M82.5,126.7h-1.2v1.8h1.2c0.4,0.1,0.9-0.2,0.9-0.7c0-0.1,0-0.1,0-0.2C83.4,127.2,83.3,126.7,82.5,126.7z M81.2,131.3h1.3
				c0.9,0,1.1-0.5,1.1-1s-0.3-1-1.1-1h-1.3V131.3z"/>
		</g>
		<g>
			<path class="st1" d="M86.3,131.3h2.8v0.9h-3.7v-6.4h1L86.3,131.3z"/>
		</g>
		<g>
			<path class="st1" d="M93.2,129.3h-2.7v2h2.9v0.9h-3.9v-6.4h3.9v0.9h-2.9v1.8h2.7V129.3z"/>
		</g>
		<g>
			<path class="st1" d="M10.4,141.2v-2.9H7.8v2.9h-1v-6.4h1v2.6h2.6v-2.6h1v6.4H10.4z"/>
		</g>
		<g>
			<path class="st1" d="M12.2,138c0-1.8,0.4-3.3,2.5-3.3s2.5,1.5,2.5,3.3s-0.4,3.3-2.5,3.3S12.2,139.8,12.2,138z M13.2,138
				c0,1.5,0.3,2.4,1.5,2.4s1.5-0.9,1.5-2.4s-0.3-2.4-1.5-2.4S13.2,136.5,13.2,138L13.2,138z"/>
		</g>
		<g>
			<path class="st1" d="M18,139.2v-4.4h1v4.3c-0.1,0.7,0.4,1.2,1,1.3c0.1,0,0.2,0,0.3,0c0.6,0.1,1.2-0.3,1.4-1c0-0.1,0-0.2,0-0.3
				v-4.3h1v4.4c0,1.1-0.8,2.1-2,2.1c-0.1,0-0.2,0-0.3,0c-1.1,0.2-2.2-0.6-2.3-1.7C18,139.5,18,139.3,18,139.2z"/>
		</g>
		<g>
			<path class="st1" d="M27.7,139.3c0,1.2-0.7,2-2.4,2c-0.6,0-1.3-0.1-1.9-0.4v-1c0.6,0.3,1.2,0.4,1.8,0.4c1.1,0,1.5-0.5,1.5-1.1
				s-0.3-0.9-1.1-1c-1.6-0.2-2.2-0.6-2.2-1.8c0-0.9,0.5-1.9,2.3-1.9c0.6,0,1.2,0.1,1.7,0.3v1c-0.5-0.2-1.1-0.3-1.7-0.3
				c-1,0-1.3,0.4-1.3,1s0.4,0.8,1.2,0.9C26.9,137.7,27.7,138,27.7,139.3z"/>
		</g>
		<g>
			<path class="st1" d="M28.6,141.2v-6.4h1v6.4H28.6z"/>
		</g>
		<g>
			<path class="st1" d="M34.3,141.2l-2.8-4.5v4.5h-1v-6.4h0.9l2.8,4.5v-4.5h0.9v6.4H34.3z"/>
		</g>
		<g>
			<path class="st1" d="M36.1,138c0-2,0.7-3.3,2.6-3.3c0.6,0,1.3,0.1,1.8,0.3v1c-0.5-0.2-1.1-0.4-1.7-0.4c-1.3,0-1.8,0.9-1.8,2.4
				s0.5,2.4,1.8,2.4c0.3,0,0.6,0,0.9-0.1v-1.7h-1.1v-0.9h2.1v3.2c-0.6,0.3-1.3,0.4-2,0.4C36.8,141.3,36.1,140,36.1,138z"/>
		</g>
	</g>
	<g>
		<rect x="3.3" y="24" class="st1" width="94.8" height="94.8"/>
	</g>
	<g>
		<path class="st1" d="M98.2,20.7H3.3V3.3h94.8V20.7z M4.3,19.7h92.8V4.3H4.3L4.3,19.7z"/>
	</g>
	<g class="st2">
		<path class="st1" d="M6.7,6.9h4.5v1.4H9.9v8.8H8.1V8.3H6.7V6.9z"/>
	</g>
	<g class="st2">
		<path class="st1" d="M11.2,17.1l1.9-10.2h1.9L17,17.1h-1.8l-0.3-1.9h-1.8l-0.3,1.9H11.2z M13.3,13.9h1.4L14,9.8h0L13.3,13.9z"/>
	</g>
	<g class="st2">
		<path class="st1" d="M19.6,12.4v4.7h-1.7V6.9h2.5c1.7,0,2.4,0.9,2.4,2.3v1.3c0,1.1-0.4,1.7-1.4,2l1.6,4.6h-1.8L19.6,12.4z
			 M19.6,8.3v3.2h0.6c0.6,0,0.8-0.3,0.8-0.8V9.2c0-0.6-0.3-0.8-0.8-0.8H19.6z"/>
	</g>
	<g class="st2">
		<path class="st1" d="M26.4,11.7h2.4v5.4h-1.2V16c-0.2,0.8-0.7,1.2-1.6,1.2c-1.5,0-2.1-1.2-2.1-2.7V9.6c0-1.6,0.8-2.7,2.6-2.7
			c1.9,0,2.4,1.1,2.4,2.6v0.9h-1.6v-1c0-0.6-0.2-1-0.9-1c-0.6,0-0.9,0.4-0.9,1v5.5c0,0.6,0.3,1,0.8,1c0.6,0,0.8-0.3,0.8-1V13h-0.8
			V11.7z"/>
	</g>
	<g class="st2">
		<path class="st1" d="M30.2,6.9h4.1v1.4h-2.4v2.9h1.7v1.4h-1.7v3.1h2.4v1.4h-4.1V6.9z"/>
	</g>
	<g class="st2">
		<path class="st1" d="M35.1,6.9h4.5v1.4h-1.4v8.8h-1.7V8.3h-1.4V6.9z"/>
	</g>
	<g class="st2">
		<path class="st1" d="M81.4,6.9v10.2h-1.7V9.3h0l-1.2,1.2h0V8.8l1.6-1.8H81.4z"/>
	</g>
	<g class="st2">
		<path class="st1" d="M85.5,6.9v10.2h-1.7V9.3h0l-1.2,1.2h0V8.8l1.6-1.8H85.5z"/>
	</g>
	<g class="st2">
	</g>
	<g class="st2">
		<path class="st1" d="M88.6,10.8c0.7,0,1.2,0.6,1.2,1.2c0,0.7-0.6,1.2-1.2,1.2c-0.7,0-1.2-0.6-1.2-1.2
			C87.3,11.4,87.9,10.8,88.6,10.8z"/>
	</g>
	<g class="st2">
		<path class="st1" d="M94.1,6.9v10.2h-1.7V9.3h0l-1.2,1.2h0V8.8l1.6-1.8H94.1z"/>
	</g>
	<g>
		<path class="st1" d="M98.2,144.9h-95v-22.7h95V144.9z M4.2,143.9h93v-20.7h-93V143.9z"/>
	</g>
	<g>
		<g>
			<path class="st0" d="M58,35.2H38.4c-0.3,0-0.5,0.2-0.5,0.4c0,0,0,0,0,0.1v53.2c0,0.3,0.2,0.5,0.4,0.5c0,0,0,0,0.1,0h7.5v-9.1h4.9
				v9.1H58c0.3,0,0.5-0.2,0.5-0.4c0,0,0,0,0-0.1V35.7C58.5,35.4,58.3,35.2,58,35.2C58,35.2,58,35.2,58,35.2z M44.5,84.9
				c0,0.1-0.1,0.2-0.2,0.2h-4c-0.1,0-0.2-0.1-0.2-0.2v-4.4c0-0.1,0.1-0.2,0.2-0.2h4c0.1,0,0.2,0.1,0.2,0.2V84.9z M44.5,76.4
				c0,0.1-0.1,0.2-0.2,0.2h-4c-0.1,0-0.2-0.1-0.2-0.2V72c0-0.1,0.1-0.2,0.2-0.2h4c0.1,0,0.2,0.1,0.2,0.2V76.4z M44.5,68
				c0,0.1-0.1,0.2-0.2,0.2h-4c-0.1,0-0.2-0.1-0.2-0.2v-4.4c0-0.1,0.1-0.2,0.2-0.2h4c0.1,0,0.2,0.1,0.2,0.2V68z M44.5,59.5
				c0,0.1-0.1,0.2-0.2,0.2h-4c-0.1,0-0.2-0.1-0.2-0.2v-4.4c0-0.1,0.1-0.2,0.2-0.2h4c0.1,0,0.2,0.1,0.2,0.2V59.5z M44.5,51.1
				c0,0.1-0.1,0.2-0.2,0.2h-4c-0.1,0-0.2-0.1-0.2-0.2v-4.4c0-0.1,0.1-0.2,0.2-0.2h4c0.1,0,0.2,0.1,0.2,0.2V51.1z M44.5,42.6
				c0,0.1-0.1,0.2-0.2,0.2h-4c-0.1,0-0.2-0.1-0.2-0.2v-4.4c0-0.1,0.1-0.2,0.2-0.2h4c0.1,0,0.2,0.1,0.2,0.2V42.6z M50.6,76.5
				c0,0.1-0.1,0.2-0.2,0.2h-4c-0.1,0-0.2-0.1-0.2-0.2v-4.4c0-0.1,0.1-0.2,0.2-0.2h4c0.1,0,0.2,0.1,0.2,0.2V76.5z M50.6,68
				c0,0.1-0.1,0.2-0.2,0.2h-4c-0.1,0-0.2-0.1-0.2-0.2v-4.4c0-0.1,0.1-0.2,0.2-0.2h4c0.1,0,0.2,0.1,0.2,0.2V68z M50.6,59.5
				c0,0.1-0.1,0.2-0.2,0.2h-4c-0.1,0-0.2-0.1-0.2-0.2v-4.4c0-0.1,0.1-0.2,0.2-0.2h4c0.1,0,0.2,0.1,0.2,0.2V59.5z M50.6,51.1
				c0,0.1-0.1,0.2-0.2,0.2h-4c-0.1,0-0.2-0.1-0.2-0.2v-4.4c0-0.1,0.1-0.2,0.2-0.2h4c0.1,0,0.2,0.1,0.2,0.2V51.1z M50.6,42.6
				c0,0.1-0.1,0.2-0.2,0.2h-4c-0.1,0-0.2-0.1-0.2-0.2v-4.4c0-0.1,0.1-0.2,0.2-0.2h4c0.1,0,0.2,0.1,0.2,0.2V42.6z M56.7,84.9
				c0,0.1-0.1,0.2-0.2,0.2h-4c-0.1,0-0.2-0.1-0.2-0.2v-4.4c0-0.1,0.1-0.2,0.2-0.2h4c0.1,0,0.2,0.1,0.2,0.2V84.9z M56.7,76.5
				c0,0.1-0.1,0.2-0.2,0.2h-4c-0.1,0-0.2-0.1-0.2-0.2v-4.4c0-0.1,0.1-0.2,0.2-0.2h4c0.1,0,0.2,0.1,0.2,0.2V76.5z M56.7,68
				c0,0.1-0.1,0.2-0.2,0.2h-4c-0.1,0-0.2-0.1-0.2-0.2v-4.4c0-0.1,0.1-0.2,0.2-0.2h4c0.1,0,0.2,0.1,0.2,0.2V68z M56.7,59.5
				c0,0.1-0.1,0.2-0.2,0.2h-4c-0.1,0-0.2-0.1-0.2-0.2v-4.4c0-0.1,0.1-0.2,0.2-0.2h4c0.1,0,0.2,0.1,0.2,0.2V59.5z M56.7,51.1
				c0,0.1-0.1,0.2-0.2,0.2h-4c-0.1,0-0.2-0.1-0.2-0.2v-4.4c0-0.1,0.1-0.2,0.2-0.2h4c0.1,0,0.2,0.1,0.2,0.2V51.1z M56.7,42.6
				c0,0.1-0.1,0.2-0.2,0.2h-4c-0.1,0-0.2-0.1-0.2-0.2v-4.4c0-0.1,0.1-0.2,0.2-0.2h4c0.1,0,0.2,0.1,0.2,0.2V42.6z"/>
		</g>
		<g>
			<rect x="15.8" y="80" class="st3" width="4.5" height="4.6"/>
		</g>
		<g>
			<rect x="10.3" y="94.4" class="st0" width="18.8" height="5.6"/>
		</g>
		<g>
			<rect x="30.9" y="94.4" class="st0" width="18.8" height="5.6"/>
		</g>
		<g>
			<rect x="51.4" y="94.4" class="st0" width="18.8" height="5.6"/>
		</g>
		<g>
			<rect x="72" y="94.4" class="st0" width="18.8" height="5.6"/>
		</g>
		<g>
			<rect x="10.3" y="102.3" class="st0" width="80.5" height="5.6"/>
		</g>
		<g>
			<path class="st0" d="M32.7,89.4C32.7,89.4,32.8,89.3,32.7,89.4l0.1-13.6c0-0.1,0-0.1-0.1-0.1H12.2c-0.1,0-0.1,0-0.1,0.1v13.5
				c0,0.1,0,0.1,0.1,0.1H24v-9.1h4.9v9.1H32.7z M20.4,84.9h-4.5v-4.6h4.5V84.9z"/>
		</g>
		<g>
			<path class="st0" d="M10.8,74.6h23.3c0.1,0,0.1,0,0.1-0.1v-0.1L22.5,64.1L22.4,64c-0.1-0.1-0.2-0.1-0.3-0.1
				c-0.1,0-0.2,0.1-0.3,0.1l-0.1,0.1l-11,10.3C10.6,74.5,10.6,74.5,10.8,74.6z"/>
		</g>
		<g>
			<path class="st0" d="M85.4,85.8v3.5c0,0.1,0,0.1,0.1,0.1h1.6c0.1,0,0.1,0,0.1-0.1l0,0v-3.6c2.5-0.5,4.3-2.7,4.2-5.3
				c0-3.1-2.4-8.4-5.3-8.4s-5.2,5.2-5.2,8.4C80.7,83.1,82.7,85.4,85.4,85.8z"/>
		</g>
		<g>
			<path class="st0" d="M76,45.8h-0.9v-2.9c0.5-0.2,0.8-0.6,0.8-1.1c0-0.6-0.5-1.1-1.1-1.1c-0.6,0-1.1,0.5-1.1,1.1c0,0,0,0,0,0
				c0,0.5,0.3,0.9,0.8,1.1v2.9H63.4c-0.1,0-0.3,0.1-0.3,0.2c0,0,0,0,0,0.1v43.1c0,0.1,0.1,0.3,0.2,0.3c0,0,0,0,0.1,0H76
				c0.1,0,0.3-0.1,0.3-0.2c0,0,0,0,0-0.1l0,0V46.1C76.3,45.9,76.2,45.8,76,45.8C76,45.8,76,45.8,76,45.8z M68.5,84.5
				c0,0.1-0.1,0.2-0.2,0.2h-2.8c-0.1,0-0.2-0.1-0.2-0.2v-3.1c0-0.1,0.1-0.2,0.2-0.2h2.8c0.1,0,0.2,0.1,0.2,0.2V84.5z M68.5,77.1
				c0,0.1-0.1,0.2-0.2,0.2h-2.8c-0.1,0-0.2-0.1-0.2-0.2V74c0-0.1,0.1-0.2,0.2-0.2h2.8c0.1,0,0.2,0.1,0.2,0.2V77.1z M68.5,69.7
				c0,0.1-0.1,0.2-0.2,0.2h-2.8c-0.1,0-0.2-0.1-0.2-0.2v-3.1c0-0.1,0.1-0.2,0.2-0.2h2.8c0.1,0,0.2,0.1,0.2,0.2V69.7z M68.5,62.3
				c0,0.1-0.1,0.2-0.2,0.2h-2.8c-0.1,0-0.2-0.1-0.2-0.2v-3.1c0-0.1,0.1-0.2,0.2-0.2h2.8c0.1,0,0.2,0.1,0.2,0.2V62.3z M68.5,55
				c0,0.1-0.1,0.2-0.2,0.2h-2.8c-0.1,0-0.2-0.1-0.2-0.2v-3.1c0-0.1,0.1-0.2,0.2-0.2h2.8c0.1,0,0.2,0.1,0.2,0.2V55z M74.2,84.5
				c0,0.1-0.1,0.2-0.2,0.2h-2.8c-0.1,0-0.2-0.1-0.2-0.2v-3.1c0-0.1,0.1-0.2,0.2-0.2H74c0.1,0,0.2,0.1,0.2,0.2V84.5z M74.2,77.1
				c0,0.1-0.1,0.2-0.2,0.2h-2.8c-0.1,0-0.2-0.1-0.2-0.2V74c0-0.1,0.1-0.2,0.2-0.2H74c0.1,0,0.2,0.1,0.2,0.2V77.1z M74.2,69.7
				c0,0.1-0.1,0.2-0.2,0.2h-2.8c-0.1,0-0.2-0.1-0.2-0.2v-3.1c0-0.1,0.1-0.2,0.2-0.2H74c0.1,0,0.2,0.1,0.2,0.2V69.7z M74.2,62.3
				c0,0.1-0.1,0.2-0.2,0.2h-2.8c-0.1,0-0.2-0.1-0.2-0.2v-3.1c0-0.1,0.1-0.2,0.2-0.2H74c0.1,0,0.2,0.1,0.2,0.2V62.3z M74.2,55
				c0,0.1-0.1,0.2-0.2,0.2h-2.8c-0.1,0-0.2-0.1-0.2-0.2v-3.1c0-0.1,0.1-0.2,0.2-0.2H74c0.1,0,0.2,0.1,0.2,0.2V55z"/>
		</g>
	</g>
</g>
</svg>
