<?xml version="1.0" encoding="utf-8"?>
<!-- Generator: Adobe Illustrator 22.0.1, SVG Export Plug-In . SVG Version: 6.00 Build 0)  -->
<svg version="1.1" id="Layer_1" xmlns="http://www.w3.org/2000/svg" xmlns:xlink="http://www.w3.org/1999/xlink" x="0px" y="0px"
	 viewBox="0 0 101.5 157.5" style="enable-background:new 0 0 101.5 157.5;" xml:space="preserve">
<style type="text/css">
	.st0{fill:#FFFFFF;}
	.st1{fill:#FD9D24;}
	.st2{enable-background:new    ;}
</style>
<title>TARGET 1 B copy 5</title>
<g id="WHITE_BG">
	<g>
		<rect y="0" class="st0" width="101.5" height="157.4"/>
	</g>
</g>
<g id="TARGETS">
	<g>
		<g>
			<path class="st1" d="M7.8,132.2h-1v-6.4H9c1.6,0,2.2,0.7,2.2,1.9c0.1,0.7-0.3,1.4-1,1.7l1.3,2.8h-1.2l-1.1-2.6H7.8V132.2z
				 M7.8,128.7h1.3c0.9,0,1-0.5,1-1s-0.1-1-1-1H7.8V128.7z"/>
		</g>
		<g>
			<path class="st1" d="M15.7,129.3H13v2h3v0.9h-3.9v-6.4H16v0.9h-3v1.8h2.7L15.7,129.3z"/>
		</g>
		<g>
			<path class="st1" d="M16.8,132.2v-6.4h1.9c2.1,0,2.7,1.4,2.7,3.2s-0.6,3.2-2.7,3.2L16.8,132.2z M17.8,131.3h1
				c1.3,0,1.7-0.9,1.7-2.3s-0.4-2.3-1.7-2.3h-1V131.3z"/>
		</g>
		<g>
			<path class="st1" d="M22.1,130.2v-4.4H23v4.3c-0.1,0.7,0.4,1.2,1,1.3c0.1,0,0.2,0,0.3,0c0.6,0.1,1.3-0.3,1.4-1c0-0.1,0-0.2,0-0.3
				v-4.3h1v4.4c0.1,1.1-0.8,2.1-1.9,2.1c-0.1,0-0.3,0-0.4,0c-1.1,0.2-2.1-0.5-2.3-1.6C22.1,130.5,22.1,130.4,22.1,130.2z"/>
		</g>
		<g>
			<path class="st1" d="M30,125.7c0.5,0,1,0.1,1.5,0.3v0.9c-0.4-0.2-0.9-0.3-1.4-0.3c-1.2,0-1.7,0.8-1.7,2.4s0.5,2.4,1.7,2.4
				c0.5,0,1-0.1,1.4-0.3v0.9c-0.5,0.2-1,0.3-1.5,0.3c-1.9,0-2.6-1.2-2.6-3.3S28.1,125.7,30,125.7z"/>
		</g>
		<g>
			<path class="st1" d="M35.9,129.3h-2.7v2h2.9v0.9h-3.9v-6.4h3.9v0.9h-2.9v1.8h2.7V129.3z"/>
		</g>
		<g>
			<path class="st1" d="M40.4,126.7v5.5h-1v-5.5h-1.6v-0.9h4.3v0.9H40.4z"/>
		</g>
		<g>
			<path class="st1" d="M46.1,132.2v-2.9h-2.6v2.9h-1v-6.4h1v2.6h2.6v-2.6h1v6.4H46.1z"/>
		</g>
		<g>
			<path class="st1" d="M51.6,129.3H49v2h2.9v0.9H48v-6.4h3.9v0.9H49v1.8h2.7L51.6,129.3z"/>
		</g>
		<g>
			<path class="st1" d="M10.5,138.3H7.8v2h2.9v0.9H6.9v-6.4h3.9v0.9H7.8v1.8h2.6V138.3z"/>
		</g>
		<g>
			<path class="st1" d="M15.3,141.2l-2.8-4.5v4.5h-0.9v-6.4h0.9l2.8,4.5v-4.5h0.9v6.4H15.3z"/>
		</g>
		<g>
			<path class="st1" d="M21.7,134.8l-2,6.4h-1l-2-6.4h1l1.5,5.2l1.5-5.2L21.7,134.8z"/>
		</g>
		<g>
			<path class="st1" d="M22.4,141.2v-6.4h1v6.4H22.4z"/>
		</g>
		<g>
			<path class="st1" d="M25.3,141.2h-1v-6.4h2.1c1.6,0,2.2,0.7,2.2,1.9c0.1,0.7-0.3,1.4-1,1.7l1.3,2.8h-1.2l-1.1-2.6h-1.3V141.2z
				 M25.3,137.7h1.3c0.9,0,1-0.5,1-1s-0.1-1-1-1h-1.3V137.7z"/>
		</g>
		<g>
			<path class="st1" d="M29.4,138c0-1.8,0.4-3.3,2.5-3.3s2.5,1.5,2.5,3.3s-0.4,3.3-2.5,3.3S29.4,139.8,29.4,138z M30.4,138
				c0,1.5,0.3,2.4,1.5,2.4c1.2,0,1.5-0.9,1.5-2.4s-0.3-2.4-1.5-2.4S30.4,136.5,30.4,138L30.4,138z"/>
		</g>
		<g>
			<path class="st1" d="M38.7,141.2l-2.8-4.5v4.5H35v-6.4h0.9l2.8,4.5v-4.5h0.9v6.4H38.7z"/>
		</g>
		<g>
			<path class="st1" d="M43.9,140.3H43l-1.6-3.9v4.8h-1v-6.4h1.2l1.7,4.3l1.7-4.3h1.2v6.4h-1v-4.8L43.9,140.3z"/>
		</g>
		<g>
			<path class="st1" d="M51,138.3h-2.7v2h2.9v0.9h-3.9v-6.4h3.9v0.9h-2.9v1.8H51V138.3z"/>
		</g>
		<g>
			<path class="st1" d="M55.8,141.2l-2.8-4.5v4.5h-0.9v-6.4H53l2.8,4.5v-4.5h1v6.4H55.8z"/>
		</g>
		<g>
			<path class="st1" d="M59.8,135.7v5.5h-1v-5.5h-1.7v-0.9h4.3v0.9H59.8z"/>
		</g>
		<g>
			<path class="st1" d="M64.5,139.6h-2l-0.5,1.6h-1l2-6.4h1l2,6.4h-1L64.5,139.6z M63.5,136l-0.8,2.8h1.6L63.5,136z"/>
		</g>
		<g>
			<path class="st1" d="M67.5,140.3h2.8v0.9h-3.7v-6.4h0.9V140.3z"/>
		</g>
		<g>
			<path class="st1" d="M7,150.2v-6.4h1v6.4H7z"/>
		</g>
		<g>
			<path class="st1" d="M12.5,149.3h-0.9l-1.6-3.9v4.8H9v-6.4h1.2l1.8,4.3l1.7-4.3H15v6.4h-1v-4.8L12.5,149.3z"/>
		</g>
		<g>
			<path class="st1" d="M16.9,150.2h-1v-6.4h2c1.6,0,2.2,0.9,2.2,2s-0.6,2-2.2,2h-1V150.2z M16.9,146.9H18c0.6,0.1,1.2-0.4,1.2-1
				s-0.4-1.2-1-1.2c-0.1,0-0.1,0-0.2,0h-1.1V146.9z"/>
		</g>
		<g>
			<path class="st1" d="M23.2,148.6h-2l-0.5,1.6h-1l2-6.4h1l2,6.4h-1L23.2,148.6z M22.2,145l-0.8,2.8H23L22.2,145z"/>
		</g>
		<g>
			<path class="st1" d="M27.5,143.7c0.5,0,1,0.1,1.5,0.3v0.9c-0.5-0.2-0.9-0.3-1.4-0.3c-1.2,0-1.7,0.8-1.7,2.4s0.5,2.4,1.7,2.4
				c0.5,0,1-0.1,1.4-0.3v0.9c-0.5,0.2-1,0.3-1.5,0.3c-1.9,0-2.6-1.2-2.6-3.3S25.7,143.7,27.5,143.7z"/>
		</g>
		<g>
			<path class="st1" d="M32,144.7v5.5h-1v-5.5h-1.6v-0.9h4.3v0.9H32z"/>
		</g>
		<g>
			<path class="st1" d="M35.3,147c0-1.8,0.4-3.3,2.5-3.3s2.5,1.5,2.5,3.3s-0.4,3.3-2.5,3.3S35.3,148.8,35.3,147z M36.3,147
				c0,1.5,0.3,2.4,1.5,2.4s1.5-0.9,1.5-2.4s-0.3-2.4-1.5-2.4S36.3,145.5,36.3,147L36.3,147z"/>
		</g>
		<g>
			<path class="st1" d="M44.5,147.4h-2.6v2.8H41v-6.4h3.8v0.9h-2.9v1.8h2.6L44.5,147.4z"/>
		</g>
		<g>
			<path class="st1" d="M49.4,143.7c0.5,0,1,0.1,1.5,0.3v0.9c-0.5-0.2-0.9-0.3-1.4-0.3c-1.2,0-1.7,0.8-1.7,2.4s0.5,2.4,1.7,2.4
				c0.5,0,1-0.1,1.4-0.3v0.9c-0.5,0.2-1,0.3-1.5,0.3c-1.9,0-2.6-1.2-2.6-3.3S47.5,143.7,49.4,143.7z"/>
		</g>
		<g>
			<path class="st1" d="M51.8,150.2v-6.4h1v6.4H51.8z"/>
		</g>
		<g>
			<path class="st1" d="M56.1,144.7v5.5h-1v-5.5h-1.6v-0.9h4.3v0.9H56.1z"/>
		</g>
		<g>
			<path class="st1" d="M58.6,150.2v-6.4h1v6.4H58.6z"/>
		</g>
		<g>
			<path class="st1" d="M64.2,147.3h-2.6v2h2.9v0.9h-3.9v-6.4h3.9v0.9h-2.9v1.8h2.6V147.3z"/>
		</g>
		<g>
			<path class="st1" d="M69.5,148.3c0,1.2-0.7,2-2.4,2c-0.6,0-1.3-0.1-1.9-0.4V149c0.6,0.3,1.2,0.4,1.8,0.4c1.2,0,1.5-0.5,1.5-1.1
				s-0.3-0.9-1.2-1c-1.6-0.2-2.2-0.6-2.2-1.8c0-0.9,0.5-1.8,2.3-1.8c0.6,0,1.2,0.1,1.7,0.3v1c-0.5-0.2-1.1-0.3-1.7-0.3
				c-1,0-1.3,0.4-1.3,1s0.4,0.8,1.2,0.9C68.8,146.7,69.5,147,69.5,148.3z"/>
		</g>
	</g>
	<g>
		<rect x="3.3" y="24" class="st1" width="94.8" height="94.8"/>
	</g>
	<g>
		<path class="st1" d="M98.2,20.7H3.3V3.3h94.8V20.7z M4.3,19.7h92.8V4.3H4.3L4.3,19.7z"/>
	</g>
	<g class="st2">
		<path class="st1" d="M6.7,6.9h4.5v1.4H9.9v8.8H8.1V8.3H6.7V6.9z"/>
	</g>
	<g class="st2">
		<path class="st1" d="M11.2,17.1l1.9-10.2h1.9L17,17.1h-1.8l-0.3-1.9h-1.8l-0.3,1.9H11.2z M13.3,13.9h1.4L14,9.8h0L13.3,13.9z"/>
	</g>
	<g class="st2">
		<path class="st1" d="M19.6,12.4v4.7h-1.7V6.9h2.5c1.7,0,2.4,0.9,2.4,2.3v1.3c0,1.1-0.4,1.7-1.4,2l1.6,4.6h-1.8L19.6,12.4z
			 M19.6,8.3v3.2h0.6c0.6,0,0.8-0.3,0.8-0.8V9.2c0-0.6-0.3-0.8-0.8-0.8H19.6z"/>
	</g>
	<g class="st2">
		<path class="st1" d="M26.4,11.7h2.4v5.4h-1.2V16c-0.2,0.8-0.7,1.2-1.6,1.2c-1.5,0-2.1-1.2-2.1-2.7V9.6c0-1.6,0.8-2.7,2.6-2.7
			c1.9,0,2.4,1.1,2.4,2.6v0.9h-1.6v-1c0-0.6-0.2-1-0.9-1c-0.6,0-0.9,0.4-0.9,1v5.5c0,0.6,0.3,1,0.8,1c0.6,0,0.8-0.3,0.8-1V13h-0.8
			V11.7z"/>
	</g>
	<g class="st2">
		<path class="st1" d="M30.2,6.9h4.1v1.4h-2.4v2.9h1.7v1.4h-1.7v3.1h2.4v1.4h-4.1V6.9z"/>
	</g>
	<g class="st2">
		<path class="st1" d="M35.1,6.9h4.5v1.4h-1.4v8.8h-1.7V8.3h-1.4V6.9z"/>
	</g>
	<g class="st2">
		<path class="st1" d="M79.4,6.9v10.2h-1.7V9.3h0l-1.2,1.2h0V8.8L78,6.9H79.4z"/>
	</g>
	<g class="st2">
		<path class="st1" d="M83.5,6.9v10.2h-1.7V9.3h0l-1.2,1.2h0V8.8l1.6-1.8H83.5z"/>
	</g>
	<g class="st2">
	</g>
	<g class="st2">
		<path class="st1" d="M86.5,10.8c0.7,0,1.2,0.6,1.2,1.2c0,0.7-0.6,1.2-1.2,1.2c-0.7,0-1.2-0.6-1.2-1.2
			C85.3,11.4,85.9,10.8,86.5,10.8z"/>
	</g>
	<g class="st2">
		<path class="st1" d="M89.3,14.5v-5c0-1.6,0.7-2.7,2.5-2.7c1.9,0,2.4,1.1,2.4,2.6v0.5h-1.6V9.2c0-0.6-0.2-1-0.8-1
			c-0.6,0-0.8,0.4-0.8,1v2.2h0c0.3-0.5,0.7-0.8,1.4-0.8c1.2,0,1.9,0.8,1.9,2.5v1.5c0,1.6-0.7,2.6-2.5,2.6
			C90,17.2,89.3,16.1,89.3,14.5z M92.7,14.8V13c0-0.7-0.2-1-0.8-1c-0.5,0-0.8,0.4-0.8,0.9v1.9c0,0.6,0.2,1,0.8,1
			C92.4,15.8,92.7,15.5,92.7,14.8z"/>
	</g>
	<g>
		<path class="st1" d="M98.2,153.8H3.3v-31.6h94.8V153.8z M4.3,152.8h92.8v-29.6H4.3L4.3,152.8z"/>
	</g>
	<g>
		<g>
			<g>
				<path class="st0" d="M72.9,97.3c-0.9,0-1.9,0.2-2.7,0.6l-1.6-2.5l1.2-2.1l1.4,0.1c0.5,0,0.8-0.1,0.8-0.6v-0.4
					c0-0.4-0.2-0.7-0.6-0.8c-0.1,0-0.1,0-0.2,0h-5c-0.2,0-0.4,0.2-0.4,0.4c0,0,0,0,0,0v0.5c0,0.2,0.1,0.3,0.3,0.4l1.5,0.1l-0.6,1.2
					l-8.9-1l0-1.4c0-0.3-0.2-0.6-0.5-0.8L55,89.6l0,0c-0.1-0.1-0.3-0.1-0.5-0.2c-0.5,0-0.9,0.4-0.9,0.9l0,0c0,0.3,0.2,0.7,0.5,0.8
					l0,0l2.2,1.3l0,1.2l0,0l-1.8,3.8c-0.7-0.2-1.4-0.4-2.1-0.4c-3.7,0-6.8,3-6.8,6.8c0,3.7,3,6.8,6.8,6.8c3.7,0,6.8-3,6.8-6.8
					c0-2.3-1.1-4.4-3-5.6l1-2.2l5,8.2c0.2,0.3,0.5,0.4,0.8,0.4l3.2,0.1c0.4,3.7,3.8,6.3,7.5,5.9s6.3-3.8,5.9-7.5
					C79.2,99.8,76.3,97.2,72.9,97.3L72.9,97.3z M57.3,104c0,2.7-2.2,4.9-4.9,4.9s-4.9-2.2-4.9-4.9c0-2.7,2.2-4.9,4.9-4.9l0,0
					c0.4,0,0.9,0.1,1.3,0.2l-2,4.3l0,0c-0.1,0.1-0.1,0.2-0.1,0.4c0,0.5,0.4,0.9,0.9,0.9l0,0c0.4,0,0.7-0.2,0.8-0.5l0,0l0,0l0,0
					l2-4.2C56.6,101.1,57.3,102.5,57.3,104z M68.6,99c-1.2,1-2.1,2.4-2.3,4h-1.7l3-5.7L68.6,99z M69.6,100.6l1.6,2.6l-3.1-0.1
					C68.3,102.1,68.8,101.2,69.6,100.6L69.6,100.6z M66.1,96.1L63,102l-4.1-6.7L66.1,96.1z M72.9,109c-2.4,0-4.4-1.7-4.8-4.1
					l4.8,0.1l0,0c0.5,0,0.9-0.4,0.9-0.9c0-0.2,0-0.3-0.1-0.5l-2.5-4.1c0.6-0.2,1.1-0.3,1.7-0.3c2.7,0,4.9,2.2,4.9,4.9
					C77.7,106.8,75.5,109,72.9,109L72.9,109z"/>
			</g>
			<g>
				<g>
					<path class="st0" d="M38.2,91.6h-5.7v-0.7c0-0.1-0.1-0.2-0.2-0.2c0,0,0,0,0,0H28c-0.1,0-0.2,0.1-0.2,0.2c0,0,0,0,0,0v0.7h-5.7
						c-0.1,0-0.2,0.1-0.2,0.2c0,0,0,0,0,0l0.1,0.9c0,0.1,0.1,0.2,0.2,0.2c0,0,0,0,0,0h15.9c0.1,0,0.2-0.1,0.2-0.2c0,0,0,0,0,0
						l0.2-0.9C38.5,91.7,38.4,91.6,38.2,91.6C38.3,91.6,38.3,91.6,38.2,91.6z"/>
				</g>
				<g>
					<path class="st0" d="M38,93.8H22.3c-0.1,0-0.2,0.1-0.2,0.2c0,0,0,0,0,0l1.1,16.6c0,0.1,0.1,0.2,0.2,0.2l0,0h13.5
						c0.1,0,0.2-0.1,0.2-0.2l0,0L38.2,94C38.2,93.9,38.1,93.8,38,93.8C38,93.8,38,93.8,38,93.8z M26.4,108.5L26.4,108.5
						c-0.3,0-0.5-0.2-0.5-0.5l-0.7-11.2c0-0.3,0.2-0.6,0.5-0.6c0,0,0,0,0,0c0.3,0,0.6,0.2,0.6,0.5l0.6,11.3
						C26.9,108.3,26.7,108.5,26.4,108.5z M30.7,108c0,0.3-0.2,0.6-0.5,0.6s-0.6-0.2-0.6-0.5c0,0,0-0.1,0-0.1V96.7
						c0-0.3,0.2-0.6,0.5-0.6s0.6,0.2,0.6,0.5c0,0,0,0.1,0,0.1V108z M34.6,108c0,0.3-0.3,0.5-0.5,0.5l0,0c-0.3,0-0.5-0.3-0.5-0.6
						l0.7-11.3c0-0.3,0.3-0.5,0.6-0.5c0.3,0,0.5,0.3,0.5,0.6c0,0,0,0,0,0L34.6,108z"/>
				</g>
			</g>
		</g>
		<g>
			<path class="st0" d="M24.2,76.8h-1.5v3.9c0,0.1-0.1,0.1-0.1,0.1h-1.8c-0.1,0-0.1,0-0.1-0.1c0,0,0,0,0,0v-3.9h-2.9
				c-1.9,0-3.4-1.5-3.4-3.4c0-0.9,0.3-1.8,1-2.4c-1.5-0.9-2.1-2.8-1.2-4.3c0.6-1,1.6-1.6,2.8-1.6h0.2c0.2-2.4,2.2-4.2,4.6-4
				c2.3,0.2,4,2,4,4.3c0,0.7-0.1,1.3-0.4,1.9c2.6,0.6,4.2,3.1,3.7,5.7C28.5,75.2,26.5,76.8,24.2,76.8L24.2,76.8z"/>
		</g>
		<g>
			<path class="st0" d="M80.2,76.9v3.8c0,0.1,0.1,0.1,0.1,0.1c0,0,0,0,0,0H82c0.1,0,0.1,0,0.1-0.1c0,0,0,0,0,0v-3.8
				c2.7-0.6,4.6-3,4.5-5.7c0-3.4-2.6-9-5.7-9s-5.6,5.7-5.6,9C75.2,74,77.3,76.5,80.2,76.9z"/>
		</g>
		<g>
			<g>
				<g>
					<g>
						<path class="st0" d="M76.6,36.9c1.8-1.9,4.7-2.1,6.7-0.3s2.1,4.7,0.3,6.7c-1.8,1.9-4.7,2.1-6.6,0.3
							C74.9,41.8,74.8,38.8,76.6,36.9C76.5,36.9,76.5,36.9,76.6,36.9z"/>
					</g>
					<g>
						<path class="st0" d="M75.9,44.1c0.1-0.1,0.4-0.1,0.5,0c0.1,0.1,0.1,0.4,0,0.5L75,46.1c-0.1,0.1-0.4,0.1-0.5,0
							c-0.1-0.1-0.1-0.4,0-0.5L75.9,44.1z"/>
					</g>
					<g>
						<path class="st0" d="M84.2,36.1c-0.2,0.1-0.4,0.1-0.5,0c-0.1-0.1-0.1-0.4,0-0.5l1.3-1.5c0.2-0.1,0.4-0.1,0.5,0
							c0.1,0.1,0.1,0.4,0,0.5L84.2,36.1z"/>
					</g>
					<g>
						<path class="st0" d="M84.6,43.7l1.5,1.4c0.1,0.1,0.1,0.4,0,0.5c-0.1,0.1-0.4,0.1-0.5,0l-1.5-1.4c-0.1-0.2-0.1-0.4,0-0.5
							C84.2,43.5,84.4,43.5,84.6,43.7z"/>
					</g>
					<g>
						<path class="st0" d="M75.5,36.5L74,35.1c-0.1-0.2-0.1-0.4,0-0.5c0.1-0.1,0.4-0.1,0.5,0l1.5,1.4c0.1,0.2,0.1,0.4,0,0.5
							C75.9,36.6,75.7,36.6,75.5,36.5z"/>
					</g>
					<g>
						<path class="st0" d="M78.9,45.4c0.2,0,0.3,0.2,0.3,0.4l-0.4,2c-0.1,0.2-0.3,0.3-0.5,0.3c-0.2,0-0.3-0.2-0.3-0.4l0.4-2
							C78.5,45.4,78.7,45.3,78.9,45.4z"/>
					</g>
					<g>
						<path class="st0" d="M81.2,34.8c-0.2-0.1-0.3-0.2-0.3-0.4l0.4-2c0.1-0.2,0.3-0.3,0.5-0.3c0.2,0,0.3,0.2,0.3,0.4l-0.4,2
							C81.6,34.7,81.4,34.8,81.2,34.8z"/>
					</g>
					<g>
						<path class="st0" d="M85.3,41.2c0-0.2,0.2-0.3,0.4-0.3l2,0.5c0.2,0.1,0.3,0.3,0.3,0.5c-0.1,0.2-0.2,0.3-0.4,0.3l-2-0.5
							C85.4,41.7,85.3,41.5,85.3,41.2z"/>
					</g>
					<g>
						<path class="st0" d="M72.1,38.3c0-0.2,0.2-0.3,0.4-0.3l2,0.5c0.2,0.1,0.3,0.3,0.2,0.5c-0.1,0.2-0.2,0.2-0.4,0.2l-2-0.4
							C72.1,38.7,72,38.5,72.1,38.3z"/>
					</g>
					<g>
						<path class="st0" d="M81.7,45.2c0.2-0.1,0.4,0,0.5,0.2l0.6,2c0,0.2-0.1,0.4-0.3,0.5c-0.2,0.1-0.4,0-0.5-0.2l-0.6-2
							C81.4,45.5,81.5,45.3,81.7,45.2z"/>
					</g>
					<g>
						<path class="st0" d="M78.4,34.9c-0.2,0.1-0.4,0-0.5-0.2l-0.6-2c-0.1-0.2,0.1-0.4,0.3-0.5c0.2-0.1,0.4,0,0.5,0.2l0.6,2
							C78.7,34.7,78.6,34.9,78.4,34.9z"/>
					</g>
					<g>
						<path class="st0" d="M87.6,38.1l-2,0.6c-0.2,0-0.4-0.1-0.5-0.3c-0.1-0.2,0-0.4,0.2-0.5l2-0.6c0.2-0.1,0.4,0.1,0.5,0.2
							C87.9,37.8,87.8,38,87.6,38.1z"/>
					</g>
					<g>
						<path class="st0" d="M72.5,42.1l2-0.6c0.2,0,0.4,0.1,0.5,0.3c0.1,0.2,0,0.4-0.2,0.5l-2,0.6c-0.2,0-0.4-0.1-0.5-0.3
							C72.2,42.4,72.3,42.2,72.5,42.1z"/>
					</g>
				</g>
				<g>
					<g>
						<path class="st0" d="M65.7,46.5l0.8,0.9l-3.2,0.8l0.9-3.2l0.8,0.9l2.3-2.2c0.2-0.2,0.4-0.2,0.6,0c0.2,0.2,0.2,0.4,0,0.6
							c0,0,0,0,0,0L65.7,46.5z"/>
					</g>
					<g>
						<path class="st0" d="M66.8,52.1l0.9-3.1l0.8,0.9l2.3-2.2c0.2-0.1,0.4-0.1,0.6,0.1c0.1,0.2,0.1,0.4,0,0.5l-2.3,2.2l0.8,0.9
							L66.8,52.1z"/>
					</g>
				</g>
			</g>
			<g>
				<path class="st0" d="M57.2,44.2l0.1-0.1c0.1-0.1,0.3-0.1,0.4,0.1L67.9,57c0.1,0.1,0.1,0.3-0.1,0.4l-0.1,0.1
					c-0.1,0.1-0.3,0.1-0.4-0.1L57.1,44.7C57,44.5,57.1,44.4,57.2,44.2z"/>
			</g>
			<g>
				<path class="st0" d="M35.6,32.7v47.9c0,0.2,0.1,0.3,0.3,0.3c0,0,0,0,0,0h7v-7.8c0-0.2,0.2-0.4,0.4-0.4h0h3.9
					c0.2,0,0.4,0.2,0.4,0.4v7.8h8v-7.8c0-0.2,0.2-0.4,0.3-0.4c0,0,0,0,0,0h3.8c0.2,0,0.4,0.2,0.4,0.4c0,0,0,0,0,0v7.5l0,0v0.3H68
					c0.2,0,0.3-0.1,0.3-0.3l0,0V59.7c0-0.1,0-0.2-0.1-0.3l-0.1-0.1l-1.7-2.2L63,52.8l-4.3-5.5L58,46.5l-3.2-4.1l-0.1-0.2l0,0
					c-0.1,0-0.1-0.1-0.2-0.1c-0.2,0-0.3,0.1-0.3,0.3c0,0,0,0.1,0,0.1V57H49V32.7c0-0.3-0.3-0.6-0.6-0.6l0,0H36.3
					C35.9,32.1,35.6,32.3,35.6,32.7C35.6,32.7,35.6,32.7,35.6,32.7z M59.8,51.9c0,0.2-0.2,0.4-0.4,0.4H56c-0.2,0-0.4-0.2-0.4-0.4
					v-4.3c0-0.2,0.2-0.3,0.4-0.3c0.1,0,0.2,0.1,0.3,0.1l0.1,0.1c0.8,0.9,2.3,2.8,3.2,4l0.1,0.1C59.8,51.7,59.8,51.8,59.8,51.9z
					 M61.9,73c0-0.2,0.2-0.4,0.4-0.4h3.9c0.2,0,0.4,0.2,0.4,0.4c0,0,0,0,0,0v2.4c0,0.2-0.2,0.4-0.3,0.4c0,0,0,0,0,0h-3.9
					c-0.2,0-0.4-0.2-0.4-0.4c0,0,0,0,0,0V73z M61.8,68.1c0-0.2,0.1-0.3,0.3-0.3h0h4.1c0.2,0,0.3,0.1,0.3,0.3l0,0v2.5
					c0,0.2-0.1,0.3-0.3,0.3l0,0h-4.1c-0.2,0-0.3-0.1-0.3-0.3l0,0V68.1z M61.8,63.4c0-0.2,0.1-0.3,0.3-0.3h4.1c0.2,0,0.3,0.2,0.3,0.3
					V66c0,0.2-0.1,0.3-0.3,0.3l0,0h-4.1c-0.2,0-0.3-0.1-0.3-0.3l0,0V63.4z M61.8,55.5c0-0.2,0.2-0.3,0.4-0.3c0.1,0,0.2,0,0.3,0.1
					l0.1,0.1c1,1.2,3.3,4.1,3.8,4.8v0.1l0,0l0,0c0,0,0,0.1,0,0.1v0.7c0,0.2-0.1,0.3-0.3,0.3l0,0h-4c-0.2,0-0.3-0.1-0.3-0.3v0
					L61.8,55.5z M55.7,68.2c0-0.2,0.1-0.3,0.3-0.3h0h4c0.2,0,0.3,0.1,0.3,0.3l0,0v2.5c0,0.2-0.2,0.3-0.3,0.3h-4
					c-0.2,0-0.3-0.1-0.3-0.3l0,0L55.7,68.2z M55.7,63.5c0-0.2,0.1-0.3,0.3-0.3h4c0.2,0,0.3,0.2,0.3,0.3V66c0,0.2-0.1,0.3-0.3,0.3h0
					h-4c-0.2,0-0.3-0.1-0.3-0.3l0,0L55.7,63.5z M55.7,58.8c0-0.2,0.1-0.3,0.3-0.3h4c0.2,0,0.3,0.2,0.3,0.3v2.5
					c0,0.2-0.1,0.3-0.3,0.3h-4c-0.2,0-0.3-0.2-0.3-0.3L55.7,58.8z M55.7,54.1c0-0.2,0.1-0.3,0.3-0.3h0h4c0.2,0,0.3,0.1,0.3,0.3v0
					v2.5c0,0.2-0.1,0.4-0.3,0.4c0,0,0,0,0,0h-4c-0.2,0-0.3-0.2-0.3-0.3L55.7,54.1z M49.4,73.1c0-0.2,0.2-0.4,0.4-0.4h3.9
					c0.2,0,0.4,0.2,0.4,0.4v2.4c0,0.2-0.2,0.4-0.4,0.4c0,0,0,0,0,0h-3.9c-0.2,0-0.4-0.2-0.4-0.4c0,0,0,0,0,0V73.1z M49.4,68.4
					c0-0.2,0.2-0.4,0.4-0.4h3.9c0.2,0,0.4,0.2,0.4,0.4v2.4c0,0.2-0.2,0.4-0.4,0.4h-3.9c-0.2,0-0.4-0.2-0.4-0.4V68.4z M49.4,63.6
					c0-0.2,0.2-0.4,0.4-0.4c0,0,0,0,0,0h3.9c0.2,0,0.4,0.2,0.4,0.4c0,0,0,0,0,0V66c0,0.2-0.2,0.4-0.4,0.4c0,0,0,0,0,0h-3.9
					c-0.2,0-0.4-0.2-0.4-0.4c0,0,0,0,0,0V63.6z M49.4,58.8c0-0.2,0.2-0.4,0.4-0.4h3.9c0.2,0,0.4,0.2,0.4,0.4v2.4
					c0,0.2-0.2,0.4-0.4,0.4h-3.9c-0.2,0-0.4-0.2-0.4-0.4V58.8z M43,68.4c0-0.2,0.2-0.4,0.4-0.4h3.9c0.2,0,0.4,0.2,0.4,0.4v2.4
					c0,0.2-0.2,0.4-0.4,0.4h-3.9c-0.2,0-0.4-0.2-0.4-0.4c0,0,0,0,0,0L43,68.4z M43,63.6c0-0.2,0.2-0.4,0.4-0.4h3.9
					c0.2,0,0.4,0.2,0.4,0.4c0,0,0,0,0,0V66c0,0.2-0.2,0.4-0.4,0.4c0,0,0,0,0,0h-3.9c-0.2,0-0.4-0.2-0.4-0.4V63.6z M43,58.9
					c0-0.2,0.2-0.4,0.4-0.4h3.9c0.2,0,0.4,0.2,0.4,0.4v2.4c0,0.2-0.2,0.4-0.4,0.4c0,0,0,0,0,0h-3.9c-0.2,0-0.4-0.2-0.4-0.4L43,58.9z
					 M43,54.2c0-0.2,0.2-0.4,0.4-0.4c0,0,0,0,0,0h3.9c0.2,0,0.4,0.2,0.4,0.4v2.4c0,0.2-0.2,0.4-0.4,0.4h-3.9c-0.2,0-0.4-0.2-0.4-0.4
					c0,0,0,0,0,0L43,54.2z M43,49.4c0-0.2,0.2-0.4,0.4-0.4c0,0,0,0,0,0h3.9c0.2,0,0.4,0.2,0.4,0.4c0,0,0,0,0,0v2.4
					c0,0.2-0.2,0.4-0.4,0.4c0,0,0,0,0,0h-3.9c-0.2,0-0.4-0.2-0.4-0.4L43,49.4z M43,44.7c0-0.2,0.2-0.4,0.4-0.4h3.9
					c0.2,0,0.4,0.2,0.4,0.4v2.4c0,0.2-0.2,0.4-0.4,0.4c0,0,0,0,0,0h-3.9c-0.2,0-0.4-0.2-0.4-0.4L43,44.7z M43,40
					c0-0.2,0.2-0.4,0.4-0.4c0,0,0,0,0,0h3.9c0.2,0,0.4,0.2,0.4,0.4v2.4c0,0.2-0.2,0.4-0.4,0.4h-3.9c-0.2,0-0.4-0.2-0.4-0.4
					c0,0,0,0,0,0L43,40z M43,35.3c0-0.2,0.2-0.4,0.4-0.4h3.9c0.2,0,0.4,0.2,0.4,0.4c0,0,0,0,0,0v2.3c0,0.2-0.2,0.4-0.4,0.4
					c0,0,0,0,0,0h-3.9c-0.2,0-0.4-0.2-0.4-0.4V35.3z M36.9,73.1c0-0.2,0.2-0.4,0.4-0.4h0h3.9c0.2,0,0.4,0.2,0.4,0.4l0,0v2.4
					c0,0.2-0.2,0.4-0.4,0.4h0h-3.9c-0.2,0-0.4-0.2-0.4-0.4l0,0V73.1z M36.9,68.3c0-0.2,0.2-0.4,0.4-0.4h0h3.9c0.2,0,0.4,0.2,0.4,0.4
					l0,0v2.4c0,0.2-0.2,0.4-0.4,0.4h0h-3.9c-0.2,0-0.4-0.2-0.4-0.4l0,0V68.3z M36.9,63.6c0-0.2,0.2-0.4,0.4-0.4h3.9
					c0.2,0,0.4,0.2,0.4,0.4V66c0,0.2-0.2,0.4-0.4,0.4h0h-3.9c-0.2,0-0.4-0.2-0.4-0.4l0,0V63.6z M36.9,58.9c0-0.2,0.2-0.4,0.4-0.4
					c0,0,0,0,0,0h3.9c0.2,0,0.4,0.2,0.4,0.4c0,0,0,0,0,0v2.4c0,0.2-0.2,0.4-0.4,0.4h-3.9c-0.2,0-0.4-0.2-0.4-0.4V58.9z M36.9,54.1
					c0-0.2,0.2-0.4,0.4-0.4c0,0,0,0,0,0h3.9c0.2,0,0.4,0.2,0.4,0.4c0,0,0,0,0,0v2.4c0,0.2-0.2,0.4-0.4,0.4h-3.9
					c-0.2,0-0.4-0.2-0.4-0.4V54.1z M36.9,49.4c0-0.2,0.2-0.4,0.4-0.4h3.9c0.2,0,0.4,0.2,0.4,0.4v2.4c0,0.2-0.2,0.4-0.4,0.4
					c0,0,0,0,0,0h-3.9c-0.2,0-0.4-0.2-0.4-0.4c0,0,0,0,0,0V49.4z M36.9,44.7c0-0.2,0.2-0.4,0.4-0.4h3.9c0.2,0,0.4,0.2,0.4,0.4v2.4
					c0,0.2-0.2,0.4-0.4,0.4c0,0,0,0,0,0h-3.9c-0.2,0-0.4-0.2-0.4-0.4c0,0,0,0,0,0V44.7z M36.9,39.9c0-0.2,0.2-0.4,0.4-0.4h3.9
					c0.2,0,0.4,0.2,0.4,0.4v2.4c0,0.2-0.2,0.4-0.4,0.4h-3.9c-0.2,0-0.4-0.2-0.4-0.4V39.9z M36.9,35.2c0-0.2,0.2-0.4,0.4-0.4h3.9
					c0.2,0,0.4,0.2,0.4,0.4v2.4c0,0.2-0.2,0.4-0.4,0.4h-3.9c-0.2,0-0.4-0.2-0.4-0.4V35.2z"/>
			</g>
		</g>
	</g>
</g>
</svg>
