<?xml version="1.0" encoding="utf-8"?>
<!-- Generator: Adobe Illustrator 22.0.1, SVG Export Plug-In . SVG Version: 6.00 Build 0)  -->
<svg version="1.1" id="Layer_1" xmlns="http://www.w3.org/2000/svg" xmlns:xlink="http://www.w3.org/1999/xlink" x="0px" y="0px"
	 viewBox="0 0 101.5 175.2" style="enable-background:new 0 0 101.5 175.2;" xml:space="preserve">
<style type="text/css">
	.st0{fill:#FFFFFF;}
	.st1{fill:#FD9D24;}
	.st2{enable-background:new    ;}
</style>
<title>TARGET 1 B copy 8</title>
<g id="WHITE_BG">
	<g>
		<rect y="0" class="st0" width="101.5" height="175.2"/>
	</g>
</g>
<g id="TARGETS">
	<g>
		<g>
			<path class="st1" d="M7,132.2v-6.4h1v6.4H7z"/>
		</g>
		<g>
			<path class="st1" d="M12.5,131.3h-0.9l-1.6-3.9v4.8H9v-6.4h1.2l1.8,4.3l1.7-4.3H15v6.4h-1v-4.8L12.5,131.3z"/>
		</g>
		<g>
			<path class="st1" d="M16.9,132.2h-1v-6.4h2c1.6,0,2.2,1,2.2,2c0,1-0.6,2-2.2,2h-1V132.2z M16.9,128.9H18c0.6,0.1,1.2-0.4,1.2-1
				s-0.4-1.2-1-1.2c-0.1,0-0.1,0-0.2,0h-1.1V128.9z"/>
		</g>
		<g>
			<path class="st1" d="M21.6,131.3h2.8v0.9h-3.7v-6.4h1V131.3z"/>
		</g>
		<g>
			<path class="st1" d="M28.5,129.3h-2.6v2h2.9v0.9h-3.9v-6.4h3.9v0.9h-2.9v1.8h2.6V129.3z"/>
		</g>
		<g>
			<path class="st1" d="M33,131.3h-0.9l-1.6-3.9v4.8h-1v-6.4h1.2l1.7,4.3l1.7-4.3h1.2v6.4h-1v-4.8L33,131.3z"/>
		</g>
		<g>
			<path class="st1" d="M40,129.3h-2.6v2h2.9v0.9h-3.9v-6.4h3.9v0.9h-2.9v1.8h2.7L40,129.3z"/>
		</g>
		<g>
			<path class="st1" d="M44.8,132.2l-2.8-4.5v4.5h-0.9v-6.4H42l2.8,4.5v-4.5h1v6.4H44.8z"/>
		</g>
		<g>
			<path class="st1" d="M48.9,126.7v5.5h-1v-5.5h-1.6v-0.9h4.3v0.9H48.9z"/>
		</g>
		<g>
			<path class="st1" d="M53.2,132.2h-1v-6.4h2c1.7,0,2.2,1,2.2,2c0,1-0.6,2-2.2,2h-1V132.2z M53.2,128.9h1.1c0.6,0.1,1.2-0.4,1.2-1
				s-0.4-1.2-1-1.2c-0.1,0-0.1,0-0.2,0h-1.1V128.9z"/>
		</g>
		<g>
			<path class="st1" d="M56.9,129c0-1.8,0.4-3.3,2.5-3.3s2.5,1.5,2.5,3.3s-0.4,3.3-2.5,3.3S56.9,130.8,56.9,129z M57.9,129
				c0,1.5,0.3,2.4,1.5,2.4s1.5-0.9,1.5-2.4s-0.3-2.4-1.5-2.4S57.9,127.5,57.9,129L57.9,129z"/>
		</g>
		<g>
			<path class="st1" d="M63.5,131.3h2.8v0.9h-3.7v-6.4h1L63.5,131.3z"/>
		</g>
		<g>
			<path class="st1" d="M67.1,132.2v-6.4h1v6.4H67.1z"/>
		</g>
		<g>
			<path class="st1" d="M71.7,125.7c0.5,0,1,0.1,1.5,0.3v0.9c-0.4-0.2-0.9-0.3-1.4-0.3c-1.2,0-1.7,0.8-1.7,2.4s0.5,2.4,1.7,2.4
				c0.5,0,1-0.1,1.4-0.3v0.9c-0.5,0.2-1,0.3-1.5,0.3c-1.9,0-2.6-1.2-2.6-3.3S69.8,125.7,71.7,125.7z"/>
		</g>
		<g>
			<path class="st1" d="M74.2,132.2v-6.4h1v6.4H74.2z"/>
		</g>
		<g>
			<path class="st1" d="M79.8,129.3h-2.7v2h2.9v0.9h-3.9v-6.4h3.9v0.9h-2.9v1.8h2.7V129.3z"/>
		</g>
		<g>
			<path class="st1" d="M85,130.3c0,1.2-0.7,2-2.4,2c-0.6,0-1.3-0.1-1.9-0.4V131c0.6,0.3,1.2,0.4,1.8,0.4c1.2,0,1.5-0.5,1.5-1.1
				s-0.3-0.9-1.2-1c-1.6-0.2-2.2-0.6-2.2-1.8c0-0.9,0.5-1.8,2.3-1.8c0.6,0,1.2,0.1,1.7,0.3v1c-0.5-0.2-1.1-0.3-1.7-0.3
				c-1,0-1.3,0.4-1.3,1c0,0.7,0.4,0.8,1.2,0.9C84.2,128.7,85,129,85,130.3z"/>
		</g>
		<g>
			<path class="st1" d="M10.4,138.4H7.8v2.8h-1v-6.4h3.9v0.9H7.8v1.8h2.6V138.4z"/>
		</g>
		<g>
			<path class="st1" d="M11.2,138c0-1.8,0.4-3.3,2.4-3.3s2.5,1.5,2.5,3.3s-0.4,3.3-2.5,3.3S11.2,139.8,11.2,138z M12.2,138
				c0,1.5,0.3,2.4,1.5,2.4s1.5-0.9,1.5-2.4s-0.3-2.4-1.5-2.4S12.2,136.5,12.2,138L12.2,138z"/>
		</g>
		<g>
			<path class="st1" d="M17.8,141.2h-1v-6.4h2.1c1.6,0,2.2,0.7,2.2,1.9c0.1,0.7-0.3,1.4-1,1.7l1.3,2.8h-1.2l-1.1-2.6h-1.3V141.2z
				 M17.8,137.7h1.3c0.9,0,1-0.5,1-1s-0.1-1-1-1h-1.3V137.7z"/>
		</g>
		<g>
			<path class="st1" d="M23.6,141.2v-6.4h1v6.4H23.6z"/>
		</g>
		<g>
			<path class="st1" d="M29.3,141.2l-2.8-4.5v4.5h-0.9v-6.4h0.9l2.8,4.5v-4.5h0.9v6.4H29.3z"/>
		</g>
		<g>
			<path class="st1" d="M33.5,134.7c0.5,0,1,0.1,1.5,0.3v0.9c-0.5-0.2-0.9-0.3-1.4-0.3c-1.2,0-1.7,0.8-1.7,2.4s0.5,2.4,1.7,2.4
				c0.5,0,1-0.1,1.4-0.3v0.9c-0.5,0.2-1,0.3-1.5,0.3c-1.9,0-2.6-1.2-2.6-3.3S31.6,134.7,33.5,134.7z"/>
		</g>
		<g>
			<path class="st1" d="M36.7,140.3h2.8v0.9h-3.7v-6.4h1L36.7,140.3z"/>
		</g>
		<g>
			<path class="st1" d="M40,139.2v-4.4h1v4.3c0,0.8,0.6,1.4,1.4,1.4s1.4-0.6,1.4-1.4v-4.3h1v4.4c0,1.1-0.9,2.1-2,2.1
				c-0.1,0-0.2,0-0.3,0c-1.1,0.2-2.2-0.6-2.3-1.7C40,139.4,40,139.3,40,139.2z"/>
		</g>
		<g>
			<path class="st1" d="M49.7,139.3c0,1.2-0.7,2-2.4,2c-0.6,0-1.3-0.1-1.9-0.4V140c0.6,0.3,1.2,0.4,1.8,0.4c1.2,0,1.5-0.5,1.5-1.1
				s-0.3-0.9-1.2-1c-1.5-0.2-2.2-0.6-2.2-1.8c0-0.9,0.5-1.8,2.3-1.8c0.6,0,1.2,0.1,1.7,0.3v1c-0.5-0.2-1.1-0.3-1.7-0.3
				c-1,0-1.3,0.4-1.3,1s0.4,0.8,1.2,0.9C48.9,137.7,49.7,138,49.7,139.3z"/>
		</g>
		<g>
			<path class="st1" d="M50.6,141.2v-6.4h1v6.4H50.6z"/>
		</g>
		<g>
			<path class="st1" d="M52.5,138c0-1.8,0.4-3.3,2.5-3.3s2.5,1.5,2.5,3.3s-0.4,3.3-2.5,3.3S52.5,139.8,52.5,138z M53.5,138
				c0,1.5,0.3,2.4,1.5,2.4s1.5-0.9,1.5-2.4s-0.3-2.4-1.5-2.4S53.5,136.5,53.5,138L53.5,138z"/>
		</g>
		<g>
			<path class="st1" d="M61.9,141.2l-2.8-4.5v4.5h-0.9v-6.4h0.9l2.8,4.5v-4.5h0.9v6.4H61.9z"/>
		</g>
		<g>
			<path class="st1" d="M64.5,140.3l-0.7,2h-0.7l0.2-2H64.5z"/>
		</g>
		<g>
			<path class="st1" d="M7.8,150.2h-1v-6.4H9c1.6,0,2.2,0.7,2.2,1.9c0.1,0.7-0.3,1.4-1,1.7l1.3,2.8h-1.2l-1.1-2.6H7.8V150.2z
				 M7.8,146.7h1.3c0.9,0,1-0.5,1-1s-0.1-1-1-1H7.8V146.7z"/>
		</g>
		<g>
			<path class="st1" d="M15.7,147.3H13v2h3v0.9h-3.9v-6.4H16v0.9h-3v1.8h2.7L15.7,147.3z"/>
		</g>
		<g>
			<path class="st1" d="M21,148.3c0,1.2-0.7,2-2.4,2c-0.6,0-1.3-0.1-1.9-0.4V149c0.6,0.3,1.2,0.4,1.8,0.4c1.1,0,1.5-0.5,1.5-1.1
				s-0.3-0.9-1.2-1c-1.5-0.2-2.2-0.6-2.2-1.8c0-0.9,0.5-1.8,2.3-1.8c0.6,0,1.2,0.1,1.7,0.3v1c-0.5-0.2-1.1-0.3-1.7-0.3
				c-1,0-1.3,0.4-1.3,1s0.4,0.8,1.2,0.9C20.2,146.7,21,147,21,148.3z"/>
		</g>
		<g>
			<path class="st1" d="M21.6,147c0-1.8,0.4-3.3,2.5-3.3s2.5,1.5,2.5,3.3s-0.4,3.3-2.5,3.3S21.6,148.8,21.6,147z M22.6,147
				c0,1.5,0.3,2.4,1.5,2.4s1.5-0.9,1.5-2.4s-0.3-2.4-1.5-2.4S22.5,145.5,22.6,147L22.6,147z"/>
		</g>
		<g>
			<path class="st1" d="M27.2,148.2v-4.4h1v4.3c-0.1,0.7,0.4,1.3,1,1.3c0.1,0,0.2,0,0.3,0c0.6,0.1,1.3-0.3,1.4-1c0-0.1,0-0.2,0-0.3
				v-4.3h1v4.4c0,1.1-0.8,2.1-2,2.1c-0.1,0-0.2,0-0.3,0c-1.1,0.1-2.2-0.7-2.3-1.8C27.2,148.4,27.2,148.3,27.2,148.2z"/>
		</g>
		<g>
			<path class="st1" d="M33.5,150.2h-1v-6.4h2.1c1.7,0,2.2,0.7,2.2,1.9c0.1,0.7-0.3,1.4-1,1.7l1.3,2.8H36l-1.2-2.6h-1.3V150.2z
				 M33.5,146.7h1.3c0.9,0,1-0.5,1-1s-0.1-1-1-1h-1.3V146.7z"/>
		</g>
		<g>
			<path class="st1" d="M40.2,143.7c0.5,0,1,0.1,1.5,0.3v0.9c-0.5-0.2-0.9-0.3-1.4-0.3c-1.2,0-1.7,0.8-1.7,2.4s0.5,2.4,1.7,2.4
				c0.5,0,1-0.1,1.4-0.3v0.9c-0.5,0.2-1,0.3-1.5,0.3c-1.9,0-2.6-1.2-2.6-3.3S38.3,143.7,40.2,143.7z"/>
		</g>
		<g>
			<path class="st1" d="M46.2,147.3h-2.7v2h2.9v0.9h-3.9v-6.4h3.9v0.9h-2.9v1.8h2.7V147.3z"/>
		</g>
		<g>
			<path class="st1" d="M52.2,147.3h-2.6v2h2.9v0.9h-3.9v-6.4h3.9v0.9h-2.9v1.8h2.7L52.2,147.3z"/>
		</g>
		<g>
			<path class="st1" d="M56.9,147.4h-2.6v2.8h-1v-6.4h3.8v0.9h-2.9v1.8h2.6V147.4z"/>
		</g>
		<g>
			<path class="st1" d="M61.4,147.4h-2.6v2.8h-1v-6.4h3.8v0.9h-2.9v1.8h2.6L61.4,147.4z"/>
		</g>
		<g>
			<path class="st1" d="M62.4,150.2v-6.4h1v6.4H62.4z"/>
		</g>
		<g>
			<path class="st1" d="M67,143.7c0.5,0,1,0.1,1.5,0.3v0.9c-0.5-0.2-0.9-0.3-1.4-0.3c-1.2,0-1.7,0.8-1.7,2.4s0.5,2.4,1.7,2.4
				c0.5,0,1-0.1,1.4-0.3v0.9c-0.5,0.2-1,0.3-1.5,0.3c-1.9,0-2.6-1.2-2.6-3.3S65.1,143.7,67,143.7z"/>
		</g>
		<g>
			<path class="st1" d="M69.4,150.2v-6.4h1v6.4H69.4z"/>
		</g>
		<g>
			<path class="st1" d="M75,147.3h-2.6v2h2.9v0.9h-3.9v-6.4h3.9v0.9h-2.9v1.8H75V147.3z"/>
		</g>
		<g>
			<path class="st1" d="M79.8,150.2l-2.8-4.5v4.5h-0.9v-6.4H77l2.8,4.5v-4.5h0.9v6.4H79.8z"/>
		</g>
		<g>
			<path class="st1" d="M84.1,143.7c0.5,0,1,0.1,1.5,0.3v0.9c-0.5-0.2-0.9-0.3-1.4-0.3c-1.2,0-1.7,0.8-1.7,2.4s0.5,2.4,1.7,2.4
				c0.5,0,1-0.1,1.4-0.3v0.9c-0.5,0.2-1,0.3-1.5,0.3c-1.9,0-2.6-1.2-2.6-3.3S82.2,143.7,84.1,143.7z"/>
		</g>
		<g>
			<path class="st1" d="M89,147.6v2.6h-1v-2.6l-2.2-3.8h1.1l1.6,3l1.6-3h1.1L89,147.6z"/>
		</g>
		<g>
			<path class="st1" d="M10.1,157.6h-2l-0.4,1.6h-1l2-6.4h1l2,6.4h-1L10.1,157.6z M9.1,154l-0.8,2.8h1.6L9.1,154z"/>
		</g>
		<g>
			<path class="st1" d="M15.8,159.2l-2.8-4.5v4.5h-0.9v-6.4H13l2.8,4.5v-4.5h0.9v6.4H15.8z"/>
		</g>
		<g>
			<path class="st1" d="M17.6,159.2v-6.4h1.9c2.1,0,2.7,1.4,2.7,3.2s-0.6,3.2-2.7,3.2H17.6z M18.6,158.3h1c1.3,0,1.7-0.9,1.7-2.3
				s-0.4-2.3-1.7-2.3h-1V158.3z"/>
		</g>
		<g>
			<path class="st1" d="M24.4,159.2v-6.4h1.9c2.1,0,2.7,1.4,2.7,3.2s-0.6,3.2-2.7,3.2H24.4z M25.4,158.3h1c1.3,0,1.7-0.9,1.7-2.3
				s-0.4-2.3-1.7-2.3h-1V158.3z"/>
		</g>
		<g>
			<path class="st1" d="M29.9,159.2v-6.4h1v6.4H29.9z"/>
		</g>
		<g>
			<path class="st1" d="M36.1,157.3c0,1.2-0.7,2-2.4,2c-0.6,0-1.3-0.1-1.9-0.4V158c0.6,0.3,1.2,0.4,1.8,0.4c1.1,0,1.5-0.5,1.5-1.1
				s-0.3-0.9-1.2-1c-1.6-0.2-2.2-0.6-2.2-1.8c0-0.9,0.5-1.8,2.3-1.8c0.6,0,1.2,0.1,1.7,0.3v1c-0.5-0.2-1.1-0.3-1.7-0.3
				c-1,0-1.3,0.4-1.3,1s0.4,0.8,1.2,0.9C35.3,155.7,36.1,156,36.1,157.3z"/>
		</g>
		<g>
			<path class="st1" d="M39.8,157.6h-2l-0.5,1.6h-1l2-6.4h1l2,6.4h-1L39.8,157.6z M38.8,154l-0.8,2.8h1.6L38.8,154z"/>
		</g>
		<g>
			<path class="st1" d="M45.8,157.3c0,1.2-0.7,2-2.4,2c-0.6,0-1.3-0.1-1.9-0.4V158c0.6,0.3,1.2,0.4,1.8,0.4c1.2,0,1.5-0.5,1.5-1.1
				s-0.3-0.9-1.2-1c-1.6-0.2-2.2-0.6-2.2-1.8c0-0.9,0.5-1.8,2.3-1.8c0.6,0,1.2,0.1,1.7,0.3v1c-0.5-0.2-1.1-0.3-1.7-0.3
				c-1,0-1.3,0.4-1.3,1s0.4,0.8,1.2,0.9C45,155.7,45.8,156,45.8,157.3z"/>
		</g>
		<g>
			<path class="st1" d="M48.6,153.7v5.5h-1v-5.5H46v-0.9h4.3v0.9H48.6z"/>
		</g>
		<g>
			<path class="st1" d="M54.3,156.3h-2.6v2h2.9v0.9h-3.9v-6.4h3.9v0.9h-2.9v1.8h2.7L54.3,156.3z"/>
		</g>
		<g>
			<path class="st1" d="M56.4,159.2h-1v-6.4h2.1c1.7,0,2.2,0.7,2.2,1.9c0.1,0.7-0.3,1.4-1,1.7l1.3,2.8h-1.1l-1.2-2.6h-1.3V159.2z
				 M56.4,155.7h1.3c0.9,0,1-0.5,1-1s-0.1-1-1-1h-1.3V155.7z"/>
		</g>
		<g>
			<path class="st1" d="M63,159.2h-1v-6.4h2.1c1.6,0,2.2,0.7,2.2,1.9c0.1,0.7-0.3,1.4-1,1.7l1.3,2.8h-1.1l-1.2-2.6H63V159.2z
				 M63,155.7h1.3c0.9,0,1-0.5,1-1s-0.1-1-1-1H63V155.7z"/>
		</g>
		<g>
			<path class="st1" d="M67.2,159.2v-6.4h1v6.4H67.2z"/>
		</g>
		<g>
			<path class="st1" d="M73.5,157.3c0,1.2-0.7,2-2.4,2c-0.6,0-1.3-0.1-1.9-0.4V158c0.6,0.3,1.2,0.4,1.8,0.4c1.2,0,1.5-0.5,1.5-1.1
				s-0.3-0.9-1.2-1c-1.6-0.2-2.2-0.6-2.2-1.8c0-0.9,0.5-1.8,2.3-1.8c0.6,0,1.2,0.1,1.7,0.3v1c-0.5-0.2-1.1-0.3-1.7-0.3
				c-1,0-1.3,0.4-1.3,1s0.4,0.8,1.2,0.9C72.7,155.7,73.5,156,73.5,157.3z"/>
		</g>
		<g>
			<path class="st1" d="M75.8,156.4l-0.5,0.6v2.2h-1v-6.4h1v3l2.3-3h1.2l-2.3,2.8l2.6,3.6h-1.2L75.8,156.4z"/>
		</g>
		<g>
			<path class="st1" d="M7.8,168.2h-1v-6.4H9c1.6,0,2.2,0.7,2.2,1.9c0.1,0.7-0.3,1.4-1,1.7l1.3,2.8h-1.2l-1.1-2.6H7.8V168.2z
				 M7.8,164.7h1.3c0.9,0,1-0.5,1-1s-0.1-1-1-1H7.8V164.7z"/>
		</g>
		<g>
			<path class="st1" d="M15.7,165.3H13v2h3v0.9h-3.9v-6.4H16v0.9h-3v1.8h2.7L15.7,165.3z"/>
		</g>
		<g>
			<path class="st1" d="M16.8,168.2v-6.4h1.9c2.1,0,2.7,1.4,2.7,3.2s-0.6,3.2-2.7,3.2H16.8z M17.8,167.3h1c1.3,0,1.7-0.9,1.7-2.3
				s-0.4-2.3-1.7-2.3h-1V167.3z"/>
		</g>
		<g>
			<path class="st1" d="M22.1,166.2v-4.4H23v4.3c-0.1,0.7,0.4,1.3,1,1.3c0.1,0,0.2,0,0.3,0c0.6,0.1,1.3-0.3,1.4-1c0-0.1,0-0.2,0-0.3
				v-4.3h1v4.4c0.1,1.1-0.8,2.1-1.9,2.1c-0.1,0-0.3,0-0.4,0c-1.1,0.2-2.1-0.5-2.3-1.6C22.1,166.5,22.1,166.4,22.1,166.2z"/>
		</g>
		<g>
			<path class="st1" d="M30,161.7c0.5,0,1,0.1,1.5,0.3v0.9c-0.4-0.2-0.9-0.3-1.4-0.3c-1.2,0-1.7,0.8-1.7,2.4s0.5,2.4,1.7,2.4
				c0.5,0,1-0.1,1.4-0.3v0.9c-0.5,0.2-1,0.3-1.5,0.3c-1.9,0-2.6-1.2-2.6-3.3S28.1,161.7,30,161.7z"/>
		</g>
		<g>
			<path class="st1" d="M34.5,162.7v5.5h-1v-5.5h-1.6v-0.9h4.3v0.9H34.5z"/>
		</g>
		<g>
			<path class="st1" d="M36.9,168.2v-6.4h1v6.4H36.9z"/>
		</g>
		<g>
			<path class="st1" d="M38.8,165c0-1.8,0.4-3.3,2.5-3.3s2.5,1.5,2.5,3.3s-0.4,3.3-2.5,3.3S38.8,166.8,38.8,165z M39.8,165
				c0,1.5,0.3,2.4,1.5,2.4s1.5-0.9,1.5-2.4s-0.3-2.4-1.5-2.4S39.8,163.5,39.8,165L39.8,165z"/>
		</g>
		<g>
			<path class="st1" d="M48.2,168.2l-2.8-4.5v4.5h-0.9v-6.4h0.9l2.8,4.5v-4.5H49v6.4H48.2z"/>
		</g>
	</g>
	<g>
		<rect x="3.3" y="24" class="st1" width="94.8" height="94.8"/>
	</g>
	<g>
		<path class="st1" d="M98.2,20.7H3.3V3.3h94.8V20.7z M4.3,19.7h92.8V4.3H4.3L4.3,19.7z"/>
	</g>
	<g class="st2">
		<path class="st1" d="M6.7,6.9h4.5v1.4H9.9v8.8H8.1V8.3H6.7V6.9z"/>
	</g>
	<g class="st2">
		<path class="st1" d="M11.2,17.1l1.9-10.2h1.9L17,17.1h-1.8l-0.3-1.9h-1.8l-0.3,1.9H11.2z M13.3,13.9h1.4L14,9.8h0L13.3,13.9z"/>
	</g>
	<g class="st2">
		<path class="st1" d="M19.6,12.4v4.7h-1.7V6.9h2.5c1.7,0,2.4,0.9,2.4,2.3v1.3c0,1.1-0.4,1.7-1.4,2l1.6,4.6h-1.8L19.6,12.4z
			 M19.6,8.3v3.2h0.6c0.6,0,0.8-0.3,0.8-0.8V9.2c0-0.6-0.3-0.8-0.8-0.8H19.6z"/>
	</g>
	<g class="st2">
		<path class="st1" d="M26.4,11.7h2.4v5.4h-1.2V16c-0.2,0.8-0.7,1.2-1.6,1.2c-1.5,0-2.1-1.2-2.1-2.7V9.6c0-1.6,0.8-2.7,2.6-2.7
			c1.9,0,2.4,1.1,2.4,2.6v0.9h-1.6v-1c0-0.6-0.2-1-0.9-1c-0.6,0-0.9,0.4-0.9,1v5.5c0,0.6,0.3,1,0.8,1c0.6,0,0.8-0.3,0.8-1V13h-0.8
			V11.7z"/>
	</g>
	<g class="st2">
		<path class="st1" d="M30.2,6.9h4.1v1.4h-2.4v2.9h1.7v1.4h-1.7v3.1h2.4v1.4h-4.1V6.9z"/>
	</g>
	<g class="st2">
		<path class="st1" d="M35.1,6.9h4.5v1.4h-1.4v8.8h-1.7V8.3h-1.4V6.9z"/>
	</g>
	<g class="st2">
		<path class="st1" d="M89.4,6.9h2.5c1.7,0,2.3,0.8,2.3,2.2v1c0,0.9-0.3,1.4-1,1.6c0.9,0.2,1.3,0.8,1.3,1.7v1.3
			c0,1.4-0.6,2.2-2.4,2.2h-2.7V6.9z M91.1,11.2h0.6c0.6,0,0.8-0.3,0.8-0.8V9.2c0-0.6-0.3-0.8-0.8-0.8h-0.6V11.2z M91.1,12.5v3.2h0.8
			c0.6,0,0.8-0.3,0.8-0.8v-1.5c0-0.5-0.3-0.8-0.9-0.8H91.1z"/>
	</g>
	<g class="st2">
		<path class="st1" d="M78.9,6.9v10.2h-1.7V9.3h0l-1.2,1.2h0V8.8l1.6-1.8H78.9z"/>
	</g>
	<g class="st2">
		<path class="st1" d="M82.9,6.9v10.2h-1.7V9.3h0L80,10.5h0V8.8l1.6-1.8H82.9z"/>
	</g>
	<g>
		<polygon class="st1" points="85.4,9.9 85.4,14.1 87.6,12 		"/>
	</g>
	<g>
		<path class="st1" d="M98.2,171.9h-95v-49.7h95V171.9z M4.2,170.9h93v-47.7h-93V170.9z"/>
	</g>
	<g>
		<g>
			<g>
				<polygon class="st0" points="40.6,58.6 39.1,58.6 39.1,86.9 59.4,86.9 59.4,85.2 40.6,85.2 				"/>
			</g>
			<g>
				<path class="st0" d="M42.2,55.2v28.3h20.2V55.2H42.2z M60,78.5c0,0.1-0.1,0.1-0.2,0.1h-15c-0.1,0-0.2,0-0.2-0.1v-2.4
					c0-0.1,0.1-0.1,0.2-0.1h15c0.1,0,0.2,0,0.2,0.1V78.5z M60,74.4c0,0-0.1,0.1-0.2,0.1h-15c-0.1,0-0.2,0-0.2-0.1V72
					c0,0,0.1-0.1,0.2-0.1h15c0.1,0,0.2,0.1,0.2,0.1V74.4z M60,70.1c0,0.1-0.1,0.1-0.2,0.1h-15c-0.1,0-0.2,0-0.2-0.1v-2.4
					c0,0,0.1-0.1,0.2-0.1h15c0.1,0,0.2,0,0.2,0.1V70.1z"/>
			</g>
		</g>
		<g>
			<path class="st0" d="M62.6,33.8c-1.3-1-3-1.5-4.6-1.5c-0.4,0-0.8,0-1.1,0.1h-0.1c-2.1,0.4-3.9,1.6-5.1,3.4l-0.1,0.1
				c0,0,0,0.1,0,0.2c0,0,0,0.1,0,0.1v0.1c0.4,0.6,0.7,1.1,0.9,1.5c0.1,0.1,0.3,0.2,0.4,0.1c0,0,0,0,0.1,0l0,0
				c1.9-2.6,3.3-2.9,4.3-3.1h0.1c0.2,0,0.4,0,0.6,0c1.2,0,2.3,0.3,3.2,1c1.1,1,1.7,2.5,1.6,4c0,3.1-1.5,4.3-2.7,4.7
				c-0.5,0.2-1,0.3-1.5,0.3c-0.8,0-1.6-0.2-2.3-0.5h-0.1c-1.1-0.5-2.7-1.4-4.2-4.5c-3.1-6.2-5.7-6.8-7.4-7.2h-0.1
				c-0.4-0.1-0.7-0.1-1.1-0.1c-1.7,0-3.3,0.5-4.6,1.5c-1.7,1.5-2.6,3.6-2.5,5.8c-0.2,3.7,2.6,6.9,6.3,7.2c0.2,0,0.4,0,0.5,0
				c0.5,0,1.1-0.1,1.6-0.2c1-0.2,1.9-0.6,2.7-1.2l0.9,0.8c0.1,0.1,0.3,0.1,0.4,0c0,0,0.1-0.1,0.1-0.2l0.7-4.3v0c0-0.1,0-0.1-0.1-0.2
				c-0.1,0-0.1-0.1-0.2-0.1l0,0L45,42.6h0c-0.1,0-0.1,0-0.1,0.1c-0.1,0-0.1,0.1-0.1,0.2c0,0.1,0,0.1,0.1,0.2l0.9,0.8
				c-0.4,0.3-0.9,0.5-1.4,0.5c-0.4,0.1-0.7,0.1-1.1,0.1c-1.4,0-2.7-0.6-3.6-1.6l0,0c-0.7-0.9-1.1-2.1-1-3.2c-0.1-1.5,0.5-3,1.6-4
				c0.9-0.7,2-1,3.1-1c0.2,0,0.4,0,0.6,0h0.1c1.4,0.3,3.3,0.7,5.9,6c1,2.4,2.9,4.4,5.3,5.5c1,0.5,2.2,0.8,3.3,0.8
				c0.8,0,1.6-0.1,2.3-0.4c1.3-0.5,4.2-2.1,4.2-6.9C65.3,37.4,64.4,35.2,62.6,33.8z"/>
		</g>
		<g>
			<g>
				<g>
					<path class="st0" d="M79.9,74.7h1.9c0.1,0,0.1,0.1,0.1,0.1v4.6c0,0.1-0.1,0.1-0.1,0.1h-1.9c-0.1,0-0.1-0.1-0.1-0.1v-4.6
						C79.7,74.8,79.8,74.7,79.9,74.7z"/>
				</g>
				<g>
					<path class="st0" d="M73.2,66c0-1.8,1.5-3.3,3.3-3.3l0,0h0.2c0.2-2.5,2.4-4.3,4.9-4.1c2.3,0.2,4.1,2.1,4.1,4.4
						c0,0.7-0.2,1.4-0.4,2c2.8,0.3,4.8,2.8,4.5,5.6c-0.3,2.8-2.8,4.8-5.6,4.4h-6.7l0,0c-2,0-3.6-1.6-3.6-3.6c0-0.9,0.3-1.8,1-2.4
						C73.8,68.4,73.1,67.2,73.2,66z"/>
				</g>
			</g>
			<g>
				<g>
					<circle class="st0" cx="71.6" cy="82.4" r="0.8"/>
				</g>
				<g>
					<circle class="st0" cx="75.2" cy="82.4" r="0.8"/>
				</g>
				<g>
					<circle class="st0" cx="78.8" cy="82.4" r="0.8"/>
				</g>
				<g>
					<circle class="st0" cx="82.4" cy="82.4" r="0.8"/>
				</g>
				<g>
					<circle class="st0" cx="86" cy="82.4" r="0.8"/>
				</g>
				<g>
					<circle class="st0" cx="89.6" cy="82.4" r="0.8"/>
				</g>
				<g>
					<circle class="st0" cx="73.4" cy="79.6" r="0.8"/>
				</g>
				<g>
					<circle class="st0" cx="77" cy="79.6" r="0.8"/>
				</g>
				<g>
					<circle class="st0" cx="84.2" cy="79.6" r="0.8"/>
				</g>
				<g>
					<circle class="st0" cx="87.8" cy="79.6" r="0.8"/>
				</g>
			</g>
		</g>
		<g>
			
				<rect x="64.1" y="42.3" transform="matrix(0.7035 -0.7107 0.7107 0.7035 -6.9991 69.0806)" class="st0" width="30.4" height="1.3"/>
		</g>
		<g>
			
				<rect x="78.6" y="83.9" transform="matrix(0.7107 -0.7035 0.7035 0.7107 -46.8092 84.4748)" class="st0" width="1.3" height="30.4"/>
		</g>
		<g>
			
				<rect x="21.5" y="27.7" transform="matrix(0.7107 -0.7035 0.7035 0.7107 -23.7857 28.0261)" class="st0" width="1.3" height="30.4"/>
		</g>
		<g>
			
				<rect x="7" y="98.5" transform="matrix(0.7035 -0.7107 0.7107 0.7035 -63.8768 45.1518)" class="st0" width="30.4" height="1.3"/>
		</g>
		<g>
			<g>
				<path class="st0" d="M20.8,65.1c1.3,0,2.4-1,2.4-2.3c0-1.3-1-2.4-2.3-2.4c-1.3,0-2.4,1-2.4,2.3c0,0,0,0,0,0
					C18.5,64.1,19.5,65.1,20.8,65.1z"/>
			</g>
			<g>
				<path class="st0" d="M30.6,79.6l-1-1.9l0,0L27.3,73c-0.2-0.4-0.7-0.7-1.1-0.6h-3.3l-0.1-4.2c0-1.3-0.3-2-1.3-2.3
					c-0.5-0.1-1-0.1-1.4,0h-0.1l0,0l-3.9,1.3h-0.1h-0.1l0,0c-0.2,0.1-0.4,0.3-0.4,0.5l-1.1,3.2c-0.2,0.5,0.1,1.1,0.6,1.3
					c0.5,0.2,1.1-0.1,1.3-0.6l1-2.7l1.5-0.5h0.1v4.4c0,1,0.3,2,1.3,2.3l0.3,0.1c0.2,0,0.3,0,0.5,0h5l1.3,2.5v0.1l0.5,0.9l0.5,0.9
					v0.1l0,0l0.5,0.9c0.3,0.6,1.1,0.8,1.7,0.5s0.8-1.1,0.5-1.7L30.6,79.6z"/>
			</g>
			<g>
				<path class="st0" d="M25.1,76.6h-1.8v0.2c0,0,0,0.1,0,0.2c0,2.5-2,4.6-4.6,4.6c-2.5,0-4.6-2-4.6-4.6c0-1,0.3-2.1,1-2.9l0.1-0.1
					l-1.4-1.1l-0.1,0.1c-2.2,2.8-1.7,6.8,1.1,9s6.8,1.7,9-1.1c0.9-1.1,1.3-2.5,1.4-3.9L25.1,76.6L25.1,76.6z"/>
			</g>
		</g>
		<g>
			<g>
				<path class="st0" d="M50.8,95.5l-5.2,4.4h-5.5v5.7h5.5l5.2,4.5c0.4,0.4,0.9,0.2,0.9-0.2V95.7C51.7,95.3,51.3,95,50.8,95.5z"/>
			</g>
			<g>
				<path class="st0" d="M55.7,99.9c0.9,1.9,0.8,4.1-0.2,6l1.3,0.9c0.7-1.2,1.1-2.7,1.1-4.1c0-1.3-0.3-2.5-0.9-3.7L55.7,99.9z"/>
			</g>
			<g>
				<path class="st0" d="M59.4,97.4c0.9,1.6,1.4,3.4,1.4,5.3c0,2-0.5,4-1.5,5.7l1.3,0.8c2.3-3.9,2.4-8.8,0.1-12.7L59.4,97.4z"/>
			</g>
		</g>
	</g>
</g>
</svg>
