<?xml version="1.0" encoding="utf-8"?>
<!-- Generator: Adobe Illustrator 22.0.1, SVG Export Plug-In . SVG Version: 6.00 Build 0)  -->
<svg version="1.1" id="Layer_1" xmlns="http://www.w3.org/2000/svg" xmlns:xlink="http://www.w3.org/1999/xlink" x="0px" y="0px"
	 viewBox="0 0 101.5 157.1" style="enable-background:new 0 0 101.5 157.1;" xml:space="preserve">
<style type="text/css">
	.st0{fill:#FFFFFF;}
	.st1{fill:#FD9D24;}
	.st2{enable-background:new    ;}
</style>
<title>Artboard 23</title>
<g id="WHITE_BG">
	<g>
		<rect y="0" class="st0" width="101.5" height="157.1"/>
	</g>
</g>
<g id="TARGETS">
	<g>
		<g>
			<path class="st1" d="M7,132.2v-6.4h1v6.4H7z"/>
		</g>
		<g>
			<path class="st1" d="M12.8,132.2l-2.8-4.5v4.5H9.1v-6.4h0.9l2.8,4.5v-4.5h0.9v6.4L12.8,132.2z"/>
		</g>
		<g>
			<path class="st1" d="M17.1,125.7c0.5,0,1,0.1,1.5,0.3v0.9c-0.5-0.2-0.9-0.3-1.4-0.3c-1.2,0-1.7,0.8-1.7,2.4
				c0,1.6,0.5,2.4,1.7,2.4c0.5,0,1-0.1,1.4-0.3v0.9c-0.5,0.2-1,0.3-1.5,0.3c-1.9,0-2.6-1.2-2.6-3.3S15.2,125.7,17.1,125.7z"/>
		</g>
		<g>
			<path class="st1" d="M20.4,131.3h2.8v0.9h-3.7v-6.4h1V131.3z"/>
		</g>
		<g>
			<path class="st1" d="M23.7,130.2v-4.4h1v4.3c-0.1,0.6,0.4,1.2,1,1.3c0.1,0,0.2,0,0.4,0c0.6,0.1,1.3-0.3,1.4-1c0-0.1,0-0.2,0-0.3
				v-4.3h1v4.4c0,1.1-0.8,2.1-2,2.1c-0.1,0-0.2,0-0.3,0c-1.1,0.2-2.1-0.6-2.3-1.6C23.7,130.5,23.7,130.4,23.7,130.2z"/>
		</g>
		<g>
			<path class="st1" d="M33.4,130.3c0,1.2-0.7,2-2.4,2c-0.6,0-1.3-0.1-1.9-0.4V131c0.6,0.3,1.2,0.4,1.8,0.4c1.2,0,1.5-0.5,1.5-1.1
				s-0.3-0.9-1.2-1c-1.5-0.2-2.2-0.6-2.2-1.8c0-0.9,0.5-1.8,2.3-1.8c0.6,0,1.2,0.1,1.7,0.3v1c-0.5-0.2-1.1-0.3-1.7-0.3
				c-1,0-1.3,0.4-1.3,1s0.4,0.8,1.2,0.9C32.6,128.7,33.4,129,33.4,130.3z"/>
		</g>
		<g>
			<path class="st1" d="M34.3,132.2v-6.4h1v6.4H34.3z"/>
		</g>
		<g>
			<path class="st1" d="M40.9,125.8l-2,6.5H38l-2-6.5h1l1.4,5.2l1.5-5.2L40.9,125.8z"/>
		</g>
		<g>
			<path class="st1" d="M45.1,129.3h-2.7v2h2.9v0.9h-3.9v-6.4h3.9v0.9h-2.9v1.8h2.7V129.3z"/>
		</g>
		<g>
			<path class="st1" d="M50.8,130.6h-2l-0.5,1.6h-1l2-6.4h1l2,6.4h-1L50.8,130.6z M49.8,127l-0.8,2.8h1.6L49.8,127z"/>
		</g>
		<g>
			<path class="st1" d="M56.5,132.2l-2.8-4.5v4.5h-1v-6.4h0.9l2.8,4.5v-4.5h0.9v6.4L56.5,132.2z"/>
		</g>
		<g>
			<path class="st1" d="M58.3,132.2v-6.4h1.9c2.1,0,2.7,1.4,2.7,3.2s-0.6,3.2-2.7,3.2H58.3z M59.2,131.3h1c1.3,0,1.7-0.9,1.7-2.3
				s-0.4-2.3-1.7-2.3h-1V131.3z"/>
		</g>
		<g>
			<path class="st1" d="M11.1,139.3c0,1.2-0.7,2-2.4,2c-0.6,0-1.3-0.1-1.9-0.4V140c0.6,0.3,1.2,0.4,1.8,0.4c1.1,0,1.5-0.5,1.5-1.1
				s-0.3-0.9-1.2-1c-1.6-0.2-2.2-0.6-2.2-1.8c0-0.9,0.5-1.9,2.3-1.9c0.6,0,1.2,0.1,1.7,0.3v1c-0.5-0.2-1.1-0.3-1.7-0.3
				c-1,0-1.3,0.4-1.3,1s0.4,0.8,1.2,0.9C10.3,137.7,11.1,138,11.1,139.3z"/>
		</g>
		<g>
			<path class="st1" d="M11.7,139.2v-4.4h1v4.3c-0.1,0.7,0.4,1.2,1,1.3c0.1,0,0.2,0,0.3,0c0.6,0.1,1.2-0.3,1.4-1c0-0.1,0-0.2,0-0.3
				v-4.3h1v4.4c0,1.1-0.8,2.1-2,2.1c-0.1,0-0.3,0-0.4,0c-1.1,0.1-2.2-0.6-2.3-1.8C11.7,139.4,11.7,139.3,11.7,139.2z"/>
		</g>
		<g>
			<path class="st1" d="M21.3,139.3c0,1.2-0.7,2-2.4,2c-0.6,0-1.3-0.1-1.9-0.4V140c0.6,0.3,1.2,0.4,1.8,0.4c1.1,0,1.5-0.5,1.5-1.1
				s-0.3-0.9-1.2-1c-1.5-0.2-2.2-0.6-2.2-1.8c0-0.9,0.5-1.9,2.3-1.9c0.6,0,1.2,0,1.8,0.3v1c-0.5-0.2-1.1-0.3-1.7-0.3
				c-1,0-1.3,0.4-1.3,1s0.4,0.8,1.2,0.9C20.5,137.7,21.3,138,21.3,139.3z"/>
		</g>
		<g>
			<path class="st1" d="M24,135.7v5.5h-1v-5.5h-1.6v-0.9h4.3v0.9H24z"/>
		</g>
		<g>
			<path class="st1" d="M28.7,139.6h-2l-0.5,1.6h-1l2-6.4h1l2,6.4h-1L28.7,139.6z M27.7,136l-0.8,2.8h1.6L27.7,136z"/>
		</g>
		<g>
			<path class="st1" d="M30.9,141.2v-6.4h1v6.4H30.9z"/>
		</g>
		<g>
			<path class="st1" d="M36.6,141.2l-2.8-4.5v4.5h-0.9v-6.4h0.9l2.8,4.5v-4.5h0.9v6.4H36.6z"/>
		</g>
		<g>
			<path class="st1" d="M41.5,139.6h-2l-0.5,1.6h-1l2-6.4h1l2,6.4h-1L41.5,139.6z M40.5,136l-0.8,2.8h1.6L40.5,136z"/>
		</g>
		<g>
			<path class="st1" d="M43.5,134.8h2.2c1.5,0,2,0.8,2,1.8c0,0.5-0.3,1-0.8,1.3c0.6,0.2,1.1,0.8,1,1.5c0,1-0.5,1.9-2.2,1.9h-2.2
				L43.5,134.8z M45.7,135.7h-1.2v1.8h1.2c0.8,0,0.9-0.5,0.9-0.9S46.5,135.7,45.7,135.7z M44.5,140.3h1.3c0.9,0,1.1-0.5,1.1-1
				s-0.3-1-1.1-1h-1.3L44.5,140.3z"/>
		</g>
		<g>
			<path class="st1" d="M49.6,140.3h2.8v0.9h-3.7v-6.4h1L49.6,140.3z"/>
		</g>
		<g>
			<path class="st1" d="M56.5,138.3h-2.6v2h2.9v0.9h-3.9v-6.4h3.9v0.9h-2.9v1.8h2.7L56.5,138.3z"/>
		</g>
		<g>
			<path class="st1" d="M6.8,148.2v-4.4h1v4.3c-0.1,0.6,0.4,1.2,1,1.3c0.1,0,0.2,0,0.3,0c0.6,0.1,1.2-0.3,1.4-1c0-0.1,0-0.2,0-0.3
				v-4.3h1v4.4c0.1,1.1-0.8,2.1-1.9,2.1c-0.2,0-0.3,0-0.4,0c-1.1,0.2-2.1-0.5-2.4-1.5C6.8,148.6,6.8,148.4,6.8,148.2z"/>
		</g>
		<g>
			<path class="st1" d="M13.3,150.2h-0.9v-6.4h2.1c1.7,0,2.2,0.7,2.2,1.9c0.1,0.7-0.3,1.4-1,1.7l1.3,2.8h-1.2l-1.1-2.6h-1.3V150.2z
				 M13.3,146.7h1.3c0.9,0,1-0.5,1-1s-0.1-1-1-1h-1.3V146.7z"/>
		</g>
		<g>
			<path class="st1" d="M17.6,143.8h2.1c1.5,0,2,0.8,2,1.8c0,0.5-0.3,1-0.8,1.3c0.6,0.2,1.1,0.8,1,1.5c0,1-0.5,1.9-2.2,1.9h-2.2
				L17.6,143.8z M19.7,144.7h-1.2v1.8h1.2c0.8,0,0.9-0.5,0.9-0.9S20.6,144.7,19.7,144.7z M18.5,149.3h1.3c0.9,0,1.1-0.5,1.1-1
				s-0.3-1-1.1-1h-1.3L18.5,149.3z"/>
		</g>
		<g>
			<path class="st1" d="M25.8,148.6h-2l-0.5,1.6h-1l2-6.4h1l2,6.4h-1L25.8,148.6z M24.8,145l-0.8,2.8h1.6L24.8,145z"/>
		</g>
		<g>
			<path class="st1" d="M31.5,150.2l-2.8-4.5v4.5h-0.9v-6.4h0.9l2.8,4.5v-4.5h0.9v6.4H31.5z"/>
		</g>
		<g>
			<path class="st1" d="M33.4,150.2v-6.4h1v6.4H33.4z"/>
		</g>
		<g>
			<path class="st1" d="M35.2,150.2v-0.6l3.3-4.8h-3v-0.9h4.3v0.6l-3.3,4.8h3.4v0.9H35.2z"/>
		</g>
		<g>
			<path class="st1" d="M43.6,148.6h-2l-0.5,1.6h-1l2-6.4h1l2,6.4h-1L43.6,148.6z M42.6,145l-0.8,2.8h1.6L42.6,145z"/>
		</g>
		<g>
			<path class="st1" d="M47.2,144.7v5.5h-1v-5.5h-1.7v-0.9h4.3v0.9H47.2z"/>
		</g>
		<g>
			<path class="st1" d="M49.5,150.2v-6.4h1v6.4H49.5z"/>
		</g>
		<g>
			<path class="st1" d="M51.4,147c0-1.8,0.4-3.3,2.5-3.3s2.5,1.5,2.5,3.3s-0.4,3.3-2.5,3.3S51.4,148.8,51.4,147z M52.4,147
				c0,1.5,0.3,2.4,1.5,2.4s1.5-0.9,1.5-2.4s-0.3-2.4-1.5-2.4S52.4,145.5,52.4,147L52.4,147z"/>
		</g>
		<g>
			<path class="st1" d="M60.8,150.2l-2.8-4.5v4.5h-0.9v-6.4H58l2.8,4.5v-4.5h1v6.4L60.8,150.2z"/>
		</g>
	</g>
	<g>
		<rect x="3.3" y="24" class="st1" width="94.8" height="94.8"/>
	</g>
	<g>
		<path class="st1" d="M98.2,20.7H3.3V3.3h94.8V20.7z M4.3,19.7h92.8V4.3H4.3L4.3,19.7z"/>
	</g>
	<g class="st2">
		<path class="st1" d="M6.7,6.9h4.5v1.4H9.9v8.8H8.1V8.3H6.7V6.9z"/>
	</g>
	<g class="st2">
		<path class="st1" d="M11.2,17.1l1.9-10.2h1.9L17,17.1h-1.8l-0.3-1.9h-1.8l-0.3,1.9H11.2z M13.3,13.9h1.4L14,9.8h0L13.3,13.9z"/>
	</g>
	<g class="st2">
		<path class="st1" d="M19.6,12.4v4.7h-1.7V6.9h2.5c1.7,0,2.4,0.9,2.4,2.3v1.3c0,1.1-0.4,1.7-1.4,2l1.6,4.6h-1.8L19.6,12.4z
			 M19.6,8.3v3.2h0.6c0.6,0,0.8-0.3,0.8-0.8V9.2c0-0.6-0.3-0.8-0.8-0.8H19.6z"/>
	</g>
	<g class="st2">
		<path class="st1" d="M26.4,11.7h2.4v5.4h-1.2V16c-0.2,0.8-0.7,1.2-1.6,1.2c-1.5,0-2.1-1.2-2.1-2.7V9.6c0-1.6,0.8-2.7,2.6-2.7
			c1.9,0,2.4,1.1,2.4,2.6v0.9h-1.6v-1c0-0.6-0.2-1-0.9-1c-0.6,0-0.9,0.4-0.9,1v5.5c0,0.6,0.3,1,0.8,1c0.6,0,0.8-0.3,0.8-1V13h-0.8
			V11.7z"/>
	</g>
	<g class="st2">
		<path class="st1" d="M30.2,6.9h4.1v1.4h-2.4v2.9h1.7v1.4h-1.7v3.1h2.4v1.4h-4.1V6.9z"/>
	</g>
	<g class="st2">
		<path class="st1" d="M35.1,6.9h4.5v1.4h-1.4v8.8h-1.7V8.3h-1.4V6.9z"/>
	</g>
	<g class="st2">
		<path class="st1" d="M79.6,6.9v10.2h-1.7V9.3h0l-1.2,1.2h0V8.8l1.6-1.8H79.6z"/>
	</g>
	<g class="st2">
		<path class="st1" d="M83.7,6.9v10.2H82V9.3h0l-1.2,1.2h0V8.8l1.6-1.8H83.7z"/>
	</g>
	<g class="st2">
	</g>
	<g class="st2">
		<path class="st1" d="M86.8,10.8c0.7,0,1.2,0.6,1.2,1.2c0,0.7-0.6,1.2-1.2,1.2c-0.7,0-1.2-0.6-1.2-1.2
			C85.6,11.4,86.1,10.8,86.8,10.8z"/>
	</g>
	<g class="st2">
		<path class="st1" d="M94.3,9.1V10c0,0.9-0.5,1.4-1.2,1.7c0.9,0.2,1.3,0.8,1.3,1.7v1.5c0,1.4-0.8,2.3-2.5,2.3c-1.7,0-2.4-1-2.4-2.5
			v-1.3h1.6v1.5c0,0.6,0.2,1,0.8,1c0.5,0,0.8-0.4,0.8-0.9v-1.7c0-0.5-0.2-0.8-0.8-0.8h-0.7v-1.3h0.6c0.6,0,0.9-0.3,0.9-0.8V9.2
			c0-0.6-0.2-0.9-0.7-0.9s-0.7,0.4-0.7,1v1h-1.6V9.4c0-1.5,0.6-2.6,2.4-2.6C93.6,6.8,94.3,7.7,94.3,9.1z"/>
	</g>
	<g>
		<path class="st1" d="M98.2,153.8H3.3v-31.6h94.8V153.8z M4.3,152.8h92.8v-29.6H4.3L4.3,152.8z"/>
	</g>
	<g>
		<g>
			<g>
				<g>
					<path class="st0" d="M40.1,97.6c-0.4-0.2-0.8,0-1,0.3c-0.4,0.7-0.8,1.4-1.3,2c-0.2,0.2-0.4,0.3-0.6,0.3h-2.4
						c-0.2,0-0.5-0.1-0.6-0.3c-0.3-0.3-1.2-2-1.3-2c-0.1-0.2-0.4-0.3-0.6-0.3c-0.4,0-0.7,0.3-0.7,0.7l0,0c0,0.1,0,0.2,0.1,0.3l2,3.7
						c0.1,0.2,0.1,0.3,0.1,0.5v0.5l0,0c0,0.2,0,0.4-0.1,0.6l-1,3.8h1.1v2.9l0,0c0,0.6,0.4,1,1,1s1-0.4,1-1v-2.9h0.6c0,0,0,0.1,0,0.1
						v2.7c0,0.6,0.4,1,1,1s1-0.4,1-1v-2.9h1.1l-1-3.8c0-0.2-0.1-0.3-0.1-0.5v-0.1l0,0v-0.5c0-0.2,0.1-0.3,0.1-0.5l1.9-3.4
						c0,0,0.1-0.2,0.2-0.4c0.2-0.3,0.1-0.7-0.2-0.9C40.2,97.7,40.2,97.6,40.1,97.6z"/>
				</g>
				<g>
					<path class="st0" d="M36,98.9c1.1,0,2-0.9,2-2s-0.9-2-2-2s-2,0.9-2,2S34.9,98.9,36,98.9z"/>
				</g>
			</g>
			<g>
				<g>
					<path class="st0" d="M64.1,94c1.3,0,2.3-1,2.3-2.3c0-1.3-1-2.3-2.3-2.3c-1.3,0-2.3,1-2.3,2.3l0,0C61.8,93,62.8,94,64.1,94z"/>
				</g>
				<g>
					<path class="st0" d="M73.6,108l-1-1.9l0,0l-2.3-4.5c-0.2-0.4-0.6-0.6-1.1-0.6H66L65.9,97c0-1.2-0.3-1.9-1.3-2.2
						c-0.5-0.1-0.9-0.1-1.4,0h-0.1l0,0L59.3,96h-0.1h-0.1l0,0c-0.2,0.1-0.3,0.3-0.4,0.5l-1.1,3.1c-0.3,0.4-0.2,1.1,0.2,1.4
						c0.4,0.3,1.1,0.2,1.4-0.2c0.1-0.2,0.2-0.3,0.2-0.5l0.9-2.6l1.4-0.5h0.1v4.3c0,1,0.3,1.9,1.3,2.2l0.3,0.1c0.2,0,0.3,0,0.5,0h4.8
						l1.2,2.6v0.1l0.5,0.9l0.4,0.9v0.1l0,0l0.5,0.9c0.3,0.6,1,0.9,1.6,0.5S73.9,108.6,73.6,108z"/>
				</g>
				<g>
					<path class="st0" d="M68.2,105.2h-1.8v0.2c0,0,0,0.1,0,0.1c0,2.5-2,4.4-4.5,4.4c-2.5,0-4.4-2-4.4-4.5c0-1,0.3-1.9,0.9-2.7
						l0.1-0.1l-1.4-1.1l-0.1,0.1c-2.1,2.7-1.6,6.6,1.1,8.7c2.7,2.1,6.6,1.6,8.7-1.1c0.9-1.1,1.3-2.4,1.3-3.8c0-0.1,0-0.1,0-0.2
						L68.2,105.2z"/>
				</g>
			</g>
			<g>
				<g>
					<path class="st0" d="M48.3,87.3c1.4,0,2.5-1.1,2.5-2.5s-1.1-2.5-2.5-2.5c-1.4,0-2.5,1.1-2.5,2.5c0,0,0,0,0,0
						C45.8,86.2,46.9,87.3,48.3,87.3C48.3,87.3,48.3,87.3,48.3,87.3z"/>
				</g>
				<g>
					<path class="st0" d="M51.2,88.2h-5.8c-1.7,0.2-3,1.6-3,3.3v6.9c-0.2,0.5,0.1,1.1,0.7,1.2c0.5,0.2,1.1-0.1,1.2-0.7
						c0.1-0.2,0.1-0.4,0-0.6v-5.9c0-0.2,0.1-0.5,0.5-0.5s0.3,0.3,0.3,0.5v17.8c0.1,0.8,0.7,1.3,1.5,1.3c0.7-0.1,1.2-0.6,1.3-1.3V100
						c0-0.2,0.2-0.4,0.4-0.4c0,0,0,0,0,0l0,0c0.2,0,0.4,0.2,0.4,0.4c0,0,0,0,0,0v10.2c0.1,0.8,0.7,1.3,1.5,1.3
						c0.7-0.1,1.2-0.6,1.3-1.3V92.5c0-0.2,0.1-0.5,0.3-0.5s0.5,0.3,0.5,0.5v5.9c-0.1,0.5,0.2,1.1,0.7,1.2s1.1-0.2,1.2-0.7
						c0-0.2,0-0.4,0-0.5v-6.9C54.2,89.8,52.9,88.4,51.2,88.2z"/>
				</g>
			</g>
			<g>
				<g>
					<path class="st0" d="M80.8,87.6c1.3,0,2.4-1.1,2.4-2.4c0-1.3-1.1-2.4-2.4-2.4c-1.3,0-2.4,1.1-2.4,2.4c0,0,0,0,0,0
						C78.3,86.5,79.4,87.6,80.8,87.6C80.8,87.6,80.8,87.6,80.8,87.6z"/>
				</g>
				<g>
					<path class="st0" d="M87.7,97.3l-2-6.6c0,0-0.7-1.9-2.3-1.9h-5.2c-1.6,0-2.3,1.9-2.3,1.9l-2,6.6c0,0-0.4,1.2,0.7,1.5
						s1.3-0.9,1.3-0.9l1.6-5.5c0,0,0.1-0.4,0.4-0.3s0.2,0.5,0.2,0.5L75.2,103h2.6v7.4c0,0.7,0.6,1.3,1.3,1.3c0.7,0,1.3-0.6,1.3-1.3
						l0,0V103h0.7v7.4c0.1,0.7,0.7,1.2,1.4,1.2c0.6-0.1,1.1-0.5,1.2-1.2V103h2.6l-2.8-10.4c0,0-0.1-0.4,0.2-0.5s0.4,0.3,0.4,0.3
						l1.6,5.5c0,0,0.3,1.2,1.3,0.9S87.7,97.3,87.7,97.3z"/>
				</g>
			</g>
			<g>
				<g>
					<path class="st0" d="M22.7,89.1c1.3,0,2.4-1,2.4-2.3c0-0.9-0.5-1.7-1.2-2.1c0.1-0.1,0.1-0.3,0.1-0.4c-0.2-0.7-0.8-1.1-1.5-0.9
						c-0.4,0.1-0.8,0.5-0.9,0.9c0,0.1,0,0.2,0.1,0.3c-1.2,0.5-1.7,1.9-1.1,3.1C20.9,88.6,21.7,89.1,22.7,89.1L22.7,89.1z"/>
				</g>
				<g>
					<path class="st0" d="M29.4,97.7l-2-6.4c0,0-0.7-1.8-2.2-1.8h-5c-1.5,0-2.2,1.8-2.2,1.8L16,97.7c0,0-0.3,1,0.4,1.4
						c0,0-0.1,0-0.1,0.1l-2.3,12c0,0.2,0.1,0.4,0.3,0.4c0,0,0,0,0,0h0.1c0.2,0,0.3-0.1,0.4-0.3l2.3-12c0,0,0-0.1,0-0.1
						c0.6-0.1,0.9-0.9,0.9-0.9l1.5-5.3c0,0,0.1-0.4,0.4-0.3s0.2,0.5,0.2,0.5l-2.8,10h2.6v7.2c0.1,0.7,0.7,1.2,1.3,1.1
						c0.6-0.1,1.1-0.5,1.1-1.1v-7.2H23v7.2c0.1,0.7,0.7,1.2,1.3,1.1c0.6-0.1,1.1-0.5,1.1-1.1v-7.2H28l-2.8-10c0,0-0.1-0.4,0.2-0.5
						s0.4,0.3,0.4,0.3l1.6,5.3c0,0,0.3,1.1,1.3,0.8S29.4,97.7,29.4,97.7z"/>
				</g>
			</g>
		</g>
		<g>
			<g>
				<path class="st0" d="M30.9,63c0-2-1.6-3.6-3.6-3.6h0h-0.2c-0.2-2.7-2.5-4.7-5.1-4.5c-2.6,0.2-4.6,2.3-4.5,4.9
					c0,0.8,0.2,1.5,0.5,2.2c-2.9,0.7-4.8,3.5-4.1,6.5c0.6,2.5,2.7,4.2,5.3,4.2h1.6V77c0,0.1,0.1,0.2,0.1,0.2c0,0,0,0,0,0h2
					c0.1,0,0.1-0.1,0.1-0.2v-4.4h3.3c2.1,0,3.8-1.7,3.8-3.8c0-1-0.4-1.9-1-2.6C30.2,65.5,30.9,64.3,30.9,63z"/>
			</g>
			<g>
				<g>
					<g>
						<path class="st0" d="M30.2,35.8c-1.6-1.8-4.5-1.9-6.3-0.3c-1.8,1.6-1.9,4.5-0.3,6.3c1.6,1.8,4.4,1.9,6.3,0.3
							C31.7,40.4,31.8,37.6,30.2,35.8z"/>
					</g>
					<g>
						<path class="st0" d="M30.8,42.6c-0.1-0.1-0.4-0.1-0.5,0c-0.1,0.1-0.1,0.4,0,0.5l1.3,1.4c0.1,0.1,0.4,0.1,0.5,0
							c0.1-0.1,0.1-0.4,0-0.5L30.8,42.6z"/>
					</g>
					<g>
						<path class="st0" d="M23,35c0.1,0.1,0.4,0.1,0.5,0c0.1-0.1,0.1-0.4,0-0.5l-1.3-1.4c-0.1-0.1-0.4-0.1-0.5,0
							c-0.1,0.1-0.1,0.4,0,0.5L23,35z"/>
					</g>
					<g>
						<path class="st0" d="M22.6,42.2l-1.4,1.3c-0.1,0.1-0.1,0.4,0,0.5c0.1,0.1,0.4,0.1,0.5,0l1.4-1.3c0.1-0.1,0.1-0.4,0-0.5
							C23,42.1,22.8,42.1,22.6,42.2z"/>
					</g>
					<g>
						<path class="st0" d="M31.1,35.4l1.4-1.3c0.1-0.1,0.1-0.4,0-0.5c-0.1-0.1-0.4-0.1-0.5,0l-1.4,1.3c-0.1,0.1-0.1,0.4,0,0.5
							C30.8,35.5,31,35.5,31.1,35.4z"/>
					</g>
					<g>
						<path class="st0" d="M28,43.8c-0.2,0-0.3,0.2-0.3,0.4l0.4,1.9c0.1,0.2,0.2,0.3,0.4,0.3c0.2-0.1,0.3-0.2,0.3-0.4L28.4,44
							C28.3,43.8,28.2,43.8,28,43.8z"/>
					</g>
					<g>
						<path class="st0" d="M25.8,33.8c0.2-0.1,0.3-0.2,0.3-0.4l-0.4-1.9c-0.1-0.2-0.2-0.3-0.4-0.2c-0.2,0-0.3,0.2-0.3,0.4l0.4,1.9
							C25.4,33.8,25.6,33.9,25.8,33.8z"/>
					</g>
					<g>
						<path class="st0" d="M21.9,39.9c0-0.2-0.2-0.3-0.4-0.3L19.6,40c-0.2,0.1-0.3,0.2-0.2,0.4c0,0.2,0.2,0.3,0.4,0.3l1.9-0.4
							C21.8,40.3,21.9,40.1,21.9,39.9z"/>
					</g>
					<g>
						<path class="st0" d="M34.4,37.1c-0.1-0.2-0.2-0.3-0.4-0.3l-1.9,0.4c-0.2,0.1-0.3,0.2-0.3,0.4c0,0.2,0.2,0.3,0.4,0.3l1.9-0.4
							C34.3,37.5,34.5,37.3,34.4,37.1z"/>
					</g>
					<g>
						<path class="st0" d="M25.3,43.7c-0.2-0.1-0.4,0-0.5,0.2l-0.6,1.8c0,0.2,0.1,0.4,0.2,0.4c0.2,0.1,0.4,0,0.5-0.2l0.6-1.8
							C25.6,43.9,25.5,43.7,25.3,43.7z"/>
					</g>
					<g>
						<path class="st0" d="M28.4,34c0.2,0.1,0.4,0,0.5-0.2l0.6-1.8c0.1-0.2,0-0.4-0.2-0.5c-0.2-0.1-0.4,0-0.5,0.2l-0.6,1.8
							C28.1,33.7,28.3,33.9,28.4,34z"/>
					</g>
					<g>
						<path class="st0" d="M19.8,36.9l1.9,0.6c0.2,0,0.4-0.1,0.4-0.2c0.1-0.2,0-0.4-0.2-0.5L20,36.2c-0.2-0.1-0.4,0-0.5,0.2
							C19.5,36.6,19.6,36.8,19.8,36.9L19.8,36.9z"/>
					</g>
					<g>
						<path class="st0" d="M34,40.7l-1.8-0.6c-0.2,0-0.4,0.1-0.4,0.3c0,0.2,0.1,0.3,0.2,0.4l1.9,0.6c0.2,0,0.4-0.1,0.4-0.2
							C34.3,41,34.2,40.8,34,40.7z"/>
					</g>
				</g>
				<g>
					<g>
						<path class="st0" d="M40.4,44.9l-0.8,0.8l3,0.7l-0.9-3l-0.8,0.8l-2.1-2c-0.2-0.1-0.4-0.1-0.5,0.1c-0.1,0.1-0.1,0.3,0,0.5
							L40.4,44.9z"/>
					</g>
					<g>
						<path class="st0" d="M39.4,50.1l-0.9-3L37.8,48l-2.1-2c-0.2-0.1-0.4-0.1-0.5,0c-0.1,0.2-0.1,0.4,0,0.5l2.1,2l-0.8,0.8
							L39.4,50.1z"/>
					</g>
				</g>
			</g>
			<g>
				<path class="st0" d="M38.4,54.8l9.5-12.1c0.1-0.1,0.3-0.1,0.4,0l0.1,0.1c0.1,0.1,0.1,0.3,0,0.4l-9.5,12.1
					c-0.1,0.1-0.3,0.1-0.4,0l-0.1-0.1C38.3,55.1,38.3,54.9,38.4,54.8z"/>
			</g>
			<g>
				<path class="st0" d="M68.1,31.3H56.7c-0.3,0-0.6,0.3-0.6,0.6v0v22.9h-4.8V41.1c0,0,0-0.1,0-0.1c0-0.1-0.2-0.2-0.3-0.2
					c-0.1,0-0.1,0-0.2,0.1l0,0L50.7,41l-3,3.8l-0.6,0.8L43,50.7l-3.3,4.1L38.1,57H38c-0.1,0.1-0.1,0.2-0.1,0.2v19.7
					c0,0.2,0.1,0.3,0.3,0.3c0,0,0,0,0,0h7.3v-0.3l0,0v-7c0-0.2,0.2-0.3,0.3-0.3h3.6c0.2,0,0.3,0.2,0.3,0.3v7.3h7.5v-7.4
					c0-0.2,0.2-0.4,0.4-0.4h3.7c0.2,0,0.4,0.2,0.4,0.4v7.3h6.6c0.2,0,0.3-0.1,0.3-0.3V31.8C68.7,31.5,68.4,31.3,68.1,31.3z M46,49.7
					l0.1-0.1c0.9-1.1,2.3-2.9,3-3.8l0.1-0.1c0.1-0.1,0.2-0.1,0.3-0.1c0.2,0,0.3,0.1,0.3,0.3v4c0,0.2-0.1,0.3-0.3,0.4h-3.2
					c-0.2,0-0.4-0.2-0.3-0.4C45.9,49.8,46,49.7,46,49.7z M44,72.1c0,0.2-0.2,0.4-0.3,0.4h-3.8c-0.2,0-0.4-0.2-0.3-0.4v-2.2
					c0-0.2,0.2-0.3,0.3-0.3h3.7c0.2,0,0.3,0.2,0.3,0.3L44,72.1z M44,67.6c0,0.2-0.1,0.3-0.3,0.3c0,0,0,0,0,0h-3.8
					c-0.2,0-0.3-0.1-0.3-0.3c0,0,0,0,0,0v-2.4c0-0.2,0.1-0.3,0.3-0.3h3.8c0.2,0,0.3,0.1,0.3,0.3L44,67.6z M44,63.2
					c0,0.2-0.1,0.3-0.3,0.3c0,0,0,0,0,0h-3.8c-0.2,0-0.3-0.1-0.3-0.3c0,0,0,0,0,0v-2.4c0-0.2,0.1-0.3,0.3-0.3c0,0,0,0,0,0h3.8
					c0.2,0,0.3,0.1,0.3,0.3c0,0,0,0,0,0L44,63.2z M44,58.8c0,0.2-0.1,0.3-0.3,0.3c0,0,0,0,0,0h-3.8c-0.2,0-0.3-0.1-0.3-0.3
					c0,0,0,0,0,0v-0.7c0,0,0-0.1,0-0.1l0,0l0,0v0c0.5-0.7,2.7-3.4,3.6-4.5l0.1-0.1c0.1-0.1,0.2-0.1,0.3-0.1c0.2,0,0.3,0.1,0.3,0.3
					L44,58.8z M49.8,67.6c0,0.2-0.1,0.3-0.3,0.3h-3.8c-0.2,0-0.3-0.1-0.3-0.3v-2.4c0-0.2,0.1-0.3,0.3-0.3c0,0,0,0,0,0h3.8
					c0.2,0,0.3,0.1,0.3,0.3c0,0,0,0,0,0L49.8,67.6z M49.8,63.2c0,0.2-0.1,0.3-0.3,0.3c0,0,0,0,0,0h-3.8c-0.2,0-0.3-0.1-0.3-0.3
					c0,0,0,0,0,0v-2.4c0-0.2,0.1-0.3,0.3-0.3c0,0,0,0,0,0h3.8c0.2,0,0.3,0.1,0.3,0.3c0,0,0,0,0,0L49.8,63.2z M49.8,58.8
					c0,0.2-0.1,0.3-0.3,0.3c0,0,0,0,0,0h-3.8c-0.2,0-0.3-0.1-0.3-0.3c0,0,0,0,0,0v-2.4c0-0.2,0.1-0.3,0.3-0.3c0,0,0,0,0,0h3.8
					c0.2,0,0.3,0.1,0.3,0.3c0,0,0,0,0,0L49.8,58.8z M49.8,54.4c0,0.2-0.1,0.3-0.3,0.3c0,0,0,0,0,0h-3.8c-0.2,0-0.3-0.1-0.3-0.3
					c0,0,0,0,0,0V52c0-0.2,0.1-0.3,0.3-0.3c0,0,0,0,0,0h3.8c0.2,0,0.3,0.1,0.3,0.3c0,0,0,0,0,0L49.8,54.4z M55.7,72.1
					c0,0.2-0.2,0.4-0.4,0.4c0,0,0,0,0,0h-3.6c-0.2,0-0.4-0.2-0.4-0.4c0,0,0,0,0,0v-2.2c0-0.2,0.2-0.4,0.4-0.4h3.7
					c0.2,0,0.4,0.2,0.4,0.4L55.7,72.1z M55.7,67.7c0,0.2-0.2,0.4-0.4,0.4c0,0,0,0,0,0h-3.6c-0.2,0-0.4-0.2-0.4-0.4c0,0,0,0,0,0v-2.2
					c0-0.2,0.2-0.4,0.4-0.4h3.7c0.2,0,0.4,0.2,0.4,0.4L55.7,67.7z M55.7,63.2c0,0.2-0.2,0.4-0.4,0.4c0,0,0,0,0,0h-3.6
					c-0.2,0-0.4-0.2-0.4-0.4c0,0,0,0,0,0V61c0-0.2,0.2-0.4,0.4-0.4h3.7c0.2,0,0.4,0.2,0.4,0.4L55.7,63.2z M55.7,58.7
					c0,0.2-0.2,0.4-0.4,0.4c0,0,0,0,0,0h-3.6c-0.2,0-0.4-0.2-0.4-0.4c0,0,0,0,0,0v-2.2c0-0.2,0.2-0.4,0.4-0.4c0,0,0,0,0,0h3.7
					c0.2,0,0.4,0.2,0.4,0.4c0,0,0,0,0,0L55.7,58.7z M61.7,67.7c0,0.2-0.2,0.4-0.4,0.4h-3.6c-0.2,0-0.4-0.2-0.4-0.4c0,0,0,0,0,0v-2.2
					c0-0.2,0.2-0.4,0.4-0.4h3.7c0.2,0,0.4,0.2,0.4,0.4L61.7,67.7z M61.7,63.2c0,0.2-0.2,0.4-0.4,0.4h-3.6c-0.2,0-0.4-0.2-0.4-0.4
					c0,0,0,0,0,0V61c0-0.2,0.2-0.4,0.4-0.4h3.7c0.2,0,0.4,0.2,0.4,0.4L61.7,63.2z M61.7,58.8c0,0.2-0.2,0.4-0.4,0.4h-3.6
					c-0.2,0-0.4-0.2-0.4-0.4c0,0,0,0,0,0v-2.2c0-0.2,0.2-0.4,0.4-0.4c0,0,0,0,0,0h3.7c0.2,0,0.4,0.2,0.4,0.4L61.7,58.8z M61.7,54.3
					c0,0.2-0.2,0.4-0.4,0.4h-3.6c-0.2,0-0.4-0.2-0.4-0.4c0,0,0,0,0,0v-2.2c0-0.2,0.2-0.4,0.4-0.4c0,0,0,0,0,0h3.7
					c0.2,0,0.4,0.2,0.4,0.4L61.7,54.3z M61.7,49.8c0,0.2-0.2,0.4-0.4,0.4h-3.6c-0.2,0-0.4-0.2-0.4-0.4c0,0,0,0,0,0v-2.2
					c0-0.2,0.2-0.4,0.4-0.4c0,0,0,0,0,0h3.7c0.2,0,0.4,0.2,0.4,0.4L61.7,49.8z M61.7,45.4c0,0.2-0.2,0.4-0.4,0.4h-3.6
					c-0.2,0-0.4-0.2-0.4-0.4c0,0,0,0,0,0v-2.2c0-0.2,0.2-0.4,0.4-0.4c0,0,0,0,0,0h3.7c0.2,0,0.4,0.2,0.4,0.4L61.7,45.4z M61.7,40.9
					c0,0.2-0.2,0.4-0.4,0.4h-3.6c-0.2,0-0.4-0.2-0.4-0.4c0,0,0,0,0,0v-2.2c0-0.2,0.2-0.4,0.4-0.4c0,0,0,0,0,0h3.7
					c0.2,0,0.4,0.2,0.4,0.4L61.7,40.9z M61.7,36.5c0,0.2-0.2,0.4-0.4,0.4h-3.6c-0.2,0-0.4-0.2-0.4-0.4c0,0,0,0,0,0v-2.2
					c0-0.2,0.2-0.4,0.4-0.4c0,0,0,0,0,0h3.7c0.2,0,0.4,0.2,0.4,0.4L61.7,36.5z M67.4,72.1c0,0.2-0.2,0.4-0.4,0.4c0,0,0,0,0,0h-3.6
					c-0.2,0-0.4-0.2-0.4-0.4v-2.2c0-0.2,0.2-0.4,0.4-0.4h3.7c0.2,0,0.4,0.2,0.4,0.4L67.4,72.1z M67.4,67.7c0,0.2-0.2,0.4-0.4,0.4
					c0,0,0,0,0,0h-3.6c-0.2,0-0.4-0.1-0.4-0.3c0,0,0,0,0,0v-2.3c0-0.2,0.2-0.4,0.4-0.4h3.7c0.2,0,0.4,0.2,0.4,0.4c0,0,0,0,0,0
					L67.4,67.7z M67.4,63.2c0,0.2-0.2,0.4-0.4,0.4c0,0,0,0,0,0h-3.6c-0.2,0-0.4-0.2-0.4-0.4V61c0-0.2,0.2-0.4,0.4-0.4h3.7
					c0.2,0,0.4,0.2,0.4,0.4L67.4,63.2z M67.4,58.8c0,0.2-0.2,0.4-0.4,0.4h-3.6c-0.2,0-0.4-0.2-0.4-0.4v-2.3c0-0.2,0.2-0.4,0.4-0.4
					h3.7c0.2,0,0.4,0.2,0.4,0.4c0,0,0,0,0,0L67.4,58.8z M67.4,54.3c0,0.2-0.2,0.4-0.4,0.4c0,0,0,0,0,0h-3.6c-0.2,0-0.4-0.2-0.4-0.4
					V52c0-0.2,0.2-0.4,0.4-0.4h3.7c0.2,0,0.4,0.2,0.4,0.4c0,0,0,0,0,0L67.4,54.3z M67.4,49.9c0,0.2-0.2,0.4-0.4,0.4h-3.6
					c-0.2,0-0.4-0.2-0.4-0.4v-2.3c0-0.2,0.2-0.4,0.4-0.4h3.7c0.2,0,0.4,0.2,0.4,0.4L67.4,49.9z M67.4,45.4c0,0.2-0.2,0.4-0.4,0.4
					c0,0,0,0,0,0h-3.6c-0.2,0-0.4-0.2-0.4-0.4v-2.3c0-0.2,0.2-0.4,0.4-0.4h3.7c0.2,0,0.4,0.2,0.4,0.4c0,0,0,0,0,0L67.4,45.4z
					 M67.4,41c0,0.2-0.2,0.4-0.4,0.4h-3.6c-0.2,0-0.4-0.1-0.4-0.4v-2.3c0-0.2,0.2-0.4,0.4-0.4h3.7c0.2,0,0.4,0.2,0.4,0.4L67.4,41z
					 M67.4,36.5c0,0.2-0.2,0.4-0.4,0.4c0,0,0,0,0,0h-3.6c-0.2,0-0.4-0.2-0.4-0.4v-2.3c0-0.2,0.2-0.4,0.4-0.4h3.7
					c0.2,0,0.4,0.2,0.4,0.4c0,0,0,0,0,0L67.4,36.5z"/>
			</g>
			<g>
				<path class="st0" d="M82.2,76.9V49.5c0-0.2-0.1-0.3-0.3-0.3H71.7c-0.2,0-0.3,0.1-0.3,0.3V77c0,0.2,0.1,0.3,0.3,0.3h0h10.2
					C82,77.3,82.1,77.2,82.2,76.9C82.2,77,82.2,77,82.2,76.9L82.2,76.9L82.2,76.9z M76,73.7c0,0.2-0.2,0.4-0.4,0.4c0,0,0,0,0,0h-2.4
					c-0.2,0-0.4-0.2-0.4-0.4c0,0,0,0,0,0v-2.2c0-0.2,0.2-0.4,0.4-0.4h2.4c0.2,0,0.4,0.2,0.4,0.4V73.7z M76,68.6
					c0,0.2-0.2,0.4-0.4,0.4c0,0,0,0,0,0h-2.4c-0.2,0-0.4-0.2-0.4-0.4c0,0,0,0,0,0v-2.2c0-0.2,0.2-0.4,0.4-0.4h2.4
					c0.2,0,0.4,0.2,0.4,0.4V68.6z M76,63.5c0,0.2-0.2,0.4-0.4,0.4c0,0,0,0,0,0h-2.4c-0.2,0-0.4-0.2-0.4-0.4c0,0,0,0,0,0v-2.2
					c0-0.2,0.2-0.4,0.4-0.4h2.4c0.2,0,0.4,0.2,0.4,0.4V63.5z M76,58.5c0,0.2-0.2,0.4-0.4,0.4c0,0,0,0,0,0h-2.4
					c-0.2,0-0.4-0.2-0.4-0.4c0,0,0,0,0,0v-2.2c0-0.2,0.2-0.4,0.4-0.4h2.4c0.2,0,0.4,0.2,0.4,0.4V58.5z M76,53.4
					c0,0.2-0.2,0.4-0.4,0.4c0,0,0,0,0,0h-2.4c-0.2,0-0.4-0.2-0.4-0.4c0,0,0,0,0,0v-2.2c0-0.2,0.2-0.4,0.4-0.4h2.4
					c0.2,0,0.4,0.2,0.4,0.4V53.4z M80.7,73.7c0,0.2-0.2,0.4-0.4,0.4c0,0,0,0,0,0h-2.4c-0.2,0-0.4-0.2-0.4-0.4c0,0,0,0,0,0v-2.2
					c0-0.2,0.2-0.4,0.4-0.4h2.4c0.2,0,0.4,0.2,0.4,0.4L80.7,73.7z M80.7,68.6c0,0.2-0.2,0.4-0.4,0.4c0,0,0,0,0,0h-2.4
					c-0.2,0-0.4-0.2-0.4-0.4c0,0,0,0,0,0v-2.2c0-0.2,0.2-0.4,0.4-0.4h2.4c0.2,0,0.4,0.2,0.4,0.4L80.7,68.6z M80.7,63.5
					c0,0.2-0.2,0.4-0.4,0.4c0,0,0,0,0,0h-2.4c-0.2,0-0.4-0.2-0.4-0.4c0,0,0,0,0,0v-2.2c0-0.2,0.2-0.4,0.4-0.4h2.4
					c0.2,0,0.4,0.2,0.4,0.4L80.7,63.5z M80.7,58.5c0,0.2-0.2,0.4-0.4,0.4c0,0,0,0,0,0h-2.4c-0.2,0-0.4-0.2-0.4-0.4c0,0,0,0,0,0v-2.2
					c0-0.2,0.2-0.4,0.4-0.4h2.4c0.2,0,0.4,0.2,0.4,0.4L80.7,58.5z M80.7,53.4c0,0.2-0.2,0.4-0.4,0.4c0,0,0,0,0,0h-2.4
					c-0.2,0-0.4-0.2-0.4-0.4c0,0,0,0,0,0v-2.2c0-0.2,0.2-0.4,0.4-0.4h2.4c0.2,0,0.4,0.2,0.4,0.4L80.7,53.4z"/>
			</g>
		</g>
	</g>
</g>
</svg>
