<?xml version="1.0" encoding="utf-8"?>
<!-- Generator: Adobe Illustrator 22.0.1, SVG Export Plug-In . SVG Version: 6.00 Build 0)  -->
<svg version="1.1" id="Layer_1" xmlns="http://www.w3.org/2000/svg" xmlns:xlink="http://www.w3.org/1999/xlink" x="0px" y="0px"
	 viewBox="0 0 101.5 175.2" style="enable-background:new 0 0 101.5 175.2;" xml:space="preserve">
<style type="text/css">
	.st0{fill:#FFFFFF;}
	.st1{fill:#26BDE2;}
	.st2{enable-background:new    ;}
</style>
<title>TARGET 1 B copy 4</title>
<g id="WHITE_BG">
	<g>
		<rect y="0" class="st0" width="101.5" height="175.2"/>
	</g>
</g>
<g id="TARGETS">
	<g>
		<g>
			<path class="st1" d="M11.1,130.3c0,1.2-0.7,2-2.4,2c-0.6,0-1.3-0.1-1.9-0.4V131c0.6,0.3,1.2,0.4,1.8,0.4c1.1,0,1.5-0.5,1.5-1.1
				s-0.3-0.9-1.2-1c-1.6-0.2-2.2-0.6-2.2-1.8c0-0.9,0.5-1.8,2.3-1.8c0.6,0,1.2,0.1,1.7,0.3v1c-0.5-0.2-1.1-0.3-1.7-0.3
				c-1,0-1.3,0.4-1.3,1c0,0.7,0.4,0.8,1.2,0.9C10.3,128.7,11.1,129,11.1,130.3z"/>
		</g>
		<g>
			<path class="st1" d="M11.8,130.2v-4.4h0.9v4.3c-0.1,0.7,0.4,1.2,1,1.3c0.1,0,0.2,0,0.3,0c0.6,0.1,1.3-0.3,1.4-1
				c0-0.1,0-0.2,0-0.3v-4.3h1v4.4c0.1,1.1-0.8,2.1-1.9,2.1c-0.1,0-0.3,0-0.4,0c-1.1,0.2-2.1-0.5-2.3-1.6
				C11.8,130.5,11.8,130.4,11.8,130.2z"/>
		</g>
		<g>
			<path class="st1" d="M18.2,132.2h-1v-6.4h2c1.6,0,2.2,1,2.2,2c0,1-0.6,2-2.2,2h-1V132.2z M18.2,128.9h1.1c0.6,0.1,1.2-0.4,1.2-1
				s-0.4-1.2-1-1.2c-0.1,0-0.1,0-0.2,0h-1.1V128.9z"/>
		</g>
		<g>
			<path class="st1" d="M23,132.2h-1v-6.4h2c1.6,0,2.2,1,2.2,2c0,1-0.6,2-2.2,2H23V132.2z M23,129h1.1c0.6,0.1,1.2-0.4,1.2-1
				s-0.4-1.2-1-1.2c-0.1,0-0.1,0-0.2,0H23V129z"/>
		</g>
		<g>
			<path class="st1" d="M26.8,129c0-1.8,0.4-3.3,2.5-3.3s2.5,1.5,2.5,3.3s-0.4,3.3-2.5,3.3S26.8,130.8,26.8,129z M27.8,129
				c0,1.5,0.3,2.4,1.5,2.4s1.5-0.9,1.5-2.4s-0.3-2.4-1.5-2.4S27.8,127.5,27.8,129L27.8,129z"/>
		</g>
		<g>
			<path class="st1" d="M33.4,132.2h-1v-6.4h2.1c1.7,0,2.2,0.7,2.2,1.9c0.1,0.7-0.3,1.4-1,1.7l1.3,2.8h-1.1l-1.2-2.6h-1.3V132.2z
				 M33.4,128.7h1.2c0.9,0,1-0.5,1-1s-0.1-1-1-1h-1.2V128.7z"/>
		</g>
		<g>
			<path class="st1" d="M39.5,126.7v5.5h-1v-5.5h-1.6v-0.9h4.3v0.9H39.5z"/>
		</g>
		<g>
			<path class="st1" d="M43.9,131.3h2.8v0.9H43v-6.4h1L43.9,131.3z"/>
		</g>
		<g>
			<path class="st1" d="M46.7,129c0-1.8,0.4-3.3,2.5-3.3s2.5,1.5,2.5,3.3s-0.4,3.3-2.5,3.3S46.7,130.8,46.7,129z M47.7,129
				c0,1.5,0.3,2.4,1.5,2.4s1.5-0.9,1.5-2.4s-0.3-2.4-1.5-2.4S47.7,127.5,47.7,129L47.7,129z"/>
		</g>
		<g>
			<path class="st1" d="M54.9,125.7c0.5,0,1,0.1,1.5,0.3v0.9c-0.5-0.2-0.9-0.3-1.4-0.3c-1.2,0-1.7,0.8-1.7,2.4s0.5,2.4,1.7,2.4
				c0.5,0,1-0.1,1.4-0.3v0.9c-0.5,0.2-1,0.3-1.5,0.3c-1.9,0-2.6-1.2-2.6-3.3S53,125.7,54.9,125.7z"/>
		</g>
		<g>
			<path class="st1" d="M60.2,130.6h-2l-0.5,1.6h-1l2-6.4h1l2,6.4h-1L60.2,130.6z M59.2,127l-0.8,2.8h1.6L59.2,127z"/>
		</g>
		<g>
			<path class="st1" d="M63.2,131.3H66v0.9h-3.7v-6.4h1L63.2,131.3z"/>
		</g>
		<g>
			<path class="st1" d="M10.5,138.3H7.8v2h2.9v0.9H6.9v-6.4h3.9v0.9H7.8v1.8h2.6V138.3z"/>
		</g>
		<g>
			<path class="st1" d="M15.3,141.2l-2.8-4.5v4.5h-0.9v-6.4h0.9l2.8,4.5v-4.5h0.9v6.4H15.3z"/>
		</g>
		<g>
			<path class="st1" d="M17,138c0-2,0.7-3.3,2.6-3.3c0.6,0,1.3,0.1,1.8,0.3v1c-0.5-0.2-1.1-0.4-1.7-0.4c-1.3,0-1.8,0.9-1.8,2.4
				s0.5,2.4,1.8,2.4c0.3,0,0.6,0,0.9-0.1v-1.7h-1.1v-0.9h2.1v3.2c-0.6,0.3-1.3,0.4-2,0.4C17.7,141.3,17,140,17,138z"/>
		</g>
		<g>
			<path class="st1" d="M25.7,139.6h-2l-0.5,1.6h-1l2-6.4h1l2,6.4h-1L25.7,139.6z M24.7,136l-0.8,2.8h1.6L24.7,136z"/>
		</g>
		<g>
			<path class="st1" d="M27.5,138c0-2,0.7-3.3,2.6-3.3c0.6,0,1.3,0.1,1.8,0.3v1c-0.5-0.2-1.1-0.4-1.7-0.4c-1.3,0-1.8,0.9-1.8,2.4
				s0.5,2.4,1.8,2.4c0.3,0,0.6,0,0.9-0.1v-1.7H30v-0.9h2.1v3.2c-0.6,0.3-1.3,0.4-2,0.4C28.1,141.3,27.5,140,27.5,138z"/>
		</g>
		<g>
			<path class="st1" d="M36.6,138.3h-2.7v2h2.9v0.9H33v-6.4h3.9v0.9h-2.9v1.8h2.7V138.3z"/>
		</g>
		<g>
			<path class="st1" d="M41.1,140.3h-0.9l-1.6-3.9v4.8h-0.9v-6.4h1.2l1.7,4.3l1.7-4.3h1.2v6.4h-1v-4.8L41.1,140.3z"/>
		</g>
		<g>
			<path class="st1" d="M48.2,138.3h-2.7v2h2.9v0.9h-3.9v-6.4h3.9v0.9h-2.9v1.8h2.7V138.3z"/>
		</g>
		<g>
			<path class="st1" d="M53,141.2l-2.8-4.5v4.5h-0.9v-6.4h0.9l2.8,4.5v-4.5h1v6.4H53z"/>
		</g>
		<g>
			<path class="st1" d="M57,135.7v5.5h-1v-5.5h-1.6v-0.9h4.3v0.9H57z"/>
		</g>
		<g>
			<path class="st1" d="M60.5,141.2v-6.4h1v6.4H60.5z"/>
		</g>
		<g>
			<path class="st1" d="M66.3,141.2l-2.8-4.5v4.5h-1v-6.4h0.9l2.8,4.5v-4.5h0.9v6.4H66.3z"/>
		</g>
		<g>
			<path class="st1" d="M9.5,143.8h1.2l1.1,5l0.8-5h1l-1.2,6.4h-1.1l-1.1-5.3L9,150.3H7.8l-1.2-6.4h1l0.8,5L9.5,143.8z"/>
		</g>
		<g>
			<path class="st1" d="M16.8,148.6h-2l-0.4,1.6h-1l2-6.4h1l2,6.4h-1L16.8,148.6z M15.8,145l-0.8,2.8h1.6L15.8,145z"/>
		</g>
		<g>
			<path class="st1" d="M20.3,144.7v5.5h-1v-5.5h-1.6v-0.9H22v0.9H20.3z"/>
		</g>
		<g>
			<path class="st1" d="M26.1,147.3h-2.6v2h2.9v0.9h-3.9v-6.4h3.9v0.9h-2.9v1.8h2.6V147.3z"/>
		</g>
		<g>
			<path class="st1" d="M28.2,150.2h-1v-6.4h2.1c1.6,0,2.2,0.7,2.2,1.9c0.1,0.7-0.3,1.4-1,1.7l1.3,2.8h-1.1l-1.2-2.6h-1.3V150.2z
				 M28.2,146.7h1.3c0.9,0,1-0.5,1-1s-0.1-1-1-1h-1.3V146.7z"/>
		</g>
		<g>
			<path class="st1" d="M37,148.6h-2l-0.5,1.6h-1l2-6.4h1l2,6.4h-1L37,148.6z M36,145l-0.8,2.8h1.6L36,145z"/>
		</g>
		<g>
			<path class="st1" d="M42.7,150.2l-2.7-4.5v4.5h-1v-6.4h0.9l2.8,4.5v-4.5h0.9v6.4H42.7z"/>
		</g>
		<g>
			<path class="st1" d="M44.5,150.2v-6.4h1.9c2.1,0,2.7,1.4,2.7,3.2s-0.6,3.2-2.7,3.2H44.5z M45.5,149.3h1c1.3,0,1.7-0.9,1.7-2.3
				s-0.4-2.3-1.7-2.3h-1V149.3z"/>
		</g>
		<g>
			<path class="st1" d="M11.1,157.3c0,1.2-0.7,2-2.4,2c-0.6,0-1.3-0.1-1.9-0.4V158c0.6,0.3,1.2,0.4,1.8,0.4c1.1,0,1.5-0.5,1.5-1.1
				s-0.3-0.9-1.2-1c-1.6-0.2-2.2-0.6-2.2-1.8c0-0.9,0.5-1.8,2.3-1.8c0.6,0,1.2,0.1,1.7,0.3v1c-0.5-0.2-1.1-0.3-1.7-0.3
				c-1,0-1.3,0.4-1.3,1s0.4,0.8,1.2,0.9C10.3,155.7,11.1,156,11.1,157.3z"/>
		</g>
		<g>
			<path class="st1" d="M14.8,157.6h-2l-0.5,1.6h-1l2-6.4h1l2,6.4h-1L14.8,157.6z M13.8,154l-0.8,2.8h1.6L13.8,154z"/>
		</g>
		<g>
			<path class="st1" d="M20.5,159.2l-2.8-4.5v4.5h-1v-6.4h0.9l2.8,4.5v-4.5h0.9v6.4H20.5z"/>
		</g>
		<g>
			<path class="st1" d="M22.4,159.2v-6.4h1v6.4H22.4z"/>
		</g>
		<g>
			<path class="st1" d="M26.8,153.7v5.5h-1v-5.5h-1.6v-0.9h4.3v0.9H26.8z"/>
		</g>
		<g>
			<path class="st1" d="M31.5,157.6h-2l-0.5,1.6h-1l2-6.4h1l2,6.4h-1L31.5,157.6z M30.5,154l-0.8,2.8h1.6L30.5,154z"/>
		</g>
		<g>
			<path class="st1" d="M35,153.7v5.5h-1v-5.5h-1.6v-0.9h4.3v0.9H35z"/>
		</g>
		<g>
			<path class="st1" d="M37.3,159.2v-6.4h1v6.4H37.3z"/>
		</g>
		<g>
			<path class="st1" d="M39.3,156c0-1.8,0.4-3.3,2.5-3.3s2.5,1.5,2.5,3.3s-0.4,3.3-2.5,3.3S39.3,157.8,39.3,156z M40.3,156
				c0,1.5,0.3,2.4,1.5,2.4s1.5-0.9,1.5-2.4s-0.3-2.4-1.5-2.4S40.3,154.5,40.3,156L40.3,156z"/>
		</g>
		<g>
			<path class="st1" d="M48.6,159.2l-2.8-4.5v4.5h-1v-6.4h0.9l2.8,4.5v-4.5h0.9v6.4H48.6z"/>
		</g>
		<g>
			<path class="st1" d="M10.3,167.3H9.4l-1.6-3.9v4.8h-1v-6.4h1.3l1.7,4.3l1.7-4.3h1.2v6.4h-0.9v-4.8L10.3,167.3z"/>
		</g>
		<g>
			<path class="st1" d="M16.8,166.6h-2l-0.4,1.6h-1l2-6.4h1l2,6.4h-1L16.8,166.6z M15.8,163l-0.8,2.8h1.6L15.8,163z"/>
		</g>
		<g>
			<path class="st1" d="M22.5,168.2l-2.8-4.5v4.5h-0.9v-6.4h0.9l2.8,4.5v-4.5h0.9v6.4H22.5z"/>
		</g>
		<g>
			<path class="st1" d="M27.4,166.6h-2l-0.5,1.6h-1l2-6.4h1l2,6.4h-1L27.4,166.6z M26.4,163l-0.8,2.8h1.6L26.4,163z"/>
		</g>
		<g>
			<path class="st1" d="M29.1,165c0-2,0.7-3.3,2.6-3.3c0.6,0,1.3,0.1,1.8,0.3v1c-0.5-0.2-1.1-0.4-1.7-0.4c-1.3,0-1.8,0.9-1.8,2.4
				s0.5,2.4,1.8,2.4c0.3,0,0.6,0,0.9-0.1v-1.7h-1.1v-0.9h2.1v3.2c-0.6,0.3-1.3,0.4-2,0.4C29.9,168.3,29.1,167,29.1,165z"/>
		</g>
		<g>
			<path class="st1" d="M38.3,165.3h-2.7v2h2.9v0.9h-3.9v-6.4h3.9v0.9h-2.9v1.8h2.7V165.3z"/>
		</g>
		<g>
			<path class="st1" d="M42.8,167.3h-0.9l-1.6-3.9v4.8h-1v-6.4h1.2l1.7,4.3l1.7-4.3h1.3v6.4h-1v-4.8L42.8,167.3z"/>
		</g>
		<g>
			<path class="st1" d="M49.9,165.3h-2.7v2h2.9v0.9h-3.9v-6.4h3.9v0.9h-2.9v1.8h2.7V165.3z"/>
		</g>
		<g>
			<path class="st1" d="M54.7,168.2l-2.8-4.5v4.5H51v-6.4h0.9l2.8,4.5v-4.5h1v6.4H54.7z"/>
		</g>
		<g>
			<path class="st1" d="M58.7,162.7v5.5h-1v-5.5h-1.6v-0.9h4.3v0.9H58.7z"/>
		</g>
	</g>
	<g>
		<rect x="3.3" y="24" class="st1" width="94.8" height="94.8"/>
	</g>
	<g>
		<path class="st1" d="M98.2,20.7H3.3V3.3h94.8V20.7z M4.3,19.7h92.8V4.3H4.3L4.3,19.7z"/>
	</g>
	<g class="st2">
		<path class="st1" d="M6.7,6.9h4.5v1.4H9.9v8.8H8.1V8.3H6.7V6.9z"/>
	</g>
	<g class="st2">
		<path class="st1" d="M11.2,17.1l1.9-10.2h1.9L17,17.1h-1.8l-0.3-1.9h-1.8l-0.3,1.9H11.2z M13.3,13.9h1.4L14,9.8h0L13.3,13.9z"/>
	</g>
	<g class="st2">
		<path class="st1" d="M19.6,12.4v4.7h-1.7V6.9h2.5c1.7,0,2.4,0.9,2.4,2.3v1.3c0,1.1-0.4,1.7-1.4,2l1.6,4.6h-1.8L19.6,12.4z
			 M19.6,8.3v3.2h0.6c0.6,0,0.8-0.3,0.8-0.8V9.2c0-0.6-0.3-0.8-0.8-0.8H19.6z"/>
	</g>
	<g class="st2">
		<path class="st1" d="M26.4,11.7h2.4v5.4h-1.2V16c-0.2,0.8-0.7,1.2-1.6,1.2c-1.5,0-2.1-1.2-2.1-2.7V9.6c0-1.6,0.8-2.7,2.6-2.7
			c1.9,0,2.4,1.1,2.4,2.6v0.9h-1.6v-1c0-0.6-0.2-1-0.9-1c-0.6,0-0.9,0.4-0.9,1v5.5c0,0.6,0.3,1,0.8,1c0.6,0,0.8-0.3,0.8-1V13h-0.8
			V11.7z"/>
	</g>
	<g class="st2">
		<path class="st1" d="M30.2,6.9h4.1v1.4h-2.4v2.9h1.7v1.4h-1.7v3.1h2.4v1.4h-4.1V6.9z"/>
	</g>
	<g class="st2">
		<path class="st1" d="M35.1,6.9h4.5v1.4h-1.4v8.8h-1.7V8.3h-1.4V6.9z"/>
	</g>
	<g class="st2">
		<path class="st1" d="M89.4,6.9h2.5c1.7,0,2.3,0.8,2.3,2.2v1c0,0.9-0.3,1.4-1,1.6c0.9,0.2,1.3,0.8,1.3,1.7v1.3
			c0,1.4-0.6,2.2-2.4,2.2h-2.7V6.9z M91.1,11.2h0.6c0.6,0,0.8-0.3,0.8-0.8V9.2c0-0.6-0.3-0.8-0.8-0.8h-0.6V11.2z M91.1,12.5v3.2h0.8
			c0.6,0,0.8-0.3,0.8-0.8v-1.5c0-0.5-0.3-0.8-0.9-0.8H91.1z"/>
	</g>
	<g class="st2">
		<path class="st1" d="M78.2,14.5v-5c0-1.6,0.7-2.7,2.5-2.7c1.9,0,2.4,1.1,2.4,2.6v0.5h-1.6V9.2c0-0.6-0.2-1-0.8-1
			c-0.6,0-0.8,0.4-0.8,1v2.2h0c0.3-0.5,0.7-0.8,1.4-0.8c1.2,0,1.9,0.8,1.9,2.5v1.5c0,1.6-0.7,2.6-2.5,2.6
			C78.9,17.2,78.2,16.1,78.2,14.5z M81.5,14.8V13c0-0.7-0.2-1-0.8-1c-0.5,0-0.8,0.4-0.8,0.9v1.9c0,0.6,0.2,1,0.8,1
			C81.2,15.8,81.5,15.4,81.5,14.8z"/>
	</g>
	<g>
		<polygon class="st1" points="85.4,9.9 85.4,14.1 87.6,12 		"/>
	</g>
	<g>
		<g>
			<path class="st0" d="M76.5,97.4l-2.8-2.2c-0.2-0.2-0.6-0.3-0.8,0c0,0,0,0,0,0l0,0c-8.8,10.5-24,11.6-34.8,3
				c-0.3-0.3-0.6-0.5-0.9-0.8l3.2-2c0.3-0.2-0.1-0.5-0.1-0.5l-10.8-5.4c-0.3-0.2-0.4,0-0.4,0.2v0.1l0,0V102c0,0.1,0.1,0.4,0.4,0.2
				l0,0l3.5-2.2c0.7,0.7,1.4,1.3,2.2,1.9c12.8,10.2,30.9,8.9,41.4-3.5l0.1-0.1C76.8,98.1,76.8,97.7,76.5,97.4
				C76.6,97.4,76.5,97.4,76.5,97.4z"/>
		</g>
		<g>
			<path class="st0" d="M29,46.8l3,2.1c0.2,0.2,0.6,0.2,0.8-0.1c0,0,0,0,0,0l0,0c8.2-11,23.3-13,34.5-5c0.3,0.2,0.7,0.5,1,0.8
				l-3,2.2c-0.3,0.2,0.1,0.5,0.1,0.5l11,4.8c0.3,0.2,0.4-0.1,0.4-0.2v-0.1l0,0l-0.7-12.3c0-0.1-0.1-0.4-0.4-0.2l0,0l-3.4,2.4
				c-0.7-0.6-1.5-1.2-2.3-1.8c-13.4-9.5-31.4-7.1-41.2,6l-0.1,0.1C28.7,46.2,28.7,46.5,29,46.8C29,46.8,29,46.8,29,46.8z"/>
		</g>
		<g>
			<path class="st0" d="M70.4,95.6L70.4,95.6C70.1,96,70.4,95.6,70.4,95.6z"/>
		</g>
		<g>
			<g>
				<polygon class="st0" points="35.9,61.1 35.9,79 12.5,79 12.5,61.1 11.6,61.1 11.6,79.8 36.8,79.8 36.8,61.1 				"/>
			</g>
			<g>
				<path class="st0" d="M13.9,69.9L13.9,69.9c4.6,4.2,9.3,0.7,10.3-0.1l0.1-0.1c0,0,0.1,0,0.1,0c0,0,0.1,0,0.1,0l0.1,0.1
					c1,0.8,5.6,4.2,10.1,0.2l0.1-0.1c0,0,0-0.1,0-0.1v-2.2c0-0.1-0.1-0.2-0.2-0.2h-0.1l-0.1,0.1c-1.4,1-5.9,3.7-9.9-0.1l-0.1-0.1
					c0,0-0.1-0.1-0.2-0.1c-0.1,0-0.1,0-0.2,0.1l-0.1,0.1c-4,3.7-8.4,1.2-9.9,0.1l-0.1-0.1c0,0-0.1,0-0.1,0c-0.1,0-0.2,0.1-0.2,0.2
					v2.2l0,0l0,0C13.8,69.8,13.8,69.9,13.9,69.9z"/>
			</g>
			<g>
				<path class="st0" d="M13.9,75L13.9,75c4.6,4.2,9.3,0.7,10.3-0.1l0.1-0.1h0.1h0.1l0.1,0.1c1,0.8,5.6,4.2,10.1,0.2l0.1-0.1
					c0,0,0-0.1,0-0.2v-2.2c0-0.1-0.1-0.2-0.2-0.2h-0.1l-0.1,0.1c-1.4,1-5.9,3.7-9.9-0.1l-0.1-0.1c0,0-0.1-0.1-0.2-0.1
					c-0.1,0-0.1,0-0.2,0.1l-0.1,0.1c-4,3.7-8.4,1.2-9.9,0.1l-0.1-0.1c0,0-0.1,0-0.1,0c-0.1,0-0.2,0.1-0.2,0.2v2.2l0,0l0,0
					C13.8,74.9,13.8,75,13.9,75z"/>
			</g>
			<g>
				<path class="st0" d="M14.2,65.4c0.2,0,0.4-0.1,0.4-0.3c0,0,0,0,0,0c0-0.2-0.2-0.3-0.4-0.3c-0.2,0-0.3,0.1-0.3,0.3
					C13.9,65.2,14,65.4,14.2,65.4z"/>
			</g>
			<g>
				<circle class="st0" cx="15.8" cy="65" r="0.3"/>
			</g>
			<g>
				<circle class="st0" cx="17.3" cy="65" r="0.3"/>
			</g>
			<g>
				<path class="st0" d="M18.9,65.4c0.2,0,0.3-0.1,0.4-0.3c0,0,0,0,0,0c0-0.2-0.2-0.3-0.4-0.3s-0.4,0.2-0.4,0.3S18.7,65.4,18.9,65.4
					z"/>
			</g>
			<g>
				<path class="st0" d="M20.5,65.4c0.2,0,0.4-0.2,0.4-0.3s-0.2-0.3-0.4-0.3s-0.4,0.2-0.4,0.3S20.3,65.4,20.5,65.4z"/>
			</g>
			<g>
				<circle class="st0" cx="22" cy="65" r="0.3"/>
			</g>
			<g>
				<path class="st0" d="M23.6,65.4c0.2,0,0.4-0.1,0.4-0.3c0,0,0,0,0-0.1c0-0.2-0.2-0.3-0.4-0.3s-0.4,0.2-0.4,0.3
					C23.3,65.2,23.4,65.4,23.6,65.4C23.6,65.4,23.6,65.4,23.6,65.4z"/>
			</g>
			<g>
				<path class="st0" d="M25.2,65.4c0.2,0,0.4-0.2,0.4-0.3s-0.2-0.3-0.4-0.3s-0.4,0.2-0.4,0.3C24.8,65.2,25,65.4,25.2,65.4
					C25.2,65.4,25.2,65.4,25.2,65.4z"/>
			</g>
			<g>
				<path class="st0" d="M26.8,65.4c0.2,0,0.4-0.2,0.4-0.3c0-0.2-0.2-0.3-0.4-0.3c-0.2,0-0.3,0.1-0.3,0.3
					C26.4,65.2,26.6,65.4,26.8,65.4C26.8,65.4,26.8,65.4,26.8,65.4z"/>
			</g>
			<g>
				<path class="st0" d="M28.3,65.4c0.2,0,0.4-0.1,0.4-0.3c0,0,0,0,0,0c-0.1-0.2-0.3-0.3-0.4-0.2c-0.1,0-0.2,0.1-0.2,0.2
					C28,65.2,28.1,65.4,28.3,65.4C28.3,65.4,28.3,65.4,28.3,65.4z"/>
			</g>
			<g>
				<path class="st0" d="M29.9,65.4c0.2,0,0.4-0.1,0.4-0.3c0,0,0,0,0,0c0-0.2-0.2-0.3-0.4-0.3c-0.2,0-0.3,0.1-0.3,0.3
					C29.5,65.2,29.7,65.4,29.9,65.4z"/>
			</g>
			<g>
				<circle class="st0" cx="31.5" cy="65" r="0.3"/>
			</g>
			<g>
				<path class="st0" d="M33,65.4c0.2,0,0.3-0.1,0.3-0.3c0,0,0,0,0,0c0-0.2-0.2-0.3-0.3-0.3s-0.3,0.2-0.3,0.3S32.8,65.4,33,65.4z"/>
			</g>
			<g>
				<circle class="st0" cx="34.6" cy="65" r="0.3"/>
			</g>
			<g>
				<path class="st0" d="M15.1,64.2c0.2,0,0.3-0.2,0.3-0.4c0-0.2-0.1-0.3-0.3-0.3c-0.2,0-0.3,0.2-0.3,0.4
					C14.8,64,14.9,64.1,15.1,64.2z"/>
			</g>
			<g>
				<path class="st0" d="M16.6,64.2c0.2,0,0.3-0.2,0.3-0.4c0-0.2-0.1-0.3-0.3-0.3c-0.2,0-0.3,0.2-0.3,0.4
					C16.4,64,16.5,64.1,16.6,64.2z"/>
			</g>
			<g>
				<path class="st0" d="M18.2,64.2c0.2,0,0.4-0.2,0.4-0.4c0-0.2-0.2-0.4-0.4-0.4c-0.2,0-0.4,0.2-0.4,0.4S18,64.2,18.2,64.2
					C18.2,64.2,18.2,64.2,18.2,64.2z"/>
			</g>
			<g>
				<path class="st0" d="M19.8,64.2c0.2,0,0.4-0.2,0.4-0.4c0-0.2-0.2-0.4-0.4-0.4c-0.2,0-0.4,0.2-0.4,0.4S19.6,64.2,19.8,64.2
					C19.8,64.2,19.8,64.2,19.8,64.2z"/>
			</g>
			<g>
				<path class="st0" d="M21.3,64.2c0.2,0,0.4-0.1,0.4-0.3c0-0.2-0.1-0.4-0.3-0.4c0,0-0.1,0-0.1,0c-0.2,0-0.3,0.2-0.3,0.4
					C21.1,64,21.2,64.1,21.3,64.2z"/>
			</g>
			<g>
				<path class="st0" d="M22.9,64.2c0.2,0,0.3-0.2,0.3-0.4c0-0.2-0.1-0.3-0.3-0.3c-0.2,0-0.3,0.2-0.3,0.4
					C22.6,64,22.8,64.1,22.9,64.2z"/>
			</g>
			<g>
				<path class="st0" d="M24.5,64.2c0.2,0,0.3-0.2,0.3-0.4c0-0.2-0.1-0.3-0.3-0.3c-0.2,0-0.3,0.2-0.3,0.4
					C24.2,64,24.3,64.1,24.5,64.2z"/>
			</g>
			<g>
				<path class="st0" d="M26,64.2c0.2,0,0.3-0.2,0.3-0.4c0-0.2-0.1-0.3-0.3-0.3c-0.2,0-0.3,0.2-0.3,0.4C25.8,64,25.9,64.1,26,64.2z"
					/>
			</g>
			<g>
				<path class="st0" d="M27.6,64.2c0.2,0,0.4-0.2,0.4-0.3c0-0.2-0.2-0.4-0.3-0.4s-0.4,0.2-0.4,0.3c0,0,0,0,0,0
					C27.3,64,27.4,64.2,27.6,64.2z"/>
			</g>
			<g>
				<path class="st0" d="M29.2,64.2c0.2,0,0.3-0.2,0.3-0.4c0-0.2-0.1-0.3-0.3-0.3c-0.2,0-0.3,0.2-0.3,0.4C28.9,64,29,64.1,29.2,64.2
					z"/>
			</g>
			<g>
				<path class="st0" d="M30.8,64.2c0.2,0,0.3-0.2,0.3-0.4c0-0.2-0.1-0.3-0.3-0.3c-0.2,0-0.3,0.2-0.3,0.4
					C30.5,64,30.6,64.1,30.8,64.2z"/>
			</g>
			<g>
				<path class="st0" d="M32.3,64.2c0.2,0,0.3-0.2,0.3-0.4c0-0.2-0.1-0.3-0.3-0.3c-0.2,0-0.3,0.2-0.3,0.4
					C32.1,64,32.2,64.1,32.3,64.2z"/>
			</g>
			<g>
				<path class="st0" d="M33.9,64.2c0.2,0,0.4-0.2,0.4-0.4s-0.2-0.4-0.4-0.4s-0.4,0.2-0.4,0.4S33.7,64.2,33.9,64.2L33.9,64.2z"/>
			</g>
			<g>
				<path class="st0" d="M14.3,63c0.2,0,0.4-0.2,0.4-0.3c0-0.2-0.2-0.3-0.4-0.3c-0.2,0-0.3,0.1-0.3,0.3C13.9,62.8,14.1,63,14.3,63z"
					/>
			</g>
			<g>
				<path class="st0" d="M15.9,63c0.2,0,0.4-0.2,0.4-0.3c0-0.2-0.1-0.3-0.3-0.3c0,0,0,0,0,0c-0.2,0-0.3,0.2-0.4,0.3
					C15.5,62.8,15.7,63,15.9,63z"/>
			</g>
			<g>
				<path class="st0" d="M17.4,63c0.2,0,0.4-0.2,0.4-0.3c0-0.2-0.1-0.3-0.3-0.3c0,0,0,0,0,0c-0.2,0-0.4,0.2-0.4,0.3S17.2,63,17.4,63
					z"/>
			</g>
			<g>
				<path class="st0" d="M19,63c0.2,0,0.4-0.2,0.4-0.3s-0.2-0.3-0.4-0.4c-0.2,0-0.4,0.2-0.4,0.4l0,0C18.6,62.8,18.8,63,19,63z"/>
			</g>
			<g>
				<path class="st0" d="M20.6,63c0.2,0,0.4-0.2,0.4-0.3s-0.2-0.3-0.4-0.4c-0.2,0-0.4,0.2-0.4,0.4l0,0C20.2,62.8,20.4,63,20.6,63z"
					/>
			</g>
			<g>
				<path class="st0" d="M22.1,63c0.2,0,0.4-0.2,0.4-0.3s-0.2-0.3-0.4-0.3c-0.2,0-0.3,0.1-0.4,0.3c0,0,0,0,0,0
					C21.8,62.8,21.9,63,22.1,63z"/>
			</g>
			<g>
				<path class="st0" d="M23.7,63c0.2,0,0.4-0.2,0.4-0.3s-0.2-0.3-0.4-0.3c-0.2,0-0.3,0.1-0.4,0.3c0,0,0,0,0,0
					C23.4,62.8,23.5,63,23.7,63z"/>
			</g>
			<g>
				<path class="st0" d="M25.3,63c0.2,0,0.4-0.2,0.4-0.3s-0.2-0.3-0.4-0.3c-0.2,0-0.3,0.1-0.4,0.3c0,0,0,0,0,0
					C24.9,62.8,25.1,63,25.3,63z"/>
			</g>
			<g>
				<path class="st0" d="M26.8,63c0.2,0,0.4-0.2,0.4-0.3c0-0.2-0.2-0.3-0.4-0.3c-0.2,0-0.3,0.1-0.3,0.3C26.5,62.8,26.6,63,26.8,63z"
					/>
			</g>
			<g>
				<path class="st0" d="M28.4,63c0.2,0,0.4-0.2,0.4-0.3c0-0.2-0.2-0.3-0.4-0.3c-0.2,0-0.3,0.1-0.3,0.3C28.1,62.8,28.2,63,28.4,63z"
					/>
			</g>
			<g>
				<path class="st0" d="M30,63c0.2,0,0.4-0.2,0.4-0.3c0-0.2-0.2-0.3-0.4-0.3c-0.2,0-0.3,0.1-0.3,0.3C29.7,62.8,29.8,63,30,63z"/>
			</g>
			<g>
				<path class="st0" d="M31.5,63c0.2,0,0.4-0.2,0.4-0.3c0-0.2-0.1-0.3-0.3-0.3c0,0,0,0,0,0c-0.2,0-0.4,0.2-0.4,0.3S31.3,63,31.5,63
					z"/>
			</g>
			<g>
				<path class="st0" d="M33.1,63c0.2,0,0.3-0.2,0.3-0.3c0-0.2-0.1-0.3-0.3-0.3c0,0,0,0,0,0c-0.2,0-0.3,0.2-0.3,0.3S32.9,63,33.1,63
					z"/>
			</g>
			<g>
				<path class="st0" d="M34.7,63c0.2,0,0.3-0.2,0.3-0.4c0,0,0,0,0,0c0-0.2-0.2-0.3-0.3-0.4c-0.2,0-0.4,0.2-0.4,0.4l0,0
					C34.3,62.8,34.4,63,34.7,63C34.6,63,34.7,63,34.7,63z"/>
			</g>
		</g>
		<g>
			<g>
				<g>
					<path class="st0" d="M46.7,61.2c1,0,1.9-0.8,1.9-1.9s-0.8-1.9-1.9-1.9c-1,0-1.9,0.8-1.9,1.9l0,0C44.8,60.4,45.7,61.2,46.7,61.2
						"/>
				</g>
				<g>
					<path class="st0" d="M48.9,62h-4.4c-1.3,0.1-2.3,1.2-2.3,2.5v5.2c0,0.4,0.3,0.7,0.7,0.7c0.4,0,0.7-0.3,0.7-0.7c0,0,0,0,0,0
						v-4.5c0-0.2,0-0.4,0.4-0.4s0.3,0.2,0.3,0.4v13.4c0,0.6,0.5,1.1,1,1.1s1.1-0.5,1.1-1c0,0,0,0,0,0v-7.8c0-0.2,0.1-0.3,0.3-0.3
						c0,0,0,0,0,0l0,0c0.2,0,0.3,0.1,0.3,0.3c0,0,0,0,0,0v7.8c0.1,0.6,0.6,1,1.2,1c0.5,0,0.9-0.4,1-1V65.2c0-0.1,0-0.4,0.3-0.4
						s0.3,0.2,0.3,0.4v4.5c0,0.4,0.4,0.7,0.8,0.6c0.3,0,0.6-0.3,0.6-0.6v-5.2C51.2,63.2,50.2,62.1,48.9,62"/>
				</g>
			</g>
			<g>
				<path class="st0" d="M58.9,61.2c1,0,1.9-0.9,1.8-1.9c0-1-0.9-1.9-1.9-1.8c-1,0-1.8,0.9-1.8,1.9C57,60.4,57.8,61.2,58.9,61.2
					C58.9,61.2,58.9,61.2,58.9,61.2z"/>
			</g>
			<g>
				<path class="st0" d="M62.7,63.6c0,0-0.6-1.5-1.8-1.5h-4c-1.2,0-1.8,1.5-1.8,1.5l-1.6,5.1c0,0-0.3,0.9,0.5,1.2s1-0.7,1-0.7
					l1.3-4.2c0,0,0.1-0.3,0.3-0.3s0.2,0.4,0.2,0.4l-2.2,8h2v5.7c0,0.6,0.4,1,1,1s1-0.4,1-1v-5.8h0.6v5.7c0,0.6,0.4,1,1,1s1-0.4,1-1
					v-5.7h2l-2.2-8c0,0-0.1-0.3,0.2-0.4s0.3,0.3,0.3,0.3l1.3,4.3c0,0,0.2,0.9,1,0.7s0.5-1.2,0.5-1.2L62.7,63.6z"/>
			</g>
		</g>
		<g>
			<path class="st0" d="M89.8,60.1c0-0.1-0.1-0.1-0.2-0.1H70.2c-0.1,0-0.1,0-0.2,0.1c0,0.1,0,0.1,0,0.2L73.2,80
				c0,0.1,0.1,0.2,0.2,0.2h4.3l0.2,2.9h-1.3c-0.1,0-0.2,0.1-0.2,0.2c0,0,0,0.1,0,0.1l0,0l3.2,4.1l0,0c0,0,0.1,0.1,0.2,0.1
				c0.1,0,0.1,0,0.1-0.1l0,0l0,0l3.1-4.1l0,0l0,0c0,0,0-0.1,0-0.1c0-0.1-0.1-0.2-0.2-0.2h-1.1l0.2-2.9h4.4c0.1,0,0.2-0.1,0.2-0.2
				l3.1-19.8C89.9,60.2,89.8,60.1,89.8,60.1z M82.3,75.9c-1.4,1.1-3.3,1.1-4.6,0c-1.1-1.1-1.3-2.9-0.4-4.2c0.3-0.6,2.6-3.9,2.7-4.2
				l0,0l0,0l0,0c0.2,0.3,2.4,3.7,2.7,4.2C83.5,73,83.4,74.7,82.3,75.9z M88.4,64.2c-0.6-0.2-1.3-0.2-1.8,0.1c-2.4,1-4,1.3-6.6,0.5
				c-1.6-0.5-3.1-1.5-4.9-0.9c-1.1,0.5-2.4,0.8-3.6,0.8l-0.8-3.9H89L88.4,64.2z"/>
		</g>
	</g>
	<g>
		<path class="st1" d="M98.2,171.9h-95v-49.7h95V171.9z M4.2,170.9h93v-47.7h-93V170.9z"/>
	</g>
</g>
</svg>
