<?xml version="1.0" encoding="utf-8"?>
<!-- Generator: Adobe Illustrator 22.0.1, SVG Export Plug-In . SVG Version: 6.00 Build 0)  -->
<svg version="1.1" id="Layer_1" xmlns="http://www.w3.org/2000/svg" xmlns:xlink="http://www.w3.org/1999/xlink" x="0px" y="0px"
	 viewBox="0 0 101.5 166.1" style="enable-background:new 0 0 101.5 166.1;" xml:space="preserve">
<style type="text/css">
	.st0{fill:#FFFFFF;}
	.st1{fill:#26BDE2;}
	.st2{enable-background:new    ;}
</style>
<title>TARGET 1 B copy 3</title>
<g id="WHITE_BG">
	<g>
		<rect y="0" class="st0" width="101.5" height="166.1"/>
	</g>
</g>
<g id="TARGETS">
	<g>
		<g>
			<path class="st1" d="M10.5,129.3H7.8v2h2.9v0.9H6.9v-6.4h3.9v0.9H7.8v1.8h2.6V129.3z"/>
		</g>
		<g>
			<path class="st1" d="M15.2,125.8h1.1l-1.9,3.1l1.9,3.3h-1.1l-1.4-2.6l-1.4,2.6h-1.1l1.9-3.3l-1.9-3.1h1.1l1.4,2.5L15.2,125.8z"/>
		</g>
		<g>
			<path class="st1" d="M17.9,132.2h-1v-6.4h2c1.6,0,2.2,1,2.2,2c0,1-0.6,2-2.2,2h-1V132.2z M17.9,128.9H19c0.6,0.1,1.2-0.4,1.2-1
				s-0.4-1.2-1-1.2c-0.1,0-0.1,0-0.2,0h-1.1V128.9z"/>
		</g>
		<g>
			<path class="st1" d="M24.2,130.6h-2l-0.5,1.6h-1l2-6.4h1l2,6.4h-1L24.2,130.6z M23.2,127l-0.8,2.8H24L23.2,127z"/>
		</g>
		<g>
			<path class="st1" d="M29.9,132.2l-2.8-4.5v4.5h-0.9v-6.4h0.9l2.8,4.5v-4.5h1v6.4H29.9z"/>
		</g>
		<g>
			<path class="st1" d="M31.8,132.2v-6.4h1.9c2.1,0,2.7,1.4,2.7,3.2s-0.6,3.2-2.7,3.2L31.8,132.2z M32.7,131.3h1
				c1.3,0,1.7-0.9,1.7-2.3s-0.4-2.3-1.7-2.3h-1V131.3z"/>
		</g>
		<g>
			<path class="st1" d="M41,125.8h1.2l1.1,5l0.8-5h1l-1.1,6.4h-1.2l-1.1-5.3l-1.2,5.3h-1.2l-1.2-6.4h1l0.8,5L41,125.8z"/>
		</g>
		<g>
			<path class="st1" d="M48.3,130.6h-2l-0.5,1.6h-1l2-6.4h1l2,6.4h-1L48.3,130.6z M47.3,127l-0.8,2.8h1.6L47.3,127z"/>
		</g>
		<g>
			<path class="st1" d="M51.8,126.7v5.5h-1v-5.5h-1.6v-0.9h4.3v0.9H51.8z"/>
		</g>
		<g>
			<path class="st1" d="M57.6,129.3H55v2h2.9v0.9H54v-6.4h3.9v0.9H55v1.8h2.7L57.6,129.3z"/>
		</g>
		<g>
			<path class="st1" d="M59.7,132.2h-1v-6.4h2.1c1.7,0,2.2,0.7,2.2,1.9c0.1,0.7-0.3,1.4-1,1.7l1.3,2.8h-1.1l-1.2-2.6h-1.3V132.2z
				 M59.7,128.7H61c0.9,0,1-0.5,1-1s-0.1-1-1-1h-1.3V128.7z"/>
		</g>
		<g>
			<path class="st1" d="M68.5,130.6h-2l-0.5,1.6h-1l2-6.4h1l2,6.4h-1L68.5,130.6z M67.5,127l-0.8,2.8h1.6L67.5,127z"/>
		</g>
		<g>
			<path class="st1" d="M74.2,132.2l-2.8-4.5v4.5h-0.9v-6.4h0.9l2.8,4.5v-4.5h0.9v6.4H74.2z"/>
		</g>
		<g>
			<path class="st1" d="M76,132.2v-6.4h1.9c2.1,0,2.7,1.4,2.7,3.2s-0.6,3.2-2.7,3.2L76,132.2z M76.9,131.3h1c1.3,0,1.7-0.9,1.7-2.3
				s-0.4-2.3-1.7-2.3H77L76.9,131.3z"/>
		</g>
		<g>
			<path class="st1" d="M11.1,139.3c0,1.2-0.7,2-2.4,2c-0.6,0-1.3-0.1-1.9-0.4V140c0.6,0.3,1.2,0.4,1.8,0.4c1.1,0,1.5-0.5,1.5-1.1
				s-0.3-0.9-1.2-1c-1.6-0.2-2.2-0.6-2.2-1.8c0-0.9,0.5-1.8,2.3-1.8c0.6,0,1.2,0.1,1.7,0.3v1c-0.5-0.2-1.1-0.3-1.7-0.3
				c-1,0-1.3,0.4-1.3,1s0.4,0.8,1.2,0.9C10.3,137.7,11.1,138,11.1,139.3z"/>
		</g>
		<g>
			<path class="st1" d="M14.8,139.6h-2l-0.4,1.6h-1l2-6.4h1l2,6.4h-1L14.8,139.6z M13.8,136l-0.8,2.8h1.6L13.8,136z"/>
		</g>
		<g>
			<path class="st1" d="M20.5,141.2l-2.8-4.5v4.5h-0.9v-6.4h0.9l2.8,4.5v-4.5h1v6.4H20.5z"/>
		</g>
		<g>
			<path class="st1" d="M22.4,141.2v-6.4h1v6.4H22.4z"/>
		</g>
		<g>
			<path class="st1" d="M26.8,135.7v5.5h-1v-5.5h-1.6v-0.9h4.3v0.9H26.8z"/>
		</g>
		<g>
			<path class="st1" d="M31.5,139.6h-2l-0.5,1.6h-1l2-6.4h1l2,6.4h-1L31.5,139.6z M30.5,136l-0.8,2.8h1.6L30.5,136z"/>
		</g>
		<g>
			<path class="st1" d="M35,135.7v5.5h-1v-5.5h-1.6v-0.9h4.3v0.9H35z"/>
		</g>
		<g>
			<path class="st1" d="M37.3,141.2v-6.4h1v6.4H37.3z"/>
		</g>
		<g>
			<path class="st1" d="M39.3,138c0-1.8,0.4-3.3,2.5-3.3s2.5,1.5,2.5,3.3s-0.4,3.3-2.5,3.3S39.3,139.8,39.3,138z M40.3,138
				c0,1.5,0.3,2.4,1.5,2.4s1.5-0.9,1.5-2.4s-0.3-2.4-1.5-2.4S40.3,136.5,40.3,138L40.3,138z"/>
		</g>
		<g>
			<path class="st1" d="M48.6,141.2l-2.8-4.5v4.5h-1v-6.4h0.9l2.8,4.5v-4.5h1v6.4H48.6z"/>
		</g>
		<g>
			<path class="st1" d="M56,139.3c0,1.2-0.7,2-2.4,2c-0.6,0-1.3-0.1-1.9-0.4V140c0.6,0.3,1.2,0.4,1.8,0.4c1.2,0,1.5-0.5,1.5-1.1
				s-0.3-0.9-1.2-1c-1.5-0.2-2.2-0.6-2.2-1.8c0-0.9,0.5-1.8,2.3-1.8c0.6,0,1.2,0.1,1.7,0.3v1c-0.5-0.2-1.1-0.3-1.7-0.3
				c-1,0-1.3,0.4-1.3,1s0.4,0.8,1.2,0.9C55.2,137.7,56,138,56,139.3z"/>
		</g>
		<g>
			<path class="st1" d="M56.6,139.2v-4.4h1v4.3c0,0.8,0.6,1.4,1.4,1.4s1.4-0.6,1.4-1.4v-4.3h1v4.4c-0.1,1.3-1.3,2.2-2.6,2.1
				C57.7,141.1,56.8,140.3,56.6,139.2L56.6,139.2z"/>
		</g>
		<g>
			<path class="st1" d="M63.1,141.2h-1v-6.4h2c1.7,0,2.2,0.9,2.2,2s-0.6,2-2.2,2h-1V141.2z M63.1,137.9h1.1c0.6,0.1,1.2-0.4,1.2-1
				c0.1-0.6-0.4-1.2-1-1.2c-0.1,0-0.1,0-0.2,0h-1.1V137.9z"/>
		</g>
		<g>
			<path class="st1" d="M67.9,141.2H67v-6.4h2c1.6,0,2.2,0.9,2.2,2s-0.6,2-2.2,2h-1.1L67.9,141.2z M67.9,137.9h1.1
				c0.6,0.1,1.2-0.4,1.2-1c0.1-0.6-0.4-1.2-1-1.2c-0.1,0-0.1,0-0.2,0h-1.1V137.9z"/>
		</g>
		<g>
			<path class="st1" d="M71.8,138c0-1.8,0.4-3.3,2.5-3.3s2.4,1.5,2.4,3.3s-0.4,3.3-2.4,3.3S71.8,139.8,71.8,138z M72.8,138
				c0,1.5,0.3,2.4,1.5,2.4s1.5-0.9,1.5-2.4s-0.3-2.4-1.5-2.4S72.7,136.5,72.8,138L72.8,138z"/>
		</g>
		<g>
			<path class="st1" d="M78.4,141.2h-1v-6.4h2.1c1.7,0,2.2,0.7,2.2,1.9c0.1,0.7-0.3,1.4-1,1.7l1.4,2.8h-1.2l-1.2-2.6h-1.3V141.2z
				 M78.4,137.7h1.2c0.9,0,1-0.5,1-1s-0.1-1-1-1h-1.2V137.7z"/>
		</g>
		<g>
			<path class="st1" d="M84.4,135.7v5.5h-1v-5.5h-1.6v-0.9h4.3v0.9H84.4z"/>
		</g>
		<g>
			<path class="st1" d="M9.2,144.7v5.5h-1v-5.5H6.6v-0.9h4.3v0.9H9.2z"/>
		</g>
		<g>
			<path class="st1" d="M11.1,147c0-1.8,0.4-3.3,2.5-3.3s2.5,1.5,2.5,3.3s-0.4,3.3-2.4,3.3S11.1,148.8,11.1,147z M12.1,147
				c0,1.5,0.3,2.4,1.5,2.4s1.5-0.9,1.5-2.4s-0.3-2.4-1.5-2.4S12,145.5,12.1,147L12.1,147z"/>
		</g>
		<g>
			<path class="st1" d="M18.2,150.2v-6.4h1.9c2.1,0,2.7,1.4,2.7,3.2s-0.6,3.2-2.7,3.2H18.2z M19.2,149.3h1c1.3,0,1.7-0.9,1.7-2.3
				s-0.4-2.3-1.7-2.3h-1V149.3z"/>
		</g>
		<g>
			<path class="st1" d="M27.1,147.3h-2.7v2h2.9v0.9h-3.9v-6.4h3.9v0.9h-2.9v1.8h2.6L27.1,147.3z"/>
		</g>
		<g>
			<path class="st1" d="M32.8,143.8l-2,6.4h-1l-2-6.4h1l1.5,5.2l1.5-5.2L32.8,143.8z"/>
		</g>
		<g>
			<path class="st1" d="M37,147.3h-2.7v2h2.9v0.9h-3.9v-6.4h3.9v0.9h-2.9v1.8H37V147.3z"/>
		</g>
		<g>
			<path class="st1" d="M39,149.3h2.8v0.9h-3.7v-6.4h1L39,149.3z"/>
		</g>
		<g>
			<path class="st1" d="M41.8,147c0-1.8,0.4-3.3,2.5-3.3s2.5,1.5,2.5,3.3s-0.4,3.3-2.5,3.3S41.8,148.8,41.8,147z M42.8,147
				c0,1.5,0.3,2.4,1.5,2.4s1.5-0.9,1.5-2.4s-0.3-2.4-1.5-2.4S42.8,145.5,42.8,147L42.8,147z"/>
		</g>
		<g>
			<path class="st1" d="M48.4,150.2h-1v-6.4h2c1.6,0,2.2,0.9,2.2,2s-0.6,2-2.2,2h-1.1L48.4,150.2z M48.4,146.9h1.1
				c0.6,0.1,1.2-0.4,1.2-1s-0.4-1.2-1-1.2c-0.1,0-0.1,0-0.2,0h-1.1V146.9z"/>
		</g>
		<g>
			<path class="st1" d="M52.5,150.2v-6.4h1v6.4H52.5z"/>
		</g>
		<g>
			<path class="st1" d="M58.2,150.2l-2.8-4.5v4.5h-0.9v-6.4h0.9l2.8,4.5v-4.5h0.9v6.4H58.2z"/>
		</g>
		<g>
			<path class="st1" d="M59.8,147c0-2,0.7-3.3,2.6-3.3c0.6,0,1.3,0.1,1.8,0.3v1c-0.5-0.2-1.1-0.4-1.7-0.4c-1.3,0-1.8,0.9-1.8,2.4
				s0.5,2.4,1.8,2.4c0.3,0,0.6,0,0.9-0.1v-1.7h-1.1v-0.9h2.1v3.2c-0.6,0.3-1.3,0.4-2,0.4C60.5,150.3,59.8,149,59.8,147z"/>
		</g>
		<g>
			<path class="st1" d="M9.4,152.7c0.5,0,1,0.1,1.5,0.3v0.9c-0.5-0.2-0.9-0.3-1.4-0.3c-1.2,0-1.7,0.8-1.7,2.4s0.5,2.4,1.7,2.4
				c0.5,0,1-0.1,1.4-0.3v0.9c-0.5,0.2-1,0.3-1.5,0.3c-1.9,0-2.6-1.2-2.6-3.3S7.5,152.7,9.4,152.7z"/>
		</g>
		<g>
			<path class="st1" d="M11.5,156c0-1.8,0.4-3.3,2.5-3.3s2.5,1.5,2.5,3.3s-0.4,3.3-2.4,3.3S11.5,157.8,11.5,156z M12.5,156
				c0,1.5,0.3,2.4,1.5,2.4s1.5-0.9,1.5-2.4s-0.3-2.4-1.5-2.4S12.5,154.5,12.5,156L12.5,156z"/>
		</g>
		<g>
			<path class="st1" d="M17.1,157.2v-4.4h1v4.3c-0.1,0.7,0.4,1.2,1,1.3c0.1,0,0.2,0,0.3,0c0.7,0.1,1.3-0.4,1.4-1c0-0.1,0-0.2,0-0.3
				v-4.3h1v4.4c0.1,1.1-0.8,2.1-1.9,2.1c-0.1,0-0.3,0-0.4,0c-1.1,0.2-2.2-0.6-2.3-1.7C17.1,157.5,17.1,157.3,17.1,157.2z"/>
		</g>
		<g>
			<path class="st1" d="M26.3,159.2l-2.8-4.5v4.5h-0.9v-6.4h0.9l2.8,4.5v-4.5h0.9v6.4H26.3z"/>
		</g>
		<g>
			<path class="st1" d="M30.3,153.7v5.5h-1v-5.5h-1.7v-0.9H32v0.9H30.3z"/>
		</g>
		<g>
			<path class="st1" d="M33.5,159.2h-1v-6.4h2.1c1.7,0,2.2,0.7,2.2,1.9c0.1,0.7-0.3,1.4-1,1.7l1.3,2.8H36l-1.2-2.6h-1.4V159.2z
				 M33.5,155.7h1.3c0.9,0,1-0.5,1-1s-0.1-1-1-1h-1.3V155.7z"/>
		</g>
		<g>
			<path class="st1" d="M37.9,159.2v-6.4h1v6.4H37.9z"/>
		</g>
		<g>
			<path class="st1" d="M43.5,156.3h-2.7v2h2.9v0.9h-3.9v-6.4h3.9v0.9h-2.9v1.8h2.7V156.3z"/>
		</g>
		<g>
			<path class="st1" d="M48.8,157.3c0,1.2-0.7,2-2.4,2c-0.6,0-1.3-0.1-1.9-0.4V158c0.6,0.3,1.2,0.4,1.8,0.4c1.2,0,1.5-0.5,1.5-1.1
				s-0.3-0.9-1.2-1c-1.5-0.2-2.2-0.6-2.2-1.8c0-0.9,0.5-1.8,2.3-1.8c0.6,0,1.2,0.1,1.7,0.3v1c-0.5-0.2-1.1-0.3-1.7-0.3
				c-1,0-1.3,0.4-1.3,1s0.4,0.8,1.2,0.9C48,155.7,48.8,156,48.8,157.3z"/>
		</g>
	</g>
	<g>
		<rect x="3.3" y="24" class="st1" width="94.8" height="94.8"/>
	</g>
	<g>
		<path class="st1" d="M98.2,20.7H3.3V3.3h94.8V20.7z M4.3,19.7h92.8V4.3H4.3L4.3,19.7z"/>
	</g>
	<g class="st2">
		<path class="st1" d="M6.7,6.9h4.5v1.4H9.9v8.8H8.1V8.3H6.7V6.9z"/>
	</g>
	<g class="st2">
		<path class="st1" d="M11.2,17.1l1.9-10.2h1.9L17,17.1h-1.8l-0.3-1.9h-1.8l-0.3,1.9H11.2z M13.3,13.9h1.4L14,9.8h0L13.3,13.9z"/>
	</g>
	<g class="st2">
		<path class="st1" d="M19.6,12.4v4.7h-1.7V6.9h2.5c1.7,0,2.4,0.9,2.4,2.3v1.3c0,1.1-0.4,1.7-1.4,2l1.6,4.6h-1.8L19.6,12.4z
			 M19.6,8.3v3.2h0.6c0.6,0,0.8-0.3,0.8-0.8V9.2c0-0.6-0.3-0.8-0.8-0.8H19.6z"/>
	</g>
	<g class="st2">
		<path class="st1" d="M26.4,11.7h2.4v5.4h-1.2V16c-0.2,0.8-0.7,1.2-1.6,1.2c-1.5,0-2.1-1.2-2.1-2.7V9.6c0-1.6,0.8-2.7,2.6-2.7
			c1.9,0,2.4,1.1,2.4,2.6v0.9h-1.6v-1c0-0.6-0.2-1-0.9-1c-0.6,0-0.9,0.4-0.9,1v5.5c0,0.6,0.3,1,0.8,1c0.6,0,0.8-0.3,0.8-1V13h-0.8
			V11.7z"/>
	</g>
	<g class="st2">
		<path class="st1" d="M30.2,6.9h4.1v1.4h-2.4v2.9h1.7v1.4h-1.7v3.1h2.4v1.4h-4.1V6.9z"/>
	</g>
	<g class="st2">
		<path class="st1" d="M35.1,6.9h4.5v1.4h-1.4v8.8h-1.7V8.3h-1.4V6.9z"/>
	</g>
	<g class="st2">
		<path class="st1" d="M88.8,17.1l1.9-10.2h1.9l1.9,10.2h-1.8l-0.3-1.9h-1.8l-0.3,1.9H88.8z M90.9,13.9h1.4l-0.7-4.1h0L90.9,13.9z"
			/>
	</g>
	<g class="st2">
		<path class="st1" d="M78.2,14.5v-5c0-1.6,0.7-2.7,2.5-2.7c1.9,0,2.4,1.1,2.4,2.6v0.5h-1.6V9.2c0-0.6-0.2-1-0.8-1
			c-0.6,0-0.8,0.4-0.8,1v2.2h0c0.3-0.5,0.7-0.8,1.4-0.8c1.2,0,1.9,0.8,1.9,2.5v1.5c0,1.6-0.7,2.6-2.5,2.6
			C78.9,17.2,78.2,16.1,78.2,14.5z M81.5,14.8V13c0-0.7-0.2-1-0.8-1c-0.5,0-0.8,0.4-0.8,0.9v1.9c0,0.6,0.2,1,0.8,1
			C81.2,15.8,81.5,15.4,81.5,14.8z"/>
	</g>
	<g>
		<polygon class="st1" points="85.4,9.9 85.4,14.1 87.6,12 		"/>
	</g>
	<g>
		<g>
			<path class="st0" d="M20,59.4c-0.3,0.3-0.8,0.5-1.3,0.4c-0.5,0-0.9-0.1-1.3-0.4c-0.6-0.6-0.7-1.6-0.2-2.3
				c0.2-0.3,1.4-2.2,1.5-2.3l0,0c0.1,0.2,1.3,2,1.5,2.3C20.7,57.8,20.6,58.8,20,59.4"/>
		</g>
		<g>
			<path class="st0" d="M29.8,63.4c-0.7,0.6-1.8,0.6-2.5,0c-0.6-0.6-0.7-1.6-0.2-2.3c0.2-0.3,1.4-2.2,1.5-2.3l0,0l0,0l0,0
				c0.1,0.2,1.3,2,1.5,2.3C30.5,61.8,30.4,62.7,29.8,63.4"/>
		</g>
		<g>
			<path class="st0" d="M25.5,41c-0.7,0.6-1.8,0.6-2.5,0c-0.6-0.6-0.7-1.6-0.2-2.3c0.2-0.3,1.4-2.2,1.5-2.3l0,0
				c0.1,0.2,1.3,2,1.5,2.3C26.1,39.4,26,40.4,25.5,41"/>
		</g>
		<g>
			<path class="st0" d="M43,61.9c-0.7,0.6-1.8,0.6-2.5,0c-0.6-0.6-0.7-1.6-0.2-2.3c0.2-0.3,1.4-2.2,1.5-2.3l0,0
				c0.1,0.2,1.3,2,1.5,2.3C43.7,60.3,43.6,61.3,43,61.9"/>
		</g>
		<g>
			<path class="st0" d="M19.1,48.6c-0.3,0.3-0.8,0.5-1.3,0.4c-0.5,0-0.9-0.1-1.3-0.4c-0.6-0.6-0.7-1.6-0.2-2.3
				c0.2-0.3,1.4-2.2,1.5-2.3l0,0l0,0l0,0c0.1,0.2,1.3,2,1.5,2.3C19.8,47,19.7,47.9,19.1,48.6"/>
		</g>
		<g>
			<path class="st0" d="M32.6,47c-0.7,0.6-1.8,0.6-2.5,0c-0.6-0.6-0.7-1.6-0.2-2.3c0.2-0.3,1.4-2.2,1.5-2.3l0,0
				c0.1,0.2,1.3,2,1.5,2.3C33.3,45.5,33.2,46.4,32.6,47"/>
		</g>
		<g>
			<path class="st0" d="M43.5,50.6c-0.7,0.6-1.8,0.6-2.5,0c-0.6-0.6-0.7-1.6-0.2-2.3c0.2-0.3,1.4-2.2,1.5-2.3l0,0l0,0l0,0
				c0.1,0.2,1.3,2,1.5,2.3C44.2,49,44.1,49.9,43.5,50.6"/>
		</g>
		<g>
			<path class="st0" d="M39.2,41.5c-0.7,0.6-1.8,0.6-2.5,0c-0.6-0.6-0.7-1.6-0.2-2.3c0.2-0.3,1.4-2.2,1.5-2.3l0,0
				c0.1,0.2,1.3,2,1.5,2.3C39.9,39.9,39.8,40.9,39.2,41.5"/>
		</g>
		<g>
			<path class="st0" d="M27,53.6c-0.3,0.3-0.8,0.5-1.3,0.4c-0.5,0-0.9-0.1-1.3-0.4c-0.6-0.6-0.7-1.6-0.2-2.3
				c0.2-0.3,1.4-2.2,1.5-2.3l0,0c0.1,0.2,1.3,2,1.5,2.3C27.7,52,27.6,53,27,53.6"/>
		</g>
		<g>
			<path class="st0" d="M36.5,56.1c-0.7,0.6-1.8,0.6-2.5,0c-0.6-0.6-0.7-1.6-0.2-2.3c0.2-0.3,1.4-2.2,1.5-2.3l0,0
				c0.1,0.2,1.3,2,1.5,2.3C37.2,54.6,37.1,55.5,36.5,56.1"/>
		</g>
		<g>
			<g>
				<polygon class="st0" points="47.4,67.1 47.4,93 13.5,93 13.5,67.1 12.2,67.1 12.2,94.3 48.7,94.3 48.7,67.1 				"/>
			</g>
			<g>
				<path class="st0" d="M15.4,79.9L15.4,79.9c6.6,6.1,13.5,1,14.9-0.2l0.1-0.1c0,0,0.1,0,0.1,0c0,0,0.1,0,0.1,0l0.1,0.1
					c1.4,1.2,8.2,6.2,14.7,0.3l0.2-0.2c0.1-0.1,0.1-0.1,0.1-0.2v-3.2c0-0.2-0.1-0.3-0.3-0.3c0,0,0,0,0,0h-0.1l-0.1,0.1
					c-2,1.4-8.5,5.3-14.4-0.1L30.9,76c-0.1-0.1-0.2-0.1-0.3-0.1c-0.1,0-0.2,0-0.2,0.1l-0.1,0.1c-5.8,5.4-12.2,1.7-14.3,0.2l-0.2-0.1
					c-0.1,0-0.1,0-0.2,0c-0.2,0-0.3,0.1-0.3,0.3v3.2l0,0l0,0C15.4,79.7,15.4,79.8,15.4,79.9z"/>
			</g>
			<g>
				<path class="st0" d="M15.4,87.2L15.4,87.2c6.6,6.1,13.5,1.1,14.9-0.2l0.2-0.1c0,0,0.1,0,0.1,0c0,0,0.1,0,0.1,0l0.1,0.1
					c1.4,1.2,8.2,6.2,14.7,0.3l0.2-0.2c0.1-0.1,0.1-0.1,0.1-0.2v-3.3c0-0.2-0.1-0.3-0.3-0.3c0,0,0,0,0,0c0,0-0.1,0-0.1,0l-0.1,0.1
					c-2,1.4-8.5,5.4-14.4-0.1l-0.1-0.1c-0.1-0.1-0.2-0.1-0.3-0.1c-0.1,0-0.2,0-0.2,0.1l-0.1,0.1c-5.8,5.4-12.2,1.7-14.3,0.2
					l-0.2-0.1c-0.1,0-0.1,0-0.2,0c-0.2,0-0.3,0.1-0.3,0.3V87l0,0l0,0C15.4,87.1,15.4,87.2,15.4,87.2z"/>
			</g>
			<g>
				<path class="st0" d="M15.9,73.3c0.3,0,0.5-0.2,0.5-0.5c0-0.3-0.2-0.5-0.5-0.5c-0.3,0-0.5,0.2-0.5,0.5c0,0,0,0,0,0
					C15.4,73.1,15.6,73.3,15.9,73.3C15.9,73.3,15.9,73.3,15.9,73.3z"/>
			</g>
			<g>
				<circle class="st0" cx="18.2" cy="72.8" r="0.5"/>
			</g>
			<g>
				<circle class="st0" cx="20.5" cy="72.8" r="0.5"/>
			</g>
			<g>
				<path class="st0" d="M22.8,73.3c0.3-0.1,0.4-0.4,0.4-0.6c0-0.2-0.2-0.3-0.4-0.4c-0.3,0.1-0.4,0.4-0.4,0.6
					C22.5,73.1,22.6,73.3,22.8,73.3z"/>
			</g>
			<g>
				<circle class="st0" cx="25" cy="72.8" r="0.5"/>
			</g>
			<g>
				<circle class="st0" cx="27.3" cy="72.8" r="0.5"/>
			</g>
			<g>
				<circle class="st0" cx="29.6" cy="72.8" r="0.5"/>
			</g>
			<g>
				<circle class="st0" cx="31.9" cy="72.8" r="0.5"/>
			</g>
			<g>
				<path class="st0" d="M34.2,73.3c0.3,0,0.5-0.2,0.5-0.5c0-0.3-0.2-0.5-0.5-0.5s-0.5,0.2-0.5,0.5c0,0,0,0,0,0
					C33.6,73.1,33.9,73.3,34.2,73.3L34.2,73.3z"/>
			</g>
			<g>
				<circle class="st0" cx="36.4" cy="72.8" r="0.5"/>
			</g>
			<g>
				<circle class="st0" cx="38.7" cy="72.8" r="0.5"/>
			</g>
			<g>
				<circle class="st0" cx="41" cy="72.8" r="0.5"/>
			</g>
			<g>
				<path class="st0" d="M43.3,73.3c0.3,0,0.5-0.2,0.5-0.5c0-0.3-0.2-0.5-0.5-0.5s-0.5,0.2-0.5,0.5c0,0,0,0,0,0
					C42.8,73.1,43,73.3,43.3,73.3L43.3,73.3z"/>
			</g>
			<g>
				<circle class="st0" cx="45.5" cy="72.8" r="0.5"/>
			</g>
			<g>
				<circle class="st0" cx="17.2" cy="71" r="0.5"/>
			</g>
			<g>
				<circle class="st0" cx="19.5" cy="71" r="0.5"/>
			</g>
			<g>
				<circle class="st0" cx="21.7" cy="71" r="0.5"/>
			</g>
			<g>
				<circle class="st0" cx="24" cy="71" r="0.5"/>
			</g>
			<g>
				<circle class="st0" cx="26.3" cy="71" r="0.5"/>
			</g>
			<g>
				<circle class="st0" cx="28.6" cy="71" r="0.5"/>
			</g>
			<g>
				<circle class="st0" cx="30.9" cy="71" r="0.5"/>
			</g>
			<g>
				<circle class="st0" cx="33.1" cy="71" r="0.5"/>
			</g>
			<g>
				<circle class="st0" cx="35.4" cy="71" r="0.5"/>
			</g>
			<g>
				<path class="st0" d="M37.7,71.5c0.3,0,0.5-0.2,0.5-0.5c0-0.3-0.2-0.5-0.5-0.5c-0.3,0-0.5,0.2-0.5,0.5S37.4,71.5,37.7,71.5
					L37.7,71.5z"/>
			</g>
			<g>
				<circle class="st0" cx="40" cy="71" r="0.5"/>
			</g>
			<g>
				<circle class="st0" cx="42.2" cy="71" r="0.5"/>
			</g>
			<g>
				<circle class="st0" cx="44.5" cy="71" r="0.5"/>
			</g>
			<g>
				<circle class="st0" cx="16" cy="69.3" r="0.5"/>
			</g>
			<g>
				<path class="st0" d="M18.3,69.8c0.3-0.1,0.5-0.3,0.4-0.6c0-0.2-0.2-0.4-0.4-0.4c-0.3-0.1-0.5,0.1-0.6,0.4
					c-0.1,0.3,0.1,0.5,0.4,0.6C18.2,69.8,18.3,69.8,18.3,69.8z"/>
			</g>
			<g>
				<path class="st0" d="M20.6,69.8c0.3,0,0.5-0.2,0.5-0.5c0-0.3-0.2-0.5-0.5-0.5s-0.5,0.2-0.5,0.5S20.3,69.8,20.6,69.8L20.6,69.8z"
					/>
			</g>
			<g>
				<circle class="st0" cx="22.9" cy="69.3" r="0.5"/>
			</g>
			<g>
				<circle class="st0" cx="25.2" cy="69.3" r="0.5"/>
			</g>
			<g>
				<circle class="st0" cx="27.4" cy="69.3" r="0.5"/>
			</g>
			<g>
				<path class="st0" d="M29.7,69.8c0.3-0.1,0.5-0.3,0.4-0.6c0-0.2-0.2-0.4-0.4-0.4c-0.3-0.1-0.5,0.1-0.6,0.4
					c-0.1,0.3,0.1,0.5,0.4,0.6C29.6,69.8,29.6,69.8,29.7,69.8z"/>
			</g>
			<g>
				<circle class="st0" cx="32" cy="69.3" r="0.5"/>
			</g>
			<g>
				<circle class="st0" cx="34.3" cy="69.3" r="0.5"/>
			</g>
			<g>
				<circle class="st0" cx="36.5" cy="69.3" r="0.5"/>
			</g>
			<g>
				<circle class="st0" cx="38.8" cy="69.3" r="0.5"/>
			</g>
			<g>
				<path class="st0" d="M41.1,69.8c0.3,0,0.5-0.2,0.5-0.5c0-0.3-0.2-0.5-0.5-0.5c-0.3,0-0.5,0.2-0.5,0.5S40.8,69.8,41.1,69.8
					L41.1,69.8z"/>
			</g>
			<g>
				<circle class="st0" cx="43.4" cy="69.3" r="0.5"/>
			</g>
			<g>
				<circle class="st0" cx="45.7" cy="69.3" r="0.5"/>
			</g>
		</g>
		<g>
			<path class="st0" d="M89.2,61.7c-0.1-0.1-0.2-0.1-0.3-0.1H57.3c-0.1,0-0.2,0-0.3,0.1c-0.1,0.1-0.1,0.2-0.1,0.3l5.3,32.1
				c0,0.2,0.2,0.3,0.4,0.3h6.5l0.4,4.7h-1.6c-0.2,0-0.3,0.1-0.3,0.3c0,0.1,0,0.1,0.1,0.2v0.1l5.2,6.7l0.1,0.1
				c0.1,0.1,0.2,0.1,0.3,0.1c0.1,0,0.2,0,0.2-0.1l0,0l0.1-0.1l5.1-6.7l0,0l0,0c0.1-0.1,0.1-0.1,0.1-0.2c0-0.2-0.1-0.3-0.3-0.3h-1.5
				l0.4-4.7h6.6c0.2,0,0.3-0.1,0.4-0.3l5-32.1C89.3,61.9,89.3,61.8,89.2,61.7z M77,87.4c-2.2,1.7-5.3,1.7-7.6,0
				c-1.8-1.8-2.1-4.7-0.7-6.8c0.5-1,4.2-6.4,4.5-6.9l0,0l0,0l0,0c0.3,0.5,4,5.9,4.5,6.9C79,82.7,78.7,85.5,77,87.4z M87,68.4
				c-1-0.3-2.1-0.3-3,0.2c-3.9,1.6-6.6,2.2-10.7,0.9c-2.6-0.8-5-2.5-7.9-1.5c-1.8,0.8-3.8,1.3-5.8,1.3L58.3,63h29.6L87,68.4z"/>
		</g>
	</g>
	<g>
		<path class="st1" d="M98.2,162.9h-95v-40.7h95V162.9z M4.2,161.9h93v-38.7h-93V161.9z"/>
	</g>
</g>
</svg>
