<?xml version="1.0" encoding="utf-8"?>
<!-- Generator: Adobe Illustrator 22.0.1, SVG Export Plug-In . SVG Version: 6.00 Build 0)  -->
<svg version="1.1" id="Layer_1" xmlns="http://www.w3.org/2000/svg" xmlns:xlink="http://www.w3.org/1999/xlink" x="0px" y="0px"
	 viewBox="0 0 101.5 157.1" style="enable-background:new 0 0 101.5 157.1;" xml:space="preserve">
<style type="text/css">
	.st0{fill:#FFFFFF;}
	.st1{fill:#26BDE2;}
	.st2{enable-background:new    ;}
</style>
<title>TARGET 1 A</title>
<g id="WHITE_BG">
	<g>
		<rect y="0" class="st0" width="101.5" height="157.1"/>
	</g>
</g>
<g id="TARGETS">
	<g>
		<g>
			<path class="st1" d="M7.8,132.2h-1v-6.4h2.1c1.6,0,2.2,1,2.2,2c0,1-0.6,2-2.2,2H7.8V132.2z M7.8,129H9c0.6,0.1,1.2-0.4,1.2-1
				c0.1-0.6-0.4-1.2-1-1.2c-0.1,0-0.1,0-0.2,0H7.8V129z"/>
		</g>
		<g>
			<path class="st1" d="M12.7,132.2h-1v-6.4h2.1c1.6,0,2.2,0.7,2.2,1.9c0.1,0.7-0.3,1.4-1,1.7l1.3,2.8h-1.1l-1.2-2.6h-1.3V132.2z
				 M12.7,128.7H14c0.9,0,1-0.5,1-1s-0.1-1-1-1h-1.3V128.7z"/>
		</g>
		<g>
			<path class="st1" d="M16.8,129c0-1.8,0.4-3.3,2.5-3.3s2.5,1.5,2.5,3.3s-0.4,3.3-2.5,3.3S16.8,130.8,16.8,129z M17.8,129
				c0,1.5,0.3,2.4,1.5,2.4s1.5-0.9,1.5-2.4s-0.3-2.4-1.5-2.4S17.7,127.5,17.8,129L17.8,129z"/>
		</g>
		<g>
			<path class="st1" d="M24.4,126.7v5.5h-1v-5.5h-1.7v-0.9h4.3v0.9L24.4,126.7z"/>
		</g>
		<g>
			<path class="st1" d="M30.2,129.3h-2.6v2h2.9v0.9h-3.9v-6.4h3.9v0.9h-2.9v1.8h2.6V129.3z"/>
		</g>
		<g>
			<path class="st1" d="M33.7,125.7c0.5,0,1,0.1,1.5,0.3v0.9c-0.5-0.2-0.9-0.3-1.4-0.3c-1.2,0-1.7,0.8-1.7,2.4s0.5,2.4,1.7,2.4
				c0.5,0,1-0.1,1.4-0.3v0.9c-0.5,0.2-1,0.3-1.5,0.3c-1.9,0-2.6-1.2-2.6-3.3S31.8,125.7,33.7,125.7z"/>
		</g>
		<g>
			<path class="st1" d="M38.3,126.7v5.5h-1v-5.5h-1.6v-0.9h4.3v0.9L38.3,126.7z"/>
		</g>
		<g>
			<path class="st1" d="M44.9,130.7h-2l-0.5,1.6h-1l2-6.4h1l2,6.4h-1L44.9,130.7z M43.9,127l-0.8,2.8h1.6L43.9,127z"/>
		</g>
		<g>
			<path class="st1" d="M50.6,132.2l-2.8-4.5v4.5h-1v-6.4h0.9l2.8,4.5v-4.5h0.9v6.4H50.6z"/>
		</g>
		<g>
			<path class="st1" d="M52.4,132.2v-6.4h1.9c2.1,0,2.7,1.4,2.7,3.2s-0.6,3.2-2.7,3.2L52.4,132.2z M53.4,131.3h1
				c1.3,0,1.7-0.9,1.7-2.3s-0.4-2.3-1.7-2.3h-1V131.3z"/>
		</g>
		<g>
			<path class="st1" d="M60.2,132.2h-1v-6.4h2.1c1.7,0,2.2,0.7,2.2,1.9c0.1,0.7-0.3,1.4-1,1.7l1.3,2.8h-1.1l-1.2-2.6h-1.3V132.2z
				 M60.2,128.7h1.2c0.9,0,1-0.5,1-1s-0.1-1-1-1h-1.2V128.7z"/>
		</g>
		<g>
			<path class="st1" d="M68,129.3h-2.6v2h2.9v0.9h-3.9v-6.4h3.9v0.9h-2.9v1.8H68V129.3z"/>
		</g>
		<g>
			<path class="st1" d="M73.3,130.3c0,1.2-0.7,2-2.4,2c-0.6,0-1.3-0.1-1.9-0.3v-1c0.6,0.3,1.2,0.4,1.8,0.4c1.2,0,1.5-0.5,1.5-1.1
				s-0.3-0.9-1.2-1c-1.6-0.2-2.2-0.6-2.2-1.8c0-0.9,0.5-1.8,2.3-1.8c0.6,0,1.2,0.1,1.7,0.3v1c-0.5-0.2-1.1-0.3-1.7-0.3
				c-1,0-1.3,0.4-1.3,1c0,0.7,0.4,0.8,1.2,0.9C72.5,128.7,73.3,129,73.3,130.3z"/>
		</g>
		<g>
			<path class="st1" d="M76.2,126.7v5.5h-1v-5.5h-1.6v-0.9h4.3v0.9L76.2,126.7z"/>
		</g>
		<g>
			<path class="st1" d="M78,129c0-1.8,0.4-3.3,2.4-3.3s2.6,1.5,2.6,3.3s-0.4,3.3-2.5,3.3S78,130.8,78,129z M79,129
				c0,1.5,0.3,2.4,1.5,2.4s1.5-0.9,1.5-2.4s-0.3-2.4-1.5-2.4S79,127.5,79,129z"/>
		</g>
		<g>
			<path class="st1" d="M84.8,132.2h-1v-6.4h2.1c1.7,0,2.2,0.7,2.2,1.9c0.1,0.7-0.3,1.4-1,1.7l1.3,2.8h-1.1l-1.2-2.6h-1.3V132.2z
				 M84.8,128.7H86c0.9,0,1-0.5,1-1s-0.1-1-1-1h-1.2V128.7z"/>
		</g>
		<g>
			<path class="st1" d="M92.6,129.3H90v2h2.9v0.9H89v-6.4h3.9v0.9H90v1.8h2.7L92.6,129.3z"/>
		</g>
		<g>
			<path class="st1" d="M9.5,134.8h1.2l1.1,5l0.8-5h1l-1.2,6.4h-1.1l-1.1-5.3L9,141.3H7.8l-1.2-6.4h1l0.8,5L9.5,134.8z"/>
		</g>
		<g>
			<path class="st1" d="M16.8,139.7h-2l-0.4,1.6h-1l2-6.4h1l2,6.4h-1L16.8,139.7z M15.8,136l-0.8,2.8h1.6L15.8,136z"/>
		</g>
		<g>
			<path class="st1" d="M20.3,135.7v5.5h-1v-5.5h-1.6v-0.9H22v0.9H20.3z"/>
		</g>
		<g>
			<path class="st1" d="M26.1,138.3h-2.6v2h2.9v0.9h-3.9v-6.4h3.9v0.9h-2.9v1.8h2.6V138.3z"/>
		</g>
		<g>
			<path class="st1" d="M28.2,141.2h-1v-6.4h2.1c1.6,0,2.2,0.7,2.2,1.9c0.1,0.7-0.3,1.4-1,1.7l1.3,2.8h-1.1l-1.2-2.6h-1.3V141.2z
				 M28.2,137.7h1.3c0.9,0,1-0.5,1-1s-0.1-1-1-1h-1.3V137.7z"/>
		</g>
		<g>
			<path class="st1" d="M34.2,138.4H32v-0.9h2.2V138.4z"/>
		</g>
		<g>
			<path class="st1" d="M35.7,141.2h-1v-6.4h2.1c1.7,0,2.2,0.7,2.2,1.9c0.1,0.7-0.3,1.4-1,1.7l1.3,2.8h-1.2l-1.2-2.6h-1.3V141.2z
				 M35.7,137.7H37c0.9,0,1-0.5,1-1s-0.1-1-1-1h-1.3V137.7z"/>
		</g>
		<g>
			<path class="st1" d="M43.6,138.3h-2.7v2h2.9v0.9H40v-6.4h3.9v0.9h-3v1.8h2.7L43.6,138.3z"/>
		</g>
		<g>
			<path class="st1" d="M45.6,140.3h2.8v0.9h-3.7v-6.4h1L45.6,140.3z"/>
		</g>
		<g>
			<path class="st1" d="M52.2,139.7h-2l-0.5,1.6h-1l2-6.4h1l2,6.4h-1L52.2,139.7z M51.2,136l-0.8,2.8H52L51.2,136z"/>
		</g>
		<g>
			<path class="st1" d="M55.7,135.7v5.5h-1v-5.5h-1.6v-0.9h4.3v0.9H55.7z"/>
		</g>
		<g>
			<path class="st1" d="M61.6,138.3h-2.7v2h2.9v0.9H58v-6.4h3.9v0.9h-2.9v1.8h2.7V138.3z"/>
		</g>
		<g>
			<path class="st1" d="M62.7,141.2v-6.4h1.9c2.1,0,2.7,1.4,2.7,3.2s-0.6,3.2-2.7,3.2H62.7z M63.7,140.3h1c1.3,0,1.7-0.9,1.7-2.3
				s-0.4-2.3-1.7-2.3h-1L63.7,140.3z"/>
		</g>
		<g>
			<path class="st1" d="M10.5,147.3H7.8v2h2.9v0.9H6.9v-6.4h3.9v0.9H7.8v1.8h2.6V147.3z"/>
		</g>
		<g>
			<path class="st1" d="M14,143.7c0.5,0,1,0.1,1.5,0.3v0.9c-0.4-0.2-0.9-0.3-1.4-0.3c-1.2,0-1.7,0.8-1.7,2.4s0.5,2.4,1.7,2.4
				c0.5,0,1-0.1,1.4-0.3v0.9c-0.5,0.2-1,0.3-1.5,0.3c-1.9,0-2.6-1.2-2.6-3.3S12.1,143.7,14,143.7z"/>
		</g>
		<g>
			<path class="st1" d="M16.1,147c0-1.8,0.4-3.3,2.5-3.3s2.5,1.5,2.5,3.3s-0.4,3.3-2.5,3.3S16.1,148.8,16.1,147z M17.1,147
				c0,1.5,0.3,2.4,1.5,2.4s1.4-0.9,1.4-2.4s-0.3-2.4-1.5-2.4S17.1,145.5,17.1,147L17.1,147z"/>
		</g>
		<g>
			<path class="st1" d="M25.9,148.3c0,1.2-0.7,2-2.4,2c-0.6,0-1.3-0.1-1.9-0.3v-1c0.6,0.3,1.2,0.4,1.8,0.4c1.1,0,1.5-0.5,1.5-1.1
				s-0.3-0.9-1.2-1c-1.5-0.2-2.2-0.6-2.2-1.8c0-0.9,0.5-1.8,2.3-1.8c0.6,0,1.2,0.1,1.7,0.3v1c-0.5-0.2-1.1-0.3-1.7-0.3
				c-1,0-1.3,0.4-1.3,1c0,0.7,0.4,0.8,1.2,0.9C25.1,146.7,25.9,147,25.9,148.3z"/>
		</g>
		<g>
			<path class="st1" d="M29.1,147.7v2.6h-1v-2.6l-2.1-3.8h1.1l1.6,3l1.6-3h1.1L29.1,147.7z"/>
		</g>
		<g>
			<path class="st1" d="M35.7,148.3c0,1.2-0.7,2-2.4,2c-0.6,0-1.3-0.1-1.9-0.4V149c0.6,0.3,1.2,0.4,1.8,0.4c1.2,0,1.5-0.5,1.5-1.1
				s-0.3-0.9-1.2-1c-1.5-0.2-2.2-0.6-2.2-1.8c0-0.9,0.5-1.8,2.3-1.8c0.6,0,1.2,0.1,1.7,0.3v1c-0.5-0.2-1.1-0.3-1.7-0.3
				c-1,0-1.3,0.4-1.3,1c0,0.7,0.4,0.8,1.2,0.9C35,146.7,35.7,147,35.7,148.3z"/>
		</g>
		<g>
			<path class="st1" d="M38.5,144.7v5.5h-1v-5.5h-1.7v-0.9h4.3v0.9H38.5z"/>
		</g>
		<g>
			<path class="st1" d="M44.4,147.3h-2.6v2h2.9v0.9h-3.9v-6.4h3.9v0.9h-2.9v1.8h2.7L44.4,147.3z"/>
		</g>
		<g>
			<path class="st1" d="M48.9,149.3H48l-1.6-3.9l0,4.8h-1v-6.4h1.2l1.7,4.3l1.7-4.3h1.3v6.4h-1v-4.8L48.9,149.3z"/>
		</g>
		<g>
			<path class="st1" d="M56.5,148.3c0,1.2-0.7,2-2.4,2c-0.6,0-1.3-0.1-1.9-0.4V149c0.6,0.3,1.2,0.4,1.8,0.4c1.2,0,1.5-0.5,1.5-1.1
				s-0.3-0.9-1.2-1c-1.6-0.2-2.2-0.6-2.2-1.8c0-0.9,0.5-1.8,2.3-1.8c0.6,0,1.2,0.1,1.7,0.3v1c-0.5-0.2-1.1-0.3-1.7-0.3
				c-1,0-1.3,0.4-1.3,1c0,0.7,0.4,0.8,1.2,0.9C55.8,146.7,56.5,147,56.5,148.3z"/>
		</g>
	</g>
	<g>
		<rect x="3.3" y="24" class="st1" width="94.8" height="94.8"/>
	</g>
	<g>
		<path class="st1" d="M98.2,20.7H3.3V3.3h94.8V20.7z M4.3,19.7h92.8V4.3H4.3L4.3,19.7z"/>
	</g>
	<g class="st2">
		<path class="st1" d="M6.7,6.9h4.5v1.4H9.9v8.8H8.1V8.3H6.7V6.9z"/>
	</g>
	<g class="st2">
		<path class="st1" d="M11.2,17.1l1.9-10.2h1.9L17,17.1h-1.8l-0.3-1.9h-1.8l-0.3,1.9H11.2z M13.3,13.9h1.4L14,9.8h0L13.3,13.9z"/>
	</g>
	<g class="st2">
		<path class="st1" d="M19.6,12.5v4.7h-1.7V6.9h2.5c1.7,0,2.4,0.9,2.4,2.3v1.3c0,1.1-0.4,1.7-1.4,2l1.6,4.6h-1.8L19.6,12.5z
			 M19.6,8.3v3.2h0.6c0.6,0,0.8-0.3,0.8-0.8V9.2c0-0.6-0.3-0.8-0.8-0.8H19.6z"/>
	</g>
	<g class="st2">
		<path class="st1" d="M26.4,11.7h2.4v5.4h-1.2V16c-0.2,0.8-0.7,1.2-1.6,1.2c-1.5,0-2.1-1.2-2.1-2.7V9.6c0-1.6,0.8-2.7,2.6-2.7
			c1.9,0,2.4,1.1,2.4,2.6v0.9h-1.6v-1c0-0.6-0.2-1-0.9-1c-0.6,0-0.9,0.4-0.9,1v5.5c0,0.6,0.3,1,0.8,1c0.6,0,0.8-0.3,0.8-1V13h-0.8
			V11.7z"/>
	</g>
	<g class="st2">
		<path class="st1" d="M30.2,6.9h4.1v1.4h-2.4v2.9h1.7v1.4h-1.7v3.1h2.4v1.4h-4.1V6.9z"/>
	</g>
	<g class="st2">
		<path class="st1" d="M35.1,6.9h4.5v1.4h-1.4v8.8h-1.7V8.3h-1.4V6.9z"/>
	</g>
	<g class="st2">
		<path class="st1" d="M78.5,14.5v-5c0-1.6,0.7-2.7,2.5-2.7c1.9,0,2.4,1.1,2.4,2.6v0.5h-1.6V9.2c0-0.6-0.2-1-0.8-1
			c-0.6,0-0.8,0.4-0.8,1v2.2h0c0.3-0.5,0.7-0.8,1.4-0.8c1.2,0,1.9,0.8,1.9,2.5v1.5c0,1.6-0.7,2.6-2.5,2.6
			C79.2,17.2,78.5,16.1,78.5,14.5z M81.9,14.8v-1.8c0-0.7-0.2-1-0.8-1c-0.5,0-0.8,0.4-0.8,0.9v1.9c0,0.6,0.2,1,0.8,1
			C81.6,15.8,81.9,15.5,81.9,14.8z"/>
	</g>
	<g class="st2">
	</g>
	<g class="st2">
		<path class="st1" d="M86.4,10.8c0.7,0,1.2,0.6,1.2,1.2c0,0.7-0.6,1.2-1.2,1.2c-0.7,0-1.2-0.6-1.2-1.2
			C85.2,11.4,85.7,10.8,86.4,10.8z"/>
	</g>
	<g class="st2">
		<path class="st1" d="M89.3,14.5v-5c0-1.6,0.7-2.7,2.5-2.7c1.9,0,2.4,1.1,2.4,2.6v0.5h-1.6V9.2c0-0.6-0.2-1-0.8-1
			c-0.6,0-0.8,0.4-0.8,1v2.2h0c0.3-0.5,0.7-0.8,1.4-0.8c1.2,0,1.9,0.8,1.9,2.5v1.5c0,1.6-0.7,2.6-2.5,2.6
			C90,17.2,89.3,16.1,89.3,14.5z M92.7,14.8v-1.8c0-0.7-0.2-1-0.8-1c-0.5,0-0.8,0.4-0.8,0.9v1.9c0,0.6,0.2,1,0.8,1
			C92.4,15.8,92.7,15.5,92.7,14.8z"/>
	</g>
	<g>
		<g>
			<path class="st0" d="M88.9,92.7c0,0-0.1,0-0.1,0l-0.2,0.1L88.4,93l0,0l-0.2,0.2l-0.1,0.1c-3.1,2-10.5,5.3-17.9-0.3l-0.2,0
				l-0.1-0.1h-0.1c-1.3-1-2.2-2.4-2.7-4c-0.5-2.4,4-4.2,4-4.2c10.9-4,15.8-5.3,7.3-10.8c-4-2.5-4.2-3-8.5-5.8
				c-3.6-2.3,1.8-1.8,5.4-4.2c1.1-0.6,1.5-1.9,0.9-3l12.2,18.2h2.5l-0.7-1.2l-20.8-31L62.5,57L44.2,31.8L10.4,79.1H13l21.8-30.4
				l15.4,5.8l4.8-4.3l7.6,10.5l7-10l5.8,8.7c0.4,0.8,1.6,3.8-4,4.9c-9.5,2-5.2,5-1.8,7.1c8.4,5.2,8.4,6.5,2,8.6
				c-1.6,0.5-3.1,1.1-4.6,1.8c-3.5,1.4-5.3,4-5.3,6.4c0,0.7,0.1,1.4,0.3,2.1c0.1,0.5,2.2,7.7-6.3,5.4C54,95,52.4,94.2,51,93.1
				L50.8,93c0,0-0.1,0-0.1,0c-0.1,0-0.1,0-0.2,0.1h-0.1l-0.2,0.2c-2.6,1.8-10.8,6.5-18.1-0.3L32,92.8c-0.1-0.1-0.2-0.1-0.3-0.1
				c-0.1,0-0.2,0-0.3,0.1l-0.1,0.1c-7.4,6.9-15.7,2-18.2,0.2L12.9,93c0,0-0.1,0-0.1,0c-0.2,0-0.4,0.2-0.4,0.4v4.1
				c0,0.1,0,0.2,0.1,0.3l0.2,0.2c8.3,7.3,16.8,1,18.6-0.5l0.2-0.2c0.1,0,0.1,0,0.2,0c0.1,0,0.1,0,0.2,0l0.2,0.2
				c1.8,1.5,10.3,7.8,18.6,0.4c7.8,7,15.8,1.8,18.3-0.1c0.5,0.3,0.8,0.5,0.8,0.5c2.3,1.3,4.8,2.3,7.3,2.8c3.2,0.8,6.6,0.3,9.3-1.5
				c0.9-0.5,1.8-1,2.6-1.7l0.3-0.2c0.1-0.1,0.1-0.2,0.1-0.3v-4.3C89.3,92.9,89.1,92.7,88.9,92.7C88.9,92.7,88.9,92.7,88.9,92.7z"/>
		</g>
		<g>
			<path class="st0" d="M39.2,85.7h1.4c0.1,0,0.1,0,0.1-0.1v-3.1H44c0.1,0,0.2-0.1,0.2-0.2c0,0,0,0,0,0c0,0,0-0.1,0-0.1L40.1,69l0,0
				c0-0.1-0.1-0.1-0.2-0.1c-0.1,0-0.1,0-0.2,0.1l0,0.1l-4.1,13.1c0,0,0,0.1,0,0.1c0,0.1,0.1,0.2,0.2,0.2c0,0,0,0,0,0h3.3L39.2,85.7
				C39.1,85.6,39.1,85.6,39.2,85.7z"/>
		</g>
		<g>
			<path class="st0" d="M28.7,85.7H30c0.1,0,0.1,0,0.1-0.1v-3.1h3.3c0.1,0,0.2-0.1,0.2-0.2l0,0c0,0,0-0.1,0-0.1L29.6,69l0,0
				c0-0.1-0.1-0.1-0.2-0.1c-0.1,0-0.1,0-0.2,0.1L29.2,69l-4.1,13.1c0,0,0,0.1,0,0.1c0,0.1,0.1,0.2,0.2,0.2l0,0h3.3L28.7,85.7
				C28.6,85.6,28.6,85.6,28.7,85.7z"/>
		</g>
		<g>
			<path class="st0" d="M49.6,85.7h1.4c0.1,0,0.1,0,0.1-0.1v-3.1h3.3c0.1,0,0.2-0.1,0.2-0.2c0,0,0-0.1,0-0.1L50.5,69l0,0
				c-0.1-0.1-0.2-0.1-0.3-0.1c0,0-0.1,0.1-0.1,0.1v0.1L46,82.1c0,0,0,0.1,0,0.1c0,0.1,0.1,0.2,0.2,0.2c0,0,0,0,0,0h3.3L49.6,85.7
				C49.5,85.6,49.5,85.6,49.6,85.7z"/>
		</g>
		<g>
			<path class="st0" d="M28.6,104.1c-0.6,0-1,0.4-1,1s0.4,1,1,1s1-0.4,1-1S29.2,104.1,28.6,104.1z"/>
		</g>
		<g>
			<path class="st0" d="M33.2,103.3c0-0.4-0.3-0.8-0.8-0.8c-0.4,0-0.8,0.3-0.8,0.8c0,0.4,0.3,0.8,0.8,0.8c0,0,0,0,0,0
				C32.8,104.1,33.2,103.8,33.2,103.3z"/>
		</g>
		<g>
			<path class="st0" d="M24.7,107.1L24.7,107.1c-0.3-0.4-2.3-2.9-5-2.9c-2.4,0-4.9,2.2-4.9,2.2c-0.6-1.1-1.7-1.9-2.9-2.1l0,0
				c0,0-0.1,0-0.1,0.1c0,0,0,0,0,0.1c1.2,1.7,1.2,3.9,0,5.6l0,0l0,0c0,0,0,0.1,0.1,0.1l0,0c1.2-0.2,2.3-0.9,2.9-2.1
				c0,0,2.5,2.2,4.9,2.2c2.7,0,4.7-2.5,5-2.9l0,0L24.7,107.1L24.7,107.1z M21.2,107.5c-0.4,0-0.8-0.4-0.8-0.8l0,0
				c0-0.4,0.4-0.8,0.8-0.8c0.4,0,0.8,0.4,0.8,0.8l0,0C22,107.1,21.7,107.5,21.2,107.5C21.2,107.5,21.2,107.5,21.2,107.5z"/>
		</g>
		<g>
			<path class="st0" d="M45.3,110.9c-1.2-1.7-1.2-3.9,0-5.6v-0.1c0,0,0-0.1-0.1-0.1l0,0c-1.3,0.2-2.3,1-2.9,2.1c0,0-2.5-2.2-4.9-2.2
				c-2.7,0-4.7,2.5-5,2.9l0,0v0.1l0,0c0.3,0.4,2.3,2.9,5,2.9c2.4,0,4.9-2.2,4.9-2.2c0.6,1.2,1.6,2,2.9,2.2h0
				C45.3,111,45.3,111,45.3,110.9L45.3,110.9L45.3,110.9z M35.9,108.4c-0.4,0-0.8-0.4-0.8-0.8c0-0.4,0.4-0.8,0.8-0.8
				c0.4,0,0.8,0.4,0.8,0.8S36.3,108.4,35.9,108.4C35.9,108.4,35.9,108.4,35.9,108.4z"/>
		</g>
		<g>
			<path class="st0" d="M89.3,104.1v-0.3c0-0.2-0.2-0.3-0.4-0.3c-0.1,0-0.1,0-0.2,0.1l-0.2,0.2c-2.7,1.9-11,6.7-18.4-0.3l-0.1-0.1
				c-0.2-0.2-0.4-0.2-0.6,0c0,0,0,0,0,0l-0.1,0.1c-7.6,7.1-16,2-18.6,0.2l-0.2-0.1c0,0-0.1,0-0.1,0c-0.2,0-0.4,0.2-0.4,0.4v3.2
				c0,0.1,0,0.2,0.1,0.3l0.2,0.2c5.4,4.5,13.3,4.8,19,0.6l0.2-0.2c0.1,0,0.1,0,0.2,0c0.1,0,0.1,0,0.2,0L70,108
				c1.8,1.5,11.1,6.6,19.2-0.8l0,0c0.1-0.1,0.1-0.1,0.1-0.2l0,0l0,0L89.3,104.1z"/>
		</g>
	</g>
	<g>
		<path class="st1" d="M98.2,153.8H3.3v-31.6h94.8V153.8z M4.3,152.8h92.8v-29.6H4.3L4.3,152.8z"/>
	</g>
</g>
</svg>
