<?xml version="1.0" encoding="utf-8"?>
<!-- Generator: Adobe Illustrator 22.0.1, SVG Export Plug-In . SVG Version: 6.00 Build 0)  -->
<svg version="1.1" id="Layer_1" xmlns="http://www.w3.org/2000/svg" xmlns:xlink="http://www.w3.org/1999/xlink" x="0px" y="0px"
	 viewBox="0 0 101.5 166.2" style="enable-background:new 0 0 101.5 166.2;" xml:space="preserve">
<style type="text/css">
	.st0{fill:#FFFFFF;}
	.st1{fill:#26BDE2;}
	.st2{enable-background:new    ;}
	.st3{opacity:0.5;enable-background:new    ;}
	.st4{fill:#000300;}
</style>
<title>TARGET 1.3</title>
<g id="WHITE_BG">
	<g>
		<rect y="0" class="st0" width="101.5" height="166.2"/>
	</g>
</g>
<g id="TARGETS">
	<g>
		<g>
			<path class="st1" d="M7,132.2v-6.4h1v6.4H7z"/>
		</g>
		<g>
			<path class="st1" d="M12.5,131.3h-0.9l-1.6-3.9v4.8H9.1v-6.4h1.2l1.7,4.3l1.7-4.3H15v6.4h-1v-4.8L12.5,131.3z"/>
		</g>
		<g>
			<path class="st1" d="M16.9,132.2h-1v-6.4h2c1.6,0,2.2,1,2.2,2c0,1-0.6,2-2.2,2h-1V132.2z M16.9,128.9H18c0.6,0,1.1-0.5,1.1-1.1
				c0-0.6-0.5-1.1-1.1-1.1c0,0,0,0,0,0h-1.1V128.9z"/>
		</g>
		<g>
			<path class="st1" d="M21.7,132.2h-1v-6.4h2.1c1.6,0,2.2,0.7,2.2,1.9c0.1,0.7-0.3,1.4-1,1.7l1.3,2.8h-1.2l-1.2-2.6h-1.3V132.2z
				 M21.7,128.7H23c0.9,0,1-0.5,1-1s-0.1-1-1-1h-1.3V128.7z"/>
		</g>
		<g>
			<path class="st1" d="M25.7,129c0-1.8,0.4-3.3,2.5-3.3s2.5,1.5,2.5,3.3s-0.4,3.3-2.5,3.3S25.7,130.8,25.7,129z M26.7,129
				c0,1.5,0.3,2.4,1.5,2.4s1.5-0.9,1.5-2.4s-0.3-2.4-1.5-2.4S26.7,127.5,26.7,129L26.7,129z"/>
		</g>
		<g>
			<path class="st1" d="M35.9,125.8l-2,6.5h-1l-2-6.5h1l1.5,5.2l1.5-5.2L35.9,125.8z"/>
		</g>
		<g>
			<path class="st1" d="M40,129.3h-2.6v2h2.9v0.9h-3.9v-6.4h3.9v0.9h-2.9v1.8H40V129.3z"/>
		</g>
		<g>
			<path class="st1" d="M45,125.8h1.2l1.1,5l0.8-5h1l-1.2,6.5h-1.2l-1.1-5.3l-1.2,5.3h-1.2l-1.2-6.5h1l0.8,5L45,125.8z"/>
		</g>
		<g>
			<path class="st1" d="M52.2,130.6h-2l-0.5,1.6h-1l2-6.4h1l2,6.4h-1L52.2,130.6z M51.2,127l-0.8,2.8H52L51.2,127z"/>
		</g>
		<g>
			<path class="st1" d="M55.8,126.7v5.5h-1v-5.5h-1.6v-0.9h4.3v0.9L55.8,126.7z"/>
		</g>
		<g>
			<path class="st1" d="M61.6,129.3h-2.7v2h2.9v0.9H58v-6.4h3.9v0.9h-3v1.8h2.7V129.3z"/>
		</g>
		<g>
			<path class="st1" d="M63.6,132.2h-1v-6.4h2.1c1.7,0,2.2,0.7,2.2,1.9c0.1,0.7-0.3,1.4-1,1.7l1.3,2.8h-1.1l-1.1-2.6h-1.4V132.2z
				 M63.6,128.7h1.3c0.9,0,1-0.5,1-1s-0.1-1-1-1h-1.3V128.7z"/>
		</g>
		<g>
			<path class="st1" d="M10.4,141l2,0.4v1l-4-1.2c-1.3-0.4-1.6-1.6-1.6-3.2c0-1.9,0.4-3.3,2.5-3.3s2.5,1.4,2.5,3.3
				C11.7,139.5,11.5,140.6,10.4,141L10.4,141z M7.8,138c0,1.5,0.3,2.4,1.5,2.4s1.5-0.9,1.5-2.4s-0.3-2.4-1.5-2.4S7.8,136.5,7.8,138z
				"/>
		</g>
		<g>
			<path class="st1" d="M12.4,139.2v-4.4h1v4.3c-0.1,0.6,0.4,1.2,1,1.3c0.1,0,0.2,0,0.3,0c0.6,0.1,1.3-0.3,1.4-1c0-0.1,0-0.2,0-0.3
				v-4.3H17v4.4c0,1.1-0.8,2.1-2,2.1c-0.1,0-0.2,0-0.3,0c-1.1,0.1-2.1-0.7-2.3-1.8C12.4,139.4,12.4,139.3,12.4,139.2z"/>
		</g>
		<g>
			<path class="st1" d="M20.9,139.6h-2l-0.5,1.6h-1l2-6.4h1l2,6.4h-1L20.9,139.6z M19.9,136l-0.9,2.8h1.6L19.9,136z"/>
		</g>
		<g>
			<path class="st1" d="M23.8,140.3h2.8v0.9h-3.7v-6.4h1V140.3z"/>
		</g>
		<g>
			<path class="st1" d="M27.3,141.2v-6.4h1v6.4H27.3z"/>
		</g>
		<g>
			<path class="st1" d="M31.6,135.7v5.5h-1v-5.5H29v-0.9h4.3v0.9H31.6z"/>
		</g>
		<g>
			<path class="st1" d="M36.6,138.6v2.6h-1v-2.6l-2.2-3.8h1.1l1.6,3l1.6-3h1.1L36.6,138.6z"/>
		</g>
		<g>
			<path class="st1" d="M39.2,140.3l-0.7,2h-0.7l0.2-2H39.2z"/>
		</g>
		<g>
			<path class="st1" d="M43.9,134.8h1.2l1.1,5l0.8-5h1l-1.2,6.5h-1.2l-1.1-5.3l-1.2,5.3h-1.2l-1.2-6.5h1l0.8,5L43.9,134.8z"/>
		</g>
		<g>
			<path class="st1" d="M51.2,139.6h-2l-0.5,1.6h-1l2-6.4h1l2,6.4h-1L51.2,139.6z M50.2,136l-0.8,2.8H51L50.2,136z"/>
		</g>
		<g>
			<path class="st1" d="M57.2,139.3c0,1.2-0.7,2-2.4,2c-0.6,0-1.3-0.1-1.9-0.4v-1c0.6,0.3,1.2,0.4,1.8,0.4c1.2,0,1.5-0.5,1.5-1.1
				s-0.3-0.9-1.2-1c-1.5-0.2-2.2-0.6-2.2-1.8c0-0.9,0.5-1.9,2.3-1.9c0.6,0,1.2,0.1,1.7,0.3v1c-0.5-0.2-1.1-0.3-1.7-0.3
				c-1,0-1.3,0.4-1.3,1s0.4,0.8,1.2,0.9C56.4,137.7,57.2,138,57.2,139.3z"/>
		</g>
		<g>
			<path class="st1" d="M59.9,135.7v5.5H59v-5.5h-1.7v-0.9h4.3v0.9H59.9z"/>
		</g>
		<g>
			<path class="st1" d="M65.8,138.3h-2.7v2h2.9v0.9h-3.9v-6.4h3.9v0.9h-2.9v1.8h2.7V138.3z"/>
		</g>
		<g>
			<path class="st1" d="M69.6,134.8h1.2l1.1,5l0.8-5h1l-1.2,6.5h-1.2l-1.2-5.3l-1.2,5.3h-1.1l-1.2-6.5h1l0.8,5L69.6,134.8z"/>
		</g>
		<g>
			<path class="st1" d="M76.9,139.6h-2l-0.4,1.6h-1l2-6.4h1l2,6.4h-1L76.9,139.6z M75.9,136l-0.8,2.8h1.6L75.9,136z"/>
		</g>
		<g>
			<path class="st1" d="M80.4,135.7v5.5h-1v-5.5h-1.6v-0.9h4.3v0.9H80.4z"/>
		</g>
		<g>
			<path class="st1" d="M86.2,138.3h-2.7v2h2.9v0.9h-3.9v-6.4h3.9v0.9h-2.9v1.8h2.7V138.3z"/>
		</g>
		<g>
			<path class="st1" d="M88.3,141.2h-1v-6.4h2.1c1.7,0,2.2,0.7,2.2,1.9c0.1,0.7-0.3,1.4-1,1.7l1.3,2.8h-1.1l-1.2-2.6h-1.3V141.2z
				 M88.3,137.7h1.3c0.9,0,1-0.5,1-1s-0.1-1-1-1h-1.3V137.7z"/>
		</g>
		<g>
			<path class="st1" d="M9.2,144.7v5.5h-1v-5.5H6.6v-0.9h4.3v0.9H9.2z"/>
		</g>
		<g>
			<path class="st1" d="M12.5,150.2h-1v-6.4h2.1c1.6,0,2.2,0.7,2.2,1.9c0.1,0.7-0.3,1.4-1,1.7l1.3,2.8H15l-1.1-2.6h-1.4V150.2z
				 M12.5,146.7h1.3c0.9,0,1-0.5,1-1s-0.1-1-1-1h-1.3V146.7z"/>
		</g>
		<g>
			<path class="st1" d="M20.3,147.3h-2.6v2h2.9v0.9h-3.9v-6.4h3.9v0.9h-2.9v1.8h2.6V147.3z"/>
		</g>
		<g>
			<path class="st1" d="M24.5,148.6h-2l-0.5,1.6h-1l2-6.4h1l2,6.4h-1L24.5,148.6z M23.5,145l-0.8,2.8h1.6L23.5,145z"/>
		</g>
		<g>
			<path class="st1" d="M28,144.7v5.5h-0.9v-5.5h-1.6v-0.9h4.3v0.9H28z"/>
		</g>
		<g>
			<path class="st1" d="M33.7,149.3h-0.9l-1.6-3.9v4.8h-1v-6.4h1.2l1.7,4.4l1.7-4.4h1.2v6.4h-1l0-4.8L33.7,149.3z"/>
		</g>
		<g>
			<path class="st1" d="M40.7,147.3H38v2h3v0.9h-3.9v-6.4H41v0.9h-3v1.8h2.7V147.3z"/>
		</g>
		<g>
			<path class="st1" d="M45.5,150.2l-2.8-4.5v4.5h-0.9v-6.4h0.9l2.8,4.5v-4.5h0.9v6.4H45.5z"/>
		</g>
		<g>
			<path class="st1" d="M49.5,144.7v5.5h-1v-5.5h-1.6v-0.9h4.3v0.9H49.5z"/>
		</g>
		<g>
			<path class="st1" d="M56.2,148.6h-2l-0.5,1.6h-1l2-6.4h1l2,6.4h-1L56.2,148.6z M55.2,145l-0.8,2.8H56L55.2,145z"/>
		</g>
		<g>
			<path class="st1" d="M61.9,150.2l-2.8-4.5v4.5h-0.9v-6.4H59l2.8,4.5v-4.5h1v6.4H61.9z"/>
		</g>
		<g>
			<path class="st1" d="M63.7,150.2v-6.4h1.9c2.1,0,2.7,1.4,2.7,3.2s-0.6,3.2-2.7,3.2H63.7z M64.6,149.3h1c1.3,0,1.7-0.9,1.7-2.3
				s-0.4-2.3-1.7-2.3h-1V149.3z"/>
		</g>
		<g>
			<path class="st1" d="M74.7,148.3c0,1.2-0.7,2-2.4,2c-0.6,0-1.3-0.1-1.9-0.4v-1c0.6,0.3,1.2,0.4,1.8,0.4c1.2,0,1.5-0.5,1.5-1.1
				s-0.3-0.9-1.2-1c-1.6-0.2-2.2-0.6-2.2-1.8c0-0.9,0.5-1.9,2.3-1.9c0.6,0,1.2,0.1,1.7,0.3v1c-0.5-0.2-1.1-0.3-1.7-0.3
				c-1,0-1.3,0.4-1.3,1s0.4,0.8,1.2,0.9C73.9,146.7,74.7,147,74.7,148.3z"/>
		</g>
		<g>
			<path class="st1" d="M78.4,148.6h-2l-0.4,1.6h-1l2-6.4h1l2,6.4h-1L78.4,148.6z M77.4,145l-0.8,2.8h1.6L77.4,145z"/>
		</g>
		<g>
			<path class="st1" d="M83.9,147.4h-2.6v2.8h-1v-6.4h3.8v0.9h-2.8v1.8h2.6V147.4z"/>
		</g>
		<g>
			<path class="st1" d="M88.5,147.3h-2.6v2h2.9v0.9h-3.9v-6.4h3.9v0.9h-2.9v1.8h2.7L88.5,147.3z"/>
		</g>
		<g>
			<path class="st1" d="M7.8,159.2h-1v-6.4H9c1.6,0,2.2,0.8,2.2,1.9c0.1,0.7-0.3,1.4-1,1.7l1.3,2.8h-1.2l-1.1-2.6H7.8V159.2z
				 M7.8,155.7h1.3c0.9,0,1-0.5,1-1s-0.1-1-1-1H7.8V155.7z"/>
		</g>
		<g>
			<path class="st1" d="M15.7,156.3H13v2h3v0.9h-3.9v-6.4H16v0.9h-3v1.8h2.7L15.7,156.3z"/>
		</g>
		<g>
			<path class="st1" d="M16.8,157.2v-4.4h1v4.3c-0.1,0.7,0.4,1.2,1,1.3c0.1,0,0.2,0,0.3,0c0.6,0.1,1.3-0.3,1.4-1c0-0.1,0-0.2,0-0.3
				v-4.3h1v4.4c0.1,1.1-0.8,2.1-1.9,2.1c-0.2,0-0.3,0-0.4,0c-1.1,0.2-2.1-0.6-2.3-1.7C16.8,157.5,16.7,157.4,16.8,157.2z"/>
		</g>
		<g>
			<path class="st1" d="M26.5,157.3c0,1.2-0.7,2-2.4,2c-0.6,0-1.3-0.1-1.9-0.4v-1c0.6,0.3,1.2,0.4,1.8,0.4c1.1,0,1.5-0.5,1.5-1.1
				s-0.3-0.9-1.2-1c-1.5-0.2-2.1-0.6-2.1-1.8c0-0.9,0.5-1.9,2.3-1.9c0.6,0,1.2,0.1,1.7,0.3v1c-0.5-0.2-1.1-0.3-1.7-0.3
				c-1,0-1.3,0.4-1.3,1s0.4,0.8,1.2,0.9C25.7,155.7,26.5,156,26.5,157.3z"/>
		</g>
		<g>
			<path class="st1" d="M30.9,156.3h-2.7v2h2.9v0.9h-3.9v-6.4h3.9v0.9h-2.9v1.8h2.6L30.9,156.3z"/>
		</g>
	</g>
	<g>
		<rect x="3.3" y="24" class="st1" width="94.8" height="94.8"/>
	</g>
	<g>
		<path class="st1" d="M98.2,20.7H3.3V3.3h94.8V20.7z M4.3,19.7h92.8V4.3H4.3L4.3,19.7z"/>
	</g>
	<g class="st2">
		<path class="st1" d="M6.7,6.9h4.5v1.4H9.9v8.8H8.1V8.3H6.7V6.9z"/>
	</g>
	<g class="st2">
		<path class="st1" d="M11.2,17.1l1.9-10.2h1.9L17,17.1h-1.8l-0.3-1.9h-1.8l-0.3,1.9H11.2z M13.3,13.9h1.4L14,9.8h0L13.3,13.9z"/>
	</g>
	<g class="st2">
		<path class="st1" d="M19.6,12.4v4.7h-1.7V6.9h2.5c1.7,0,2.4,0.9,2.4,2.3v1.3c0,1.1-0.4,1.7-1.4,2l1.6,4.6h-1.8L19.6,12.4z
			 M19.6,8.3v3.2h0.6c0.6,0,0.8-0.3,0.8-0.8V9.2c0-0.6-0.3-0.8-0.8-0.8H19.6z"/>
	</g>
	<g class="st2">
		<path class="st1" d="M26.4,11.7h2.4v5.4h-1.2V16c-0.2,0.8-0.7,1.2-1.6,1.2c-1.5,0-2.1-1.2-2.1-2.7V9.6c0-1.6,0.8-2.7,2.6-2.7
			c1.9,0,2.4,1.1,2.4,2.6v0.9h-1.6v-1c0-0.6-0.2-1-0.9-1c-0.6,0-0.9,0.4-0.9,1v5.5c0,0.6,0.3,1,0.8,1c0.6,0,0.8-0.3,0.8-1V13h-0.8
			V11.7z"/>
	</g>
	<g class="st2">
		<path class="st1" d="M30.2,6.9h4.1v1.4h-2.4v2.9h1.7v1.4h-1.7v3.1h2.4v1.4h-4.1V6.9z"/>
	</g>
	<g class="st2">
		<path class="st1" d="M35.1,6.9h4.5v1.4h-1.4v8.8h-1.7V8.3h-1.4V6.9z"/>
	</g>
	<g class="st2">
		<path class="st1" d="M78.9,14.5v-5c0-1.6,0.7-2.7,2.5-2.7c1.9,0,2.4,1.1,2.4,2.6v0.5h-1.6V9.2c0-0.6-0.2-1-0.8-1
			c-0.6,0-0.8,0.4-0.8,1v2.2h0c0.3-0.5,0.7-0.8,1.4-0.8c1.2,0,1.9,0.8,1.9,2.5v1.5c0,1.6-0.7,2.6-2.5,2.6
			C79.6,17.2,78.9,16.1,78.9,14.5z M82.3,14.8V13c0-0.7-0.2-1-0.8-1c-0.5,0-0.8,0.4-0.8,0.9v1.9c0,0.6,0.2,1,0.8,1
			C82,15.8,82.3,15.5,82.3,14.8z"/>
	</g>
	<g class="st2">
	</g>
	<g class="st2">
		<path class="st1" d="M86.8,10.8c0.7,0,1.2,0.6,1.2,1.2c0,0.7-0.6,1.2-1.2,1.2c-0.7,0-1.2-0.6-1.2-1.2
			C85.6,11.4,86.1,10.8,86.8,10.8z"/>
	</g>
	<g class="st2">
		<path class="st1" d="M94.3,9.1V10c0,0.9-0.5,1.4-1.2,1.7c0.9,0.2,1.3,0.8,1.3,1.7v1.5c0,1.4-0.8,2.3-2.5,2.3c-1.7,0-2.4-1-2.4-2.5
			v-1.3h1.6v1.5c0,0.6,0.2,1,0.8,1c0.5,0,0.8-0.4,0.8-0.9v-1.7c0-0.5-0.2-0.8-0.8-0.8h-0.7v-1.3h0.6c0.6,0,0.9-0.3,0.9-0.8V9.2
			c0-0.6-0.2-0.9-0.7-0.9s-0.7,0.4-0.7,1v1h-1.6V9.4c0-1.5,0.6-2.6,2.4-2.6C93.6,6.8,94.3,7.7,94.3,9.1z"/>
	</g>
	<g>
		<path class="st1" d="M98.2,162.9h-95v-40.7h95V162.9z M4.2,161.9h93v-38.7h-93V161.9z"/>
	</g>
	<g class="st3">
		<polygon class="st4" points="31,85.2 32.5,76.6 44.3,84.8 37.2,88.3 		"/>
	</g>
	<g>
		<g>
			<polygon points="34.6,81.6 34,85.1 36.3,82.8 			"/>
		</g>
		<g>
			<polygon points="39.3,84.9 33.7,90.5 36.9,92 42.1,86.8 			"/>
		</g>
		<g>
			<g>
				<g>
					<path d="M44.6,73.6c0.5,0.2,0.7,0.7,0.5,1.2c0,0,0,0,0,0c-0.2,0.5-0.7,0.7-1.2,0.5c-0.5-0.2-0.7-0.7-0.5-1.2l0,0
						C43.6,73.6,44.2,73.4,44.6,73.6"/>
				</g>
				<g>
					<path d="M39.2,74.5c0.5,0.2,0.7,0.7,0.5,1.2c-0.2,0.5-0.8,0.7-1.2,0.5C38,76,37.8,75.5,38,75l0,0
						C38.2,74.5,38.7,74.3,39.2,74.5"/>
				</g>
				<g>
					<path d="M47.6,80c0.5,0.2,0.7,0.8,0.4,1.3c-0.2,0.4-0.7,0.6-1.1,0.5c-0.5-0.2-0.8-0.7-0.6-1.2c0.2-0.5,0.7-0.8,1.2-0.6
						C47.5,80,47.5,80,47.6,80"/>
				</g>
				<g>
					<path d="M45.6,91.2c0.5,0.2,0.7,0.7,0.5,1.2c-0.2,0.5-0.7,0.7-1.2,0.5c-0.5-0.2-0.7-0.7-0.5-1.2c0,0,0,0,0,0
						C44.6,91.2,45.1,91,45.6,91.2"/>
				</g>
				<g>
					<path d="M30.4,89c0.5,0.2,0.7,0.7,0.5,1.2c-0.2,0.5-0.7,0.7-1.2,0.5l0,0c-0.5-0.2-0.7-0.7-0.5-1.2c0,0,0,0,0,0
						C29.4,89,30,88.8,30.4,89"/>
				</g>
				<g>
					<path d="M29.5,76.9c0.5,0.2,0.7,0.7,0.5,1.2c-0.2,0.5-0.7,0.7-1.2,0.5s-0.7-0.7-0.5-1.2c0,0,0,0,0,0C28.5,77,29,76.7,29.5,76.9
						"/>
				</g>
				<g>
					<path d="M33.2,71.7c0.5,0.2,0.7,0.7,0.5,1.2c-0.2,0.5-0.7,0.7-1.2,0.5c-0.5-0.2-0.7-0.7-0.6-1.2c0,0,0,0,0,0
						C32.2,71.7,32.7,71.5,33.2,71.7C33.2,71.7,33.2,71.7,33.2,71.7"/>
				</g>
				<g>
					<path d="M27.2,71.4c0.5,0.2,0.7,0.7,0.5,1.2c0,0,0,0,0,0c-0.1,0.5-0.6,0.8-1.1,0.8c-0.5-0.1-0.8-0.6-0.8-1.1
						c0-0.1,0.1-0.3,0.2-0.4C26.2,71.4,26.7,71.2,27.2,71.4"/>
				</g>
				<g>
					<path d="M39.2,97.5c0.5,0.2,0.7,0.7,0.5,1.2c-0.1,0.5-0.7,0.8-1.2,0.6c-0.5-0.1-0.8-0.7-0.6-1.2c0-0.1,0-0.1,0.1-0.1
						C38.2,97.6,38.7,97.3,39.2,97.5"/>
				</g>
				<g>
					<path d="M34.8,102c0.5,0.2,0.7,0.7,0.5,1.2c-0.2,0.5-0.7,0.7-1.2,0.5c-0.5-0.2-0.7-0.7-0.5-1.2c0,0,0,0,0,0
						C33.8,102,34.3,101.8,34.8,102"/>
				</g>
				<g>
					<path d="M32.3,96.2c0.5,0.2,0.7,0.8,0.4,1.3c-0.2,0.4-0.7,0.6-1.1,0.5c-0.5-0.2-0.7-0.8-0.4-1.3C31.4,96.3,31.9,96,32.3,96.2"
						/>
				</g>
				<g>
					<path d="M44.6,99.9c0.5,0.2,0.7,0.7,0.5,1.2c0,0,0,0,0,0c-0.2,0.5-0.7,0.7-1.2,0.5c0,0,0,0,0,0c-0.5-0.2-0.7-0.7-0.5-1.2
						C43.6,99.9,44.2,99.7,44.6,99.9"/>
				</g>
			</g>
			<g>
				<g>
					<path d="M28.2,53.4c0.1,0,0.1,0,0.2,0c0.1,0,0.1,0,0.2,0l0.2,0.2C30.4,55,38.6,61,46.5,54l0.2-0.2c0.1-0.1,0.1-0.2,0.1-0.2v-4
						c0-0.2-0.2-0.4-0.4-0.4c0,0-0.1,0-0.1,0l-0.2,0.1c-2.4,1.7-10.3,6.5-17.5-0.2l-0.1-0.1c-0.1-0.1-0.2-0.1-0.3-0.1
						c-0.1,0-0.2,0-0.3,0.1l-0.1,0.1c-2.3,2.4-5.6,3.6-8.9,3.4l0.8,4.7c3-0.5,5.8-1.7,8.2-3.7L28.2,53.4z"/>
				</g>
				<g>
					<path d="M28.2,62.3c0.1,0,0.1,0,0.2,0c0.1,0,0.1,0,0.2,0l0.2,0.2c1.7,1.4,9.9,7.5,17.8,0.4l0.2-0.2c0.1-0.1,0.1-0.2,0.1-0.2
						v-3.9c0-0.2-0.2-0.4-0.4-0.4h-0.1l-0.2,0.1c-2.4,1.7-10.3,6.5-17.5-0.2L28.6,58c-0.1-0.1-0.2-0.1-0.3-0.1c-0.1,0-0.2,0-0.3,0.1
						l-0.1,0.1c-2,2-4.6,3.1-7.4,3.4l0.8,4.4c2.5-0.6,4.8-1.8,6.7-3.4L28.2,62.3z"/>
				</g>
			</g>
		</g>
	</g>
	<g>
		<g>
			<path class="st0" d="M70.2,80.6c-0.2,0-0.5,0-0.7-0.1c-0.5-0.2-0.8-0.5-1.1-1c-0.4-1,0.1-2.1,1-2.5c0.5-0.2,1-0.2,1.5,0l0,0
				c0.4,0.2,0.8,0.6,1,1c0.2,0.5,0.2,1,0,1.4C71.7,80.2,71,80.6,70.2,80.6z M70.2,77.3c-0.2,0-0.4,0-0.6,0.1c-0.7,0.3-1,1.1-0.7,1.9
				c0.3,0.7,1.1,1,1.9,0.7c0.7-0.3,1-1.1,0.7-1.8c-0.1-0.3-0.4-0.6-0.8-0.8C70.6,77.3,70.4,77.3,70.2,77.3L70.2,77.3z"/>
		</g>
		<g>
			<path class="st0" d="M59.6,94c-0.2,0-0.5,0-0.7-0.1c-1-0.4-1.5-1.5-1.1-2.5c0,0,0,0,0,0c0.4-1,1.5-1.5,2.5-1.1c0,0,0,0,0,0l0,0
				c0.4,0.2,0.8,0.6,1,1c0.2,0.5,0.2,1,0,1.4C61,93.5,60.3,94,59.6,94z M59.6,90.7c-0.2,0-0.4,0-0.5,0.1c-0.7,0.3-1.1,1.1-0.8,1.8
				c0,0,0,0,0,0c0.1,0.3,0.4,0.6,0.8,0.8c0.7,0.3,1.5,0,1.8-0.8c0,0,0,0,0,0c0.1-0.3,0.1-0.7,0-1.1c-0.1-0.3-0.4-0.6-0.8-0.8
				C59.9,90.7,59.8,90.7,59.6,90.7L59.6,90.7z"/>
		</g>
		<g>
			<path class="st0" d="M58.6,75.6c-0.2,0-0.3,0-0.4-0.1c-0.3-0.1-0.5-0.4-0.7-0.6c-0.1-0.3-0.1-0.6,0-0.9c0.1-0.3,0.3-0.5,0.6-0.6
				c0.3-0.1,0.6-0.1,0.9,0l0,0c0.6,0.2,0.9,0.9,0.7,1.5C59.6,75.4,59.1,75.7,58.6,75.6L58.6,75.6z M58.6,73.8c-0.1,0-0.2,0-0.3,0.1
				C58,74,57.9,74.4,58,74.7c0,0,0,0,0,0c0.1,0.4,0.5,0.5,0.9,0.4c0.4-0.1,0.5-0.5,0.4-0.9c-0.1-0.2-0.2-0.3-0.4-0.4
				C58.8,73.8,58.7,73.8,58.6,73.8L58.6,73.8z"/>
		</g>
		<g>
			<path class="st0" d="M61.5,83.2c-0.1,0-0.3,0-0.4-0.1c-0.6-0.2-0.9-0.9-0.7-1.5c0.3-0.6,0.9-0.9,1.5-0.6l0,0
				c0.3,0.1,0.5,0.3,0.7,0.6c0.2,0.6,0,1.3-0.7,1.6C61.9,83.2,61.7,83.3,61.5,83.2L61.5,83.2z M61.5,81.4c-0.1,0-0.2,0-0.3,0.1
				c-0.2,0.1-0.3,0.2-0.4,0.4c-0.1,0.2-0.1,0.4,0,0.5c0.1,0.2,0.2,0.3,0.4,0.4c0.4,0.1,0.8,0,0.9-0.4c0.1-0.2,0.1-0.4,0-0.5
				c-0.1-0.2-0.2-0.3-0.4-0.4l0,0C61.7,81.4,61.6,81.4,61.5,81.4L61.5,81.4z"/>
		</g>
		<g>
			<path class="st0" d="M68.6,99.3c-0.1,0-0.3,0-0.4-0.1c-0.3-0.1-0.5-0.3-0.7-0.6c-0.1-0.3-0.1-0.6,0-0.9c0.2-0.6,0.9-0.9,1.5-0.7
				l0,0c0.6,0.2,0.9,0.9,0.7,1.5C69.5,99,69,99.3,68.6,99.3L68.6,99.3z M68.6,97.4c-0.1,0-0.2,0-0.3,0.1c-0.2,0.1-0.3,0.2-0.4,0.4
				c-0.1,0.2-0.1,0.4,0,0.5c0.1,0.2,0.2,0.3,0.4,0.4c0.4,0.1,0.7,0,0.9-0.4s0-0.7-0.4-0.9l0,0C68.7,97.5,68.7,97.5,68.6,97.4
				L68.6,97.4z"/>
		</g>
		<g>
			<g>
				<path class="st0" d="M51.9,104.2h-1.7v-4.7h1.7V104.2z M51.9,95.4h-1.7v-4.7h1.7V95.4z M51.9,86.5h-1.7v-4.7h1.7V86.5z"/>
			</g>
			<g>
				<path class="st0" d="M51.9,77.8h-1.7V73h1.7V77.8z M51.9,69h-1.7v-4.7h1.7V69z"/>
			</g>
		</g>
		<g>
			<path class="st0" d="M51.9,60.4h-1.7v-4.7h1.7V60.4z M51.9,51.6h-1.7v-4.7h1.7V51.6z M51.9,42.7h-1.7V38h1.7V42.7z"/>
		</g>
		<g>
			<path class="st0" d="M88.4,33.3C88.2,33.1,88,33,87.7,33h-74c-0.3,0-0.5,0.1-0.7,0.3c-0.2,0.2-0.2,0.5-0.2,0.7l12.4,75.2
				c0.1,0.4,0.4,0.7,0.9,0.7h50c0.4,0,0.8-0.3,0.8-0.7L88.6,34C88.6,33.8,88.5,33.5,88.4,33.3z M84.4,52.5l-0.8,4.9
				c-0.5,0-1.1-0.1-1.6-0.1l-0.7,4.3c0.5,0.1,1.1,0.1,1.6,0l-0.7,4.6c-0.5-0.1-1.1-0.2-1.6-0.3l-6.5,40.6H28.4l-7.1-40.5l-0.8-4.4
				l-0.7-4.2L19,52.6l-2.9-16.3h69.2l-2.6,16.3C83.3,52.6,83.8,52.6,84.4,52.5L84.4,52.5z"/>
		</g>
		<g>
			<path class="st0" d="M74.2,49.1C74.1,49,74,49,73.9,49c-0.1,0-0.2,0-0.3,0.1l-0.1,0.1c-7,6.5-14.8,2-17.3,0.2l-0.2-0.1
				c-0.1,0-0.1-0.1-0.2-0.1c-0.2,0-0.3,0.1-0.4,0.3v3.9l0,0l0,0c0,0.1,0,0.2,0.1,0.2l0,0c8,7.4,16.3,1.3,18.1-0.2l0.2-0.2
				c0.1,0,0.1,0,0.2,0c0.1,0,0.1,0,0.2,0l0.2,0.2c2.2,1.9,4.9,3.2,7.8,3.7c0.5,0.1,1.1,0.1,1.6,0.1l0.8-4.9
				c-0.5,0.1-1.1,0.1-1.6,0.1c-3.2,0-6.2-1.2-8.4-3.4L74.2,49.1z"/>
		</g>
		<g>
			<path class="st0" d="M74.2,58c-0.1-0.1-0.2-0.1-0.3-0.1c-0.1,0-0.2,0-0.3,0.1l-0.1,0.1c-7,6.5-14.8,2-17.3,0.2l-0.2-0.1
				c-0.1,0-0.1-0.1-0.2,0c-0.2,0-0.3,0.1-0.4,0.3v3.9l0,0c0,0,0,0,0,0c0,0.1,0,0.2,0.1,0.2l0,0c8,7.4,16.3,1.3,18.1-0.2l0.2-0.2
				c0.1,0,0.1,0,0.2,0c0.1,0,0.1,0,0.2,0l0.2,0.2c1.9,1.5,4.1,2.7,6.4,3.3c0.5,0.1,1.1,0.2,1.6,0.3l0.8-4.6c-0.5,0-1.1,0-1.6,0
				c-2.6-0.3-5.1-1.5-7-3.4L74.2,58z"/>
		</g>
	</g>
</g>
</svg>
