<?xml version="1.0" encoding="utf-8"?>
<!-- Generator: Adobe Illustrator 22.0.1, SVG Export Plug-In . SVG Version: 6.00 Build 0)  -->
<svg version="1.1" id="Layer_1" xmlns="http://www.w3.org/2000/svg" xmlns:xlink="http://www.w3.org/1999/xlink" x="0px" y="0px"
	 viewBox="0 0 101.5 166.1" style="enable-background:new 0 0 101.5 166.1;" xml:space="preserve">
<style type="text/css">
	.st0{fill:#FFFFFF;}
	.st1{fill:#26BDE2;}
	.st2{enable-background:new    ;}
</style>
<title>TARGET 1.5</title>
<g id="WHITE_BG">
	<g>
		<rect y="0" class="st0" width="101.5" height="166.2"/>
	</g>
</g>
<g id="TARGETS">
	<g>
		<g>
			<path class="st1" d="M7,132.2v-6.4h1v6.4H7z"/>
		</g>
		<g>
			<path class="st1" d="M12.5,131.3h-0.9l-1.6-3.9v4.8H9v-6.4h1.2l1.8,4.3l1.7-4.3H15v6.4h-1v-4.8L12.5,131.3z"/>
		</g>
		<g>
			<path class="st1" d="M16.9,132.2h-1v-6.4h2c1.6,0,2.2,1,2.2,2c0,1-0.6,2-2.2,2h-1V132.2z M16.9,129H18c0.6,0.1,1.2-0.4,1.2-1
				s-0.4-1.2-1-1.2c-0.1,0-0.1,0-0.2,0h-1.1V129z"/>
		</g>
		<g>
			<path class="st1" d="M21.6,131.3h2.8v0.9h-3.7v-6.4h1V131.3z"/>
		</g>
		<g>
			<path class="st1" d="M28.5,129.3h-2.6v2h2.9v0.9h-3.9v-6.4h3.9v0.9h-2.9v1.8h2.6V129.3z"/>
		</g>
		<g>
			<path class="st1" d="M33,131.3h-0.9l-1.6-3.9v4.8h-1v-6.4h1.2l1.7,4.3l1.7-4.3h1.2v6.4h-1v-4.8L33,131.3z"/>
		</g>
		<g>
			<path class="st1" d="M40,129.3h-2.6v2h2.9v0.9h-3.9v-6.4h3.9v0.9h-2.9v1.8h2.7L40,129.3z"/>
		</g>
		<g>
			<path class="st1" d="M44.8,132.2l-2.8-4.5v4.5h-0.9v-6.4H42l2.8,4.5v-4.5h1v6.4H44.8z"/>
		</g>
		<g>
			<path class="st1" d="M48.9,126.7v5.5h-1v-5.5h-1.6v-0.9h4.3v0.9L48.9,126.7z"/>
		</g>
		<g>
			<path class="st1" d="M7,141.2v-6.4h1v6.4H7z"/>
		</g>
		<g>
			<path class="st1" d="M12.8,141.2l-2.8-4.5v4.5H9.1v-6.4h0.9l2.8,4.5v-4.5h0.9v6.4L12.8,141.2z"/>
		</g>
		<g>
			<path class="st1" d="M16.8,135.7v5.5h-1v-5.5h-1.6v-0.9h4.3v0.9H16.8z"/>
		</g>
		<g>
			<path class="st1" d="M22.6,138.3h-2.6v2h2.9v0.9H19v-6.4h3.9v0.9h-3v1.8h2.6V138.3z"/>
		</g>
		<g>
			<path class="st1" d="M23.6,138c0-2,0.7-3.3,2.6-3.3c0.6,0,1.3,0.1,1.8,0.3v1c-0.5-0.2-1.1-0.4-1.7-0.4c-1.3,0-1.8,0.9-1.8,2.4
				s0.5,2.4,1.8,2.4c0.3,0,0.6,0,0.9-0.1v-1.7h-1.1v-0.9h2.1v3.2c-0.6,0.3-1.3,0.4-2,0.4C24.3,141.3,23.6,140,23.6,138z"/>
		</g>
		<g>
			<path class="st1" d="M30.1,141.2h-1v-6.4h2.1c1.7,0,2.2,0.7,2.2,1.9c0.1,0.7-0.3,1.4-1,1.7l1.3,2.8h-1.1l-1.2-2.6h-1.3V141.2z
				 M30.1,137.7h1.2c0.9,0,1-0.5,1-1s-0.1-1-1-1h-1.3V137.7z"/>
		</g>
		<g>
			<path class="st1" d="M37.4,139.7h-2l-0.5,1.6h-1l2-6.4h1l2,6.4h-1L37.4,139.7z M36.4,136l-0.8,2.8h1.6L36.4,136z"/>
		</g>
		<g>
			<path class="st1" d="M40.9,135.7v5.5H40v-5.5h-1.7v-0.9h4.3v0.9H40.9z"/>
		</g>
		<g>
			<path class="st1" d="M46.7,138.3h-2.6v2H47v0.9h-3.9v-6.4H47v0.9h-2.9v1.8h2.7L46.7,138.3z"/>
		</g>
		<g>
			<path class="st1" d="M47.8,141.2v-6.4h1.9c2.1,0,2.7,1.4,2.7,3.2s-0.6,3.2-2.7,3.2H47.8z M48.8,140.3h1c1.3,0,1.7-0.9,1.7-2.3
				s-0.4-2.3-1.7-2.3h-1V140.3z"/>
		</g>
		<g>
			<path class="st1" d="M57.1,134.8h1.2l1.1,5l0.8-5h1l-1.2,6.4h-1.1l-1.2-5.3l-1.2,5.3h-1.2l-1.2-6.4h1l0.8,5L57.1,134.8z"/>
		</g>
		<g>
			<path class="st1" d="M64.4,139.7h-2l-0.5,1.6h-1l2-6.4h1l2,6.4h-1L64.4,139.7z M63.4,136l-0.8,2.8h1.6L63.4,136z"/>
		</g>
		<g>
			<path class="st1" d="M67.9,135.7v5.5H67v-5.5h-1.7v-0.9h4.3v0.9H67.9z"/>
		</g>
		<g>
			<path class="st1" d="M73.7,138.3h-2.7v2H74v0.9h-3.9v-6.4H74v0.9h-2.9v1.8h2.7V138.3z"/>
		</g>
		<g>
			<path class="st1" d="M75.8,141.2h-1v-6.4h2.1c1.7,0,2.2,0.7,2.2,1.9c0.1,0.7-0.3,1.4-1,1.7l1.3,2.8h-1.2l-1.2-2.6h-1.3V141.2z
				 M75.8,137.7H77c0.9,0,1-0.5,1-1s-0.1-1-1-1h-1.2V137.7z"/>
		</g>
		<g>
			<path class="st1" d="M7.8,150.2h-1v-6.4H9c1.6,0,2.2,0.7,2.2,1.9c0.1,0.7-0.3,1.4-1,1.7l1.3,2.8h-1.2l-1.1-2.6H7.8V150.2z
				 M7.8,146.7h1.3c0.9,0,1-0.5,1-1s-0.1-1-1-1H7.8V146.7z"/>
		</g>
		<g>
			<path class="st1" d="M15.7,147.3H13v2h3v0.9h-3.9v-6.4H16v0.9h-3v1.8h2.7L15.7,147.3z"/>
		</g>
		<g>
			<path class="st1" d="M21,148.3c0,1.2-0.7,2-2.4,2c-0.6,0-1.3-0.1-1.9-0.4V149c0.6,0.3,1.2,0.4,1.8,0.4c1.1,0,1.5-0.5,1.5-1.1
				s-0.3-0.9-1.2-1c-1.5-0.2-2.2-0.6-2.2-1.8c0-0.9,0.5-1.8,2.3-1.8c0.6,0,1.2,0.1,1.7,0.3v1c-0.5-0.2-1.1-0.3-1.7-0.3
				c-1,0-1.3,0.4-1.3,1c0,0.7,0.4,0.8,1.2,0.9C20.2,146.7,21,147,21,148.3z"/>
		</g>
		<g>
			<path class="st1" d="M21.6,147c0-1.8,0.4-3.3,2.5-3.3s2.5,1.5,2.5,3.3s-0.4,3.3-2.5,3.3S21.6,148.8,21.6,147z M22.6,147
				c0,1.5,0.3,2.4,1.5,2.4s1.5-0.9,1.5-2.4s-0.3-2.4-1.5-2.4S22.5,145.5,22.6,147L22.6,147z"/>
		</g>
		<g>
			<path class="st1" d="M27.2,148.2v-4.4h1v4.3c-0.1,0.7,0.4,1.3,1,1.3c0.1,0,0.2,0,0.3,0c0.6,0.1,1.3-0.3,1.4-1c0-0.1,0-0.2,0-0.3
				v-4.3h1v4.4c0,1.1-0.8,2.1-2,2.1c-0.1,0-0.2,0-0.3,0c-1.1,0.1-2.2-0.7-2.3-1.8C27.2,148.4,27.2,148.3,27.2,148.2z"/>
		</g>
		<g>
			<path class="st1" d="M33.7,150.2h-1v-6.4h2.1c1.7,0,2.2,0.7,2.2,1.9c0.1,0.7-0.3,1.4-1,1.7l1.3,2.8h-1.1l-1.1-2.6h-1.3V150.2z
				 M33.7,146.7h1.2c0.9,0,1-0.5,1-1s-0.1-1-1-1h-1.2V146.7z"/>
		</g>
		<g>
			<path class="st1" d="M40.3,143.7c0.5,0,1,0.1,1.5,0.3v0.9c-0.5-0.2-0.9-0.3-1.4-0.3c-1.2,0-1.7,0.8-1.7,2.4s0.5,2.4,1.7,2.4
				c0.5,0,1-0.1,1.4-0.3v0.9c-0.5,0.2-1,0.3-1.5,0.3c-1.9,0-2.6-1.2-2.6-3.3S38.4,143.7,40.3,143.7z"/>
		</g>
		<g>
			<path class="st1" d="M46.3,147.3h-2.6v2h2.9v0.9h-3.9v-6.4h3.9v0.9h-2.9v1.8h2.7L46.3,147.3z"/>
		</g>
		<g>
			<path class="st1" d="M51.6,148.3c0,1.2-0.7,2-2.4,2c-0.6,0-1.3-0.1-1.9-0.4V149c0.6,0.3,1.2,0.4,1.8,0.4c1.2,0,1.5-0.5,1.5-1.1
				s-0.3-0.9-1.2-1c-1.5-0.2-2.2-0.6-2.2-1.8c0-0.9,0.5-1.8,2.3-1.8c0.6,0,1.2,0.1,1.7,0.3v1c-0.5-0.2-1.1-0.3-1.7-0.3
				c-1,0-1.3,0.4-1.3,1c0,0.7,0.4,0.8,1.2,0.9C50.8,146.7,51.6,147,51.6,148.3z"/>
		</g>
		<g>
			<path class="st1" d="M10.3,158.3H9.4l-1.6-3.9v4.8h-1v-6.4h1.3l1.7,4.3l1.7-4.3h1.2v6.4h-0.9v-4.8L10.3,158.3z"/>
		</g>
		<g>
			<path class="st1" d="M16.8,157.7h-2l-0.4,1.6h-1l2-6.4h1l2,6.4h-1L16.8,157.7z M15.8,154l-0.8,2.8h1.6L15.8,154z"/>
		</g>
		<g>
			<path class="st1" d="M22.5,159.2l-2.8-4.5v4.5h-0.9v-6.4h0.9l2.8,4.5v-4.5h1v6.4H22.5z"/>
		</g>
		<g>
			<path class="st1" d="M27.6,157.7h-2l-0.5,1.6H24l2-6.4h1l2,6.4h-1L27.6,157.7z M26.6,154l-0.8,2.8h1.6L26.6,154z"/>
		</g>
		<g>
			<path class="st1" d="M29.3,156c0-2,0.7-3.3,2.6-3.3c0.6,0,1.3,0.1,1.8,0.3v1c-0.5-0.2-1.1-0.4-1.7-0.4c-1.3,0-1.8,0.9-1.8,2.4
				s0.5,2.4,1.8,2.4c0.3,0,0.6,0,0.9-0.1v-1.7h-1.1v-0.9h2.1v3.2c-0.6,0.3-1.3,0.4-2,0.4C30,159.3,29.3,158,29.3,156z"/>
		</g>
		<g>
			<path class="st1" d="M38.5,156.3h-2.6v2h2.9v0.9h-3.9v-6.4h3.9v0.9h-2.9v1.8h2.7L38.5,156.3z"/>
		</g>
		<g>
			<path class="st1" d="M43,158.3h-0.9l-1.6-3.9v4.8h-1v-6.4h1.3l1.7,4.3l1.7-4.3h1.2v6.4h-1v-4.8L43,158.3z"/>
		</g>
		<g>
			<path class="st1" d="M50,156.3h-2.6v2h2.9v0.9h-3.9v-6.4h3.9v0.9h-2.9v1.8H50V156.3z"/>
		</g>
		<g>
			<path class="st1" d="M54.8,159.2l-2.8-4.5v4.5h-0.9v-6.4H52l2.8,4.5v-4.5h1v6.4H54.8z"/>
		</g>
		<g>
			<path class="st1" d="M58.8,153.7v5.5h-1v-5.5h-1.6v-0.9h4.3v0.9H58.8z"/>
		</g>
	</g>
	<g>
		<rect x="3.3" y="24" class="st1" width="94.8" height="94.8"/>
	</g>
	<g>
		<path class="st1" d="M98.2,20.7H3.3V3.3h94.8V20.7z M4.3,19.7h92.8V4.3H4.3L4.3,19.7z"/>
	</g>
	<g class="st2">
		<path class="st1" d="M6.7,6.9h4.5v1.4H9.9v8.8H8.1V8.3H6.7V6.9z"/>
	</g>
	<g class="st2">
		<path class="st1" d="M11.2,17.1l1.9-10.2h1.9L17,17.1h-1.8l-0.3-1.9h-1.8l-0.3,1.9H11.2z M13.3,13.9h1.4L14,9.8h0L13.3,13.9z"/>
	</g>
	<g class="st2">
		<path class="st1" d="M19.6,12.5v4.7h-1.7V6.9h2.5c1.7,0,2.4,0.9,2.4,2.3v1.3c0,1.1-0.4,1.7-1.4,2l1.6,4.6h-1.8L19.6,12.5z
			 M19.6,8.3v3.2h0.6c0.6,0,0.8-0.3,0.8-0.8V9.2c0-0.6-0.3-0.8-0.8-0.8H19.6z"/>
	</g>
	<g class="st2">
		<path class="st1" d="M26.4,11.7h2.4v5.4h-1.2V16c-0.2,0.8-0.7,1.2-1.6,1.2c-1.5,0-2.1-1.2-2.1-2.7V9.6c0-1.6,0.8-2.7,2.6-2.7
			c1.9,0,2.4,1.1,2.4,2.6v0.9h-1.6v-1c0-0.6-0.2-1-0.9-1c-0.6,0-0.9,0.4-0.9,1v5.5c0,0.6,0.3,1,0.8,1c0.6,0,0.8-0.3,0.8-1V13h-0.8
			V11.7z"/>
	</g>
	<g class="st2">
		<path class="st1" d="M30.2,6.9h4.1v1.4h-2.4v2.9h1.7v1.4h-1.7v3.1h2.4v1.4h-4.1V6.9z"/>
	</g>
	<g class="st2">
		<path class="st1" d="M35.1,6.9h4.5v1.4h-1.4v8.8h-1.7V8.3h-1.4V6.9z"/>
	</g>
	<g class="st2">
		<path class="st1" d="M78.7,14.5v-5c0-1.6,0.7-2.7,2.5-2.7c1.9,0,2.4,1.1,2.4,2.6v0.5H82V9.2c0-0.6-0.2-1-0.8-1
			c-0.6,0-0.8,0.4-0.8,1v2.2h0c0.3-0.5,0.7-0.8,1.4-0.8c1.2,0,1.9,0.8,1.9,2.5v1.5c0,1.6-0.7,2.6-2.5,2.6
			C79.4,17.2,78.7,16.1,78.7,14.5z M82,14.8v-1.8c0-0.7-0.2-1-0.8-1c-0.5,0-0.8,0.4-0.8,0.9v1.9c0,0.6,0.2,1,0.8,1
			C81.8,15.8,82,15.5,82,14.8z"/>
	</g>
	<g class="st2">
	</g>
	<g class="st2">
		<path class="st1" d="M86.6,10.8c0.7,0,1.2,0.6,1.2,1.2c0,0.7-0.6,1.2-1.2,1.2c-0.7,0-1.2-0.6-1.2-1.2
			C85.3,11.4,85.9,10.8,86.6,10.8z"/>
	</g>
	<g class="st2">
		<path class="st1" d="M94.4,12.4v2.5c0,1.4-0.7,2.3-2.4,2.3c-1.7,0-2.4-1-2.4-2.5v-1.2h1.6v1.3c0,0.6,0.2,1,0.8,1
			c0.5,0,0.7-0.4,0.7-0.9v-2.5c0-0.6-0.2-0.9-0.7-0.9c-0.5,0-0.8,0.3-0.8,0.9v0.2h-1.6V6.9h4.5v1.4h-2.9v2.5h0
			c0.3-0.5,0.8-0.7,1.4-0.7C93.5,10.2,94.4,10.8,94.4,12.4z"/>
	</g>
	<g>
		<g>
			<path class="st0" d="M26.2,64.8c0-0.9-0.7-1.5-1.6-1.5c-0.9,0-1.5,0.7-1.5,1.6s0.7,1.5,1.6,1.5S26.2,65.7,26.2,64.8L26.2,64.8z"
				/>
		</g>
		<g>
			<path class="st0" d="M22.9,67c-1,0.1-1.9,1-1.9,2v4.3c0,0.3,0.3,0.6,0.6,0.6s0.6-0.3,0.6-0.6v-3.7c0-0.1,0-0.3,0.3-0.3
				s0.2,0.2,0.2,0.3v11c0,0.5,0.4,0.9,0.9,0.9c0.5,0,0.9-0.4,0.9-0.9c0,0,0,0,0,0v-6.3c0-0.1,0.1-0.2,0.2-0.2c0,0,0,0,0,0l0,0
				c0.1,0,0.2,0.1,0.2,0.2c0,0,0,0,0,0v6.4c0,0.5,0.4,0.9,0.9,0.9c0.5,0,0.9-0.4,0.9-0.9v-11c0-0.1,0-0.3,0.2-0.3s0.3,0.2,0.3,0.3
				v3.7c0,0.3,0.3,0.6,0.6,0.6c0,0,0,0,0,0c0.3,0,0.6-0.3,0.6-0.6c0,0,0,0,0,0V69c0-1-0.8-1.9-1.9-2H22.9z"/>
		</g>
		<g>
			<path class="st0" d="M16.7,65.1c0-0.8-0.7-1.5-1.5-1.5c-0.8,0-1.5,0.7-1.5,1.5s0.7,1.5,1.5,1.5c0,0,0,0,0,0
				C16,66.6,16.7,65.9,16.7,65.1z"/>
		</g>
		<g>
			<path class="st0" d="M12.1,73l1-3.4c0,0,0.1-0.3,0.2-0.2s0.1,0.3,0.1,0.3l-1.8,6.4h1.6v4.6c0,0.4,0.4,0.8,0.9,0.7
				c0.4,0,0.7-0.3,0.7-0.7v-4.6h0.4v4.6c0,0.4,0.4,0.8,0.8,0.8c0.4,0,0.8-0.4,0.8-0.8v-4.6h1.6l-1.8-6.4c0,0-0.1-0.3,0.1-0.3
				s0.3,0.2,0.3,0.2l1,3.4c0,0,0.2,0.7,0.8,0.5s0.4-0.9,0.4-0.9l-1.3-4.1c0,0-0.5-1.2-1.5-1.2h-3.2c-1,0-1.4,1.2-1.4,1.2l-1.3,4.1
				c0,0-0.2,0.8,0.4,0.9S12.1,73,12.1,73z"/>
		</g>
		<g>
			<path class="st0" d="M55.9,46.6v3.2c0,0.1,0,0.1,0.1,0.1c0,0,0,0,0,0h1.4c0.1,0,0.1,0,0.1-0.1l0,0v-3.3l0,0
				c2.3-0.5,3.9-2.5,3.8-4.9c0-2.5-1.7-6.4-3.8-7.4C57.3,34.1,57,34,56.7,34h-0.2c-1.9,0-3.5,2.4-4.3,4.8c-0.1,0.2-0.1,0.3-0.2,0.5
				c-0.2,0.8-0.4,1.6-0.4,2.4C51.7,44.2,53.5,46.3,55.9,46.6z"/>
		</g>
		<g>
			<path class="st0" d="M42.4,46.6h3.5v3.2c0,0,0,0.1,0,0.1c0,0,0.1,0,0.1,0h1.5c0.1,0,0.1,0,0.1-0.1l0,0v-3.3h3.5
				c0.1,0,0.2-0.1,0.2-0.2v0c0,0,0-0.1,0-0.1L47,32.3v0c0-0.1-0.1-0.1-0.2-0.1c-0.1,0-0.2,0-0.2,0.1l-0.1,0.1l-4.3,13.9
				c-0.1,0.1,0,0.3,0.1,0.3C42.3,46.6,42.3,46.6,42.4,46.6z"/>
		</g>
		<g>
			<path class="st0" d="M86.4,67.3c0,0,1.1-0.6,1.1-1.3c-0.1-0.7-0.5-1.4-1-1.9c0,0-1,1.1-1,1.9S86.2,67.1,86.4,67.3z"/>
		</g>
		<g>
			<path class="st0" d="M84.8,68.5c0,0,0.3,0.3,1.5,0.5c0,0,0.1-1.2-0.3-1.7c-0.5-0.5-1.1-1-1.8-1.3C84.1,66.1,84,67.9,84.8,68.5z"
				/>
		</g>
		<g>
			<path class="st0" d="M84.6,71c0,0,0.3,0.4,1.6,0.6c0.1-0.6,0-1.3-0.3-1.8c-0.5-0.6-1.2-1-1.9-1.4C84,68.4,83.8,70.4,84.6,71z"/>
		</g>
		<g>
			<path class="st0" d="M84,71c0,0-0.3,2.2,0.6,2.8c0.5,0.4,1.1,0.6,1.7,0.6c0,0,0.2-1.3-0.3-1.9C86,72.5,85.7,72,84,71z"/>
		</g>
		<g>
			<path class="st0" d="M84.4,76.5c0.5,0.4,1.1,0.6,1.8,0.6c0,0,0.2-1.5-0.3-2c-0.6-0.6-1.4-1.1-2.2-1.5
				C83.7,73.6,83.6,75.9,84.4,76.5z"/>
		</g>
		<g>
			<path class="st0" d="M87,67.3c-0.5,0.5-0.3,1.7-0.3,1.7c1.2-0.2,1.5-0.5,1.5-0.5c0.8-0.6,0.6-2.4,0.6-2.4
				C88.1,66.4,87.5,66.8,87,67.3z"/>
		</g>
		<g>
			<path class="st0" d="M89,68.4c-0.7,0.3-1.4,0.8-2,1.4c-0.3,0.6-0.4,1.2-0.3,1.8c1.3-0.2,1.6-0.6,1.6-0.6
				C89.1,70.4,89,68.4,89,68.4z"/>
		</g>
		<g>
			<path class="st0" d="M87,72.5c-0.5,0.5-0.3,1.9-0.3,1.9c0.6,0,1.2-0.2,1.7-0.6C89.2,73.1,89,71,89,71C87.2,72,87,72.5,87,72.5z"
				/>
		</g>
		<g>
			<path class="st0" d="M89.2,73.6c-0.8,0.4-1.6,0.9-2.2,1.5c-0.5,0.5-0.3,2-0.3,2c0.6,0,1.3-0.3,1.8-0.6
				C89.3,75.9,89.2,73.6,89.2,73.6z"/>
		</g>
		<g>
			<rect x="86.2" y="77.5" class="st0" width="0.6" height="5"/>
		</g>
		<g>
			<path class="st0" d="M84.4,61.6c-0.1,0-0.2,0.1-0.2,0.2c0,0,0,0,0,0v3.9l0.4,0.2v-4.2C84.6,61.7,84.5,61.6,84.4,61.6
				C84.4,61.6,84.4,61.6,84.4,61.6z"/>
		</g>
		<g>
			<path class="st0" d="M85.4,61.2c0-0.1,0-0.2-0.2-0.2c-0.1,0-0.2,0-0.2,0.2c0,0,0,0.1,0,0.1v4.6l0,0c0.1-0.3,0.2-0.7,0.4-1V61.2z"
				/>
		</g>
		<g>
			<path class="st0" d="M86,60c-0.1,0-0.2,0.1-0.2,0.2v4l0.4-0.5v-3.5C86.2,60.1,86.1,60,86,60z"/>
		</g>
		<g>
			<path class="st0" d="M88.6,61.6c-0.1,0-0.2,0.1-0.2,0.2c0,0,0,0,0,0V66l0.4-0.2v-4C88.8,61.7,88.7,61.6,88.6,61.6L88.6,61.6z"/>
		</g>
		<g>
			<path class="st0" d="M88,61.2c0-0.1-0.1-0.2-0.2-0.2c-0.1,0-0.2,0.1-0.2,0.2v3.7c0.2,0.3,0.3,0.7,0.4,1l0,0L88,61.2z"/>
		</g>
		<g>
			<path class="st0" d="M86.9,60c-0.1,0-0.2,0.1-0.2,0.2v3.5l0.4,0.5v-4C87.1,60.1,87.1,60,86.9,60C86.9,60,86.9,60,86.9,60z"/>
		</g>
		<g>
			<path class="st0" d="M79,67.3c0,0,1-0.6,1-1.3c-0.1-0.7-0.5-1.4-1-1.9c0,0-1,1.1-1,1.9S78.7,67.1,79,67.3z"/>
		</g>
		<g>
			<path class="st0" d="M77.2,68.5c0,0,0.3,0.3,1.5,0.5c0,0,0.1-1.2-0.3-1.7c-0.5-0.5-1.1-1-1.8-1.3C76.6,66.1,76.4,67.9,77.2,68.5z
				"/>
		</g>
		<g>
			<path class="st0" d="M77.1,71c0,0,0.3,0.4,1.6,0.6c0,0,0.2-1.3-0.3-1.8c-0.6-0.6-1.2-1-1.9-1.4C76.5,68.4,76.3,70.4,77.1,71z"/>
		</g>
		<g>
			<path class="st0" d="M76.5,71c0,0-0.3,2.2,0.6,2.8c0.5,0.4,1.1,0.6,1.7,0.6c0,0,0.2-1.3-0.3-1.9C78.5,72.5,78.2,72,76.5,71z"/>
		</g>
		<g>
			<path class="st0" d="M76.9,76.5c0.5,0.4,1.1,0.6,1.8,0.6c0,0,0.2-1.5-0.3-2c-0.6-0.6-1.4-1.1-2.2-1.5
				C76.2,73.6,76.1,75.9,76.9,76.5z"/>
		</g>
		<g>
			<path class="st0" d="M79.5,67.3C79,67.8,79.2,69,79.2,69c1.2-0.2,1.5-0.5,1.5-0.5c0.8-0.6,0.6-2.4,0.6-2.4
				C80.6,66.4,80,66.8,79.5,67.3z"/>
		</g>
		<g>
			<path class="st0" d="M81.4,68.4c-0.7,0.3-1.4,0.8-1.9,1.4c-0.5,0.5-0.4,1.8-0.4,1.8c1.3-0.2,1.6-0.6,1.6-0.6
				C81.6,70.4,81.4,68.4,81.4,68.4z"/>
		</g>
		<g>
			<path class="st0" d="M79.5,72.5c-0.5,0.5-0.3,1.9-0.3,1.9c0.6,0,1.2-0.2,1.7-0.6c0.9-0.6,0.6-2.8,0.6-2.8
				C79.7,72,79.5,72.5,79.5,72.5z"/>
		</g>
		<g>
			<path class="st0" d="M81.7,73.6c-0.8,0.4-1.6,0.9-2.2,1.5c-0.5,0.5-0.3,2-0.3,2c0.7,0,1.3-0.3,1.8-0.7
				C81.8,75.9,81.7,73.6,81.7,73.6z"/>
		</g>
		<g>
			<rect x="78.7" y="77.5" class="st0" width="0.6" height="5"/>
		</g>
		<g>
			<path class="st0" d="M76.9,61.6c-0.1,0-0.2,0.1-0.2,0.2c0,0,0,0,0,0v3.9l0.4,0.2v-4.2C77.1,61.7,77,61.6,76.9,61.6
				C76.9,61.6,76.9,61.6,76.9,61.6z"/>
		</g>
		<g>
			<path class="st0" d="M77.9,61.2c0-0.1,0-0.2-0.2-0.2c-0.1,0-0.2,0-0.2,0.2c0,0,0,0.1,0,0.1v4.6l0,0c0.1-0.3,0.2-0.7,0.4-1V61.2z"
				/>
		</g>
		<g>
			<path class="st0" d="M78.5,60c-0.1,0-0.2,0.1-0.2,0.2v4l0.4-0.5v-3.5C78.7,60.1,78.6,60,78.5,60z"/>
		</g>
		<g>
			<path class="st0" d="M81.1,61.6c-0.1,0-0.2,0.1-0.2,0.2c0,0,0,0,0,0V66l0.4-0.2v-4C81.3,61.7,81.2,61.6,81.1,61.6
				C81.1,61.6,81.1,61.6,81.1,61.6z"/>
		</g>
		<g>
			<path class="st0" d="M80.4,61.2c0-0.1-0.1-0.2-0.2-0.2c-0.1,0-0.2,0.1-0.2,0.2v3.7c0.2,0.3,0.3,0.7,0.4,1l0,0V61.2z"/>
		</g>
		<g>
			<path class="st0" d="M79.4,60c-0.1,0-0.2,0.1-0.2,0.2v3.5l0.4,0.5v-4C79.6,60.1,79.6,60,79.4,60C79.4,60,79.4,60,79.4,60z"/>
		</g>
		<g>
			<polygon class="st0" points="68.3,58.7 67.2,58.7 67.2,82.6 36,82.6 36,58.7 34.8,58.7 34.8,83.7 68.3,83.7 			"/>
		</g>
		<g>
			<path class="st0" d="M37.8,70.5L37.8,70.5c6.1,5.6,12.3,1,13.7-0.1l0.1-0.1c0,0,0.1,0,0.1,0c0,0,0.1,0,0.1,0l0.1,0.1
				c1.3,1.1,7.5,5.7,13.5,0.3l0.2-0.2c0.1,0,0.1-0.1,0.1-0.2v-3c0-0.2-0.1-0.3-0.3-0.3h-0.1l-0.1,0.1c-1.8,1.3-7.8,4.9-13.2-0.1
				L52,67c-0.1-0.1-0.3-0.1-0.4,0c0,0,0,0,0,0l-0.1,0.1c-5.3,4.9-11.2,1.5-13.1,0.2l-0.1-0.1c0,0-0.1,0-0.2,0
				c-0.1,0-0.3,0.1-0.3,0.2v2.9l0,0l0,0C37.8,70.4,37.8,70.4,37.8,70.5z"/>
		</g>
		<g>
			<path class="st0" d="M37.8,77.2L37.8,77.2c6.1,5.6,12.3,1,13.7-0.1l0.1-0.1c0,0,0.1,0,0.1,0c0,0,0.1,0,0.1,0l0.1,0.1
				c1.3,1.1,7.5,5.7,13.5,0.3l0.2-0.2c0.1,0,0.1-0.1,0.1-0.2v-3c0-0.2-0.1-0.3-0.3-0.3c0,0-0.1,0-0.1,0l-0.1,0.1
				c-1.8,1.3-7.8,4.9-13.2-0.1H52c-0.1-0.1-0.3-0.1-0.4,0c0,0,0,0,0,0l-0.1,0.1c-5.3,5-11.2,1.5-13.1,0.2l-0.1-0.1c0,0-0.1,0-0.2,0
				c-0.1,0-0.3,0.1-0.3,0.2V77l0,0l0,0C37.7,77.1,37.8,77.2,37.8,77.2z"/>
		</g>
		<g>
			<path class="st0" d="M38.3,64.4c0.3,0,0.5-0.2,0.5-0.5c0-0.3-0.2-0.5-0.5-0.5s-0.5,0.2-0.5,0.5c0,0,0,0,0,0
				C37.8,64.3,38,64.5,38.3,64.4z"/>
		</g>
		<g>
			<circle class="st0" cx="40.4" cy="64" r="0.5"/>
		</g>
		<g>
			<circle class="st0" cx="42.5" cy="64" r="0.5"/>
		</g>
		<g>
			<path class="st0" d="M44.5,63.5c-0.3,0-0.5,0.2-0.5,0.5c0,0.3,0.2,0.5,0.5,0.5c0.3,0,0.5-0.2,0.5-0.5
				C45,63.7,44.8,63.5,44.5,63.5C44.5,63.5,44.5,63.5,44.5,63.5z"/>
		</g>
		<g>
			<path class="st0" d="M46.6,63.5c-0.3,0-0.5,0.2-0.5,0.5c0,0.3,0.2,0.5,0.5,0.5c0.3,0,0.5-0.2,0.5-0.5
				C47.1,63.7,46.9,63.5,46.6,63.5C46.6,63.5,46.6,63.5,46.6,63.5z"/>
		</g>
		<g>
			<circle class="st0" cx="48.7" cy="64" r="0.5"/>
		</g>
		<g>
			<path class="st0" d="M50.8,63.5c-0.3,0-0.5,0.2-0.5,0.5c0,0.3,0.2,0.5,0.5,0.5c0.3,0,0.5-0.2,0.5-0.5
				C51.3,63.7,51.1,63.5,50.8,63.5C50.8,63.5,50.8,63.5,50.8,63.5z"/>
		</g>
		<g>
			<path class="st0" d="M52.9,63.5c-0.3,0-0.5,0.2-0.5,0.5c0,0.3,0.2,0.5,0.5,0.5c0.3,0,0.5-0.2,0.5-0.5
				C53.4,63.7,53.2,63.5,52.9,63.5C52.9,63.5,52.9,63.5,52.9,63.5z"/>
		</g>
		<g>
			<path class="st0" d="M55,63.5c-0.3,0-0.5,0.2-0.5,0.5c0,0.3,0.2,0.5,0.5,0.5c0.3,0,0.5-0.2,0.5-0.5C55.5,63.7,55.3,63.5,55,63.5
				C55,63.5,55,63.5,55,63.5z"/>
		</g>
		<g>
			<circle class="st0" cx="57.1" cy="64" r="0.5"/>
		</g>
		<g>
			<circle class="st0" cx="59.2" cy="64" r="0.5"/>
		</g>
		<g>
			<path class="st0" d="M61.3,63.5c-0.3,0-0.5,0.2-0.5,0.5c0,0.3,0.2,0.5,0.5,0.5c0.3,0,0.5-0.2,0.5-0.5
				C61.7,63.7,61.5,63.5,61.3,63.5C61.3,63.5,61.3,63.5,61.3,63.5z"/>
		</g>
		<g>
			<path class="st0" d="M63.4,64.4c0.3,0,0.5-0.2,0.5-0.5c0-0.3-0.2-0.5-0.5-0.5c-0.3,0-0.5,0.2-0.5,0.5c0,0,0,0,0,0
				C62.9,64.2,63.1,64.5,63.4,64.4z"/>
		</g>
		<g>
			<circle class="st0" cx="65.4" cy="64" r="0.5"/>
		</g>
		<g>
			<path class="st0" d="M39.4,62.8c0.3,0,0.5-0.2,0.5-0.5c0,0,0,0,0,0c0-0.3-0.2-0.5-0.5-0.5c-0.3,0-0.5,0.2-0.5,0.5
				C39,62.6,39.2,62.8,39.4,62.8z"/>
		</g>
		<g>
			<circle class="st0" cx="41.5" cy="62.4" r="0.5"/>
		</g>
		<g>
			<path class="st0" d="M43.1,62.4c0,0.3,0.1,0.5,0.4,0.5c0.3,0,0.5-0.1,0.5-0.4c0,0,0-0.1,0-0.1c0-0.3-0.3-0.4-0.5-0.4
				C43.3,62,43.2,62.2,43.1,62.4z"/>
		</g>
		<g>
			<path class="st0" d="M45.2,62.4c0,0.3,0.1,0.5,0.4,0.5c0.3,0,0.5-0.1,0.5-0.4c0,0,0-0.1,0-0.1c0-0.3-0.3-0.4-0.5-0.4
				C45.4,62,45.3,62.2,45.2,62.4z"/>
		</g>
		<g>
			<path class="st0" d="M47.3,62.4c0,0.3,0.2,0.5,0.5,0.5c0.3,0,0.5-0.2,0.5-0.5c0-0.3-0.2-0.5-0.5-0.5
				C47.5,61.9,47.3,62.1,47.3,62.4z"/>
		</g>
		<g>
			<circle class="st0" cx="49.9" cy="62.4" r="0.5"/>
		</g>
		<g>
			<circle class="st0" cx="52" cy="62.4" r="0.5"/>
		</g>
		<g>
			<path class="st0" d="M53.6,62.4c0,0.3,0.2,0.5,0.5,0.5c0.3,0,0.5-0.2,0.5-0.5c0-0.3-0.2-0.5-0.5-0.5
				C53.8,61.9,53.6,62.1,53.6,62.4z"/>
		</g>
		<g>
			<path class="st0" d="M55.7,62.4c0,0.3,0.2,0.5,0.5,0.5c0.3,0,0.5-0.2,0.5-0.5c0-0.3-0.2-0.5-0.5-0.5
				C55.9,61.9,55.7,62.1,55.7,62.4z"/>
		</g>
		<g>
			<circle class="st0" cx="58.2" cy="62.4" r="0.5"/>
		</g>
		<g>
			<path class="st0" d="M59.9,62.4c0,0.3,0.2,0.5,0.5,0.5c0.3,0,0.5-0.2,0.5-0.5c0-0.3-0.2-0.5-0.5-0.5
				C60.1,61.9,59.9,62.1,59.9,62.4z"/>
		</g>
		<g>
			<path class="st0" d="M62.4,62.8c0.3,0,0.5-0.2,0.5-0.5c0,0,0,0,0,0c0-0.3-0.2-0.5-0.5-0.5c-0.3,0-0.5,0.2-0.5,0.5
				C62,62.6,62.2,62.8,62.4,62.8z"/>
		</g>
		<g>
			<circle class="st0" cx="64.5" cy="62.4" r="0.5"/>
		</g>
		<g>
			<path class="st0" d="M38.4,61.2c0.3,0,0.5-0.2,0.5-0.5c0-0.3-0.2-0.5-0.5-0.5c-0.3,0-0.5,0.2-0.5,0.5
				C37.9,61,38.1,61.2,38.4,61.2C38.4,61.2,38.4,61.2,38.4,61.2z"/>
		</g>
		<g>
			<path class="st0" d="M40.5,61.2c0.3,0,0.5-0.2,0.5-0.5c0-0.3-0.2-0.5-0.5-0.5c-0.3,0-0.5,0.2-0.5,0.5C40,61,40.2,61.2,40.5,61.2
				C40.5,61.2,40.5,61.2,40.5,61.2z"/>
		</g>
		<g>
			<circle class="st0" cx="42.6" cy="60.7" r="0.5"/>
		</g>
		<g>
			<path class="st0" d="M44.7,60.3c-0.3,0-0.5,0.2-0.5,0.5c0,0.3,0.2,0.5,0.5,0.5c0.3,0,0.5-0.2,0.5-0.5
				C45.1,60.5,44.9,60.3,44.7,60.3C44.7,60.3,44.7,60.3,44.7,60.3z"/>
		</g>
		<g>
			<path class="st0" d="M46.7,60.3c-0.3,0-0.5,0.2-0.5,0.5c0,0.3,0.2,0.5,0.5,0.5c0.3,0,0.5-0.2,0.5-0.5
				C47.2,60.5,47,60.3,46.7,60.3C46.7,60.3,46.7,60.3,46.7,60.3z"/>
		</g>
		<g>
			<circle class="st0" cx="48.8" cy="60.7" r="0.5"/>
		</g>
		<g>
			<path class="st0" d="M50.9,60.3c-0.3,0-0.5,0.2-0.5,0.5c0,0.3,0.2,0.5,0.5,0.5c0.3,0,0.5-0.2,0.5-0.5
				C51.4,60.5,51.2,60.3,50.9,60.3C50.9,60.3,50.9,60.3,50.9,60.3z"/>
		</g>
		<g>
			<path class="st0" d="M53,60.3c-0.3,0-0.5,0.2-0.5,0.5c0,0.3,0.2,0.5,0.5,0.5c0.3,0,0.5-0.2,0.5-0.5C53.5,60.5,53.3,60.3,53,60.3
				C53,60.3,53,60.3,53,60.3z"/>
		</g>
		<g>
			<path class="st0" d="M55.1,60.3c-0.3,0-0.5,0.2-0.5,0.5c0,0.3,0.2,0.5,0.5,0.5c0.3,0,0.5-0.2,0.5-0.5c0,0,0,0,0,0
				C55.6,60.5,55.4,60.3,55.1,60.3z"/>
		</g>
		<g>
			<circle class="st0" cx="57.2" cy="60.7" r="0.5"/>
		</g>
		<g>
			<circle class="st0" cx="59.3" cy="60.7" r="0.5"/>
		</g>
		<g>
			<circle class="st0" cx="61.4" cy="60.7" r="0.5"/>
		</g>
		<g>
			<path class="st0" d="M63.5,61.2c0.3,0,0.5-0.2,0.5-0.5c0-0.3-0.2-0.5-0.5-0.5c-0.3,0-0.5,0.2-0.5,0.5C63,61,63.2,61.2,63.5,61.2
				C63.5,61.2,63.5,61.2,63.5,61.2z"/>
		</g>
		<g>
			<path class="st0" d="M65.6,61.2c0.3,0,0.5-0.2,0.5-0.5s-0.2-0.5-0.5-0.5c-0.3,0-0.5,0.2-0.5,0.5C65.1,61,65.3,61.2,65.6,61.2
				L65.6,61.2z"/>
		</g>
		<g>
			
				<rect x="64.3" y="42.7" transform="matrix(0.7035 -0.7107 0.7107 0.7035 -7.2396 69.3565)" class="st0" width="30.4" height="1.3"/>
		</g>
		<g>
			
				<rect x="78.8" y="84.4" transform="matrix(0.7103 -0.7039 0.7039 0.7103 -47.0558 84.8093)" class="st0" width="1.3" height="30.4"/>
		</g>
		<g>
			
				<rect x="21.7" y="28.2" transform="matrix(0.7103 -0.7039 0.7039 0.7103 -24.0339 28.3333)" class="st0" width="1.3" height="30.4"/>
		</g>
		<g>
			
				<rect x="7.2" y="98.9" transform="matrix(0.7035 -0.7107 0.7107 0.7035 -64.1172 45.4419)" class="st0" width="30.4" height="1.3"/>
		</g>
		<g>
			<g>
				<path class="st0" d="M63.8,96.7H38.1c-0.1,0-0.3,0.1-0.3,0.3v12.4h1.4v-6.3c0-0.1,0.1-0.2,0.2-0.2h4.3c0.1,0,0.2,0.1,0.2,0.2
					v6.3h19.8c0.1,0,0.2-0.1,0.2-0.2V97C64,96.9,63.9,96.7,63.8,96.7z M44.1,101.1c0,0.1-0.1,0.2-0.2,0.2h-4.3
					c-0.1,0-0.2-0.1-0.2-0.2v-2.3c0-0.1,0.1-0.2,0.2-0.2h4.3c0.1,0,0.2,0.1,0.2,0.2L44.1,101.1z M50.2,105.4c0,0.1-0.1,0.2-0.2,0.2
					h-4.3c-0.1,0-0.2-0.1-0.2-0.2v-2.3c0-0.1,0.1-0.2,0.2-0.2H50c0.1,0,0.2,0.1,0.2,0.2L50.2,105.4z M50.2,101.1
					c0,0.1-0.1,0.2-0.2,0.2h-4.3c-0.1,0-0.2-0.1-0.2-0.2v-2.3c0-0.1,0.1-0.2,0.2-0.2H50c0.1,0,0.2,0.1,0.2,0.2L50.2,101.1z
					 M56.4,105.4c0,0.1-0.1,0.2-0.2,0.2h-4.3c-0.1,0-0.2-0.1-0.2-0.2v-2.3c0-0.1,0.1-0.2,0.2-0.2h4.3c0.1,0,0.2,0.1,0.2,0.2
					L56.4,105.4z M56.4,101.1c0,0.1-0.1,0.2-0.2,0.2h-4.3c-0.1,0-0.2-0.1-0.2-0.2v-2.3c0-0.1,0.1-0.2,0.2-0.2h4.3
					c0.1,0,0.2,0.1,0.2,0.2L56.4,101.1z M62.6,105.4c0,0.1-0.1,0.2-0.2,0.2h-4.3c-0.1,0-0.2-0.1-0.2-0.2v-2.3c0-0.1,0.1-0.2,0.2-0.2
					h4.3c0.1,0,0.2,0.1,0.2,0.2L62.6,105.4z M62.6,101.1c0,0.1-0.1,0.2-0.2,0.2h-4.3c-0.1,0-0.2-0.1-0.2-0.2v-2.3
					c0-0.1,0.1-0.2,0.2-0.2h4.3c0.1,0,0.2,0.1,0.2,0.2L62.6,101.1z"/>
			</g>
			<g>
				<path class="st0" d="M38,94.9h25.9c0.1,0,0.2,0.1,0.2,0.2v0.8c0,0.1-0.1,0.2-0.2,0.2H38c-0.1,0-0.2-0.1-0.2-0.2V95
					C37.9,94.9,37.9,94.9,38,94.9z"/>
			</g>
		</g>
	</g>
	<g>
		<path class="st1" d="M98.2,162.9h-95v-40.7h95V162.9z M4.2,161.9h93v-38.7h-93V161.9z"/>
	</g>
</g>
</svg>
