<?xml version="1.0" encoding="utf-8"?>
<!-- Generator: Adobe Illustrator 22.0.1, SVG Export Plug-In . SVG Version: 6.00 Build 0)  -->
<svg version="1.1" id="Layer_1" xmlns="http://www.w3.org/2000/svg" xmlns:xlink="http://www.w3.org/1999/xlink" x="0px" y="0px"
	 viewBox="0 0 101.5 157.1" style="enable-background:new 0 0 101.5 157.1;" xml:space="preserve">
<style type="text/css">
	.st0{fill:#FFFFFF;}
	.st1{fill:#26BDE2;}
	.st2{enable-background:new    ;}
</style>
<title>TARGET 1.1</title>
<g id="WHITE_BG">
	<g>
		<rect y="0" class="st0" width="101.5" height="157.1"/>
	</g>
</g>
<g id="TARGETS">
	<g>
		<g>
			<path class="st1" d="M11.1,130.3c0,1.2-0.7,2-2.4,2c-0.6,0-1.3-0.1-1.9-0.3v-1c0.6,0.3,1.2,0.4,1.8,0.4c1.1,0,1.5-0.5,1.5-1.1
				s-0.3-0.9-1.2-1c-1.6-0.2-2.2-0.6-2.2-1.8c0-0.9,0.5-1.8,2.3-1.8c0.6,0,1.2,0.1,1.7,0.3v1c-0.5-0.2-1.1-0.3-1.7-0.3
				c-1,0-1.3,0.4-1.3,1s0.4,0.8,1.2,0.9C10.3,128.7,11.1,129,11.1,130.3z"/>
		</g>
		<g>
			<path class="st1" d="M14.7,130.6h-2l-0.4,1.6h-1l2-6.4h1l2,6.4h-1L14.7,130.6z M13.7,127l-0.8,2.8h1.6L13.7,127z"/>
		</g>
		<g>
			<path class="st1" d="M20.3,129.4h-2.6v2.8h-1v-6.4h3.8v0.9h-2.9v1.8h2.6V129.4z"/>
		</g>
		<g>
			<path class="st1" d="M24.8,129.3h-2.6v2h2.9v0.9h-3.9v-6.4h3.9v0.9h-2.9v1.8h2.6V129.3z"/>
		</g>
		<g>
			<path class="st1" d="M30.5,130.6h-2l-0.5,1.6h-1l2-6.4h1l2,6.4h-1L30.5,130.6z M29.5,127l-0.8,2.8h1.6L29.5,127z"/>
		</g>
		<g>
			<path class="st1" d="M36.2,132.2l-2.8-4.5v4.5h-0.9v-6.4h0.9l2.8,4.5v-4.5h0.9v6.4H36.2z"/>
		</g>
		<g>
			<path class="st1" d="M38,132.2v-6.4h1.9c2.1,0,2.7,1.4,2.7,3.2s-0.6,3.2-2.7,3.2H38z M39,131.3h1c1.3,0,1.7-0.9,1.7-2.3
				s-0.4-2.3-1.7-2.3h-1L39,131.3z"/>
		</g>
		<g>
			<path class="st1" d="M10.1,139.6h-2l-0.4,1.6h-1l2-6.4h1l2,6.4h-1L10.1,139.6z M9.1,136l-0.8,2.8h1.6L9.1,136z"/>
		</g>
		<g>
			<path class="st1" d="M15.6,138.4h-2.6v2.8h-1v-6.4h3.8v0.9h-2.8v1.8h2.6V138.4z"/>
		</g>
		<g>
			<path class="st1" d="M20.1,138.4h-2.6v2.8h-1v-6.4h3.8v0.9h-2.9v1.8h2.6V138.4z"/>
		</g>
		<g>
			<path class="st1" d="M20.9,138c0-1.8,0.4-3.3,2.5-3.3s2.5,1.5,2.5,3.3s-0.4,3.3-2.5,3.3S20.9,139.8,20.9,138z M21.9,138
				c0,1.5,0.3,2.4,1.5,2.4s1.5-0.9,1.5-2.4s-0.3-2.4-1.5-2.4S21.8,136.5,21.9,138L21.9,138z"/>
		</g>
		<g>
			<path class="st1" d="M27.5,141.2h-1v-6.4h2.1c1.6,0,2.2,0.7,2.2,1.9c0.1,0.7-0.3,1.4-1,1.7l1.3,2.8h-1.2l-1.1-2.6h-1.3V141.2z
				 M27.5,137.7h1.3c0.9,0,1-0.5,1-1s-0.1-1-1-1h-1.3V137.7z"/>
		</g>
		<g>
			<path class="st1" d="M31.7,141.2v-6.4h1.9c2.1,0,2.7,1.4,2.7,3.2s-0.6,3.2-2.7,3.2H31.7z M32.7,140.3h1c1.3,0,1.7-0.9,1.7-2.3
				s-0.4-2.3-1.7-2.3h-1V140.3z"/>
		</g>
		<g>
			<path class="st1" d="M40,139.6h-2l-0.5,1.6h-1l2-6.4h1l2,6.4h-1L40,139.6z M39,136l-0.8,2.8h1.6L39,136z"/>
		</g>
		<g>
			<path class="st1" d="M42,134.8h2.1c1.5,0,2,0.8,2,1.8c0,0.5-0.3,1-0.8,1.3c0.6,0.2,1.1,0.8,1,1.5c0,1-0.5,1.9-2.2,1.9H42V134.8z
				 M44.2,135.7h-1.2v1.8h1.2c0.4,0.1,0.9-0.2,0.9-0.7c0-0.1,0-0.1,0-0.2C45.1,136.2,45,135.7,44.2,135.7L44.2,135.7z M43,140.3h1.3
				c0.9,0,1.1-0.5,1.1-1s-0.3-1-1.1-1h-1.3L43,140.3z"/>
		</g>
		<g>
			<path class="st1" d="M48,140.3h2.8v0.9h-3.7v-6.4h1L48,140.3z"/>
		</g>
		<g>
			<path class="st1" d="M54.9,138.3h-2.7v2h2.9v0.9h-3.9v-6.4h3.9v0.9h-2.9v1.8h2.7V138.3z"/>
		</g>
		<g>
			<path class="st1" d="M6.9,150.2v-6.4h1.9c2.1,0,2.7,1.4,2.7,3.2s-0.6,3.2-2.7,3.2H6.9z M7.9,149.3h1c1.3,0,1.7-0.9,1.7-2.3
				s-0.4-2.3-1.7-2.3h-1L7.9,149.3z"/>
		</g>
		<g>
			<path class="st1" d="M13.1,150.2h-1v-6.4h2.1c1.6,0,2.2,0.7,2.2,1.9c0.1,0.7-0.3,1.4-1,1.7l1.3,2.8h-1.1l-1.2-2.6h-1.3V150.2z
				 M13.1,146.7h1.3c0.9,0,1-0.5,1-1s-0.1-1-1-1h-1.3V146.7z"/>
		</g>
		<g>
			<path class="st1" d="M17.4,150.2v-6.4h1v6.4H17.4z"/>
		</g>
		<g>
			<path class="st1" d="M23.1,150.2l-2.8-4.5v4.5h-1v-6.4h0.9l2.8,4.5v-4.5h1v6.4H23.1z"/>
		</g>
		<g>
			<path class="st1" d="M26.4,147.4l-0.5,0.6v2.2H25v-6.4h1v3l2.3-3h1.2l-2.4,2.8l2.5,3.6h-1.2L26.4,147.4z"/>
		</g>
		<g>
			<path class="st1" d="M30.2,150.2v-6.4h1v6.4H30.2z"/>
		</g>
		<g>
			<path class="st1" d="M35.9,150.2l-2.8-4.5v4.5h-0.9v-6.4h0.9l2.8,4.5v-4.5h1v6.4H35.9z"/>
		</g>
		<g>
			<path class="st1" d="M37.5,147c0-2,0.7-3.3,2.6-3.3c0.6,0,1.3,0.1,1.8,0.3v1c-0.5-0.2-1.1-0.4-1.7-0.4c-1.3,0-1.8,0.9-1.8,2.4
				s0.5,2.4,1.8,2.4c0.3,0,0.6,0,0.9-0.1v-1.7H40v-0.9h2.1v3.2c-0.6,0.3-1.3,0.4-2,0.4C38.2,150.3,37.5,149,37.5,147z"/>
		</g>
		<g>
			<path class="st1" d="M46.9,143.8h1.2l1.1,5l0.8-5h1l-1.2,6.5h-1.2l-1.1-5.3l-1.2,5.3h-1.2l-1.2-6.5h1l0.8,5L46.9,143.8z"/>
		</g>
		<g>
			<path class="st1" d="M54.2,148.6h-2l-0.5,1.6h-1l2-6.4h1l2,6.4h-1L54.2,148.6z M53.2,145l-0.8,2.8H54L53.2,145z"/>
		</g>
		<g>
			<path class="st1" d="M57.7,144.7v5.5h-1v-5.5h-1.7v-0.9h4.3v0.9H57.7z"/>
		</g>
		<g>
			<path class="st1" d="M63.6,147.3H61v2h2.9v0.9H60v-6.4h3.9v0.9H61v1.8h2.7L63.6,147.3z"/>
		</g>
		<g>
			<path class="st1" d="M65.7,150.2h-0.9v-6.4h2.1c1.7,0,2.2,0.7,2.2,1.9c0.1,0.7-0.3,1.4-1,1.7l1.3,2.8h-1.1l-1.2-2.6h-1.3V150.2z
				 M65.7,146.7H67c0.9,0,1-0.5,1-1s-0.1-1-1-1h-1.3V146.7z"/>
		</g>
	</g>
	<g>
		<rect x="3.3" y="24" class="st1" width="94.8" height="94.8"/>
	</g>
	<g>
		<path class="st1" d="M98.2,20.7H3.3V3.3h94.8V20.7z M4.3,19.7h92.8V4.3H4.3L4.3,19.7z"/>
	</g>
	<g class="st2">
		<path class="st1" d="M6.7,6.9h4.5v1.4H9.9v8.8H8.1V8.3H6.7V6.9z"/>
	</g>
	<g class="st2">
		<path class="st1" d="M11.2,17.1l1.9-10.2h1.9L17,17.1h-1.8l-0.3-1.9h-1.8l-0.3,1.9H11.2z M13.3,13.9h1.4L14,9.8h0L13.3,13.9z"/>
	</g>
	<g class="st2">
		<path class="st1" d="M19.6,12.4v4.7h-1.7V6.9h2.5c1.7,0,2.4,0.9,2.4,2.3v1.3c0,1.1-0.4,1.7-1.4,2l1.6,4.6h-1.8L19.6,12.4z
			 M19.6,8.3v3.2h0.6c0.6,0,0.8-0.3,0.8-0.8V9.2c0-0.6-0.3-0.8-0.8-0.8H19.6z"/>
	</g>
	<g class="st2">
		<path class="st1" d="M26.4,11.7h2.4v5.4h-1.2V16c-0.2,0.8-0.7,1.2-1.6,1.2c-1.5,0-2.1-1.2-2.1-2.7V9.6c0-1.6,0.8-2.7,2.6-2.7
			c1.9,0,2.4,1.1,2.4,2.6v0.9h-1.6v-1c0-0.6-0.2-1-0.9-1c-0.6,0-0.9,0.4-0.9,1v5.5c0,0.6,0.3,1,0.8,1c0.6,0,0.8-0.3,0.8-1V13h-0.8
			V11.7z"/>
	</g>
	<g class="st2">
		<path class="st1" d="M30.2,6.9h4.1v1.4h-2.4v2.9h1.7v1.4h-1.7v3.1h2.4v1.4h-4.1V6.9z"/>
	</g>
	<g class="st2">
		<path class="st1" d="M35.1,6.9h4.5v1.4h-1.4v8.8h-1.7V8.3h-1.4V6.9z"/>
	</g>
	<g class="st2">
		<path class="st1" d="M80.7,14.5v-5c0-1.6,0.7-2.7,2.5-2.7c1.9,0,2.4,1.1,2.4,2.6v0.5H84V9.2c0-0.6-0.2-1-0.8-1
			c-0.6,0-0.8,0.4-0.8,1v2.2h0c0.3-0.5,0.7-0.8,1.4-0.8c1.2,0,1.9,0.8,1.9,2.5v1.5c0,1.6-0.7,2.6-2.5,2.6
			C81.4,17.2,80.7,16.1,80.7,14.5z M84,14.8V13c0-0.7-0.2-1-0.8-1c-0.5,0-0.8,0.4-0.8,0.9v1.9c0,0.6,0.2,1,0.8,1
			C83.8,15.8,84,15.5,84,14.8z"/>
	</g>
	<g class="st2">
	</g>
	<g class="st2">
		<path class="st1" d="M88.6,10.8c0.7,0,1.2,0.6,1.2,1.2c0,0.7-0.6,1.2-1.2,1.2c-0.7,0-1.2-0.6-1.2-1.2
			C87.4,11.4,87.9,10.8,88.6,10.8z"/>
	</g>
	<g class="st2">
		<path class="st1" d="M94.1,6.9v10.2h-1.7V9.3h0l-1.2,1.2h0V8.8l1.6-1.8H94.1z"/>
	</g>
	<g>
		<path class="st1" d="M98.2,153.8H3.3v-31.6h94.8V153.8z M4.3,152.8h92.8v-29.6H4.3L4.3,152.8z"/>
	</g>
	<g>
		<g>
			<path class="st0" d="M66.4,35c-0.1-0.1-0.2-0.1-0.3-0.1H35.3c-0.1,0-0.2,0-0.3,0.1C35,35.1,35,35.2,35,35.3l5.2,31.3
				c0,0.2,0.2,0.3,0.4,0.3h20.8c0.2,0,0.3-0.1,0.3-0.3l4.9-31.3C66.5,35.2,66.5,35.1,66.4,35 M54.5,60c-1,0.9-2.3,1.4-3.7,1.3
				c-1.4,0.1-2.7-0.4-3.7-1.3c-1.7-1.8-2-4.5-0.7-6.7c0.5-0.9,4-6.3,4.3-6.7l0,0l0,0l0,0c0.3,0.5,3.8,5.8,4.3,6.7
				C56.5,55.4,56.2,58.2,54.5,60 M64.3,41.5c-1-0.3-2-0.3-2.9,0.2c-3.8,1.5-6.4,2.1-10.5,0.8c-2.5-0.8-4.9-2.5-7.7-1.4
				c-1.8,0.8-3.7,1.2-5.7,1.3l-1.2-6.2h28.8L64.3,41.5z"/>
		</g>
		<g>
			<g>
				<g>
					<path class="st0" d="M80.8,78.4c0-1.5,1.2-2.7,2.8-2.7c1.5,0,2.7,1.2,2.7,2.8c0,1.5-1.2,2.7-2.7,2.7
						C82.1,81.2,80.8,79.9,80.8,78.4"/>
				</g>
				<g>
					<path class="st0" d="M86.8,82.2c1.9,0.2,3.3,1.8,3.3,3.7v7.6c0,0.6-0.5,1.1-1.1,1.1c-0.6,0-1.1-0.5-1.1-1.1V87
						c0-0.2-0.1-0.6-0.5-0.6s-0.4,0.3-0.4,0.5v19.6c-0.1,0.8-0.8,1.5-1.7,1.4c-0.8-0.1-1.4-0.7-1.4-1.4V95.2c0-0.2-0.1-0.4-0.4-0.4
						c0,0,0,0-0.1,0l0,0c-0.2,0-0.4,0.2-0.4,0.4c0,0,0,0,0,0.1v11.3c0,0.8-0.7,1.5-1.5,1.5c-0.8,0-1.5-0.7-1.5-1.5c0,0,0,0,0,0V86.9
						c0-0.2-0.1-0.5-0.4-0.5s-0.5,0.3-0.5,0.6v6.5c-0.1,0.6-0.6,1-1.2,1c-0.5,0-0.9-0.5-1-1v-7.6c0-1.9,1.4-3.5,3.3-3.7h0.2h6H86.8"
						/>
				</g>
			</g>
			<g>
				<g>
					<path class="st0" d="M63,79.9c0-1.4-1.2-2.6-2.6-2.6s-2.6,1.2-2.6,2.6c0,1.4,1.2,2.6,2.6,2.6c0,0,0,0,0,0
						C61.8,82.5,63,81.3,63,79.9"/>
				</g>
				<g>
					<path class="st0" d="M55.2,85.8l-2.2,7c0,0-0.4,1.3,0.7,1.6s1.4-0.9,1.4-0.9l1.7-5.9c0,0,0.1-0.4,0.4-0.3s0.2,0.6,0.2,0.6
						l-3,11h2.8v7.9c-0.1,0.7,0.5,1.4,1.2,1.5c0.7,0.1,1.4-0.5,1.5-1.2c0-0.1,0-0.2,0-0.2v-7.8h0.8v7.9c-0.1,0.7,0.5,1.4,1.2,1.5
						c0.7,0.1,1.4-0.5,1.5-1.2c0-0.1,0-0.2,0-0.2v-7.9h2.8l-3-11c0,0-0.1-0.5,0.2-0.6s0.4,0.3,0.4,0.3l1.7,5.9c0,0,0.3,1.3,1.4,0.9
						s0.7-1.6,0.7-1.6l-2.2-7c0,0-0.8-2-2.5-2h-5.6C56,83.8,55.2,85.8,55.2,85.8"/>
				</g>
			</g>
			<g>
				<g>
					<path class="st0" d="M47.5,79.8c0-1.4-1.2-2.6-2.6-2.6s-2.6,1.2-2.6,2.6c0,1.4,1.2,2.6,2.6,2.6c0,0,0,0,0,0
						C46.3,82.4,47.5,81.3,47.5,79.8"/>
				</g>
				<g>
					<path class="st0" d="M39.6,85.7l-2.2,7c0,0-0.4,1.3,0.7,1.6s1.4-0.9,1.4-0.9l1.7-5.9c0,0,0.1-0.4,0.4-0.3s0.2,0.6,0.2,0.6
						l-3,11h2.8v7.9c-0.1,0.7,0.5,1.4,1.2,1.5c0.7,0.1,1.4-0.5,1.5-1.2c0-0.1,0-0.2,0-0.2v-7.8h0.8v7.9c-0.1,0.7,0.5,1.4,1.2,1.5
						c0.7,0.1,1.4-0.5,1.5-1.2c0-0.1,0-0.2,0-0.2v-7.9h2.8l-3-11c0,0-0.1-0.5,0.2-0.6s0.4,0.3,0.4,0.3l1.7,5.9c0,0,0.3,1.3,1.4,0.9
						s0.7-1.6,0.7-1.6l-2.2-7c0,0-0.8-2-2.5-2h-5.6C40.4,83.8,39.6,85.8,39.6,85.7"/>
				</g>
			</g>
			<g>
				<g>
					<path class="st0" d="M14,93.7C14,93.7,13.9,93.7,14,93.7l-2.6,13.6c0,0.2,0.1,0.4,0.3,0.5c0,0,0,0,0,0h0.1
						c0.2,0,0.4-0.1,0.4-0.3l2.5-13.5c0,0-0.1-0.1-0.1-0.2"/>
				</g>
				<g>
					<path class="st0" d="M17.1,78.7c0-1.5,1.2-2.7,2.7-2.7s2.7,1.2,2.7,2.7c0,1.5-1.2,2.7-2.7,2.7S17.1,80.2,17.1,78.7L17.1,78.7"
						/>
				</g>
				<g>
					<path class="st0" d="M23,82.5c1.9,0.2,3.3,1.7,3.3,3.6v7.6c-0.1,0.6-0.6,1-1.2,1c-0.5,0-0.9-0.4-1-1v-6.5
						c0-0.2-0.1-0.6-0.5-0.6s-0.4,0.3-0.4,0.5v19.4c0.1,0.8-0.4,1.6-1.3,1.7c-0.8,0.1-1.6-0.4-1.7-1.3c0-0.2,0-0.3,0-0.5V95.4
						c0-0.2-0.2-0.4-0.4-0.4c0,0,0,0,0,0l0,0c-0.2,0-0.4,0.2-0.4,0.4c0,0,0,0,0,0.1v11.2c0.1,0.8-0.4,1.6-1.3,1.7
						c-0.8,0.1-1.6-0.4-1.7-1.3c0-0.2,0-0.3,0-0.5V87.1c0-0.2-0.1-0.5-0.4-0.5c-0.4,0-0.5,0.3-0.5,0.6v6.5c-0.1,0.6-0.6,1-1.2,1
						c-0.5,0-0.9-0.4-1-1v-7.6c0-1.9,1.4-3.4,3.3-3.6h0.2h6H23"/>
				</g>
			</g>
			<g>
				<g>
					<path class="st0" d="M72.3,94.2c1.2,0,2.2-1,2.2-2.2c0-1.2-1-2.2-2.2-2.2c-1.2,0-2.2,1-2.2,2.2c0,0,0,0,0,0
						C70.1,93.2,71.1,94.2,72.3,94.2z"/>
				</g>
				<g>
					<path class="st0" d="M77.6,100.6c0-0.1-0.7-1.7-0.9-2.2C75.4,95,75.2,95.1,74,95h-3.4c-1.2,0-1.4,0-2.8,3.4
						c-0.2,0.5-1,2.4-1,2.5s-0.3,0.8,0.4,1.1s0.9-0.6,0.9-0.6l1.4-3.3c0,0,0-0.1,0.1-0.1s0,0.1,0,0.1v8.7l0,0c0,0.6,0.5,1.2,1.1,1.2
						c0,0,0,0,0,0c0.6,0,1.2-0.4,1.2-1c0,0,0-0.1,0-0.1v-3.5c0,0,0-0.5,0.3-0.5s0.3,0.5,0.3,0.5v3.5c0,0.6,0.5,1.2,1.1,1.2
						c0,0,0,0,0,0c0.6,0,1.1-0.5,1.1-1.1c0,0,0,0,0,0l0,0v-8.7c0-0.1,0-0.1,0-0.1l0.1,0.1l1.2,3c0,0,0.3,0.8,1,0.5
						S77.6,100.6,77.6,100.6z"/>
				</g>
			</g>
			<g>
				<g>
					<path class="st0" d="M34.5,97.9l2-3.7c0,0,0.1-0.3,0.2-0.4c0.2-0.3,0.1-0.8-0.2-0.9c0,0-0.1,0-0.1-0.1c-0.4-0.2-0.9,0-1.1,0.3
						c-0.4,0.7-0.9,1.4-1.4,2.1c-0.2,0.2-0.4,0.3-0.7,0.3h-2.6c-0.3,0-0.5-0.1-0.7-0.3c-0.3-0.3-1.4-2.1-1.4-2.2
						c-0.1-0.2-0.4-0.4-0.7-0.4c-0.4,0-0.8,0.4-0.8,0.8c0,0.1,0,0.2,0.1,0.3l2.2,4c0.1,0.2,0.1,0.3,0.1,0.5V99l0,0
						c0,0.2,0,0.5-0.1,0.7l-1,4.2h1.2v3.1l0,0c0.1,0.6,0.6,1,1.2,1c0.5,0,0.9-0.5,1-1v-3c0,0,0-0.1,0-0.1h0.6c0,0,0,0.1,0,0.1v3
						c0.1,0.6,0.6,1,1.2,1c0.5,0,0.9-0.5,1-1v-3.1h1.2l-1.1-4.2c0-0.2-0.1-0.4-0.1-0.6V99l0,0v-0.6C34.4,98.3,34.4,98.1,34.5,97.9z"
						/>
				</g>
				<g>
					<path class="st0" d="M31.9,94.3c1.2,0,2.2-1,2.2-2.2s-1-2.2-2.2-2.2c-1.2,0-2.2,1-2.2,2.2C29.7,93.4,30.7,94.3,31.9,94.3z"/>
				</g>
			</g>
		</g>
	</g>
</g>
</svg>
