<?xml version="1.0" encoding="utf-8"?>
<!-- Generator: Adobe Illustrator 22.0.1, SVG Export Plug-In . SVG Version: 6.00 Build 0)  -->
<svg version="1.1" id="Layer_1" xmlns="http://www.w3.org/2000/svg" xmlns:xlink="http://www.w3.org/1999/xlink" x="0px" y="0px"
	 viewBox="0 0 101.5 166.2" style="enable-background:new 0 0 101.5 166.2;" xml:space="preserve">
<style type="text/css">
	.st0{fill:#FFFFFF;}
	.st1{fill:#26BDE2;}
	.st2{enable-background:new    ;}
</style>
<title>TARGET 1.4</title>
<g id="WHITE_BG">
	<g>
		<rect y="0" class="st0" width="101.5" height="166.2"/>
	</g>
</g>
<g id="TARGETS">
	<g>
		<g>
			<path class="st1" d="M7,132.2v-6.4h1v6.4H7z"/>
		</g>
		<g>
			<path class="st1" d="M12.8,132.2l-2.8-4.5v4.5H9.1v-6.4h0.9l2.8,4.5v-4.5h0.9v6.4H12.8z"/>
		</g>
		<g>
			<path class="st1" d="M17.1,125.7c0.5,0,1,0.1,1.5,0.3v0.9c-0.5-0.2-0.9-0.3-1.4-0.3c-1.2,0-1.7,0.8-1.7,2.4s0.5,2.4,1.7,2.4
				c0.5,0,1-0.1,1.4-0.3v0.9c-0.5,0.2-1,0.3-1.5,0.3c-1.9,0-2.6-1.2-2.6-3.3S15.2,125.7,17.1,125.7z"/>
		</g>
		<g>
			<path class="st1" d="M20.4,132.2h-1v-6.4h2.1c1.6,0,2.2,0.7,2.2,1.9c0.1,0.7-0.3,1.4-1,1.7l1.3,2.8h-1.1l-1.2-2.6h-1.3V132.2z
				 M20.4,128.7h1.3c0.9,0,1-0.5,1-1s-0.1-1-1-1h-1.3V128.7z"/>
		</g>
		<g>
			<path class="st1" d="M28.3,129.3h-2.6v2h2.9v0.9h-3.9v-6.4h3.9v0.9h-2.9v1.8h2.6V129.3z"/>
		</g>
		<g>
			<path class="st1" d="M32.5,130.7h-2l-0.5,1.6h-1l2-6.4h1l2,6.4h-1L32.5,130.7z M31.5,127l-0.8,2.8h1.6L31.5,127z"/>
		</g>
		<g>
			<path class="st1" d="M38.5,130.3c0,1.2-0.7,2-2.4,2c-0.6,0-1.3-0.1-1.9-0.4V131c0.6,0.3,1.2,0.4,1.8,0.4c1.2,0,1.5-0.5,1.5-1.1
				s-0.3-0.9-1.2-1c-1.5-0.2-2.2-0.6-2.2-1.8c0-0.9,0.5-1.8,2.3-1.8c0.6,0,1.2,0.1,1.7,0.3v1c-0.5-0.2-1.1-0.3-1.7-0.3
				c-1,0-1.3,0.4-1.3,1c0,0.7,0.4,0.8,1.2,0.9C37.7,128.7,38.5,129,38.5,130.3z"/>
		</g>
		<g>
			<path class="st1" d="M42.9,129.3h-2.7v2h2.9v0.9h-3.9v-6.4h3.9v0.9h-2.9v1.8h2.7V129.3z"/>
		</g>
		<g>
			<path class="st1" d="M47.8,125.8H49l1.1,5l0.8-5h1l-1.2,6.4h-1.1l-1.2-5.3l-1.2,5.3h-1.2l-1.2-6.4h1l0.8,5L47.8,125.8z"/>
		</g>
		<g>
			<path class="st1" d="M55.1,130.7h-2l-0.5,1.6h-1l2-6.4h1l2,6.4h-1L55.1,130.7z M54.1,127l-0.8,2.8h1.6L54.1,127z"/>
		</g>
		<g>
			<path class="st1" d="M58.7,126.7v5.5h-1v-5.5H56v-0.9h4.3v0.9L58.7,126.7z"/>
		</g>
		<g>
			<path class="st1" d="M64.6,129.3h-2.7v2h2.9v0.9H61v-6.4h3.9v0.9h-3v1.8h2.7V129.3z"/>
		</g>
		<g>
			<path class="st1" d="M66.6,132.2h-1v-6.4h2.1c1.7,0,2.2,0.7,2.2,1.9c0.1,0.7-0.3,1.4-1,1.7l1.3,2.8h-1.1l-1.1-2.6h-1.4V132.2z
				 M66.6,128.7h1.2c0.9,0,1-0.5,1-1s-0.1-1-1-1h-1.2V128.7z"/>
		</g>
		<g>
			<path class="st1" d="M72.7,129.4h-2.2v-0.9h2.2V129.4z"/>
		</g>
		<g>
			<path class="st1" d="M73.2,130.2v-4.4h1v4.3c0.1,0.7,0.7,1.3,1.5,1.2c0.7-0.1,1.2-0.6,1.2-1.2v-4.3h1v4.4
				c-0.1,1.3-1.2,2.2-2.5,2.2C74.3,132.3,73.3,131.4,73.2,130.2L73.2,130.2z"/>
		</g>
		<g>
			<path class="st1" d="M82.9,130.3c0,1.2-0.7,2-2.4,2c-0.6,0-1.3-0.1-1.9-0.4V131c0.6,0.3,1.2,0.4,1.8,0.4c1.2,0,1.5-0.5,1.5-1.1
				s-0.3-0.9-1.2-1c-1.6-0.2-2.2-0.6-2.2-1.8c0-0.9,0.5-1.8,2.3-1.8c0.6,0,1.2,0.1,1.7,0.3v1c-0.5-0.2-1.1-0.3-1.7-0.3
				c-1,0-1.3,0.4-1.3,1c0,0.7,0.4,0.8,1.2,0.9C82.1,128.7,82.9,129,82.9,130.3z"/>
		</g>
		<g>
			<path class="st1" d="M87.3,129.3h-2.7v2h2.9v0.9h-3.9v-6.4h3.9v0.9h-2.9v1.8h2.7V129.3z"/>
		</g>
		<g>
			<path class="st1" d="M10.5,138.3H7.8v2h2.9v0.9H6.9v-6.4h3.9v0.9H7.8v1.8h2.6V138.3z"/>
		</g>
		<g>
			<path class="st1" d="M15.1,138.4h-2.6v2.8h-1v-6.4h3.8v0.9h-2.8v1.8h2.6V138.4z"/>
		</g>
		<g>
			<path class="st1" d="M19.7,138.4h-2.6v2.8h-1v-6.4H20v0.9h-2.9v1.8h2.6V138.4z"/>
		</g>
		<g>
			<path class="st1" d="M20.8,141.2v-6.4h1v6.4H20.8z"/>
		</g>
		<g>
			<path class="st1" d="M25.4,134.7c0.5,0,1,0.1,1.5,0.3v0.9c-0.5-0.2-0.9-0.3-1.4-0.3c-1.2,0-1.7,0.8-1.7,2.4s0.5,2.4,1.7,2.4
				c0.5,0,1-0.1,1.4-0.3v0.9c-0.5,0.2-1,0.3-1.5,0.3c-1.9,0-2.6-1.2-2.6-3.3S23.5,134.7,25.4,134.7z"/>
		</g>
		<g>
			<path class="st1" d="M27.9,141.2v-6.4h1v6.4H27.9z"/>
		</g>
		<g>
			<path class="st1" d="M33.5,138.3h-2.7v2h2.9v0.9h-3.9v-6.4h3.9v0.9h-2.9v1.8h2.7V138.3z"/>
		</g>
		<g>
			<path class="st1" d="M38.3,141.2l-2.8-4.5v4.5h-0.9v-6.4h0.9l2.8,4.5v-4.5h0.9v6.4H38.3z"/>
		</g>
		<g>
			<path class="st1" d="M42.7,134.7c0.5,0,1,0.1,1.5,0.3v0.9c-0.4-0.2-0.9-0.3-1.4-0.3c-1.2,0-1.7,0.8-1.7,2.4s0.5,2.4,1.7,2.4
				c0.5,0,1-0.1,1.4-0.3v0.9c-0.5,0.2-1,0.3-1.5,0.3c-1.9,0-2.6-1.2-2.6-3.3S40.8,134.7,42.7,134.7z"/>
		</g>
		<g>
			<path class="st1" d="M47.6,138.7v2.6h-1v-2.6l-2.2-3.8h1.1l1.6,3l1.6-3h1.1L47.6,138.7z"/>
		</g>
		<g>
			<path class="st1" d="M54.8,139.7h-2l-0.5,1.6h-1l2-6.4h1l2,6.4h-1L54.8,139.7z M53.8,136l-0.8,2.8h1.6L53.8,136z"/>
		</g>
		<g>
			<path class="st1" d="M60.5,141.2l-2.8-4.5v4.5h-1v-6.4h0.9l2.8,4.5v-4.5h0.9v6.4H60.5z"/>
		</g>
		<g>
			<path class="st1" d="M62.3,141.2v-6.4h1.9c2.1,0,2.7,1.4,2.7,3.2s-0.6,3.2-2.7,3.2H62.3z M63.3,140.3h1c1.3,0,1.7-0.9,1.7-2.3
				s-0.4-2.3-1.7-2.3h-1L63.3,140.3z"/>
		</g>
		<g>
			<path class="st1" d="M10.5,147.3H7.8v2h2.9v0.9H6.9v-6.4h3.9v0.9H7.8v1.8h2.6V147.3z"/>
		</g>
		<g>
			<path class="st1" d="M15.3,150.2l-2.8-4.5v4.5h-0.9v-6.4h0.9l2.8,4.5v-4.5h0.9v6.4H15.3z"/>
		</g>
		<g>
			<path class="st1" d="M21.3,148.3c0,1.2-0.7,2-2.4,2c-0.6,0-1.3-0.1-1.9-0.3v-1c0.6,0.3,1.2,0.4,1.8,0.4c1.1,0,1.5-0.5,1.5-1.1
				s-0.3-0.9-1.1-1c-1.6-0.2-2.2-0.6-2.2-1.8c0-0.9,0.5-1.8,2.3-1.8c0.6,0,1.2,0.1,1.7,0.3v1c-0.5-0.2-1.1-0.3-1.7-0.3
				c-1,0-1.3,0.4-1.3,1c0,0.7,0.4,0.8,1.2,0.9C20.5,146.7,21.3,147,21.3,148.3z"/>
		</g>
		<g>
			<path class="st1" d="M22,148.2v-4.4h1v4.3c-0.1,0.7,0.4,1.2,1,1.3c0.1,0,0.2,0,0.3,0c0.7,0.1,1.3-0.4,1.4-1c0-0.1,0-0.2,0-0.3
				v-4.3h1v4.4c0,1.1-0.9,2.1-2,2.1c-0.1,0-0.2,0-0.3,0c-1.1,0.2-2.2-0.6-2.4-1.7C22,148.5,22,148.4,22,148.2z"/>
		</g>
		<g>
			<path class="st1" d="M28.5,150.2h-1v-6.4h2.1c1.6,0,2.2,0.7,2.2,1.9c0.1,0.7-0.3,1.4-1,1.7l1.3,2.8H31l-1.1-2.6h-1.3V150.2z
				 M28.5,146.7h1.3c0.9,0,1-0.5,1-1s-0.1-1-1-1h-1.3V146.7z"/>
		</g>
		<g>
			<path class="st1" d="M36.4,147.3h-2.7v2h2.9v0.9h-3.9v-6.4h3.9v0.9h-2.9v1.8h2.7V147.3z"/>
		</g>
		<g>
			<path class="st1" d="M42.4,147.4h-2.6v2.8h-1v-6.4h3.8v0.9h-2.9v1.8h2.6V147.4z"/>
		</g>
		<g>
			<path class="st1" d="M44.3,150.2h-1v-6.4h2.1c1.7,0,2.2,0.7,2.2,1.9c0.1,0.7-0.3,1.4-1,1.7l1.3,2.8h-1.1l-1.2-2.6h-1.3V150.2z
				 M44.3,146.7h1.3c0.9,0,1-0.5,1-1s-0.1-1-1-1h-1.3V146.7z"/>
		</g>
		<g>
			<path class="st1" d="M52.2,147.3h-2.7v2h2.9v0.9h-3.9v-6.4h3.9v0.9h-2.9v1.8h2.7V147.3z"/>
		</g>
		<g>
			<path class="st1" d="M57.5,148.3c0,1.2-0.7,2-2.4,2c-0.6,0-1.3-0.1-1.9-0.4V149c0.6,0.3,1.2,0.4,1.8,0.4c1.2,0,1.5-0.5,1.5-1.1
				s-0.3-0.9-1.2-1c-1.5-0.2-2.2-0.6-2.2-1.8c0-0.9,0.5-1.8,2.3-1.8c0.6,0,1.2,0.1,1.7,0.3v1c-0.5-0.2-1.1-0.3-1.7-0.3
				c-1,0-1.3,0.4-1.3,1c0,0.7,0.4,0.8,1.2,0.9C56.7,146.7,57.5,147,57.5,148.3z"/>
		</g>
		<g>
			<path class="st1" d="M61.7,150.2v-2.9h-2.6v2.9h-1v-6.4h1v2.6h2.6v-2.6h1v6.4H61.7z"/>
		</g>
		<g>
			<path class="st1" d="M66.2,143.8h1.2l1.1,5l0.8-5h1l-1.2,6.4H68l-1.2-5.3l-1.2,5.3h-1.2l-1.2-6.4h1l0.8,5L66.2,143.8z"/>
		</g>
		<g>
			<path class="st1" d="M73.6,148.7h-2l-0.5,1.6H70l2-6.4h1l2,6.4h-1L73.6,148.7z M72.6,145l-0.8,2.8h1.6L72.6,145z"/>
		</g>
		<g>
			<path class="st1" d="M77.1,144.7v5.5h-0.9v-5.5h-1.7v-0.9h4.3v0.9H77.1z"/>
		</g>
		<g>
			<path class="st1" d="M82.9,147.3h-2.7v2h2.9v0.9h-3.9v-6.4h3.9v0.9h-2.9v1.8h2.7V147.3z"/>
		</g>
		<g>
			<path class="st1" d="M84.9,150.2H84v-6.4h2.1c1.7,0,2.2,0.7,2.2,1.9c0.1,0.7-0.3,1.4-1,1.7l1.3,2.8h-1.2l-1.2-2.6h-1.3V150.2z
				 M84.9,146.7h1.3c0.9,0,1-0.5,1-1s-0.1-1-1-1h-1.3V146.7z"/>
		</g>
		<g>
			<path class="st1" d="M11.1,157.3c0,1.2-0.7,2-2.4,2c-0.6,0-1.3-0.1-1.9-0.3v-1c0.6,0.3,1.2,0.4,1.8,0.4c1.1,0,1.5-0.5,1.5-1.1
				s-0.3-0.9-1.2-1c-1.6-0.2-2.2-0.6-2.2-1.8c0-0.9,0.5-1.8,2.3-1.8c0.6,0,1.2,0.1,1.7,0.3v1c-0.5-0.2-1.1-0.3-1.7-0.3
				c-1,0-1.3,0.4-1.3,1c0,0.7,0.4,0.8,1.2,0.9C10.3,155.7,11.1,156,11.1,157.3z"/>
		</g>
		<g>
			<path class="st1" d="M11.8,157.2v-4.4h0.9v4.3c-0.1,0.7,0.4,1.2,1,1.3c0.1,0,0.2,0,0.3,0c0.6,0.1,1.3-0.3,1.4-1
				c0-0.1,0-0.2,0-0.3v-4.3h1v4.4c0.1,1.1-0.8,2.1-1.9,2.1c-0.1,0-0.3,0-0.4,0c-1.1,0.2-2.1-0.5-2.3-1.6
				C11.8,157.5,11.8,157.4,11.8,157.2z"/>
		</g>
		<g>
			<path class="st1" d="M18.3,159.2h-1v-6.4h2c1.6,0,2.2,0.9,2.2,2s-0.6,2-2.2,2h-1V159.2z M18.3,156h1.1c0.6,0.1,1.2-0.4,1.2-1
				s-0.4-1.2-1-1.2c-0.1,0-0.1,0-0.2,0h-1.1V156z"/>
		</g>
		<g>
			<path class="st1" d="M23.1,159.2h-0.9v-6.4h2c1.6,0,2.2,0.9,2.2,2s-0.6,2-2.2,2h-1.1V159.2z M23.1,156h1.1c0.6,0.1,1.2-0.4,1.2-1
				s-0.4-1.2-1-1.2c-0.1,0-0.1,0-0.2,0h-1.1V156z"/>
		</g>
		<g>
			<path class="st1" d="M28,158.3h2.8v0.9H27v-6.4h1V158.3z"/>
		</g>
		<g>
			<path class="st1" d="M31.4,159.2v-6.4h0.9v6.4H31.4z"/>
		</g>
		<g>
			<path class="st1" d="M37.1,156.3h-2.7v2h2.9v0.9h-3.9v-6.4h3.9v0.9h-2.9v1.8h2.7V156.3z"/>
		</g>
		<g>
			<path class="st1" d="M42.3,157.3c0,1.2-0.7,2-2.4,2c-0.7,0-1.3-0.1-1.9-0.3v-1c0.6,0.3,1.2,0.4,1.8,0.4c1.2,0,1.5-0.5,1.5-1.1
				s-0.3-0.9-1.2-1c-1.5-0.2-2.2-0.6-2.2-1.8c0-0.9,0.5-1.8,2.3-1.8c0.6,0,1.2,0.1,1.7,0.3v1c-0.5-0.2-1.1-0.3-1.7-0.3
				c-1,0-1.3,0.4-1.3,1c0,0.7,0.4,0.8,1.2,0.9C41.6,155.7,42.3,156,42.3,157.3z"/>
		</g>
	</g>
	<g>
		<rect x="3.3" y="24" class="st1" width="94.8" height="94.8"/>
	</g>
	<g>
		<path class="st1" d="M98.2,20.7H3.3V3.3h94.8V20.7z M4.3,19.7h92.8V4.3H4.3L4.3,19.7z"/>
	</g>
	<g class="st2">
		<path class="st1" d="M6.7,6.9h4.5v1.4H9.9v8.8H8.1V8.3H6.7V6.9z"/>
	</g>
	<g class="st2">
		<path class="st1" d="M11.2,17.1l1.9-10.2h1.9L17,17.1h-1.8l-0.3-1.9h-1.8l-0.3,1.9H11.2z M13.3,13.9h1.4L14,9.8h0L13.3,13.9z"/>
	</g>
	<g class="st2">
		<path class="st1" d="M19.6,12.5v4.7h-1.7V6.9h2.5c1.7,0,2.4,0.9,2.4,2.3v1.3c0,1.1-0.4,1.7-1.4,2l1.6,4.6h-1.8L19.6,12.5z
			 M19.6,8.3v3.2h0.6c0.6,0,0.8-0.3,0.8-0.8V9.2c0-0.6-0.3-0.8-0.8-0.8H19.6z"/>
	</g>
	<g class="st2">
		<path class="st1" d="M26.4,11.7h2.4v5.4h-1.2V16c-0.2,0.8-0.7,1.2-1.6,1.2c-1.5,0-2.1-1.2-2.1-2.7V9.6c0-1.6,0.8-2.7,2.6-2.7
			c1.9,0,2.4,1.1,2.4,2.6v0.9h-1.6v-1c0-0.6-0.2-1-0.9-1c-0.6,0-0.9,0.4-0.9,1v5.5c0,0.6,0.3,1,0.8,1c0.6,0,0.8-0.3,0.8-1V13h-0.8
			V11.7z"/>
	</g>
	<g class="st2">
		<path class="st1" d="M30.2,6.9h4.1v1.4h-2.4v2.9h1.7v1.4h-1.7v3.1h2.4v1.4h-4.1V6.9z"/>
	</g>
	<g class="st2">
		<path class="st1" d="M35.1,6.9h4.5v1.4h-1.4v8.8h-1.7V8.3h-1.4V6.9z"/>
	</g>
	<g class="st2">
		<path class="st1" d="M78.8,14.5v-5c0-1.6,0.7-2.7,2.5-2.7c1.9,0,2.4,1.1,2.4,2.6v0.5h-1.6V9.2c0-0.6-0.2-1-0.8-1
			c-0.6,0-0.8,0.4-0.8,1v2.2h0c0.3-0.5,0.7-0.8,1.4-0.8c1.2,0,1.9,0.8,1.9,2.5v1.5c0,1.6-0.7,2.6-2.5,2.6
			C79.5,17.2,78.8,16.1,78.8,14.5z M82.1,14.8v-1.8c0-0.7-0.2-1-0.8-1c-0.5,0-0.8,0.4-0.8,0.9v1.9c0,0.6,0.2,1,0.8,1
			C81.9,15.8,82.1,15.5,82.1,14.8z"/>
	</g>
	<g class="st2">
	</g>
	<g class="st2">
		<path class="st1" d="M86.6,10.8c0.7,0,1.2,0.6,1.2,1.2c0,0.7-0.6,1.2-1.2,1.2c-0.7,0-1.2-0.6-1.2-1.2C85.4,11.4,86,10.8,86.6,10.8
			z"/>
	</g>
	<g class="st2">
		<path class="st1" d="M89.1,14.4l3-7.5h1.7v7.2h0.7v1.3h-0.7v1.7h-1.6v-1.7h-3V14.4z M90.6,14.1h1.5V9.9h0L90.6,14.1z"/>
	</g>
	<g>
		<path class="st1" d="M98.2,162.9h-95v-40.7h95V162.9z M4.2,161.9h93v-38.7h-93V161.9z"/>
	</g>
	<g>
		<g>
			<path class="st0" d="M68.6,95.6L68.6,95.6C68.2,96,68.6,95.6,68.6,95.6z"/>
		</g>
		<g>
			<g>
				<polygon class="st0" points="44.6,58.4 44.6,81.8 14,81.8 14,58.4 12.8,58.4 12.8,82.9 45.7,82.9 45.7,58.4 				"/>
			</g>
			<g>
				<path class="st0" d="M15.8,69.9L15.8,69.9c5.9,5.5,12.1,0.9,13.4-0.1l0.1-0.1c0,0,0.1,0,0.1,0c0,0,0.1,0,0.1,0l0.1,0.1
					C31,70.8,37.1,75.3,43,70l0.2-0.2c0.1,0,0.1-0.1,0.1-0.2v-2.9c0-0.2-0.1-0.3-0.3-0.3c0,0-0.1,0-0.1,0l-0.1,0.1
					c-1.8,1.3-7.7,4.8-13-0.1l-0.1-0.1c-0.1-0.1-0.3-0.1-0.4,0c0,0,0,0,0,0l-0.1,0.1c-5.2,4.8-11,1.5-12.9,0.2l-0.1-0.1
					c0,0-0.1,0-0.1,0c-0.1,0-0.3,0.1-0.3,0.2v2.9l0,0l0,0C15.7,69.7,15.7,69.8,15.8,69.9z"/>
			</g>
			<g>
				<path class="st0" d="M15.8,76.5L15.8,76.5c5.9,5.5,12.1,1,13.4-0.1l0.1-0.1c0,0,0.1,0,0.1,0c0,0,0.1,0,0.1,0l0.1,0.1
					c1.3,1.1,7.4,5.6,13.3,0.3l0.2-0.2c0.1,0,0.1-0.1,0.1-0.2v-2.9c0-0.2-0.1-0.3-0.3-0.3h-0.1l-0.1,0.1c-1.8,1.3-7.7,4.8-13-0.1
					L29.6,73c-0.1-0.1-0.3-0.1-0.4,0c0,0,0,0,0,0l-0.1,0.1c-5.2,4.8-11,1.5-12.9,0.2l-0.1-0.1c0,0-0.1,0-0.1,0
					c-0.1,0-0.3,0.1-0.3,0.2v2.9l0,0C15.7,76.4,15.7,76.5,15.8,76.5z"/>
			</g>
			<g>
				<path class="st0" d="M16.2,64c0.3,0,0.5-0.2,0.5-0.5c0-0.3-0.2-0.5-0.5-0.5c-0.3,0-0.5,0.2-0.5,0.5C15.7,63.8,15.9,64,16.2,64
					C16.2,64,16.2,64,16.2,64z"/>
			</g>
			<g>
				<path class="st0" d="M18.2,64c0.3,0,0.5-0.2,0.5-0.5s-0.2-0.5-0.5-0.5c-0.3,0-0.5,0.2-0.5,0.5S18,64,18.2,64L18.2,64z"/>
			</g>
			<g>
				<path class="st0" d="M20.3,64c0.2,0,0.5-0.2,0.5-0.4c0,0,0,0,0,0c0-0.3-0.2-0.5-0.5-0.5c-0.3,0-0.5,0.2-0.5,0.5
					C19.8,63.8,20,64,20.3,64z"/>
			</g>
			<g>
				<path class="st0" d="M22.4,64c0.3,0,0.5-0.2,0.5-0.5c0-0.3-0.2-0.5-0.5-0.5c-0.3,0-0.5,0.2-0.5,0.5C21.9,63.8,22.1,64,22.4,64
					C22.3,64,22.4,64,22.4,64z"/>
			</g>
			<g>
				<path class="st0" d="M24.4,64c0.3,0,0.5-0.2,0.5-0.5c0-0.3-0.2-0.5-0.5-0.5c-0.3,0-0.5,0.2-0.5,0.5C23.9,63.8,24.1,64,24.4,64
					C24.4,64,24.4,64,24.4,64z"/>
			</g>
			<g>
				<path class="st0" d="M26.5,64c0.2,0,0.5-0.2,0.5-0.4c0,0,0,0,0,0c0-0.3-0.2-0.5-0.5-0.5c-0.3,0-0.5,0.2-0.5,0.5
					C26,63.8,26.2,64,26.5,64z"/>
			</g>
			<g>
				<path class="st0" d="M28.5,64c0.2,0,0.5-0.2,0.5-0.4c0,0,0,0,0,0c0-0.3-0.2-0.5-0.5-0.5c-0.3,0-0.5,0.2-0.5,0.5
					C28.1,63.8,28.3,64,28.5,64z"/>
			</g>
			<g>
				<path class="st0" d="M30.6,64c0.3,0,0.5-0.2,0.5-0.5c0-0.3-0.2-0.5-0.5-0.5c-0.3,0-0.5,0.2-0.5,0.5C30.1,63.8,30.3,64,30.6,64
					C30.6,64,30.6,64,30.6,64z"/>
			</g>
			<g>
				<path class="st0" d="M32.6,64c0.3,0,0.5-0.2,0.5-0.5c0-0.3-0.2-0.5-0.5-0.5c-0.3,0-0.5,0.2-0.5,0.5C32.2,63.8,32.4,64,32.6,64z"
					/>
			</g>
			<g>
				<path class="st0" d="M34.7,64c0.2,0,0.5-0.2,0.5-0.4c0,0,0,0,0,0c0-0.3-0.2-0.5-0.5-0.5c-0.3,0-0.5,0.2-0.5,0.5
					C34.2,63.8,34.4,64,34.7,64z"/>
			</g>
			<g>
				<path class="st0" d="M36.7,64c0.3,0,0.5-0.2,0.5-0.5c0-0.3-0.2-0.5-0.5-0.5c-0.3,0-0.5,0.2-0.5,0.5C36.3,63.8,36.5,64,36.7,64
					C36.7,64,36.7,64,36.7,64z"/>
			</g>
			<g>
				<path class="st0" d="M38.8,64c0.3,0,0.5-0.2,0.5-0.5c0-0.3-0.2-0.5-0.5-0.5c-0.3,0-0.5,0.2-0.5,0.5C38.3,63.8,38.5,64,38.8,64z"
					/>
			</g>
			<g>
				<path class="st0" d="M40.8,64c0.2,0,0.5-0.2,0.5-0.4c0,0,0,0,0,0c0-0.3-0.2-0.5-0.5-0.5c-0.3,0-0.5,0.2-0.5,0.5
					C40.4,63.8,40.6,64,40.8,64z"/>
			</g>
			<g>
				<path class="st0" d="M42.9,64c0.3,0,0.5-0.2,0.5-0.5c0-0.3-0.2-0.5-0.5-0.5c-0.3,0-0.5,0.2-0.5,0.5C42.4,63.8,42.6,64,42.9,64
					C42.9,64,42.9,64,42.9,64z"/>
			</g>
			<g>
				<path class="st0" d="M17.3,62.4c0.3,0,0.5-0.2,0.5-0.5c0-0.3-0.2-0.5-0.5-0.5c-0.2,0-0.5,0.2-0.5,0.4c0,0,0,0,0,0
					C16.9,62.2,17.1,62.4,17.3,62.4z"/>
			</g>
			<g>
				<path class="st0" d="M19.4,62.4c0.3,0,0.5-0.2,0.5-0.5c0-0.3-0.2-0.5-0.5-0.5c-0.3,0-0.5,0.2-0.5,0.5
					C18.9,62.2,19.1,62.4,19.4,62.4z"/>
			</g>
			<g>
				<path class="st0" d="M21.4,62.4c0.3,0,0.5-0.2,0.5-0.5c0-0.2-0.2-0.5-0.4-0.5c0,0,0,0,0,0c-0.3,0-0.5,0.2-0.5,0.5
					C21,62.2,21.2,62.4,21.4,62.4z"/>
			</g>
			<g>
				<path class="st0" d="M23.5,62.4c0.3,0,0.5-0.2,0.5-0.5c0-0.3-0.2-0.5-0.5-0.5c-0.2,0-0.5,0.2-0.5,0.4c0,0,0,0,0,0
					C23,62.2,23.2,62.4,23.5,62.4z"/>
			</g>
			<g>
				<path class="st0" d="M25.5,62.4c0.3,0,0.5-0.2,0.5-0.5c0-0.3-0.2-0.5-0.5-0.5c-0.3,0-0.5,0.2-0.5,0.5
					C25.1,62.2,25.3,62.4,25.5,62.4z"/>
			</g>
			<g>
				<path class="st0" d="M27.6,62.4c0.3,0,0.5-0.2,0.5-0.5c0-0.2-0.2-0.5-0.4-0.5c0,0,0,0,0,0c-0.3,0-0.5,0.2-0.5,0.5
					C27.1,62.2,27.3,62.4,27.6,62.4z"/>
			</g>
			<g>
				<path class="st0" d="M29.6,62.4c0.3,0,0.5-0.2,0.5-0.5c0-0.3-0.2-0.5-0.5-0.5c-0.2,0-0.5,0.2-0.5,0.4c0,0,0,0,0,0
					C29.2,62.2,29.4,62.4,29.6,62.4z"/>
			</g>
			<g>
				<path class="st0" d="M31.7,62.4c0.3,0,0.5-0.2,0.5-0.5c0-0.3-0.2-0.5-0.5-0.5c-0.2,0-0.5,0.2-0.5,0.4c0,0,0,0,0,0
					C31.2,62.2,31.4,62.4,31.7,62.4z"/>
			</g>
			<g>
				<path class="st0" d="M33.8,62.4c0.3,0,0.5-0.2,0.5-0.5c0-0.2-0.2-0.5-0.4-0.5c0,0,0,0,0,0c-0.3,0-0.5,0.2-0.5,0.5
					C33.3,62.2,33.5,62.4,33.8,62.4z"/>
			</g>
			<g>
				<path class="st0" d="M35.8,62.4c0.3,0,0.5-0.2,0.5-0.5c0-0.2-0.2-0.5-0.4-0.5c0,0,0,0,0,0c-0.3,0-0.5,0.2-0.5,0.5
					C35.3,62.2,35.5,62.4,35.8,62.4z"/>
			</g>
			<g>
				<path class="st0" d="M37.9,62.4c0.3,0,0.5-0.2,0.5-0.5c0-0.3-0.2-0.5-0.5-0.5c-0.2,0-0.5,0.2-0.5,0.4c0,0,0,0,0,0
					C37.4,62.2,37.6,62.4,37.9,62.4z"/>
			</g>
			<g>
				<path class="st0" d="M39.9,62.4c0.3,0,0.5-0.2,0.5-0.5c0-0.3-0.2-0.5-0.5-0.5c-0.3,0-0.5,0.2-0.5,0.5
					C39.5,62.2,39.7,62.4,39.9,62.4z"/>
			</g>
			<g>
				<path class="st0" d="M42,62.4c0.3,0,0.5-0.2,0.5-0.5c0-0.2-0.2-0.5-0.4-0.5c0,0,0,0,0,0c-0.3,0-0.5,0.2-0.5,0.5
					C41.5,62.2,41.7,62.4,42,62.4z"/>
			</g>
			<g>
				<path class="st0" d="M16.3,60.8c0.3,0,0.5-0.2,0.5-0.5c0-0.3-0.2-0.5-0.5-0.5c-0.3,0-0.5,0.2-0.5,0.5l0,0
					C15.8,60.6,16,60.8,16.3,60.8z"/>
			</g>
			<g>
				<path class="st0" d="M18.4,60.8c0.3,0,0.5-0.2,0.5-0.5c0-0.2-0.2-0.5-0.4-0.5c0,0,0,0,0,0c-0.3,0-0.5,0.2-0.5,0.5
					C17.9,60.6,18.1,60.8,18.4,60.8z"/>
			</g>
			<g>
				<path class="st0" d="M20.4,60.8c0.3,0,0.5-0.2,0.5-0.5c0-0.3-0.2-0.5-0.5-0.5c-0.2,0-0.5,0.2-0.5,0.4c0,0,0,0,0,0
					C20,60.6,20.2,60.8,20.4,60.8z"/>
			</g>
			<g>
				<path class="st0" d="M22.5,60.8c0.3,0,0.5-0.2,0.5-0.5c0-0.3-0.2-0.5-0.5-0.5c-0.3,0-0.5,0.2-0.5,0.5l0,0
					C22,60.6,22.2,60.8,22.5,60.8z"/>
			</g>
			<g>
				<path class="st0" d="M24.5,60.8c0.3,0,0.5-0.2,0.5-0.5c0-0.2-0.2-0.5-0.4-0.5c0,0,0,0,0,0c-0.3,0-0.5,0.2-0.5,0.5
					C24.1,60.6,24.3,60.8,24.5,60.8z"/>
			</g>
			<g>
				<path class="st0" d="M26.6,60.8c0.3,0,0.5-0.2,0.5-0.5c0-0.3-0.2-0.5-0.5-0.5c-0.2,0-0.5,0.2-0.5,0.4c0,0,0,0,0,0
					C26.1,60.6,26.3,60.8,26.6,60.8z"/>
			</g>
			<g>
				<path class="st0" d="M28.6,60.8c0.3,0,0.5-0.2,0.5-0.5c0-0.3-0.2-0.5-0.5-0.5c-0.2,0-0.5,0.2-0.5,0.4c0,0,0,0,0,0
					C28.2,60.6,28.4,60.8,28.6,60.8z"/>
			</g>
			<g>
				<path class="st0" d="M30.7,60.8c0.3,0,0.5-0.2,0.5-0.5c0-0.2-0.2-0.5-0.4-0.5c0,0,0,0,0,0c-0.3,0-0.5,0.2-0.5,0.5
					C30.2,60.6,30.4,60.8,30.7,60.8z"/>
			</g>
			<g>
				<path class="st0" d="M32.7,60.8c0.3,0,0.5-0.2,0.5-0.5c0-0.3-0.2-0.5-0.5-0.5c-0.2,0-0.5,0.2-0.5,0.4c0,0,0,0,0,0
					C32.3,60.6,32.5,60.8,32.7,60.8z"/>
			</g>
			<g>
				<path class="st0" d="M34.8,60.8c0.3,0,0.5-0.2,0.5-0.5c0-0.3-0.2-0.5-0.5-0.5c-0.2,0-0.5,0.2-0.5,0.4c0,0,0,0,0,0
					C34.3,60.6,34.5,60.8,34.8,60.8z"/>
			</g>
			<g>
				<path class="st0" d="M36.8,60.8c0.3,0,0.5-0.2,0.5-0.5c0-0.2-0.2-0.5-0.4-0.5c0,0,0,0,0,0c-0.3,0-0.5,0.2-0.5,0.5
					C36.4,60.6,36.6,60.8,36.8,60.8z"/>
			</g>
			<g>
				<path class="st0" d="M38.9,60.8c0.3,0,0.5-0.2,0.5-0.5c0-0.2-0.2-0.5-0.4-0.5c0,0,0,0,0,0c-0.3,0-0.5,0.2-0.5,0.5
					C38.4,60.6,38.6,60.8,38.9,60.8z"/>
			</g>
			<g>
				<path class="st0" d="M40.9,60.8c0.3,0,0.5-0.2,0.5-0.5c0-0.3-0.2-0.5-0.5-0.5c-0.2,0-0.5,0.2-0.5,0.4c0,0,0,0,0,0
					C40.5,60.6,40.7,60.8,40.9,60.8z"/>
			</g>
			<g>
				<path class="st0" d="M43,60.8c0.3,0,0.5-0.2,0.5-0.5c0-0.3-0.2-0.5-0.5-0.5c-0.3,0-0.5,0.2-0.5,0.5c0,0,0,0,0,0
					C42.5,60.6,42.7,60.8,43,60.8z"/>
			</g>
		</g>
		<g>
			<path class="st0" d="M88.6,58.1c-0.1-0.1-0.1-0.1-0.2-0.1H64.4c-0.1,0-0.2,0-0.2,0.1c0,0.1-0.1,0.1-0.1,0.2l4,24.3
				c0,0.1,0.1,0.2,0.3,0.2h16.2c0.1,0,0.3-0.1,0.3-0.2l3.8-24.3C88.6,58.3,88.6,58.2,88.6,58.1z M79.3,77.6c-1.7,1.3-4,1.3-5.7,0
				c-1.3-1.4-1.6-3.5-0.5-5.2c0.4-0.7,3.1-4.9,3.4-5.2l0,0c0.2,0.3,3,4.5,3.4,5.2C80.9,74,80.7,76.2,79.3,77.6z M86.9,63.2
				c-0.7-0.3-1.6-0.2-2.3,0.1c-3,1.2-5,1.6-8.1,0.7c-2-0.6-3.8-1.9-6-1.1c-1.4,0.6-2.9,0.9-4.4,1l-0.9-4.8h22.4L86.9,63.2z"/>
		</g>
		<g>
			<path class="st0" d="M74.7,97.4l-2.8-2.2c-0.2-0.2-0.6-0.3-0.8,0c0,0,0,0,0,0l0,0c-8.8,10.5-24,11.6-34.8,3
				c-0.3-0.3-0.6-0.5-0.9-0.8l3.2-2c0.3-0.2-0.1-0.5-0.1-0.5l-10.8-5.4c-0.4-0.2-0.4,0-0.4,0.2v0.1l0,0l-0.1,12.3
				c0,0.1,0.1,0.4,0.4,0.2l0,0l3.6-2.2c0.7,0.7,1.4,1.3,2.2,1.9c12.8,10.3,30.9,8.9,41.5-3.5l0.1-0.1C75,98.1,75,97.7,74.7,97.4
				C74.7,97.4,74.7,97.4,74.7,97.4z"/>
		</g>
		<g>
			<path class="st0" d="M27.2,46.8l2.9,2.1c0.2,0.2,0.6,0.2,0.8,0c0,0,0,0,0-0.1l0,0c8.2-11,23.3-13,34.5-5c0.3,0.2,0.7,0.5,1,0.8
				l-3,2.2c-0.3,0.2,0.2,0.5,0.2,0.5L74.7,52c0.4,0.2,0.4,0,0.4-0.2v-0.1l0,0l-0.7-12.3c0-0.1-0.1-0.4-0.4-0.2l0,0l-3.4,2.4
				c-0.7-0.6-1.5-1.2-2.3-1.8C55,30.3,37,32.8,27.2,45.8l-0.1,0.1C26.8,46.2,26.9,46.6,27.2,46.8C27.2,46.8,27.2,46.8,27.2,46.8z"/>
		</g>
	</g>
</g>
</svg>
