<?xml version="1.0" encoding="utf-8"?>
<!-- Generator: Adobe Illustrator 22.0.1, SVG Export Plug-In . SVG Version: 6.00 Build 0)  -->
<svg version="1.1" id="Layer_1" xmlns="http://www.w3.org/2000/svg" xmlns:xlink="http://www.w3.org/1999/xlink" x="0px" y="0px"
	 viewBox="0 0 101.5 166.2" style="enable-background:new 0 0 101.5 166.2;" xml:space="preserve">
<style type="text/css">
	.st0{fill:#FFFFFF;}
	.st1{fill:#26BDE2;}
	.st2{enable-background:new    ;}
</style>
<title>TARGET 1.2</title>
<g id="WHITE_BG">
	<g>
		<rect y="0" class="st0" width="101.5" height="166.2"/>
	</g>
</g>
<g id="TARGETS">
	<g>
		<g>
			<path class="st1" d="M10.5,129.3H7.8v2h2.9v0.9H6.9v-6.4h3.9v0.9H7.8v1.8h2.6V129.3z"/>
		</g>
		<g>
			<path class="st1" d="M15.3,132.2l-2.8-4.5v4.5h-0.9v-6.4h0.9l2.8,4.5v-4.5h0.9v6.4H15.3z"/>
		</g>
		<g>
			<path class="st1" d="M17.1,132.2v-6.4H19c2.1,0,2.7,1.4,2.7,3.2s-0.6,3.2-2.7,3.2H17.1z M18.1,131.3h1c1.3,0,1.7-0.9,1.7-2.3
				s-0.4-2.3-1.7-2.3h-1V131.3z"/>
		</g>
		<g>
			<path class="st1" d="M23.8,129c0-1.8,0.4-3.3,2.5-3.3s2.5,1.5,2.5,3.3s-0.4,3.3-2.5,3.3S23.8,130.8,23.8,129z M24.8,129
				c0,1.5,0.3,2.4,1.5,2.4s1.5-0.9,1.5-2.4s-0.3-2.4-1.5-2.4S24.8,127.5,24.8,129L24.8,129z"/>
		</g>
		<g>
			<path class="st1" d="M30.4,132.2h-1v-6.4h2c1.6,0,2.2,1,2.2,2c0,1-0.6,2-2.2,2h-1.1L30.4,132.2z M30.4,128.9h1.1
				c0.6,0,1.1-0.5,1.1-1.1c0-0.6-0.5-1.1-1.1-1.1c0,0,0,0,0,0h-1.1V128.9z"/>
		</g>
		<g>
			<path class="st1" d="M37.9,129.3h-2.7v2h2.9v0.9h-3.9v-6.4h3.9v0.9h-2.9v1.8h2.7V129.3z"/>
		</g>
		<g>
			<path class="st1" d="M42.7,132.2l-2.7-4.5v4.5h-0.9v-6.4h0.9l2.8,4.5v-4.5h0.9v6.4H42.7z"/>
		</g>
		<g>
			<path class="st1" d="M45.9,132.2v-6.4h1.9c2.1,0,2.7,1.4,2.7,3.2s-0.6,3.2-2.7,3.2H45.9z M46.9,131.3h1c1.3,0,1.7-0.9,1.7-2.3
				s-0.4-2.3-1.7-2.3h-1V131.3z"/>
		</g>
		<g>
			<path class="st1" d="M54.8,129.3h-2.7v2h2.9v0.9h-3.9v-6.4h3.9v0.9h-2.9v1.8h2.7V129.3z"/>
		</g>
		<g>
			<path class="st1" d="M59.5,129.4h-2.6v2.8h-1v-6.4h3.8v0.9h-2.8v1.8h2.6L59.5,129.4z"/>
		</g>
		<g>
			<path class="st1" d="M64.1,129.3h-2.7v2h2.9v0.9h-3.9v-6.4h3.9v0.9h-2.9v1.8h2.7L64.1,129.3z"/>
		</g>
		<g>
			<path class="st1" d="M67.7,125.7c0.5,0,1,0.1,1.5,0.3v0.9c-0.5-0.2-0.9-0.3-1.4-0.3c-1.2,0-1.7,0.8-1.7,2.4
				c0,1.6,0.5,2.4,1.7,2.4c0.5,0,1-0.1,1.4-0.3v0.9c-0.5,0.2-1,0.3-1.5,0.3c-1.9,0-2.6-1.2-2.6-3.3S65.8,125.7,67.7,125.7z"/>
		</g>
		<g>
			<path class="st1" d="M73.1,130.6h-2l-0.4,1.6h-1l2-6.4h1l2,6.4h-1L73.1,130.6z M72.1,127l-0.8,2.8h1.6L72.1,127z"/>
		</g>
		<g>
			<path class="st1" d="M76.6,126.7v5.5h-0.9v-5.5H74v-0.9h4.3v0.9L76.6,126.7z"/>
		</g>
		<g>
			<path class="st1" d="M79.1,132.2v-6.4h1v6.4H79.1z"/>
		</g>
		<g>
			<path class="st1" d="M81,129c0-1.8,0.4-3.3,2.5-3.3s2.5,1.5,2.5,3.3s-0.4,3.3-2.5,3.3S81,130.8,81,129z M82,129
				c0,1.5,0.3,2.4,1.5,2.4s1.5-0.9,1.5-2.4s-0.3-2.4-1.5-2.4S82,127.5,82,129z"/>
		</g>
		<g>
			<path class="st1" d="M90.4,132.2l-2.8-4.5v4.5h-0.9v-6.4h0.9l2.8,4.5v-4.5h0.9v6.4H90.4z"/>
		</g>
		<g>
			<path class="st1" d="M10.1,139.6h-2l-0.4,1.6h-1l2-6.4h1l2,6.4h-1L10.1,139.6z M9.1,136l-0.8,2.8h1.6L9.1,136z"/>
		</g>
		<g>
			<path class="st1" d="M15.8,141.2l-2.8-4.5v4.5h-0.9v-6.4H13l2.8,4.5v-4.5h0.9v6.4L15.8,141.2z"/>
		</g>
		<g>
			<path class="st1" d="M17.6,141.2v-6.4h1.9c2.1,0,2.7,1.4,2.7,3.2s-0.6,3.2-2.7,3.2H17.6z M18.6,140.3h1c1.3,0,1.7-0.9,1.7-2.3
				s-0.4-2.3-1.7-2.3h-1V140.3z"/>
		</g>
		<g>
			<path class="st1" d="M25.4,141.2h-1v-6.4h2c1.6,0,2.2,1,2.2,2s-0.6,2-2.2,2h-1.1V141.2z M25.4,137.9h1.1c0.6,0,1.1-0.5,1.1-1.1
				c0-0.6-0.5-1.1-1.1-1.1h-1.1V137.9z"/>
		</g>
		<g>
			<path class="st1" d="M30.3,141.2h-1v-6.4h2.1c1.6,0,2.2,0.7,2.2,1.9c0.1,0.7-0.3,1.4-1,1.7l1.3,2.8h-1.1l-1.2-2.6h-1.3V141.2z
				 M30.3,137.7h1.2c0.9,0,1-0.5,1-1s-0.1-1-1-1h-1.2V137.7z"/>
		</g>
		<g>
			<path class="st1" d="M34.2,138c0-1.8,0.4-3.3,2.5-3.3s2.5,1.5,2.5,3.3s-0.4,3.3-2.5,3.3S34.2,139.8,34.2,138z M35.2,138
				c0,1.5,0.3,2.4,1.5,2.4s1.5-0.9,1.5-2.4s-0.3-2.4-1.5-2.4S35.2,136.5,35.2,138L35.2,138z"/>
		</g>
		<g>
			<path class="st1" d="M44.4,134.8l-2,6.5h-1l-2-6.5h1l1.5,5.2l1.5-5.2L44.4,134.8z"/>
		</g>
		<g>
			<path class="st1" d="M45.1,141.2v-6.4h1v6.4H45.1z"/>
		</g>
		<g>
			<path class="st1" d="M47.1,141.2v-6.4H49c2.1,0,2.7,1.4,2.7,3.2s-0.6,3.2-2.7,3.2H47.1z M48.1,140.3h1c1.3,0,1.7-0.9,1.7-2.3
				s-0.4-2.3-1.7-2.3h-1V140.3z"/>
		</g>
		<g>
			<path class="st1" d="M56,138.3h-2.6v2h2.9v0.9h-3.9v-6.4h3.9v0.9h-2.9v1.8h2.7L56,138.3z"/>
		</g>
		<g>
			<path class="st1" d="M61.8,139.6h-2l-0.5,1.6h-1l2-6.4h1l2,6.4h-1L61.8,139.6z M60.8,136l-0.8,2.8h1.6L60.8,136z"/>
		</g>
		<g>
			<path class="st1" d="M66,134.7c0.5,0,1,0.1,1.5,0.3v0.9c-0.5-0.2-0.9-0.3-1.4-0.3c-1.2,0-1.7,0.8-1.7,2.4s0.5,2.4,1.7,2.4
				c0.5,0,1-0.1,1.4-0.3v0.9c-0.5,0.2-1,0.3-1.5,0.3c-1.9,0-2.6-1.2-2.6-3.3S64.2,134.7,66,134.7z"/>
		</g>
		<g>
			<path class="st1" d="M70.8,134.7c0.5,0,1,0.1,1.5,0.3v0.9c-0.5-0.2-0.9-0.3-1.4-0.3c-1.2,0-1.7,0.8-1.7,2.4s0.5,2.4,1.7,2.4
				c0.5,0,1-0.1,1.4-0.3v0.9c-0.5,0.2-1,0.3-1.5,0.3c-1.9,0-2.6-1.2-2.6-3.3S68.9,134.7,70.8,134.7z"/>
		</g>
		<g>
			<path class="st1" d="M76.7,138.3h-2.7v2H77v0.9h-3.9v-6.4H77v0.9h-2.9v1.8h2.7V138.3z"/>
		</g>
		<g>
			<path class="st1" d="M81.9,139.3c0,1.2-0.7,2-2.4,2c-0.6,0-1.3-0.1-1.9-0.4v-1c0.6,0.3,1.2,0.4,1.8,0.4c1.2,0,1.5-0.5,1.5-1.1
				s-0.3-0.9-1.2-1c-1.6-0.2-2.2-0.6-2.2-1.8c0-0.9,0.5-1.9,2.3-1.9c0.6,0,1.2,0.1,1.7,0.3v1c-0.5-0.2-1.1-0.3-1.7-0.3
				c-1,0-1.3,0.4-1.3,1s0.4,0.8,1.2,0.9C81.1,137.7,81.9,138,81.9,139.3z"/>
		</g>
		<g>
			<path class="st1" d="M86.8,139.3c0,1.2-0.7,2-2.4,2c-0.6,0-1.3-0.1-1.9-0.4v-1c0.6,0.3,1.2,0.4,1.8,0.4c1.1,0,1.5-0.5,1.5-1.1
				s-0.3-0.9-1.2-1c-1.6-0.2-2.2-0.6-2.2-1.8c0-0.9,0.5-1.9,2.3-1.9c0.6,0,1.2,0.1,1.7,0.3v1c-0.5-0.2-1.1-0.3-1.7-0.3
				c-1,0-1.3,0.4-1.3,1s0.4,0.8,1.2,0.9C86,137.7,86.8,138,86.8,139.3z"/>
		</g>
		<g>
			<path class="st1" d="M9.2,144.7v5.5h-1v-5.5H6.6v-0.9h4.3v0.9H9.2z"/>
		</g>
		<g>
			<path class="st1" d="M11.2,147c0-1.8,0.4-3.3,2.5-3.3s2.5,1.5,2.5,3.3s-0.4,3.3-2.4,3.3S11.2,148.8,11.2,147z M12.2,147
				c0,1.5,0.3,2.4,1.5,2.4s1.5-0.9,1.5-2.4s-0.3-2.4-1.5-2.4S12.2,145.5,12.2,147L12.2,147z"/>
		</g>
		<g>
			<path class="st1" d="M22.5,148.3c0,1.2-0.7,2-2.4,2c-0.6,0-1.3-0.1-1.9-0.4v-1c0.6,0.3,1.2,0.4,1.8,0.4c1.1,0,1.5-0.5,1.5-1.1
				s-0.3-0.9-1.2-1c-1.5-0.2-2.2-0.6-2.2-1.8c0-0.9,0.5-1.9,2.3-1.9c0.6,0,1.2,0.1,1.7,0.3v1c-0.5-0.2-1.1-0.3-1.7-0.3
				c-1,0-1.3,0.4-1.3,1s0.4,0.8,1.2,0.9C21.7,146.7,22.5,147,22.5,148.3z"/>
		</g>
		<g>
			<path class="st1" d="M26.2,148.6h-2l-0.5,1.6h-1l2-6.4h1l2,6.4h-1L26.2,148.6z M25.2,145l-0.8,2.8H26L25.2,145z"/>
		</g>
		<g>
			<path class="st1" d="M31.9,150.2l-2.8-4.5v4.5h-1v-6.4h0.9l2.8,4.5v-4.5h0.9v6.4H31.9z"/>
		</g>
		<g>
			<path class="st1" d="M33.9,150.2v-6.4h1v6.4H33.9z"/>
		</g>
		<g>
			<path class="st1" d="M38.1,144.7v5.5h-1v-5.5h-1.6v-0.9h4.3v0.9H38.1z"/>
		</g>
		<g>
			<path class="st1" d="M42.8,148.6h-2l-0.5,1.6h-1l2-6.4h1l2,6.4h-1L42.8,148.6z M41.8,145l-0.8,2.8h1.6L41.8,145z"/>
		</g>
		<g>
			<path class="st1" d="M46.4,144.7v5.5h-1v-5.5h-1.6v-0.9H48v0.9H46.4z"/>
		</g>
		<g>
			<path class="st1" d="M48.7,150.2v-6.4h1v6.4H48.7z"/>
		</g>
		<g>
			<path class="st1" d="M50.7,147c0-1.8,0.4-3.3,2.5-3.3s2.5,1.5,2.5,3.3s-0.4,3.3-2.5,3.3S50.7,148.8,50.7,147z M51.7,147
				c0,1.5,0.3,2.4,1.5,2.4s1.5-0.9,1.5-2.4s-0.3-2.4-1.5-2.4S51.6,145.5,51.7,147L51.7,147z"/>
		</g>
		<g>
			<path class="st1" d="M60,150.2l-2.8-4.5v4.5h-0.9v-6.4h0.9l2.8,4.5v-4.5h0.9v6.4H60z"/>
		</g>
		<g>
			<path class="st1" d="M66.4,148.6h-2l-0.5,1.6h-1l2-6.4h1l2,6.4h-1L66.4,148.6z M65.4,145l-0.8,2.8h1.6L65.4,145z"/>
		</g>
		<g>
			<path class="st1" d="M72.1,150.2l-2.8-4.5v4.5h-0.9v-6.4h0.9l2.7,4.5v-4.5h1v6.4H72.1z"/>
		</g>
		<g>
			<path class="st1" d="M73.9,150.2v-6.4h1.9c2.1,0,2.7,1.4,2.7,3.2s-0.6,3.2-2.7,3.2H73.9z M74.9,149.3h1c1.3,0,1.7-0.9,1.7-2.3
				s-0.4-2.3-1.7-2.3h-1V149.3z"/>
		</g>
		<g>
			<path class="st1" d="M10.4,159.2v-2.9H7.8v2.9h-1v-6.4h1v2.6h2.6v-2.6h1v6.4H10.4z"/>
		</g>
		<g>
			<path class="st1" d="M15,156.6v2.6h-1v-2.6l-2.2-3.8H13l1.6,3l1.6-3h1.1L15,156.6z"/>
		</g>
		<g>
			<path class="st1" d="M17.2,156c0-2,0.7-3.3,2.6-3.3c0.6,0,1.3,0.1,1.8,0.3v1c-0.5-0.2-1.1-0.4-1.7-0.4c-1.3,0-1.8,0.9-1.8,2.4
				s0.5,2.4,1.8,2.4c0.3,0,0.6,0,0.9-0.1v-1.7h-1.1v-0.9h2.1v3.2c-0.6,0.3-1.3,0.4-2,0.4C17.9,159.3,17.2,158,17.2,156z"/>
		</g>
		<g>
			<path class="st1" d="M22.8,159.2v-6.4h1v6.4H22.8z"/>
		</g>
		<g>
			<path class="st1" d="M28.5,156.3h-2.6v2h2.9v0.9h-3.9v-6.4h3.9v0.9h-2.9v1.8h2.6V156.3z"/>
		</g>
		<g>
			<path class="st1" d="M33.3,159.2l-2.8-4.5v4.5h-0.9v-6.4h0.9l2.8,4.5v-4.5h1v6.4H33.3z"/>
		</g>
		<g>
			<path class="st1" d="M38.7,156.3h-2.6v2H39v0.9h-3.9v-6.4H39v0.9h-2.9v1.8h2.7L38.7,156.3z"/>
		</g>
	</g>
	<g>
		<rect x="3.3" y="24" class="st1" width="94.8" height="94.8"/>
	</g>
	<g>
		<path class="st1" d="M98.2,20.7H3.3V3.3h94.8V20.7z M4.3,19.7h92.8V4.3H4.3L4.3,19.7z"/>
	</g>
	<g class="st2">
		<path class="st1" d="M6.7,6.9h4.5v1.4H9.9v8.8H8.1V8.3H6.7V6.9z"/>
	</g>
	<g class="st2">
		<path class="st1" d="M11.2,17.1l1.9-10.2h1.9L17,17.1h-1.8l-0.3-1.9h-1.8l-0.3,1.9H11.2z M13.3,13.9h1.4L14,9.8h0L13.3,13.9z"/>
	</g>
	<g class="st2">
		<path class="st1" d="M19.6,12.4v4.7h-1.7V6.9h2.5c1.7,0,2.4,0.9,2.4,2.3v1.3c0,1.1-0.4,1.7-1.4,2l1.6,4.6h-1.8L19.6,12.4z
			 M19.6,8.3v3.2h0.6c0.6,0,0.8-0.3,0.8-0.8V9.2c0-0.6-0.3-0.8-0.8-0.8H19.6z"/>
	</g>
	<g class="st2">
		<path class="st1" d="M26.4,11.7h2.4v5.4h-1.2V16c-0.2,0.8-0.7,1.2-1.6,1.2c-1.5,0-2.1-1.2-2.1-2.7V9.6c0-1.6,0.8-2.7,2.6-2.7
			c1.9,0,2.4,1.1,2.4,2.6v0.9h-1.6v-1c0-0.6-0.2-1-0.9-1c-0.6,0-0.9,0.4-0.9,1v5.5c0,0.6,0.3,1,0.8,1c0.6,0,0.8-0.3,0.8-1V13h-0.8
			V11.7z"/>
	</g>
	<g class="st2">
		<path class="st1" d="M30.2,6.9h4.1v1.4h-2.4v2.9h1.7v1.4h-1.7v3.1h2.4v1.4h-4.1V6.9z"/>
	</g>
	<g class="st2">
		<path class="st1" d="M35.1,6.9h4.5v1.4h-1.4v8.8h-1.7V8.3h-1.4V6.9z"/>
	</g>
	<g class="st2">
		<path class="st1" d="M79.2,14.5v-5c0-1.6,0.7-2.7,2.5-2.7c1.9,0,2.4,1.1,2.4,2.6v0.5h-1.6V9.2c0-0.6-0.2-1-0.8-1
			c-0.6,0-0.8,0.4-0.8,1v2.2h0c0.3-0.5,0.7-0.8,1.4-0.8c1.2,0,1.9,0.8,1.9,2.5v1.5c0,1.6-0.7,2.6-2.5,2.6
			C79.9,17.2,79.2,16.1,79.2,14.5z M82.5,14.8V13c0-0.7-0.2-1-0.8-1c-0.5,0-0.8,0.4-0.8,0.9v1.9c0,0.6,0.2,1,0.8,1
			C82.3,15.8,82.5,15.5,82.5,14.8z"/>
	</g>
	<g class="st2">
	</g>
	<g class="st2">
		<path class="st1" d="M87.1,10.8c0.7,0,1.2,0.6,1.2,1.2c0,0.7-0.6,1.2-1.2,1.2c-0.7,0-1.2-0.6-1.2-1.2
			C85.8,11.4,86.4,10.8,87.1,10.8z"/>
	</g>
	<g class="st2">
		<path class="st1" d="M89.8,15.2c0-1,0.3-1.7,1.3-2.7l1-1c0.6-0.6,0.6-0.9,0.6-1.8V9c0-0.6-0.3-0.8-0.6-0.8c-0.4,0-0.7,0.2-0.7,0.8
			v1.3h-1.6V9c0-1.4,0.8-2.2,2.3-2.2c1.5,0,2.2,0.7,2.2,2.1v1c0,1-0.2,1.6-1.1,2.6l-1.1,1.2c-0.4,0.5-0.7,0.8-0.7,1.6v0.5h2.8v1.4
			h-4.4V15.2z"/>
	</g>
	<g>
		<path class="st1" d="M98.2,162.9h-95v-40.7h95V162.9z M4.2,161.9h93v-38.7h-93V161.9z"/>
	</g>
	<g>
		<g>
			<g>
				<path class="st0" d="M78.8,69v12.6h5.6V69c0-0.3-0.2-0.5-0.5-0.5l0,0h-1.2v-0.8h-2.1v0.8h-1.3C79,68.6,78.8,68.8,78.8,69z"/>
			</g>
			<g>
				<path class="st0" d="M77.9,81.6v-1.2H66c-0.3,0-0.5,0.2-0.5,0.5l0,0v0.2c0,0.3,0.2,0.5,0.5,0.5H77.9z"/>
			</g>
			<g>
				<path class="st0" d="M84.4,82.6l-18.5,0.1c-0.2,0-0.4,0.2-0.4,0.4c0,0,0,0.1,0,0.1c0.2,3.7,2.6,7,6.1,8.3l0,0l-2.9,8.4h14
					l-1.9-9.8C83.1,88.3,84.4,85.5,84.4,82.6z"/>
			</g>
			<g>
				<path class="st0" d="M59.3,71h-9.6v-1.7h1.2v0.8h0.7v-2.5h-0.7v1h-1.2v-2.2c0.1-0.7-0.2-1.4-0.6-2c-0.5-0.5-1.1-0.7-1.8-0.7l0,0
					c-0.7,0-1.5,0.2-2,0.8c-0.4,0.5-0.6,1.1-0.6,1.7v2.4H46v-2.4c0-0.3,0.1-0.5,0.3-0.8c0.3-0.2,0.6-0.4,1-0.3l0,0
					c0.3,0,0.6,0.1,0.8,0.3c0.2,0.3,0.3,0.6,0.3,1V71h-9.5c0,4.4,3.2,8.1,7.5,8.7L43.6,100h10.9l-2.8-20.2
					C56.1,79.1,59.3,75.4,59.3,71z"/>
			</g>
			<g>
				<path class="st0" d="M31.3,85.7L31.3,85.7H18.2c-0.1,0-0.2,0.1-0.2,0.2l0,0l1,13.8c0,0.1,0.1,0.2,0.2,0.2c0,0,0,0,0,0l0,0h11.2
					c0.1,0,0.2-0.1,0.2-0.2l0.9-13.8C31.5,85.8,31.4,85.7,31.3,85.7C31.3,85.7,31.3,85.7,31.3,85.7z"/>
			</g>
			<g>
				<path class="st0" d="M31.7,84c0-0.1-0.1-0.2-0.2-0.2c0,0,0,0,0,0h-4.8v-0.6c0-0.1-0.1-0.2-0.2-0.2h-3.6c-0.1,0-0.2,0.1-0.2,0.2
					v0.6H18c-0.1,0-0.2,0.1-0.2,0.2c0,0,0,0,0,0l0.1,0.8c0,0.1,0.1,0.2,0.2,0.2l0,0h13.2c0.1,0,0.2-0.1,0.2-0.2L31.7,84z"/>
			</g>
		</g>
		<g>
			<path class="st0" d="M90.8,49.1L51.6,32.2c-0.1-0.1-0.3-0.1-0.4-0.1c-0.1,0-0.2,0.1-0.3,0.1L11.7,49.1c-0.2,0.1-0.3,0.2-0.2,0.4
				v4c0,0.3,0,0.6,0.5,0.5L51,37.8c0.1,0,0.1,0,0.2,0c0.1,0,0.1,0,0.2,0l39.1,16.1c0.5,0.2,0.5-0.1,0.5-0.5v-4
				C91,49.3,90.9,49.2,90.8,49.1z"/>
		</g>
		<g>
			<path class="st0" d="M11.9,105.2h78.4c0.3,0,0.6,0.3,0.6,0.6v3.6c0,0.3-0.3,0.6-0.6,0.6H11.9c-0.3,0-0.6-0.3-0.6-0.6v-3.6
				C11.3,105.5,11.6,105.2,11.9,105.2z"/>
		</g>
	</g>
</g>
</svg>
