<?xml version="1.0" encoding="utf-8"?>
<!-- Generator: Adobe Illustrator 22.0.1, SVG Export Plug-In . SVG Version: 6.00 Build 0)  -->
<svg version="1.1" id="Layer_1" xmlns="http://www.w3.org/2000/svg" xmlns:xlink="http://www.w3.org/1999/xlink" x="0px" y="0px"
	 viewBox="0 0 101.5 157.2" style="enable-background:new 0 0 101.5 157.2;" xml:space="preserve">
<style type="text/css">
	.st0{fill:#FFFFFF;}
	.st1{fill:#A21942;}
	.st2{enable-background:new    ;}
</style>
<title>TARGET 1 B copy 4</title>
<g id="WHITE_BG">
	<g>
		<rect y="0" class="st0" width="101.5" height="157"/>
	</g>
</g>
<g id="TARGETS">
	<g>
		<g>
			<path class="st1" d="M10.4,129.4H7.8v2.8h-1v-6.4h3.9v0.9H7.8v1.8h2.6V129.4z"/>
		</g>
		<g>
			<path class="st1" d="M11.3,130.2v-4.4h1v4.3c-0.1,0.7,0.4,1.2,1,1.3c0.1,0,0.2,0,0.3,0c0.6,0.1,1.3-0.3,1.4-1c0-0.1,0-0.2,0-0.3
				v-4.3h1v4.4c0,1.1-0.8,2.1-2,2.1c-0.1,0-0.2,0-0.3,0c-1.1,0.2-2.2-0.5-2.4-1.7C11.3,130.5,11.3,130.4,11.3,130.2z"/>
		</g>
		<g>
			<path class="st1" d="M17.7,131.3h2.8v0.9h-3.7v-6.4h1L17.7,131.3z"/>
		</g>
		<g>
			<path class="st1" d="M22,131.3h2.8v0.9H21v-6.4h1V131.3z"/>
		</g>
		<g>
			<path class="st1" d="M30.4,129.3h-2.7v2h2.9v0.9h-3.9v-6.4h3.9v0.9h-2.9v1.8h2.6L30.4,129.3z"/>
		</g>
		<g>
			<path class="st1" d="M34.9,131.3H34l-1.6-3.9v4.8h-1v-6.4h1.2l1.7,4.3l1.7-4.3h1.2v6.4h-1v-4.8L34.9,131.3z"/>
		</g>
		<g>
			<path class="st1" d="M39.3,132.2h-1v-6.4h2c1.6,0,2.2,1,2.2,2c0,1-0.6,2-2.2,2h-1.1L39.3,132.2z M39.3,128.9h1.1
				c0.6,0.1,1.2-0.4,1.2-1s-0.4-1.2-1-1.2c-0.1,0-0.1,0-0.2,0h-1.1V128.9z"/>
		</g>
		<g>
			<path class="st1" d="M44,131.3h2.8v0.9H43v-6.4h1V131.3z"/>
		</g>
		<g>
			<path class="st1" d="M46.8,129c0-1.8,0.4-3.3,2.5-3.3s2.5,1.5,2.5,3.3s-0.4,3.3-2.5,3.3S46.8,130.8,46.8,129z M47.8,129
				c0,1.5,0.3,2.4,1.5,2.4s1.5-0.9,1.5-2.4s-0.3-2.4-1.5-2.4S47.8,127.5,47.8,129L47.8,129z"/>
		</g>
		<g>
			<path class="st1" d="M55,129.6v2.6h-1v-2.6l-2.2-3.8h1.1l1.6,3l1.6-3h1.1L55,129.6z"/>
		</g>
		<g>
			<path class="st1" d="M61.1,131.3h-0.9l-1.6-3.9v4.8h-1v-6.4h1.2l1.7,4.3l1.7-4.3h1.2v6.4h-1v-4.8L61.1,131.3z"/>
		</g>
		<g>
			<path class="st1" d="M68.1,129.3h-2.7v2h2.9v0.9h-3.9v-6.4h3.9v0.9h-2.9v1.8h2.7V129.3z"/>
		</g>
		<g>
			<path class="st1" d="M72.9,132.2l-2.8-4.5v4.5h-0.9v-6.4h0.9l2.8,4.5v-4.5h0.9v6.4L72.9,132.2L72.9,132.2z"/>
		</g>
		<g>
			<path class="st1" d="M76.9,126.7v5.5H76v-5.5h-1.7v-0.9h4.3v0.9H76.9z"/>
		</g>
		<g>
			<path class="st1" d="M10.1,139.6h-2l-0.4,1.6h-1l2-6.4h1l2,6.4h-1L10.1,139.6z M9.1,136l-0.8,2.8h1.6L9.1,136z"/>
		</g>
		<g>
			<path class="st1" d="M15.8,141.2l-2.8-4.5v4.5h-0.9v-6.4H13l2.8,4.5v-4.5h0.9v6.4H15.8z"/>
		</g>
		<g>
			<path class="st1" d="M17.6,141.2v-6.4h1.9c2.1,0,2.7,1.4,2.7,3.2s-0.6,3.2-2.7,3.2H17.6z M18.6,140.3h1c1.3,0,1.7-0.9,1.7-2.3
				s-0.4-2.3-1.7-2.3h-1V140.3z"/>
		</g>
		<g>
			<path class="st1" d="M24.4,141.2v-6.4h1.9c2.1,0,2.7,1.4,2.7,3.2s-0.6,3.2-2.7,3.2H24.4z M25.4,140.3h1c1.3,0,1.7-0.9,1.7-2.3
				s-0.4-2.3-1.7-2.3h-1V140.3z"/>
		</g>
		<g>
			<path class="st1" d="M33.3,138.3h-2.6v2h2.9v0.9h-3.9v-6.4h3.9v0.9h-2.9v1.8h2.6V138.3z"/>
		</g>
		<g>
			<path class="st1" d="M36.9,134.7c0.5,0,1,0.1,1.5,0.3v0.9c-0.5-0.2-0.9-0.3-1.4-0.3c-1.2,0-1.7,0.8-1.7,2.4s0.5,2.4,1.7,2.4
				c0.5,0,1-0.1,1.4-0.3v0.9c-0.5,0.2-1,0.3-1.5,0.3c-1.9,0-2.6-1.2-2.6-3.3S35,134.7,36.9,134.7z"/>
		</g>
		<g>
			<path class="st1" d="M42.8,138.3h-2.7v2H43v0.9h-3.9v-6.4H43v0.9h-2.9v1.8h2.7V138.3z"/>
		</g>
		<g>
			<path class="st1" d="M47.6,141.2l-2.8-4.5v4.5H44v-6.4h0.9l2.8,4.5v-4.5h1v6.4H47.6z"/>
		</g>
		<g>
			<path class="st1" d="M51.7,135.7v5.5h-1v-5.5H49v-0.9h4.3v0.9H51.7z"/>
		</g>
		<g>
			<path class="st1" d="M57.5,134.8h1.2l1.1,5l0.8-5h1l-1.2,6.4h-1.2l-1.1-5.3l-1.2,5.3h-1.2l-1.2-6.4h1l0.8,5L57.5,134.8z"/>
		</g>
		<g>
			<path class="st1" d="M62,138c0-1.8,0.4-3.3,2.4-3.3s2.6,1.5,2.6,3.3s-0.4,3.3-2.5,3.3S62,139.8,62,138z M63,138
				c0,1.5,0.3,2.4,1.5,2.4c1.2,0,1.5-0.9,1.5-2.4s-0.3-2.4-1.5-2.4S63,136.5,63,138z"/>
		</g>
		<g>
			<path class="st1" d="M68.6,141.2h-1v-6.4h2.1c1.7,0,2.2,0.7,2.2,1.9c0.1,0.7-0.3,1.4-1,1.7l1.3,2.8h-1.1l-1.1-2.6h-1.4V141.2z
				 M68.6,137.7h1.3c0.9,0,1-0.5,1-1s-0.1-1-1-1h-1.3V137.7z"/>
		</g>
		<g>
			<path class="st1" d="M74.3,138.4l-0.5,0.6v2.2h-1v-6.4h1v3l2.3-3h1.2l-2.3,2.8l2.6,3.6h-1.3L74.3,138.4z"/>
		</g>
		<g>
			<path class="st1" d="M9.5,143.8h1.2l1.1,5l0.8-5h1l-1.2,6.4h-1.1l-1.1-5.3L9,150.3H7.8l-1.2-6.4h1l0.8,5L9.5,143.8z"/>
		</g>
		<g>
			<path class="st1" d="M14.3,150.2v-6.4h0.9v6.4H14.3z"/>
		</g>
		<g>
			<path class="st1" d="M18.7,144.7v5.5h-1v-5.5h-1.6v-0.9h4.3v0.9H18.7z"/>
		</g>
		<g>
			<path class="st1" d="M24.5,150.2v-2.9H22v2.9h-1v-6.4h1v2.6h2.6v-2.6h1v6.4H24.5z"/>
		</g>
		<g>
			<path class="st1" d="M31.4,147.3h-2.6v2h2.9v0.9h-3.9v-6.4h3.9v0.9h-2.9v1.8h2.6V147.3z"/>
		</g>
		<g>
			<path class="st1" d="M35.9,150l2,0.4v1l-4-1.2c-1.3-0.4-1.6-1.6-1.6-3.2c0-1.9,0.4-3.3,2.5-3.3s2.5,1.4,2.5,3.3
				C37.2,148.5,37,149.6,35.9,150L35.9,150z M33.3,147c0,1.5,0.3,2.4,1.5,2.4s1.5-0.9,1.5-2.4s-0.3-2.4-1.5-2.4S33.3,145.5,33.3,147
				z"/>
		</g>
		<g>
			<path class="st1" d="M37.9,148.2v-4.4h1v4.3c0,0.8,0.6,1.4,1.4,1.4s1.4-0.6,1.4-1.4v-4.3h1v4.4c0,1.1-0.9,2.1-2,2.1
				c-0.1,0-0.2,0-0.3,0c-1.1,0.2-2.2-0.6-2.3-1.7C37.9,148.4,37.9,148.3,37.9,148.2z"/>
		</g>
		<g>
			<path class="st1" d="M46.4,148.6h-2l-0.5,1.6h-1l2-6.4h1l2,6.4h-1L46.4,148.6z M45.4,145l-0.8,2.8h1.6L45.4,145z"/>
		</g>
		<g>
			<path class="st1" d="M49.3,149.3h2.8v0.9h-3.7v-6.4h1L49.3,149.3z"/>
		</g>
		<g>
			<path class="st1" d="M55.1,150.2h-1v-6.4h2c1.7,0,2.2,0.9,2.2,2s-0.6,2-2.2,2h-1V150.2z M55.1,146.9h1.1c0.6,0.1,1.2-0.4,1.2-1
				s-0.4-1.2-1-1.2c-0.1,0-0.1,0-0.2,0h-1.1V146.9z"/>
		</g>
		<g>
			<path class="st1" d="M61.4,148.6h-2l-0.5,1.6h-1l2-6.4h1l2,6.4h-1L61.4,148.6z M60.4,145l-0.8,2.8h1.6L60.4,145z"/>
		</g>
		<g>
			<path class="st1" d="M65.1,147.6v2.6h-1v-2.6l-2.1-3.8h1.1l1.6,3l1.6-3h1.1L65.1,147.6z"/>
		</g>
	</g>
	<g>
		<rect x="3.3" y="24" class="st1" width="94.8" height="94.8"/>
	</g>
	<g>
		<path class="st1" d="M98.2,20.7H3.3V3.3h94.8L98.2,20.7L98.2,20.7z M4.3,19.7h92.8V4.3H4.3V19.7z"/>
	</g>
	<g class="st2">
		<path class="st1" d="M6.7,6.9h4.5v1.4H9.9v8.8H8.1V8.3H6.7V6.9z"/>
	</g>
	<g class="st2">
		<path class="st1" d="M11.2,17.1l1.9-10.2H15l2,10.2h-1.8l-0.3-1.9h-1.8l-0.3,1.9H11.2z M13.3,13.9h1.4L14,9.8l0,0L13.3,13.9z"/>
	</g>
	<g class="st2">
		<path class="st1" d="M19.6,12.4v4.7h-1.7V6.9h2.5c1.7,0,2.4,0.9,2.4,2.3v1.3c0,1.1-0.4,1.7-1.4,2l1.6,4.6h-1.8L19.6,12.4z
			 M19.6,8.3v3.2h0.6c0.6,0,0.8-0.3,0.8-0.8V9.2c0-0.6-0.3-0.8-0.8-0.8L19.6,8.3L19.6,8.3z"/>
	</g>
	<g class="st2">
		<path class="st1" d="M26.4,11.7h2.4v5.4h-1.2V16c-0.2,0.8-0.7,1.2-1.6,1.2c-1.5,0-2.1-1.2-2.1-2.7V9.6c0-1.6,0.8-2.7,2.6-2.7
			c1.9,0,2.4,1.1,2.4,2.6v0.9h-1.6v-1c0-0.6-0.2-1-0.9-1c-0.6,0-0.9,0.4-0.9,1v5.5c0,0.6,0.3,1,0.8,1c0.6,0,0.8-0.3,0.8-1V13h-0.8
			v-1.3H26.4z"/>
	</g>
	<g class="st2">
		<path class="st1" d="M30.2,6.9h4.1v1.4h-2.4v2.9h1.7v1.4h-1.7v3.1h2.4v1.4h-4.1C30.2,17.1,30.2,6.9,30.2,6.9z"/>
	</g>
	<g class="st2">
		<path class="st1" d="M35.1,6.9h4.5v1.4h-1.4v8.8h-1.7V8.3h-1.4C35.1,8.3,35.1,6.9,35.1,6.9z"/>
	</g>
	<g class="st2">
		<path class="st1" d="M78.8,14.6v-1.1c0-1,0.3-1.7,1.1-2c-0.7-0.3-1-0.9-1-1.8V9.3c0-1.6,0.8-2.4,2.4-2.4s2.4,0.9,2.4,2.4v0.4
			c0,0.8-0.3,1.4-1,1.8c0.8,0.4,1.1,1.1,1.1,2v1.1c0,1.5-0.7,2.6-2.5,2.6S78.8,16.2,78.8,14.6z M82.2,14.8v-1.6c0-0.6-0.2-1-0.8-1
			c-0.6,0-0.8,0.4-0.8,1v1.6c0,0.6,0.2,1,0.8,1C81.9,15.8,82.2,15.4,82.2,14.8z M82.1,9.9V9.2c0-0.6-0.2-1-0.8-1
			c-0.6,0-0.8,0.4-0.8,1v0.7c0,0.6,0.2,1,0.8,1C81.9,10.8,82.1,10.5,82.1,9.9z"/>
	</g>
	<g class="st2">
		<path class="st1" d="M86.7,10.8c0.7,0,1.2,0.6,1.2,1.2c0,0.7-0.6,1.2-1.2,1.2c-0.7,0-1.2-0.6-1.2-1.2C85.5,11.4,86,10.8,86.7,10.8
			z"/>
	</g>
	<g class="st2">
		<path class="st1" d="M94.3,12.4v2.5c0,1.4-0.7,2.3-2.4,2.3c-1.7,0-2.4-1-2.4-2.5v-1.2h1.6v1.3c0,0.6,0.2,1,0.8,1
			c0.5,0,0.7-0.4,0.7-0.9v-2.5c0-0.6-0.2-0.9-0.7-0.9s-0.8,0.3-0.8,0.9v0.2h-1.6V6.9H94v1.4h-2.9v2.5l0,0c0.3-0.5,0.8-0.7,1.4-0.7
			C93.5,10.2,94.3,10.8,94.3,12.4z"/>
	</g>
	<g>
		<path class="st1" d="M98.2,153.8H3.3v-31.6h94.8L98.2,153.8L98.2,153.8z M4.3,152.8h92.8v-29.6H4.3V152.8z"/>
	</g>
	<g>
		<g>
			<path class="st0" d="M45.3,66.7c0.8,0.3,1.7-0.2,2-1l0,0l1.5-4.2l2.3-0.8h0.1v6.9c0,1.6,0.5,3.1,2.1,3.5l0.5,0.1
				c0.3,0,0.5,0.1,0.8,0.1h7.7l2.1,4v0.1l0.8,1.4l0.7,1.4l0.1,0.1l0,0l0.8,1.5c0.5,1,1.7,1.4,2.7,0.9s1.4-1.7,0.9-2.7l-1.6-3v-0.1
				l-3.7-7.2c-0.3-0.7-1-1.1-1.8-1h-5.2L58,60.2c-0.1-2-0.5-3.1-2.1-3.5c-0.8-0.1-1.5-0.1-2.3,0l-0.2,0.1l0,0l-6.2,2h-0.1l-0.2,0.1
				h-0.1c-0.3,0.2-0.5,0.5-0.7,0.8l-1.7,5C44.2,65.5,44.6,66.3,45.3,66.7z"/>
		</g>
		<g>
			<path class="st0" d="M51.6,84c5.4-0.1,9.8-4.5,9.8-9.9l0,0v-0.4H59v0.4c0,4.1-3.4,7.4-7.5,7.4s-7.4-3.4-7.4-7.5
				c0-1.6,0.5-3.2,1.5-4.5L43.8,68c-3.3,4.2-2.6,10.3,1.6,13.6c0,0,0,0,0.1,0.1C47.2,83.2,49.4,84,51.6,84L51.6,84z"/>
		</g>
		<g>
			<path class="st0" d="M51,51.7c0,2.1,1.7,3.8,3.8,3.8s3.8-1.7,3.8-3.8l0,0l0,0c0-0.3,0-0.5-0.1-0.8h-7.4C51,51.1,51,51.4,51,51.7z
				"/>
		</g>
		<g>
			<path class="st0" d="M59,48.7h-0.4c-0.3-1.1-1-2-2-2.5L56,47.9v-2.6h-2v2.6l-0.7-1.8c-1.1,0.5-2,1.4-2.3,2.6h-0.4v1.4h8.5
				L59,48.7z"/>
		</g>
	</g>
	<g>
		<g>
			<path class="st0" d="M27.9,46.6c2.1,0,3.8-1.7,3.8-3.8S30,39,27.9,39s-3.8,1.7-3.8,3.8l0,0l0,0C24.1,44.9,25.8,46.6,27.9,46.6z"
				/>
		</g>
		<g>
			<path class="st0" d="M38.8,61.7l-3.2-10.3c0,0-1.1-3-3.7-3h-1.2l-2.6,4.3l-3-4.3h-1.2c-2.5,0-3.6,3-3.6,3l-3.1,10.4
				c-0.1,0.4-0.1,0.8,0,1.2h-0.4c-0.5,0-0.9,0.4-0.9,0.9l0,0l0,0v0.8h-3c-0.5,0-0.9,0.4-0.9,0.9l0,0v1.7c0,0.2,0,0.3,0.1,0.5
				c0.2,0.8,0.9,1.3,1.7,1.3h3.4v-0.7c0-0.2,0.2-0.4,0.4-0.5h0.7c0.2,0,0.4,0.2,0.4,0.4V69h3.4c0.8,0,1.5-0.5,1.7-1.3V69
				c-0.4,0.5-1,0.8-1.7,0.9h-3.4v0.7c0,0.2-0.2,0.5-0.4,0.5h-0.8c-0.2,0-0.4-0.3-0.4-0.5v-0.7h-3.4c-0.7,0-1.3-0.3-1.7-0.9
				c0-0.1,0-0.1-0.1-0.1v4.5c0,0.5,0.4,0.9,0.9,0.9l0,0l0,0l10.3-0.1c0.1,0,0.3,0,0.4-0.1v8.1c0,1.1,0.9,2,2,2s2-0.9,2-2l-0.1-11.5
				h1.1l0.1,11.6c0,1.1,0.9,2,2,2s2-0.9,2-2l-0.1-11.5h4.1l-4.5-16.2c0,0-0.2-0.7,0.3-0.9s0.6,0.5,0.6,0.5l2.6,8.6
				c0,0,0.5,1.8,2.1,1.4S38.8,61.7,38.8,61.7z M16.4,64.6v-0.7c0-0.1,0.1-0.2,0.2-0.2h0.8c0.2,0.2,0.5,0.4,0.8,0.5
				c0.4,0.1,0.8,0.1,1.1-0.1v0.5H16.4z M23.7,54.5L21,64.6h-1v-0.8c0-0.1,0-0.2-0.1-0.3c0.2-0.2,0.3-0.4,0.4-0.7l2.5-8.6
				c0,0,0.1-0.7,0.6-0.5S23.7,54.5,23.7,54.5z"/>
		</g>
		<g>
			<path class="st0" d="M17.6,68.5h0.6c0.1,0,0.1,0,0.1,0.1v1.6c0,0.1,0,0.1-0.1,0.1h-0.6c-0.1,0-0.1,0-0.1-0.1v-1.6
				C17.5,68.5,17.5,68.5,17.6,68.5z"/>
		</g>
	</g>
	<g>
		<g>
			<path class="st0" d="M75.3,81.7c0,1.2,0.9,2.1,2.1,2.1s2.1-0.9,2.1-2.1v-1.6h-4.2V81.7z"/>
		</g>
		<g>
			<path class="st0" d="M82.8,83.8c1.1,0,2.1-0.9,2.1-2v-0.1l0,0v-1.6h-4.2v1.6C80.7,82.8,81.6,83.8,82.8,83.8L82.8,83.8z"/>
		</g>
		<g>
			<path class="st0" d="M71,55.1v8.7c0,0.8,0.7,1.5,1.5,1.5s1.5-0.7,1.5-1.5l0,0v-9c0-0.3,0.1-0.8,0.7-0.8h1.5v-5.7h-0.6
				c-2.6,0.2-4.6,2.4-4.6,5V55.1z"/>
		</g>
		<g>
			<polygon class="st0" points="82.3,48.2 80,48.2 77.8,48.3 77.9,51.5 82.4,51.5 			"/>
		</g>
		<g>
			<path class="st0" d="M80.1,65.3L80.1,65.3c0.3,0,0.6,0.2,0.6,0.5v13.3h4.2l-0.1-24.2H83v-2.4h-5.8v2.4h-2l0.1,24.3h4.2V65.9
				C79.5,65.6,79.7,65.4,80.1,65.3L80.1,65.3z"/>
		</g>
		<g>
			<path class="st0" d="M84,51.9V54h1.4c0.6,0,0.7,0.5,0.7,0.8v9c0.1,0.8,0.8,1.4,1.6,1.3c0.7,0,1.3-0.6,1.3-1.3V53.3
				c0-2.6-2-4.8-4.6-5h-0.5L84,51.9L84,51.9z"/>
		</g>
		<g>
			<path class="st0" d="M83.6,51.9c0-0.2-0.2-0.4-0.4-0.4s-0.4,0.2-0.4,0.4l0,0l0,0c0,0.2,0.2,0.4,0.4,0.4S83.6,52.1,83.6,51.9z"/>
		</g>
		<g>
			<path class="st0" d="M77.5,51.9c0-0.2-0.2-0.4-0.4-0.4s-0.4,0.2-0.4,0.4l0,0l0,0c0,0.2,0.2,0.4,0.4,0.4l0,0
				C77.4,52.2,77.5,52.1,77.5,51.9z"/>
		</g>
		<g>
			<path class="st0" d="M79.9,46.3c2.2,0,4-1.8,4-4v-0.1c0-2.2-1.8-4-4-4h-0.1c-2.2,0-4,1.8-4,4v0.1l0,0
				C75.8,44.5,77.6,46.3,79.9,46.3L79.9,46.3z"/>
		</g>
	</g>
	<g>
		<g>
			<path class="st0" d="M88.9,91.5H12.4c-0.3,0-0.5,0.2-0.6,0.5v3.6c0,0.3,0.3,0.6,0.6,0.6H89c0.3,0,0.6-0.2,0.6-0.6l0,0V92
				C89.5,91.7,89.3,91.5,88.9,91.5z"/>
		</g>
		<g>
			<path class="st0" d="M50.2,98l-5.3,9.2c-0.2,0.3,0,0.7,0.3,0.8c0.1,0,0.1,0.1,0.2,0.1h10.7c0.3,0,0.6-0.2,0.6-0.5
				c0-0.1,0-0.3-0.1-0.4L51.3,98c-0.2-0.3-0.6-0.4-0.9-0.2C50.4,97.8,50.3,97.9,50.2,98z"/>
		</g>
	</g>
</g>
</svg>
