<?xml version="1.0" encoding="utf-8"?>
<!-- Generator: Adobe Illustrator 22.0.1, SVG Export Plug-In . SVG Version: 6.00 Build 0)  -->
<svg version="1.1" id="Layer_1" xmlns="http://www.w3.org/2000/svg" xmlns:xlink="http://www.w3.org/1999/xlink" x="0px" y="0px"
	 viewBox="0 0 101.5 166.2" style="enable-background:new 0 0 101.5 166.2;" xml:space="preserve">
<style type="text/css">
	.st0{fill:#FFFFFF;}
	.st1{fill:#A21942;}
	.st2{enable-background:new    ;}
</style>
<title>Artboard 23 copy 3</title>
<g id="WHITE_BG">
	<g>
		<rect y="0" class="st0" width="101.5" height="166.2"/>
	</g>
</g>
<g id="TARGETS">
	<g>
		<g>
			<path class="st1" d="M7.8,132.2h-1v-6.4h2.1c1.6,0,2.2,1,2.2,2c0,1-0.6,2-2.2,2H7.8V132.2z M7.8,128.9H9c0.6,0,1.1-0.5,1.1-1.1
				c0-0.6-0.5-1.1-1.1-1.1c0,0,0,0,0,0H7.8V128.9z"/>
		</g>
		<g>
			<path class="st1" d="M12.7,132.2h-1v-6.4h2.1c1.6,0,2.2,0.7,2.2,1.9c0.1,0.7-0.3,1.4-1,1.7l1.3,2.8h-1.1l-1.2-2.6h-1.3V132.2z
				 M12.7,128.7h1.2c0.9,0,1-0.5,1-1s-0.1-1-1-1h-1.2V128.7z"/>
		</g>
		<g>
			<path class="st1" d="M16.7,129c0-1.8,0.4-3.3,2.5-3.3s2.5,1.5,2.5,3.3s-0.4,3.3-2.5,3.3S16.7,130.8,16.7,129z M17.7,129
				c0,1.5,0.3,2.4,1.5,2.4s1.5-0.9,1.5-2.4s-0.3-2.4-1.5-2.4S17.7,127.5,17.7,129L17.7,129z"/>
		</g>
		<g>
			<path class="st1" d="M24.4,126.7v5.5h-1v-5.5h-1.6v-0.9H26v0.9L24.4,126.7z"/>
		</g>
		<g>
			<path class="st1" d="M30.3,129.3h-2.6v2h2.9v0.9h-3.9v-6.4h3.9v0.9h-2.9v1.8h2.6V129.3z"/>
		</g>
		<g>
			<path class="st1" d="M33.9,125.7c0.5,0,1,0.1,1.5,0.3v0.9c-0.5-0.2-0.9-0.3-1.4-0.3c-1.2,0-1.7,0.8-1.7,2.4
				c0,1.6,0.5,2.4,1.7,2.4c0.5,0,1-0.1,1.4-0.3v0.9c-0.5,0.2-1,0.3-1.5,0.3c-1.9,0-2.6-1.2-2.6-3.3S32,125.7,33.9,125.7z"/>
		</g>
		<g>
			<path class="st1" d="M38.3,126.7v5.5h-1v-5.5h-1.6v-0.9H40v0.9L38.3,126.7z"/>
		</g>
		<g>
			<path class="st1" d="M42.7,131.3h2.8v0.9h-3.7v-6.4h1L42.7,131.3z"/>
		</g>
		<g>
			<path class="st1" d="M49.2,130.6h-2l-0.5,1.6h-1l2-6.4h1l2,6.4h-1L49.2,130.6z M48.2,127l-0.8,2.8H49L48.2,127z"/>
		</g>
		<g>
			<path class="st1" d="M51.2,125.8h2.1c1.6,0,2,0.8,2,1.8c0,0.5-0.3,1-0.8,1.3c0.6,0.2,1.1,0.8,1,1.5c0,1-0.5,1.9-2.2,1.9h-2.2
				V125.8z M53.4,126.7h-1.2v1.8h1.2c0.8,0,0.9-0.5,0.9-0.9S54.2,126.7,53.4,126.7z M52.2,131.3h1.3c0.9,0,1.1-0.5,1.1-1
				s-0.3-1-1.1-1h-1.3L52.2,131.3z"/>
		</g>
		<g>
			<path class="st1" d="M56.2,129c0-1.8,0.4-3.3,2.5-3.3s2.5,1.5,2.5,3.3s-0.4,3.3-2.5,3.3S56.2,130.8,56.2,129z M57.2,129
				c0,1.5,0.3,2.4,1.5,2.4s1.5-0.9,1.5-2.4s-0.3-2.4-1.5-2.4S57.2,127.5,57.2,129L57.2,129z"/>
		</g>
		<g>
			<path class="st1" d="M61.9,130.2v-4.4h1v4.3c0,0.8,0.6,1.4,1.4,1.4c0.7,0,1.4-0.6,1.4-1.4v-4.3h0.9v4.4c-0.1,1.3-1.2,2.2-2.5,2.2
				C63,132.3,62.1,131.4,61.9,130.2L61.9,130.2z"/>
		</g>
		<g>
			<path class="st1" d="M68.4,132.2h-1v-6.4h2.1c1.7,0,2.2,0.7,2.2,1.9c0.1,0.7-0.3,1.4-1,1.7l1.3,2.8h-1.1l-1.2-2.6h-1.3V132.2z
				 M68.4,128.7h1.3c0.9,0,1-0.5,1-1s-0.1-1-1-1h-1.3V128.7z"/>
		</g>
		<g>
			<path class="st1" d="M7.8,141.2h-1v-6.4H9c1.6,0,2.2,0.7,2.2,1.9c0.1,0.7-0.3,1.4-1,1.7l1.3,2.8h-1.2l-1.1-2.6H7.8V141.2z
				 M7.8,137.7h1.3c0.9,0,1-0.5,1-1s-0.1-1-1-1H7.8V137.7z"/>
		</g>
		<g>
			<path class="st1" d="M12.2,141.2v-6.4h0.9v6.4H12.2z"/>
		</g>
		<g>
			<path class="st1" d="M14.2,138c0-2,0.7-3.3,2.6-3.3c0.6,0,1.3,0.1,1.8,0.3v1c-0.5-0.2-1.1-0.4-1.7-0.4c-1.3,0-1.8,0.9-1.8,2.4
				s0.5,2.4,1.8,2.4c0.3,0,0.6,0,0.9-0.1v-1.7h-1.1v-0.9h2.1v3.2c-0.6,0.3-1.3,0.4-2,0.4C14.9,141.3,14.2,140,14.2,138z"/>
		</g>
		<g>
			<path class="st1" d="M23.2,141.2v-2.9h-2.6v2.9h-1v-6.4h1v2.6h2.6v-2.6h1v6.4H23.2z"/>
		</g>
		<g>
			<path class="st1" d="M27.5,135.7v5.5h-1v-5.5h-1.6v-0.9h4.3v0.9H27.5z"/>
		</g>
		<g>
			<path class="st1" d="M33.8,139.3c0,1.2-0.7,2-2.4,2c-0.6,0-1.3-0.1-1.9-0.4v-1c0.6,0.3,1.2,0.4,1.8,0.4c1.2,0,1.5-0.5,1.5-1.1
				s-0.3-0.9-1.2-1c-1.5-0.2-2.2-0.6-2.2-1.8c0-0.9,0.5-1.9,2.3-1.9c0.6,0,1.2,0.1,1.7,0.3v1c-0.5-0.2-1.1-0.3-1.7-0.3
				c-1,0-1.3,0.4-1.3,1s0.4,0.8,1.2,0.9C33.1,137.7,33.8,138,33.8,139.3z"/>
		</g>
		<g>
			<path class="st1" d="M39.2,139.6h-2l-0.5,1.6h-1l2-6.4h1l2,6.4h-1L39.2,139.6z M38.2,136l-0.8,2.8H39L38.2,136z"/>
		</g>
		<g>
			<path class="st1" d="M44.9,141.2l-2.8-4.5v4.5h-0.9v-6.4h0.9l2.8,4.5v-4.5h1v6.4H44.9z"/>
		</g>
		<g>
			<path class="st1" d="M46.7,141.2v-6.4h1.9c2.1,0,2.7,1.4,2.7,3.2s-0.6,3.2-2.7,3.2H46.7z M47.7,140.3h1c1.3,0,1.7-0.9,1.7-2.3
				s-0.4-2.3-1.7-2.3h-1V140.3z"/>
		</g>
		<g>
			<path class="st1" d="M54.5,141.2h-1v-6.4h2c1.6,0,2.2,1,2.2,2s-0.6,2-2.2,2h-1.1L54.5,141.2z M54.5,137.9h1.1
				c0.6,0,1.1-0.5,1.1-1.1c0-0.6-0.5-1.1-1.1-1.1h-1.1V137.9z"/>
		</g>
		<g>
			<path class="st1" d="M59.3,141.2h-1v-6.4h2.1c1.7,0,2.2,0.7,2.2,1.9c0.1,0.7-0.3,1.4-1,1.7l1.3,2.8h-1.1l-1.2-2.6h-1.3V141.2z
				 M59.3,137.7h1.2c0.9,0,1-0.5,1-1s-0.1-1-1-1h-1.2V137.7z"/>
		</g>
		<g>
			<path class="st1" d="M63.3,138c0-1.8,0.4-3.3,2.5-3.3s2.4,1.5,2.4,3.3s-0.4,3.3-2.4,3.3S63.3,139.8,63.3,138z M64.3,138
				c0,1.5,0.3,2.4,1.5,2.4s1.5-0.9,1.5-2.4s-0.3-2.4-1.5-2.4S64.3,136.5,64.3,138L64.3,138z"/>
		</g>
		<g>
			<path class="st1" d="M72.4,140.3h-0.9l-1.6-3.9v4.8H69v-6.4h1.2l1.7,4.4l1.7-4.4h1.2v6.4h-1v-4.8L72.4,140.3z"/>
		</g>
		<g>
			<path class="st1" d="M75.6,138c0-1.8,0.4-3.3,2.5-3.3s2.4,1.5,2.4,3.3s-0.4,3.3-2.4,3.3S75.6,139.8,75.6,138z M76.6,138
				c0,1.5,0.3,2.4,1.5,2.4s1.5-0.9,1.5-2.4s-0.3-2.4-1.5-2.4S76.6,136.5,76.6,138L76.6,138z"/>
		</g>
		<g>
			<path class="st1" d="M83.2,135.7v5.5h-1v-5.5h-1.6v-0.9h4.3v0.9H83.2z"/>
		</g>
		<g>
			<path class="st1" d="M89,138.3h-2.6v2h2.9v0.9h-3.9v-6.4h3.9v0.9h-2.9v1.8H89V138.3z"/>
		</g>
		<g>
			<path class="st1" d="M11.1,148.3c0,1.2-0.7,2-2.4,2c-0.6,0-1.3-0.1-1.9-0.3v-1c0.6,0.3,1.2,0.4,1.8,0.4c1.1,0,1.5-0.5,1.5-1.1
				s-0.3-0.9-1.2-1c-1.6-0.2-2.2-0.6-2.2-1.8c0-0.9,0.5-1.9,2.3-1.9c0.6,0,1.2,0.1,1.7,0.3v1c-0.5-0.2-1.1-0.3-1.7-0.3
				c-1,0-1.3,0.4-1.3,1s0.4,0.8,1.2,0.9C10.3,146.7,11.1,147,11.1,148.3z"/>
		</g>
		<g>
			<path class="st1" d="M14.8,148.6h-2l-0.5,1.6h-1l2-6.4h1l2,6.4h-1L14.8,148.6z M13.8,145l-0.8,2.8h1.6L13.8,145z"/>
		</g>
		<g>
			<path class="st1" d="M20.3,147.4h-2.6v2.8h-1v-6.4h3.8v0.9h-2.9v1.8h2.6V147.4z"/>
		</g>
		<g>
			<path class="st1" d="M24.9,147.3h-2.6v2h2.9v0.9h-3.9v-6.4h3.9v0.9h-2.9v1.8h2.6V147.3z"/>
		</g>
		<g>
			<path class="st1" d="M29.9,143.8h1.2l1.1,5l0.8-5h1l-1.2,6.5h-1.2l-1.1-5.3l-1.2,5.3h-1.2l-1.2-6.5h1l0.8,5L29.9,143.8z"/>
		</g>
		<g>
			<path class="st1" d="M34.4,147c0-1.8,0.4-3.3,2.5-3.3s2.5,1.5,2.5,3.3s-0.4,3.3-2.5,3.3S34.4,148.8,34.4,147z M35.4,147
				c0,1.5,0.3,2.4,1.5,2.4s1.5-0.9,1.5-2.4s-0.3-2.4-1.5-2.4S35.3,145.5,35.4,147L35.4,147z"/>
		</g>
		<g>
			<path class="st1" d="M41,150.2h-1v-6.4h2.1c1.7,0,2.2,0.7,2.2,1.9c0.1,0.7-0.3,1.4-1,1.7l1.3,2.8h-1.1l-1.2-2.6H41V150.2z
				 M41,146.7h1.3c0.9,0,1-0.5,1-1s-0.1-1-1-1H41V146.7z"/>
		</g>
		<g>
			<path class="st1" d="M46.7,147.4l-0.5,0.6v2.2h-1v-6.4h1v3l2.3-3h1.2l-2.3,2.8l2.6,3.6h-1.2L46.7,147.4z"/>
		</g>
		<g>
			<path class="st1" d="M50.6,150.2v-6.4h1v6.4H50.6z"/>
		</g>
		<g>
			<path class="st1" d="M56.3,150.2l-2.8-4.5v4.5h-0.9v-6.4h0.9l2.8,4.5v-4.5h1v6.4H56.3z"/>
		</g>
		<g>
			<path class="st1" d="M57.9,147c0-2,0.7-3.3,2.6-3.3c0.6,0,1.3,0.1,1.8,0.3v1c-0.5-0.2-1.1-0.4-1.7-0.4c-1.3,0-1.8,0.9-1.8,2.4
				s0.5,2.4,1.8,2.4c0.3,0,0.6,0,0.9-0.1v-1.7h-1.1v-0.9h2.1v3.2c-0.6,0.3-1.3,0.4-2,0.4C58.6,150.3,57.9,149,57.9,147z"/>
		</g>
		<g>
			<path class="st1" d="M10.5,156.3H7.8v2h2.9v0.9H6.9v-6.4h3.9v0.9H7.8v1.8h2.6V156.3z"/>
		</g>
		<g>
			<path class="st1" d="M15.3,159.2l-2.8-4.5v4.5h-0.9v-6.4h0.9l2.8,4.5v-4.5h0.9v6.4H15.3z"/>
		</g>
		<g>
			<path class="st1" d="M21.7,152.8l-2,6.5h-1l-2-6.5h1l1.5,5.2l1.5-5.2L21.7,152.8z"/>
		</g>
		<g>
			<path class="st1" d="M22.4,159.2v-6.4h1v6.4H22.4z"/>
		</g>
		<g>
			<path class="st1" d="M25.3,159.2h-1v-6.4h2.1c1.6,0,2.2,0.8,2.2,1.9c0.1,0.7-0.3,1.4-1,1.7l1.3,2.8h-1.2l-1.1-2.6h-1.3V159.2z
				 M25.3,155.7h1.3c0.9,0,1-0.5,1-1s-0.1-1-1-1h-1.3V155.7z"/>
		</g>
		<g>
			<path class="st1" d="M29.3,156c0-1.8,0.4-3.3,2.5-3.3s2.5,1.5,2.5,3.3s-0.4,3.3-2.5,3.3S29.3,157.8,29.3,156z M30.3,156
				c0,1.5,0.3,2.4,1.5,2.4c1.2,0,1.5-0.9,1.5-2.4s-0.3-2.4-1.5-2.4S30.3,154.5,30.3,156L30.3,156z"/>
		</g>
		<g>
			<path class="st1" d="M38.8,159.2l-2.8-4.5v4.5h-0.9v-6.4H36l2.8,4.5v-4.5h1v6.4L38.8,159.2z"/>
		</g>
		<g>
			<path class="st1" d="M44,158.3h-0.9l-1.6-3.9v4.8h-1v-6.4h1.2l1.7,4.4l1.7-4.4h1.2v6.4h-1v-4.8L44,158.3z"/>
		</g>
		<g>
			<path class="st1" d="M51.1,156.3h-2.7v2h2.9v0.9h-3.9v-6.4h3.9v0.9h-2.9v1.8h2.7V156.3z"/>
		</g>
		<g>
			<path class="st1" d="M55.9,159.2l-2.8-4.5v4.5h-1v-6.4H53l2.8,4.5v-4.5h0.9v6.4H55.9z"/>
		</g>
		<g>
			<path class="st1" d="M59.9,153.7v5.5h-1v-5.5h-1.6v-0.9h4.3v0.9H59.9z"/>
		</g>
		<g>
			<path class="st1" d="M66.2,157.3c0,1.2-0.7,2-2.4,2c-0.6,0-1.3-0.1-1.9-0.4v-1c0.6,0.3,1.2,0.4,1.8,0.4c1.2,0,1.5-0.5,1.5-1.1
				s-0.3-0.9-1.2-1c-1.5-0.2-2.2-0.6-2.2-1.8c0-0.9,0.5-1.9,2.3-1.9c0.6,0,1.2,0.1,1.7,0.3v1c-0.5-0.2-1.1-0.3-1.7-0.3
				c-1,0-1.3,0.4-1.3,1s0.4,0.8,1.2,0.9C65.5,155.7,66.2,156,66.2,157.3z"/>
		</g>
	</g>
	<g>
		<rect x="3.3" y="24" class="st1" width="94.8" height="94.8"/>
	</g>
	<g>
		<path class="st1" d="M98.2,20.7H3.3V3.3h94.8V20.7z M4.3,19.7h92.8V4.3H4.3L4.3,19.7z"/>
	</g>
	<g class="st2">
		<path class="st1" d="M6.7,6.9h4.5v1.4H9.9v8.8H8.1V8.3H6.7V6.9z"/>
	</g>
	<g class="st2">
		<path class="st1" d="M11.2,17.1l1.9-10.2h1.9L17,17.1h-1.8l-0.3-1.9h-1.8l-0.3,1.9H11.2z M13.3,13.9h1.4L14,9.8h0L13.3,13.9z"/>
	</g>
	<g class="st2">
		<path class="st1" d="M19.6,12.4v4.7h-1.7V6.9h2.5c1.7,0,2.4,0.9,2.4,2.3v1.3c0,1.1-0.4,1.7-1.4,2l1.6,4.6h-1.8L19.6,12.4z
			 M19.6,8.3v3.2h0.6c0.6,0,0.8-0.3,0.8-0.8V9.2c0-0.6-0.3-0.8-0.8-0.8H19.6z"/>
	</g>
	<g class="st2">
		<path class="st1" d="M26.4,11.7h2.4v5.4h-1.2V16c-0.2,0.8-0.7,1.2-1.6,1.2c-1.5,0-2.1-1.2-2.1-2.7V9.6c0-1.6,0.8-2.7,2.6-2.7
			c1.9,0,2.4,1.1,2.4,2.6v0.9h-1.6v-1c0-0.6-0.2-1-0.9-1c-0.6,0-0.9,0.4-0.9,1v5.5c0,0.6,0.3,1,0.8,1c0.6,0,0.8-0.3,0.8-1V13h-0.8
			V11.7z"/>
	</g>
	<g class="st2">
		<path class="st1" d="M30.2,6.9h4.1v1.4h-2.4v2.9h1.7v1.4h-1.7v3.1h2.4v1.4h-4.1V6.9z"/>
	</g>
	<g class="st2">
		<path class="st1" d="M35.1,6.9h4.5v1.4h-1.4v8.8h-1.7V8.3h-1.4V6.9z"/>
	</g>
	<g class="st2">
		<path class="st1" d="M78.5,14.6v-1.1c0-1,0.3-1.7,1.1-2c-0.7-0.3-1-0.9-1-1.8V9.3c0-1.6,0.8-2.4,2.4-2.4c1.6,0,2.4,0.9,2.4,2.4
			v0.4c0,0.8-0.3,1.4-1,1.8c0.8,0.4,1.1,1.1,1.1,2v1.1c0,1.5-0.7,2.6-2.5,2.6C79.3,17.2,78.5,16.2,78.5,14.6z M81.9,14.8v-1.6
			c0-0.6-0.2-1-0.8-1c-0.6,0-0.8,0.4-0.8,1v1.6c0,0.6,0.2,1,0.8,1C81.7,15.8,81.9,15.4,81.9,14.8z M81.8,9.9V9.2c0-0.6-0.2-1-0.8-1
			c-0.6,0-0.8,0.4-0.8,1v0.7c0,0.6,0.2,1,0.8,1C81.6,10.8,81.8,10.5,81.8,9.9z"/>
	</g>
	<g class="st2">
	</g>
	<g class="st2">
		<path class="st1" d="M86.5,10.8c0.7,0,1.2,0.6,1.2,1.2c0,0.7-0.6,1.2-1.2,1.2c-0.7,0-1.2-0.6-1.2-1.2
			C85.2,11.4,85.8,10.8,86.5,10.8z"/>
	</g>
	<g class="st2">
		<path class="st1" d="M89.2,14.6v-1.1c0-1,0.3-1.7,1.1-2c-0.7-0.3-1-0.9-1-1.8V9.3c0-1.6,0.8-2.4,2.4-2.4c1.6,0,2.4,0.9,2.4,2.4
			v0.4c0,0.8-0.3,1.4-1,1.8c0.8,0.4,1.1,1.1,1.1,2v1.1c0,1.5-0.7,2.6-2.5,2.6C90,17.2,89.2,16.2,89.2,14.6z M92.6,14.8v-1.6
			c0-0.6-0.2-1-0.8-1c-0.6,0-0.8,0.4-0.8,1v1.6c0,0.6,0.2,1,0.8,1C92.4,15.8,92.6,15.4,92.6,14.8z M92.6,9.9V9.2c0-0.6-0.2-1-0.8-1
			c-0.6,0-0.8,0.4-0.8,1v0.7c0,0.6,0.2,1,0.8,1C92.4,10.8,92.6,10.5,92.6,9.9z"/>
	</g>
	<g>
		<path class="st1" d="M98.2,162.9h-95v-40.7h95V162.9z M4.2,161.9h93v-38.7h-93V161.9z"/>
	</g>
	<g>
		<g>
			<g>
				<path class="st0" d="M86.5,73.6L82,58.7c0,0-1.6-4.3-5.3-4.3H65c-3.6,0-5.3,4.3-5.3,4.3l-4.6,14.9c0,0-0.8,2.7,1.5,3.4s3-2,3-2
					l3.7-12.5c0,0,0.2-1,0.9-0.8s0.4,1.2,0.4,1.2l-6.4,23.4h6v16.7c0.1,1.6,1.5,2.8,3,2.7c1.5-0.1,2.6-1.2,2.7-2.7V86.4h1.6v16.7
					c0.1,1.6,1.5,2.8,3,2.7c1.5-0.1,2.6-1.2,2.7-2.7V86.4h6L77,63.1c0,0-0.3-1,0.4-1.2s0.9,0.8,0.9,0.8L82,75c0,0,0.7,2.7,3,2
					S86.5,73.6,86.5,73.6z"/>
			</g>
			<g>
				<path class="st0" d="M65.3,46.2c0,3,2.5,5.5,5.5,5.5c0,0,0,0,0,0H71c3.1,0,5.6-2.5,5.6-5.5c0,0,0,0,0,0c0-0.4,0-0.8-0.1-1.2
					H65.5C65.4,45.3,65.3,45.8,65.3,46.2z"/>
			</g>
			<g>
				<path class="st0" d="M77.2,41.8h-0.6c-0.4-1.6-1.5-2.9-3-3.6l-0.8,2.6v-3.9h-3v3.8L68.8,38c-1.7,0.7-2.9,2.1-3.4,3.8h-0.6v2.1
					h12.4V41.8z"/>
			</g>
		</g>
		<g>
			<g>
				<polygon class="st0" points="16.8,90.2 16.7,55.4 14.8,55.4 14.8,92.4 41.4,92.4 41.4,90.2 				"/>
			</g>
			<g>
				<path class="st0" d="M45.3,50.9H18.8v4.5v32.5h26.6L45.3,50.9z M30.1,61.6L30.1,61.6c-0.7-0.6-1-1.5-1-2.4V59c0-1.6,1-2.7,3-2.7
					c1.5-0.2,2.8,0.9,3,2.4c0,0.2,0,0.4,0,0.6v0.6h-2v-0.7c0.1-0.6-0.3-1.1-0.9-1.2c-0.1,0-0.1,0-0.2,0c-0.7,0-1.1,0.3-1.1,0.9v0.2
					c0,0.5,0.2,0.7,0.8,1.1l2.3,1.4c1,0.4,1.7,1.4,1.7,2.5c0,1-0.7,1.9-1.7,2.2v0.1c0.7,0.5,1.1,1.4,1.1,2.3v0.4
					c0,1.7-0.9,2.8-3,2.8c-1.5,0.1-2.9-1-3-2.5c0-0.2,0-0.4,0-0.5V68h2v0.9c0,0.6,0.4,1,0.9,1.1c0,0,0.1,0,0.1,0
					c0.7,0,1.1-0.3,1.1-1v-0.2c0-0.5-0.2-0.8-1-1.2L30,66.3c-1-0.5-1.6-1.5-1.7-2.6C28.4,62.7,29.1,61.8,30.1,61.6z M22.8,75.1
					c0-0.1,0.1-0.1,0.2-0.1h18.2c0.1,0,0.2,0,0.2,0.1V78c0,0.1-0.1,0.1-0.2,0.1H22.9c-0.1,0-0.2,0-0.2-0.1L22.8,75.1z M41.2,83.3H23
					c-0.1,0-0.2,0-0.2-0.1v-2.9c0-0.1,0.1-0.1,0.2-0.1h18.2c0.1,0,0.2,0.1,0.2,0.1v2.9C41.3,83.2,41.3,83.3,41.2,83.3z"/>
			</g>
			<g>
				<path class="st0" d="M31.2,64.6l1.7,1c0.5-0.1,0.8-0.6,0.9-1.1c0-0.7-0.2-0.9-1-1.3l-1.8-1.1c-0.5,0.2-0.8,0.6-0.8,1.1
					C30.3,63.9,30.5,64.2,31.2,64.6z"/>
			</g>
		</g>
	</g>
</g>
</svg>
