<?xml version="1.0" encoding="utf-8"?>
<!-- Generator: Adobe Illustrator 22.0.1, SVG Export Plug-In . SVG Version: 6.00 Build 0)  -->
<svg version="1.1" id="Layer_1" xmlns="http://www.w3.org/2000/svg" xmlns:xlink="http://www.w3.org/1999/xlink" x="0px" y="0px"
	 viewBox="0 0 101.5 166.2" style="enable-background:new 0 0 101.5 166.2;" xml:space="preserve">
<style type="text/css">
	.st0{fill:#FFFFFF;}
	.st1{fill:#A21942;}
	.st2{enable-background:new    ;}
</style>
<title>TARGET 1.2</title>
<g id="WHITE_BG">
	<g>
		<rect y="0" class="st0" width="101.5" height="166.2"/>
	</g>
</g>
<g id="TARGETS">
	<g>
		<g>
			<path class="st1" d="M6.9,132.2v-6.4h1.9c2.1,0,2.7,1.4,2.7,3.2s-0.6,3.2-2.7,3.2H6.9z M7.9,131.3h1c1.3,0,1.7-0.9,1.7-2.3
				s-0.4-2.3-1.7-2.3h-1L7.9,131.3z"/>
		</g>
		<g>
			<path class="st1" d="M12.3,132.2v-6.4h0.9v6.4H12.3z"/>
		</g>
		<g>
			<path class="st1" d="M19,125.8l-2,6.5h-1l-2-6.5h1l1.5,5.2l1.5-5.2H19z"/>
		</g>
		<g>
			<path class="st1" d="M23.1,129.3h-2.7v2h2.9v0.9h-3.9v-6.4h3.9v0.9h-2.9v1.8h2.6L23.1,129.3z"/>
		</g>
		<g>
			<path class="st1" d="M25.2,132.2h-1v-6.4h2.1c1.6,0,2.2,0.7,2.2,1.9c0.1,0.7-0.3,1.4-1,1.7l1.3,2.8h-1.1l-1.1-2.6h-1.3V132.2z
				 M25.2,128.7h1.3c0.9,0,1-0.5,1-1s-0.1-1-1-1h-1.3V128.7z"/>
		</g>
		<g>
			<path class="st1" d="M33.6,130.3c0,1.2-0.7,2-2.4,2c-0.6,0-1.3-0.1-1.9-0.3v-1c0.6,0.3,1.2,0.4,1.8,0.4c1.2,0,1.5-0.5,1.5-1.1
				s-0.3-0.9-1.2-1c-1.5-0.2-2.1-0.6-2.1-1.8c0-0.9,0.5-1.8,2.3-1.8c0.6,0,1.2,0.1,1.7,0.3v1c-0.5-0.2-1.1-0.3-1.7-0.3
				c-1,0-1.3,0.4-1.3,1s0.4,0.8,1.2,0.9C32.8,128.7,33.6,129,33.6,130.3z"/>
		</g>
		<g>
			<path class="st1" d="M34.5,132.2v-6.4h1v6.4H34.5z"/>
		</g>
		<g>
			<path class="st1" d="M40.1,129.4h-2.6v2.8h-1v-6.4h3.8v0.9h-2.8v1.8h2.6V129.4z"/>
		</g>
		<g>
			<path class="st1" d="M43.8,129.6v2.6h-1v-2.6l-2.2-3.8h1.1l1.6,3l1.6-3H46L43.8,129.6z"/>
		</g>
		<g>
			<path class="st1" d="M46.4,131.3l-0.7,2h-0.7l0.2-2H46.4z"/>
		</g>
		<g>
			<path class="st1" d="M48.7,132.2v-6.4h1v6.4H48.7z"/>
		</g>
		<g>
			<path class="st1" d="M54.5,132.2l-2.8-4.5v4.5h-0.9v-6.4h0.9l2.8,4.5v-4.5h0.9v6.4H54.5z"/>
		</g>
		<g>
			<path class="st1" d="M60,132.2l-2.8-4.5v4.5h-1v-6.4h0.9l2.8,4.5v-4.5h0.9v6.4H60z"/>
		</g>
		<g>
			<path class="st1" d="M61.7,129c0-1.8,0.4-3.3,2.4-3.3s2.5,1.5,2.5,3.3s-0.4,3.3-2.5,3.3S61.7,130.8,61.7,129z M62.7,129
				c0,1.5,0.3,2.4,1.5,2.4s1.5-0.9,1.5-2.4s-0.3-2.4-1.5-2.4S62.7,127.5,62.7,129L62.7,129z"/>
		</g>
		<g>
			<path class="st1" d="M71.9,125.8l-2,6.5h-1l-2-6.5h1l1.5,5.2l1.5-5.2L71.9,125.8z"/>
		</g>
		<g>
			<path class="st1" d="M74.8,130.6h-2l-0.4,1.6h-1l2-6.4h1l2,6.4h-1L74.8,130.6z M73.8,127l-0.8,2.8h1.6L73.8,127z"/>
		</g>
		<g>
			<path class="st1" d="M78.3,126.7v5.5h-0.9v-5.5h-1.7v-0.9H80v0.9L78.3,126.7z"/>
		</g>
		<g>
			<path class="st1" d="M84.2,129.3h-2.7v2h2.9v0.9h-3.9v-6.4h3.9v0.9h-2.9v1.8h2.7V129.3z"/>
		</g>
		<g>
			<path class="st1" d="M10.1,139.6h-2l-0.4,1.6h-1l2-6.4h1l2,6.4h-1L10.1,139.6z M9.1,136l-0.8,2.8h1.6L9.1,136z"/>
		</g>
		<g>
			<path class="st1" d="M15.8,141.2l-2.8-4.5v4.5h-0.9v-6.4H13l2.8,4.5v-4.5h0.9v6.4L15.8,141.2z"/>
		</g>
		<g>
			<path class="st1" d="M17.6,141.2v-6.4h1.9c2.1,0,2.7,1.4,2.7,3.2s-0.6,3.2-2.7,3.2H17.6z M18.6,140.3h1c1.3,0,1.7-0.9,1.7-2.3
				s-0.4-2.3-1.7-2.3h-1V140.3z"/>
		</g>
		<g>
			<path class="st1" d="M24.4,139.2v-4.4h1v4.3c-0.1,0.7,0.4,1.2,1,1.3c0.1,0,0.2,0,0.3,0c0.6,0.1,1.2-0.3,1.4-1c0-0.1,0-0.2,0-0.3
				v-4.3h1v4.4c0,1.1-0.8,2.1-2,2.1c-0.1,0-0.2,0-0.3,0c-1.1,0.2-2.2-0.6-2.3-1.7C24.4,139.5,24.4,139.3,24.4,139.2z"/>
		</g>
		<g>
			<path class="st1" d="M30.9,141.2h-1v-6.4h2c1.6,0,2.2,1,2.2,2s-0.6,2-2.2,2h-1.1V141.2z M30.9,137.9H32c0.6,0,1.1-0.5,1.1-1.1
				c0-0.6-0.5-1.1-1.1-1.1h-1.1V137.9z"/>
		</g>
		<g>
			<path class="st1" d="M34.7,138c0-2,0.7-3.3,2.6-3.3c0.6,0,1.3,0.1,1.8,0.3v1c-0.5-0.2-1.1-0.4-1.7-0.4c-1.3,0-1.8,0.9-1.8,2.4
				s0.5,2.4,1.8,2.4c0.3,0,0.6,0,0.9-0.1v-1.7h-1.1v-0.9h2.1v3.2c-0.6,0.3-1.3,0.4-2,0.4C35.4,141.3,34.7,140,34.7,138z"/>
		</g>
		<g>
			<path class="st1" d="M41.2,141.2h-1v-6.4h2.1c1.7,0,2.2,0.7,2.2,1.9c0.1,0.7-0.3,1.4-1,1.7l1.3,2.8h-1.2l-1.2-2.6h-1.3V141.2z
				 M41.2,137.7h1.3c0.9,0,1-0.5,1-1s-0.1-1-1-1h-1.3V137.7z"/>
		</g>
		<g>
			<path class="st1" d="M48.5,139.6h-2l-0.5,1.6h-1l2-6.4h1l2,6.4h-1L48.5,139.6z M47.5,136l-0.8,2.8h1.6L47.5,136z"/>
		</g>
		<g>
			<path class="st1" d="M50.5,141.2v-6.4h1.9c2.1,0,2.7,1.4,2.7,3.2s-0.6,3.2-2.7,3.2H50.5z M51.5,140.3h1c1.3,0,1.7-0.9,1.7-2.3
				s-0.4-2.3-1.7-2.3h-1V140.3z"/>
		</g>
		<g>
			<path class="st1" d="M59.5,138.3h-2.6v2h2.9v0.9h-3.9v-6.4h3.9v0.9h-2.9v1.8h2.7L59.5,138.3z"/>
		</g>
		<g>
			<path class="st1" d="M65.6,138.4H63v2.8h-1v-6.4h3.8v0.9H63v1.8h2.6L65.6,138.4z"/>
		</g>
		<g>
			<path class="st1" d="M66.3,138c0-1.8,0.4-3.3,2.4-3.3s2.5,1.5,2.5,3.3s-0.4,3.3-2.5,3.3S66.3,139.8,66.3,138z M67.3,138
				c0,1.5,0.3,2.4,1.5,2.4s1.5-0.9,1.5-2.4s-0.3-2.4-1.5-2.4S67.3,136.5,67.3,138L67.3,138z"/>
		</g>
		<g>
			<path class="st1" d="M73,141.2h-1v-6.4h2.1c1.7,0,2.2,0.7,2.2,1.9c0.1,0.7-0.3,1.4-1,1.7l1.3,2.8h-1.2l-1.2-2.6H73V141.2z
				 M73,137.7h1.3c0.9,0,1-0.5,1-1s-0.1-1-1-1H73V137.7z"/>
		</g>
		<g>
			<path class="st1" d="M10.5,147.3H7.8v2h2.9v0.9H6.9v-6.4h3.9v0.9H7.8v1.8h2.6V147.3z"/>
		</g>
		<g>
			<path class="st1" d="M14,143.7c0.5,0,1,0.1,1.5,0.3v0.9c-0.5-0.2-0.9-0.3-1.4-0.3c-1.2,0-1.7,0.8-1.7,2.4s0.5,2.4,1.7,2.4
				c0.5,0,1-0.1,1.4-0.3v0.9c-0.5,0.2-1,0.3-1.5,0.3c-1.9,0-2.6-1.2-2.6-3.3S12.1,143.7,14,143.7z"/>
		</g>
		<g>
			<path class="st1" d="M16.4,147c0-1.8,0.4-3.3,2.5-3.3s2.5,1.5,2.5,3.3s-0.4,3.3-2.5,3.3S16.4,148.8,16.4,147z M17.4,147
				c0,1.5,0.3,2.4,1.5,2.4s1.5-0.9,1.5-2.4s-0.3-2.4-1.5-2.4S17.3,145.5,17.4,147L17.4,147z"/>
		</g>
		<g>
			<path class="st1" d="M25.7,150.2l-2.8-4.5v4.5H22v-6.4h0.9l2.8,4.5v-4.5h1v6.4H25.7z"/>
		</g>
		<g>
			<path class="st1" d="M27.4,147c0-1.8,0.4-3.3,2.5-3.3s2.5,1.5,2.5,3.3s-0.4,3.3-2.5,3.3S27.4,148.8,27.4,147z M28.4,147
				c0,1.5,0.3,2.4,1.5,2.4s1.5-0.9,1.5-2.4s-0.3-2.4-1.5-2.4S28.4,145.5,28.4,147L28.4,147z"/>
		</g>
		<g>
			<path class="st1" d="M36.5,149.3h-0.9l-1.6-3.9v4.8h-1v-6.4h1.2l1.7,4.4l1.7-4.4H39v6.4h-1v-4.8L36.5,149.3z"/>
		</g>
		<g>
			<path class="st1" d="M40.1,150.2v-6.4h1v6.4H40.1z"/>
		</g>
		<g>
			<path class="st1" d="M44.7,143.7c0.5,0,1,0.1,1.5,0.3v0.9c-0.5-0.2-0.9-0.3-1.4-0.3c-1.2,0-1.7,0.8-1.7,2.4s0.5,2.4,1.7,2.4
				c0.5,0,1-0.1,1.4-0.3v0.9c-0.5,0.2-1,0.3-1.5,0.3c-1.9,0-2.6-1.2-2.6-3.3S42.8,143.7,44.7,143.7z"/>
		</g>
		<g>
			<path class="st1" d="M7.8,159.2h-1v-6.4h2.1c1.6,0,2.2,1,2.2,2s-0.6,2-2.2,2H7.8V159.2z M7.8,156H9c0.6,0.1,1.2-0.4,1.2-1
				c0.1-0.6-0.4-1.2-1-1.2c-0.1,0-0.1,0-0.2,0H7.8V156z"/>
		</g>
		<g>
			<path class="st1" d="M12.7,159.2h-1v-6.4h2.1c1.6,0,2.2,0.8,2.2,1.9c0.1,0.7-0.3,1.4-1,1.7l1.3,2.8h-1.1l-1.2-2.6h-1.3V159.2z
				 M12.7,155.7H14c0.9,0,1-0.5,1-1s-0.1-1-1-1h-1.3V155.7z"/>
		</g>
		<g>
			<path class="st1" d="M16.8,156c0-1.8,0.4-3.3,2.5-3.3s2.5,1.5,2.5,3.3s-0.4,3.3-2.5,3.3S16.8,157.8,16.8,156z M17.8,156
				c0,1.5,0.3,2.4,1.5,2.4s1.5-0.9,1.5-2.4s-0.3-2.4-1.5-2.4S17.7,154.5,17.8,156L17.8,156z"/>
		</g>
		<g>
			<path class="st1" d="M22.4,159.2v-6.4h1.9c2.1,0,2.7,1.4,2.7,3.2s-0.6,3.2-2.7,3.2H22.4z M23.4,158.3h1c1.3,0,1.7-0.9,1.7-2.3
				s-0.4-2.3-1.7-2.3h-1V158.3z"/>
		</g>
		<g>
			<path class="st1" d="M27.8,157.2v-4.4h1v4.3c-0.1,0.7,0.4,1.2,1,1.3c0.1,0,0.2,0,0.3,0c0.6,0.1,1.3-0.3,1.4-1c0-0.1,0-0.2,0-0.3
				v-4.3h0.9v4.4c0.1,1.1-0.8,2.1-1.9,2.1c-0.2,0-0.3,0-0.4,0c-1.1,0.2-2.1-0.5-2.3-1.6C27.8,157.5,27.8,157.4,27.8,157.2z"/>
		</g>
		<g>
			<path class="st1" d="M35.9,152.7c0.5,0,1,0.1,1.5,0.3v0.9c-0.5-0.2-0.9-0.3-1.4-0.3c-1.2,0-1.7,0.8-1.7,2.4s0.5,2.4,1.7,2.4
				c0.5,0,1-0.1,1.4-0.3v0.9c-0.5,0.2-1,0.3-1.5,0.3c-1.9,0-2.6-1.2-2.6-3.3S34,152.7,35.9,152.7z"/>
		</g>
		<g>
			<path class="st1" d="M40.6,153.7v5.5h-1v-5.5H38v-0.9h4.3v0.9H40.6z"/>
		</g>
		<g>
			<path class="st1" d="M43,159.2v-6.4h1v6.4H43z"/>
		</g>
		<g>
			<path class="st1" d="M49.8,152.8l-2,6.5h-1l-2-6.5h1l1.5,5.2l1.5-5.2L49.8,152.8z"/>
		</g>
		<g>
			<path class="st1" d="M50.4,159.2v-6.4h1v6.4H50.4z"/>
		</g>
		<g>
			<path class="st1" d="M54.8,153.7v5.5h-1v-5.5h-1.6v-0.9h4.3v0.9H54.8z"/>
		</g>
		<g>
			<path class="st1" d="M59.8,156.6v2.6h-1v-2.6l-2.2-3.8h1.1l1.6,3l1.6-3H62L59.8,156.6z"/>
		</g>
	</g>
	<g>
		<rect x="3.3" y="24" class="st1" width="94.8" height="94.8"/>
	</g>
	<g>
		<path class="st1" d="M98.2,20.7H3.3V3.3h94.8V20.7z M4.3,19.7h92.8V4.3H4.3L4.3,19.7z"/>
	</g>
	<g class="st2">
		<path class="st1" d="M6.7,6.9h4.5v1.4H9.9v8.8H8.1V8.3H6.7V6.9z"/>
	</g>
	<g class="st2">
		<path class="st1" d="M11.2,17.1l1.9-10.2h1.9L17,17.1h-1.8l-0.3-1.9h-1.8l-0.3,1.9H11.2z M13.3,13.9h1.4L14,9.8h0L13.3,13.9z"/>
	</g>
	<g class="st2">
		<path class="st1" d="M19.6,12.4v4.7h-1.7V6.9h2.5c1.7,0,2.4,0.9,2.4,2.3v1.3c0,1.1-0.4,1.7-1.4,2l1.6,4.6h-1.8L19.6,12.4z
			 M19.6,8.3v3.2h0.6c0.6,0,0.8-0.3,0.8-0.8V9.2c0-0.6-0.3-0.8-0.8-0.8H19.6z"/>
	</g>
	<g class="st2">
		<path class="st1" d="M26.4,11.7h2.4v5.4h-1.2V16c-0.2,0.8-0.7,1.2-1.6,1.2c-1.5,0-2.1-1.2-2.1-2.7V9.6c0-1.6,0.8-2.7,2.6-2.7
			c1.9,0,2.4,1.1,2.4,2.6v0.9h-1.6v-1c0-0.6-0.2-1-0.9-1c-0.6,0-0.9,0.4-0.9,1v5.5c0,0.6,0.3,1,0.8,1c0.6,0,0.8-0.3,0.8-1V13h-0.8
			V11.7z"/>
	</g>
	<g class="st2">
		<path class="st1" d="M30.2,6.9h4.1v1.4h-2.4v2.9h1.7v1.4h-1.7v3.1h2.4v1.4h-4.1V6.9z"/>
	</g>
	<g class="st2">
		<path class="st1" d="M35.1,6.9h4.5v1.4h-1.4v8.8h-1.7V8.3h-1.4V6.9z"/>
	</g>
	<g class="st2">
		<path class="st1" d="M79.1,14.6v-1.1c0-1,0.3-1.7,1.1-2c-0.7-0.3-1-0.9-1-1.8V9.3c0-1.6,0.8-2.4,2.4-2.4c1.6,0,2.4,0.9,2.4,2.4
			v0.4c0,0.8-0.3,1.4-1,1.8c0.8,0.4,1.1,1.1,1.1,2v1.1c0,1.5-0.7,2.6-2.5,2.6C79.9,17.2,79.1,16.2,79.1,14.6z M82.5,14.8v-1.6
			c0-0.6-0.2-1-0.8-1c-0.6,0-0.8,0.4-0.8,1v1.6c0,0.6,0.2,1,0.8,1C82.3,15.8,82.5,15.4,82.5,14.8z M82.4,9.9V9.2c0-0.6-0.2-1-0.8-1
			c-0.6,0-0.8,0.4-0.8,1v0.7c0,0.6,0.2,1,0.8,1C82.2,10.8,82.4,10.5,82.4,9.9z"/>
	</g>
	<g class="st2">
	</g>
	<g class="st2">
		<path class="st1" d="M87.1,10.8c0.7,0,1.2,0.6,1.2,1.2c0,0.7-0.6,1.2-1.2,1.2c-0.7,0-1.2-0.6-1.2-1.2
			C85.8,11.4,86.4,10.8,87.1,10.8z"/>
	</g>
	<g class="st2">
		<path class="st1" d="M89.8,15.2c0-1,0.3-1.7,1.3-2.7l1-1c0.6-0.6,0.6-0.9,0.6-1.8V9c0-0.6-0.3-0.8-0.6-0.8c-0.4,0-0.7,0.2-0.7,0.8
			v1.3h-1.6V9c0-1.4,0.8-2.2,2.3-2.2c1.5,0,2.2,0.7,2.2,2.1v1c0,1-0.2,1.6-1.1,2.6l-1.1,1.2c-0.4,0.5-0.7,0.8-0.7,1.6v0.5h2.8v1.4
			h-4.4V15.2z"/>
	</g>
	<g>
		<path class="st1" d="M98.2,162.9h-95v-40.7h95V162.9z M4.2,161.9h93v-38.7h-93V161.9z"/>
	</g>
	<g>
		<g>
			<polygon class="st0" points="85.1,103.3 75.1,103.4 75.1,99.9 73.6,99.9 73.6,103.4 61,103.4 61,99.9 59.5,99.9 59.5,103.4 
				46.8,103.4 46.8,100 45.3,100 45.3,103.4 32.6,103.4 32.6,100 31.1,100 31.1,103.4 18.7,103.4 18.7,91.7 21.8,91.7 21.8,90.2 
				18.7,90.2 18.7,77.5 21.8,77.5 21.8,76 18.7,76 18.6,63.4 21.8,63.3 21.8,61.8 18.6,61.9 18.6,49.2 21.8,49.2 21.8,47.7 
				18.6,47.7 18.6,37.3 16.4,37.3 16.5,105.6 16.8,105.6 16.8,105.6 84.6,105.5 85.1,105.5 			"/>
		</g>
		<g>
			<path class="st0" d="M28.7,87.6l15.8-15.9c2.3,2.1,5.8,2,8.1-0.1l8.5,8.1L52,89l-8.7-8.8L32.7,91l2.5,2.4l8.1-8.2L52,94
				l11.7-11.8l7.1,6.8l2.7-2.9c1.8,1,4.1,0.4,5.2-1.4c1-1.8,0.4-4.1-1.4-5.2s-4.1-0.4-5.2,1.4c-0.3,0.6-0.5,1.2-0.5,1.9
				c0,0.6,0.2,1.3,0.5,1.8l-1.4,1.5l-5.7-5.4l6.8-6.9l0.3,0.4l1.7,1.7l0.1,0.1c0.1,0.1,0.3,0.1,0.4,0c0,0,0.1-0.1,0.1-0.2v-0.1
				l1-7.6V68c0-0.1,0-0.2-0.1-0.2c-0.1-0.1-0.1-0.1-0.2-0.1H75l-7.5,1l0,0c-0.1,0-0.1,0-0.2,0.1c-0.1,0.1-0.1,0.3,0,0.4l0,0l0,0
				l0.1,0.1l1.6,1.7l0.4,0.4l-6.9,7l-8.7-8.3c0.5-0.9,0.7-1.9,0.7-2.9c0-1.5-0.5-2.9-1.5-4l3.3-3.4l2.6,2.5c-0.2,0.5-0.3,1-0.3,1.5
				c0,2.1,1.7,3.8,3.8,3.8c2.1,0,3.8-1.7,3.8-3.8s-1.7-3.8-3.8-3.8c0,0,0,0,0,0c-0.8,0-1.6,0.3-2.3,0.8l-2.5-2.4l14.9-14.9l0.7,0.7
				l1.4,1.4h0.1c0.1,0.1,0.2,0.1,0.3,0c0,0,0,0,0,0c0,0,0.1-0.1,0.1-0.1v-0.1L76,39l0,0c0-0.1,0-0.1-0.1-0.2c0,0-0.1-0.1-0.2-0.1
				h-0.1l-6.3,0.8l0,0c-0.1,0-0.1,0-0.2,0.1c-0.1,0.1-0.1,0.2,0,0.3l0,0l0.1,0.1l1.4,1.4l0.6,0.6L51.5,61.8
				c-1.9-1.1-4.3-1.1-6.2,0.1l-2.5-2.4c0.9-1.5,0.9-3.3,0-4.8l3.3-3.4l0.6,0.6l1.4,1.4v0c0.1,0.1,0.2,0.1,0.3,0c0,0,0.1-0.1,0.1-0.1
				l0,0l0.8-6.4v-0.1c0-0.1,0-0.1-0.1-0.2c0,0-0.1-0.1-0.2-0.1h0l-6.3,0.8h0c-0.1,0-0.1,0-0.2,0.1c-0.1,0.1-0.1,0.2,0,0.3l0,0l0,0
				l0.1,0.1l1.4,1.4l0.7,0.7l-3.2,3.3c-2.1-1.5-5.1-1-6.6,1.1c-1.5,2.1-1,5.1,1.1,6.6c0.8,0.6,1.8,0.9,2.7,0.9c1,0,1.9-0.3,2.7-0.8
				l2.4,2.3c-1.6,2-1.9,4.7-0.6,6.9l-15.9,16L28.7,87.6z M75.5,81.1c1,0,1.8,0.8,1.8,1.8c0,1-0.8,1.8-1.8,1.8c-1,0-1.8-0.8-1.8-1.8
				C73.7,81.9,74.5,81.1,75.5,81.1C75.5,81.1,75.5,81.1,75.5,81.1z M62.6,61.9c1,0,1.8,0.8,1.8,1.8c0,1-0.8,1.8-1.8,1.8
				c-1,0-1.8-0.8-1.8-1.8c0,0,0,0,0,0C60.7,62.8,61.6,61.9,62.6,61.9C62.6,61.9,62.6,61.9,62.6,61.9z M48.5,63
				c2.3,0,4.1,1.8,4.1,4.1c0,2.3-1.8,4.1-4.1,4.1c-2.3,0-4.1-1.8-4.1-4.1c0,0,0,0,0,0C44.4,64.9,46.2,63.1,48.5,63z M38.8,59.8
				c-1.5,0-2.8-1.2-2.8-2.8s1.2-2.8,2.8-2.8c1.5,0,2.7,1.2,2.8,2.7C41.5,58.5,40.3,59.8,38.8,59.8C38.8,59.8,38.8,59.8,38.8,59.8z"
				/>
		</g>
	</g>
</g>
</svg>
