<?xml version="1.0" encoding="utf-8"?>
<!-- Generator: Adobe Illustrator 22.0.1, SVG Export Plug-In . SVG Version: 6.00 Build 0)  -->
<svg version="1.1" id="Layer_1" xmlns="http://www.w3.org/2000/svg" xmlns:xlink="http://www.w3.org/1999/xlink" x="0px" y="0px"
	 viewBox="0 0 101.5 148.2" style="enable-background:new 0 0 101.5 148.2;" xml:space="preserve">
<style type="text/css">
	.st0{fill:#FFFFFF;}
	.st1{fill:#A21942;}
	.st2{enable-background:new    ;}
</style>
<title>TARGET 1 B copy 5</title>
<g id="WHITE_BG">
	<g>
		<rect y="0" class="st0" width="101.5" height="148.2"/>
	</g>
</g>
<g id="TARGETS">
	<g>
		<g>
			<path class="st1" d="M7,132.2v-6.4h1v6.4H7z"/>
		</g>
		<g>
			<path class="st1" d="M12.8,132.2l-2.8-4.5v4.5H9.1v-6.4h0.9l2.8,4.5v-4.5h0.9v6.4H12.8z"/>
		</g>
		<g>
			<path class="st1" d="M17,125.7c0.5,0,1,0.1,1.5,0.3v0.9c-0.5-0.2-0.9-0.3-1.4-0.3c-1.2,0-1.7,0.8-1.7,2.4s0.5,2.4,1.7,2.4
				c0.5,0,1-0.1,1.4-0.3v0.9c-0.5,0.2-1,0.3-1.5,0.3c-1.9,0-2.6-1.2-2.6-3.3S15.1,125.7,17,125.7z"/>
		</g>
		<g>
			<path class="st1" d="M20.3,132.2h-1v-6.4h2.1c1.6,0,2.2,0.7,2.2,1.9c0.1,0.7-0.3,1.4-1,1.7l1.3,2.8h-1.2l-1.1-2.6h-1.3V132.2z
				 M20.3,128.7h1.3c0.9,0,1-0.5,1-1s-0.1-1-1-1h-1.3V128.7z"/>
		</g>
		<g>
			<path class="st1" d="M28.1,129.3h-2.7v2h2.9v0.9h-3.9v-6.4h3.9v0.9h-2.9v1.8h2.7V129.3z"/>
		</g>
		<g>
			<path class="st1" d="M32.3,130.6h-2l-0.5,1.6h-1l2-6.4h1l2,6.4h-1L32.3,130.6z M31.3,127l-0.8,2.8h1.6L31.3,127z"/>
		</g>
		<g>
			<path class="st1" d="M38.4,130.3c0,1.2-0.7,2-2.4,2c-0.6,0-1.3-0.1-1.9-0.4V131c0.6,0.3,1.2,0.4,1.8,0.4c1.2,0,1.5-0.5,1.5-1.1
				s-0.3-0.9-1.2-1c-1.5-0.2-2.2-0.6-2.2-1.8c0-0.9,0.5-1.8,2.3-1.8c0.6,0,1.1,0.1,1.7,0.3v1c-0.5-0.2-1.1-0.3-1.7-0.3
				c-1,0-1.3,0.4-1.3,1c0,0.7,0.4,0.8,1.2,0.9C37.6,128.7,38.4,129,38.4,130.3z"/>
		</g>
		<g>
			<path class="st1" d="M42.6,129.3H40v2h2.9v0.9H39v-6.4h3.9v0.9H40v1.8h2.7L42.6,129.3z"/>
		</g>
		<g>
			<path class="st1" d="M48.3,130.6h-2l-0.5,1.6h-1l2-6.4h1l2,6.4h-1L48.3,130.6z M47.3,127l-0.8,2.8h1.6L47.3,127z"/>
		</g>
		<g>
			<path class="st1" d="M50.4,132.2v-6.4h1v6.4H50.4z"/>
		</g>
		<g>
			<path class="st1" d="M52.4,132.2v-6.4h1.9c2.1,0,2.7,1.4,2.7,3.2s-0.6,3.2-2.7,3.2L52.4,132.2z M53.4,131.3h1
				c1.3,0,1.7-0.9,1.7-2.3s-0.4-2.3-1.7-2.3h-1V131.3z"/>
		</g>
		<g>
			<path class="st1" d="M62.8,129.4h-2.6v2.8h-1v-6.4H63v0.9h-2.8v1.8h2.6V129.4z"/>
		</g>
		<g>
			<path class="st1" d="M63.6,129c0-1.8,0.4-3.3,2.5-3.3s2.4,1.5,2.4,3.3s-0.4,3.3-2.4,3.3S63.6,130.8,63.6,129z M64.6,129
				c0,1.5,0.3,2.4,1.5,2.4s1.5-0.9,1.5-2.4s-0.3-2.4-1.5-2.4S64.5,127.5,64.6,129L64.6,129z"/>
		</g>
		<g>
			<path class="st1" d="M70.2,132.2h-1v-6.4h2.1c1.7,0,2.2,0.7,2.2,1.9c0.1,0.7-0.3,1.4-1,1.7l1.3,2.8h-1.1l-1.2-2.6h-1.3V132.2z
				 M70.2,128.7h1.3c0.9,0,1-0.5,1-1s-0.1-1-1-1h-1.3V128.7z"/>
		</g>
		<g>
			<path class="st1" d="M9.2,135.7v5.5h-1v-5.5H6.6v-0.9h4.3v0.9H9.2z"/>
		</g>
		<g>
			<path class="st1" d="M12.5,141.2h-1v-6.4h2.1c1.6,0,2.2,0.7,2.2,1.9c0.1,0.7-0.3,1.4-1,1.7l1.3,2.8H15l-1.1-2.6h-1.4V141.2z
				 M12.5,137.7h1.3c0.9,0,1-0.5,1-1s-0.1-1-1-1h-1.3V137.7z"/>
		</g>
		<g>
			<path class="st1" d="M19.8,139.6h-2l-0.5,1.6h-1l2-6.4h1l2,6.4h-1L19.8,139.6z M18.8,136l-0.8,2.8h1.6L18.8,136z"/>
		</g>
		<g>
			<path class="st1" d="M21.8,141.2v-6.4h1.9c2.1,0,2.7,1.4,2.7,3.2s-0.6,3.2-2.7,3.2H21.8z M22.8,140.3h1c1.3,0,1.7-0.9,1.7-2.3
				s-0.4-2.3-1.7-2.3h-1V140.3z"/>
		</g>
		<g>
			<path class="st1" d="M30.9,138.3h-2.7v2h2.9v0.9h-3.9v-6.4h3.9v0.9h-2.9v1.8h2.6L30.9,138.3z"/>
		</g>
		<g>
			<path class="st1" d="M37.5,139.3c0,1.2-0.7,2-2.4,2c-0.6,0-1.3-0.1-1.9-0.4V140c0.6,0.3,1.2,0.4,1.8,0.4c1.2,0,1.5-0.5,1.5-1.1
				s-0.3-0.9-1.2-1c-1.5-0.2-2.2-0.6-2.2-1.8c0-0.9,0.5-1.8,2.3-1.8c0.6,0,1.2,0.1,1.7,0.3v1c-0.5-0.2-1.1-0.3-1.7-0.3
				c-1,0-1.3,0.4-1.3,1s0.4,0.8,1.2,0.9C36.7,137.7,37.5,138,37.5,139.3z"/>
		</g>
		<g>
			<path class="st1" d="M38.3,139.2v-4.4h1v4.3c0,0.8,0.6,1.4,1.4,1.4s1.4-0.6,1.4-1.4v-4.3h1v4.4c0.1,1.1-0.8,2.1-1.9,2.1
				c-0.1,0-0.3,0-0.4,0c-1.1,0.2-2.1-0.5-2.3-1.6C38.3,139.5,38.3,139.4,38.3,139.2z"/>
		</g>
		<g>
			<path class="st1" d="M44.8,141.2h-1v-6.4h2c1.6,0,2.2,0.9,2.2,2s-0.6,2-2.2,2h-1V141.2z M44.8,137.9h1.1c0.6,0.1,1.2-0.4,1.2-1
				s-0.4-1.2-1-1.2c-0.1,0-0.1,0-0.2,0h-1.1V137.9z"/>
		</g>
		<g>
			<path class="st1" d="M49.6,141.2h-1v-6.4h2.1c1.6,0,2.2,0.9,2.2,2s-0.6,2-2.2,2h-1.1V141.2z M49.6,137.9h1.1
				c0.6,0.1,1.2-0.4,1.2-1s-0.4-1.2-1-1.2c-0.1,0-0.1,0-0.2,0h-1.1V137.9z"/>
		</g>
		<g>
			<path class="st1" d="M53.4,138c0-1.8,0.4-3.3,2.5-3.3s2.5,1.5,2.5,3.3s-0.4,3.3-2.5,3.3S53.4,139.8,53.4,138z M54.4,138
				c0,1.5,0.3,2.4,1.5,2.4s1.5-0.9,1.5-2.4s-0.3-2.4-1.5-2.4S54.4,136.5,54.4,138L54.4,138z"/>
		</g>
		<g>
			<path class="st1" d="M60,141.2h-1v-6.4h2.1c1.6,0,2.2,0.7,2.2,1.9c0.1,0.7-0.3,1.4-1,1.7l1.3,2.8h-1.1l-1.2-2.6H60V141.2z
				 M60,137.7h1.3c0.9,0,1-0.5,1-1s-0.1-1-1-1H60V137.7z"/>
		</g>
		<g>
			<path class="st1" d="M66.1,135.7v5.5h-1v-5.5h-1.6v-0.9h4.3v0.9H66.1z"/>
		</g>
	</g>
	<g>
		<rect x="3.3" y="24" class="st1" width="94.8" height="94.8"/>
	</g>
	<g>
		<path class="st1" d="M98.2,20.7H3.3V3.3h94.8V20.7z M4.3,19.7h92.8V4.3H4.3L4.3,19.7z"/>
	</g>
	<g class="st2">
		<path class="st1" d="M6.7,6.9h4.5v1.4H9.9v8.8H8.1V8.3H6.7V6.9z"/>
	</g>
	<g class="st2">
		<path class="st1" d="M11.2,17.1l1.9-10.2h1.9L17,17.1h-1.8l-0.3-1.9h-1.8l-0.3,1.9H11.2z M13.3,13.9h1.4L14,9.8h0L13.3,13.9z"/>
	</g>
	<g class="st2">
		<path class="st1" d="M19.6,12.4v4.7h-1.7V6.9h2.5c1.7,0,2.4,0.9,2.4,2.3v1.3c0,1.1-0.4,1.7-1.4,2l1.6,4.6h-1.8L19.6,12.4z
			 M19.6,8.3v3.2h0.6c0.6,0,0.8-0.3,0.8-0.8V9.2c0-0.6-0.3-0.8-0.8-0.8H19.6z"/>
	</g>
	<g class="st2">
		<path class="st1" d="M26.4,11.7h2.4v5.4h-1.2V16c-0.2,0.8-0.7,1.2-1.6,1.2c-1.5,0-2.1-1.2-2.1-2.7V9.6c0-1.6,0.8-2.7,2.6-2.7
			c1.9,0,2.4,1.1,2.4,2.6v0.9h-1.6v-1c0-0.6-0.2-1-0.9-1c-0.6,0-0.9,0.4-0.9,1v5.5c0,0.6,0.3,1,0.8,1c0.6,0,0.8-0.3,0.8-1V13h-0.8
			V11.7z"/>
	</g>
	<g class="st2">
		<path class="st1" d="M30.2,6.9h4.1v1.4h-2.4v2.9h1.7v1.4h-1.7v3.1h2.4v1.4h-4.1V6.9z"/>
	</g>
	<g class="st2">
		<path class="st1" d="M35.1,6.9h4.5v1.4h-1.4v8.8h-1.7V8.3h-1.4V6.9z"/>
	</g>
	<g class="st2">
		<path class="st1" d="M88.8,17.1l1.9-10.2h1.9l1.9,10.2h-1.8l-0.3-1.9h-1.8l-0.3,1.9H88.8z M90.9,13.9h1.4l-0.7-4.1h0L90.9,13.9z"
			/>
	</g>
	<g class="st2">
		<path class="st1" d="M78.1,14.6v-1.1c0-1,0.3-1.7,1.1-2c-0.7-0.3-1-0.9-1-1.8V9.2c0-1.6,0.8-2.4,2.4-2.4c1.6,0,2.4,0.9,2.4,2.4
			v0.4c0,0.8-0.3,1.4-1,1.8c0.8,0.4,1.1,1.1,1.1,2v1.1c0,1.5-0.7,2.6-2.5,2.6C78.8,17.2,78.1,16.1,78.1,14.6z M81.5,14.8v-1.6
			c0-0.6-0.2-1-0.8-1c-0.6,0-0.8,0.4-0.8,1v1.6c0,0.6,0.2,1,0.8,1C81.2,15.8,81.5,15.4,81.5,14.8z M81.4,9.8V9.1c0-0.6-0.2-1-0.8-1
			c-0.6,0-0.8,0.4-0.8,1v0.7c0,0.6,0.2,1,0.8,1C81.2,10.8,81.4,10.4,81.4,9.8z"/>
	</g>
	<g>
		<polygon class="st1" points="85.4,9.9 85.4,14.1 87.6,12 		"/>
	</g>
	<g>
		<path class="st1" d="M98.2,144.8h-95v-22.7h95V144.8z M4.2,143.8h93v-20.7h-93V143.8z"/>
	</g>
	<g>
		<g>
			<g>
				<path class="st0" d="M88.4,51.5c0-0.5-0.4-0.8-0.9-0.8c-0.5,0-0.8,0-1.3,0s-0.9-0.1-1-0.6c-0.2-0.8-0.5-1.7-0.8-2.5
					c-0.2-0.4-0.1-1,0.3-1.2c0.4-0.3,0.7-0.6,1.1-0.9c0.3-0.3,0.4-0.7,0.2-1.1c-0.5-1-1.2-1.8-2-2.6c-0.3-0.4-0.8-0.4-1.2-0.1
					c0,0,0,0,0,0c-0.4,0.3-0.7,0.5-1.1,0.7c-0.3,0.3-0.8,0.4-1.2,0.1c-0.7-0.6-1.6-1.2-2.1-1.5c-0.5-0.2-0.7-0.7-0.5-1.2
					c0.1-0.5,0.2-0.9,0.3-1.4c0.1-0.4-0.1-0.8-0.5-1c-1-0.5-2-0.8-3.1-1c-0.4-0.1-0.9,0.2-1,0.6c-0.2,0.4-0.3,0.8-0.4,1.2
					S72.9,39,72.4,39c-1.1,0-1.8,0-2.6,0c-0.5,0.1-0.9-0.2-1.1-0.7c-0.2-0.5-0.3-0.8-0.5-1.3c-0.1-0.4-0.6-0.6-1-0.5
					c-1.1,0.2-2.1,0.6-3.1,1.1c-0.4,0.2-0.6,0.7-0.5,1.1c0.1,0.5,0.2,0.8,0.3,1.2s0.2,0.9-0.3,1.2s-1.5,1.1-2.1,1.5
					c-0.3,0.3-0.9,0.4-1.3,0.1c-0.4-0.3-0.8-0.5-1.2-0.7c-0.4-0.2-0.8-0.2-1.1,0.1c-0.7,0.8-1.4,1.7-1.9,2.7
					c-0.2,0.4-0.1,0.9,0.3,1.2c0,0,0,0,0,0c0.4,0.3,0.6,0.5,1,0.8s0.7,0.7,0.5,1.1s-0.6,1.9-0.8,2.5c-0.1,0.5-0.5,0.8-1,0.8
					c-0.5,0-0.9,0.1-1.4,0.1c-0.4,0-0.8,0.4-0.8,0.8c-0.1,1.1-0.1,2.2,0.1,3.3c0,0.5,0.4,0.8,0.9,0.8h1.3c0.5,0,0.9,0.1,1,0.6
					c0.2,0.8,0.5,1.7,0.8,2.5c0.2,0.4,0.1,0.9-0.3,1.2c-0.4,0.3-0.7,0.6-1.1,0.9c-0.3,0.3-0.4,0.7-0.2,1.1c0.5,1,1.2,1.8,2,2.6
					c0.3,0.4,0.8,0.4,1.2,0.1c0,0,0,0,0,0c0.4-0.3,0.7-0.4,1.1-0.7c0.3-0.3,0.8-0.4,1.2-0.1c0.3,0.3,1.6,1.2,2.1,1.5
					c0.4,0.2,0.6,0.7,0.5,1.2c-0.1,0.5-0.2,0.9-0.3,1.4c-0.1,0.4,0.1,0.8,0.5,1c1,0.5,2,0.8,3.1,0.9c0.4,0.1,0.9-0.2,1-0.6
					c0.2-0.4,0.3-0.8,0.4-1.2s0.4-0.8,0.9-0.8c1,0,1.7,0,2.6,0c0.5-0.1,0.9,0.2,1.1,0.7c0.2,0.5,0.3,0.8,0.5,1.3
					c0.2,0.4,0.6,0.6,1,0.5c1.1-0.2,2.1-0.6,3.1-1.1c0.4-0.2,0.6-0.7,0.5-1.1c-0.1-0.5-0.2-0.8-0.3-1.2s-0.2-0.9,0.3-1.2
					s1.6-1.2,2.1-1.5c0.3-0.4,0.9-0.4,1.3-0.2c0.4,0.3,0.8,0.5,1.2,0.7c0.4,0.2,0.8,0.2,1.1-0.1c0.7-0.8,1.4-1.6,1.9-2.6
					c0.3-0.4,0.2-0.9-0.2-1.2c0,0,0,0-0.1,0c-0.4-0.3-0.6-0.5-1-0.8s-0.7-0.7-0.5-1.1s0.6-1.8,0.8-2.5c0.1-0.5,0.5-0.8,1-0.8
					c0.5,0,0.9-0.1,1.4-0.1c0.4,0,0.8-0.3,0.8-0.8C88.6,53.6,88.6,52.5,88.4,51.5z M71.3,64.2c-5.9,0-10.7-4.8-10.7-10.7
					c0-5.9,4.8-10.7,10.7-10.7c5.9,0,10.7,4.8,10.7,10.7C82,59.4,77.2,64.2,71.3,64.2z"/>
			</g>
			<g>
				<path class="st0" d="M63.4,50.4c0.2,0.2,0.4,0,0.5-0.1c0.1-0.1,0.1-0.3,0-0.4c-0.1-0.1,0.1-0.2,0.3-0.3s0.5-0.3,0.7-0.4
					c0.5-0.1,1-0.1,1.4,0c0.3,0.2,0.7,0.1,0.9-0.2c0.2-0.2,0.4-0.4,0.7-0.6c0.1-0.1-0.3-0.5-0.7,0S66.6,49,66.4,49s-1.3-0.3-1.4-0.6
					s0.3-0.6,0.7-0.8c0.6-0.1,1.2-0.2,1.8-0.2c0.6-0.1,1.3-0.4,1.7-0.2s-1.5,0.7-0.9,1c0.2,0.1,1.2-0.6,1.6-0.8
					c0.8-0.4-0.8-0.6-0.6-1.4s-1.9-0.6-3-0.5c-0.5,0.3-1,0.7-1.5,1.1c0.1,0,0.3,0.1,0.3,0.2c0,0.2,0,0.4-0.1,0.6
					c-0.3,0.3-0.6,0.4-1,0.5c-0.1,0-0.1,0-0.2-0.1c-0.2,0.2-0.3,0.4-0.5,0.7c0.2-0.1,0.5-0.2,0.7-0.2c0.2,0,0.6,0.1,0.6,0.2
					s-0.6,0.4-0.7,0.5c-0.3,0.3-0.8,0.9-1.1,1c-0.1,0-0.2,0-0.2,0c-0.1,0.2-0.2,0.4-0.2,0.6C62.6,50.3,63,50.3,63.4,50.4z"/>
			</g>
			<g>
				<path class="st0" d="M78.9,53c-0.3,0.2-0.6,0.3-1,0.4c-0.4,0.3-0.5,0.7-0.5,1.1c0.1,0.4,0.9,1.3,0.3,1.3
					c-0.6-0.3-1.1-0.7-1.5-1.3c-0.2-0.5-0.4-1-0.6-1.4c-0.1-0.3-0.4-0.5-0.7-0.4c-0.1,0-0.1,0.1-0.2,0.1c-0.3,0.2,0.1,0.5-0.2,1
					s-0.4,0.9-0.8,0.5c-0.9-1.1-2.3-0.5-2.5-1.7c-0.1-0.6-0.7-0.6-1.1-0.9s-0.7-0.6-0.8-0.3s1.4,1.4,1.5,1.7c0.2,0.5-0.4,0.9-0.9,1
					s-0.6-0.2-1.1-0.7s-0.6-0.8-0.7-0.4c0,0.6,0.3,1.2,0.9,1.6c0.4,0.2,0.8,0.3,0.7,0.8s0,0.2-0.4,0.6c-0.4,0.2-0.6,0.7-0.5,1.1
					c0,0.6-0.1,0.6-0.2,1.1s-0.3,0.1-0.5,0.8c-0.1,0.4-0.3,0.9-0.6,1.2c-0.4,0.3-0.8,0.5-1.3,0.5c-0.4,0-0.5-1.2-0.5-1.8
					c0-0.2-0.3,0.4-0.4-0.8c-0.1-0.8-0.6,0.1-0.6-0.4s-0.3-0.4-0.5-0.8s-0.6,0-1,0.2s-0.2,0.2-0.7,0.1l0,0c1.1,2.6,3.3,4.6,6,5.4
					c-0.1-0.1-0.2-0.3-0.1-0.5c0.4-0.7,1.1-1.1,1.8-1.1c1.5-0.1,3.5,1,3.9,0.8s1-1,1.9-1c0.3,0,0.6,0.1,0.9,0.3
					c0.3-0.2,0.6-0.5,0.9-0.8c-0.1,0-0.2-0.1-0.3-0.1c-0.5-0.3-0.5,0.2-0.7,0s0.3-0.7-0.5-0.2s-0.6-0.1-0.9-0.9
					c-0.2-0.8,0.2-1.7,1-2c0.6-0.2,1.1-0.3,1.7-0.5c1.1-0.3,1.4-1,1.6-0.5l0.1,0.2c0.1,0.2,0.1,0.4,0.1,0.6c0.2-0.5,0.3-0.9,0.4-1.4
					c-0.3-0.1-1.3-1.5-0.5-2.5c0.1-0.2-0.3-0.6-0.2-0.6c0.4,0,0.7,0.2,0.8,0.6c0-0.5-0.1-1-0.2-1.5c0,0.1,0,0.2,0,0.3
					c-0.1,0.3-0.5,0.5-0.8,0.3c-0.1,0-0.2-0.1-0.3-0.2c-0.1-0.1-0.5-0.5-0.5,0.1S79.5,52.6,78.9,53z M70,56.7
					c-0.1,0.2-0.5,1.8-0.7,1.6s0.1-1.8,0.2-2C69.8,55.7,70.7,55.7,70,56.7z M73.8,54.9c-0.3,0.1-0.6,0.1-0.9-0.1
					c-0.2-0.2,0.2-0.5,0.3-0.5C73.6,54.2,74.1,54.7,73.8,54.9L73.8,54.9z M77.8,54.5c-0.1-0.1,0-0.2,0.1-0.3c0.1,0,0.2,0,0.2,0
					c0.2,0.1,0.4,0.3,0.4,0.5c0,0.2-0.4,0.1-0.5,0.1S77.9,54.7,77.8,54.5L77.8,54.5z M79,55.8c-0.3,0.2-0.6,0.1-0.9-0.1
					c-0.2-0.2,0.2-0.5,0.3-0.5C78.8,55.1,79.2,55.6,79,55.8L79,55.8z"/>
			</g>
			<g>
				<path class="st0" d="M63,51.5c0.5,0.1,1,0.2,1.5,0.4c0.6,0.2,1.4,0.7,1.9,0.5s0.6-0.3,0.6-0.7s-0.3-0.5-0.7-0.2
					c-0.1,0.1-0.4-0.6-0.6-0.5s0.3,0.8,0.1,0.8s-0.6-0.8-0.6-0.9s-0.4-0.5-0.6-0.2c-0.6,0.5-1.5,0.5-1.7,0.6c-0.1,0-0.1,0.1-0.2,0.1
					c-0.4,0.1-0.5-0.2-0.5-0.5c-0.1,0.5-0.2,1.1-0.2,1.6c0,0,0,0,0-0.1c0.3-0.6,0.4-0.6,0.5-0.7s0.4-0.1,0.4-0.1L63,51.5z"/>
			</g>
		</g>
		<g>
			<g>
				<path class="st0" d="M28,65.9c-0.5,0.3-1.1,0.6-1.7,0.7c-1.7,0.5-3.4,0.7-5.2,0.6c-0.9,0-1.7-0.1-2.6-0.2
					c-0.5-0.1-1-0.2-1.6-0.3c-0.3-0.1-0.5-0.1-0.8-0.2c-0.7-0.2-1.4-0.6-2-1c-0.2-0.2-0.4-0.4-0.6-0.6v0.7c0,0.2,0,1,0,1
					c0,0.4,0.3,0.8,0.6,1.1c1.2,0.8,2.6,1.3,4,1.5c1,0.1,2,0.2,3,0.2c1.4,0,2.9-0.1,4.3-0.4h0c0.7-0.2,1.5-0.5,2.1-0.8l0,0
					c0.7-0.4,1.1-0.9,1.1-1.5c0,0,0.1-1.5,0-1.7C28.7,65.4,28.4,65.7,28,65.9z"/>
			</g>
			<g>
				<path class="st0" d="M20.6,60.7c4.2,0,7.6-1.3,7.6-2.8c0,0,0.1-1.5,0.1-1.8c0-0.2,0-0.4-0.1-0.6c0.5-0.3,0.8-0.7,0.9-1.3
					c0,0,0.1-1.6,0-1.9c-0.2-1.9-4-2.9-7.6-2.9s-7.7,1.1-7.7,3.1c0,0.1,0.1,1.8,0.1,1.8c0,0.1,0,0.2,0.1,0.3c-0.6,0.3-0.9,0.9-1,1.5
					c0,0.1,0.1,1.8,0.1,1.8c0,0.4,0.3,0.8,0.6,1.1c1.2,0.8,2.6,1.3,4,1.5C18.6,60.7,19.6,60.8,20.6,60.7z M21.4,50.2
					c4,0,6.9,1.2,6.9,2.3s-2.8,2.3-6.9,2.3s-6.9-1.2-6.9-2.3S17.3,50.2,21.4,50.2z M13.7,56.2c0.1-0.4,0.3-0.7,0.6-0.9
					c0.2,0.2,0.5,0.4,0.8,0.6c2,0.9,4.1,1.3,6.3,1.2c1.8,0,3.6-0.2,5.4-0.8c0.2-0.1,0.5-0.2,0.7-0.3c0,0.1,0,0.1,0,0.2
					c0,1.1-2.8,2.3-6.9,2.3S13.7,57.3,13.7,56.2z"/>
			</g>
			<g>
				<path class="st0" d="M18.3,66.6c1,0.2,2,0.2,3,0.2c1.4,0,2.9-0.2,4.2-0.5l0,0c0.8-0.2,1.5-0.5,2.1-0.8l0,0
					c0.2-0.1,0.3-0.2,0.5-0.3c0.2-0.2,0.4-0.5,0.6-0.7c0.1-0.1,0.1-0.3,0.1-0.4c0,0,0-1.5,0-1.7c-0.2,0.3-0.9,1.3-3.9,1.9
					c-1.3,0.2-2.6,0.3-3.9,0.3c-2.4,0-5-0.5-6.1-1.2c-0.4-0.2-0.7-0.4-1-0.7c-0.2-0.2-0.3-0.4-0.5-0.6c0,0,0,0.7,0,0.8V64
					c0,0.4,0.2,0.8,0.6,1.1C15.4,65.9,16.8,66.5,18.3,66.6z"/>
			</g>
			<g>
				<path class="st0" d="M28.8,58.9c-0.1-0.1-0.1-0.1-0.2-0.2l-0.3-0.2c-0.1,0.2-0.2,0.3-0.4,0.5c0.1,0,0.2,0.1,0.3,0.2
					c0.2,0.1,0.3,0.3,0.4,0.6c0,0.2-0.1,0.4-0.3,0.5c-0.1,0.1-0.2,0.2-0.3,0.2l-0.4,0.2L26.9,61l-0.7,0.2c-0.1,0-0.7,0.2-0.9,0.2
					c-0.1,0-0.8,0.2-1.2,0.2L23,61.7c-0.1,0-1.2,0.1-1.8,0.1c-0.8,0-1.6-0.1-2.4-0.2c-0.6-0.1-1.2-0.2-1.7-0.3
					c-0.6-0.1-1.2-0.3-1.8-0.6c-0.3-0.2-0.7-0.4-0.9-0.7c-0.2-0.2-0.4-0.5-0.6-0.8v1v0.9c0,0.4,0.2,0.8,0.6,1.1
					c1.2,0.8,2.6,1.4,4,1.5c1,0.2,2,0.2,3,0.2c1.4,0,2.9-0.1,4.2-0.5h0c0.7-0.2,1.5-0.5,2.1-0.8l0,0c0.2-0.1,0.3-0.2,0.5-0.3
					c0.3-0.2,0.4-0.4,0.6-0.7c0.1-0.1,0.1-0.3,0.1-0.4c0,0,0.1-1.6,0.1-1.6c0.1-0.1,0.1-0.3,0.1-0.4C29,59.1,28.9,59,28.8,58.9z"/>
			</g>
			<g>
				<path class="st0" d="M38.1,55.3c4.2,0,7.6-1.3,7.6-2.8c0,0,0.1-1.5,0.1-1.8c0-0.2,0-0.4-0.1-0.6c0.5-0.3,0.8-0.7,0.9-1.3
					c0,0,0.1-1.6,0-1.9c-0.2-1.9-4-2.9-7.6-2.9s-7.6,1.1-7.6,3.1c0,0.1,0.1,1.8,0.1,1.8c0,0.1,0,0.2,0.1,0.3c-0.6,0.3-0.9,0.9-1,1.5
					c0,0.1,0.1,1.8,0.1,1.8c0,0.4,0.2,0.8,0.6,1.1c1.2,0.8,2.6,1.4,4,1.5C36,55.2,37.1,55.3,38.1,55.3z M38.8,44.8
					c4,0,6.9,1.2,6.9,2.3s-2.8,2.3-6.9,2.3S32,48.1,32,47.1S34.8,44.8,38.8,44.8z M31.2,50.7c0.1-0.4,0.3-0.7,0.6-0.9
					c0.2,0.2,0.5,0.4,0.8,0.6c2,0.9,4.1,1.3,6.3,1.2c1.8,0,3.6-0.2,5.4-0.8c0.2-0.1,0.5-0.2,0.7-0.3c0,0.1,0,0.1,0,0.2
					c0,1.1-2.8,2.3-6.9,2.3S31.2,51.8,31.2,50.7z"/>
			</g>
			<g>
				<path class="st0" d="M46.5,53.7c0-0.1-0.1-0.2-0.2-0.3l-0.2-0.2c-0.1-0.1-0.2-0.1-0.3-0.2c-0.1,0.2-0.2,0.3-0.3,0.4
					c0.1,0,0.2,0.1,0.3,0.2c0.2,0.1,0.3,0.3,0.3,0.6c0,0.2-0.1,0.4-0.3,0.5c-0.1,0.1-0.2,0.2-0.3,0.2l-0.4,0.2c0,0-0.5,0.2-0.7,0.3
					l-0.7,0.2l-0.9,0.2l-1.2,0.2c-0.1,0-0.9,0.1-1.2,0.1c-0.1,0-1.2,0.1-1.7,0.1c-0.8,0-1.6-0.1-2.4-0.2c-0.6-0.1-1.2-0.2-1.7-0.3
					c-0.6-0.1-1.2-0.3-1.8-0.6c-0.3-0.2-0.7-0.4-0.9-0.6c-0.2-0.2-0.4-0.5-0.6-0.8v1v0.9c0,0.4,0.2,0.8,0.6,1.1
					c1.2,0.8,2.6,1.4,4,1.5c1,0.2,2,0.2,3,0.2c1.4,0,2.9-0.2,4.2-0.5l0,0c0.8-0.2,1.5-0.5,2.2-0.8l0,0c0.2-0.1,0.3-0.2,0.5-0.3
					c0.2-0.2,0.4-0.5,0.6-0.7c0-0.1,0.1-0.3,0.1-0.4c0,0,0.1-1.6,0.1-1.6C46.5,54,46.5,53.9,46.5,53.7z"/>
			</g>
			<g>
				<path class="st0" d="M45.6,60.4c-0.5,0.3-1.1,0.6-1.7,0.7c-1.7,0.5-3.4,0.7-5.2,0.7c-0.9,0-1.7-0.1-2.6-0.2
					c-0.5-0.1-1-0.2-1.6-0.3c-0.3-0.1-0.5-0.1-0.8-0.2c-0.7-0.2-1.4-0.6-2-1c-0.2-0.2-0.4-0.4-0.6-0.6v0.7c0,0.2,0,1,0,1
					c0,0.4,0.2,0.8,0.6,1.1c1.2,0.8,2.6,1.3,4,1.5c1,0.2,2,0.2,3,0.2c1.4,0,2.9-0.2,4.2-0.5l0,0c0.8-0.2,1.5-0.5,2.2-0.8l0,0
					c0.7-0.4,1.1-0.9,1.1-1.5c0,0,0.1-1.5,0-1.7C46.2,59.9,45.9,60.2,45.6,60.4z"/>
			</g>
			<g>
				<path class="st0" d="M31.8,59.6c1.2,0.8,2.6,1.3,4,1.5c1,0.1,2,0.2,3,0.2c1.4,0,2.9-0.2,4.2-0.5h0c0.8-0.2,1.5-0.4,2.2-0.8l0,0
					c0.2-0.1,0.3-0.2,0.5-0.3c0.3-0.2,0.4-0.4,0.6-0.7c0.1-0.1,0.1-0.3,0.1-0.4c0,0,0-1.5,0-1.7c-0.3,0.3-0.9,1.3-3.9,1.9
					c-1.3,0.2-2.6,0.3-3.9,0.3c-2.4,0-4.9-0.5-6.1-1.2c-0.4-0.2-0.7-0.4-1-0.7c-0.2-0.2-0.3-0.4-0.5-0.6c0,0,0,0.7,0,0.8v1.1
					C31.1,59,31.4,59.4,31.8,59.6z"/>
			</g>
			<g>
				<path class="st0" d="M46.5,65c-0.2,0.3-0.6,0.6-0.9,0.9c-0.5,0.3-1.1,0.6-1.7,0.7c-1.7,0.5-3.4,0.7-5.2,0.6
					c-0.9,0-1.7-0.1-2.6-0.2c-0.6-0.1-1-0.2-1.6-0.3l-0.8-0.2c-0.7-0.2-1.4-0.6-2-1c-0.2-0.2-0.4-0.4-0.6-0.6v0.7c0,0.2,0,1,0,1
					c0,0.4,0.3,0.8,0.6,1.1c1.2,0.8,2.6,1.4,4,1.5c1,0.2,2,0.2,3,0.2c1.4,0,2.9-0.1,4.3-0.4l0,0c0.7-0.2,1.5-0.5,2.1-0.8l0,0
					c0.7-0.4,1.1-0.9,1.1-1.5C46.5,66.6,46.5,65.1,46.5,65z"/>
			</g>
			<g>
				<path class="st0" d="M35.9,66.5c1,0.2,2,0.2,3,0.2c1.4,0,2.9-0.1,4.2-0.5l0,0c0.7-0.2,1.5-0.5,2.1-0.8l0,0
					c0.2-0.1,0.3-0.2,0.5-0.3c0.2-0.2,0.4-0.4,0.6-0.7c0.1-0.1,0.1-0.3,0.1-0.4c0,0,0-1.5,0-1.7c-0.3,0.3-0.9,1.3-3.9,1.9
					c-1.3,0.2-2.6,0.3-3.9,0.3c-2.4-0.1-5-0.5-6.1-1.2c-0.4-0.2-0.7-0.4-1-0.7c-0.2-0.2-0.3-0.4-0.5-0.6c0,0,0,0.7,0,0.8V64
					c0,0.4,0.3,0.8,0.6,1.1C32.9,65.9,34.4,66.4,35.9,66.5z"/>
			</g>
		</g>
		<g>
			<path class="st0" d="M70.8,86.6l-7.2,5.7c-0.1,0.1-0.2,0.1-0.3,0.1c-0.2-0.1-0.2-0.2-0.2-0.4v-2.9H33.3c-0.1,0-0.3-0.2-0.2-0.3
				v-5c0-0.2,0.1-0.3,0.2-0.3h29.7v-2.8c0-0.2,0-0.3,0.2-0.4c0.1,0,0.2,0,0.3,0.1l7.2,5.5c0.2,0.1,0.2,0.4,0.1,0.6
				C70.9,86.5,70.9,86.6,70.8,86.6L70.8,86.6z"/>
		</g>
		<g>
			<path class="st0" d="M31.2,100.8l7.2,5.7c0.1,0.1,0.2,0.1,0.3,0.1c0.2,0,0.2-0.1,0.2-0.3v-2.9h29.7c0.1,0,0.3-0.2,0.2-0.3
				c0,0,0,0,0,0v-5c0-0.2-0.1-0.3-0.2-0.3H39v-2.8c0-0.2,0-0.3-0.2-0.3c-0.1,0-0.2,0-0.3,0.1l-7.2,5.5c-0.1,0.1-0.2,0.2-0.2,0.4
				C31.1,100.6,31.1,100.7,31.2,100.8z"/>
		</g>
	</g>
</g>
</svg>
