<?xml version="1.0" encoding="utf-8"?>
<!-- Generator: Adobe Illustrator 22.0.1, SVG Export Plug-In . SVG Version: 6.00 Build 0)  -->
<svg version="1.1" id="Layer_1" xmlns="http://www.w3.org/2000/svg" xmlns:xlink="http://www.w3.org/1999/xlink" x="0px" y="0px"
	 viewBox="0 0 101.5 157.1" style="enable-background:new 0 0 101.5 157.1;" xml:space="preserve">
<style type="text/css">
	.st0{fill:#FFFFFF;}
	.st1{fill:#A21942;}
	.st2{enable-background:new    ;}
</style>
<title>Artboard 23 copy 2</title>
<g id="WHITE_BG">
	<g>
		<rect y="0" class="st0" width="101.5" height="157.1"/>
	</g>
	<g>
		<path class="st1" d="M98.2,153.8H3.3v-31.6h94.8V153.8z M4.3,152.8h92.8v-29.6H4.3L4.3,152.8z"/>
	</g>
	<g>
		<path class="st1" d="M98.2,153.8H3.3v-31.6h94.8V153.8z M4.3,152.8h92.8v-29.6H4.3L4.3,152.8z"/>
	</g>
</g>
<g id="TARGETS">
	<g>
		<g>
			<path class="st1" d="M10.5,129.3H7.8v2h2.9v0.9H6.9v-6.4h3.9v0.9H7.8v1.8h2.6V129.3z"/>
		</g>
		<g>
			<path class="st1" d="M15.3,132.2l-2.8-4.5v4.5h-0.9v-6.4h0.9l2.8,4.5v-4.5h0.9v6.4H15.3z"/>
		</g>
		<g>
			<path class="st1" d="M17.1,132.2v-6.4H19c2.1,0,2.7,1.4,2.7,3.2s-0.6,3.2-2.7,3.2H17.1z M18.1,131.3h1c1.3,0,1.7-0.9,1.7-2.3
				s-0.4-2.3-1.7-2.3h-1V131.3z"/>
		</g>
		<g>
			<path class="st1" d="M27.3,131.3h-0.9l-1.6-3.9l0,4.8h-1v-6.4h1.2l1.7,4.3l1.7-4.3h1.2v6.4h-1v-4.8L27.3,131.3z"/>
		</g>
		<g>
			<path class="st1" d="M30.7,129c0-1.8,0.4-3.3,2.5-3.3s2.5,1.5,2.5,3.3s-0.4,3.3-2.5,3.3S30.7,130.8,30.7,129z M31.7,129
				c0,1.5,0.3,2.4,1.5,2.4s1.5-0.9,1.5-2.4s-0.3-2.4-1.5-2.4S31.7,127.5,31.7,129L31.7,129z"/>
		</g>
		<g>
			<path class="st1" d="M36.5,132.2v-6.4h1.9c2.1,0,2.7,1.4,2.7,3.2s-0.6,3.2-2.7,3.2H36.5z M37.4,131.3h1c1.3,0,1.7-0.9,1.7-2.3
				s-0.4-2.3-1.7-2.3h-1V131.3z"/>
		</g>
		<g>
			<path class="st1" d="M45.5,129.3h-2.7v2h2.9v0.9h-3.9v-6.4h3.9v0.9h-2.9v1.8h2.7V129.3z"/>
		</g>
		<g>
			<path class="st1" d="M47.6,132.2h-1v-6.4h2.1c1.7,0,2.2,0.7,2.2,1.9c0.1,0.7-0.3,1.4-1,1.7l1.3,2.8H50l-1.2-2.6h-1.3V132.2z
				 M47.6,128.7h1.3c0.9,0,1-0.5,1-1s-0.1-1-1-1h-1.3V128.7z"/>
		</g>
		<g>
			<path class="st1" d="M55.5,132.2l-2.8-4.5v4.5h-1v-6.4h0.9l2.8,4.5v-4.5h0.9v6.4H55.5z"/>
		</g>
		<g>
			<path class="st1" d="M62.8,130.3c0,1.2-0.7,2-2.4,2c-0.6,0-1.3-0.1-1.9-0.4v-1c0.6,0.3,1.2,0.4,1.8,0.4c1.2,0,1.5-0.5,1.5-1.1
				s-0.3-0.9-1.2-1c-1.5-0.2-2.2-0.6-2.2-1.8c0-0.9,0.5-1.8,2.3-1.8c0.6,0,1.2,0.1,1.7,0.3v1c-0.5-0.2-1.1-0.3-1.7-0.3
				c-1,0-1.3,0.4-1.3,1s0.4,0.8,1.2,0.9C62.1,128.7,62.8,129,62.8,130.3z"/>
		</g>
		<g>
			<path class="st1" d="M64.6,131.3h2.8v0.9h-3.7v-6.4h1L64.6,131.3z"/>
		</g>
		<g>
			<path class="st1" d="M71.1,130.6h-2l-0.4,1.6h-1l2-6.4h1l2,6.4h-1L71.1,130.6z M70.1,127l-0.8,2.8h1.6L70.1,127z"/>
		</g>
		<g>
			<path class="st1" d="M77.1,125.8l-2,6.5h-1l-2-6.5h1l1.5,5.2l1.5-5.2L77.1,125.8z"/>
		</g>
		<g>
			<path class="st1" d="M81.3,129.3h-2.7v2h2.9v0.9h-3.9v-6.4h3.9v0.9h-2.9v1.8h2.7L81.3,129.3z"/>
		</g>
		<g>
			<path class="st1" d="M83.3,132.2h-1v-6.4h2.1c1.7,0,2.2,0.7,2.2,1.9c0.1,0.7-0.3,1.4-1,1.7l1.3,2.8h-1.1l-1.2-2.6h-1.3V132.2z
				 M83.3,128.7h1.3c0.9,0,1-0.5,1-1s-0.1-1-1-1h-1.3V128.7z"/>
		</g>
		<g>
			<path class="st1" d="M89.9,129.6v2.6H89v-2.6l-2.2-3.8h1.1l1.6,3l1.6-3h1L89.9,129.6z"/>
		</g>
		<g>
			<path class="st1" d="M92.5,131.3l-0.7,2h-0.7l0.2-2H92.5z"/>
		</g>
		<g>
			<path class="st1" d="M9.2,135.7v5.5h-1v-5.5H6.6v-0.9h4.3v0.9H9.2z"/>
		</g>
		<g>
			<path class="st1" d="M12.5,141.2h-1v-6.4h2.1c1.6,0,2.2,0.7,2.2,1.9c0.1,0.7-0.3,1.4-1,1.7l1.3,2.8H15l-1.1-2.6h-1.4V141.2z
				 M12.5,137.7h1.3c0.9,0,1-0.5,1-1s-0.1-1-1-1h-1.3V137.7z"/>
		</g>
		<g>
			<path class="st1" d="M19.8,139.6h-2l-0.5,1.6h-1l2-6.4h1l2,6.4h-1L19.8,139.6z M18.8,136l-0.8,2.8h1.6L18.8,136z"/>
		</g>
		<g>
			<path class="st1" d="M25.4,138.4h-2.6v2.8h-1v-6.4h3.8v0.9h-2.8v1.8h2.6V138.4z"/>
		</g>
		<g>
			<path class="st1" d="M29.9,138.4h-2.6v2.8h-1v-6.4h3.8v0.9h-2.8v1.8h2.6V138.4z"/>
		</g>
		<g>
			<path class="st1" d="M31,141.2v-6.4h1v6.4H31z"/>
		</g>
		<g>
			<path class="st1" d="M35.6,134.7c0.5,0,1,0.1,1.5,0.3v0.9c-0.5-0.2-0.9-0.3-1.4-0.3c-1.2,0-1.7,0.8-1.7,2.4s0.5,2.4,1.7,2.4
				c0.5,0,1-0.1,1.4-0.3v0.9c-0.5,0.2-1,0.3-1.5,0.3c-1.9,0-2.6-1.2-2.6-3.3S33.7,134.7,35.6,134.7z"/>
		</g>
		<g>
			<path class="st1" d="M39.4,138.4l-0.5,0.6v2.2H38v-6.4h1v3l2.3-3h1.2l-2.3,2.8l2.6,3.6h-1.3L39.4,138.4z"/>
		</g>
		<g>
			<path class="st1" d="M43.2,141.2v-6.4h1v6.4H43.2z"/>
		</g>
		<g>
			<path class="st1" d="M48.9,141.2l-2.8-4.5v4.5h-0.9v-6.4h0.9l2.8,4.5v-4.5h1v6.4H48.9z"/>
		</g>
		<g>
			<path class="st1" d="M50.5,138c0-2,0.7-3.3,2.6-3.3c0.6,0,1.3,0.1,1.8,0.3v1c-0.5-0.2-1.1-0.4-1.7-0.4c-1.3,0-1.8,0.9-1.8,2.4
				s0.5,2.4,1.8,2.4c0.3,0,0.6,0,0.9-0.1v-1.7H53v-0.9h2.1v3.2c-0.6,0.3-1.3,0.4-2,0.4C51.2,141.3,50.5,140,50.5,138z"/>
		</g>
		<g>
			<path class="st1" d="M60.7,139.6h-2l-0.5,1.6h-1l2-6.4h1l2,6.4h-1L60.7,139.6z M59.7,136l-0.8,2.8h1.6L59.7,136z"/>
		</g>
		<g>
			<path class="st1" d="M66.3,141.2l-2.8-4.5v4.5h-0.9v-6.4h0.9l2.8,4.5v-4.5h0.9v6.4H66.3z"/>
		</g>
		<g>
			<path class="st1" d="M68.2,141.2v-6.4h1.9c2.1,0,2.7,1.4,2.7,3.2s-0.6,3.2-2.7,3.2H68.2z M69.2,140.3h1c1.3,0,1.7-0.9,1.7-2.3
				s-0.4-2.3-1.7-2.3h-1V140.3z"/>
		</g>
		<g>
			<path class="st1" d="M9.4,143.7c0.5,0,1,0.1,1.5,0.3v0.9c-0.5-0.2-0.9-0.3-1.4-0.3c-1.2,0-1.7,0.8-1.7,2.4s0.5,2.4,1.7,2.4
				c0.5,0,1-0.1,1.4-0.3v0.9c-0.5,0.2-1,0.3-1.5,0.3c-1.9,0-2.6-1.2-2.6-3.3S7.5,143.7,9.4,143.7z"/>
		</g>
		<g>
			<path class="st1" d="M15.3,150.2v-2.9h-2.6v2.9h-1v-6.4h1v2.6h2.6v-2.6h1v6.4H15.3z"/>
		</g>
		<g>
			<path class="st1" d="M17.4,150.2v-6.4h1v6.4H17.4z"/>
		</g>
		<g>
			<path class="st1" d="M20.4,149.3h2.8v0.9h-3.7v-6.4h1V149.3z"/>
		</g>
		<g>
			<path class="st1" d="M23.6,150.2v-6.4h1.9c2.1,0,2.7,1.4,2.7,3.2s-0.6,3.2-2.7,3.2H23.6z M24.6,149.3h1c1.3,0,1.7-0.9,1.7-2.3
				s-0.4-2.3-1.7-2.3h-1V149.3z"/>
		</g>
		<g>
			<path class="st1" d="M31.4,149.3h2.8v0.9h-3.7v-6.4h1L31.4,149.3z"/>
		</g>
		<g>
			<path class="st1" d="M37.9,148.6h-2l-0.5,1.6h-1l2-6.4h1l2,6.4h-1L37.9,148.6z M36.9,145l-0.8,2.8h1.6L36.9,145z"/>
		</g>
		<g>
			<path class="st1" d="M39.9,143.8h2.1c1.6,0,2,0.8,2,1.8c0,0.5-0.3,1-0.8,1.3c0.6,0.2,1.1,0.8,1,1.5c0,1-0.5,1.9-2.2,1.9h-2.2
				V143.8z M42.1,144.7h-1.2v1.8h1.2c0.8,0,1-0.5,1-0.9S42.9,144.7,42.1,144.7z M40.9,149.3h1.3c0.9,0,1.1-0.5,1.1-1s-0.3-1-1.1-1
				h-1.3L40.9,149.3z"/>
		</g>
		<g>
			<path class="st1" d="M44.9,147c0-1.8,0.4-3.3,2.5-3.3s2.5,1.5,2.5,3.3s-0.4,3.3-2.5,3.3S44.9,148.8,44.9,147z M45.9,147
				c0,1.5,0.3,2.4,1.5,2.4s1.5-0.9,1.5-2.4s-0.3-2.4-1.5-2.4S45.9,145.5,45.9,147L45.9,147z"/>
		</g>
		<g>
			<path class="st1" d="M50.7,148.2v-4.4h1v4.3c0,0.8,0.6,1.4,1.4,1.4s1.4-0.6,1.4-1.4v-4.3h1v4.4c-0.1,1.3-1.2,2.2-2.5,2.1
				c-1.1-0.1-2-1-2.1-2.1H50.7z"/>
		</g>
		<g>
			<path class="st1" d="M57.1,150.2h-1v-6.4h2.1c1.7,0,2.2,0.7,2.2,1.9c0.1,0.7-0.3,1.4-1,1.7l1.3,2.8h-1.1l-1.2-2.6h-1.3V150.2z
				 M57.1,146.7h1.3c0.9,0,1-0.5,1-1s-0.1-1-1-1h-1.3V146.7z"/>
		</g>
	</g>
	<g>
		<rect x="3.3" y="24" class="st1" width="94.8" height="94.8"/>
	</g>
	<g>
		<path class="st1" d="M98.2,20.7H3.3V3.3h94.8V20.7z M4.3,19.7h92.8V4.3H4.3L4.3,19.7z"/>
	</g>
	<g class="st2">
		<path class="st1" d="M6.7,6.9h4.5v1.4H9.9v8.8H8.1V8.3H6.7V6.9z"/>
	</g>
	<g class="st2">
		<path class="st1" d="M11.2,17.1l1.9-10.2h1.9L17,17.1h-1.8l-0.3-1.9h-1.8l-0.3,1.9H11.2z M13.3,13.9h1.4L14,9.8h0L13.3,13.9z"/>
	</g>
	<g class="st2">
		<path class="st1" d="M19.6,12.4v4.7h-1.7V6.9h2.5c1.7,0,2.4,0.9,2.4,2.3v1.3c0,1.1-0.4,1.7-1.4,2l1.6,4.6h-1.8L19.6,12.4z
			 M19.6,8.3v3.2h0.6c0.6,0,0.8-0.3,0.8-0.8V9.2c0-0.6-0.3-0.8-0.8-0.8H19.6z"/>
	</g>
	<g class="st2">
		<path class="st1" d="M26.4,11.7h2.4v5.4h-1.2V16c-0.2,0.8-0.7,1.2-1.6,1.2c-1.5,0-2.1-1.2-2.1-2.7V9.6c0-1.6,0.8-2.7,2.6-2.7
			c1.9,0,2.4,1.1,2.4,2.6v0.9h-1.6v-1c0-0.6-0.2-1-0.9-1c-0.6,0-0.9,0.4-0.9,1v5.5c0,0.6,0.3,1,0.8,1c0.6,0,0.8-0.3,0.8-1V13h-0.8
			V11.7z"/>
	</g>
	<g class="st2">
		<path class="st1" d="M30.2,6.9h4.1v1.4h-2.4v2.9h1.7v1.4h-1.7v3.1h2.4v1.4h-4.1V6.9z"/>
	</g>
	<g class="st2">
		<path class="st1" d="M35.1,6.9h4.5v1.4h-1.4v8.8h-1.7V8.3h-1.4V6.9z"/>
	</g>
	<g class="st2">
		<path class="st1" d="M79.5,14.6v-1.1c0-1,0.3-1.7,1.1-2c-0.7-0.3-1-0.9-1-1.8V9.3c0-1.6,0.8-2.4,2.4-2.4c1.6,0,2.4,0.9,2.4,2.4
			v0.4c0,0.8-0.3,1.4-1,1.8c0.8,0.4,1.1,1.1,1.1,2v1.1c0,1.5-0.7,2.6-2.5,2.6C80.3,17.2,79.5,16.2,79.5,14.6z M82.9,14.8v-1.6
			c0-0.6-0.2-1-0.8-1c-0.6,0-0.8,0.4-0.8,1v1.6c0,0.6,0.2,1,0.8,1C82.7,15.8,82.9,15.4,82.9,14.8z M82.8,9.9V9.2c0-0.6-0.2-1-0.8-1
			c-0.6,0-0.8,0.4-0.8,1v0.7c0,0.6,0.2,1,0.8,1C82.6,10.8,82.8,10.5,82.8,9.9z"/>
	</g>
	<g class="st2">
	</g>
	<g class="st2">
		<path class="st1" d="M87.5,10.8c0.7,0,1.2,0.6,1.2,1.2c0,0.7-0.6,1.2-1.2,1.2c-0.7,0-1.2-0.6-1.2-1.2
			C86.2,11.4,86.8,10.8,87.5,10.8z"/>
	</g>
	<g class="st2">
		<path class="st1" d="M90.1,6.9h4.3v1.6l-2.2,8.6h-1.7l2.3-8.8h-2.6V6.9z"/>
	</g>
	<g>
		<path class="st1" d="M98.2,153.8H3.3v-31.6h94.8V153.8z M4.3,152.8h92.8v-29.6H4.3L4.3,152.8z"/>
	</g>
	<g>
		<g>
			<path class="st0" d="M40.3,57.7c-0.3,0.1-0.6,0-0.8-0.1c-0.4-0.2-0.6-0.5-0.8-0.9L38.1,55c-0.3-0.8-0.1-1.6,0.5-1.8l2.9-1.2
				l-0.7-1.7l-2.9,1.1c-1,0.4-1.7,1.5-1.7,2.6c-0.3-0.1-0.5-0.2-0.8-0.3c-0.8-0.1-1.5,0-2.2,0.4l-2.8,2l1.3,1.3l2.5-1.7
				c0.2-0.2,0.5-0.2,0.8-0.2c0.3,0.1,0.5,0.2,0.7,0.5l1.3,1.9c0.2,0.2,0.2,0.5,0.2,0.8c-0.1,0.2-0.2,0.5-0.4,0.6
				c0.5,0.3,1,0.8,1.3,1.3c0.4-0.4,0.7-0.8,0.8-1.3c0.4,0.2,0.8,0.3,1.2,0.3c0.3,0,0.6-0.1,0.9-0.2l3-1.2l-0.7-1.7L40.3,57.7z"/>
		</g>
		<g>
			<path class="st0" d="M19.3,78.6l-1,1.9c-0.1,0.3-0.4,0.5-0.6,0.6c-0.3,0.1-0.6,0.1-0.8-0.1l-2.1-1c-0.5-0.3-0.8-0.9-0.5-1.5
				l1.9-3.8L15,73.2l-2.3,4.5c-0.3,0.7-0.4,1.5-0.2,2.2c0.1,0.2,0.2,0.5,0.3,0.7c-0.2,0.1-0.5,0.2-0.7,0.3c-0.6,0.4-1.1,1.1-1.3,1.8
				l-1.2,5.2c-0.4,1.6,0.6,3.1,2.2,3.5l2.2,0.5c0.2,0,0.4,0.1,0.7,0.1c1.4,0,2.5-0.9,2.8-2.2l1.2-5.2c0.1-0.6,0.1-1.3-0.2-1.9
				c0.6-0.3,1-0.7,1.3-1.3l0.6-1.2L19.3,78.6z M17,84.1l-1.2,5.2c-0.1,0.3-0.2,0.5-0.5,0.7c-0.2,0.2-0.5,0.2-0.8,0.1l-2.2-0.5
				c-0.3-0.1-0.5-0.2-0.7-0.5c-0.2-0.2-0.2-0.5-0.1-0.8l1.2-5.2c0.1-0.3,0.2-0.5,0.5-0.7c0.2-0.2,0.5-0.2,0.8-0.1l2.2,0.5
				c0.3,0.1,0.5,0.2,0.7,0.5C17,83.5,17.1,83.8,17,84.1z"/>
		</g>
		<g>
			<rect x="48" y="41" transform="matrix(0.5919 -0.806 0.806 0.5919 -12.7871 59.0152)" class="st0" width="7.8" height="2.3"/>
		</g>
		<g>
			
				<rect x="41.3" y="36.2" transform="matrix(0.9656 -0.2602 0.2602 0.9656 -8.9711 12.4278)" class="st0" width="2.3" height="7.8"/>
		</g>
		<g>
			
				<rect x="34.5" y="42.2" transform="matrix(0.4023 -0.9155 0.9155 0.4023 -20.8825 60.1598)" class="st0" width="2.3" height="7.8"/>
		</g>
		<g>
			<path class="st0" d="M56.7,58.6c0.3-0.4,0.8-1,1.3-1.6l-1-0.2c-0.3-0.1-0.5-0.2-0.7-0.5c-0.2-0.2-0.2-0.5-0.2-0.8l0.5-2.3
				c0.1-0.5,0.6-0.9,1.1-0.9c0.1,0,0.1,0,0.2,0l3.8,0.8c0.3-0.2,0.5-0.5,0.8-0.7c0.5-0.3,1-0.5,1.6-0.6c-0.2-0.1-0.4-0.2-0.7-0.2
				l-5.2-1.1c-0.9-0.2-1.8,0.1-2.5,0.7l0,0c-0.4-0.7-1.1-1.1-1.9-1.3l-3.2-0.6l-0.3,1.8l3.2,0.6c0.3,0.1,0.5,0.2,0.7,0.5
				c0.2,0.3,0.2,0.7,0.2,1l-0.3,1.6c-0.1,0.6-0.7,1.1-1.3,1l-3-0.6L49.4,57l3,0.6c0.2,0,0.4,0.1,0.5,0c0.6,0,1.2-0.2,1.7-0.6
				c0,0.1,0.1,0.2,0.2,0.3C55.2,58,55.9,58.4,56.7,58.6L56.7,58.6z"/>
		</g>
		<g>
			<g>
				<path class="st0" d="M27.7,60.8c0.2-0.2,0.3-0.3,0.5-0.4c0.4-0.2,0.8-0.3,1.3-0.4l1.2-0.4l0.7-0.2c0-0.2-0.2-0.5-0.4-0.7
					L29.1,57c-0.3-0.2-0.6-0.4-1-0.3c-0.5,0-1.1,0.3-1.5,0.7c-0.4,0.4-0.6,0.9-0.6,1.5c0,0.3,0.1,0.7,0.4,0.9L27.7,60.8z"/>
			</g>
			<g>
				<path class="st0" d="M24.9,65.7c0.3,0.3,0.6,0.4,1,0.4c0.5,0,1-0.2,1.4-0.6c0.3-0.3,0.5-0.7,0.6-1.1c-0.4-0.3-0.8-0.7-0.9-1.2
					v-0.2c0-0.2,0-0.4,0-0.7l-3.5-3.7c-0.3-0.3-0.6-0.4-1-0.4l0,0c-0.5,0-1,0.2-1.4,0.6c-0.7,0.6-0.9,1.6-0.4,2.4L24.9,65.7z"/>
			</g>
			<g>
				<path class="st0" d="M21,69.4c0.3,0.3,0.6,0.4,1,0.4c0.5,0,1-0.2,1.4-0.6c0.4-0.3,0.6-0.8,0.7-1.3c0.1-0.4,0-0.8-0.3-1.1
					L20.2,63c-0.3-0.3-0.6-0.4-1-0.4l0,0c-0.5,0-1,0.2-1.4,0.6c-0.4,0.3-0.6,0.8-0.7,1.3c-0.1,0.4,0,0.8,0.3,1.1L21,69.4z"/>
			</g>
			<g>
				<path class="st0" d="M18.4,71.5c0.4-0.4,0.7-0.9,0.7-1.5c0-0.3-0.1-0.7-0.3-0.9l-1.3-1.3c-0.3-0.3-0.6-0.4-1-0.4
					c-0.5,0-1,0.2-1.4,0.6c-0.4,0.4-0.7,0.9-0.7,1.4c0,0.3,0.1,0.7,0.3,0.9l1.3,1.4c0.3,0.3,0.6,0.4,1,0.4
					C17.5,72.1,18,71.8,18.4,71.5z"/>
			</g>
			<g>
				<path class="st0" d="M34.8,73.8l0.1-0.2l0,0c1-2.2,3.9-7.1,4-7.3c0.1-0.3,0.2-0.7,0.2-1c0-0.2,0-0.4-0.1-0.6L38.7,64
					c-0.5-1.1-1.6-3.1-2.6-3.7c-0.7-0.4-1.5-0.6-2.3-0.4c-0.2,0.1-1.5,0.4-2.8,0.8l-1.2,0.3c-0.4,0.1-0.7,0.2-1.1,0.4
					c-0.5,0.3-0.7,0.8-0.6,1.3c0.1,0.4,0.4,0.6,0.7,0.7l2.2,0.2h0.3c1,0.1,1.8,1,1.8,2.1c0,0.2,0,0.4-0.1,0.5l-1.4,3.3l-1.1-0.5
					l1.4-3.3c0-0.4-0.3-0.8-0.8-0.9h-0.2l-1.9-0.2c-0.2,0.6-0.6,1.2-1.1,1.7c-0.7,0.6-1.5,1-2.4,1h-0.2c0,1-0.4,2-1.2,2.7
					c-0.7,0.6-1.5,1-2.4,1h-0.1c-0.5,0-1.1-0.2-1.5-0.5c-0.2,0.7-0.6,1.3-1.1,1.7c-0.6,0.6-1.4,0.9-2.3,1l3.2,4.5
					c0.3,0.4,0.8,0.8,1.2,1.1c0.2,0.3,0.5,0.7,0.8,1c0.3,0.5,0.6,1.2,0.7,1.8c0.7,3.7,1.4,25.2,1.4,25.2h14.5c0,0-4-21.9-5.1-28.8
					c-0.1-0.8,0-1.7,0.3-2.5C34.2,75.2,34.8,73.8,34.8,73.8z"/>
			</g>
		</g>
		<g>
			<g>
				<path class="st0" d="M82.6,74.2c-1.2,0-2.3-0.6-3.1-1.5c-0.6-0.7-1-1.6-1-2.5C77.8,70.7,77,71,76.1,71H76
					c-1.2,0-2.3-0.5-3.1-1.4c-0.9-1-1.2-2.5-0.9-3.8c-0.1,0-0.2,0-0.3,0h-0.1c-2.3,0-4.2-1.9-4.1-4.3c0-0.6,0.1-1.2,0.4-1.7
					l-2.4-0.5l-0.7,0.4l2.5,6L66.6,66l-0.7,0.3L63,59.2l2.2-1.5l5.3,1.1c0,0,1.2,0,1.5-0.7s-0.6-1.7-1.1-2c-0.4-0.2-0.9-0.4-1.3-0.6
					L68,54.8l-3.4-1.3c-0.1,0-0.5-0.2-1.3,0.3c-2.1,1.9-4.1,4-5.9,6.2c-0.1,0.2-0.4,0.5-0.5,0.7c0,0,0.1,0.1,0.1,0.2V61l4.8,16
					l0.3,0.9l0,0L55.3,107H73l4-26.8l6.2-6.1C83.1,74.2,82.9,74.2,82.6,74.2L82.6,74.2z"/>
			</g>
			<g>
				<path class="st0" d="M70.1,54.1c0.5,0.2,1.1,0.5,1.6,0.7c0.2,0.1,0.4,0.3,0.6,0.5l0.7-0.5c0.5-0.4,0.8-1,0.9-1.7
					c0.1-0.7-0.1-1.3-0.5-1.8c-0.5-0.6-1.2-0.9-1.9-0.9l0,0c-0.6,0-1.1,0.2-1.6,0.5l-2.5,2l1.3,0.5L70.1,54.1z"/>
			</g>
			<g>
				<path class="st0" d="M73.4,58.4c0,0.1,0,0.1-0.1,0.2c-0.6,1.7-2.8,1.7-3.1,1.7h-0.1l-0.5-0.1c-0.8,1.1-0.5,2.7,0.7,3.5
					c0.4,0.3,0.9,0.4,1.3,0.4l0,0c0.6,0,1.2-0.2,1.7-0.6l7.4-6.5c1-0.9,1.1-2.5,0.2-3.5c-0.5-0.5-1.2-0.8-1.9-0.8l0,0
					c-0.6,0-1.2,0.2-1.6,0.6l-4,3.5C73.6,57.3,73.6,57.9,73.4,58.4z"/>
			</g>
			<g>
				<path class="st0" d="M74.4,64.9c-1,0.9-1.1,2.5-0.2,3.5c0.5,0.5,1.1,0.8,1.8,0.8c0.6,0,1.2-0.2,1.7-0.6l6.2-5.5
					c0.5-0.4,0.8-1.1,0.8-1.7c0.1-0.7-0.2-1.3-0.6-1.8c-0.5-0.5-1.1-0.9-1.8-0.9l0,0c-0.6,0-1.2,0.2-1.7,0.6L74.4,64.9z"/>
			</g>
			<g>
				<path class="st0" d="M86.8,66.4c-0.5-0.5-1.2-0.9-1.9-0.9l0,0c-0.6,0-1.2,0.2-1.6,0.6L81,68.1c-0.5,0.4-0.8,1-0.9,1.7
					c0,0.7,0.2,1.3,0.6,1.8c0.5,0.5,1.1,0.9,1.9,0.9l0,0c0.6,0,1.2-0.2,1.6-0.6l2.2-1.9C87.5,69.1,87.7,67.5,86.8,66.4z"/>
			</g>
		</g>
		<g>
			<path class="st0" d="M91.7,85.2l-1.4-6c-0.2-1-1-1.8-2-2.1c0.6-0.8,0.7-1.9,0.3-2.8l-1.2-2.8L86,73l0.9,2c0.2,0.6,0,1.2-0.6,1.4
				c0,0,0,0,0,0l-2.6,1.1c-0.6,0.2-1.2,0-1.4-0.6c0,0,0,0,0,0v-0.1L81,78.3c0.3,0.4,0.7,0.7,1.2,0.9c-0.3,0.6-0.4,1.3-0.2,1.9l1.4,6
				c0.3,1.3,1.5,2.2,2.8,2.2c0.2,0,0.4,0,0.7-0.1l2.8-0.7C91.2,88.3,92.1,86.8,91.7,85.2z M89.8,86.5c-0.2,0.2-0.4,0.4-0.7,0.5
				l-2.8,0.7c-0.3,0.1-0.6,0-0.8-0.1c-0.3-0.2-0.4-0.4-0.5-0.7l-1.4-6c-0.1-0.6,0.2-1.2,0.8-1.3l2.8-0.7c0.6-0.1,1.2,0.2,1.3,0.8
				l1.4,6C90.1,85.9,90,86.2,89.8,86.5z"/>
		</g>
	</g>
</g>
</svg>
