<?xml version="1.0" encoding="utf-8"?>
<!-- Generator: Adobe Illustrator 22.0.1, SVG Export Plug-In . SVG Version: 6.00 Build 0)  -->
<svg version="1.1" id="Layer_1" xmlns="http://www.w3.org/2000/svg" xmlns:xlink="http://www.w3.org/1999/xlink" x="0px" y="0px"
	 viewBox="0 0 101.5 166.2" style="enable-background:new 0 0 101.5 166.2;" xml:space="preserve">
<style type="text/css">
	.st0{fill:#FFFFFF;}
	.st1{fill:#A21942;}
	.st2{enable-background:new    ;}
</style>
<title>Artboard 23 copy 5</title>
<g id="WHITE_BG">
	<g>
		<rect y="0" class="st0" width="101.5" height="166.2"/>
	</g>
	<g>
		<path class="st1" d="M98.2,162.9h-95v-40.7h95V162.9z M4.2,161.9h93v-38.7h-93V161.9z"/>
	</g>
</g>
<g id="TARGETS">
	<g>
		<g>
			<path class="st1" d="M6.8,130.2v-4.4h1v4.3c-0.1,0.6,0.4,1.2,1,1.3c0.1,0,0.2,0,0.3,0c0.6,0.1,1.2-0.3,1.4-1c0-0.1,0-0.2,0-0.3
				v-4.3h1v4.4c0.1,1.1-0.8,2.1-1.9,2.1c-0.2,0-0.3,0-0.4,0c-1.1,0.2-2.1-0.5-2.4-1.5C6.8,130.6,6.8,130.4,6.8,130.2z"/>
		</g>
		<g>
			<path class="st1" d="M16.1,132.2l-2.8-4.5v4.5h-0.9v-6.4h0.9l2.8,4.5v-4.5h1v6.4L16.1,132.2z"/>
		</g>
		<g>
			<path class="st1" d="M18,132.2v-6.4h1v6.4H18z"/>
		</g>
		<g>
			<path class="st1" d="M24.6,125.8l-2,6.5h-1l-2-6.5h1l1.5,5.2l1.5-5.2L24.6,125.8z"/>
		</g>
		<g>
			<path class="st1" d="M28.8,129.3h-2.6v2H29v0.9h-3.8v-6.4H29v0.9h-2.9v1.8h2.6V129.3z"/>
		</g>
		<g>
			<path class="st1" d="M30.8,132.2h-1v-6.4H32c1.7,0,2.2,0.7,2.2,1.9c0.1,0.7-0.3,1.4-1,1.7l1.3,2.8h-1.2l-1.2-2.6h-1.3V132.2z
				 M30.8,128.7h1.3c0.9,0,1-0.5,1-1s-0.1-1-1-1h-1.3V128.7z"/>
		</g>
		<g>
			<path class="st1" d="M39.2,130.3c0,1.2-0.7,2-2.4,2c-0.6,0-1.3-0.1-1.9-0.4v-1c0.6,0.3,1.2,0.4,1.8,0.4c1.1,0,1.5-0.5,1.5-1.1
				s-0.3-0.9-1.2-1c-1.6-0.2-2.2-0.6-2.2-1.8c0-0.9,0.5-1.8,2.3-1.8c0.6,0,1.2,0.1,1.7,0.3v1c-0.5-0.2-1.1-0.3-1.7-0.3
				c-1,0-1.3,0.4-1.3,1s0.4,0.8,1.2,0.9C38.5,128.7,39.2,129,39.2,130.3z"/>
		</g>
		<g>
			<path class="st1" d="M43,130.6h-2l-0.5,1.6h-1l2-6.4h1l2,6.4h-1L43,130.6z M42,127l-0.8,2.8h1.6L42,127z"/>
		</g>
		<g>
			<path class="st1" d="M45.9,131.3h2.8v0.9H45v-6.4h1L45.9,131.3z"/>
		</g>
		<g>
			<path class="st1" d="M53.9,130.6h-2l-0.5,1.6h-1l2-6.4h1l2,6.4h-1L53.9,130.6z M52.9,127l-0.8,2.8h1.6L52.9,127z"/>
		</g>
		<g>
			<path class="st1" d="M58.2,125.7c0.5,0,1,0.1,1.5,0.3v0.9c-0.5-0.2-0.9-0.3-1.4-0.3c-1.2,0-1.7,0.8-1.7,2.4
				c0,1.6,0.5,2.4,1.7,2.4c0.5,0,1-0.1,1.4-0.3v0.9c-0.5,0.2-1,0.3-1.5,0.3c-1.9,0-2.6-1.2-2.6-3.3S56.3,125.7,58.2,125.7z"/>
		</g>
		<g>
			<path class="st1" d="M63,125.7c0.5,0,1,0.1,1.5,0.3v0.9c-0.5-0.2-0.9-0.3-1.4-0.3c-1.2,0-1.7,0.8-1.7,2.4c0,1.6,0.5,2.4,1.7,2.4
				c0.5,0,1-0.1,1.4-0.3v0.9c-0.5,0.2-1,0.3-1.5,0.3c-1.9,0-2.6-1.2-2.6-3.3S61.1,125.7,63,125.7z"/>
		</g>
		<g>
			<path class="st1" d="M68.9,129.3h-2.7v2h2.9v0.9h-3.9v-6.4h3.9v0.9h-2.9v1.8h2.7V129.3z"/>
		</g>
		<g>
			<path class="st1" d="M74.2,130.3c0,1.2-0.7,2-2.4,2c-0.6,0-1.3-0.1-1.9-0.3v-1c0.6,0.3,1.2,0.4,1.8,0.4c1.2,0,1.5-0.5,1.5-1.1
				s-0.3-0.9-1.2-1c-1.6-0.2-2.2-0.6-2.2-1.8c0-0.9,0.5-1.8,2.3-1.8c0.6,0,1.2,0.1,1.7,0.3v1c-0.5-0.2-1.1-0.3-1.7-0.3
				c-1,0-1.3,0.4-1.3,1s0.4,0.8,1.2,0.9C73.4,128.7,74.2,129,74.2,130.3z"/>
		</g>
		<g>
			<path class="st1" d="M79.1,130.3c0,1.2-0.7,2-2.4,2c-0.6,0-1.3-0.1-1.9-0.4v-1c0.6,0.3,1.2,0.4,1.8,0.4c1.2,0,1.5-0.5,1.5-1.1
				s-0.3-0.9-1.2-1c-1.6-0.2-2.2-0.6-2.2-1.8c0-0.9,0.5-1.8,2.3-1.8c0.6,0,1.2,0.1,1.7,0.3v1c-0.5-0.2-1.1-0.3-1.7-0.3
				c-1,0-1.3,0.4-1.3,1s0.4,0.8,1.2,0.9C78.3,128.7,79.1,129,79.1,130.3z"/>
		</g>
		<g>
			<path class="st1" d="M83.3,126.7v5.5h-1v-5.5h-1.6v-0.9h4.3v0.9L83.3,126.7z"/>
		</g>
		<g>
			<path class="st1" d="M85.1,129c0-1.8,0.4-3.3,2.5-3.3s2.5,1.5,2.5,3.3s-0.4,3.3-2.5,3.3S85.1,130.8,85.1,129z M86.1,129
				c0,1.5,0.3,2.4,1.5,2.4s1.5-0.9,1.5-2.4s-0.3-2.4-1.5-2.4S86.1,127.5,86.1,129L86.1,129z"/>
		</g>
		<g>
			<path class="st1" d="M6.9,134.8H9c1.6,0,2,0.8,2,1.8c0,0.5-0.3,1-0.8,1.3c0.6,0.2,1.1,0.8,1,1.5c0,1-0.5,1.9-2.2,1.9H6.9V134.8z
				 M9.1,135.7H7.8v1.8h1.2c0.8,0,0.9-0.5,0.9-0.9S9.9,135.7,9.1,135.7z M7.8,140.3h1.3c0.9,0,1.1-0.5,1.1-1s-0.3-1-1.1-1H7.8
				L7.8,140.3z"/>
		</g>
		<g>
			<path class="st1" d="M15,139.6h-2l-0.4,1.6h-1l2-6.4h1l2,6.4h-1L15,139.6z M14,136l-0.8,2.8h1.6L14,136z"/>
		</g>
		<g>
			<path class="st1" d="M20.7,141.2l-2.7-4.5v4.5h-1v-6.4h0.9l2.8,4.5v-4.5h1v6.4L20.7,141.2z"/>
		</g>
		<g>
			<path class="st1" d="M24,138.4l-0.5,0.6v2.2h-1v-6.4h1v3l2.3-3H27l-2.4,2.8l2.6,3.6H26L24,138.4z"/>
		</g>
		<g>
			<path class="st1" d="M27.8,141.2v-6.4h1v6.4H27.8z"/>
		</g>
		<g>
			<path class="st1" d="M33.5,141.2l-2.8-4.5v4.5h-0.9v-6.4h0.9l2.8,4.5v-4.5h0.9v6.4H33.5z"/>
		</g>
		<g>
			<path class="st1" d="M35.2,138c0-2,0.7-3.3,2.6-3.3c0.6,0,1.2,0.1,1.8,0.3v1c-0.5-0.2-1.1-0.4-1.7-0.4c-1.3,0-1.8,0.9-1.8,2.4
				s0.5,2.4,1.8,2.4c0.3,0,0.6,0,0.9-0.1v-1.7h-1.1v-0.9h2.1v3.2c-0.6,0.3-1.3,0.4-2,0.4C35.9,141.3,35.2,140,35.2,138z"/>
		</g>
		<g>
			<path class="st1" d="M41.6,140.3l-0.7,2h-0.7l0.2-2H41.6z"/>
		</g>
		<g>
			<path class="st1" d="M43.9,141.2v-6.4h1v6.4H43.9z"/>
		</g>
		<g>
			<path class="st1" d="M49.6,141.2l-2.8-4.5v4.5H46v-6.4h0.9l2.8,4.5v-4.5h0.9v6.4H49.6z"/>
		</g>
		<g>
			<path class="st1" d="M55.6,139.3c0,1.2-0.7,2-2.4,2c-0.6,0-1.3-0.1-1.9-0.4v-1c0.6,0.3,1.2,0.4,1.8,0.4c1.1,0,1.5-0.5,1.5-1.1
				s-0.3-0.9-1.2-1c-1.6-0.2-2.2-0.6-2.2-1.8c0-0.9,0.5-1.9,2.3-1.9c0.6,0,1.2,0.1,1.7,0.3v1c-0.5-0.2-1.1-0.3-1.7-0.3
				c-1,0-1.3,0.4-1.3,1s0.4,0.8,1.2,0.9C54.8,137.7,55.6,138,55.6,139.3z"/>
		</g>
		<g>
			<path class="st1" d="M56.3,139.2v-4.4h1v4.3c0,0.8,0.6,1.4,1.4,1.4s1.4-0.6,1.4-1.4l0,0v-4.3h1v4.4c-0.1,1.3-1.2,2.2-2.5,2.1
				c-1.1-0.1-2-1-2.1-2.1H56.3z"/>
		</g>
		<g>
			<path class="st1" d="M62.7,141.2h-1v-6.4h2.1c1.6,0,2.2,0.7,2.2,1.9c0.1,0.7-0.3,1.4-1,1.7l1.3,2.8h-1.1l-1.2-2.6h-1.3V141.2z
				 M62.7,137.7H64c0.9,0,1-0.5,1-1s-0.1-1-1-1h-1.3V137.7z"/>
		</g>
		<g>
			<path class="st1" d="M70.1,139.6H68l-0.4,1.6h-1l2-6.4h1l2,6.4h-1L70.1,139.6z M69.1,136l-0.8,2.8h1.6L69.1,136z"/>
		</g>
		<g>
			<path class="st1" d="M75.8,141.2l-2.8-4.5v4.5h-1v-6.4h1l2.8,4.5v-4.5h0.9v6.4L75.8,141.2z"/>
		</g>
		<g>
			<path class="st1" d="M80.1,134.7c0.5,0,1,0.1,1.5,0.3v0.9c-0.5-0.2-0.9-0.3-1.4-0.3c-1.2,0-1.7,0.8-1.7,2.4s0.5,2.4,1.7,2.4
				c0.5,0,1-0.1,1.4-0.3v0.9c-0.5,0.2-1,0.3-1.5,0.3c-1.9,0-2.6-1.2-2.6-3.3S78.2,134.7,80.1,134.7z"/>
		</g>
		<g>
			<path class="st1" d="M86.1,138.3h-2.7v2h2.9v0.9h-3.9v-6.4h3.9v0.9h-2.9v1.8h2.7V138.3z"/>
		</g>
		<g>
			<path class="st1" d="M10.1,148.6h-2l-0.4,1.6h-1l2-6.4h1l2,6.4h-1L10.1,148.6z M9.1,145l-0.8,2.8h1.6L9.1,145z"/>
		</g>
		<g>
			<path class="st1" d="M15.8,150.2l-2.8-4.5v4.5h-0.9v-6.4H13l2.8,4.5v-4.5h0.9v6.4L15.8,150.2z"/>
		</g>
		<g>
			<path class="st1" d="M17.6,150.2v-6.4h1.9c2.1,0,2.7,1.4,2.7,3.2s-0.6,3.2-2.7,3.2H17.6z M18.6,149.3h1c1.3,0,1.7-0.9,1.7-2.3
				s-0.4-2.3-1.7-2.3h-1V149.3z"/>
		</g>
		<g>
			<path class="st1" d="M28,147.4h-2.6v2.8h-1v-6.4h3.8v0.9h-2.8v1.8H28V147.4z"/>
		</g>
		<g>
			<path class="st1" d="M29.1,150.2v-6.4h1v6.4H29.1z"/>
		</g>
		<g>
			<path class="st1" d="M34.8,150.2l-2.8-4.5v4.5h-0.9v-6.4H32l2.8,4.5v-4.5h1v6.4H34.8z"/>
		</g>
		<g>
			<path class="st1" d="M39.7,148.6h-2l-0.5,1.6h-1l2-6.4h1l2,6.4h-1L39.7,148.6z M38.7,145l-0.8,2.8h1.6L38.7,145z"/>
		</g>
		<g>
			<path class="st1" d="M45.4,150.2l-2.8-4.5v4.5h-0.9v-6.4h0.9l2.8,4.5v-4.5h0.9v6.4H45.4z"/>
		</g>
		<g>
			<path class="st1" d="M49.7,143.7c0.5,0,1,0.1,1.5,0.3v0.9c-0.5-0.2-0.9-0.3-1.4-0.3c-1.2,0-1.7,0.8-1.7,2.4s0.5,2.4,1.7,2.4
				c0.5,0,1-0.1,1.4-0.3v0.9c-0.5,0.2-1,0.3-1.5,0.3c-1.9,0-2.6-1.2-2.6-3.3S47.8,143.7,49.7,143.7z"/>
		</g>
		<g>
			<path class="st1" d="M52,150.2v-6.4h1v6.4H52z"/>
		</g>
		<g>
			<path class="st1" d="M57.3,148.6h-2l-0.5,1.6h-1l2-6.4h1l2,6.4h-1L57.3,148.6z M56.3,145l-0.8,2.8h1.6L56.3,145z"/>
		</g>
		<g>
			<path class="st1" d="M60.3,149.3H63v0.9h-3.7v-6.4h1L60.3,149.3z"/>
		</g>
		<g>
			<path class="st1" d="M11.1,157.3c0,1.2-0.7,2-2.4,2c-0.6,0-1.3-0.1-1.9-0.3v-1c0.6,0.3,1.2,0.4,1.8,0.4c1.1,0,1.5-0.5,1.5-1.1
				s-0.3-0.9-1.2-1c-1.6-0.2-2.2-0.6-2.2-1.8c0-0.9,0.5-1.9,2.3-1.9c0.6,0,1.2,0.1,1.7,0.3v1c-0.5-0.2-1.1-0.3-1.7-0.3
				c-1,0-1.3,0.4-1.3,1s0.4,0.8,1.2,0.9C10.3,155.7,11.1,156,11.1,157.3z"/>
		</g>
		<g>
			<path class="st1" d="M15.5,156.3h-2.7v2h2.9v0.9h-3.9v-6.4h3.9v0.9h-2.9v1.8h2.7V156.3z"/>
		</g>
		<g>
			<path class="st1" d="M17.5,159.2h-1v-6.4h2.1c1.6,0,2.2,0.8,2.2,1.9c0.1,0.7-0.3,1.4-1,1.7l1.3,2.8H20l-1.1-2.6h-1.3V159.2z
				 M17.5,155.7h1.3c0.9,0,1-0.5,1-1s-0.1-1-1-1h-1.3V155.7z"/>
		</g>
		<g>
			<path class="st1" d="M26,152.8l-2,6.5h-1l-2-6.5h1l1.5,5.2l1.5-5.2H26z"/>
		</g>
		<g>
			<path class="st1" d="M26.7,159.2v-6.4h1v6.4H26.7z"/>
		</g>
		<g>
			<path class="st1" d="M31.2,152.7c0.5,0,1,0.1,1.5,0.3v0.9c-0.5-0.2-0.9-0.3-1.4-0.3c-1.2,0-1.7,0.8-1.7,2.4s0.5,2.4,1.7,2.4
				c0.5,0,1-0.1,1.4-0.3v0.9c-0.5,0.2-1,0.3-1.5,0.3c-1.9,0-2.6-1.2-2.6-3.3S29.4,152.7,31.2,152.7z"/>
		</g>
		<g>
			<path class="st1" d="M37.2,156.3h-2.7v2h2.9v0.9h-3.9v-6.4h3.9v0.9h-2.9v1.8h2.7V156.3z"/>
		</g>
		<g>
			<path class="st1" d="M42.5,157.3c0,1.2-0.7,2-2.4,2c-0.6,0-1.3-0.1-1.9-0.3v-1c0.6,0.3,1.2,0.4,1.8,0.4c1.2,0,1.5-0.5,1.5-1.1
				s-0.3-0.9-1.2-1c-1.5-0.2-2.2-0.6-2.2-1.8c0-0.9,0.5-1.9,2.3-1.9c0.6,0,1.2,0.1,1.7,0.3v1c-0.5-0.2-1.1-0.3-1.7-0.3
				c-1,0-1.3,0.4-1.3,1s0.4,0.8,1.2,0.9C41.7,155.7,42.5,156,42.5,157.3z"/>
		</g>
	</g>
	<g>
		<rect x="3.3" y="24" class="st1" width="94.8" height="94.8"/>
	</g>
	<g>
		<path class="st1" d="M98.2,20.7H3.3V3.3h94.8V20.7z M4.3,19.7h92.8V4.3H4.3L4.3,19.7z"/>
	</g>
	<g class="st2">
		<path class="st1" d="M6.7,6.9h4.5v1.4H9.9v8.8H8.1V8.3H6.7V6.9z"/>
	</g>
	<g class="st2">
		<path class="st1" d="M11.2,17.1l1.9-10.2h1.9L17,17.1h-1.8l-0.3-1.9h-1.8l-0.3,1.9H11.2z M13.3,13.9h1.4L14,9.8h0L13.3,13.9z"/>
	</g>
	<g class="st2">
		<path class="st1" d="M19.6,12.4v4.7h-1.7V6.9h2.5c1.7,0,2.4,0.9,2.4,2.3v1.3c0,1.1-0.4,1.7-1.4,2l1.6,4.6h-1.8L19.6,12.4z
			 M19.6,8.3v3.2h0.6c0.6,0,0.8-0.3,0.8-0.8V9.2c0-0.6-0.3-0.8-0.8-0.8H19.6z"/>
	</g>
	<g class="st2">
		<path class="st1" d="M26.4,11.7h2.4v5.4h-1.2V16c-0.2,0.8-0.7,1.2-1.6,1.2c-1.5,0-2.1-1.2-2.1-2.7V9.6c0-1.6,0.8-2.7,2.6-2.7
			c1.9,0,2.4,1.1,2.4,2.6v0.9h-1.6v-1c0-0.6-0.2-1-0.9-1c-0.6,0-0.9,0.4-0.9,1v5.5c0,0.6,0.3,1,0.8,1c0.6,0,0.8-0.3,0.8-1V13h-0.8
			V11.7z"/>
	</g>
	<g class="st2">
		<path class="st1" d="M30.2,6.9h4.1v1.4h-2.4v2.9h1.7v1.4h-1.7v3.1h2.4v1.4h-4.1V6.9z"/>
	</g>
	<g class="st2">
		<path class="st1" d="M35.1,6.9h4.5v1.4h-1.4v8.8h-1.7V8.3h-1.4V6.9z"/>
	</g>
	<g class="st2">
		<path class="st1" d="M74.3,14.6v-1.1c0-1,0.3-1.7,1.1-2c-0.7-0.3-1-0.9-1-1.8V9.3c0-1.6,0.8-2.4,2.4-2.4c1.6,0,2.4,0.9,2.4,2.4
			v0.4c0,0.8-0.3,1.4-1,1.8c0.8,0.4,1.1,1.1,1.1,2v1.1c0,1.5-0.7,2.6-2.5,2.6C75,17.2,74.3,16.2,74.3,14.6z M77.7,14.8v-1.6
			c0-0.6-0.2-1-0.8-1c-0.6,0-0.8,0.4-0.8,1v1.6c0,0.6,0.2,1,0.8,1C77.5,15.8,77.7,15.4,77.7,14.8z M77.6,9.9V9.2c0-0.6-0.2-1-0.8-1
			c-0.6,0-0.8,0.4-0.8,1v0.7c0,0.6,0.2,1,0.8,1C77.4,10.8,77.6,10.5,77.6,9.9z"/>
	</g>
	<g class="st2">
	</g>
	<g class="st2">
		<path class="st1" d="M82.3,10.8c0.7,0,1.2,0.6,1.2,1.2c0,0.7-0.6,1.2-1.2,1.2c-0.7,0-1.2-0.6-1.2-1.2C81,11.4,81.6,10.8,82.3,10.8
			z"/>
	</g>
	<g class="st2">
		<path class="st1" d="M87.9,6.9v10.2h-1.7V9.3h0L85,10.6h0V8.8l1.6-1.8H87.9z"/>
		<path class="st1" d="M89.3,14.5V9.6c0-1.6,0.8-2.7,2.5-2.7c1.7,0,2.5,1.2,2.5,2.7v4.9c0,1.6-0.8,2.7-2.5,2.7
			C90.1,17.2,89.3,16.1,89.3,14.5z M92.7,14.8V9.3c0-0.6-0.2-1-0.8-1c-0.6,0-0.8,0.4-0.8,1v5.5c0,0.6,0.2,1,0.8,1
			C92.5,15.8,92.7,15.4,92.7,14.8z"/>
	</g>
	<g>
		<g>
			<g>
				<path class="st0" d="M42.1,79.9c1.9,0,3.4-1.5,3.4-3.3s-1.5-3.4-3.3-3.4c-1.9,0-3.4,1.5-3.4,3.3c0,0,0,0,0,0
					C38.8,78.4,40.3,79.9,42.1,79.9z"/>
			</g>
			<g>
				<path class="st0" d="M46,80.7h-0.2h-7.3h-0.3c-2.3,0.2-4.1,2.1-4.1,4.4v9.3c0,0.5,0.3,0.9,0.7,1.1c0,0,0,0.1,0,0.1l-3,15.8
					c0,0.3,0.1,0.5,0.4,0.6h0.1c0.2,0,0.4-0.2,0.5-0.4l3-15.8c0-0.1,0-0.1,0-0.2c0.6-0.1,1-0.7,1-1.3v-8c0-0.3,0.1-0.7,0.6-0.7
					c0.4,0,0.5,0.4,0.5,0.7v24c0,1,0.8,1.9,1.9,1.9c1,0,1.9-0.8,1.9-1.9V96.5c0-0.3,0.2-0.5,0.4-0.5c0,0,0.1,0,0.1,0l0,0
					c0.3,0,0.5,0.2,0.5,0.5c0,0,0,0,0,0.1v13.8c0,1,0.8,1.9,1.9,1.9c1,0,1.9-0.8,1.9-1.9v-24c0-0.3,0.1-0.7,0.5-0.7
					c0.5,0,0.6,0.4,0.6,0.7v8c0.1,0.7,0.7,1.3,1.4,1.2c0.6-0.1,1.1-0.6,1.2-1.2v-9.3C50.2,82.8,48.3,80.8,46,80.7z"/>
			</g>
			<g>
				<path class="st0" d="M81.8,79.8c-1.8,0-3.3-1.5-3.3-3.3s1.5-3.3,3.3-3.3c1.8,0,3.3,1.5,3.3,3.3c0,0,0,0,0,0
					C85.1,78.3,83.6,79.8,81.8,79.8z"/>
			</g>
			<g>
				<path class="st0" d="M77.9,81.1h0.2h7.2h0.2c2.3,0.2,4,2.1,4,4.4v9.2c-0.1,0.7-0.7,1.2-1.4,1.2c-0.6-0.1-1.1-0.5-1.2-1.2v-7.9
					c0-0.3-0.1-0.7-0.6-0.7c-0.4,0-0.4,0.4-0.5,0.7v23.6c-0.1,1-1,1.8-2,1.7c-0.9-0.1-1.6-0.8-1.7-1.7V96.7c0-0.3-0.2-0.5-0.5-0.5
					c0,0,0,0-0.1,0l0,0c-0.3,0-0.5,0.2-0.5,0.5c0,0,0,0,0,0.1v13.6c-0.1,1-1,1.8-2,1.7c-0.9-0.1-1.6-0.8-1.7-1.7V86.7
					c0-0.2-0.1-0.7-0.5-0.7c-0.5,0-0.6,0.4-0.6,0.7v7.9c-0.1,0.7-0.7,1.2-1.4,1.2c-0.6-0.1-1.1-0.5-1.2-1.2v-9.2
					C73.9,83.2,75.6,81.3,77.9,81.1z"/>
			</g>
			<g>
				<path class="st0" d="M20.9,81.3c-1.7,0-3.1-1.4-3.1-3.1s1.4-3.1,3.1-3.1s3.1,1.4,3.1,3.1l0,0C24,79.9,22.6,81.3,20.9,81.3z"/>
			</g>
			<g>
				<path class="st0" d="M11.9,93.8l2.6-8.5c0,0,0.9-2.5,3-2.5h6.6c2.1,0,3,2.5,3,2.5l2.6,8.5c0,0,0.5,1.6-0.9,1.9s-1.7-1.1-1.7-1.1
					l-2.1-7.1c0,0-0.1-0.5-0.5-0.4s-0.3,0.7-0.3,0.7l3.7,13.3h-3.4v9.5c-0.1,0.9-0.9,1.6-1.8,1.5c-0.8-0.1-1.4-0.7-1.5-1.5v-9.5
					h-0.9v9.5c-0.1,0.9-0.9,1.6-1.8,1.5c-0.8-0.1-1.4-0.7-1.5-1.5v-9.5h-3.4l3.6-13.3c0,0,0.2-0.6-0.2-0.7s-0.5,0.4-0.5,0.4
					l-2.1,7.1c0,0-0.4,1.5-1.7,1.1S11.9,93.8,11.9,93.8z"/>
			</g>
			<g>
				<path class="st0" d="M53.5,94.9l2-6.7l0.4-1.3c0,0,0.9-2.3,2.8-2.3h6.2c1.9,0,2.8,2.3,2.8,2.3l0.4,1.2l2.1,6.7
					c0,0,0.4,1.5-0.8,1.8s-1.6-1.1-1.6-1.1l-2-6.7c0,0,0-0.1,0-0.1c-0.1-0.2-0.3-0.3-0.5-0.3c-0.4,0.1-0.2,0.7-0.2,0.7l3.4,12.5
					h-3.2v8.9c0,0.8-0.7,1.5-1.5,1.5c-0.8,0-1.5-0.7-1.5-1.5v-8.9h-0.9v8.9c0,0.9-0.7,1.5-1.5,1.5s-1.5-0.7-1.5-1.5l0,0v-8.9h-3.2
					l3.4-12.5c0,0,0.2-0.6-0.2-0.7s-0.4,0.2-0.5,0.3V89l-2,6.7c0,0-0.4,1.4-1.6,1.1S53.5,94.9,53.5,94.9z"/>
			</g>
			<g>
				<g>
					<path class="st0" d="M58.8,77.4c0-0.5-0.5-1-1.6-0.5c-1.3,0.6-1.1,2.5-1.1,2.5c0,0.2,0,0.3,0.1,0.2c0.1-0.3,0.4-0.8,1.4-0.9
						c0.2,0,0.4-0.1,0.5-0.2c0.2-0.3,0.4-0.6,0.6-0.9C58.8,77.6,58.8,77.5,58.8,77.4z"/>
				</g>
				<g>
					<path class="st0" d="M66.3,76.9c-1-0.5-1.5,0.1-1.6,0.5c0,0.1,0,0.2,0,0.2c0.2,0.2,0.4,0.5,0.6,0.8c0.2,0.1,0.4,0.2,0.6,0.2
						c1,0.1,1.3,0.6,1.4,0.9c0,0.1,0.1,0,0.1-0.2C67.4,79.4,67.6,77.5,66.3,76.9z"/>
				</g>
				<g>
					<path class="st0" d="M61.8,77c-1.9,0-3.5,1.6-3.5,3.5c0,1.9,1.6,3.5,3.5,3.5s3.5-1.6,3.5-3.5c0,0,0,0,0,0
						C65.3,78.6,63.7,77,61.8,77z"/>
				</g>
			</g>
		</g>
		<g>
			<g>
				<path class="st0" d="M50.7,30.7c-10.3,0-18.6,8.3-18.6,18.6c0,10.3,8.3,18.6,18.6,18.6c10.3,0,18.6-8.3,18.6-18.6c0,0,0,0,0,0
					C69.3,39,61,30.7,50.7,30.7z M50.7,66.5c-9.5,0-17.2-7.7-17.2-17.2c0-9.5,7.7-17.2,17.2-17.2c9.5,0,17.2,7.7,17.2,17.2
					c0,0,0,0,0,0C67.9,58.8,60.2,66.5,50.7,66.5z"/>
			</g>
			<g>
				<path class="st0" d="M50.7,33c-9,0-16.3,7.3-16.3,16.3s7.3,16.3,16.3,16.3c9,0,16.3-7.3,16.3-16.3c0,0,0,0,0,0
					C67,40.3,59.7,33,50.7,33z M65.4,46.7c0,0.2,0,0.4-0.1,0.5c-0.1,0.1-0.3,0.3-0.4,0.3h-0.1c-0.1,0-0.3,0-0.4-0.1
					C64.1,47.3,64,47.2,64,47c0-0.2,0-0.4,0.1-0.5c0.1-0.1,0.3-0.3,0.4-0.3C64.9,46.1,65.3,46.4,65.4,46.7z M64.7,44.2
					c0.1,0.4-0.1,0.8-0.4,0.9c-0.1,0-0.2,0-0.2,0c-0.1,0-0.2,0-0.3-0.1c-0.4-0.2-0.5-0.6-0.4-0.9c0.1-0.2,0.2-0.3,0.4-0.4
					C64.2,43.6,64.6,43.8,64.7,44.2C64.7,44.2,64.7,44.2,64.7,44.2z M62.3,42c0-0.2,0.2-0.3,0.3-0.4c0.3-0.2,0.8-0.1,1,0.2
					c0,0,0,0,0,0c0.1,0.2,0.1,0.4,0.1,0.5c-0.1,0.3-0.4,0.5-0.7,0.5c-0.1,0-0.1,0-0.2,0C62.5,42.8,62.3,42.5,62.3,42L62.3,42z
					 M57.2,36.7c0.1-0.2,0.3-0.3,0.4-0.3c0.2,0,0.4,0,0.5,0.1c0.3,0.2,0.5,0.6,0.3,0.9c0,0,0,0,0,0.1c-0.1,0.2-0.2,0.3-0.4,0.3h-0.2
					c-0.1,0-0.2,0-0.3-0.1c-0.2-0.1-0.3-0.3-0.3-0.4C57.1,37.1,57.1,36.9,57.2,36.7z M55.8,47.5c-0.1,0-0.2-0.1-0.2-0.2v0v-1H58v1
					c0,0.1-0.1,0.2-0.2,0.2h0v6h-1.9L55.8,47.5L55.8,47.5z M50.8,45.6H43V45h15.7v0.5H50.8z M49.8,47.5c-0.1,0-0.2-0.1-0.2-0.2v0v-1
					h2.5v1c0,0.1-0.1,0.2-0.2,0.2h0h0v6h-1.9L49.8,47.5L49.8,47.5z M43.9,47.5c-0.1,0-0.2-0.1-0.2-0.2v0v-1h2.5v1
					c0,0.1-0.1,0.2-0.2,0.2h0l0,0v6h-2L43.9,47.5L43.9,47.5z M50.8,44.5h-8.4l-0.3-0.3c-0.1-0.1-0.1-0.2,0-0.4c0,0,0,0,0,0l8.7-3.2
					l8.7,3.2c0.1,0.1,0.1,0.2,0,0.4c0,0,0,0,0,0l-0.3,0.3H50.8z M54.9,35.8c0.1-0.2,0.2-0.3,0.4-0.4c0.2-0.1,0.4-0.1,0.5,0
					c0.4,0.1,0.6,0.5,0.4,0.9c0,0,0,0,0,0c-0.1,0.2-0.2,0.3-0.4,0.4c-0.1,0-0.2,0.1-0.3,0.1c-0.1,0-0.2,0-0.2,0
					c-0.2-0.1-0.3-0.2-0.3-0.4C54.9,36.1,54.9,36,54.9,35.8z M52.8,34.8c0.1-0.1,0.3-0.2,0.5-0.1c0.4,0.1,0.6,0.4,0.6,0.8
					c0,0,0,0,0,0c0,0.2-0.1,0.4-0.3,0.5c-0.1,0.1-0.3,0.1-0.4,0.1h-0.1c-0.2,0-0.4-0.1-0.5-0.3c-0.1-0.2-0.1-0.3-0.1-0.5
					C52.5,35.1,52.6,34.9,52.8,34.8L52.8,34.8z M50.7,34.4c0.4,0,0.7,0.3,0.7,0.7l0,0c0,0.4-0.3,0.7-0.7,0.7S50,35.5,50,35.1
					C50.1,34.8,50.4,34.4,50.7,34.4L50.7,34.4z M47.7,34.9c0.1-0.2,0.3-0.3,0.5-0.3c0.4-0.1,0.7,0.2,0.8,0.6c0,0.2,0,0.4-0.1,0.5
					c-0.1,0.2-0.3,0.3-0.5,0.3h-0.1c-0.3,0-0.6-0.2-0.7-0.6C47.6,35.3,47.6,35.1,47.7,34.9L47.7,34.9z M45.3,35.7
					c0.1-0.2,0.2-0.3,0.4-0.4c0.2-0.1,0.4-0.1,0.5,0c0.2,0.1,0.3,0.2,0.4,0.4c0.1,0.4-0.1,0.8-0.4,0.9c-0.1,0-0.2,0-0.2,0
					c-0.3,0-0.6-0.2-0.7-0.5C45.2,36,45.2,35.9,45.3,35.7L45.3,35.7z M43.4,36.4c0.2-0.1,0.4-0.1,0.5-0.1c0.2,0.1,0.3,0.2,0.4,0.3
					c0.1,0.2,0.1,0.4,0.1,0.5c0,0.2-0.2,0.3-0.3,0.4c-0.1,0.1-0.2,0.1-0.3,0.1c-0.3,0-0.5-0.1-0.6-0.3C42.9,37.1,43,36.6,43.4,36.4
					L43.4,36.4z M41.2,37.9c0.3-0.2,0.7-0.2,1,0.1c0.3,0.3,0.2,0.7-0.1,1c-0.1,0.1-0.3,0.2-0.5,0.2c-0.2,0-0.4-0.1-0.5-0.2
					C40.9,38.6,40.9,38.2,41.2,37.9L41.2,37.9z M37.9,41.9c0.2-0.3,0.6-0.5,0.9-0.3c0,0,0,0,0.1,0c0.3,0.2,0.5,0.7,0.3,1
					c0,0,0,0,0,0C39,42.9,38.8,43,38.6,43c-0.1,0-0.2,0-0.3-0.1c-0.4-0.1-0.5-0.5-0.4-0.9C37.8,42,37.8,41.9,37.9,41.9L37.9,41.9z
					 M36.8,44.3c0.1-0.4,0.5-0.6,0.9-0.4c0,0,0,0,0,0c0.4,0.1,0.5,0.6,0.4,0.9c-0.1,0.2-0.2,0.3-0.3,0.4c-0.1,0-0.2,0.1-0.3,0.1
					c-0.1,0-0.2,0-0.2,0C36.9,45.1,36.6,44.7,36.8,44.3C36.7,44.3,36.8,44.3,36.8,44.3L36.8,44.3z M37,46.2c0.2,0,0.3,0.1,0.5,0.3
					c0.2,0.3,0.2,0.8-0.2,1c-0.1,0.1-0.3,0.1-0.4,0.1h-0.1c-0.4-0.1-0.6-0.4-0.6-0.8C36.2,46.4,36.5,46.1,37,46.2L37,46.2z M36,49.3
					c0-0.2,0.1-0.4,0.2-0.5c0.1-0.1,0.3-0.2,0.5-0.2l0,0c0.4,0,0.7,0.3,0.7,0.7s-0.3,0.7-0.7,0.7S36,49.8,36,49.3
					C36,49.4,36,49.3,36,49.3z M36.2,51.9c-0.1-0.4,0.2-0.7,0.6-0.8c0.2,0,0.4,0,0.5,0.1c0.1,0.1,0.3,0.3,0.3,0.5
					c0,0.2,0,0.4-0.1,0.5c-0.1,0.1-0.3,0.3-0.5,0.3h-0.1C36.5,52.5,36.2,52.3,36.2,51.9L36.2,51.9z M37.5,54.9
					c-0.3,0-0.6-0.2-0.7-0.5c-0.1-0.4,0.1-0.8,0.4-0.9c0,0,0,0,0,0c0.4-0.1,0.8,0,0.9,0.4c0,0,0,0,0,0c0.1,0.4,0,0.8-0.4,0.9
					c0,0,0,0,0,0C37.6,54.9,37.5,54.9,37.5,54.9L37.5,54.9z M38.8,57c-0.1,0.1-0.2,0.1-0.3,0.1c-0.3,0-0.5-0.1-0.6-0.3
					c-0.2-0.3-0.1-0.7,0.2-1c0,0,0,0,0.1,0l0,0c0.3-0.2,0.8-0.1,1,0.3C39.3,56.3,39.2,56.8,38.8,57L38.8,57L38.8,57z M39.4,39.8
					c0.1-0.1,0.3-0.2,0.5-0.2c0.2,0,0.4,0,0.5,0.2c0.3,0.2,0.3,0.7,0.1,1c0,0,0,0,0,0c-0.3,0.3-0.7,0.3-1,0.1
					C39.1,40.5,39.1,40.1,39.4,39.8C39.3,39.8,39.3,39.8,39.4,39.8z M40.4,59c-0.1,0.1-0.3,0.2-0.5,0.2c-0.2,0-0.4-0.1-0.5-0.2
					c-0.2-0.3-0.2-0.7,0.1-1c0.3-0.2,0.7-0.2,1,0.1C40.7,58.3,40.6,58.7,40.4,59L40.4,59z M42.2,60.6c-0.2,0.3-0.7,0.3-1,0.1
					s-0.3-0.7-0.1-1l0,0l0,0c0.1-0.1,0.3-0.2,0.5-0.2c0.2,0,0.4,0,0.5,0.2c0.1,0.1,0.2,0.3,0.2,0.5C42.4,60.3,42.3,60.5,42.2,60.6
					L42.2,60.6z M42.4,55.1H43v-0.9c0-0.1,0-0.1,0.1-0.1c0,0,0,0,0,0h15.5c0.1,0,0.1,0,0.1,0.1c0,0,0,0,0,0v0.9h0.6v1H42.4
					L42.4,55.1z M44.3,61.9c-0.1,0.2-0.4,0.3-0.6,0.3c-0.1,0-0.2,0-0.3-0.1c-0.3-0.2-0.5-0.6-0.3-1c0,0,0,0,0,0
					c0.2-0.3,0.6-0.5,1-0.3C44.4,61.1,44.5,61.6,44.3,61.9L44.3,61.9L44.3,61.9z M46.6,62.9c-0.1,0.3-0.4,0.5-0.7,0.5
					c-0.1,0-0.2,0-0.2,0c-0.4-0.1-0.6-0.5-0.4-0.9c0,0,0,0,0,0l0,0c0.1-0.4,0.5-0.6,0.9-0.4C46.5,62.1,46.7,62.5,46.6,62.9
					L46.6,62.9L46.6,62.9z M48.3,64h-0.1c-0.4-0.1-0.6-0.4-0.6-0.8c0,0,0,0,0,0l0,0c0.1-0.4,0.4-0.6,0.8-0.6c0,0,0,0,0,0
					c0.2,0,0.4,0.1,0.5,0.3c0.1,0.1,0.2,0.3,0.1,0.5C48.9,63.8,48.6,64,48.3,64z M50.7,64.2c-0.4,0-0.7-0.3-0.7-0.7s0.3-0.7,0.7-0.7
					s0.7,0.3,0.7,0.7c0,0,0,0,0,0C51.4,63.9,51.1,64.2,50.7,64.2L50.7,64.2z M53.9,63.2c0.1,0.4-0.2,0.7-0.6,0.8c0,0,0,0,0,0h-0.1
					c-0.4,0-0.7-0.3-0.7-0.7c0-0.4,0.3-0.7,0.7-0.7C53.5,62.6,53.8,62.9,53.9,63.2L53.9,63.2z M56.2,63c-0.1,0.2-0.2,0.3-0.4,0.4
					c-0.1,0-0.2,0-0.2,0c-0.3,0-0.6-0.2-0.7-0.5c-0.1-0.4,0.1-0.8,0.4-0.9c0.2-0.1,0.4-0.1,0.5,0C56.2,62.2,56.4,62.6,56.2,63
					L56.2,63z M58.5,61.8c-0.1,0.2-0.2,0.3-0.3,0.4c-0.1,0.1-0.2,0.1-0.3,0.1h-0.2c-0.2-0.1-0.3-0.2-0.4-0.3
					c-0.1-0.2-0.1-0.4-0.1-0.5c0-0.2,0.2-0.3,0.3-0.4c0.1-0.1,0.3-0.2,0.5-0.2c0.2,0,0.3,0.2,0.4,0.3C58.5,61.4,58.5,61.6,58.5,61.8
					L58.5,61.8z M60.3,60.8c-0.1,0.1-0.3,0.2-0.5,0.2h-0.1c-0.2,0-0.4-0.1-0.5-0.2c-0.1-0.1-0.2-0.3-0.2-0.5c0-0.4,0.4-0.7,0.8-0.6
					c0.2,0,0.4,0.1,0.5,0.3C60.6,60.1,60.5,60.5,60.3,60.8L60.3,60.8z M60.4,39c-0.1,0.1-0.3,0.2-0.5,0.2h-0.1
					c-0.2,0-0.3-0.1-0.5-0.2c-0.1-0.1-0.2-0.3-0.2-0.5c0-0.4,0.3-0.7,0.6-0.8c0.4,0,0.7,0.3,0.8,0.6C60.5,38.7,60.5,38.9,60.4,39z
					 M62.1,58.9c-0.1,0.2-0.3,0.2-0.5,0.2c-0.2,0-0.3-0.1-0.5-0.2c-0.3-0.2-0.3-0.7-0.1-1c0,0,0,0,0,0c0.1-0.1,0.3-0.2,0.5-0.2
					c0.2,0,0.4,0,0.5,0.2C62.3,58.2,62.3,58.6,62.1,58.9L62.1,58.9z M62,40.7c-0.1,0.1-0.3,0.2-0.5,0.2h-0.1c-0.2,0-0.4-0.1-0.5-0.2
					c-0.1-0.1-0.2-0.3-0.2-0.5c0-0.2,0.1-0.4,0.2-0.5c0.3-0.3,0.7-0.2,1,0.1c0.1,0.1,0.2,0.3,0.2,0.5C62.2,40.5,62.1,40.6,62,40.7z
					 M63.6,56.7c-0.1,0.2-0.2,0.3-0.4,0.3c-0.1,0-0.1,0-0.2,0c-0.3,0-0.6-0.2-0.7-0.5c0-0.2,0-0.4,0.1-0.5c0.1-0.2,0.2-0.3,0.4-0.3
					c0.2-0.1,0.4,0,0.5,0.1C63.7,55.9,63.8,56.4,63.6,56.7C63.6,56.7,63.6,56.7,63.6,56.7L63.6,56.7z M64.7,54.4
					c-0.1,0.3-0.4,0.5-0.7,0.5c-0.1,0-0.2,0-0.2,0c-0.4-0.1-0.6-0.5-0.4-0.9c0,0,0,0,0,0c0.1-0.4,0.5-0.6,0.9-0.4c0,0,0,0,0,0
					C64.6,53.7,64.8,54,64.7,54.4L64.7,54.4z M65,52.4c-0.1,0.1-0.3,0.1-0.4,0.1h-0.1c-0.4-0.1-0.6-0.4-0.6-0.8
					c0-0.2,0.1-0.3,0.3-0.5c0.2-0.1,0.3-0.2,0.5-0.1c0.4,0.1,0.6,0.4,0.6,0.8C65.3,52.1,65.2,52.3,65,52.4L65,52.4z M64.9,50
					c-0.4,0-0.7-0.3-0.7-0.7c0-0.4,0.3-0.7,0.7-0.7c0.4,0,0.7,0.3,0.7,0.7c0,0,0,0,0,0c0,0.2-0.1,0.4-0.2,0.5
					C65.3,49.9,65.1,50,64.9,50z"/>
			</g>
		</g>
	</g>
</g>
</svg>
