<?xml version="1.0" encoding="utf-8"?>
<!-- Generator: Adobe Illustrator 22.0.1, SVG Export Plug-In . SVG Version: 6.00 Build 0)  -->
<svg version="1.1" id="Layer_1" xmlns="http://www.w3.org/2000/svg" xmlns:xlink="http://www.w3.org/1999/xlink" x="0px" y="0px"
	 viewBox="0 0 101.5 166.5" style="enable-background:new 0 0 101.5 166.5;" xml:space="preserve">
<style type="text/css">
	.st0{fill:#FFFFFF;}
	.st1{fill:#A21942;}
	.st2{enable-background:new    ;}
</style>
<title>Artboard 23 copy</title>
<g id="WHITE_BG">
	<g>
		<rect y="0" class="st0" width="101.5" height="166.2"/>
	</g>
</g>
<g id="TARGETS">
	<g>
		<g>
			<path class="st1" d="M7.8,132.2h-1v-6.4h2.1c1.6,0,2.2,1,2.2,2c0,1-0.6,2-2.2,2H7.8V132.2z M7.8,128.9H9c0.6,0,1.1-0.5,1.1-1.1
				s-0.5-1.1-1.1-1.1l0,0H7.8V128.9z"/>
		</g>
		<g>
			<path class="st1" d="M12.6,132.2h-1v-6.4h2.1c1.6,0,2.2,0.7,2.2,1.9c0.1,0.7-0.3,1.4-1,1.7l1.3,2.8H15l-1.2-2.6h-1.3v2.6H12.6z
				 M12.6,128.7h1.3c0.9,0,1-0.5,1-1s-0.1-1-1-1h-1.3V128.7z"/>
		</g>
		<g>
			<path class="st1" d="M16.5,129c0-1.8,0.4-3.3,2.5-3.3s2.5,1.5,2.5,3.3s-0.4,3.3-2.5,3.3S16.5,130.8,16.5,129z M17.5,129
				c0,1.5,0.3,2.4,1.5,2.4s1.5-0.9,1.5-2.4s-0.3-2.4-1.5-2.4S17.5,127.5,17.5,129L17.5,129z"/>
		</g>
		<g>
			<path class="st1" d="M25.6,131.3h-0.9l-1.6-3.9v4.8h-0.9v-6.4h1.2l1.7,4.3l1.7-4.3H28v6.4h-1v-4.8L25.6,131.3z"/>
		</g>
		<g>
			<path class="st1" d="M29,129c0-1.8,0.4-3.3,2.5-3.3s2.5,1.5,2.5,3.3s-0.4,3.3-2.5,3.3S29,130.8,29,129z M30,129
				c0,1.5,0.3,2.4,1.5,2.4s1.5-0.9,1.5-2.4s-0.3-2.4-1.5-2.4S29.9,127.5,30,129L30,129z"/>
		</g>
		<g>
			<path class="st1" d="M36.6,126.7v5.5h-1v-5.5H34v-0.9h4.3v0.9H36.6z"/>
		</g>
		<g>
			<path class="st1" d="M42.4,129.3h-2.6v2h2.9v0.9h-3.9v-6.4h3.9v0.9h-2.9v1.8h2.7L42.4,129.3z"/>
		</g>
		<g>
			<path class="st1" d="M47.6,129.6v2.6h-1v-2.6l-2.2-3.8h1.1l1.6,3l1.6-3h1.1L47.6,129.6z"/>
		</g>
		<g>
			<path class="st1" d="M49.8,129c0-1.8,0.4-3.3,2.5-3.3s2.5,1.5,2.5,3.3s-0.4,3.3-2.5,3.3S49.8,130.8,49.8,129z M50.8,129
				c0,1.5,0.3,2.4,1.5,2.4s1.5-0.9,1.5-2.4s-0.3-2.4-1.5-2.4S50.8,127.5,50.8,129L50.8,129z"/>
		</g>
		<g>
			<path class="st1" d="M55.5,130.2v-4.4h1v4.3c0,0.8,0.6,1.4,1.4,1.4s1.4-0.6,1.4-1.4v-4.3h1v4.4c-0.1,1.3-1.2,2.2-2.5,2.1
				C56.5,132.2,55.6,131.3,55.5,130.2L55.5,130.2z"/>
		</g>
		<g>
			<path class="st1" d="M63.3,126.7v5.5h-1v-5.5h-1.6v-0.9H65v0.9H63.3z"/>
		</g>
		<g>
			<path class="st1" d="M69.2,132.2v-2.9h-2.6v2.9h-1v-6.4h1v2.6h2.6v-2.6h1v6.4H69.2z"/>
		</g>
		<g>
			<path class="st1" d="M10.5,138.3H7.8v2h2.9v0.9H6.9v-6.4h3.9v0.9h-3v1.8h2.6v0.8H10.5z"/>
		</g>
		<g>
			<path class="st1" d="M15,140.3h-0.9l-1.6-3.9v4.8h-1v-6.4h1.2l1.7,4.4l1.7-4.4h1.2v6.4h-1v-4.8L15,140.3z"/>
		</g>
		<g>
			<path class="st1" d="M19.4,141.2h-1v-6.4h2c1.6,0,2.2,1,2.2,2s-0.6,2-2.2,2h-1.1L19.4,141.2z M19.4,137.9h1.1
				c0.6,0,1.1-0.5,1.1-1.1s-0.5-1.1-1.1-1.1h-1.1V137.9z"/>
		</g>
		<g>
			<path class="st1" d="M24.1,140.3h2.8v0.9h-3.7v-6.4h1L24.1,140.3z"/>
		</g>
		<g>
			<path class="st1" d="M26.9,138c0-1.8,0.4-3.3,2.5-3.3s2.5,1.5,2.5,3.3s-0.4,3.3-2.5,3.3S26.9,139.8,26.9,138z M27.9,138
				c0,1.5,0.3,2.4,1.5,2.4s1.5-0.9,1.5-2.4s-0.3-2.4-1.5-2.4S27.9,136.5,27.9,138L27.9,138z"/>
		</g>
		<g>
			<path class="st1" d="M35.1,138.6v2.6h-1v-2.6l-2.1-3.8h1.1l1.6,3l1.6-3h1.1L35.1,138.6z"/>
		</g>
		<g>
			<path class="st1" d="M41.2,140.3h-0.9l-1.6-3.9v4.8h-1v-6.4H39l1.7,4.4l1.7-4.4h1.2v6.4h-1v-4.8L41.2,140.3z"/>
		</g>
		<g>
			<path class="st1" d="M48.2,138.3h-2.7v2h2.9v0.9h-3.9v-6.4h3.9v0.9h-2.9v1.8h2.7V138.3z"/>
		</g>
		<g>
			<path class="st1" d="M53,141.2l-2.8-4.5v4.5h-0.9v-6.4h0.9l2.8,4.5v-4.5h0.9v6.4H53z"/>
		</g>
		<g>
			<path class="st1" d="M57.2,135.7v5.5h-1v-5.5h-1.6v-0.9h4.3v0.9H57.2z"/>
		</g>
		<g>
			<path class="st1" d="M59.6,140.3l-0.7,2h-0.7l0.2-2H59.6z"/>
		</g>
		<g>
			<path class="st1" d="M10.5,147.3H7.8v2h2.9v0.9H6.9v-6.4h3.9v0.9h-3v1.8h2.6v0.8H10.5z"/>
		</g>
		<g>
			<path class="st1" d="M11.6,150.2v-6.4h1.9c2.1,0,2.7,1.4,2.7,3.2s-0.6,3.2-2.7,3.2H11.6z M12.6,149.3h1c1.3,0,1.7-0.9,1.7-2.3
				s-0.4-2.3-1.7-2.3h-1V149.3z"/>
		</g>
		<g>
			<path class="st1" d="M16.9,148.2v-4.4h1v4.3c-0.1,0.6,0.4,1.2,1,1.3c0.1,0,0.2,0,0.3,0c0.6,0.1,1.2-0.3,1.4-1c0-0.1,0-0.2,0-0.3
				v-4.3h1v4.4c0.1,1.1-0.8,2.1-1.9,2.1c-0.2,0-0.3,0-0.4,0c-1.1,0.2-2.1-0.6-2.3-1.7C16.9,148.5,16.9,148.4,16.9,148.2z"/>
		</g>
		<g>
			<path class="st1" d="M24.8,143.7c0.5,0,1,0.1,1.5,0.3v0.9c-0.5-0.2-0.9-0.3-1.4-0.3c-1.2,0-1.7,0.8-1.7,2.4s0.5,2.4,1.7,2.4
				c0.5,0,1-0.1,1.4-0.3v0.9c-0.5,0.2-1,0.3-1.5,0.3c-1.9,0-2.6-1.2-2.6-3.3S22.9,143.7,24.8,143.7z"/>
		</g>
		<g>
			<path class="st1" d="M30.2,148.6h-2l-0.5,1.6h-1l2-6.4h1l2,6.4h-1L30.2,148.6z M29.2,145l-0.8,2.8H30L29.2,145z"/>
		</g>
		<g>
			<path class="st1" d="M33.7,144.7v5.5h-1v-5.5h-1.6v-0.9h4.3v0.9H33.7z"/>
		</g>
		<g>
			<path class="st1" d="M36,150.2v-6.4h1v6.4H36z"/>
		</g>
		<g>
			<path class="st1" d="M38,147c0-1.8,0.4-3.3,2.5-3.3s2.5,1.5,2.5,3.3s-0.4,3.3-2.5,3.3S38,148.8,38,147z M39,147
				c0,1.5,0.3,2.4,1.5,2.4s1.5-0.9,1.5-2.4s-0.3-2.4-1.5-2.4S39,145.5,39,147z"/>
		</g>
		<g>
			<path class="st1" d="M47.3,150.2l-2.8-4.5v4.5h-1v-6.4h0.9l2.8,4.5v-4.5h1v6.4H47.3z"/>
		</g>
		<g>
			<path class="st1" d="M53.7,148.6h-2l-0.5,1.6h-1l2-6.4h1l2,6.4h-1L53.7,148.6z M52.7,145l-0.8,2.8h1.6L52.7,145z"/>
		</g>
		<g>
			<path class="st1" d="M59.4,150.2l-2.8-4.5v4.5h-0.9v-6.4h0.9l2.8,4.5v-4.5h0.9v6.4H59.4z"/>
		</g>
		<g>
			<path class="st1" d="M61.3,150.2v-6.4h1.9c2.1,0,2.7,1.4,2.7,3.2s-0.6,3.2-2.7,3.2H61.3z M62.3,149.3h1c1.3,0,1.7-0.9,1.7-2.3
				s-0.4-2.3-1.7-2.3h-1V149.3z"/>
		</g>
		<g>
			<path class="st1" d="M9.2,153.7v5.5h-1v-5.5H6.6v-0.9h4.3v0.9H9.2z"/>
		</g>
		<g>
			<path class="st1" d="M12.4,159.2h-1v-6.4h2.1c1.6,0,2.2,0.8,2.2,1.9c0.1,0.7-0.3,1.4-1,1.7l1.4,2.8h-1.2l-1.2-2.6h-1.3
				C12.4,156.6,12.4,159.2,12.4,159.2z M12.4,155.7h1.3c0.9,0,1-0.5,1-1s-0.1-1-1-1h-1.3V155.7z"/>
		</g>
		<g>
			<path class="st1" d="M19.7,157.6h-2l-0.5,1.6h-1l2-6.4h1l2,6.4h-1L19.7,157.6z M18.7,154l-0.8,2.8h1.6L18.7,154z"/>
		</g>
		<g>
			<path class="st1" d="M21.8,159.2v-6.4h1v6.4H21.8z"/>
		</g>
		<g>
			<path class="st1" d="M27.6,159.2l-2.8-4.5v4.5h-1v-6.4h0.9l2.8,4.5v-4.5h1v6.4H27.6z"/>
		</g>
		<g>
			<path class="st1" d="M29.5,159.2v-6.4h1v6.4H29.5z"/>
		</g>
		<g>
			<path class="st1" d="M35.2,159.2l-2.8-4.5v4.5h-0.9v-6.4h0.9l2.8,4.5v-4.5h0.9v6.4H35.2z"/>
		</g>
		<g>
			<path class="st1" d="M36.8,156c0-2,0.7-3.3,2.6-3.3c0.6,0,1.3,0.1,1.8,0.3v1c-0.5-0.2-1.1-0.4-1.7-0.4c-1.3,0-1.8,0.9-1.8,2.4
				s0.5,2.4,1.8,2.4c0.3,0,0.6,0,0.9-0.1v-1.7h-1.1v-0.9h2.1v3.2c-0.6,0.3-1.3,0.4-2,0.4C37.5,159.3,36.8,158,36.8,156z"/>
		</g>
	</g>
	<g>
		<rect x="3.3" y="24" class="st1" width="94.8" height="94.8"/>
	</g>
	<g>
		<path class="st1" d="M98.2,20.7H3.3V3.3h94.8L98.2,20.7L98.2,20.7z M4.3,19.7h92.8V4.3H4.3V19.7z"/>
	</g>
	<g class="st2">
		<path class="st1" d="M6.7,6.9h4.5v1.4H9.9v8.8H8.1V8.3H6.7V6.9z"/>
	</g>
	<g class="st2">
		<path class="st1" d="M11.2,17.1l1.9-10.2H15l2,10.2h-1.8l-0.3-1.9h-1.8l-0.3,1.9H11.2z M13.3,13.9h1.4L14,9.8l0,0L13.3,13.9z"/>
	</g>
	<g class="st2">
		<path class="st1" d="M19.6,12.4v4.7h-1.7V6.9h2.5c1.7,0,2.4,0.9,2.4,2.3v1.3c0,1.1-0.4,1.7-1.4,2l1.6,4.6h-1.8L19.6,12.4z
			 M19.6,8.3v3.2h0.6c0.6,0,0.8-0.3,0.8-0.8V9.2c0-0.6-0.3-0.8-0.8-0.8L19.6,8.3L19.6,8.3z"/>
	</g>
	<g class="st2">
		<path class="st1" d="M26.4,11.7h2.4v5.4h-1.2V16c-0.2,0.8-0.7,1.2-1.6,1.2c-1.5,0-2.1-1.2-2.1-2.7V9.6c0-1.6,0.8-2.7,2.6-2.7
			c1.9,0,2.4,1.1,2.4,2.6v0.9h-1.6v-1c0-0.6-0.2-1-0.9-1c-0.6,0-0.9,0.4-0.9,1v5.5c0,0.6,0.3,1,0.8,1c0.6,0,0.8-0.3,0.8-1V13h-0.8
			v-1.3H26.4z"/>
	</g>
	<g class="st2">
		<path class="st1" d="M30.2,6.9h4.1v1.4h-2.4v2.9h1.7v1.4h-1.7v3.1h2.4v1.4h-4.1C30.2,17.1,30.2,6.9,30.2,6.9z"/>
	</g>
	<g class="st2">
		<path class="st1" d="M35.1,6.9h4.5v1.4h-1.4v8.8h-1.7V8.3h-1.4C35.1,8.3,35.1,6.9,35.1,6.9z"/>
	</g>
	<g class="st2">
		<path class="st1" d="M78.6,14.6v-1.1c0-1,0.3-1.7,1.1-2c-0.7-0.3-1-0.9-1-1.8V9.3c0-1.6,0.8-2.4,2.4-2.4s2.4,0.9,2.4,2.4v0.4
			c0,0.8-0.3,1.4-1,1.8c0.8,0.4,1.1,1.1,1.1,2v1.1c0,1.5-0.7,2.6-2.5,2.6C79.3,17.2,78.6,16.2,78.6,14.6z M82,14.8v-1.6
			c0-0.6-0.2-1-0.8-1c-0.6,0-0.8,0.4-0.8,1v1.6c0,0.6,0.2,1,0.8,1S82,15.4,82,14.8z M81.9,9.9V9.2c0-0.6-0.2-1-0.8-1
			c-0.6,0-0.8,0.4-0.8,1v0.7c0,0.6,0.2,1,0.8,1C81.7,10.8,81.9,10.5,81.9,9.9z"/>
	</g>
	<g class="st2">
		<path class="st1" d="M86.5,10.8c0.7,0,1.2,0.6,1.2,1.2c0,0.7-0.6,1.2-1.2,1.2c-0.7,0-1.2-0.6-1.2-1.2
			C85.3,11.4,85.9,10.8,86.5,10.8z"/>
	</g>
	<g class="st2">
		<path class="st1" d="M89.3,14.5v-5c0-1.6,0.7-2.7,2.5-2.7c1.9,0,2.4,1.1,2.4,2.6v0.5h-1.6V9.2c0-0.6-0.2-1-0.8-1
			c-0.6,0-0.8,0.4-0.8,1v2.2l0,0c0.3-0.5,0.7-0.8,1.4-0.8c1.2,0,1.9,0.8,1.9,2.5v1.5c0,1.6-0.7,2.6-2.5,2.6
			C90,17.2,89.3,16.1,89.3,14.5z M92.7,14.8V13c0-0.7-0.2-1-0.8-1c-0.5,0-0.8,0.4-0.8,0.9v1.9c0,0.6,0.2,1,0.8,1
			C92.4,15.8,92.7,15.5,92.7,14.8z"/>
	</g>
	<g>
		<g>
			<g>
				<path class="st0" d="M83.7,51.6c0-2.4-1.9-4.3-4.2-4.3s-4.3,1.9-4.3,4.2s1.9,4.3,4.2,4.3l0,0C81.8,55.9,83.7,54,83.7,51.6z"/>
			</g>
			<g>
				<path class="st0" d="M70.8,73.9l2.2-7.4l-3.2-1.7l-2.5,8c0,0-0.6,2.1,1.2,2.6S70.8,73.9,70.8,73.9z"/>
			</g>
			<g>
				<path class="st0" d="M84.6,63.7c0.6-0.2,0.7,0.6,0.7,0.6l0.4,1.4l3.2-1.7l-0.8-2.7c0,0-1.3-3.4-4.1-3.4h-9
					c-2.8,0-4.1,3.3-4.1,3.3l-0.8,2.5l3.2,1.7l0.4-1.2c0,0,0.2-0.7,0.7-0.6s0.3,1,0.3,1l-5,18h4.6v12.9c-0.1,1.2,0.8,2.3,2.1,2.4
					c1.2,0.1,2.3-0.8,2.4-2.1c0-0.1,0-0.2,0-0.3V82.7h1.3v12.9c0,1.2,1,2.2,2.2,2.2s2.2-1,2.2-2.2V82.7h4.6l-5-18
					C84.2,64.7,84,63.9,84.6,63.7z"/>
			</g>
			<g>
				<path class="st0" d="M91.6,72.8L89.2,65L86,66.7l2.1,7.2c0,0,0.5,2.1,2.3,1.5S91.6,72.8,91.6,72.8z"/>
			</g>
			<g>
				<path class="st0" d="M74.8,50.2h-0.5c0.8-2.9,3.8-4.6,6.6-3.8c1.8,0.5,3.3,1.9,3.8,3.8h-0.6v2.9H85c-0.2,1-0.8,1.8-1.5,2.5
					c-0.2-0.2-0.4-0.3-0.7-0.2L81.3,56c-0.3,0.1-0.4,0.4-0.3,0.7l0.1,0.4c0.1,0.3,0.4,0.4,0.7,0.3l1.6-0.6c0.3-0.1,0.4-0.4,0.3-0.7
					l0,0l-0.1-0.3c0.8-0.7,1.4-1.7,1.6-2.8h0.9v-2.9h-0.9c-0.8-3.2-4-5.1-7.1-4.3c-2.1,0.5-3.8,2.2-4.3,4.3h-0.9V53h1.9L74.8,50.2z"
					/>
			</g>
		</g>
		<g>
			<g>
				<path class="st0" d="M40.3,72.2l-3.6-11.8c0,0-1.3-3.4-4.2-3.4h-1.7l-3.2,4.7L24.7,57h-1.5c-2.9,0-4.2,3.4-4.2,3.4l-3.6,11.8
					c-0.1,0.5-0.1,1,0,1.6H15c-0.6,0-1,0.4-1,1v0.8h-3.3c-0.6,0-1,0.4-1,1v1.8c0,1.1,0.9,1.9,1.9,1.9l0,0h3.7v-0.7
					c0-0.3,0.2-0.5,0.5-0.5h0.9c0.3,0,0.5,0.2,0.5,0.5l0,0v0.7H21c0.9,0,1.7-0.6,1.9-1.4v1.4c-0.5,0.6-1.1,1-1.9,1h-3.7V82
					c0,0.3-0.2,0.5-0.5,0.5l0,0h-0.9c-0.1,0-0.1,0-0.2,0c-0.2-0.1-0.3-0.2-0.3-0.4v-0.8h-3.7c-0.4,0-0.8-0.1-1.2-0.4
					c-0.1-0.1-0.3-0.2-0.4-0.3c-0.1-0.1-0.2-0.2-0.3-0.3c0,0,0-0.1-0.1-0.1V85c0,0.6,0.4,1,1,1H22c0.3,0,0.5-0.1,0.7-0.3v10
					c0,1.3,1,2.3,2.3,2.3s2.3-1,2.3-2.3V82.3h1.3v13.2c0.1,1.3,1.2,2.2,2.4,2.1c1.1-0.1,2-1,2.1-2.1V82.3h4.7l-5.1-18.5
					c0,0-0.2-0.8,0.4-1s0.7,0.6,0.7,0.6l2.9,9.8c0,0,0.6,2.1,2.4,1.6S40.3,72.2,40.3,72.2z M17.9,75.5h-3.1v-0.8
					c0-0.1,0.1-0.2,0.2-0.2h1c0.2,0.2,0.4,0.3,0.7,0.4c0.4,0.1,0.9,0.1,1.3-0.1L17.9,75.5z M23,63.8l-3.2,11.7h-1.2v-0.8
					c0-0.1,0-0.3-0.1-0.4c0.2-0.3,0.4-0.6,0.5-1l3-9.8c0,0,0.1-0.8,0.7-0.6S23,63.8,23,63.8z"/>
			</g>
			<g>
				<path class="st0" d="M20.4,50.3c0.2-0.4,0.5-1,1.9-1.2c0.3,0,0.5-0.1,0.8-0.2c0.2-0.4,0.5-0.8,0.8-1.2c0-0.1,0-0.2,0-0.2
					c-0.1-0.6-0.7-1.3-2.1-0.7c-1.7,0.8-1.5,3.2-1.5,3.2C20.3,50.2,20.3,50.4,20.4,50.3z"/>
			</g>
			<g>
				<path class="st0" d="M32.4,48.9c0.2,0.1,0.5,0.2,0.8,0.3c1.3,0.2,1.7,0.8,1.9,1.2c0,0.1,0.1-0.1,0.1-0.3c0,0,0.2-2.5-1.5-3.2
					c-1.3-0.6-2,0.1-2.1,0.7c0,0.1,0,0.2,0,0.3C31.9,48.1,32.2,48.5,32.4,48.9z"/>
			</g>
			<g>
				<path class="st0" d="M27.7,56.1c2.5,0,4.6-2.1,4.6-4.6s-2.1-4.6-4.6-4.6s-4.6,2.1-4.6,4.6C23.1,54,25.1,56.1,27.7,56.1
					L27.7,56.1z"/>
			</g>
			<g>
				<path class="st0" d="M16,79.6h0.8c0.1,0,0.2,0.1,0.2,0.2v2c0,0.1-0.1,0.2-0.2,0.2H16c-0.1,0-0.2-0.1-0.2-0.2v-2
					C15.8,79.7,15.9,79.6,16,79.6z"/>
			</g>
		</g>
		<g>
			<g>
				<path class="st0" d="M48.6,95.4c0,1.3,1.1,2.4,2.4,2.4c1.3,0,2.4-1.1,2.4-2.4v-1.8h-4.8C48.6,93.6,48.6,95.4,48.6,95.4z"/>
			</g>
			<g>
				<path class="st0" d="M54.8,95.4c-0.1,1.3,0.9,2.5,2.2,2.6s2.5-0.9,2.6-2.2c0-0.1,0-0.2,0-0.3v-1.8h-4.8V95.4z"/>
			</g>
			<g>
				<path class="st0" d="M49.7,62v-4.8h-0.4H49c-3,0.3-5.2,2.8-5.2,5.7v12c-0.1,0.9,0.6,1.7,1.5,1.8s1.7-0.6,1.8-1.5
					c0-0.1,0-0.2,0-0.3V64.6c0-0.4,0.1-0.9,0.8-0.9h1.8L49.7,62z"/>
			</g>
			<g>
				<polygon class="st0" points="51.6,61 56.7,61 56.7,57.2 54.1,57.2 51.6,57.2 				"/>
			</g>
			<g>
				<path class="st0" d="M58,64.8h-0.5V62h-6.7v2.7h-2.2v27.7h4.8v-15c0-0.4,0.2-0.7,0.6-0.7h0.1l0,0c0.4,0,0.7,0.2,0.7,0.6v0.1
					v15.1h4.8V64.8H58z"/>
			</g>
			<g>
				<path class="st0" d="M59.1,57.2h-0.3h-0.2v6.5h1.6c0.7,0,0.8,0.5,0.8,0.9v10.3c-0.1,0.9,0.6,1.7,1.5,1.8
					c0.9,0.1,1.7-0.6,1.8-1.5c0-0.1,0-0.2,0-0.3v-12C64.3,59.9,62.1,57.5,59.1,57.2z"/>
			</g>
			<g>
				<path class="st0" d="M57.1,61.3c0,0.3,0.2,0.5,0.5,0.5s0.5-0.2,0.5-0.5s-0.2-0.5-0.5-0.5S57.1,61,57.1,61.3z"/>
			</g>
			<g>
				<path class="st0" d="M50.2,61.3c0,0.3,0.2,0.5,0.5,0.5s0.5-0.2,0.5-0.5s-0.2-0.5-0.5-0.5l0,0C50.4,60.8,50.2,61,50.2,61.3z"/>
			</g>
			<g>
				<path class="st0" d="M56.9,50.3c-0.4-0.3-0.7-0.6-1.3-0.3c-0.4,0.2-0.6,0.3-1.1,0.6c-0.9,0.4-1.9,0.7-2.8,0.8
					c-0.7,0.1-1.5,0.2-2.2,0.2c0.2,2.5,2.4,4.3,4.9,4.1c2.1-0.2,3.8-1.8,4-4C57.9,51.2,57.4,50.7,56.9,50.3z"/>
			</g>
			<g>
				<path class="st0" d="M49.5,50.6c0.7,0,1.4-0.1,2.1-0.2c0.9-0.2,1.7-0.4,2.5-0.8c0.5-0.2,0.9-0.4,1.4-0.6c0.4-0.3,1-0.3,1.3,0.1
					c0.2,0.1,0.2,0.2,0.3,0.3l1.2,1c0.1,0.1,0.2,0.2,0.3,0.2s0.1-0.8,0.1-1.2c-0.2-1.1-0.7-2.2-1.4-3.1c-0.2-0.3-0.6-0.5-1-0.4
					c-0.6,0.1-0.6-0.3-1-0.6c-1.3-0.5-2.8-0.2-3.9,0.6c-1.3,1.1-2.3,2.4-2.9,4C48.5,50.3,48.9,50.6,49.5,50.6z"/>
			</g>
		</g>
	</g>
	<g>
		<path class="st1" d="M98.2,162.9h-95v-40.7h95V162.9z M4.2,161.9h93v-38.7h-93C4.2,123.2,4.2,161.9,4.2,161.9z"/>
	</g>
</g>
</svg>
