<?xml version="1.0" encoding="utf-8"?>
<!-- Generator: Adobe Illustrator 22.0.1, SVG Export Plug-In . SVG Version: 6.00 Build 0)  -->
<svg version="1.1" id="Layer_1" xmlns="http://www.w3.org/2000/svg" xmlns:xlink="http://www.w3.org/1999/xlink" x="0px" y="0px"
	 viewBox="0 0 101.5 166.2" style="enable-background:new 0 0 101.5 166.2;" xml:space="preserve">
<style type="text/css">
	.st0{fill:#FFFFFF;}
	.st1{fill:#A21942;}
	.st2{enable-background:new    ;}
</style>
<title>TARGET 1.3</title>
<g id="WHITE_BG">
	<g>
		<rect y="0" class="st0" width="101.5" height="166.2"/>
	</g>
	<g>
		<path class="st1" d="M98.2,162.9h-95v-40.7h95V162.9z M4.2,161.9h93v-38.7h-93V161.9z"/>
	</g>
</g>
<g id="TARGETS">
	<g>
		<g>
			<path class="st1" d="M7.8,132.2h-1v-6.4h2.1c1.6,0,2.2,1,2.2,2c0,1-0.6,2-2.2,2H7.8V132.2z M7.8,128.9H9c0.6,0,1.1-0.5,1.1-1.1
				c0-0.6-0.5-1.1-1.1-1.1c0,0,0,0,0,0H7.8V128.9z"/>
		</g>
		<g>
			<path class="st1" d="M12.7,132.2h-1v-6.4h2.1c1.6,0,2.2,0.7,2.2,1.9c0.1,0.7-0.3,1.4-1,1.7l1.3,2.8h-1.1l-1.2-2.6h-1.3V132.2z
				 M12.7,128.7H14c0.9,0,1-0.5,1-1s-0.1-1-1-1h-1.3V128.7z"/>
		</g>
		<g>
			<path class="st1" d="M16.7,129c0-1.8,0.4-3.3,2.5-3.3s2.5,1.5,2.5,3.3s-0.4,3.3-2.5,3.3S16.7,130.8,16.7,129z M17.7,129
				c0,1.5,0.3,2.4,1.5,2.4s1.5-0.9,1.5-2.4s-0.3-2.4-1.5-2.4S17.7,127.5,17.7,129L17.7,129z"/>
		</g>
		<g>
			<path class="st1" d="M25.8,131.3h-0.9l-1.6-3.9v4.8h-1v-6.4h1.2l1.7,4.3l1.7-4.3h1.2v6.4h-1l0-4.8L25.8,131.3z"/>
		</g>
		<g>
			<path class="st1" d="M29.1,129c0-1.8,0.4-3.3,2.5-3.3s2.5,1.5,2.5,3.3s-0.4,3.3-2.5,3.3S29.1,130.8,29.1,129z M30.1,129
				c0,1.5,0.3,2.4,1.5,2.4c1.2,0,1.5-0.9,1.5-2.4s-0.3-2.4-1.5-2.4S30.1,127.5,30.1,129L30.1,129z"/>
		</g>
		<g>
			<path class="st1" d="M36.8,126.7v5.5h-1v-5.5h-1.6v-0.9h4.3v0.9L36.8,126.7z"/>
		</g>
		<g>
			<path class="st1" d="M42.7,129.3H40v2h3v0.9h-3.9v-6.4H43v0.9h-3v1.8h2.7L42.7,129.3z"/>
		</g>
		<g>
			<path class="st1" d="M46.1,132.2h-1v-6.4h2c1.6,0,2.2,1,2.2,2c0,1-0.6,2-2.2,2h-1V132.2z M46.1,128.9h1.1c0.6,0,1.1-0.5,1.1-1.1
				c0-0.6-0.5-1.1-1.1-1.1c0,0,0,0,0,0h-1.1V128.9z"/>
		</g>
		<g>
			<path class="st1" d="M50,129c0-1.8,0.4-3.3,2.5-3.3s2.5,1.5,2.5,3.3s-0.4,3.3-2.5,3.3S50,130.8,50,129z M51,129
				c0,1.5,0.3,2.4,1.5,2.4s1.5-0.9,1.5-2.4s-0.3-2.4-1.5-2.4S50.9,127.5,51,129L51,129z"/>
		</g>
		<g>
			<path class="st1" d="M56.6,131.3h2.8v0.9h-3.7v-6.4h1L56.6,131.3z"/>
		</g>
		<g>
			<path class="st1" d="M60,132.2v-6.4h1v6.4H60z"/>
		</g>
		<g>
			<path class="st1" d="M64.6,125.7c0.5,0,1,0.1,1.5,0.3v0.9c-0.4-0.2-0.9-0.3-1.4-0.3c-1.2,0-1.7,0.8-1.7,2.4
				c0,1.6,0.5,2.4,1.7,2.4c0.5,0,1-0.1,1.4-0.3v0.9c-0.5,0.2-1,0.3-1.5,0.3c-1.9,0-2.6-1.2-2.6-3.3S62.7,125.7,64.6,125.7z"/>
		</g>
		<g>
			<path class="st1" d="M67.1,132.2v-6.4h1v6.4H67.1z"/>
		</g>
		<g>
			<path class="st1" d="M72.7,129.3h-2.7v2H73v0.9h-3.9v-6.4H73v0.9h-2.9v1.8h2.7V129.3z"/>
		</g>
		<g>
			<path class="st1" d="M78,130.3c0,1.2-0.7,2-2.4,2c-0.6,0-1.3-0.1-1.9-0.4V131c0.6,0.3,1.2,0.4,1.8,0.4c1.1,0,1.5-0.5,1.5-1.1
				s-0.3-0.9-1.2-1c-1.6-0.2-2.2-0.6-2.2-1.8c0-0.9,0.5-1.8,2.3-1.8c0.6,0,1.2,0.1,1.7,0.3v1c-0.5-0.2-1.1-0.3-1.7-0.3
				c-1,0-1.3,0.4-1.3,1c0,0.7,0.4,0.8,1.2,0.9C77.2,128.7,78,129,78,130.3z"/>
		</g>
		<g>
			<path class="st1" d="M82.2,126.7v5.5h-1v-5.5h-1.6v-0.9h4.3v0.9L82.2,126.7z"/>
		</g>
		<g>
			<path class="st1" d="M84.1,129c0-1.8,0.4-3.3,2.4-3.3s2.5,1.5,2.5,3.3s-0.4,3.3-2.5,3.3S84.1,130.8,84.1,129z M85.1,129
				c0,1.5,0.3,2.4,1.5,2.4s1.4-0.9,1.4-2.4s-0.3-2.4-1.5-2.4S85.1,127.5,85.1,129L85.1,129z"/>
		</g>
		<g>
			<path class="st1" d="M11.1,139.3c0,1.2-0.7,2-2.4,2c-0.6,0-1.3-0.1-1.9-0.4V140c0.6,0.3,1.2,0.4,1.8,0.4c1.1,0,1.5-0.5,1.5-1.1
				s-0.3-0.9-1.2-1c-1.6-0.2-2.2-0.6-2.2-1.8c0-0.9,0.5-1.8,2.3-1.8c0.6,0,1.2,0.1,1.7,0.3v1c-0.5-0.2-1.1-0.3-1.7-0.3
				c-1,0-1.3,0.4-1.3,1s0.4,0.8,1.2,0.9C10.3,137.7,11.1,138,11.1,139.3z"/>
		</g>
		<g>
			<path class="st1" d="M11.8,139.2v-4.4h0.9v4.3c-0.1,0.7,0.4,1.2,1,1.3c0.1,0,0.2,0,0.3,0c0.6,0.1,1.3-0.3,1.4-1
				c0-0.1,0-0.2,0-0.3v-4.3h1v4.4c0,1.1-0.8,2.1-2,2.1c-0.1,0-0.2,0-0.3,0c-1.1,0.2-2.2-0.6-2.3-1.7
				C11.8,139.5,11.8,139.3,11.8,139.2z"/>
		</g>
		<g>
			<path class="st1" d="M18.3,141.2h-1v-6.4h2c1.6,0,2.2,0.9,2.2,2s-0.6,2-2.2,2h-1V141.2z M18.3,137.9h1.1c0.6,0,1.1-0.5,1.1-1.1
				c0-0.6-0.5-1.1-1.1-1.1h-1.1V137.9z"/>
		</g>
		<g>
			<path class="st1" d="M23.1,141.2h-0.9v-6.4h2c1.6,0,2.2,0.9,2.2,2s-0.6,2-2.2,2h-1.1V141.2z M23.1,137.9h1.1
				c0.6,0,1.1-0.5,1.1-1.1c0-0.6-0.5-1.1-1.1-1.1l0,0h-1.1V137.9z"/>
		</g>
		<g>
			<path class="st1" d="M26.8,138c0-1.8,0.4-3.3,2.5-3.3s2.5,1.5,2.5,3.3s-0.4,3.3-2.5,3.3S26.8,139.8,26.8,138z M27.8,138
				c0,1.5,0.3,2.4,1.5,2.4s1.5-0.9,1.5-2.4s-0.3-2.4-1.5-2.4S27.8,136.5,27.8,138L27.8,138z"/>
		</g>
		<g>
			<path class="st1" d="M33.6,141.2h-1v-6.4h2.1c1.7,0,2.2,0.7,2.2,1.9c0.1,0.7-0.3,1.4-1,1.7l1.3,2.8H36l-1.2-2.6h-1.3V141.2z
				 M33.6,137.7h1.3c0.9,0,1-0.5,1-1s-0.1-1-1-1h-1.3V137.7z"/>
		</g>
		<g>
			<path class="st1" d="M39.7,135.7v5.5h-1v-5.5h-1.6v-0.9h4.3v0.9H39.7z"/>
		</g>
		<g>
			<path class="st1" d="M42.8,140.3c0.2,0.1,0.4,0.1,0.7,0.1c0.5,0,0.8-0.2,0.8-0.7v-4.9h1v5.1c0,0.9-0.5,1.4-1.7,1.4
				c-0.2,0-0.5,0-0.7-0.1L42.8,140.3z"/>
		</g>
		<g>
			<path class="st1" d="M46.2,138c0-1.8,0.4-3.3,2.5-3.3s2.5,1.5,2.5,3.3s-0.4,3.3-2.5,3.3S46.2,139.8,46.2,138z M47.2,138
				c0,1.5,0.3,2.4,1.5,2.4s1.5-0.9,1.5-2.4s-0.3-2.4-1.5-2.4S47.2,136.5,47.2,138L47.2,138z"/>
		</g>
		<g>
			<path class="st1" d="M52,134.8h2.1c1.5,0,2,0.8,2,1.7c0,0.5-0.3,1-0.8,1.3c0.6,0.2,1.1,0.8,1,1.5c0,1-0.5,1.9-2.2,1.9H52V134.8z
				 M54.2,135.7h-1.2v1.8h1.2c0.8,0,0.9-0.5,0.9-0.9S55,135.7,54.2,135.7L54.2,135.7z M53,140.3h1.3c0.9,0,1.1-0.5,1.1-1
				s-0.3-1-1.1-1h-1.3L53,140.3z"/>
		</g>
		<g>
			<path class="st1" d="M60.9,134.7c0.5,0,1,0.1,1.5,0.3v0.9c-0.5-0.2-0.9-0.3-1.4-0.3c-1.2,0-1.7,0.8-1.7,2.4s0.5,2.4,1.7,2.4
				c0.5,0,1-0.1,1.4-0.3v0.9c-0.5,0.2-1,0.3-1.5,0.3c-1.9,0-2.6-1.2-2.6-3.3S59,134.7,60.9,134.7z"/>
		</g>
		<g>
			<path class="st1" d="M64.3,141.2h-1v-6.4h2.1c1.7,0,2.2,0.7,2.2,1.9c0.1,0.7-0.3,1.4-1,1.7l1.3,2.8h-1.1l-1.2-2.6h-1.3V141.2z
				 M64.3,137.7h1.2c0.9,0,1-0.5,1-1s-0.1-1-1-1h-1.2V137.7z"/>
		</g>
		<g>
			<path class="st1" d="M72.1,138.3h-2.7v2h2.9v0.9h-3.9v-6.4h3.9v0.9h-2.9v1.8h2.7V138.3z"/>
		</g>
		<g>
			<path class="st1" d="M76.3,139.6h-2l-0.4,1.6h-1l2-6.5h1l2,6.5h-1L76.3,139.6z M75.3,136l-0.8,2.8h1.6L75.3,136z"/>
		</g>
		<g>
			<path class="st1" d="M79.8,135.7v5.5h-1v-5.5h-1.6v-0.9h4.3v0.9H79.8z"/>
		</g>
		<g>
			<path class="st1" d="M82.2,141.2v-6.4h1v6.4H82.2z"/>
		</g>
		<g>
			<path class="st1" d="M84,138c0-1.8,0.4-3.3,2.5-3.3s2.5,1.5,2.5,3.3s-0.4,3.3-2.5,3.3S84,139.8,84,138z M85,138
				c0,1.5,0.3,2.4,1.5,2.4s1.5-0.9,1.5-2.4s-0.3-2.4-1.5-2.4S85,136.5,85,138z"/>
		</g>
		<g>
			<path class="st1" d="M93.3,141.2l-2.8-4.5v4.5h-0.9v-6.4h0.9l2.8,4.5v-4.5h0.9v6.4H93.3z"/>
		</g>
		<g>
			<path class="st1" d="M10.1,148.6h-2l-0.4,1.6h-1l2-6.5h1l2,6.5h-1L10.1,148.6z M9.1,145l-0.8,2.8h1.6L9.1,145z"/>
		</g>
		<g>
			<path class="st1" d="M15.8,150.2l-2.8-4.5v4.5h-0.9v-6.4H13l2.8,4.5v-4.5h0.9v6.4L15.8,150.2z"/>
		</g>
		<g>
			<path class="st1" d="M17.6,150.2v-6.4h1.9c2.1,0,2.7,1.4,2.7,3.2s-0.6,3.2-2.7,3.2H17.6z M18.6,149.3h1c1.3,0,1.7-0.9,1.7-2.3
				s-0.4-2.3-1.7-2.3h-1V149.3z"/>
		</g>
		<g>
			<path class="st1" d="M24.3,147c0-2,0.7-3.3,2.6-3.3c0.6,0,1.3,0.1,1.8,0.3v1c-0.5-0.2-1.1-0.4-1.7-0.4c-1.3,0-1.8,0.9-1.8,2.4
				s0.5,2.4,1.8,2.4c0.3,0,0.6,0,0.9-0.1v-1.8h-1.1v-0.9h2.1v3.2c-0.6,0.3-1.3,0.4-2,0.4C25,150.3,24.3,149,24.3,147z"/>
		</g>
		<g>
			<path class="st1" d="M30.8,150.2h-1v-6.4H32c1.7,0,2.2,0.7,2.2,1.9c0.1,0.7-0.3,1.4-1,1.7l1.3,2.8h-1.2l-1.2-2.6h-1.3V150.2z
				 M30.8,146.7h1.3c0.9,0,1-0.5,1-1s-0.1-1-1-1h-1.3V146.7z"/>
		</g>
		<g>
			<path class="st1" d="M34.8,147c0-1.8,0.4-3.3,2.5-3.3s2.5,1.5,2.5,3.3s-0.4,3.3-2.5,3.3S34.8,148.8,34.8,147z M35.8,147
				c0,1.5,0.3,2.4,1.5,2.4s1.5-0.9,1.5-2.4s-0.3-2.4-1.5-2.4S35.8,145.5,35.8,147L35.8,147z"/>
		</g>
		<g>
			<path class="st1" d="M43.1,143.8h1.2l1.1,5l0.8-5h1l-1.2,6.4h-1.2l-1.2-5.3l-1.2,5.3h-1.2l-1.2-6.4h1l0.8,5L43.1,143.8z"/>
		</g>
		<g>
			<path class="st1" d="M47.9,150.2v-6.4h1v6.4H47.9z"/>
		</g>
		<g>
			<path class="st1" d="M53.6,150.2l-2.8-4.5v4.5h-0.9v-6.4h0.9l2.8,4.5v-4.5h0.9v6.4H53.6z"/>
		</g>
		<g>
			<path class="st1" d="M55.3,147c0-2,0.7-3.3,2.6-3.3c0.6,0,1.3,0.1,1.8,0.3v1c-0.5-0.2-1.1-0.4-1.7-0.4c-1.3,0-1.8,0.9-1.8,2.4
				s0.5,2.4,1.8,2.4c0.3,0,0.6,0,0.9-0.1v-1.8h-1.1v-0.9h2.1v3.2c-0.6,0.3-1.3,0.4-2,0.4C56,150.3,55.3,149,55.3,147z"/>
		</g>
		<g>
			<path class="st1" d="M10.5,156.3H7.8v2h2.9v0.9H6.9v-6.4h3.9v0.9H7.8v1.8h2.6V156.3z"/>
		</g>
		<g>
			<path class="st1" d="M15.3,159.2l-2.8-4.5v4.5h-0.9v-6.4h0.9l2.8,4.5v-4.5h0.9v6.4H15.3z"/>
		</g>
		<g>
			<path class="st1" d="M19.3,153.7v5.5h-1v-5.5h-1.7v-0.9H21v0.9H19.3z"/>
		</g>
		<g>
			<path class="st1" d="M25.1,156.3h-2.6v2h2.9v0.9h-3.9v-6.4h3.9v0.9h-2.9v1.8h2.6V156.3z"/>
		</g>
		<g>
			<path class="st1" d="M27.2,159.2h-1v-6.4h2.1c1.6,0,2.2,0.7,2.2,1.9c0.1,0.7-0.3,1.4-1,1.7l1.3,2.8h-1.1l-1.1-2.6h-1.3V159.2z
				 M27.2,155.7h1.3c0.9,0,1-0.5,1-1s-0.1-1-1-1h-1.3V155.7z"/>
		</g>
		<g>
			<path class="st1" d="M32.4,159.2h-1v-6.4h2c1.6,0,2.2,0.9,2.2,2s-0.6,2-2.2,2h-1.1V159.2z M32.4,155.9h1.1c0.6,0,1.1-0.5,1.1-1.1
				c0-0.6-0.5-1.1-1.1-1.1h-1.1V155.9z"/>
		</g>
		<g>
			<path class="st1" d="M37.1,159.2h-1v-6.4h2.1c1.7,0,2.2,0.7,2.2,1.9c0.1,0.7-0.3,1.4-1,1.7l1.3,2.8h-1.2l-1.2-2.6h-1.3V159.2z
				 M37.1,155.7h1.3c0.9,0,1-0.5,1-1s-0.1-1-1-1h-1.3V155.7z"/>
		</g>
		<g>
			<path class="st1" d="M41.5,159.2v-6.4h1v6.4H41.5z"/>
		</g>
		<g>
			<path class="st1" d="M47.7,157.3c0,1.2-0.7,2-2.4,2c-0.6,0-1.3-0.1-1.9-0.4V158c0.6,0.3,1.2,0.4,1.8,0.4c1.2,0,1.5-0.5,1.5-1.1
				s-0.3-0.9-1.2-1c-1.5-0.2-2.2-0.6-2.2-1.8c0-0.9,0.5-1.8,2.3-1.8c0.6,0,1.2,0.1,1.7,0.3v1c-0.5-0.2-1.1-0.3-1.7-0.3
				c-1,0-1.3,0.4-1.3,1s0.4,0.8,1.2,0.9C46.9,155.7,47.7,156,47.7,157.3z"/>
		</g>
		<g>
			<path class="st1" d="M52.1,156.3h-2.7v2h2.9v0.9h-3.9v-6.4h3.9v0.9h-2.9v1.8h2.7V156.3z"/>
		</g>
		<g>
			<path class="st1" d="M57.2,157.3c0,1.2-0.7,2-2.4,2c-0.6,0-1.3-0.1-1.9-0.4V158c0.6,0.3,1.2,0.4,1.8,0.4c1.2,0,1.5-0.5,1.5-1.1
				s-0.3-0.9-1.2-1c-1.5-0.2-2.2-0.6-2.2-1.8c0-0.9,0.5-1.8,2.3-1.8c0.6,0,1.2,0.1,1.7,0.3v1c-0.5-0.2-1.1-0.3-1.7-0.3
				c-1,0-1.3,0.4-1.3,1s0.4,0.8,1.2,0.9C56.5,155.7,57.2,156,57.2,157.3z"/>
		</g>
	</g>
	<g>
		<rect x="3.3" y="24" class="st1" width="94.8" height="94.8"/>
	</g>
	<g>
		<path class="st1" d="M98.2,20.7H3.3V3.3h94.8V20.7z M4.3,19.7h92.8V4.3H4.3L4.3,19.7z"/>
	</g>
	<g class="st2">
		<path class="st1" d="M6.7,6.9h4.5v1.4H9.9v8.8H8.1V8.3H6.7V6.9z"/>
	</g>
	<g class="st2">
		<path class="st1" d="M11.2,17.1l1.9-10.2h1.9L17,17.1h-1.8l-0.3-1.9h-1.8l-0.3,1.9H11.2z M13.3,13.9h1.4L14,9.8h0L13.3,13.9z"/>
	</g>
	<g class="st2">
		<path class="st1" d="M19.6,12.4v4.7h-1.7V6.9h2.5c1.7,0,2.4,0.9,2.4,2.3v1.3c0,1.1-0.4,1.7-1.4,2l1.6,4.6h-1.8L19.6,12.4z
			 M19.6,8.3v3.2h0.6c0.6,0,0.8-0.3,0.8-0.8V9.2c0-0.6-0.3-0.8-0.8-0.8H19.6z"/>
	</g>
	<g class="st2">
		<path class="st1" d="M26.4,11.7h2.4v5.4h-1.2V16c-0.2,0.8-0.7,1.2-1.6,1.2c-1.5,0-2.1-1.2-2.1-2.7V9.6c0-1.6,0.8-2.7,2.6-2.7
			c1.9,0,2.4,1.1,2.4,2.6v0.9h-1.6v-1c0-0.6-0.2-1-0.9-1c-0.6,0-0.9,0.4-0.9,1v5.5c0,0.6,0.3,1,0.8,1c0.6,0,0.8-0.3,0.8-1V13h-0.8
			V11.7z"/>
	</g>
	<g class="st2">
		<path class="st1" d="M30.2,6.9h4.1v1.4h-2.4v2.9h1.7v1.4h-1.7v3.1h2.4v1.4h-4.1V6.9z"/>
	</g>
	<g class="st2">
		<path class="st1" d="M35.1,6.9h4.5v1.4h-1.4v8.8h-1.7V8.3h-1.4V6.9z"/>
	</g>
	<g class="st2">
		<path class="st1" d="M78.9,14.6v-1.1c0-1,0.3-1.7,1.1-2c-0.7-0.3-1-0.9-1-1.8V9.3c0-1.6,0.8-2.4,2.4-2.4c1.6,0,2.4,0.9,2.4,2.4
			v0.4c0,0.8-0.3,1.4-1,1.8c0.8,0.4,1.1,1.1,1.1,2v1.1c0,1.5-0.7,2.6-2.6,2.6C79.6,17.2,78.9,16.2,78.9,14.6z M82.2,14.8v-1.6
			c0-0.6-0.2-1-0.8-1c-0.6,0-0.8,0.4-0.8,1v1.6c0,0.6,0.2,1,0.8,1C82,15.8,82.2,15.4,82.2,14.8z M82.2,9.9V9.2c0-0.6-0.2-1-0.8-1
			c-0.6,0-0.8,0.4-0.8,1v0.7c0,0.6,0.2,1,0.8,1C82,10.8,82.2,10.5,82.2,9.9z"/>
	</g>
	<g class="st2">
	</g>
	<g class="st2">
		<path class="st1" d="M86.8,10.8c0.7,0,1.2,0.6,1.2,1.2c0,0.7-0.6,1.2-1.2,1.2c-0.7,0-1.2-0.6-1.2-1.2
			C85.6,11.4,86.1,10.8,86.8,10.8z"/>
	</g>
	<g class="st2">
		<path class="st1" d="M94.3,9.1V10c0,0.9-0.5,1.4-1.2,1.7c0.9,0.2,1.3,0.8,1.3,1.7v1.5c0,1.4-0.8,2.3-2.5,2.3c-1.7,0-2.4-1-2.4-2.5
			v-1.3h1.6v1.5c0,0.6,0.2,1,0.8,1c0.5,0,0.8-0.4,0.8-0.9v-1.7c0-0.5-0.2-0.8-0.8-0.8h-0.7v-1.3h0.6c0.6,0,0.9-0.3,0.9-0.8V9.2
			c0-0.6-0.2-0.9-0.7-0.9s-0.7,0.4-0.7,1v1h-1.6V9.4c0-1.5,0.6-2.6,2.4-2.6C93.6,6.8,94.3,7.7,94.3,9.1z"/>
	</g>
	<g>
		<g>
			<polygon class="st0" points="33.3,50.2 30.8,50.2 30.8,98.6 65.5,98.6 65.5,95.7 33.3,95.7 			"/>
		</g>
		<g>
			<path class="st0" d="M36,44.3v5.9v42.5h29.5h5.2V44.3L36,44.3z M60.5,49L60.5,49c0-0.1,0-0.1,0-0.2h0.1h0.1l3.6-0.8h0.1
				c0,0,0.1,0,0.1,0c0,0,0,0.1,0,0.1l0,0L64,50.2l-0.3,1.6l0,0c0,0,0,0.1,0,0.1c-0.1,0-0.1,0-0.2,0L62.5,51l-9.2,9.3
				c0,0-0.1,0-0.2,0l-1-1l0,0l-2.8-2.8l-6,6c0,0-0.1,0-0.2,0l-1-1c0,0,0-0.1,0-0.2l6-6l0,0l1-1c0,0,0.1-0.1,0.1,0c0,0,0,0,0,0
				l3.8,3.7l7.8-7.8l0.3-0.3L60.5,49z M62.7,53.6v17.5c0,0.1-0.1,0.3-0.3,0.3h-4.8c-0.1,0-0.3-0.1-0.3-0.3V58.6
				c0-0.2,0.1-0.5,0.3-0.6l4.7-4.5C62.6,53.2,62.7,53.4,62.7,53.6L62.7,53.6z M56,60.2v11c0,0.1-0.1,0.3-0.3,0.3h-4.8
				c-0.1,0-0.3-0.1-0.3-0.3c0,0,0,0,0,0V60.3c0-0.2,0.1-0.5,0.5-0.1l2.1,2.1c0,0,0.1,0,0.2,0l2.3-2.3C55.9,59.7,56,60,56,60.2z
				 M49.2,59.4v11.7c0,0.1-0.1,0.3-0.3,0.3h-4.8c-0.1,0-0.3-0.1-0.3-0.3v-6.7c0-0.3,0.1-0.5,0.3-0.7l4.7-4.5
				C49.1,59,49.2,59.3,49.2,59.4L49.2,59.4z M65.5,86.5c0,0.1-0.1,0.2-0.3,0.2H41.4c-0.2,0-0.3-0.1-0.3-0.2v-3.8
				c0-0.1,0.1-0.2,0.3-0.2h23.8c0.2,0,0.3,0.1,0.3,0.2L65.5,86.5z M65.5,79.7c0,0.1-0.1,0.2-0.3,0.2H41.4c-0.1,0-0.3-0.1-0.3-0.2
				v-3.8c0-0.1,0.1-0.2,0.3-0.2h23.8c0.2,0,0.3,0.1,0.3,0.2V79.7z"/>
		</g>
	</g>
</g>
</svg>
