<?xml version="1.0" encoding="utf-8"?>
<!-- Generator: Adobe Illustrator 22.0.1, SVG Export Plug-In . SVG Version: 6.00 Build 0)  -->
<svg version="1.1" id="Layer_1" xmlns="http://www.w3.org/2000/svg" xmlns:xlink="http://www.w3.org/1999/xlink" x="0px" y="0px"
	 viewBox="0 0 101.5 157.1" style="enable-background:new 0 0 101.5 157.1;" xml:space="preserve">
<style type="text/css">
	.st0{fill:#FFFFFF;}
	.st1{enable-background:new    ;}
	.st2{fill:#A21942;}
</style>
<title>TARGET 1 B copy 6</title>
<g id="WHITE_BG">
	<g>
		<rect y="0" class="st0" width="101.5" height="157.1"/>
	</g>
</g>
<g id="TARGETS">
	<g class="st1">
		<path class="st2" d="M6.9,132.2v-6.4h1.9c2.1,0,2.7,1.4,2.7,3.2c0,1.8-0.6,3.2-2.7,3.2H6.9z M7.8,131.3h1c1.3,0,1.7-0.9,1.7-2.3
			c0-1.4-0.4-2.3-1.7-2.3h-1V131.3z"/>
		<path class="st2" d="M15.8,129.3h-2.7v2H16v0.9h-3.9v-6.4H16v0.9h-2.9v1.8h2.7V129.3z"/>
		<path class="st2" d="M21.4,125.8l-2,6.5h-1l-2-6.5h1l1.5,5.2l1.5-5.2H21.4z"/>
	</g>
	<g class="st1">
		<path class="st2" d="M25.6,129.3H23v2h2.9v0.9H22v-6.4h3.9v0.9H23v1.8h2.7V129.3z"/>
	</g>
	<g class="st1">
		<path class="st2" d="M27.7,131.3h2.8v0.9h-3.7v-6.4h1V131.3z"/>
	</g>
	<g class="st1">
		<path class="st2" d="M30.5,129c0-1.8,0.4-3.3,2.5-3.3s2.5,1.5,2.5,3.3s-0.4,3.3-2.5,3.3S30.5,130.8,30.5,129z M31.5,129
			c0,1.5,0.3,2.4,1.5,2.4s1.5-0.9,1.5-2.4s-0.3-2.4-1.5-2.4S31.5,127.5,31.5,129z"/>
		<path class="st2" d="M37,132.2h-1v-6.4h2c1.6,0,2.2,1,2.2,2c0,1-0.6,2-2.2,2H37V132.2z M37,128.9h1.1c1,0,1.1-0.6,1.1-1.1
			s-0.2-1.1-1.1-1.1H37V128.9z"/>
		<path class="st2" d="M45.4,130.6h-2l-0.5,1.6h-1l2-6.5h1l2,6.5h-1L45.4,130.6z M44.4,127l-0.8,2.8h1.6L44.4,127z"/>
	</g>
	<g class="st1">
		<path class="st2" d="M49,129c0-2,0.7-3.3,2.6-3.3c0.9,0,1.5,0.2,1.8,0.3v0.9c-0.6-0.2-1.1-0.4-1.7-0.4c-1.3,0-1.8,0.9-1.8,2.4
			c0,1.6,0.5,2.4,1.8,2.4c0.4,0,0.7-0.1,0.9-0.1v-1.7h-1.1v-0.9h2.1v3.2c-0.3,0.2-1.1,0.4-2,0.4C49.7,132.3,49,131,49,129z"/>
	</g>
	<g class="st1">
		<path class="st2" d="M55.4,131.3h2.8v0.9h-3.7v-6.4h1V131.3z"/>
	</g>
	<g class="st1">
		<path class="st2" d="M58.2,129c0-1.8,0.4-3.3,2.5-3.3c2,0,2.5,1.5,2.5,3.3s-0.4,3.3-2.5,3.3C58.6,132.3,58.2,130.8,58.2,129z
			 M59.2,129c0,1.5,0.3,2.4,1.5,2.4s1.5-0.9,1.5-2.4s-0.3-2.4-1.5-2.4S59.2,127.5,59.2,129z"/>
		<path class="st2" d="M63.8,125.8H66c1.6,0,2,0.8,2,1.7c0,0.5-0.3,1-0.8,1.3c0.6,0.2,1,0.8,1,1.5c0,1.1-0.5,1.9-2.2,1.9h-2.2V125.8
			z M66,126.7h-1.2v1.8H66c0.8,0,0.9-0.5,0.9-0.9C67,127.2,66.8,126.7,66,126.7z M64.8,131.3h1.3c0.9,0,1.1-0.5,1.1-1
			c0-0.7-0.3-1-1.1-1h-1.3V131.3z"/>
		<path class="st2" d="M72,130.6h-2l-0.5,1.6h-1l2-6.5h1l2,6.5h-1L72,130.6z M70.9,127l-0.8,2.8h1.6L70.9,127z"/>
		<path class="st2" d="M74.9,131.3h2.8v0.9h-3.7v-6.4h1V131.3z"/>
	</g>
	<g class="st1">
		<path class="st2" d="M9.7,138.6v2.6h-1v-2.6l-2.2-3.8h1.1l1.6,3l1.6-3h1.1L9.7,138.6z"/>
	</g>
	<g class="st1">
		<path class="st2" d="M11.9,138c0-1.8,0.4-3.3,2.5-3.3c2,0,2.5,1.5,2.5,3.3s-0.4,3.3-2.5,3.3C12.4,141.3,11.9,139.8,11.9,138z
			 M12.9,138c0,1.5,0.3,2.4,1.5,2.4s1.5-0.9,1.5-2.4s-0.3-2.4-1.5-2.4S12.9,136.5,12.9,138z"/>
		<path class="st2" d="M17.6,139.2v-4.4h1v4.3c0,1.2,0.8,1.3,1.4,1.3c0.5,0,1.4-0.1,1.4-1.3v-4.3h1v4.4c0,1.8-1.4,2.1-2.3,2.1
			C19,141.3,17.6,141,17.6,139.2z"/>
	</g>
	<g class="st1">
		<path class="st2" d="M25.3,135.7v5.5h-1v-5.5h-1.7v-0.9h4.3v0.9H25.3z"/>
	</g>
	<g class="st1">
		<path class="st2" d="M31.1,141.2v-2.9h-2.6v2.9h-1v-6.4h1v2.6h2.6v-2.6h1v6.4H31.1z"/>
	</g>
	<g class="st1">
		<path class="st2" d="M38,138.3h-2.7v2h2.9v0.9h-3.9v-6.4h3.9v0.9h-2.9v1.8H38V138.3z"/>
		<path class="st2" d="M42.5,140.3h-0.9l-1.6-3.9l0,4.8h-1v-6.4h1.2l1.7,4.3l1.7-4.3H45v6.4h-1l0-4.8L42.5,140.3z"/>
	</g>
	<g class="st1">
		<path class="st2" d="M46.9,141.2h-1v-6.4h2c1.6,0,2.2,1,2.2,2c0,1-0.6,2-2.2,2h-1.1V141.2z M46.9,137.9h1.1c1,0,1.1-0.6,1.1-1.1
			s-0.2-1.1-1.1-1.1h-1.1V137.9z"/>
	</g>
	<g class="st1">
		<path class="st2" d="M51.6,140.3h2.8v0.9h-3.7v-6.4h1V140.3z"/>
	</g>
	<g class="st1">
		<path class="st2" d="M54.4,138c0-1.8,0.4-3.3,2.5-3.3c2,0,2.5,1.5,2.5,3.3s-0.4,3.3-2.5,3.3C54.8,141.3,54.4,139.8,54.4,138z
			 M55.4,138c0,1.5,0.3,2.4,1.5,2.4s1.5-0.9,1.5-2.4s-0.3-2.4-1.5-2.4S55.4,136.5,55.4,138z"/>
	</g>
	<g class="st1">
		<path class="st2" d="M62.6,138.6v2.6h-1v-2.6l-2.2-3.8h1.1l1.6,3l1.6-3h1.1L62.6,138.6z"/>
	</g>
	<g class="st1">
		<path class="st2" d="M68.7,140.3h-0.9l-1.6-3.9l0,4.8h-1v-6.4h1.2l1.7,4.3l1.7-4.3h1.2v6.4h-1l0-4.8L68.7,140.3z"/>
		<path class="st2" d="M75.8,138.3h-2.7v2H76v0.9h-3.9v-6.4H76v0.9h-2.9v1.8h2.7V138.3z"/>
	</g>
	<g class="st1">
		<path class="st2" d="M80.6,141.2l-2.8-4.5l0,4.5h-0.9v-6.4h0.9l2.8,4.5l0-4.5h0.9v6.4H80.6z"/>
	</g>
	<g class="st1">
		<path class="st2" d="M84.6,135.7v5.5h-1v-5.5H82v-0.9h4.3v0.9H84.6z"/>
	</g>
	<g class="st1">
	</g>
	<g class="st1">
		<path class="st2" d="M11.1,148.3c0,1.2-0.7,2-2.4,2c-0.6,0-1.5-0.1-1.9-0.4v-1c0.3,0.2,1,0.4,1.8,0.4c1.1,0,1.5-0.5,1.5-1.1
			c0-0.7-0.3-0.9-1.2-1c-1.6-0.2-2.2-0.6-2.2-1.8c0-0.9,0.5-1.8,2.3-1.8c0.8,0,1.4,0.1,1.7,0.3v0.9c-0.5-0.2-1-0.3-1.7-0.3
			c-1,0-1.3,0.4-1.3,1c0,0.7,0.4,0.8,1.2,0.9C10.3,146.7,11.1,147,11.1,148.3z"/>
	</g>
	<g class="st1">
		<path class="st2" d="M13.9,144.7v5.5h-1v-5.5h-1.7v-0.9h4.3v0.9H13.9z"/>
	</g>
	<g class="st1">
		<path class="st2" d="M17.2,150.2h-1v-6.4h2.1c1.6,0,2.2,0.7,2.2,1.9c0,0.8-0.3,1.4-1,1.7l1.3,2.8h-1.1l-1.2-2.6h-1.3V150.2z
			 M17.2,146.7h1.3c0.9,0,1-0.5,1-1c0-0.5-0.1-1-1-1h-1.3V146.7z"/>
	</g>
	<g class="st1">
		<path class="st2" d="M24.5,148.6h-2l-0.5,1.6h-1l2-6.5h1l2,6.5h-1L24.5,148.6z M23.5,145l-0.8,2.8h1.6L23.5,145z"/>
	</g>
	<g class="st1">
		<path class="st2" d="M28.1,144.7v5.5h-1v-5.5h-1.7v-0.9h4.3v0.9H28.1z"/>
		<path class="st2" d="M34,147.3h-2.7v2h2.9v0.9h-3.9v-6.4h3.9v0.9h-2.9v1.8H34V147.3z"/>
	</g>
	<g class="st1">
		<path class="st2" d="M35,147c0-2,0.7-3.3,2.6-3.3c0.9,0,1.5,0.2,1.8,0.3v0.9c-0.6-0.2-1.1-0.4-1.7-0.4c-1.3,0-1.8,0.9-1.8,2.4
			c0,1.6,0.5,2.4,1.8,2.4c0.4,0,0.7-0.1,0.9-0.1v-1.7h-1.1v-0.9h2.1v3.2c-0.3,0.2-1.1,0.4-2,0.4C35.7,150.3,35,149,35,147z"/>
	</g>
	<g class="st1">
		<path class="st2" d="M43,147.6v2.6h-1v-2.6l-2.2-3.8h1.1l1.6,3l1.6-3h1.1L43,147.6z"/>
	</g>
	<g>
		<rect x="3.3" y="24" class="st2" width="94.8" height="94.8"/>
	</g>
	<g>
		<path class="st2" d="M98.2,20.7H3.3V3.3h94.8V20.7z M4.3,19.7h92.8V4.3H4.3L4.3,19.7z"/>
	</g>
	<g class="st1">
		<path class="st2" d="M6.7,6.9h4.5v1.4H9.9v8.8H8.1V8.3H6.7V6.9z"/>
	</g>
	<g class="st1">
		<path class="st2" d="M11.2,17.1l1.9-10.2h1.9L17,17.1h-1.8l-0.3-1.9h-1.8l-0.3,1.9H11.2z M13.3,13.9h1.4L14,9.8h0L13.3,13.9z"/>
	</g>
	<g class="st1">
		<path class="st2" d="M19.6,12.4v4.7h-1.7V6.9h2.5c1.7,0,2.4,0.9,2.4,2.3v1.3c0,1.1-0.4,1.7-1.4,2l1.6,4.6h-1.8L19.6,12.4z
			 M19.6,8.3v3.2h0.6c0.6,0,0.8-0.3,0.8-0.8V9.2c0-0.6-0.3-0.8-0.8-0.8H19.6z"/>
	</g>
	<g class="st1">
		<path class="st2" d="M26.4,11.7h2.4v5.4h-1.2V16c-0.2,0.8-0.7,1.2-1.6,1.2c-1.5,0-2.1-1.2-2.1-2.7V9.6c0-1.6,0.8-2.7,2.6-2.7
			c1.9,0,2.4,1.1,2.4,2.6v0.9h-1.6v-1c0-0.6-0.2-1-0.9-1c-0.6,0-0.9,0.4-0.9,1v5.5c0,0.6,0.3,1,0.8,1c0.6,0,0.8-0.3,0.8-1V13h-0.8
			V11.7z"/>
	</g>
	<g class="st1">
		<path class="st2" d="M30.2,6.9h4.1v1.4h-2.4v2.9h1.7v1.4h-1.7v3.1h2.4v1.4h-4.1V6.9z"/>
	</g>
	<g class="st1">
		<path class="st2" d="M35.1,6.9h4.5v1.4h-1.4v8.8h-1.7V8.3h-1.4V6.9z"/>
	</g>
	<g class="st1">
		<path class="st2" d="M89.4,6.9h2.5c1.7,0,2.3,0.8,2.3,2.2v1c0,0.9-0.3,1.4-1,1.6c0.9,0.2,1.3,0.8,1.3,1.7v1.3
			c0,1.4-0.6,2.2-2.4,2.2h-2.7V6.9z M91.1,11.2h0.6c0.6,0,0.8-0.3,0.8-0.8V9.2c0-0.6-0.3-0.8-0.8-0.8h-0.6V11.2z M91.1,12.5v3.2h0.8
			c0.6,0,0.8-0.3,0.8-0.8v-1.5c0-0.5-0.3-0.8-0.9-0.8H91.1z"/>
	</g>
	<g class="st1">
		<path class="st2" d="M78.1,14.6v-1.1c0-1,0.3-1.7,1.1-2c-0.7-0.3-1-0.9-1-1.8V9.2c0-1.6,0.8-2.4,2.4-2.4c1.6,0,2.4,0.9,2.4,2.4
			v0.4c0,0.8-0.3,1.4-1,1.8c0.8,0.4,1.1,1.1,1.1,2v1.1c0,1.5-0.7,2.6-2.5,2.6C78.8,17.2,78.1,16.1,78.1,14.6z M81.5,14.8v-1.6
			c0-0.6-0.2-1-0.8-1c-0.6,0-0.8,0.4-0.8,1v1.6c0,0.6,0.2,1,0.8,1C81.2,15.8,81.5,15.4,81.5,14.8z M81.4,9.8V9.1c0-0.6-0.2-1-0.8-1
			c-0.6,0-0.8,0.4-0.8,1v0.7c0,0.6,0.2,1,0.8,1C81.2,10.8,81.4,10.4,81.4,9.8z"/>
	</g>
	<g>
		<polygon class="st2" points="85.4,9.9 85.4,14.1 87.6,12 		"/>
	</g>
	<g>
		<path class="st2" d="M98.2,153.8H3.3v-31.6h94.8V153.8z M4.3,152.8h92.8v-29.6H4.3L4.3,152.8z"/>
	</g>
	<g>
		<g>
			<polygon class="st0" points="15.2,58.9 13.7,58.9 13.7,89.2 35.4,89.2 35.4,87.4 15.2,87.4 			"/>
		</g>
		<g>
			<path class="st0" d="M16.9,85.5h21.7V55.3H16.9V85.5z M19.6,68.7c0,0,0.1-0.1,0.2-0.1h16c0.1,0,0.2,0.1,0.2,0.1v2.6
				c0,0.1-0.1,0.1-0.2,0.1h-16c-0.1,0-0.2,0-0.2-0.1V68.7z M19.6,73.2c0-0.1,0.1-0.1,0.2-0.1h16c0.1,0,0.2,0,0.2,0.1v2.6
				c0,0-0.1,0.1-0.2,0.1h-16c-0.1,0-0.2,0-0.2-0.1V73.2z M19.6,77.7c0-0.1,0.1-0.1,0.2-0.1h16c0.1,0,0.2,0,0.2,0.1v2.6
				c0,0.1-0.1,0.1-0.2,0.1h-16c-0.1,0-0.2,0-0.2-0.1V77.7z"/>
		</g>
	</g>
	<g>
		<g>
			<g>
				<path class="st0" d="M82.1,53c0-2-1.6-3.6-3.6-3.6c-2,0-3.6,1.6-3.6,3.6c0,2,1.6,3.6,3.6,3.6l0,0C80.5,56.6,82.1,55,82.1,53z"/>
			</g>
			<g>
				<path class="st0" d="M71.3,71.8l1.8-6.2l-2.7-1.5l-2.1,6.8c0,0-0.5,1.8,1,2.2S71.3,71.8,71.3,71.8z"/>
			</g>
			<g>
				<path class="st0" d="M82.8,63.2c0.5-0.1,0.6,0.5,0.6,0.5l0.3,1.2l2.7-1.5l-0.7-2.3c0,0-1.1-2.8-3.4-2.8h-7.6
					c-2.4,0-3.4,2.8-3.4,2.8l-0.7,2.1l2.7,1.5l0.3-1c0,0,0.1-0.6,0.6-0.5s0.3,0.8,0.3,0.8l-4.2,15.1h3.9V90c0,1,0.8,1.9,1.9,1.9
					c1,0,1.9-0.8,1.9-1.9V79.2h1.1V90c0,1,0.8,1.9,1.9,1.9c1,0,1.9-0.8,1.9-1.9V79.2h3.9L82.5,64C82.5,64,82.3,63.3,82.8,63.2z"/>
			</g>
			<g>
				<path class="st0" d="M88.8,70.8l-2-6.6L84,65.7l1.8,6.1c0,0,0.5,1.7,2,1.3S88.8,70.8,88.8,70.8z"/>
			</g>
			<g>
				<path class="st0" d="M74.6,51.8h-0.4c0.7-2.4,3.2-3.9,5.6-3.2c1.6,0.4,2.8,1.6,3.2,3.2h-0.5v2.4h0.7c-0.2,0.8-0.6,1.6-1.2,2.1
					c-0.1-0.2-0.4-0.2-0.6-0.2L80,56.7c-0.2,0.1-0.4,0.4-0.3,0.6c0,0,0,0,0,0l0.1,0.3c0.1,0.2,0.4,0.4,0.6,0.3c0,0,0,0,0,0l1.3-0.5
					c0.2-0.1,0.4-0.4,0.3-0.6c0,0,0,0,0,0L82,56.5c0.7-0.6,1.1-1.4,1.4-2.3h0.7v-2.4h-0.7c-0.7-2.7-3.5-4.3-6.1-3.5
					c-1.7,0.5-3.1,1.8-3.5,3.5H73v2.4h1.6V51.8z"/>
			</g>
		</g>
		<g>
			<g>
				<path class="st0" d="M52.5,89.9c0,1.1,0.9,2,2,2c1.1,0,2-0.9,2-2v-1.5h-4.1V89.9z"/>
			</g>
			<g>
				<path class="st0" d="M57.7,89.9c0,1.1,0.9,2,2,2c1.1,0,2-0.9,2-2v-1.5h-4.1V89.9z"/>
			</g>
			<g>
				<path class="st0" d="M53.5,61.8v-4.1h-0.3h-0.3c-2.5,0.2-4.4,2.3-4.4,4.8v10.1c0,0.8,0.6,1.4,1.4,1.4c0.8,0,1.4-0.6,1.4-1.4
					v-8.7c0-0.3,0.1-0.8,0.7-0.8h1.5V61.8z"/>
			</g>
			<g>
				<polygon class="st0" points="55,60.9 59.4,60.9 59.4,57.7 57.1,57.7 55,57.7 				"/>
			</g>
			<g>
				<path class="st0" d="M60.4,64.1H60v-2.3h-5.6v2.3h-1.9v23.3h4.1V74.7c0-0.3,0.2-0.6,0.5-0.6c0,0,0,0,0.1,0l0,0
					c0.3,0,0.6,0.2,0.6,0.5c0,0,0,0.1,0,0.1v12.7h4.1V64.1H60.4z"/>
			</g>
			<g>
				<path class="st0" d="M61.4,57.7h-0.3h-0.2v5.5h1.4c0.6,0,0.7,0.4,0.7,0.8v8.7c0.1,0.8,0.8,1.4,1.5,1.3c0.7-0.1,1.2-0.6,1.3-1.3
					V62.5C65.8,60,63.9,57.9,61.4,57.7z"/>
			</g>
			<g>
				<path class="st0" d="M59.7,61.1c0,0.2,0.2,0.4,0.4,0.4c0.2,0,0.4-0.2,0.4-0.4c0-0.2-0.2-0.4-0.4-0.4c0,0,0,0,0,0
					C59.9,60.7,59.7,60.9,59.7,61.1z"/>
			</g>
			<g>
				<path class="st0" d="M53.9,61.1c0,0.2,0.2,0.4,0.4,0.4c0,0,0,0,0,0c0.2,0,0.4-0.3,0.4-0.5c0-0.2-0.2-0.3-0.4-0.4
					C54.1,60.7,53.9,60.9,53.9,61.1z"/>
			</g>
			<g>
				<path class="st0" d="M59.5,51.9c-0.3-0.3-0.6-0.5-1.1-0.3c-0.3,0.2-0.5,0.3-0.9,0.5c-0.8,0.3-1.6,0.6-2.4,0.7
					c-0.6,0.1-1.3,0.2-1.9,0.1c0.2,2.1,2,3.6,4.1,3.4c1.8-0.2,3.2-1.6,3.4-3.3C60.4,52.6,60,52.2,59.5,51.9z"/>
			</g>
			<g>
				<path class="st0" d="M53.2,52.1c0.6,0,1.2,0,1.8-0.1c0.7-0.1,1.5-0.4,2.1-0.7c0.4-0.2,0.8-0.3,1.2-0.5c0.2-0.1,0.5-0.2,0.8-0.1
					c0.1,0.1,0.2,0.1,0.3,0.2c0.2,0.1,0.2,0.2,0.3,0.3s0.1,0.1,1,0.8c0.1,0.1,0.2,0.2,0.3,0.1s0.1-0.7,0.1-1c-0.1-1-0.5-1.9-1.1-2.6
					c-0.2-0.3-0.5-0.4-0.8-0.4c-0.5,0.1-0.5-0.3-0.8-0.5c-1.1-0.4-2.4-0.2-3.3,0.5c-1.1,0.9-1.9,2.1-2.5,3.4
					C52.4,51.9,52.8,52.1,53.2,52.1z"/>
			</g>
		</g>
	</g>
</g>
</svg>
