<?xml version="1.0" encoding="utf-8"?>
<!-- Generator: Adobe Illustrator 22.0.1, SVG Export Plug-In . SVG Version: 6.00 Build 0)  -->
<svg version="1.1" id="Layer_1" xmlns="http://www.w3.org/2000/svg" xmlns:xlink="http://www.w3.org/1999/xlink" x="0px" y="0px"
	 viewBox="0 0 101.5 157.1" style="enable-background:new 0 0 101.5 157.1;" xml:space="preserve">
<style type="text/css">
	.st0{fill:#FFFFFF;}
	.st1{fill:#A21942;}
	.st2{enable-background:new    ;}
</style>
<title>Artboard 23 copy 4</title>
<g id="WHITE_BG">
	<g>
		<rect y="0" class="st0" width="101.5" height="157.1"/>
	</g>
</g>
<g id="TARGETS">
	<g>
		<g>
			<path class="st1" d="M7.8,132.2h-1v-6.4h2.1c1.6,0,2.2,1,2.2,2c0,1-0.6,2-2.2,2H7.8V132.2z M7.8,128.9H9c0.6,0,1.1-0.5,1.1-1.1
				c0-0.6-0.5-1.1-1.1-1.1c0,0,0,0,0,0H7.8V128.9z"/>
		</g>
		<g>
			<path class="st1" d="M12.7,132.2h-1v-6.4h2.1c1.6,0,2.2,0.7,2.2,1.9c0.1,0.7-0.3,1.4-1,1.7l1.3,2.8h-1.1l-1.2-2.6h-1.3V132.2z
				 M12.7,128.7h1.2c0.9,0,1-0.5,1-1s-0.1-1-1-1h-1.2V128.7z"/>
		</g>
		<g>
			<path class="st1" d="M16.7,129c0-1.8,0.4-3.3,2.5-3.3s2.5,1.5,2.5,3.3s-0.4,3.3-2.5,3.3S16.7,130.8,16.7,129z M17.7,129
				c0,1.5,0.3,2.4,1.5,2.4s1.5-0.9,1.5-2.4s-0.3-2.4-1.5-2.4S17.7,127.5,17.7,129L17.7,129z"/>
		</g>
		<g>
			<path class="st1" d="M25.9,131.3H25l-1.6-3.9l0,4.8h-1v-6.4h1.2l1.7,4.3l1.7-4.3h1.2v6.4h-1v-4.8L25.9,131.3z"/>
		</g>
		<g>
			<path class="st1" d="M29.3,129c0-1.8,0.4-3.3,2.5-3.3s2.5,1.5,2.5,3.3s-0.4,3.3-2.5,3.3S29.3,130.8,29.3,129z M30.3,129
				c0,1.5,0.3,2.4,1.5,2.4c1.2,0,1.5-0.9,1.5-2.4s-0.3-2.4-1.5-2.4S30.2,127.5,30.3,129L30.3,129z"/>
		</g>
		<g>
			<path class="st1" d="M36.9,126.7v5.5h-1v-5.5h-1.6v-0.9h4.3v0.9L36.9,126.7z"/>
		</g>
		<g>
			<path class="st1" d="M42.7,129.3H40v2h3v0.9h-3.9v-6.4H43v0.9h-3v1.8h2.7L42.7,129.3z"/>
		</g>
		<g>
			<path class="st1" d="M45.2,125.8h2.2c1.5,0,2,0.8,2,1.8c0,0.5-0.3,1-0.8,1.3c0.6,0.2,1.1,0.8,1,1.5c0,1-0.5,1.9-2.2,1.9h-2.2
				L45.2,125.8z M47.3,126.7h-1.2v1.8h1.2c0.8,0,0.9-0.5,0.9-0.9S48.2,126.7,47.3,126.7z M46.1,131.3h1.3c0.9,0,1.1-0.5,1.1-1
				s-0.3-1-1.1-1h-1.3L46.1,131.3z"/>
		</g>
		<g>
			<path class="st1" d="M53.8,129.3h-2.6v2h2.9v0.9h-3.9v-6.4h3.9v0.9h-2.9v1.8h2.7L53.8,129.3z"/>
		</g>
		<g>
			<path class="st1" d="M58.7,132.2l-2.8-4.5v4.5H55v-6.4h0.9l2.8,4.5v-4.5h0.9v6.4H58.7z"/>
		</g>
		<g>
			<path class="st1" d="M64.1,129.3h-2.7v2h2.9v0.9h-3.9v-6.4h3.9v0.9h-2.9v1.8h2.7V129.3z"/>
		</g>
		<g>
			<path class="st1" d="M68.7,129.4h-2.6v2.8h-1v-6.4H69v0.9h-2.9v1.8h2.6L68.7,129.4z"/>
		</g>
		<g>
			<path class="st1" d="M69.9,132.2v-6.4h0.9v6.4H69.9z"/>
		</g>
		<g>
			<path class="st1" d="M74.4,125.7c0.5,0,1,0.1,1.5,0.3v0.9c-0.5-0.2-0.9-0.3-1.4-0.3c-1.2,0-1.7,0.8-1.7,2.4
				c0,1.6,0.5,2.4,1.7,2.4c0.5,0,1-0.1,1.4-0.3v0.9c-0.5,0.2-1,0.3-1.5,0.3c-1.9,0-2.6-1.2-2.6-3.3S72.6,125.7,74.4,125.7z"/>
		</g>
		<g>
			<path class="st1" d="M77,132.2v-6.4h1v6.4H77z"/>
		</g>
		<g>
			<path class="st1" d="M82.1,130.6H80l-0.4,1.6h-1l2-6.4h1l2,6.4h-1L82.1,130.6z M81.1,127l-0.8,2.8h1.6L81.1,127z"/>
		</g>
		<g>
			<path class="st1" d="M85,131.3h2.8v0.9h-3.7v-6.4h1L85,131.3z"/>
		</g>
		<g>
			<path class="st1" d="M10.1,139.6h-2l-0.4,1.6h-1l2-6.4h1l2,6.4h-1L10.1,139.6z M9.1,136l-0.8,2.8h1.6L9.1,136z"/>
		</g>
		<g>
			<path class="st1" d="M15.8,141.2l-2.8-4.5v4.5h-0.9v-6.4H13l2.8,4.5v-4.5h0.9v6.4L15.8,141.2z"/>
		</g>
		<g>
			<path class="st1" d="M17.6,141.2v-6.4h1.9c2.1,0,2.7,1.4,2.7,3.2s-0.6,3.2-2.7,3.2H17.6z M18.6,140.3h1c1.3,0,1.7-0.9,1.7-2.3
				s-0.4-2.3-1.7-2.3h-1V140.3z"/>
		</g>
		<g>
			<path class="st1" d="M28.6,139.3c0,1.2-0.7,2-2.4,2c-0.6,0-1.3-0.1-1.9-0.4v-1c0.6,0.3,1.2,0.4,1.8,0.4c1.1,0,1.5-0.5,1.5-1.1
				s-0.3-0.9-1.1-1c-1.6-0.2-2.2-0.6-2.2-1.8c0-0.9,0.5-1.9,2.3-1.9c0.6,0,1.2,0.1,1.7,0.3v1c-0.5-0.2-1.1-0.3-1.7-0.3
				c-1,0-1.3,0.4-1.3,1s0.4,0.8,1.2,0.9C27.8,137.7,28.6,138,28.6,139.3z"/>
		</g>
		<g>
			<path class="st1" d="M29.2,139.2v-4.4h1v4.3c-0.1,0.6,0.4,1.2,1,1.3c0.1,0,0.2,0,0.3,0c0.6,0.1,1.2-0.3,1.4-1c0-0.1,0-0.2,0-0.3
				v-4.3h1v4.4c0.1,1.1-0.8,2.1-1.9,2.1c-0.2,0-0.3,0-0.4,0c-1.1,0.2-2.1-0.5-2.3-1.6C29.2,139.5,29.2,139.4,29.2,139.2z"/>
		</g>
		<g>
			<path class="st1" d="M38.8,139.3c0,1.2-0.7,2-2.4,2c-0.6,0-1.3-0.1-1.9-0.3v-1c0.6,0.3,1.2,0.4,1.8,0.4c1.1,0,1.5-0.5,1.5-1.1
				s-0.3-0.9-1.2-1c-1.6-0.2-2.2-0.6-2.2-1.8c0-0.9,0.5-1.9,2.3-1.9c0.6,0,1.2,0.1,1.7,0.3v1c-0.5-0.2-1.1-0.3-1.7-0.3
				c-1,0-1.3,0.4-1.3,1s0.4,0.8,1.2,0.9C38,137.7,38.8,138,38.8,139.3z"/>
		</g>
		<g>
			<path class="st1" d="M41.5,135.7v5.5h-1v-5.5h-1.7v-0.9h4.3v0.9H41.5z"/>
		</g>
		<g>
			<path class="st1" d="M46.3,139.6h-2l-0.5,1.6h-1l2-6.4h1l2,6.4h-1L46.3,139.6z M45.3,136l-0.8,2.8h1.6L45.3,136z"/>
		</g>
		<g>
			<path class="st1" d="M48.4,141.2v-6.4h1v6.4H48.4z"/>
		</g>
		<g>
			<path class="st1" d="M54.2,141.2l-2.8-4.5v4.5h-0.9v-6.4h0.9l2.8,4.5v-4.5h1v6.4H54.2z"/>
		</g>
		<g>
			<path class="st1" d="M59.1,139.6H57l-0.5,1.6h-1l2-6.4h1l2,6.4h-1L59.1,139.6z M58.1,136l-0.8,2.8h1.6L58.1,136z"/>
		</g>
		<g>
			<path class="st1" d="M61.1,134.8h2.1c1.6,0,2,0.8,2,1.8c0,0.5-0.3,1-0.8,1.3c0.6,0.2,1.1,0.8,1,1.5c0,1-0.5,1.9-2.2,1.9h-2.2
				V134.8z M63.2,135.7H62v1.8h1.2c0.8,0,0.9-0.5,0.9-0.9S64.1,135.7,63.2,135.7z M62,140.3h1.3c0.9,0,1.1-0.5,1.1-1s-0.3-1-1.1-1
				H62V140.3z"/>
		</g>
		<g>
			<path class="st1" d="M67.1,140.3h2.8v0.9h-3.7v-6.4h0.9V140.3z"/>
		</g>
		<g>
			<path class="st1" d="M74,138.3h-2.7v2h2.9v0.9h-3.9v-6.4h3.9v0.9h-2.9v1.8H74V138.3z"/>
		</g>
		<g>
			<path class="st1" d="M9.2,144.7v5.5h-1v-5.5H6.6v-0.9h4.3v0.9H9.2z"/>
		</g>
		<g>
			<path class="st1" d="M11.1,147c0-1.8,0.4-3.3,2.5-3.3s2.5,1.5,2.5,3.3s-0.4,3.3-2.4,3.3S11.1,148.8,11.1,147z M12.1,147
				c0,1.5,0.3,2.4,1.5,2.4s1.5-0.9,1.5-2.4s-0.3-2.4-1.5-2.4S12,145.5,12.1,147L12.1,147z"/>
		</g>
		<g>
			<path class="st1" d="M16.7,148.2v-4.4h1v4.3c-0.1,0.7,0.4,1.2,1,1.3c0.1,0,0.2,0,0.3,0c0.6,0.1,1.2-0.3,1.4-1c0-0.1,0-0.2,0-0.3
				v-4.3h1v4.4c0,1.1-0.8,2.1-2,2.1c-0.1,0-0.3,0-0.4,0c-1.1,0.2-2.2-0.6-2.3-1.7C16.7,148.4,16.7,148.3,16.7,148.2z"/>
		</g>
		<g>
			<path class="st1" d="M23.2,150.2h-1v-6.4h2.1c1.6,0,2.2,0.7,2.2,1.9c0.1,0.7-0.3,1.4-1,1.7l1.3,2.8h-1.1l-1.2-2.6h-1.3V150.2z
				 M23.2,146.7h1.3c0.9,0,1-0.5,1-1s-0.1-1-1-1h-1.3V146.7z"/>
		</g>
		<g>
			<path class="st1" d="M27.5,150.2v-6.4h1v6.4H27.5z"/>
		</g>
		<g>
			<path class="st1" d="M33.8,148.3c0,1.2-0.7,2-2.4,2c-0.6,0-1.3-0.1-1.9-0.4v-1c0.6,0.3,1.2,0.4,1.8,0.4c1.1,0,1.5-0.5,1.5-1.1
				s-0.3-0.9-1.1-1c-1.6-0.2-2.2-0.6-2.2-1.8c0-0.9,0.5-1.9,2.3-1.9c0.6,0,1.2,0.1,1.7,0.3v1c-0.5-0.2-1.1-0.3-1.7-0.3
				c-1,0-1.3,0.4-1.3,1s0.4,0.8,1.2,0.9C33,146.7,33.8,147,33.8,148.3z"/>
		</g>
		<g>
			<path class="st1" d="M38,149.3h-0.9l-1.6-3.9v4.8h-1v-6.4h1.2l1.7,4.4l1.7-4.4h1.2v6.4h-1v-4.8L38,149.3z"/>
		</g>
	</g>
	<g>
		<rect x="3.3" y="24" class="st1" width="94.8" height="94.8"/>
	</g>
	<g>
		<path class="st1" d="M98.2,20.7H3.3V3.3h94.8V20.7z M4.3,19.7h92.8V4.3H4.3L4.3,19.7z"/>
	</g>
	<g class="st2">
		<path class="st1" d="M6.7,6.9h4.5v1.4H9.9v8.8H8.1V8.3H6.7V6.9z"/>
	</g>
	<g class="st2">
		<path class="st1" d="M11.2,17.1l1.9-10.2h1.9L17,17.1h-1.8l-0.3-1.9h-1.8l-0.3,1.9H11.2z M13.3,13.9h1.4L14,9.8h0L13.3,13.9z"/>
	</g>
	<g class="st2">
		<path class="st1" d="M19.6,12.4v4.7h-1.7V6.9h2.5c1.7,0,2.4,0.9,2.4,2.3v1.3c0,1.1-0.4,1.7-1.4,2l1.6,4.6h-1.8L19.6,12.4z
			 M19.6,8.3v3.2h0.6c0.6,0,0.8-0.3,0.8-0.8V9.2c0-0.6-0.3-0.8-0.8-0.8H19.6z"/>
	</g>
	<g class="st2">
		<path class="st1" d="M26.4,11.7h2.4v5.4h-1.2V16c-0.2,0.8-0.7,1.2-1.6,1.2c-1.5,0-2.1-1.2-2.1-2.7V9.6c0-1.6,0.8-2.7,2.6-2.7
			c1.9,0,2.4,1.1,2.4,2.6v0.9h-1.6v-1c0-0.6-0.2-1-0.9-1c-0.6,0-0.9,0.4-0.9,1v5.5c0,0.6,0.3,1,0.8,1c0.6,0,0.8-0.3,0.8-1V13h-0.8
			V11.7z"/>
	</g>
	<g class="st2">
		<path class="st1" d="M30.2,6.9h4.1v1.4h-2.4v2.9h1.7v1.4h-1.7v3.1h2.4v1.4h-4.1V6.9z"/>
	</g>
	<g class="st2">
		<path class="st1" d="M35.1,6.9h4.5v1.4h-1.4v8.8h-1.7V8.3h-1.4V6.9z"/>
	</g>
	<g class="st2">
		<path class="st1" d="M78.6,14.6v-1.1c0-1,0.3-1.7,1.1-2c-0.7-0.3-1-0.9-1-1.8V9.3c0-1.6,0.8-2.4,2.4-2.4c1.6,0,2.4,0.9,2.4,2.4
			v0.4c0,0.8-0.3,1.4-1,1.8c0.8,0.4,1.1,1.1,1.1,2v1.1c0,1.5-0.7,2.6-2.5,2.6C79.3,17.2,78.6,16.2,78.6,14.6z M82,14.8v-1.6
			c0-0.6-0.2-1-0.8-1c-0.6,0-0.8,0.4-0.8,1v1.6c0,0.6,0.2,1,0.8,1C81.8,15.8,82,15.4,82,14.8z M81.9,9.9V9.2c0-0.6-0.2-1-0.8-1
			c-0.6,0-0.8,0.4-0.8,1v0.7c0,0.6,0.2,1,0.8,1C81.7,10.8,81.9,10.5,81.9,9.9z"/>
	</g>
	<g class="st2">
	</g>
	<g class="st2">
		<path class="st1" d="M86.5,10.8c0.7,0,1.2,0.6,1.2,1.2c0,0.7-0.6,1.2-1.2,1.2c-0.7,0-1.2-0.6-1.2-1.2
			C85.3,11.4,85.9,10.8,86.5,10.8z"/>
	</g>
	<g class="st2">
		<path class="st1" d="M94.3,9.5v4.9c0,1.6-0.7,2.7-2.5,2.7c-1.9,0-2.4-1-2.4-2.5v-0.5h1.6v0.7c0,0.6,0.2,1,0.8,1
			c0.6,0,0.9-0.4,0.9-1v-2.2h0c-0.3,0.5-0.7,0.8-1.4,0.8c-1.2,0-1.9-0.8-1.9-2.5V9.4c0-1.6,0.7-2.6,2.5-2.6
			C93.6,6.8,94.3,8,94.3,9.5z M91,9.2V11c0,0.7,0.2,1,0.8,1c0.5,0,0.8-0.4,0.8-0.9V9.2c0-0.6-0.2-1-0.8-1C91.2,8.2,91,8.6,91,9.2z"
			/>
	</g>
	<g>
		<path class="st1" d="M98.2,153.8H3.3v-31.6h94.8V153.8z M4.3,152.8h92.8v-29.6H4.3L4.3,152.8z"/>
	</g>
	<g>
		<g>
			<g>
				<path class="st0" d="M41.2,85.8c1.4,0,2.5-1.1,2.5-2.5c0-1.4-1.1-2.5-2.5-2.5s-2.5,1.1-2.5,2.5c0,0,0,0,0,0
					C38.7,84.7,39.8,85.8,41.2,85.8C41.2,85.8,41.2,85.8,41.2,85.8z"/>
			</g>
			<g>
				<path class="st0" d="M48.3,95.7L46.2,89c0,0-0.7-2-2.4-2h-5.3c-1.6,0-2.4,2-2.4,2l-2.1,6.7c0,0-0.4,1.2,0.7,1.6s1.4-0.9,1.4-0.9
					l1.7-5.6c0,0,0.1-0.4,0.4-0.3s0.2,0.6,0.2,0.6l-2.9,10.6h2.7v7.5c0,0.7,0.6,1.3,1.3,1.3c0.7,0,1.3-0.6,1.3-1.3c0,0,0,0,0,0v-7.6
					h0.7v7.6c-0.1,0.7,0.5,1.3,1.2,1.4c0.7,0.1,1.3-0.5,1.4-1.2c0-0.1,0-0.2,0-0.2v-7.6h2.7L44,90.9c0,0-0.1-0.5,0.2-0.6
					s0.4,0.3,0.4,0.3l1.7,5.6c0,0,0.3,1.2,1.4,0.9S48.3,95.7,48.3,95.7z"/>
			</g>
		</g>
		<g>
			<g>
				<path class="st0" d="M76.3,95.8c-0.4-0.2-0.8,0-1,0.3c-0.4,0.7-0.8,1.4-1.3,2c-0.2,0.2-0.4,0.3-0.6,0.3h-2.6
					c-0.3,0-0.5-0.1-0.7-0.3c-0.3-0.3-1.3-2.1-1.3-2.1c-0.1-0.2-0.4-0.4-0.7-0.3c-0.4,0-0.8,0.3-0.8,0.8c0,0,0,0,0,0
					c0,0.1,0,0.2,0.1,0.3l2.1,3.8c0.1,0.2,0.1,0.3,0.1,0.5v0.6l0,0c0,0.2,0,0.4-0.1,0.6l-1,4h1.1v3l0,0c0,0.6,0.4,1,1,1s1-0.4,1-1
					v-3h0.6c0,0,0,0.1,0,0.1v2.8c0,0.6,0.5,1,1,1s1-0.5,1-1v-3h1.1l-1-4c0-0.2-0.1-0.4-0.1-0.5v-0.2l0,0v-0.5c0-0.2,0.1-0.3,0.1-0.5
					l2-3.5c0,0,0.1-0.2,0.2-0.4C76.8,96.3,76.6,96,76.3,95.8z"/>
			</g>
			<g>
				<path class="st0" d="M72,97.2c1.2,0,2.1-0.8,2.2-2s-0.8-2.1-2-2.2s-2.1,0.8-2.2,2c0,0,0,0.1,0,0.1C70,96.2,70.9,97.1,72,97.2z"
					/>
			</g>
		</g>
		<g>
			<g>
				<path class="st0" d="M17.2,80.8c-1.4,0-2.5,1.1-2.5,2.5s1.1,2.5,2.5,2.5c1.4,0,2.5-1.1,2.5-2.5c0,0,0,0,0,0
					C19.7,81.9,18.5,80.8,17.2,80.8z"/>
			</g>
			<g>
				<path class="st0" d="M14.7,75.1c-0.1,0.4-0.2,0.8-0.2,1.2c0,1.9,0.6,3.4,2.4,3.5s2.5-1.5,2.5-3.4c0-0.4-0.1-0.8-0.2-1.2
					c0.5-0.2,0.8-0.5,0.7-0.8s-0.6-0.6-1.2-0.4c-0.1,0-0.1,0-0.2,0.1c-0.5,0.2-1.1,0.3-1.6,0.2c-0.5,0-1-0.1-1.5-0.2l0,0
					c-0.6-0.2-1.1,0-1.2,0.4c0,0.2,0,0.4,0.2,0.6C14.5,75,14.6,75.1,14.7,75.1z M18.9,74.1c0.1,0,0.2,0,0.3,0c0.3,0,0.5,0.1,0.6,0.3
					s-0.2,0.4-0.5,0.6C19.1,74.7,19,74.4,18.9,74.1L18.9,74.1z M15,74.1h0.2c-0.2,0.2-0.3,0.5-0.4,0.8c-0.1,0-0.2-0.1-0.2-0.2
					c-0.1-0.1-0.1-0.2-0.1-0.3C14.5,74.2,14.7,74.1,15,74.1L15,74.1z"/>
			</g>
			<g>
				<path class="st0" d="M15.7,73.5c0.4,0.1,0.9,0.2,1.3,0.2c0.4,0,0.9,0,1.3-0.1c0.1,0,0.2-0.1,0.2-0.2s-0.7-0.3-1.5-0.3
					s-1.5,0.1-1.5,0.3S15.6,73.5,15.7,73.5z"/>
			</g>
			<g>
				<path class="st0" d="M19.9,90.4c0-0.1,0.1-0.2,0.2-0.2c2.2-0.5,2.8-1.3,3.1-2.9l1.1-7.1c0-0.6-0.4-1-1-1c-0.5,0-1,0.5-1,1
					l-1.1,6.1c-0.2,0.4-0.3,0.5-0.7,0.5h-6c-1.6,0-2.4,2-2.4,2L10,95.6c0,0-0.4,1.2,0.7,1.6s1.4-0.9,1.4-0.9l1.7-5.7
					c0,0,0.1-0.4,0.4-0.3s0.2,0.6,0.2,0.6l-2.9,10.6h2.7v7.6c0,0.7,0.6,1.3,1.3,1.3c0.7,0,1.3-0.6,1.3-1.3v-7.6h0.7v7.6
					c0.1,0.7,0.7,1.3,1.4,1.2c0.6-0.1,1.1-0.6,1.2-1.2v-7.6h2.7L20,91.1C19.9,90.9,19.9,90.7,19.9,90.4
					C19.9,90.5,19.9,90.5,19.9,90.4L19.9,90.4z"/>
			</g>
		</g>
		<g>
			<g>
				<path class="st0" d="M63.1,85.7h-0.2h-5.8H57c-1.8,0.2-3.2,1.7-3.2,3.5v0.5c0,0.1,0,0.1-0.1,0l0,0l-1.3-1.3v-6
					c0-0.2-0.1-0.4-0.3-0.4c-0.2,0-0.4,0.1-0.4,0.3c0,0,0,0.1,0,0.1v5.5c-0.3-0.1-0.6,0-0.9,0.1l-0.3,0.3c-0.3,0.4-0.2,0.9,0.1,1.3
					l1,1v14h-0.9c-0.3,0-0.6,0.1-0.8,0.3c-0.2,0.2-0.3,0.5-0.3,0.8v4.7h0.6v-4.7c0-0.1,0-0.2,0.1-0.3c0.1-0.1,0.2-0.1,0.4-0.1H51
					v5.2h0.6v-5.2h0.8v5.2H53v-5.2h0.3c0.1,0,0.2,0,0.3,0.1c0.1,0.1,0.1,0.2,0.1,0.3v4.8h0.6v-4.8c0-0.3-0.1-0.5-0.3-0.7
					c-0.2-0.2-0.5-0.3-0.8-0.3h-0.9V91.3L54,93h0l0,0l0,0c0.2,0.2,0.4,0.3,0.7,0.3c0.6,0,1-0.4,1-1v-2c0-0.2,0.1-0.6,0.5-0.6
					s0.4,0.3,0.4,0.5v3.2l0,0v15.5c0,0.8,0.7,1.5,1.5,1.5c0.8,0,1.5-0.7,1.5-1.5c0,0,0,0,0,0V98c0-0.2,0.1-0.4,0.3-0.4
					c0,0,0,0,0.1,0l0,0c0.2,0,0.4,0.2,0.4,0.4c0,0,0,0,0,0.1v10.9c0,0.8,0.7,1.5,1.5,1.5c0.8,0,1.5-0.7,1.5-1.5V93.6l0,0v-3.4
					c0-0.2,0.1-0.5,0.4-0.5c0.4,0,0.5,0.3,0.5,0.6v3.2l0,0v2.9c0,0.6,0.4,1,1,1s1-0.4,1-1v-7.2C66.2,87.4,64.9,85.9,63.1,85.7z"/>
			</g>
			<g>
				<path class="st0" d="M60,84.7c1.5,0,2.7-1.2,2.7-2.8s-1.2-2.7-2.8-2.7s-2.7,1.2-2.7,2.8c0,0,0,0,0,0
					C57.3,83.5,58.5,84.7,60,84.7z"/>
			</g>
		</g>
		<g>
			<g>
				<rect x="23.1" y="104.4" class="st0" width="11.4" height="5.9"/>
			</g>
			<g>
				<path class="st0" d="M32.1,97.7h-1.3c0-0.9-0.8-1.7-1.7-1.7c-0.9,0-1.7,0.8-1.7,1.7c0,0,0,0,0,0h-1.3v6h5.9V97.7z M27.9,97.7
					c0-0.7,0.6-1.3,1.3-1.3c0.7,0,1.3,0.6,1.3,1.3H27.9z"/>
			</g>
		</g>
		<g>
			<g>
				<path class="st0" d="M84,84.5c1.5,0,2.6-1.2,2.6-2.6s-1.2-2.6-2.6-2.6s-2.6,1.2-2.6,2.6l0,0C81.4,83.4,82.5,84.5,84,84.5z"/>
			</g>
			<g>
				<path class="st0" d="M91.1,98.3c0,0,0-0.1,0-0.1c0-0.6-0.5-1.1-1.1-1.2c0.2-0.2,0.3-0.4,0.3-0.7v-7.3c0-1.8-1.4-3.3-3.2-3.5
					h-0.2h-5.8h-0.2c-1.8,0.2-3.2,1.7-3.2,3.5v7.3c0,0.6,0.4,1,1,1s1-0.4,1-1v-6.3c0-0.2,0.1-0.6,0.5-0.6s0.4,0.3,0.4,0.5v18.8
					c0,0.8,0.7,1.5,1.5,1.5s1.5-0.7,1.5-1.5V98c0-0.2,0.2-0.4,0.4-0.4c0,0,0,0,0,0l0,0c0.2,0,0.4,0.2,0.4,0.4c0,0,0,0,0,0.1v10.8
					c0,0.8,0.7,1.5,1.5,1.5s1.5-0.7,1.5-1.5V90c0-0.2,0.1-0.5,0.4-0.5s0.5,0.3,0.5,0.6v6.3c0,0.5,0.4,1,0.9,1
					c-0.2,0.2-0.4,0.5-0.4,0.9c0,0,0,0.1,0,0.1h-0.6v7.6h3.5v-7.7H91.1z M90.8,98.3h-1.7c0,0,0-0.1,0-0.1c-0.1-0.5,0.3-0.9,0.8-1
					c0.5-0.1,0.9,0.3,1,0.8c0,0.1,0,0.1,0,0.2C90.9,98.3,90.8,98.3,90.8,98.3z"/>
			</g>
		</g>
		<g>
			<path class="st0" d="M50.8,68c9.8,0,17.8-8,17.7-17.8s-8-17.8-17.8-17.7c-9.8,0-17.7,8-17.8,17.8C33,60.1,41,68,50.8,68z
				 M59.9,63.6l-0.2,0.1l-0.6,0.3c-3.8,2.3-8.5,2.9-12.8,1.6c-0.2-0.2-0.3-0.5-0.2-0.8c0.6-1.2,1.8-1.9,3.2-1.9
				c2.6-0.2,6.1,1.7,6.6,1.4s1.7-1.8,3.3-1.7c0.5,0,1,0.1,1.4,0.4L59.9,63.6z M47.8,55.3c0.6-1.2,2-1.1,1,0.6
				c-0.2,0.4-0.8,3.1-1.2,2.8S47.7,55.5,47.8,55.3z M54.3,51.7c0.5,0,1.4,0.7,1,1c-0.5,0.3-1.1,0.2-1.5-0.1
				C53.4,52.2,54,51.7,54.3,51.7z M62.3,61.7c-0.2-0.1-0.3-0.1-0.5-0.2c-0.9-0.5-0.8,0.3-1.2,0.1s0.5-1.2-0.8-0.3s-1-0.1-1.5-1.6
				c-0.4-1.4,0.3-2.9,1.7-3.4c1-0.3,1.9-0.6,2.9-0.8c1.9-0.5,2.3-1.6,2.7-0.9c0.1,0.1,0.1,0.3,0.2,0.4c0.1,0.3,0.2,0.5,0.2,0.8
				C65.2,58,63.9,60,62.3,61.7L62.3,61.7z M62.4,52.7c-0.2-0.1-0.3-0.2-0.5-0.6c-0.1-0.2,0-0.4,0.1-0.5c0.1-0.1,0.3-0.1,0.4,0
				c0.4,0.2,0.6,0.5,0.8,0.9C63.2,52.8,62.6,52.7,62.4,52.7L62.4,52.7z M64.2,54.2c-0.5,0.2-1.1,0.2-1.5-0.2
				c-0.4-0.3,0.3-0.8,0.5-0.9C63.7,53.1,64.5,53.9,64.2,54.2L64.2,54.2z M66.9,49c0,0.4,0.1,0.9,0.1,1.3c0,1.1-0.1,2.1-0.3,3.2
				c-0.5-0.4-2.1-2.7-0.7-4.2c0.2-0.3-0.5-1.1-0.3-1.1C66.2,48.2,66.7,48.5,66.9,49z M39.6,38.6L39.6,38.6c0.3,0,0.7,0.1,0.7,0.3
				c0,0.3-0.1,0.7-0.2,1c-0.5,0.5-1.1,0.7-1.7,0.8c-0.2,0-0.3-0.1-0.4-0.2C38.5,39.8,39.1,39.2,39.6,38.6z M37.1,41.8L37.1,41.8
				c0.4-0.4,0.9-0.5,1.4-0.6c0.4-0.1,0.9,0.1,1,0.4s-1,0.8-1.2,0.9c-0.5,0.5-1.4,1.6-1.9,1.7c-0.1,0-0.3,0-0.4,0
				C36.3,43.4,36.7,42.6,37.1,41.8z M36.1,56.5L36.1,56.5c-0.9-2-1.3-4.1-1.3-6.3c0-0.5,0-2.5,0.9-3.1c0.3-0.2,0.7-0.3,1.1-0.2
				c0.9,0.1,1.8,0.4,2.6,0.7c0.9,0.3,2.4,1.2,3.3,0.8c0.6-0.2,1.1-0.6,1-1.1s-0.6-0.8-1.2-0.4c-0.2,0.2-0.7-1-1.1-0.9
				s0.5,1.3,0.1,1.4s-1-1.3-1.1-1.6s-0.6-0.8-1.1-0.3c-1,0.9-2.3,0.5-2.9,0.8c-1.1,0.4-1.1,0.1-1.1-0.4c0-0.2,0-0.3,0.1-0.4
				c0.5-0.3,1.2-0.4,1.8-0.2c0.4,0.3,0.7-0.1,0.9-0.2s0.1-0.4,0-0.7s0.2-0.4,0.4-0.4s0.9-0.6,1.2-0.7c0.8-0.3,1.6-0.3,2.4,0
				c0.5,0.3,1.2,0.2,1.6-0.3c0.3-0.4,0.7-0.7,1.2-1c0.2-0.1-0.6-0.9-1.2,0s-1,0.9-1.3,0.9s-2.2-0.5-2.4-1s0.6-1,1.3-1.4
				c1-0.2,2-0.4,3-0.4c1-0.2,2.2-0.7,2.8-0.3s-2.6,1.2-1.5,1.7c0.4,0.2,2.1-1,2.7-1.3c1.4-0.7-1.3-1-1-2.4c0.4-1.7-3.3-1-5.2-0.9
				c1.8-1.1,3.8-1.9,5.8-2.3l0.8-0.1h0.4c0.5,0,1-0.1,1.5-0.1c7.6,0,14.2,5.2,15.8,12.7c0,0.1,0,0.2,0,0.3c-0.2,0.5-0.8,0.8-1.4,0.6
				c-0.2-0.1-0.4-0.2-0.5-0.5c-0.2-0.2-0.8-0.9-0.8,0.2s1.1,1.2,0.1,1.9c-0.5,0.4-1.1,0.6-1.7,0.7c-0.6,0.5-0.9,1.2-0.8,1.9
				c0.1,0.6,1.6,2.3,0.5,2.2c-1-0.5-1.9-1.2-2.5-2.2c-0.3-0.9-0.7-1.8-1-2.4c-0.2-0.5-0.8-0.8-1.3-0.6c-0.1,0-0.2,0.1-0.2,0.1
				c-0.6,0.4,0.2,0.8-0.2,1.6s-0.7,1.6-1.3,0.9c-1.6-1.8-3.9-0.9-4.2-2.9c-0.2-1.1-1.1-1-1.9-1.6s-1.2-1-1.4-0.5s2.5,2.4,2.6,3
				c0.3,0.8-0.8,1.5-1.5,1.7S47.8,51,47,50.2s-1.1-1.3-1.1-0.7c0.1,1.1,0.6,2.1,1.5,2.7c0.7,0.4,1.4,0.6,1.2,1.3s0,0.3-0.7,1
				c-0.6,0.4-1,1.2-0.8,2c0,1-0.2,1.1-0.4,1.9s-0.5,0.1-0.8,1.3c-0.2,0.8-0.5,1.5-1,2.1c-0.6,0.5-1.4,0.8-2.2,0.8
				c-0.7-0.1-0.8-2-0.8-3c0-0.3-0.5,0.7-0.8-1.4c-0.2-1.3-1,0.1-1.1-0.8s-0.5-0.7-0.9-1.3s-1,0.1-1.6,0.3S37,56.8,36.1,56.5
				L36.1,56.5z"/>
		</g>
	</g>
</g>
</svg>
