<?xml version="1.0" encoding="utf-8"?>
<!-- Generator: Adobe Illustrator 22.0.1, SVG Export Plug-In . SVG Version: 6.00 Build 0)  -->
<svg version="1.1" id="Layer_1" xmlns="http://www.w3.org/2000/svg" xmlns:xlink="http://www.w3.org/1999/xlink" x="0px" y="0px"
	 viewBox="0 0 101.5 166.2" style="enable-background:new 0 0 101.5 166.2;" xml:space="preserve">
<style type="text/css">
	.st0{fill:#FFFFFF;}
	.st1{fill:#A21942;}
	.st2{enable-background:new    ;}
</style>
<title>TARGET 1 B copy 3</title>
<g id="WHITE_BG">
	<g>
		<rect y="0" class="st0" width="101.5" height="166.2"/>
	</g>
</g>
<g id="TARGETS">
	<g>
		<g>
			<path class="st1" d="M7,132.2v-6.4h1v6.4H7z"/>
		</g>
		<g>
			<path class="st1" d="M12.5,131.3h-0.9l-1.6-3.9v4.8H9v-6.4h1.2l1.8,4.3l1.7-4.3H15v6.4h-1v-4.8L12.5,131.3z"/>
		</g>
		<g>
			<path class="st1" d="M16.7,132.2h-0.9v-6.4h2c1.6,0,2.2,1,2.2,2c0,1-0.6,2-2.2,2h-1.1V132.2z M16.7,128.9h1.1
				c0.6,0.1,1.2-0.4,1.2-1s-0.4-1.2-1-1.2c-0.1,0-0.1,0-0.2,0h-1.1V128.9z"/>
		</g>
		<g>
			<path class="st1" d="M21.6,132.2h-1v-6.4h2.1c1.6,0,2.2,0.7,2.2,1.9c0.1,0.7-0.3,1.4-1,1.7l1.3,2.8h-1.2l-1.1-2.6h-1.3V132.2z
				 M21.6,128.7h1.3c0.9,0,1-0.5,1-1s-0.1-1-1-1h-1.3V128.7z"/>
		</g>
		<g>
			<path class="st1" d="M25.6,129c0-1.8,0.4-3.3,2.5-3.3s2.5,1.5,2.5,3.3s-0.4,3.3-2.5,3.3S25.6,130.8,25.6,129z M26.6,129
				c0,1.5,0.3,2.4,1.5,2.4s1.5-0.9,1.5-2.4s-0.3-2.4-1.5-2.4S26.6,127.5,26.6,129L26.6,129z"/>
		</g>
		<g>
			<path class="st1" d="M35.8,125.8l-2,6.4h-1l-2-6.4h1l1.5,5.2l1.5-5.2L35.8,125.8z"/>
		</g>
		<g>
			<path class="st1" d="M39.9,129.3h-2.7v2h2.9v0.9h-3.9v-6.4h3.9v0.9h-2.9v1.8h2.7V129.3z"/>
		</g>
		<g>
			<path class="st1" d="M43.4,132.2h-1v-6.4h2.1c1.7,0,2.2,0.7,2.2,1.9c0.1,0.7-0.3,1.4-1,1.7l1.3,2.8h-1.1l-1.2-2.6h-1.3V132.2z
				 M43.4,128.7h1.3c0.9,0,1-0.5,1-1s-0.1-1-1-1h-1.3V128.7z"/>
		</g>
		<g>
			<path class="st1" d="M51.3,129.3h-2.6v2h2.9v0.9h-3.9v-6.4h3.9v0.9h-2.9v1.8h2.7L51.3,129.3z"/>
		</g>
		<g>
			<path class="st1" d="M56.6,130.3c0,1.2-0.7,2-2.4,2c-0.6,0-1.3-0.1-1.9-0.4V131c0.6,0.3,1.2,0.4,1.8,0.4c1.2,0,1.5-0.5,1.5-1.1
				s-0.3-0.9-1.2-1c-1.6-0.2-2.2-0.6-2.2-1.8c0-0.9,0.5-1.8,2.3-1.8c0.6,0,1.2,0.1,1.7,0.3v1c-0.5-0.2-1.1-0.3-1.7-0.3
				c-1,0-1.3,0.4-1.3,1c0,0.7,0.4,0.8,1.2,0.9C55.8,128.7,56.6,129,56.6,130.3z"/>
		</g>
		<g>
			<path class="st1" d="M57.2,129c0-1.8,0.4-3.3,2.5-3.3s2.5,1.5,2.5,3.3s-0.4,3.3-2.5,3.3S57.2,130.8,57.2,129z M58.2,129
				c0,1.5,0.3,2.4,1.5,2.4s1.5-0.9,1.5-2.4s-0.3-2.4-1.5-2.4S58.1,127.5,58.2,129L58.2,129z"/>
		</g>
		<g>
			<path class="st1" d="M62.9,130.2v-4.4h1v4.3c0,0.8,0.6,1.4,1.4,1.4s1.4-0.6,1.4-1.4v-4.3h1v4.4c-0.1,1.3-1.3,2.2-2.6,2.1
				C64,132.1,63.1,131.3,62.9,130.2L62.9,130.2z"/>
		</g>
		<g>
			<path class="st1" d="M69.4,132.2h-0.9v-6.4h2.1c1.7,0,2.2,0.7,2.2,1.9c0.1,0.7-0.3,1.4-1,1.7l1.3,2.8h-1.1l-1.2-2.6h-1.3V132.2z
				 M69.4,128.7h1.3c0.9,0,1-0.5,1-1s-0.1-1-1-1h-1.3V128.7z"/>
		</g>
		<g>
			<path class="st1" d="M76,125.7c0.5,0,1,0.1,1.5,0.3v0.9c-0.5-0.2-0.9-0.3-1.4-0.3c-1.2,0-1.7,0.8-1.7,2.4s0.5,2.4,1.7,2.4
				c0.5,0,1-0.1,1.4-0.3v0.9c-0.5,0.2-1,0.3-1.5,0.3c-1.9,0-2.6-1.2-2.6-3.3S74.1,125.7,76,125.7z"/>
		</g>
		<g>
			<path class="st1" d="M82,129.3h-2.7v2h2.9v0.9h-3.9v-6.4h3.9v0.9h-2.9v1.8H82V129.3z"/>
		</g>
		<g>
			<path class="st1" d="M10.5,138.3H7.8v2h2.9v0.9H6.9v-6.4h3.9v0.9H7.8v1.8h2.6V138.3z"/>
		</g>
		<g>
			<path class="st1" d="M15.1,138.4h-2.6v2.8h-1v-6.4h3.8v0.9h-2.8v1.8h2.6V138.4z"/>
		</g>
		<g>
			<path class="st1" d="M19.5,138.4H17v2.8h-1v-6.4h3.8v0.9H17v1.8h2.6L19.5,138.4z"/>
		</g>
		<g>
			<path class="st1" d="M20.6,141.2v-6.4h1v6.4H20.6z"/>
		</g>
		<g>
			<path class="st1" d="M25,134.7c0.5,0,1,0.1,1.5,0.3v0.9c-0.4-0.2-0.9-0.3-1.4-0.3c-1.2,0-1.7,0.8-1.7,2.4s0.5,2.4,1.7,2.4
				c0.5,0,1-0.1,1.4-0.3v0.9c-0.5,0.2-1,0.3-1.5,0.3c-1.9,0-2.6-1.2-2.6-3.3S23.1,134.7,25,134.7z"/>
		</g>
		<g>
			<path class="st1" d="M27.4,141.2v-6.4h1v6.4H27.4z"/>
		</g>
		<g>
			<path class="st1" d="M33,138.3h-2.6v2h2.9v0.9h-3.9v-6.4h3.9v0.9h-2.9v1.8H33V138.3z"/>
		</g>
		<g>
			<path class="st1" d="M37.8,141.2l-2.8-4.5v4.5h-0.9v-6.4H35l2.8,4.5v-4.5h0.9v6.4H37.8z"/>
		</g>
		<g>
			<path class="st1" d="M42.1,134.7c0.5,0,1,0.1,1.5,0.3v0.9c-0.4-0.2-0.9-0.3-1.4-0.3c-1.2,0-1.7,0.8-1.7,2.4s0.5,2.4,1.7,2.4
				c0.5,0,1-0.1,1.4-0.3v0.9c-0.5,0.2-1,0.3-1.5,0.3c-1.9,0-2.6-1.2-2.6-3.3S40.2,134.7,42.1,134.7z"/>
		</g>
		<g>
			<path class="st1" d="M46.9,138.6v2.6h-1v-2.6l-2.2-3.8h1.1l1.6,3l1.6-3H49L46.9,138.6z"/>
		</g>
		<g>
			<path class="st1" d="M51,141.2v-6.4h1v6.4H51z"/>
		</g>
		<g>
			<path class="st1" d="M56.7,141.2l-2.8-4.5v4.5H53v-6.4h0.9l2.8,4.5v-4.5h0.9v6.4H56.7z"/>
		</g>
		<g>
			<path class="st1" d="M9.4,143.7c0.5,0,1,0.1,1.5,0.3v0.9c-0.5-0.2-0.9-0.3-1.4-0.3c-1.2,0-1.7,0.8-1.7,2.4s0.5,2.4,1.7,2.4
				c0.5,0,1-0.1,1.4-0.3v0.9c-0.5,0.2-1,0.3-1.5,0.3c-1.9,0-2.6-1.2-2.6-3.3S7.5,143.7,9.4,143.7z"/>
		</g>
		<g>
			<path class="st1" d="M11.6,147c0-1.8,0.4-3.3,2.5-3.3s2.4,1.5,2.4,3.3s-0.4,3.3-2.4,3.3S11.6,148.8,11.6,147z M12.6,147
				c0,1.5,0.3,2.4,1.5,2.4s1.5-0.9,1.5-2.4s-0.3-2.4-1.5-2.4S12.6,145.5,12.6,147L12.6,147z"/>
		</g>
		<g>
			<path class="st1" d="M20.9,150.2l-2.8-4.5v4.5h-1v-6.4h0.9l2.8,4.5v-4.5h0.9v6.4H20.9z"/>
		</g>
		<g>
			<path class="st1" d="M26.9,148.3c0,1.2-0.7,2-2.4,2c-0.6,0-1.3-0.1-1.9-0.4V149c0.6,0.3,1.2,0.4,1.8,0.4c1.1,0,1.5-0.5,1.5-1.1
				s-0.3-0.9-1.2-1c-1.5-0.2-2.2-0.6-2.2-1.8c0-0.9,0.5-1.8,2.3-1.8c0.6,0,1.2,0.1,1.7,0.3v1c-0.5-0.2-1.1-0.3-1.7-0.3
				c-1,0-1.3,0.4-1.3,1s0.4,0.8,1.2,0.9C26.1,146.7,26.9,147,26.9,148.3z"/>
		</g>
		<g>
			<path class="st1" d="M27.5,148.2v-4.4h1v4.3c-0.1,0.7,0.4,1.3,1,1.3c0.1,0,0.2,0,0.3,0c0.6,0.1,1.3-0.3,1.4-1c0-0.1,0-0.2,0-0.3
				v-4.3h1v4.4c0,1.1-0.8,2.1-2,2.1c-0.1,0-0.2,0-0.3,0c-1.1,0.2-2.1-0.5-2.3-1.6C27.5,148.5,27.5,148.4,27.5,148.2z"/>
		</g>
		<g>
			<path class="st1" d="M36.5,149.3h-0.9l-1.6-3.9v4.8h-1v-6.4h1.3l1.7,4.3l1.7-4.3H39v6.4h-1v-4.8L36.5,149.3z"/>
		</g>
		<g>
			<path class="st1" d="M40.9,150.2h-1v-6.4h2c1.7,0,2.2,0.9,2.2,2s-0.6,2-2.2,2h-1V150.2z M40.9,146.9H42c0.6,0.1,1.2-0.4,1.2-1
				s-0.4-1.2-1-1.2c-0.1,0-0.1,0-0.2,0h-1.1V146.9z"/>
		</g>
		<g>
			<path class="st1" d="M47,144.7v5.5h-1v-5.5h-1.7v-0.9h4.3v0.9H47z"/>
		</g>
		<g>
			<path class="st1" d="M49.4,150.2v-6.4h1v6.4H49.4z"/>
		</g>
		<g>
			<path class="st1" d="M51.2,147c0-1.8,0.4-3.3,2.5-3.3s2.5,1.5,2.5,3.3s-0.4,3.3-2.5,3.3S51.2,148.8,51.2,147z M52.2,147
				c0,1.5,0.3,2.4,1.5,2.4s1.5-0.9,1.5-2.4s-0.3-2.4-1.5-2.4S52.2,145.5,52.2,147L52.2,147z"/>
		</g>
		<g>
			<path class="st1" d="M60.5,150.2l-2.8-4.5v4.5h-0.9v-6.4h0.9l2.8,4.5v-4.5h0.9v6.4H60.5z"/>
		</g>
		<g>
			<path class="st1" d="M67,148.6h-2l-0.4,1.6h-1l2-6.4h1l2,6.4h-1L67,148.6z M66,145l-0.8,2.8h1.6L66,145z"/>
		</g>
		<g>
			<path class="st1" d="M72.6,150.2l-2.8-4.5v4.5H69v-6.4h0.9l2.8,4.5v-4.5h0.9v6.4H72.6z"/>
		</g>
		<g>
			<path class="st1" d="M74.5,150.2v-6.4h1.9c2.1,0,2.7,1.4,2.7,3.2s-0.6,3.2-2.7,3.2H74.5z M75.5,149.3h1c1.3,0,1.7-0.9,1.7-2.3
				s-0.4-2.3-1.7-2.3h-1V149.3z"/>
		</g>
		<g>
			<path class="st1" d="M7.8,159.2h-1v-6.4h2.1c1.6,0,2.2,0.9,2.2,2s-0.6,2-2.2,2H7.8V159.2z M7.8,155.9H9c0.6,0.1,1.2-0.4,1.2-1
				c0.1-0.6-0.4-1.2-1-1.2c-0.1,0-0.1,0-0.2,0H7.8V155.9z"/>
		</g>
		<g>
			<path class="st1" d="M12.7,159.2h-1v-6.4h2.1c1.6,0,2.2,0.7,2.2,1.9c0.1,0.7-0.3,1.4-1,1.7l1.3,2.8h-1.1l-1.2-2.6h-1.3V159.2z
				 M12.7,155.7H14c0.9,0,1-0.5,1-1s-0.1-1-1-1h-1.3V155.7z"/>
		</g>
		<g>
			<path class="st1" d="M16.7,156c0-1.8,0.4-3.3,2.5-3.3s2.5,1.5,2.5,3.3s-0.4,3.3-2.5,3.3S16.7,157.8,16.7,156z M17.7,156
				c0,1.5,0.3,2.4,1.5,2.4s1.5-0.9,1.5-2.4s-0.3-2.4-1.5-2.4S17.7,154.5,17.7,156L17.7,156z"/>
		</g>
		<g>
			<path class="st1" d="M22.5,159.2v-6.4h1.9c2.1,0,2.7,1.4,2.7,3.2s-0.6,3.2-2.7,3.2H22.5z M23.5,158.3h1c1.3,0,1.7-0.9,1.7-2.3
				s-0.4-2.3-1.7-2.3h-1V158.3z"/>
		</g>
		<g>
			<path class="st1" d="M27.8,157.2v-4.4h1v4.3c-0.1,0.7,0.4,1.2,1,1.3c0.1,0,0.2,0,0.3,0c0.7,0.1,1.3-0.4,1.4-1c0-0.1,0-0.2,0-0.3
				v-4.3h0.9v4.4c0.1,1.1-0.8,2.1-1.9,2.1c-0.1,0-0.3,0-0.4,0c-1.1,0.2-2.2-0.6-2.3-1.7C27.8,157.5,27.8,157.3,27.8,157.2z"/>
		</g>
		<g>
			<path class="st1" d="M35.7,152.7c0.5,0,1,0.1,1.5,0.3v0.9c-0.5-0.2-0.9-0.3-1.4-0.3c-1.2,0-1.7,0.8-1.7,2.4s0.5,2.4,1.7,2.4
				c0.5,0,1-0.1,1.4-0.3v0.9c-0.5,0.2-1,0.3-1.5,0.3c-1.9,0-2.6-1.2-2.6-3.3S33.8,152.7,35.7,152.7z"/>
		</g>
		<g>
			<path class="st1" d="M40.4,153.7v5.5h-1v-5.5h-1.6v-0.9h4.3v0.9H40.4z"/>
		</g>
		<g>
			<path class="st1" d="M42.7,159.2v-6.4h1v6.4H42.7z"/>
		</g>
		<g>
			<path class="st1" d="M44.7,156c0-1.8,0.4-3.3,2.5-3.3s2.5,1.5,2.5,3.3s-0.4,3.3-2.5,3.3S44.7,157.8,44.7,156z M45.7,156
				c0,1.5,0.3,2.4,1.5,2.4s1.5-0.9,1.5-2.4s-0.3-2.4-1.5-2.4S45.7,154.5,45.7,156L45.7,156z"/>
		</g>
		<g>
			<path class="st1" d="M54.2,159.2l-2.8-4.5v4.5h-0.9v-6.4h0.9l2.8,4.5v-4.5H55v6.4H54.2z"/>
		</g>
	</g>
	<g>
		<rect x="3.3" y="24" class="st1" width="94.8" height="94.8"/>
	</g>
	<g class="st2">
		<path class="st1" d="M78.5,14.6v-1.1c0-1,0.3-1.7,1.1-2c-0.7-0.3-1-0.9-1-1.8V9.3c0-1.6,0.8-2.4,2.4-2.4c1.6,0,2.4,0.9,2.4,2.4
			v0.4c0,0.8-0.3,1.4-1,1.8c0.8,0.4,1.1,1.1,1.1,2v1.1c0,1.5-0.7,2.6-2.5,2.6C79.3,17.2,78.5,16.2,78.5,14.6z M81.9,14.8v-1.6
			c0-0.6-0.2-1-0.8-1c-0.6,0-0.8,0.4-0.8,1v1.6c0,0.6,0.2,1,0.8,1C81.7,15.8,81.9,15.4,81.9,14.8z M81.9,9.9V9.2c0-0.6-0.2-1-0.8-1
			c-0.6,0-0.8,0.4-0.8,1v0.7c0,0.6,0.2,1,0.8,1C81.6,10.8,81.9,10.5,81.9,9.9z"/>
	</g>
	<g class="st2">
	</g>
	<g class="st2">
		<path class="st1" d="M86.5,10.8c0.7,0,1.2,0.6,1.2,1.2c0,0.7-0.6,1.2-1.2,1.2c-0.7,0-1.2-0.6-1.2-1.2
			C85.2,11.4,85.8,10.8,86.5,10.8z"/>
	</g>
	<g class="st2">
		<path class="st1" d="M89.1,14.4l3-7.5h1.7v7.2h0.7v1.3h-0.7v1.7h-1.6v-1.7h-3V14.4z M90.6,14.1h1.5V9.9h0L90.6,14.1z"/>
	</g>
	<g>
		<path class="st1" d="M98.2,20.7H3.3V3.3h94.8V20.7z M4.3,19.7h92.8V4.3H4.3L4.3,19.7z"/>
	</g>
	<g class="st2">
		<path class="st1" d="M6.7,6.9h4.5v1.4H9.9v8.8H8.1V8.3H6.7V6.9z"/>
	</g>
	<g class="st2">
		<path class="st1" d="M11.2,17.1l1.9-10.2h1.9L17,17.1h-1.8l-0.3-1.9h-1.8l-0.3,1.9H11.2z M13.3,13.9h1.4L14,9.8h0L13.3,13.9z"/>
	</g>
	<g class="st2">
		<path class="st1" d="M19.6,12.4v4.7h-1.7V6.9h2.5c1.7,0,2.4,0.9,2.4,2.3v1.3c0,1.1-0.4,1.7-1.4,2l1.6,4.6h-1.8L19.6,12.4z
			 M19.6,8.3v3.2h0.6c0.6,0,0.8-0.3,0.8-0.8V9.2c0-0.6-0.3-0.8-0.8-0.8H19.6z"/>
	</g>
	<g class="st2">
		<path class="st1" d="M26.4,11.7h2.4v5.4h-1.2V16c-0.2,0.8-0.7,1.2-1.6,1.2c-1.5,0-2.1-1.2-2.1-2.7V9.6c0-1.6,0.8-2.7,2.6-2.7
			c1.9,0,2.4,1.1,2.4,2.6v0.9h-1.6v-1c0-0.6-0.2-1-0.9-1c-0.6,0-0.9,0.4-0.9,1v5.5c0,0.6,0.3,1,0.8,1c0.6,0,0.8-0.3,0.8-1V13h-0.8
			V11.7z"/>
	</g>
	<g class="st2">
		<path class="st1" d="M30.2,6.9h4.1v1.4h-2.4v2.9h1.7v1.4h-1.7v3.1h2.4v1.4h-4.1V6.9z"/>
	</g>
	<g class="st2">
		<path class="st1" d="M35.1,6.9h4.5v1.4h-1.4v8.8h-1.7V8.3h-1.4V6.9z"/>
	</g>
	<g>
		<path class="st1" d="M98.2,162.9h-95v-40.7h95V162.9z M4.2,161.9h93v-38.7h-93V161.9z"/>
	</g>
	<g>
		<path class="st0" d="M88.6,90.1L88.6,90.1L88.6,90.1L84.7,88c1-2.4,1.8-5,2.3-7.6c2.4-13.1-2.4-26.5-12.6-35.1
			c-0.3-0.3-0.8-0.2-1.1,0.1c0,0,0,0,0,0l-2,2.4c-0.3,0.3-0.2,0.8,0.1,1.1c8.9,7.5,13.1,19.2,11,30.7c-0.4,2.1-1,4.2-1.8,6.1
			l-4.4-2.4c-0.1,0-0.5-0.1-0.4,0.2l0,0l0.3,4.8c0.3,3.8,0.2,3.7,0.3,5.8l0.2,4.2c0,0.4,0.5,0.1,0.5,0.1l11.4-7.8
			C88.9,90.3,88.7,90.1,88.6,90.1z"/>
	</g>
	<g>
		<path class="st0" d="M15.7,65.7l3,0.7c0.4,0.1,0.9-0.1,1-0.5c0,0,0,0,0,0C23.1,53,33.9,43.4,47.2,41.7c0,0.3,0,0.6,0,1l0.1,4.3
			c0,0.4,0.5,0.1,0.5,0.1l11.6-7.5c0.4-0.2,0.2-0.4,0-0.5h-0.1l0,0L47.3,32c-0.1,0-0.5-0.1-0.5,0.2l0,0L47,37l0,0
			c-15.3,1.8-28,12.8-31.9,27.7C15,65.2,15.2,65.6,15.7,65.7C15.7,65.7,15.7,65.7,15.7,65.7z"/>
	</g>
	<g>
		<path class="st0" d="M64,103.7c-0.2-0.4-0.6-0.6-1-0.4c-14.3,5.7-30.7,0.5-39.2-12.4l4.4-2.4c0.1-0.1,0.4-0.3,0-0.5l0,0L24,85.7
			c-3.4-1.8-3.3-1.8-5-2.8l-3.7-2.1c-0.4-0.2-0.4,0.4-0.4,0.4L15.4,95c0,0.4,0.2,0.4,0.4,0.3l0.1-0.1l0,0l3.9-2.1
			c5.6,8.7,14.4,14.6,24.6,16.5c2.2,0.4,4.5,0.6,6.8,0.6c4.7,0,9.4-0.9,13.8-2.7c0.4-0.2,0.6-0.6,0.4-1L64,103.7z"/>
	</g>
	<g>
		<path class="st0" d="M55.8,87.7h7c0.2,0,0.4-0.2,0.4-0.4V61.9c0-0.2-0.2-0.6-0.6-0.2l-6.8,6.5c-0.3,0.2-0.4,0.6-0.4,1v18.1
			C55.4,87.5,55.5,87.7,55.8,87.7C55.8,87.7,55.8,87.7,55.8,87.7z"/>
	</g>
	<g>
		<path class="st0" d="M36.2,87.7h7c0.2,0,0.4-0.2,0.4-0.4v-17c0-0.2-0.2-0.6-0.6-0.2l-6.8,6.5c-0.3,0.3-0.4,0.6-0.4,1v9.7
			C35.8,87.5,36,87.7,36.2,87.7z"/>
	</g>
	<g>
		<path class="st0" d="M65.4,53.7L65.4,53.7l-5.3,1.2h-0.1c0,0-0.1,0-0.1,0c-0.1,0.1-0.1,0.2,0,0.3c0,0,0,0,0,0v0.1l1.2,1.2
			L49.4,68.3L44,62.9c-0.1-0.1-0.2-0.1-0.2,0l-1.5,1.5l0,0l-8.7,8.7c-0.1,0.1-0.1,0.2,0,0.2l1.5,1.5c0.1,0.1,0.2,0.1,0.2,0l8.6-8.6
			l4,4l0,0l1.5,1.5c0.1,0.1,0.2,0.1,0.2,0l13.4-13.4l1.2,1.2c0.1,0.1,0.2,0.1,0.3,0c0,0,0-0.1,0-0.1l0,0l1.2-5.3v-0.1
			c0-0.1,0-0.1-0.1-0.2C65.5,53.8,65.5,53.7,65.4,53.7z"/>
	</g>
	<g>
		<path class="st0" d="M46.1,87.7h7c0.2,0,0.4-0.2,0.4-0.4V71.5c0-0.2-0.2-0.6-0.7-0.1l-3.3,3.3c-0.1,0.1-0.2,0.1-0.2,0l-3-3
			c-0.5-0.5-0.7-0.1-0.7,0.1v15.6C45.7,87.6,45.9,87.7,46.1,87.7z"/>
	</g>
</g>
</svg>
