<?xml version="1.0" encoding="utf-8"?>
<!-- Generator: Adobe Illustrator 22.0.1, SVG Export Plug-In . SVG Version: 6.00 Build 0)  -->
<svg version="1.1" id="Layer_1" xmlns="http://www.w3.org/2000/svg" xmlns:xlink="http://www.w3.org/1999/xlink" x="0px" y="0px"
	 viewBox="0 0 101.5 166.2" style="enable-background:new 0 0 101.5 166.2;" xml:space="preserve">
<style type="text/css">
	.st0{fill:#FFFFFF;}
	.st1{fill:#FD6925;}
	.st2{enable-background:new    ;}
</style>
<title>TARGET 1 B copy 4</title>
<g id="WHITE_BG">
	<g>
		<rect y="0" class="st0" width="101.5" height="166.2"/>
	</g>
</g>
<g id="TARGETS">
	<g>
		<g>
			<path class="st1" d="M10.5,129.3H7.8v2h2.9v0.9H6.9v-6.4h3.9v0.9H7.8v1.8h2.6V129.3z"/>
		</g>
		<g>
			<path class="st1" d="M15.3,132.2l-2.8-4.5v4.5h-0.9v-6.4h0.9l2.8,4.5v-4.5h0.9v6.4H15.3z"/>
		</g>
		<g>
			<path class="st1" d="M20.6,132.2v-2.9h-2.6v2.9h-1v-6.4h1v2.6h2.6v-2.6h1v6.4H20.6z"/>
		</g>
		<g>
			<path class="st1" d="M25.6,130.6h-2l-0.5,1.6h-1l2-6.4h1l2,6.4h-1L25.6,130.6z M24.6,127l-0.8,2.8h1.6L24.6,127z"/>
		</g>
		<g>
			<path class="st1" d="M31.3,132.2l-2.8-4.5v4.5h-0.9v-6.4h0.9l2.8,4.5v-4.5h0.9v6.4H31.3z"/>
		</g>
		<g>
			<path class="st1" d="M35.7,125.7c0.5,0,1,0.1,1.5,0.3v0.9c-0.5-0.2-0.9-0.3-1.4-0.3c-1.2,0-1.7,0.8-1.7,2.4s0.5,2.4,1.7,2.4
				c0.5,0,1-0.1,1.4-0.3v0.9c-0.5,0.2-1,0.3-1.5,0.3c-1.9,0-2.6-1.2-2.6-3.3S33.8,125.7,35.7,125.7z"/>
		</g>
		<g>
			<path class="st1" d="M41.5,129.3h-2.7v2h2.9v0.9h-3.9v-6.4h3.9v0.9h-2.9v1.8h2.7V129.3z"/>
		</g>
		<g>
			<path class="st1" d="M45,132.2h-1v-6.4h2.1c1.7,0,2.2,0.7,2.2,1.9c0.1,0.7-0.3,1.4-1,1.7l1.3,2.8h-1.1l-1.2-2.6H45V132.2z
				 M45,128.7h1.3c0.9,0,1-0.5,1-1s-0.1-1-1-1H45V128.7z"/>
		</g>
		<g>
			<path class="st1" d="M52.8,129.3h-2.7v2h2.9v0.9h-3.9v-6.4h3.9v0.9h-2.9v1.8h2.7V129.3z"/>
		</g>
		<g>
			<path class="st1" d="M58.1,130.3c0,1.2-0.7,2-2.4,2c-0.6,0-1.3-0.1-1.9-0.4V131c0.6,0.3,1.2,0.4,1.8,0.4c1.2,0,1.5-0.5,1.5-1.1
				s-0.3-0.9-1.2-1c-1.5-0.2-2.2-0.6-2.2-1.8c0-0.9,0.5-1.8,2.3-1.8c0.6,0,1.2,0.1,1.7,0.3v1c-0.5-0.2-1.1-0.3-1.7-0.3
				c-1,0-1.3,0.4-1.3,1c0,0.7,0.4,0.8,1.2,0.9C57.3,128.7,58.1,129,58.1,130.3z"/>
		</g>
		<g>
			<path class="st1" d="M62.5,129.3h-2.7v2h2.9v0.9h-3.9v-6.4h3.9v0.9h-2.9v1.8h2.7V129.3z"/>
		</g>
		<g>
			<path class="st1" d="M66.7,130.6h-2l-0.4,1.6h-1l2-6.4h1l2,6.4h-1L66.7,130.6z M65.7,127l-0.8,2.8h1.6L65.7,127z"/>
		</g>
		<g>
			<path class="st1" d="M69.7,132.2h-1v-6.4h2.1c1.7,0,2.2,0.7,2.2,1.9c0.1,0.7-0.3,1.4-1,1.7l1.3,2.8h-1.1l-1.2-2.6h-1.3V132.2z
				 M69.7,128.7h1.3c0.9,0,1-0.5,1-1s-0.1-1-1-1h-1.3V128.7z"/>
		</g>
		<g>
			<path class="st1" d="M76.5,125.7c0.5,0,1,0.1,1.5,0.3v0.9c-0.5-0.2-0.9-0.3-1.4-0.3c-1.2,0-1.7,0.8-1.7,2.4s0.5,2.4,1.7,2.4
				c0.5,0,1-0.1,1.4-0.3v0.9c-0.5,0.2-1,0.3-1.5,0.3c-1.9,0-2.6-1.2-2.6-3.3S74.6,125.7,76.5,125.7z"/>
		</g>
		<g>
			<path class="st1" d="M82.4,132.2v-2.9h-2.6v2.9h-1v-6.4h1v2.6h2.6v-2.6h1v6.4H82.4z"/>
		</g>
		<g>
			<path class="st1" d="M10.1,139.6h-2l-0.4,1.6h-1l2-6.4h1l2,6.4h-1L10.1,139.6z M9.1,136l-0.8,2.8h1.6L9.1,136z"/>
		</g>
		<g>
			<path class="st1" d="M15.8,141.2l-2.8-4.5v4.5h-0.9v-6.4H13l2.8,4.5v-4.5h0.9v6.4H15.8z"/>
		</g>
		<g>
			<path class="st1" d="M17.6,141.2v-6.4h1.9c2.1,0,2.7,1.4,2.7,3.2s-0.6,3.2-2.7,3.2H17.6z M18.6,140.3h1c1.3,0,1.7-0.9,1.7-2.3
				s-0.4-2.3-1.7-2.3h-1V140.3z"/>
		</g>
		<g>
			<path class="st1" d="M24.4,139.2v-4.4h1v4.3c-0.1,0.7,0.4,1.3,1,1.3c0.1,0,0.2,0,0.3,0c0.7,0.1,1.3-0.4,1.3-1c0-0.1,0-0.2,0-0.3
				v-4.3h1v4.4c0,1.1-0.9,2.1-2,2.1c-0.1,0-0.2,0-0.3,0c-1.1,0.2-2.2-0.6-2.3-1.7C24.4,139.4,24.4,139.3,24.4,139.2z"/>
		</g>
		<g>
			<path class="st1" d="M30.9,141.2h-1v-6.4h2c1.6,0,2.2,0.9,2.2,2s-0.6,2-2.2,2h-1.1V141.2z M30.9,137.9H32c0.6,0.1,1.2-0.4,1.2-1
				s-0.4-1.2-1-1.2c-0.1,0-0.1,0-0.2,0h-1.1V137.9z"/>
		</g>
		<g>
			<path class="st1" d="M34.5,138c0-2,0.7-3.3,2.6-3.3c0.6,0,1.2,0.1,1.8,0.3v1c-0.5-0.2-1.1-0.4-1.7-0.4c-1.3,0-1.8,0.9-1.8,2.4
				s0.5,2.4,1.8,2.4c0.3,0,0.6,0,0.9-0.1v-1.7h-1.1v-0.9h2.1v3.2c-0.6,0.3-1.3,0.4-2,0.4C35.2,141.3,34.5,140,34.5,138z"/>
		</g>
		<g>
			<path class="st1" d="M41,141.2h-1v-6.4h2.1c1.6,0,2.2,0.7,2.2,1.9c0.1,0.7-0.3,1.4-1,1.7l1.3,2.8h-1.1l-1.2-2.6H41V141.2z
				 M41,137.7h1.3c0.9,0,1-0.5,1-1s-0.1-1-1-1H41V137.7z"/>
		</g>
		<g>
			<path class="st1" d="M48.4,139.6h-2l-0.5,1.6h-1l2-6.4h1l2,6.4h-1L48.4,139.6z M47.4,136l-0.8,2.8h1.6L47.4,136z"/>
		</g>
		<g>
			<path class="st1" d="M50.4,141.2v-6.4h1.9c2.1,0,2.7,1.4,2.7,3.2s-0.6,3.2-2.7,3.2H50.4z M51.3,140.3h1c1.3,0,1.7-0.9,1.7-2.3
				s-0.4-2.3-1.7-2.3h-1V140.3z"/>
		</g>
		<g>
			<path class="st1" d="M59.4,138.3h-2.6v2h2.9v0.9h-3.9v-6.4h3.9v0.9h-2.9v1.8h2.7L59.4,138.3z"/>
		</g>
		<g>
			<path class="st1" d="M7,150.2v-6.4h1v6.4H7z"/>
		</g>
		<g>
			<path class="st1" d="M12.8,150.2l-2.8-4.5v4.5H9.1v-6.4h0.9l2.8,4.5v-4.5h0.9v6.4H12.8z"/>
		</g>
		<g>
			<path class="st1" d="M14.6,150.2v-6.4h1.9c2.1,0,2.7,1.4,2.7,3.2s-0.6,3.2-2.7,3.2H14.6z M15.6,149.3h1c1.3,0,1.7-0.9,1.7-2.3
				s-0.4-2.3-1.7-2.3h-1V149.3z"/>
		</g>
		<g>
			<path class="st1" d="M19.8,148.2v-4.4h1v4.3c-0.1,0.7,0.4,1.3,1,1.3c0.1,0,0.2,0,0.3,0c0.7,0.1,1.3-0.4,1.3-1c0-0.1,0-0.2,0-0.3
				v-4.3h1v4.4c0,1.1-0.9,2.1-2,2.1c-0.1,0-0.2,0-0.3,0c-1.1,0.2-2.2-0.6-2.3-1.7C19.8,148.4,19.8,148.3,19.8,148.2z"/>
		</g>
		<g>
			<path class="st1" d="M29.4,148.3c0,1.2-0.7,2-2.4,2c-0.6,0-1.3-0.1-1.9-0.4V149c0.6,0.3,1.2,0.4,1.8,0.4c1.1,0,1.5-0.5,1.5-1.1
				s-0.3-0.9-1.2-1c-1.5-0.2-2.2-0.6-2.2-1.8c0-0.9,0.5-1.8,2.3-1.8c0.6,0,1.2,0.1,1.7,0.3v1c-0.5-0.2-1.1-0.3-1.7-0.3
				c-1,0-1.3,0.4-1.3,1s0.4,0.8,1.2,0.9C28.6,146.7,29.4,147,29.4,148.3z"/>
		</g>
		<g>
			<path class="st1" d="M32.2,144.7v5.5h-1v-5.5h-1.7v-0.9h4.3v0.9H32.2z"/>
		</g>
		<g>
			<path class="st1" d="M35.3,150.2h-1v-6.4h2.1c1.7,0,2.2,0.7,2.2,1.9c0.1,0.7-0.3,1.4-1,1.7l1.3,2.8h-1.1l-1.2-2.6h-1.3V150.2z
				 M35.3,146.7h1.2c0.9,0,1-0.5,1-1s-0.1-1-1-1h-1.2V146.7z"/>
		</g>
		<g>
			<path class="st1" d="M39.7,150.2v-6.4h1v6.4H39.7z"/>
		</g>
		<g>
			<path class="st1" d="M44.8,148.6h-2l-0.5,1.6h-1l2-6.4h1l2,6.4h-1L44.8,148.6z M43.8,145l-0.8,2.8h1.6L43.8,145z"/>
		</g>
		<g>
			<path class="st1" d="M47.8,149.3h2.8v0.9h-3.7v-6.4h1L47.8,149.3z"/>
		</g>
		<g>
			<path class="st1" d="M9.2,153.7v5.5h-1v-5.5H6.6v-0.9h4.3v0.9H9.2z"/>
		</g>
		<g>
			<path class="st1" d="M15,156.3h-2.6v2h2.9v0.9h-3.9v-6.4h3.9v0.9h-2.9v1.8H15V156.3z"/>
		</g>
		<g>
			<path class="st1" d="M18.5,152.7c0.5,0,1,0.1,1.5,0.3v0.9c-0.5-0.2-0.9-0.3-1.4-0.3c-1.2,0-1.7,0.8-1.7,2.4s0.5,2.4,1.7,2.4
				c0.5,0,1-0.1,1.4-0.3v0.9c-0.5,0.2-1,0.3-1.5,0.3c-1.9,0-2.6-1.2-2.6-3.3S16.6,152.7,18.5,152.7z"/>
		</g>
		<g>
			<path class="st1" d="M24.3,159.2v-2.9h-2.6v2.9h-1v-6.4h1v2.6h2.6v-2.6h1v6.4H24.3z"/>
		</g>
		<g>
			<path class="st1" d="M29.9,159.2l-2.8-4.5v4.5h-0.9v-6.4H27l2.8,4.5v-4.5h0.9v6.4H29.9z"/>
		</g>
		<g>
			<path class="st1" d="M31.6,156c0-1.8,0.4-3.3,2.5-3.3s2.5,1.5,2.5,3.3s-0.4,3.3-2.5,3.3S31.6,157.8,31.6,156z M32.6,156
				c0,1.5,0.3,2.4,1.5,2.4s1.5-0.9,1.5-2.4s-0.3-2.4-1.5-2.4S32.6,154.5,32.6,156L32.6,156z"/>
		</g>
		<g>
			<path class="st1" d="M38.2,158.3H41v0.9h-3.8v-6.4h1L38.2,158.3z"/>
		</g>
		<g>
			<path class="st1" d="M41,156c0-1.8,0.4-3.3,2.5-3.3s2.5,1.5,2.5,3.3s-0.4,3.3-2.5,3.3S41,157.8,41,156z M42,156
				c0,1.5,0.3,2.4,1.5,2.4s1.5-0.9,1.5-2.4s-0.3-2.4-1.5-2.4S42,154.5,42,156z"/>
		</g>
		<g>
			<path class="st1" d="M46.5,156c0-2,0.7-3.3,2.6-3.3c0.6,0,1.3,0.1,1.8,0.3v1c-0.5-0.2-1.1-0.4-1.7-0.4c-1.3,0-1.8,0.9-1.8,2.4
				s0.5,2.4,1.8,2.4c0.3,0,0.6,0,0.9-0.1v-1.7h-1.1v-0.9h2.1v3.2c-0.6,0.3-1.3,0.4-2,0.4C47.2,159.3,46.5,158,46.5,156z"/>
		</g>
		<g>
			<path class="st1" d="M52.2,159.2v-6.4h1v6.4H52.2z"/>
		</g>
		<g>
			<path class="st1" d="M57.9,156.3h-2.7v2h2.9v0.9h-3.9v-6.4h3.9v0.9h-2.9v1.8h2.7V156.3z"/>
		</g>
		<g>
			<path class="st1" d="M63.1,157.3c0,1.2-0.7,2-2.4,2c-0.6,0-1.3-0.1-1.9-0.4V158c0.6,0.3,1.2,0.4,1.8,0.4c1.2,0,1.5-0.5,1.5-1.1
				s-0.3-0.9-1.2-1c-1.5-0.2-2.2-0.6-2.2-1.8c0-0.9,0.5-1.8,2.3-1.8c0.6,0,1.2,0.1,1.7,0.3v1c-0.5-0.2-1.1-0.3-1.7-0.3
				c-1,0-1.3,0.4-1.3,1s0.4,0.8,1.2,0.9C62.4,155.7,63.1,156,63.1,157.3z"/>
		</g>
	</g>
	<g>
		<rect x="3.3" y="24" class="st1" width="94.8" height="94.8"/>
	</g>
	<g>
		<path class="st1" d="M98.2,20.7H3.3V3.3h94.8V20.7z M4.3,19.7h92.8V4.3H4.3L4.3,19.7z"/>
	</g>
	<g class="st2">
		<path class="st1" d="M6.7,6.9h4.5v1.4H9.9v8.8H8.1V8.3H6.7V6.9z"/>
	</g>
	<g class="st2">
		<path class="st1" d="M11.2,17.1l1.9-10.2h1.9L17,17.1h-1.8l-0.3-1.9h-1.8l-0.3,1.9H11.2z M13.3,13.9h1.4L14,9.8h0L13.3,13.9z"/>
	</g>
	<g class="st2">
		<path class="st1" d="M19.6,12.4v4.7h-1.7V6.9h2.5c1.7,0,2.4,0.9,2.4,2.3v1.3c0,1.1-0.4,1.7-1.4,2l1.6,4.6h-1.8L19.6,12.4z
			 M19.6,8.3v3.2h0.6c0.6,0,0.8-0.3,0.8-0.8V9.2c0-0.6-0.3-0.8-0.8-0.8H19.6z"/>
	</g>
	<g class="st2">
		<path class="st1" d="M26.4,11.7h2.4v5.4h-1.2V16c-0.2,0.8-0.7,1.2-1.6,1.2c-1.5,0-2.1-1.2-2.1-2.7V9.6c0-1.6,0.8-2.7,2.6-2.7
			c1.9,0,2.4,1.1,2.4,2.6v0.9h-1.6v-1c0-0.6-0.2-1-0.9-1c-0.6,0-0.9,0.4-0.9,1v5.5c0,0.6,0.3,1,0.8,1c0.6,0,0.8-0.3,0.8-1V13h-0.8
			V11.7z"/>
	</g>
	<g class="st2">
		<path class="st1" d="M30.2,6.9h4.1v1.4h-2.4v2.9h1.7v1.4h-1.7v3.1h2.4v1.4h-4.1V6.9z"/>
	</g>
	<g class="st2">
		<path class="st1" d="M35.1,6.9h4.5v1.4h-1.4v8.8h-1.7V8.3h-1.4V6.9z"/>
	</g>
	<g class="st2">
		<path class="st1" d="M83.9,9.5v4.9c0,1.6-0.7,2.7-2.5,2.7c-1.9,0-2.4-1-2.4-2.5v-0.5h1.6v0.7c0,0.6,0.2,1,0.8,1s0.9-0.4,0.9-1
			v-2.2h0c-0.3,0.5-0.7,0.8-1.4,0.8c-1.2,0-1.9-0.8-1.9-2.5V9.4c0-1.6,0.7-2.6,2.5-2.6C83.2,6.8,83.9,8,83.9,9.5z M80.5,9.2V11
			c0,0.7,0.2,1,0.8,1c0.5,0,0.8-0.4,0.8-0.9V9.2c0-0.6-0.2-1-0.8-1C80.8,8.2,80.5,8.6,80.5,9.2z"/>
	</g>
	<g class="st2">
	</g>
	<g class="st2">
		<path class="st1" d="M86.7,10.8c0.7,0,1.2,0.6,1.2,1.2c0,0.7-0.6,1.2-1.2,1.2c-0.7,0-1.2-0.6-1.2-1.2C85.5,11.4,86,10.8,86.7,10.8
			z"/>
	</g>
	<g class="st2">
		<path class="st1" d="M94.4,12.4v2.5c0,1.4-0.7,2.3-2.4,2.3c-1.7,0-2.4-1-2.4-2.5v-1.2h1.6v1.3c0,0.6,0.2,1,0.8,1
			c0.5,0,0.7-0.4,0.7-0.9v-2.5c0-0.6-0.2-0.9-0.7-0.9c-0.5,0-0.8,0.3-0.8,0.9v0.2h-1.6V6.9h4.5v1.4h-2.9v2.5h0
			c0.3-0.5,0.8-0.7,1.4-0.7C93.5,10.2,94.4,10.8,94.4,12.4z"/>
	</g>
	<g>
		<path class="st0" d="M91.5,55L91.5,55L91.5,55l-5.1-3.8l0,0l0,0c0,0-0.1-0.1-0.2-0.1c-0.1,0-0.2,0.1-0.2,0.2l0,0l0,0v3.1h-6.2
			c-0.4-2.1-2-3.8-4.1-4.2v-9.5h3c0.1,0,0.2-0.1,0.2-0.2c0,0,0,0,0,0c0-0.1,0-0.1-0.1-0.2l0,0l-4-5.1l0,0c-0.1,0-0.1-0.1-0.2-0.1
			c-0.1,0-0.1,0-0.2,0.1l0,0l0,0l-3.8,5.1l0,0l0,0c0,0-0.1,0.1-0.1,0.2c0,0.1,0.1,0.2,0.2,0.2h3v9.5c-2.4,0.5-4.2,2.6-4.2,5.1
			c0,1.3,0.5,2.5,1.3,3.5l-12.1,7.6v-7.6c0-0.2-0.1-0.4-0.3-0.5l-8-4.6c-0.2-0.1-0.4-0.1-0.5,0l-8,4.6c-0.2,0.1-0.3,0.3-0.3,0.5v7.1
			l-12.9-8.1c0.7-0.9,1-2,1-3.1c0-0.7-0.1-1.4-0.4-2L45,42.7l1.8,2.3l0,0c0.1,0.1,0.2,0.1,0.3,0c0,0,0.1-0.1,0.1-0.1l0,0l1.6-6.3
			v-0.1c0-0.1,0-0.1-0.1-0.2c0-0.1-0.1-0.1-0.2-0.1h-0.1l-6.4,0.1l0,0c-0.1,0-0.1,0-0.2,0c-0.1,0.1-0.1,0.2,0,0.3l0,0l0,0l0.1,0.1
			l1.8,2.3l-15.5,9.8c-0.7-0.8-1.7-1.3-2.8-1.5V41h3c0.1,0,0.2-0.1,0.2-0.2c0,0,0,0,0,0c0-0.1,0-0.1,0-0.2l0,0l-4-5.1h-0.1
			c-0.1,0-0.1-0.1-0.2-0.1c-0.1,0-0.1,0-0.2,0.1l0,0h0l-3.9,5.1l0,0l0,0c0,0-0.1,0.1-0.1,0.2c0,0.1,0.1,0.2,0.2,0.2h3v8.5
			c-2.3,0.5-4.1,2.5-4.2,4.9l-4.8-3.6l0,0l0,0c0,0-0.1-0.1-0.2-0.1c-0.1,0-0.2,0.1-0.2,0.2l0,0l0,0V54H9.4v2h4.8v2.9
			c0,0.1,0.1,0.2,0.2,0.2c0.1,0,0.1,0,0.1,0l0,0l4.8-3.8c0.3,2.2,2,4,4.1,4.4v5.2c-2,0.6-3.2,2.7-2.7,4.7c0.6,2,2.7,3.2,4.7,2.7
			s3.2-2.7,2.7-4.7c-0.4-1.3-1.4-2.3-2.7-2.7v-5.2c0.6-0.1,1.1-0.3,1.6-0.6l14,8.8l-7.4,4.2c-0.2,0.1-0.3,0.3-0.3,0.5v9.3
			c0,0.2,0.1,0.4,0.3,0.5l8,4.6c0.1,0,0.2,0.1,0.3,0.1c0.1,0,0.2,0,0.3-0.1l6.8-3.9v14.5c-2,0.4-3.6,2-4.1,4H32.7v-2.9
			c0-0.1-0.1-0.2-0.3-0.2c0,0-0.1,0-0.1,0h0l-5.1,3.9l0,0.1c0,0.1-0.1,0.1-0.1,0.2c0,0.1,0,0.1,0.1,0.2l0,0h0l5.1,3.8l0,0l0,0
			c0,0,0.1,0.1,0.2,0.1c0.1,0,0.2-0.1,0.2-0.2l0,0l0,0v-3.1h12.4c0.5,2.8,3.1,4.8,6,4.3c2.2-0.4,3.9-2,4.3-4.2h20.2v3
			c0,0.1,0.1,0.2,0.2,0.2c0,0,0.1,0,0.2,0l0,0l5.1-3.9v-0.1c0.1,0,0.1-0.1,0.1-0.2c0-0.1,0-0.1-0.1-0.2l0,0l0,0l-5-3.9l0,0l0,0
			c-0.1-0.1-0.2-0.1-0.3,0c0,0-0.1,0.1-0.1,0.1l0,0l0,0v3H57l11-6.1l1.6,2.6v0.1c0.1,0.1,0.2,0.1,0.3,0.1c0,0,0.1-0.1,0.1-0.1v-0.1
			l2.2-6.1V92c0-0.1,0-0.1,0-0.2c0,0-0.1-0.1-0.1-0.1l0,0H72l-6.4-0.5l0,0c-0.1,0-0.1,0-0.2,0c-0.1,0.1-0.1,0.2-0.1,0.3l0,0l0,0
			l0.1,0.1l1.5,2.4l-12.1,6.7c-0.7-1.5-2.1-2.7-3.8-3V83.1L58,87c0.1,0,0.2,0.1,0.3,0.1c0.1,0,0.2,0,0.3-0.1l8-4.6
			c0.2-0.1,0.3-0.3,0.3-0.5v-9.3c0-0.2-0.1-0.4-0.3-0.5l-6.9-4L72.5,60c0.7,0.3,1.4,0.5,2.2,0.5c2.5,0,4.6-1.7,5.1-4.1h6.1v3
			c0,0.1,0.1,0.2,0.2,0.2c0,0,0,0,0,0c0,0,0.1,0,0.2,0l0,0l5.1-4v0c0-0.1,0.1-0.1,0.1-0.2C91.5,55.2,91.5,55.1,91.5,55z M26.4,68.6
			c0,1-0.8,1.8-1.8,1.8c-1,0-1.8-0.8-1.8-1.8c0-0.9,0.6-1.6,1.4-1.8h0.8C25.8,67,26.4,67.7,26.4,68.6z M24.6,57.8
			c-1.8,0-3.2-1.4-3.2-3.2c0-1.8,1.4-3.2,3.2-3.2c1.8,0,3.2,1.4,3.2,3.2c0,0,0,0,0,0C27.8,56.4,26.4,57.8,24.6,57.8
			C24.6,57.8,24.6,57.8,24.6,57.8z M41.6,85.6l-7-4v-8.1l7,4V85.6z M57.7,59.6V67h-0.1l-6.4-3.7L57.7,59.6z M42.7,59.6l6.5,3.7
			l-6,3.4l-0.5-0.3L42.7,59.6z M49.7,64.2v7.4l-6.5-3.7l0,0L49.7,64.2z M42.7,85.6v-7.5l6.5,3.7L42.7,85.6z M43.2,77.2l6.5-3.7V81
			L43.2,77.2z M53.4,102.7c0,1.8-1.4,3.2-3.2,3.2s-3.2-1.4-3.2-3.2c0-1.8,1.4-3.2,3.2-3.2C51.9,99.5,53.4,100.9,53.4,102.7
			C53.4,102.7,53.4,102.7,53.4,102.7L53.4,102.7z M50.7,71.7v-7.5l6.5,3.7L50.7,71.7z M65.7,81.6l-7,4v-8.1l7-4V81.6z M65.2,72.6
			l-7,4l-7-4l7-4l0.3,0.2v0.1l0,0L65.2,72.6z M74.7,58.5c-1.8,0-3.2-1.4-3.2-3.2c0-1.8,1.4-3.2,3.2-3.2c1.8,0,3.2,1.4,3.2,3.2
			c0,0,0,0,0,0C77.9,57,76.4,58.5,74.7,58.5L74.7,58.5z"/>
	</g>
	<g>
		<path class="st1" d="M98.2,162.9h-95v-40.7h95V162.9z M4.2,161.9h93v-38.7h-93V161.9z"/>
	</g>
</g>
</svg>
