<?xml version="1.0" encoding="utf-8"?>
<!-- Generator: Adobe Illustrator 22.0.1, SVG Export Plug-In . SVG Version: 6.00 Build 0)  -->
<svg version="1.1" id="Layer_1" xmlns="http://www.w3.org/2000/svg" xmlns:xlink="http://www.w3.org/1999/xlink" x="0px" y="0px"
	 viewBox="0 0 101.5 157.1" style="enable-background:new 0 0 101.5 157.1;" xml:space="preserve">
<style type="text/css">
	.st0{fill:#FFFFFF;}
	.st1{fill:#FD6925;}
	.st2{enable-background:new    ;}
</style>
<title>Artboard 23</title>
<g id="WHITE_BG">
	<g>
		<rect y="0" class="st0" width="101.5" height="157.1"/>
	</g>
</g>
<g id="TARGETS">
	<g>
		<g>
			<path class="st1" d="M7,132.2v-6.4h1v6.4H7z"/>
		</g>
		<g>
			<path class="st1" d="M12.8,132.2l-2.8-4.5v4.5H9.1v-6.4h0.9l2.8,4.5v-4.5h0.9v6.4L12.8,132.2z"/>
		</g>
		<g>
			<path class="st1" d="M17,125.7c0.5,0,1,0.1,1.5,0.3v0.9c-0.5-0.2-0.9-0.3-1.4-0.3c-1.2,0-1.7,0.8-1.7,2.4c0,1.6,0.5,2.4,1.7,2.4
				c0.5,0,1-0.1,1.4-0.3v0.9c-0.5,0.2-1,0.3-1.5,0.3c-1.9,0-2.6-1.2-2.6-3.3S15.1,125.7,17,125.7z"/>
		</g>
		<g>
			<path class="st1" d="M20.3,132.2h-1v-6.4h2.1c1.6,0,2.2,0.7,2.2,1.9c0.1,0.7-0.3,1.4-1,1.7l1.3,2.8h-1.2l-1.1-2.6h-1.3V132.2z
				 M20.3,128.7h1.3c0.9,0,1-0.5,1-1s-0.1-1-1-1h-1.3V128.7z"/>
		</g>
		<g>
			<path class="st1" d="M28.1,129.3h-2.7v2h2.9v0.9h-3.9v-6.4h3.9v0.9h-2.9v1.8h2.7V129.3z"/>
		</g>
		<g>
			<path class="st1" d="M32.3,130.6h-2l-0.5,1.6h-1l2-6.4h1l2,6.4h-1L32.3,130.6z M31.3,127l-0.8,2.8h1.6L31.3,127z"/>
		</g>
		<g>
			<path class="st1" d="M38.4,130.3c0,1.2-0.7,2-2.4,2c-0.6,0-1.3-0.1-1.9-0.4V131c0.6,0.3,1.2,0.4,1.8,0.4c1.2,0,1.5-0.5,1.5-1.1
				s-0.3-0.9-1.2-1c-1.5-0.2-2.2-0.6-2.2-1.8c0-0.9,0.5-1.8,2.3-1.8c0.6,0,1.1,0.1,1.7,0.3v1c-0.5-0.2-1.1-0.3-1.7-0.3
				c-1,0-1.3,0.4-1.3,1s0.4,0.8,1.2,0.9C37.6,128.7,38.4,129,38.4,130.3z"/>
		</g>
		<g>
			<path class="st1" d="M42.8,129.3h-2.7v2H43v0.9h-3.8v-6.4H43v0.9h-2.9v1.8h2.7V129.3z"/>
		</g>
		<g>
			<path class="st1" d="M48.6,130.6h-2l-0.5,1.6h-1l2-6.4h1l2,6.4H49L48.6,130.6z M47.6,127l-0.8,2.8h1.6L47.6,127z"/>
		</g>
		<g>
			<path class="st1" d="M52.9,125.7c0.5,0,1,0.1,1.5,0.3v0.9c-0.5-0.2-0.9-0.3-1.4-0.3c-1.2,0-1.7,0.8-1.7,2.4
				c0,1.6,0.5,2.4,1.7,2.4c0.5,0,1-0.1,1.4-0.3v0.9c-0.5,0.2-1,0.3-1.5,0.3c-1.9,0-2.6-1.2-2.6-3.3S51,125.7,52.9,125.7z"/>
		</g>
		<g>
			<path class="st1" d="M57.6,125.7c0.5,0,1,0.1,1.5,0.3v0.9c-0.5-0.2-0.9-0.3-1.4-0.3c-1.2,0-1.7,0.8-1.7,2.4
				c0,1.6,0.5,2.4,1.7,2.4c0.5,0,1-0.1,1.4-0.3v0.9c-0.5,0.2-1,0.3-1.5,0.3c-1.9,0-2.6-1.2-2.6-3.3S55.7,125.7,57.6,125.7z"/>
		</g>
		<g>
			<path class="st1" d="M63.6,129.3h-2.7v2h2.9v0.9H60v-6.4h3.9v0.9h-3v1.8h2.7V129.3z"/>
		</g>
		<g>
			<path class="st1" d="M68.9,130.3c0,1.2-0.7,2-2.4,2c-0.6,0-1.3-0.1-1.9-0.4V131c0.6,0.3,1.2,0.4,1.8,0.4c1.2,0,1.5-0.5,1.5-1.1
				s-0.3-0.9-1.2-1c-1.6-0.2-2.2-0.6-2.2-1.8c0-0.9,0.5-1.8,2.3-1.8c0.6,0,1.2,0.1,1.7,0.3v1c-0.5-0.2-1.1-0.3-1.7-0.3
				c-1,0-1.3,0.4-1.3,1s0.4,0.8,1.2,0.9C68.1,128.7,68.9,129,68.9,130.3z"/>
		</g>
		<g>
			<path class="st1" d="M73.7,130.3c0,1.2-0.7,2-2.4,2c-0.6,0-1.3-0.1-1.9-0.4V131c0.6,0.3,1.2,0.4,1.8,0.4c1.1,0,1.5-0.5,1.5-1.1
				s-0.3-0.9-1.2-1c-1.6-0.2-2.2-0.6-2.2-1.8c0-0.9,0.5-1.8,2.3-1.8c0.6,0,1.2,0.1,1.7,0.3v1c-0.5-0.2-1.1-0.3-1.7-0.3
				c-1,0-1.3,0.4-1.3,1s0.4,0.8,1.2,0.9C72.9,128.7,73.7,129,73.7,130.3z"/>
		</g>
		<g>
			<path class="st1" d="M77.9,126.7v5.5H77v-5.5h-1.7v-0.9h4.3v0.9L77.9,126.7z"/>
		</g>
		<g>
			<path class="st1" d="M79.8,129c0-1.8,0.4-3.3,2.5-3.3s2.5,1.5,2.5,3.3s-0.4,3.3-2.5,3.3S79.8,130.8,79.8,129z M80.8,129
				c0,1.5,0.3,2.4,1.5,2.4s1.5-0.9,1.5-2.4s-0.3-2.4-1.5-2.4S80.8,127.5,80.8,129L80.8,129z"/>
		</g>
		<g>
			<path class="st1" d="M10.4,138.4H7.8v2.8h-1v-6.4h3.9v0.9H7.8v1.8h2.6V138.4z"/>
		</g>
		<g>
			<path class="st1" d="M11.4,141.2v-6.4h1v6.4H11.4z"/>
		</g>
		<g>
			<path class="st1" d="M17.2,141.2l-2.8-4.5v4.5h-0.9v-6.4h0.9l2.8,4.5v-4.5H18v6.4H17.2z"/>
		</g>
		<g>
			<path class="st1" d="M22.1,139.6H20l-0.5,1.6h-1l2-6.4h1l2,6.4h-1L22.1,139.6z M21.1,136l-0.8,2.8h1.6L21.1,136z"/>
		</g>
		<g>
			<path class="st1" d="M27.8,141.2l-2.8-4.5v4.5h-1v-6.4h1l2.8,4.5v-4.5h0.9v6.4L27.8,141.2z"/>
		</g>
		<g>
			<path class="st1" d="M32.1,134.7c0.5,0,1,0.1,1.5,0.3v0.9c-0.5-0.2-0.9-0.3-1.4-0.3c-1.2,0-1.7,0.8-1.7,2.4s0.5,2.4,1.7,2.4
				c0.5,0,1-0.1,1.4-0.3v0.9c-0.5,0.2-1,0.3-1.5,0.3c-1.9,0-2.6-1.2-2.6-3.3S30.2,134.7,32.1,134.7z"/>
		</g>
		<g>
			<path class="st1" d="M34.6,141.2v-6.4h1v6.4H34.6z"/>
		</g>
		<g>
			<path class="st1" d="M39.8,139.6h-2l-0.5,1.6h-1l2-6.4h1l2,6.4h-1L39.8,139.6z M38.8,136l-0.8,2.8h1.6L38.8,136z"/>
		</g>
		<g>
			<path class="st1" d="M42.7,140.3h2.8v0.9h-3.7v-6.4h1L42.7,140.3z"/>
		</g>
		<g>
			<path class="st1" d="M51.7,139.3c0,1.2-0.7,2-2.4,2c-0.6,0-1.3-0.1-1.9-0.4V140c0.6,0.3,1.2,0.4,1.8,0.4c1.2,0,1.5-0.5,1.5-1.1
				s-0.3-0.9-1.2-1c-1.6-0.2-2.2-0.6-2.2-1.8c0-0.9,0.5-1.9,2.3-1.9c0.6,0,1.2,0.1,1.7,0.3v1c-0.5-0.2-1.1-0.3-1.7-0.3
				c-1,0-1.3,0.4-1.3,1s0.4,0.8,1.2,0.9C50.9,137.7,51.7,138,51.7,139.3z"/>
		</g>
		<g>
			<path class="st1" d="M56.1,138.3h-2.7v2h2.9v0.9h-3.9v-6.4h3.9v0.9h-2.9v1.8h2.7V138.3z"/>
		</g>
		<g>
			<path class="st1" d="M58.2,141.2h-1v-6.4h2.1c1.7,0,2.2,0.7,2.2,1.9c0.1,0.7-0.3,1.4-1,1.7l1.3,2.8h-1.1l-1.2-2.6h-1.3V141.2z
				 M58.2,137.7h1.2c0.9,0,1-0.5,1-1s-0.1-1-1-1h-1.2V137.7z"/>
		</g>
		<g>
			<path class="st1" d="M66.6,134.8l-2,6.5h-1l-2-6.5h1l1.5,5.2l1.5-5.2L66.6,134.8z"/>
		</g>
		<g>
			<path class="st1" d="M67.3,141.2v-6.4h1v6.4H67.3z"/>
		</g>
		<g>
			<path class="st1" d="M71.9,134.7c0.5,0,1,0.1,1.5,0.3v0.9c-0.5-0.2-0.9-0.3-1.4-0.3c-1.2,0-1.7,0.8-1.7,2.4s0.5,2.4,1.7,2.4
				c0.5,0,1-0.1,1.4-0.3v0.9c-0.5,0.2-1,0.3-1.5,0.3c-1.9,0-2.6-1.2-2.6-3.3S70,134.7,71.9,134.7z"/>
		</g>
		<g>
			<path class="st1" d="M77.8,138.3h-2.7v2h2.9v0.9h-3.9v-6.4h3.9v0.9h-2.9v1.8h2.7V138.3z"/>
		</g>
		<g>
			<path class="st1" d="M83.1,139.3c0,1.2-0.7,2-2.4,2c-0.6,0-1.3-0.1-1.9-0.4V140c0.6,0.3,1.2,0.4,1.8,0.4c1.1,0,1.5-0.5,1.5-1.1
				s-0.3-0.9-1.2-1c-1.6-0.2-2.2-0.6-2.2-1.8c0-0.9,0.5-1.9,2.3-1.9c0.6,0,1.2,0.1,1.7,0.3v1c-0.5-0.2-1.1-0.3-1.7-0.3
				c-1,0-1.3,0.4-1.3,1s0.4,0.8,1.2,0.9C82.3,137.7,83.1,138,83.1,139.3z"/>
		</g>
		<g>
			<path class="st1" d="M10.1,148.6h-2l-0.4,1.6h-1l2-6.4h1l2,6.4h-1L10.1,148.6z M9.1,145l-0.8,2.8h1.6L9.1,145z"/>
		</g>
		<g>
			<path class="st1" d="M15.8,150.2l-2.8-4.5v4.5h-0.9v-6.4H13l2.8,4.5v-4.5h0.9v6.4L15.8,150.2z"/>
		</g>
		<g>
			<path class="st1" d="M17.6,150.2v-6.4h1.9c2.1,0,2.7,1.4,2.7,3.2s-0.6,3.2-2.7,3.2H17.6z M18.6,149.3h1c1.3,0,1.7-0.9,1.7-2.3
				s-0.4-2.3-1.7-2.3h-1V149.3z"/>
		</g>
		<g>
			<path class="st1" d="M27.8,149.3h-0.9l-1.6-3.9l0,4.8h-1v-6.4h1.2l1.7,4.4l1.7-4.4h1.2v6.4h-1v-4.8L27.8,149.3z"/>
		</g>
		<g>
			<path class="st1" d="M34.4,148.6h-2l-0.5,1.6h-1l2-6.4h1l2,6.4h-1L34.4,148.6z M33.4,145l-0.8,2.8h1.6L33.4,145z"/>
		</g>
		<g>
			<path class="st1" d="M37.3,150.2h-1v-6.4h2.1c1.7,0,2.2,0.7,2.2,1.9c0.1,0.7-0.3,1.4-1,1.7l1.3,2.8h-1.2l-1.2-2.6h-1.3V150.2z
				 M37.3,146.7h1.3c0.9,0,1-0.5,1-1s-0.1-1-1-1h-1.3V146.7z"/>
		</g>
		<g>
			<path class="st1" d="M43,147.4l-0.5,0.6v2.2h-1v-6.4h1v3l2.3-3H46l-2.3,2.8l2.5,3.6H45L43,147.4z"/>
		</g>
		<g>
			<path class="st1" d="M50.4,147.3h-2.7v2h2.9v0.9h-3.9v-6.4h3.9v0.9h-2.9v1.8h2.7V147.3z"/>
		</g>
		<g>
			<path class="st1" d="M53.7,144.7v5.5h-1v-5.5h-1.7v-0.9h4.3v0.9H53.7z"/>
		</g>
		<g>
			<path class="st1" d="M60.1,148.3c0,1.2-0.7,2-2.4,2c-0.6,0-1.3-0.1-1.9-0.4V149c0.6,0.3,1.2,0.4,1.8,0.4c1.2,0,1.5-0.5,1.5-1.1
				s-0.3-0.9-1.2-1c-1.6-0.2-2.2-0.6-2.2-1.8c0-0.9,0.5-1.9,2.3-1.9c0.6,0,1.2,0.1,1.7,0.3v1c-0.5-0.2-1.1-0.3-1.7-0.3
				c-1,0-1.3,0.4-1.3,1s0.4,0.8,1.2,0.9C59.3,146.7,60.1,147,60.1,148.3z"/>
		</g>
	</g>
	<g>
		<rect x="3.3" y="24" class="st1" width="94.8" height="94.8"/>
	</g>
	<g>
		<path class="st1" d="M98.2,20.7H3.3V3.3h94.8V20.7z M4.3,19.7h92.8V4.3H4.3L4.3,19.7z"/>
	</g>
	<g class="st2">
		<path class="st1" d="M6.7,6.9h4.5v1.4H9.9v8.8H8.1V8.3H6.7V6.9z"/>
	</g>
	<g class="st2">
		<path class="st1" d="M11.2,17.1l1.9-10.2h1.9L17,17.1h-1.8l-0.3-1.9h-1.8l-0.3,1.9H11.2z M13.3,13.9h1.4L14,9.8h0L13.3,13.9z"/>
	</g>
	<g class="st2">
		<path class="st1" d="M19.6,12.4v4.7h-1.7V6.9h2.5c1.7,0,2.4,0.9,2.4,2.3v1.3c0,1.1-0.4,1.7-1.4,2l1.6,4.6h-1.8L19.6,12.4z
			 M19.6,8.3v3.2h0.6c0.6,0,0.8-0.3,0.8-0.8V9.2c0-0.6-0.3-0.8-0.8-0.8H19.6z"/>
	</g>
	<g class="st2">
		<path class="st1" d="M26.4,11.7h2.4v5.4h-1.2V16c-0.2,0.8-0.7,1.2-1.6,1.2c-1.5,0-2.1-1.2-2.1-2.7V9.6c0-1.6,0.8-2.7,2.6-2.7
			c1.9,0,2.4,1.1,2.4,2.6v0.9h-1.6v-1c0-0.6-0.2-1-0.9-1c-0.6,0-0.9,0.4-0.9,1v5.5c0,0.6,0.3,1,0.8,1c0.6,0,0.8-0.3,0.8-1V13h-0.8
			V11.7z"/>
	</g>
	<g class="st2">
		<path class="st1" d="M30.2,6.9h4.1v1.4h-2.4v2.9h1.7v1.4h-1.7v3.1h2.4v1.4h-4.1V6.9z"/>
	</g>
	<g class="st2">
		<path class="st1" d="M35.1,6.9h4.5v1.4h-1.4v8.8h-1.7V8.3h-1.4V6.9z"/>
	</g>
	<g class="st2">
		<path class="st1" d="M83.9,9.5v4.9c0,1.6-0.7,2.7-2.5,2.7c-1.9,0-2.4-1-2.4-2.5v-0.5h1.6v0.7c0,0.6,0.2,1,0.8,1s0.9-0.4,0.9-1
			v-2.2h0c-0.3,0.5-0.7,0.8-1.4,0.8c-1.2,0-1.9-0.8-1.9-2.5V9.4c0-1.6,0.7-2.6,2.5-2.6C83.2,6.8,83.9,8,83.9,9.5z M80.6,9.2V11
			c0,0.7,0.2,1,0.8,1c0.5,0,0.8-0.4,0.8-0.9V9.2c0-0.6-0.2-1-0.8-1C80.8,8.2,80.6,8.6,80.6,9.2z"/>
	</g>
	<g class="st2">
	</g>
	<g class="st2">
		<path class="st1" d="M86.8,10.8c0.7,0,1.2,0.6,1.2,1.2c0,0.7-0.6,1.2-1.2,1.2c-0.7,0-1.2-0.6-1.2-1.2
			C85.6,11.4,86.1,10.8,86.8,10.8z"/>
	</g>
	<g class="st2">
		<path class="st1" d="M94.3,9.1V10c0,0.9-0.5,1.4-1.2,1.7c0.9,0.2,1.3,0.8,1.3,1.7v1.5c0,1.4-0.8,2.3-2.5,2.3c-1.7,0-2.4-1-2.4-2.5
			v-1.3h1.6v1.5c0,0.6,0.2,1,0.8,1c0.5,0,0.8-0.4,0.8-0.9v-1.7c0-0.5-0.2-0.8-0.8-0.8h-0.7v-1.3h0.6c0.6,0,0.9-0.3,0.9-0.8V9.2
			c0-0.6-0.2-0.9-0.7-0.9s-0.7,0.4-0.7,1v1h-1.6V9.4c0-1.5,0.6-2.6,2.4-2.6C93.6,6.8,94.3,7.7,94.3,9.1z"/>
	</g>
	<g>
		<path class="st1" d="M98.2,153.8H3.3v-31.6h94.8V153.8z M4.3,152.8h92.8v-29.6H4.3L4.3,152.8z"/>
	</g>
	<g>
		<g>
			<g>
				<g>
					<path class="st0" d="M81.3,60c0,1.3,1,2.3,2.3,2.3c1.3,0,2.3-1,2.3-2.3c0-1.3-1-2.3-2.3-2.3c0,0,0,0,0,0
						C82.4,57.7,81.3,58.7,81.3,60z"/>
				</g>
				<g>
					<path class="st0" d="M88.4,65.2c0,0-0.7-1.8-2.2-1.8h-4.9c-1.5,0-2.2,1.8-2.2,1.8L77,71.5c0,0-0.3,1.2,0.6,1.4s1.3-0.8,1.3-0.8
						l1.6-5.3c0,0,0.1-0.4,0.4-0.3s0.2,0.5,0.2,0.5l-2.7,9.8h2.5v7c0.1,0.7,0.7,1.2,1.3,1.1c0.6-0.1,1.1-0.5,1.1-1.1v-7H84v7
						c0,0.7,0.5,1.2,1.2,1.2c0.7,0,1.2-0.5,1.2-1.2v-7H89l-2.7-9.8c0,0-0.1-0.4,0.2-0.5s0.4,0.3,0.4,0.3l1.6,5.3
						c0,0,0.3,1.1,1.3,0.8s0.6-1.4,0.6-1.4L88.4,65.2z"/>
				</g>
			</g>
			<g>
				<g>
					<path class="st0" d="M65.8,59.2c0,1.3,1.1,2.4,2.4,2.4c1.3,0,2.4-1.1,2.4-2.4s-1.1-2.4-2.4-2.4C66.8,56.8,65.8,57.8,65.8,59.2
						L65.8,59.2z"/>
				</g>
				<g>
					<path class="st0" d="M71,62.5h-5.6c-1.7,0.2-2.9,1.5-2.9,3.2v6.7c0.1,0.5,0.5,0.9,1,0.8c0.4,0,0.8-0.4,0.8-0.8v-5.7
						c0-0.2,0.1-0.5,0.5-0.5s0.3,0.3,0.3,0.5v17.2c0,0.7,0.6,1.3,1.3,1.3c0.7,0,1.3-0.6,1.3-1.3v-9.9c0-0.2,0.1-0.4,0.3-0.4
						c0,0,0,0,0,0l0,0c0.2,0,0.4,0.1,0.4,0.3c0,0,0,0,0,0.1v9.9c0.1,0.7,0.7,1.3,1.5,1.2c0.7-0.1,1.2-0.6,1.2-1.2V66.6
						c0-0.2,0.1-0.5,0.3-0.5s0.4,0.3,0.4,0.5v5.7c0.1,0.5,0.5,0.9,1,0.8c0.4,0,0.8-0.4,0.8-0.8v-6.7C73.9,64.1,72.6,62.7,71,62.5z"
						/>
				</g>
			</g>
		</g>
		<g>
			<path class="st0" d="M75.9,97.3l-2.9-2.1c-0.2-0.2-0.6-0.2-0.8,0c0,0,0,0,0,0l0,0c-8.5,10.8-23.6,12.5-34.6,4.3
				c-0.3-0.2-0.7-0.5-1-0.8l3.1-2.1c0.3-0.2-0.1-0.4-0.1-0.4l-11-5.1c-0.4-0.2-0.4,0-0.4,0.2v0.1l0,0l0.4,12.3
				c0,0.1,0.1,0.4,0.4,0.2l0,0l3.5-2.3c0.7,0.7,1.5,1.3,2.2,1.8c13.2,9.8,31.2,7.7,41.3-5.1l0.1-0.1C76.2,98,76.2,97.6,75.9,97.3
				C75.9,97.4,75.9,97.4,75.9,97.3z"/>
		</g>
		<g>
			<path class="st0" d="M27.4,46.3l2.9,2.1c0.2,0.2,0.6,0.2,0.8-0.1c0,0,0,0,0-0.1l0,0c8.2-11,23.3-13,34.5-5c0.3,0.2,0.7,0.5,1,0.8
				l-3,2.2c-0.3,0.2,0.2,0.5,0.2,0.5l11.1,4.8c0.3,0.2,0.4-0.1,0.4-0.2v-0.1l0,0l-0.7-12.3c0-0.1-0.1-0.4-0.4-0.2l0,0l-3.4,2.4
				c-0.7-0.6-1.5-1.2-2.3-1.8c-13.4-9.5-31.4-7.1-41.2,5.9l-0.1,0.1C27,45.7,27,46.1,27.4,46.3C27.3,46.3,27.3,46.3,27.4,46.3z"/>
		</g>
		<g>
			<g>
				<path class="st0" d="M25.6,57.6c-7.5,0-13.6,6.1-13.6,13.5c0,7.5,6.1,13.6,13.5,13.6s13.6-6.1,13.6-13.5c0,0,0,0,0,0
					C39.1,63.7,33.1,57.6,25.6,57.6z M37.7,69c0,0.2,0,0.3-0.1,0.4c-0.1,0.1-0.2,0.2-0.4,0.2h-0.1c-0.1,0-0.2,0-0.3-0.1
					c-0.1-0.1-0.2-0.2-0.2-0.4c0-0.2,0-0.3,0.1-0.4c0.1-0.1,0.2-0.2,0.4-0.2C37.4,68.5,37.7,68.7,37.7,69C37.7,69,37.7,69,37.7,69z
					 M37.2,66.9c0.1,0.3,0,0.6-0.3,0.7c0,0,0,0,0,0c-0.1,0-0.1,0-0.2,0c-0.1,0-0.2,0-0.2-0.1c-0.1-0.1-0.2-0.2-0.3-0.3
					c-0.1-0.1-0.1-0.3,0-0.4c0.1-0.1,0.2-0.2,0.3-0.3C36.7,66.4,37.1,66.6,37.2,66.9C37.2,66.9,37.2,66.9,37.2,66.9L37.2,66.9z
					 M35.2,65.1c0.1-0.3,0.4-0.5,0.7-0.4c0.3,0.1,0.5,0.4,0.4,0.7c0,0.2-0.1,0.3-0.3,0.4c-0.1,0.1-0.2,0.1-0.3,0.1h-0.2
					c-0.2,0-0.3-0.1-0.4-0.3C35.2,65.4,35.1,65.3,35.2,65.1L35.2,65.1z M31,60.7L31,60.7c0.2-0.3,0.6-0.3,0.8-0.1
					c0.1,0.1,0.1,0.1,0.2,0.2c0,0.1,0,0.3-0.1,0.4c-0.1,0.1-0.2,0.2-0.4,0.3c0,0-0.1,0-0.1,0c-0.1,0-0.2,0-0.3-0.1
					C30.9,61.3,30.8,60.9,31,60.7C30.9,60.6,30.9,60.6,31,60.7L31,60.7z M29.8,69.6c-0.1,0-0.2-0.1-0.2-0.2v-0.8h2.1v0.8
					c0,0.1-0.1,0.2-0.2,0.2l0,0v5h-1.7V69.6z M25.7,68h-6.5v-0.4h13V68H25.7z M24.8,69.6c-0.1,0-0.2-0.1-0.2-0.2v-0.8h2.1v0.8
					c0,0.1-0.1,0.2-0.2,0.2h0v5h-1.6L24.8,69.6L24.8,69.6z M19.9,69.6c-0.1,0-0.2-0.1-0.2-0.2v-0.8h2.1v0.8c0,0.1-0.1,0.2-0.2,0.2
					l0,0v5h-1.6L19.9,69.6L19.9,69.6z M25.7,67.1h-7l-0.3-0.3c-0.1-0.1-0.1-0.2,0-0.3c0,0,0,0,0,0l7.2-2.7l7.2,2.7
					c0.1,0.1,0.1,0.2,0,0.3c0,0,0,0,0,0l-0.3,0.3H25.7z M29.1,59.8c0.1-0.3,0.4-0.5,0.7-0.3c0.1,0.1,0.3,0.2,0.3,0.3
					c0.1,0.1,0.1,0.3,0,0.5c-0.1,0.1-0.2,0.3-0.3,0.3c-0.1,0-0.2,0.1-0.2,0.1c-0.1,0-0.1,0-0.2,0c-0.1-0.1-0.3-0.2-0.3-0.3
					C29,60.2,29,60,29.1,59.8L29.1,59.8z M27.3,59c0.1-0.1,0.3-0.1,0.4-0.1c0.3,0.1,0.5,0.4,0.5,0.7c-0.1,0.3-0.3,0.5-0.6,0.5h-0.1
					c-0.1,0-0.3-0.1-0.4-0.2c-0.1-0.1-0.1-0.3-0.1-0.4C27.1,59.3,27.2,59.2,27.3,59L27.3,59z M25.6,58.7c0.3,0,0.6,0.3,0.6,0.6l0,0
					c0,0.3-0.3,0.6-0.6,0.6c-0.3,0-0.6-0.3-0.6-0.6c0,0,0,0,0,0C25,59,25.3,58.8,25.6,58.7L25.6,58.7z M23.1,59.2
					c0.2-0.3,0.5-0.3,0.8-0.2c0.1,0.1,0.2,0.2,0.2,0.4c0,0.2,0,0.3-0.1,0.4c-0.1,0.1-0.2,0.2-0.4,0.2h-0.1c-0.1,0-0.2,0-0.3-0.1
					c-0.1-0.1-0.2-0.2-0.2-0.4C22.9,59.5,23,59.3,23.1,59.2L23.1,59.2z M21.1,59.8c0.1-0.1,0.2-0.3,0.3-0.3c0.1-0.1,0.3-0.1,0.4,0
					c0.1,0.1,0.3,0.2,0.3,0.3c0.1,0.1,0.1,0.3,0,0.5c-0.1,0.1-0.2,0.2-0.3,0.3c-0.1,0-0.1,0-0.2,0c-0.1,0-0.2,0-0.2-0.1
					c-0.1-0.1-0.2-0.2-0.3-0.3C21,60.1,21,60,21.1,59.8L21.1,59.8z M19.4,60.4c0.1-0.1,0.3-0.1,0.4-0.1c0.2,0,0.3,0.1,0.4,0.3
					c0.2,0.3,0.1,0.6-0.2,0.8c-0.1,0.1-0.2,0.1-0.3,0.1c-0.3,0-0.6-0.2-0.6-0.6C19.1,60.7,19.2,60.5,19.4,60.4z M17.7,61.6
					c0.1-0.1,0.3-0.1,0.4-0.1c0.2,0,0.3,0.1,0.4,0.2c0.2,0.2,0.2,0.6-0.1,0.8c-0.1,0.1-0.2,0.1-0.4,0.1c-0.2,0-0.3-0.1-0.5-0.2
					C17.4,62.2,17.4,61.9,17.7,61.6L17.7,61.6z M14.9,65c0.2-0.3,0.5-0.4,0.8-0.2s0.4,0.5,0.2,0.8l0,0c-0.1,0.2-0.3,0.3-0.5,0.3
					c-0.1,0-0.2,0-0.3-0.1C14.8,65.6,14.7,65.3,14.9,65z M14,67c0.1-0.1,0.2-0.3,0.3-0.3c0.1-0.1,0.3-0.1,0.4,0
					c0.1,0.1,0.3,0.2,0.3,0.3c0.1,0.1,0.1,0.3,0,0.4c-0.1,0.2-0.3,0.4-0.6,0.4c-0.1,0-0.1,0-0.2,0C14,67.7,13.8,67.4,14,67
					C13.9,67,14,67,14,67L14,67z M14.1,68.6c0.2,0,0.3,0.1,0.4,0.2c0.1,0.1,0.1,0.3,0.1,0.4c0,0.2-0.1,0.3-0.2,0.4
					c-0.1,0.1-0.2,0.1-0.3,0.1h-0.1c-0.3-0.1-0.5-0.4-0.5-0.7C13.4,68.8,13.7,68.5,14.1,68.6C14,68.5,14.1,68.5,14.1,68.6L14.1,68.6
					z M13.2,71.2c0-0.2,0.1-0.3,0.2-0.4c0.1-0.1,0.3-0.2,0.4-0.2l0,0c0.2,0,0.3,0.1,0.4,0.2c0.1,0.1,0.2,0.3,0.2,0.4
					c0,0.3-0.3,0.6-0.6,0.6c0,0,0,0,0,0C13.5,71.8,13.2,71.6,13.2,71.2C13.2,71.2,13.2,71.2,13.2,71.2L13.2,71.2z M13.4,73.4
					c0-0.3,0.2-0.6,0.5-0.7c0.3,0,0.6,0.2,0.7,0.5c0.1,0.3-0.1,0.6-0.5,0.7c0,0,0,0,0,0H14C13.7,73.8,13.4,73.6,13.4,73.4L13.4,73.4
					z M14.5,75.8c-0.2,0-0.5-0.2-0.6-0.4c-0.1-0.3,0-0.6,0.3-0.8c0.3-0.1,0.6,0,0.8,0.3c0.1,0.3,0,0.6-0.3,0.8c0,0,0,0,0,0
					C14.7,75.8,14.6,75.8,14.5,75.8L14.5,75.8z M16,77.2c0,0.1-0.1,0.3-0.3,0.3c-0.1,0.1-0.2,0.1-0.3,0.1c-0.2,0-0.4-0.1-0.5-0.3
					c-0.2-0.3-0.1-0.6,0.1-0.8c0.3-0.2,0.6-0.1,0.8,0.1c0,0,0,0.1,0,0.1C16,76.9,16,77,16,77.2z M16.2,63.2c0.2-0.2,0.6-0.3,0.8-0.1
					c0,0,0,0,0,0c0.3,0.2,0.3,0.6,0.1,0.8c0,0,0,0-0.1,0.1c-0.1,0.1-0.3,0.2-0.5,0.2c-0.1,0-0.3-0.1-0.4-0.1
					C15.9,63.9,15.9,63.5,16.2,63.2C16.1,63.2,16.1,63.2,16.2,63.2L16.2,63.2z M17,79.1c-0.1,0.1-0.2,0.1-0.4,0.1
					c-0.3,0-0.6-0.3-0.6-0.6c0-0.1,0.1-0.3,0.2-0.4c0.1-0.1,0.3-0.1,0.4-0.1c0.2,0,0.3,0.1,0.4,0.2C17.3,78.6,17.2,78.9,17,79.1z
					 M18.5,80.5c-0.1,0.1-0.3,0.2-0.5,0.2c-0.1,0-0.3-0.1-0.4-0.1c-0.1-0.1-0.2-0.2-0.2-0.4c0-0.2,0-0.3,0.1-0.4
					c0.1-0.1,0.2-0.2,0.4-0.2c0.2,0,0.3,0,0.4,0.1C18.7,79.9,18.7,80.3,18.5,80.5z M18.7,76h0.5v-0.8c0,0,0-0.1,0.1-0.1h12.9
					c0,0,0.1,0,0.1,0.1V76h0.5v0.8h-14L18.7,76z M20.2,81.6c-0.1,0.2-0.3,0.3-0.5,0.3c-0.1,0-0.2,0-0.3-0.1
					c-0.1-0.1-0.2-0.2-0.3-0.4c0-0.1,0-0.3,0-0.4c0.1-0.1,0.2-0.2,0.4-0.3c0.1,0,0.3,0,0.4,0.1C20.3,81,20.3,81.3,20.2,81.6
					L20.2,81.6z M22.1,82.4c-0.1,0.2-0.3,0.4-0.5,0.4c-0.1,0-0.1,0-0.2,0c-0.3-0.1-0.5-0.4-0.4-0.8c0.1-0.3,0.4-0.5,0.8-0.4
					C22.1,81.8,22.2,82.1,22.1,82.4C22.1,82.4,22.1,82.4,22.1,82.4L22.1,82.4z M23.5,83.3h-0.1c-0.3-0.1-0.5-0.4-0.5-0.7l0,0
					c0.1-0.3,0.4-0.5,0.7-0.5c0.3,0,0.6,0.3,0.5,0.6C24.1,83.1,23.9,83.4,23.5,83.3L23.5,83.3z M25.5,83.5c-0.3,0-0.6-0.3-0.5-0.6
					c0-0.3,0.3-0.6,0.6-0.6c0.3,0,0.6,0.3,0.6,0.6c0,0,0,0,0,0C26.2,83.2,25.9,83.5,25.5,83.5L25.5,83.5L25.5,83.5z M28.1,83.1
					c-0.1,0.1-0.2,0.2-0.4,0.2h-0.1c-0.3,0-0.6-0.2-0.6-0.5c0-0.3,0.2-0.6,0.5-0.6c0.2,0,0.3,0,0.4,0.1c0.1,0.1,0.2,0.2,0.2,0.4
					C28.2,82.8,28.2,82.9,28.1,83.1L28.1,83.1z M30.1,82.5c-0.1,0.1-0.2,0.2-0.3,0.3c-0.1,0.1-0.3,0.1-0.4,0
					c-0.1-0.1-0.2-0.2-0.3-0.3c-0.1-0.1-0.1-0.3,0-0.4c0.1-0.1,0.2-0.2,0.3-0.3c0.3-0.1,0.6,0,0.8,0.3
					C30.1,82.2,30.2,82.3,30.1,82.5L30.1,82.5z M31.7,81.9c-0.1,0.1-0.2,0.1-0.3,0.1h-0.1c-0.2,0-0.3-0.1-0.4-0.3
					c-0.2-0.3-0.1-0.6,0.2-0.8c0,0,0,0,0,0c0.1-0.1,0.3-0.1,0.4-0.1c0.2,0,0.3,0.1,0.5,0.2c0.2,0.3,0.1,0.6-0.2,0.8
					C31.8,81.8,31.8,81.8,31.7,81.9L31.7,81.9z M33.5,80.6c-0.1,0.1-0.2,0.1-0.4,0.1c-0.2,0-0.3-0.1-0.5-0.2
					c-0.1-0.1-0.1-0.3-0.1-0.4c0-0.2,0.1-0.3,0.2-0.4c0.1-0.1,0.3-0.1,0.4-0.1c0.2,0,0.3,0.1,0.4,0.2C33.7,80,33.7,80.4,33.5,80.6
					L33.5,80.6z M33.5,62.5c-0.1,0.1-0.2,0.2-0.4,0.2l0,0c-0.1,0-0.3,0-0.4-0.1c-0.1-0.1-0.2-0.2-0.2-0.4c0-0.2,0-0.3,0.1-0.4
					c0.2-0.2,0.6-0.3,0.8-0.1c0,0,0,0,0,0C33.7,61.9,33.8,62.3,33.5,62.5L33.5,62.5z M35,79.1c-0.1,0.1-0.2,0.2-0.4,0.2l0,0
					c-0.1,0-0.3,0-0.4-0.1c-0.2-0.2-0.3-0.6-0.1-0.8c0,0,0,0,0,0c0.1-0.1,0.2-0.2,0.4-0.2c0.2,0,0.3,0,0.4,0.1
					c0.1,0.1,0.2,0.2,0.2,0.4C35.2,78.8,35.1,79,35,79.1z M35,64c-0.1,0.1-0.2,0.1-0.4,0.1h0c-0.2,0-0.3-0.1-0.4-0.2
					c-0.2-0.2-0.2-0.6,0.1-0.8c0,0,0,0,0,0c0.2-0.2,0.6-0.2,0.8,0.1c0,0,0,0,0,0c0.1,0.1,0.1,0.3,0.1,0.4C35.2,63.8,35.1,63.9,35,64
					z M36.3,77.3c-0.1,0.2-0.3,0.3-0.5,0.3c-0.1,0-0.2,0-0.3-0.1c-0.1-0.1-0.2-0.2-0.3-0.3c0-0.2,0-0.3,0.1-0.4
					c0.1-0.1,0.2-0.2,0.4-0.3c0.1,0,0.3,0,0.4,0.1C36.4,76.7,36.5,77,36.3,77.3C36.3,77.3,36.3,77.3,36.3,77.3L36.3,77.3z
					 M37.2,75.3c-0.1,0.2-0.3,0.4-0.5,0.4h-0.2c-0.1-0.1-0.3-0.2-0.3-0.3c-0.1-0.1-0.1-0.3,0-0.4c0.1-0.1,0.2-0.3,0.3-0.3
					c0.1-0.1,0.3-0.1,0.4,0C37.2,74.7,37.3,75.1,37.2,75.3C37.2,75.4,37.2,75.4,37.2,75.3L37.2,75.3z M37.5,73.6
					c-0.1,0.1-0.2,0.1-0.3,0.1h-0.1c-0.3-0.1-0.5-0.4-0.5-0.7c0.1-0.3,0.4-0.5,0.7-0.5c0.3,0.1,0.5,0.4,0.5,0.7
					C37.8,73.4,37.7,73.6,37.5,73.6L37.5,73.6z M37.4,71.6c-0.3,0-0.6-0.3-0.6-0.6c0-0.3,0.3-0.6,0.6-0.6c0.3,0,0.6,0.3,0.6,0.6
					c0,0,0,0,0,0C38,71.4,37.8,71.7,37.4,71.6C37.4,71.7,37.4,71.7,37.4,71.6L37.4,71.6z"/>
			</g>
			<g>
				<path class="st0" d="M25.6,55.7c-8.5,0-15.5,6.9-15.5,15.4c0,8.5,6.9,15.5,15.4,15.5C34,86.6,41,79.7,41,71.2c0,0,0,0,0,0
					C41,62.6,34.1,55.7,25.6,55.7z M25.6,85.4c-7.9,0-14.3-6.4-14.3-14.3c0-7.9,6.4-14.3,14.3-14.3s14.3,6.4,14.3,14.3c0,0,0,0,0,0
					C39.8,79,33.5,85.4,25.6,85.4z"/>
			</g>
		</g>
	</g>
</g>
</svg>
