<?xml version="1.0" encoding="utf-8"?>
<!-- Generator: Adobe Illustrator 22.0.1, SVG Export Plug-In . SVG Version: 6.00 Build 0)  -->
<svg version="1.1" id="Layer_1" xmlns="http://www.w3.org/2000/svg" xmlns:xlink="http://www.w3.org/1999/xlink" x="0px" y="0px"
	 viewBox="0 0 101.5 166.2" style="enable-background:new 0 0 101.5 166.2;" xml:space="preserve">
<style type="text/css">
	.st0{fill:#FFFFFF;}
	.st1{fill:#FD6925;}
	.st2{enable-background:new    ;}
</style>
<title>TARGET 1 B copy 7</title>
<g id="WHITE_BG">
	<g>
		<rect y="0" class="st0" width="101.5" height="166.2"/>
	</g>
</g>
<g id="TARGETS">
	<g>
		<g>
			<path class="st1" d="M6.8,130.2v-4.4h1v4.3c-0.1,0.7,0.4,1.2,1,1.3c0.1,0,0.2,0,0.3,0c0.7,0.1,1.3-0.4,1.4-1c0-0.1,0-0.2,0-0.3
				v-4.3h1v4.4c0.1,1.1-0.8,2.1-1.9,2.1c-0.1,0-0.3,0-0.4,0c-1.1,0.2-2.1-0.5-2.4-1.5C6.8,130.6,6.8,130.4,6.8,130.2z"/>
		</g>
		<g>
			<path class="st1" d="M16.1,132.2l-2.8-4.5v4.5h-0.9v-6.4h0.9l2.8,4.5v-4.5h1v6.4H16.1z"/>
		</g>
		<g>
			<path class="st1" d="M18,132.2v-6.4h1v6.4H18z"/>
		</g>
		<g>
			<path class="st1" d="M24.6,125.8l-2,6.4h-1l-2-6.4h1l1.5,5.2l1.5-5.2L24.6,125.8z"/>
		</g>
		<g>
			<path class="st1" d="M28.8,129.3h-2.6v2H29v0.9h-3.8v-6.4H29v0.9h-2.9v1.8h2.6V129.3z"/>
		</g>
		<g>
			<path class="st1" d="M30.8,132.2h-1v-6.4H32c1.6,0,2.2,0.7,2.2,1.9c0.1,0.7-0.3,1.4-1,1.7l1.3,2.8h-1.2l-1.2-2.6h-1.3V132.2z
				 M30.8,128.7h1.3c0.9,0,1-0.5,1-1s-0.1-1-1-1h-1.3V128.7z"/>
		</g>
		<g>
			<path class="st1" d="M39.1,130.3c0,1.2-0.7,2-2.4,2c-0.6,0-1.3-0.1-1.9-0.4V131c0.6,0.3,1.2,0.4,1.8,0.4c1.2,0,1.5-0.5,1.5-1.1
				s-0.3-0.9-1.2-1c-1.5-0.2-2.2-0.6-2.2-1.8c0-0.9,0.5-1.8,2.3-1.8c0.6,0,1.2,0.1,1.7,0.3v1c-0.5-0.2-1.1-0.3-1.7-0.3
				c-1,0-1.3,0.4-1.3,1c0,0.6,0.4,0.8,1.2,0.9C38.3,128.7,39.1,129,39.1,130.3z"/>
		</g>
		<g>
			<path class="st1" d="M42.8,130.6h-2l-0.5,1.6h-1l2-6.4h1l2,6.4h-1L42.8,130.6z M41.8,127l-0.8,2.8h1.6L41.8,127z"/>
		</g>
		<g>
			<path class="st1" d="M45.8,131.3h2.8v0.9h-3.7v-6.4h1V131.3z"/>
		</g>
		<g>
			<path class="st1" d="M53.8,130.6h-2l-0.5,1.6h-1l2-6.4h1l2,6.4h-1L53.8,130.6z M52.8,127l-0.8,2.8h1.6L52.8,127z"/>
		</g>
		<g>
			<path class="st1" d="M58.1,125.7c0.5,0,1,0.1,1.5,0.3v0.9c-0.5-0.2-0.9-0.3-1.4-0.3c-1.2,0-1.7,0.8-1.7,2.4s0.5,2.4,1.7,2.4
				c0.5,0,1-0.1,1.4-0.3v0.9c-0.5,0.2-1,0.3-1.5,0.3c-1.9,0-2.6-1.2-2.6-3.3S56.2,125.7,58.1,125.7z"/>
		</g>
		<g>
			<path class="st1" d="M62.8,125.7c0.5,0,1,0.1,1.5,0.3v0.9c-0.4-0.2-0.9-0.3-1.4-0.3c-1.2,0-1.7,0.8-1.7,2.4s0.5,2.4,1.7,2.4
				c0.5,0,1-0.1,1.4-0.3v0.9c-0.5,0.2-1,0.3-1.5,0.3c-1.9,0-2.6-1.2-2.6-3.3S60.9,125.7,62.8,125.7z"/>
		</g>
		<g>
			<path class="st1" d="M68.8,129.3h-2.7v2h2.9v0.9h-3.9v-6.4h3.9v0.9h-2.9v1.8h2.7V129.3z"/>
		</g>
		<g>
			<path class="st1" d="M74.1,130.3c0,1.2-0.7,2-2.4,2c-0.6,0-1.3-0.1-1.9-0.4V131c0.6,0.3,1.2,0.4,1.8,0.4c1.2,0,1.5-0.5,1.5-1.1
				s-0.3-0.9-1.2-1c-1.6-0.2-2.2-0.6-2.2-1.8c0-0.9,0.5-1.8,2.3-1.8c0.6,0,1.2,0.1,1.7,0.3v1c-0.5-0.2-1.1-0.3-1.7-0.3
				c-1,0-1.3,0.4-1.3,1c0,0.6,0.4,0.8,1.2,0.9C73.3,128.7,74.1,129,74.1,130.3z"/>
		</g>
		<g>
			<path class="st1" d="M78.9,130.3c0,1.2-0.7,2-2.4,2c-0.6,0-1.3-0.1-1.9-0.4V131c0.6,0.3,1.2,0.4,1.8,0.4c1.1,0,1.5-0.5,1.5-1.1
				s-0.3-0.9-1.2-1c-1.6-0.2-2.2-0.6-2.2-1.8c0-0.9,0.5-1.8,2.3-1.8c0.6,0,1.2,0.1,1.7,0.3v1c-0.5-0.2-1.1-0.3-1.7-0.3
				c-1,0-1.3,0.4-1.3,1c0,0.6,0.4,0.8,1.2,0.9C78.2,128.7,78.9,129,78.9,130.3z"/>
		</g>
		<g>
			<path class="st1" d="M83.2,126.7v5.5h-1v-5.5h-1.6v-0.9h4.3v0.9H83.2z"/>
		</g>
		<g>
			<path class="st1" d="M85,129c0-1.8,0.4-3.3,2.5-3.3s2.5,1.5,2.5,3.3s-0.4,3.3-2.5,3.3S85,130.8,85,129z M86,129
				c0,1.5,0.3,2.4,1.5,2.4s1.5-0.9,1.5-2.4s-0.3-2.4-1.5-2.4S86,127.5,86,129z"/>
		</g>
		<g>
			<path class="st1" d="M7,141.2v-6.4h1v6.4H7z"/>
		</g>
		<g>
			<path class="st1" d="M12.8,141.2l-2.8-4.5v4.5H9.1v-6.4h0.9l2.8,4.5v-4.5h0.9v6.4H12.8z"/>
		</g>
		<g>
			<path class="st1" d="M18.1,138.4h-2.6v2.8h-0.9v-6.4h3.8v0.9h-2.9v1.8h2.6V138.4z"/>
		</g>
		<g>
			<path class="st1" d="M18.9,138c0-1.8,0.4-3.3,2.5-3.3s2.5,1.5,2.5,3.3s-0.4,3.3-2.5,3.3S18.9,139.8,18.9,138z M19.9,138
				c0,1.5,0.3,2.4,1.5,2.4s1.5-0.9,1.5-2.4s-0.3-2.4-1.5-2.4S19.9,136.5,19.9,138L19.9,138z"/>
		</g>
		<g>
			<path class="st1" d="M25.5,141.2h-1v-6.4h2.1c1.6,0,2.2,0.7,2.2,1.9c0.1,0.7-0.3,1.4-1,1.7l1.3,2.8H28l-1.2-2.6h-1.3V141.2z
				 M25.5,137.7h1.3c0.9,0,1-0.5,1-1s-0.1-1-1-1h-1.3V137.7z"/>
		</g>
		<g>
			<path class="st1" d="M33.1,140.3h-0.9l-1.6-3.9l0,4.8h-1v-6.4H31l1.7,4.3l1.7-4.3h1.2v6.4h-1v-4.8L33.1,140.3z"/>
		</g>
		<g>
			<path class="st1" d="M39.7,139.6h-2l-0.5,1.6h-1l2-6.4h1l2,6.4h-1L39.7,139.6z M38.7,136l-0.8,2.8h1.6L38.7,136z"/>
		</g>
		<g>
			<path class="st1" d="M43.2,135.7v5.5h-1v-5.5h-1.6v-0.9h4.3v0.9H43.2z"/>
		</g>
		<g>
			<path class="st1" d="M45.5,141.2v-6.4h1v6.4H45.5z"/>
		</g>
		<g>
			<path class="st1" d="M47.4,138c0-1.8,0.4-3.3,2.5-3.3s2.5,1.5,2.5,3.3s-0.4,3.3-2.5,3.3S47.4,139.8,47.4,138z M48.4,138
				c0,1.5,0.3,2.4,1.5,2.4s1.5-0.9,1.5-2.4s-0.3-2.4-1.5-2.4S48.3,136.5,48.4,138L48.4,138z"/>
		</g>
		<g>
			<path class="st1" d="M56.7,141.2l-2.8-4.5v4.5H53v-6.4h0.9l2.8,4.5v-4.5h0.9v6.4H56.7z"/>
		</g>
		<g>
			<path class="st1" d="M63.1,139.6h-2l-0.5,1.6h-1l2-6.4h1l2,6.4h-1L63.1,139.6z M62.1,136l-0.8,2.8h1.6L62.1,136z"/>
		</g>
		<g>
			<path class="st1" d="M68.8,141.2l-2.8-4.5v4.5h-1v-6.4h1l2.8,4.5v-4.5h0.9v6.4H68.8z"/>
		</g>
		<g>
			<path class="st1" d="M70.6,141.2v-6.4h1.9c2.1,0,2.7,1.4,2.7,3.2s-0.6,3.2-2.7,3.2H70.6z M71.6,140.3h1c1.3,0,1.7-0.9,1.7-2.3
				s-0.4-2.3-1.7-2.3h-1V140.3z"/>
		</g>
		<g>
			<path class="st1" d="M9.4,143.7c0.5,0,1,0.1,1.5,0.3v0.9c-0.5-0.2-0.9-0.3-1.4-0.3c-1.2,0-1.7,0.8-1.7,2.4s0.5,2.4,1.7,2.4
				c0.5,0,1-0.1,1.4-0.3v0.9c-0.5,0.2-1,0.3-1.5,0.3c-1.9,0-2.6-1.2-2.6-3.3S7.5,143.7,9.4,143.7z"/>
		</g>
		<g>
			<path class="st1" d="M11.6,147c0-1.8,0.4-3.3,2.5-3.3s2.4,1.5,2.4,3.3s-0.4,3.3-2.4,3.3S11.6,148.8,11.6,147z M12.6,147
				c0,1.5,0.3,2.4,1.5,2.4s1.5-0.9,1.5-2.4s-0.3-2.4-1.5-2.4S12.6,145.5,12.6,147L12.6,147z"/>
		</g>
		<g>
			<path class="st1" d="M20.6,149.3h-0.9l-1.6-3.9l0,4.8h-1v-6.4h1.2l1.7,4.3l1.7-4.3h1.2v6.4h-1v-4.8L20.6,149.3z"/>
		</g>
		<g>
			<path class="st1" d="M27.5,149.3h-0.9l-1.6-3.9v4.8h-1v-6.4h1.2l1.8,4.3l1.7-4.3H30v6.4h-1v-4.8L27.5,149.3z"/>
		</g>
		<g>
			<path class="st1" d="M30.9,148.2v-4.4h1v4.3c-0.1,0.7,0.4,1.3,1,1.3c0.1,0,0.2,0,0.3,0c0.6,0.1,1.3-0.3,1.4-1c0-0.1,0-0.2,0-0.3
				v-4.3h1v4.4c0,1.1-0.8,2.1-2,2.1c-0.1,0-0.2,0-0.3,0c-1.1,0.2-2.1-0.5-2.3-1.6C30.9,148.5,30.9,148.4,30.9,148.2z"/>
		</g>
		<g>
			<path class="st1" d="M40.1,150.2l-2.8-4.5v4.5h-0.9v-6.4h0.9l2.8,4.5v-4.5h1v6.4H40.1z"/>
		</g>
		<g>
			<path class="st1" d="M42.1,150.2v-6.4h1v6.4H42.1z"/>
		</g>
		<g>
			<path class="st1" d="M46.7,143.7c0.5,0,1,0.1,1.5,0.3v0.9c-0.5-0.2-0.9-0.3-1.4-0.3c-1.2,0-1.7,0.8-1.7,2.4s0.5,2.4,1.7,2.4
				c0.5,0,1-0.1,1.4-0.3v0.9c-0.5,0.2-1,0.3-1.5,0.3c-1.9,0-2.6-1.2-2.6-3.3S44.8,143.7,46.7,143.7z"/>
		</g>
		<g>
			<path class="st1" d="M52,148.6h-2l-0.5,1.6h-1l2-6.4h1l2,6.4h-1L52,148.6z M51,145l-0.8,2.8h1.6L51,145z"/>
		</g>
		<g>
			<path class="st1" d="M55.5,144.7v5.5h-1v-5.5h-1.7v-0.9h4.3v0.9H55.5z"/>
		</g>
		<g>
			<path class="st1" d="M58,150.2v-6.4h1v6.4H58z"/>
		</g>
		<g>
			<path class="st1" d="M60,147c0-1.8,0.4-3.3,2.5-3.3c2,0,2.4,1.5,2.4,3.3s-0.4,3.3-2.5,3.3S60,148.8,60,147z M61,147
				c0,1.5,0.3,2.4,1.5,2.4s1.5-0.9,1.5-2.4s-0.3-2.4-1.5-2.4S60.9,145.5,61,147L61,147z"/>
		</g>
		<g>
			<path class="st1" d="M69.4,150.2l-2.8-4.5v4.5h-1v-6.4h0.9l2.8,4.5v-4.5h1v6.4H69.4z"/>
		</g>
		<g>
			<path class="st1" d="M75.4,148.3c0,1.2-0.7,2-2.4,2c-0.6,0-1.3-0.1-1.9-0.4V149c0.6,0.3,1.2,0.4,1.8,0.4c1.2,0,1.5-0.5,1.5-1.1
				s-0.3-0.9-1.2-1c-1.6-0.2-2.2-0.6-2.2-1.8c0-0.9,0.5-1.8,2.3-1.8c0.6,0,1.2,0.1,1.7,0.3v1c-0.5-0.2-1.1-0.3-1.7-0.3
				c-1,0-1.3,0.4-1.3,1s0.4,0.8,1.2,0.9C74.6,146.7,75.4,147,75.4,148.3z"/>
		</g>
		<g>
			<path class="st1" d="M9.2,153.7v5.5h-1v-5.5H6.6v-0.9h4.3v0.9H9.2z"/>
		</g>
		<g>
			<path class="st1" d="M15.1,156.3h-2.7v2h2.9v0.9h-3.9v-6.4h3.9v0.9h-2.9v1.8h2.6L15.1,156.3z"/>
		</g>
		<g>
			<path class="st1" d="M18.7,152.7c0.5,0,1,0.1,1.5,0.3v0.9c-0.5-0.2-0.9-0.3-1.4-0.3c-1.2,0-1.7,0.8-1.7,2.4s0.5,2.4,1.7,2.4
				c0.5,0,1-0.1,1.4-0.3v0.9c-0.5,0.2-1,0.3-1.5,0.3c-1.9,0-2.6-1.2-2.6-3.3S16.8,152.7,18.7,152.7z"/>
		</g>
		<g>
			<path class="st1" d="M24.6,159.2v-2.9H22v2.9h-1v-6.4h1v2.6h2.6v-2.6h1v6.4H24.6z"/>
		</g>
		<g>
			<path class="st1" d="M30.1,159.2l-2.8-4.5v4.5h-1v-6.4h0.9l2.8,4.5v-4.5H31v6.4H30.1z"/>
		</g>
		<g>
			<path class="st1" d="M31.8,156c0-1.8,0.4-3.3,2.5-3.3s2.5,1.5,2.5,3.3s-0.4,3.3-2.5,3.3S31.8,157.8,31.8,156z M32.8,156
				c0,1.5,0.3,2.4,1.5,2.4s1.5-0.9,1.5-2.4s-0.3-2.4-1.5-2.4S32.7,154.5,32.8,156L32.8,156z"/>
		</g>
		<g>
			<path class="st1" d="M38.4,158.3h2.8v0.9h-3.7v-6.4h1L38.4,158.3z"/>
		</g>
		<g>
			<path class="st1" d="M41.1,156c0-1.8,0.4-3.3,2.5-3.3s2.5,1.5,2.5,3.3s-0.4,3.3-2.5,3.3S41.1,157.8,41.1,156z M42.1,156
				c0,1.5,0.3,2.4,1.5,2.4s1.5-0.9,1.5-2.4s-0.3-2.4-1.5-2.4S42.1,154.5,42.1,156L42.1,156z"/>
		</g>
		<g>
			<path class="st1" d="M46.7,156c0-2,0.7-3.3,2.6-3.3c0.6,0,1.3,0.1,1.8,0.3v1c-0.5-0.2-1.1-0.4-1.7-0.4c-1.3,0-1.8,0.9-1.8,2.4
				s0.5,2.4,1.8,2.4c0.3,0,0.6,0,0.9-0.1v-1.7h-1.1v-0.9h2.1v3.2c-0.6,0.3-1.3,0.4-2,0.4C47.4,159.3,46.7,158,46.7,156z"/>
		</g>
		<g>
			<path class="st1" d="M54.8,156.6v2.6h-1v-2.6l-2.2-3.8h1.1l1.6,3l1.6-3h1.1L54.8,156.6z"/>
		</g>
	</g>
	<g>
		<rect x="3.3" y="24" class="st1" width="94.8" height="94.8"/>
	</g>
	<g>
		<path class="st1" d="M98.2,20.7H3.3V3.3h94.8V20.7z M4.3,19.7h92.8V4.3H4.3L4.3,19.7z"/>
	</g>
	<g class="st2">
		<path class="st1" d="M6.7,6.9h4.5v1.4H9.9v8.8H8.1V8.3H6.7V6.9z"/>
	</g>
	<g class="st2">
		<path class="st1" d="M11.2,17.1l1.9-10.2h1.9L17,17.1h-1.8l-0.3-1.9h-1.8l-0.3,1.9H11.2z M13.3,13.9h1.4L14,9.8h0L13.3,13.9z"/>
	</g>
	<g class="st2">
		<path class="st1" d="M19.6,12.4v4.7h-1.7V6.9h2.5c1.7,0,2.4,0.9,2.4,2.3v1.3c0,1.1-0.4,1.7-1.4,2l1.6,4.6h-1.8L19.6,12.4z
			 M19.6,8.3v3.2h0.6c0.6,0,0.8-0.3,0.8-0.8V9.2c0-0.6-0.3-0.8-0.8-0.8H19.6z"/>
	</g>
	<g class="st2">
		<path class="st1" d="M26.4,11.7h2.4v5.4h-1.2V16c-0.2,0.8-0.7,1.2-1.6,1.2c-1.5,0-2.1-1.2-2.1-2.7V9.6c0-1.6,0.8-2.7,2.6-2.7
			c1.9,0,2.4,1.1,2.4,2.6v0.9h-1.6v-1c0-0.6-0.2-1-0.9-1c-0.6,0-0.9,0.4-0.9,1v5.5c0,0.6,0.3,1,0.8,1c0.6,0,0.8-0.3,0.8-1V13h-0.8
			V11.7z"/>
	</g>
	<g class="st2">
		<path class="st1" d="M30.2,6.9h4.1v1.4h-2.4v2.9h1.7v1.4h-1.7v3.1h2.4v1.4h-4.1V6.9z"/>
	</g>
	<g class="st2">
		<path class="st1" d="M35.1,6.9h4.5v1.4h-1.4v8.8h-1.7V8.3h-1.4V6.9z"/>
	</g>
	<g class="st2">
		<path class="st1" d="M89.4,14.5V9.6c0-1.6,0.8-2.7,2.5-2.7c1.9,0,2.4,1.1,2.4,2.6v1.2h-1.6V9.2c0-0.6-0.2-1-0.8-1
			c-0.6,0-0.9,0.4-0.9,1v5.5c0,0.6,0.3,1,0.9,1c0.6,0,0.8-0.4,0.8-1v-1.9h1.6v1.8c0,1.5-0.6,2.5-2.4,2.5
			C90.2,17.2,89.4,16.1,89.4,14.5z"/>
	</g>
	<g class="st2">
		<path class="st1" d="M83.2,9.5v4.9c0,1.6-0.7,2.7-2.5,2.7c-1.9,0-2.4-1-2.4-2.5v-0.5h1.6v0.7c0,0.6,0.2,1,0.8,1
			c0.6,0,0.9-0.4,0.9-1v-2.2h0c-0.3,0.5-0.7,0.8-1.4,0.8c-1.2,0-1.9-0.8-1.9-2.5V9.4c0-1.6,0.7-2.6,2.5-2.6
			C82.5,6.8,83.2,7.9,83.2,9.5z M79.8,9.2V11c0,0.7,0.2,1,0.8,1c0.5,0,0.8-0.4,0.8-0.9V9.2c0-0.6-0.2-1-0.8-1
			C80.1,8.2,79.8,8.6,79.8,9.2z"/>
	</g>
	<g>
		<polygon class="st1" points="85.4,9.9 85.4,14.1 87.6,12 		"/>
	</g>
	<g>
		<path class="st1" d="M98.2,162.9h-95v-40.7h95V162.9z M4.2,161.9h93v-38.7h-93V161.9z"/>
	</g>
	<g>
		<g>
			<g>
				<path class="st0" d="M45.7,38.5c0-0.4-0.3-0.8-0.8-0.8H18.4c-0.4,0-0.8,0.3-0.8,0.8v16.8h28.1V38.5z M44.5,54.2H18.9V38.9h25.6
					V54.2z"/>
			</g>
			<g>
				<path class="st0" d="M45.7,55.9h-28l-2.3,1.8v0.8c0,0.3,0.5,0.3,0.5,0.3h31.7c0.4,0,0.4-0.4,0.4-0.4v-0.8L45.7,55.9z M34,58
					h-4.7v-0.5H34V58z"/>
			</g>
		</g>
		<g>
			<path class="st0" d="M83.9,37.3H72.1c-0.4,0-0.8,0.4-0.8,0.8c0,0,0,0,0,0v21.2c0,0.4,0.4,0.8,0.8,0.8l0,0h11.8
				c0.4,0,0.8-0.4,0.8-0.8c0,0,0,0,0,0V38.1C84.7,37.7,84.3,37.3,83.9,37.3L83.9,37.3z M78,59c-0.7,0-1.2-0.5-1.2-1.2
				s0.5-1.2,1.2-1.2c0.7,0,1.2,0.5,1.2,1.2c0,0,0,0,0,0C79.2,58.5,78.7,59,78,59z M83.6,54.8H72.4V38.5h11.2L83.6,54.8z"/>
		</g>
		<g>
			<g>
				<path class="st0" d="M53.9,44.3c0.4,0.8,0.6,1.6,0.6,2.5c0,1-0.3,2-0.7,2.9l1.2,0.8c0.7-1.1,1-2.4,1-3.7c0-1.1-0.3-2.3-0.8-3.3
					L53.9,44.3z"/>
			</g>
			<g>
				<path class="st0" d="M57.3,42c1.7,3.1,1.6,6.9-0.1,9.9l1.2,0.8c1.1-1.8,1.6-3.9,1.6-6c0-1.9-0.5-3.9-1.5-5.5L57.3,42z"/>
			</g>
			<g>
				<path class="st0" d="M61.9,38.9l-1.2,0.8c2.6,4.5,2.6,10-0.1,14.5l1.2,0.8C64.8,50,64.9,43.9,61.9,38.9z"/>
			</g>
		</g>
		<g>
			<g>
				<g>
					<path class="st0" d="M78.4,74.1c1.8,0,3.2-1.4,3.2-3.2c0-1.8-1.4-3.2-3.2-3.2c-1.8,0-3.2,1.4-3.2,3.2c0,0,0,0,0,0
						C75.2,72.7,76.7,74.1,78.4,74.1z"/>
				</g>
				<g>
					<path class="st0" d="M82.2,75.3h-0.2h-7h-0.2c-2.2,0.2-3.9,2.1-3.9,4.3v8.9c0.1,0.7,0.7,1.2,1.4,1.1c0.6-0.1,1.1-0.5,1.1-1.1
						v-7.7c0-0.3,0.1-0.7,0.6-0.7c0.4,0,0.4,0.4,0.4,0.6v22.9c0,1,0.8,1.8,1.8,1.8s1.8-0.8,1.8-1.8V90.5c0-0.3,0.2-0.5,0.4-0.5
						c0,0,0,0,0.1,0l0,0c0.3,0,0.5,0.2,0.5,0.4c0,0,0,0.1,0,0.1v13.2c0,1,0.8,1.8,1.8,1.8s1.8-0.8,1.8-1.8V80.8
						c0-0.2,0.1-0.6,0.5-0.6s0.6,0.4,0.6,0.7v7.7c0,0.7,0.6,1.2,1.2,1.2s1.2-0.6,1.2-1.2v-8.9C86.1,77.4,84.4,75.5,82.2,75.3z"/>
				</g>
			</g>
			<g>
				<g>
					<path class="st0" d="M41.9,74.6c1.7,0,3.2-1.4,3.2-3.1s-1.4-3.2-3.1-3.2c-1.7,0-3.2,1.4-3.2,3.1c0,0,0,0,0,0
						C38.8,73.2,40.2,74.6,41.9,74.6z"/>
				</g>
				<g>
					<path class="st0" d="M50.9,87.1l-2.6-8.5c0,0-0.9-2.5-3-2.5h-6.7c-2.1,0-3,2.5-3,2.5L33,87.1c0,0-0.5,1.6,0.9,2
						s1.7-1.1,1.7-1.1l2.1-7.1c0,0,0.1-0.5,0.5-0.4s0.2,0.7,0.2,0.7l-3.7,13.3h3.4v9.6c0,0.9,0.7,1.6,1.6,1.6c0.9,0,1.6-0.7,1.6-1.6
						v-9.6h0.9v9.6c0,0.9,0.7,1.6,1.6,1.6c0.9,0,1.6-0.7,1.6-1.6v-9.6h3.4l-3.7-13.3c0,0-0.2-0.6,0.3-0.7s0.5,0.4,0.5,0.4l2.1,7.1
						c0,0,0.4,1.5,1.7,1.1S50.9,87.1,50.9,87.1z"/>
				</g>
			</g>
			<g>
				<g>
					<path class="st0" d="M68.3,90.2l-2.2-7.1c0,0-0.8-2.1-2.5-2.1h-5.5c-1.7,0-2.5,2.1-2.5,2.1l-2.2,7.1c0,0-0.4,1.3,0.7,1.6
						s1.4-0.9,1.4-0.9l1.8-5.9c0,0,0.1-0.4,0.4-0.3s0.2,0.6,0.2,0.6l-3,11h2.8v7.9c0,0.8,0.6,1.4,1.4,1.4s1.4-0.6,1.4-1.4v-7.8h0.8
						v7.9c0,0.8,0.6,1.4,1.4,1.4c0.7,0,1.4-0.6,1.4-1.4v-7.9h2.8l-3-11c0,0-0.1-0.5,0.2-0.6c0.3-0.1,0.4,0.3,0.4,0.3l1.8,5.9
						c0,0,0.3,1.3,1.4,0.9S68.3,90.2,68.3,90.2z"/>
				</g>
				<g>
					<path class="st0" d="M56.3,76.8c0.1-0.2,0.3-0.6,1.2-0.8c0.2,0,0.3-0.1,0.5-0.1c0.1-0.3,0.3-0.5,0.5-0.8c0-0.1,0-0.1,0-0.2
						c0-0.4-0.5-0.9-1.3-0.4c-1.1,0.5-1,2.1-1,2.1S56.3,76.9,56.3,76.8z"/>
				</g>
				<g>
					<path class="st0" d="M64,75.9c0.2,0.1,0.3,0.1,0.5,0.2c0.9,0.1,1.1,0.5,1.2,0.8c0,0.1,0,0,0.1-0.2s0.1-1.6-1-2.1
						c-0.9-0.4-1.3,0.1-1.3,0.4c0,0.1,0,0.1,0,0.2C63.7,75.4,63.8,75.7,64,75.9z"/>
				</g>
				<g>
					<path class="st0" d="M61,80.5c1.7,0,3-1.3,3-3s-1.3-3-3-3s-3,1.3-3,3c0,1.6,1.3,3,2.9,3C60.9,80.5,61,80.5,61,80.5z"/>
				</g>
			</g>
			<g>
				<g>
					<path class="st0" d="M29.7,83.9v6.6c0,0.6-0.5,1.1-1.1,1.1c-0.6,0-1.1-0.5-1.1-1.1v-6.8c0-0.3-0.1-0.6-0.5-0.6
						s-0.4,0.3-0.4,0.6V104c0,0.9-0.7,1.6-1.6,1.6s-1.6-0.7-1.6-1.6V92.2c0-0.2-0.1-0.4-0.4-0.5c0,0,0,0-0.1,0l0,0
						c-0.2,0-0.4,0.2-0.5,0.4c0,0,0,0,0,0.1V104c0,0.9-0.7,1.6-1.6,1.6s-1.6-0.7-1.6-1.6V83.6c0-0.2-0.1-0.6-0.4-0.6
						s-0.5,0.3-0.5,0.6v6.8c0.1,0.6-0.4,1.2-1,1.2c-0.6,0.1-1.2-0.4-1.2-1c0-0.1,0-0.1,0-0.2v-7.9c0-2,1.5-3.6,3.5-3.8h0.2H26h0.2
						c2,0.2,3.5,1.8,3.5,3.8L29.7,83.9L29.7,83.9z"/>
				</g>
				<g>
					<g>
						<path class="st0" d="M24.8,74.4c-0.2-0.2-0.5-0.4-0.9-0.2s-0.4,0.2-0.7,0.4c-0.6,0.3-1.2,0.4-1.8,0.5
							c-0.5,0.1-0.9,0.1-1.4,0.1c0.1,1.6,1.5,2.7,3.1,2.6c1.3-0.1,2.4-1.2,2.6-2.5C25.4,75,25.1,74.7,24.8,74.4z"/>
					</g>
					<g>
						<path class="st0" d="M21.3,74.5c0.6-0.1,1.1-0.3,1.6-0.5c0.3-0.1,0.6-0.3,0.9-0.4c0.2-0.1,0.4-0.1,0.6-0.1
							c0.1,0,0.2,0.1,0.2,0.2l0.2,0.2c0,0,0.1,0.1,0.8,0.6c0.1,0.1,0.1,0.1,0.2,0.1s0.1-0.5,0-0.7c-0.1-0.7-0.4-1.4-0.9-2
							c-0.1-0.2-0.4-0.3-0.6-0.3c-0.4,0.1-0.4-0.2-0.6-0.3c-0.8-0.3-1.8-0.2-2.5,0.4c-0.8,0.7-1.5,1.6-1.9,2.6
							c-0.1,0.2,0.2,0.4,0.5,0.4C20.4,74.6,20.9,74.6,21.3,74.5z"/>
					</g>
				</g>
			</g>
		</g>
	</g>
</g>
</svg>
