<?xml version="1.0" encoding="utf-8"?>
<!-- Generator: Adobe Illustrator 22.0.1, SVG Export Plug-In . SVG Version: 6.00 Build 0)  -->
<svg version="1.1" id="Layer_1" xmlns="http://www.w3.org/2000/svg" xmlns:xlink="http://www.w3.org/1999/xlink" x="0px" y="0px"
	 viewBox="0 0 101.5 184.1" style="enable-background:new 0 0 101.5 184.1;" xml:space="preserve">
<style type="text/css">
	.st0{fill:#FFFFFF;}
	.st1{fill:#FD6925;}
	.st2{enable-background:new    ;}
</style>
<title>TARGET 1 B copy 5</title>
<g id="WHITE_BG">
	<g>
		<rect y="0" class="st0" width="101.5" height="184.2"/>
	</g>
</g>
<g id="TARGETS">
	<g>
		<g>
			<path class="st1" d="M10.4,129.4H7.8v2.8h-1v-6.4h3.9v0.9H7.8v1.8h2.6V129.4z"/>
		</g>
		<g>
			<path class="st1" d="M14,130.6h-2l-0.4,1.6h-1l2-6.4h1l2,6.4h-1L14,130.6z M13,127l-0.8,2.8h1.6L13,127z"/>
		</g>
		<g>
			<path class="st1" d="M18.4,125.7c0.5,0,1,0.1,1.5,0.3v0.9c-0.5-0.2-0.9-0.3-1.4-0.3c-1.2,0-1.7,0.8-1.7,2.4s0.5,2.4,1.7,2.4
				c0.5,0,1-0.1,1.4-0.3v0.9c-0.5,0.2-1,0.3-1.5,0.3c-1.9,0-2.6-1.2-2.6-3.3S16.5,125.7,18.4,125.7z"/>
		</g>
		<g>
			<path class="st1" d="M20.8,132.2v-6.4h1v6.4H20.8z"/>
		</g>
		<g>
			<path class="st1" d="M23.8,131.3h2.8v0.9h-3.7v-6.4h1V131.3z"/>
		</g>
		<g>
			<path class="st1" d="M27.2,132.2v-6.4h1v6.4H27.2z"/>
		</g>
		<g>
			<path class="st1" d="M31.5,126.7v5.5h-1v-5.5h-1.7v-0.9h4.3v0.9H31.5z"/>
		</g>
		<g>
			<path class="st1" d="M36.3,130.6h-2l-0.5,1.6h-1l2-6.4h1l2,6.4h-1L36.3,130.6z M35.3,127l-0.8,2.8h1.6L35.3,127z"/>
		</g>
		<g>
			<path class="st1" d="M39.8,126.7v5.5h-1v-5.5h-1.7v-0.9h4.3v0.9H39.8z"/>
		</g>
		<g>
			<path class="st1" d="M45.6,129.3h-2.7v2h2.9v0.9H42v-6.4h3.9v0.9h-2.9v1.8h2.7V129.3z"/>
		</g>
		<g>
			<path class="st1" d="M11.1,139.3c0,1.2-0.7,2-2.4,2c-0.6,0-1.3-0.1-1.9-0.4V140c0.6,0.3,1.2,0.4,1.8,0.4c1.1,0,1.5-0.5,1.5-1.1
				s-0.3-0.9-1.2-1c-1.6-0.2-2.2-0.6-2.2-1.8c0-0.9,0.5-1.8,2.3-1.8c0.6,0,1.2,0.1,1.7,0.3v1c-0.5-0.2-1.1-0.3-1.7-0.3
				c-1,0-1.3,0.4-1.3,1s0.4,0.8,1.2,0.9C10.3,137.7,11.1,138,11.1,139.3z"/>
		</g>
		<g>
			<path class="st1" d="M11.8,139.2v-4.4h1v4.3c-0.1,0.7,0.4,1.2,1,1.3c0.1,0,0.2,0,0.3,0c0.7,0.1,1.3-0.4,1.4-1c0-0.1,0-0.2,0-0.3
				v-4.3h0.9v4.4c0.1,1.1-0.8,2.1-1.9,2.1c-0.1,0-0.3,0-0.4,0c-1.1,0.2-2.1-0.5-2.3-1.6C11.8,139.5,11.8,139.4,11.8,139.2z"/>
		</g>
		<g>
			<path class="st1" d="M21.4,139.3c0,1.2-0.7,2-2.4,2c-0.6,0-1.3-0.1-1.9-0.4V140c0.6,0.3,1.2,0.4,1.8,0.4c1.1,0,1.5-0.5,1.5-1.1
				s-0.3-0.9-1.2-1c-1.5-0.2-2.2-0.6-2.2-1.8c0-0.9,0.5-1.8,2.3-1.8c0.6,0,1.2,0.1,1.7,0.3v1c-0.5-0.2-1.1-0.3-1.7-0.3
				c-1,0-1.3,0.4-1.3,1s0.4,0.8,1.2,0.9C20.7,137.7,21.4,138,21.4,139.3z"/>
		</g>
		<g>
			<path class="st1" d="M24.2,135.7v5.5h-1v-5.5h-1.7v-0.9h4.3v0.9H24.2z"/>
		</g>
		<g>
			<path class="st1" d="M28.9,139.6h-2l-0.5,1.6h-1l2-6.4h1l2,6.4h-1L28.9,139.6z M27.9,136l-0.8,2.8h1.6L27.9,136z"/>
		</g>
		<g>
			<path class="st1" d="M31.1,141.2v-6.4H32v6.4H31.1z"/>
		</g>
		<g>
			<path class="st1" d="M36.8,141.2l-2.8-4.5v4.5h-0.9v-6.4H34l2.8,4.5v-4.5h0.9v6.4H36.8z"/>
		</g>
		<g>
			<path class="st1" d="M41.7,139.6h-2l-0.5,1.6h-1l2-6.4h1l2,6.4h-1L41.7,139.6z M40.7,136l-0.8,2.8h1.6L40.7,136z"/>
		</g>
		<g>
			<path class="st1" d="M43.7,134.8h2.2c1.5,0,2,0.8,2,1.7c0,0.5-0.3,1-0.8,1.3c0.6,0.2,1.1,0.8,1,1.5c0,1.1-0.5,1.9-2.2,1.9h-2.2
				V134.8z M45.9,135.7h-1.2v1.8h1.2c0.8,0,1-0.5,1-0.9S46.7,135.7,45.9,135.7z M44.7,140.3h1.3c0.9,0,1.1-0.5,1.1-1s-0.3-1-1.1-1
				h-1.3L44.7,140.3z"/>
		</g>
		<g>
			<path class="st1" d="M49.7,140.3h2.8v0.9h-3.7v-6.4h1L49.7,140.3z"/>
		</g>
		<g>
			<path class="st1" d="M56.6,138.3H54v2h2.9v0.9H53v-6.4h3.9v0.9H54v1.8h2.7L56.6,138.3z"/>
		</g>
		<g>
			<path class="st1" d="M7,150.2v-6.4h1v6.4H7z"/>
		</g>
		<g>
			<path class="st1" d="M12.8,150.2l-2.8-4.5v4.5H9.1v-6.4h0.9l2.8,4.5v-4.5h0.9v6.4H12.8z"/>
		</g>
		<g>
			<path class="st1" d="M18.1,147.4h-2.6v2.8h-0.9v-6.4h3.8v0.9h-2.9v1.8h2.6V147.4z"/>
		</g>
		<g>
			<path class="st1" d="M20.1,150.2h-1v-6.4h2.1c1.6,0,2.2,0.7,2.2,1.9c0.1,0.7-0.3,1.4-1,1.7l1.3,2.8h-1.1l-1.2-2.6h-1.3V150.2z
				 M20.1,146.7h1.3c0.9,0,1-0.5,1-1s-0.1-1-1-1h-1.3V146.7z"/>
		</g>
		<g>
			<path class="st1" d="M27.4,148.6h-2l-0.5,1.6h-1l2-6.4h1l2,6.4h-1L27.4,148.6z M26.4,145l-0.8,2.8h1.6L26.4,145z"/>
		</g>
		<g>
			<path class="st1" d="M33.4,148.3c0,1.2-0.7,2-2.4,2c-0.6,0-1.3-0.1-1.9-0.4V149c0.6,0.3,1.2,0.4,1.8,0.4c1.1,0,1.5-0.5,1.5-1.1
				s-0.3-0.9-1.1-1c-1.6-0.2-2.2-0.6-2.2-1.8c0-0.9,0.5-1.8,2.3-1.8c0.6,0,1.2,0.1,1.7,0.3v1c-0.5-0.2-1.1-0.3-1.7-0.3
				c-1,0-1.3,0.4-1.3,1s0.4,0.8,1.2,0.9C32.6,146.7,33.4,147,33.4,148.3z"/>
		</g>
		<g>
			<path class="st1" d="M36.3,144.7v5.5h-1v-5.5h-1.6v-0.9h4.3v0.9H36.3z"/>
		</g>
		<g>
			<path class="st1" d="M39.5,150.2h-1v-6.4h2.1c1.7,0,2.2,0.7,2.2,1.9c0.1,0.7-0.3,1.4-1,1.7l1.3,2.8H42l-1.2-2.6h-1.3V150.2z
				 M39.5,146.7h1.2c0.9,0,1-0.5,1-1s-0.1-1-1-1h-1.2V146.7z"/>
		</g>
		<g>
			<path class="st1" d="M43.7,148.2v-4.4h1v4.3c0,0.8,0.6,1.4,1.4,1.4s1.4-0.6,1.4-1.4v-4.3h1v4.4c0.1,1.1-0.8,2.1-1.9,2.1
				c-0.1,0-0.3,0-0.4,0c-1.1,0.2-2.2-0.6-2.3-1.7C43.7,148.5,43.7,148.3,43.7,148.2z"/>
		</g>
		<g>
			<path class="st1" d="M51.7,143.7c0.5,0,1,0.1,1.5,0.3v0.9c-0.5-0.2-0.9-0.3-1.4-0.3c-1.2,0-1.7,0.8-1.7,2.4s0.5,2.4,1.7,2.4
				c0.5,0,1-0.1,1.4-0.3v0.9c-0.5,0.2-1,0.3-1.5,0.3c-1.9,0-2.6-1.2-2.6-3.3S49.8,143.7,51.7,143.7z"/>
		</g>
		<g>
			<path class="st1" d="M56.2,144.7v5.5h-1v-5.5h-1.6v-0.9h4.3v0.9H56.2z"/>
		</g>
		<g>
			<path class="st1" d="M58.5,148.2v-4.4h1v4.3c0,0.8,0.6,1.4,1.4,1.4s1.4-0.6,1.4-1.4v-4.3h1v4.4c-0.1,1.3-1.3,2.2-2.6,2.1
				C59.5,150.1,58.7,149.3,58.5,148.2L58.5,148.2z"/>
		</g>
		<g>
			<path class="st1" d="M65,150.2h-1v-6.4h2.1c1.7,0,2.2,0.7,2.2,1.9c0.1,0.7-0.3,1.4-1,1.7l1.3,2.8h-1.1l-1.2-2.6H65V150.2z
				 M65,146.7h1.3c0.9,0,1-0.5,1-1s-0.1-1-1-1H65V146.7z"/>
		</g>
		<g>
			<path class="st1" d="M72.9,147.3h-2.7v2h2.9v0.9h-3.9v-6.4h3.9v0.9h-2.9v1.8h2.7V147.3z"/>
		</g>
		<g>
			<path class="st1" d="M6.9,159.2v-6.4h1.9c2.1,0,2.7,1.4,2.7,3.2s-0.6,3.2-2.7,3.2H6.9z M7.9,158.3h1c1.3,0,1.7-0.9,1.7-2.3
				s-0.4-2.3-1.7-2.3h-1L7.9,158.3z"/>
		</g>
		<g>
			<path class="st1" d="M15.8,156.3h-2.7v2h2.9v0.9h-3.9v-6.4h3.9v0.9h-2.9v1.8h2.7L15.8,156.3z"/>
		</g>
		<g>
			<path class="st1" d="M21.5,152.8l-2,6.4h-1l-2-6.4h1L19,158l1.5-5.2L21.5,152.8z"/>
		</g>
		<g>
			<path class="st1" d="M25.6,156.3H23v2h2.9v0.9H22v-6.4h3.9v0.9H23v1.8h2.6L25.6,156.3z"/>
		</g>
		<g>
			<path class="st1" d="M27.7,158.3h2.8v0.9h-3.7v-6.4h1L27.7,158.3z"/>
		</g>
		<g>
			<path class="st1" d="M30.5,156c0-1.8,0.4-3.3,2.5-3.3s2.5,1.5,2.5,3.3s-0.4,3.3-2.5,3.3S30.5,157.8,30.5,156z M31.5,156
				c0,1.5,0.3,2.4,1.5,2.4c1.2,0,1.5-0.9,1.5-2.4s-0.3-2.4-1.5-2.4S31.5,154.5,31.5,156L31.5,156z"/>
		</g>
		<g>
			<path class="st1" d="M37.1,159.2h-1v-6.4h2c1.6,0,2.2,0.9,2.2,2s-0.6,2-2.2,2H37L37.1,159.2z M37.1,155.9h1.1
				c0.6,0.1,1.2-0.4,1.2-1s-0.4-1.2-1-1.2c-0.1,0-0.1,0-0.2,0h-1.1V155.9z"/>
		</g>
		<g>
			<path class="st1" d="M44.4,158.3h-0.9l-1.6-3.9v4.8H41v-6.4h1.2l1.7,4.3l1.7-4.3h1.2v6.4h-1l0-4.8L44.4,158.3z"/>
		</g>
		<g>
			<path class="st1" d="M51.4,156.3h-2.6v2h2.9v0.9h-3.9v-6.4h3.9v0.9h-2.9v1.8h2.7L51.4,156.3z"/>
		</g>
		<g>
			<path class="st1" d="M56.2,159.2l-2.8-4.5v4.5h-0.9v-6.4h0.9l2.8,4.5v-4.5h0.9v6.4H56.2z"/>
		</g>
		<g>
			<path class="st1" d="M60.2,153.7v5.5h-1v-5.5h-1.6v-0.9h4.3v0.9H60.2z"/>
		</g>
		<g>
			<path class="st1" d="M67.2,156.4h-2.6v2.8h-1v-6.4h3.8v0.9h-2.8v1.8h2.6V156.4z"/>
		</g>
		<g>
			<path class="st1" d="M68,156c0-1.8,0.4-3.3,2.4-3.3s2.5,1.5,2.5,3.3s-0.4,3.3-2.5,3.3S68,157.8,68,156z M69,156
				c0,1.5,0.3,2.4,1.5,2.4s1.5-0.9,1.5-2.4s-0.3-2.4-1.5-2.4S68.9,154.5,69,156L69,156z"/>
		</g>
		<g>
			<path class="st1" d="M74.6,159.2h-1v-6.4h2.1c1.7,0,2.2,0.7,2.2,1.9c0.1,0.7-0.3,1.4-1,1.7l1.3,2.8H77l-1.2-2.6h-1.3V159.2z
				 M74.6,155.7h1.3c0.9,0,1-0.5,1-1s-0.1-1-1-1h-1.3V155.7z"/>
		</g>
		<g>
			<path class="st1" d="M6.9,168.2v-6.4h1.9c2.1,0,2.7,1.4,2.7,3.2s-0.6,3.2-2.7,3.2H6.9z M7.9,167.3h1c1.3,0,1.7-0.9,1.7-2.3
				s-0.4-2.3-1.7-2.3h-1L7.9,167.3z"/>
		</g>
		<g>
			<path class="st1" d="M15.8,165.3h-2.7v2h2.9v0.9h-3.9v-6.4h3.9v0.9h-2.9v1.8h2.7L15.8,165.3z"/>
		</g>
		<g>
			<path class="st1" d="M21.5,161.8l-2,6.4h-1l-2-6.4h1L19,167l1.5-5.2L21.5,161.8z"/>
		</g>
		<g>
			<path class="st1" d="M25.6,165.3H23v2h2.9v0.9H22v-6.4h3.9v0.9H23v1.8h2.6L25.6,165.3z"/>
		</g>
		<g>
			<path class="st1" d="M27.7,167.3h2.8v0.9h-3.7v-6.4h1L27.7,167.3z"/>
		</g>
		<g>
			<path class="st1" d="M30.5,165c0-1.8,0.4-3.3,2.5-3.3s2.5,1.5,2.5,3.3s-0.4,3.3-2.5,3.3S30.5,166.8,30.5,165z M31.5,165
				c0,1.5,0.3,2.4,1.5,2.4c1.2,0,1.5-0.9,1.5-2.4s-0.3-2.4-1.5-2.4S31.5,163.5,31.5,165L31.5,165z"/>
		</g>
		<g>
			<path class="st1" d="M37.1,168.2h-1v-6.4h2c1.6,0,2.2,0.9,2.2,2s-0.6,2-2.2,2H37L37.1,168.2z M37.1,164.9h1.1
				c0.6,0.1,1.2-0.4,1.2-1s-0.4-1.2-1-1.2c-0.1,0-0.1,0-0.2,0h-1.1V164.9z"/>
		</g>
		<g>
			<path class="st1" d="M41,168.2v-6.4h1v6.4H41z"/>
		</g>
		<g>
			<path class="st1" d="M46.7,168.2l-2.8-4.5v4.5H43v-6.4h0.9l2.8,4.5v-4.5h0.9v6.4H46.7z"/>
		</g>
		<g>
			<path class="st1" d="M48.4,165c0-2,0.7-3.3,2.6-3.3c0.6,0,1.3,0.1,1.8,0.3v1c-0.5-0.2-1.1-0.4-1.7-0.4c-1.3,0-1.8,0.9-1.8,2.4
				s0.5,2.4,1.8,2.4c0.3,0,0.6,0,0.9-0.1v-1.7h-1.1v-0.9H53v3.2c-0.6,0.3-1.3,0.4-2,0.4C49.1,168.3,48.4,167,48.4,165z"/>
		</g>
		<g>
			<path class="st1" d="M9.4,170.7c0.5,0,1,0.1,1.5,0.3v0.9c-0.5-0.2-0.9-0.3-1.4-0.3c-1.2,0-1.7,0.8-1.7,2.4s0.5,2.4,1.7,2.4
				c0.5,0,1-0.1,1.4-0.3v0.9c-0.5,0.2-1,0.3-1.5,0.3c-1.9,0-2.6-1.2-2.6-3.3S7.5,170.7,9.4,170.7z"/>
		</g>
		<g>
			<path class="st1" d="M11.6,174c0-1.8,0.4-3.3,2.5-3.3s2.4,1.5,2.4,3.3s-0.4,3.3-2.4,3.3S11.6,175.8,11.6,174z M12.6,174
				c0,1.5,0.3,2.4,1.5,2.4s1.5-0.9,1.5-2.4s-0.3-2.4-1.5-2.4S12.6,172.5,12.6,174L12.6,174z"/>
		</g>
		<g>
			<path class="st1" d="M17.2,175.2v-4.4h1v4.3c-0.1,0.7,0.4,1.3,1,1.3c0.1,0,0.2,0,0.3,0c0.6,0.1,1.3-0.3,1.4-1c0-0.1,0-0.2,0-0.3
				v-4.3h1v4.4c0.1,1.1-0.8,2.1-1.9,2.1c-0.1,0-0.3,0-0.4,0c-1.1,0.2-2.1-0.6-2.3-1.7C17.2,175.5,17.2,175.3,17.2,175.2z"/>
		</g>
		<g>
			<path class="st1" d="M26.4,177.2l-2.8-4.5v4.5h-0.9v-6.4h0.9l2.8,4.5v-4.5h0.9v6.4H26.4z"/>
		</g>
		<g>
			<path class="st1" d="M30.4,171.7v5.5h-1v-5.5h-1.6v-0.9h4.3v0.9H30.4z"/>
		</g>
		<g>
			<path class="st1" d="M33.6,177.2h-1v-6.4h2.1c1.7,0,2.2,0.7,2.2,1.9c0.1,0.7-0.3,1.4-1,1.7l1.3,2.8H36l-1.2-2.6h-1.3V177.2z
				 M33.6,173.7h1.3c0.9,0,1-0.5,1-1s-0.1-1-1-1h-1.3V173.7z"/>
		</g>
		<g>
			<path class="st1" d="M38,177.2v-6.4h1v6.4H38z"/>
		</g>
		<g>
			<path class="st1" d="M43.6,174.3h-2.7v2h2.9v0.9H40v-6.4h3.9v0.9h-2.9v1.8h2.7V174.3z"/>
		</g>
		<g>
			<path class="st1" d="M48.9,175.3c0,1.2-0.7,2-2.4,2c-0.6,0-1.3-0.1-1.9-0.4V176c0.6,0.3,1.2,0.4,1.8,0.4c1.1,0,1.5-0.5,1.5-1.1
				s-0.3-0.9-1.2-1c-1.6-0.2-2.2-0.6-2.2-1.8c0-0.9,0.5-1.8,2.3-1.8c0.6,0,1.2,0.1,1.7,0.3v1c-0.5-0.2-1.1-0.3-1.7-0.3
				c-1,0-1.3,0.4-1.3,1s0.4,0.8,1.2,0.9C48.1,173.7,48.9,174,48.9,175.3z"/>
		</g>
	</g>
	<g>
		<rect x="3.3" y="24" class="st1" width="94.8" height="94.8"/>
	</g>
	<g>
		<path class="st1" d="M98.2,20.7H3.3V3.3h94.8V20.7z M4.3,19.7h92.8V4.3H4.3L4.3,19.7z"/>
	</g>
	<g class="st2">
		<path class="st1" d="M6.7,6.9h4.5v1.4H9.9v8.8H8.1V8.3H6.7V6.9z"/>
	</g>
	<g class="st2">
		<path class="st1" d="M11.2,17.1l1.9-10.2h1.9L17,17.1h-1.8l-0.3-1.9h-1.8l-0.3,1.9H11.2z M13.3,13.9h1.4L14,9.8h0L13.3,13.9z"/>
	</g>
	<g class="st2">
		<path class="st1" d="M19.6,12.4v4.7h-1.7V6.9h2.5c1.7,0,2.4,0.9,2.4,2.3v1.3c0,1.1-0.4,1.7-1.4,2l1.6,4.6h-1.8L19.6,12.4z
			 M19.6,8.3v3.2h0.6c0.6,0,0.8-0.3,0.8-0.8V9.2c0-0.6-0.3-0.8-0.8-0.8H19.6z"/>
	</g>
	<g class="st2">
		<path class="st1" d="M26.4,11.7h2.4v5.4h-1.2V16c-0.2,0.8-0.7,1.2-1.6,1.2c-1.5,0-2.1-1.2-2.1-2.7V9.6c0-1.6,0.8-2.7,2.6-2.7
			c1.9,0,2.4,1.1,2.4,2.6v0.9h-1.6v-1c0-0.6-0.2-1-0.9-1c-0.6,0-0.9,0.4-0.9,1v5.5c0,0.6,0.3,1,0.8,1c0.6,0,0.8-0.3,0.8-1V13h-0.8
			V11.7z"/>
	</g>
	<g class="st2">
		<path class="st1" d="M30.2,6.9h4.1v1.4h-2.4v2.9h1.7v1.4h-1.7v3.1h2.4v1.4h-4.1V6.9z"/>
	</g>
	<g class="st2">
		<path class="st1" d="M35.1,6.9h4.5v1.4h-1.4v8.8h-1.7V8.3h-1.4V6.9z"/>
	</g>
	<g class="st2">
		<path class="st1" d="M88.8,17.1l1.9-10.2h1.9l1.9,10.2h-1.8l-0.3-1.9h-1.8l-0.3,1.9H88.8z M90.9,13.9h1.4l-0.7-4.1h0L90.9,13.9z"
			/>
	</g>
	<g class="st2">
		<path class="st1" d="M83.2,9.5v4.9c0,1.6-0.7,2.7-2.5,2.7c-1.9,0-2.4-1-2.4-2.5v-0.5h1.6v0.7c0,0.6,0.2,1,0.8,1
			c0.6,0,0.9-0.4,0.9-1v-2.2h0c-0.3,0.5-0.7,0.8-1.4,0.8c-1.2,0-1.9-0.8-1.9-2.5V9.4c0-1.6,0.7-2.6,2.5-2.6
			C82.5,6.8,83.2,7.9,83.2,9.5z M79.8,9.2V11c0,0.7,0.2,1,0.8,1c0.5,0,0.8-0.4,0.8-0.9V9.2c0-0.6-0.2-1-0.8-1
			C80.1,8.2,79.8,8.6,79.8,9.2z"/>
	</g>
	<g>
		<polygon class="st1" points="85.4,9.9 85.4,14.1 87.6,12 		"/>
	</g>
	<g>
		<path class="st1" d="M98.2,180.9h-95v-58.7h95V180.9z M4.2,179.9h93v-56.7h-93V179.9z"/>
	</g>
	<g>
		<g>
			<path class="st0" d="M73.2,71.2h6.5c1.8,0,3.5-0.6,4.8-1.8c1.1-1.1,1.6-2.6,1.6-4.2c0-2.9,0-9.1,0-14.4c1.5-0.3,2.6-1.4,3-2.8
				h5.6v-2H89c-0.4-1.4-1.5-2.5-2.9-2.8v-1.4c0-0.2,0-0.3,0-0.6c0-0.9,0-2.6,0.9-3.5c0.5-0.5,1.3-0.7,2-0.7h5.8v-2h-5.8
				c-1.2-0.1-2.5,0.4-3.4,1.2c-1.5,1.5-1.5,3.7-1.5,4.9v0.5c0,0,0,0.6,0,1.6c-1.3,0.4-2.3,1.4-2.6,2.7h-4.4c-3,0-5.5-2.4-5.5-5.5
				V28.1h-2v12.5c0,4.1,3.3,7.5,7.5,7.5h4.4c0.3,1.3,1.3,2.3,2.5,2.7c0,5.3,0,11.6,0,14.6c0.1,1-0.3,2-1,2.7c-1,0.8-2.2,1.2-3.5,1.2
				h-6.3c0,0.4,0,0.7,0,1.1C73.2,70.6,73.2,71,73.2,71.2z M83.3,47.1c0-1.1,0.9-1.9,1.9-1.9s1.9,0.9,1.9,1.9c0,1.1-0.9,1.9-1.9,1.9
				l0,0C84.2,49,83.3,48.1,83.3,47.1z"/>
		</g>
		<g>
			<path class="st0" d="M29.5,69.2h-6.6c-0.4-1.3-1.4-2.4-2.8-2.8V52.9c-0.1-1.1,0.3-2.2,1.1-3c0.9-0.7,2.1-1,3.2-0.9h4.6
				c2,0.1,4-0.6,5.5-1.9c1.3-1.3,2-3.1,1.9-5v-1.6c1.3-0.4,2.2-1.4,2.5-2.7h8c0.9,0,1.7,0.2,2.4,0.8c0.7,0.7,1.1,1.7,1,2.7v7.2
				c0.7-0.1,1.3-0.1,2,0v-7.2c0.1-1.6-0.5-3.1-1.6-4.2c-1.1-0.9-2.5-1.3-3.9-1.3h-7.9c-0.3-1.3-1.3-2.3-2.5-2.7v-5h-2V33
				c-1.5,0.3-2.6,1.4-3,2.8H7.3v2h24.1c0.4,1.4,1.5,2.5,3,2.8v1.5c0.1,1.3-0.4,2.6-1.3,3.5c-1.2,0.9-2.6,1.4-4.1,1.3h-4.5
				c-1.7-0.1-3.4,0.4-4.7,1.4c-1.2,1.2-1.9,2.8-1.8,4.5v13.6c-1.3,0.4-2.4,1.4-2.8,2.7H7.4v2h7.9c0.4,1.3,1.4,2.4,2.8,2.8v18.1
				c-1.2,0.3-2.2,1.3-2.7,2.5H7.3v2h8c0.3,1.5,1.4,2.6,2.8,3c0,0.1,0,0.2,0,0.4c0,0.9,0,2.6-0.9,3.5c-0.5,0.5-1.3,0.7-2,0.7h-8v2h8
				c1.2,0.1,2.5-0.3,3.4-1.2c1.5-1.5,1.5-3.7,1.5-4.9c0-0.1,0-0.2,0-0.4c1.4-0.4,2.6-1.5,2.9-3h14.6c1.4,0,2.6,1.2,2.6,2.6v16.1h2
				V99.2c0-2.5-2-4.6-4.6-4.6H22.7c-0.4-1.2-1.4-2.2-2.7-2.5V74c1.4-0.4,2.4-1.4,2.8-2.8h6.6c0-0.3,0-0.6,0-0.9S29.5,69.6,29.5,69.2
				z M33.2,36.8c0-1.1,0.8-1.9,1.9-1.9s1.9,0.8,1.9,1.9c0,1.1-0.8,1.9-1.9,1.9c0,0,0,0,0,0C34.1,38.7,33.2,37.8,33.2,36.8z M21,95.9
				c0,1.1-0.8,1.9-1.9,1.9s-1.9-0.8-1.9-1.9c0-1.1,0.8-1.9,1.9-1.9C20.1,94,21,94.8,21,95.9C21,95.9,21,95.9,21,95.9z M19.1,72.2
				c-1.1,0-1.9-0.9-1.9-1.9c0-1.1,0.9-1.9,1.9-1.9c1.1,0,1.9,0.9,1.9,1.9C21,71.3,20.2,72.2,19.1,72.2
				C19.1,72.2,19.1,72.2,19.1,72.2z"/>
		</g>
		<g>
			<path class="st0" d="M79.5,86.3c0.7-0.6,1.6-0.8,2.5-0.8h12.8v-2H82.1c-1.4-0.1-2.8,0.4-3.9,1.3c-1.1,1.1-1.7,2.6-1.6,4.2v8.5
				c-1.4,0.4-2.4,1.4-2.8,2.8H55.5c-1.7,0-3.2-1.4-3.2-3.2v-4.9h-1h-1v4.9c0,2.8,2.3,5.2,5.2,5.2h18.3c0.4,1.3,1.4,2.4,2.8,2.7v10.2
				h2V105c1.4-0.4,2.4-1.4,2.8-2.8h13.4v-2H81.3c-0.4-1.4-1.4-2.4-2.8-2.8V89C78.5,88,78.8,87,79.5,86.3z M79.5,101.3
				c0,1.1-0.9,1.9-1.9,1.9c-1.1,0-1.9-0.9-1.9-1.9c0-1.1,0.9-1.9,1.9-1.9l0,0C78.6,99.4,79.4,100.2,79.5,101.3L79.5,101.3z"/>
		</g>
		<g>
			<path class="st0" d="M53.9,85.6c0.2,0.5,0.3,0.8,0.5,1.3c0.2,0.4,0.6,0.6,1,0.6c1.1-0.2,2.1-0.6,3.1-1.1c0.4-0.2,0.7-0.7,0.5-1.1
				c-0.1-0.5-0.2-0.8-0.4-1.2s-0.2-0.9,0.3-1.2s1.7-1.2,2.1-1.6c0.4-0.3,0.9-0.4,1.3-0.1c0.4,0.3,0.8,0.5,1.2,0.7
				c0.4,0.2,0.8,0.2,1.1-0.1c0.8-0.8,1.4-1.7,1.9-2.7c0.3-0.4,0.1-0.9-0.2-1.2c0,0,0,0,0,0c-0.4-0.3-0.7-0.5-1-0.8s-0.7-0.7-0.5-1.1
				s0.6-1.9,0.8-2.5c0.1-0.5,0.5-0.8,1-0.8c0.5,0,0.9-0.1,1.4-0.1c0.4,0,0.8-0.3,0.8-0.8c0.1-1.1,0.1-2.2-0.1-3.3
				c0-0.5-0.4-0.8-0.9-0.8h-1.3c-0.5,0-0.9-0.1-1.1-0.6c-0.2-0.8-0.5-1.7-0.8-2.5c-0.2-0.4-0.1-1,0.3-1.3c0.4-0.3,0.7-0.6,1.1-0.9
				c0.3-0.3,0.4-0.7,0.2-1.1c-0.5-1-1.2-1.9-2-2.7c-0.3-0.4-0.8-0.4-1.2-0.1c0,0,0,0,0,0c-0.4,0.3-0.7,0.5-1.1,0.7s-0.8,0.4-1.2,0.1
				c-0.8-0.6-1.6-1.2-2.1-1.5c-0.4-0.2-0.6-0.7-0.5-1.2c0.1-0.5,0.2-0.9,0.3-1.4c0.1-0.4-0.1-0.8-0.5-1c-1-0.5-2.1-0.8-3.2-1
				c-0.4-0.1-0.9,0.2-1,0.6c-0.2,0.5-0.3,0.8-0.4,1.2s-0.4,0.8-0.9,0.8c-1.1,0-1.9,0-2.6,0c-0.5,0-0.9-0.2-1.1-0.7
				c-0.2-0.5-0.3-0.8-0.5-1.3c-0.2-0.4-0.6-0.6-1-0.5c-1.1,0.2-2.1,0.6-3.1,1.1c-0.4,0.2-0.6,0.7-0.5,1.1c0.1,0.5,0.2,0.8,0.4,1.2
				s0.2,0.9-0.3,1.2s-1.5,1.1-2.1,1.5c-0.4,0.3-0.9,0.4-1.3,0.1c-0.4-0.3-0.8-0.5-1.2-0.8c-0.4-0.2-0.8-0.2-1.1,0.2
				c-0.8,0.8-1.4,1.7-1.9,2.7c-0.3,0.4-0.1,0.9,0.2,1.2c0,0,0,0,0,0c0.4,0.3,0.7,0.5,1,0.8s0.7,0.7,0.5,1.2s-0.6,2-0.8,2.5
				C36.9,67.7,36.5,68,36,68c-0.5,0-0.9,0.1-1.4,0.1c-0.4,0-0.8,0.3-0.8,0.8c-0.1,1.1-0.1,2.2,0.1,3.3c0,0.5,0.4,0.8,0.9,0.8
				c0.5,0,0.8,0,1.3,0s0.9,0.1,1.1,0.6c0.2,0.8,0.5,1.7,0.8,2.5c0.2,0.4,0.1,1-0.3,1.3c-0.4,0.3-0.7,0.6-1.1,0.9
				c-0.3,0.3-0.4,0.8-0.2,1.1c0.5,1,1.2,1.9,2,2.7c0.3,0.4,0.8,0.4,1.2,0.1c0,0,0,0,0,0c0.4-0.3,0.7-0.4,1.1-0.7s0.8-0.4,1.2-0.1
				s1.6,1.2,2.1,1.5c0.4,0.2,0.6,0.7,0.5,1.2c-0.1,0.5-0.2,0.9-0.3,1.4c-0.1,0.4,0.1,0.8,0.5,1c1,0.5,2.1,0.8,3.2,1
				c0.4,0.1,0.9-0.2,1-0.6c0.2-0.4,0.3-0.8,0.4-1.2s0.4-0.8,0.9-0.8c1,0,1.7,0,2.6,0C53.2,84.8,53.7,85.1,53.9,85.6z M40.6,70.4
				c0-6,4.9-10.8,10.9-10.8c6,0,10.8,4.9,10.8,10.9c0,6-4.9,10.8-10.9,10.8C45.4,81.3,40.5,76.4,40.6,70.4z"/>
		</g>
		<g>
			<path class="st0" d="M43.4,67.4c0.2,0.2,0.4,0,0.5-0.2s0.1-0.2,0-0.4s0.1-0.2,0.3-0.3c0.2-0.1,0.5-0.3,0.7-0.4
				c0.5-0.1,1-0.1,1.5,0c0.3,0.2,0.7,0.1,1-0.1c0.2-0.2,0.4-0.4,0.7-0.6c0.1-0.1-0.3-0.5-0.7,0S46.7,66,46.5,66s-1.3-0.3-1.4-0.6
				s0.3-0.6,0.8-0.8c0.6-0.1,1.2-0.2,1.8-0.2c0.6-0.1,1.3-0.4,1.7-0.2s-1.6,0.7-0.9,1c0.2,0.1,1.2-0.6,1.6-0.8
				c0.8-0.4-0.8-0.6-0.6-1.4s-1.9-0.6-3-0.5c-0.5,0.3-1,0.7-1.5,1.2c0.1,0,0.3,0.1,0.3,0.2c0,0.2,0,0.4-0.1,0.6
				c-0.3,0.3-0.6,0.4-1,0.5c-0.1,0-0.1,0-0.2-0.1c-0.2,0.2-0.3,0.5-0.5,0.7c0.2-0.1,0.5-0.2,0.7-0.2c0.2,0,0.6,0.1,0.6,0.2
				s-0.6,0.4-0.7,0.6c-0.3,0.3-0.8,0.9-1.2,1c-0.1,0-0.2,0-0.2,0c-0.1,0.2-0.2,0.4-0.2,0.6C42.7,67.3,43.1,67.3,43.4,67.4z"/>
		</g>
		<g>
			<path class="st0" d="M56.8,74c0.6-0.2,1.1-0.3,1.7-0.4c1.2-0.3,1.4-1,1.6-0.6l0.1,0.2c0.1,0.2,0.1,0.4,0.1,0.6
				c0.2-0.5,0.3-0.9,0.4-1.4c-0.3-0.1-1.3-1.6-0.5-2.5c0.1-0.2-0.3-0.6-0.2-0.7c0.4,0,0.7,0.2,0.8,0.6c0-0.5-0.1-1-0.2-1.5
				c0,0.1,0,0.2,0,0.3c-0.1,0.3-0.5,0.5-0.8,0.3c-0.1-0.1-0.2-0.1-0.3-0.3c-0.1-0.2-0.5-0.5-0.5,0.1s0.7,0.7,0,1.1
				c-0.3,0.2-0.6,0.3-1,0.4c-0.3,0.3-0.5,0.7-0.5,1.2c0.1,0.4,0.9,1.4,0.3,1.3c-0.6-0.3-1.1-0.7-1.5-1.3c-0.2-0.5-0.4-1-0.6-1.4
				c-0.1-0.3-0.4-0.5-0.7-0.4c-0.1,0-0.1,0.1-0.2,0.1c-0.3,0.2,0.1,0.5-0.2,1s-0.4,0.9-0.8,0.5c-0.9-1.1-2.3-0.6-2.5-1.7
				c-0.1-0.7-0.7-0.6-1.1-1s-0.7-0.6-0.8-0.3s1.5,1.4,1.6,1.8s-0.5,0.9-0.9,1s-0.7-0.2-1.1-0.7s-0.6-0.8-0.7-0.4
				c0,0.6,0.4,1.2,0.9,1.6c0.4,0.2,0.8,0.4,0.7,0.8s0,0.2-0.4,0.6c-0.4,0.3-0.6,0.7-0.5,1.2c0,0.6-0.1,0.6-0.2,1.1s-0.3,0.1-0.5,0.8
				c-0.1,0.5-0.3,0.9-0.6,1.2c-0.4,0.3-0.8,0.5-1.3,0.5c-0.4,0-0.5-1.2-0.5-1.8c0-0.2-0.3,0.4-0.4-0.8c-0.1-0.8-0.6,0.1-0.6-0.4
				s-0.3-0.4-0.6-0.8s-0.6,0-1,0.2s-0.2,0.2-0.7,0.1l0,0c1.1,2.6,3.4,4.7,6.1,5.5c-0.1-0.1-0.2-0.3-0.1-0.5c0.4-0.7,1.1-1.1,1.9-1.2
				c1.5-0.2,3.6,1,3.9,0.8s1-1,2-1c0.3,0,0.6,0.1,0.9,0.2c0.4-0.2,0.7-0.5,1-0.8c-0.1,0-0.2-0.1-0.3-0.1c-0.5-0.3-0.5,0.2-0.7,0.1
				s0.3-0.7-0.5-0.2s-0.6-0.1-0.9-0.9C55.6,75.2,56,74.4,56.8,74z M59.3,72.8c-0.3,0.2-0.6,0.1-0.9-0.1c-0.2-0.2,0.2-0.5,0.3-0.5
				C59,72.2,59.5,72.6,59.3,72.8L59.3,72.8z M58,71.5c-0.1-0.1,0-0.2,0.1-0.3c0.1,0,0.2,0,0.2,0c0.2,0.1,0.4,0.3,0.5,0.6
				c0,0.2-0.4,0.1-0.5,0.1S58.1,71.8,58,71.5z M50.1,73.8c-0.1,0.2-0.5,1.8-0.7,1.6s0.1-1.9,0.2-2C49.9,72.7,50.8,72.7,50.1,73.8z
				 M54,71.9c-0.3,0.2-0.6,0.1-0.9-0.1c-0.2-0.2,0.2-0.5,0.3-0.5C53.8,71.2,54.2,71.7,54,71.9z"/>
		</g>
		<g>
			<path class="st0" d="M43,68.4c0.5,0.1,1.1,0.2,1.6,0.4c0.5,0.2,1.4,0.7,1.9,0.5s0.7-0.4,0.6-0.7s-0.3-0.5-0.7-0.2
				c-0.1,0.1-0.4-0.6-0.7-0.6s0.3,0.8,0.1,0.8s-0.6-0.8-0.6-0.9s-0.4-0.5-0.6-0.2c-0.6,0.5-1.5,0.5-1.7,0.6c-0.1,0-0.1,0.1-0.2,0.1
				c-0.4,0.2-0.5-0.2-0.5-0.5c-0.2,0.5-0.3,1.1-0.3,1.6v-0.1c0.3-0.6,0.4-0.7,0.5-0.7s0.4-0.1,0.4-0.1L43,68.4z"/>
		</g>
	</g>
</g>
</svg>
