<?xml version="1.0" encoding="utf-8"?>
<!-- Generator: Adobe Illustrator 22.0.1, SVG Export Plug-In . SVG Version: 6.00 Build 0)  -->
<svg version="1.1" id="Layer_1" xmlns="http://www.w3.org/2000/svg" xmlns:xlink="http://www.w3.org/1999/xlink" x="0px" y="0px"
	 viewBox="0 0 101.5 174.8" style="enable-background:new 0 0 101.5 174.8;" xml:space="preserve">
<style type="text/css">
	.st0{fill:#FFFFFF;}
	.st1{fill:#FD6925;}
	.st2{enable-background:new    ;}
</style>
<title>TARGET 1 B copy 6</title>
<g id="WHITE_BG">
	<g>
		<rect y="0" class="st0" width="101.5" height="174.6"/>
	</g>
</g>
<g id="TARGETS">
	<g>
		<g>
			<path class="st1" d="M11.1,130.3c0,1.2-0.7,2-2.4,2c-0.6,0-1.3-0.1-1.9-0.4V131c0.6,0.3,1.2,0.4,1.8,0.4c1.1,0,1.5-0.5,1.5-1.1
				s-0.3-0.9-1.2-1c-1.6-0.2-2.2-0.6-2.2-1.8c0-0.9,0.5-1.8,2.3-1.8c0.6,0,1.2,0.1,1.7,0.3v1c-0.5-0.2-1.1-0.3-1.7-0.3
				c-1,0-1.3,0.4-1.3,1c0,0.6,0.4,0.8,1.2,0.9C10.3,128.7,11.1,129,11.1,130.3z"/>
		</g>
		<g>
			<path class="st1" d="M11.8,130.2v-4.4h0.9v4.3c-0.1,0.7,0.4,1.2,1,1.3c0.1,0,0.2,0,0.3,0c0.6,0.1,1.3-0.3,1.4-1
				c0-0.1,0-0.2,0-0.3v-4.3h1v4.4c0.1,1.1-0.8,2.1-1.9,2.1c-0.1,0-0.3,0-0.4,0c-1.1,0.2-2.1-0.5-2.3-1.6
				C11.8,130.5,11.8,130.4,11.8,130.2z"/>
		</g>
		<g>
			<path class="st1" d="M18.3,132.2h-1v-6.4h2c1.6,0,2.2,1,2.2,2c0,1-0.6,2-2.2,2h-1V132.2z M18.3,128.9h1.1c0.6,0.1,1.2-0.4,1.2-1
				s-0.4-1.2-1-1.2c-0.1,0-0.1,0-0.2,0h-1.1V128.9z"/>
		</g>
		<g>
			<path class="st1" d="M23.1,132.2h-0.9v-6.4h2c1.6,0,2.2,1,2.2,2c0,1-0.6,2-2.2,2h-1.1V132.2z M23.1,128.9h1.1
				c0.6,0.1,1.2-0.4,1.2-1s-0.4-1.2-1-1.2c-0.1,0-0.1,0-0.2,0h-1.1V128.9z"/>
		</g>
		<g>
			<path class="st1" d="M26.8,129c0-1.8,0.4-3.3,2.5-3.3s2.5,1.5,2.5,3.3s-0.4,3.3-2.5,3.3S26.8,130.8,26.8,129z M27.8,129
				c0,1.5,0.3,2.4,1.5,2.4s1.5-0.9,1.5-2.4s-0.3-2.4-1.5-2.4S27.8,127.5,27.8,129L27.8,129z"/>
		</g>
		<g>
			<path class="st1" d="M33.4,132.2h-1v-6.4h2.1c1.7,0,2.2,0.7,2.2,1.9c0.1,0.7-0.3,1.4-1,1.7l1.3,2.8h-1.1l-1.2-2.6h-1.3V132.2z
				 M33.4,128.7h1.3c0.9,0,1-0.5,1-1s-0.1-1-1-1h-1.3V128.7z"/>
		</g>
		<g>
			<path class="st1" d="M39.5,126.7v5.5h-1v-5.5h-1.6v-0.9h4.3v0.9H39.5z"/>
		</g>
		<g>
			<path class="st1" d="M43,132.2v-6.4h1.9c2.1,0,2.7,1.4,2.7,3.2s-0.6,3.2-2.7,3.2L43,132.2z M44,131.3h1c1.3,0,1.7-0.9,1.7-2.3
				s-0.4-2.3-1.7-2.3h-1V131.3z"/>
		</g>
		<g>
			<path class="st1" d="M48.2,129c0-1.8,0.4-3.3,2.5-3.3s2.5,1.5,2.5,3.3s-0.4,3.3-2.5,3.3S48.2,130.8,48.2,129z M49.2,129
				c0,1.5,0.3,2.4,1.5,2.4s1.5-0.9,1.5-2.4s-0.3-2.4-1.5-2.4S49.2,127.5,49.2,129L49.2,129z"/>
		</g>
		<g>
			<path class="st1" d="M57.2,131.3h-0.9l-1.6-3.9v4.8h-1v-6.4H55l1.7,4.3l1.7-4.3h1.2v6.4h-1v-4.8L57.2,131.3z"/>
		</g>
		<g>
			<path class="st1" d="M64.3,129.3h-2.7v2h2.9v0.9h-3.9v-6.4h3.9v0.9h-2.9v1.8h2.7V129.3z"/>
		</g>
		<g>
			<path class="st1" d="M69.6,130.3c0,1.2-0.7,2-2.4,2c-0.6,0-1.3-0.1-1.9-0.4V131c0.6,0.3,1.2,0.4,1.8,0.4c1.1,0,1.5-0.5,1.5-1.1
				s-0.3-0.9-1.2-1c-1.6-0.2-2.2-0.6-2.2-1.8c0-0.9,0.5-1.8,2.3-1.8c0.6,0,1.2,0.1,1.7,0.3v1c-0.5-0.2-1.1-0.3-1.7-0.3
				c-1,0-1.3,0.4-1.3,1c0,0.6,0.4,0.8,1.2,0.9C68.8,128.7,69.6,129,69.6,130.3z"/>
		</g>
		<g>
			<path class="st1" d="M72.4,126.7v5.5h-1v-5.5h-1.6v-0.9h4.3v0.9H72.4z"/>
		</g>
		<g>
			<path class="st1" d="M74.8,132.2v-6.4h1v6.4H74.8z"/>
		</g>
		<g>
			<path class="st1" d="M79.3,125.7c0.5,0,1,0.1,1.5,0.3v0.9c-0.4-0.2-0.9-0.3-1.4-0.3c-1.2,0-1.7,0.8-1.7,2.4s0.5,2.4,1.7,2.4
				c0.5,0,1-0.1,1.4-0.3v0.9c-0.5,0.2-1,0.3-1.5,0.3c-1.9,0-2.6-1.2-2.6-3.3S77.4,125.7,79.3,125.7z"/>
		</g>
		<g>
			<path class="st1" d="M9.2,135.7v5.5h-1v-5.5H6.6v-0.9h4.3v0.9H9.2z"/>
		</g>
		<g>
			<path class="st1" d="M15.1,138.3h-2.7v2h2.9v0.9h-3.9v-6.4h3.9v0.9h-2.9v1.8h2.6L15.1,138.3z"/>
		</g>
		<g>
			<path class="st1" d="M18.7,134.7c0.5,0,1,0.1,1.5,0.3v0.9c-0.5-0.2-0.9-0.3-1.4-0.3c-1.2,0-1.7,0.8-1.7,2.4s0.5,2.4,1.7,2.4
				c0.5,0,1-0.1,1.4-0.3v0.9c-0.5,0.2-1,0.3-1.5,0.3c-1.9,0-2.6-1.2-2.6-3.3S16.8,134.7,18.7,134.7z"/>
		</g>
		<g>
			<path class="st1" d="M24.4,141.2v-2.9h-2.6v2.9h-1v-6.4h1v2.6h2.6v-2.6h1v6.4H24.4z"/>
		</g>
		<g>
			<path class="st1" d="M30,141.2l-2.8-4.5v4.5h-0.9v-6.4h0.9l2.9,4.5v-4.5h0.9v6.4H30z"/>
		</g>
		<g>
			<path class="st1" d="M31.6,138c0-1.8,0.4-3.3,2.5-3.3s2.5,1.5,2.5,3.3s-0.4,3.3-2.5,3.3S31.6,139.8,31.6,138z M32.6,138
				c0,1.5,0.3,2.4,1.5,2.4s1.5-0.9,1.5-2.4s-0.3-2.4-1.5-2.4S32.6,136.5,32.6,138L32.6,138z"/>
		</g>
		<g>
			<path class="st1" d="M38.2,140.3H41v0.9h-3.7v-6.4h1L38.2,140.3z"/>
		</g>
		<g>
			<path class="st1" d="M41,138c0-1.8,0.4-3.3,2.5-3.3s2.5,1.5,2.5,3.3s-0.4,3.3-2.5,3.3S41,139.8,41,138z M42,138
				c0,1.5,0.3,2.4,1.5,2.4s1.5-0.9,1.5-2.4s-0.3-2.4-1.5-2.4S42,136.5,42,138z"/>
		</g>
		<g>
			<path class="st1" d="M46.6,138c0-2,0.7-3.3,2.6-3.3c0.6,0,1.3,0.1,1.8,0.3v1c-0.5-0.2-1.1-0.4-1.7-0.4c-1.3,0-1.8,0.9-1.8,2.4
				s0.5,2.4,1.8,2.4c0.3,0,0.6,0,0.9-0.1v-1.7h-1.1v-0.9h2.1v3.2c-0.6,0.3-1.3,0.4-2,0.4C47.3,141.3,46.6,140,46.6,138z"/>
		</g>
		<g>
			<path class="st1" d="M54.6,138.6v2.6h-1v-2.6l-2.2-3.8h1.1l1.6,3l1.6-3h1.1L54.6,138.6z"/>
		</g>
		<g>
			<path class="st1" d="M6.9,150.2v-6.4h1.9c2.1,0,2.7,1.4,2.7,3.2s-0.6,3.2-2.7,3.2H6.9z M7.9,149.3h1c1.3,0,1.7-0.9,1.7-2.3
				s-0.4-2.3-1.7-2.3h-1L7.9,149.3z"/>
		</g>
		<g>
			<path class="st1" d="M15.8,147.3h-2.7v2h2.9v0.9h-3.9v-6.4h3.9v0.9h-2.9v1.8h2.7V147.3z"/>
		</g>
		<g>
			<path class="st1" d="M21.5,143.8l-2,6.4h-1l-2-6.4h1L19,149l1.5-5.2L21.5,143.8z"/>
		</g>
		<g>
			<path class="st1" d="M25.6,147.3H23v2h2.9v0.9H22v-6.4h3.9v0.9H23v1.8h2.6L25.6,147.3z"/>
		</g>
		<g>
			<path class="st1" d="M27.7,149.3h2.8v0.9h-3.7v-6.4h1L27.7,149.3z"/>
		</g>
		<g>
			<path class="st1" d="M30.5,147c0-1.8,0.4-3.3,2.5-3.3s2.5,1.5,2.5,3.3s-0.4,3.3-2.5,3.3S30.5,148.8,30.5,147z M31.5,147
				c0,1.5,0.3,2.4,1.5,2.4c1.2,0,1.5-0.9,1.5-2.4s-0.3-2.4-1.5-2.4S31.5,145.5,31.5,147L31.5,147z"/>
		</g>
		<g>
			<path class="st1" d="M37.1,150.2h-1v-6.4h2c1.6,0,2.2,0.9,2.2,2s-0.6,2-2.2,2H37L37.1,150.2z M37.1,146.9h1.1
				c0.6,0.1,1.2-0.4,1.2-1s-0.4-1.2-1-1.2c-0.1,0-0.1,0-0.2,0h-1.1V146.9z"/>
		</g>
		<g>
			<path class="st1" d="M44.2,149.3h-0.9l-1.6-3.9v4.8h-1v-6.4H42l1.7,4.3l1.7-4.3h1.2v6.4h-1v-4.8L44.2,149.3z"/>
		</g>
		<g>
			<path class="st1" d="M51.3,147.3h-2.7v2h2.9v0.9h-3.9v-6.4h3.9v0.9h-2.9v1.8h2.7V147.3z"/>
		</g>
		<g>
			<path class="st1" d="M56.1,150.2l-2.8-4.5v4.5h-0.9v-6.4h0.9l2.8,4.5v-4.5h1v6.4H56.1z"/>
		</g>
		<g>
			<path class="st1" d="M60.1,144.7v5.5h-1v-5.5h-1.6v-0.9h4.3v0.9H60.1z"/>
		</g>
		<g>
			<path class="st1" d="M66.8,148.6h-2l-0.5,1.6h-1l2-6.4h1l2,6.4h-1L66.8,148.6z M65.8,145l-0.8,2.8h1.6L65.8,145z"/>
		</g>
		<g>
			<path class="st1" d="M72.4,150.2l-2.8-4.5v4.5h-0.9v-6.4h0.9l2.8,4.5v-4.5h0.9v6.4H72.4z"/>
		</g>
		<g>
			<path class="st1" d="M74.3,150.2v-6.4h1.9c2.1,0,2.7,1.4,2.7,3.2s-0.6,3.2-2.7,3.2H74.3z M75.3,149.3h1c1.3,0,1.7-0.9,1.7-2.3
				s-0.4-2.3-1.7-2.3h-1V149.3z"/>
		</g>
		<g>
			<path class="st1" d="M7,159.2v-6.4h1v6.4H7z"/>
		</g>
		<g>
			<path class="st1" d="M12.8,159.2l-2.8-4.5v4.5H9.1v-6.4h0.9l2.8,4.5v-4.5h0.9v6.4H12.8z"/>
		</g>
		<g>
			<path class="st1" d="M14.6,159.2v-6.4h1.9c2.1,0,2.7,1.4,2.7,3.2s-0.6,3.2-2.7,3.2H14.6z M15.5,158.3h1c1.3,0,1.7-0.9,1.7-2.3
				s-0.4-2.3-1.7-2.3h-1L15.5,158.3z"/>
		</g>
		<g>
			<path class="st1" d="M19.8,157.2v-4.4h1v4.3c-0.1,0.7,0.4,1.3,1,1.3c0.1,0,0.2,0,0.3,0c0.6,0.1,1.3-0.3,1.4-1c0-0.1,0-0.2,0-0.3
				v-4.3h1v4.4c0,1.1-0.8,2.1-2,2.1c-0.1,0-0.2,0-0.3,0c-1.1,0.2-2.1-0.5-2.3-1.6C19.8,157.5,19.8,157.4,19.8,157.2z"/>
		</g>
		<g>
			<path class="st1" d="M29.4,157.3c0,1.2-0.7,2-2.4,2c-0.6,0-1.3-0.1-1.9-0.4V158c0.6,0.3,1.2,0.4,1.8,0.4c1.1,0,1.5-0.5,1.5-1.1
				s-0.3-0.9-1.2-1c-1.5-0.2-2.2-0.6-2.2-1.8c0-0.9,0.5-1.8,2.3-1.8c0.6,0,1.2,0.1,1.7,0.3v1c-0.5-0.2-1.1-0.3-1.7-0.3
				c-1,0-1.3,0.4-1.3,1s0.4,0.8,1.2,0.9C28.6,155.7,29.4,156,29.4,157.3z"/>
		</g>
		<g>
			<path class="st1" d="M32.3,153.7v5.5h-1v-5.5h-1.7v-0.9h4.3v0.9H32.3z"/>
		</g>
		<g>
			<path class="st1" d="M35.4,159.2h-1v-6.4h2.1c1.7,0,2.2,0.7,2.2,1.9c0.1,0.7-0.3,1.4-1,1.7l1.3,2.8h-1.1l-1.2-2.6h-1.3V159.2z
				 M35.4,155.7h1.3c0.9,0,1-0.5,1-1s-0.1-1-1-1h-1.3V155.7z"/>
		</g>
		<g>
			<path class="st1" d="M39.8,159.2v-6.4h1v6.4H39.8z"/>
		</g>
		<g>
			<path class="st1" d="M44.9,157.6h-2l-0.5,1.6h-1l2-6.4h1l2,6.4h-1L44.9,157.6z M43.9,154l-0.8,2.8h1.6L43.9,154z"/>
		</g>
		<g>
			<path class="st1" d="M47.9,158.3h2.8v0.9H47v-6.4h1L47.9,158.3z"/>
		</g>
		<g>
			<path class="st1" d="M6.9,168.2v-6.4h1.9c2.1,0,2.7,1.4,2.7,3.2s-0.6,3.2-2.7,3.2H6.9z M7.9,167.3h1c1.3,0,1.7-0.9,1.7-2.3
				s-0.4-2.3-1.7-2.3h-1L7.9,167.3z"/>
		</g>
		<g>
			<path class="st1" d="M12.3,168.2v-6.4h0.9v6.4H12.3z"/>
		</g>
		<g>
			<path class="st1" d="M19,161.8l-2,6.4h-1l-2-6.4h1l1.5,5.2l1.5-5.2L19,161.8z"/>
		</g>
		<g>
			<path class="st1" d="M23.1,165.3h-2.6v2h2.9v0.9h-3.9v-6.4h3.9v0.9h-2.9v1.8h2.6V165.3z"/>
		</g>
		<g>
			<path class="st1" d="M25.1,168.2h-0.9v-6.4h2.1c1.6,0,2.2,0.7,2.2,1.9c0.1,0.7-0.3,1.4-1,1.7l1.3,2.8h-1.1l-1.2-2.6h-1.3V168.2z
				 M25.1,164.7h1.3c0.9,0,1-0.5,1-1s-0.1-1-1-1h-1.3V164.7z"/>
		</g>
		<g>
			<path class="st1" d="M33.4,166.3c0,1.2-0.7,2-2.4,2c-0.6,0-1.3-0.1-1.9-0.4V167c0.6,0.3,1.2,0.4,1.8,0.4c1.2,0,1.5-0.5,1.5-1.1
				s-0.3-0.9-1.2-1c-1.5-0.2-2.1-0.6-2.1-1.8c0-0.9,0.5-1.8,2.3-1.8c0.6,0,1.2,0.1,1.7,0.3v1c-0.5-0.2-1.1-0.3-1.7-0.3
				c-1,0-1.3,0.4-1.3,1s0.4,0.8,1.2,0.9C32.7,164.7,33.4,165,33.4,166.3z"/>
		</g>
		<g>
			<path class="st1" d="M34.4,168.2v-6.4h1v6.4H34.4z"/>
		</g>
		<g>
			<path class="st1" d="M39.9,165.4h-2.6v2.8h-1v-6.4h3.8v0.9h-2.8v1.8h2.6L39.9,165.4z"/>
		</g>
		<g>
			<path class="st1" d="M41,168.2v-6.4h1v6.4H41z"/>
		</g>
		<g>
			<path class="st1" d="M45.4,161.7c0.5,0,1,0.1,1.5,0.3v0.9c-0.5-0.2-0.9-0.3-1.4-0.3c-1.2,0-1.7,0.8-1.7,2.4s0.5,2.4,1.7,2.4
				c0.5,0,1-0.1,1.4-0.3v0.9c-0.5,0.2-1,0.3-1.5,0.3c-1.9,0-2.6-1.2-2.6-3.3S43.5,161.7,45.4,161.7z"/>
		</g>
		<g>
			<path class="st1" d="M50.8,166.6h-2l-0.5,1.6h-1l2-6.4h1l2,6.4h-1L50.8,166.6z M49.8,163l-0.8,2.8h1.6L49.8,163z"/>
		</g>
		<g>
			<path class="st1" d="M54.3,162.7v5.5h-1v-5.5h-1.7v-0.9H56v0.9H54.3z"/>
		</g>
		<g>
			<path class="st1" d="M56.6,168.2v-6.4h1v6.4H56.6z"/>
		</g>
		<g>
			<path class="st1" d="M58.6,165c0-1.8,0.4-3.3,2.5-3.3s2.5,1.5,2.5,3.3s-0.4,3.3-2.5,3.3S58.6,166.8,58.6,165z M59.6,165
				c0,1.5,0.3,2.4,1.5,2.4s1.5-0.9,1.5-2.4s-0.3-2.4-1.5-2.4S59.6,163.5,59.6,165L59.6,165z"/>
		</g>
		<g>
			<path class="st1" d="M67.9,168.2l-2.8-4.5v4.5h-0.9v-6.4h0.9l2.8,4.5v-4.5h0.9v6.4H67.9z"/>
		</g>
	</g>
	<g>
		<rect x="3.3" y="24" class="st1" width="94.8" height="94.8"/>
	</g>
	<g>
		<path class="st1" d="M98.2,20.7H3.3V3.3h94.8V20.7z M4.3,19.7h92.8V4.3H4.3L4.3,19.7z"/>
	</g>
	<g class="st2">
		<path class="st1" d="M6.7,6.9h4.5v1.4H9.9v8.8H8.1V8.3H6.7V6.9z"/>
	</g>
	<g class="st2">
		<path class="st1" d="M11.2,17.1l1.9-10.2h1.9L17,17.1h-1.8l-0.3-1.9h-1.8l-0.3,1.9H11.2z M13.3,13.9h1.4L14,9.8h0L13.3,13.9z"/>
	</g>
	<g class="st2">
		<path class="st1" d="M19.6,12.4v4.7h-1.7V6.9h2.5c1.7,0,2.4,0.9,2.4,2.3v1.3c0,1.1-0.4,1.7-1.4,2l1.6,4.6h-1.8L19.6,12.4z
			 M19.6,8.3v3.2h0.6c0.6,0,0.8-0.3,0.8-0.8V9.2c0-0.6-0.3-0.8-0.8-0.8H19.6z"/>
	</g>
	<g class="st2">
		<path class="st1" d="M26.4,11.7h2.4v5.4h-1.2V16c-0.2,0.8-0.7,1.2-1.6,1.2c-1.5,0-2.1-1.2-2.1-2.7V9.6c0-1.6,0.8-2.7,2.6-2.7
			c1.9,0,2.4,1.1,2.4,2.6v0.9h-1.6v-1c0-0.6-0.2-1-0.9-1c-0.6,0-0.9,0.4-0.9,1v5.5c0,0.6,0.3,1,0.8,1c0.6,0,0.8-0.3,0.8-1V13h-0.8
			V11.7z"/>
	</g>
	<g class="st2">
		<path class="st1" d="M30.2,6.9h4.1v1.4h-2.4v2.9h1.7v1.4h-1.7v3.1h2.4v1.4h-4.1V6.9z"/>
	</g>
	<g class="st2">
		<path class="st1" d="M35.1,6.9h4.5v1.4h-1.4v8.8h-1.7V8.3h-1.4V6.9z"/>
	</g>
	<g class="st2">
		<path class="st1" d="M89.4,6.9h2.5c1.7,0,2.3,0.8,2.3,2.2v1c0,0.9-0.3,1.4-1,1.6c0.9,0.2,1.3,0.8,1.3,1.7v1.3
			c0,1.4-0.6,2.2-2.4,2.2h-2.7V6.9z M91.1,11.2h0.6c0.6,0,0.8-0.3,0.8-0.8V9.2c0-0.6-0.3-0.8-0.8-0.8h-0.6V11.2z M91.1,12.5v3.2h0.8
			c0.6,0,0.8-0.3,0.8-0.8v-1.5c0-0.5-0.3-0.8-0.9-0.8H91.1z"/>
	</g>
	<g class="st2">
		<path class="st1" d="M83.2,9.5v4.9c0,1.6-0.7,2.7-2.5,2.7c-1.9,0-2.4-1-2.4-2.5v-0.5h1.6v0.7c0,0.6,0.2,1,0.8,1
			c0.6,0,0.9-0.4,0.9-1v-2.2h0c-0.3,0.5-0.7,0.8-1.4,0.8c-1.2,0-1.9-0.8-1.9-2.5V9.4c0-1.6,0.7-2.6,2.5-2.6
			C82.5,6.8,83.2,7.9,83.2,9.5z M79.8,9.2V11c0,0.7,0.2,1,0.8,1c0.5,0,0.8-0.4,0.8-0.9V9.2c0-0.6-0.2-1-0.8-1
			C80.1,8.2,79.8,8.6,79.8,9.2z"/>
	</g>
	<g>
		<polygon class="st1" points="85.4,9.9 85.4,14.1 87.6,12 		"/>
	</g>
	<g>
		<path class="st1" d="M98.2,171.9h-95v-49.8h95V171.9z M4.2,170.9h93v-47.8h-93V170.9z"/>
	</g>
	<g>
		<g>
			<path class="st0" d="M84.9,79.9l-9.2-5.2c-0.2-0.1-0.5-0.1-0.7,0l-5.3,3.1v-6.3c0-0.2-0.1-0.4-0.3-0.5l-8.9-5.1V55.6
				c0-0.2-0.1-0.4-0.3-0.5l-5.4-3.1l5.5-3.2c0.2-0.1,0.4-0.4,0.3-0.6V37.7c0-0.3-0.1-0.5-0.4-0.6l-9.2-5.2c-0.2-0.1-0.5-0.1-0.7,0
				l-9.2,5.2c-0.2,0.1-0.4,0.4-0.3,0.6v10.4c0,0.3,0.1,0.5,0.3,0.6l5.5,3.2l-5.5,3.2c-0.2,0.1-0.3,0.3-0.3,0.5v10.2l-8.9,5.1
				c-0.2,0.1-0.3,0.3-0.3,0.5v6.3l-5.3-3c-0.2-0.1-0.5-0.1-0.7,0L16.6,80c-0.2,0.1-0.4,0.4-0.4,0.6V91c0,0.3,0.1,0.5,0.4,0.6
				l9.2,5.3C25.9,97,26,97,26.1,97c0.1,0,0.2,0,0.4-0.1l9.2-5.3c0.2-0.1,0.3-0.4,0.3-0.6v-6.2l5.3,3c0.1,0,0.2,0.1,0.3,0.1
				c0.1,0,0.2,0,0.3-0.1l8.9-5.1l8.9,5.1c0.2,0.1,0.4,0.1,0.6,0l5.3-3V91c0,0.3,0.1,0.5,0.3,0.6l9.2,5.3c0.1,0.1,0.2,0.1,0.4,0.1
				c0.1,0,0.2,0,0.3-0.1l9.2-5.3c0.2-0.1,0.4-0.4,0.3-0.6V80.5C85.2,80.3,85.1,80,84.9,79.9z M26.1,85l-7.8-4.4l7.8-4.4l7.7,4.4
				L26.1,85z M26.8,95.1v-8.9l7.7-4.4v8.8L26.8,95.1z M41,86.3l-5-2.9v-2.9c0-0.3-0.1-0.5-0.3-0.6L33,78.4v-5.9l8,4.6V86.3z
				 M66.9,81.8l7.8,4.4v8.9l-7.8-4.5L66.9,81.8z M76.1,95.1v-8.9l7.7-4.4v8.8L76.1,95.1z M59.3,56.6v8.5L52,60.9L59.3,56.6z
				 M53.4,51.1L51.5,50v-6.7l7.7-4.4v8.8L53.4,51.1z M42.3,47.7v-8.8l7.8,4.4V50l-1.9,1.1L42.3,47.7z M42.2,56.6l7.3,4.2l-7.3,4.2
				V56.6z M42.2,86.3v-8.5l7.3,4.2L42.2,86.3z M50.2,81l-7.3-4.2l7.3-4.2V81z M50.2,70.4l-7.3-4.2l7.3-4.2V70.4z M51.4,61.9l7.3,4.2
				l-7.3,4.2V61.9z M59.9,76L52,71.4l8-4.6l8,4.6L59.9,76z M60.5,86.2v-9.1l8-4.6v6L65.8,80c-0.2,0.1-0.4,0.4-0.3,0.6v2.8L60.5,86.2
				z"/>
		</g>
		<g>
			<path class="st0" d="M36,62.4V51.9c0-0.3-0.1-0.5-0.3-0.6l-9.2-5.2c-0.2-0.1-0.5-0.1-0.7,0l-9.2,5.2c-0.2,0.1-0.4,0.4-0.4,0.6
				v10.4c0,0.3,0.1,0.5,0.4,0.6l9.2,5.3c0.1,0.1,0.2,0.1,0.4,0.1c0.1,0,0.2,0,0.4-0.1l9.2-5.3C35.9,62.9,36,62.6,36,62.4z
				 M25.4,66.4L17.7,62v-8.9l7.8,4.4L25.4,66.4z M26.1,56.3l-7.8-4.4l7.8-4.4l7.7,4.4L26.1,56.3z"/>
		</g>
		<g>
			<path class="st0" d="M84.9,51.4l-9.2-5.2c-0.2-0.1-0.5-0.1-0.7,0l-9.2,5.3c-0.2,0.1-0.4,0.4-0.3,0.6v10.4c0,0.3,0.1,0.5,0.3,0.6
				l9.2,5.3c0.1,0.1,0.2,0.1,0.4,0.1c0.1,0,0.2,0,0.3-0.1l9.2-5.3c0.2-0.1,0.4-0.4,0.3-0.6V52C85.2,51.8,85.1,51.5,84.9,51.4z
				 M74.6,66.6l-7.8-4.5v-8.8l7.8,4.4L74.6,66.6z M75.4,56.5l-7.8-4.4l7.8-4.4l7.7,4.4L75.4,56.5z"/>
		</g>
		<g>
			<path class="st0" d="M60.3,94.1l-9.1-5.2c-0.2-0.1-0.5-0.1-0.7,0l-9.2,5.3c-0.2,0.1-0.4,0.4-0.4,0.6v10.4c0,0.3,0.1,0.5,0.4,0.6
				l9.2,5.3c0.2,0.1,0.5,0.1,0.7,0l9.2-5.3c0.2-0.1,0.4-0.4,0.4-0.6V94.7C60.6,94.4,60.5,94.2,60.3,94.1z M50,109.2l-7.8-4.5V96
				l7.8,4.4L50,109.2z M50.7,99.1L43,94.7l7.8-4.4l7.7,4.4L50.7,99.1z"/>
		</g>
	</g>
</g>
</svg>
