<?xml version="1.0" encoding="utf-8"?>
<!-- Generator: Adobe Illustrator 22.0.1, SVG Export Plug-In . SVG Version: 6.00 Build 0)  -->
<svg version="1.1" id="Layer_1" xmlns="http://www.w3.org/2000/svg" xmlns:xlink="http://www.w3.org/1999/xlink" x="0px" y="0px"
	 viewBox="0 0 101.5 166.2" style="enable-background:new 0 0 101.5 166.2;" xml:space="preserve">
<style type="text/css">
	.st0{fill:#FFFFFF;}
	.st1{fill:#FD6925;}
	.st2{enable-background:new    ;}
</style>
<title>TARGET 1.1</title>
<g id="WHITE_BG">
	<g>
		<rect y="0" class="st0" width="101.5" height="166"/>
	</g>
</g>
<g id="TARGETS">
	<g>
		<g>
			<path class="st1" d="M6.9,132.2v-6.4h1.9c2.1,0,2.7,1.4,2.7,3.2s-0.6,3.2-2.7,3.2H6.9z M7.9,131.3h1c1.3,0,1.7-0.9,1.7-2.3
				s-0.4-2.3-1.7-2.3h-1L7.9,131.3z"/>
		</g>
		<g>
			<path class="st1" d="M15.8,129.3h-2.7v2H16v0.9h-3.9v-6.4H16v0.9h-2.9v1.8h2.7V129.3z"/>
		</g>
		<g>
			<path class="st1" d="M21.5,125.8l-2,6.5h-1l-2-6.5h1L19,131l1.5-5.2H21.5z"/>
		</g>
		<g>
			<path class="st1" d="M25.6,129.3H23v2h2.9v0.9H22v-6.4h3.9v0.9H23v1.8h2.6V129.3z"/>
		</g>
		<g>
			<path class="st1" d="M27.7,131.3h2.8v0.9h-3.7v-6.4h1L27.7,131.3z"/>
		</g>
		<g>
			<path class="st1" d="M30.5,129c0-1.8,0.4-3.3,2.5-3.3s2.5,1.5,2.5,3.3s-0.4,3.3-2.5,3.3S30.5,130.8,30.5,129z M31.5,129
				c0,1.5,0.3,2.4,1.5,2.4s1.5-0.9,1.5-2.4s-0.3-2.4-1.5-2.4S31.5,127.5,31.5,129L31.5,129z"/>
		</g>
		<g>
			<path class="st1" d="M37.1,132.2h-1v-6.4h2c1.6,0,2.2,1,2.2,2c0,1-0.6,2-2.2,2H37L37.1,132.2z M37.1,128.9h1.1
				c0.6,0,1.1-0.5,1.1-1.1s-0.5-1.1-1.1-1.1l0,0h-1.1V128.9z"/>
		</g>
		<g>
			<path class="st1" d="M46.5,130.3c0,1.2-0.7,2-2.4,2c-0.6,0-1.3-0.1-1.9-0.4v-1c0.6,0.3,1.2,0.4,1.8,0.4c1.2,0,1.5-0.5,1.5-1.1
				s-0.3-0.9-1.2-1c-1.5-0.2-2.2-0.6-2.2-1.8c0-0.9,0.5-1.8,2.3-1.8c0.6,0,1.2,0.1,1.7,0.3v1c-0.5-0.2-1.1-0.3-1.7-0.3
				c-1,0-1.3,0.4-1.3,1c0,0.6,0.4,0.8,1.2,0.9C45.7,128.7,46.5,129,46.5,130.3z"/>
		</g>
		<g>
			<path class="st1" d="M47.1,130.2v-4.4h1v4.3c0,0.8,0.6,1.4,1.4,1.4s1.4-0.6,1.4-1.4v-4.3h1v4.4c0.1,1.1-0.8,2.1-1.9,2.1
				c-0.2,0-0.3,0-0.4,0c-1.1,0.2-2.1-0.5-2.3-1.6C47.1,130.5,47.1,130.4,47.1,130.2z"/>
		</g>
		<g>
			<path class="st1" d="M56.7,130.3c0,1.2-0.7,2-2.4,2c-0.6,0-1.3-0.1-1.9-0.3v-1c0.6,0.3,1.2,0.4,1.8,0.4c1.2,0,1.5-0.5,1.5-1.1
				s-0.3-0.9-1.2-1c-1.6-0.2-2.2-0.6-2.2-1.8c0-0.9,0.5-1.8,2.3-1.8c0.6,0,1.2,0.1,1.7,0.3v1c-0.5-0.2-1.1-0.3-1.7-0.3
				c-1,0-1.3,0.4-1.3,1c0,0.6,0.4,0.8,1.2,0.9C55.9,128.7,56.7,129,56.7,130.3z"/>
		</g>
		<g>
			<path class="st1" d="M59.5,126.7v5.5h-1v-5.5h-1.6v-0.9h4.3v0.9H59.5z"/>
		</g>
		<g>
			<path class="st1" d="M64.2,130.6h-2l-0.5,1.6h-1l2-6.4h1l2,6.4h-1L64.2,130.6z M63.2,127l-0.8,2.8H64L63.2,127z"/>
		</g>
		<g>
			<path class="st1" d="M66.3,132.2v-6.4h1v6.4H66.3z"/>
		</g>
		<g>
			<path class="st1" d="M72.1,132.2l-2.8-4.5v4.5h-1v-6.4h0.9l2.8,4.5v-4.5h0.9v6.4L72.1,132.2z"/>
		</g>
		<g>
			<path class="st1" d="M77,130.6h-2l-0.5,1.6h-1l2-6.4h1l2,6.4h-1L77,130.6z M76,127l-0.8,2.8h1.6L76,127z"/>
		</g>
		<g>
			<path class="st1" d="M79,125.8h2.1c1.6,0,2,0.8,2,1.8c0,0.5-0.3,1-0.8,1.3c0.6,0.2,1.1,0.8,1,1.5c0,1-0.5,1.9-2.2,1.9H79V125.8z
				 M81.2,126.7H80v1.8h1.2c0.8,0,1-0.5,1-0.9S82,126.7,81.2,126.7L81.2,126.7z M79.9,131.3h1.2c0.9,0,1.1-0.5,1.1-1s-0.3-1-1.1-1
				h-1.3L79.9,131.3z"/>
		</g>
		<g>
			<path class="st1" d="M85,131.3h2.8v0.9h-3.7v-6.4h1L85,131.3z"/>
		</g>
		<g>
			<path class="st1" d="M91.9,129.3h-2.7v2h2.9v0.9h-3.9v-6.4h3.9v0.9h-2.9v1.8h2.7V129.3z"/>
		</g>
		<g>
			<path class="st1" d="M93.8,131.3l-0.7,2h-0.7l0.2-2H93.8z"/>
		</g>
		<g>
			<path class="st1" d="M7.8,141.2h-1v-6.4H9c1.6,0,2.2,0.7,2.2,1.9c0.1,0.7-0.3,1.4-1,1.7l1.3,2.8h-1.2l-1.1-2.6H7.8V141.2z
				 M7.8,137.7h1.3c0.9,0,1-0.5,1-1s-0.1-1-1-1H7.8V137.7z"/>
		</g>
		<g>
			<path class="st1" d="M15.7,138.3H13v2h3v0.9h-3.9v-6.4H16v0.9h-3v1.8h2.7V138.3z"/>
		</g>
		<g>
			<path class="st1" d="M21,139.3c0,1.2-0.7,2-2.4,2c-0.6,0-1.3-0.1-1.9-0.4v-1c0.6,0.3,1.2,0.4,1.8,0.4c1.1,0,1.5-0.5,1.5-1.1
				s-0.3-0.9-1.2-1c-1.5-0.2-2.2-0.6-2.2-1.8c0-0.9,0.5-1.9,2.3-1.9c0.6,0,1.2,0.1,1.7,0.3v1c-0.5-0.2-1.1-0.3-1.7-0.3
				c-1,0-1.3,0.4-1.3,1s0.4,0.8,1.2,0.9C20.2,137.7,21,138,21,139.3z"/>
		</g>
		<g>
			<path class="st1" d="M21.8,141.2v-6.4h1v6.4H21.8z"/>
		</g>
		<g>
			<path class="st1" d="M24.8,140.3h2.8v0.9h-3.7v-6.4h1L24.8,140.3L24.8,140.3z"/>
		</g>
		<g>
			<path class="st1" d="M28.2,141.2v-6.4h1v6.4H28.2z"/>
		</g>
		<g>
			<path class="st1" d="M33.8,138.3h-2.6v2h2.9v0.9h-3.9v-6.4h3.9v0.9h-2.9v1.8h2.6V138.3z"/>
		</g>
		<g>
			<path class="st1" d="M38.5,141.2l-2.8-4.5v4.5h-0.9v-6.4h0.9l2.8,4.5v-4.5h0.9v6.4H38.5z"/>
		</g>
		<g>
			<path class="st1" d="M42.5,135.7v5.5h-1v-5.5h-1.6v-0.9h4.3v0.9H42.5z"/>
		</g>
		<g>
			<path class="st1" d="M49.2,139.6h-2l-0.5,1.6h-1l2-6.4h1l2,6.4h-1L49.2,139.6z M48.2,136l-0.8,2.8H49L48.2,136z"/>
		</g>
		<g>
			<path class="st1" d="M54.9,141.2l-2.8-4.5v4.5h-1v-6.4H52l2.8,4.5v-4.5h0.9v6.4H54.9z"/>
		</g>
		<g>
			<path class="st1" d="M56.7,141.2v-6.4h1.9c2.1,0,2.7,1.4,2.7,3.2s-0.6,3.2-2.7,3.2H56.7z M57.7,140.3h1c1.3,0,1.7-0.9,1.7-2.3
				s-0.4-2.3-1.7-2.3h-1V140.3z"/>
		</g>
		<g>
			<path class="st1" d="M7,150.2v-6.4h1v6.4H7z"/>
		</g>
		<g>
			<path class="st1" d="M12.8,150.2l-2.8-4.5v4.5H9.1v-6.4H10l2.8,4.5v-4.5h0.9v6.4H12.8z"/>
		</g>
		<g>
			<path class="st1" d="M17,143.7c0.5,0,1,0.1,1.5,0.3v0.9c-0.5-0.2-0.9-0.3-1.4-0.3c-1.2,0-1.7,0.8-1.7,2.4s0.5,2.4,1.7,2.4
				c0.5,0,1-0.1,1.4-0.3v0.9c-0.5,0.2-1,0.3-1.5,0.3c-1.9,0-2.6-1.2-2.6-3.3S15.1,143.7,17,143.7z"/>
		</g>
		<g>
			<path class="st1" d="M20.2,149.3H23v0.9h-3.7v-6.4h1L20.2,149.3z"/>
		</g>
		<g>
			<path class="st1" d="M23.4,148.2v-4.4h1v4.3c-0.1,0.7,0.4,1.2,1,1.3c0.1,0,0.2,0,0.3,0c0.6,0.1,1.2-0.3,1.4-1c0-0.1,0-0.2,0-0.3
				v-4.3H28v4.4c0.1,1.1-0.8,2.1-1.9,2.1c-0.2,0-0.3,0-0.4,0c-1.1,0.1-2.1-0.7-2.3-1.8C23.4,148.4,23.4,148.3,23.4,148.2z"/>
		</g>
		<g>
			<path class="st1" d="M33.1,148.3c0,1.2-0.7,2-2.4,2c-0.6,0-1.3-0.1-1.9-0.4v-1c0.6,0.3,1.2,0.4,1.8,0.4c1.1,0,1.5-0.5,1.5-1.1
				s-0.3-0.9-1.1-1c-1.6-0.2-2.2-0.6-2.2-1.8c0-0.9,0.5-1.9,2.3-1.9c0.6,0,1.2,0.1,1.7,0.3v1c-0.5-0.2-1.1-0.3-1.7-0.3
				c-1,0-1.3,0.4-1.3,1s0.4,0.8,1.2,0.9C32.3,146.7,33.1,147,33.1,148.3z"/>
		</g>
		<g>
			<path class="st1" d="M34.1,150.2v-6.4h1v6.4H34.1z"/>
		</g>
		<g>
			<path class="st1" d="M40.7,143.8l-2,6.5h-1l-2-6.5h1l1.5,5.2l1.5-5.2H40.7z"/>
		</g>
		<g>
			<path class="st1" d="M44.8,147.3h-2.7v2H45v0.9h-3.9v-6.4H45v0.9h-2.9v1.8h2.7V147.3z"/>
		</g>
		<g>
			<path class="st1" d="M7,159.2v-6.4h1v6.4H7z"/>
		</g>
		<g>
			<path class="st1" d="M12.8,159.2l-2.8-4.5v4.5H9.1v-6.4H10l2.8,4.5v-4.5h0.9v6.4H12.8z"/>
		</g>
		<g>
			<path class="st1" d="M18.1,156.4h-2.6v2.8h-0.9v-6.4h3.8v0.9h-2.9v1.8h2.6V156.4z"/>
		</g>
		<g>
			<path class="st1" d="M19.9,159.2H19v-6.4h2.1c1.6,0,2.2,0.7,2.2,1.9c0.1,0.7-0.3,1.4-1,1.7l1.3,2.8h-1.2l-1.2-2.6h-1.3V159.2z
				 M19.9,155.7h1.2c0.9,0,1-0.5,1-1s-0.1-1-1-1h-1.2V155.7z"/>
		</g>
		<g>
			<path class="st1" d="M27.3,157.6h-2l-0.5,1.6h-1l2-6.4h1l2,6.4h-1L27.3,157.6z M26.3,154l-0.8,2.8h1.6L26.3,154z"/>
		</g>
		<g>
			<path class="st1" d="M33.3,157.3c0,1.2-0.7,2-2.4,2c-0.6,0-1.3-0.1-1.9-0.3v-1c0.6,0.3,1.2,0.4,1.8,0.4c1.1,0,1.5-0.5,1.5-1.1
				s-0.3-0.9-1.2-1c-1.5-0.2-2.2-0.6-2.2-1.8c0-0.9,0.5-1.9,2.3-1.9c0.6,0,1.2,0.1,1.7,0.3v1c-0.5-0.2-1.1-0.3-1.7-0.3
				c-1,0-1.3,0.4-1.3,1s0.4,0.8,1.2,0.9C32.5,155.7,33.3,156,33.3,157.3z"/>
		</g>
		<g>
			<path class="st1" d="M36,153.7v5.5h-1v-5.5h-1.6v-0.9h4.3v0.9H36z"/>
		</g>
		<g>
			<path class="st1" d="M39.3,159.2h-1v-6.4h2.1c1.7,0,2.2,0.7,2.2,1.9c0.1,0.7-0.3,1.4-1,1.7l1.3,2.8h-1.2l-1.2-2.6h-1.3v2.6H39.3z
				 M39.3,155.7h1.3c0.9,0,1-0.5,1-1s-0.1-1-1-1h-1.3V155.7z"/>
		</g>
		<g>
			<path class="st1" d="M43.4,157.2v-4.4h1v4.3c0,0.8,0.6,1.4,1.4,1.4s1.4-0.6,1.4-1.4v-4.3h1v4.4c0,1.1-0.8,2.1-2,2.1
				c-0.1,0-0.2,0-0.3,0c-1.1,0.2-2.2-0.6-2.4-1.7C43.4,157.5,43.4,157.3,43.4,157.2z"/>
		</g>
		<g>
			<path class="st1" d="M51.4,152.7c0.5,0,1,0.1,1.5,0.3v0.9c-0.5-0.2-0.9-0.3-1.4-0.3c-1.2,0-1.7,0.8-1.7,2.4s0.5,2.4,1.7,2.4
				c0.5,0,1-0.1,1.4-0.3v0.9c-0.5,0.2-1,0.3-1.5,0.3c-1.9,0-2.6-1.2-2.6-3.3S49.5,152.7,51.4,152.7z"/>
		</g>
		<g>
			<path class="st1" d="M55.8,153.7v5.5h-1v-5.5h-1.6v-0.9h4.3v0.9H55.8z"/>
		</g>
		<g>
			<path class="st1" d="M58,157.2v-4.4h1v4.3c0,0.8,0.6,1.4,1.4,1.4s1.4-0.6,1.4-1.4v-4.3h1v4.4c-0.1,1.3-1.2,2.2-2.5,2.2
				C59.1,159.3,58.2,158.4,58,157.2L58,157.2z"/>
		</g>
		<g>
			<path class="st1" d="M64.5,159.2h-1v-6.4h2.1c1.7,0,2.2,0.7,2.2,1.9c0.1,0.7-0.3,1.4-1,1.7l1.3,2.8h-1.2l-1.2-2.6h-1.3
				L64.5,159.2L64.5,159.2z M64.5,155.7h1.3c0.9,0,1-0.5,1-1s-0.1-1-1-1h-1.3V155.7z"/>
		</g>
		<g>
			<path class="st1" d="M72.3,156.3h-2.7v2h2.9v0.9h-3.9v-6.4h3.9v0.9h-2.9v1.8h2.7V156.3z"/>
		</g>
		<g>
			<path class="st1" d="M77.6,157.3c0,1.2-0.7,2-2.4,2c-0.6,0-1.3-0.1-1.9-0.4v-1c0.6,0.3,1.2,0.4,1.8,0.4c1.2,0,1.5-0.5,1.5-1.1
				s-0.3-0.9-1.2-1c-1.6-0.2-2.2-0.6-2.2-1.8c0-0.9,0.5-1.9,2.3-1.9c0.6,0,1.2,0.1,1.7,0.3v1c-0.5-0.2-1.1-0.3-1.7-0.3
				c-1,0-1.3,0.4-1.3,1s0.4,0.8,1.2,0.9C76.8,155.7,77.6,156,77.6,157.3z"/>
		</g>
	</g>
	<g>
		<rect x="3.3" y="24" class="st1" width="94.8" height="94.8"/>
	</g>
	<g>
		<path class="st1" d="M98.2,20.7H3.3V3.3h94.8L98.2,20.7L98.2,20.7z M4.3,19.7h92.8V4.3H4.3V19.7z"/>
	</g>
	<g class="st2">
		<path class="st1" d="M6.7,6.9h4.5v1.4H9.9v8.8H8.1V8.3H6.7V6.9z"/>
	</g>
	<g class="st2">
		<path class="st1" d="M11.2,17.1l1.9-10.2H15l2,10.2h-1.8l-0.3-1.9h-1.8l-0.3,1.9H11.2z M13.3,13.9h1.4L14,9.8l0,0L13.3,13.9z"/>
	</g>
	<g class="st2">
		<path class="st1" d="M19.6,12.4v4.7h-1.7V6.9h2.5c1.7,0,2.4,0.9,2.4,2.3v1.3c0,1.1-0.4,1.7-1.4,2l1.6,4.6h-1.8L19.6,12.4z
			 M19.6,8.3v3.2h0.6c0.6,0,0.8-0.3,0.8-0.8V9.2c0-0.6-0.3-0.8-0.8-0.8L19.6,8.3L19.6,8.3z"/>
	</g>
	<g class="st2">
		<path class="st1" d="M26.4,11.7h2.4v5.4h-1.2V16c-0.2,0.8-0.7,1.2-1.6,1.2c-1.5,0-2.1-1.2-2.1-2.7V9.6c0-1.6,0.8-2.7,2.6-2.7
			c1.9,0,2.4,1.1,2.4,2.6v0.9h-1.6v-1c0-0.6-0.2-1-0.9-1c-0.6,0-0.9,0.4-0.9,1v5.5c0,0.6,0.3,1,0.8,1c0.6,0,0.8-0.3,0.8-1V13h-0.8
			v-1.3H26.4z"/>
	</g>
	<g class="st2">
		<path class="st1" d="M30.2,6.9h4.1v1.4h-2.4v2.9h1.7v1.4h-1.7v3.1h2.4v1.4h-4.1C30.2,17.1,30.2,6.9,30.2,6.9z"/>
	</g>
	<g class="st2">
		<path class="st1" d="M35.1,6.9h4.5v1.4h-1.4v8.8h-1.7V8.3h-1.4C35.1,8.3,35.1,6.9,35.1,6.9z"/>
	</g>
	<g class="st2">
		<path class="st1" d="M85.7,9.5v4.9c0,1.6-0.7,2.7-2.5,2.7c-1.9,0-2.4-1-2.4-2.5v-0.5h1.6v0.7c0,0.6,0.2,1,0.8,1s0.9-0.4,0.9-1
			v-2.2l0,0c-0.3,0.5-0.7,0.8-1.4,0.8c-1.2,0-1.9-0.8-1.9-2.5V9.4c0-1.6,0.7-2.6,2.5-2.6C85,6.8,85.7,8,85.7,9.5z M82.4,9.2V11
			c0,0.7,0.2,1,0.8,1c0.5,0,0.8-0.4,0.8-0.9V9.2c0-0.6-0.2-1-0.8-1S82.4,8.6,82.4,9.2z"/>
	</g>
	<g class="st2">
		<path class="st1" d="M88.6,10.8c0.7,0,1.2,0.6,1.2,1.2c0,0.7-0.6,1.2-1.2,1.2c-0.7,0-1.2-0.6-1.2-1.2
			C87.4,11.4,87.9,10.8,88.6,10.8z"/>
	</g>
	<g class="st2">
		<path class="st1" d="M94.1,6.9v10.2h-1.7V9.3l0,0l-1.2,1.2l0,0V8.8L92.8,7L94.1,6.9L94.1,6.9z"/>
	</g>
	<g>
		<g>
			<path class="st0" d="M65.1,71.5l-6.8-3.9v-7.9c0-0.2-0.1-0.3-0.2-0.4l-7-4.1c-0.1-0.1-0.3-0.1-0.5,0l-7.1,4.1
				c-0.1,0.1-0.2,0.2-0.2,0.4v7.9l-6.9,3.9c-0.1,0.1-0.2,0.2-0.2,0.4V80c0,0.2,0.1,0.3,0.2,0.4l7.1,4.1c0.1,0.1,0.3,0.1,0.5,0
				l6.8-3.9l6.8,3.9c0.1,0.1,0.3,0.1,0.5,0l7.1-4.1c0.1-0.1,0.2-0.2,0.2-0.4v-8.2C65.3,71.7,65.2,71.6,65.1,71.5z M50.3,79.2
				L44.6,76l5.7-3.3V79.2z M56.9,67.8l-5.7,3.3v-6.5L56.9,67.8z M50.3,71.1l-5.7-3.3l5.7-3.3V71.1z M51.7,71.9l6.1-3.5l6.1,3.5
				l-6.1,3.5L51.7,71.9z M57.3,67l-5.7-3.3l5.7-3.3V67z M49.8,63.7L44.2,67v-6.5L49.8,63.7z M43.2,83.3l-6.1-3.5v-7.1l6.1,3.5V83.3z
				 M44.2,83.3v-6.5l5.7,3.3L44.2,83.3z M64.4,79.8l-6.1,3.5v-7.1l6.1-3.5V79.8z"/>
		</g>
		<g>
			<g>
				<path class="st0" d="M32.5,60.8c0.9-1.6,2.1-3,3.4-4.3l-11-12.1c-2.8,2.7-5.2,5.7-7,9.1L32.5,60.8z"/>
			</g>
			<g>
				<path class="st0" d="M59.5,52.2c1.7,0.8,3.2,1.7,4.6,2.9l11-12c-2.9-2.5-6.2-4.6-9.8-6.1L59.5,52.2z"/>
			</g>
			<g>
				<path class="st0" d="M84.8,55.9l-14.6,7.3c0.7,1.7,1.2,3.4,1.5,5.2L88,66.9C87.5,63,86.4,59.3,84.8,55.9"/>
			</g>
			<g>
				<path class="st0" d="M69.1,61l14.6-7.3c-1.8-3.4-4.1-6.4-6.8-9.1l-11,12C67.2,58,68.3,59.4,69.1,61"/>
			</g>
			<g>
				<path class="st0" d="M29.6,71.5c0-0.3,0-0.7,0-1L13.4,69c0,0.8-0.1,1.6-0.1,2.4c0,3.1,0.4,6.1,1.1,9.1L30.1,76
					C29.8,74.5,29.6,73,29.6,71.5"/>
			</g>
			<g>
				<path class="st0" d="M67.1,84.8c-1.2,1.4-2.5,2.7-4,3.7l8.6,13.9c3.2-2.2,6-4.8,8.4-7.8L67.1,84.8z"/>
			</g>
			<g>
				<path class="st0" d="M71.9,71.5c0,1.5-0.2,3-0.5,4.5l15.7,4.5c0.7-2.9,1.1-6,1.1-9c0-0.8,0-1.5-0.1-2.3l-16.3,1.5
					C71.8,70.9,71.8,71.2,71.9,71.5"/>
			</g>
			<g>
				<path class="st0" d="M34.7,85.1l-13,9.9c2.4,3,5.3,5.6,8.5,7.7l8.6-13.9C37.3,87.8,35.9,86.6,34.7,85.1"/>
			</g>
			<g>
				<path class="st0" d="M29.9,68.1c0.3-1.8,0.8-3.6,1.6-5.2l-14.6-7.3c-1.6,3.5-2.7,7.2-3.2,11.1L29.9,68.1z"/>
			</g>
			<g>
				<path class="st0" d="M69.7,103.8l-8.6-13.9c-1.6,0.9-3.3,1.6-5,2l3,16.1C62.8,107.1,66.4,105.7,69.7,103.8"/>
			</g>
			<g>
				<path class="st0" d="M70.8,78.2c-0.6,1.7-1.3,3.2-2.3,4.7l13.1,9.8c2.1-3.1,3.8-6.4,4.9-10L70.8,78.2z"/>
			</g>
			<g>
				<path class="st0" d="M53.8,92.4c-1,0.1-2,0.2-3,0.2c-0.8,0-1.6,0-2.5-0.1l-3,16.1c3.8,0.6,7.7,0.5,11.6-0.1L53.8,92.4z"/>
			</g>
			<g>
				<path class="st0" d="M52.1,50.4c1.8,0.1,3.5,0.4,5.2,1l5.9-15.3c-3.6-1.3-7.3-2-11.1-2.1V50.4z"/>
			</g>
			<g>
				<path class="st0" d="M46,92c-1.8-0.4-3.5-1.1-5.2-2l-8.7,14c3.4,1.9,7,3.3,10.8,4.1L46,92z"/>
			</g>
			<g>
				<path class="st0" d="M44.4,51.3c1.7-0.5,3.5-0.9,5.3-1V34c-3.8,0.1-7.6,0.8-11.2,2L44.4,51.3z"/>
			</g>
			<g>
				<path class="st0" d="M33.2,83.3c-1.1-1.5-1.9-3.2-2.5-5L15,82.8c1.2,3.7,2.9,7.2,5.2,10.4L33.2,83.3z"/>
			</g>
			<g>
				<path class="st0" d="M37.7,54.9c1.4-1.1,2.9-2,4.5-2.7L36.3,37c-3.5,1.5-6.7,3.5-9.6,5.9L37.7,54.9z"/>
			</g>
		</g>
	</g>
	<g>
		<path class="st1" d="M98.2,162.9h-95v-40.7h95V162.9z M4.2,161.9h93v-38.7h-93C4.2,123.2,4.2,161.9,4.2,161.9z"/>
	</g>
</g>
</svg>
