<?xml version="1.0" encoding="utf-8"?>
<!-- Generator: Adobe Illustrator 22.0.1, SVG Export Plug-In . SVG Version: 6.00 Build 0)  -->
<svg version="1.1" id="Layer_1" xmlns="http://www.w3.org/2000/svg" xmlns:xlink="http://www.w3.org/1999/xlink" x="0px" y="0px"
	 viewBox="0 0 101.5 166.2" style="enable-background:new 0 0 101.5 166.2;" xml:space="preserve">
<style type="text/css">
	.st0{fill:#FFFFFF;}
	.st1{fill:#FD6925;}
	.st2{enable-background:new    ;}
</style>
<title>TARGET 1 B copy 3</title>
<g id="WHITE_BG">
	<g>
		<rect y="0" class="st0" width="101.5" height="166.2"/>
	</g>
</g>
<g id="TARGETS">
	<g>
		<g>
			<path class="st1" d="M6.8,130.2v-4.4h1v4.3c-0.1,0.7,0.4,1.2,1,1.3c0.1,0,0.2,0,0.3,0c0.7,0.1,1.3-0.4,1.4-1c0-0.1,0-0.2,0-0.3
				v-4.3h1v4.4c0.1,1.1-0.8,2.1-1.9,2.1c-0.1,0-0.3,0-0.4,0c-1.1,0.2-2.1-0.5-2.4-1.5C6.8,130.6,6.8,130.4,6.8,130.2z"/>
		</g>
		<g>
			<path class="st1" d="M13.3,132.2h-0.9v-6.4h2c1.6,0,2.2,1,2.2,2c0,1-0.6,2-2.2,2h-1.1L13.3,132.2z M13.3,128.9h1.1
				c0.6,0.1,1.2-0.4,1.2-1c0.1-0.6-0.4-1.2-1-1.2c-0.1,0-0.1,0-0.2,0h-1.1V128.9z"/>
		</g>
		<g>
			<path class="st1" d="M17,129c0-2,0.7-3.3,2.6-3.3c0.6,0,1.3,0.1,1.8,0.3v1c-0.5-0.2-1.1-0.4-1.7-0.4c-1.3,0-1.8,0.9-1.8,2.4
				s0.5,2.4,1.8,2.4c0.3,0,0.6,0,0.9-0.1v-1.7h-1.1v-0.9h2.1v3.2c-0.6,0.3-1.3,0.4-2,0.4C17.7,132.3,17,131,17,129z"/>
		</g>
		<g>
			<path class="st1" d="M23.5,132.2h-1v-6.4h2.1c1.6,0,2.2,0.7,2.2,1.9c0.1,0.7-0.3,1.4-1,1.7l1.3,2.8H26l-1.2-2.6h-1.3V132.2z
				 M23.5,128.7h1.2c0.9,0,1-0.5,1-1s-0.1-1-1-1h-1.2V128.7z"/>
		</g>
		<g>
			<path class="st1" d="M30.8,130.6h-2l-0.5,1.6h-1l2-6.4h1l2,6.4h-1L30.8,130.6z M29.8,127l-0.8,2.8h1.6L29.8,127z"/>
		</g>
		<g>
			<path class="st1" d="M32.8,132.2v-6.4h1.9c2.1,0,2.7,1.4,2.7,3.2s-0.6,3.2-2.7,3.2L32.8,132.2z M33.8,131.3h1
				c1.3,0,1.7-0.9,1.7-2.3s-0.4-2.3-1.7-2.3h-1V131.3z"/>
		</g>
		<g>
			<path class="st1" d="M41.9,129.3h-2.7v2h2.9v0.9h-3.9v-6.4h3.9v0.9h-2.9v1.8h2.7V129.3z"/>
		</g>
		<g>
			<path class="st1" d="M47.6,130.6h-2l-0.5,1.6h-1l2-6.4h1l2,6.4H48L47.6,130.6z M46.6,127l-0.8,2.8h1.6L46.6,127z"/>
		</g>
		<g>
			<path class="st1" d="M50.5,131.3h2.8v0.9h-3.7v-6.4h1L50.5,131.3z"/>
		</g>
		<g>
			<path class="st1" d="M54.8,131.3h2.8v0.9h-3.7v-6.4h1L54.8,131.3z"/>
		</g>
		<g>
			<path class="st1" d="M7,141.2v-6.4h1v6.4H7z"/>
		</g>
		<g>
			<path class="st1" d="M12.8,141.2l-2.8-4.5v4.5H9.1v-6.4h0.9l2.8,4.5v-4.5h0.9v6.4H12.8z"/>
		</g>
		<g>
			<path class="st1" d="M14.6,141.2v-6.4h1.9c2.1,0,2.7,1.4,2.7,3.2s-0.6,3.2-2.7,3.2H14.6z M15.5,140.3h1c1.3,0,1.7-0.9,1.7-2.3
				s-0.4-2.3-1.7-2.3h-1L15.5,140.3z"/>
		</g>
		<g>
			<path class="st1" d="M19.8,139.2v-4.4h1v4.3c-0.1,0.7,0.4,1.3,1,1.3c0.1,0,0.2,0,0.3,0c0.6,0.1,1.3-0.3,1.4-1c0-0.1,0-0.2,0-0.3
				v-4.3h1v4.4c0,1.1-0.8,2.1-2,2.1c-0.1,0-0.2,0-0.3,0c-1.1,0.2-2.1-0.5-2.3-1.6C19.8,139.5,19.8,139.4,19.8,139.2z"/>
		</g>
		<g>
			<path class="st1" d="M29.4,139.3c0,1.2-0.7,2-2.4,2c-0.6,0-1.3-0.1-1.9-0.4V140c0.6,0.3,1.2,0.4,1.8,0.4c1.1,0,1.5-0.5,1.5-1.1
				s-0.3-0.9-1.2-1c-1.5-0.2-2.2-0.6-2.2-1.8c0-0.9,0.5-1.8,2.3-1.8c0.6,0,1.2,0.1,1.7,0.3v1c-0.5-0.2-1.1-0.3-1.7-0.3
				c-1,0-1.3,0.4-1.3,1s0.4,0.8,1.2,0.9C28.6,137.7,29.4,138,29.4,139.3z"/>
		</g>
		<g>
			<path class="st1" d="M32.2,135.7v5.5h-1v-5.5h-1.7v-0.9h4.3v0.9H32.2z"/>
		</g>
		<g>
			<path class="st1" d="M35.3,141.2h-1v-6.4h2.1c1.6,0,2.2,0.7,2.2,1.9c0.1,0.7-0.3,1.4-1,1.7l1.3,2.8h-1.1l-1.2-2.6h-1.3V141.2z
				 M35.3,137.7h1.3c0.9,0,1-0.5,1-1s-0.1-1-1-1h-1.3V137.7z"/>
		</g>
		<g>
			<path class="st1" d="M39.7,141.2v-6.4h1v6.4H39.7z"/>
		</g>
		<g>
			<path class="st1" d="M45.3,138.3h-2.7v2h2.9v0.9h-3.9v-6.4h3.9v0.9h-2.9v1.8h2.7V138.3z"/>
		</g>
		<g>
			<path class="st1" d="M50.6,139.3c0,1.2-0.7,2-2.4,2c-0.6,0-1.3-0.1-1.9-0.4V140c0.6,0.3,1.2,0.4,1.8,0.4c1.2,0,1.5-0.5,1.5-1.1
				s-0.3-0.9-1.2-1c-1.5-0.2-2.2-0.6-2.2-1.8c0-0.9,0.5-1.8,2.3-1.8c0.6,0,1.2,0.1,1.7,0.3v1c-0.5-0.2-1.1-0.3-1.7-0.3
				c-1,0-1.3,0.4-1.3,1s0.4,0.8,1.2,0.9C49.8,137.7,50.6,138,50.6,139.3z"/>
		</g>
		<g>
			<path class="st1" d="M56,139.6h-2l-0.5,1.6h-1l2-6.4h1l2,6.4h-1L56,139.6z M55,136l-0.8,2.8h1.6L55,136z"/>
		</g>
		<g>
			<path class="st1" d="M61.7,141.2l-2.8-4.5v4.5H58v-6.4h0.9l2.8,4.5v-4.5h1v6.4H61.7z"/>
		</g>
		<g>
			<path class="st1" d="M63.5,141.2v-6.4h1.9c2.1,0,2.7,1.4,2.7,3.2s-0.6,3.2-2.7,3.2H63.5z M64.5,140.3h1c1.3,0,1.7-0.9,1.7-2.3
				s-0.4-2.3-1.7-2.3h-1V140.3z"/>
		</g>
		<g>
			<path class="st1" d="M7,150.2v-6.4h1v6.4H7z"/>
		</g>
		<g>
			<path class="st1" d="M12.8,150.2l-2.8-4.5v4.5H9.1v-6.4h0.9l2.8,4.5v-4.5h0.9v6.4H12.8z"/>
		</g>
		<g>
			<path class="st1" d="M18.1,147.4h-2.6v2.8h-0.9v-6.4h3.8v0.9h-2.9v1.8h2.6V147.4z"/>
		</g>
		<g>
			<path class="st1" d="M19.9,150.2H19v-6.4h2.1c1.6,0,2.2,0.7,2.2,1.9c0.1,0.7-0.3,1.4-1,1.7l1.3,2.8h-1.2l-1.2-2.6h-1.3V150.2z
				 M19.9,146.7h1.3c0.9,0,1-0.5,1-1s-0.1-1-1-1h-1.3V146.7z"/>
		</g>
		<g>
			<path class="st1" d="M27.3,148.6h-2l-0.5,1.6h-1l2-6.4h1l2,6.4h-1L27.3,148.6z M26.3,145l-0.8,2.8h1.6L26.3,145z"/>
		</g>
		<g>
			<path class="st1" d="M33.3,148.3c0,1.2-0.7,2-2.4,2c-0.6,0-1.3-0.1-1.9-0.4V149c0.6,0.3,1.2,0.4,1.8,0.4c1.1,0,1.5-0.5,1.5-1.1
				s-0.3-0.9-1.2-1c-1.6-0.2-2.2-0.6-2.2-1.8c0-0.9,0.5-1.8,2.3-1.8c0.6,0,1.2,0.1,1.8,0.3v1c-0.5-0.2-1.1-0.3-1.7-0.3
				c-1,0-1.3,0.4-1.3,1s0.4,0.8,1.2,0.9C32.5,146.7,33.3,147,33.3,148.3z"/>
		</g>
		<g>
			<path class="st1" d="M36.1,144.7v5.5h-1v-5.5h-1.6v-0.9h4.3v0.9H36.1z"/>
		</g>
		<g>
			<path class="st1" d="M39.4,150.2h-1v-6.4h2.1c1.7,0,2.2,0.7,2.2,1.9c0.1,0.7-0.3,1.4-1,1.7l1.3,2.8h-1.1l-1.2-2.6h-1.3V150.2z
				 M39.4,146.7h1.3c0.9,0,1-0.5,1-1s-0.1-1-1-1h-1.3V146.7z"/>
		</g>
		<g>
			<path class="st1" d="M43.5,148.2v-4.4h1v4.3c0,0.8,0.6,1.4,1.4,1.4s1.4-0.6,1.4-1.4v-4.3h1v4.4c0.1,1.1-0.8,2.1-1.9,2.1
				c-0.1,0-0.3,0-0.4,0c-1.1,0.2-2.1-0.5-2.3-1.6C43.5,148.5,43.5,148.4,43.5,148.2z"/>
		</g>
		<g>
			<path class="st1" d="M51.4,143.7c0.5,0,1,0.1,1.5,0.3v0.9c-0.4-0.2-0.9-0.3-1.4-0.3c-1.2,0-1.7,0.8-1.7,2.4s0.5,2.4,1.7,2.4
				c0.5,0,1-0.1,1.4-0.3v0.9c-0.5,0.2-1,0.3-1.5,0.3c-1.9,0-2.6-1.2-2.6-3.3S49.5,143.7,51.4,143.7z"/>
		</g>
		<g>
			<path class="st1" d="M56,144.7v5.5h-1v-5.5h-1.6v-0.9h4.3v0.9H56z"/>
		</g>
		<g>
			<path class="st1" d="M58.1,148.2v-4.4h1v4.3c0,0.8,0.6,1.4,1.4,1.4s1.4-0.6,1.4-1.4v-4.3h1v4.4c-0.1,1.3-1.3,2.2-2.6,2.1
				C59.2,150.1,58.4,149.3,58.1,148.2L58.1,148.2z"/>
		</g>
		<g>
			<path class="st1" d="M64.6,150.2h-1v-6.4h2.1c1.7,0,2.2,0.7,2.2,1.9c0.1,0.7-0.3,1.4-1,1.7l1.3,2.8h-1.2l-1.1-2.6h-1.4V150.2z
				 M64.6,146.7h1.3c0.9,0,1-0.5,1-1s-0.1-1-1-1h-1.3V146.7z"/>
		</g>
		<g>
			<path class="st1" d="M72.5,147.3h-2.7v2h2.9v0.9h-3.9v-6.4h3.9v0.9h-2.9v1.8h2.7V147.3z"/>
		</g>
		<g>
			<path class="st1" d="M77.8,148.3c0,1.2-0.7,2-2.4,2c-0.6,0-1.3-0.1-1.9-0.4V149c0.6,0.3,1.2,0.4,1.8,0.4c1.2,0,1.5-0.5,1.5-1.1
				s-0.3-0.9-1.2-1c-1.6-0.2-2.2-0.6-2.2-1.8c0-0.9,0.5-1.8,2.3-1.8c0.6,0,1.2,0.1,1.7,0.3v1c-0.5-0.2-1.1-0.3-1.7-0.3
				c-1,0-1.3,0.4-1.3,1s0.4,0.8,1.2,0.9C77,146.7,77.8,147,77.8,148.3z"/>
		</g>
		<g>
			<path class="st1" d="M10.4,156.4H7.8v2.8h-1v-6.4h3.9v0.9H7.8v1.8h2.6V156.4z"/>
		</g>
		<g>
			<path class="st1" d="M11.2,156c0-1.8,0.4-3.3,2.5-3.3s2.4,1.5,2.4,3.3s-0.4,3.3-2.4,3.3S11.2,157.8,11.2,156z M12.2,156
				c0,1.5,0.3,2.4,1.5,2.4s1.5-0.9,1.5-2.4s-0.3-2.4-1.5-2.4S12.1,154.5,12.2,156L12.2,156z"/>
		</g>
		<g>
			<path class="st1" d="M17.8,159.2h-1v-6.4h2.1c1.6,0,2.2,0.7,2.2,1.9c0.1,0.7-0.3,1.4-1,1.7l1.3,2.8h-1.1l-1.2-2.6h-1.3V159.2z
				 M17.8,155.7H19c0.9,0,1-0.5,1-1s-0.1-1-1-1h-1.2V155.7z"/>
		</g>
		<g>
			<path class="st1" d="M27.5,157.3c0,1.2-0.7,2-2.4,2c-0.6,0-1.3-0.1-1.9-0.4V158c0.6,0.3,1.2,0.4,1.8,0.4c1.1,0,1.5-0.5,1.5-1.1
				s-0.3-0.9-1.2-1c-1.5-0.2-2.2-0.6-2.2-1.8c0-0.9,0.5-1.8,2.3-1.8c0.6,0,1.2,0.1,1.7,0.3v1c-0.5-0.2-1.1-0.3-1.7-0.3
				c-1,0-1.3,0.4-1.3,1s0.4,0.8,1.2,0.9C26.8,155.7,27.5,156,27.5,157.3z"/>
		</g>
		<g>
			<path class="st1" d="M28.3,157.2v-4.4h1v4.3c-0.1,0.7,0.4,1.2,1,1.3c0.1,0,0.2,0,0.3,0c0.7,0.1,1.2-0.4,1.3-1c0-0.1,0-0.2,0-0.3
				v-4.3h1v4.4c0.1,1.1-0.8,2.1-1.9,2.1c-0.1,0-0.3,0-0.4,0c-1.1,0.2-2.1-0.5-2.3-1.6C28.3,157.5,28.3,157.4,28.3,157.2z"/>
		</g>
		<g>
			<path class="st1" d="M38,157.3c0,1.2-0.7,2-2.4,2c-0.6,0-1.3-0.1-1.9-0.4V158c0.6,0.3,1.2,0.4,1.8,0.4c1.2,0,1.5-0.5,1.5-1.1
				s-0.3-0.9-1.2-1c-1.5-0.2-2.2-0.6-2.2-1.8c0-0.9,0.5-1.8,2.3-1.8c0.6,0,1.2,0.1,1.7,0.3v1c-0.5-0.2-1.1-0.3-1.7-0.3
				c-1,0-1.3,0.4-1.3,1s0.4,0.8,1.2,0.9C37.2,155.7,38,156,38,157.3z"/>
		</g>
		<g>
			<path class="st1" d="M40.9,153.7v5.5h-1v-5.5h-1.6v-0.9h4.3v0.9H40.9z"/>
		</g>
		<g>
			<path class="st1" d="M45.6,157.6h-2l-0.5,1.6h-1l2-6.4h1l2,6.4h-1L45.6,157.6z M44.6,154l-0.8,2.8h1.6L44.6,154z"/>
		</g>
		<g>
			<path class="st1" d="M47.8,159.2v-6.4h1v6.4H47.8z"/>
		</g>
		<g>
			<path class="st1" d="M53.5,159.2l-2.8-4.5v4.5h-0.9v-6.4h0.9l2.8,4.5v-4.5h0.9v6.4H53.5z"/>
		</g>
		<g>
			<path class="st1" d="M58.4,157.6h-2l-0.5,1.6h-1l2-6.4h1l2,6.4h-1L58.4,157.6z M57.4,154l-0.8,2.8h1.6L57.4,154z"/>
		</g>
		<g>
			<path class="st1" d="M60.4,152.8h2.1c1.5,0,2,0.8,2,1.7c0,0.5-0.3,1-0.8,1.3c0.6,0.2,1.1,0.8,1,1.5c0,1.1-0.5,1.9-2.2,1.9h-2.2
				V152.8z M62.6,153.7h-1.2v1.8h1.2c0.4,0.1,0.9-0.2,0.9-0.7c0-0.1,0-0.1,0-0.2C63.5,154.2,63.4,153.7,62.6,153.7z M61.4,158.3h1.3
				c0.9,0,1.1-0.5,1.1-1s-0.3-1-1.1-1h-1.3V158.3z"/>
		</g>
		<g>
			<path class="st1" d="M65.6,159.2v-6.4h1v6.4H65.6z"/>
		</g>
		<g>
			<path class="st1" d="M68.6,158.3h2.8v0.9h-3.7v-6.4h1L68.6,158.3z"/>
		</g>
		<g>
			<path class="st1" d="M72,159.2v-6.4h1v6.4H72z"/>
		</g>
		<g>
			<path class="st1" d="M76.4,153.7v5.5h-1v-5.5h-1.6v-0.9h4.3v0.9H76.4z"/>
		</g>
		<g>
			<path class="st1" d="M81.4,156.6v2.6h-1v-2.6l-2.2-3.8h1.1l1.6,3l1.6-3h1.1L81.4,156.6z"/>
		</g>
	</g>
	<g>
		<rect x="3.3" y="24" class="st1" width="94.8" height="94.8"/>
	</g>
	<g class="st2">
		<path class="st1" d="M83.6,9.5v4.9c0,1.6-0.7,2.7-2.5,2.7c-1.9,0-2.4-1-2.4-2.5v-0.5h1.6v0.7c0,0.6,0.2,1,0.8,1
			c0.6,0,0.9-0.4,0.9-1v-2.2h0c-0.3,0.5-0.7,0.8-1.4,0.8c-1.2,0-1.9-0.8-1.9-2.5V9.4c0-1.6,0.7-2.6,2.5-2.6
			C82.9,6.8,83.6,8,83.6,9.5z M80.3,9.2V11c0,0.7,0.2,1,0.8,1c0.5,0,0.8-0.4,0.8-0.9V9.2c0-0.6-0.2-1-0.8-1
			C80.5,8.2,80.3,8.6,80.3,9.2z"/>
	</g>
	<g class="st2">
	</g>
	<g class="st2">
		<path class="st1" d="M86.5,10.8c0.7,0,1.2,0.6,1.2,1.2c0,0.7-0.6,1.2-1.2,1.2c-0.7,0-1.2-0.6-1.2-1.2
			C85.3,11.4,85.8,10.8,86.5,10.8z"/>
	</g>
	<g class="st2">
		<path class="st1" d="M89.1,14.4l3-7.5h1.7v7.2h0.7v1.3h-0.7v1.7h-1.6v-1.7h-3V14.4z M90.6,14.1h1.5V9.9h0L90.6,14.1z"/>
	</g>
	<g>
		<path class="st1" d="M98.2,20.7H3.3V3.3h94.8V20.7z M4.3,19.7h92.8V4.3H4.3L4.3,19.7z"/>
	</g>
	<g class="st2">
		<path class="st1" d="M6.7,6.9h4.5v1.4H9.9v8.8H8.1V8.3H6.7V6.9z"/>
	</g>
	<g class="st2">
		<path class="st1" d="M11.2,17.1l1.9-10.2h1.9L17,17.1h-1.8l-0.3-1.9h-1.8l-0.3,1.9H11.2z M13.3,13.9h1.4L14,9.8h0L13.3,13.9z"/>
	</g>
	<g class="st2">
		<path class="st1" d="M19.6,12.4v4.7h-1.7V6.9h2.5c1.7,0,2.4,0.9,2.4,2.3v1.3c0,1.1-0.4,1.7-1.4,2l1.6,4.6h-1.8L19.6,12.4z
			 M19.6,8.3v3.2h0.6c0.6,0,0.8-0.3,0.8-0.8V9.2c0-0.6-0.3-0.8-0.8-0.8H19.6z"/>
	</g>
	<g class="st2">
		<path class="st1" d="M26.4,11.7h2.4v5.4h-1.2V16c-0.2,0.8-0.7,1.2-1.6,1.2c-1.5,0-2.1-1.2-2.1-2.7V9.6c0-1.6,0.8-2.7,2.6-2.7
			c1.9,0,2.4,1.1,2.4,2.6v0.9h-1.6v-1c0-0.6-0.2-1-0.9-1c-0.6,0-0.9,0.4-0.9,1v5.5c0,0.6,0.3,1,0.8,1c0.6,0,0.8-0.3,0.8-1V13h-0.8
			V11.7z"/>
	</g>
	<g class="st2">
		<path class="st1" d="M30.2,6.9h4.1v1.4h-2.4v2.9h1.7v1.4h-1.7v3.1h2.4v1.4h-4.1V6.9z"/>
	</g>
	<g class="st2">
		<path class="st1" d="M35.1,6.9h4.5v1.4h-1.4v8.8h-1.7V8.3h-1.4V6.9z"/>
	</g>
	<g>
		<path class="st1" d="M98.2,162.9h-95v-40.7h95V162.9z M4.2,161.9h93v-38.7h-93V161.9z"/>
	</g>
	<g>
		<g>
			<path class="st0" d="M68.4,90.5c-2-1.5-4.4-2.3-6.9-2.3c-0.6,0-1.1,0-1.7,0.2h-0.2c-1.6,0.4-4.4,1-7.6,5L52,93.5
				c-0.1,0.1-0.1,0.2-0.1,0.2c0,0.1,0,0.2,0.1,0.2l0.1,0.1c0.5,0.9,1,1.7,1.3,2.3c0.1,0.2,0.4,0.3,0.6,0.2c0,0,0.1-0.1,0.1-0.1
				l0.1-0.1c2.8-3.8,4.9-4.3,6.3-4.7h0.2c0.3-0.1,0.6-0.1,0.9-0.1c1.7,0,3.4,0.5,4.8,1.5c1.6,1.3,2.4,3.3,2.4,6c0,4.6-2.2,6.3-4.1,7
				c-0.7,0.3-1.5,0.4-2.3,0.4c-1.2,0-2.3-0.3-3.4-0.8l-0.1-0.1c-1.6-0.7-4-2.1-6.2-6.7C48,89.9,44.2,89,41.6,88.4h-0.1
				c-0.5-0.1-1.1-0.2-1.7-0.2c-2.5,0-4.8,0.7-6.8,2.2c-1.7,1.3-3.7,3.9-3.7,8.7c-0.3,5.6,3.9,10.3,9.5,10.7c0.3,0,0.5,0,0.8,0
				c0.8,0,1.6-0.1,2.3-0.2c1.5-0.3,2.8-0.9,4-1.8l1.3,1.2c0.2,0.1,0.4,0.1,0.5,0c0.1-0.1,0.1-0.2,0.1-0.3l1-6.4v-0.1
				c0-0.1,0-0.2-0.1-0.3c-0.1-0.1-0.2-0.1-0.3-0.1l0,0l-6.3,1.7h-0.1c-0.1,0-0.1,0.1-0.2,0.1c-0.1,0.1-0.1,0.2-0.1,0.3
				c0,0.1,0.1,0.2,0.1,0.3l1.3,1.2c-0.6,0.4-1.3,0.7-2,0.8c-0.5,0.1-1.1,0.2-1.7,0.2c-2.1,0-4-0.9-5.3-2.5l0,0
				c-1.1-1.4-1.6-3.1-1.4-4.8c0-2.7,0.8-4.8,2.4-6c1.4-1,3-1.5,4.7-1.5c0.3,0,0.6,0,0.9,0.1h0.1c2,0.5,4.8,1.1,8.7,8.9
				c2,4.1,4.6,6.8,7.9,8.2c1.6,0.7,3.3,1.1,5,1.2c1.2,0,2.4-0.2,3.5-0.6c1.9-0.7,6.3-3.1,6.3-10.2C72.1,94.5,70.1,91.9,68.4,90.5z"
				/>
		</g>
		<g>
			<g>
				<path class="st0" d="M34.7,35.6c-2.1,0.1-3.7,1.8-3.6,3.8c0.1,2.1,1.8,3.7,3.8,3.6c2-0.1,3.7-1.7,3.6-3.8
					C38.5,37.2,36.8,35.6,34.7,35.6C34.7,35.6,34.7,35.6,34.7,35.6z"/>
			</g>
			<g>
				<path class="st0" d="M41,38.9h-1.6c-0.2,0-0.3,0.1-0.3,0.3c0,0.2,0.1,0.3,0.3,0.3H41c0.2,0,0.3-0.1,0.3-0.3
					C41.3,39,41.2,38.9,41,38.9z"/>
			</g>
			<g>
				<path class="st0" d="M30.5,39.4c0-0.2-0.1-0.3-0.3-0.3h-1.6c-0.2,0-0.3,0.1-0.3,0.3c0,0.2,0.1,0.3,0.3,0.3h1.6
					C30.4,39.7,30.5,39.6,30.5,39.4z"/>
			</g>
			<g>
				<path class="st0" d="M34.7,35c0.2,0,0.3-0.1,0.3-0.3v-1.6c0-0.2-0.1-0.3-0.3-0.3c-0.2,0-0.3,0.1-0.3,0.3v1.6
					C34.4,34.9,34.6,35,34.7,35z"/>
			</g>
			<g>
				<path class="st0" d="M34.9,43.6c-0.2,0-0.3,0.1-0.3,0.3v1.6c0,0.2,0.2,0.3,0.3,0.3c0.2,0,0.3-0.1,0.3-0.3v-1.6
					C35.2,43.7,35.1,43.6,34.9,43.6z"/>
			</g>
			<g>
				<path class="st0" d="M38.9,37.2l1.4-0.8c0.1-0.1,0.2-0.3,0.1-0.4c-0.1-0.1-0.3-0.2-0.4-0.1l-1.4,0.8c-0.1,0.1-0.2,0.3-0.1,0.4
					C38.6,37.2,38.7,37.3,38.9,37.2z"/>
			</g>
			<g>
				<path class="st0" d="M30.8,41.4l-1.4,0.8c-0.1,0.1-0.2,0.3-0.1,0.4c0.1,0.1,0.3,0.2,0.4,0.1l1.4-0.8c0.1-0.1,0.2-0.3,0.1-0.4
					C31.1,41.4,30.9,41.3,30.8,41.4z"/>
			</g>
			<g>
				<path class="st0" d="M32.2,35.6c0.1,0.1,0.3,0.2,0.4,0.1c0.1-0.1,0.2-0.3,0.1-0.4l-0.8-1.4c-0.1-0.1-0.3-0.1-0.4,0
					c-0.1,0.1-0.1,0.2-0.1,0.3L32.2,35.6z"/>
			</g>
			<g>
				<path class="st0" d="M37.4,43.1c-0.1-0.1-0.3-0.2-0.4-0.1c-0.1,0.1-0.2,0.3-0.1,0.4l0.8,1.4c0.1,0.1,0.3,0.2,0.4,0.1
					c0.1-0.1,0.2-0.3,0.1-0.4L37.4,43.1z"/>
			</g>
			<g>
				<path class="st0" d="M37.3,35.4L38,34c0.1-0.1,0-0.3-0.1-0.4c-0.1-0.1-0.3,0-0.4,0.1l-0.8,1.4c-0.1,0.1,0,0.3,0.1,0.4
					C37,35.6,37.2,35.6,37.3,35.4z"/>
			</g>
			<g>
				<path class="st0" d="M32.4,43.2l-0.8,1.4c-0.1,0.1,0,0.3,0.1,0.4c0.1,0.1,0.3,0,0.4-0.1l0.8-1.4c0.1-0.1,0-0.3-0.1-0.4
					S32.5,43,32.4,43.2z"/>
			</g>
			<g>
				<path class="st0" d="M30.7,37.4c0.1,0.1,0.3,0,0.4-0.1c0.1-0.1,0-0.3-0.1-0.4l-1.4-0.8c-0.1-0.1-0.3,0-0.4,0.1
					c-0.1,0.1,0,0.3,0.1,0.4L30.7,37.4z"/>
			</g>
			<g>
				<path class="st0" d="M39,41.2c-0.1-0.1-0.3,0-0.4,0.1c-0.1,0.1,0,0.3,0.1,0.4l1.4,0.8c0.2,0,0.3-0.1,0.4-0.2
					c0-0.1,0-0.2-0.1-0.3L39,41.2z"/>
			</g>
		</g>
		<g>
			<g>
				<path class="st0" d="M46.6,51.5l0.6-4.2l-1.5,0.6l-0.9-2.4c-0.1-0.3-0.4-0.4-0.7-0.3c-0.3,0.1-0.4,0.4-0.3,0.7c0,0,0,0,0,0
					l0.9,2.4l-1.5,0.6L46.6,51.5z"/>
			</g>
			<g>
				<path class="st0" d="M41.2,49.6l-1.5,0.6l-0.9-2.3c-0.1-0.3-0.4-0.4-0.7-0.3c0,0,0,0,0,0c-0.3,0.1-0.4,0.4-0.3,0.7l0.9,2.3
					l-1.5,0.6l3.3,2.6L41.2,49.6z"/>
			</g>
			<g>
				<path class="st0" d="M35.1,52.1l-1.5,0.6l-0.9-2.4C32.6,50,32.3,49.9,32,50c-0.3,0.1-0.4,0.4-0.3,0.7c0,0,0,0,0,0l0.9,2.4
					l-1.5,0.6l3.3,2.6L35.1,52.1z"/>
			</g>
		</g>
		<g>
			<g>
				<path class="st0" d="M77.6,47.5h-1v2.8h-5.4v-2.8h-1v2.8h-6.7l-39.2,13c-0.2,0-0.4,0.2-0.4,0.4v19H26v-9.6
					c0-0.2,0.2-0.4,0.4-0.4c0,0,0,0,0,0H33c0.2,0,0.4,0.2,0.4,0.4v9.6h30.2c0.2,0,0.3-0.1,0.3-0.3v-3.9l6.4-0.1v4.3h1v-4.3h5.4v4.3
					h1L77.6,47.5z M33.3,70c0,0.2-0.2,0.4-0.4,0.4h-6.6c-0.2,0-0.4-0.1-0.4-0.3c0,0,0,0,0,0v-3.5c0-0.2,0.2-0.4,0.4-0.4c0,0,0,0,0,0
					H33c0.2,0,0.4,0.2,0.4,0.4L33.3,70z M42.8,76.6c0,0.2-0.2,0.4-0.4,0.4h-6.5c-0.2,0-0.4-0.2-0.4-0.4l0,0v-3.5
					c0-0.2,0.2-0.4,0.4-0.4l0,0h6.5c0.2,0,0.4,0.2,0.4,0.4V76.6z M42.8,70c0,0.2-0.2,0.4-0.4,0.4h-6.5c-0.2,0-0.4-0.2-0.4-0.4l0,0
					v-3.5c0-0.2,0.2-0.4,0.4-0.4l0,0h6.5c0.2,0,0.4,0.2,0.4,0.4V70z M52.2,76.6c0,0.2-0.2,0.4-0.4,0.4h-6.5c-0.2,0-0.4-0.2-0.4-0.4
					l0,0v-3.5c0-0.2,0.2-0.4,0.4-0.4l0,0h6.5c0.2,0,0.4,0.2,0.4,0.4V76.6z M52.2,70c0,0.2-0.2,0.4-0.4,0.4h-6.5
					c-0.2,0-0.3-0.2-0.3-0.4v-3.5c0-0.2,0.2-0.4,0.4-0.4l0,0h6.5c0.2,0,0.4,0.2,0.4,0.4L52.2,70z M61.7,76.6c0,0.2-0.2,0.4-0.4,0.4
					h-6.5c-0.2,0-0.4-0.2-0.4-0.4l0,0v-3.5c0-0.2,0.2-0.4,0.4-0.4l0,0h6.5c0.2,0,0.4,0.2,0.4,0.4L61.7,76.6z M61.7,70
					c0,0.2-0.2,0.4-0.4,0.4h-6.5c-0.2,0-0.4-0.2-0.4-0.4l0,0v-3.5c0-0.2,0.2-0.4,0.4-0.4l0,0h6.5c0.2,0,0.4,0.2,0.4,0.4L61.7,70z
					 M70.2,52.2v10.5l-2.4-5.2L70.2,52.2z M64.9,63.9l2.4-5.3l2.4,5.3L64.9,63.9z M69.6,64.9L67.3,70l-2.3-5.1H69.6z M69.6,51.3
					l-2.3,5.1l-2.3-5.1H69.6z M63.9,51.2l2.9,6.3l-2.9,6.4L63.9,51.2z M63.9,64.9L63.9,64.9l2.9,6.2l-2.9,6.4L63.9,64.9z M64.9,77.6
					l2.4-5.3l2.4,5.3L64.9,77.6z M67.8,71.1l2.4-5.3v10.5L67.8,71.1z M76.6,52.8v9.4l-2.2-4.7L76.6,52.8z M71.6,63.9l2.4-5.3
					l2.4,5.2L71.6,63.9z M76.3,64.9L74,70l-2.3-5.1H76.3z M76.3,51.3l-2.3,5l-2.3-5.1L76.3,51.3z M71.2,52.6l2.3,5l-2.3,5L71.2,52.6
					z M71.2,76.1v-9.9l2.3,4.9L71.2,76.1z M71.5,77.6l2.5-5.4l2.4,5.3L71.5,77.6z M74.4,71.1l2.2-4.7v9.4L74.4,71.1z"/>
			</g>
			<g>
				<path class="st0" d="M24.1,61.4l38.5-12.8c0.2-0.1,0.3,0,0.4,0.2l0.2,0.5c0.1,0.2,0,0.3-0.2,0.4L24.5,62.5
					c-0.2,0.1-0.3,0-0.4-0.2l-0.2-0.5C23.9,61.6,24,61.5,24.1,61.4z"/>
			</g>
		</g>
	</g>
</g>
</svg>
