<?xml version="1.0" encoding="utf-8"?>
<!-- Generator: Adobe Illustrator 22.0.1, SVG Export Plug-In . SVG Version: 6.00 Build 0)  -->
<svg version="1.1" id="Layer_1" xmlns="http://www.w3.org/2000/svg" xmlns:xlink="http://www.w3.org/1999/xlink" x="0px" y="0px"
	 viewBox="0 0 101.5 148.1" style="enable-background:new 0 0 101.5 148.1;" xml:space="preserve">
<style type="text/css">
	.st0{fill:#FFFFFF;}
	.st1{fill:#0A97D9;}
	.st2{enable-background:new    ;}
</style>
<title>TARGET 1 B copy 13</title>
<g id="WHITE_BG">
	<g>
		<rect y="0" class="st0" width="101.5" height="148.1"/>
	</g>
</g>
<g id="TARGETS">
	<g>
		<g>
			<path class="st1" d="M11.1,130.3c0,1.2-0.7,2-2.4,2c-0.6,0-1.3-0.1-1.9-0.4V131c0.6,0.3,1.2,0.4,1.8,0.4c1.1,0,1.5-0.5,1.5-1.1
				s-0.3-0.9-1.2-1c-1.6-0.2-2.2-0.6-2.2-1.8c0-0.9,0.5-1.8,2.3-1.8c0.6,0,1.2,0.1,1.7,0.3v1c-0.5-0.2-1.1-0.3-1.7-0.3
				c-1,0-1.3,0.4-1.3,1c0,0.7,0.4,0.8,1.2,0.9C10.3,128.7,11.1,129,11.1,130.3z"/>
		</g>
		<g>
			<path class="st1" d="M11.8,130.2v-4.4h0.9v4.3c-0.1,0.7,0.4,1.2,1,1.3c0.1,0,0.2,0,0.3,0c0.6,0.1,1.3-0.3,1.4-1
				c0-0.1,0-0.2,0-0.3v-4.3h1v4.4c0,1.1-0.8,2.1-2,2.1c-0.1,0-0.2,0-0.3,0c-1.1,0.2-2.2-0.6-2.3-1.7
				C11.8,130.5,11.8,130.3,11.8,130.2z"/>
		</g>
		<g>
			<path class="st1" d="M18.3,132.2h-1v-6.4h2c1.6,0,2.2,1,2.2,2c0,1-0.6,2-2.2,2h-1V132.2z M18.3,128.9h1.1c0.6,0.1,1.2-0.4,1.2-1
				s-0.4-1.2-1-1.2c-0.1,0-0.1,0-0.2,0h-1.1V128.9z"/>
		</g>
		<g>
			<path class="st1" d="M23,132.2h-1v-6.4h2c1.6,0,2.2,1,2.2,2c0,1-0.6,2-2.2,2H23V132.2z M23,129h1.1c0.6,0.1,1.2-0.4,1.2-1
				s-0.4-1.2-1-1.2c-0.1,0-0.1,0-0.2,0H23V129z"/>
		</g>
		<g>
			<path class="st1" d="M26.7,129c0-1.8,0.4-3.3,2.5-3.3s2.5,1.5,2.5,3.3s-0.4,3.3-2.5,3.3S26.7,130.8,26.7,129z M27.7,129
				c0,1.5,0.3,2.4,1.5,2.4s1.5-0.9,1.5-2.4s-0.3-2.4-1.5-2.4S27.7,127.5,27.7,129L27.7,129z"/>
		</g>
		<g>
			<path class="st1" d="M33.3,132.2h-1v-6.4h2.1c1.7,0,2.2,0.7,2.2,1.9c0.1,0.7-0.3,1.4-1,1.7l1.3,2.8h-1.1l-1.2-2.6h-1.3V132.2z
				 M33.3,128.7h1.3c0.9,0,1-0.5,1-1s-0.1-1-1-1h-1.3V128.7z"/>
		</g>
		<g>
			<path class="st1" d="M39.4,126.7v5.5h-1v-5.5h-1.7v-0.9h4.3v0.9H39.4z"/>
		</g>
		<g>
			<path class="st1" d="M47,130.3c0,1.2-0.7,2-2.4,2c-0.6,0-1.3-0.1-1.9-0.4V131c0.6,0.3,1.2,0.4,1.8,0.4c1.2,0,1.5-0.5,1.5-1.1
				s-0.3-0.9-1.2-1c-1.6-0.2-2.2-0.6-2.2-1.8c0-0.9,0.5-1.8,2.3-1.8c0.6,0,1.2,0.1,1.7,0.3v1c-0.5-0.2-1.1-0.3-1.7-0.3
				c-1,0-1.3,0.4-1.3,1c0,0.7,0.4,0.8,1.2,0.9C46.2,128.7,47,129,47,130.3z"/>
		</g>
		<g>
			<path class="st1" d="M51.2,131.3h-0.9l-1.6-3.9v4.8h-1v-6.4H49l1.7,4.3l1.7-4.3h1.2v6.4h-1v-4.8L51.2,131.3z"/>
		</g>
		<g>
			<path class="st1" d="M57.7,130.6h-2l-0.5,1.6h-1l2-6.4h1l2,6.4h-1L57.7,130.6z M56.7,127l-0.8,2.8h1.6L56.7,127z"/>
		</g>
		<g>
			<path class="st1" d="M60.7,131.3h2.8v0.9h-3.7v-6.4h1L60.7,131.3z"/>
		</g>
		<g>
			<path class="st1" d="M64.9,131.3h2.8v0.9H64v-6.4h0.9L64.9,131.3z"/>
		</g>
		<g>
			<path class="st1" d="M73.9,130.3c0,1.2-0.7,2-2.4,2c-0.6,0-1.3-0.1-1.9-0.4V131c0.6,0.3,1.2,0.4,1.8,0.4c1.2,0,1.5-0.5,1.5-1.1
				s-0.3-0.9-1.2-1c-1.6-0.2-2.2-0.6-2.2-1.8c0-0.9,0.5-1.8,2.3-1.8c0.6,0,1.2,0.1,1.7,0.3v1c-0.5-0.2-1.1-0.3-1.7-0.3
				c-1,0-1.3,0.4-1.3,1c0,0.7,0.4,0.8,1.2,0.9C73.1,128.7,73.9,129,73.9,130.3z"/>
		</g>
		<g>
			<path class="st1" d="M77.1,125.7c0.5,0,1,0.1,1.5,0.3v0.9c-0.4-0.2-0.9-0.3-1.4-0.3c-1.2,0-1.7,0.8-1.7,2.4s0.5,2.4,1.7,2.4
				c0.5,0,1-0.1,1.4-0.3v0.9c-0.5,0.2-1,0.3-1.5,0.3c-1.9,0-2.6-1.2-2.6-3.3S75.2,125.7,77.1,125.7z"/>
		</g>
		<g>
			<path class="st1" d="M82.5,130.6h-2l-0.5,1.6h-1l2-6.4h1l2,6.4h-1L82.5,130.6z M81.5,127l-0.8,2.8h1.6L81.5,127z"/>
		</g>
		<g>
			<path class="st1" d="M85.4,131.3h2.8v0.9h-3.7v-6.4h1L85.4,131.3z"/>
		</g>
		<g>
			<path class="st1" d="M92.3,129.3h-2.7v2h2.9v0.9h-3.9v-6.4h3.9v0.9h-2.9v1.8h2.7V129.3z"/>
		</g>
		<g>
			<path class="st1" d="M10.4,138.4H7.8v2.8h-1v-6.4h3.9v0.9H7.8v1.8h2.6V138.4z"/>
		</g>
		<g>
			<path class="st1" d="M11.6,141.2v-6.4h1v6.4H11.6z"/>
		</g>
		<g>
			<path class="st1" d="M17.8,139.3c0,1.2-0.7,2-2.4,2c-0.6,0-1.3-0.1-1.9-0.4V140c0.6,0.3,1.2,0.4,1.8,0.4c1.1,0,1.5-0.5,1.5-1.1
				s-0.3-0.9-1.1-1c-1.6-0.2-2.2-0.6-2.2-1.8c0-0.9,0.5-1.8,2.3-1.8c0.6,0,1.2,0.1,1.7,0.3v1c-0.5-0.2-1.1-0.3-1.7-0.3
				c-1,0-1.3,0.4-1.3,1s0.4,0.8,1.2,0.9C17,137.7,17.8,138,17.8,139.3z"/>
		</g>
		<g>
			<path class="st1" d="M22,141.2v-2.9h-2.6v2.9h-1v-6.4h1v2.6H22v-2.6h1v6.4H22z"/>
		</g>
		<g>
			<path class="st1" d="M27.5,138.3h-2.6v2h2.9v0.9h-3.9v-6.4h3.9v0.9h-2.9v1.8h2.6V138.3z"/>
		</g>
		<g>
			<path class="st1" d="M29.6,141.2h-1v-6.4h2.1c1.6,0,2.2,0.7,2.2,1.9c0.1,0.7-0.3,1.4-1,1.7l1.3,2.8H32l-1.2-2.6h-1.3V141.2z
				 M29.6,137.7h1.3c0.9,0,1-0.5,1-1s-0.1-1-1-1h-1.3V137.7z"/>
		</g>
		<g>
			<path class="st1" d="M37.8,139.3c0,1.2-0.7,2-2.4,2c-0.6,0-1.3-0.1-1.9-0.4V140c0.6,0.3,1.2,0.4,1.8,0.4c1.1,0,1.5-0.5,1.5-1.1
				s-0.3-0.9-1.2-1c-1.6-0.2-2.2-0.6-2.2-1.8c0-0.9,0.5-1.8,2.3-1.8c0.6,0,1.2,0.1,1.7,0.3v1c-0.5-0.2-1.1-0.3-1.7-0.3
				c-1,0-1.3,0.4-1.3,1s0.4,0.8,1.2,0.9C37.1,137.7,37.8,138,37.8,139.3z"/>
		</g>
	</g>
	<g>
		<rect x="3.3" y="24" class="st1" width="94.8" height="94.8"/>
	</g>
	<g>
		<path class="st1" d="M98.2,20.7H3.3V3.3h94.8V20.7z M4.3,19.7h92.8V4.3H4.3L4.3,19.7z"/>
	</g>
	<g class="st2">
		<path class="st1" d="M6.7,6.9h4.5v1.4H9.9v8.8H8.1V8.3H6.7V6.9z"/>
	</g>
	<g class="st2">
		<path class="st1" d="M11.2,17.1l1.9-10.2h1.9L17,17.1h-1.8l-0.3-1.9h-1.8l-0.3,1.9H11.2z M13.3,13.9h1.4L14,9.8h0L13.3,13.9z"/>
	</g>
	<g class="st2">
		<path class="st1" d="M19.6,12.4v4.7h-1.7V6.9h2.5c1.7,0,2.4,0.9,2.4,2.3v1.3c0,1.1-0.4,1.7-1.4,2l1.6,4.6h-1.8L19.6,12.4z
			 M19.6,8.3v3.2h0.6c0.6,0,0.8-0.3,0.8-0.8V9.2c0-0.6-0.3-0.8-0.8-0.8H19.6z"/>
	</g>
	<g class="st2">
		<path class="st1" d="M26.4,11.7h2.4v5.4h-1.2V16c-0.2,0.8-0.7,1.2-1.6,1.2c-1.5,0-2.1-1.2-2.1-2.7V9.6c0-1.6,0.8-2.7,2.6-2.7
			c1.9,0,2.4,1.1,2.4,2.6v0.9h-1.6v-1c0-0.6-0.2-1-0.9-1c-0.6,0-0.9,0.4-0.9,1v5.5c0,0.6,0.3,1,0.8,1c0.6,0,0.8-0.3,0.8-1V13h-0.8
			V11.7z"/>
	</g>
	<g class="st2">
		<path class="st1" d="M30.2,6.9h4.1v1.4h-2.4v2.9h1.7v1.4h-1.7v3.1h2.4v1.4h-4.1V6.9z"/>
	</g>
	<g class="st2">
		<path class="st1" d="M35.1,6.9h4.5v1.4h-1.4v8.8h-1.7V8.3h-1.4V6.9z"/>
	</g>
	<g class="st2">
		<path class="st1" d="M89.4,6.9h2.5c1.7,0,2.3,0.8,2.3,2.2v1c0,0.9-0.3,1.4-1,1.6c0.9,0.2,1.3,0.8,1.3,1.7v1.3
			c0,1.4-0.6,2.2-2.4,2.2h-2.7V6.9z M91.1,11.2h0.6c0.6,0,0.8-0.3,0.8-0.8V9.2c0-0.6-0.3-0.8-0.8-0.8h-0.6V11.2z M91.1,12.5v3.2h0.8
			c0.6,0,0.8-0.3,0.8-0.8v-1.5c0-0.5-0.3-0.8-0.9-0.8H91.1z"/>
	</g>
	<g class="st2">
		<path class="st1" d="M76.8,6.9v10.2h-1.7V9.3h0l-1.2,1.2h0V8.8l1.6-1.8H76.8z"/>
	</g>
	<g class="st2">
		<path class="st1" d="M77.9,14.4l3-7.5h1.7v7.2h0.7v1.3h-0.7v1.7H81v-1.7h-3V14.4z M79.4,14.1H81V9.9h0L79.4,14.1z"/>
	</g>
	<g>
		<polygon class="st1" points="85.4,9.9 85.4,14.1 87.6,12 		"/>
	</g>
	<g>
		<path class="st1" d="M98.2,144.9h-95v-22.8h95V144.9z M4.2,143.9h93v-20.8h-93V143.9z"/>
	</g>
	<g>
		<g>
			<path class="st0" d="M50.8,103.2c-0.4-0.6-3-3.9-6.7-3.9c-3.2,0-6.6,2.9-6.6,2.9c-0.8-1.5-2.2-2.6-3.9-2.9h-0.1
				c-0.1,0-0.1,0.1-0.1,0.1c0,0,0,0.1,0,0.1c0.7,1.1,1.1,2.4,1.2,3.8c-0.1,1.3-0.5,2.6-1.2,3.7l0,0c0,0,0,0,0,0.1
				c0,0.1,0,0.1,0.1,0.1l0,0c1.7-0.3,3.1-1.4,3.9-2.9c0,0,3.4,2.9,6.6,2.9C47.7,107.2,50.4,103.8,50.8,103.2L50.8,103.2L50.8,103.2
				L50.8,103.2z M46.1,103.7c-0.6,0-1.1-0.5-1.1-1.1c0-0.6,0.5-1.1,1.1-1.1c0.6,0,1.1,0.5,1.1,1.1C47.2,103.2,46.7,103.7,46.1,103.7
				z"/>
		</g>
		<g>
			<g>
				<path class="st0" d="M31,103.2c-0.4-0.6-3-3.9-6.7-3.9c-3.2,0-6.6,2.9-6.6,2.9c-0.8-1.5-2.2-2.6-3.9-2.9h-0.1
					c-0.1,0-0.1,0.1-0.1,0.1c0,0,0,0.1,0,0.1c0.7,1.1,1.1,2.4,1.2,3.8c-0.1,1.3-0.5,2.6-1.2,3.8l0,0c0,0,0,0,0,0.1
					c0,0.1,0,0.1,0.1,0.1h0.1c1.7-0.3,3.1-1.4,3.9-2.9c0,0,3.4,2.9,6.6,2.9c3.7,0,6.3-3.3,6.7-3.9l0,0C31,103.3,31,103.3,31,103.2
					C31,103.2,31,103.2,31,103.2z M26.3,103.7c-0.6,0-1.1-0.5-1.1-1.1c0-0.6,0.5-1.1,1.1-1.1c0.6,0,1.1,0.5,1.1,1.1
					C27.4,103.2,26.9,103.7,26.3,103.7C26.3,103.7,26.3,103.7,26.3,103.7L26.3,103.7z"/>
			</g>
			<g>
				<path class="st0" d="M70.2,103.2c-0.4-0.6-3-3.9-6.7-3.9c-3.2,0-6.6,2.9-6.6,2.9c-0.8-1.5-2.2-2.6-3.9-2.9h-0.1
					c-0.1,0-0.1,0.1-0.1,0.1c0,0,0,0.1,0,0.1c0.7,1.1,1.1,2.4,1.2,3.8c-0.1,1.3-0.5,2.6-1.2,3.8l0,0c0,0,0,0,0,0.1
					c0,0.1,0,0.1,0.1,0.1h0.1c1.7-0.3,3.1-1.4,3.9-2.9c0,0,3.4,2.9,6.6,2.9c3.7,0,6.3-3.3,6.7-3.9l0,0
					C70.2,103.3,70.2,103.3,70.2,103.2C70.2,103.2,70.2,103.2,70.2,103.2z M65.5,103.7c-0.6,0-1.1-0.5-1.1-1.1s0.5-1.1,1.1-1.1
					s1.1,0.5,1.1,1.1l0,0C66.6,103.2,66.1,103.7,65.5,103.7z"/>
			</g>
			<g>
				<path class="st0" d="M89.8,103.2c-0.4-0.6-3-3.9-6.7-3.9c-3.2,0-6.6,2.9-6.6,2.9c-0.8-1.5-2.2-2.6-3.9-2.9h-0.1
					c-0.1,0-0.1,0.1-0.1,0.1c0,0,0,0.1,0,0.1c0.7,1.1,1.1,2.4,1.2,3.8c-0.1,1.3-0.5,2.6-1.2,3.8l0,0c0,0,0,0,0,0.1
					c0,0.1,0,0.1,0.1,0.1l0,0c1.7-0.3,3.1-1.4,3.9-2.9c0,0,3.4,2.9,6.6,2.9c3.7,0,6.3-3.3,6.7-3.9l0,0
					C89.8,103.3,89.8,103.3,89.8,103.2L89.8,103.2z M85.2,103.7c-0.6,0-1.1-0.5-1.1-1.1s0.5-1.1,1.1-1.1c0.6,0,1.1,0.5,1.1,1.1
					C86.2,103.2,85.8,103.7,85.2,103.7C85.2,103.7,85.2,103.7,85.2,103.7z"/>
			</g>
			<g>
				<g>
					<path class="st0" d="M76.2,75.5c-1.1,0-2,0.9-2,2s0.9,2,2,2s2-0.9,2-2S77.3,75.5,76.2,75.5z"/>
				</g>
				<g>
					<path class="st0" d="M46.2,60.2v13.6H63l1.1-3.1h19.4v-2.2H70.5l1.8-8.2L46.2,60.2z M60.5,68.2h-5.3v-6.4h5.3V68.2z M68.3,68.2
						h-6.6v-6.4h7.9L68.3,68.2z"/>
				</g>
				<g>
					<rect x="46.2" y="56.8" class="st0" width="23.6" height="2.5"/>
				</g>
				<g>
					<path class="st0" d="M64.9,71.7l-1.2,3.4H45.5V49.5h1.1v-0.9h-1.1V35.7h-0.7v12.8h-1.2v0.9h0.8c-10.2,5.4-27,3-32.1,1.7h-0.1
						L12,51.7l0,0l0,0v0l0,0v1.8h-0.1v0.9H12V55c-0.2,0.3-0.4,0.6-0.4,1c0,0.3,0.1,0.5,0.2,0.7c0.1,0.1,0.3,0.2,0.4,0.2l0,0
						c0.4,0,0.7-0.4,0.6-0.7c0,0,0,0,0,0V56h-0.3v0.2c0,0.2-0.1,0.4-0.3,0.4l0,0c-0.1,0-0.1,0-0.2-0.1c-0.1-0.1-0.1-0.3-0.1-0.5
						c0.1-0.3,0.2-0.6,0.4-0.8l0,0v-0.7h0.1v-0.9h-0.1v-1l0.6,0.4l14,19.7c0,0.2-0.1,0.5-0.1,0.7l0,0H21l2.1,13
						c3-0.4,5.8-1.8,7.9-3.9c0.1-0.1,0.1-0.1,0.2-0.2c0.1,0,0.1,0,0.2,0h0.1c0.1,0,0.2,0.1,0.2,0.2c2,1.5,11.3,7.8,19.5,0.1l0.1-0.1
						c0.1-0.1,0.2-0.1,0.3-0.1c0.1,0,0.2,0.1,0.3,0.1l0.1,0.1c8.3,7.7,17.5,1.4,19.5-0.1c0.1-0.1,0.1-0.1,0.2-0.2h0.1
						c0.1,0,0.1,0,0.2,0l0.2,0.2c2,2,4.5,3.3,7.3,3.8l7.3-14.7L64.9,71.7z M27.2,72L15.2,55.2l13.9,14.9
						C28.2,70.5,27.6,71.2,27.2,72z M37.8,75.1h-1.3l-0.3-1.6H34l0,0c0-1.9-1.5-3.5-3.4-3.6v-3.8h1.1v-0.7h-3v0.7h1.1V70h-0.1
						l-17-18.3c5.6,1.3,21.7,3.5,31.8-1.8L44.3,52l-3.4,23.1L37.8,75.1z M44.8,75.1h-3.6l3.6-24.2V75.1z M76.2,80.5
						c-1.7,0-3-1.3-3-3s1.3-3,3-3s3,1.3,3,3S77.9,80.5,76.2,80.5z"/>
				</g>
			</g>
			<g>
				<path class="st0" d="M90,88.5c0-0.2-0.2-0.4-0.4-0.4h-0.1l-0.2,0.1c-5.5,3-12.2,2.1-16.7-2.3l-0.2-0.2c-0.1,0-0.1,0-0.2,0H72
					c-0.1,0-0.2,0.1-0.2,0.2c-2,1.6-11.3,7.8-19.5,0.1L52.1,86c-0.1-0.1-0.2-0.1-0.3-0.1c-0.1,0-0.2,0.1-0.3,0.1l-0.1,0
					c-8.2,7.7-17.5,1.4-19.5-0.1c-0.1-0.1-0.1-0.1-0.2-0.2h-0.1c-0.1,0-0.1,0-0.2,0c0,0.1-0.1,0.2-0.2,0.3
					c-4.4,4.3-11.2,5.3-16.6,2.3l-0.2-0.1H14c-0.2,0-0.4,0.2-0.4,0.4c0,0,0,0,0,0.1v3.2c0,0.1,0,0.2,0.1,0.3
					c7.8,6.8,15.2,0.4,17-1.3c0-0.1,0.1-0.1,0.1-0.1c0.1-0.1,0.2-0.1,0.2-0.1c0.1,0,0.2,0,0.3,0.1l0,0c8.8,8.4,18.1,1.6,20,0
					l0.2-0.2c0.1,0,0.1,0,0.2,0c0.1,0,0.1,0,0.2,0l0.2,0.2c1.9,1.6,11.2,8.4,20,0l0,0c0.1-0.1,0.2-0.1,0.3-0.1c0.1,0,0.2,0,0.2,0.1
					c0.1,0,0.1,0.1,0.1,0.1c1.7,1.7,9.1,8.1,17,1.3c0.1-0.1,0.1-0.2,0.1-0.3L90,88.5C90,88.6,90,88.6,90,88.5z"/>
			</g>
		</g>
	</g>
</g>
</svg>
