<?xml version="1.0" encoding="utf-8"?>
<!-- Generator: Adobe Illustrator 22.0.1, SVG Export Plug-In . SVG Version: 6.00 Build 0)  -->
<svg version="1.1" id="Layer_1" xmlns="http://www.w3.org/2000/svg" xmlns:xlink="http://www.w3.org/1999/xlink" x="0px" y="0px"
	 viewBox="0 0 101.5 156.6" style="enable-background:new 0 0 101.5 156.6;" xml:space="preserve">
<style type="text/css">
	.st0{fill:#FFFFFF;}
	.st1{fill:#0A97D9;}
	.st2{enable-background:new    ;}
	.st3{fill:none;}
</style>
<title>TARGET 1 B copy 10</title>
<g id="WHITE_BG">
	<g>
		<rect y="0" class="st0" width="101.5" height="156.6"/>
	</g>
</g>
<g id="TARGETS">
	<g>
		<g>
			<path class="st1" d="M10.5,129.3H7.8v2h2.9v0.9H6.9v-6.4h3.9v0.9H7.8v1.8h2.6V129.3z"/>
		</g>
		<g>
			<path class="st1" d="M15.3,132.2l-2.8-4.5v4.5h-0.9v-6.4h0.9l2.8,4.5v-4.5h0.9v6.4H15.3z"/>
		</g>
		<g>
			<path class="st1" d="M17.1,132.2v-6.4H19c2.1,0,2.7,1.4,2.7,3.2s-0.6,3.2-2.7,3.2L17.1,132.2z M18.1,131.3h1
				c1.3,0,1.7-0.9,1.7-2.3s-0.4-2.3-1.7-2.3h-1V131.3z"/>
		</g>
		<g>
			<path class="st1" d="M28.1,130.3c0,1.2-0.7,2-2.4,2c-0.6,0-1.3-0.1-1.9-0.4V131c0.6,0.3,1.2,0.4,1.8,0.4c1.1,0,1.5-0.5,1.5-1.1
				s-0.3-0.9-1.1-1c-1.6-0.2-2.2-0.6-2.2-1.8c0-0.9,0.5-1.8,2.3-1.8c0.6,0,1.2,0.1,1.7,0.3v1c-0.5-0.2-1.1-0.3-1.7-0.3
				c-1,0-1.3,0.4-1.3,1c0,0.7,0.4,0.8,1.2,0.9C27.3,128.7,28.1,129,28.1,130.3z"/>
		</g>
		<g>
			<path class="st1" d="M28.7,130.2v-4.4h1v4.3c-0.1,0.7,0.4,1.2,1,1.3c0.1,0,0.2,0,0.2,0c0.6,0.1,1.3-0.3,1.4-1c0-0.1,0-0.2,0-0.3
				v-4.3h1v4.4c0,1.1-0.8,2.1-2,2.1c-0.1,0-0.3,0-0.4,0c-1.1,0.1-2.1-0.7-2.3-1.8C28.7,130.4,28.7,130.3,28.7,130.2z"/>
		</g>
		<g>
			<path class="st1" d="M34.2,125.8h2.1c1.6,0,2,0.8,2,1.7c0,0.5-0.3,1-0.8,1.3c0.6,0.2,1.1,0.8,1,1.5c0,1.1-0.5,1.9-2.2,1.9h-2.2
				V125.8z M36.4,126.7h-1.2v1.8h1.2c0.8,0,1-0.5,1-0.9S37.2,126.7,36.4,126.7z M35.2,131.3h1.3c0.9,0,1.1-0.5,1.1-1s-0.3-1-1.1-1
				h-1.3L35.2,131.3z"/>
		</g>
		<g>
			<path class="st1" d="M43.4,130.3c0,1.2-0.7,2-2.4,2c-0.6,0-1.3-0.1-1.9-0.4V131c0.6,0.3,1.2,0.4,1.8,0.4c1.2,0,1.5-0.5,1.5-1.1
				s-0.3-0.9-1.2-1c-1.6-0.2-2.2-0.6-2.2-1.8c0-0.9,0.5-1.8,2.3-1.8c0.6,0,1.2,0.1,1.7,0.3v1c-0.5-0.2-1.1-0.3-1.7-0.3
				c-1,0-1.3,0.4-1.3,1c0,0.7,0.4,0.8,1.2,0.9C42.6,128.7,43.4,129,43.4,130.3z"/>
		</g>
		<g>
			<path class="st1" d="M44.2,132.2v-6.4h1v6.4H44.2z"/>
		</g>
		<g>
			<path class="st1" d="M46.2,132.2v-6.4h1.9c2.1,0,2.7,1.4,2.7,3.2s-0.6,3.2-2.7,3.2L46.2,132.2z M47.2,131.3h1
				c1.3,0,1.7-0.9,1.7-2.3s-0.4-2.3-1.7-2.3h-1V131.3z"/>
		</g>
		<g>
			<path class="st1" d="M51.7,132.2v-6.4h1v6.4H51.7z"/>
		</g>
		<g>
			<path class="st1" d="M57.3,129.3h-2.7v2h2.9v0.9h-3.9v-6.4h3.9v0.9h-2.9v1.8h2.7V129.3z"/>
		</g>
		<g>
			<path class="st1" d="M62.5,130.3c0,1.2-0.7,2-2.4,2c-0.6,0-1.3-0.1-1.9-0.4V131c0.6,0.3,1.2,0.4,1.8,0.4c1.2,0,1.5-0.5,1.5-1.1
				s-0.3-0.9-1.2-1c-1.6-0.2-2.2-0.6-2.2-1.8c0-0.9,0.5-1.8,2.3-1.8c0.6,0,1.2,0.1,1.7,0.3v1c-0.5-0.2-1.1-0.3-1.7-0.3
				c-1,0-1.3,0.4-1.3,1c0,0.7,0.4,0.8,1.2,0.9C61.7,128.7,62.5,129,62.5,130.3z"/>
		</g>
		<g>
			<path class="st1" d="M9.4,134.7c0.5,0,1,0.1,1.5,0.3v0.9c-0.5-0.2-0.9-0.3-1.4-0.3c-1.2,0-1.7,0.8-1.7,2.4s0.5,2.4,1.7,2.4
				c0.5,0,1-0.1,1.4-0.3v0.9c-0.5,0.2-1,0.3-1.5,0.3c-1.9,0-2.6-1.2-2.6-3.3S7.5,134.7,9.4,134.7z"/>
		</g>
		<g>
			<path class="st1" d="M11.5,138c0-1.8,0.4-3.3,2.4-3.3s2.5,1.5,2.5,3.3s-0.5,3.3-2.5,3.3S11.5,139.8,11.5,138z M12.5,138
				c0,1.5,0.3,2.4,1.5,2.4s1.5-0.9,1.5-2.4s-0.3-2.4-1.5-2.4S12.5,136.5,12.5,138L12.5,138z"/>
		</g>
		<g>
			<path class="st1" d="M20.9,141.2l-2.8-4.5v4.5h-0.9v-6.4H18l2.8,4.5v-4.5h1v6.4H20.9z"/>
		</g>
		<g>
			<path class="st1" d="M24.9,135.7v5.5h-1v-5.5h-1.7v-0.9h4.3v0.9H24.9z"/>
		</g>
		<g>
			<path class="st1" d="M28,141.2h-1v-6.4h2.1c1.6,0,2.2,0.7,2.2,1.9c0.1,0.7-0.3,1.4-1,1.7l1.3,2.8h-1.1l-1.2-2.6H28V141.2z
				 M28,137.7h1.2c0.9,0,1-0.5,1-1s-0.1-1-1-1H28V137.7z"/>
		</g>
		<g>
			<path class="st1" d="M32.3,141.2v-6.4h1v6.4H32.3z"/>
		</g>
		<g>
			<path class="st1" d="M34.3,134.8h2.1c1.5,0,2,0.8,2,1.7c0,0.5-0.3,1-0.8,1.3c0.6,0.2,1.1,0.8,1,1.5c0,1.1-0.5,1.9-2.2,1.9h-2.2
				V134.8z M36.5,135.7h-1.2v1.8h1.2c0.4,0.1,0.9-0.2,0.9-0.7c0-0.1,0-0.1,0-0.2C37.5,136.2,37.3,135.7,36.5,135.7z M35.3,140.3h1.3
				c0.9,0,1.1-0.5,1.1-1s-0.3-1-1.1-1h-1.3L35.3,140.3z"/>
		</g>
		<g>
			<path class="st1" d="M39.4,139.2v-4.4h1v4.3c0,0.8,0.6,1.4,1.4,1.4s1.4-0.6,1.4-1.4v-4.3h1v4.4c0,1.1-0.9,2.1-2,2.1
				c-0.1,0-0.2,0-0.3,0c-1.1,0.2-2.2-0.5-2.4-1.7C39.4,139.5,39.4,139.4,39.4,139.2z"/>
		</g>
		<g>
			<path class="st1" d="M47.1,135.7v5.5h-1v-5.5h-1.6v-0.9h4.3v0.9H47.1z"/>
		</g>
		<g>
			<path class="st1" d="M49.4,141.2v-6.4h1v6.4H49.4z"/>
		</g>
		<g>
			<path class="st1" d="M55.2,141.2l-2.8-4.5v4.5h-0.9v-6.4h0.9l2.8,4.5v-4.5h1v6.4H55.2z"/>
		</g>
		<g>
			<path class="st1" d="M56.8,138c0-2,0.7-3.3,2.6-3.3c0.6,0,1.3,0.1,1.8,0.3v1c-0.5-0.2-1.1-0.4-1.7-0.4c-1.3,0-1.8,0.9-1.8,2.4
				s0.5,2.4,1.8,2.4c0.3,0,0.6,0,0.9-0.1v-1.7h-1.1v-0.9h2.1v3.2c-0.6,0.3-1.3,0.4-2,0.4C57.5,141.3,56.8,140,56.8,138z"/>
		</g>
		<g>
			<path class="st1" d="M65.7,135.7v5.5h-1v-5.5h-1.6v-0.9h4.3v0.9H65.7z"/>
		</g>
		<g>
			<path class="st1" d="M67.6,138c0-1.8,0.4-3.3,2.4-3.3s2.5,1.5,2.5,3.3s-0.4,3.3-2.5,3.3S67.6,139.8,67.6,138z M68.6,138
				c0,1.5,0.3,2.4,1.5,2.4s1.5-0.9,1.5-2.4s-0.3-2.4-1.5-2.4S68.6,136.5,68.6,138L68.6,138z"/>
		</g>
		<g>
			<path class="st1" d="M6.8,147c0-1.8,0.4-3.3,2.5-3.3s2.5,1.5,2.5,3.3s-0.4,3.3-2.5,3.3S6.8,148.8,6.8,147z M7.8,147
				c0,1.5,0.3,2.4,1.5,2.4s1.5-0.9,1.5-2.4s-0.3-2.4-1.5-2.4S7.8,145.5,7.8,147L7.8,147z"/>
		</g>
		<g>
			<path class="st1" d="M16.9,143.8l-2,6.4h-1l-2-6.4h1l1.5,5.2l1.5-5.2L16.9,143.8z"/>
		</g>
		<g>
			<path class="st1" d="M21,147.3h-2.6v2h2.9v0.9h-3.9v-6.4h3.9v0.9h-2.9v1.8H21V147.3z"/>
		</g>
		<g>
			<path class="st1" d="M23.1,150.2h-1v-6.4h2.1c1.6,0,2.2,0.7,2.2,1.9c0.1,0.7-0.3,1.4-1,1.7l1.3,2.8h-1.1l-1.2-2.6h-1.3V150.2z
				 M23.1,146.7h1.3c0.9,0,1-0.5,1-1s-0.1-1-1-1h-1.3V146.7z"/>
		</g>
		<g>
			<path class="st1" d="M30.9,147.4h-2.6v2.8h-1v-6.4h3.8v0.9h-2.9v1.8h2.6L30.9,147.4z"/>
		</g>
		<g>
			<path class="st1" d="M31.9,150.2v-6.4h1v6.4H31.9z"/>
		</g>
		<g>
			<path class="st1" d="M38.1,148.3c0,1.2-0.7,2-2.4,2c-0.6,0-1.3-0.1-1.9-0.4V149c0.6,0.3,1.2,0.4,1.8,0.4c1.2,0,1.5-0.5,1.5-1.1
				s-0.3-0.9-1.2-1c-1.5-0.2-2.2-0.6-2.2-1.8c0-0.9,0.5-1.8,2.3-1.8c0.6,0,1.2,0.1,1.7,0.3v1c-0.5-0.2-1.1-0.3-1.7-0.3
				c-1,0-1.3,0.4-1.3,1s0.4,0.8,1.2,0.9C37.3,146.7,38.1,147,38.1,148.3z"/>
		</g>
		<g>
			<path class="st1" d="M42.3,150.2v-2.9h-2.6v2.9h-1v-6.4h1v2.6h2.6v-2.6h1v6.4H42.3z"/>
		</g>
		<g>
			<path class="st1" d="M44.3,150.2v-6.4h1v6.4H44.3z"/>
		</g>
		<g>
			<path class="st1" d="M50.1,150.2l-2.8-4.5v4.5h-0.9v-6.4h0.9l2.8,4.5v-4.5h0.9v6.4H50.1z"/>
		</g>
		<g>
			<path class="st1" d="M51.7,147c0-2,0.7-3.3,2.6-3.3c0.6,0,1.3,0.1,1.8,0.3v1c-0.5-0.2-1.1-0.4-1.7-0.4c-1.3,0-1.8,0.9-1.8,2.4
				s0.5,2.4,1.8,2.4c0.3,0,0.6,0,0.9-0.1v-1.7h-1.1v-0.9h2.1v3.2c-0.6,0.3-1.3,0.4-2,0.4C52.4,150.3,51.7,149,51.7,147z"/>
		</g>
	</g>
	<g>
		<rect x="3.3" y="24" class="st1" width="94.8" height="94.8"/>
	</g>
	<g>
		<path class="st1" d="M98.2,20.7H3.3V3.3h94.8V20.7z M4.3,19.7h92.8V4.3H4.3L4.3,19.7z"/>
	</g>
	<g class="st2">
		<path class="st1" d="M6.7,6.9h4.5v1.4H9.9v8.8H8.1V8.3H6.7V6.9z"/>
	</g>
	<g class="st2">
		<path class="st1" d="M11.2,17.1l1.9-10.2h1.9L17,17.1h-1.8l-0.3-1.9h-1.8l-0.3,1.9H11.2z M13.3,13.9h1.4L14,9.8h0L13.3,13.9z"/>
	</g>
	<g class="st2">
		<path class="st1" d="M19.6,12.4v4.7h-1.7V6.9h2.5c1.7,0,2.4,0.9,2.4,2.3v1.3c0,1.1-0.4,1.7-1.4,2l1.6,4.6h-1.8L19.6,12.4z
			 M19.6,8.3v3.2h0.6c0.6,0,0.8-0.3,0.8-0.8V9.2c0-0.6-0.3-0.8-0.8-0.8H19.6z"/>
	</g>
	<g class="st2">
		<path class="st1" d="M26.4,11.7h2.4v5.4h-1.2V16c-0.2,0.8-0.7,1.2-1.6,1.2c-1.5,0-2.1-1.2-2.1-2.7V9.6c0-1.6,0.8-2.7,2.6-2.7
			c1.9,0,2.4,1.1,2.4,2.6v0.9h-1.6v-1c0-0.6-0.2-1-0.9-1c-0.6,0-0.9,0.4-0.9,1v5.5c0,0.6,0.3,1,0.8,1c0.6,0,0.8-0.3,0.8-1V13h-0.8
			V11.7z"/>
	</g>
	<g class="st2">
		<path class="st1" d="M30.2,6.9h4.1v1.4h-2.4v2.9h1.7v1.4h-1.7v3.1h2.4v1.4h-4.1V6.9z"/>
	</g>
	<g class="st2">
		<path class="st1" d="M35.1,6.9h4.5v1.4h-1.4v8.8h-1.7V8.3h-1.4V6.9z"/>
	</g>
	<g>
		<path class="st1" d="M98.2,153.9h-95v-31.7h95V153.9z M4.2,152.9h93v-29.7h-93V152.9z"/>
	</g>
	<g class="st2">
		<path class="st1" d="M77.4,6.9v10.2h-1.7V9.3h0l-1.2,1.2h0V8.8L76,6.9H77.4z"/>
	</g>
	<g class="st2">
		<path class="st1" d="M78.5,14.4l3-7.5h1.7v7.2h0.7v1.3h-0.7v1.7h-1.6v-1.7h-3V14.4z M80,14.1h1.5V9.9h0L80,14.1z"/>
	</g>
	<g class="st2">
	</g>
	<g class="st2">
		<path class="st1" d="M86.6,10.8c0.7,0,1.2,0.6,1.2,1.2c0,0.7-0.6,1.2-1.2,1.2c-0.7,0-1.2-0.6-1.2-1.2
			C85.3,11.4,85.9,10.8,86.6,10.8z"/>
	</g>
	<g class="st2">
		<path class="st1" d="M89.3,14.5v-5c0-1.6,0.7-2.7,2.5-2.7c1.9,0,2.4,1.1,2.4,2.6v0.5h-1.6V9.2c0-0.6-0.2-1-0.8-1
			c-0.6,0-0.8,0.4-0.8,1v2.2h0c0.3-0.5,0.7-0.8,1.4-0.8c1.2,0,1.9,0.8,1.9,2.5v1.5c0,1.6-0.7,2.6-2.5,2.6
			C90,17.2,89.3,16.1,89.3,14.5z M92.7,14.8V13c0-0.7-0.2-1-0.8-1c-0.5,0-0.8,0.4-0.8,0.9v1.9c0,0.6,0.2,1,0.8,1
			C92.4,15.8,92.7,15.5,92.7,14.8z"/>
	</g>
	<g>
		<polygon class="st3" points="13.6,77.6 13.2,75.6 11.6,76.5 11.8,78.6 		"/>
	</g>
	<g>
		<polygon class="st3" points="13.1,75.2 12.8,73.2 11.4,74 11.6,76.1 		"/>
	</g>
	<g>
		<polygon class="st3" points="13.8,66.8 10.9,59.6 13.2,67.1 		"/>
	</g>
	<g>
		<polygon class="st3" points="12.9,67.3 10.5,59.3 12.1,67.8 		"/>
	</g>
	<g>
		<polygon class="st3" points="12.2,68.2 12.6,70.2 13.6,69.6 13,67.7 		"/>
	</g>
	<g>
		<g>
			<path d="M36.6,91.4c-0.4-0.1-0.7-0.2-1.1-0.3l-26.4-37l25,20.8l0.8-4.2L9.1,54.1l0,0l25.6,1.8v-0.4L8.9,53.7v0.1l0,0v36.5
				c0.1-0.1,0.3-0.2,0.4-0.2c0,0,0.1,0,0.1,0l0.3,0.1c0.4,0.2,1,0.5,1.7,0.7l-0.9-0.4l1.9-1.1l0.2,1.8l0.4,0.1l-0.2-2.2l2.8-1.6
				l0.4,2.4l-2.7,1.6l0.5,0.1l2.3-1.3l0.3,1.6h0.4l-0.4-1.9l2.8-1.6l0.6,2.2l-2.3,1.4c0.3,0,0.5,0,0.8,0l1.7-1l0.2,0.7l0.4-0.1
				l-0.2-0.8l2.5-1.5l0.5,1.4l0.4-0.2l-0.6-1.4l2.6-1.5l0.6,1.3c0.1-0.1,0.2-0.2,0.3-0.2L26,87.5l2.2-1.2l1.1,1.8
				c-0.2-0.2-0.4-0.3-0.6-0.4l0,0l0,0c2.2,1.7,12.4,8.6,21.4,0.1l0.1-0.1l0,0v-20L31.4,79L36.6,91.4z M28.5,82.6l-1.6,0.9l-1.2-1.9
				l1.5-0.9L28.5,82.6z M11.9,81.3l-0.2-2.1l1.8-1.1l0.4,2L11.9,81.3z M14.1,80.5v0.1c-0.5,0.7-0.8,1.6-0.9,2.5l-1.1,0.6L12,81.7
				L14.1,80.5z M22.6,80.8l1.6-0.9l1,1.6l-1.8,1L22.6,80.8z M23.1,82.8l-0.7,0.4c0-0.7-0.2-1.4-0.5-2l0.3-0.2L23.1,82.8z M22.4,80.5
				l-0.9-1.7l1.5-0.9l1,1.7L22.4,80.5z M21.3,78.4l-0.9-1.7l1.3-0.8l1,1.6L21.3,78.4z M20.3,76.4l-0.9-1.7l1.2-0.7l1,1.7L20.3,76.4z
				 M19.3,74.4l-0.9-1.7l1-0.6l1,1.6L19.3,74.4z M15.5,71.3l-1,0.6L13.9,70l0.8-0.5L15.5,71.3z M15.1,69.3l0.9-0.5l0.9,1.7l-1,0.6
				L15.1,69.3z M14.1,72l-1.2,0.7l-0.4-2l1-0.6L14.1,72z M14.3,72.4l0.6,1.9l-1.4,0.8l-0.4-2L14.3,72.4z M14.6,72.2l1-0.6l0.7,1.8
				l-1.2,0.7L14.6,72.2z M15.9,71.4l1-0.6l0.9,1.7l-1.2,0.7L15.9,71.4z M18.1,72.8l0.9,1.7l-1.4,0.8l-0.7-1.8L18.1,72.8z M18.2,72.3
				l-0.9-1.7l0.9-0.5l1,1.7L18.2,72.3z M17.1,70.3l-0.9-1.7l0.7-0.4l1,1.6L17.1,70.3z M16.1,68.3l-0.9-1.7l0.5-0.3l1,1.6L16.1,68.3z
				 M15,66.2l-3.2-6.3l3.8,6L15,66.2z M15.7,68.4l-0.8,0.5l-0.7-1.8l0.7-0.4L15.7,68.4z M14.6,69.1l-0.8,0.5l-0.6-1.9l0.6-0.4
				L14.6,69.1z M13.4,69.8l-1,0.6l-0.4-2l0.8-0.5L13.4,69.8z M12.1,70.6L11,71.2l-0.2-2.1l0.9-0.5L12.1,70.6z M12.2,70.9l0.4,2
				l-1.3,0.8l-0.2-2.1L12.2,70.9z M12.6,73.3l0.4,2l-1.6,0.9l-0.2-2.2L12.6,73.3z M13.1,75.7l0.4,2l-1.8,1l-0.2-2.1L13.1,75.7z
				 M13.4,75.5l1.5-0.9l0.6,1.9l-1.6,1L13.4,75.5z M15.3,74.5l1.2-0.7l0.7,1.8l-1.4,0.8L15.3,74.5z M17.3,76l0.7,1.8l-1.5,0.9
				L16,76.8L17.3,76z M18.2,78.1l0.2,0.6c-0.2,0-0.4-0.1-0.6-0.1c-0.2,0-0.5,0-0.7,0.1L18.2,78.1z M18.4,77.6l-0.7-1.8l1.4-0.8
				l0.9,1.7L18.4,77.6z M20.1,77l0.9,1.6l-1,0.6c-0.3-0.2-0.7-0.3-1.1-0.4l-0.4-0.9L20.1,77z M21.1,79l0.9,1.7l-0.3,0.2
				c-0.3-0.6-0.8-1.1-1.4-1.5L21.1,79z M22.4,83.6l0.9-0.5l1,2L22,86.4l-0.3-0.7C22.1,85.1,22.4,84.4,22.4,83.6L22.4,83.6z
				 M23.6,82.9l1.8-1.1l1.2,1.9l-2,1.1L23.6,82.9z M27,80.5l-1.5,0.8l-1-1.6l1.4-0.8L27,80.5z M25.7,78.6l-1.3,0.8l-1-1.7l1.2-0.7
				L25.7,78.6z M24.3,76.7l-1.2,0.7l-1-1.6l1.1-0.7L24.3,76.7z M23,74.9l-1.1,0.6l-1-1.6l1-0.6L23,74.9z M21.7,73l-1,0.6l-1-1.6
				l0.9-0.5L21.7,73z M20.3,71.1l-0.8,0.5l-1-1.7l0.7-0.4L20.3,71.1z M19,69.2l-0.7,0.4l-1-1.6l0.6-0.4L19,69.2z M17.7,67.3
				l-0.6,0.3l-1-1.6l0.5-0.3L17.7,67.3z M16.3,65.5l-0.5,0.3l-4.5-7.2L16.3,65.5z M14.7,66.4l-0.6,0.4l-2.9-7.3L14.7,66.4z
				 M13.7,66.9l-0.6,0.4l-2.3-7.5L13.7,66.9z M12.7,67.5L12,68l-1.6-8.5L12.7,67.5z M11.6,68.2l-0.9,0.5L10,59.5L11.6,68.2z
				 M9.5,59.1l0.9,9.8l-0.9,0.5V59.1z M9.5,69.8l0.9-0.5l0.2,2.1l-1,0.6L9.5,69.8z M9.5,72.5l1.1-0.7l0.2,2.1l-1.3,0.8V72.5z
				 M9.5,75.1l1.4-0.8l0.2,2.1l-1.6,0.9L9.5,75.1z M9.5,77.8l1.6-0.9l0.2,2.1l-1.8,1L9.5,77.8z M9.5,80.5l1.8-1.1l0.2,2.1l-2,1.2
				L9.5,80.5z M9.5,83.1l2-1.2l0.3,2.1l-2.2,1.2L9.5,83.1z M9.5,85.7l2.2-1.3l0.2,2.2L9.6,88L9.5,85.7z M9.9,90.4l-0.4-0.2l0,0v-1.8
				l2.5-1.4l0.2,2.1L9.9,90.4z M12.1,84.2l1-0.6c0,0.7,0.2,1.4,0.6,2l-1.4,0.8L12.1,84.2z M12.6,88.9l-0.2-2.1l1.6-0.9
				c0.4,0.5,0.8,1,1.3,1.3v0.1L12.6,88.9z M14.2,79.9l-0.4-2l1.7-1l0.6,1.9L14.2,79.9z M16.1,89.7l-0.4-2.3h0.1
				c0.6,0.3,1.3,0.5,2,0.5c0.3,0,0.7,0,1-0.1l0.1,0.4L16.1,89.7z M19,85.5c-0.3,0.2-0.6,0.3-1,0.3v0.7h-0.4v-0.7
				c-0.4,0-0.7-0.1-1.1-0.3c-0.4-0.3-0.7-0.9-0.6-1.4h1c0,0.2,0.1,0.4,0.1,0.6c0.1,0.2,0.3,0.3,0.6,0.3v-1.5l-0.3-0.1
				c-0.4-0.1-0.7-0.3-1-0.6c-0.2-0.2-0.3-0.6-0.3-0.9c0-0.2,0-0.4,0.1-0.6c0.2-0.4,0.5-0.7,0.9-0.8c0.2,0,0.4-0.1,0.6-0.1v-0.5H18
				v0.5c0.3,0,0.7,0.1,0.9,0.3c0.5,0.3,0.8,0.8,0.7,1.3h-1c0-0.2,0-0.3-0.1-0.5c-0.1-0.2-0.3-0.3-0.5-0.3v1.4
				c0.4,0.1,0.8,0.3,1.2,0.5c0.3,0.3,0.5,0.7,0.5,1.1C19.8,84.8,19.5,85.3,19,85.5L19,85.5z M19.1,87.6c0.9-0.3,1.6-0.8,2.2-1.5
				l0.2,0.5L19.3,88L19.1,87.6z M20,90.5l-0.7-2.2l2.4-1.3l0.8,2L20,90.5z M22.9,88.8L22,86.7l2.4-1.4l1,2L22.9,88.8z M25.7,87.1
				l-1-2l2-1.2l1.3,2L25.7,87.1z M27.1,83.8l1.6-0.9l1.3,1.8l-1.8,1L27.1,83.8z M28.4,86l1.8-1l1.3,1.8L29.7,88L28.4,86z M30,88.5
				l-0.2-0.3l1.9-1.1l1.3,1.8l-1.1,0.7C31.2,89.3,30.6,88.9,30,88.5z M32.3,89.8l1-0.6l1,1.4C33.6,90.5,33,90.2,32.3,89.8L32.3,89.8
				z"/>
		</g>
		<g>
			<path d="M92.5,53.9L92.5,53.9l-25.8,1.8V55h-6.8v-2h-8.5V34.7h-1.6V53h-8.2v2h-6.8v1.5h6.8v5.8H37l-1.8,12.8l15.3-9.2l0,0
				l15.7,9.2l-1.7-12.8h-4.6v-5.8h6.8V56l25.5-1.8l0,0L66.5,70.8l0.7,4.2l25-20.8L66,91.1c-0.4,0.1-0.8,0.2-1.2,0.3l5-12.9L51,67.6
				v20l0,0h0.1l0.1,0.1c9,8.4,19.2,1.6,21.4-0.1l0,0l0,0l-0.3,0.2l0.9-1.5l2.1,1.2l-0.6,1.2l0.3,0.2l0.7-1.2l2.6,1.5l-0.6,1.4
				l0.3,0.1l0.5-1.3l2.6,1.5L81,91.8l0.4,0.1l0.2-0.7l1.5,0.9h0.8l-2.2-1.3l0.7-2.2l2.8,1.6L84.8,92h0.4l0.3-1.6l2.1,1.2l0.5-0.1
				L85.5,90l0.5-2.3l2.8,1.6l-0.2,2l0.4-0.1l0.2-1.7l1.8,1l0.4-0.2l-2.1-1.2l0.1-2.2l2.5,1.4v1.7l0,0c0.1,0,0.1-0.1,0.2-0.1
				c0,0,0.1,0,0.1,0c0.3,0,0.5,0.2,0.5,0.5L92.5,53.9L92.5,53.9z M55.4,62.2h-9.3v-5.6h9.3V62.2z M83.5,72.6l0.9-1.7l1,0.6l-0.7,1.8
				L83.5,72.6z M84.6,73.6l-0.7,1.8l-1.4-0.8l0.9-1.7L84.6,73.6z M85.6,71.1l-1-0.6l0.9-1.7l0.8,0.5L85.6,71.1z M86.6,69.5l0.8,0.5
				l-0.6,1.9l-1-0.6L86.6,69.5z M85.8,71.7l1,0.6l-0.6,1.9L85,73.5L85.8,71.7z M87.1,72.4l1.2,0.7l-0.4,2l-1.4-0.8L87.1,72.4z
				 M87.2,72.1l0.6-1.9l1,0.6l-0.4,2L87.2,72.1z M87.9,69.8l0.6-1.8l0.8,0.5l-0.4,2L87.9,69.8z M87.6,69.6l-0.8-0.5l0.7-1.8l0.7,0.4
				L87.6,69.6z M86.5,69l-0.8-0.5l0.9-1.7l0.7,0.4L86.5,69z M86.4,66.3L85.9,66l3.8-6L86.4,66.3z M86.2,66.6l-0.9,1.7L84.7,68l1-1.6
				L86.2,66.6z M85.2,68.7l-0.9,1.7l-0.8-0.5l1-1.6L85.2,68.7z M84.1,70.7l-0.9,1.7l-1-0.6l1-1.7L84.1,70.7z M83,72.8l-0.9,1.7
				L81,73.8l1-1.6L83,72.8z M82,74.8l-0.9,1.7l-1.3-0.8l1-1.7L82,74.8z M81,76.8l-0.9,1.7l-1.5-0.8l1-1.6L81,76.8z M80,78.8l-1,1.8
				l-1.6-1l1-1.7L80,78.8z M79.4,83.3l-1-0.6l0.9-1.7l0.4,0.2c-0.2,0.6-0.3,1.1-0.3,1.7c0,0.1-0.1,0.3-0.1,0.4L79.4,83.3z M78.8,81
				l-0.9,1.7l-1.8-1l1-1.6L78.8,81z M77.8,83l-1,2l-2-1.1L76,82L77.8,83z M78.1,83.2l1.2,0.7c0.1,0.5,0.3,1.1,0.6,1.6l-0.4,1.1
				l-2.4-1.4L78.1,83.2z M79.7,81l-0.4-0.2l0.9-1.7l0.8,0.4C80.5,79.9,80,80.5,79.7,81z M80.4,78.7l0.9-1.7l1.6,0.9l-0.3,0.7
				c-0.4,0.1-0.9,0.3-1.3,0.6L80.4,78.7z M81.4,76.7l0.9-1.7l1.4,0.8L83,77.6L81.4,76.7z M83.2,78.2l0.6,0.3c-0.3,0-0.5,0-0.8,0.1
				L83.2,78.2z M83.3,77.8L84,76l1.4,0.8l-0.5,1.8l-0.3-0.1L83.3,77.8z M84.2,75.7l0.7-1.8l1.2,0.7l-0.6,1.9L84.2,75.7z M86.4,74.8
				l1.5,0.8l-0.4,2l-1.7-1L86.4,74.8z M87.8,78.2l1.8,1.1l-0.2,2.1l-2-1.2L87.8,78.2z M87.9,77.8l0.4-2l1.6,0.9l-0.2,2.1L87.9,77.8z
				 M88.3,75.5l0.4-2l1.4,0.8l-0.2,2.1L88.3,75.5z M88.8,73l0.4-2l1.1,0.7l-0.2,2.1L88.8,73z M89.3,70.6l0.4-2l0.9,0.5l-0.2,2.1
				L89.3,70.6z M89.7,68.2l1.7-8.6l-0.8,9.1L89.7,68.2z M89.4,68l-0.8-0.4l2.4-8L89.4,68z M88.3,67.4L87.7,67l2.9-7.2L88.3,67.4z
				 M87.3,66.8l-0.6-0.4l3.6-6.9L87.3,66.8z M90,58.7l-4.5,7.2l-0.5-0.3L90,58.7z M84.9,65.9l0.5,0.3l-1,1.6l-0.6-0.3L84.9,65.9z
				 M83.5,67.7l0.6,0.3l-1,1.6l-0.7-0.4L83.5,67.7z M82.2,69.6l0.7,0.4l-1,1.7l-0.8-0.5L82.2,69.6z M80.8,71.5l0.9,0.5l-1,1.6
				l-1-0.6L80.8,71.5z M79.5,73.4l1,0.6l-1,1.6L78.4,75L79.5,73.4z M78.2,75.3l1.1,0.6l-1,1.6l-1.2-0.7L78.2,75.3z M76.8,77.1
				l1.2,0.7l-1,1.7l-1.3-0.8L76.8,77.1z M75.5,79l1.4,0.8l-1,1.6l-1.5-0.8L75.5,79z M74.2,80.9l1.5,0.9l-1.2,1.9l-1.6-0.9L74.2,80.9
				z M67.2,90.6l0.9-1.3l0.8,0.5C68.4,90.1,67.8,90.4,67.2,90.6z M71.5,88.4c-0.7,0.5-1.4,0.9-2.2,1.3l-1-0.6l1.3-1.8L71.5,88.4
				L71.5,88.4z M71.7,88L69.8,87l1.3-1.8l1.8,1L71.7,88z M73.1,85.8l-1.8-1l1.3-1.8l1.6,0.9L73.1,85.8z M75.6,87.3L73.4,86l1.2-1.9
				l2,1.2L75.6,87.3z M78.5,88.9l-2.6-1.5l1-2l2.4,1.4L78.5,88.9z M81.3,90.6l-2.5-1.5l0.8-2.1l2.4,1.4L81.3,90.6z M82.1,88.1
				l-2.3-1.3l0.4-0.9c0.5,0.7,1.3,1.3,2.2,1.6L82.1,88.1z M85.2,89.9l-2.8-1.6l0.2-0.7c0.4,0.1,0.8,0.2,1.2,0.2
				c0.5,0,1.1-0.1,1.6-0.3l0.2,0.1L85.2,89.9z M85.1,85.4c-0.3,0.2-0.6,0.3-1,0.3v0.7h-0.4v-0.7c-0.4,0-0.7-0.1-1.1-0.3
				c-0.4-0.3-0.7-0.9-0.6-1.4h1c0,0.2,0.1,0.4,0.1,0.6c0.1,0.2,0.3,0.3,0.6,0.3v-1.6l-0.3-0.1c-0.4-0.1-0.7-0.3-1-0.6
				c-0.2-0.3-0.3-0.6-0.3-0.9c0-0.2,0-0.4,0.1-0.6c0.1-0.2,0.2-0.3,0.3-0.5c0.2-0.2,0.4-0.3,0.6-0.4c0.2,0,0.4-0.1,0.6-0.1v-0.5h0.4
				v0.5c0.3,0,0.7,0.1,0.9,0.3c0.4,0.3,0.7,0.8,0.6,1.3h-1c0-0.2,0-0.3-0.1-0.5c-0.1-0.2-0.3-0.3-0.5-0.3v1.4
				c0.4,0.1,0.8,0.3,1.2,0.5c0.3,0.3,0.5,0.7,0.5,1.1C85.8,84.6,85.6,85.1,85.1,85.4z M85.3,78.8l0.5-1.8l1.7,1l-0.3,1.8
				C86.6,79.3,86,79,85.3,78.8z M88.8,89L86,87.4v-0.2c0.6-0.3,1.1-0.7,1.5-1.1l1.5,0.9L88.8,89z M89,86.4l-1.3-0.8
				c0.4-0.6,0.6-1.2,0.7-1.9l0.8,0.5L89,86.4z M89.2,83.8l-0.8-0.5c0-0.1,0-0.2,0-0.3c0-0.8-0.2-1.6-0.6-2.2l1.6,0.9L89.2,83.8z
				 M91.8,88l-2.4-1.4l0.2-2.2l2.2,1.3V88z M91.8,85.3l-2.2-1.3l0.2-2.1l2,1.2L91.8,85.3z M91.8,82.7l-2-1.2l0.2-2.1l1.8,1.1
				L91.8,82.7z M91.8,80.1l-1.8-1l0.2-2.1l1.6,0.9L91.8,80.1z M91.8,77.5l-1.6-0.9l0.2-2.1l1.4,0.8V77.5z M91.8,74.8L90.5,74
				l0.2-2.1l1.1,0.7V74.8z M91.8,72.1l-1.1-0.6l0.2-2.1l0.9,0.5L91.8,72.1z M91.8,69.5L90.9,69l0.9-9.8V69.5z"/>
		</g>
		<g>
			<path d="M83.1,81.7c0,0.2,0.1,0.4,0.2,0.5c0.1,0.1,0.3,0.1,0.4,0.2v-1.3c-0.2,0-0.3,0.1-0.5,0.2C83.2,81.4,83.1,81.5,83.1,81.7z"
				/>
		</g>
		<g>
			<path d="M84.1,83.5v1.4c0.1,0,0.3,0,0.4-0.1c0.2-0.1,0.3-0.4,0.2-0.6c0-0.2-0.1-0.4-0.2-0.5C84.4,83.6,84.3,83.5,84.1,83.5z"/>
		</g>
		<g>
			<path d="M18.1,83.6v1.4c0.1,0,0.3-0.1,0.4-0.1c0.2-0.1,0.2-0.4,0.2-0.6c0-0.2-0.1-0.4-0.2-0.5C18.4,83.7,18.3,83.7,18.1,83.6z"/>
		</g>
		<g>
			<path d="M17.1,81.8c0,0.2,0.1,0.4,0.2,0.5c0.1,0.1,0.2,0.1,0.4,0.2v-1.3c-0.2,0-0.3,0.1-0.5,0.2C17.2,81.5,17.1,81.7,17.1,81.8z"
				/>
		</g>
	</g>
	<g>
		<g>
			<path class="st0" d="M91.9,102.9h-0.1l-0.2,0.1c-2.6,1.3-10.8,4.5-18.2-2.6c-0.1-0.1-0.3-0.2-0.4-0.3c-0.2,0-0.3,0.1-0.4,0.2
				c-2.2,1.7-12.4,8.6-21.4,0.1l-0.1-0.1c-0.1-0.1-0.2-0.2-0.4-0.2c-0.1,0-0.3,0.1-0.3,0.2l-0.2,0.1c-9,8.5-19.2,1.6-21.4-0.1
				c-0.1-0.1-0.2-0.2-0.4-0.2c-0.2,0-0.3,0.1-0.4,0.2c-7.4,7.1-15.6,3.9-18.2,2.6l-0.3-0.1H9.2c-0.3,0-0.5,0.2-0.5,0.5l0,0v3.6
				c0,0.1,0.1,0.3,0.1,0.4c8.6,7.5,16.7,0.5,18.6-1.4c0.1-0.1,0.1-0.1,0.2-0.2c0.1,0,0.1-0.1,0.2-0.1c0.1,0,0.3,0.1,0.4,0.2
				c9.7,9.3,19.9,1.8,22,0l0.2-0.2c0.1,0,0.1-0.1,0.2-0.1c0.1,0,0.1,0,0.2,0.1l0.2,0.2c2.1,1.8,12.3,9.3,22,0l0,0
				c0.1-0.1,0.2-0.1,0.3-0.1c0.1,0,0.2,0,0.3,0.1c0.1,0,0.1,0.1,0.1,0.1c1.9,1.9,10,8.9,18.6,1.4c0.1-0.1,0.1-0.2,0.2-0.4v-3.6
				C92.5,103.2,92.3,102.9,91.9,102.9C92,102.9,92,102.9,91.9,102.9"/>
		</g>
		<g>
			<path class="st0" d="M91.9,90h-0.1l-0.2,0.1c-2.6,1.3-10.8,4.5-18.2-2.6c-0.1-0.1-0.3-0.3-0.4-0.2c-0.2,0-0.3,0.1-0.4,0.2
				c-2.2,1.7-12.4,8.6-21.4,0.1L51,87.5c-0.1-0.1-0.2-0.2-0.4-0.2c-0.1,0-0.3,0.1-0.3,0.2l-0.2,0.1c-9,8.5-19.2,1.6-21.4-0.1
				c-0.1-0.1-0.2-0.2-0.4-0.2c-0.2,0-0.3,0.1-0.4,0.2c-7.4,7-15.6,3.9-18.2,2.6L9.3,90H9.2c-0.3,0-0.5,0.2-0.5,0.5l0,0v3.6
				c0,0.1,0.1,0.3,0.1,0.4c8.6,7.5,16.7,0.5,18.6-1.4c0.1-0.1,0.1-0.1,0.2-0.2c0.1-0.1,0.1-0.1,0.2-0.1c0.1,0,0.3,0.1,0.4,0.2
				c9.7,9.3,19.9,1.8,22,0l0.2-0.2c0.1,0,0.1-0.1,0.2-0.1c0.1,0,0.1,0,0.2,0.1L51,93c2.1,1.8,12.3,9.3,21.9,0l0,0
				c0.1-0.1,0.2-0.1,0.3-0.2c0.1,0,0.2,0,0.3,0.1c0.1,0,0.1,0.1,0.1,0.1c1.9,1.9,10,8.9,18.6,1.4c0.1-0.1,0.2-0.2,0.2-0.4v-3.6
				C92.4,90.2,92.2,90,91.9,90C91.9,90,91.9,90,91.9,90"/>
		</g>
	</g>
</g>
</svg>
