<?xml version="1.0" encoding="utf-8"?>
<!-- Generator: Adobe Illustrator 22.0.1, SVG Export Plug-In . SVG Version: 6.00 Build 0)  -->
<svg version="1.1" id="Layer_1" xmlns="http://www.w3.org/2000/svg" xmlns:xlink="http://www.w3.org/1999/xlink" x="0px" y="0px"
	 viewBox="0 0 101.5 148.2" style="enable-background:new 0 0 101.5 148.2;" xml:space="preserve">
<style type="text/css">
	.st0{fill:#FFFFFF;}
	.st1{fill:#0A97D9;}
	.st2{enable-background:new    ;}
	.st3{opacity:0.3;}
</style>
<title>TARGET 1.1</title>
<g id="WHITE_BG">
	<g>
		<rect y="0" class="st0" width="101.5" height="148.2"/>
	</g>
</g>
<g id="TARGETS">
	<g>
		<g>
			<path class="st1" d="M7.8,132.2h-1v-6.4H9c1.6,0,2.2,0.7,2.2,1.9c0.1,0.7-0.3,1.4-1,1.7l1.3,2.8h-1.2l-1.1-2.6H7.8V132.2z
				 M7.8,128.7h1.3c0.9,0,1-0.5,1-1s-0.1-1-1-1H7.8V128.7z"/>
		</g>
		<g>
			<path class="st1" d="M15.7,129.3H13v2h3v0.9h-3.9v-6.4H16v0.9h-3v1.8h2.7L15.7,129.3z"/>
		</g>
		<g>
			<path class="st1" d="M16.8,132.2v-6.4h1.9c2.1,0,2.7,1.4,2.7,3.2s-0.6,3.2-2.7,3.2H16.8z M17.8,131.3h1c1.3,0,1.7-0.9,1.7-2.3
				s-0.4-2.3-1.7-2.3h-1V131.3z"/>
		</g>
		<g>
			<path class="st1" d="M22.1,130.2v-4.4H23v4.3c-0.1,0.6,0.4,1.2,1,1.3c0.1,0,0.2,0,0.3,0c0.6,0.1,1.2-0.3,1.4-1c0-0.1,0-0.2,0-0.3
				v-4.3h1v4.4c0.1,1.1-0.8,2.1-1.9,2.1c-0.2,0-0.3,0-0.4,0c-1.1,0.2-2.2-0.6-2.3-1.7C22.1,130.4,22.1,130.3,22.1,130.2z"/>
		</g>
		<g>
			<path class="st1" d="M30,125.7c0.5,0,1,0.1,1.5,0.3v0.9c-0.5-0.2-0.9-0.3-1.4-0.3c-1.2,0-1.7,0.8-1.7,2.4c0,1.6,0.5,2.4,1.7,2.4
				c0.5,0,1-0.1,1.4-0.3v0.9c-0.5,0.2-1,0.3-1.5,0.3c-1.9,0-2.6-1.2-2.6-3.3S28.1,125.7,30,125.7z"/>
		</g>
		<g>
			<path class="st1" d="M36,129.3h-2.7v2h2.9v0.9h-3.9v-6.4h3.9v0.9h-2.9v1.8H36V129.3z"/>
		</g>
		<g>
			<path class="st1" d="M41.9,131.3H41l-1.6-3.9v4.8h-1v-6.4h1.2l1.7,4.3l1.7-4.3h1.2v6.4h-1l0-4.8L41.9,131.3z"/>
		</g>
		<g>
			<path class="st1" d="M48.4,130.6h-2l-0.5,1.6h-1l2-6.4h1l2,6.4h-1L48.4,130.6z M47.4,127l-0.8,2.8h1.6L47.4,127z"/>
		</g>
		<g>
			<path class="st1" d="M51.4,132.2h-1v-6.4h2.1c1.7,0,2.2,0.7,2.2,1.9c0.1,0.7-0.3,1.4-1,1.7l1.4,2.8h-1.2l-1.2-2.6h-1.3V132.2z
				 M51.4,128.7h1.3c0.9,0,1-0.5,1-1s-0.1-1-1-1h-1.3V128.7z"/>
		</g>
		<g>
			<path class="st1" d="M55.7,132.2v-6.4h1v6.4H55.7z"/>
		</g>
		<g>
			<path class="st1" d="M61.5,132.2l-2.8-4.5v4.5h-0.9v-6.4h0.9l2.8,4.5v-4.5h0.9v6.4H61.5z"/>
		</g>
		<g>
			<path class="st1" d="M66.9,129.3h-2.7v2h2.9v0.9h-3.9v-6.4h3.9v0.9h-2.9v1.8h2.7V129.3z"/>
		</g>
		<g>
			<path class="st1" d="M7.8,141.2h-1v-6.4h2.1c1.6,0,2.2,1,2.2,2s-0.6,2-2.2,2H7.8V141.2z M7.8,137.9H9c0.6,0,1.1-0.5,1.1-1.1
				c0-0.6-0.5-1.1-1.1-1.1H7.8V137.9z"/>
		</g>
		<g>
			<path class="st1" d="M11.5,138c0-1.8,0.4-3.3,2.5-3.3s2.4,1.5,2.4,3.3s-0.4,3.3-2.4,3.3S11.5,139.8,11.5,138z M12.5,138
				c0,1.5,0.3,2.4,1.5,2.4s1.5-0.9,1.5-2.4s-0.3-2.4-1.5-2.4S12.5,136.5,12.5,138L12.5,138z"/>
		</g>
		<g>
			<path class="st1" d="M18.1,140.3h2.8v0.9h-3.7v-6.4h1L18.1,140.3z"/>
		</g>
		<g>
			<path class="st1" d="M22.4,140.3h2.8v0.9h-3.7v-6.4h1V140.3z"/>
		</g>
		<g>
			<path class="st1" d="M25.6,139.2v-4.4h1v4.3c-0.1,0.6,0.4,1.2,1,1.3c0.1,0,0.2,0,0.3,0c0.6,0.1,1.3-0.3,1.4-1c0-0.1,0-0.2,0-0.3
				v-4.3h1v4.4c0,1.1-0.8,2.1-2,2.1c-0.1,0-0.2,0-0.3,0c-1.1,0.2-2.2-0.6-2.3-1.7C25.6,139.5,25.6,139.3,25.6,139.2z"/>
		</g>
		<g>
			<path class="st1" d="M33.3,135.7v5.5h-1v-5.5h-1.6v-0.9H35v0.9H33.3z"/>
		</g>
		<g>
			<path class="st1" d="M35.8,141.2v-6.4h1v6.4H35.8z"/>
		</g>
		<g>
			<path class="st1" d="M37.8,138c0-1.8,0.4-3.3,2.5-3.3s2.5,1.5,2.5,3.3s-0.4,3.3-2.5,3.3S37.8,139.8,37.8,138z M38.8,138
				c0,1.5,0.3,2.4,1.5,2.4s1.5-0.9,1.5-2.4s-0.3-2.4-1.5-2.4S38.7,136.5,38.8,138L38.8,138z"/>
		</g>
		<g>
			<path class="st1" d="M47.1,141.2l-2.8-4.5v4.5h-1v-6.4h0.9l2.8,4.5v-4.5h1v6.4H47.1z"/>
		</g>
	</g>
	<g>
		<rect x="3.3" y="24" class="st1" width="94.8" height="94.8"/>
	</g>
	<g>
		<path class="st1" d="M98.2,20.7H3.3V3.3h94.8V20.7z M4.3,19.7h92.8V4.3H4.3L4.3,19.7z"/>
	</g>
	<g class="st2">
		<path class="st1" d="M6.7,6.9h4.5v1.4H9.9v8.8H8.1V8.3H6.7V6.9z"/>
	</g>
	<g class="st2">
		<path class="st1" d="M11.2,17.1l1.9-10.2h1.9L17,17.1h-1.8l-0.3-1.9h-1.8l-0.3,1.9H11.2z M13.3,13.9h1.4L14,9.8h0L13.3,13.9z"/>
	</g>
	<g class="st2">
		<path class="st1" d="M19.6,12.4v4.7h-1.7V6.9h2.5c1.7,0,2.4,0.9,2.4,2.3v1.3c0,1.1-0.4,1.7-1.4,2l1.6,4.6h-1.8L19.6,12.4z
			 M19.6,8.3v3.2h0.6c0.6,0,0.8-0.3,0.8-0.8V9.2c0-0.6-0.3-0.8-0.8-0.8H19.6z"/>
	</g>
	<g class="st2">
		<path class="st1" d="M26.4,11.7h2.4v5.4h-1.2V16c-0.2,0.8-0.7,1.2-1.6,1.2c-1.5,0-2.1-1.2-2.1-2.7V9.6c0-1.6,0.8-2.7,2.6-2.7
			c1.9,0,2.4,1.1,2.4,2.6v0.9h-1.6v-1c0-0.6-0.2-1-0.9-1c-0.6,0-0.9,0.4-0.9,1v5.5c0,0.6,0.3,1,0.8,1c0.6,0,0.8-0.3,0.8-1V13h-0.8
			V11.7z"/>
	</g>
	<g class="st2">
		<path class="st1" d="M30.2,6.9h4.1v1.4h-2.4v2.9h1.7v1.4h-1.7v3.1h2.4v1.4h-4.1V6.9z"/>
	</g>
	<g class="st2">
		<path class="st1" d="M35.1,6.9h4.5v1.4h-1.4v8.8h-1.7V8.3h-1.4V6.9z"/>
	</g>
	<g class="st2">
		<path class="st1" d="M79.4,6.9v10.2h-1.7V9.3h0l-1.2,1.2h0V8.8L78,6.9H79.4z"/>
	</g>
	<g class="st2">
		<path class="st1" d="M80.5,14.4l3-7.5h1.7v7.2h0.7v1.3h-0.7v1.7h-1.6v-1.7h-3V14.4z M82,14.1h1.5V9.9h0L82,14.1z"/>
	</g>
	<g class="st2">
	</g>
	<g class="st2">
		<path class="st1" d="M88.6,10.8c0.7,0,1.2,0.6,1.2,1.2c0,0.7-0.6,1.2-1.2,1.2c-0.7,0-1.2-0.6-1.2-1.2
			C87.4,11.4,87.9,10.8,88.6,10.8z"/>
	</g>
	<g class="st2">
		<path class="st1" d="M94.1,6.9v10.2h-1.7V9.3h0l-1.2,1.2h0V8.8l1.6-1.8H94.1z"/>
	</g>
	<g>
		<path class="st1" d="M98.2,144.9h-95v-22.8h95V144.9z M4.2,143.9h93v-20.8h-93V143.9z"/>
	</g>
	<g class="st3">
		<g>
			<polygon points="73.2,68.5 86.8,65.1 89.4,75.4 77.9,74.9 			"/>
		</g>
		<g>
			<polygon points="9.7,87 11.2,78.3 23.1,86.6 16,90.1 			"/>
		</g>
	</g>
	<g>
		<g>
			<g>
				<path d="M39.5,68.6c0.5,0.2,0.7,0.7,0.5,1.2c-0.2,0.5-0.7,0.7-1.2,0.5c-0.5-0.2-0.7-0.7-0.5-1.2C38.5,68.6,39,68.4,39.5,68.6
					C39.5,68.6,39.5,68.6,39.5,68.6z"/>
			</g>
			<g>
				<path d="M43.5,62.5c0.5,0.2,0.7,0.7,0.5,1.1c0,0,0,0,0,0c-0.2,0.5-0.7,0.7-1.2,0.5s-0.7-0.7-0.5-1.2
					C42.6,62.6,43.1,62.3,43.5,62.5C43.5,62.5,43.5,62.5,43.5,62.5z"/>
			</g>
			<g>
				<path d="M62.6,66c0.4-0.3,1-0.2,1.2,0.2c0.3,0.4,0.2,1-0.2,1.2c-0.4,0.3-1,0.2-1.2-0.2C62.1,66.8,62.2,66.3,62.6,66
					C62.6,66,62.6,66,62.6,66z"/>
			</g>
			<g>
				<path d="M54.6,57.9c0.4-0.3,1-0.2,1.3,0.2s0.2,1-0.2,1.3s-1,0.2-1.3-0.2c0,0,0,0,0,0C54.1,58.7,54.2,58.1,54.6,57.9z"/>
			</g>
			<g>
				<path d="M28.3,64.1c0.5,0.2,0.7,0.7,0.5,1.2c-0.2,0.4-0.6,0.6-1.1,0.5c-0.5-0.2-0.7-0.7-0.6-1.1c0,0,0,0,0,0
					C27.3,64.2,27.8,64,28.3,64.1C28.3,64.1,28.3,64.1,28.3,64.1z"/>
			</g>
			<g>
				<path d="M31.1,57.4c0.5,0.2,0.7,0.7,0.5,1.2c-0.2,0.5-0.7,0.7-1.2,0.5C30.1,59,29.8,58.5,30,58c0,0,0,0,0,0
					C30.2,57.5,30.7,57.3,31.1,57.4C31.1,57.4,31.1,57.4,31.1,57.4z"/>
			</g>
			<g>
				<path d="M18.1,67.5c0.5,0.2,0.7,0.7,0.5,1.2c-0.2,0.5-0.7,0.7-1.2,0.5C17,69,16.8,68.5,16.9,68C17.1,67.6,17.6,67.3,18.1,67.5
					C18.1,67.5,18.1,67.5,18.1,67.5z"/>
			</g>
			<g>
				<path d="M18.7,74.5c0.5,0.2,0.7,0.7,0.5,1.2c-0.2,0.5-0.7,0.7-1.2,0.5c-0.5-0.2-0.7-0.7-0.5-1.2c0,0,0,0,0,0
					C17.7,74.5,18.3,74.3,18.7,74.5z"/>
			</g>
			<g>
				<path d="M13.6,70.2c0.5,0.2,0.7,0.7,0.5,1.2c-0.2,0.5-0.7,0.7-1.2,0.5c-0.5-0.2-0.7-0.7-0.5-1.2C12.6,70.3,13.1,70.1,13.6,70.2
					C13.6,70.2,13.6,70.2,13.6,70.2z"/>
			</g>
			<g>
				<path d="M13.6,57.8c0.5,0.2,0.7,0.7,0.5,1.2c-0.2,0.5-0.7,0.7-1.2,0.5c-0.5-0.2-0.7-0.7-0.5-1.1C12.6,57.9,13.1,57.6,13.6,57.8
					C13.6,57.8,13.6,57.8,13.6,57.8z"/>
			</g>
			<g>
				<path d="M16.4,61.5c0.5,0.2,0.7,0.7,0.5,1.2c-0.2,0.5-0.7,0.7-1.2,0.5c-0.5-0.2-0.7-0.7-0.5-1.1C15.4,61.5,15.9,61.3,16.4,61.5
					C16.4,61.5,16.4,61.5,16.4,61.5z"/>
			</g>
			<g>
				<path d="M24.8,59c0.5,0.2,0.7,0.7,0.5,1.2c-0.2,0.5-0.7,0.7-1.2,0.5c-0.5-0.2-0.7-0.7-0.5-1.2C23.8,59.1,24.3,58.8,24.8,59z"/>
			</g>
			<g>
				<path d="M69.5,102.2c0.5,0.2,0.7,0.7,0.5,1.2c-0.2,0.5-0.7,0.7-1.2,0.5s-0.7-0.7-0.5-1.2C68.5,102.2,69.1,102,69.5,102.2z"/>
			</g>
			<g>
				<path d="M43.8,100.1c0.5,0.2,0.7,0.7,0.5,1.2c-0.1,0.5-0.6,0.7-1.1,0.6c-0.5-0.1-0.7-0.6-0.6-1.1c0,0,0-0.1,0-0.1
					C42.9,100.1,43.4,99.9,43.8,100.1C43.8,100.1,43.8,100.1,43.8,100.1z"/>
			</g>
			<g>
				<path d="M46.6,64.6c0.5,0.2,0.7,0.7,0.5,1.2c-0.2,0.5-0.7,0.7-1.2,0.5c-0.5-0.2-0.7-0.7-0.5-1.1C45.6,64.7,46.1,64.5,46.6,64.6z
					"/>
			</g>
			<g>
				<path d="M45.9,68.9c0.4,0.2,0.7,0.7,0.5,1.1c-0.2,0.5-0.7,0.7-1.1,0.5c0,0,0,0,0,0c-0.5-0.2-0.7-0.7-0.5-1.2
					C44.9,68.9,45.4,68.7,45.9,68.9L45.9,68.9z"/>
			</g>
			<g>
				<path d="M81.1,90c0.5,0.2,0.7,0.7,0.5,1.2c-0.2,0.5-0.7,0.7-1.2,0.5C80,91.5,79.8,91,80,90.5C80.1,90.1,80.7,89.8,81.1,90
					C81.1,90,81.1,90,81.1,90z"/>
			</g>
			<g>
				<path d="M85,82.7c0.5,0.2,0.7,0.7,0.5,1.2c-0.2,0.5-0.7,0.7-1.1,0.5c0,0,0,0,0,0c-0.5-0.2-0.7-0.7-0.5-1.2
					C84,82.8,84.5,82.5,85,82.7C85,82.7,85,82.7,85,82.7z"/>
			</g>
			<g>
				<path d="M72.8,95.9c0.5,0.2,0.7,0.7,0.5,1.2c0,0,0,0,0,0c-0.2,0.5-0.7,0.7-1.1,0.5c0,0,0,0,0,0c-0.5-0.2-0.7-0.7-0.5-1.2
					S72.4,95.8,72.8,95.9z"/>
			</g>
			<g>
				<path d="M88.4,109.4c0.5,0.2,0.7,0.7,0.5,1.2c-0.2,0.5-0.7,0.7-1.2,0.5s-0.7-0.7-0.5-1.2C87.4,109.5,87.9,109.2,88.4,109.4
					L88.4,109.4z"/>
			</g>
			<g>
				<path d="M69.6,60.6c0.5,0.2,0.7,0.7,0.5,1.2c-0.2,0.5-0.7,0.7-1.2,0.5c-0.5-0.2-0.7-0.7-0.5-1.1C68.6,60.6,69.2,60.4,69.6,60.6
					C69.6,60.6,69.6,60.6,69.6,60.6z"/>
			</g>
			<g>
				<path d="M75.2,101.9c0.5,0.2,0.7,0.7,0.5,1.2c-0.2,0.5-0.7,0.7-1.2,0.5c-0.5-0.2-0.7-0.7-0.5-1.1
					C74.2,101.9,74.7,101.7,75.2,101.9C75.2,101.9,75.2,101.9,75.2,101.9z"/>
			</g>
			<g>
				<path d="M56.2,101.1c0.5,0.2,0.7,0.7,0.5,1.2c-0.2,0.5-0.7,0.7-1.2,0.5c-0.5-0.2-0.7-0.7-0.5-1.1
					C55.2,101.1,55.8,100.9,56.2,101.1C56.2,101.1,56.2,101.1,56.2,101.1z"/>
			</g>
			<g>
				<path d="M69.8,109.4c0.5,0.2,0.7,0.7,0.5,1.2c-0.2,0.5-0.7,0.7-1.2,0.5c-0.5-0.2-0.7-0.7-0.5-1.1
					C68.9,109.5,69.4,109.2,69.8,109.4z"/>
			</g>
			<g>
				<path d="M86.6,98.5c0.5,0.2,0.7,0.7,0.5,1.2c-0.2,0.5-0.7,0.7-1.2,0.5l0,0c-0.5-0.2-0.7-0.7-0.5-1.2
					C85.6,98.6,86.1,98.4,86.6,98.5z"/>
			</g>
			<g>
				<path d="M89,88.4c0.5,0.2,0.7,0.7,0.5,1.2c-0.2,0.5-0.7,0.7-1.2,0.5c-0.5-0.2-0.7-0.7-0.5-1.1C88,88.5,88.5,88.2,89,88.4
					C89,88.4,89,88.4,89,88.4z"/>
			</g>
			<g>
				<path d="M81.1,95.9c0.5,0.2,0.7,0.7,0.5,1.2c-0.2,0.5-0.7,0.7-1.2,0.5c-0.5-0.2-0.7-0.7-0.5-1.2c0,0,0,0,0,0
					C80.1,96,80.6,95.7,81.1,95.9C81.1,95.9,81.1,95.9,81.1,95.9z"/>
			</g>
			<g>
				<path d="M50.9,108c0.5,0.2,0.7,0.7,0.5,1.1c0,0,0,0,0,0c-0.2,0.5-0.7,0.7-1.2,0.5s-0.7-0.7-0.5-1.2
					C49.9,108.1,50.4,107.8,50.9,108C50.9,108,50.9,108,50.9,108z"/>
			</g>
			<g>
				<path d="M62.2,106.4c0.5,0.2,0.7,0.7,0.5,1.2c-0.2,0.5-0.7,0.7-1.2,0.5l0,0c-0.5-0.2-0.7-0.7-0.5-1.2c0,0,0,0,0,0
					C61.2,106.5,61.7,106.2,62.2,106.4z"/>
			</g>
			<g>
				<path d="M14.8,107.8c0.5,0.2,0.7,0.7,0.5,1.2c-0.2,0.4-0.6,0.6-1.1,0.5c-0.5-0.1-0.7-0.6-0.6-1.1s0.6-0.7,1.1-0.6
					C14.7,107.8,14.7,107.8,14.8,107.8z"/>
			</g>
			<g>
				<path d="M37.6,95.5c0.5,0.2,0.7,0.7,0.5,1.2c-0.2,0.5-0.7,0.7-1.2,0.5c-0.5-0.2-0.7-0.7-0.5-1.2C36.6,95.6,37.1,95.4,37.6,95.5z
					"/>
			</g>
			<g>
				<path d="M20,100.1c0.5,0.2,0.7,0.7,0.5,1.2c-0.2,0.5-0.7,0.7-1.2,0.5c-0.5-0.2-0.7-0.7-0.5-1.2c0,0,0,0,0,0
					C19,100.2,19.5,99.9,20,100.1z"/>
			</g>
			<g>
				<path d="M47.4,103.5c0.5,0.2,0.7,0.7,0.5,1.2c-0.2,0.5-0.7,0.7-1.2,0.5c-0.5-0.2-0.7-0.7-0.5-1.1
					C46.4,103.6,46.9,103.4,47.4,103.5C47.4,103.5,47.4,103.5,47.4,103.5z"/>
			</g>
			<g>
				<path d="M81.9,107.2c0.5,0.2,0.7,0.7,0.5,1.2c0,0,0,0,0,0c-0.2,0.5-0.7,0.7-1.1,0.5c0,0,0,0,0,0c-0.5-0.2-0.7-0.7-0.5-1.2
					C80.9,107.2,81.4,107,81.9,107.2C81.9,107.2,81.9,107.2,81.9,107.2z"/>
			</g>
			<g>
				<path d="M27.2,107.4c0.5,0.2,0.7,0.7,0.5,1.2c-0.2,0.5-0.7,0.7-1.1,0.5c0,0,0,0,0,0c-0.5-0.2-0.7-0.7-0.5-1.2
					S26.7,107.2,27.2,107.4C27.2,107.4,27.2,107.4,27.2,107.4z"/>
			</g>
		</g>
		<g>
			<g>
				<polygon points="31.1,106.3 36,112.4 41.7,100.7 34.6,101.1 				"/>
			</g>
			<g>
				<g>
					<polygon points="84.4,56 74.5,65.9 76,66.5 85.4,57 					"/>
				</g>
				<g>
					<polygon points="86.5,58.2 77.5,67.2 79,67.8 87.6,59.2 					"/>
				</g>
				<g>
					<polygon points="88.7,60.4 80.6,68.5 81.8,69 82.7,68.4 89.8,61.4 					"/>
				</g>
				<g>
					<polygon points="90.9,62.5 87.8,65.6 91.8,63.4 					"/>
				</g>
			</g>
			<g>
				<polygon points="13.3,83.4 12.7,86.9 15,84.6 				"/>
			</g>
			<g>
				<polygon points="18.1,86.7 12.4,92.3 15.6,93.9 20.9,88.6 				"/>
			</g>
		</g>
	</g>
	<g>
		<g>
			<path class="st0" d="M78.6,83.3c-1.3-1.7-9.4-12.1-20.8-12.1c-9.9,0-20.5,9-20.5,9s-4-8.1-12.1-8.9h-0.2c-0.2,0-0.3,0.1-0.3,0.3
				c0,0.1,0.1,0.2,0.1,0.3c1,1.7,3.7,6.7,3.7,11.6S26,93.4,25,95.2l-0.1,0.1c0,0.1-0.1,0.1,0,0.2c0,0.2,0.1,0.3,0.3,0.3h0.2
				c8.1-0.8,12.1-8.9,12.1-8.9s10.6,9,20.5,9c11.4,0,19.5-10.3,20.8-12l0.1-0.1c0,0,0-0.1,0-0.1c0,0,0-0.1,0-0.1L78.6,83.3
				 M64.2,84.8c-1.8,0-3.3-1.5-3.3-3.3s1.5-3.3,3.3-3.3c1.8,0,3.3,1.5,3.3,3.3C67.5,83.3,66.1,84.8,64.2,84.8
				C64.2,84.8,64.2,84.8,64.2,84.8"/>
		</g>
		<g>
			<g>
				<path class="st0" d="M90.3,33.3L90.3,33.3l-0.3,0.1c-2.5,1.3-10.4,4.3-17.5-2.5c-0.1-0.1-0.2-0.2-0.4-0.2
					c-0.2,0-0.3,0.1-0.4,0.2c-2.1,1.6-11.9,8.2-20.6,0.1L50.8,31c-0.1-0.1-0.2-0.1-0.3-0.1c-0.1,0-0.3,0-0.3,0.1L50,31.1
					c-8.7,8.1-18.5,1.5-20.6-0.1c-0.1-0.1-0.2-0.2-0.4-0.2c-0.2,0-0.3,0.1-0.4,0.2c-7.1,6.8-15,3.7-17.5,2.5l-0.2-0.1h-0.1
					c-0.3,0-0.5,0.2-0.5,0.5l0,0v3.3c0,0.1,0.1,0.2,0.1,0.3c8.2,7.2,16.1,0.5,17.9-1.3c0.1-0.1,0.1-0.1,0.2-0.2
					c0.1,0,0.1-0.1,0.2-0.1c0.1,0,0.3,0.1,0.4,0.2c9.3,8.9,19.1,1.7,21.1,0l0.2-0.2c0-0.1,0.1-0.1,0.2-0.1c0.1,0,0.1,0,0.2,0.1
					l0.2,0.2c2,1.7,11.8,8.9,21.1,0l0,0c0.1-0.1,0.2-0.1,0.3-0.1c0.1,0,0.2,0,0.3,0.1c0.1,0,0.1,0.1,0.1,0.1
					c1.8,1.8,9.6,8.5,17.9,1.3c0.1-0.1,0.1-0.2,0.1-0.3v-3.4C90.7,33.5,90.5,33.3,90.3,33.3"/>
			</g>
			<g>
				<path class="st0" d="M90.3,45.7L90.3,45.7l-0.3,0.1c-5.8,3.1-12.9,2.1-17.5-2.5c-0.1-0.1-0.3-0.2-0.4-0.2
					c-0.1,0-0.3,0.1-0.4,0.2C69.4,45,59.7,51.6,51,43.5l-0.1-0.1c-0.1-0.1-0.2-0.1-0.3-0.1c-0.1,0-0.3,0-0.3,0.1L50,43.5
					c-8.7,8.1-18.5,1.5-20.6-0.1c-0.1-0.1-0.2-0.2-0.4-0.2c-0.2,0-0.3,0.1-0.4,0.2c-7.1,6.8-15,3.7-17.5,2.5l-0.2-0.1h-0.1
					c-0.3,0-0.5,0.2-0.5,0.5l0,0v3.4c0,0.1,0.1,0.2,0.1,0.3c8.2,7.2,16.1,0.5,17.9-1.3c0.1-0.1,0.1-0.1,0.2-0.2
					c0.1,0,0.1-0.1,0.2-0.1c0.1,0,0.3,0.1,0.4,0.2c9.3,8.9,19.1,1.7,21.1,0l0.2-0.2c0,0,0.1-0.1,0.2-0.1c0.1,0,0.1,0,0.2,0.1
					l0.2,0.2c2,1.7,11.8,8.9,21.1,0l0,0c0.1-0.1,0.2-0.1,0.3-0.1c0.1,0,0.2,0,0.3,0.1c0.1,0,0.1,0.1,0.1,0.1
					c1.8,1.8,9.6,8.5,17.9,1.3c0.1-0.1,0.1-0.2,0.1-0.3v-3.5C90.8,45.9,90.5,45.7,90.3,45.7"/>
			</g>
		</g>
	</g>
</g>
</svg>
