<?xml version="1.0" encoding="utf-8"?>
<!-- Generator: Adobe Illustrator 22.0.1, SVG Export Plug-In . SVG Version: 6.00 Build 0)  -->
<svg version="1.1" id="Layer_1" xmlns="http://www.w3.org/2000/svg" xmlns:xlink="http://www.w3.org/1999/xlink" x="0px" y="0px"
	 viewBox="0 0 101.5 148.2" style="enable-background:new 0 0 101.5 148.2;" xml:space="preserve">
<style type="text/css">
	.st0{fill:#FFFFFF;}
	.st1{fill:#0A97D9;}
	.st2{enable-background:new    ;}
	.st3{opacity:0.3;}
</style>
<title>TARGET 1.3</title>
<g id="WHITE_BG">
	<g>
		<rect y="0" class="st0" width="101.5" height="148.2"/>
	</g>
</g>
<g id="TARGETS">
	<g>
		<g>
			<path class="st1" d="M7.8,132.2h-1v-6.4H9c1.6,0,2.2,0.7,2.2,1.9c0.1,0.7-0.3,1.4-1,1.7l1.3,2.8h-1.2l-1.1-2.6H7.8V132.2z
				 M7.8,128.7h1.3c0.9,0,1-0.5,1-1s-0.1-1-1-1H7.8V128.7z"/>
		</g>
		<g>
			<path class="st1" d="M15.7,129.3H13v2h3v0.9h-3.9v-6.4H16v0.9h-3v1.8h2.7L15.7,129.3z"/>
		</g>
		<g>
			<path class="st1" d="M16.8,132.2v-6.4h1.9c2.1,0,2.7,1.4,2.7,3.2s-0.6,3.2-2.7,3.2H16.8z M17.8,131.3h1c1.3,0,1.7-0.9,1.7-2.3
				s-0.4-2.3-1.7-2.3h-1V131.3z"/>
		</g>
		<g>
			<path class="st1" d="M22.1,130.2v-4.4H23v4.3c-0.1,0.7,0.4,1.3,1,1.3c0.1,0,0.2,0,0.3,0c0.6,0.1,1.3-0.3,1.4-1c0-0.1,0-0.2,0-0.3
				v-4.3h1v4.4c0,1.1-0.8,2.1-2,2.1c-0.1,0-0.2,0-0.3,0c-1.1,0.2-2.2-0.6-2.3-1.8C22.1,130.4,22.1,130.3,22.1,130.2z"/>
		</g>
		<g>
			<path class="st1" d="M30,125.7c0.5,0,1,0.1,1.5,0.3v0.9c-0.4-0.2-0.9-0.3-1.4-0.3c-1.2,0-1.7,0.8-1.7,2.4c0,1.6,0.5,2.4,1.7,2.4
				c0.5,0,1-0.1,1.4-0.3v0.9c-0.5,0.2-1,0.3-1.5,0.3c-1.9,0-2.6-1.2-2.6-3.3S28.1,125.7,30,125.7z"/>
		</g>
		<g>
			<path class="st1" d="M36,129.3h-2.7v2h2.9v0.9h-3.9v-6.4h3.9v0.9h-2.9v1.8H36V129.3z"/>
		</g>
		<g>
			<path class="st1" d="M38.4,129c0-1.8,0.4-3.3,2.5-3.3s2.5,1.5,2.5,3.3s-0.4,3.3-2.5,3.3S38.4,130.8,38.4,129z M39.4,129
				c0,1.5,0.3,2.4,1.5,2.4s1.5-0.9,1.5-2.4s-0.3-2.4-1.5-2.4S39.3,127.5,39.4,129L39.4,129z"/>
		</g>
		<g>
			<path class="st1" d="M46.6,125.7c0.5,0,1,0.1,1.5,0.3v0.9c-0.4-0.2-0.9-0.3-1.4-0.3c-1.2,0-1.7,0.8-1.7,2.4
				c0,1.6,0.5,2.4,1.7,2.4c0.5,0,1-0.1,1.4-0.3v0.9c-0.5,0.2-1,0.3-1.5,0.3c-1.9,0-2.6-1.2-2.6-3.3S44.7,125.7,46.6,125.7z"/>
		</g>
		<g>
			<path class="st1" d="M52.5,129.3h-2.6v2h2.9v0.9h-3.9v-6.4h3.9v0.9h-2.9v1.8h2.7L52.5,129.3z"/>
		</g>
		<g>
			<path class="st1" d="M56.7,130.6h-2l-0.5,1.6h-1l2-6.5h1l2,6.5h-1L56.7,130.6z M55.7,127l-0.8,2.8h1.6L55.7,127z"/>
		</g>
		<g>
			<path class="st1" d="M62.4,132.2l-2.8-4.5v4.5h-0.9v-6.4h0.9l2.8,4.5v-4.5h1v6.4L62.4,132.2z"/>
		</g>
		<g>
			<path class="st1" d="M10.1,139.6h-2l-0.4,1.6h-1l2-6.5h1l2,6.5h-1L10.1,139.6z M9.1,136l-0.8,2.8h1.6L9.1,136z"/>
		</g>
		<g>
			<path class="st1" d="M14.4,134.7c0.5,0,1,0.1,1.5,0.3v0.9c-0.5-0.2-0.9-0.3-1.4-0.3c-1.2,0-1.7,0.8-1.7,2.4s0.5,2.4,1.7,2.4
				c0.5,0,1-0.1,1.4-0.3v0.9c-0.5,0.2-1,0.3-1.5,0.3c-1.9,0-2.6-1.2-2.6-3.3S12.5,134.7,14.4,134.7z"/>
		</g>
		<g>
			<path class="st1" d="M16.9,141.2v-6.4h1v6.4H16.9z"/>
		</g>
		<g>
			<path class="st1" d="M18.9,141.2v-6.4h1.9c2.1,0,2.7,1.4,2.7,3.2s-0.6,3.2-2.7,3.2H18.9z M19.9,140.3h1c1.3,0,1.7-0.9,1.7-2.3
				s-0.4-2.3-1.7-2.3h-1V140.3z"/>
		</g>
		<g>
			<path class="st1" d="M24.4,141.2v-6.4h1v6.4H24.4z"/>
		</g>
		<g>
			<path class="st1" d="M30,138.4h-2.6v2.8h-1v-6.4h3.8v0.9h-2.9v1.8H30V138.4z"/>
		</g>
		<g>
			<path class="st1" d="M31,141.2v-6.4h1v6.4H31z"/>
		</g>
		<g>
			<path class="st1" d="M35.4,134.7c0.5,0,1,0.1,1.5,0.3v0.9c-0.5-0.2-0.9-0.3-1.4-0.3c-1.2,0-1.7,0.8-1.7,2.4s0.5,2.4,1.7,2.4
				c0.5,0,1-0.1,1.4-0.3v0.9c-0.5,0.2-1,0.3-1.5,0.3c-1.9,0-2.6-1.2-2.6-3.3S33.5,134.7,35.4,134.7z"/>
		</g>
		<g>
			<path class="st1" d="M40.8,139.6h-2l-0.5,1.6h-1l2-6.5h1l2,6.5h-1L40.8,139.6z M39.8,136l-0.8,2.8h1.6L39.8,136z"/>
		</g>
		<g>
			<path class="st1" d="M44.3,135.7v5.5h-1v-5.5h-1.6v-0.9H46v0.9H44.3z"/>
		</g>
		<g>
			<path class="st1" d="M46.7,141.2v-6.4h1v6.4H46.7z"/>
		</g>
		<g>
			<path class="st1" d="M48.6,138c0-1.8,0.4-3.3,2.5-3.3s2.5,1.5,2.5,3.3s-0.4,3.3-2.5,3.3S48.6,139.8,48.6,138z M49.6,138
				c0,1.5,0.3,2.4,1.5,2.4s1.5-0.9,1.5-2.4s-0.3-2.4-1.5-2.4S49.6,136.5,49.6,138L49.6,138z"/>
		</g>
		<g>
			<path class="st1" d="M58,141.2l-2.8-4.5v4.5h-0.9v-6.4h0.9l2.8,4.5v-4.5h1v6.4H58z"/>
		</g>
	</g>
	<g>
		<rect x="3.3" y="24.2" class="st1" width="94.8" height="94.8"/>
	</g>
	<g>
		<path class="st1" d="M98.2,20.7H3.3V3.3h94.8V20.7z M4.3,19.7h92.8V4.3H4.3L4.3,19.7z"/>
	</g>
	<g class="st2">
		<path class="st1" d="M6.7,6.9h4.5v1.4H9.9v8.8H8.1V8.3H6.7V6.9z"/>
	</g>
	<g class="st2">
		<path class="st1" d="M11.2,17.1l1.9-10.2h1.9L17,17.1h-1.8l-0.3-1.9h-1.8l-0.3,1.9H11.2z M13.3,13.9h1.4L14,9.8h0L13.3,13.9z"/>
	</g>
	<g class="st2">
		<path class="st1" d="M19.6,12.4v4.7h-1.7V6.9h2.5c1.7,0,2.4,0.9,2.4,2.3v1.3c0,1.1-0.4,1.7-1.4,2l1.6,4.6h-1.8L19.6,12.4z
			 M19.6,8.3v3.2h0.6c0.6,0,0.8-0.3,0.8-0.8V9.2c0-0.6-0.3-0.8-0.8-0.8H19.6z"/>
	</g>
	<g class="st2">
		<path class="st1" d="M26.4,11.7h2.4v5.4h-1.2V16c-0.2,0.8-0.7,1.2-1.6,1.2c-1.5,0-2.1-1.2-2.1-2.7V9.6c0-1.6,0.8-2.7,2.6-2.7
			c1.9,0,2.4,1.1,2.4,2.6v0.9h-1.6v-1c0-0.6-0.2-1-0.9-1c-0.6,0-0.9,0.4-0.9,1v5.5c0,0.6,0.3,1,0.8,1c0.6,0,0.8-0.3,0.8-1V13h-0.8
			V11.7z"/>
	</g>
	<g class="st2">
		<path class="st1" d="M30.2,6.9h4.1v1.4h-2.4v2.9h1.7v1.4h-1.7v3.1h2.4v1.4h-4.1V6.9z"/>
	</g>
	<g class="st2">
		<path class="st1" d="M35.1,6.9h4.5v1.4h-1.4v8.8h-1.7V8.3h-1.4V6.9z"/>
	</g>
	<g class="st2">
		<path class="st1" d="M77.6,6.9v10.2h-1.7V9.3h0l-1.2,1.2h0V8.8l1.6-1.8H77.6z"/>
	</g>
	<g class="st2">
		<path class="st1" d="M78.7,14.4l3-7.5h1.7v7.2H84v1.3h-0.7v1.7h-1.6v-1.7h-3V14.4z M80.2,14.1h1.5V9.9h0L80.2,14.1z"/>
	</g>
	<g class="st2">
	</g>
	<g class="st2">
		<path class="st1" d="M86.8,10.8c0.7,0,1.2,0.6,1.2,1.2c0,0.7-0.6,1.2-1.2,1.2c-0.7,0-1.2-0.6-1.2-1.2
			C85.6,11.4,86.1,10.8,86.8,10.8z"/>
	</g>
	<g class="st2">
		<path class="st1" d="M94.3,9.1V10c0,0.9-0.5,1.4-1.2,1.7c0.9,0.2,1.3,0.8,1.3,1.7v1.5c0,1.4-0.8,2.3-2.5,2.3c-1.7,0-2.4-1-2.4-2.5
			v-1.3h1.6v1.5c0,0.6,0.2,1,0.8,1c0.5,0,0.8-0.4,0.8-0.9v-1.7c0-0.5-0.2-0.8-0.8-0.8h-0.7v-1.3h0.6c0.6,0,0.9-0.3,0.9-0.8V9.2
			c0-0.6-0.2-0.9-0.7-0.9s-0.7,0.4-0.7,1v1h-1.6V9.4c0-1.5,0.6-2.6,2.4-2.6C93.6,6.8,94.3,7.7,94.3,9.1z"/>
	</g>
	<g>
		<path class="st1" d="M98.2,144.9h-95v-22.8h95V144.9z M4.2,143.9h93v-20.8h-93V143.9z"/>
	</g>
	<g>
		<g>
			<path d="M47.3,55.4l0.2-0.2l0.1-0.1l-0.3-0.2c0,0.1,0,0.2,0,0.3S47.4,55.3,47.3,55.4z"/>
		</g>
		<g>
			<path d="M43.3,48.6L32.5,59.4L31,60.9c0.3,0.6,0.7,1.1,1.1,1.6l1.7-1.7L44.6,50c0.3,0.3,0.6,0.5,0.9,0.7c0,0.2,0,0.3,0,0.5
				c0,0.2,0,0.4,0.1,0.7L35.4,62l-1.9,1.9c0.5,0.4,1,0.7,1.6,1l2.3-2.3l8.9-8.9c0.3,0.4,0.7,0.8,1.1,1.1l0.3,0.2l-0.1,0.1l-0.2,0.2
				L40,62.8l-2.8,2.8c0.7,0.1,1.3,0.2,2,0.2h0.4l8.7-8.7c0-0.1,0-0.3,0-0.4c0-0.5,0-0.9-0.1-1.3c0.6,0.3,1.3,0.4,1.9,0.4
				c0.8,0,1.6-0.2,2.3-0.7c1.6,3.6,5.9,5.1,9.4,3.5c1.3-0.6,2.4-1.6,3.2-2.9c2,2,5.2,2,7.3,0c0.5-0.5,0.8-1,1.1-1.6
				c2.7,3.7,7.9,4.5,11.5,1.8c3.7-2.7,4.5-7.9,1.8-11.5c-2.5-3.4-7.3-4.4-10.9-2.2c-0.6-2.8-3.4-4.7-6.2-4.1c-1.2,0.2-2.2,0.9-3,1.8
				c-0.7-0.6-1.6-1-2.5-1c-0.9,0-1.7,0.3-2.4,0.8c-0.3-2.3-2.3-3.9-4.6-3.7c-1.6,0.2-3,1.3-3.5,2.8c-3.1-2.4-7.6-1.8-10,1.3
				c-1.5,2-1.9,4.6-1,6.9c0.2,0.5,0.4,1,0.8,1.4L43.3,48.6z"/>
		</g>
		<g>
			<g>
				<g>
					<path d="M15,76.7c0,0-0.1,0-0.1,0l5.3,5.3l0.6-0.9l-4.4-4.4L15,76.7z"/>
				</g>
				<g>
					<path d="M23,76.7h-0.1l0.4,0.4c0,0,0-0.1,0-0.1C23.2,76.8,23.1,76.7,23,76.7z"/>
				</g>
				<g>
					<path d="M20.6,62.4c0-0.1-0.1-0.2-0.2-0.2H19l1.7,1.7L20.6,62.4z"/>
				</g>
				<g>
					<polygon points="17.4,76.5 21.2,80.3 21.7,79.5 17.4,75.2 					"/>
				</g>
				<g>
					<polygon points="17.4,71.2 20.6,74.5 20.6,73.1 17.4,69.9 					"/>
				</g>
				<g>
					<path d="M17.6,62.1c-0.1,0-0.2,0.1-0.2,0.2v0.9l3.2,3.2v-1.4L17.6,62.1L17.6,62.1z"/>
				</g>
				<g>
					<polygon points="17.4,65.9 20.6,69.2 20.6,67.8 17.4,64.6 					"/>
				</g>
				<g>
					<polygon points="17.4,68.6 20.6,71.8 20.6,70.5 17.4,67.2 					"/>
				</g>
				<g>
					<polygon points="17.4,73.9 22.2,78.7 22.7,77.9 21.6,76.7 20.6,76.7 20.6,75.8 17.4,72.5 					"/>
				</g>
				<g>
					<path d="M18.9,83.3c0,0.1,0.1,0.1,0.2,0.1c0.1,0,0.1,0,0.2-0.1l0,0v-0.1l0.3-0.5l-3.3-3.3l2.5,3.8L18.9,83.3z"/>
				</g>
			</g>
			<g>
				<g>
					<path d="M86.4,76.6L86.4,76.6l0.4,0.4c0,0,0-0.1,0-0.1c0-0.1-0.1-0.3-0.3-0.3H86.4z"/>
				</g>
				<g>
					<polygon points="86.2,77.8 85.1,76.6 84.2,76.6 84.2,75.7 80.9,72.5 80.9,73.8 85.7,78.6 					"/>
				</g>
				<g>
					<polygon points="85.2,79.4 80.9,75.1 80.9,76.4 84.7,80.2 					"/>
				</g>
				<g>
					<path d="M84.2,81l-4.4-4.4h-1.3c0,0-0.1,0-0.1,0l5.2,5.2L84.2,81z"/>
				</g>
				<g>
					<path d="M81.2,62.1c-0.1,0-0.2,0.1-0.2,0.2v0.9l3.2,3.2v-1.4L81.2,62.1L81.2,62.1z"/>
				</g>
				<g>
					<path d="M84.2,62.3c0-0.1-0.1-0.2-0.2-0.2h-1.5l1.7,1.7V62.3z"/>
				</g>
				<g>
					<polygon points="80.9,65.9 84.2,69.1 84.2,67.8 80.9,64.5 					"/>
				</g>
				<g>
					<polygon points="80.9,71.2 84.2,74.4 84.2,73.1 80.9,69.8 					"/>
				</g>
				<g>
					<polygon points="80.9,68.5 84.2,71.8 84.2,70.4 80.9,67.2 					"/>
				</g>
				<g>
					<path d="M82.4,83.3c0.1,0.1,0.1,0.1,0.2,0.1c0.1,0,0.1,0,0.2-0.1l0,0v-0.1l0.3-0.5l-3.3-3.3l2.5,3.8L82.4,83.3z"/>
				</g>
			</g>
			<g>
				<g>
					<path d="M64.7,76.6L64.7,76.6l0.4,0.4c0,0,0-0.1,0-0.1c0-0.1-0.1-0.3-0.3-0.3H64.7z"/>
				</g>
				<g>
					<polygon points="64.6,77.8 63.4,76.6 62.5,76.6 62.5,75.7 59.2,72.5 59.2,73.8 64,78.6 					"/>
				</g>
				<g>
					<polygon points="63.5,79.4 59.2,75.1 59.2,76.4 63,80.2 					"/>
				</g>
				<g>
					<path d="M62.5,81l-4.4-4.4h-1.3c0,0-0.1,0-0.1,0l5.2,5.3L62.5,81z"/>
				</g>
				<g>
					<path d="M59.5,62.1c-0.1,0-0.2,0.1-0.2,0.2v0.9l3.2,3.2v-1.4L59.5,62.1L59.5,62.1z"/>
				</g>
				<g>
					<path d="M62.5,62.3c0-0.1-0.1-0.2-0.2-0.2h-1.5l1.7,1.7V62.3z"/>
				</g>
				<g>
					<polygon points="59.2,65.9 62.5,69.1 62.5,67.8 59.2,64.5 					"/>
				</g>
				<g>
					<polygon points="59.2,71.2 62.5,74.4 62.5,73.1 59.2,69.8 					"/>
				</g>
				<g>
					<polygon points="59.2,68.5 62.5,71.8 62.5,70.4 59.2,67.2 					"/>
				</g>
				<g>
					<path d="M60.7,83.3c0.1,0.1,0.1,0.1,0.2,0.1c0.1,0,0.1,0,0.2-0.1l0,0v-0.1l0.3-0.5l-3.3-3.3l2.5,3.8L60.7,83.3z"/>
				</g>
			</g>
		</g>
		<g>
			<path d="M47.2,61l-3.8,3.8C45.1,63.9,46.4,62.6,47.2,61z"/>
		</g>
		<g>
			<path d="M39.2,47.6H39l-8,8l-1,1c0,0.1,0,0.1,0,0.2c0,0.7,0.1,1.5,0.3,2.2l1.2-1.2l9.9-9.8C40.6,47.7,39.9,47.6,39.2,47.6z"/>
		</g>
		<g>
			<path d="M23,58.5c1.8,0,3.2-1.5,3.2-3.2c0-0.2,0-0.5-0.1-0.7c1.6,0.6,3.3,0.5,4.8-0.2c2-0.9,3.3-2.8,3.5-5l0.9-0.9
				c-0.3,0.1-0.6,0.3-0.9,0.5v-0.1c0-0.3,0-0.6-0.1-0.8c-0.5-3.4-3.6-5.7-7-5.3c-3.4,0.5-5.7,3.6-5.3,7c0.1,0.8,0.4,1.6,0.8,2.3l0,0
				c-1.8-0.1-3.3,1.3-3.4,3.1c-0.1,1.8,1.3,3.3,3.1,3.4C22.8,58.5,22.9,58.5,23,58.5L23,58.5z"/>
		</g>
	</g>
	<g class="st3">
		<g>
			<path d="M86.8,43.4c2.1,0,3.8-1.7,3.8-3.8c0-2.1-1.7-3.8-3.8-3.8S83,37.5,83,39.6c0,0.9,0.3,1.7,0.9,2.4c0.6,0.3,1.2,0.7,1.7,1.2
				C86,43.3,86.4,43.4,86.8,43.4z"/>
		</g>
		<g>
			<path d="M14.1,53.5c2.1,0,3.8-1.7,3.8-3.8c0-2.1-1.7-3.8-3.8-3.8s-3.8,1.7-3.8,3.8S12,53.5,14.1,53.5
				C14.1,53.5,14.1,53.5,14.1,53.5z"/>
		</g>
		<g>
			<circle cx="39.2" cy="54.6" r="8.3"/>
		</g>
	</g>
	<g>
		<g>
			<g>
				<path class="st0" d="M66.3,49.8v-1.4c0-1-0.5-1.6-1.5-1.6c-0.8-0.1-1.5,0.5-1.5,1.3c0,0.1,0,0.2,0,0.3V51
					c-0.1,0.8,0.4,1.5,1.2,1.6c0.1,0,0.2,0,0.3,0c1,0,1.5-0.6,1.5-1.6v-0.6h-0.8v0.7c0,0.5-0.2,0.8-0.7,0.8s-0.7-0.3-0.7-0.8v-1.3
					H66.3z M64.2,48.3c0-0.5,0.2-0.8,0.7-0.8s0.7,0.3,0.7,0.8v0.8h-1.4V48.3z"/>
			</g>
			<g>
				<path class="st0" d="M61.3,46.7c-0.6-0.1-1.2,0.4-1.3,1c0,0.1,0,0.2,0,0.3v0.7h1V48c0-0.3,0.2-0.5,0.4-0.5s0.3,0.1,0.3,0.4v0.5
					c0.1,0.4-0.1,0.7-0.3,1L60.8,50c-0.5,0.4-0.8,0.9-0.8,1.5v1.1h2.5v-0.8H61v-0.3c0-0.3,0.1-0.7,0.4-0.9L62,50
					c0.4-0.4,0.6-0.9,0.6-1.5v-0.6C62.6,47.1,62.2,46.7,61.3,46.7z"/>
			</g>
			<g>
				<path class="st0" d="M56.8,41.7c-1.2-0.1-2.3,0.8-2.4,2.1c0,0.2,0,0.3,0,0.5v4.5c-0.1,1.3,0.9,2.5,2.2,2.5s2.5-0.9,2.5-2.2
					c0-0.1,0-0.2,0-0.3v-4.5c0.2-1.2-0.7-2.4-1.9-2.5C57.1,41.7,56.9,41.7,56.8,41.7z M57.6,49c0,0.5-0.2,1-0.8,1S56,49.6,56,49v-5
					c0-0.6,0.3-1,0.8-1s0.8,0.4,0.8,1V49z"/>
			</g>
			<g>
				<path class="st0" d="M51.2,41.7c-1.2-0.1-2.3,0.8-2.4,2.1c0,0.2,0,0.3,0,0.5v4.5c-0.2,1.2,0.7,2.3,1.9,2.5c0.2,0,0.3,0,0.5,0
					c1.7,0,2.2-1,2.2-2.3v-1.6H52V49c0,0.6-0.2,0.9-0.8,0.9s-0.8-0.4-0.8-1v-5c0-0.6,0.2-1,0.8-1s0.8,0.3,0.8,0.9v1.2h1.4V44
					C53.4,42.7,52.9,41.7,51.2,41.7z"/>
			</g>
		</g>
		<g>
			<g>
				<path class="st0" d="M90.6,89.3h-0.1l-0.2,0.1c-2.5,1.3-10.4,4.3-17.5-2.5c-0.1-0.1-0.3-0.2-0.4-0.2c-0.1,0-0.3,0.1-0.4,0.2
					c-2.1,1.7-11.9,8.3-20.6,0.1L51.2,87c-0.1-0.1-0.2-0.1-0.3-0.1c-0.1,0-0.2,0.1-0.3,0.1l-0.1,0.1c-8.7,8.1-18.5,1.5-20.6-0.1
					c-0.1-0.1-0.2-0.2-0.4-0.2c-0.1,0-0.3,0.1-0.4,0.2c-7.1,6.8-15,3.7-17.5,2.5l-0.2-0.1c0,0-0.1,0-0.1,0c-0.3,0-0.5,0.2-0.5,0.5
					v3.4c0,0.1,0,0.3,0.1,0.3c8.2,7.2,16,0.5,17.8-1.3c0.1-0.1,0.1-0.1,0.2-0.2c0.1,0,0.1-0.1,0.2-0.1c0.1,0,0.3,0.1,0.3,0.2
					c9.3,8.9,19.1,1.7,21.1,0l0.2-0.2c0-0.1,0.1-0.1,0.2-0.1c0.1,0,0.1,0.1,0.2,0.1l0.2,0.2c2,1.7,11.8,8.9,21.1,0l0,0
					c0.1-0.1,0.2-0.1,0.3-0.1c0.1,0,0.2,0,0.3,0.1c0.1,0,0.1,0.1,0.1,0.1c1.9,1.7,9.7,8.4,18,1.3c0.1-0.1,0.2-0.2,0.2-0.3v-3.4
					C91.2,89.5,90.9,89.3,90.6,89.3"/>
			</g>
			<g>
				<path class="st0" d="M90.6,101.7h-0.1l-0.2,0.1c-2.5,1.3-10.4,4.3-17.5-2.5c-0.1-0.1-0.3-0.2-0.4-0.2s-0.2,0.1-0.4,0.2
					c-2.1,1.7-11.9,8.2-20.6,0.1l-0.1-0.1c-0.1-0.1-0.2-0.1-0.3-0.1c-0.1,0-0.2,0-0.3,0.1l-0.1,0.1c-8.7,8.1-18.5,1.5-20.6-0.1
					c-0.1-0.1-0.2-0.2-0.4-0.2c-0.2,0-0.3,0.1-0.4,0.2c-7.1,6.8-15,3.7-17.5,2.5l-0.2-0.1h-0.1c-0.3,0-0.5,0.2-0.5,0.5v3.4
					c0,0.1,0,0.3,0.1,0.3c8.2,7.2,16.1,0.5,17.9-1.3l0.2-0.2c0.1,0,0.1-0.1,0.2-0.1c0.1,0,0.3,0.1,0.3,0.2c9.3,8.9,19.1,1.7,21.1,0
					l0.2-0.2c0,0,0.1-0.1,0.2-0.1c0.1,0,0.1,0,0.2,0.1l0.2,0.2c2,1.7,11.8,8.9,21.1,0l0,0c0.2-0.1,0.4-0.1,0.6,0
					c0.1,0,0.1,0.1,0.1,0.1c1.8,1.8,9.6,8.5,17.8,1.3c0.1-0.1,0.1-0.2,0.2-0.3v-3.4C91.1,102,90.9,101.8,90.6,101.7"/>
			</g>
		</g>
	</g>
</g>
</svg>
