<?xml version="1.0" encoding="utf-8"?>
<!-- Generator: Adobe Illustrator 22.0.1, SVG Export Plug-In . SVG Version: 6.00 Build 0)  -->
<svg version="1.1" id="Layer_1" xmlns="http://www.w3.org/2000/svg" xmlns:xlink="http://www.w3.org/1999/xlink" x="0px" y="0px"
	 viewBox="0 0 101.5 148.3" style="enable-background:new 0 0 101.5 148.3;" xml:space="preserve">
<style type="text/css">
	.st0{fill:#FFFFFF;}
	.st1{fill:#0A97D9;}
	.st2{enable-background:new    ;}
</style>
<title>TARGET 1.2</title>
<g id="WHITE_BG">
	<g>
		<rect y="0" class="st0" width="101.5" height="148.3"/>
	</g>
</g>
<g id="TARGETS">
	<g>
		<g>
			<path class="st1" d="M7.8,132.2h-1v-6.4h2.1c1.6,0,2.2,1,2.2,2c0,1-0.6,2-2.2,2H7.8V132.2z M7.8,128.9H9c0.6,0,1.1-0.5,1.1-1.1
				c0-0.6-0.5-1.1-1.1-1.1c0,0,0,0,0,0H7.8V128.9z"/>
		</g>
		<g>
			<path class="st1" d="M12.7,132.2h-1v-6.4h2.1c1.6,0,2.2,0.7,2.2,1.9c0.1,0.7-0.3,1.4-1,1.7l1.3,2.8h-1.1l-1.2-2.6h-1.3V132.2z
				 M12.7,128.7h1.2c0.9,0,1-0.5,1-1s-0.1-1-1-1h-1.2V128.7z"/>
		</g>
		<g>
			<path class="st1" d="M16.7,129c0-1.8,0.4-3.3,2.5-3.3s2.5,1.5,2.5,3.3s-0.4,3.3-2.5,3.3S16.7,130.8,16.7,129z M17.7,129
				c0,1.5,0.3,2.4,1.5,2.4s1.5-0.9,1.5-2.4s-0.3-2.4-1.5-2.4S17.7,127.5,17.7,129L17.7,129z"/>
		</g>
		<g>
			<path class="st1" d="M24.4,126.7v5.5h-1v-5.5h-1.6v-0.9H26v0.9L24.4,126.7z"/>
		</g>
		<g>
			<path class="st1" d="M30.3,129.3h-2.6v2h2.9v0.9h-3.9v-6.4h3.9v0.9h-2.9v1.8h2.6V129.3z"/>
		</g>
		<g>
			<path class="st1" d="M33.8,125.7c0.5,0,1,0.1,1.5,0.3v0.9c-0.5-0.2-0.9-0.3-1.4-0.3c-1.2,0-1.7,0.8-1.7,2.4
				c0,1.6,0.5,2.4,1.7,2.4c0.5,0,1-0.1,1.4-0.3v0.9c-0.5,0.2-1,0.3-1.5,0.3c-1.9,0-2.6-1.2-2.6-3.3S31.9,125.7,33.8,125.7z"/>
		</g>
		<g>
			<path class="st1" d="M38.3,126.7v5.5h-1v-5.5h-1.6v-0.9H40v0.9L38.3,126.7z"/>
		</g>
		<g>
			<path class="st1" d="M45,130.6h-2l-0.5,1.6h-1l2-6.4h1l2,6.4h-1L45,130.6z M44,127l-0.8,2.8h1.6L44,127z"/>
		</g>
		<g>
			<path class="st1" d="M50.7,132.2l-2.8-4.5v4.5H47v-6.4h0.9l2.8,4.5v-4.5h0.9v6.4H50.7z"/>
		</g>
		<g>
			<path class="st1" d="M52.5,132.2v-6.4h1.9c2.1,0,2.7,1.4,2.7,3.2s-0.6,3.2-2.7,3.2H52.5z M53.5,131.3h1c1.3,0,1.7-0.9,1.7-2.3
				s-0.4-2.3-1.7-2.3h-1V131.3z"/>
		</g>
		<g>
			<path class="st1" d="M60.2,132.2h-1v-6.4h2.1c1.7,0,2.2,0.7,2.2,1.9c0.1,0.7-0.3,1.4-1,1.7l1.3,2.8h-1.1l-1.2-2.6h-1.3V132.2z
				 M60.2,128.7h1.2c0.9,0,1-0.5,1-1s-0.1-1-1-1h-1.2V128.7z"/>
		</g>
		<g>
			<path class="st1" d="M68.1,129.3h-2.7v2h2.9v0.9h-3.9v-6.4h3.9v0.9h-2.9v1.8h2.7V129.3z"/>
		</g>
		<g>
			<path class="st1" d="M73.4,130.3c0,1.2-0.7,2-2.4,2c-0.6,0-1.3-0.1-1.9-0.4v-1c0.6,0.3,1.2,0.4,1.8,0.4c1.1,0,1.5-0.5,1.5-1.1
				s-0.3-0.9-1.2-1c-1.6-0.2-2.2-0.6-2.2-1.8c0-0.9,0.5-1.8,2.3-1.8c0.6,0,1.2,0.1,1.7,0.4v1c-0.5-0.2-1.1-0.3-1.7-0.3
				c-1,0-1.3,0.4-1.3,1s0.4,0.8,1.2,0.9C72.6,128.7,73.4,129,73.4,130.3z"/>
		</g>
		<g>
			<path class="st1" d="M76.1,126.7v5.5h-1v-5.5h-1.6v-0.9h4.3v0.9L76.1,126.7z"/>
		</g>
		<g>
			<path class="st1" d="M78,129c0-1.8,0.4-3.3,2.5-3.3s2.4,1.5,2.4,3.3s-0.4,3.3-2.4,3.3S78,130.8,78,129z M79,129
				c0,1.5,0.3,2.4,1.5,2.4s1.5-0.9,1.5-2.4s-0.3-2.4-1.5-2.4S78.9,127.5,79,129L79,129z"/>
		</g>
		<g>
			<path class="st1" d="M84.6,132.2h-1v-6.4h2.1c1.6,0,2.2,0.7,2.2,1.9c0.1,0.7-0.3,1.4-1,1.7l1.3,2.8H87l-1.2-2.6h-1.3V132.2z
				 M84.6,128.7h1.3c0.9,0,1-0.5,1-1s-0.1-1-1-1h-1.3V128.7z"/>
		</g>
		<g>
			<path class="st1" d="M92.4,129.3h-2.7v2h2.9v0.9h-3.9v-6.4h3.9v0.9h-2.9v1.8h2.7V129.3z"/>
		</g>
		<g>
			<path class="st1" d="M10.5,138.3H7.8v2h2.9v0.9H6.9v-6.4h3.9v0.9H7.8v1.8h2.6V138.3z"/>
		</g>
		<g>
			<path class="st1" d="M14,134.7c0.5,0,1,0.1,1.5,0.3v0.9c-0.5-0.2-0.9-0.3-1.4-0.3c-1.2,0-1.7,0.8-1.7,2.4s0.5,2.4,1.7,2.4
				c0.5,0,1-0.1,1.4-0.3v0.9c-0.5,0.2-1,0.3-1.5,0.3c-1.9,0-2.6-1.2-2.6-3.3S12.1,134.7,14,134.7z"/>
		</g>
		<g>
			<path class="st1" d="M16.2,138c0-1.8,0.4-3.3,2.5-3.3s2.5,1.5,2.5,3.3s-0.4,3.3-2.5,3.3S16.2,139.8,16.2,138z M17.2,138
				c0,1.5,0.3,2.4,1.5,2.4s1.5-0.9,1.5-2.4s-0.3-2.4-1.5-2.4S17.1,136.5,17.2,138L17.2,138z"/>
		</g>
		<g>
			<path class="st1" d="M26,139.3c0,1.2-0.7,2-2.4,2c-0.6,0-1.3-0.1-1.9-0.4v-1c0.6,0.3,1.2,0.4,1.8,0.4c1.1,0,1.5-0.5,1.5-1.1
				s-0.3-0.9-1.1-1c-1.6-0.2-2.2-0.6-2.2-1.8c0-0.9,0.5-1.9,2.3-1.9c0.6,0,1.2,0.1,1.7,0.3v1c-0.5-0.2-1.1-0.3-1.7-0.3
				c-1,0-1.3,0.4-1.3,1s0.4,0.8,1.2,0.9C25.2,137.7,26,138,26,139.3z"/>
		</g>
		<g>
			<path class="st1" d="M29.2,138.6v2.6h-1v-2.6l-2.2-3.8h1.1l1.6,3l1.6-3h1.1L29.2,138.6z"/>
		</g>
		<g>
			<path class="st1" d="M35.8,139.3c0,1.2-0.7,2-2.4,2c-0.6,0-1.3-0.1-1.9-0.4v-1c0.6,0.3,1.2,0.4,1.8,0.4c1.2,0,1.5-0.5,1.5-1.1
				s-0.3-0.9-1.2-1c-1.5-0.2-2.1-0.6-2.1-1.8c0-0.9,0.5-1.9,2.3-1.9c0.6,0,1.2,0.1,1.7,0.3v1c-0.5-0.2-1.1-0.3-1.7-0.3
				c-1,0-1.3,0.4-1.3,1s0.4,0.8,1.2,0.9C35,137.7,35.8,138,35.8,139.3z"/>
		</g>
		<g>
			<path class="st1" d="M38.5,135.7v5.5h-1v-5.5h-1.7v-0.9h4.3v0.9H38.5z"/>
		</g>
		<g>
			<path class="st1" d="M44.5,138.3h-2.7v2h2.9v0.9h-3.9v-6.4h3.9v0.9h-2.9v1.8h2.7V138.3z"/>
		</g>
		<g>
			<path class="st1" d="M49,140.3h-0.9l-1.6-3.9v4.8h-1v-6.4h1.2l1.7,4.4l1.7-4.4h1.2v6.4h-1v-4.8L49,140.3z"/>
		</g>
		<g>
			<path class="st1" d="M56.6,139.3c0,1.2-0.7,2-2.4,2c-0.6,0-1.3-0.1-1.9-0.4v-1c0.6,0.3,1.2,0.4,1.8,0.4c1.2,0,1.5-0.5,1.5-1.1
				s-0.3-0.9-1.2-1c-1.5-0.2-2.2-0.6-2.2-1.8c0-0.9,0.5-1.9,2.3-1.9c0.6,0,1.2,0.1,1.7,0.3v1c-0.5-0.2-1.1-0.3-1.7-0.3
				c-1,0-1.3,0.4-1.3,1s0.4,0.8,1.2,0.9C55.8,137.7,56.6,138,56.6,139.3z"/>
		</g>
	</g>
	<g>
		<rect x="3.3" y="24" class="st1" width="94.8" height="94.8"/>
	</g>
	<g>
		<path class="st1" d="M98.2,20.7H3.3V3.3h94.8V20.7z M4.3,19.7h92.8V4.3H4.3L4.3,19.7z"/>
	</g>
	<g class="st2">
		<path class="st1" d="M6.7,6.9h4.5v1.4H9.9v8.8H8.1V8.3H6.7V6.9z"/>
	</g>
	<g class="st2">
		<path class="st1" d="M11.2,17.1l1.9-10.2h1.9L17,17.1h-1.8l-0.3-1.9h-1.8l-0.3,1.9H11.2z M13.3,13.9h1.4L14,9.8h0L13.3,13.9z"/>
	</g>
	<g class="st2">
		<path class="st1" d="M19.6,12.4v4.7h-1.7V6.9h2.5c1.7,0,2.4,0.9,2.4,2.3v1.3c0,1.1-0.4,1.7-1.4,2l1.6,4.6h-1.8L19.6,12.4z
			 M19.6,8.3v3.2h0.6c0.6,0,0.8-0.3,0.8-0.8V9.2c0-0.6-0.3-0.8-0.8-0.8H19.6z"/>
	</g>
	<g class="st2">
		<path class="st1" d="M26.4,11.7h2.4v5.4h-1.2V16c-0.2,0.8-0.7,1.2-1.6,1.2c-1.5,0-2.1-1.2-2.1-2.7V9.6c0-1.6,0.8-2.7,2.6-2.7
			c1.9,0,2.4,1.1,2.4,2.6v0.9h-1.6v-1c0-0.6-0.2-1-0.9-1c-0.6,0-0.9,0.4-0.9,1v5.5c0,0.6,0.3,1,0.8,1c0.6,0,0.8-0.3,0.8-1V13h-0.8
			V11.7z"/>
	</g>
	<g class="st2">
		<path class="st1" d="M30.2,6.9h4.1v1.4h-2.4v2.9h1.7v1.4h-1.7v3.1h2.4v1.4h-4.1V6.9z"/>
	</g>
	<g class="st2">
		<path class="st1" d="M35.1,6.9h4.5v1.4h-1.4v8.8h-1.7V8.3h-1.4V6.9z"/>
	</g>
	<g class="st2">
		<path class="st1" d="M77.9,6.9v10.2h-1.7V9.3h0L75,10.6h0V8.8l1.6-1.8H77.9z"/>
	</g>
	<g class="st2">
		<path class="st1" d="M79,14.4l3-7.5h1.7v7.2h0.7v1.3h-0.7v1.7H82v-1.7h-3V14.4z M80.5,14.1H82V9.9h0L80.5,14.1z"/>
	</g>
	<g class="st2">
	</g>
	<g class="st2">
		<path class="st1" d="M87.1,10.8c0.7,0,1.2,0.6,1.2,1.2c0,0.7-0.6,1.2-1.2,1.2c-0.7,0-1.2-0.6-1.2-1.2
			C85.8,11.4,86.4,10.8,87.1,10.8z"/>
	</g>
	<g class="st2">
		<path class="st1" d="M89.8,15.2c0-1,0.3-1.7,1.3-2.7l1-1c0.6-0.6,0.6-0.9,0.6-1.8V9c0-0.6-0.3-0.8-0.6-0.8c-0.4,0-0.7,0.2-0.7,0.8
			v1.3h-1.6V9c0-1.4,0.8-2.2,2.3-2.2c1.5,0,2.2,0.7,2.2,2.1v1c0,1-0.2,1.6-1.1,2.6l-1.1,1.2c-0.4,0.5-0.7,0.8-0.7,1.6v0.5h2.8v1.4
			h-4.4V15.2z"/>
	</g>
	<g>
		<path class="st1" d="M98.2,144.9h-95v-22.8h95V144.9z M4.2,143.9h93v-20.8h-93V143.9z"/>
	</g>
	<g>
		<g>
			<path class="st0" d="M61.8,44.1c0,0-12.7-5-14.5-5.6s-7.5-6.9-9.1-7.5l2.1,6.4c0,0-0.2,0.6-0.5,0.8s-20,4.7-20,4.7
				s-8.8-6-9.3-6.3c0,0-0.5,0-0.2,0.4s3.8,6.1,3.9,7s-1,4.6-1.5,5.5c0,0-0.2,0.2,0.3,0.1s6.6-3.9,6.6-3.9s4.2,1.4,6.4,1.8
				c-0.4,0.8-0.8,1.6-1.4,2.4c1.6-0.4,3.1-1,4.4-1.9c0,0,10.5,1.5,13.8,1.8c0,0-1.2,3.8-1.6,4.8c2.3-1.1,4.4-2.6,6.2-4.4
				c0,0,12.1-2.6,14.6-5c0.2-0.3,0.2-0.7-0.1-1C61.9,44.2,61.9,44.1,61.8,44.1z M52,44.1c-0.7,0-1.2-0.6-1.2-1.2
				c0-0.7,0.6-1.2,1.2-1.2c0.7,0,1.2,0.6,1.2,1.2C53.2,43.6,52.7,44.1,52,44.1C52,44.1,52,44.1,52,44.1L52,44.1z"/>
		</g>
		<g>
			<path class="st0" d="M85.4,57.1L85.4,57.1c-0.6-0.7-3.7-3.5-10.5-4c-4.5-0.3-9,0.5-13.1,2.2c-1.6-0.7-3.3-1.3-5-1.6
				c0,0-0.3-0.1-0.4,0.1s0,0.2,0.2,0.4c0.9,0.7,1.4,1.7,1.6,2.8c-0.1,1-0.6,1.9-1.4,2.5l-0.2,0.1c0,0,0,0.1,0,0.1
				c0,0.1,0.1,0.2,0.2,0.2h0.1H57c1.7-0.1,3.4-0.7,4.9-1.6c0,0,8.3,2.7,13.5,2.7c4.9,0,8.7-2,10-3.4l0.1-0.1c0,0,0.1-0.1,0.1-0.1
				C85.6,57.1,85.5,57.1,85.4,57.1z M81,57.5c-0.6,0-1-0.4-1-1s0.4-1,1-1s1,0.4,1,1S81.6,57.5,81,57.5z"/>
		</g>
		<g>
			<path class="st0" d="M83.1,86.4c-0.6-1-0.9-2.1-1-3.2c0.1-1.1,0.4-2.3,1-3.2c0,0,0-0.1,0-0.1c0,0,0-0.1-0.1-0.1h0
				c-1.5,0.2-2.7,1.2-3.4,2.5c0,0-3-2.5-5.7-2.5c-3.2,0-5.4,2.9-5.8,3.4l0,0l0,0l0,0l0,0c0.3,0.5,2.6,3.4,5.8,3.4
				c2.8,0,5.7-2.5,5.7-2.5c0.6,1.4,1.9,2.3,3.4,2.6l0,0C83,86.6,83.1,86.6,83.1,86.4L83.1,86.4L83.1,86.4z M72.1,83.6
				c-0.5,0-0.9-0.4-0.9-0.9s0.4-0.9,0.9-0.9s0.9,0.4,0.9,0.9c0,0,0,0,0,0C73,83.1,72.7,83.5,72.1,83.6L72.1,83.6z"/>
		</g>
		<g>
			<path class="st0" d="M63.8,76.6L63.8,76.6c-0.3-0.4-2.4-3-5.2-3c-2.5,0-5.2,2.3-5.2,2.3c-0.6-1.2-1.7-2-3.1-2.2h0
				c0,0-0.1,0-0.1,0.1c0,0,0,0.1,0,0.1c0.6,0.9,0.9,1.9,0.9,2.9c-0.1,1-0.4,2.1-0.9,2.9l0,0l0,0c0,0,0,0.1,0.1,0.1c0,0,0,0,0,0h0
				c1.3-0.2,2.5-1.1,3.1-2.3c0,0,2.7,2.3,5.2,2.3c2.9,0,4.9-2.6,5.2-3.1l0,0l0,0V76.6z M60.1,77c-0.5,0-0.9-0.4-0.9-0.8
				c0-0.5,0.4-0.9,0.8-0.9s0.9,0.4,0.9,0.8c0,0,0,0,0,0C60.9,76.6,60.6,77,60.1,77C60.1,77,60.1,77,60.1,77z"/>
		</g>
		<g>
			<path class="st0" d="M70.4,74.3c0-0.5-0.4-0.9-0.9-0.9s-0.9,0.4-0.9,0.9s0.4,0.9,0.9,0.9l0,0C70,75.2,70.4,74.8,70.4,74.3
				C70.4,74.3,70.4,74.3,70.4,74.3z"/>
		</g>
		<g>
			<path class="st0" d="M67,67.3c-0.6,0-1.1,0.5-1.1,1.1s0.5,1.1,1.1,1.1c0.6,0,1.1-0.5,1.1-1.1c0,0,0,0,0,0
				C68.1,67.8,67.6,67.3,67,67.3z"/>
		</g>
		<g>
			<path class="st0" d="M65.6,94.6l2-1.3c0.1-0.1,0.5-0.2,0.4-0.5s-0.5-0.2-0.5-0.2h-2.7c-0.5,0-0.5-0.5-0.5-0.5
				c-0.1-0.8-0.4-1.6-0.8-2.3c-0.2-0.3-0.3-0.4-0.5-0.3s-0.2,0.1-0.2,0.4c-0.1,0.7-0.2,1.3-0.4,2c-0.2,0.6-0.5,0.6-1,0.6s-2,0-2,0
				c-0.1,0-0.3,0-0.4,0c-0.2,0-0.3,0.1-0.4,0.3c0,0.1,0.1,0.3,0.2,0.3c0.3,0.2,1.9,1.1,2.3,1.4c0.3,0.2,0.4,0.5,0.3,0.8
				c0,0.1-0.9,2.1-1,2.4s0.1,0.5,0.1,0.5c0.3,0.2,0.6-0.2,0.6-0.2c0.7-0.5,1.4-1,2-1.5c0.2-0.2,0.5-0.2,0.6,0c0,0,0,0,0,0
				c0.7,0.6,1.4,1.2,2.1,1.7c0.1,0.1,0.4,0.1,0.5,0c0.2-0.1,0.1-0.5,0.1-0.5s-0.7-2-0.8-2.4S65.6,94.6,65.6,94.6z"/>
		</g>
		<g>
			<path class="st0" d="M47.2,65.8c0.1,0.4,0.4,0.6,0.8,0.6c0.4-0.1,0.6-0.4,0.6-0.8c-0.1-0.4-0.4-0.6-0.8-0.6
				C47.4,65.1,47.1,65.4,47.2,65.8z"/>
		</g>
		<g>
			<path class="st0" d="M48.8,61c0,0.4,0.4,0.6,0.7,0.6c0,0,0,0,0,0c0.4-0.1,0.6-0.4,0.6-0.8c-0.1-0.4-0.4-0.6-0.8-0.6
				C49,60.3,48.7,60.6,48.8,61C48.8,61,48.8,61,48.8,61z"/>
		</g>
		<g>
			<path class="st0" d="M53.2,66.2c-0.1-0.4-0.4-0.6-0.8-0.6c-0.4,0.1-0.6,0.4-0.6,0.8l0,0c0.1,0.4,0.4,0.6,0.8,0.6c0,0,0,0,0,0
				C53,66.9,53.3,66.6,53.2,66.2C53.2,66.2,53.2,66.2,53.2,66.2z"/>
		</g>
		<g>
			<path class="st0" d="M44.2,68c-0.4,0.1-0.7,0.4-0.6,0.8c0.1,0.4,0.4,0.7,0.8,0.6l0,0c0.4-0.1,0.7-0.4,0.6-0.8
				C44.9,68.2,44.6,67.9,44.2,68z"/>
		</g>
		<g>
			<path class="st0" d="M45.4,62.2c-0.1-0.4-0.4-0.6-0.8-0.6c-0.4,0.1-0.6,0.4-0.6,0.8c0.1,0.4,0.4,0.6,0.8,0.6c0,0,0,0,0,0
				C45.2,62.9,45.5,62.6,45.4,62.2C45.4,62.2,45.4,62.2,45.4,62.2z"/>
		</g>
		<g>
			<path class="st0" d="M69,37l1.7-0.2c0.1,0.2,0.3,0.3,0.5,0.4l0.2,1.8c0,0.1,0.1,0.2,0.2,0.2l0,0c0.1,0,0.2-0.1,0.2-0.3l-0.2-1.7
				c0.2,0,0.5-0.2,0.6-0.3l1.4,0.9c0,0,0.1,0,0.1,0c0.1,0,0.2,0,0.2-0.1c0.1-0.1,0-0.3-0.1-0.3l-1.5-0.9c0-0.1,0.1-0.2,0.1-0.3
				c0-0.3-0.1-0.5-0.3-0.7l0.8-1c0.1-0.1,0.1-0.3,0-0.3c-0.1-0.1-0.3-0.1-0.4,0l-0.8,1c-0.1-0.1-0.3-0.1-0.4-0.1
				c-0.2,0-0.5,0.1-0.6,0.2L69.7,34c-0.1-0.1-0.3-0.1-0.4,0c-0.1,0.1-0.1,0.3,0,0.3l1.3,1.4c-0.1,0.2-0.1,0.3-0.1,0.5
				c0,0,0,0.1,0,0.1L69,36.5c-0.1,0-0.2,0.1-0.2,0.2S68.9,37,69,37L69,37z"/>
		</g>
		<g>
			<path class="st0" d="M75,44.3c-0.1,0.2-0.2,0.4-0.2,0.7L73,45.3c-0.1,0-0.2,0.2-0.2,0.3c0,0.1,0.1,0.2,0.2,0.2l0,0l1.9-0.3
				c0.1,0.2,0.2,0.3,0.3,0.4c0,0,0.1,0,0.1,0l-0.7,1.4c-0.1,0.1,0,0.3,0.1,0.3h0.1c0.1,0,0.2-0.1,0.2-0.1L76,46
				c0.2,0,0.5-0.1,0.6-0.2l1.6,0.8c0.1,0.1,0.3,0,0.3-0.1c0,0,0,0,0,0c0.1-0.1,0-0.3-0.1-0.3c0,0,0,0,0,0l-1.6-0.8
				c0.1-0.2,0.1-0.5,0-0.7l1.5-0.8c0.1-0.1,0.2-0.2,0.1-0.3c-0.1-0.1-0.2-0.2-0.3-0.1c0,0,0,0,0,0l-1.5,0.8
				c-0.1-0.1-0.1-0.1-0.2-0.2c-0.2-0.1-0.5-0.2-0.7-0.1l-0.4-1.2c0-0.1-0.2-0.2-0.3-0.2c-0.1,0-0.2,0.2-0.2,0.3l0.4,1.2
				C75.2,44.1,75.1,44.2,75,44.3z"/>
		</g>
		<g>
			<path class="st0" d="M80.2,39.6l1.6-0.4c0.2,0.2,0.4,0.3,0.6,0.3l0.4,1.8c0,0.1,0.1,0.2,0.2,0.2h0.1c0.1,0,0.2-0.2,0.2-0.3
				l-0.4-1.7c0.2-0.1,0.4-0.2,0.6-0.4l1.6,0.6h0.1c0.1,0,0.2-0.1,0.2-0.3c0-0.1-0.1-0.2-0.2-0.2l-1.6-0.6c0-0.1,0-0.2,0-0.3
				c0-0.3-0.2-0.5-0.4-0.7l0.7-1.1c0.1-0.1,0-0.3-0.1-0.3c-0.1-0.1-0.3,0-0.3,0.1l-0.7,1.1c-0.1,0-0.3,0-0.4,0
				c-0.2,0-0.4,0.1-0.6,0.3l-1.4-1.2c-0.1-0.1-0.3-0.1-0.3,0c-0.1,0.1-0.1,0.3,0,0.4c0,0,0,0,0,0l1.5,1.2c0,0.2,0,0.3,0,0.5
				c0,0,0,0.1,0,0.1L80,39.1c-0.1,0-0.2,0.2-0.2,0.3C79.9,39.5,80,39.6,80.2,39.6L80.2,39.6z"/>
		</g>
		<g>
			<path class="st0" d="M36.6,62.3c0.6-0.7,0.8-1.7,0.6-2.6c0-0.2-0.2-0.3-0.3-0.3c0,0,0,0,0,0c-0.9,0-1.8,0.3-2.5,1
				c-0.4,0.5-0.8,1-1,1.6c-1.1-0.4-2.3-0.4-3.5,0c0-0.1,0-0.1,0-0.2c-0.2-0.7-1.7-0.8-3.4-0.2s-2.9,1.4-2.6,2.1s1.2,0.7,2.4,0.5l0,0
				h0.1c-0.4,0.4-0.7,0.8-1,1.2c-0.6,0.8-1,1.7-1.2,2.6c-0.2-0.1-0.4-0.1-0.6-0.1c-0.9,0-1.7,0-1.7,1.5s0.8,1.5,1.7,1.5
				c0.1,0,0.3,0,0.4-0.1c0.1,1.1,0.3,2.1,0.7,3.1c1.2,0.3,2.5,0.3,3.7,0.2c0,0.1,0,0.3,0,0.4c0.1,0.9,0.2,1.7,1.7,1.5s1.3-1,1.2-1.9
				c0-0.3-0.1-0.5-0.3-0.7c0.7-0.3,1.3-0.8,1.9-1.3c0.6-0.6,1.2-1.3,1.6-2v0.5c0,1.3,0.3,2.2,0.8,2.3s1.5-1.2,1.8-2.9
				s-0.1-3.2-0.8-3.3c-0.2,0-0.4,0-0.5,0.2l0,0c0.2-1.1,0-2.3-0.6-3.3C35.7,63.2,36.2,62.8,36.6,62.3z"/>
		</g>
		<g>
			<path class="st0" d="M84.2,98.4c-0.3-0.1-0.7-0.1-1.1-0.1h-0.5c-4.4-0.1-8.9,0.6-13.1,2.1c-8,2.8-16.2,4.8-24.6,6
				c-0.1-1-0.8-3.6,0.3-4.5c0.6-0.8,1.6-1,2.5-0.7c0.6,0.1,1,1.8,1.3,2.4s0.8,0.3,0.8-0.1c-0.1-0.5-0.2-1-0.4-1.5
				c-0.1-0.4,0-0.4,0.5-0.3s0.7,0.4,1.3,0.7s1.1,0.1,1.1-0.4s-0.6-0.6-1.2-0.8s-0.8-0.3-0.4-0.7c0.4-0.3,0.5-0.8,0.4-1.3
				c-0.2-0.4-0.7-0.5-1.3,0.3s-1.2,0.8-1.4,0.3s1-1.8,1.5-2.6c0.5-0.7,1.2-1.2,2.1-1.3c0.9-0.2,1.3-0.2,1.2-0.6s-1-0.3-1.4-0.3
				c-0.3,0-0.6-0.2-0.7-0.5c0-0.1,0-0.1,0-0.2c0-0.4,0.7-1,1.3-1.6s0.7-0.8,0.4-1.2s-1-0.3-1.6,0.2c-0.5,0.5-0.9,1-1.2,1.5
				c-0.2,0.3-0.5-0.2-0.9-0.7S48.3,91.8,48,92s0,0.6,0.4,1c0.5,0.6,0.7,1.3,0.7,2c0,0.7-0.4,1.4-1.1,1.7c-0.3,0.1-0.2-1-0.8-1
				s-0.7,0.7-0.7,1.6s-1,1.4-1.5,0.9c-0.5-0.9-0.8-1.8-0.9-2.9c0-0.7,0.9-1.4,1.5-1.8s1.5-0.5,1-1.2s-2.1,0.2-2.7,0.8
				s-0.9,0.4-1,0.1c-0.1-0.8-0.1-1.5,0.1-2.3c0.3-1,1.2-1.7,2.2-1.8c0.9,0.1,1.7,0.4,2.4,1c0.3,0.2,0.9,0.3,1-0.2s-0.9-1-1.3-1.2
				s-0.6-0.2-0.5-0.6s1.3-0.8,1.8-1s1.2-0.5,0.8-1.1s-2,0.4-2.4,0.6s-0.3-0.8-0.4-1.1s0-1.1-0.7-1.1s-0.6,1.3-0.7,2
				s-0.5,0.6-1.5,1.3c-0.6,0.5-1.2,1.1-1.8,1.7c-0.3,0.2-0.4-0.5-0.5-1.5c-0.1-0.8,0.1-1.6,0.6-2.3c0.5-0.6,1.2-1.1,1.9-1.5
				c0.2-0.1,0.3-0.4,0.2-0.6c-0.1-0.2-0.4-0.3-0.6-0.2c-0.5,0.2-1,0.4-1.3,0.2s0.3-1.1,0.7-1.9s0.4-1.6-0.1-1.9s-1.3,0.5-1.5,1.1
				s-0.5,0.7-0.9,0.2s-0.7-0.8-0.9-0.6s-0.4,0.3,0.1,1c0.4,0.6,0.6,1.3,0.6,2c0,0.6-0.4,0.8-0.8,0.4s-1-0.6-1.1-0.2s0.3,0.7,0.8,0.9
				s0.5,1.1,0.5,1.5s-0.1,0.7-0.6,0.6c-0.7-0.4-1.2-1-1.5-1.7c0-0.4-0.1-0.9-0.1-1.3c-0.1-0.3-0.7-0.1-0.7,0.2c0,0.5,0,1,0,1.5
				c-0.1,0.2-0.7-0.1-1.5-0.4s-1.4-0.1-1.4,0.4s1.4,1.1,1.8,1.1s0.6,0.3,0.4,0.6s-0.9,0.8-1.1,1s0.1,0.9,0.6,0.5
				c0.5-0.5,1.1-0.8,1.8-0.9c0.5,0,1,0.2,1.3,0.7c0.1,0.3-0.3,0.4-0.8,0.6s-0.7,0.5-0.7,0.7s0.1,0.5,0.6,0.2
				c0.4-0.2,0.8-0.3,1.2-0.2c0.5-0.1,0.6,0.6,0.6,0.6c0.3,1,1.6,3.9,1.8,4.4s0,0.8-0.6,0.8s-1.3,0-1.2,0.6s1.2,0.6,2,0.6
				s0.8,0.8,0.9,1.9s-1.2,1.2-1.8,0.6c-1-0.9-1.9-1.9-2.6-3c-0.2-0.6-0.1-1.2,0.2-1.7c0.2-0.4,0.7-0.3,1-0.5
				c0.3-0.2,0.3-0.5,0.2-0.7c0,0,0,0,0-0.1c-0.2-0.3-0.8,0-1.1,0.2s-0.5,0.3-0.5,0s0.1-1.1,0.1-1.5s-0.2-0.7-0.7-0.5
				s-0.6,2.5-0.5,3.4s-0.4,0.9-0.8,0.8c-0.6-0.4-1.1-0.9-1.4-1.5c-0.2-0.4-0.2-0.6,0.4-1.3c0.2-0.3,0.4-0.6,0.5-1
				c0.1-0.3-0.4-0.4-0.6-0.1c-0.2,0.3-0.4,0.5-0.7,0.7C33.9,92.4,34,91.2,34,91s0.1-0.6-0.5-0.6s-0.3,1.2-0.3,1.5s-0.4,0.2-1,0.1
				s-0.8,0.6-0.2,0.6c0.5,0,0.9,0.1,1.3,0.4c0.2,0.4,0.3,1,0.1,1.4c-0.1,0.3-0.6-0.1-1.4-0.1s-1.6,0.1-1.7,0.6s0.6,1,1.4,1
				c0.8,0,1.6-0.1,1.7,0.1s-0.2,0.3-0.5,0.6s-0.4,0.6-0.2,0.9s0.7,0.2,1.1-0.2c0.3-0.4,0.8-0.6,1.3-0.5c0.7,0.1,1.4,0.4,2,0.9
				c0.4,0.3,0.1,0.8-0.3,0.9c-0.6,0.2-1.1,0.4-1.5,0.8c-0.4,0.4-1,0.4-1.4,0c-0.4-0.3-1-0.8-1.2-0.4s0.3,0.8,0.5,1s0.4,0.2,0.2,0.6
				c-0.3,0.4-0.7,0.8-1.1,1.1c-0.2,0.2-0.2,0.5-0.1,0.7c0.1,0.1,0.3,0.2,0.5,0.2c0.6-0.3,1.2-0.7,1.7-1.2c0.1-0.1,0.3-0.4,0.4,0
				c0,0.4,0,0.8,0,1.1c0,0.3-0.2,0.6,0.2,0.7c0.2,0.1,0.4,0,0.5-0.2c0.1-0.4,0.1-0.7,0.1-1.1c-0.1-0.6,0.2-1.2,0.6-1.7
				c0.5-0.6,1.8-0.3,2.5-0.3s0.8,0.6,0.8,1.1s-0.9,0.9-1.2,1.1s-1,0.3-0.7,0.8s0.4,0.3,0.7,0.3s1.1-0.9,1.7-1s1.1,0,1.5,1.2
				c0.4,1,0.7,2,0.8,3.1c-4.5,0.6-9.1,0.9-13.7,1c-1.1,0.1-1.9,0.2-2.5,0.3c0.3-0.4,0.6-0.8,1-1.1c0.4-0.4,0.3-0.9,0.1-1.8
				s0.3-1.5,0.5-2.2c0.1-0.7,0.1-1.4-0.2-2c0-0.1-0.1-0.2-0.2-0.3c-0.5,0.6-0.9,1.4-1.1,2.1c-0.2,0.9,0,1.4-0.3,2s-0.9,1-0.8,1.4
				c0,0.7,0,1.3-0.2,2l-0.7,0.1c0-0.5-0.1-1-0.3-1.4c-0.1-0.3-0.5-0.7,0-1.2c0.5-0.5,0.7-1.1,0.6-1.8c0-0.8,0.1-0.9,0.8-1.6
				s0.4-1.6,0.3-2.2s0.2-0.5,0.7-1s0-1.4,0.1-2.1s0.5-0.5,0.4-1.5c-0.1-0.7,0-1.4,0.2-2.1c0.2-1-1-2-1.3-2.2c0.1,0.1,0,0.4-0.3,1.3
				s0,1.2,0.2,1.8s-0.2,0.7-0.2,1.3s0.2,0.8-0.4,1.4s-0.7,1.1-0.7,2.3s-0.8,1.1-1.2,1.6s0.2,1.1,0.1,1.9c0,0.3-0.1,0.6-0.2,0.8
				c0.1-0.4,0.1-0.8,0-1.2c-0.4-0.9-0.4-1.3-0.3-1.5c0.2-0.2,0.3-0.4,0.6-0.6c-0.1-0.1-0.1-0.1-0.1-0.2c-0.2-0.4,0-0.9,0.5-1.9
				s0.2-1-0.1-1.6s-0.3-0.8,0.2-1.2c0.4-0.4,0.5-0.9,0.4-1.4c-0.2-0.5-0.2-0.9-0.1-1.4c0.2-0.7,0.6-0.7,0.4-1.3s-0.4-1.1-0.4-1.1
				c-0.2-0.6,0.5-1,0-2s-0.1-1.2-0.3-2.5c-0.1-0.7-0.8-1.2-1.5-1.1c0,0,0,0,0,0c-0.2,0-0.5,0.3-0.4,1.2s0.7,1.1,0.5,2.1
				s0.3,1.3,0.5,1.9S22,90.5,22,91s0.4,1-0.2,1.6s-0.7,0.8-0.2,1.8c0.3,0.7,0,0.9-0.5,1.8s-0.2,1.2-0.1,2.3c0.1,0.7,0.2,1.3,0.1,2
				c-0.1,0.7-0.5,0.8-0.5,2c0.2,0.8,0.4,1.6,0.4,2.4c-0.1,0.5-1.6,1.6-1.5,2.3c0,0.3,0,0.6,0,1l-1.9-0.1c-0.1-1-0.3-2.4-0.6-3.9
				c-0.4-2,0-4.2,0.6-6.7l0,0c0,0,0-0.1,0-0.1c0.2-1,0.4-2.1,0.6-3.3c0.8-4,1-8,0.7-12.1c-0.3-1.7-0.6-3.4-1.1-5.1
				c-0.4-1.6-0.8-3.1-1-4.4c-0.4-2.8-0.8-4.8-0.8-4.8c0-0.2-0.2-0.3-0.4-0.3c-0.2,0-0.4,0.2-0.3,0.4c0,0,0,0,0,0
				c0,0,0.4,2.1,0.8,4.8c0.2,1.4,0.6,2.9,1,4.5s0.9,3.4,1.1,5c0.3,3.1,0.2,6.2-0.2,9.3c0-0.9,0-1.8-0.1-2.8
				c-0.2-2.6-0.7-5.2-1.6-7.7c-0.1-0.2-0.3-0.3-0.5-0.2c-0.2,0.1-0.3,0.3-0.2,0.5c0.8,2.4,1.3,4.9,1.5,7.5c0.2,2.8,0.2,5.7-0.1,8.5
				v0.1c-0.5,2.6-1,4.9-0.6,7c0.3,1.4,0.4,2.7,0.5,3.7h-0.6c-0.5-0.8-0.9-1.7-1.1-2.6c-0.2-0.5-0.4-1.1-0.7-1.9
				c-0.9-2.5-0.8-7.2-0.6-10.5c0.1-1,0.2-2,0.3-3.1c0.5-3,0.5-6.1,0-9.1c-0.9-4.4-0.7-5.6-0.7-5.6c0-0.2-0.1-0.4-0.3-0.4
				c-0.2,0-0.4,0.1-0.4,0.3c0,0.1-0.2,1.3,0.7,5.9c0.5,2.9,0.5,5.9,0,8.9c-0.1,1.1-0.2,2.1-0.3,3.1c-0.2,3.7-0.3,8.2,0.6,10.8
				c0.3,0.8,0.5,1.4,0.6,1.9c0.3,0.8,0.6,1.6,1,2.4H15c-3.9,0.1-4.7,2.2-4.8,3.4c0,0.1,0,0.1,0,0.2v0.2h81.2v-7.3
				C91.4,100.2,91.8,99.6,84.2,98.4z"/>
		</g>
	</g>
</g>
</svg>
