<?xml version="1.0" encoding="utf-8"?>
<!-- Generator: Adobe Illustrator 22.0.1, SVG Export Plug-In . SVG Version: 6.00 Build 0)  -->
<svg version="1.1" id="Layer_1" xmlns="http://www.w3.org/2000/svg" xmlns:xlink="http://www.w3.org/1999/xlink" x="0px" y="0px"
	 viewBox="0 0 101.5 148" style="enable-background:new 0 0 101.5 148;" xml:space="preserve">
<style type="text/css">
	.st0{fill:#FFFFFF;}
	.st1{fill:#0A97D9;}
	.st2{enable-background:new    ;}
	.st3{fill:none;}
</style>
<title>TARGET 1 B copy 9</title>
<g id="WHITE_BG">
	<g>
		<rect y="0" class="st0" width="101.5" height="148"/>
	</g>
</g>
<g id="TARGETS">
	<g>
		<g>
			<path class="st1" d="M9.4,125.7c0.5,0,1,0.1,1.5,0.3v0.9c-0.5-0.2-0.9-0.3-1.4-0.3c-1.2,0-1.7,0.8-1.7,2.4s0.5,2.4,1.7,2.4
				c0.5,0,1-0.1,1.4-0.3v0.9c-0.5,0.2-1,0.3-1.5,0.3c-1.9,0-2.6-1.2-2.6-3.3S7.5,125.7,9.4,125.7z"/>
		</g>
		<g>
			<path class="st1" d="M11.5,129c0-1.8,0.4-3.3,2.4-3.3s2.5,1.5,2.5,3.3s-0.5,3.3-2.5,3.3S11.5,130.8,11.5,129z M12.5,129
				c0,1.5,0.3,2.4,1.5,2.4s1.5-0.9,1.5-2.4s-0.3-2.4-1.5-2.4S12.5,127.5,12.5,129L12.5,129z"/>
		</g>
		<g>
			<path class="st1" d="M20.9,132.2l-2.8-4.5v4.5h-0.9v-6.4H18l2.8,4.5v-4.5h1v6.4H20.9z"/>
		</g>
		<g>
			<path class="st1" d="M26.7,130.3c0,1.2-0.7,2-2.4,2c-0.6,0-1.3-0.1-1.9-0.4V131c0.6,0.3,1.2,0.4,1.8,0.4c1.1,0,1.5-0.5,1.5-1.1
				s-0.3-0.9-1.2-1c-1.5-0.2-2.1-0.6-2.1-1.8c0-0.9,0.5-1.8,2.3-1.8c0.6,0,1.2,0.1,1.7,0.3v1c-0.5-0.2-1.1-0.3-1.7-0.3
				c-1,0-1.3,0.4-1.3,1c0,0.7,0.4,0.8,1.2,0.9C26,128.7,26.7,129,26.7,130.3z"/>
		</g>
		<g>
			<path class="st1" d="M31.1,129.3h-2.6v2h2.9v0.9h-3.9v-6.4h3.9v0.9h-2.9v1.8h2.6V129.3z"/>
		</g>
		<g>
			<path class="st1" d="M33.2,132.2h-1v-6.4h2.1c1.6,0,2.2,0.7,2.2,1.9c0.1,0.7-0.3,1.4-1,1.7l1.3,2.8h-1.1l-1.2-2.6h-1.3V132.2z
				 M33.2,128.7h1.3c0.9,0,1-0.5,1-1s-0.1-1-1-1h-1.3V128.7z"/>
		</g>
		<g>
			<path class="st1" d="M41.7,125.8l-2,6.4h-1l-2-6.4h1l1.5,5.2l1.5-5.2L41.7,125.8z"/>
		</g>
		<g>
			<path class="st1" d="M45.8,129.3h-2.7v2h2.9v0.9h-3.9v-6.4h3.9v0.9h-2.9v1.8h2.7V129.3z"/>
		</g>
		<g>
			<path class="st1" d="M50.8,125.7c0.5,0,1,0.1,1.5,0.3v0.9c-0.5-0.2-0.9-0.3-1.4-0.3c-1.2,0-1.7,0.8-1.7,2.4s0.5,2.4,1.7,2.4
				c0.5,0,1-0.1,1.4-0.3v0.9c-0.5,0.2-1,0.3-1.5,0.3c-1.9,0-2.6-1.2-2.6-3.3S49,125.7,50.8,125.7z"/>
		</g>
		<g>
			<path class="st1" d="M52.9,129c0-1.8,0.4-3.3,2.5-3.3s2.5,1.5,2.5,3.3s-0.4,3.3-2.5,3.3S52.9,130.8,52.9,129z M53.9,129
				c0,1.5,0.3,2.4,1.5,2.4s1.5-0.9,1.5-2.4s-0.3-2.4-1.5-2.4S53.9,127.5,53.9,129L53.9,129z"/>
		</g>
		<g>
			<path class="st1" d="M61.6,130.6h-2l-0.5,1.6h-1l2-6.4h1l2,6.4h-1L61.6,130.6z M60.6,127l-0.8,2.8h1.6L60.6,127z"/>
		</g>
		<g>
			<path class="st1" d="M67.6,130.3c0,1.2-0.7,2-2.4,2c-0.6,0-1.3-0.1-1.9-0.4V131c0.6,0.3,1.2,0.4,1.8,0.4c1.2,0,1.5-0.5,1.5-1.1
				s-0.3-0.9-1.2-1c-1.5-0.2-2.2-0.6-2.2-1.8c0-0.9,0.5-1.8,2.3-1.8c0.6,0,1.2,0.1,1.7,0.3v1c-0.5-0.2-1.1-0.3-1.7-0.3
				c-1,0-1.3,0.4-1.3,1c0,0.7,0.4,0.8,1.2,0.9C66.8,128.7,67.6,129,67.6,130.3z"/>
		</g>
		<g>
			<path class="st1" d="M70.3,126.7v5.5h-0.9v-5.5h-1.7v-0.9H72v0.9H70.3z"/>
		</g>
		<g>
			<path class="st1" d="M75.1,130.6h-2l-0.4,1.6h-1l2-6.4h1l2,6.4h-1L75.1,130.6z M74.1,127l-0.8,2.8h1.6L74.1,127z"/>
		</g>
		<g>
			<path class="st1" d="M78.1,131.3h2.8v0.9h-3.7v-6.4h1L78.1,131.3z"/>
		</g>
		<g>
			<path class="st1" d="M10.1,139.6h-2l-0.4,1.6h-1l2-6.4h1l2,6.4h-1L10.1,139.6z M9.1,136l-0.8,2.8h1.6L9.1,136z"/>
		</g>
		<g>
			<path class="st1" d="M15.8,141.2l-2.8-4.5v4.5h-0.9v-6.4H13l2.8,4.5v-4.5h0.9v6.4H15.8z"/>
		</g>
		<g>
			<path class="st1" d="M17.6,141.2v-6.4h1.9c2.1,0,2.7,1.4,2.7,3.2s-0.6,3.2-2.7,3.2H17.6z M18.6,140.3h1c1.3,0,1.7-0.9,1.7-2.3
				s-0.4-2.3-1.7-2.3h-1V140.3z"/>
		</g>
		<g>
			<path class="st1" d="M27.8,140.3h-0.9l-1.6-3.9l0,4.8h-1v-6.4h1.2l1.7,4.3l1.7-4.3h1.2v6.4h-1v-4.8L27.8,140.3z"/>
		</g>
		<g>
			<path class="st1" d="M34.4,139.6h-2l-0.5,1.6h-1l2-6.4h1l2,6.4h-1L34.4,139.6z M33.4,136l-0.8,2.8h1.6L33.4,136z"/>
		</g>
		<g>
			<path class="st1" d="M37.3,141.2h-1v-6.4h2.1c1.7,0,2.2,0.7,2.2,1.9c0.1,0.7-0.3,1.4-1,1.7l1.3,2.8h-1.2l-1.2-2.6h-1.3V141.2z
				 M37.3,137.7h1.3c0.9,0,1-0.5,1-1s-0.1-1-1-1h-1.3V137.7z"/>
		</g>
		<g>
			<path class="st1" d="M41.6,141.2v-6.4h1v6.4H41.6z"/>
		</g>
		<g>
			<path class="st1" d="M47.3,141.2l-2.8-4.5v4.5h-0.9v-6.4h0.9l2.8,4.5v-4.5h0.9v6.4H47.3z"/>
		</g>
		<g>
			<path class="st1" d="M52.7,138.3h-2.6v2H53v0.9h-3.9v-6.4H53v0.9h-2.9v1.8h2.7L52.7,138.3z"/>
		</g>
		<g>
			<path class="st1" d="M58.4,139.6h-2l-0.5,1.6h-1l2-6.4h1l2,6.4h-1L58.4,139.6z M57.4,136l-0.8,2.8h1.6L57.4,136z"/>
		</g>
		<g>
			<path class="st1" d="M61.4,141.2h-1v-6.4h2.1c1.7,0,2.2,0.7,2.2,1.9c0.1,0.7-0.3,1.4-1,1.7l1.3,2.8h-1.1l-1.2-2.6h-1.3V141.2z
				 M61.4,137.7h1.3c0.9,0,1-0.5,1-1s-0.1-1-1-1h-1.3V137.7z"/>
		</g>
		<g>
			<path class="st1" d="M69.2,138.3h-2.7v2h2.9v0.9h-3.9v-6.4h3.9v0.9h-2.9v1.8h2.7V138.3z"/>
		</g>
		<g>
			<path class="st1" d="M73.4,139.6h-2l-0.4,1.6h-1l2-6.4h1l2,6.4h-1L73.4,139.6z M72.4,136l-0.8,2.8h1.6L72.4,136z"/>
		</g>
		<g>
			<path class="st1" d="M79.4,139.3c0,1.2-0.7,2-2.4,2c-0.6,0-1.3-0.1-1.9-0.4V140c0.6,0.3,1.2,0.4,1.8,0.4c1.2,0,1.5-0.5,1.5-1.1
				s-0.3-0.9-1.2-1c-1.6-0.2-2.2-0.6-2.2-1.8c0-0.9,0.5-1.8,2.3-1.8c0.6,0,1.2,0.1,1.7,0.3v1c-0.5-0.2-1.1-0.3-1.7-0.3
				c-1,0-1.3,0.4-1.3,1s0.4,0.8,1.2,0.9C78.7,137.7,79.4,138,79.4,139.3z"/>
		</g>
	</g>
	<g>
		<rect x="3.3" y="24" class="st1" width="94.8" height="94.8"/>
	</g>
	<g>
		<path class="st1" d="M98.2,20.7H3.3V3.3h94.8V20.7z M4.3,19.7h92.8V4.3H4.3L4.3,19.7z"/>
	</g>
	<g class="st2">
		<path class="st1" d="M6.7,6.9h4.5v1.4H9.9v8.8H8.1V8.3H6.7V6.9z"/>
	</g>
	<g class="st2">
		<path class="st1" d="M11.2,17.1l1.9-10.2h1.9L17,17.1h-1.8l-0.3-1.9h-1.8l-0.3,1.9H11.2z M13.3,13.9h1.4L14,9.8h0L13.3,13.9z"/>
	</g>
	<g class="st2">
		<path class="st1" d="M19.6,12.4v4.7h-1.7V6.9h2.5c1.7,0,2.4,0.9,2.4,2.3v1.3c0,1.1-0.4,1.7-1.4,2l1.6,4.6h-1.8L19.6,12.4z
			 M19.6,8.3v3.2h0.6c0.6,0,0.8-0.3,0.8-0.8V9.2c0-0.6-0.3-0.8-0.8-0.8H19.6z"/>
	</g>
	<g class="st2">
		<path class="st1" d="M26.4,11.7h2.4v5.4h-1.2V16c-0.2,0.8-0.7,1.2-1.6,1.2c-1.5,0-2.1-1.2-2.1-2.7V9.6c0-1.6,0.8-2.7,2.6-2.7
			c1.9,0,2.4,1.1,2.4,2.6v0.9h-1.6v-1c0-0.6-0.2-1-0.9-1c-0.6,0-0.9,0.4-0.9,1v5.5c0,0.6,0.3,1,0.8,1c0.6,0,0.8-0.3,0.8-1V13h-0.8
			V11.7z"/>
	</g>
	<g class="st2">
		<path class="st1" d="M30.2,6.9h4.1v1.4h-2.4v2.9h1.7v1.4h-1.7v3.1h2.4v1.4h-4.1V6.9z"/>
	</g>
	<g class="st2">
		<path class="st1" d="M35.1,6.9h4.5v1.4h-1.4v8.8h-1.7V8.3h-1.4V6.9z"/>
	</g>
	<g class="st2">
		<path class="st1" d="M77.5,6.9v10.2h-1.7V9.3h0l-1.2,1.2h0V8.8l1.6-1.8H77.5z"/>
	</g>
	<g class="st2">
		<path class="st1" d="M78.6,14.4l3-7.5h1.7v7.2H84v1.3h-0.7v1.7h-1.6v-1.7h-3V14.4z M80.1,14.1h1.5V9.9h0L80.1,14.1z"/>
	</g>
	<g class="st2">
	</g>
	<g class="st2">
		<path class="st1" d="M86.7,10.8c0.7,0,1.2,0.6,1.2,1.2c0,0.7-0.6,1.2-1.2,1.2c-0.7,0-1.2-0.6-1.2-1.2C85.5,11.4,86,10.8,86.7,10.8
			z"/>
	</g>
	<g class="st2">
		<path class="st1" d="M94.4,12.4v2.5c0,1.4-0.7,2.3-2.4,2.3c-1.7,0-2.4-1-2.4-2.5v-1.2h1.6v1.3c0,0.6,0.2,1,0.8,1
			c0.5,0,0.7-0.4,0.7-0.9v-2.5c0-0.6-0.2-0.9-0.7-0.9c-0.5,0-0.8,0.3-0.8,0.9v0.2h-1.6V6.9h4.5v1.4h-2.9v2.5h0
			c0.3-0.5,0.8-0.7,1.4-0.7C93.5,10.2,94.4,10.8,94.4,12.4z"/>
	</g>
	<g>
		<path class="st1" d="M98.2,144.9h-95v-22.8h95V144.9z M4.2,143.9h93v-20.8h-93V143.9z"/>
	</g>
	<g>
		<path class="st3" d="M38.2,72.4c0.4,0,0.8-0.4,0.8-0.8c0-0.4-0.4-0.8-0.8-0.8c-0.4,0-0.8,0.4-0.8,0.8l0,0
			C37.3,72,37.7,72.4,38.2,72.4z"/>
	</g>
	<g>
		<path class="st0" d="M28.5,75L28.5,75C28.5,75,28.6,75.1,28.5,75L28.5,75c1.4-0.1,2.5-0.9,3.1-2.1c0,0,2.6,2.2,5,2.2
			c2.8,0,4.8-2.5,5.1-2.9l0,0l0,0l0,0l0,0c-0.3-0.4-2.3-3-5.1-3c-2.4,0-5,2.2-5,2.2c-0.6-1.2-1.7-2-3-2.2l0,0c0,0-0.1,0-0.1,0.1
			c0,0,0,0,0,0.1c0.5,0.9,0.9,1.8,0.9,2.8C29.4,73.1,29.1,74.1,28.5,75L28.5,75z M38.2,70.8c0.4,0,0.8,0.4,0.8,0.8
			c0,0.4-0.4,0.8-0.8,0.8c-0.4,0-0.8-0.4-0.8-0.8l0,0C37.3,71.2,37.7,70.8,38.2,70.8C38.1,70.8,38.1,70.8,38.2,70.8L38.2,70.8z"/>
	</g>
	<g>
		<path class="st0" d="M42.1,96.5l2-1.3c0.1,0,0.5-0.2,0.4-0.5S44,94.4,44,94.4h-2.7c-0.5,0-0.5-0.5-0.5-0.5
			c-0.1-0.8-0.4-1.5-0.8-2.2c-0.2-0.3-0.3-0.4-0.5-0.3s-0.2,0.1-0.2,0.4c-0.1,0.7-0.2,1.3-0.4,2c-0.2,0.6-0.4,0.6-1,0.6s-2,0-2,0
			c-0.1,0-0.3,0-0.4,0c-0.2,0-0.3,0.1-0.4,0.3c0,0.1,0.1,0.3,0.2,0.3c0.3,0.2,1.8,1.1,2.2,1.3c0.3,0.2,0.4,0.5,0.3,0.8
			c0,0.1-0.8,2-1,2.4s0.1,0.5,0.1,0.5c0.3,0.2,0.6-0.2,0.6-0.2c0.7-0.4,1.6-1.2,2-1.5s0.6,0,0.6,0c0.6,0.6,1.3,1.1,2,1.6
			c0.1,0.1,0.3,0.1,0.5,0c0.2-0.1,0.1-0.5,0.1-0.5s-0.7-2-0.8-2.4S42.1,96.5,42.1,96.5z"/>
	</g>
	<g>
		<path class="st0" d="M59.3,65.7c0.3,0,0.5-0.2,0.5-0.4v-0.4c0-0.1,0-0.3,0-0.4c-0.1-3.7-3.2-6.5-6.9-6.4c-3.5,0.1-6.2,2.9-6.4,6.4
			c0,0.1,0,0.3,0,0.4v0.3c0,0.3,0.3,0.6,0.6,0.6h2.7c0.6,0.7,0.9,1.6,0.8,2.5c-0.2,0.5-0.5,1-0.8,1.5c-0.6,0.6-0.9,1.4-0.8,2.3
			c0.2,0.7,0.5,1.3,1,1.8c0.5,0.7,1,1.3,0.8,1.9c-0.1,0.4-0.3,0.7-0.4,1c-0.5,0.8-0.7,1.8-0.7,2.8c0,0.2,0.2,0.4,0.4,0.4
			c0.2,0,0.4-0.2,0.4-0.4l0,0c0-0.8,0.2-1.7,0.6-2.4c0.2-0.3,0.3-0.7,0.5-1.1c0.4-1-0.3-1.9-0.9-2.7c-0.4-0.4-0.6-0.9-0.8-1.4
			c-0.1-0.6,0.3-1.1,0.7-1.6c0.4-0.5,0.8-1.1,1-1.8c0.1-0.9-0.1-1.9-0.6-2.7h1.8c0.6,0.7,0.9,1.6,0.8,2.5c-0.2,0.5-0.5,1.1-0.8,1.5
			c-0.6,0.6-0.9,1.4-0.8,2.3c0.2,0.6,0.5,1.2,0.9,1.8c0.5,0.7,1,1.3,0.8,1.9c-0.1,0.4-0.3,0.7-0.4,1c-0.5,0.8-0.7,1.8-0.7,2.8
			c0,0.2,0.2,0.4,0.4,0.4l0,0c0.2,0,0.4-0.2,0.4-0.4c0-0.8,0.2-1.6,0.6-2.4c0.2-0.3,0.3-0.7,0.5-1.1c0.4-1-0.3-1.9-0.9-2.7
			c-0.4-0.4-0.6-0.9-0.8-1.4c0-0.6,0.3-1.2,0.7-1.6c0.4-0.5,0.8-1.1,1-1.8c0.1-0.9-0.1-1.9-0.6-2.7h1.8c0.6,0.7,0.9,1.6,0.8,2.5
			c-0.2,0.5-0.4,1.1-0.8,1.5c-0.6,0.6-0.9,1.4-0.8,2.3c0.2,0.7,0.5,1.3,0.9,1.8c0.5,0.7,1,1.3,0.8,1.9c-0.2,0.4-0.3,0.7-0.4,1
			c-0.5,0.8-0.7,1.8-0.7,2.8c0,0.2,0.2,0.4,0.4,0.4s0.4-0.2,0.4-0.4c0-0.8,0.2-1.7,0.6-2.4c0.2-0.3,0.3-0.7,0.5-1.1
			c0.4-1-0.3-1.9-0.9-2.7c-0.4-0.4-0.6-0.9-0.8-1.4c0-0.6,0.3-1.2,0.7-1.6c0.4-0.5,0.8-1.1,1-1.8c0.2-0.9-0.1-1.9-0.6-2.7
			C56.8,65.7,59.3,65.7,59.3,65.7z"/>
	</g>
	<g>
		<path class="st0" d="M49.6,93.9c-0.5,0.1-0.8,0.5-0.8,1c0,0.4,0.4,0.7,0.8,0.8c0.5,0.1,0.9-0.3,1-0.8c0.1-0.5-0.3-0.9-0.8-1
			C49.7,93.9,49.7,93.9,49.6,93.9z"/>
	</g>
	<g>
		<path class="st0" d="M54,86.7c-1.1,0-2.1,0.9-2.1,2.1c0,1.1,0.9,2.1,2.1,2.1c1.1,0,2.1-0.9,2.1-2.1c0,0,0,0,0,0
			C56.1,87.6,55.2,86.7,54,86.7C54.1,86.7,54.1,86.7,54,86.7z"/>
	</g>
	<g>
		<path class="st0" d="M46.1,83.1c-0.5-0.1-0.9,0.3-1,0.8c-0.1,0.5,0.3,0.9,0.8,1c0.1,0,0.1,0,0.2,0c0.5-0.1,0.8-0.5,0.8-1
			C46.8,83.4,46.5,83.1,46.1,83.1z"/>
	</g>
	<g>
		<path class="st0" d="M40.7,64.4c0.1-0.5-0.3-0.9-0.8-1c-0.5-0.1-0.9,0.3-1,0.8c0,0.1,0,0.1,0,0.2c0.1,0.5,0.5,0.8,1,0.8
			C40.3,65.1,40.7,64.8,40.7,64.4z"/>
	</g>
	<g>
		<path class="st0" d="M34.4,59.4c0-0.6-0.5-1.1-1.1-1.1c-0.6,0-1.1,0.5-1.1,1.1c0,0.6,0.5,1.1,1.1,1.1C33.9,60.5,34.4,60,34.4,59.4
			C34.4,59.4,34.4,59.4,34.4,59.4z"/>
	</g>
	<g>
		<path class="st0" d="M89.2,90.2c-2.1,0.8-5.7,2.1-10.1,3.6c-0.4-0.1-0.6-1.3-0.7-1.6c-0.1-1-0.7-2.3,0.7-3.7s2.2-1,2.9-0.9
			s1.2,2,1.6,2.7s0.9,0.3,0.9-0.2c-0.1-0.6-0.2-1.2-0.5-1.7c-0.1-0.5,0-0.5,0.6-0.4s0.8,0.4,1.5,0.7s1.3,0.1,1.3-0.5
			s-0.7-0.7-1.4-0.9s-1-0.3-0.5-0.8c0.4-0.4,0.6-1,0.4-1.5c-0.2-0.5-0.8-0.6-1.5,0.4s-1.4,1-1.6,0.4s1-2.2,1.6-3.1
			c0.5-0.8,1.4-1.4,2.3-1.5c1-0.3,1.5-0.3,1.4-0.7s-1.1-0.3-1.6-0.3c-0.4,0.1-0.7-0.2-0.8-0.6c0-0.1,0-0.1,0-0.2
			c0-0.5,0.8-1.1,1.4-1.9s0.8-1,0.4-1.4s-1.2-0.3-1.8,0.3c-0.5,0.6-1,1.2-1.4,1.8c-0.3,0.3-0.6-0.3-1-0.7s-1-0.7-1.3-0.5
			s0,0.6,0.5,1.2c0.6,0.6,0.9,1.4,0.9,2.2c0.1,0.9-0.4,1.7-1.2,2c-0.4,0.1-0.3-1.1-1-1.2s-0.8,0.8-0.7,1.9s-1.2,1.6-1.7,1.1
			c-0.6-1-1-2.1-1.1-3.3c0-0.8,1-1.6,1.7-2.1s1.7-0.7,1.1-1.4s-2.5,0.3-3.1,1s-1,0.5-1.1,0.2c-0.2-0.9-0.2-1.8,0-2.7
			c0.4-1.2,1.3-2,2.5-2.2c1,0,2,0.4,2.8,1.1c0.4,0.2,1.1,0.3,1.1-0.2s-1.1-1.2-1.6-1.4s-0.8-0.2-0.6-0.6s1.5-1,2-1.2
			s1.4-0.6,0.8-1.3s-2.3,0.5-2.8,0.8s-0.4-0.9-0.5-1.2s0-1.3-0.9-1.2s-0.7,1.6-0.7,2.4s-0.6,0.7-1.7,1.5c-0.7,0.6-1.4,1.3-2,2.1
			c-0.3,0.3-0.5-0.6-0.6-1.8c-0.1-1,0.1-1.9,0.6-2.8c0.6-0.7,1.3-1.4,2.2-1.8c0.2-0.1,0.3-0.4,0.2-0.6c-0.1-0.2-0.4-0.3-0.6-0.2
			c0,0,0,0,0,0c-0.6,0.3-1.1,0.5-1.5,0.2s0.3-1.3,0.8-2.2s0.4-1.8-0.2-2.2s-1.5,0.6-1.7,1.3c-0.2,0.7-0.6,0.8-1,0.3s-0.8-0.9-1-0.7
			c-0.2,0.2-0.4,0.4,0.2,1.1c0.5,0.7,0.8,1.4,0.8,2.3c0.1,0.7-0.5,0.9-0.9,0.6s-1.1-0.6-1.3-0.2s0.4,0.8,1,1s0.6,1.2,0.6,1.7
			s-0.1,0.8-0.6,0.8c-0.8-0.4-1.5-1.1-1.8-2c0-0.5-0.1-1-0.2-1.6c-0.2-0.3-0.8-0.1-0.8,0.3c0,0.6,0,1.1,0,1.7
			c-0.1,0.3-0.9-0.1-1.7-0.4s-1.7,0-1.6,0.5s1.7,1.2,2.1,1.2s0.7,0.4,0.5,0.7s-1,0.9-1.2,1.2s0.1,1,0.7,0.5c0.5-0.6,1.2-1,2-1.2
			c0.6-0.1,1.2,0.2,1.6,0.8c0.1,0.3-0.4,0.5-1,0.7s-0.8,0.6-0.8,0.8s0.1,0.6,0.8,0.2c0.5-0.2,1-0.3,1.4-0.3c0.6-0.1,0.8,0.6,0.8,0.6
			c0.4,1.2,2,4.5,2.2,5c0.2,0.3,0.1,0.7-0.2,0.8c-0.1,0.1-0.3,0.1-0.4,0.1c-0.6,0-1.5,0.1-1.4,0.7s1.5,0.6,2.3,0.6s0.9,1,1.1,2.2
			s-1.3,1.4-2.1,0.8c-1.2-1-2.2-2.2-3.1-3.4c-0.2-0.6-0.1-1.3,0.3-1.9c0.3-0.4,0.8-0.4,1.1-0.6c0.3-0.2,0.4-0.6,0.2-0.9
			c0,0,0,0-0.1-0.1c-0.2-0.3-1,0.1-1.2,0.3s-0.6,0.4-0.6,0s0.1-1.3,0.1-1.7s-0.2-0.8-0.8-0.5s-0.6,2.9-0.5,3.9s-0.5,1.1-0.8,1
			c-0.7-0.4-1.3-1-1.7-1.7c-0.3-0.5-0.2-0.7,0.4-1.6c0.3-0.3,0.5-0.7,0.6-1.1c0.1-0.4-0.4-0.5-0.7-0.1c-0.2,0.3-0.5,0.6-0.8,0.8
			c-0.3,0.1-0.2-1.2-0.2-1.5s0.1-0.7-0.6-0.6S65,77.2,65,77.4s-0.5,0.2-1.1,0.2s-0.9,0.7-0.2,0.7c0.5,0,1,0.1,1.5,0.4
			c0.3,0.5,0.4,1.1,0.2,1.7c-0.1,0.3-0.7-0.1-1.6,0s-1.9,0.2-1.9,0.7s0.7,1.2,1.6,1s1.8-0.2,2,0.1s-0.2,0.4-0.5,0.7s-0.5,0.7-0.2,1
			s0.8,0.2,1.3-0.2c0.4-0.5,1-0.7,1.6-0.6c0.9,0.1,1.7,0.4,2.3,0.9c0.5,0.4,0.2,0.9-0.4,1.1c-0.6,0.2-1.2,0.6-1.8,1
			c-0.5,0.4-1.2,0.4-1.6,0c-0.5-0.4-1.1-0.8-1.4-0.4s0.3,1,0.6,1.2s0.5,0.2,0.2,0.7c-0.4,0.6-0.8,1.1-1.3,1.5
			c-0.3,0.2-0.3,0.5-0.2,0.8c0.2,0.2,0.5,0.3,0.7,0.2c0.7-0.4,1.3-0.9,1.9-1.5c0.2-0.1,0.3-0.5,0.5,0c0.1,0.4,0.1,0.9,0.1,1.3
			c0,0.3-0.2,0.7,0.2,0.8c0.2,0.1,0.5-0.1,0.6-0.3c0-0.4,0-0.9,0-1.3c-0.1-0.7,0.1-1.4,0.6-1.9c0.6-0.7,2-0.5,2.9-0.5s1,0.7,1,1.2
			s-1.1,1.1-1.4,1.3s-1.1,0.4-0.8,1s0.5,0.4,0.9,0.4s1.3-1.1,2-1.2s1.2,0,1.8,1.4c0.4,1,0.8,4.4,0.2,4.5c-7.6,2.6-16.8,5.4-24.8,7.3
			c-10.7,2.4-16.9,3.3-22.8,3.7c0.1-0.2,0.2-0.5,0.2-0.6c0.3-0.6,0.7-1.2,1.3-1.6c0.4-0.4,0.4-1,0.1-2s0.3-1.6,0.6-2.4
			c0.2-0.7,0.1-1.5-0.3-2.2c0-0.1-0.1-0.2-0.2-0.3c-0.6,0.7-1,1.5-1.2,2.3c-0.2,1,0,1.5-0.3,2.1S27,102.6,27,103
			c0.1,0.8,0,1.7-0.3,2.4c-0.2,0.2-0.5,0.4-0.8,0.6c0.2-0.7,0.2-1.6-0.2-2.2c-0.1-0.3-0.5-0.8,0-1.3c0.5-0.5,0.7-1.3,0.6-2
			c0-0.9,0.1-1,0.9-1.7s0.5-1.8,0.4-2.4s0.3-0.5,0.7-1.1s0-1.6,0.1-2.3s0.5-0.6,0.4-1.7c-0.1-0.8,0-1.5,0.2-2.2
			c0.3-1.1-1.1-2.2-1.4-2.4c0.2,0.2,0,0.5-0.4,1.4c-0.3,0.7-0.2,1.4,0.2,2c0.2,0.6-0.2,0.7-0.3,1.4s0.2,0.9-0.4,1.6
			s-0.8,1.2-0.8,2.5s-0.9,1.2-1.4,1.7s0.2,1.2,0.1,2.1c0,0.3-0.1,0.6-0.2,0.9c0.1-0.4,0.1-0.9,0-1.3c-0.4-1-0.5-1.4-0.4-1.6
			c0.2-0.2,0.4-0.5,0.6-0.6c-0.1-0.1-0.1-0.2-0.1-0.3c-0.2-0.4,0-1,0.5-2.1s0.2-1.1-0.2-1.7s-0.3-0.8,0.2-1.3c0.4-0.4,0.6-1,0.4-1.6
			c-0.2-0.5-0.3-1-0.2-1.6c0.2-0.7,0.7-0.8,0.4-1.4s-0.5-1.2-0.5-1.2c-0.2-0.7,0.5-1.1,0-2.2c-0.4-0.9-0.1-1.3-0.3-2.7
			c-0.1-0.8-0.8-1.3-1.6-1.2c0,0,0,0,0,0c-0.2,0-0.5,0.3-0.4,1.3s0.8,1.2,0.5,2.3s0.3,1.5,0.5,2s-0.4,0.9-0.5,1.5s0.4,1.1-0.2,1.8
			s-0.8,0.9-0.2,2c0.4,0.7,0,1-0.5,2s-0.2,1.3-0.1,2.5c0.2,0.7,0.2,1.4,0.1,2.1c-0.1,0.8-0.6,0.9-0.6,2.2c0.2,0.8,0.4,1.7,0.4,2.6
			c-0.1,0.6-1.7,1.7-1.6,2.5c0,0.7,0,1.4,0.2,2.1h-2c-0.1-1.8-0.4-3.6-0.7-5.3c-0.4-2.2,0-4.5,0.6-7.2l0,0c0,0,0-0.1,0-0.1
			c0.2-1.1,0.5-2.3,0.7-3.6c0.8-4.3,1-8.7,0.6-13.1c-0.3-1.9-0.7-3.7-1.2-5.5c-0.4-1.7-0.9-3.4-1.1-4.8c-0.5-3-0.9-5.2-0.9-5.3
			c0-0.2-0.3-0.4-0.5-0.3c0,0,0,0,0,0c-0.2,0.1-0.4,0.3-0.3,0.5c0,0,0.4,2.2,0.9,5.2c0.2,1.5,0.6,3.1,1.1,4.9
			c0.5,1.8,0.9,3.6,1.2,5.4c0.3,3.4,0.2,6.8-0.2,10.1c0-1,0-2-0.1-3c-0.2-2.8-0.8-5.6-1.7-8.3c-0.1-0.2-0.3-0.3-0.5-0.3c0,0,0,0,0,0
			c-0.2,0.1-0.3,0.3-0.3,0.5c0,0,0,0,0,0c0.9,2.6,1.4,5.4,1.6,8.1c0.2,3.1,0.2,6.2-0.1,9.2v0.1c-0.6,2.8-1.1,5.3-0.6,7.6
			c0.4,2.1,0.6,4.1,0.7,5.2l0,0c-0.2-0.3-0.4-0.5-0.6-0.8c-0.6-1-1.1-2-1.4-3.2c-0.2-0.6-0.4-1.2-0.7-2.1c-1-2.7-0.8-7.8-0.7-11.4
			c0.1-1.1,0.2-2.2,0.3-3.3c0.5-3.3,0.5-6.6,0-9.9c-0.9-4.8-0.8-6.1-0.8-6.1c0-0.2-0.1-0.4-0.4-0.5c-0.2,0-0.4,0.1-0.5,0.3
			c0,0,0,0,0,0c0,0.1-0.2,1.4,0.8,6.4c0.5,3.2,0.5,6.4,0,9.6c-0.1,1.2-0.3,2.3-0.3,3.4c-0.2,4-0.3,8.9,0.7,11.7
			c0.3,0.8,0.5,1.5,0.7,2c0.3,1.2,0.8,2.3,1.5,3.4l0.2,0.3c0,0,0,0,0,0.1h-4.6h-2v6.2h80.6v-23L89.2,90.2z"/>
	</g>
	<g>
		<path class="st0" d="M28.4,36c0.1-0.1,0.1-0.1,0.2-0.2c0.1,0,0.1-0.1,0.2-0.1c0.1,0,0.3,0.1,0.3,0.2c9.3,8.9,19.1,1.7,21.1,0
			l0.2-0.2c0,0,0.1-0.1,0.2-0.1c0.1,0,0.1,0,0.2,0.1L51,36c2,1.7,11.8,8.9,21.1,0l0,0c0.1-0.1,0.2-0.1,0.3-0.1c0.1,0,0.2,0,0.3,0.1
			c0.1,0,0.1,0.1,0.1,0.1c1.8,1.8,9.6,8.5,17.8,1.3c0.1-0.1,0.1-0.2,0.2-0.3v-3.5c0-0.3-0.2-0.5-0.5-0.5c0,0,0,0,0,0h-0.1L90,33.2
			c-2.5,1.3-10.4,4.3-17.5-2.5c-0.1-0.1-0.3-0.2-0.4-0.2c-0.1,0-0.3,0.1-0.4,0.2c-2.1,1.6-11.9,8.2-20.6,0.1L51,30.8
			c-0.1-0.1-0.2-0.1-0.4-0.1c-0.1,0-0.2,0.1-0.3,0.1l-0.1,0.1c-8.7,8.1-18.5,1.5-20.6-0.1c-0.1-0.1-0.2-0.2-0.4-0.2
			c-0.2,0-0.3,0.1-0.4,0.2c-7.1,6.7-15,3.7-17.5,2.5L11,33.1h-0.1c-0.3,0-0.5,0.2-0.5,0.5c0,0,0,0,0,0V37c0,0.1,0.1,0.2,0.1,0.3
			C18.7,44.5,26.5,37.8,28.4,36z"/>
	</g>
	<g>
		<path class="st0" d="M28.4,48.4c0.1-0.1,0.1-0.1,0.2-0.2c0.1,0,0.1-0.1,0.2-0.1c0.1,0,0.3,0.1,0.3,0.2c9.3,8.9,19.1,1.7,21.1,0
			l0.2-0.2c0-0.1,0.1-0.1,0.2-0.1c0.1,0,0.1,0,0.2,0.1l0.2,0.2c2,1.7,11.8,8.9,21.1,0l0,0c0.2-0.1,0.4-0.1,0.6,0
			c0.1,0,0.1,0.1,0.1,0.1c1.8,1.8,9.6,8.5,17.8,1.3c0.1-0.1,0.2-0.2,0.2-0.3V46c0-0.3-0.2-0.5-0.5-0.5h-0.1L90,45.6
			c-5.8,3.1-12.9,2.1-17.5-2.5c-0.1-0.1-0.2-0.2-0.4-0.2c-0.1,0-0.3,0.1-0.4,0.2c-2.1,1.6-11.9,8.2-20.6,0.1L51,43.2
			c-0.1-0.1-0.2-0.1-0.4-0.1c-0.1,0-0.2,0.1-0.3,0.1l-0.1,0.1c-8.7,8.1-18.5,1.5-20.6-0.1C29.5,43,29.3,43,29.2,43
			c-0.2,0-0.3,0.1-0.4,0.2c-7.1,6.7-15,3.7-17.5,2.5L11,45.5h-0.1c-0.3,0-0.5,0.2-0.5,0.5l0,0v3.4c0,0.1,0,0.3,0.1,0.3
			C18.7,56.9,26.5,50.2,28.4,48.4z"/>
	</g>
</g>
</svg>
