<?xml version="1.0" encoding="utf-8"?>
<!-- Generator: Adobe Illustrator 22.0.1, SVG Export Plug-In . SVG Version: 6.00 Build 0)  -->
<svg version="1.1" id="Layer_1" xmlns="http://www.w3.org/2000/svg" xmlns:xlink="http://www.w3.org/1999/xlink" x="0px" y="0px"
	 viewBox="0 0 101.5 166.2" style="enable-background:new 0 0 101.5 166.2;" xml:space="preserve">
<style type="text/css">
	.st0{fill:#FFFFFF;}
	.st1{fill:#0A97D9;}
	.st2{enable-background:new    ;}
</style>
<title>TARGET 1 B copy 14</title>
<g id="WHITE_BG">
	<g>
		<rect y="0" class="st0" width="101.5" height="166.2"/>
	</g>
</g>
<g id="TARGETS">
	<g>
		<g>
			<path class="st1" d="M7,132.2v-6.4h1v6.4H7z"/>
		</g>
		<g>
			<path class="st1" d="M12.5,131.3h-0.9l-1.6-3.9v4.8H9.1v-6.4h1.2l1.7,4.3l1.7-4.3H15v6.4h-1v-4.8L12.5,131.3z"/>
		</g>
		<g>
			<path class="st1" d="M16.9,132.2h-1v-6.4h2c1.6,0,2.2,1,2.2,2c0,1-0.6,2-2.2,2h-1V132.2z M16.9,128.9H18c0.6,0.1,1.2-0.4,1.2-1
				s-0.4-1.2-1-1.2c-0.1,0-0.1,0-0.2,0h-1.1V128.9z"/>
		</g>
		<g>
			<path class="st1" d="M21.6,131.3h2.8v0.9h-3.7v-6.4h1V131.3z"/>
		</g>
		<g>
			<path class="st1" d="M28.5,129.3h-2.6v2h2.9v0.9h-3.9v-6.4h3.9v0.9h-2.9v1.8h2.6V129.3z"/>
		</g>
		<g>
			<path class="st1" d="M33,131.3h-0.9l-1.6-3.9v4.8h-1v-6.4h1.2l1.7,4.3l1.7-4.3h1.2v6.4h-1v-4.8L33,131.3z"/>
		</g>
		<g>
			<path class="st1" d="M40,129.3h-2.6v2h2.9v0.9h-3.9v-6.4h3.9v0.9h-2.9v1.8h2.7L40,129.3z"/>
		</g>
		<g>
			<path class="st1" d="M44.8,132.2l-2.8-4.5v4.5h-0.9v-6.4H42l2.8,4.5v-4.5h1v6.4H44.8z"/>
		</g>
		<g>
			<path class="st1" d="M48.9,126.7v5.5h-1v-5.5h-1.6v-0.9h4.3v0.9H48.9z"/>
		</g>
		<g>
			<path class="st1" d="M55.5,130.6h-2l-0.5,1.6h-1l2-6.4h1l2,6.4h-1L55.5,130.6z M54.5,127l-0.8,2.8h1.6L54.5,127z"/>
		</g>
		<g>
			<path class="st1" d="M61.2,132.2l-2.8-4.5v4.5h-1v-6.4h0.9l2.8,4.5v-4.5H62v6.4H61.2z"/>
		</g>
		<g>
			<path class="st1" d="M63,132.2v-6.4h1.9c2.1,0,2.7,1.4,2.7,3.2s-0.6,3.2-2.7,3.2L63,132.2z M64,131.3h1c1.3,0,1.7-0.9,1.7-2.3
				s-0.4-2.3-1.7-2.3H64L64,131.3z"/>
		</g>
		<g>
			<path class="st1" d="M10.5,138.3H7.8v2h2.9v0.9H6.9v-6.4h3.9v0.9H7.8v1.8h2.6V138.3z"/>
		</g>
		<g>
			<path class="st1" d="M15.3,141.2l-2.8-4.5v4.5h-0.9v-6.4h0.9l2.8,4.5v-4.5h0.9v6.4H15.3z"/>
		</g>
		<g>
			<path class="st1" d="M20.5,138.4h-2.6v2.8H17v-6.4h3.8v0.9h-2.9v1.8h2.6V138.4z"/>
		</g>
		<g>
			<path class="st1" d="M21.3,138c0-1.8,0.4-3.3,2.5-3.3s2.5,1.5,2.5,3.3s-0.4,3.3-2.5,3.3S21.3,139.8,21.3,138z M22.3,138
				c0,1.5,0.3,2.4,1.5,2.4s1.5-0.9,1.5-2.4s-0.3-2.4-1.5-2.4S22.3,136.5,22.3,138L22.3,138z"/>
		</g>
		<g>
			<path class="st1" d="M27.9,141.2H27v-6.4h2c1.6,0,2.2,0.7,2.2,1.9c0.1,0.7-0.3,1.4-1,1.7l1.3,2.8h-1.1l-1.2-2.6h-1.3V141.2z
				 M27.9,137.7h1.3c0.9,0,1-0.5,1-1s-0.1-1-1-1h-1.3V137.7z"/>
		</g>
		<g>
			<path class="st1" d="M34.6,134.7c0.5,0,1,0.1,1.5,0.3v0.9c-0.5-0.2-0.9-0.3-1.4-0.3c-1.2,0-1.7,0.8-1.7,2.4s0.5,2.4,1.7,2.4
				c0.5,0,1-0.1,1.4-0.3v0.9c-0.5,0.2-1,0.3-1.5,0.3c-1.9,0-2.6-1.2-2.6-3.3S32.7,134.7,34.6,134.7z"/>
		</g>
		<g>
			<path class="st1" d="M40.5,138.3h-2.7v2h2.9v0.9h-3.9v-6.4h3.9v0.9h-2.9v1.8h2.7V138.3z"/>
		</g>
		<g>
			<path class="st1" d="M7,150.2v-6.4h1v6.4H7z"/>
		</g>
		<g>
			<path class="st1" d="M12.8,150.2l-2.8-4.5v4.5H9.1v-6.4h0.9l2.8,4.5v-4.5h0.9v6.4H12.8z"/>
		</g>
		<g>
			<path class="st1" d="M16.8,144.7v5.5h-1v-5.5h-1.6v-0.9h4.3v0.9H16.8z"/>
		</g>
		<g>
			<path class="st1" d="M22.6,147.3h-2.6v2h2.9v0.9H19v-6.4h3.9v0.9h-3v1.8h2.6V147.3z"/>
		</g>
		<g>
			<path class="st1" d="M24.6,150.2h-1v-6.4h2.1c1.6,0,2.2,0.7,2.2,1.9c0.1,0.7-0.3,1.4-1,1.7l1.3,2.8h-1.1l-1.1-2.6h-1.4V150.2z
				 M24.6,146.7h1.3c0.9,0,1-0.5,1-1s-0.1-1-1-1h-1.3V146.7z"/>
		</g>
		<g>
			<path class="st1" d="M32.6,150.2l-2.8-4.5v4.5h-0.9v-6.4h0.9l2.8,4.5v-4.5h1v6.4H32.6z"/>
		</g>
		<g>
			<path class="st1" d="M37.5,148.6h-2l-0.5,1.6h-1l2-6.4h1l2,6.4h-1L37.5,148.6z M36.5,145l-0.8,2.8h1.6L36.5,145z"/>
		</g>
		<g>
			<path class="st1" d="M41,144.7v5.5h-1v-5.5h-1.6v-0.9h4.3v0.9H41z"/>
		</g>
		<g>
			<path class="st1" d="M43.5,150.2v-6.4h1v6.4H43.5z"/>
		</g>
		<g>
			<path class="st1" d="M45.4,147c0-1.8,0.4-3.3,2.5-3.3s2.5,1.5,2.5,3.3s-0.4,3.3-2.5,3.3S45.4,148.8,45.4,147z M46.4,147
				c0,1.5,0.3,2.4,1.5,2.4s1.5-0.9,1.5-2.4s-0.3-2.4-1.5-2.4S46.4,145.5,46.4,147L46.4,147z"/>
		</g>
		<g>
			<path class="st1" d="M54.7,150.2l-2.7-4.5v4.5h-1v-6.4h0.9l2.8,4.5v-4.5h0.9v6.4H54.7z"/>
		</g>
		<g>
			<path class="st1" d="M59.7,148.6h-2l-0.5,1.6h-1l2-6.4h1l2,6.4h-1L59.7,148.6z M58.7,145l-0.8,2.8h1.6L58.7,145z"/>
		</g>
		<g>
			<path class="st1" d="M62.6,149.3h2.8v0.9h-3.7v-6.4h1L62.6,149.3z"/>
		</g>
		<g>
			<path class="st1" d="M71.6,148.3c0,1.2-0.7,2-2.4,2c-0.6,0-1.3-0.1-1.9-0.4V149c0.6,0.3,1.2,0.4,1.8,0.4c1.2,0,1.5-0.5,1.5-1.1
				s-0.3-0.9-1.2-1c-1.6-0.2-2.2-0.6-2.2-1.8c0-0.9,0.5-1.8,2.3-1.8c0.6,0,1.2,0.1,1.7,0.3v1c-0.5-0.2-1.1-0.3-1.7-0.3
				c-1,0-1.3,0.4-1.3,1s0.4,0.8,1.2,0.9C70.8,146.7,71.6,147,71.6,148.3z"/>
		</g>
		<g>
			<path class="st1" d="M76,147.3h-2.7v2h2.9v0.9h-3.9v-6.4h3.9v0.9h-2.9v1.8H76V147.3z"/>
		</g>
		<g>
			<path class="st1" d="M80.2,148.6h-2l-0.4,1.6h-1l2-6.4h1l2,6.4h-1L80.2,148.6z M79.2,145l-0.8,2.8H80L79.2,145z"/>
		</g>
		<g>
			<path class="st1" d="M7.8,158.3h2.8v0.9H6.9v-6.4h1L7.8,158.3z"/>
		</g>
		<g>
			<path class="st1" d="M14.4,157.6h-2l-0.4,1.6h-1l2-6.4h1l2,6.4h-1L14.4,157.6z M13.4,154l-0.8,2.8h1.6L13.4,154z"/>
		</g>
		<g>
			<path class="st1" d="M18.5,152.8h1.2l1.1,5l0.8-5h1l-1.2,6.4h-1.2L19,154l-1.1,5.3h-1.1l-1.2-6.4h1l0.8,5L18.5,152.8z"/>
		</g>
	</g>
	<g>
		<rect x="3.3" y="24" class="st1" width="94.8" height="94.8"/>
	</g>
	<g>
		<path class="st1" d="M98.2,20.7H3.3V3.3h94.8V20.7z M4.3,19.7h92.8V4.3H4.3L4.3,19.7z"/>
	</g>
	<g class="st2">
		<path class="st1" d="M6.7,6.9h4.5v1.4H9.9v8.8H8.1V8.3H6.7V6.9z"/>
	</g>
	<g class="st2">
		<path class="st1" d="M11.2,17.1l1.9-10.2h1.9L17,17.1h-1.8l-0.3-1.9h-1.8l-0.3,1.9H11.2z M13.3,13.9h1.4L14,9.8h0L13.3,13.9z"/>
	</g>
	<g class="st2">
		<path class="st1" d="M19.6,12.4v4.7h-1.7V6.9h2.5c1.7,0,2.4,0.9,2.4,2.3v1.3c0,1.1-0.4,1.7-1.4,2l1.6,4.6h-1.8L19.6,12.4z
			 M19.6,8.3v3.2h0.6c0.6,0,0.8-0.3,0.8-0.8V9.2c0-0.6-0.3-0.8-0.8-0.8H19.6z"/>
	</g>
	<g class="st2">
		<path class="st1" d="M26.4,11.7h2.4v5.4h-1.2V16c-0.2,0.8-0.7,1.2-1.6,1.2c-1.5,0-2.1-1.2-2.1-2.7V9.6c0-1.6,0.8-2.7,2.6-2.7
			c1.9,0,2.4,1.1,2.4,2.6v0.9h-1.6v-1c0-0.6-0.2-1-0.9-1c-0.6,0-0.9,0.4-0.9,1v5.5c0,0.6,0.3,1,0.8,1c0.6,0,0.8-0.3,0.8-1V13h-0.8
			V11.7z"/>
	</g>
	<g class="st2">
		<path class="st1" d="M30.2,6.9h4.1v1.4h-2.4v2.9h1.7v1.4h-1.7v3.1h2.4v1.4h-4.1V6.9z"/>
	</g>
	<g class="st2">
		<path class="st1" d="M35.1,6.9h4.5v1.4h-1.4v8.8h-1.7V8.3h-1.4V6.9z"/>
	</g>
	<g class="st2">
		<path class="st1" d="M89.4,14.5V9.6c0-1.6,0.8-2.7,2.5-2.7c1.9,0,2.4,1.1,2.4,2.6v1.2h-1.6V9.2c0-0.6-0.2-1-0.8-1
			c-0.6,0-0.9,0.4-0.9,1v5.5c0,0.6,0.3,1,0.9,1c0.6,0,0.8-0.4,0.8-1v-1.9h1.6v1.8c0,1.5-0.6,2.5-2.4,2.5
			C90.2,17.2,89.4,16.1,89.4,14.5z"/>
	</g>
	<g class="st2">
		<path class="st1" d="M76.8,6.9v10.2h-1.7V9.3h0l-1.2,1.2h0V8.8l1.6-1.8H76.8z"/>
	</g>
	<g class="st2">
		<path class="st1" d="M77.9,14.4l3-7.5h1.7v7.2h0.7v1.3h-0.7v1.7H81v-1.7h-3V14.4z M79.4,14.1H81V9.9h0L79.4,14.1z"/>
	</g>
	<g>
		<polygon class="st1" points="85.4,9.9 85.4,14.1 87.6,12 		"/>
	</g>
	<g>
		<path class="st1" d="M98.2,162.9h-95v-40.8h95V162.9z M4.2,161.9h93v-38.8h-93V161.9z"/>
	</g>
	<g>
		<g>
			<g>
				<path class="st0" d="M67.4,45.6c-0.9,0-1.6,0.7-1.6,1.6c0,0,0,0,0,0v10.6c-0.1,0.9,0.6,1.7,1.5,1.8c0.9,0.1,1.7-0.6,1.8-1.5
					c0-0.1,0-0.2,0-0.3V47.2C69.1,46.3,68.4,45.6,67.4,45.6z"/>
			</g>
			<g>
				<path class="st0" d="M88.5,45.6c-0.9,0-1.6,0.7-1.6,1.6c0,0,0,0,0,0v10.6c-0.1,0.9,0.6,1.7,1.5,1.8c0.9,0.1,1.7-0.6,1.8-1.5
					c0-0.1,0-0.2,0-0.3V47.2C90.2,46.3,89.4,45.6,88.5,45.6z"/>
			</g>
			<g>
				<path class="st0" d="M85.4,46.8H70.7c-0.2,0-0.4,0.2-0.4,0.4v10.4c0,0.2,0.2,0.4,0.4,0.5h5.6l-0.7,40.9c0,0.2,0.2,0.4,0.4,0.4
					h3.9c0.2,0,0.4-0.1,0.4-0.4c0,0,0,0,0,0l-0.9-40.9h5.8c0.2,0,0.4-0.2,0.4-0.5V47.3C85.8,47,85.6,46.8,85.4,46.8
					C85.4,46.8,85.4,46.8,85.4,46.8z"/>
			</g>
		</g>
		<g>
			<g>
				<polygon class="st0" points="17.2,47.7 14.3,47.7 14.3,102.5 53.6,102.5 53.6,99.2 17.2,99.2 				"/>
			</g>
			<g>
				<path class="st0" d="M20.2,44.4v51.5h39.3V41H20.2V44.4z M41.7,78.3c-0.4,0.5-3,3.8-6.6,3.8c-3.2,0-6.5-2.9-6.5-2.9
					c-0.8,1.5-2.2,2.6-3.9,2.8h-0.1c0,0-0.1-0.1-0.1-0.1c0,0,0,0,0-0.1l0,0c0.7-1.1,1.1-2.4,1.2-3.7c-0.1-1.3-0.5-2.6-1.2-3.7
					c0,0,0-0.1,0-0.1c0,0,0-0.1,0.1-0.1h0.1c1.7,0.3,3.1,1.3,3.9,2.8c0,0,3.4-2.9,6.5-2.9c3.6,0,6.2,3.3,6.6,3.8l0,0l0,0l0,0V78.3z
					 M54.5,86L54.5,86L54.5,86C54.5,86,54.5,86.1,54.5,86l-0.1,0.1c-1.2-0.2-2.3-1-2.8-2.1c0,0-2.5,2.2-4.8,2.2
					c-2.7,0-4.6-2.4-4.9-2.8l0,0v-0.1l0,0c0.3-0.4,2.2-2.9,4.9-2.9c2.3,0,4.8,2.1,4.8,2.1c0.6-1.1,1.6-1.9,2.9-2.1l0,0
					c0,0,0.1,0,0.1,0.1v0.1C53.3,82.2,53.3,84.4,54.5,86L54.5,86z M43,75.7c0-0.6,0.4-1,1-1s1,0.4,1,1s-0.4,1-1,1S43,76.2,43,75.7z
					 M46.9,74c0-0.4,0.3-0.8,0.8-0.8c0.4,0,0.8,0.3,0.8,0.8c0,0.4-0.3,0.8-0.8,0.8c0,0,0,0,0,0C47.2,74.8,46.9,74.4,46.9,74z
					 M24.5,58v-3.3c0-0.2,0.1-0.3,0.3-0.3c0.1,0,0.1,0,0.2,0l0.2,0.1c2.1,1.5,8.5,5.2,14.3-0.2l0.1-0.1c0.1-0.1,0.1-0.1,0.2-0.1
					c0.1,0,0.2,0,0.2,0.1l0.1,0.1c5.9,5.5,12.4,1.5,14.4,0.1l0.1-0.1c0,0,0.1,0,0.1,0c0.2,0,0.3,0.1,0.3,0.3c0,0,0,0,0,0V58
					c0,0.1,0,0.2-0.1,0.2l-0.2,0.2c-6.5,5.8-13.3,0.9-14.7-0.3L40,57.9h-0.1h-0.1L39.6,58c-1.4,1.2-8.3,6.3-14.9,0.2l0,0
					C24.6,58.2,24.6,58.1,24.5,58L24.5,58L24.5,58z M24.5,65.3v-3.2c0-0.2,0.1-0.3,0.3-0.3c0.1,0,0.1,0,0.2,0l0.2,0.1
					c2.1,1.5,8.5,5.2,14.3-0.2l0.1-0.1c0.1-0.1,0.4-0.1,0.5,0l0.1,0.1c5.9,5.5,12.4,1.6,14.4,0.1l0.1-0.1h0.1c0.2,0,0.3,0.1,0.3,0.3
					c0,0,0,0,0,0v3.2c0,0.1,0,0.2-0.1,0.2l-0.2,0.2c-6.5,5.8-13.3,0.9-14.7-0.3L40,65.3c0,0-0.1,0-0.1,0c0,0-0.1,0-0.1,0l-0.2,0.1
					c-1.4,1.2-8.3,6.2-14.9,0.2l0,0C24.6,65.5,24.6,65.5,24.5,65.3L24.5,65.3L24.5,65.3z"/>
			</g>
			<g>
				<path class="st0" d="M37.1,76.5c-0.6,0-1.1,0.5-1.1,1.1c0,0.6,0.5,1.1,1.1,1.1s1.1-0.5,1.1-1.1C38.2,77,37.7,76.5,37.1,76.5z"/>
			</g>
			<g>
				<path class="st0" d="M45.2,82c-0.4,0-0.8,0.3-0.9,0.7c0,0.4,0.3,0.8,0.7,0.9c0.1,0,0.1,0,0.2,0c0.4,0,0.8-0.3,0.9-0.7
					c0-0.4-0.3-0.8-0.7-0.9C45.3,82,45.3,82,45.2,82z"/>
			</g>
		</g>
	</g>
</g>
</svg>
