<?xml version="1.0" encoding="utf-8"?>
<!-- Generator: Adobe Illustrator 22.0.1, SVG Export Plug-In . SVG Version: 6.00 Build 0)  -->
<svg version="1.1" id="Layer_1" xmlns="http://www.w3.org/2000/svg" xmlns:xlink="http://www.w3.org/1999/xlink" x="0px" y="0px"
	 viewBox="0 0 101.5 175.2" style="enable-background:new 0 0 101.5 175.2;" xml:space="preserve">
<style type="text/css">
	.st0{fill:#FFFFFF;}
	.st1{fill:#0A97D9;}
	.st2{enable-background:new    ;}
</style>
<title>TARGET 1 B copy 11</title>
<g id="WHITE_BG">
	<g>
		<rect y="0" class="st0" width="101.5" height="175.2"/>
	</g>
</g>
<g id="TARGETS">
	<g>
		<g>
			<path class="st1" d="M7,132.2v-6.4h1v6.4H7z"/>
		</g>
		<g>
			<path class="st1" d="M12.8,132.2l-2.8-4.5v4.5H9.1v-6.4h0.9l2.8,4.5v-4.5h0.9v6.4H12.8z"/>
		</g>
		<g>
			<path class="st1" d="M17.1,125.7c0.5,0,1,0.1,1.5,0.3v0.9c-0.5-0.2-0.9-0.3-1.4-0.3c-1.2,0-1.7,0.8-1.7,2.4s0.5,2.4,1.7,2.4
				c0.5,0,1-0.1,1.4-0.3v0.9c-0.5,0.2-1,0.3-1.5,0.3c-1.9,0-2.6-1.2-2.6-3.3S15.2,125.7,17.1,125.7z"/>
		</g>
		<g>
			<path class="st1" d="M20.4,132.2h-1v-6.4h2.1c1.6,0,2.2,0.7,2.2,1.9c0.1,0.7-0.3,1.4-1,1.7l1.3,2.8h-1.1l-1.2-2.6h-1.3V132.2z
				 M20.4,128.7h1.3c0.9,0,1-0.5,1-1s-0.1-1-1-1h-1.3V128.7z"/>
		</g>
		<g>
			<path class="st1" d="M28.3,129.3h-2.6v2h2.9v0.9h-3.9v-6.4h3.9v0.9h-2.9v1.8h2.6V129.3z"/>
		</g>
		<g>
			<path class="st1" d="M32.5,130.6h-2l-0.5,1.6h-1l2-6.4h1l2,6.4h-1L32.5,130.6z M31.5,127l-0.8,2.8h1.6L31.5,127z"/>
		</g>
		<g>
			<path class="st1" d="M38.5,130.3c0,1.2-0.7,2-2.4,2c-0.6,0-1.3-0.1-1.9-0.4V131c0.6,0.3,1.2,0.4,1.8,0.4c1.2,0,1.5-0.5,1.5-1.1
				s-0.3-0.9-1.2-1c-1.5-0.2-2.2-0.6-2.2-1.8c0-0.9,0.5-1.8,2.3-1.8c0.6,0,1.2,0.1,1.7,0.3v1c-0.5-0.2-1.1-0.3-1.7-0.3
				c-1,0-1.3,0.4-1.3,1c0,0.7,0.4,0.8,1.2,0.9C37.7,128.7,38.5,129,38.5,130.3z"/>
		</g>
		<g>
			<path class="st1" d="M42.8,129.3h-2.7v2H43v0.9h-3.8v-6.4H43v0.9h-2.9v1.8h2.7V129.3z"/>
		</g>
		<g>
			<path class="st1" d="M47.3,126.7v5.5h-1v-5.5h-1.6v-0.9H49v0.9H47.3z"/>
		</g>
		<g>
			<path class="st1" d="M53,132.2v-2.9h-2.5v2.9h-1v-6.4h1v2.6H53v-2.6h1v6.4H53z"/>
		</g>
		<g>
			<path class="st1" d="M58.5,129.3h-2.7v2h2.9v0.9h-3.9v-6.4h3.9v0.9h-2.9v1.8h2.7V129.3z"/>
		</g>
		<g>
			<path class="st1" d="M10.5,138.3H7.8v2h2.9v0.9H6.9v-6.4h3.9v0.9H7.8v1.8h2.6V138.3z"/>
		</g>
		<g>
			<path class="st1" d="M14,134.7c0.5,0,1,0.1,1.5,0.3v0.9c-0.5-0.2-0.9-0.3-1.4-0.3c-1.2,0-1.7,0.8-1.7,2.4s0.5,2.4,1.7,2.4
				c0.5,0,1-0.1,1.4-0.3v0.9c-0.5,0.2-1,0.3-1.5,0.3c-1.9,0-2.6-1.2-2.6-3.3S12.1,134.7,14,134.7z"/>
		</g>
		<g>
			<path class="st1" d="M16.2,138c0-1.8,0.4-3.3,2.5-3.3s2.5,1.5,2.5,3.3s-0.4,3.3-2.5,3.3S16.2,139.8,16.2,138z M17.2,138
				c0,1.5,0.3,2.4,1.5,2.4s1.5-0.9,1.5-2.4s-0.3-2.4-1.5-2.4S17.1,136.5,17.2,138L17.2,138z"/>
		</g>
		<g>
			<path class="st1" d="M25.5,141.2l-2.8-4.5v4.5h-1v-6.4h0.9l2.8,4.5v-4.5h0.9v6.4H25.5z"/>
		</g>
		<g>
			<path class="st1" d="M27.1,138c0-1.8,0.4-3.3,2.5-3.3s2.4,1.5,2.4,3.3s-0.4,3.3-2.5,3.3S27.1,139.8,27.1,138z M28.1,138
				c0,1.5,0.3,2.4,1.5,2.4s1.5-0.9,1.5-2.4s-0.3-2.4-1.5-2.4S28.1,136.5,28.1,138L28.1,138z"/>
		</g>
		<g>
			<path class="st1" d="M36.2,140.3h-0.9l-1.6-3.9v4.8h-1v-6.4H34l1.7,4.3l1.7-4.3h1.2v6.4h-1v-4.8L36.2,140.3z"/>
		</g>
		<g>
			<path class="st1" d="M39.8,141.2v-6.4h1v6.4H39.8z"/>
		</g>
		<g>
			<path class="st1" d="M44.4,134.7c0.5,0,1,0.1,1.5,0.3v0.9c-0.5-0.2-0.9-0.3-1.4-0.3c-1.2,0-1.7,0.8-1.7,2.4s0.5,2.4,1.7,2.4
				c0.5,0,1-0.1,1.4-0.3v0.9c-0.5,0.2-1,0.3-1.5,0.3c-1.9,0-2.6-1.2-2.6-3.3S42.5,134.7,44.4,134.7z"/>
		</g>
		<g>
			<path class="st1" d="M48.1,134.8h2.1c1.6,0,2,0.8,2,1.7c0,0.5-0.3,1-0.8,1.3c0.6,0.2,1.1,0.8,1,1.5c0,1.1-0.5,1.9-2.2,1.9h-2.2
				V134.8z M50.3,135.7h-1.2v1.8h1.2c0.4,0.1,0.9-0.2,0.9-0.7c0-0.1,0-0.1,0-0.2C51.3,136.2,51.1,135.7,50.3,135.7z M49.1,140.3h1.3
				c0.9,0,1.1-0.5,1.1-1s-0.3-1-1.1-1h-1.3L49.1,140.3z"/>
		</g>
		<g>
			<path class="st1" d="M56.8,138.3h-2.7v2h2.9v0.9h-3.9v-6.4h3.9v0.9h-2.9v1.8h2.7L56.8,138.3z"/>
		</g>
		<g>
			<path class="st1" d="M61.6,141.2l-2.8-4.5v4.5h-0.9v-6.4h0.9l2.8,4.5v-4.5h1v6.4H61.6z"/>
		</g>
		<g>
			<path class="st1" d="M67.1,138.3h-2.7v2h2.9v0.9h-3.9v-6.4h3.9v0.9h-2.9v1.8h2.7V138.3z"/>
		</g>
		<g>
			<path class="st1" d="M71.7,138.4h-2.6v2.8h-1v-6.4H72v0.9h-2.9v1.8h2.6V138.4z"/>
		</g>
		<g>
			<path class="st1" d="M72.8,141.2v-6.4h1v6.4H72.8z"/>
		</g>
		<g>
			<path class="st1" d="M77.2,135.7v5.5h-1v-5.5h-1.6v-0.9h4.3v0.9H77.2z"/>
		</g>
		<g>
			<path class="st1" d="M83.6,139.3c0,1.2-0.7,2-2.4,2c-0.6,0-1.3-0.1-1.9-0.4V140c0.6,0.3,1.2,0.4,1.8,0.4c1.2,0,1.5-0.5,1.5-1.1
				s-0.3-0.9-1.2-1c-1.6-0.2-2.2-0.6-2.2-1.8c0-0.9,0.5-1.8,2.3-1.8c0.6,0,1.2,0.1,1.7,0.3v1c-0.5-0.2-1.1-0.3-1.7-0.3
				c-1,0-1.3,0.4-1.3,1s0.4,0.8,1.2,0.9C82.8,137.7,83.6,138,83.6,139.3z"/>
		</g>
		<g>
			<path class="st1" d="M10.4,147.4H7.8v2.8h-1v-6.4h3.9v0.9H7.8v1.8h2.6V147.4z"/>
		</g>
		<g>
			<path class="st1" d="M12.4,150.2h-1v-6.4h2.1c1.6,0,2.2,0.7,2.2,1.9c0.1,0.7-0.3,1.4-1,1.7l1.3,2.8h-1.1l-1.1-2.6h-1.3V150.2z
				 M12.4,146.7h1.3c0.9,0,1-0.5,1-1s-0.1-1-1-1h-1.3V146.7z"/>
		</g>
		<g>
			<path class="st1" d="M16.4,147c0-1.8,0.4-3.3,2.5-3.3s2.5,1.5,2.5,3.3s-0.4,3.3-2.5,3.3S16.4,148.8,16.4,147z M17.4,147
				c0,1.5,0.3,2.4,1.5,2.4s1.5-0.9,1.5-2.4s-0.3-2.4-1.5-2.4S17.4,145.5,17.4,147L17.4,147z"/>
		</g>
		<g>
			<path class="st1" d="M25.5,149.3h-0.9l-1.6-3.9v4.8h-1v-6.4h1.2l1.8,4.3l1.7-4.3H28v6.4h-1v-4.8L25.5,149.3z"/>
		</g>
		<g>
			<path class="st1" d="M34.5,148.3c0,1.2-0.7,2-2.4,2c-0.6,0-1.3-0.1-1.9-0.4V149c0.6,0.3,1.2,0.4,1.8,0.4c1.1,0,1.5-0.5,1.5-1.1
				s-0.3-0.9-1.2-1c-1.6-0.2-2.2-0.6-2.2-1.8c0-0.9,0.5-1.8,2.3-1.8c0.6,0,1.2,0.1,1.7,0.3v1c-0.5-0.2-1.1-0.3-1.7-0.3
				c-1,0-1.3,0.4-1.3,1s0.4,0.8,1.2,0.9C33.7,146.7,34.5,147,34.5,148.3z"/>
		</g>
		<g>
			<path class="st1" d="M35.1,148.2v-4.4h1v4.3c0,0.8,0.6,1.4,1.4,1.4s1.4-0.6,1.4-1.4v-4.3h1v4.4c0,1.1-0.9,2.1-2,2.1
				c-0.1,0-0.2,0-0.3,0c-1.1,0.2-2.2-0.6-2.4-1.7C35.1,148.5,35.1,148.3,35.1,148.2z"/>
		</g>
		<g>
			<path class="st1" d="M44.7,148.3c0,1.2-0.7,2-2.4,2c-0.6,0-1.3-0.1-1.9-0.4V149c0.6,0.3,1.2,0.4,1.8,0.4c1.2,0,1.5-0.5,1.5-1.1
				s-0.3-0.9-1.2-1c-1.5-0.2-2.2-0.6-2.2-1.8c0-0.9,0.5-1.8,2.3-1.8c0.6,0,1.2,0.1,1.7,0.3v1c-0.5-0.2-1.1-0.3-1.7-0.3
				c-1,0-1.3,0.4-1.3,1s0.4,0.8,1.2,0.9C43.9,146.7,44.7,147,44.7,148.3z"/>
		</g>
		<g>
			<path class="st1" d="M47.4,144.7v5.5h-1v-5.5h-1.6v-0.9H49v0.9H47.4z"/>
		</g>
		<g>
			<path class="st1" d="M52.1,148.6h-2l-0.5,1.6h-1l2-6.4h1l2,6.4h-1L52.1,148.6z M51.1,145l-0.8,2.8h1.6L51.1,145z"/>
		</g>
		<g>
			<path class="st1" d="M54.3,150.2v-6.4h1v6.4H54.3z"/>
		</g>
		<g>
			<path class="st1" d="M60,150.2l-2.8-4.5v4.5h-0.9v-6.4h0.9l2.8,4.5v-4.5h0.9v6.4H60z"/>
		</g>
		<g>
			<path class="st1" d="M64.9,148.6h-2l-0.5,1.6h-1l2-6.4h1l2,6.4h-1L64.9,148.6z M63.9,145l-0.8,2.8h1.6L63.9,145z"/>
		</g>
		<g>
			<path class="st1" d="M66.9,143.8h2.1c1.6,0,2,0.8,2,1.7c0,0.5-0.3,1-0.8,1.3c0.6,0.2,1.1,0.8,1,1.5c0,1.1-0.5,1.9-2.2,1.9h-2.2
				V143.8z M69.1,144.7h-1.2v1.8h1.2c0.4,0.1,0.9-0.2,0.9-0.7c0-0.1,0-0.1,0-0.2C70.1,145.2,69.9,144.7,69.1,144.7z M67.9,149.3h1.3
				c0.9,0,1.1-0.5,1.1-1s-0.3-1-1.1-1h-1.3V149.3z"/>
		</g>
		<g>
			<path class="st1" d="M73,149.3h2.8v0.9H72v-6.4h1V149.3z"/>
		</g>
		<g>
			<path class="st1" d="M79.8,147.3h-2.7v2h2.9v0.9h-3.9v-6.4h3.9v0.9h-2.9v1.8h2.7L79.8,147.3z"/>
		</g>
		<g>
			<path class="st1" d="M6.8,157.2v-4.4h1v4.3c-0.1,0.7,0.4,1.2,1,1.3c0.1,0,0.2,0,0.3,0c0.7,0.1,1.3-0.4,1.4-1c0-0.1,0-0.2,0-0.3
				v-4.3h1v4.4c0.1,1.1-0.8,2.1-1.9,2.1c-0.1,0-0.3,0-0.4,0c-1.1,0.2-2.1-0.5-2.4-1.5C6.8,157.6,6.8,157.4,6.8,157.2z"/>
		</g>
		<g>
			<path class="st1" d="M16.5,157.3c0,1.2-0.7,2-2.4,2c-0.6,0-1.3-0.1-1.9-0.4V158c0.6,0.3,1.2,0.4,1.8,0.4c1.1,0,1.5-0.5,1.5-1.1
				s-0.3-0.9-1.2-1c-1.6-0.2-2.2-0.6-2.2-1.8c0-0.9,0.5-1.8,2.3-1.8c0.6,0,1.2,0.1,1.7,0.3v1c-0.5-0.2-1.1-0.3-1.7-0.3
				c-1,0-1.3,0.4-1.3,1s0.4,0.8,1.2,0.9C15.8,155.7,16.5,156,16.5,157.3z"/>
		</g>
		<g>
			<path class="st1" d="M21,156.3h-2.7v2h2.9v0.9h-3.9v-6.4h3.9v0.9h-2.9v1.8H21V156.3z"/>
		</g>
		<g>
			<path class="st1" d="M23.4,156c0-1.8,0.4-3.3,2.5-3.3s2.5,1.5,2.5,3.3s-0.4,3.3-2.5,3.3S23.4,157.8,23.4,156z M24.4,156
				c0,1.5,0.3,2.4,1.5,2.4s1.5-0.9,1.5-2.4s-0.3-2.4-1.5-2.4S24.3,154.5,24.4,156L24.4,156z"/>
		</g>
		<g>
			<path class="st1" d="M32.5,156.4H30v2.8h-1v-6.4h3.8v0.9H30v1.8h2.6L32.5,156.4z"/>
		</g>
		<g>
			<path class="st1" d="M38.3,158.3h-0.9l-1.6-3.9v4.8h-1v-6.4H36l1.7,4.3l1.7-4.3h1.3v6.4h-1v-4.8L38.3,158.3z"/>
		</g>
		<g>
			<path class="st1" d="M44.8,157.6h-2l-0.5,1.6h-1l2-6.4h1l2,6.4h-1L44.8,157.6z M43.8,154l-0.8,2.8h1.6L43.8,154z"/>
		</g>
		<g>
			<path class="st1" d="M47.8,159.2h-1v-6.4h2.1c1.7,0,2.2,0.7,2.2,1.9c0.1,0.7-0.3,1.4-1,1.7l1.3,2.8h-1.2l-1.2-2.6h-1.3V159.2z
				 M47.8,155.7h1.3c0.9,0,1-0.5,1-1s-0.1-1-1-1h-1.3V155.7z"/>
		</g>
		<g>
			<path class="st1" d="M52,159.2v-6.4h1v6.4H52z"/>
		</g>
		<g>
			<path class="st1" d="M57.8,159.2l-2.8-4.5v4.5h-0.9v-6.4H55l2.8,4.5v-4.5h1v6.4H57.8z"/>
		</g>
		<g>
			<path class="st1" d="M63.2,156.3h-2.7v2h2.9v0.9h-3.9v-6.4h3.9v0.9h-2.9v1.8h2.7V156.3z"/>
		</g>
		<g>
			<path class="st1" d="M7.8,168.2h-1v-6.4H9c1.6,0,2.2,0.7,2.2,1.9c0.1,0.7-0.3,1.4-1,1.7l1.3,2.8h-1.2l-1.1-2.6H7.8V168.2z
				 M7.8,164.7h1.3c0.9,0,1-0.5,1-1s-0.1-1-1-1H7.8V164.7z"/>
		</g>
		<g>
			<path class="st1" d="M15.8,165.3h-2.7v2H16v0.9h-3.8v-6.4H16v0.9h-2.9v1.8h2.7V165.3z"/>
		</g>
		<g>
			<path class="st1" d="M21,166.3c0,1.2-0.7,2-2.4,2c-0.6,0-1.3-0.1-1.9-0.4V167c0.6,0.3,1.2,0.4,1.8,0.4c1.1,0,1.5-0.5,1.5-1.1
				s-0.3-0.9-1.2-1c-1.6-0.2-2.2-0.6-2.2-1.8c0-0.9,0.5-1.8,2.3-1.8c0.6,0,1.2,0.1,1.7,0.3v1c-0.5-0.2-1.1-0.3-1.7-0.3
				c-1,0-1.3,0.4-1.3,1s0.4,0.8,1.2,0.9C20.3,164.7,21,165,21,166.3z"/>
		</g>
		<g>
			<path class="st1" d="M21.6,165c0-1.8,0.4-3.3,2.5-3.3s2.5,1.5,2.5,3.3s-0.4,3.3-2.5,3.3S21.6,166.8,21.6,165z M22.6,165
				c0,1.5,0.3,2.4,1.5,2.4s1.5-0.9,1.5-2.4s-0.3-2.4-1.5-2.4S22.6,163.5,22.6,165L22.6,165z"/>
		</g>
		<g>
			<path class="st1" d="M27.4,166.2v-4.4h1v4.3c-0.1,0.7,0.4,1.2,1,1.3c0.1,0,0.2,0,0.3,0c0.7,0.1,1.3-0.4,1.4-1c0-0.1,0-0.2,0-0.3
				v-4.3H32v4.4c0.1,1.1-0.8,2.1-1.9,2.1c-0.1,0-0.3,0-0.4,0c-1.1,0.1-2.2-0.6-2.3-1.8C27.4,166.4,27.4,166.3,27.4,166.2z"/>
		</g>
		<g>
			<path class="st1" d="M33.9,168.2h-1v-6.4H35c1.7,0,2.2,0.7,2.2,1.9c0.1,0.7-0.3,1.4-1,1.7l1.3,2.8h-1.2l-1.2-2.6h-1.3V168.2z
				 M33.9,164.7h1.3c0.9,0,1-0.5,1-1s-0.1-1-1-1h-1.3V164.7z"/>
		</g>
		<g>
			<path class="st1" d="M40.5,161.7c0.5,0,1,0.1,1.5,0.3v0.9c-0.5-0.2-0.9-0.3-1.4-0.3c-1.2,0-1.7,0.8-1.7,2.4s0.5,2.4,1.7,2.4
				c0.5,0,1-0.1,1.4-0.3v0.9c-0.5,0.2-1,0.3-1.5,0.3c-1.9,0-2.6-1.2-2.6-3.3S38.6,161.7,40.5,161.7z"/>
		</g>
		<g>
			<path class="st1" d="M46.5,165.3h-2.6v2h2.9v0.9h-3.9v-6.4h3.9v0.9h-2.9v1.8h2.7L46.5,165.3z"/>
		</g>
		<g>
			<path class="st1" d="M51.6,166.3c0,1.2-0.7,2-2.4,2c-0.6,0-1.3-0.1-1.9-0.4V167c0.6,0.3,1.2,0.4,1.8,0.4c1.2,0,1.5-0.5,1.5-1.1
				s-0.3-0.9-1.2-1c-1.5-0.2-2.2-0.6-2.2-1.8c0-0.9,0.5-1.8,2.3-1.8c0.6,0,1.2,0.1,1.7,0.3v1c-0.5-0.2-1.1-0.3-1.7-0.3
				c-1,0-1.3,0.4-1.3,1s0.4,0.8,1.2,0.9C50.9,164.7,51.6,165,51.6,166.3z"/>
		</g>
	</g>
	<g>
		<rect x="3.3" y="24" class="st1" width="94.8" height="94.8"/>
	</g>
	<g>
		<path class="st1" d="M98.2,20.7H3.3V3.3h94.8V20.7z M4.3,19.7h92.8V4.3H4.3L4.3,19.7z"/>
	</g>
	<g class="st2">
		<path class="st1" d="M6.7,6.9h4.5v1.4H9.9v8.8H8.1V8.3H6.7V6.9z"/>
	</g>
	<g class="st2">
		<path class="st1" d="M11.2,17.1l1.9-10.2h1.9L17,17.1h-1.8l-0.3-1.9h-1.8l-0.3,1.9H11.2z M13.3,13.9h1.4L14,9.8h0L13.3,13.9z"/>
	</g>
	<g class="st2">
		<path class="st1" d="M19.6,12.4v4.7h-1.7V6.9h2.5c1.7,0,2.4,0.9,2.4,2.3v1.3c0,1.1-0.4,1.7-1.4,2l1.6,4.6h-1.8L19.6,12.4z
			 M19.6,8.3v3.2h0.6c0.6,0,0.8-0.3,0.8-0.8V9.2c0-0.6-0.3-0.8-0.8-0.8H19.6z"/>
	</g>
	<g class="st2">
		<path class="st1" d="M26.4,11.7h2.4v5.4h-1.2V16c-0.2,0.8-0.7,1.2-1.6,1.2c-1.5,0-2.1-1.2-2.1-2.7V9.6c0-1.6,0.8-2.7,2.6-2.7
			c1.9,0,2.4,1.1,2.4,2.6v0.9h-1.6v-1c0-0.6-0.2-1-0.9-1c-0.6,0-0.9,0.4-0.9,1v5.5c0,0.6,0.3,1,0.8,1c0.6,0,0.8-0.3,0.8-1V13h-0.8
			V11.7z"/>
	</g>
	<g class="st2">
		<path class="st1" d="M30.2,6.9h4.1v1.4h-2.4v2.9h1.7v1.4h-1.7v3.1h2.4v1.4h-4.1V6.9z"/>
	</g>
	<g class="st2">
		<path class="st1" d="M35.1,6.9h4.5v1.4h-1.4v8.8h-1.7V8.3h-1.4V6.9z"/>
	</g>
	<g>
		<path class="st1" d="M98.2,171.9h-95v-49.7h95V171.9z M4.2,170.9h93v-47.7h-93V170.9z"/>
	</g>
	<g class="st2">
		<path class="st1" d="M78.3,6.9v10.2h-1.7V9.3h0l-1.2,1.2h0V8.8l1.6-1.8H78.3z"/>
	</g>
	<g class="st2">
		<path class="st1" d="M79.4,14.4l3-7.5H84v7.2h0.7v1.3H84v1.7h-1.6v-1.7h-3V14.4z M80.9,14.1h1.5V9.9h0L80.9,14.1z"/>
	</g>
	<g class="st2">
	</g>
	<g class="st2">
		<path class="st1" d="M87.5,10.8c0.7,0,1.2,0.6,1.2,1.2c0,0.7-0.6,1.2-1.2,1.2c-0.7,0-1.2-0.6-1.2-1.2
			C86.2,11.4,86.8,10.8,87.5,10.8z"/>
	</g>
	<g class="st2">
		<path class="st1" d="M90.1,6.9h4.3v1.6l-2.2,8.6h-1.7l2.3-8.8h-2.6V6.9z"/>
	</g>
	<g>
		<g>
			<g>
				<path class="st0" d="M81.1,63c-0.9-0.1-1.7,0.6-1.8,1.5c-0.1,0.9,0.6,1.7,1.5,1.8c0.1,0,0.2,0,0.3,0c0.9-0.1,1.6-0.9,1.5-1.8
					C82.6,63.7,81.9,63.1,81.1,63z"/>
			</g>
			<g>
				<path class="st0" d="M56.1,49.4v11.3h14l0.9-2.6h16.2v-1.9H76.3l1.5-6.8L56.1,49.4z M67.9,56.1h-4.5v-5.4h4.5V56.1z M74.5,56.1
					H69v-5.4h6.6L74.5,56.1z"/>
			</g>
			<g>
				<rect x="56.1" y="46.6" class="st0" width="19.7" height="2.1"/>
			</g>
			<g>
				<path class="st0" d="M71.6,59.8l-1,2.8H55.5V41.3h0.9v-0.8h-0.9V29.8h-0.6v10.7h-1v0.8h0.7c-8.5,4.5-22.5,2.5-26.7,1.4h-0.1
					l-0.3,0.4l0,0l0,0l0,0l0,0v1.5h-0.1v0.7h0.1v0.5c-0.2,0.2-0.3,0.5-0.4,0.8c0,0.2,0,0.4,0.2,0.6c0.1,0.1,0.2,0.1,0.4,0.1l0,0
					c0.3,0,0.5-0.3,0.5-0.6v-0.1h-0.3v0.1c0,0.2-0.1,0.4-0.2,0.4l0,0c-0.1,0-0.1,0-0.1-0.1c-0.1-0.1-0.1-0.3-0.1-0.4
					c0-0.3,0.2-0.5,0.3-0.7l0,0v-0.6h0.1v-0.7h-0.1v-0.8L35,61.3l0,0l1.2,7.2c1.8,1.4,9.7,6.6,16.7,0.1l0.1-0.1
					c0.1-0.1,0.2-0.1,0.3-0.1c0.1,0,0.2,0,0.3,0.1l0.1,0.1c7.1,6.6,15,1.2,16.7-0.1c0-0.1,0.1-0.1,0.2-0.2h0.1c0.1,0,0.1,0,0.2,0
					l0.2,0.2c3.7,3.6,9.2,4.5,13.8,2.2l5.4-10.9L71.6,59.8z M39.9,61.3L39.9,61.3h-4.6l-7.1-17.1L40,60.7
					C39.9,60.9,39.9,61.1,39.9,61.3z M40.2,60l-10-14l11.6,12.5C41.1,58.8,40.5,59.3,40.2,60z M47.9,62.6l-0.3-1.3h-1.8l0,0
					c0-1.6-1.2-2.9-2.8-3v-3.1h1v-0.6h-2.5v0.6h1v3.1h-0.1L28.2,43.1c4.6,1.1,18.1,2.9,26.5-1.5l-6,21L47.9,62.6z M49,62.6l5.5-19.2
					l-2.9,19.3L49,62.6z M54.9,62.6h-3l3-20.1V62.6z M81.1,67.1c-1.4,0-2.5-1.1-2.5-2.5c0-1.4,1.1-2.5,2.5-2.5
					c1.4,0,2.5,1.1,2.5,2.5C83.6,66,82.5,67.1,81.1,67.1C81.1,67.1,81.1,67.1,81.1,67.1L81.1,67.1z"/>
			</g>
		</g>
		<g>
			<g>
				<path class="st0" d="M11.6,104.7c0.6,0.5,1.4,0.9,2.2,1c0.9-0.1,1.7-0.6,2.3-1.3l0,0l0,0l0,0c-0.5-0.8-1.3-1.3-2.3-1.4
					c-0.8,0.1-1.6,0.5-2.2,1c-0.3-0.5-0.7-0.9-1.3-1l0,0l0,0l0,0c0.5,0.8,0.5,1.8,0,2.5l0,0l0,0l0,0l0,0
					C10.8,105.5,11.3,105.2,11.6,104.7z M14.6,103.7c0.2,0,0.4,0.2,0.4,0.4c0,0.2-0.2,0.4-0.4,0.4l0,0c-0.2,0-0.4-0.2-0.4-0.4
					C14.2,103.9,14.4,103.8,14.6,103.7L14.6,103.7z"/>
			</g>
			<g>
				<path class="st0" d="M28.4,94.1L28.4,94.1L28.4,94.1L28.4,94.1c0.7-0.1,1.3-0.5,1.6-1.1c0.7,0.6,1.6,1,2.5,1.1
					c1-0.1,1.9-0.6,2.5-1.4l0,0l0,0l0,0l0,0c-0.6-0.8-1.5-1.4-2.5-1.5c-0.9,0.1-1.8,0.5-2.5,1c-0.3-0.6-0.8-1-1.5-1.1l0,0l0,0l0,0
					c0.3,0.4,0.4,0.9,0.5,1.4C28.9,93.1,28.7,93.6,28.4,94.1L28.4,94.1z M33.2,92c0.2,0,0.4,0.2,0.4,0.4c0,0.2-0.2,0.4-0.4,0.4
					c-0.2,0-0.4-0.2-0.4-0.4c0,0,0,0,0,0C32.8,92.2,33,92,33.2,92L33.2,92z"/>
			</g>
			<g>
				<path class="st0" d="M11.2,92.2c0.7,0.6,1.6,1,2.5,1.1c1-0.1,1.9-0.6,2.5-1.5l0,0l0,0l0,0l0,0c-0.6-0.8-1.5-1.4-2.5-1.5
					c-0.9,0.1-1.8,0.5-2.5,1.1c-0.3-0.6-0.8-1-1.5-1.1l0,0l0,0l0,0c0.3,0.4,0.4,0.9,0.4,1.4c0,0.5-0.2,1-0.4,1.4l0,0l0,0l0,0l0,0
					C10.4,93.2,10.9,92.8,11.2,92.2z M14.5,91.2c0.2,0,0.4,0.2,0.4,0.4c0,0.2-0.2,0.4-0.4,0.4c-0.2,0-0.4-0.2-0.4-0.4c0,0,0,0,0,0
					C14.1,91.4,14.3,91.2,14.5,91.2z"/>
			</g>
			<g>
				<path class="st0" d="M11.1,83.3c0.7,0.6,1.6,1,2.5,1.1c1-0.1,1.9-0.6,2.5-1.5l0,0l0,0l0,0l0,0c-0.6-0.8-1.5-1.4-2.5-1.5
					c-0.9,0.1-1.8,0.5-2.5,1.1c-0.3-0.6-0.8-1-1.5-1.1l0,0l0,0l0,0c0.6,0.9,0.6,2,0,2.8l0,0l0,0l0,0l0,0
					C10.2,84.2,10.7,83.8,11.1,83.3z M14.3,82.2c0.2,0,0.4,0.1,0.5,0.3c0,0.2-0.1,0.4-0.3,0.5c0,0-0.1,0-0.1,0
					c-0.2,0-0.4-0.2-0.3-0.5C14,82.4,14.2,82.3,14.3,82.2z"/>
			</g>
			<g>
				<path class="st0" d="M24.5,99.9L24.5,99.9L24.5,99.9L24.5,99.9c0.5,0.7,1.4,1.2,2.3,1.3c0.8-0.1,1.6-0.5,2.2-1
					c0.3,0.5,0.7,0.9,1.3,1l0,0l0,0l0,0l0,0c-0.5-0.8-0.5-1.8,0-2.5l0,0l0,0l0,0c-0.6,0.1-1.1,0.5-1.3,1c-0.6-0.5-1.4-0.9-2.2-1
					C25.9,98.7,25,99.2,24.5,99.9z M26.1,100c-0.2,0-0.4-0.2-0.4-0.4c0-0.2,0.2-0.4,0.4-0.4c0.2,0,0.4,0.2,0.4,0.4
					C26.4,99.9,26.3,100,26.1,100C26.1,100,26.1,100,26.1,100z"/>
			</g>
			<g>
				<path class="st0" d="M15.1,96L15.1,96L15.1,96L15.1,96c0.7,1,1.7,1.6,2.9,1.8c1.1-0.1,2.1-0.6,2.9-1.3c0.3,0.7,1,1.1,1.7,1.3
					l0,0l0,0l0,0l0,0c-0.7-1-0.7-2.3,0-3.3l0,0l0,0l0,0c-0.7,0.1-1.4,0.6-1.7,1.3c-0.8-0.8-1.8-1.3-2.9-1.4
					C16.8,94.5,15.8,95.1,15.1,96z M17.1,96.3c-0.3,0-0.5-0.2-0.5-0.5s0.2-0.5,0.5-0.5c0.3,0,0.5,0.2,0.5,0.5
					C17.6,96,17.4,96.2,17.1,96.3L17.1,96.3z"/>
			</g>
			<g>
				<path class="st0" d="M27.5,83.8C27.5,83.8,27.5,83.8,27.5,83.8L27.5,83.8c-1,0.1-1.8,0.7-2.2,1.5c-1-0.9-2.3-1.4-3.7-1.6
					c-1.5,0.1-2.9,0.9-3.7,2.2l0,0l0,0l0,0l0,0c0.2,0.3,1.7,2.2,3.7,2.2c1.4-0.2,2.6-0.7,3.7-1.6c0.4,0.9,1.2,1.5,2.2,1.6l0,0
					c0,0,0.1,0,0.1-0.1l0,0l0,0c-0.4-0.6-0.6-1.3-0.7-2C26.9,85.3,27.1,84.5,27.5,83.8C27.5,83.9,27.5,83.8,27.5,83.8z M20.4,86.2
					c-0.3,0-0.6-0.3-0.6-0.6s0.3-0.6,0.6-0.6s0.6,0.3,0.6,0.6S20.8,86.2,20.4,86.2z"/>
			</g>
			<g>
				<path class="st0" d="M40.6,92.1c0-0.7-0.1-1.4-0.3-2C37.6,81.6,14.1,77,8.8,76.1v1.2c5.5,1,28,5.5,30.4,13.2
					c0.4,1.3,0.5,2.6,0.4,3.9l0,0c0,0.1,0,0.2,0,0.4c-0.1,0.5-0.2,1-0.3,1.5c-2.4,7.4-23.2,11.9-29.7,13.1c-0.2,0-0.2,0.5-0.2,0.8
					v3.2h0.8v-1l2.1-0.3v1.3h0.8V112l1.8-0.3v1.8h0.8v-1.9c0.6-0.1,1.2-0.2,1.8-0.4v2.3h0.8V111c0.6-0.1,1.2-0.3,1.8-0.4v2.9h0.8
					c0.6-0.2,1.2-0.3,1.8-0.5v0.5H23v-0.7l1.8-0.5v1.2h0.8V112c0.6-0.2,1.2-0.4,1.8-0.6v2H28v-2.3c0.6-0.2,1.2-0.5,1.8-0.7v3h0.8
					V113c0.6-0.3,1.2-0.5,1.8-0.8v1.3H33v-1.6c0.6-0.3,1.2-0.6,1.8-0.9v2.5h0.8c0.7-0.4,1.2-0.7,1.7-1.1v1.1H38v-1.6
					c0.6-0.4,1.2-0.9,1.8-1.4v3h0.8V95.2c0-0.1,0-0.3,0-0.4l0,0L40.6,92.1L40.6,92.1L40.6,92.1z M12.1,111.5l-2.1,0.3v-1.4
					c0.6-0.1,1.3-0.2,2.1-0.4V111.5z M14.7,111.1l-1.8,0.3v-1.5l1.8-0.4V111.1z M17.2,110.6c-0.6,0.1-1.2,0.2-1.8,0.4v-1.6l1.8-0.4
					V110.6z M19.7,110l-1.8,0.4v-1.7c0.6-0.1,1.2-0.3,1.8-0.5V110z M22.2,112.4c-0.6,0.2-1.1,0.3-1.8,0.5v-2.4
					c0.6-0.2,1.2-0.3,1.8-0.5V112.4z M22.2,109.3c-0.6,0.2-1.2,0.3-1.8,0.5v-1.7l1.8-0.5V109.3z M24.7,111.6
					c-0.6,0.2-1.2,0.4-1.8,0.5v-2.5l1.8-0.6V111.6z M24.7,108.5l-1.8,0.6v-1.7l1.8-0.6V108.5z M27.2,110.8c-0.6,0.2-1.2,0.4-1.8,0.6
					v-2.5l1.8-0.6V110.8z M27.2,107.6c-0.6,0.2-1.1,0.4-1.8,0.6v-1.7l1.8-0.6V107.6z M29.8,109.8c-0.6,0.2-1.1,0.5-1.8,0.7V108
					c0.6-0.2,1.2-0.5,1.8-0.7V109.8z M29.8,106.6l-1.8,0.7v-1.7c0.6-0.2,1.2-0.5,1.8-0.7V106.6z M32.3,111.5
					c-0.5,0.3-1.1,0.5-1.8,0.8v-2.2c0.6-0.3,1.2-0.5,1.8-0.8V111.5z M32.3,108.7c-0.5,0.3-1.1,0.5-1.8,0.8V107
					c0.6-0.3,1.2-0.5,1.8-0.8V108.7z M32.3,105.5c-0.5,0.3-1.1,0.5-1.8,0.8v-1.7c0.6-0.3,1.2-0.5,1.8-0.8V105.5z M34.8,110.3
					c-0.5,0.3-1.1,0.6-1.8,0.9V109c0.6-0.3,1.2-0.6,1.8-0.9V110.3z M34.8,107.4c-0.5,0.3-1.1,0.6-1.8,0.9v-2.5
					c0.6-0.3,1.2-0.6,1.8-0.9V107.4z M34.8,104.2c-0.5,0.3-1.1,0.6-1.8,1v-1.7c0.6-0.3,1.2-0.7,1.8-1V104.2z M37.3,111.7
					c-0.5,0.3-1.1,0.7-1.8,1.1v-2.2c0.7-0.4,1.2-0.7,1.8-1.1V111.7z M37.3,108.8c-0.5,0.3-1.1,0.7-1.8,1.1v-2.2
					c0.7-0.4,1.2-0.8,1.8-1.1V108.8z M37.3,105.8c-0.5,0.3-1.1,0.7-1.8,1.1v-2.5c0.7-0.4,1.2-0.8,1.8-1.1V105.8z M37.3,102.6
					c-0.5,0.3-1.1,0.7-1.8,1.1V102c0.6-0.4,1.2-0.8,1.8-1.3V102.6z M38,100c0.7-0.7,1.3-1.4,1.8-2.3v3c-0.6,0.5-1.2,1-1.8,1.4V100z
					 M38,102.8c0.8-0.5,1.4-1,1.8-1.3v2.4h-0.1c-0.5,0.5-1.1,1-1.7,1.4V102.8z M38,106c0.6-0.4,1.2-0.9,1.8-1.4v2.3
					c-0.6,0.5-1.2,1-1.8,1.4V106z M38,111.1V109c0.8-0.5,1.4-1,1.8-1.3v2C39.2,110.2,38.6,110.7,38,111.1L38,111.1z"/>
			</g>
		</g>
		<g>
			<g>
				<path class="st0" d="M56.3,107.3c-0.4,0-0.7,0.2-0.8,0s-0.1-0.7,0.1-0.8c0.2-0.1,0.5-0.2,0.7-0.2c0.3,0,0.2-0.3-0.1-0.3
					s-0.5,0.1-0.5-0.1s0.1-0.8-0.2-0.8s-0.2,0.2-0.2,0.3s0.1,0.8-0.1,0.7c-0.2-0.1-0.3-0.2-0.4-0.4c-0.1-0.2-0.4-0.1-0.3,0.1
					c0.1,0.2,0.2,0.4,0.3,0.5c0.3,0.4,0.3,0.5,0.2,0.7c-0.2,0.3-0.5,0.6-0.8,0.8c-0.2,0-0.4,0-0.4-0.5s0-1.7-0.3-1.8
					s-0.4,0.1-0.4,0.3s0.1,0.6,0.1,0.8s-0.2,0.1-0.3,0s-0.5-0.3-0.6-0.1c-0.1,0.1-0.1,0.3,0,0.4c0,0,0,0,0,0
					c0.2,0.1,0.4,0.1,0.5,0.3c0.2,0.3,0.3,0.6,0.1,0.9c-0.4,0.6-0.9,1.2-1.4,1.7c-0.3,0.3-1.1,0.2-1-0.3s0.1-1,0.5-1s1.1,0,1.1-0.3
					s-0.4-0.3-0.7-0.3c-0.2,0-0.3-0.1-0.3-0.2c0-0.1,0-0.1,0-0.2c0.1-0.2,0.8-1.8,1-2.4c0,0,0.1-0.3,0.3-0.3c0.2,0,0.5,0,0.7,0.1
					c0.3,0.1,0.4,0,0.4-0.1s-0.1-0.3-0.4-0.4s-0.5-0.2-0.5-0.3c0.1-0.3,0.4-0.4,0.7-0.4c0.4,0.1,0.7,0.2,1,0.5
					c0.3,0.2,0.5-0.1,0.3-0.2s-0.5-0.4-0.6-0.6s0-0.3,0.2-0.3s0.9-0.3,1-0.6s-0.3-0.4-0.7-0.2s-0.7,0.4-0.8,0.2c0-0.3,0-0.5,0-0.8
					c0-0.2-0.3-0.3-0.4-0.1c0,0.2-0.1,0.5-0.1,0.7c-0.1,0.4-0.4,0.7-0.8,0.9c-0.2,0-0.3-0.1-0.3-0.3s0-0.7,0.3-0.8s0.5-0.3,0.5-0.5
					s-0.4,0-0.6,0.1s-0.5,0.1-0.4-0.2c0-0.4,0.1-0.8,0.3-1.1c0.3-0.3,0.2-0.4,0-0.5s-0.3,0.1-0.5,0.3s-0.4,0.2-0.5-0.1
					s-0.5-0.8-0.8-0.6s-0.3,0.6-0.1,1s0.6,0.9,0.4,1s-0.4,0-0.7-0.1c-0.1-0.1-0.2-0.1-0.3,0s-0.1,0.2,0,0.3c0,0,0,0,0.1,0
					c0.4,0.2,0.7,0.5,1,0.8c0.2,0.4,0.3,0.8,0.3,1.3c0,0.6-0.1,1-0.2,0.8c-0.3-0.3-0.6-0.7-1-0.9c-0.5-0.3-0.8-0.3-0.8-0.7
					s0.1-1.1-0.4-1.1s-0.4,0.5-0.4,0.6s0,0.7-0.2,0.6s-1.1-0.7-1.3-0.3s0.2,0.5,0.4,0.6s0.9,0.3,1,0.5s-0.1,0.2-0.3,0.3
					s-0.8,0.4-0.7,0.7s0.3,0.2,0.5,0.1c0.4-0.3,0.8-0.5,1.3-0.6c0.6,0.1,1,0.5,1.2,1c0.1,0.4,0.1,0.8,0.1,1.3c0,0.2-0.2,0.3-0.5-0.1
					s-1.2-0.8-1.5-0.4s0.2,0.4,0.5,0.7s0.8,0.6,0.8,1c0,0.6-0.2,1.1-0.5,1.6c-0.2,0.2-0.8,0-0.8-0.5s0-0.9-0.4-0.9s-0.2,0.6-0.5,0.6
					c-0.4-0.1-0.6-0.5-0.6-0.9c0-0.4,0.1-0.8,0.4-1.1c0.2-0.2,0.4-0.4,0.2-0.6s-0.4,0-0.6,0.2s-0.3,0.5-0.5,0.4
					c-0.2-0.3-0.4-0.6-0.7-0.8c-0.3-0.3-0.7-0.3-0.9-0.1s-0.1,0.3,0.2,0.7s0.7,0.6,0.7,0.9s-0.1,0.4-0.4,0.4s-0.8,0-0.8,0.2
					s0.2,0.2,0.7,0.3c0.5,0.1,0.9,0.3,1.1,0.7c0.3,0.4,0.9,1.1,0.8,1.4s-0.4,0.3-0.8-0.2s-0.6-0.4-0.7-0.2c-0.1,0.3,0,0.5,0.2,0.7
					c0.2,0.2,0.1,0.3-0.2,0.4s-0.7,0.1-0.6,0.4s0.3,0.4,0.6,0.2s0.4-0.3,0.7-0.4s0.3,0,0.3,0.2c-0.1,0.3-0.2,0.5-0.2,0.8
					c0,0.2,0.3,0.4,0.4,0.1s0.4-1.2,0.7-1.3c0.5-0.2,1,0,1.4,0.4c0.7,0.6,0.2,1.6,0.3,1.9c0.6,0.1,1.2,0.2,1.3-0.1
					c0-0.1,0.1-0.3,0.3-0.8c0.3-0.7,0.5-0.7,0.8-0.7s0.8,0.5,0.9,0.5s0.3,0.1,0.4-0.2s-0.2-0.3-0.4-0.4s-0.6-0.3-0.7-0.6
					s0-0.6,0.4-0.6s1.1-0.1,1.4,0.2c0.2,0.2,0.4,0.6,0.3,0.9c0,0.2,0,0.4,0,0.6c0.1,0.1,0.2,0.2,0.3,0.1c0.2,0,0.1-0.2,0.1-0.4
					c0-0.2,0-0.4,0-0.6c0.1-0.2,0.2-0.1,0.2,0c0.3,0.3,0.6,0.5,0.9,0.7c0.1,0,0.3-0.1,0.3-0.2c0-0.1,0-0.2-0.1-0.2
					c-0.2-0.2-0.4-0.4-0.6-0.6c-0.1-0.2,0-0.2,0.1-0.3s0.4-0.4,0.3-0.6s-0.4,0-0.7,0.2c-0.2,0.2-0.5,0.2-0.8,0
					c-0.3-0.2-0.5-0.3-0.8-0.4c-0.3-0.1-0.4-0.3-0.2-0.5c0.3-0.3,0.7-0.4,1.1-0.5c0.3,0,0.6,0.1,0.7,0.3c0.2,0.2,0.5,0.2,0.6,0.1
					s0.1-0.3-0.1-0.5s-0.3-0.2-0.3-0.3s0.5-0.1,0.9-0.1s0.8-0.2,0.7-0.5S56.8,107.3,56.3,107.3z"/>
			</g>
			<g>
				<g>
					<path class="st0" d="M83.4,102.8c-0.1,0.2-0.2,0.4-0.3,0.6l6.4,4.6c0-1.8,0.6-3.5,1.8-4.9l-7.9-0.9
						C83.4,102.5,83.4,102.7,83.4,102.8z"/>
				</g>
				<g>
					<path class="st0" d="M58.8,91.1c-0.2,0-0.4,0.1-0.5,0.2l-0.8-3.7l-0.6,0.1l0.9,3.9c-0.3,0.3-0.6,0.7-0.7,1.1
						c-0.1,0-0.2,0-0.3,0.1L56.5,93c-0.2,0.2-0.3,0.5-0.2,0.7l1.1,1.8c0.2,0.2,0.5,0.3,0.7,0.2l0.1-0.1c0.5,0.3,1.1,0.4,1.7,0.2
						c0.8-0.2,1.4-0.7,1.7-1.4l0.1-0.2c0.1-0.4,0.2-0.9,0.1-1.4C61.4,91.7,60.1,90.8,58.8,91.1C58.8,91.1,58.8,91.1,58.8,91.1z"/>
				</g>
				<g>
					<path class="st0" d="M85.2,95.1L85.2,95.1l7.4-1.4c-1.3-1.2-2.1-2.9-2.2-4.7l-5.7,4.7c0.2,0.2,0.3,0.4,0.4,0.6
						C85.1,94.6,85.2,94.9,85.2,95.1z"/>
				</g>
				<g>
					<path class="st0" d="M76.4,98.4l0.7,0.2h0.2l6.3-2.3c0.1,0,0.2-0.1,0.3-0.2c0.4-0.3,0.6-0.7,0.6-1.1c0-0.2,0-0.3-0.1-0.5
						c-0.1-0.2-0.1-0.3-0.2-0.4c-0.3-0.3-0.6-0.5-1-0.5c-0.2,0-0.3,0-0.4,0.1l-5.7,2.1l-2.5-0.2c0.2,0.4,0.3,0.8,0.3,1.2L76.4,98.4z
						"/>
				</g>
				<g>
					<path class="st0" d="M81.8,100.9L76,99.1l-2-1.9c0-0.1,0-0.2,0-0.3s0-0.3-0.1-0.4l0,0c-0.1-0.2-0.1-0.4-0.2-0.5
						c-0.3-0.5-0.8-0.9-1.4-1l-7.5-1.5c-0.1,0-0.3,0-0.4,0c-1,0-2,0.7-2.2,1.8c-0.2,1.1,0.4,2.1,1.4,2.5c0.3,0.4,0.5,0.9,0.8,1.3
						l-1.7,2.4c-0.5,0.4-0.5,1.1-0.1,1.6c0,0,0,0,0.1,0.1c0.1,0.1,0.3,0.2,0.5,0.2c0.4-0.1,0.8-0.3,1.1-0.6c0.1-0.1,0.4-0.5,0.8-1
						c0.8-1,2-2.4,2-2.4c0.2-0.3,0.2-0.6,0.1-0.8l4.3,0.9c0.1,0,0.3,0,0.4,0c0.1,0,0.3,0,0.4,0l2.1,2l0.2,0.2l6.4,2
						c0.1,0,0.2,0,0.3,0.1h0.1c0.7,0,1.3-0.6,1.3-1.3C82.7,101.7,82.3,101.1,81.8,100.9L81.8,100.9z"/>
				</g>
			</g>
			<g>
				<path class="st0" d="M51.8,91.8c0.3-0.4,0.2-1-0.2-1.4c-0.4-0.3-1-0.2-1.4,0.2C49.9,91,50,91.7,50.4,92
					C50.9,92.3,51.5,92.2,51.8,91.8z"/>
			</g>
			<g>
				<path class="st0" d="M50.9,85.1c0.2-0.3,0.2-0.8-0.1-1s-0.8-0.2-1,0.1s-0.2,0.8,0.1,1S50.6,85.4,50.9,85.1L50.9,85.1z"/>
			</g>
			<g>
				<path class="st0" d="M69.1,107.5c-0.1,0-0.2,0-0.3,0c0,0-1.1,0-1.5,0s-0.6,0-0.7-0.4c-0.2-0.5-0.3-0.9-0.3-1.4
					c0-0.2,0-0.3-0.2-0.3s-0.2,0-0.4,0.2c-0.3,0.5-0.5,1-0.6,1.6c0,0-0.1,0.4-0.4,0.4h-2c0,0-0.3-0.1-0.4,0.2s0.2,0.3,0.3,0.4l1.5,1
					c0,0,0.2,0.1,0.1,0.4l-0.6,1.7c0,0-0.1,0.2,0,0.3c0.1,0.1,0.3,0.1,0.4,0c0.5-0.3,1-0.7,1.5-1.2c0.1-0.1,0.3-0.1,0.5,0
					c0,0,0,0,0,0c0.5,0.4,1,0.8,1.5,1.1c0,0,0.2,0.2,0.4,0.1c0,0,0.2-0.1,0.1-0.3s-0.7-1.6-0.7-1.7c0-0.2,0.1-0.4,0.2-0.5
					c0.3-0.2,1.4-0.8,1.6-1S69.4,107.5,69.1,107.5z"/>
			</g>
			<g>
				<path class="st0" d="M67.2,88.2L67.2,88.2L67.2,88.2L67.2,88.2c0.8-0.1,1.4-0.5,1.8-1.2c0.8,0.7,1.8,1.1,2.8,1.2
					c1.2-0.1,2.2-0.7,2.9-1.7l0,0l0,0l0,0c-0.7-0.9-1.7-1.6-2.9-1.7c-1,0.1-2,0.5-2.8,1.2c-0.3-0.7-1-1.1-1.7-1.2l0,0l0,0l0,0
					c0.7,1,0.7,2.3,0,3.2L67.2,88.2z M72.7,85.8c0.3,0,0.5,0.2,0.5,0.5c0,0.3-0.2,0.5-0.5,0.5c-0.3,0-0.5-0.2-0.5-0.5c0,0,0,0,0,0
					C72.2,86,72.4,85.8,72.7,85.8z"/>
			</g>
			<g>
				<path class="st0" d="M79.9,86.1c0-0.6-0.4-1-1-1s-1,0.4-1,1s0.4,1,1,1S79.9,86.6,79.9,86.1z"/>
			</g>
			<g>
				<path class="st0" d="M83.5,83.9c0.3,0,0.5-0.2,0.5-0.5s-0.2-0.5-0.5-0.5s-0.5,0.2-0.5,0.5S83.2,83.9,83.5,83.9L83.5,83.9z"/>
			</g>
		</g>
		<g>
			<path class="st0" d="M85.7,73.7L85.7,73.7l-0.3,0.1c-4.7,2.5-10.6,1.7-14.5-2c-0.1-0.1-0.2-0.2-0.3-0.2c-0.1,0-0.2,0.1-0.3,0.2
				c-1.7,1.3-9.8,6.8-16.9,0.1l-0.1-0.1c-0.1-0.1-0.2-0.1-0.3-0.1c-0.1,0-0.2,0-0.3,0.1l-0.1,0.1c-7.2,6.7-15.2,1.2-17-0.1
				c-0.1-0.1-0.2-0.1-0.3-0.2c-0.2,0-0.3,0.1-0.3,0.5v3.4c0,0.2,0.1,0.4,0.3,0.6c7.7,7.3,15.7,1.4,17.4,0l0.2-0.2
				c0,0,0.1-0.1,0.2-0.1c0.1,0,0.1,0,0.2,0.1l0.2,0.2c1.7,1.4,9.7,7.3,17.4,0l0,0c0.1-0.1,0.2-0.1,0.3-0.1c0.1,0,0.2,0,0.2,0.1
				c0,0,0.1,0.1,0.1,0.1c1.5,1.5,7.9,7,14.7,1.1c0.1-0.1,0.1-0.2,0.1-0.3v-2.8C86.1,73.9,85.9,73.7,85.7,73.7
				C85.7,73.7,85.7,73.7,85.7,73.7"/>
		</g>
	</g>
</g>
</svg>
