<?xml version="1.0" encoding="utf-8"?>
<!-- Generator: Adobe Illustrator 22.0.1, SVG Export Plug-In . SVG Version: 6.00 Build 0)  -->
<svg version="1.1" id="Layer_1" xmlns="http://www.w3.org/2000/svg" xmlns:xlink="http://www.w3.org/1999/xlink" x="0px" y="0px"
	 viewBox="0 0 101.5 175.2" style="enable-background:new 0 0 101.5 175.2;" xml:space="preserve">
<style type="text/css">
	.st0{fill:#FFFFFF;}
	.st1{fill:#0A97D9;}
	.st2{enable-background:new    ;}
</style>
<title>TARGET 1 B copy 12</title>
<g id="WHITE_BG">
	<g>
		<rect y="0" class="st0" width="101.5" height="175.2"/>
	</g>
</g>
<g id="TARGETS">
	<g>
		<g>
			<path class="st1" d="M7,132.2v-6.4h1v6.4H7z"/>
		</g>
		<g>
			<path class="st1" d="M12.8,132.2l-2.8-4.5v4.5H9.1v-6.4h0.9l2.8,4.5v-4.5h0.9v6.4H12.8z"/>
		</g>
		<g>
			<path class="st1" d="M17.1,125.7c0.5,0,1,0.1,1.5,0.3v0.9c-0.5-0.2-0.9-0.3-1.4-0.3c-1.2,0-1.7,0.8-1.7,2.4s0.5,2.4,1.7,2.4
				c0.5,0,1-0.1,1.4-0.3v0.9c-0.5,0.2-1,0.3-1.5,0.3c-1.9,0-2.6-1.2-2.6-3.3S15.2,125.7,17.1,125.7z"/>
		</g>
		<g>
			<path class="st1" d="M20.4,132.2h-1v-6.4h2.1c1.6,0,2.2,0.7,2.2,1.9c0.1,0.7-0.3,1.4-1,1.7l1.3,2.8h-1.1l-1.2-2.6h-1.3V132.2z
				 M20.4,128.7h1.3c0.9,0,1-0.5,1-1s-0.1-1-1-1h-1.3V128.7z"/>
		</g>
		<g>
			<path class="st1" d="M28.3,129.3h-2.6v2h2.9v0.9h-3.9v-6.4h3.9v0.9h-2.9v1.8h2.6V129.3z"/>
		</g>
		<g>
			<path class="st1" d="M32.5,130.6h-2l-0.5,1.6h-1l2-6.4h1l2,6.4h-1L32.5,130.6z M31.5,127l-0.8,2.8h1.6L31.5,127z"/>
		</g>
		<g>
			<path class="st1" d="M38.5,130.3c0,1.2-0.7,2-2.4,2c-0.6,0-1.3-0.1-1.9-0.4V131c0.6,0.3,1.2,0.4,1.8,0.4c1.2,0,1.5-0.5,1.5-1.1
				s-0.3-0.9-1.2-1c-1.5-0.2-2.2-0.6-2.2-1.8c0-0.9,0.5-1.8,2.3-1.8c0.6,0,1.2,0.1,1.7,0.3v1c-0.5-0.2-1.1-0.3-1.7-0.3
				c-1,0-1.3,0.4-1.3,1c0,0.7,0.4,0.8,1.2,0.9C37.7,128.7,38.5,129,38.5,130.3z"/>
		</g>
		<g>
			<path class="st1" d="M42.9,129.3h-2.6v2h2.9v0.9h-3.9v-6.4h3.9v0.9h-2.9v1.8h2.7L42.9,129.3z"/>
		</g>
		<g>
			<path class="st1" d="M49.5,130.3c0,1.2-0.7,2-2.4,2c-0.6,0-1.3-0.1-1.9-0.4V131c0.6,0.3,1.2,0.4,1.8,0.4c1.2,0,1.5-0.5,1.5-1.1
				s-0.3-0.9-1.2-1c-1.5-0.2-2.2-0.6-2.2-1.8c0-0.9,0.5-1.8,2.3-1.8c0.6,0,1.2,0.1,1.7,0.3v1c-0.5-0.2-1.1-0.3-1.7-0.3
				c-1,0-1.3,0.4-1.3,1c0,0.7,0.4,0.8,1.2,0.9C48.8,128.7,49.5,129,49.5,130.3z"/>
		</g>
		<g>
			<path class="st1" d="M52.8,125.7c0.5,0,1,0.1,1.5,0.3v0.9c-0.5-0.2-0.9-0.3-1.4-0.3c-1.2,0-1.7,0.8-1.7,2.4s0.5,2.4,1.7,2.4
				c0.5,0,1-0.1,1.4-0.3v0.9c-0.5,0.2-1,0.3-1.5,0.3c-1.9,0-2.6-1.2-2.6-3.3S50.9,125.7,52.8,125.7z"/>
		</g>
		<g>
			<path class="st1" d="M55.1,132.2v-6.4h1v6.4H55.1z"/>
		</g>
		<g>
			<path class="st1" d="M60.8,129.3h-2.7v2H61v0.9h-3.8v-6.4H61v0.9h-2.9v1.8h2.7V129.3z"/>
		</g>
		<g>
			<path class="st1" d="M65.6,132.2l-2.8-4.5v4.5h-1v-6.4h0.9l2.8,4.5v-4.5h0.9v6.4H65.6z"/>
		</g>
		<g>
			<path class="st1" d="M69.6,126.7v5.5h-1v-5.5H67v-0.9h4.3v0.9H69.6z"/>
		</g>
		<g>
			<path class="st1" d="M71.9,132.2v-6.4h1v6.4H71.9z"/>
		</g>
		<g>
			<path class="st1" d="M77.5,129.4h-2.6v2.8H74v-6.4h3.8v0.9h-2.9v1.8h2.6L77.5,129.4z"/>
		</g>
		<g>
			<path class="st1" d="M78.6,132.2v-6.4h1v6.4H78.6z"/>
		</g>
		<g>
			<path class="st1" d="M83.2,125.7c0.5,0,1,0.1,1.5,0.3v0.9c-0.5-0.2-0.9-0.3-1.4-0.3c-1.2,0-1.7,0.8-1.7,2.4s0.5,2.4,1.7,2.4
				c0.5,0,1-0.1,1.4-0.3v0.9c-0.5,0.2-1,0.3-1.5,0.3c-1.9,0-2.6-1.2-2.6-3.3S81.3,125.7,83.2,125.7z"/>
		</g>
		<g>
			<path class="st1" d="M8.3,138.4L7.8,139v2.2h-1v-6.4h1v3l2.3-3h1.2L9,137.6l2.6,3.6h-1.2L8.3,138.4z"/>
		</g>
		<g>
			<path class="st1" d="M15.7,141.2l-2.8-4.5v4.5H12v-6.4h0.9l2.8,4.5v-4.5h1v6.4H15.7z"/>
		</g>
		<g>
			<path class="st1" d="M17.4,138c0-1.8,0.4-3.3,2.5-3.3s2.5,1.5,2.5,3.3s-0.4,3.3-2.5,3.3S17.4,139.8,17.4,138z M18.4,138
				c0,1.5,0.3,2.4,1.5,2.4s1.5-0.9,1.5-2.4s-0.3-2.4-1.5-2.4S18.4,136.5,18.4,138L18.4,138z"/>
		</g>
		<g>
			<path class="st1" d="M25.7,134.8h1.2l1.1,5l0.8-5h1l-1.2,6.4h-1.2l-1.1-5.3l-1.2,5.3H24l-1.2-6.4h1l0.8,5L25.7,134.8z"/>
		</g>
		<g>
			<path class="st1" d="M31.3,140.3h2.8v0.9h-3.7v-6.4h1L31.3,140.3z"/>
		</g>
		<g>
			<path class="st1" d="M38.2,138.3h-2.6v2h2.9v0.9h-3.9v-6.4h3.9v0.9h-2.9v1.8h2.7L38.2,138.3z"/>
		</g>
		<g>
			<path class="st1" d="M39.3,141.2v-6.4h1.9c2.1,0,2.7,1.4,2.7,3.2s-0.6,3.2-2.7,3.2H39.3z M40.3,140.3h1c1.3,0,1.7-0.9,1.7-2.3
				s-0.4-2.3-1.7-2.3h-1V140.3z"/>
		</g>
		<g>
			<path class="st1" d="M44.5,138c0-2,0.7-3.3,2.6-3.3c0.6,0,1.3,0.1,1.8,0.3v1c-0.5-0.2-1.1-0.4-1.7-0.4c-1.3,0-1.8,0.9-1.8,2.4
				s0.5,2.4,1.8,2.4c0.3,0,0.6,0,0.9-0.1v-1.7H47v-0.9h2.1v3.2c-0.6,0.3-1.3,0.4-2,0.4C45.2,141.3,44.5,140,44.5,138z"/>
		</g>
		<g>
			<path class="st1" d="M53.7,138.3H51v2h2.9v0.9h-3.8v-6.4h3.9v0.9H51v1.8h2.7L53.7,138.3z"/>
		</g>
		<g>
			<path class="st1" d="M55.6,140.3l-0.7,2h-0.7l0.2-2H55.6z"/>
		</g>
		<g>
			<path class="st1" d="M7.8,150.2h-1v-6.4H9c1.6,0,2.2,0.7,2.2,1.9c0.1,0.7-0.3,1.4-1,1.7l1.3,2.8h-1.2l-1.1-2.6H7.8V150.2z
				 M7.8,146.7h1.3c0.9,0,1-0.5,1-1s-0.1-1-1-1H7.8V146.7z"/>
		</g>
		<g>
			<path class="st1" d="M15.7,147.3H13v2h3v0.9h-3.9v-6.4H16v0.9h-3v1.8h2.7L15.7,147.3z"/>
		</g>
		<g>
			<path class="st1" d="M21,148.3c0,1.2-0.7,2-2.4,2c-0.6,0-1.3-0.1-1.9-0.4V149c0.6,0.3,1.2,0.4,1.8,0.4c1.1,0,1.5-0.5,1.5-1.1
				s-0.3-0.9-1.2-1c-1.5-0.2-2.2-0.6-2.2-1.8c0-0.9,0.5-1.8,2.3-1.8c0.6,0,1.2,0.1,1.7,0.3v1c-0.5-0.2-1.1-0.3-1.7-0.3
				c-1,0-1.3,0.4-1.3,1s0.4,0.8,1.2,0.9C20.2,146.7,21,147,21,148.3z"/>
		</g>
		<g>
			<path class="st1" d="M25.2,147.3h-2.6v2h2.9v0.9h-3.9v-6.4h3.9v0.9h-2.9v1.8h2.6V147.3z"/>
		</g>
		<g>
			<path class="st1" d="M29.5,148.6h-2l-0.5,1.6h-1l2-6.4h1l2,6.4h-1L29.5,148.6z M28.5,145l-0.8,2.8h1.6L28.5,145z"/>
		</g>
		<g>
			<path class="st1" d="M32.4,150.2h-1v-6.4h2.1c1.7,0,2.2,0.7,2.2,1.9c0.1,0.7-0.3,1.4-1,1.7l1.3,2.8h-1.1l-1.2-2.6h-1.3V150.2z
				 M32.4,146.7h1.2c0.9,0,1-0.5,1-1s-0.1-1-1-1h-1.2V146.7z"/>
		</g>
		<g>
			<path class="st1" d="M39,143.7c0.5,0,1,0.1,1.5,0.3v0.9c-0.4-0.2-0.9-0.3-1.4-0.3c-1.2,0-1.7,0.8-1.7,2.4s0.5,2.4,1.7,2.4
				c0.5,0,1-0.1,1.4-0.3v0.9c-0.5,0.2-1,0.3-1.5,0.3c-1.9,0-2.6-1.2-2.6-3.3S37.1,143.7,39,143.7z"/>
		</g>
		<g>
			<path class="st1" d="M44.9,150.2v-2.9h-2.6v2.9h-1v-6.4h1v2.6h2.6v-2.6h1v6.4H44.9z"/>
		</g>
		<g>
			<path class="st1" d="M51.4,148.6h-2l-0.5,1.6h-1l2-6.4h1l2,6.4h-1L51.4,148.6z M50.4,145l-0.8,2.8h1.6L50.4,145z"/>
		</g>
		<g>
			<path class="st1" d="M57.1,150.2l-2.8-4.5v4.5h-0.9v-6.4h0.9l2.8,4.5v-4.5h1v6.4H57.1z"/>
		</g>
		<g>
			<path class="st1" d="M58.9,150.2v-6.4h1.9c2.1,0,2.7,1.4,2.7,3.2s-0.6,3.2-2.7,3.2H58.9z M59.9,149.3h1c1.3,0,1.7-0.9,1.7-2.3
				s-0.4-2.3-1.7-2.3h-1V149.3z"/>
		</g>
		<g>
			<path class="st1" d="M9.2,153.7v5.5h-1v-5.5H6.6v-0.9h4.3v0.9H9.2z"/>
		</g>
		<g>
			<path class="st1" d="M15,156.3h-2.6v2h2.9v0.9h-3.9v-6.4h3.9v0.9h-2.9v1.8H15V156.3z"/>
		</g>
		<g>
			<path class="st1" d="M18.5,152.7c0.5,0,1,0.1,1.5,0.3v0.9c-0.5-0.2-0.9-0.3-1.4-0.3c-1.2,0-1.7,0.8-1.7,2.4s0.5,2.4,1.7,2.4
				c0.5,0,1-0.1,1.4-0.3v0.9c-0.5,0.2-1,0.3-1.5,0.3c-1.9,0-2.6-1.2-2.6-3.3S16.6,152.7,18.5,152.7z"/>
		</g>
		<g>
			<path class="st1" d="M24.3,159.2v-2.9h-2.6v2.9h-1v-6.4h1v2.6h2.6v-2.6h1v6.4H24.3z"/>
		</g>
		<g>
			<path class="st1" d="M29.9,159.2l-2.8-4.5v4.5h-0.9v-6.4h0.9l2.8,4.5v-4.5h1v6.4H29.9z"/>
		</g>
		<g>
			<path class="st1" d="M31.6,156c0-1.8,0.4-3.3,2.5-3.3s2.5,1.5,2.5,3.3s-0.4,3.3-2.5,3.3S31.6,157.8,31.6,156z M32.6,156
				c0,1.5,0.3,2.4,1.5,2.4s1.5-0.9,1.5-2.4s-0.3-2.4-1.5-2.4S32.6,154.5,32.6,156L32.6,156z"/>
		</g>
		<g>
			<path class="st1" d="M38.2,158.3H41v0.9h-3.7v-6.4h1L38.2,158.3z"/>
		</g>
		<g>
			<path class="st1" d="M41,156c0-1.8,0.4-3.3,2.5-3.3s2.5,1.5,2.5,3.3s-0.4,3.3-2.5,3.3S41,157.8,41,156z M42,156
				c0,1.5,0.3,2.4,1.5,2.4s1.5-0.9,1.5-2.4s-0.3-2.4-1.5-2.4S42,154.5,42,156z"/>
		</g>
		<g>
			<path class="st1" d="M46.6,156c0-2,0.7-3.3,2.6-3.3c0.6,0,1.3,0.1,1.8,0.3v1c-0.5-0.2-1.1-0.4-1.7-0.4c-1.3,0-1.8,0.9-1.8,2.4
				s0.5,2.4,1.8,2.4c0.3,0,0.6,0,0.9-0.1v-1.7h-1.1v-0.9h2.1v3.2c-0.6,0.3-1.3,0.4-2,0.4C47.3,159.3,46.6,158,46.6,156z"/>
		</g>
		<g>
			<path class="st1" d="M54.6,156.6v2.6h-1v-2.6l-2.2-3.8h1.1l1.6,3l1.6-3h1.1L54.6,156.6z"/>
		</g>
		<g>
			<path class="st1" d="M62.2,156.4h-2.6v2.8h-1v-6.4h3.8v0.9h-2.8v1.8h2.6V156.4z"/>
		</g>
		<g>
			<path class="st1" d="M62.9,156c0-1.8,0.4-3.3,2.5-3.3c2.1,0,2.5,1.5,2.5,3.3s-0.4,3.3-2.5,3.3S62.9,157.8,62.9,156z M63.9,156
				c0,1.5,0.3,2.4,1.5,2.4s1.5-0.9,1.5-2.4s-0.3-2.4-1.5-2.4S63.9,154.5,63.9,156L63.9,156z"/>
		</g>
		<g>
			<path class="st1" d="M69.5,159.2h-1v-6.4h2.1c1.7,0,2.2,0.7,2.2,1.9c0.1,0.7-0.3,1.4-1,1.7l1.3,2.8H72l-1.2-2.6h-1.3V159.2z
				 M69.5,155.7h1.3c0.9,0,1-0.5,1-1s-0.1-1-1-1h-1.3V155.7z"/>
		</g>
		<g>
			<path class="st1" d="M6.8,165c0-1.8,0.4-3.3,2.5-3.3s2.5,1.5,2.5,3.3s-0.4,3.3-2.5,3.3S6.8,166.8,6.8,165z M7.8,165
				c0,1.5,0.3,2.4,1.5,2.4s1.5-0.9,1.5-2.4s-0.3-2.4-1.5-2.4S7.8,163.5,7.8,165L7.8,165z"/>
		</g>
		<g>
			<path class="st1" d="M15,161.7c0.5,0,1,0.1,1.5,0.3v0.9c-0.4-0.2-0.9-0.3-1.4-0.3c-1.2,0-1.7,0.8-1.7,2.4s0.5,2.4,1.7,2.4
				c0.5,0,1-0.1,1.4-0.3v0.9c-0.5,0.2-1,0.3-1.5,0.3c-1.9,0-2.6-1.2-2.6-3.3S13.1,161.7,15,161.7z"/>
		</g>
		<g>
			<path class="st1" d="M21,165.3h-2.7v2h2.9v0.9h-3.9v-6.4h3.9v0.9h-2.9v1.8H21V165.3z"/>
		</g>
		<g>
			<path class="st1" d="M25.2,166.6h-2l-0.5,1.6h-1l2-6.4h1l2,6.4h-1L25.2,166.6z M24.2,163l-0.8,2.8H25L24.2,163z"/>
		</g>
		<g>
			<path class="st1" d="M30.9,168.2l-2.8-4.5v4.5h-0.9v-6.4H28l2.8,4.5v-4.5h0.9v6.4H30.9z"/>
		</g>
		<g>
			<path class="st1" d="M37.6,168.2v-2.9H35v2.9h-1v-6.4h1v2.6h2.6v-2.6h1v6.4H37.6z"/>
		</g>
		<g>
			<path class="st1" d="M43.1,165.3h-2.7v2h2.9v0.9h-3.9v-6.4h3.9v0.9h-2.9v1.8h2.7V165.3z"/>
		</g>
		<g>
			<path class="st1" d="M47.3,166.6h-2l-0.5,1.6h-1l2-6.4h1l2,6.4h-1L47.3,166.6z M46.3,163l-0.8,2.8h1.6L46.3,163z"/>
		</g>
		<g>
			<path class="st1" d="M50.3,167.3H53v0.9h-3.7v-6.4h1L50.3,167.3z"/>
		</g>
		<g>
			<path class="st1" d="M55,162.7v5.5h-1v-5.5h-1.6v-0.9h4.3v0.9H55z"/>
		</g>
		<g>
			<path class="st1" d="M60.9,168.2v-2.9h-2.6v2.9h-1v-6.4h1v2.6h2.6v-2.6h1v6.4H60.9z"/>
		</g>
	</g>
	<g>
		<rect x="3.3" y="24" class="st1" width="94.8" height="94.8"/>
	</g>
	<g>
		<path class="st1" d="M98.2,20.7H3.3V3.3h94.8V20.7z M4.3,19.7h92.8V4.3H4.3L4.3,19.7z"/>
	</g>
	<g class="st2">
		<path class="st1" d="M6.7,6.9h4.5v1.4H9.9v8.8H8.1V8.3H6.7V6.9z"/>
	</g>
	<g class="st2">
		<path class="st1" d="M11.2,17.1l1.9-10.2h1.9L17,17.1h-1.8l-0.3-1.9h-1.8l-0.3,1.9H11.2z M13.3,13.9h1.4L14,9.8h0L13.3,13.9z"/>
	</g>
	<g class="st2">
		<path class="st1" d="M19.6,12.4v4.7h-1.7V6.9h2.5c1.7,0,2.4,0.9,2.4,2.3v1.3c0,1.1-0.4,1.7-1.4,2l1.6,4.6h-1.8L19.6,12.4z
			 M19.6,8.3v3.2h0.6c0.6,0,0.8-0.3,0.8-0.8V9.2c0-0.6-0.3-0.8-0.8-0.8H19.6z"/>
	</g>
	<g class="st2">
		<path class="st1" d="M26.4,11.7h2.4v5.4h-1.2V16c-0.2,0.8-0.7,1.2-1.6,1.2c-1.5,0-2.1-1.2-2.1-2.7V9.6c0-1.6,0.8-2.7,2.6-2.7
			c1.9,0,2.4,1.1,2.4,2.6v0.9h-1.6v-1c0-0.6-0.2-1-0.9-1c-0.6,0-0.9,0.4-0.9,1v5.5c0,0.6,0.3,1,0.8,1c0.6,0,0.8-0.3,0.8-1V13h-0.8
			V11.7z"/>
	</g>
	<g class="st2">
		<path class="st1" d="M30.2,6.9h4.1v1.4h-2.4v2.9h1.7v1.4h-1.7v3.1h2.4v1.4h-4.1V6.9z"/>
	</g>
	<g class="st2">
		<path class="st1" d="M35.1,6.9h4.5v1.4h-1.4v8.8h-1.7V8.3h-1.4V6.9z"/>
	</g>
	<g class="st2">
		<path class="st1" d="M88.8,17.1l1.9-10.2h1.9l1.9,10.2h-1.8l-0.3-1.9h-1.8l-0.3,1.9H88.8z M90.9,13.9h1.4l-0.7-4.1h0L90.9,13.9z"
			/>
	</g>
	<g class="st2">
		<path class="st1" d="M76.8,6.9v10.2h-1.7V9.3h0l-1.2,1.2h0V8.8l1.6-1.8H76.8z"/>
	</g>
	<g class="st2">
		<path class="st1" d="M77.9,14.4l3-7.5h1.7v7.2h0.7v1.3h-0.7v1.7H81v-1.7h-3V14.4z M79.4,14.1H81V9.9h0L79.4,14.1z"/>
	</g>
	<g>
		<polygon class="st1" points="85.4,9.9 85.4,14.1 87.6,12 		"/>
	</g>
	<g>
		<path class="st1" d="M98.2,171.9h-95v-49.7h95V171.9z M4.2,170.9h93v-47.7h-93V170.9z"/>
	</g>
	<g>
		<g>
			<g>
				<polygon class="st0" points="28.2,72.3 28.2,72.3 28.2,72.3 				"/>
			</g>
			<g>
				<polygon class="st0" points="28.2,72.3 30.5,80.4 32.8,72.3 				"/>
			</g>
			<g>
				<path class="st0" d="M32.7,37.2c0-1.3-1-2.3-2.3-2.3c-1.3,0-2.3,1-2.3,2.3v34h4.6V37.2z"/>
			</g>
		</g>
		<g>
			<path class="st0" d="M75.9,76.5L62.2,50.8V37.7h1.6c0.4,0,0.8-0.4,0.8-0.8c0,0,0,0,0,0v-1.2c0-0.4-0.4-0.8-0.8-0.8h-12
				c-0.4,0-0.8,0.4-0.8,0.8v1.2c0,0.4,0.3,0.8,0.8,0.8c0,0,0,0,0,0h1.6v13.1L39.8,76.5c-0.7,1.2-0.3,2.8,0.9,3.6
				c0.4,0.2,0.9,0.4,1.3,0.4h31.6c1.4,0,2.6-1.1,2.6-2.6C76.2,77.4,76.1,76.9,75.9,76.5z M60,73.9c0-1.3,1.1-2.3,2.3-2.3
				s2.3,1.1,2.3,2.3c0,1.3-1.1,2.3-2.3,2.3h0C61.1,76.3,60,75.2,60,73.9z M66.1,70.6c-0.8,0-1.4-0.6-1.4-1.4s0.6-1.4,1.4-1.4
				c0.8,0,1.4,0.6,1.4,1.4C67.5,70,66.9,70.7,66.1,70.6C66.1,70.7,66.1,70.7,66.1,70.6L66.1,70.6z M54.7,51.1V37.7H61v13.4l5,9.3
				c-1.1,1.7-4.5,6.5-8.5,7.4c-3.3,0.7-8.8-1.3-10.6-1.9L54.7,51.1z"/>
		</g>
		<g>
			<g>
				<path class="st0" d="M88.8,90.9L88.8,90.9L88.5,91c-5.5,3-12.3,2-16.8-2.3c-0.1-0.1-0.2-0.2-0.4-0.2s-0.2,0.1-0.4,0.2
					c-2,1.6-11.4,7.9-19.8,0.1L51,88.7c-0.1-0.1-0.2-0.1-0.3-0.1c-0.1,0-0.2,0-0.3,0.1l-0.1,0.1c-8.3,7.8-17.7,1.4-19.8-0.1
					c-0.1-0.1-0.2-0.2-0.4-0.2c-0.2,0-0.3,0.1-0.4,0.2c-4.5,4.4-11.3,5.3-16.8,2.4l-0.2-0.1h-0.1c-0.3,0-0.5,0.2-0.5,0.5l0,0v3.3
					c0,0.1,0.1,0.2,0.1,0.3c7.9,6.9,15.4,0.4,17.1-1.3c0.1-0.1,0.1-0.1,0.2-0.2c0.1,0,0.1-0.1,0.2-0.1c0.1,0,0.2,0.1,0.3,0.1
					c8.9,8.5,18.3,1.6,20.2,0l0.2-0.2c0-0.1,0.1-0.1,0.2-0.1c0.1,0,0.1,0,0.2,0.1l0.2,0.2c2,1.6,11.3,8.5,20.2,0l0,0
					c0.1-0.1,0.2-0.1,0.3-0.1c0.1,0,0.2,0,0.3,0.1c0.1,0,0.1,0.1,0.1,0.1c1.7,1.7,9.2,8.1,17.1,1.3c0.1-0.1,0.1-0.2,0.1-0.3v-3.3
					C89.3,91.1,89,90.9,88.8,90.9"/>
			</g>
			<g>
				<path class="st0" d="M88.8,100.9L88.8,100.9l-0.3,0.1c-2.4,1.2-10,4.1-16.8-2.4c-0.1-0.1-0.2-0.2-0.4-0.2s-0.2,0.1-0.4,0.2
					c-2,1.6-11.4,7.9-19.8,0.1L51,98.6c-0.1-0.1-0.2-0.1-0.3-0.1c-0.1,0-0.2,0-0.3,0.1l-0.1,0.1c-8.3,7.8-17.7,1.4-19.8-0.1
					c-0.1-0.1-0.2-0.2-0.4-0.2c-0.2,0-0.3,0.1-0.4,0.2c-6.8,6.5-14.4,3.6-16.8,2.4c-0.1,0-0.2-0.1-0.2-0.1c0,0-0.1,0-0.1,0
					c-0.3,0-0.5,0.2-0.5,0.5l0,0v3.3c0,0.1,0.1,0.2,0.1,0.3c7.9,6.9,15.4,0.4,17.1-1.3c0-0.1,0.1-0.1,0.2-0.2c0.1,0,0.1-0.1,0.2-0.1
					c0.1,0,0.3,0.1,0.3,0.2c8.9,8.5,18.3,1.6,20.2,0l0.2-0.2c0,0,0.1-0.1,0.2-0.1c0.1,0,0.1,0,0.2,0.1l0.2,0.2
					c2,1.6,11.3,8.5,20.2,0l0,0c0.1-0.1,0.2-0.1,0.3-0.1c0.1,0,0.2,0,0.3,0.1c0.1,0,0.1,0.1,0.1,0.1c1.7,1.7,9.2,8.1,17.1,1.3
					c0.1-0.1,0.1-0.2,0.1-0.3v-3.3C89.3,101.1,89,100.9,88.8,100.9"/>
			</g>
		</g>
	</g>
</g>
</svg>
