<?xml version="1.0" encoding="utf-8"?>
<!-- Generator: Adobe Illustrator 22.0.1, SVG Export Plug-In . SVG Version: 6.00 Build 0)  -->
<svg version="1.1" id="Layer_1" xmlns="http://www.w3.org/2000/svg" xmlns:xlink="http://www.w3.org/1999/xlink" x="0px" y="0px"
	 viewBox="0 0 101.5 139.3" style="enable-background:new 0 0 101.5 139.3;" xml:space="preserve">
<style type="text/css">
	.st0{fill:#FFFFFF;}
	.st1{fill:#0A97D9;}
	.st2{enable-background:new    ;}
</style>
<title>TARGET 1 B copy 8</title>
<g id="WHITE_BG">
	<g>
		<rect y="0" class="st0" width="101.5" height="139.3"/>
	</g>
</g>
<g id="TARGETS">
	<g>
		<g>
			<path class="st1" d="M11.1,130.3c0,1.2-0.7,2-2.4,2c-0.6,0-1.3-0.1-1.9-0.4V131c0.6,0.3,1.2,0.4,1.8,0.4c1.1,0,1.5-0.5,1.5-1.1
				s-0.3-0.9-1.2-1c-1.6-0.2-2.2-0.6-2.2-1.8c0-0.9,0.5-1.8,2.3-1.8c0.6,0,1.2,0.1,1.7,0.3v1c-0.5-0.2-1.1-0.3-1.7-0.3
				c-1,0-1.3,0.4-1.3,1c0,0.7,0.4,0.8,1.2,0.9C10.3,128.7,11.1,129,11.1,130.3z"/>
		</g>
		<g>
			<path class="st1" d="M11.7,130.2v-4.4h1v4.3c-0.1,0.7,0.4,1.3,1.1,1.3c0.1,0,0.2,0,0.3,0c0.6,0.1,1.3-0.3,1.4-1
				c0-0.1,0-0.2,0-0.3v-4.3h0.9v4.4c0,1.1-0.8,2.1-2,2.1c-0.1,0-0.2,0-0.3,0c-1.1,0.1-2.2-0.7-2.3-1.8
				C11.7,130.4,11.7,130.3,11.7,130.2z"/>
		</g>
		<g>
			<path class="st1" d="M21.3,130.3c0,1.2-0.7,2-2.4,2c-0.6,0-1.3-0.1-1.9-0.4V131c0.6,0.3,1.2,0.4,1.8,0.4c1.1,0,1.5-0.5,1.5-1.1
				s-0.3-0.9-1.2-1c-1.5-0.2-2.2-0.6-2.2-1.8c0-0.9,0.5-1.8,2.3-1.8c0.6,0,1.2,0.1,1.8,0.3v1c-0.5-0.2-1.1-0.3-1.7-0.3
				c-1,0-1.3,0.4-1.3,1c0,0.7,0.4,0.8,1.2,0.9C20.5,128.7,21.3,129,21.3,130.3z"/>
		</g>
		<g>
			<path class="st1" d="M24,126.7v5.5h-1v-5.5h-1.6v-0.9h4.3v0.9H24z"/>
		</g>
		<g>
			<path class="st1" d="M28.7,130.6h-2l-0.5,1.6h-1l2-6.4h1l2,6.4h-1L28.7,130.6z M27.7,127l-0.8,2.8h1.6L27.7,127z"/>
		</g>
		<g>
			<path class="st1" d="M30.9,132.2v-6.4h1v6.4H30.9z"/>
		</g>
		<g>
			<path class="st1" d="M36.6,132.2l-2.8-4.5v4.5h-0.9v-6.4h0.9l2.8,4.5v-4.5h0.9v6.4H36.6z"/>
		</g>
		<g>
			<path class="st1" d="M41.5,130.6h-2l-0.5,1.6h-1l2-6.4h1l2,6.4h-1L41.5,130.6z M40.5,127l-0.8,2.8h1.6L40.5,127z"/>
		</g>
		<g>
			<path class="st1" d="M43.5,125.8h2.2c1.5,0,2,0.8,2,1.7c0,0.5-0.3,1-0.8,1.3c0.6,0.2,1.1,0.8,1,1.5c0,1.1-0.5,1.9-2.2,1.9h-2.2
				L43.5,125.8z M45.7,126.7h-1.2v1.8h1.2c0.8,0,1-0.5,1-0.9S46.5,126.7,45.7,126.7z M44.5,131.3h1.3c0.9,0,1.1-0.5,1.1-1
				s-0.3-1-1.1-1h-1.3L44.5,131.3z"/>
		</g>
		<g>
			<path class="st1" d="M49.6,131.3h2.8v0.9h-3.7v-6.4h1L49.6,131.3z"/>
		</g>
		<g>
			<path class="st1" d="M56.5,129.3h-2.6v2h2.9v0.9h-3.9v-6.4h3.9v0.9h-2.9v1.8h2.7L56.5,129.3z"/>
		</g>
		<g>
			<path class="st1" d="M62.5,129.4h-2.6v2.8h-1v-6.4h3.8v0.9h-2.8v1.8h2.6V129.4z"/>
		</g>
		<g>
			<path class="st1" d="M63.5,132.2v-6.4h1v6.4H63.5z"/>
		</g>
		<g>
			<path class="st1" d="M69.6,130.3c0,1.2-0.7,2-2.4,2c-0.6,0-1.3-0.1-1.9-0.4V131c0.6,0.3,1.2,0.4,1.8,0.4c1.1,0,1.5-0.5,1.5-1.1
				s-0.3-0.9-1.2-1c-1.6-0.2-2.2-0.6-2.2-1.8c0-0.9,0.5-1.8,2.3-1.8c0.6,0,1.2,0.1,1.7,0.3v1c-0.5-0.2-1.1-0.3-1.7-0.3
				c-1,0-1.3,0.4-1.3,1c0,0.7,0.4,0.8,1.2,0.9C68.8,128.7,69.6,129,69.6,130.3z"/>
		</g>
		<g>
			<path class="st1" d="M73.8,132.2v-2.9h-2.6v2.9h-1v-6.4h1v2.6h2.6v-2.6h1v6.4H73.8z"/>
		</g>
		<g>
			<path class="st1" d="M75.8,132.2v-6.4h1v6.4H75.8z"/>
		</g>
		<g>
			<path class="st1" d="M81.5,132.2l-2.8-4.5v4.5h-0.9v-6.4h0.9l2.8,4.5v-4.5h0.9v6.4H81.5z"/>
		</g>
		<g>
			<path class="st1" d="M83.2,129c0-2,0.7-3.3,2.6-3.3c0.6,0,1.3,0.1,1.8,0.3v1c-0.5-0.2-1.1-0.4-1.7-0.4c-1.3,0-1.8,0.9-1.8,2.4
				s0.5,2.4,1.8,2.4c0.3,0,0.6,0,0.9-0.1v-1.7h-1.1v-0.9h2.1v3.2c-0.6,0.3-1.3,0.4-2,0.4C83.8,132.3,83.2,131,83.2,129z"/>
		</g>
	</g>
	<g>
		<rect x="3.3" y="24" class="st1" width="94.8" height="94.8"/>
	</g>
	<g>
		<path class="st1" d="M98.2,20.7H3.3V3.3h94.8V20.7z M4.3,19.7h92.8V4.3H4.3L4.3,19.7z"/>
	</g>
	<g class="st2">
		<path class="st1" d="M6.7,6.9h4.5v1.4H9.9v8.8H8.1V8.3H6.7V6.9z"/>
	</g>
	<g class="st2">
		<path class="st1" d="M11.2,17.1l1.9-10.2h1.9L17,17.1h-1.8l-0.3-1.9h-1.8l-0.3,1.9H11.2z M13.3,13.9h1.4L14,9.8h0L13.3,13.9z"/>
	</g>
	<g class="st2">
		<path class="st1" d="M19.6,12.4v4.7h-1.7V6.9h2.5c1.7,0,2.4,0.9,2.4,2.3v1.3c0,1.1-0.4,1.7-1.4,2l1.6,4.6h-1.8L19.6,12.4z
			 M19.6,8.3v3.2h0.6c0.6,0,0.8-0.3,0.8-0.8V9.2c0-0.6-0.3-0.8-0.8-0.8H19.6z"/>
	</g>
	<g class="st2">
		<path class="st1" d="M26.4,11.7h2.4v5.4h-1.2V16c-0.2,0.8-0.7,1.2-1.6,1.2c-1.5,0-2.1-1.2-2.1-2.7V9.6c0-1.6,0.8-2.7,2.6-2.7
			c1.9,0,2.4,1.1,2.4,2.6v0.9h-1.6v-1c0-0.6-0.2-1-0.9-1c-0.6,0-0.9,0.4-0.9,1v5.5c0,0.6,0.3,1,0.8,1c0.6,0,0.8-0.3,0.8-1V13h-0.8
			V11.7z"/>
	</g>
	<g class="st2">
		<path class="st1" d="M30.2,6.9h4.1v1.4h-2.4v2.9h1.7v1.4h-1.7v3.1h2.4v1.4h-4.1V6.9z"/>
	</g>
	<g class="st2">
		<path class="st1" d="M35.1,6.9h4.5v1.4h-1.4v8.8h-1.7V8.3h-1.4V6.9z"/>
	</g>
	<g class="st2">
		<path class="st1" d="M77.3,6.9v10.2h-1.7V9.3h0l-1.2,1.2h0V8.8l1.6-1.8H77.3z"/>
	</g>
	<g class="st2">
		<path class="st1" d="M78.4,14.4l3-7.5H83v7.2h0.7v1.3H83v1.7h-1.6v-1.7h-3V14.4z M79.9,14.1h1.5V9.9h0L79.9,14.1z"/>
	</g>
	<g class="st2">
	</g>
	<g class="st2">
		<path class="st1" d="M86.5,10.8c0.7,0,1.2,0.6,1.2,1.2c0,0.7-0.6,1.2-1.2,1.2c-0.7,0-1.2-0.6-1.2-1.2
			C85.3,11.4,85.8,10.8,86.5,10.8z"/>
	</g>
	<g class="st2">
		<path class="st1" d="M89.1,14.4l3-7.5h1.7v7.2h0.7v1.3h-0.7v1.7h-1.6v-1.7h-3V14.4z M90.6,14.1h1.5V9.9h0L90.6,14.1z"/>
	</g>
	<g>
		<path class="st1" d="M98.2,136h-95v-13.8h95V136z M4.2,135h93v-11.8h-93V135z"/>
	</g>
	<g>
		<path class="st0" d="M50.3,42.7c0.3,0.4,2.2,2.8,4.8,2.8c2.3,0,4.7-2.1,4.7-2.1c0.6,1.1,1.6,1.8,2.8,2l0,0c0.1,0,0.1,0,0.1-0.1
			l0,0c-0.5-0.8-0.8-1.7-0.9-2.7c0.1-1,0.4-1.9,0.9-2.7v-0.1c0-0.1,0-0.1-0.1-0.1l0,0c-1.2,0.2-2.2,0.9-2.8,2c0,0-2.4-2.1-4.7-2.1
			C52.5,39.9,50.6,42.3,50.3,42.7z M53.6,41.5c0.4,0,0.8,0.3,0.8,0.8c0,0,0,0,0,0c0,0.4-0.3,0.8-0.7,0.8c0,0-0.1,0-0.1,0
			c-0.4,0-0.8-0.3-0.8-0.8c0,0,0,0,0,0l0,0C52.8,41.9,53.2,41.5,53.6,41.5C53.6,41.5,53.6,41.5,53.6,41.5z"/>
	</g>
	<g>
		<path class="st0" d="M33.2,81.1L33.2,81.1c-0.4-0.6-3.2-4.1-7-4.1c-3.4,0-6.9,3-6.9,3s-1.4-2.8-4.1-3h-0.1c-0.1,0-0.1,0-0.1,0.1
			v0.1c0.7,1.2,1.2,2.6,1.3,4c-0.1,1.4-0.5,2.8-1.3,4l0,0v0.1c0,0.1,0,0.1,0.1,0.1h0.1c2.8-0.2,4.1-3,4.1-3s3.6,3,6.9,3
			C30,85.2,32.8,81.7,33.2,81.1z M28.3,79.2c0.6,0,1.1,0.5,1.1,1.1s-0.5,1.1-1.1,1.1s-1.1-0.5-1.1-1.1l0,0l0,0
			C27.2,79.7,27.7,79.2,28.3,79.2z"/>
	</g>
	<g>
		<path class="st0" d="M68.4,102.6c-1.1-1.5-8.1-10.4-17.9-10.4c-8.5,0-17.6,7.7-17.6,7.7s-3.4-7-10.4-7.7h-0.2
			c-0.2,0-0.3,0.1-0.3,0.3c0,0.1,0.1,0.2,0.1,0.3c0.9,1.5,3.2,5.8,3.2,10s-2.3,8.5-3.2,10l-0.1,0.1v0.1c0,0.2,0.1,0.3,0.3,0.3l0,0
			c7-0.6,10.5-7.7,10.5-7.7s9.1,7.7,17.6,7.7c9.8,0,16.8-8.9,17.9-10.4l0.1-0.1C68.4,102.8,68.4,102.6,68.4,102.6z M55.9,103.9
			c-1.6,0-2.9-1.3-2.9-2.9s1.3-2.9,2.9-2.9c1.6,0,2.9,1.3,2.9,2.9c0,1.6-1.2,2.9-2.8,2.9C56,103.9,56,103.9,55.9,103.9z"/>
	</g>
	<g>
		<path class="st0" d="M89,88.7c-0.9-0.6-1.5-1.6-1.6-2.7c0-1.4,1.1-2.4,1.7-3.1c0.2-0.2,0.3-0.2,0.2-0.4s-0.4-0.1-0.4-0.1
			c-1.9,0.4-3.8,1-5.6,1.8c-4.6-2-9.5-2.8-14.5-2.5c-7.6,0.5-11,3.7-11.6,4.4l0,0v0.1c0,0.1,0,0.1,0.1,0.2l0.1,0.1
			c1.4,1.6,5.7,3.8,11.1,3.8c5.8,0,15-3,15-3c1.6,1,3.5,1.6,5.4,1.7h0.3c0.1,0,0.2-0.1,0.2-0.2v-0.1L89,88.7z M62.1,86.6
			c-0.6,0-1.1-0.5-1.1-1.1s0.5-1.1,1.1-1.1c0.6,0,1.1,0.5,1.1,1.1l0,0l0,0C63.2,86.1,62.7,86.6,62.1,86.6L62.1,86.6z"/>
	</g>
	<g>
		<path class="st0" d="M25,55.9c-0.3,0.7-0.7,1.4-1.1,2c1.3-0.3,2.5-0.8,3.6-1.5c0,0,8.6,1.2,11.3,1.5c0,0-1,3.2-1.3,3.9
			c1.9-0.9,3.6-2.1,5.1-3.6c0,0,9.9-2.1,12-4.1c0.2-0.2,0.2-0.6,0-0.8c0-0.1-0.1-0.1-0.2-0.1S44,49.1,42.5,48.6s-6.2-5.7-7.5-6.2
			l1.7,5.3c0,0-0.1,0.5-0.4,0.6s-16.4,3.8-16.4,3.8s-7.2-5-7.7-5.2c0,0-0.4,0-0.2,0.3s3.1,5,3.2,5.8c-0.2,1.5-0.6,3.1-1.2,4.5
			c0,0-0.2,0.2,0.3,0.1s5.4-3.2,5.4-3.2S23.3,55.5,25,55.9z M46.4,51.1c0.6,0,1,0.4,1,1s-0.4,1-1,1s-1-0.4-1-1
			C45.4,51.5,45.8,51.1,46.4,51.1C46.4,51.1,46.4,51.1,46.4,51.1L46.4,51.1z"/>
	</g>
	<g>
		<path class="st0" d="M58.1,64.7c0,0-4.7-3.8-9.9-2h-0.1C48.1,62.8,48,62.9,48,63c0,0.1,0.1,0.1,0.2,0.1c1.1,0.8,4.2,3,5.5,6
			s1.2,6.8,1.1,8.1v0.2c0.1,0.1,0.2,0.1,0.3,0.1h0.1c4.7-2.8,4.8-8.9,4.8-8.9s9,2.4,15-0.4c6.9-3.2,8.9-11.8,9.2-13.2v-0.1l0,0V29.8
			h-0.9v24.6c-2.4-1.2-9.2-3.9-15.3-1S58.1,64.7,58.1,64.7z M73.8,55.9c1.1-0.5,2.5,0,3,1.1s0,2.5-1.1,3c-1.1,0.5-2.5,0-3-1.1
			c0,0,0,0,0,0C72.2,57.8,72.7,56.4,73.8,55.9z"/>
	</g>
</g>
</svg>
