<?xml version="1.0" encoding="utf-8"?>
<!-- Generator: Adobe Illustrator 22.0.1, SVG Export Plug-In . SVG Version: 6.00 Build 0)  -->
<svg version="1.1" id="Layer_1" xmlns="http://www.w3.org/2000/svg" xmlns:xlink="http://www.w3.org/1999/xlink" x="0px" y="0px"
	 viewBox="0 0 101.5 166.4" style="enable-background:new 0 0 101.5 166.4;" xml:space="preserve">
<style type="text/css">
	.st0{fill:#FFFFFF;}
	.st1{fill:#FF3A21;}
	.st2{enable-background:new    ;}
</style>
<title>TARGET 1.5</title>
<g id="WHITE_BG">
	<g>
		<rect y="0" class="st0" width="101.5" height="166.4"/>
	</g>
</g>
<g id="TARGETS">
	<g>
		<g>
			<path class="st1" d="M10.5,129.3H7.8v2h2.9v0.9H6.9v-6.4h3.9v0.9H7.8v1.8h2.6V129.3z"/>
		</g>
		<g>
			<path class="st1" d="M15.3,132.2l-2.8-4.5v4.5h-0.9v-6.4h0.9l2.8,4.5v-4.5h0.9v6.4H15.3z"/>
		</g>
		<g>
			<path class="st1" d="M21.2,130.3c0,1.2-0.7,2-2.4,2c-0.6,0-1.3-0.1-1.9-0.4V131c0.6,0.3,1.2,0.4,1.8,0.4c1.1,0,1.5-0.5,1.5-1.1
				s-0.3-0.9-1.2-1c-1.6-0.2-2.2-0.6-2.2-1.8c0-0.9,0.5-1.8,2.3-1.8c0.6,0,1.2,0.1,1.7,0.3v1c-0.5-0.2-1.1-0.3-1.7-0.3
				c-1,0-1.3,0.4-1.3,1c0,0.7,0.4,0.8,1.2,0.9C20.4,128.7,21.2,129,21.2,130.3z"/>
		</g>
		<g>
			<path class="st1" d="M21.8,130.2v-4.4h1v4.3c-0.1,0.7,0.4,1.2,1,1.3c0.1,0,0.2,0,0.3,0c0.6,0.1,1.3-0.3,1.4-1c0-0.1,0-0.2,0-0.3
				v-4.3h1v4.4c0,1.1-0.8,2.1-2,2.1c-0.1,0-0.2,0-0.3,0c-1.1,0.1-2.2-0.6-2.3-1.8C21.8,130.4,21.8,130.3,21.8,130.2z"/>
		</g>
		<g>
			<path class="st1" d="M28.3,132.2h-1v-6.4h2.1c1.6,0,2.2,0.7,2.2,1.9c0.1,0.7-0.3,1.4-1,1.7l1.3,2.8h-1.1l-1.2-2.6h-1.3V132.2z
				 M28.3,128.7h1.2c0.9,0,1-0.5,1-1s-0.1-1-1-1h-1.2V128.7z"/>
		</g>
		<g>
			<path class="st1" d="M36.1,129.3h-2.6v2h2.9v0.9h-3.9v-6.4h3.9v0.9h-2.9v1.8h2.7L36.1,129.3z"/>
		</g>
		<g>
			<path class="st1" d="M42.1,129.4h-2.6v2.8h-1v-6.4h3.9v0.9h-2.9v1.8h2.6L42.1,129.4z"/>
		</g>
		<g>
			<path class="st1" d="M43,130.2v-4.4h1v4.3c0,0.8,0.6,1.4,1.4,1.4s1.4-0.6,1.4-1.4v-4.3h1v4.4c0,1.1-0.9,2.1-2,2.1
				c-0.1,0-0.2,0-0.3,0c-1.1,0.2-2.2-0.6-2.4-1.7C43,130.5,43,130.4,43,130.2z"/>
		</g>
		<g>
			<path class="st1" d="M49.5,131.3h2.8v0.9h-3.7v-6.4h1L49.5,131.3z"/>
		</g>
		<g>
			<path class="st1" d="M53.7,131.3h2.8v0.9h-3.7v-6.4h1L53.7,131.3z"/>
		</g>
		<g>
			<path class="st1" d="M7.8,141.2h-1v-6.4h2.1c1.6,0,2.2,0.9,2.2,2s-0.6,2-2.2,2H7.8V141.2z M7.8,138H9c0.6,0.1,1.2-0.4,1.2-1
				c0.1-0.6-0.4-1.2-1-1.2c-0.1,0-0.1,0-0.2,0H7.8V138z"/>
		</g>
		<g>
			<path class="st1" d="M14.2,139.7h-2l-0.4,1.6h-1l2-6.4h1l2,6.4h-1L14.2,139.7z M13.2,136l-0.8,2.8H14L13.2,136z"/>
		</g>
		<g>
			<path class="st1" d="M17.1,141.2h-0.9v-6.4h2.1c1.6,0,2.2,0.7,2.2,1.9c0.1,0.7-0.3,1.4-1,1.7l1.3,2.8h-1.2l-1.2-2.6h-1.3V141.2z
				 M17.1,137.7h1.3c0.9,0,1-0.5,1-1s-0.1-1-1-1h-1.3V137.7z"/>
		</g>
		<g>
			<path class="st1" d="M23.2,135.7v5.5h-1v-5.5h-1.7v-0.9h4.3v0.9H23.2z"/>
		</g>
		<g>
			<path class="st1" d="M25.6,141.2v-6.4h1v6.4H25.6z"/>
		</g>
		<g>
			<path class="st1" d="M30.1,134.7c0.5,0,1,0.1,1.5,0.3v0.9c-0.5-0.2-0.9-0.3-1.4-0.3c-1.2,0-1.7,0.8-1.7,2.4s0.5,2.4,1.7,2.4
				c0.5,0,1-0.1,1.4-0.3v0.9c-0.5,0.2-1,0.3-1.5,0.3c-1.9,0-2.6-1.2-2.6-3.3S28.3,134.7,30.1,134.7z"/>
		</g>
		<g>
			<path class="st1" d="M32.5,141.2v-6.4h1v6.4H32.5z"/>
		</g>
		<g>
			<path class="st1" d="M35.5,141.2h-1v-6.4h2c1.6,0,2.2,0.9,2.2,2s-0.6,2-2.2,2h-1V141.2z M35.5,138h1.1c0.6,0.1,1.2-0.4,1.2-1
				s-0.4-1.2-1-1.2c-0.1,0-0.1,0-0.2,0h-1.1V138z"/>
		</g>
		<g>
			<path class="st1" d="M41.9,139.7h-2l-0.5,1.6h-1l2-6.4h1l2,6.4h-1L41.9,139.7z M40.9,136l-0.9,2.8h1.6L40.9,136z"/>
		</g>
		<g>
			<path class="st1" d="M45.4,135.7v5.5h-1v-5.5h-1.6v-0.9H47v0.9H45.4z"/>
		</g>
		<g>
			<path class="st1" d="M47.7,141.2v-6.4h1v6.4H47.7z"/>
		</g>
		<g>
			<path class="st1" d="M49.7,138c0-1.8,0.4-3.3,2.5-3.3s2.5,1.5,2.5,3.3s-0.4,3.3-2.5,3.3S49.7,139.8,49.7,138z M50.7,138
				c0,1.5,0.3,2.4,1.5,2.4s1.5-0.9,1.5-2.4s-0.3-2.4-1.5-2.4S50.7,136.5,50.7,138L50.7,138z"/>
		</g>
		<g>
			<path class="st1" d="M59,141.2l-2.8-4.5v4.5h-0.9v-6.4h0.9l2.8,4.5v-4.5h1v6.4L59,141.2z"/>
		</g>
		<g>
			<path class="st1" d="M62.3,141.2v-6.4h1v6.4H62.3z"/>
		</g>
		<g>
			<path class="st1" d="M68.1,141.2l-2.8-4.5v4.5h-1v-6.4h0.9l2.8,4.5v-4.5h0.9v6.4L68.1,141.2z"/>
		</g>
		<g>
			<path class="st1" d="M7.8,149.3h2.8v0.9H6.9v-6.4h1L7.8,149.3z"/>
		</g>
		<g>
			<path class="st1" d="M14.7,147.3h-2.6v2H15v0.9h-3.9v-6.4H15v0.9h-2.9v1.8h2.6V147.3z"/>
		</g>
		<g>
			<path class="st1" d="M18.9,148.7h-2l-0.5,1.6h-1l2-6.4h1l2,6.4h-1L18.9,148.7z M17.9,145l-0.8,2.8h1.6L17.9,145z"/>
		</g>
		<g>
			<path class="st1" d="M21,150.2v-6.4h1.9c2.1,0,2.7,1.4,2.7,3.2s-0.6,3.2-2.7,3.2H21z M22,149.3h1c1.3,0,1.7-0.9,1.7-2.3
				s-0.4-2.3-1.7-2.3h-1V149.3z"/>
		</g>
		<g>
			<path class="st1" d="M30,147.3h-2.7v2h2.9v0.9h-3.9v-6.4h3.9v0.9h-2.9v1.8H30V147.3z"/>
		</g>
		<g>
			<path class="st1" d="M32.1,150.2h-1v-6.4h2.1c1.7,0,2.2,0.7,2.2,1.9c0.1,0.7-0.3,1.4-1,1.7l1.3,2.8h-1.1l-1.2-2.6h-1.3V150.2z
				 M32.1,146.7h1.3c0.9,0,1-0.5,1-1s-0.1-1-1-1h-1.3V146.7z"/>
		</g>
		<g>
			<path class="st1" d="M40.3,148.3c0,1.2-0.7,2-2.4,2c-0.7,0-1.3-0.1-1.9-0.3v-1c0.6,0.3,1.2,0.4,1.8,0.4c1.2,0,1.5-0.5,1.5-1.1
				s-0.3-0.9-1.2-1c-1.6-0.2-2.2-0.6-2.2-1.8c0-0.9,0.5-1.8,2.3-1.8c0.6,0,1.2,0.1,1.7,0.3v1c-0.5-0.2-1.1-0.3-1.7-0.3
				c-1,0-1.3,0.4-1.3,1c0,0.7,0.4,0.8,1.2,0.9C39.6,146.7,40.3,147,40.3,148.3z"/>
		</g>
		<g>
			<path class="st1" d="M44.5,150.2v-2.9H42v2.9h-1v-6.4h1v2.6h2.6v-2.6h1v6.4H44.5z"/>
		</g>
		<g>
			<path class="st1" d="M46.6,150.2v-6.4h1v6.4H46.6z"/>
		</g>
		<g>
			<path class="st1" d="M49.6,150.2h-1v-6.4h2c1.6,0,2.2,0.9,2.2,2s-0.6,2-2.2,2h-1V150.2z M49.6,147h1.1c0.6,0.1,1.2-0.4,1.2-1
				s-0.4-1.2-1-1.2c-0.1,0-0.1,0-0.2,0h-1.1V147z"/>
		</g>
		<g>
			<path class="st1" d="M58.1,148.7H56l-0.5,1.6h-1l2-6.4h1l2,6.4h-1L58.1,148.7z M57.1,145l-0.8,2.8h1.6L57.1,145z"/>
		</g>
		<g>
			<path class="st1" d="M63.8,150.2l-2.8-4.5v4.5h-0.9v-6.4h0.9l2.8,4.5v-4.5h0.9v6.4L63.8,150.2z"/>
		</g>
		<g>
			<path class="st1" d="M65.6,150.2v-6.4h1.9c2.1,0,2.7,1.4,2.7,3.2s-0.6,3.2-2.7,3.2H65.6z M66.6,149.3h1c1.3,0,1.7-0.9,1.7-2.3
				s-0.4-2.3-1.7-2.3h-1V149.3z"/>
		</g>
		<g>
			<path class="st1" d="M6.9,159.2v-6.4h1.9c2.1,0,2.7,1.4,2.7,3.2s-0.6,3.2-2.7,3.2H6.9z M7.9,158.3h1c1.3,0,1.7-0.9,1.7-2.3
				s-0.4-2.3-1.7-2.3h-1L7.9,158.3z"/>
		</g>
		<g>
			<path class="st1" d="M15.8,156.3h-2.7v2h2.9v0.9h-3.9v-6.4h3.9v0.9h-2.9v1.8h2.7L15.8,156.3z"/>
		</g>
		<g>
			<path class="st1" d="M19.3,152.7c0.5,0,1,0.1,1.5,0.3v0.9c-0.5-0.2-0.9-0.3-1.4-0.3c-1.2,0-1.7,0.8-1.7,2.4s0.5,2.4,1.7,2.4
				c0.5,0,1-0.1,1.4-0.3v0.9c-0.5,0.2-1,0.3-1.5,0.3c-1.9,0-2.6-1.2-2.6-3.3S17.5,152.7,19.3,152.7z"/>
		</g>
		<g>
			<path class="st1" d="M21.7,159.2v-6.4h1v6.4H21.7z"/>
		</g>
		<g>
			<path class="st1" d="M28,157.3c0,1.2-0.7,2-2.4,2c-0.6,0-1.3-0.1-1.9-0.4V158c0.6,0.3,1.2,0.4,1.8,0.4c1.1,0,1.5-0.5,1.5-1.1
				s-0.3-0.9-1.2-1c-1.5-0.2-2.1-0.6-2.1-1.8c0-0.9,0.5-1.8,2.3-1.8c0.6,0,1.2,0.1,1.7,0.3v1c-0.5-0.2-1.1-0.3-1.7-0.3
				c-1,0-1.3,0.4-1.3,1c0,0.7,0.4,0.8,1.2,0.9C27.2,155.7,28,156,28,157.3z"/>
		</g>
		<g>
			<path class="st1" d="M28.8,159.2v-6.4h1v6.4H28.8z"/>
		</g>
		<g>
			<path class="st1" d="M30.8,156c0-1.8,0.4-3.3,2.4-3.3s2.5,1.5,2.5,3.3s-0.4,3.3-2.5,3.3S30.8,157.8,30.8,156z M31.8,156
				c0,1.5,0.3,2.4,1.5,2.4s1.5-0.9,1.5-2.4s-0.3-2.4-1.5-2.4S31.7,154.5,31.8,156L31.8,156z"/>
		</g>
		<g>
			<path class="st1" d="M40.1,159.2l-2.8-4.5v4.5h-0.9v-6.4h0.9l2.8,4.5v-4.5h1v6.4H40.1z"/>
		</g>
		<g>
			<path class="st1" d="M43.7,156.4h-2.2v-0.9h2.2V156.4z"/>
		</g>
		<g>
			<path class="st1" d="M47.7,158.3h-0.9l-1.6-3.9l0,4.8h-1v-6.4h1.2l1.7,4.3l1.7-4.3h1.2v6.4h-0.9v-4.8L47.7,158.3z"/>
		</g>
		<g>
			<path class="st1" d="M54.2,157.7h-2l-0.5,1.6h-1l2-6.4h1l2,6.4h-1L54.2,157.7z M53.2,154l-0.8,2.8H54L53.2,154z"/>
		</g>
		<g>
			<path class="st1" d="M57.7,156.4l-0.5,0.6v2.2h-1v-6.4h1v3l2.3-3h1.2l-2.3,2.8l2.6,3.6h-1.2L57.7,156.4z"/>
		</g>
		<g>
			<path class="st1" d="M61.4,159.2v-6.4h1v6.4H61.4z"/>
		</g>
		<g>
			<path class="st1" d="M67.2,159.2l-2.8-4.5v4.5h-1v-6.4h0.9l2.8,4.5v-4.5H68v6.4H67.2z"/>
		</g>
		<g>
			<path class="st1" d="M68.8,156c0-2,0.7-3.3,2.6-3.3c0.6,0,1.3,0.1,1.8,0.3v1c-0.5-0.2-1.1-0.4-1.7-0.4c-1.3,0-1.8,0.9-1.8,2.4
				s0.5,2.4,1.8,2.4c0.3,0,0.6,0,0.9-0.1v-1.7h-1.1v-0.9h2.1v3.2c-0.6,0.3-1.3,0.4-2,0.4C69.5,159.3,68.8,158,68.8,156z"/>
		</g>
	</g>
	<g>
		<path class="st1" d="M98.2,162.9h-95v-40.7h95V162.9z M4.2,161.9h93v-38.7h-93V161.9z"/>
	</g>
	<g>
		<rect x="3.3" y="24" class="st1" width="94.8" height="94.8"/>
	</g>
	<g>
		<path class="st1" d="M98.2,20.7H3.3V3.3h94.8V20.7z M4.3,19.7h92.8V4.3H4.3L4.3,19.7z"/>
	</g>
	<g class="st2">
		<path class="st1" d="M6.7,6.9h4.5v1.4H9.9v8.8H8.1V8.3H6.7V6.9z"/>
	</g>
	<g class="st2">
		<path class="st1" d="M11.2,17.1l1.9-10.2h1.9L17,17.1h-1.8l-0.3-1.9h-1.8l-0.3,1.9H11.2z M13.3,13.9h1.4L14,9.8h0L13.3,13.9z"/>
	</g>
	<g class="st2">
		<path class="st1" d="M19.6,12.5v4.7h-1.7V6.9h2.5c1.7,0,2.4,0.9,2.4,2.3v1.3c0,1.1-0.4,1.7-1.4,2l1.6,4.6h-1.8L19.6,12.5z
			 M19.6,8.3v3.2h0.6c0.6,0,0.8-0.3,0.8-0.8V9.2c0-0.6-0.3-0.8-0.8-0.8H19.6z"/>
	</g>
	<g class="st2">
		<path class="st1" d="M26.4,11.7h2.4v5.4h-1.2V16c-0.2,0.8-0.7,1.2-1.6,1.2c-1.5,0-2.1-1.2-2.1-2.7V9.6c0-1.6,0.8-2.7,2.6-2.7
			c1.9,0,2.4,1.1,2.4,2.6v0.9h-1.6v-1c0-0.6-0.2-1-0.9-1c-0.6,0-0.9,0.4-0.9,1v5.5c0,0.6,0.3,1,0.8,1c0.6,0,0.8-0.3,0.8-1V13h-0.8
			V11.7z"/>
	</g>
	<g class="st2">
		<path class="st1" d="M30.2,6.9h4.1v1.4h-2.4v2.9h1.7v1.4h-1.7v3.1h2.4v1.4h-4.1V6.9z"/>
	</g>
	<g class="st2">
		<path class="st1" d="M35.1,6.9h4.5v1.4h-1.4v8.8h-1.7V8.3h-1.4V6.9z"/>
	</g>
	<g class="st2">
		<path class="st1" d="M83.7,12.4v2.5c0,1.4-0.7,2.3-2.4,2.3c-1.7,0-2.4-1-2.4-2.5v-1.2h1.6v1.3c0,0.6,0.2,1,0.8,1
			c0.5,0,0.7-0.4,0.7-0.9v-2.5c0-0.6-0.2-0.9-0.7-0.9c-0.5,0-0.8,0.3-0.8,0.9v0.2H79V6.9h4.5v1.4h-2.9v2.5h0
			c0.3-0.5,0.8-0.7,1.4-0.7C82.9,10.2,83.7,10.8,83.7,12.4z"/>
	</g>
	<g class="st2">
	</g>
	<g class="st2">
		<path class="st1" d="M86.6,10.8c0.7,0,1.2,0.6,1.2,1.2c0,0.7-0.6,1.2-1.2,1.2c-0.7,0-1.2-0.6-1.2-1.2
			C85.3,11.4,85.9,10.8,86.6,10.8z"/>
	</g>
	<g class="st2">
		<path class="st1" d="M94.4,12.4v2.5c0,1.4-0.7,2.3-2.4,2.3c-1.7,0-2.4-1-2.4-2.5v-1.2h1.6v1.3c0,0.6,0.2,1,0.8,1
			c0.5,0,0.7-0.4,0.7-0.9v-2.5c0-0.6-0.2-0.9-0.7-0.9c-0.5,0-0.8,0.3-0.8,0.9v0.2h-1.6V6.9h4.5v1.4h-2.9v2.5h0
			c0.3-0.5,0.8-0.7,1.4-0.7C93.5,10.2,94.4,10.8,94.4,12.4z"/>
	</g>
	<g>
		<g>
			<path class="st0" d="M32.4,49.9c3,0,5.4-2.4,5.4-5.4S35.4,39,32.4,39c-3,0-5.4,2.4-5.4,5.4C27,47.5,29.4,49.9,32.4,49.9
				C32.4,49.9,32.4,49.9,32.4,49.9z"/>
		</g>
		<g>
			<path class="st0" d="M71,49.6c3,0,5.5-2.5,5.5-5.5c0-3-2.5-5.5-5.5-5.5c-3,0-5.5,2.5-5.5,5.5C65.5,47.1,68,49.6,71,49.6
				C71,49.6,71,49.6,71,49.6z"/>
		</g>
		<g>
			<path class="st0" d="M63.1,58.9c0.6,0.9,0.9,1.9,0.9,2.9v9.4h14V61c0-0.4,0.2-1.1,0.8-1.1c0.9,0,1,0.7,1,1.2v10.1H84V59
				c0-3.8-2.9-6.9-6.6-7.3H66.6c-1.5,0.1-3-0.6-3.9-1.8l-9-12.5c-0.4-0.7-1-1.3-1.7-1.8c-1.1-0.6-2,0-2.8,1l-9.9,13.1
				c-1.8,2.2-3.5,2.8-4.6,2.8h-8.3c-3.6,0-5.2,4.2-5.2,4.2l-4.5,14.6h4.9l3.2-10.8c0,0,0.2-0.9,0.9-0.7s0.4,1.2,0.4,1.2l-2.8,10.3
				h17.7l-2.2-8c-0.4-1.7-0.2-3.6,0.7-5.1l3.5-5.4l8.3-11.5l6.9,10.5L63.1,58.9z"/>
		</g>
		<g>
			<path class="st0" d="M39.6,74h-26v2.7h2.1v30.8h25.5V76.7h2.1V74H39.6z M36.1,81.3H20.4v-2.8h15.6L36.1,81.3z"/>
		</g>
		<g>
			<path class="st0" d="M84.1,74h-26v2.7h2.1v30.8h25.5V76.7h2.1V74H84.1z M80.9,81.3H65.3v-2.8h15.6L80.9,81.3z"/>
		</g>
	</g>
</g>
</svg>
