<?xml version="1.0" encoding="utf-8"?>
<!-- Generator: Adobe Illustrator 22.0.1, SVG Export Plug-In . SVG Version: 6.00 Build 0)  -->
<svg version="1.1" id="Layer_1" xmlns="http://www.w3.org/2000/svg" xmlns:xlink="http://www.w3.org/1999/xlink" x="0px" y="0px"
	 viewBox="0 0 101.5 157.1" style="enable-background:new 0 0 101.5 157.1;" xml:space="preserve">
<style type="text/css">
	.st0{fill:#FFFFFF;}
	.st1{fill:#FF3A21;}
	.st2{enable-background:new    ;}
</style>
<title>TARGET 1.3</title>
<g id="WHITE_BG">
	<g>
		<rect y="0" class="st0" width="101.5" height="157.1"/>
	</g>
</g>
<g id="TARGETS">
	<g>
		<g>
			<path class="st1" d="M10.5,129.3H7.8v2h2.9v0.9H6.9v-6.4h3.9v0.9H7.8v1.8h2.6V129.3z"/>
		</g>
		<g>
			<path class="st1" d="M12.6,131.3h2.8v0.9h-3.7v-6.4h1L12.6,131.3z"/>
		</g>
		<g>
			<path class="st1" d="M16,132.2v-6.4h1v6.4H16z"/>
		</g>
		<g>
			<path class="st1" d="M21.4,131.3h-0.9l-1.6-3.9l0,4.8h-1v-6.4h1.2l1.8,4.3l1.7-4.3h1.2v6.4H23v-4.8L21.4,131.3z"/>
		</g>
		<g>
			<path class="st1" d="M25,132.2v-6.4h1v6.4H25z"/>
		</g>
		<g>
			<path class="st1" d="M30.7,132.2l-2.7-4.5v4.5h-0.9v-6.4h0.9l2.8,4.5v-4.5h1v6.4H30.7z"/>
		</g>
		<g>
			<path class="st1" d="M35.7,130.6h-2l-0.5,1.6h-1l2-6.4h1l2,6.4h-1L35.7,130.6z M34.7,127l-0.8,2.8h1.6L34.7,127z"/>
		</g>
		<g>
			<path class="st1" d="M39.2,126.7v5.5h-1v-5.5h-1.6v-0.9h4.3v0.9L39.2,126.7z"/>
		</g>
		<g>
			<path class="st1" d="M45,129.3h-2.7v2h2.9v0.9h-3.9v-6.4h3.9v0.9h-2.9v1.8H45V129.3z"/>
		</g>
		<g>
			<path class="st1" d="M51,129.4h-2.6v2.8h-1v-6.4h3.8v0.9h-2.8v1.8H51V129.4z"/>
		</g>
		<g>
			<path class="st1" d="M51.7,129c0-1.8,0.4-3.3,2.5-3.3s2.5,1.5,2.5,3.3s-0.4,3.3-2.5,3.3S51.7,130.8,51.7,129z M52.7,129
				c0,1.5,0.3,2.4,1.5,2.4s1.5-0.9,1.5-2.4s-0.3-2.4-1.5-2.4S52.7,127.5,52.7,129L52.7,129z"/>
		</g>
		<g>
			<path class="st1" d="M58.4,132.2h-1v-6.4h2.1c1.7,0,2.2,0.7,2.2,1.9c0.1,0.7-0.3,1.4-1,1.7l1.3,2.8h-1.1l-1.2-2.6h-1.3V132.2z
				 M58.4,128.7h1.2c0.9,0,1-0.5,1-1s-0.1-1-1-1h-1.2V128.7z"/>
		</g>
		<g>
			<path class="st1" d="M65.1,125.7c0.5,0,1,0.1,1.5,0.3v0.9c-0.5-0.2-0.9-0.3-1.4-0.3c-1.2,0-1.7,0.8-1.7,2.4
				c0,1.6,0.5,2.4,1.7,2.4c0.5,0,1-0.1,1.4-0.3v0.9c-0.5,0.2-1,0.3-1.5,0.3c-1.9,0-2.6-1.2-2.6-3.3S63.2,125.7,65.1,125.7z"/>
		</g>
		<g>
			<path class="st1" d="M71,129.3h-2.7v2h2.9v0.9h-3.9v-6.4h3.9v0.9h-2.9v1.8H71V129.3z"/>
		</g>
		<g>
			<path class="st1" d="M72.1,132.2v-6.4H74c2.1,0,2.7,1.4,2.7,3.2s-0.6,3.2-2.7,3.2H72.1z M73.1,131.3h1c1.3,0,1.7-0.9,1.7-2.3
				s-0.4-2.3-1.7-2.3h-1V131.3z"/>
		</g>
		<g>
			<path class="st1" d="M10.3,140.3H9.4l-1.6-3.9v4.8h-1v-6.4h1.3l1.7,4.4l1.7-4.4h1.2v6.4h-0.9v-4.8L10.3,140.3z"/>
		</g>
		<g>
			<path class="st1" d="M16.8,139.6h-2l-0.4,1.6h-1l2-6.4h1l2,6.4h-1L16.8,139.6z M15.8,136l-0.8,2.8h1.6L15.8,136z"/>
		</g>
		<g>
			<path class="st1" d="M19.8,141.2h-1v-6.4h2.1c1.6,0,2.2,0.7,2.2,1.9c0.1,0.7-0.3,1.4-1,1.7l1.3,2.8h-1.2l-1.1-2.6h-1.3V141.2z
				 M19.8,137.7h1.3c0.9,0,1-0.5,1-1s-0.1-1-1-1h-1.3V137.7z"/>
		</g>
		<g>
			<path class="st1" d="M25,141.2h-1v-6.4h2.1c1.6,0,2.2,0.7,2.2,1.9c0.1,0.7-0.3,1.4-1,1.7l1.3,2.8h-1.1l-1.2-2.6H25V141.2z
				 M25,137.7h1.2c0.9,0,1-0.5,1-1s-0.1-1-1-1H25V137.7z"/>
		</g>
		<g>
			<path class="st1" d="M29.2,141.2v-6.4h1v6.4H29.2z"/>
		</g>
		<g>
			<path class="st1" d="M34.4,139.6h-2l-0.5,1.6h-1l2-6.4h1l2,6.4h-1L34.4,139.6z M33.4,136l-0.8,2.8h1.6L33.4,136z"/>
		</g>
		<g>
			<path class="st1" d="M36.1,138c0-2,0.7-3.3,2.6-3.3c0.6,0,1.3,0.1,1.8,0.3v1c-0.5-0.2-1.1-0.4-1.7-0.4c-1.3,0-1.8,0.9-1.8,2.4
				s0.5,2.4,1.8,2.4c0.3,0,0.6,0,0.9-0.1v-1.7h-1.1v-0.9h2.1v3.2c-0.6,0.3-1.3,0.4-2,0.4C36.8,141.3,36.1,140,36.1,138z"/>
		</g>
		<g>
			<path class="st1" d="M45.3,138.3h-2.6v2h2.9v0.9h-3.9v-6.4h3.9v0.9h-2.9v1.8h2.7L45.3,138.3z"/>
		</g>
		<g>
			<path class="st1" d="M50.5,139.3c0,1.2-0.7,2-2.4,2c-0.6,0-1.3-0.1-1.9-0.4v-1c0.6,0.3,1.2,0.4,1.8,0.4c1.2,0,1.5-0.5,1.5-1.1
				s-0.3-0.9-1.2-1c-1.5-0.2-2.2-0.6-2.2-1.8c0-0.9,0.5-1.9,2.3-1.9c0.6,0,1.2,0.1,1.7,0.3v1c-0.5-0.2-1.1-0.3-1.7-0.3
				c-1,0-1.3,0.4-1.3,1s0.4,0.8,1.2,0.9C49.8,137.7,50.5,138,50.5,139.3z"/>
		</g>
		<g>
			<path class="st1" d="M55.9,139.6h-2l-0.5,1.6h-1l2-6.4h1l2,6.4h-1L55.9,139.6z M54.9,136l-0.8,2.8h1.6L54.9,136z"/>
		</g>
		<g>
			<path class="st1" d="M61.6,141.2l-2.8-4.5v4.5h-1v-6.4h0.9l2.8,4.5v-4.5h1v6.4H61.6z"/>
		</g>
		<g>
			<path class="st1" d="M63.4,141.2v-6.4h1.9c2.1,0,2.7,1.4,2.7,3.2s-0.6,3.2-2.7,3.2H63.4z M64.4,140.3h1c1.3,0,1.7-0.9,1.7-2.3
				s-0.4-2.3-1.7-2.3h-1V140.3z"/>
		</g>
		<g>
			<path class="st1" d="M6.8,147c0-2,0.7-3.3,2.6-3.3c0.6,0,1.3,0.1,1.8,0.3v1c-0.5-0.2-1.1-0.4-1.7-0.4c-1.3,0-1.8,0.9-1.8,2.4
				s0.5,2.4,1.8,2.4c0.3,0,0.6,0,0.9-0.1v-1.7H9.3v-0.9h2.1v3.2c-0.6,0.3-1.3,0.4-2,0.4C7.5,150.3,6.8,149,6.8,147z"/>
		</g>
		<g>
			<path class="st1" d="M15.9,147.3h-2.6v2h2.9v0.9h-3.9v-6.4h3.9v0.9h-2.9v1.8h2.7L15.9,147.3z"/>
		</g>
		<g>
			<path class="st1" d="M20.7,150.2l-2.7-4.5v4.5h-0.9v-6.4h0.9l2.8,4.5v-4.5h0.9v6.4L20.7,150.2z"/>
		</g>
		<g>
			<path class="st1" d="M22.7,150.2v-6.4h1v6.4H22.7z"/>
		</g>
		<g>
			<path class="st1" d="M26.9,144.7v5.5H26v-5.5h-1.7v-0.9h4.3v0.9H26.9z"/>
		</g>
		<g>
			<path class="st1" d="M31.7,148.6h-2l-0.5,1.6h-1l2-6.4h1l2,6.4h-1L31.7,148.6z M30.7,145l-0.8,2.8h1.6L30.7,145z"/>
		</g>
		<g>
			<path class="st1" d="M34.6,149.3h2.8v0.9h-3.7v-6.4h1V149.3z"/>
		</g>
		<g>
			<path class="st1" d="M42.8,149.3h-0.9l-1.6-3.9v4.8h-1v-6.4h1.2l1.7,4.4l1.7-4.4h1.3v6.4h-1v-4.8L42.8,149.3z"/>
		</g>
		<g>
			<path class="st1" d="M46.2,148.2v-4.4h1v4.3c0,0.8,0.6,1.4,1.4,1.4s1.4-0.6,1.4-1.4v-4.3h1v4.4c0.1,1.1-0.8,2.1-1.9,2.1
				c-0.2,0-0.3,0-0.4,0c-1.1,0.1-2.2-0.6-2.3-1.8C46.2,148.4,46.2,148.3,46.2,148.2z"/>
		</g>
		<g>
			<path class="st1" d="M53.9,144.7v5.5H53v-5.5h-1.7v-0.9h4.3v0.9H53.9z"/>
		</g>
		<g>
			<path class="st1" d="M56.3,150.2v-6.4h1v6.4H56.3z"/>
		</g>
		<g>
			<path class="st1" d="M59.3,149.3H62v0.9h-3.7v-6.4h1L59.3,149.3z"/>
		</g>
		<g>
			<path class="st1" d="M65.8,148.6h-2l-0.5,1.6h-1l2-6.4h1l2,6.4h-1L65.8,148.6z M64.8,145l-0.8,2.8h1.6L64.8,145z"/>
		</g>
		<g>
			<path class="st1" d="M69.4,144.7v5.5h-1v-5.5h-1.6v-0.9h4.3v0.9H69.4z"/>
		</g>
		<g>
			<path class="st1" d="M71.7,150.2v-6.4h1v6.4H71.7z"/>
		</g>
		<g>
			<path class="st1" d="M73.7,147c0-1.8,0.4-3.3,2.4-3.3s2.5,1.5,2.5,3.3s-0.4,3.3-2.5,3.3S73.7,148.8,73.7,147z M74.7,147
				c0,1.5,0.3,2.4,1.5,2.4s1.5-0.9,1.5-2.4s-0.3-2.4-1.5-2.4S74.7,145.5,74.7,147L74.7,147z"/>
		</g>
		<g>
			<path class="st1" d="M83,150.2l-2.8-4.5v4.5h-0.9v-6.4h0.9l2.8,4.5v-4.5h1v6.4H83z"/>
		</g>
	</g>
	<g>
		<rect x="3.3" y="24" class="st1" width="94.8" height="94.8"/>
	</g>
	<g>
		<path class="st1" d="M98.2,20.7H3.3V3.3h94.8V20.7z M4.3,19.7h92.8V4.3H4.3L4.3,19.7z"/>
	</g>
	<g class="st2">
		<path class="st1" d="M6.7,6.9h4.5v1.4H9.9v8.8H8.1V8.3H6.7V6.9z"/>
	</g>
	<g class="st2">
		<path class="st1" d="M11.2,17.1l1.9-10.2h1.9L17,17.1h-1.8l-0.3-1.9h-1.8l-0.3,1.9H11.2z M13.3,13.9h1.4L14,9.8h0L13.3,13.9z"/>
	</g>
	<g class="st2">
		<path class="st1" d="M19.6,12.4v4.7h-1.7V6.9h2.5c1.7,0,2.4,0.9,2.4,2.3v1.3c0,1.1-0.4,1.7-1.4,2l1.6,4.6h-1.8L19.6,12.4z
			 M19.6,8.3v3.2h0.6c0.6,0,0.8-0.3,0.8-0.8V9.2c0-0.6-0.3-0.8-0.8-0.8H19.6z"/>
	</g>
	<g class="st2">
		<path class="st1" d="M26.4,11.7h2.4v5.4h-1.2V16c-0.2,0.8-0.7,1.2-1.6,1.2c-1.5,0-2.1-1.2-2.1-2.7V9.6c0-1.6,0.8-2.7,2.6-2.7
			c1.9,0,2.4,1.1,2.4,2.6v0.9h-1.6v-1c0-0.6-0.2-1-0.9-1c-0.6,0-0.9,0.4-0.9,1v5.5c0,0.6,0.3,1,0.8,1c0.6,0,0.8-0.3,0.8-1V13h-0.8
			V11.7z"/>
	</g>
	<g class="st2">
		<path class="st1" d="M30.2,6.9h4.1v1.4h-2.4v2.9h1.7v1.4h-1.7v3.1h2.4v1.4h-4.1V6.9z"/>
	</g>
	<g class="st2">
		<path class="st1" d="M35.1,6.9h4.5v1.4h-1.4v8.8h-1.7V8.3h-1.4V6.9z"/>
	</g>
	<g class="st2">
		<path class="st1" d="M84,12.4v2.5c0,1.4-0.7,2.3-2.4,2.3c-1.7,0-2.4-1-2.4-2.5v-1.2h1.6v1.3c0,0.6,0.2,1,0.8,1
			c0.5,0,0.7-0.4,0.7-0.9v-2.5c0-0.6-0.2-0.9-0.7-0.9c-0.5,0-0.8,0.3-0.8,0.9v0.2h-1.6V6.9h4.5v1.4h-2.9v2.5h0
			c0.3-0.5,0.8-0.7,1.4-0.7C83.1,10.2,84,10.8,84,12.4z"/>
	</g>
	<g class="st2">
	</g>
	<g class="st2">
		<path class="st1" d="M86.8,10.8c0.7,0,1.2,0.6,1.2,1.2c0,0.7-0.6,1.2-1.2,1.2c-0.7,0-1.2-0.6-1.2-1.2
			C85.6,11.4,86.1,10.8,86.8,10.8z"/>
	</g>
	<g class="st2">
		<path class="st1" d="M94.3,9.1V10c0,0.9-0.5,1.4-1.2,1.7c0.9,0.2,1.3,0.8,1.3,1.7v1.5c0,1.4-0.8,2.3-2.5,2.3c-1.7,0-2.4-1-2.4-2.5
			v-1.3h1.6v1.5c0,0.6,0.2,1,0.8,1c0.5,0,0.8-0.4,0.8-0.9v-1.7c0-0.5-0.2-0.8-0.8-0.8h-0.7v-1.3h0.6c0.6,0,0.9-0.3,0.9-0.8V9.2
			c0-0.6-0.2-0.9-0.7-0.9s-0.7,0.4-0.7,1v1h-1.6V9.4c0-1.5,0.6-2.6,2.4-2.6C93.6,6.8,94.3,7.7,94.3,9.1z"/>
	</g>
	<g>
		<path class="st1" d="M98.2,153.8H3.3v-31.6h94.8V153.8z M4.3,152.8h92.8v-29.6H4.3L4.3,152.8z"/>
	</g>
	<g>
		<g>
			<path class="st0" d="M56.2,43.1c-0.5-0.1-1-0.2-1.6-0.2l1.5-2l3.4-4.8l-4.7-4.5h-8.2l-4.7,4.5l4.2,5.9l0.7,1L46.1,43
				c-18.8,2.5-31.9,19.8-29.4,38.6s19.8,31.9,38.6,29.4s31.9-19.8,29.4-38.6C82.7,57.5,71.1,45.6,56.2,43.1L56.2,43.1z M21.2,77
				c0-16.3,13.2-29.6,29.6-29.6c7.2,0,14.2,2.7,19.7,7.5L57.7,67.5c-0.7-1-1.8-1.7-3-1.7h-8.5c-2.6,0-3.8,3.1-3.8,3.1l-3.8,12.3
				c0,0-0.6,2,1.1,2.4s2.2-1.4,2.2-1.4L45,71.7c0,0,0.2-0.7,0.7-0.5s0.3,0.9,0.3,0.9L43.3,82L28.7,96.6C23.8,91.2,21.2,84.2,21.2,77
				z M50.7,106.6c-6.8,0-13.4-2.3-18.7-6.7l11.1-11.1h1.5v9.9l0,0c0,1.7,0.8,3,2.4,3s2.4-1.3,2.4-3v-9.9l1-4.7l-1.7,0.8l2.6-8.6
				l-1.1,6.4l1.9-0.8l-0.8,6.9c0,0.3,0,0.5,0,0.5v9.4c0,1.7,0.8,3,2.4,3s2.4-1.3,2.4-3l0,0v-9.9h3.3L56,76l0.9-0.9l2.1,7.2
				c0,0,0.5,1.9,2.2,1.4s1.1-2.4,1.1-2.4l-2.7-8.8l14.1-14.1C84,71,82.1,89.6,69.4,99.9C64.2,104.2,57.6,106.6,50.7,106.6z"/>
		</g>
		<g>
			<path class="st0" d="M42.3,58c0.2-0.4,0.6-1.1,2.1-1.3c0.3,0,0.5-0.1,0.8-0.2c0.3-0.5,0.6-0.9,0.9-1.3c0-0.1,0-0.2,0-0.3
				c-0.1-0.7-0.8-1.5-2.3-0.8c-1.9,0.9-1.7,3.6-1.7,3.6C42.2,58,42.2,58.1,42.3,58z"/>
		</g>
		<g>
			<path class="st0" d="M55.8,56.4c0.3,0.2,0.6,0.3,0.9,0.3c1.5,0.2,2,0.9,2.1,1.3c0,0.1,0.1-0.1,0.1-0.3c0,0,0.2-2.8-1.7-3.6
				c-1.5-0.7-2.2,0.1-2.3,0.8c0,0.1,0,0.2,0,0.3C55.2,55.6,55.5,56,55.8,56.4z"/>
		</g>
		<g>
			<path class="st0" d="M50.5,64.5c2.8,0,5.2-2.3,5.2-5.2s-2.3-5.2-5.2-5.2s-5.2,2.3-5.2,5.2l0,0C45.3,62.2,47.6,64.5,50.5,64.5z"/>
		</g>
	</g>
</g>
</svg>
