<?xml version="1.0" encoding="utf-8"?>
<!-- Generator: Adobe Illustrator 22.0.1, SVG Export Plug-In . SVG Version: 6.00 Build 0)  -->
<svg version="1.1" id="Layer_1" xmlns="http://www.w3.org/2000/svg" xmlns:xlink="http://www.w3.org/1999/xlink" x="0px" y="0px"
	 viewBox="0 0 101.5 157.1" style="enable-background:new 0 0 101.5 157.1;" xml:space="preserve">
<style type="text/css">
	.st0{fill:#FFFFFF;}
	.st1{fill:#FF3A21;}
	.st2{enable-background:new    ;}
</style>
<title>TARGET 1.1</title>
<g id="WHITE_BG">
	<g>
		<rect y="0" class="st0" width="101.5" height="157.1"/>
	</g>
</g>
<g id="TARGETS">
	<g>
		<g>
			<path class="st1" d="M10.5,129.3H7.8v2h2.9v0.9H6.9v-6.4h3.9v0.9H7.8v1.8h2.6V129.3z"/>
		</g>
		<g>
			<path class="st1" d="M15.3,132.2l-2.8-4.5v4.5h-0.9v-6.4h0.9l2.8,4.5v-4.5h0.9v6.4H15.3z"/>
		</g>
		<g>
			<path class="st1" d="M17.1,132.2v-6.4H19c2.1,0,2.7,1.4,2.7,3.2s-0.6,3.2-2.7,3.2H17.1z M18.1,131.3h1c1.3,0,1.7-0.9,1.7-2.3
				s-0.4-2.3-1.7-2.3h-1V131.3z"/>
		</g>
		<g>
			<path class="st1" d="M23.9,132.2v-6.4h1.9c2.1,0,2.7,1.4,2.7,3.2s-0.6,3.2-2.7,3.2H23.9z M24.9,131.3h1c1.3,0,1.7-0.9,1.7-2.3
				s-0.4-2.3-1.7-2.3h-1V131.3z"/>
		</g>
		<g>
			<path class="st1" d="M29.4,132.2v-6.4h1v6.4H29.4z"/>
		</g>
		<g>
			<path class="st1" d="M35.6,130.3c0,1.2-0.7,2-2.4,2c-0.6,0-1.3-0.1-1.9-0.4v-1c0.6,0.3,1.2,0.4,1.8,0.4c1.1,0,1.5-0.5,1.5-1.1
				s-0.3-0.9-1.2-1c-1.6-0.2-2.2-0.6-2.2-1.8c0-0.9,0.5-1.8,2.3-1.8c0.6,0,1.2,0.1,1.7,0.3v1c-0.5-0.2-1.1-0.3-1.7-0.3
				c-1,0-1.3,0.4-1.3,1s0.4,0.8,1.2,0.9C34.8,128.7,35.6,129,35.6,130.3z"/>
		</g>
		<g>
			<path class="st1" d="M38.8,125.7c0.5,0,1,0.1,1.5,0.3v0.9c-0.5-0.2-0.9-0.3-1.4-0.3c-1.2,0-1.7,0.8-1.7,2.4
				c0,1.6,0.5,2.4,1.7,2.4c0.5,0,1-0.1,1.4-0.3v0.9c-0.5,0.2-1,0.3-1.5,0.3c-1.9,0-2.6-1.2-2.6-3.3S36.9,125.7,38.8,125.7z"/>
		</g>
		<g>
			<path class="st1" d="M42.1,132.2h-1v-6.4h2.1c1.7,0,2.2,0.7,2.2,1.9c0.1,0.7-0.3,1.4-1,1.7l1.3,2.8h-1.1l-1.2-2.6h-1.3V132.2z
				 M42.1,128.7h1.3c0.9,0,1-0.5,1-1s-0.1-1-1-1h-1.3V128.7z"/>
		</g>
		<g>
			<path class="st1" d="M46.3,132.2v-6.4h1v6.4H46.3z"/>
		</g>
		<g>
			<path class="st1" d="M51.8,131.3h-0.9l-1.6-3.9l0,4.8h-1v-6.4h1.2l1.7,4.3l1.7-4.3h1.2v6.4h-1v-4.8L51.8,131.3z"/>
		</g>
		<g>
			<path class="st1" d="M55.4,132.2v-6.4h1v6.4H55.4z"/>
		</g>
		<g>
			<path class="st1" d="M61.1,132.2l-2.8-4.5v4.5h-0.9v-6.4h0.9l2.8,4.5v-4.5h1v6.4H61.1z"/>
		</g>
		<g>
			<path class="st1" d="M66,130.6h-2l-0.5,1.6h-1l2-6.4h1l2,6.4h-1L66,130.6z M65,127l-0.8,2.8h1.6L65,127z"/>
		</g>
		<g>
			<path class="st1" d="M69.5,126.7v5.5h-1v-5.5h-1.6v-0.9h4.3v0.9L69.5,126.7z"/>
		</g>
		<g>
			<path class="st1" d="M71.9,132.2v-6.4h1v6.4H71.9z"/>
		</g>
		<g>
			<path class="st1" d="M73.7,129c0-1.8,0.4-3.3,2.5-3.3s2.4,1.5,2.4,3.3s-0.4,3.3-2.4,3.3S73.7,130.8,73.7,129z M74.7,129
				c0,1.5,0.3,2.4,1.5,2.4s1.5-0.9,1.5-2.4s-0.3-2.4-1.5-2.4S74.7,127.5,74.7,129L74.7,129z"/>
		</g>
		<g>
			<path class="st1" d="M83.1,132.2l-2.8-4.5v4.5h-1v-6.4h0.9l2.8,4.5v-4.5h1v6.4L83.1,132.2z"/>
		</g>
		<g>
			<path class="st1" d="M10.1,139.6h-2l-0.4,1.6h-1l2-6.4h1l2,6.4h-1L10.1,139.6z M9.1,136l-0.8,2.8h1.6L9.1,136z"/>
		</g>
		<g>
			<path class="st1" d="M11.8,138c0-2,0.7-3.3,2.6-3.3c0.6,0,1.3,0.1,1.8,0.3v1c-0.5-0.2-1.1-0.4-1.7-0.4c-1.3,0-1.8,0.9-1.8,2.4
				s0.5,2.4,1.8,2.4c0.3,0,0.6,0,0.9-0.1v-1.7h-1.1v-0.9h2.1v3.2c-0.6,0.3-1.3,0.4-2,0.4C12.5,141.3,11.8,140,11.8,138z"/>
		</g>
		<g>
			<path class="st1" d="M20.4,139.6h-2l-0.5,1.6h-1l2-6.4h1l2,6.4h-1L20.4,139.6z M19.4,136l-0.8,2.8h1.6L19.4,136z"/>
		</g>
		<g>
			<path class="st1" d="M22.5,141.2v-6.4h1v6.4H22.5z"/>
		</g>
		<g>
			<path class="st1" d="M28.2,141.2l-2.8-4.5v4.5h-1v-6.4h0.9l2.8,4.5v-4.5h0.9v6.4H28.2z"/>
		</g>
		<g>
			<path class="st1" d="M34.1,139.3c0,1.2-0.7,2-2.4,2c-0.6,0-1.3-0.1-1.9-0.4v-1c0.6,0.3,1.2,0.4,1.8,0.4c1.1,0,1.5-0.5,1.5-1.1
				s-0.3-0.9-1.1-1c-1.6-0.2-2.2-0.6-2.2-1.8c0-0.9,0.5-1.9,2.3-1.9c0.6,0,1.2,0.1,1.7,0.3v1c-0.5-0.2-1.1-0.3-1.7-0.3
				c-1,0-1.3,0.4-1.3,1s0.4,0.8,1.2,0.9C33.3,137.7,34.1,138,34.1,139.3z"/>
		</g>
		<g>
			<path class="st1" d="M36.8,135.7v5.5h-1v-5.5h-1.7v-0.9h4.3v0.9H36.8z"/>
		</g>
		<g>
			<path class="st1" d="M42.7,134.8h1.2l1.1,5l0.8-5h1l-1.2,6.5h-1.2l-1.1-5.3l-1.2,5.3H41l-1.2-6.5h1l0.8,5L42.7,134.8z"/>
		</g>
		<g>
			<path class="st1" d="M47.2,138c0-1.8,0.4-3.3,2.5-3.3s2.5,1.5,2.5,3.3s-0.4,3.3-2.5,3.3S47.2,139.8,47.2,138z M48.2,138
				c0,1.5,0.3,2.4,1.5,2.4s1.5-0.9,1.5-2.4s-0.3-2.4-1.5-2.4S48.2,136.5,48.2,138L48.2,138z"/>
		</g>
		<g>
			<path class="st1" d="M56.3,140.3h-0.9l-1.6-3.9v4.8h-1v-6.4h1.3l1.7,4.4l1.7-4.4h1.2v6.4h-1v-4.8L56.3,140.3z"/>
		</g>
		<g>
			<path class="st1" d="M63.3,138.3h-2.7v2h2.9v0.9h-3.9v-6.4h3.9v0.9h-2.9v1.8h2.7V138.3z"/>
		</g>
		<g>
			<path class="st1" d="M68.1,141.2l-2.8-4.5v4.5h-1v-6.4h0.9l2.8,4.5v-4.5h1v6.4H68.1z"/>
		</g>
		<g>
			<path class="st1" d="M74.5,139.6h-2l-0.5,1.6h-1l2-6.4h1l2,6.4h-1L74.5,139.6z M73.5,136l-0.8,2.8h1.6L73.5,136z"/>
		</g>
		<g>
			<path class="st1" d="M80.2,141.2l-2.8-4.5v4.5h-0.9v-6.4h0.9l2.8,4.5v-4.5h0.9v6.4H80.2z"/>
		</g>
		<g>
			<path class="st1" d="M82.1,141.2v-6.4h1.9c2.1,0,2.7,1.4,2.7,3.2s-0.6,3.2-2.7,3.2H82.1z M83.1,140.3h1c1.3,0,1.7-0.9,1.7-2.3
				s-0.4-2.3-1.7-2.3H83L83.1,140.3z"/>
		</g>
		<g>
			<path class="st1" d="M6.8,147c0-2,0.7-3.3,2.6-3.3c0.6,0,1.3,0.1,1.8,0.3v1c-0.5-0.2-1.1-0.4-1.7-0.4c-1.3,0-1.8,0.9-1.8,2.4
				s0.5,2.4,1.8,2.4c0.3,0,0.6,0,0.9-0.1v-1.7H9.3v-0.9h2.1v3.2c-0.6,0.3-1.3,0.4-2,0.4C7.5,150.3,6.8,149,6.8,147z"/>
		</g>
		<g>
			<path class="st1" d="M12.5,150.2v-6.4h1v6.4H12.5z"/>
		</g>
		<g>
			<path class="st1" d="M15.5,150.2h-1v-6.4h2.1c1.6,0,2.2,0.7,2.2,1.9c0.1,0.7-0.3,1.4-1,1.7l1.3,2.8h-1l-1.2-2.6h-1.4V150.2z
				 M15.5,146.7h1.3c0.9,0,1-0.5,1-1s-0.1-1-1-1h-1.3V146.7z"/>
		</g>
		<g>
			<path class="st1" d="M20.5,149.3h2.8v0.9h-3.7v-6.4h1L20.5,149.3z"/>
		</g>
		<g>
			<path class="st1" d="M28,148.3c0,1.2-0.7,2-2.4,2c-0.6,0-1.3-0.1-1.9-0.4v-1c0.6,0.3,1.2,0.4,1.8,0.4c1.1,0,1.5-0.5,1.5-1.1
				s-0.3-0.9-1.2-1c-1.5-0.2-2.1-0.6-2.1-1.8c0-0.9,0.5-1.9,2.3-1.9c0.6,0,1.2,0.1,1.7,0.3v1c-0.5-0.2-1.1-0.3-1.7-0.3
				c-1,0-1.3,0.4-1.3,1s0.4,0.8,1.2,0.9C27.2,146.7,28,147,28,148.3z"/>
		</g>
	</g>
	<g>
		<rect x="3.3" y="24" class="st1" width="94.8" height="94.8"/>
	</g>
	<g>
		<path class="st1" d="M98.2,20.7H3.3V3.3h94.8V20.7z M4.3,19.7h92.8V4.3H4.3L4.3,19.7z"/>
	</g>
	<g class="st2">
		<path class="st1" d="M6.7,6.9h4.5v1.4H9.9v8.8H8.1V8.3H6.7V6.9z"/>
	</g>
	<g class="st2">
		<path class="st1" d="M11.2,17.1l1.9-10.2h1.9L17,17.1h-1.8l-0.3-1.9h-1.8l-0.3,1.9H11.2z M13.3,13.9h1.4L14,9.8h0L13.3,13.9z"/>
	</g>
	<g class="st2">
		<path class="st1" d="M19.6,12.4v4.7h-1.7V6.9h2.5c1.7,0,2.4,0.9,2.4,2.3v1.3c0,1.1-0.4,1.7-1.4,2l1.6,4.6h-1.8L19.6,12.4z
			 M19.6,8.3v3.2h0.6c0.6,0,0.8-0.3,0.8-0.8V9.2c0-0.6-0.3-0.8-0.8-0.8H19.6z"/>
	</g>
	<g class="st2">
		<path class="st1" d="M26.4,11.7h2.4v5.4h-1.2V16c-0.2,0.8-0.7,1.2-1.6,1.2c-1.5,0-2.1-1.2-2.1-2.7V9.6c0-1.6,0.8-2.7,2.6-2.7
			c1.9,0,2.4,1.1,2.4,2.6v0.9h-1.6v-1c0-0.6-0.2-1-0.9-1c-0.6,0-0.9,0.4-0.9,1v5.5c0,0.6,0.3,1,0.8,1c0.6,0,0.8-0.3,0.8-1V13h-0.8
			V11.7z"/>
	</g>
	<g class="st2">
		<path class="st1" d="M30.2,6.9h4.1v1.4h-2.4v2.9h1.7v1.4h-1.7v3.1h2.4v1.4h-4.1V6.9z"/>
	</g>
	<g class="st2">
		<path class="st1" d="M35.1,6.9h4.5v1.4h-1.4v8.8h-1.7V8.3h-1.4V6.9z"/>
	</g>
	<g class="st2">
		<path class="st1" d="M85.7,12.4v2.5c0,1.4-0.7,2.3-2.4,2.3c-1.7,0-2.4-1-2.4-2.5v-1.2h1.6v1.3c0,0.6,0.2,1,0.8,1
			c0.5,0,0.7-0.4,0.7-0.9v-2.5c0-0.6-0.2-0.9-0.7-0.9c-0.5,0-0.8,0.3-0.8,0.9v0.2H81V6.9h4.5v1.4h-2.9v2.5h0
			c0.3-0.5,0.8-0.7,1.4-0.7C84.9,10.2,85.7,10.8,85.7,12.4z"/>
	</g>
	<g class="st2">
	</g>
	<g class="st2">
		<path class="st1" d="M88.6,10.8c0.7,0,1.2,0.6,1.2,1.2c0,0.7-0.6,1.2-1.2,1.2c-0.7,0-1.2-0.6-1.2-1.2
			C87.3,11.4,87.9,10.8,88.6,10.8z"/>
	</g>
	<g class="st2">
		<path class="st1" d="M94.1,6.9v10.2h-1.7V9.3h0l-1.2,1.2h0V8.8l1.6-1.8H94.1z"/>
	</g>
	<g>
		<g>
			<path class="st0" d="M49.1,56.1L49.1,56.1c2.3,0,4.1-1.8,4.1-4.1c0-2.3-1.8-4.1-4.1-4.1l0,0l0,0c-2.3,0-4.1,1.8-4.1,4.1
				C45,54.2,46.9,56.1,49.1,56.1z"/>
		</g>
		<g>
			<path class="st0" d="M76,58.4c2.3,0,4.1-1.8,4.1-4.1c0-1.6-0.9-3-2.3-3.7c0.1-0.2,0.2-0.4,0.2-0.6c-0.3-1.1-1.4-1.8-2.5-1.6
				c-0.8,0.2-1.4,0.8-1.6,1.6c0,0.3,0.1,0.5,0.2,0.7c-2,1.1-2.7,3.5-1.6,5.5c0.7,1.3,2.1,2.2,3.6,2.1L76,58.4z"/>
		</g>
		<g>
			<path class="st0" d="M86.1,75.6c0-0.1,0-0.1-0.1-0.2c1.2-0.7,0.7-2.2,0.7-2.2l-0.6-1.7l-2.7-8.7c0,0-1.1-3.1-3.7-3.1l-6-0.1
				c-0.9,0-1.8-0.3-2.4-0.9l-7.5-11.2l-0.1-0.1c-0.2-0.4-0.6-0.7-1-0.8c-0.2,0-0.4-0.1-0.6,0c-0.3,0-0.6,0-1.4,0.9l-7.2,9.1
				c-0.8,0.7-1.8,1-2.8,1h-3.4c-1,0-2-0.3-2.8-1l-7.2-9.1c-0.8-0.9-1-0.9-1.4-0.9c-0.2,0-0.4,0-0.6,0c-0.5,0.1-0.8,0.5-1,0.9l0,0
				L27,58.7c-0.7,0.6-1.5,0.9-2.4,0.9l-6,0.1c-2.5,0-3.7,3.1-3.7,3.1l-3.2,10.4c0,0-0.6,1.9,1,2.4s2.1-1.4,2.1-1.4l2.6-8.7
				c0,0,0.1-0.7,0.6-0.5s0.3,0.9,0.3,0.9l-4.5,16.3H18v11.7c0,1.1,0.9,2,2,2s2-0.9,2-2V82.1h1.5v11.7c0,1.1,0.9,2,2,2s2-0.9,2-2
				V82.1h4.2l-4-14.8c-0.2-0.9,0-1.9,0.4-2.7l2.6-4.8l4.7-7.9c0,0,0.4-0.6,0.8-1.2l4.7,7l2.8,5.1c0.5,0.9,0.6,1.9,0.4,2.9l-4.3,15.6
				h4.4v12.4c0.1,1.2,1.1,2.1,2.3,2c1.1-0.1,1.9-0.9,2-2V81.3h1.2v12.4c0.1,1.2,1.1,2.1,2.3,2c1.1-0.1,1.9-0.9,2-2V81.3h4.5
				l-4.3-15.6c-0.2-1,0-2,0.4-2.9l2.8-5.1l4.7-7.1c0.4,0.7,0.8,1.3,0.8,1.3l4.7,7.9l2.6,4.8c0.4,0.8,0.6,1.8,0.4,2.7l-4.1,14.8h4.2
				v11.7c0,1.1,0.9,2,2,2s2-0.9,2-2V82.1h1.4v11.7c0,1.1,0.9,2,2,2s2-0.9,2-2V82.1h4.2L80,65.8c0,0-0.2-0.7,0.3-0.9s0.6,0.5,0.6,0.5
				l2,6.9l0.5,1.7c0,0,0.3,1.3,1.4,1.5c0,0.1,0,0.1,0,0.2l3.7,19.5c0.1,0.3,0.3,0.5,0.6,0.5h0.1c0.3-0.1,0.5-0.4,0.5-0.7L86.1,75.6z
				"/>
		</g>
		<g>
			<g>
				<path class="st0" d="M19.5,51.3c-0.1-0.5-0.6-1.1-1.7-0.6c-1.4,0.6-1.2,2.6-1.2,2.6c0,0.2,0,0.3,0.1,0.2c0.1-0.3,0.4-0.8,1.5-1
					c0.2,0,0.4-0.1,0.6-0.2c0.2-0.3,0.4-0.7,0.7-0.9C19.5,51.4,19.5,51.3,19.5,51.3z"/>
			</g>
			<g>
				<path class="st0" d="M27.5,50.7c-1.1-0.5-1.6,0.1-1.7,0.6c0,0.1,0,0.2,0,0.3c0.2,0.3,0.4,0.5,0.6,0.9c0.2,0.1,0.4,0.2,0.6,0.2
					c1.1,0.2,1.4,0.7,1.5,1c0,0.1,0.1,0,0.1-0.2C28.8,53.3,28.9,51.4,27.5,50.7z"/>
			</g>
			<g>
				<path class="st0" d="M22.7,50.8c-2.1,0-3.7,1.7-3.7,3.7s1.7,3.7,3.7,3.7s3.7-1.7,3.7-3.7c0,0,0,0,0,0
					C26.4,52.5,24.8,50.8,22.7,50.8C22.7,50.8,22.7,50.8,22.7,50.8z"/>
			</g>
		</g>
	</g>
	<g>
		<path class="st1" d="M98.2,153.8H3.3v-31.6h94.8V153.8z M4.3,152.8h92.8v-29.6H4.3L4.3,152.8z"/>
	</g>
</g>
</svg>
