<?xml version="1.0" encoding="utf-8"?>
<!-- Generator: Adobe Illustrator 22.0.1, SVG Export Plug-In . SVG Version: 6.00 Build 0)  -->
<svg version="1.1" id="Layer_1" xmlns="http://www.w3.org/2000/svg" xmlns:xlink="http://www.w3.org/1999/xlink" x="0px" y="0px"
	 viewBox="0 0 101.5 166.2" style="enable-background:new 0 0 101.5 166.2;" xml:space="preserve">
<style type="text/css">
	.st0{fill:#FFFFFF;}
	.st1{fill:#FF3A21;}
	.st2{enable-background:new    ;}
</style>
<title>TARGET 1 B copy 4</title>
<g id="WHITE_BG">
	<g>
		<rect y="0" class="st0" width="101.5" height="166.2"/>
	</g>
</g>
<g id="TARGETS">
	<g>
		<g>
			<path class="st1" d="M7.8,132.2h-1v-6.4h2.1c1.6,0,2.2,1,2.2,2c0,1-0.6,2-2.2,2H7.8V132.2z M7.8,128.9H9c0.6,0.1,1.2-0.4,1.2-1
				c0.1-0.6-0.4-1.2-1-1.2c-0.1,0-0.1,0-0.2,0H7.8V128.9z"/>
		</g>
		<g>
			<path class="st1" d="M12.7,132.2h-1v-6.4h2.1c1.6,0,2.2,0.7,2.2,1.9c0.1,0.7-0.3,1.4-1,1.7l1.3,2.8h-1.1l-1.2-2.6h-1.3V132.2z
				 M12.7,128.7H14c0.9,0,1-0.5,1-1s-0.1-1-1-1h-1.3V128.7z"/>
		</g>
		<g>
			<path class="st1" d="M16.7,129c0-1.8,0.4-3.3,2.5-3.3s2.5,1.5,2.5,3.3s-0.4,3.3-2.5,3.3S16.7,130.8,16.7,129z M17.7,129
				c0,1.5,0.3,2.4,1.5,2.4s1.5-0.9,1.5-2.4s-0.3-2.4-1.5-2.4S17.6,127.5,17.7,129L17.7,129z"/>
		</g>
		<g>
			<path class="st1" d="M25.7,131.3h-0.9l-1.6-3.9l0,4.8h-1v-6.4h1.2l1.7,4.3l1.8-4.3h1.2v6.4h-1v-4.8L25.7,131.3z"/>
		</g>
		<g>
			<path class="st1" d="M29.1,129c0-1.8,0.4-3.3,2.5-3.3s2.5,1.5,2.5,3.3c0,1.8-0.4,3.3-2.5,3.3S29.1,130.8,29.1,129z M30.1,129
				c0,1.5,0.3,2.4,1.5,2.4s1.4-0.9,1.4-2.4s-0.3-2.4-1.5-2.4S30.1,127.5,30.1,129L30.1,129z"/>
		</g>
		<g>
			<path class="st1" d="M36.7,126.7v5.5h-1v-5.5h-1.7v-0.9h4.3v0.9H36.7z"/>
		</g>
		<g>
			<path class="st1" d="M42.7,129.3H40v2h2.9v0.9H39v-6.4h3.9v0.9H40v1.8h2.7V129.3z"/>
		</g>
		<g>
			<path class="st1" d="M10.5,138.3H7.8v2h2.9v0.9H6.9v-6.4h3.9v0.9H7.8v1.8h2.6V138.3z"/>
		</g>
		<g>
			<path class="st1" d="M15,140.3h-0.9l-1.6-3.9v4.8h-1v-6.4h1.2l1.7,4.3l1.7-4.3h1.3v6.4h-1l0-4.8L15,140.3z"/>
		</g>
		<g>
			<path class="st1" d="M19.4,141.2h-1v-6.4h2c1.6,0,2.2,0.9,2.2,2s-0.6,2-2.2,2h-1V141.2z M19.4,137.9h1.1c0.6,0.1,1.2-0.4,1.2-1
				s-0.4-1.2-1-1.2c-0.1,0-0.1,0-0.2,0h-1.1V137.9z"/>
		</g>
		<g>
			<path class="st1" d="M23.1,138c0-1.8,0.4-3.3,2.5-3.3s2.5,1.5,2.5,3.3s-0.4,3.3-2.5,3.3S23.1,139.8,23.1,138z M24.1,138
				c0,1.5,0.3,2.4,1.5,2.4s1.4-0.9,1.4-2.4s-0.3-2.4-1.5-2.4S24.1,136.5,24.1,138L24.1,138z"/>
		</g>
		<g>
			<path class="st1" d="M31.3,134.8h1.2l1.1,5l0.8-5h1l-1.2,6.4h-1.2l-1.1-5.3l-1.2,5.3h-1.2l-1.2-6.4h1l0.8,5L31.3,134.8z"/>
		</g>
		<g>
			<path class="st1" d="M39.6,138.3H37v2h2.9v0.9H36v-6.4h3.9v0.9H37v1.8h2.6V138.3z"/>
		</g>
		<g>
			<path class="st1" d="M41.7,141.2h-1v-6.4h2.1c1.7,0,2.2,0.7,2.2,1.9c0.1,0.7-0.3,1.4-1,1.7l1.3,2.8h-1.1l-1.2-2.6h-1.3V141.2z
				 M41.7,137.7h1.3c0.9,0,1-0.5,1-1s-0.1-1-1-1h-1.3V137.7z"/>
		</g>
		<g>
			<path class="st1" d="M49.3,140.3h-0.9l-1.6-3.9v4.8h-1v-6.4H47l1.7,4.3l1.7-4.3h1.2v6.4h-1v-4.8L49.3,140.3z"/>
		</g>
		<g>
			<path class="st1" d="M56.4,138.3h-2.7v2h2.9v0.9h-3.9v-6.4h3.9v0.9h-2.9v1.8h2.7V138.3z"/>
		</g>
		<g>
			<path class="st1" d="M61.2,141.2l-2.8-4.5v4.5h-0.9v-6.4h0.9l2.8,4.5v-4.5H62v6.4H61.2z"/>
		</g>
		<g>
			<path class="st1" d="M65.2,135.7v5.5h-1v-5.5h-1.6v-0.9h4.3v0.9H65.2z"/>
		</g>
		<g>
			<path class="st1" d="M68.5,138c0-1.8,0.4-3.3,2.5-3.3s2.4,1.5,2.4,3.3s-0.4,3.3-2.4,3.3S68.5,139.8,68.5,138z M69.5,138
				c0,1.5,0.3,2.4,1.5,2.4s1.5-0.9,1.5-2.4s-0.3-2.4-1.5-2.4S69.5,136.5,69.5,138L69.5,138z"/>
		</g>
		<g>
			<path class="st1" d="M77.7,138.4h-2.6v2.8h-1v-6.4H78v0.9h-2.9v1.8h2.6V138.4z"/>
		</g>
		<g>
			<path class="st1" d="M9.5,143.8h1.2l1.1,5l0.8-5h1l-1.2,6.4h-1.1l-1.1-5.3L9,150.3H7.8l-1.2-6.4h1l0.8,5L9.5,143.8z"/>
		</g>
		<g>
			<path class="st1" d="M14,147c0-1.8,0.4-3.3,2.5-3.3s2.5,1.5,2.5,3.3s-0.4,3.3-2.5,3.3S14,148.8,14,147z M15,147
				c0,1.5,0.3,2.4,1.5,2.4s1.5-0.9,1.5-2.4s-0.3-2.4-1.5-2.4S15,145.5,15,147z"/>
		</g>
		<g>
			<path class="st1" d="M23.1,149.3h-0.9l-1.6-3.9l0,4.8h-1v-6.4h1.3l1.7,4.3l1.7-4.3h1.2v6.4h-1v-4.8L23.1,149.3z"/>
		</g>
		<g>
			<path class="st1" d="M30.1,147.3h-2.6v2h2.9v0.9h-3.9v-6.4h3.9v0.9h-2.9v1.8h2.6V147.3z"/>
		</g>
		<g>
			<path class="st1" d="M34.9,150.2l-2.8-4.5v4.5h-0.9v-6.4h0.9l2.8,4.5v-4.5h1v6.4H34.9z"/>
		</g>
		<g>
			<path class="st1" d="M40.2,144.7v5.5h-1v-5.5h-1.6v-0.9h4.3v0.9H40.2z"/>
		</g>
		<g>
			<path class="st1" d="M45.9,150.2v-2.9h-2.6v2.9h-1v-6.4h1v2.6h2.6v-2.6h1v6.4H45.9z"/>
		</g>
		<g>
			<path class="st1" d="M48.8,150.2h-1v-6.4h2.1c1.7,0,2.2,0.7,2.2,1.9c0.1,0.7-0.3,1.4-1,1.7l1.3,2.8h-1.1l-1.2-2.6h-1.3V150.2z
				 M48.8,146.7H50c0.9,0,1-0.5,1-1s-0.1-1-1-1h-1.2V146.7z"/>
		</g>
		<g>
			<path class="st1" d="M52.7,147c0-1.8,0.4-3.3,2.5-3.3s2.5,1.5,2.5,3.3s-0.4,3.3-2.5,3.3S52.7,148.8,52.7,147z M53.7,147
				c0,1.5,0.3,2.4,1.5,2.4s1.5-0.9,1.5-2.4s-0.3-2.4-1.5-2.4S53.7,145.5,53.7,147L53.7,147z"/>
		</g>
		<g>
			<path class="st1" d="M58.3,148.2v-4.4h1v4.3c0,0.8,0.6,1.4,1.4,1.4s1.4-0.6,1.4-1.4v-4.3h1v4.4c-0.1,1.3-1.3,2.2-2.6,2.1
				C59.3,150.1,58.5,149.3,58.3,148.2L58.3,148.2z"/>
		</g>
		<g>
			<path class="st1" d="M63.6,147c0-2,0.7-3.3,2.6-3.3c0.6,0,1.3,0.1,1.8,0.3v1c-0.5-0.2-1.1-0.4-1.7-0.4c-1.3,0-1.8,0.9-1.8,2.4
				s0.5,2.4,1.8,2.4c0.3,0,0.6,0,0.9-0.1v-1.7h-1.1v-0.9h2.1v3.2c-0.6,0.3-1.3,0.4-2,0.4C64.3,150.3,63.6,149,63.6,147z"/>
		</g>
		<g>
			<path class="st1" d="M72.7,150.2v-2.9h-2.6v2.9h-1v-6.4h1v2.6h2.6v-2.6h1v6.4H72.7z"/>
		</g>
		<g>
			<path class="st1" d="M9.2,153.7v5.5h-1v-5.5H6.6v-0.9h4.3v0.9H9.2z"/>
		</g>
		<g>
			<path class="st1" d="M15.1,156.3h-2.7v2h2.9v0.9h-3.9v-6.4h3.9v0.9h-2.9v1.8h2.6L15.1,156.3z"/>
		</g>
		<g>
			<path class="st1" d="M18.7,152.7c0.5,0,1,0.1,1.5,0.3v0.9c-0.5-0.2-0.9-0.3-1.4-0.3c-1.2,0-1.7,0.8-1.7,2.4s0.5,2.4,1.7,2.4
				c0.5,0,1-0.1,1.4-0.3v0.9c-0.5,0.2-1,0.3-1.5,0.3c-1.9,0-2.6-1.2-2.6-3.3S16.8,152.7,18.7,152.7z"/>
		</g>
		<g>
			<path class="st1" d="M24.4,159.2v-2.9h-2.6v2.9h-1v-6.4h1v2.6h2.6v-2.6h1v6.4H24.4z"/>
		</g>
		<g>
			<path class="st1" d="M30,159.2l-2.8-4.5v4.5h-0.9v-6.4h0.9l2.9,4.5v-4.5h0.9v6.4H30z"/>
		</g>
		<g>
			<path class="st1" d="M31.8,156c0-1.8,0.4-3.3,2.5-3.3s2.5,1.5,2.5,3.3s-0.4,3.3-2.5,3.3S31.8,157.8,31.8,156z M32.8,156
				c0,1.5,0.3,2.4,1.5,2.4s1.5-0.9,1.5-2.4s-0.3-2.4-1.5-2.4S32.7,154.5,32.8,156L32.8,156z"/>
		</g>
		<g>
			<path class="st1" d="M38.4,158.3h2.8v0.9h-3.7v-6.4h1L38.4,158.3z"/>
		</g>
		<g>
			<path class="st1" d="M41.2,156c0-1.8,0.4-3.3,2.5-3.3s2.5,1.5,2.5,3.3s-0.4,3.3-2.5,3.3S41.2,157.8,41.2,156z M42.2,156
				c0,1.5,0.3,2.4,1.5,2.4s1.5-0.9,1.5-2.4s-0.3-2.4-1.5-2.4S42.2,154.5,42.2,156L42.2,156z"/>
		</g>
		<g>
			<path class="st1" d="M46.8,156c0-2,0.7-3.3,2.6-3.3c0.6,0,1.3,0.1,1.8,0.3v1c-0.5-0.2-1.1-0.4-1.7-0.4c-1.3,0-1.8,0.9-1.8,2.4
				s0.5,2.4,1.8,2.4c0.3,0,0.6,0,0.9-0.1v-1.7h-1.1v-0.9h2.1v3.2c-0.6,0.3-1.3,0.4-2,0.4C47.5,159.3,46.8,158,46.8,156z"/>
		</g>
		<g>
			<path class="st1" d="M54.8,156.6v2.6h-1v-2.6l-2.2-3.8h1.1l1.6,3l1.6-3H57L54.8,156.6z"/>
		</g>
	</g>
	<g>
		<rect x="3.3" y="24" class="st1" width="94.8" height="94.8"/>
	</g>
	<g>
		<path class="st1" d="M98.2,20.7H3.3V3.3h94.8V20.7z M4.3,19.7h92.8V4.3H4.3L4.3,19.7z"/>
	</g>
	<g class="st2">
		<path class="st1" d="M6.7,6.9h4.5v1.4H9.9v8.8H8.1V8.3H6.7V6.9z"/>
	</g>
	<g class="st2">
		<path class="st1" d="M11.2,17.1l1.9-10.2h1.9L17,17.1h-1.8l-0.3-1.9h-1.8l-0.3,1.9H11.2z M13.3,13.9h1.4L14,9.8h0L13.3,13.9z"/>
	</g>
	<g class="st2">
		<path class="st1" d="M19.6,12.4v4.7h-1.7V6.9h2.5c1.7,0,2.4,0.9,2.4,2.3v1.3c0,1.1-0.4,1.7-1.4,2l1.6,4.6h-1.8L19.6,12.4z
			 M19.6,8.3v3.2h0.6c0.6,0,0.8-0.3,0.8-0.8V9.2c0-0.6-0.3-0.8-0.8-0.8H19.6z"/>
	</g>
	<g class="st2">
		<path class="st1" d="M26.4,11.7h2.4v5.4h-1.2V16c-0.2,0.8-0.7,1.2-1.6,1.2c-1.5,0-2.1-1.2-2.1-2.7V9.6c0-1.6,0.8-2.7,2.6-2.7
			c1.9,0,2.4,1.1,2.4,2.6v0.9h-1.6v-1c0-0.6-0.2-1-0.9-1c-0.6,0-0.9,0.4-0.9,1v5.5c0,0.6,0.3,1,0.8,1c0.6,0,0.8-0.3,0.8-1V13h-0.8
			V11.7z"/>
	</g>
	<g class="st2">
		<path class="st1" d="M30.2,6.9h4.1v1.4h-2.4v2.9h1.7v1.4h-1.7v3.1h2.4v1.4h-4.1V6.9z"/>
	</g>
	<g class="st2">
		<path class="st1" d="M35.1,6.9h4.5v1.4h-1.4v8.8h-1.7V8.3h-1.4V6.9z"/>
	</g>
	<g class="st2">
		<path class="st1" d="M89.4,6.9h2.5c1.7,0,2.3,0.8,2.3,2.2v1c0,0.9-0.3,1.4-1,1.6c0.9,0.2,1.3,0.8,1.3,1.7v1.3
			c0,1.4-0.6,2.2-2.4,2.2h-2.7V6.9z M91.1,11.2h0.6c0.6,0,0.8-0.3,0.8-0.8V9.2c0-0.6-0.3-0.8-0.8-0.8h-0.6V11.2z M91.1,12.5v3.2h0.8
			c0.6,0,0.8-0.3,0.8-0.8v-1.5c0-0.5-0.3-0.8-0.9-0.8H91.1z"/>
	</g>
	<g class="st2">
		<path class="st1" d="M83.2,12.4v2.5c0,1.4-0.7,2.3-2.4,2.3c-1.7,0-2.4-1-2.4-2.5v-1.2H80v1.3c0,0.6,0.2,1,0.8,1
			c0.5,0,0.7-0.4,0.7-0.9v-2.5c0-0.6-0.2-0.9-0.7-0.9c-0.5,0-0.8,0.3-0.8,0.9v0.2h-1.6V6.9h4.5v1.4H80v2.5h0
			c0.3-0.5,0.8-0.7,1.4-0.7C82.4,10.1,83.2,10.8,83.2,12.4z"/>
	</g>
	<g>
		<polygon class="st1" points="85.4,9.9 85.4,14.1 87.6,12 		"/>
	</g>
	<g>
		<path class="st1" d="M98.2,162.9h-95v-40.7h95V162.9z M4.2,161.9h93v-38.7h-93V161.9z"/>
	</g>
	<g>
		<g>
			<g>
				<g>
					<path class="st0" d="M54.1,45.5c0-1.2-0.3-2.4-0.8-3.5L52,42.9c0.4,0.8,0.6,1.8,0.6,2.7c0,1.1-0.3,2.1-0.8,3.1l1.3,0.8
						C53.8,48.3,54.1,46.9,54.1,45.5z"/>
				</g>
				<g>
					<path class="st0" d="M56.9,39.6l-1.2,0.8c0.8,1.5,1.3,3.3,1.3,5c0,1.9-0.5,3.9-1.5,5.5l1.2,0.8c1.1-1.9,1.7-4.1,1.7-6.3
						C58.4,43.5,57.9,41.4,56.9,39.6z"/>
				</g>
				<g>
					<path class="st0" d="M61.3,45.5c0,2.8-0.7,5.5-2.2,7.9l1.2,0.8c3.2-5.2,3.2-11.8,0.1-17L59.3,38C60.6,40.3,61.3,42.9,61.3,45.5
						z"/>
				</g>
			</g>
			<g>
				<g>
					<path class="st0" d="M44.9,36.8c0-0.4-0.3-0.7-0.7-0.7H20.4c-0.4,0-0.7,0.3-0.7,0.7v15h25.2V36.8z M43.9,50.9h-23V37.2h23V50.9
						z"/>
				</g>
				<g>
					<path class="st0" d="M45,52.4H19.8l-2,1.6v0.7c0,0.3,0.5,0.3,0.5,0.3h28.5c0.3,0,0.3-0.4,0.3-0.4V54L45,52.4z M34.4,54.4h-4.2
						v-0.5h4.2V54.4z"/>
				</g>
			</g>
			<g>
				<path class="st0" d="M78.7,35.9h-8.8c-0.6,0-1,0.4-1,1v18.3c0,0.6,0.4,1,1,1h8.8c0.6,0,1-0.4,1-1V36.9
					C79.7,36.4,79.3,35.9,78.7,35.9C78.7,35.9,78.7,35.9,78.7,35.9z M74.4,55.1c-0.6,0-1.1-0.5-1.1-1.1c0-0.6,0.5-1.1,1.1-1.1
					c0.6,0,1.1,0.5,1.1,1.1c0,0,0,0,0,0C75.5,54.6,75,55.1,74.4,55.1z M79,51.7h-9.2V36.8H79V51.7z"/>
			</g>
		</g>
		<g>
			<g>
				<path class="st0" d="M49.6,73.3L49.6,73.3c1.9,0,3.4-1.5,3.4-3.4c0-1.9-1.5-3.4-3.4-3.4l0,0c-1.9,0-3.4,1.5-3.4,3.4
					C46.2,71.8,47.8,73.3,49.6,73.3z"/>
			</g>
			<g>
				<path class="st0" d="M72.1,75.2c1.9,0,3.4-1.5,3.4-3.4c0-1.3-0.7-2.5-1.9-3.1c0.1-0.2,0.1-0.3,0.1-0.5c-0.2-0.9-1.2-1.5-2.1-1.3
					c-0.7,0.2-1.2,0.7-1.3,1.3c0,0.2,0.1,0.4,0.2,0.6c-1.6,0.9-2.2,3-1.3,4.6C69.7,74.5,70.8,75.2,72.1,75.2z"/>
			</g>
			<g>
				<path class="st0" d="M80.4,89.6c0,0,0-0.1-0.1-0.1c1-0.6,0.6-1.8,0.6-1.8l-0.5-1.4l-2.2-7.2c0,0-1-2.6-3.1-2.6l-5-0.1
					c-0.7,0-1.5-0.3-2-0.8L62,66.1l0-0.1c-0.2-0.3-0.5-0.6-0.8-0.7c-0.2,0-0.3,0-0.5,0c-0.3,0-0.5,0-1.1,0.8l-6,7.6
					c-0.6,0.6-1.5,0.9-2.3,0.9h-2.9c-0.9,0-1.7-0.3-2.3-0.9l-6-7.6c-0.7-0.8-0.9-0.7-1.1-0.8c-0.2,0-0.3,0-0.5,0
					c-0.4,0.1-0.7,0.4-0.8,0.8l0,0l-6.2,9.3c-0.5,0.5-1.3,0.8-2,0.8l-5,0.1c-2.2,0-3.2,2.6-3.2,2.6l-2.7,8.7c0,0-0.5,1.6,0.9,2
					s1.8-1.2,1.8-1.2l2.1-7.2c0,0,0.1-0.6,0.5-0.4s0.3,0.7,0.3,0.7L20.2,95h3.5v9.7c0,0.9,0.7,1.7,1.7,1.7s1.7-0.7,1.7-1.7V95h1.2
					v9.8c0,0.9,0.8,1.7,1.7,1.7s1.7-0.8,1.7-1.7V95h3.5l-3.4-12.3c-0.2-0.8,0-1.6,0.3-2.3l2.2-4l3.9-6.6c0,0,0.3-0.5,0.7-1l3.9,5.9
					l2.3,4.2c0.4,0.7,0.5,1.6,0.4,2.4l-3.6,13h3.7v10.3c0,1,0.8,1.8,1.8,1.8c1,0,1.8-0.8,1.8-1.8l0,0V94.3h1v10.4
					c0,1,0.8,1.8,1.8,1.8c1,0,1.8-0.8,1.8-1.8l0,0V94.3h3.7l-3.6-13c-0.2-0.8,0-1.7,0.3-2.4l2.3-4.2l3.9-5.9c0.3,0.6,0.7,1,0.7,1
					l3.9,6.6l2.2,4c0.4,0.7,0.5,1.5,0.3,2.3L64.2,95h3.5v9.8c0,0.9,0.8,1.7,1.7,1.7s1.7-0.8,1.7-1.7V95h1.2v9.7
					c0,0.9,0.8,1.7,1.7,1.7c0.9,0,1.7-0.7,1.7-1.7V95h3.5l-3.7-13.6c0,0-0.2-0.6,0.3-0.7s0.5,0.4,0.5,0.4l1.7,5.8l0.4,1.4
					c0,0,0.3,1.1,1.2,1.2c0,0,0,0.1,0,0.1l3.1,16.2c0,0.2,0.3,0.4,0.5,0.4h0.1c0.3-0.1,0.5-0.3,0.4-0.6L80.4,89.6z"/>
			</g>
			<g>
				<g>
					<path class="st0" d="M24.9,69.3c0-0.4-0.5-0.9-1.4-0.5c-1.1,0.5-1,2.2-1,2.2s0,0.2,0.1,0.2c0.1-0.2,0.4-0.7,1.3-0.8
						c0.2,0,0.3-0.1,0.5-0.2c0.1-0.3,0.3-0.5,0.6-0.8C24.9,69.4,24.9,69.4,24.9,69.3z"/>
				</g>
				<g>
					<path class="st0" d="M31.6,68.8c-0.9-0.4-1.3,0.1-1.4,0.5c0,0.1,0,0.1,0,0.2c0.2,0.2,0.4,0.5,0.5,0.7c0.2,0.1,0.3,0.2,0.5,0.2
						c0.9,0.1,1.2,0.6,1.3,0.8c0,0.1,0,0,0.1-0.2S32.8,69.4,31.6,68.8z"/>
				</g>
				<g>
					<path class="st0" d="M27.6,68.9c-1.7,0-3.1,1.4-3.1,3.1s1.4,3.1,3.1,3.1c1.7,0,3.1-1.4,3.1-3.1c0,0,0,0,0,0
						C30.7,70.3,29.3,68.9,27.6,68.9z"/>
				</g>
			</g>
		</g>
	</g>
</g>
</svg>
