<?xml version="1.0" encoding="utf-8"?>
<!-- Generator: Adobe Illustrator 22.0.1, SVG Export Plug-In . SVG Version: 6.00 Build 0)  -->
<svg version="1.1" id="Layer_1" xmlns="http://www.w3.org/2000/svg" xmlns:xlink="http://www.w3.org/1999/xlink" x="0px" y="0px"
	 viewBox="0 0 101.5 166.2" style="enable-background:new 0 0 101.5 166.2;" xml:space="preserve">
<style type="text/css">
	.st0{fill:#FFFFFF;}
	.st1{fill:#FF3A21;}
	.st2{enable-background:new    ;}
	.st3{fill:none;}
</style>
<title>TARGET 1.4</title>
<g id="WHITE_BG">
	<g>
		<rect y="0" class="st0" width="101.5" height="166.2"/>
	</g>
</g>
<g id="TARGETS">
	<g>
		<g>
			<path class="st1" d="M11.6,125.8l-2,6.4h-1l-2-6.4h1l1.5,5.2l1.5-5.2L11.6,125.8z"/>
		</g>
		<g>
			<path class="st1" d="M14.6,130.7h-2l-0.4,1.6h-1l2-6.4h1l2,6.4H15L14.6,130.7z M13.6,127l-0.8,2.8h1.6L13.6,127z"/>
		</g>
		<g>
			<path class="st1" d="M17.5,131.3h2.8v0.9h-3.7v-6.4h1L17.5,131.3z"/>
		</g>
		<g>
			<path class="st1" d="M20.8,130.2v-4.4h1v4.3c-0.1,0.7,0.4,1.2,1,1.3c0.1,0,0.2,0,0.3,0c0.6,0.1,1.3-0.3,1.4-1c0-0.1,0-0.2,0-0.3
				v-4.3h1v4.4c0,1.1-0.8,2.1-2,2.1c-0.1,0-0.2,0-0.3,0c-1.1,0.1-2.2-0.6-2.3-1.8C20.8,130.4,20.8,130.3,20.8,130.2z"/>
		</g>
		<g>
			<path class="st1" d="M29.9,129.3h-2.6v2h2.9v0.9h-3.9v-6.4h3.9v0.9h-2.9v1.8h2.6V129.3z"/>
		</g>
		<g>
			<path class="st1" d="M32.3,130.2v-4.4h1v4.3c-0.1,0.7,0.4,1.2,1,1.3c0.1,0,0.2,0,0.3,0c0.7,0.1,1.3-0.4,1.3-1c0-0.1,0-0.2,0-0.3
				v-4.3h1v4.4c0,1.1-0.8,2.1-2,2.1c-0.1,0-0.2,0-0.3,0c-1.1,0.2-2.2-0.6-2.3-1.7C32.4,130.5,32.3,130.3,32.3,130.2z"/>
		</g>
		<g>
			<path class="st1" d="M41.6,132.2l-2.8-4.5v4.5h-1v-6.4h0.9l2.8,4.5v-4.5h1v6.4H41.6z"/>
		</g>
		<g>
			<path class="st1" d="M44.3,132.2h-1v-6.4h2c1.6,0,2.2,1,2.2,2c0,1-0.6,2-2.2,2h-1.1L44.3,132.2z M44.3,129h1.1
				c0.6,0.1,1.2-0.4,1.2-1s-0.4-1.2-1-1.2c-0.1,0-0.1,0-0.2,0h-1.1V129z"/>
		</g>
		<g>
			<path class="st1" d="M50.7,130.7h-2l-0.5,1.6h-1l2-6.4h1l2,6.4h-1L50.7,130.7z M49.7,127l-0.8,2.8h1.6L49.7,127z"/>
		</g>
		<g>
			<path class="st1" d="M52.8,132.2v-6.4h1v6.4H52.8z"/>
		</g>
		<g>
			<path class="st1" d="M54.9,132.2v-6.4h1.9c2.1,0,2.7,1.4,2.7,3.2s-0.6,3.2-2.7,3.2L54.9,132.2z M55.9,131.3h1
				c1.3,0,1.7-0.9,1.7-2.3s-0.4-2.3-1.7-2.3h-1V131.3z"/>
		</g>
		<g>
			<path class="st1" d="M64.2,125.7c0.5,0,1,0.1,1.5,0.3v0.9c-0.5-0.2-0.9-0.3-1.4-0.3c-1.2,0-1.7,0.8-1.7,2.4s0.5,2.4,1.7,2.4
				c0.5,0,1-0.1,1.4-0.3v0.9c-0.5,0.2-1,0.3-1.5,0.3c-1.9,0-2.6-1.2-2.6-3.3S62.3,125.7,64.2,125.7z"/>
		</g>
		<g>
			<path class="st1" d="M69.6,130.7h-2l-0.4,1.6h-1l2-6.4h1l2,6.4H70L69.6,130.7z M68.6,127l-0.8,2.8h1.6L68.6,127z"/>
		</g>
		<g>
			<path class="st1" d="M72.6,132.2h-1v-6.4h2.1c1.7,0,2.2,0.7,2.2,1.9c0.1,0.7-0.3,1.4-1,1.7l1.3,2.8H75l-1.2-2.6h-1.3V132.2z
				 M72.6,128.7h1.2c0.9,0,1-0.5,1-1s-0.1-1-1-1h-1.2V128.7z"/>
		</g>
		<g>
			<path class="st1" d="M80.4,129.3h-2.7v2h2.9v0.9h-3.9v-6.4h3.9v0.9h-2.9v1.8h2.7V129.3z"/>
		</g>
		<g>
			<path class="st1" d="M10.1,139.7h-2l-0.4,1.6h-1l2-6.4h1l2,6.4h-1L10.1,139.7z M9.1,136l-0.8,2.8h1.6L9.1,136z"/>
		</g>
		<g>
			<path class="st1" d="M15.8,141.2l-2.8-4.5v4.5h-0.9v-6.4H13l2.8,4.5v-4.5h0.9v6.4L15.8,141.2z"/>
		</g>
		<g>
			<path class="st1" d="M17.6,141.2v-6.4h1.9c2.1,0,2.7,1.4,2.7,3.2s-0.6,3.2-2.7,3.2H17.6z M18.6,140.3h1c1.3,0,1.7-0.9,1.7-2.3
				s-0.4-2.3-1.7-2.3h-1V140.3z"/>
		</g>
		<g>
			<path class="st1" d="M25.4,141.2h-1v-6.4h2c1.6,0,2.2,0.9,2.2,2s-0.6,2-2.2,2h-1.1V141.2z M25.4,138h1.1c0.6,0.1,1.2-0.4,1.2-1
				s-0.4-1.2-1-1.2c-0.1,0-0.1,0-0.2,0h-1.1V138z"/>
		</g>
		<g>
			<path class="st1" d="M30.1,141.2h-1v-6.4h2.1c1.7,0,2.2,0.7,2.2,1.9c0.1,0.7-0.3,1.4-1,1.7l1.3,2.8h-1.1l-1.2-2.6h-1.3V141.2z
				 M30.1,137.7h1.2c0.9,0,1-0.5,1-1s-0.1-1-1-1h-1.2V137.7z"/>
		</g>
		<g>
			<path class="st1" d="M34.1,138c0-1.8,0.4-3.3,2.5-3.3s2.4,1.5,2.4,3.3s-0.4,3.3-2.5,3.3S34.1,139.8,34.1,138z M35.1,138
				c0,1.5,0.3,2.4,1.5,2.4s1.5-0.9,1.5-2.4s-0.3-2.4-1.5-2.4S35.1,136.5,35.1,138L35.1,138z"/>
		</g>
		<g>
			<path class="st1" d="M43.2,140.3h-0.9l-1.6-3.9v4.8h-1v-6.4H41l1.7,4.3l1.7-4.3h1.2v6.4h-1l0-4.8L43.2,140.3z"/>
		</g>
		<g>
			<path class="st1" d="M46.6,138c0-1.8,0.4-3.3,2.5-3.3s2.5,1.5,2.5,3.3s-0.4,3.3-2.5,3.3S46.6,139.8,46.6,138z M47.6,138
				c0,1.5,0.3,2.4,1.5,2.4s1.5-0.9,1.5-2.4s-0.3-2.4-1.5-2.4S47.6,136.5,47.6,138L47.6,138z"/>
		</g>
		<g>
			<path class="st1" d="M54.2,135.7v5.5h-1v-5.5h-1.6v-0.9h4.3v0.9H54.2z"/>
		</g>
		<g>
			<path class="st1" d="M60,138.3h-2.6v2h2.9v0.9h-3.9v-6.4h3.9v0.9h-2.9v1.8h2.7L60,138.3z"/>
		</g>
		<g>
			<path class="st1" d="M66.7,139.3c0,1.2-0.7,2-2.4,2c-0.6,0-1.3-0.1-1.9-0.4V140c0.6,0.3,1.2,0.4,1.8,0.4c1.2,0,1.5-0.5,1.5-1.1
				s-0.3-0.9-1.2-1c-1.6-0.2-2.2-0.6-2.2-1.8c0-0.9,0.5-1.8,2.3-1.8c0.6,0,1.2,0.1,1.7,0.3v1c-0.5-0.2-1.1-0.3-1.7-0.3
				c-1,0-1.3,0.4-1.3,1c0,0.7,0.4,0.8,1.2,0.9C65.9,137.7,66.7,138,66.7,139.3z"/>
		</g>
		<g>
			<path class="st1" d="M70.9,141.2v-2.9h-2.6v2.9h-0.9v-6.4h0.9v2.6h2.6v-2.6h1v6.4H70.9z"/>
		</g>
		<g>
			<path class="st1" d="M75.9,139.7h-2l-0.4,1.6h-1l2-6.4h1l2,6.4h-1L75.9,139.7z M74.9,136l-0.8,2.8h1.6L74.9,136z"/>
		</g>
		<g>
			<path class="st1" d="M78.9,141.2h-1v-6.4H80c1.7,0,2.2,0.7,2.2,1.9c0.1,0.7-0.3,1.4-1,1.7l1.3,2.8h-1.2l-1.2-2.6h-1.3V141.2z
				 M78.9,137.7h1.3c0.9,0,1-0.5,1-1s-0.1-1-1-1h-1.3V137.7z"/>
		</g>
		<g>
			<path class="st1" d="M86.7,138.3h-2.7v2H87v0.9h-3.9v-6.4H87v0.9h-2.9v1.8h2.7L86.7,138.3z"/>
		</g>
		<g>
			<path class="st1" d="M87.8,141.2v-6.4h1.9c2.1,0,2.7,1.4,2.7,3.2s-0.6,3.2-2.7,3.2H87.8z M88.8,140.3h1c1.3,0,1.7-0.9,1.7-2.3
				s-0.4-2.3-1.7-2.3h-1V140.3z"/>
		</g>
		<g>
			<path class="st1" d="M6.9,150.2v-6.4h1.9c2.1,0,2.7,1.4,2.7,3.2s-0.6,3.2-2.7,3.2H6.9z M7.9,149.3h1c1.3,0,1.7-0.9,1.7-2.3
				s-0.4-2.3-1.7-2.3h-1L7.9,149.3z"/>
		</g>
		<g>
			<path class="st1" d="M12.1,147c0-1.8,0.4-3.3,2.4-3.3s2.4,1.5,2.4,3.3s-0.4,3.3-2.5,3.3S12.1,148.8,12.1,147z M13.1,147
				c0,1.5,0.3,2.4,1.5,2.4s1.5-0.9,1.5-2.4s-0.3-2.4-1.5-2.4S13.1,145.5,13.1,147L13.1,147z"/>
		</g>
		<g>
			<path class="st1" d="M21.2,149.3h-0.9l-1.6-3.9v4.8h-1v-6.4H19l1.7,4.3l1.7-4.3h1.2v6.4h-1v-4.8L21.2,149.3z"/>
		</g>
		<g>
			<path class="st1" d="M28.2,147.3h-2.6v2h2.9v0.9h-3.9v-6.4h3.9v0.9h-2.9v1.8h2.6V147.3z"/>
		</g>
		<g>
			<path class="st1" d="M33.5,148.3c0,1.2-0.7,2-2.4,2c-0.6,0-1.3-0.1-1.9-0.3v-1c0.6,0.3,1.2,0.4,1.8,0.4c1.1,0,1.5-0.5,1.5-1.1
				s-0.3-0.9-1.2-1c-1.5-0.2-2.2-0.6-2.2-1.8c0-0.9,0.5-1.8,2.3-1.8c0.6,0,1.2,0.1,1.7,0.3v1c-0.5-0.2-1.1-0.3-1.7-0.3
				c-1,0-1.3,0.4-1.3,1c0,0.7,0.4,0.8,1.2,0.9C32.7,146.7,33.5,147,33.5,148.3z"/>
		</g>
		<g>
			<path class="st1" d="M36.4,144.7v5.5h-1v-5.5h-1.6v-0.9H38v0.9H36.4z"/>
		</g>
		<g>
			<path class="st1" d="M38.7,150.2v-6.4h1v6.4H38.7z"/>
		</g>
		<g>
			<path class="st1" d="M43.3,143.7c0.5,0,1,0.1,1.5,0.3v0.9c-0.4-0.2-0.9-0.3-1.4-0.3c-1.2,0-1.7,0.8-1.7,2.4s0.5,2.4,1.7,2.4
				c0.5,0,1-0.1,1.4-0.3v0.9c-0.5,0.2-1,0.3-1.5,0.3c-1.9,0-2.6-1.2-2.6-3.3S41.4,143.7,43.3,143.7z"/>
		</g>
		<g>
			<path class="st1" d="M7.8,159.2h-1v-6.4H9c1.6,0,2.2,0.7,2.2,1.9c0.1,0.7-0.3,1.4-1,1.7l1.3,2.8h-1.2l-1.1-2.6H7.8V159.2z
				 M7.8,155.7h1.3c0.9,0,1-0.5,1-1s-0.1-1-1-1H7.8V155.7z"/>
		</g>
		<g>
			<path class="st1" d="M15.7,156.3H13v2h3v0.9h-3.9v-6.4H16v0.9h-3v1.8h2.7L15.7,156.3z"/>
		</g>
		<g>
			<path class="st1" d="M21,157.3c0,1.2-0.7,2-2.4,2c-0.6,0-1.3-0.1-1.9-0.4V158c0.6,0.3,1.2,0.4,1.8,0.4c1.1,0,1.5-0.5,1.5-1.1
				s-0.3-0.9-1.2-1c-1.5-0.2-2.2-0.6-2.2-1.8c0-0.9,0.5-1.8,2.3-1.8c0.6,0,1.2,0.1,1.7,0.3v1c-0.5-0.2-1.1-0.3-1.7-0.3
				c-1,0-1.3,0.4-1.3,1c0,0.7,0.4,0.8,1.2,0.9C20.2,155.7,21,156,21,157.3z"/>
		</g>
		<g>
			<path class="st1" d="M22.7,159.2h-1v-6.4h2c1.6,0,2.2,0.9,2.2,2s-0.6,2-2.2,2h-1V159.2z M22.7,156h1.1c0.6,0.1,1.2-0.4,1.2-1
				s-0.4-1.2-1-1.2c-0.1,0-0.1,0-0.2,0h-1.1V156z"/>
		</g>
		<g>
			<path class="st1" d="M26.5,156c0-1.8,0.4-3.3,2.5-3.3s2.5,1.5,2.5,3.3s-0.4,3.3-2.5,3.3S26.5,157.8,26.5,156z M27.5,156
				c0,1.5,0.3,2.4,1.5,2.4s1.5-0.9,1.5-2.4s-0.3-2.4-1.5-2.4S27.5,154.5,27.5,156L27.5,156z"/>
		</g>
		<g>
			<path class="st1" d="M35.9,159.2l-2.8-4.5v4.5h-0.9v-6.4H33l2.8,4.5v-4.5h0.9v6.4H35.9z"/>
		</g>
		<g>
			<path class="st1" d="M41.9,157.3c0,1.2-0.7,2-2.4,2c-0.6,0-1.3-0.1-1.9-0.4V158c0.6,0.3,1.2,0.4,1.8,0.4c1.2,0,1.5-0.5,1.5-1.1
				s-0.3-0.9-1.2-1c-1.6-0.2-2.2-0.6-2.2-1.8c0-0.9,0.5-1.8,2.3-1.8c0.6,0,1.2,0.1,1.7,0.3v1c-0.5-0.2-1.1-0.3-1.7-0.3
				c-1,0-1.3,0.4-1.3,1c0,0.7,0.4,0.8,1.2,0.9C41.1,155.7,41.9,156,41.9,157.3z"/>
		</g>
		<g>
			<path class="st1" d="M42.7,159.2v-6.4h1v6.4H42.7z"/>
		</g>
		<g>
			<path class="st1" d="M44.7,152.8h2.2c1.5,0,2,0.8,2,1.7c0,0.5-0.3,1-0.8,1.3c0.6,0.2,1.1,0.8,1,1.5c0,1.1-0.5,1.9-2.2,1.9h-2.2
				L44.7,152.8z M46.9,153.7h-1.2v1.8h1.2c0.4,0.1,0.9-0.2,0.9-0.7c0-0.1,0-0.1,0-0.2C47.9,154.2,47.7,153.7,46.9,153.7L46.9,153.7z
				 M45.7,158.3h1.3c0.9,0,1.1-0.5,1.1-1s-0.3-1-1.1-1h-1.3V158.3z"/>
		</g>
		<g>
			<path class="st1" d="M49.9,159.2v-6.4h1v6.4H49.9z"/>
		</g>
		<g>
			<path class="st1" d="M52.9,158.3h2.8v0.9H52v-6.4h1L52.9,158.3z"/>
		</g>
		<g>
			<path class="st1" d="M56.3,159.2v-6.4h1v6.4H56.3z"/>
		</g>
		<g>
			<path class="st1" d="M60.6,153.7v5.5h-1v-5.5H58v-0.9h4.3v0.9H60.6z"/>
		</g>
		<g>
			<path class="st1" d="M62.9,159.2v-6.4h1v6.4H62.9z"/>
		</g>
		<g>
			<path class="st1" d="M68.6,156.3h-2.7v2h2.9v0.9H65v-6.4h3.9v0.9h-3v1.8h2.7V156.3z"/>
		</g>
		<g>
			<path class="st1" d="M73.8,157.3c0,1.2-0.7,2-2.4,2c-0.6,0-1.3-0.1-1.9-0.4V158c0.6,0.3,1.2,0.4,1.8,0.4c1.2,0,1.5-0.5,1.5-1.1
				s-0.3-0.9-1.2-1c-1.6-0.2-2.2-0.6-2.2-1.8c0-0.9,0.5-1.8,2.3-1.8c0.6,0,1.2,0.1,1.7,0.3v1c-0.5-0.2-1.1-0.3-1.7-0.3
				c-1,0-1.3,0.4-1.3,1c0,0.7,0.4,0.8,1.2,0.9C73.1,155.7,73.8,156,73.8,157.3z"/>
		</g>
	</g>
	<g>
		<rect x="3.3" y="24" class="st1" width="94.8" height="94.8"/>
	</g>
	<g>
		<path class="st1" d="M98.2,20.7H3.3V3.3h94.8V20.7z M4.3,19.7h92.8V4.3H4.3L4.3,19.7z"/>
	</g>
	<g class="st2">
		<path class="st1" d="M6.7,6.9h4.5v1.4H9.9v8.8H8.1V8.3H6.7V6.9z"/>
	</g>
	<g class="st2">
		<path class="st1" d="M11.2,17.1l1.9-10.2h1.9L17,17.1h-1.8l-0.3-1.9h-1.8l-0.3,1.9H11.2z M13.3,13.9h1.4L14,9.8h0L13.3,13.9z"/>
	</g>
	<g class="st2">
		<path class="st1" d="M19.6,12.5v4.7h-1.7V6.9h2.5c1.7,0,2.4,0.9,2.4,2.3v1.3c0,1.1-0.4,1.7-1.4,2l1.6,4.6h-1.8L19.6,12.5z
			 M19.6,8.3v3.2h0.6c0.6,0,0.8-0.3,0.8-0.8V9.2c0-0.6-0.3-0.8-0.8-0.8H19.6z"/>
	</g>
	<g class="st2">
		<path class="st1" d="M26.4,11.7h2.4v5.4h-1.2V16c-0.2,0.8-0.7,1.2-1.6,1.2c-1.5,0-2.1-1.2-2.1-2.7V9.6c0-1.6,0.8-2.7,2.6-2.7
			c1.9,0,2.4,1.1,2.4,2.6v0.9h-1.6v-1c0-0.6-0.2-1-0.9-1c-0.6,0-0.9,0.4-0.9,1v5.5c0,0.6,0.3,1,0.8,1c0.6,0,0.8-0.3,0.8-1V13h-0.8
			V11.7z"/>
	</g>
	<g class="st2">
		<path class="st1" d="M30.2,6.9h4.1v1.4h-2.4v2.9h1.7v1.4h-1.7v3.1h2.4v1.4h-4.1V6.9z"/>
	</g>
	<g class="st2">
		<path class="st1" d="M35.1,6.9h4.5v1.4h-1.4v8.8h-1.7V8.3h-1.4V6.9z"/>
	</g>
	<g class="st2">
		<path class="st1" d="M83.8,12.4v2.5c0,1.4-0.7,2.3-2.4,2.3c-1.7,0-2.4-1-2.4-2.5v-1.2h1.6v1.3c0,0.6,0.2,1,0.8,1
			c0.5,0,0.7-0.4,0.7-0.9v-2.5c0-0.6-0.2-0.9-0.7-0.9c-0.5,0-0.8,0.3-0.8,0.9v0.2H79V6.9h4.5v1.4h-2.9v2.5h0
			c0.3-0.5,0.8-0.7,1.4-0.7C83,10.2,83.8,10.8,83.8,12.4z"/>
	</g>
	<g class="st2">
	</g>
	<g class="st2">
		<path class="st1" d="M86.6,10.8c0.7,0,1.2,0.6,1.2,1.2c0,0.7-0.6,1.2-1.2,1.2c-0.7,0-1.2-0.6-1.2-1.2C85.4,11.4,86,10.8,86.6,10.8
			z"/>
	</g>
	<g class="st2">
		<path class="st1" d="M89.1,14.4l3-7.5h1.7v7.2h0.7v1.3h-0.7v1.7h-1.6v-1.7h-3V14.4z M90.6,14.1h1.5V9.9h0L90.6,14.1z"/>
	</g>
	<g>
		<path class="st1" d="M98.2,162.9h-95v-40.7h95V162.9z M4.2,161.9h93v-38.7h-93V161.9z"/>
	</g>
	<g>
		<g>
			<path class="st3" d="M34.1,79.8c0.7,0.5,1.5,0.7,2.3,0.6c-0.1-0.1-0.2-0.3-0.3-0.5c-0.7-1.5,1.1-2.4,1.1-2.4l0.8-0.3l1.9-0.8
				l-0.6-0.1l-6.4-0.6C32.3,77.2,32.8,78.9,34.1,79.8z"/>
		</g>
		<g>
			<path class="st3" d="M35,72.4l-1.7,2.5l0,0l0,0l3,0.3L35,72.4z"/>
		</g>
		<g>
			<path class="st3" d="M40.2,75.6h0.2l0.8,0.1l1.3-1.8l0,0c1-1.5,0.7-3.4-0.7-4.6l-0.2-0.2c-1.5-1.1-3.7-0.7-4.8,0.8l0,0l-0.6,0.8
				l-0.7,1l1.7,3.6L40.2,75.6z M36.9,71.6c0.2-1.5,1.6-2.5,3.1-2.3c0.4,0.1,0.8,0.2,1.2,0.5l0,0c1.2,0.9,1.5,2.6,0.7,3.8v0.1
				c-0.9,1.2-2.6,1.5-3.8,0.6C37.2,73.6,36.8,72.6,36.9,71.6L36.9,71.6z"/>
		</g>
		<g>
			<g>
				<path class="st0" d="M38.9,59.7c0-2.1-1.7-3.9-3.9-3.9s-3.9,1.7-3.9,3.9s1.7,3.9,3.9,3.9l0,0C37.1,63.6,38.9,61.9,38.9,59.7z"/>
			</g>
			<g>
				<path class="st0" d="M27.2,68.5L23.9,79c-0.2,0.6-0.1,1.2,0.2,1.8c0.4,0.5,1.1,0.8,1.7,0.7c1-0.2,1.3-1.4,1.3-1.4l2.6-8.8
					c0,0,0.1-0.7,0.6-0.5s0.3,0.9,0.3,0.9l-4.5,16.4h4.2v11.8c0,1.1,0.9,2,2,2c1.1,0,2-0.9,2-2V88.1h1.2v11.8c0,1.1,0.9,2,2,2
					c1.1,0,2-0.9,2-2V88.1h4.2l-2.4-8.8c1.4-0.6,3.1-1.4,3.5-1.5c0.4-0.2,0.5-0.5,0.5-0.9c0,0-1.8-7.1-1.8-7.2
					c-0.2-1-1.4-3.8-3.8-4.1h-8.8C28.3,65.5,27.2,68.5,27.2,68.5z M36.2,70.7l0.6-0.8l0,0c1.1-1.5,3.2-1.8,4.8-0.8l0.2,0.2
					c1.4,1.1,1.7,3.1,0.7,4.6l0,0l-1.2,1.9l-0.8-0.1h-0.2l-3-0.3l-1.7-3.6L36.2,70.7z M33.2,74.9L33.2,74.9l1.8-2.5l1.3,2.8
					L33.2,74.9L33.2,74.9z M32.8,75.7l6.4,0.6l0.6,0.1L38,77.2l-0.7,0.3c0,0-1.8,0.9-1.1,2.4c0.1,0.2,0.2,0.3,0.3,0.5
					c-0.8,0.1-1.7-0.1-2.3-0.6C32.8,78.9,32.3,77.2,32.8,75.7L32.8,75.7z"/>
			</g>
			<g>
				<path class="st0" d="M38,74.2c1.2,0.8,2.9,0.6,3.8-0.6v-0.1c0.9-1.2,0.6-2.9-0.7-3.8l0,0c-1.2-0.9-2.9-0.6-3.8,0.6
					c-0.3,0.4-0.4,0.8-0.5,1.2C36.7,72.6,37.1,73.6,38,74.2z"/>
			</g>
			<g>
				<path class="st0" d="M47,86.5l-2.2,6.4c0,0-0.3,1,0.6,1.3c0.5,0.1,1.1-0.2,1.2-0.7c0,0,0,0,0,0l1.8-5.5c0,0,0.1-0.4,0.4-0.3
					s0.2,0.4,0.2,0.4l-2.1,7.5h1.6v4.8c0,0.8,0.6,1.5,1.5,1.5c0.2,0,0.4,0,0.5-0.1c0.6-0.2,1-0.8,1-1.5v-4.6c0-0.1,0-0.1,0-0.2h0.9
					v4.7c0,0.6,0.4,1.2,1,1.4c0.8,0.3,1.6-0.2,1.9-0.9c0.1-0.2,0.1-0.3,0.1-0.5l0,0v-4.8h1.6l-1.5-5.5c-0.1-0.2-0.1-0.4-0.1-0.7
					v-0.7c0-0.2,0.1-0.5,0.2-0.7l3.4-6.1c0.7-0.2,1.2-0.8,1.2-1.5v-9.7c0-0.4,0.1-0.8,0.8-0.8c0.5,0,0.5,0.5,0.6,0.8v29
					c0,1.2,1,2.3,2.3,2.3c1.2,0,2.3-1,2.3-2.3V82.9c0-0.3,0.2-0.6,0.6-0.7c0,0,0.1,0,0.1,0l0,0c0.3,0,0.6,0.2,0.6,0.6
					c0,0,0,0.1,0,0.1v16.7c0.1,1.3,1.2,2.2,2.4,2.1c1.1-0.1,2-1,2.1-2.1v-29c0-0.3,0.1-0.8,0.6-0.8c0.7,0,0.8,0.5,0.8,0.8v9.7
					c0.1,0.9,0.8,1.5,1.7,1.4c0.8-0.1,1.4-0.7,1.4-1.4V69.1c0-2.8-2.1-5.1-4.9-5.4h-0.3h-8.9h-0.3c-2.8,0.3-4.9,2.6-4.9,5.4v11.2
					c0,0.1,0,0.3,0.1,0.4l-0.4,0.7c-0.1,0.1-1.5,2.6-1.9,3c-0.2,0.3-0.6,0.4-0.9,0.4h-3.6h-1.3C47.4,84.9,47,86.5,47,86.5z"/>
			</g>
			<g>
				<path class="st0" d="M54.9,80.6c0-1.7-1.3-3-3-3s-3,1.3-3,3s1.3,3,3,3S54.9,82.2,54.9,80.6z"/>
			</g>
			<g>
				<path class="st0" d="M70.6,58.1c0-2.2-1.8-4.1-4.1-4.1c-2.2,0-4.1,1.8-4.1,4.1s1.8,4.1,4.1,4.1c0,0,0,0,0,0c2.2,0,4-1.7,4.1-3.9
					C70.6,58.2,70.6,58.1,70.6,58.1z"/>
			</g>
		</g>
		<g>
			<path class="st0" d="M90.4,49.6L51.2,32.6c-0.1-0.1-0.3-0.1-0.4-0.1c-0.1,0-0.2,0-0.3,0.1L11.3,49.5c-0.2,0.1-0.3,0.2-0.2,0.4
				v3.9c0,0.3,0,0.7,0.5,0.5l39.1-16.1c0.1,0,0.3,0,0.4,0l39.1,16.1c0.5,0.2,0.5-0.1,0.5-0.5v-3.9C90.6,49.8,90.5,49.6,90.4,49.6z"
				/>
		</g>
		<g>
			<path class="st0" d="M11.5,106.6h78.4c0.3,0,0.6,0.3,0.6,0.6v3.6c0,0.3-0.3,0.6-0.6,0.6H11.5c-0.3,0-0.6-0.3-0.6-0.6v-3.6
				C10.9,106.9,11.2,106.6,11.5,106.6z"/>
		</g>
	</g>
</g>
</svg>
