<?xml version="1.0" encoding="utf-8"?>
<!-- Generator: Adobe Illustrator 22.0.1, SVG Export Plug-In . SVG Version: 6.00 Build 0)  -->
<svg version="1.1" id="Layer_1" xmlns="http://www.w3.org/2000/svg" xmlns:xlink="http://www.w3.org/1999/xlink" x="0px" y="0px"
	 viewBox="0 0 101.5 157.1" style="enable-background:new 0 0 101.5 157.1;" xml:space="preserve">
<style type="text/css">
	.st0{fill:#FFFFFF;}
	.st1{fill:#FF3A21;}
	.st2{enable-background:new    ;}
</style>
<title>TARGET 1 A</title>
<g id="WHITE_BG">
	<g>
		<rect y="0" class="st0" width="101.5" height="157.1"/>
	</g>
</g>
<g id="TARGETS">
	<g>
		<g>
			<path class="st1" d="M6.8,130.2v-4.4h1v4.3c-0.1,0.7,0.4,1.2,1,1.3c0.1,0,0.2,0,0.3,0c0.6,0.1,1.3-0.3,1.4-1c0-0.1,0-0.2,0-0.3
				v-4.3h1v4.4c0,1.1-0.8,2.1-2,2.1c-0.1,0-0.2,0-0.3,0c-1.1,0.2-2.2-0.5-2.4-1.7C6.9,130.5,6.8,130.4,6.8,130.2z"/>
		</g>
		<g>
			<path class="st1" d="M16.1,132.2l-2.8-4.5v4.5h-0.9v-6.4h0.9l2.8,4.5v-4.5h1v6.4L16.1,132.2z"/>
		</g>
		<g>
			<path class="st1" d="M18,132.2v-6.4h1v6.4H18z"/>
		</g>
		<g>
			<path class="st1" d="M24.6,125.8l-2,6.4h-1l-2-6.4h1l1.5,5.2l1.5-5.2L24.6,125.8z"/>
		</g>
		<g>
			<path class="st1" d="M28.8,129.3h-2.6v2H29v0.9h-3.8v-6.4H29v0.9h-2.9v1.8h2.6V129.3z"/>
		</g>
		<g>
			<path class="st1" d="M30.8,132.2h-1v-6.4H32c1.7,0,2.2,0.7,2.2,1.9c0.1,0.7-0.3,1.4-1,1.7l1.3,2.8h-1.2l-1.2-2.6h-1.3V132.2z
				 M30.8,128.7h1.3c0.9,0,1-0.5,1-1s-0.1-1-1-1h-1.3V128.7z"/>
		</g>
		<g>
			<path class="st1" d="M39.1,130.3c0,1.2-0.7,2-2.4,2c-0.6,0-1.3-0.1-1.9-0.4V131c0.6,0.3,1.2,0.4,1.8,0.4c1.2,0,1.5-0.5,1.5-1.1
				s-0.3-0.9-1.2-1c-1.5-0.2-2.2-0.6-2.2-1.8c0-0.9,0.5-1.8,2.3-1.8c0.6,0,1.2,0.1,1.7,0.3v1c-0.5-0.2-1.1-0.3-1.7-0.3
				c-1,0-1.3,0.4-1.3,1c0,0.7,0.4,0.8,1.2,0.9C38.3,128.7,39.1,129,39.1,130.3z"/>
		</g>
		<g>
			<path class="st1" d="M42.8,130.7h-2l-0.5,1.6h-1l2-6.4h1l2,6.4h-1L42.8,130.7z M41.8,127l-0.8,2.8h1.6L41.8,127z"/>
		</g>
		<g>
			<path class="st1" d="M45.8,131.3h2.8v0.9h-3.7v-6.4h1V131.3z"/>
		</g>
		<g>
			<path class="st1" d="M53.8,130.7h-2l-0.5,1.6h-1l2-6.4h1l2,6.4h-1L53.8,130.7z M52.8,127l-0.8,2.8h1.6L52.8,127z"/>
		</g>
		<g>
			<path class="st1" d="M58.1,125.7c0.5,0,1,0.1,1.5,0.3v0.9c-0.5-0.2-0.9-0.3-1.4-0.3c-1.2,0-1.7,0.8-1.7,2.4s0.5,2.4,1.7,2.4
				c0.5,0,1-0.1,1.4-0.3v0.9c-0.5,0.2-1,0.3-1.5,0.3c-1.9,0-2.6-1.2-2.6-3.3S56.2,125.7,58.1,125.7z"/>
		</g>
		<g>
			<path class="st1" d="M62.8,125.7c0.5,0,1,0.1,1.5,0.3v0.9c-0.5-0.2-0.9-0.3-1.4-0.3c-1.2,0-1.7,0.8-1.7,2.4s0.5,2.4,1.7,2.4
				c0.5,0,1-0.1,1.4-0.3v0.9c-0.5,0.2-1,0.3-1.5,0.3c-1.9,0-2.6-1.2-2.6-3.3S60.9,125.7,62.8,125.7z"/>
		</g>
		<g>
			<path class="st1" d="M68.8,129.3h-2.7v2h2.9v0.9h-3.9v-6.4h3.9v0.9h-2.9v1.8h2.7V129.3z"/>
		</g>
		<g>
			<path class="st1" d="M74,130.3c0,1.2-0.7,2-2.4,2c-0.6,0-1.3-0.1-1.9-0.4V131c0.6,0.3,1.2,0.4,1.8,0.4c1.2,0,1.5-0.5,1.5-1.1
				s-0.3-0.9-1.2-1c-1.6-0.2-2.2-0.6-2.2-1.8c0-0.9,0.5-1.8,2.3-1.8c0.6,0,1.2,0.1,1.7,0.3v1c-0.5-0.2-1.1-0.3-1.7-0.3
				c-1,0-1.3,0.4-1.3,1c0,0.7,0.4,0.8,1.2,0.9C73.2,128.7,74,129,74,130.3z"/>
		</g>
		<g>
			<path class="st1" d="M78.8,130.3c0,1.2-0.7,2-2.4,2c-0.6,0-1.3-0.1-1.9-0.4V131c0.6,0.3,1.2,0.4,1.8,0.4c1.2,0,1.5-0.5,1.5-1.1
				s-0.3-0.9-1.2-1c-1.6-0.2-2.2-0.6-2.2-1.8c0-0.9,0.5-1.8,2.3-1.8c0.6,0,1.2,0.1,1.7,0.3v1c-0.5-0.2-1.1-0.3-1.7-0.3
				c-1,0-1.3,0.4-1.3,1c0,0.7,0.4,0.8,1.2,0.9C78,128.7,78.8,129,78.8,130.3z"/>
		</g>
		<g>
			<path class="st1" d="M83,126.7v5.5h-1v-5.5h-1.6v-0.9h4.3v0.9L83,126.7z"/>
		</g>
		<g>
			<path class="st1" d="M84.9,129c0-1.8,0.4-3.3,2.4-3.3s2.5,1.5,2.5,3.3s-0.4,3.3-2.5,3.3S84.9,130.8,84.9,129z M85.9,129
				c0,1.5,0.3,2.4,1.5,2.4s1.5-0.9,1.5-2.4s-0.3-2.4-1.5-2.4S85.9,127.5,85.9,129L85.9,129z"/>
		</g>
		<g>
			<path class="st1" d="M7.8,141.2h-1v-6.4H9c1.6,0,2.2,0.7,2.2,1.9c0.1,0.7-0.3,1.4-1,1.7l1.3,2.8h-1.2l-1.1-2.6H7.8V141.2z
				 M7.8,137.7h1.3c0.9,0,1-0.5,1-1s-0.1-1-1-1H7.8V137.7z"/>
		</g>
		<g>
			<path class="st1" d="M15.7,138.3H13v2h3v0.9h-3.9v-6.4H16v0.9h-3v1.8h2.6L15.7,138.3z"/>
		</g>
		<g>
			<path class="st1" d="M17.8,141.2h-1v-6.4h2c1.6,0,2.2,0.9,2.2,2s-0.6,2-2.2,2h-1.1L17.8,141.2z M17.8,138h1.1
				c0.6,0.1,1.2-0.4,1.2-1s-0.4-1.2-1-1.2c-0.1,0-0.1,0-0.2,0h-1.1V138z"/>
		</g>
		<g>
			<path class="st1" d="M22.6,141.2h-1v-6.4h2.1c1.6,0,2.2,0.7,2.2,1.9c0.1,0.7-0.3,1.4-1,1.7l1.3,2.8h-1.1l-1.2-2.6h-1.3V141.2z
				 M22.6,137.7h1.3c0.9,0,1-0.5,1-1s-0.1-1-1-1h-1.3V137.7z"/>
		</g>
		<g>
			<path class="st1" d="M26.6,138c0-1.8,0.4-3.3,2.5-3.3s2.5,1.5,2.5,3.3s-0.4,3.3-2.5,3.3S26.6,139.8,26.6,138z M27.6,138
				c0,1.5,0.3,2.4,1.5,2.4s1.5-0.9,1.5-2.4s-0.3-2.4-1.5-2.4S27.6,136.5,27.6,138L27.6,138z"/>
		</g>
		<g>
			<path class="st1" d="M32.3,141.2v-6.4h1.9c2.1,0,2.7,1.4,2.7,3.2s-0.6,3.2-2.7,3.2H32.3z M33.2,140.3h1c1.3,0,1.7-0.9,1.7-2.3
				s-0.4-2.3-1.7-2.3h-1V140.3z"/>
		</g>
		<g>
			<path class="st1" d="M37.7,139.2v-4.4h1v4.3c0,0.8,0.6,1.4,1.4,1.4s1.4-0.6,1.4-1.4v-4.3h1v4.4c0,1.1-0.8,2.1-2,2.1
				c-0.1,0-0.3,0-0.4,0c-1.1,0.1-2.2-0.6-2.3-1.8C37.7,139.4,37.7,139.3,37.7,139.2z"/>
		</g>
		<g>
			<path class="st1" d="M45.6,134.7c0.5,0,1,0.1,1.5,0.3v0.9c-0.5-0.2-0.9-0.3-1.4-0.3c-1.2,0-1.7,0.8-1.7,2.4s0.5,2.4,1.7,2.4
				c0.5,0,1-0.1,1.4-0.3v0.9c-0.5,0.2-1,0.3-1.5,0.3c-1.9,0-2.6-1.2-2.6-3.3S43.7,134.7,45.6,134.7z"/>
		</g>
		<g>
			<path class="st1" d="M50.2,135.7v5.5h-1v-5.5h-1.6v-0.9h4.3v0.9H50.2z"/>
		</g>
		<g>
			<path class="st1" d="M52.6,141.2v-6.4h1v6.4H52.6z"/>
		</g>
		<g>
			<path class="st1" d="M59.4,134.8l-2,6.4h-1l-2-6.4h1l1.5,5.2l1.5-5.2L59.4,134.8z"/>
		</g>
		<g>
			<path class="st1" d="M63.5,138.3h-2.6v2h2.9v0.9h-3.9v-6.4h3.9v0.9h-2.9v1.8h2.7L63.5,138.3z"/>
		</g>
		<g>
			<path class="st1" d="M10.4,150.2v-2.9H7.8v2.9h-1v-6.4h1v2.6h2.6v-2.6h1v6.4H10.4z"/>
		</g>
		<g>
			<path class="st1" d="M15.9,147.3h-2.7v2h2.9v0.9h-3.9v-6.4h3.9v0.9h-2.9v1.8h2.7V147.3z"/>
		</g>
		<g>
			<path class="st1" d="M20.1,148.7h-2l-0.5,1.6h-1l2-6.4h1l2,6.4h-1L20.1,148.7z M19.1,145l-0.8,2.8H20L19.1,145z"/>
		</g>
		<g>
			<path class="st1" d="M23.1,149.3h2.8v0.9h-3.7v-6.4h1L23.1,149.3z"/>
		</g>
		<g>
			<path class="st1" d="M27.9,144.7v5.5h-1v-5.5h-1.7v-0.9h4.3v0.9H27.9z"/>
		</g>
		<g>
			<path class="st1" d="M33.7,150.2v-2.9h-2.6v2.9h-1v-6.4h1v2.6h2.6v-2.6h1v6.4H33.7z"/>
		</g>
		<g>
			<path class="st1" d="M40.2,148.7h-2l-0.5,1.6h-1l2-6.4h1l2,6.4h-1L40.2,148.7z M39.2,145l-0.8,2.8H40L39.2,145z"/>
		</g>
		<g>
			<path class="st1" d="M45.9,150.2l-2.8-4.5v4.5h-0.9v-6.4h0.9l2.8,4.5v-4.5h0.9v6.4H45.9z"/>
		</g>
		<g>
			<path class="st1" d="M47.7,150.2v-6.4h1.9c2.1,0,2.7,1.4,2.7,3.2s-0.6,3.2-2.7,3.2H47.7z M48.7,149.3h1c1.3,0,1.7-0.9,1.7-2.3
				s-0.4-2.3-1.7-2.3h-1V149.3z"/>
		</g>
		<g>
			<path class="st1" d="M55.5,150.2h-1v-6.4h2.1c1.7,0,2.2,0.7,2.2,1.9c0.1,0.7-0.3,1.4-1,1.7l1.3,2.8H58l-1.2-2.6h-1.4V150.2z
				 M55.5,146.7h1.3c0.9,0,1-0.5,1-1s-0.1-1-1-1h-1.3V146.7z"/>
		</g>
		<g>
			<path class="st1" d="M59.7,150.2v-6.4h1v6.4H59.7z"/>
		</g>
		<g>
			<path class="st1" d="M61.5,147c0-2,0.7-3.3,2.6-3.3c0.6,0,1.3,0.1,1.8,0.3v1c-0.5-0.2-1.1-0.4-1.7-0.4c-1.3,0-1.8,0.9-1.8,2.4
				s0.5,2.4,1.8,2.4c0.3,0,0.6,0,0.9-0.1v-1.7h-1.1v-0.9h2.1v3.2c-0.6,0.3-1.3,0.4-2,0.4C62.2,150.3,61.5,149,61.5,147z"/>
		</g>
		<g>
			<path class="st1" d="M70.6,150.2v-2.9H68v2.9h-1v-6.4h1v2.6h2.6v-2.6h0.9v6.4H70.6z"/>
		</g>
		<g>
			<path class="st1" d="M74.7,144.7v5.5h-0.9v-5.5h-1.7v-0.9h4.3v0.9H74.7z"/>
		</g>
		<g>
			<path class="st1" d="M81.1,148.3c0,1.2-0.7,2-2.4,2c-0.6,0-1.3-0.1-1.9-0.4V149c0.6,0.3,1.2,0.4,1.8,0.4c1.2,0,1.5-0.5,1.5-1.1
				s-0.3-0.9-1.2-1c-1.6-0.2-2.2-0.6-2.2-1.8c0-0.9,0.5-1.8,2.3-1.8c0.6,0,1.2,0.1,1.7,0.3v1c-0.5-0.2-1.1-0.3-1.7-0.3
				c-1,0-1.3,0.4-1.3,1c0,0.7,0.4,0.8,1.2,0.9C80.3,146.7,81.1,147,81.1,148.3z"/>
		</g>
	</g>
	<g>
		<rect x="3.3" y="24" class="st1" width="94.8" height="94.8"/>
	</g>
	<g>
		<path class="st1" d="M98.2,20.7H3.3V3.3h94.8V20.7z M4.3,19.7h92.8V4.3H4.3L4.3,19.7z"/>
	</g>
	<g class="st2">
		<path class="st1" d="M6.7,6.9h4.5v1.4H9.9v8.8H8.1V8.3H6.7V6.9z"/>
	</g>
	<g class="st2">
		<path class="st1" d="M11.2,17.1l1.9-10.2h1.9L17,17.1h-1.8l-0.3-1.9h-1.8l-0.3,1.9H11.2z M13.3,13.9h1.4L14,9.8h0L13.3,13.9z"/>
	</g>
	<g class="st2">
		<path class="st1" d="M19.6,12.5v4.7h-1.7V6.9h2.5c1.7,0,2.4,0.9,2.4,2.3v1.3c0,1.1-0.4,1.7-1.4,2l1.6,4.6h-1.8L19.6,12.5z
			 M19.6,8.3v3.2h0.6c0.6,0,0.8-0.3,0.8-0.8V9.2c0-0.6-0.3-0.8-0.8-0.8H19.6z"/>
	</g>
	<g class="st2">
		<path class="st1" d="M26.4,11.7h2.4v5.4h-1.2V16c-0.2,0.8-0.7,1.2-1.6,1.2c-1.5,0-2.1-1.2-2.1-2.7V9.6c0-1.6,0.8-2.7,2.6-2.7
			c1.9,0,2.4,1.1,2.4,2.6v0.9h-1.6v-1c0-0.6-0.2-1-0.9-1c-0.6,0-0.9,0.4-0.9,1v5.5c0,0.6,0.3,1,0.8,1c0.6,0,0.8-0.3,0.8-1V13h-0.8
			V11.7z"/>
	</g>
	<g class="st2">
		<path class="st1" d="M30.2,6.9h4.1v1.4h-2.4v2.9h1.7v1.4h-1.7v3.1h2.4v1.4h-4.1V6.9z"/>
	</g>
	<g class="st2">
		<path class="st1" d="M35.1,6.9h4.5v1.4h-1.4v8.8h-1.7V8.3h-1.4V6.9z"/>
	</g>
	<g class="st2">
		<path class="st1" d="M83.6,12.4v2.5c0,1.4-0.7,2.3-2.4,2.3c-1.7,0-2.4-1-2.4-2.5v-1.2h1.6v1.3c0,0.6,0.2,1,0.8,1
			c0.5,0,0.7-0.4,0.7-0.9v-2.5c0-0.6-0.2-0.9-0.7-0.9c-0.5,0-0.8,0.3-0.8,0.9v0.2h-1.6V6.9h4.5v1.4h-2.9v2.5h0
			c0.3-0.5,0.8-0.7,1.4-0.7C82.7,10.2,83.6,10.8,83.6,12.4z"/>
	</g>
	<g class="st2">
	</g>
	<g class="st2">
		<path class="st1" d="M86.4,10.8c0.7,0,1.2,0.6,1.2,1.2c0,0.7-0.6,1.2-1.2,1.2c-0.7,0-1.2-0.6-1.2-1.2
			C85.2,11.4,85.7,10.8,86.4,10.8z"/>
	</g>
	<g class="st2">
		<path class="st1" d="M89.3,14.5v-5c0-1.6,0.7-2.7,2.5-2.7c1.9,0,2.4,1.1,2.4,2.6v0.5h-1.6V9.2c0-0.6-0.2-1-0.8-1
			c-0.6,0-0.8,0.4-0.8,1v2.2h0c0.3-0.5,0.7-0.8,1.4-0.8c1.2,0,1.9,0.8,1.9,2.5v1.5c0,1.6-0.7,2.6-2.5,2.6
			C90,17.2,89.3,16.1,89.3,14.5z M92.7,14.8v-1.8c0-0.7-0.2-1-0.8-1c-0.5,0-0.8,0.4-0.8,0.9v1.9c0,0.6,0.2,1,0.8,1
			C92.4,15.8,92.7,15.5,92.7,14.8z"/>
	</g>
	<g>
		<g>
			<path class="st0" d="M89.5,93.5V70.9c0,0,0.2-3-2.3-4.3c-0.6-0.2-1-0.8-1.1-1.4c-0.1-1.1,0.1-2.3-1.3-2.3s-1.2,1.2-1.3,2.3
				c-0.1,0.6-0.5,1.2-1.1,1.4c-2.5,1.3-2.3,4.3-2.3,4.3v22.6c-0.6,0.1-1.1,0.8-0.9,1.4c0.1,0.5,0.6,0.9,1.1,0.9h9
				c0.7,0,1.2-0.6,1.2-1.2C90.4,94.1,90.1,93.6,89.5,93.5L89.5,93.5z"/>
		</g>
		<g>
			<path class="st0" d="M73.1,63.5h-8.9c-0.6,0-1,0.4-1,1v30.3c0,0.6,0.4,1,0.9,1c0,0,0,0,0.1,0h8.9c0.6,0,1-0.4,1-1c0,0,0,0,0-0.1
				V64.5C74.2,64,73.7,63.5,73.1,63.5C73.2,63.5,73.1,63.5,73.1,63.5z M65.5,94.5c-0.6,0-1-0.4-1-1s0.4-1,1-1s1,0.4,1,1
				C66.5,94,66.1,94.5,65.5,94.5L65.5,94.5z M65.5,91.4c-0.6,0-1-0.5-1-1s0.5-1,1-1s1,0.5,1,1S66.1,91.4,65.5,91.4z M65.5,88.4
				c-0.6,0-1-0.4-1-1s0.4-1,1-1s1,0.4,1,1C66.5,87.9,66.1,88.4,65.5,88.4L65.5,88.4z M65.5,85.3c-0.6,0-1-0.4-1-1s0.4-1,1-1
				s1,0.4,1,1C66.5,84.8,66.1,85.3,65.5,85.3L65.5,85.3z M65.5,82.2c-0.6,0-1-0.4-1-1s0.4-1,1-1s1,0.4,1,1
				C66.5,81.8,66.1,82.2,65.5,82.2L65.5,82.2z M65.5,79.2c-0.6,0-1-0.4-1-1s0.4-1,1-1s1,0.4,1,1C66.5,78.7,66.1,79.2,65.5,79.2
				L65.5,79.2z M65.5,76.1c-0.6,0-1-0.4-1-1s0.4-1,1-1s1,0.4,1,1C66.5,75.7,66.1,76.1,65.5,76.1L65.5,76.1z M65.5,73
				c-0.6,0-1-0.4-1-1s0.4-1,1-1s1,0.4,1,1C66.5,72.6,66.1,73,65.5,73L65.5,73z M65.5,70c-0.6,0-1-0.4-1-1s0.4-1,1-1s1,0.4,1,1
				C66.6,69.5,66.1,70,65.5,70C65.6,70,65.5,70,65.5,70L65.5,70z M65.5,66.9c-0.6,0-1-0.4-1-1c0-0.6,0.4-1,1-1c0.5,0,1,0.4,1,0.9
				C66.6,66.4,66.1,66.9,65.5,66.9C65.6,66.9,65.6,66.9,65.5,66.9L65.5,66.9z M69,94.2c0,0.1-0.1,0.3-0.3,0.3
				c-0.1,0-0.3-0.1-0.3-0.3V68.4c0-0.2,0.1-0.3,0.3-0.3c0.1,0,0.3,0.1,0.3,0.3L69,94.2z M68.6,66.9c-0.6,0-1-0.4-1-1
				c0-0.6,0.4-1,1-1c0.5,0,1,0.4,1,0.9C69.6,66.4,69.2,66.9,68.6,66.9C68.6,66.9,68.6,66.9,68.6,66.9z M71.9,94.5c-0.6,0-1-0.4-1-1
				s0.4-1,1-1s1,0.4,1,1S72.4,94.5,71.9,94.5z M71.9,91.4c-0.6,0-1-0.4-1-1s0.4-1,1-1s1,0.4,1,1S72.4,91.4,71.9,91.4z M71.9,88.3
				c-0.6,0-1-0.4-1-1s0.4-1,1-1s1,0.4,1,1C72.9,87.9,72.4,88.3,71.9,88.3z M71.9,85.3c-0.6,0-1-0.4-1-1s0.4-1,1-1s1,0.4,1,1
				C72.9,84.8,72.4,85.3,71.9,85.3z M71.9,82.2c-0.6,0-1-0.4-1-1s0.4-1,1-1s1,0.4,1,1C72.9,81.8,72.4,82.2,71.9,82.2z M71.9,79.1
				c-0.6,0-1-0.4-1-1s0.4-1,1-1s1,0.4,1,1C72.9,78.7,72.4,79.1,71.9,79.1z M71.9,76.1c-0.6,0-1-0.4-1-1s0.4-1,1-1s1,0.4,1,1
				C72.9,75.6,72.4,76.1,71.9,76.1L71.9,76.1z M71.9,73c-0.6,0-1-0.4-1-1s0.4-1,1-1s1,0.4,1,1C72.9,72.6,72.4,73,71.9,73L71.9,73z
				 M71.9,70c-0.6,0-1-0.4-1-1s0.4-1,1-1s1,0.4,1,1C72.9,69.5,72.5,70,71.9,70C71.9,70,71.9,70,71.9,70L71.9,70z M71.9,66.9
				c-0.6,0-1-0.4-1-1c0-0.6,0.4-1,1-1c0.5,0,1,0.4,1,0.9C72.9,66.4,72.5,66.9,71.9,66.9C71.9,66.9,71.9,66.9,71.9,66.9L71.9,66.9z"
				/>
		</g>
		<g>
			<path class="st0" d="M47.5,57.9c2.1,0,3.9-1.7,3.9-3.8s-1.7-3.9-3.8-3.9s-3.9,1.7-3.9,3.8c0,0,0,0,0,0
				C43.7,56.2,45.4,57.9,47.5,57.9z"/>
		</g>
		<g>
			<path class="st0" d="M55.3,62.8c0,0-1.1-3-3.7-3h-8.2c-2.5,0-3.7,3-3.7,3l-3.2,10.4c0,0-0.6,1.9,1,2.4s2.1-1.4,2.1-1.4l2.6-8.7
				c0,0,0.1-0.7,0.6-0.5s0.3,0.9,0.3,0.9l-4.5,16.3h4.2v11.7c0,1.1,0.9,2,2,2s2-0.9,2-2V82.2H48v11.7c0,1.1,0.9,2,2,2s2-0.9,2-2
				V82.2h4.2l-4.4-16.3c0,0-0.2-0.7,0.3-0.9s0.6,0.5,0.6,0.5l2.6,8.7c0,0,0.5,1.9,2.1,1.4s1-2.4,1-2.4L55.3,62.8z M50.8,76.8
				L47.5,80l-3.2-3.2c-0.4-0.4-0.7-1-0.7-1.7c-0.1-1.2,0.8-2.2,2-2.3c0,0,0.1,0,0.1,0c0.6,0,1.3,0.7,1.7,1.1
				c0.5-0.6,1.1-0.9,1.8-1.1c1.2,0,2.1,1,2.1,2.2c0,0,0,0.1,0,0.1C51.4,75.8,51.2,76.4,50.8,76.8L50.8,76.8z"/>
		</g>
		<g>
			<g>
				<path class="st0" d="M22,50.2c-2.1,0-3.9,1.7-3.9,3.9c0,2.1,1.7,3.9,3.9,3.9s3.9-1.7,3.9-3.9C25.9,52,24.1,50.2,22,50.2
					C22,50.2,22,50.2,22,50.2z"/>
			</g>
			<g>
				<path class="st0" d="M33,73.2l-3.2-10.4c0,0-1.1-3-3.7-3H18c-2.5,0-3.7,3-3.7,3l-3.2,10.4c0,0-0.6,1.9,1.1,2.4s2.1-1.4,2.1-1.4
					l2.6-8.7c0,0,0.1-0.7,0.6-0.5s0.3,0.9,0.3,0.9l-4.5,16.3h4.2v11.7c0,1.1,0.9,2,2,2s2-0.9,2-2V82.2h1.1v11.7c0,1.1,0.9,2,2,2
					s2-0.9,2-2V82.2h4.2l-4.4-16.3c0,0-0.2-0.7,0.3-0.9s0.6,0.5,0.6,0.5l2.6,8.7c0,0,0.5,1.9,2.1,1.4S33,73.2,33,73.2z M22,76.4
					c-0.4,0-0.7-0.3-0.6-0.7c0-0.4,0.4-0.6,0.7-0.6c0.3,0,0.5,0.3,0.6,0.6C22.7,76.1,22.4,76.4,22,76.4C22,76.4,22,76.4,22,76.4z
					 M22,71.2c-0.4,0-0.7-0.3-0.7-0.6c0-0.4,0.3-0.7,0.6-0.7s0.7,0.3,0.7,0.6c0,0,0,0,0,0C22.7,70.9,22.4,71.2,22,71.2L22,71.2z
					 M22,66.2c-0.4,0-0.7-0.3-0.7-0.6c0-0.4,0.3-0.7,0.6-0.7s0.7,0.3,0.7,0.6c0,0,0,0,0,0C22.7,65.9,22.4,66.2,22,66.2L22,66.2z"/>
			</g>
			<g>
				<path class="st0" d="M22.1,49.5c1.3,0,2.5,0.6,3.4,1.5l1.6-1.8c-1.3-1.3-3.1-2.1-5-2.1c-1.9,0-3.8,0.9-5.1,2.3l1.9,1.5
					C19.8,50,20.9,49.5,22.1,49.5z"/>
			</g>
		</g>
	</g>
	<g>
		<path class="st1" d="M98.2,153.8H3.3v-31.6h94.8V153.8z M4.3,152.8h92.8v-29.6H4.3L4.3,152.8z"/>
	</g>
</g>
</svg>
