<?xml version="1.0" encoding="utf-8"?>
<!-- Generator: Adobe Illustrator 22.0.1, SVG Export Plug-In . SVG Version: 6.00 Build 0)  -->
<svg version="1.1" id="Layer_1" xmlns="http://www.w3.org/2000/svg" xmlns:xlink="http://www.w3.org/1999/xlink" x="0px" y="0px"
	 viewBox="0 0 101.5 174.8" style="enable-background:new 0 0 101.5 174.8;" xml:space="preserve">
<style type="text/css">
	.st0{fill:#FFFFFF;}
	.st1{fill:#FF3A21;}
	.st2{enable-background:new    ;}
</style>
<title>TARGET 1 B copy 5</title>
<g id="WHITE_BG">
	<g>
		<rect y="0" class="st0" width="101.5" height="174.8"/>
	</g>
</g>
<g id="TARGETS">
	<g>
		<g>
			<path class="st1" d="M10.1,130.6h-2l-0.4,1.6h-1l2-6.4h1l2,6.4h-1L10.1,130.6z M9.1,127l-0.8,2.8h1.6L9.1,127z"/>
		</g>
		<g>
			<path class="st1" d="M12.1,132.2v-6.4H14c2.1,0,2.7,1.4,2.7,3.2s-0.6,3.2-2.7,3.2L12.1,132.2z M13.1,131.3h1
				c1.3,0,1.7-0.9,1.7-2.3s-0.4-2.3-1.7-2.3h-1V131.3z"/>
		</g>
		<g>
			<path class="st1" d="M17.5,129c0-1.8,0.4-3.3,2.5-3.3s2.5,1.5,2.5,3.3s-0.4,3.3-2.5,3.3S17.5,130.8,17.5,129z M18.5,129
				c0,1.5,0.3,2.4,1.5,2.4s1.5-0.9,1.5-2.4s-0.3-2.4-1.5-2.4S18.5,127.5,18.5,129L18.5,129z"/>
		</g>
		<g>
			<path class="st1" d="M24.2,132.2h-1v-6.4h2c1.6,0,2.2,1,2.2,2c0,1-0.6,2-2.2,2h-1.1V132.2z M24.2,128.9h1.1
				c0.6,0.1,1.2-0.4,1.2-1s-0.4-1.2-1-1.2c-0.1,0-0.1,0-0.2,0h-1.1V128.9z"/>
		</g>
		<g>
			<path class="st1" d="M30.3,126.7v5.5h-1v-5.5h-1.7v-0.9H32v0.9H30.3z"/>
		</g>
		<g>
			<path class="st1" d="M36.9,130.6h-2l-0.5,1.6h-1l2-6.4h1l2,6.4h-1L36.9,130.6z M35.9,127l-0.8,2.8h1.6L35.9,127z"/>
		</g>
		<g>
			<path class="st1" d="M42.6,132.2l-2.8-4.5v4.5h-1v-6.4h0.9l2.8,4.5v-4.5h0.9v6.4H42.6z"/>
		</g>
		<g>
			<path class="st1" d="M44.5,132.2v-6.4h1.9c2.1,0,2.7,1.4,2.7,3.2s-0.6,3.2-2.7,3.2L44.5,132.2z M45.4,131.3h1
				c1.3,0,1.7-0.9,1.7-2.3s-0.4-2.3-1.7-2.3h-1V131.3z"/>
		</g>
		<g>
			<path class="st1" d="M11.1,139.3c0,1.2-0.7,2-2.4,2c-0.6,0-1.3-0.1-1.9-0.4V140c0.6,0.3,1.2,0.4,1.8,0.4c1.1,0,1.5-0.5,1.5-1.1
				s-0.3-0.9-1.2-1c-1.6-0.2-2.2-0.6-2.2-1.8c0-0.9,0.5-1.8,2.3-1.8c0.6,0,1.2,0.1,1.7,0.3v1c-0.5-0.2-1.1-0.3-1.7-0.3
				c-1,0-1.3,0.4-1.3,1s0.4,0.8,1.2,0.9C10.3,137.7,11.1,138,11.1,139.3z"/>
		</g>
		<g>
			<path class="st1" d="M13.8,135.7v5.5h-1v-5.5h-1.6v-0.9h4.3v0.9H13.8z"/>
		</g>
		<g>
			<path class="st1" d="M17.1,141.2h-1v-6.4h2.1c1.6,0,2.2,0.7,2.2,1.9c0.1,0.7-0.3,1.4-1,1.7l1.3,2.8h-1.2l-1.1-2.6h-1.3V141.2z
				 M17.1,137.7h1.3c0.9,0,1-0.5,1-1s-0.1-1-1-1h-1.3V137.7z"/>
		</g>
		<g>
			<path class="st1" d="M24.9,138.3h-2.7v2h2.9v0.9h-3.9v-6.4h3.9v0.9h-2.9v1.8h2.7V138.3z"/>
		</g>
		<g>
			<path class="st1" d="M29.7,141.2l-2.7-4.5v4.5h-1v-6.4h0.9l2.8,4.5v-4.5h1v6.4H29.7z"/>
		</g>
		<g>
			<path class="st1" d="M31.5,138c0-2,0.7-3.3,2.6-3.3c0.6,0,1.3,0.1,1.8,0.3v1c-0.5-0.2-1.1-0.4-1.7-0.4c-1.3,0-1.8,0.9-1.8,2.4
				s0.5,2.4,1.8,2.4c0.3,0,0.6,0,0.9-0.1v-1.7H34v-0.9h2.1v3.2c-0.6,0.3-1.3,0.4-2,0.4C32.2,141.3,31.5,140,31.5,138z"/>
		</g>
		<g>
			<path class="st1" d="M39.1,135.7v5.5h-1v-5.5h-1.6v-0.9h4.3v0.9H39.1z"/>
		</g>
		<g>
			<path class="st1" d="M45,141.2v-2.9h-2.6v2.9h-1v-6.4h1v2.6H45v-2.6h1v6.4H45z"/>
		</g>
		<g>
			<path class="st1" d="M50.5,138.3h-2.7v2h2.9v0.9h-3.9v-6.4h3.9v0.9h-2.9v1.8h2.7V138.3z"/>
		</g>
		<g>
			<path class="st1" d="M55.3,141.2l-2.8-4.5v4.5h-0.9v-6.4h0.9l2.8,4.5v-4.5h0.9v6.4H55.3z"/>
		</g>
		<g>
			<path class="st1" d="M59.4,141.2h-1v-6.4h2c1.6,0,2.2,0.9,2.2,2s-0.6,2-2.2,2h-1V141.2z M59.4,137.9h1.1c0.6,0.1,1.2-0.4,1.2-1
				s-0.4-1.2-1-1.2c-0.1,0-0.1,0-0.2,0h-1.1V137.9z"/>
		</g>
		<g>
			<path class="st1" d="M63.2,138c0-1.8,0.4-3.3,2.5-3.3s2.5,1.5,2.5,3.3s-0.4,3.3-2.5,3.3S63.2,139.8,63.2,138z M64.2,138
				c0,1.5,0.3,2.4,1.5,2.4s1.5-0.9,1.5-2.4s-0.3-2.4-1.5-2.4S64.2,136.5,64.2,138L64.2,138z"/>
		</g>
		<g>
			<path class="st1" d="M69.8,140.3h2.8v0.9h-3.7v-6.4h0.9V140.3z"/>
		</g>
		<g>
			<path class="st1" d="M73.3,141.2v-6.4h1v6.4H73.3z"/>
		</g>
		<g>
			<path class="st1" d="M77.8,134.7c0.5,0,1,0.1,1.5,0.3v0.9c-0.5-0.2-0.9-0.3-1.4-0.3c-1.2,0-1.7,0.8-1.7,2.4s0.5,2.4,1.7,2.4
				c0.5,0,1-0.1,1.4-0.3v0.9c-0.5,0.2-1,0.3-1.5,0.3c-1.9,0-2.6-1.2-2.6-3.3S76,134.7,77.8,134.7z"/>
		</g>
		<g>
			<path class="st1" d="M80.3,141.2v-6.4h1v6.4H80.3z"/>
		</g>
		<g>
			<path class="st1" d="M86,138.3h-2.7v2h2.9v0.9h-3.9v-6.4h3.9v0.9h-2.9v1.8H86V138.3z"/>
		</g>
		<g>
			<path class="st1" d="M91.3,139.3c0,1.2-0.7,2-2.4,2c-0.6,0-1.3-0.1-1.9-0.4V140c0.6,0.3,1.2,0.4,1.8,0.4c1.2,0,1.5-0.5,1.5-1.1
				s-0.3-0.9-1.2-1c-1.6-0.2-2.2-0.6-2.2-1.8c0-0.9,0.5-1.8,2.3-1.8c0.6,0,1.2,0.1,1.8,0.3v1c-0.5-0.2-1.1-0.3-1.7-0.3
				c-1,0-1.3,0.4-1.3,1s0.4,0.8,1.2,0.9C90.5,137.7,91.3,138,91.3,139.3z"/>
		</g>
		<g>
			<path class="st1" d="M10.1,148.6h-2l-0.4,1.6h-1l2-6.4h1l2,6.4h-1L10.1,148.6z M9.1,145l-0.8,2.8h1.6L9.1,145z"/>
		</g>
		<g>
			<path class="st1" d="M15.8,150.2l-2.8-4.5v4.5h-0.9v-6.4H13l2.8,4.5v-4.5h0.9v6.4H15.8z"/>
		</g>
		<g>
			<path class="st1" d="M17.6,150.2v-6.4h1.9c2.1,0,2.7,1.4,2.7,3.2s-0.6,3.2-2.7,3.2H17.6z M18.6,149.3h1c1.3,0,1.7-0.9,1.7-2.3
				s-0.4-2.3-1.7-2.3h-1V149.3z"/>
		</g>
		<g>
			<path class="st1" d="M28,147.3h-2.6v2h2.9v0.9h-3.9v-6.4h3.9v0.9h-2.9v1.8H28V147.3z"/>
		</g>
		<g>
			<path class="st1" d="M32.8,150.2l-2.8-4.5v4.5h-1v-6.4H30l2.8,4.5v-4.5h0.9v6.4H32.8z"/>
		</g>
		<g>
			<path class="st1" d="M38.2,147.4h-2.6v2.8h-1v-6.4h3.8v0.9h-2.8v1.8h2.6V147.4z"/>
		</g>
		<g>
			<path class="st1" d="M39,147c0-1.8,0.4-3.3,2.5-3.3s2.5,1.5,2.5,3.3s-0.4,3.3-2.5,3.3S39,148.8,39,147z M40,147
				c0,1.5,0.3,2.4,1.5,2.4s1.5-0.9,1.5-2.4s-0.3-2.4-1.5-2.4S40,145.5,40,147z"/>
		</g>
		<g>
			<path class="st1" d="M45.7,150.2h-1v-6.4h2.1c1.7,0,2.2,0.7,2.2,1.9c0.1,0.7-0.3,1.4-1,1.7l1.3,2.8h-1.1l-1.2-2.6h-1.3V150.2z
				 M45.7,146.7H47c0.9,0,1-0.5,1-1s-0.1-1-1-1h-1.3V146.7z"/>
		</g>
		<g>
			<path class="st1" d="M52.4,143.7c0.5,0,1,0.1,1.5,0.3v0.9c-0.5-0.2-0.9-0.3-1.4-0.3c-1.2,0-1.7,0.8-1.7,2.4s0.5,2.4,1.7,2.4
				c0.5,0,1-0.1,1.4-0.3v0.9c-0.5,0.2-1,0.3-1.5,0.3c-1.9,0-2.6-1.2-2.6-3.3S50.5,143.7,52.4,143.7z"/>
		</g>
		<g>
			<path class="st1" d="M58.3,147.3h-2.7v2h2.9v0.9h-3.9v-6.4h3.9v0.9h-2.9v1.8h2.7V147.3z"/>
		</g>
		<g>
			<path class="st1" d="M62.5,148.6h-2l-0.5,1.6H59l2-6.4h1l2,6.4h-1L62.5,148.6z M61.5,145l-0.8,2.8h1.6L61.5,145z"/>
		</g>
		<g>
			<path class="st1" d="M64.6,143.8h2.1c1.6,0,2,0.8,2,1.7c0,0.5-0.3,1-0.8,1.3c0.6,0.2,1.1,0.8,1,1.5c0,1.1-0.5,1.9-2.2,1.9h-2.2
				V143.8z M66.7,144.7h-1.2v1.8h1.2c0.4,0.1,0.9-0.2,0.9-0.7c0-0.1,0-0.1,0-0.2C67.7,145.2,67.6,144.7,66.7,144.7z M65.5,149.3h1.3
				c0.9,0,1.1-0.5,1.1-1s-0.3-1-1.1-1h-1.3L65.5,149.3z"/>
		</g>
		<g>
			<path class="st1" d="M70.6,149.3h2.8v0.9h-3.7v-6.4h1L70.6,149.3z"/>
		</g>
		<g>
			<path class="st1" d="M77.5,147.3h-2.7v2h2.9v0.9h-3.9v-6.4h3.9v0.9h-2.9v1.8h2.7V147.3z"/>
		</g>
		<g>
			<path class="st1" d="M7.8,158.3h2.8v0.9H6.9v-6.4h1L7.8,158.3z"/>
		</g>
		<g>
			<path class="st1" d="M14.7,156.3h-2.6v2H15v0.9h-3.9v-6.4H15v0.9h-2.9v1.8h2.6V156.3z"/>
		</g>
		<g>
			<path class="st1" d="M15.8,156c0-2,0.7-3.3,2.6-3.3c0.6,0,1.3,0.1,1.8,0.3v1c-0.5-0.2-1.1-0.4-1.7-0.4c-1.3,0-1.8,0.9-1.8,2.4
				s0.5,2.4,1.8,2.4c0.3,0,0.6,0,0.9-0.1v-1.7h-1.1v-0.9h2.1v3.2c-0.6,0.3-1.3,0.4-2,0.4C16.5,159.3,15.8,158,15.8,156z"/>
		</g>
		<g>
			<path class="st1" d="M21.4,159.2v-6.4h1v6.4H21.4z"/>
		</g>
		<g>
			<path class="st1" d="M27.6,157.3c0,1.2-0.7,2-2.4,2c-0.6,0-1.3-0.1-1.9-0.4V158c0.6,0.3,1.2,0.4,1.8,0.4c1.1,0,1.5-0.5,1.5-1.1
				s-0.3-0.9-1.2-1c-1.5-0.2-2.1-0.6-2.1-1.8c0-0.9,0.5-1.8,2.3-1.8c0.6,0,1.2,0.1,1.7,0.3v1c-0.5-0.2-1.1-0.3-1.7-0.3
				c-1,0-1.3,0.4-1.3,1s0.4,0.8,1.2,0.9C26.9,155.7,27.6,156,27.6,157.3z"/>
		</g>
		<g>
			<path class="st1" d="M29.3,158.3H32v0.9h-3.7v-6.4h1V158.3z"/>
		</g>
		<g>
			<path class="st1" d="M35.8,157.6h-2l-0.5,1.6h-1l2-6.4h1l2,6.4h-1L35.8,157.6z M34.8,154l-0.8,2.8h1.6L34.8,154z"/>
		</g>
		<g>
			<path class="st1" d="M39.4,153.7v5.5h-1v-5.5h-1.6v-0.9h4.3v0.9H39.4z"/>
		</g>
		<g>
			<path class="st1" d="M41.9,159.2v-6.4h1v6.4H41.9z"/>
		</g>
		<g>
			<path class="st1" d="M43.8,156c0-1.8,0.4-3.3,2.5-3.3s2.5,1.5,2.5,3.3s-0.4,3.3-2.5,3.3S43.8,157.8,43.8,156z M44.8,156
				c0,1.5,0.3,2.4,1.5,2.4s1.5-0.9,1.5-2.4s-0.3-2.4-1.5-2.4S44.8,154.5,44.8,156L44.8,156z"/>
		</g>
		<g>
			<path class="st1" d="M53.2,159.2l-2.8-4.5v4.5h-0.9v-6.4h0.9l2.8,4.5v-4.5h1v6.4H53.2z"/>
		</g>
		<g>
			<path class="st1" d="M59.9,156.4h-2.6v2.8h-1v-6.4h3.8v0.9h-2.8v1.8h2.6V156.4z"/>
		</g>
		<g>
			<path class="st1" d="M60.6,156c0-1.8,0.4-3.3,2.5-3.3c2.1,0,2.4,1.5,2.4,3.3s-0.4,3.3-2.5,3.3S60.6,157.8,60.6,156z M61.6,156
				c0,1.5,0.3,2.4,1.5,2.4c1.2,0,1.5-0.9,1.5-2.4s-0.3-2.4-1.5-2.4S61.6,154.5,61.6,156L61.6,156z"/>
		</g>
		<g>
			<path class="st1" d="M67.2,159.2h-1v-6.4h2.1c1.7,0,2.2,0.7,2.2,1.9c0.1,0.7-0.3,1.4-1,1.7l1.3,2.8h-1.1l-1.2-2.6h-1.3V159.2z
				 M67.2,155.7h1.2c0.9,0,1-0.5,1-1s-0.1-1-1-1h-1.2V155.7z"/>
		</g>
		<g>
			<path class="st1" d="M6.8,165c0-2,0.7-3.3,2.6-3.3c0.6,0,1.3,0.1,1.8,0.3v1c-0.5-0.2-1.1-0.4-1.7-0.4c-1.3,0-1.8,0.9-1.8,2.4
				s0.5,2.4,1.8,2.4c0.3,0,0.6,0,0.9-0.1v-1.7H9.3v-0.9h2.1v3.2c-0.6,0.3-1.3,0.4-2,0.4C7.5,168.3,6.8,167,6.8,165z"/>
		</g>
		<g>
			<path class="st1" d="M15.9,165.3h-2.6v2h2.9v0.9h-3.9v-6.4h3.9v0.9h-2.9v1.8h2.7L15.9,165.3z"/>
		</g>
		<g>
			<path class="st1" d="M20.7,168.2l-2.7-4.5v4.5h-1v-6.4h0.9l2.8,4.5v-4.5h0.9v6.4H20.7z"/>
		</g>
		<g>
			<path class="st1" d="M22.6,168.2v-6.4h1.9c2.1,0,2.7,1.4,2.7,3.2s-0.6,3.2-2.7,3.2H22.6z M23.6,167.3h1c1.3,0,1.7-0.9,1.7-2.3
				s-0.4-2.3-1.7-2.3h-1V167.3z"/>
		</g>
		<g>
			<path class="st1" d="M31.6,165.3H29v2h2.9v0.9H28v-6.4h3.9v0.9H29v1.8h2.6L31.6,165.3z"/>
		</g>
		<g>
			<path class="st1" d="M33.7,168.2h-1v-6.4h2.1c1.7,0,2.2,0.7,2.2,1.9c0.1,0.7-0.3,1.4-1,1.7l1.3,2.8h-1.1l-1.2-2.6h-1.3V168.2z
				 M33.7,164.7h1.3c0.9,0,1-0.5,1-1s-0.1-1-1-1h-1.3V164.7z"/>
		</g>
		<g>
			<path class="st1" d="M42.9,165.3h-2.7v2h2.9v0.9h-3.9v-6.4h3.9v0.9h-2.9v1.8h2.7V165.3z"/>
		</g>
		<g>
			<path class="st1" d="M47.3,168l2,0.4v1l-4-1.2c-1.3-0.4-1.6-1.6-1.6-3.2c0-1.9,0.4-3.3,2.5-3.3s2.5,1.4,2.5,3.3
				C48.7,166.5,48.5,167.6,47.3,168L47.3,168z M44.8,165c0,1.5,0.3,2.4,1.5,2.4s1.5-0.9,1.5-2.4s-0.3-2.4-1.5-2.4
				S44.8,163.5,44.8,165z"/>
		</g>
		<g>
			<path class="st1" d="M49.4,166.2v-4.4h1v4.3c0,0.8,0.6,1.4,1.4,1.4s1.4-0.6,1.4-1.4v-4.3H54v4.4c0.1,1.1-0.8,2.1-1.9,2.1
				c-0.1,0-0.3,0-0.4,0c-1.1,0.2-2.1-0.6-2.3-1.7C49.4,166.5,49.4,166.3,49.4,166.2z"/>
		</g>
		<g>
			<path class="st1" d="M57.8,166.6h-2l-0.5,1.6h-1l2-6.4h1l2,6.4h-1L57.8,166.6z M56.8,163l-0.8,2.8h1.6L56.8,163z"/>
		</g>
		<g>
			<path class="st1" d="M60.8,167.3h2.8v0.9h-3.7v-6.4h1L60.8,167.3z"/>
		</g>
		<g>
			<path class="st1" d="M64.2,168.2v-6.4h1v6.4H64.2z"/>
		</g>
		<g>
			<path class="st1" d="M68.6,162.7v5.5h-1v-5.5H66v-0.9h4.3v0.9H68.6z"/>
		</g>
		<g>
			<path class="st1" d="M73.7,165.6v2.6h-1v-2.6l-2.2-3.8h1.1l1.6,3l1.6-3h1.1L73.7,165.6z"/>
		</g>
	</g>
	<g>
		<rect x="3.3" y="24" class="st1" width="94.8" height="94.8"/>
	</g>
	<g>
		<path class="st1" d="M98.2,20.7H3.3V3.3h94.8V20.7z M4.3,19.7h92.8V4.3H4.3L4.3,19.7z"/>
	</g>
	<g class="st2">
		<path class="st1" d="M6.7,6.9h4.5v1.4H9.9v8.8H8.1V8.3H6.7V6.9z"/>
	</g>
	<g class="st2">
		<path class="st1" d="M11.2,17.1l1.9-10.2h1.9L17,17.1h-1.8l-0.3-1.9h-1.8l-0.3,1.9H11.2z M13.3,13.9h1.4L14,9.8h0L13.3,13.9z"/>
	</g>
	<g class="st2">
		<path class="st1" d="M19.6,12.4v4.7h-1.7V6.9h2.5c1.7,0,2.4,0.9,2.4,2.3v1.3c0,1.1-0.4,1.7-1.4,2l1.6,4.6h-1.8L19.6,12.4z
			 M19.6,8.3v3.2h0.6c0.6,0,0.8-0.3,0.8-0.8V9.2c0-0.6-0.3-0.8-0.8-0.8H19.6z"/>
	</g>
	<g class="st2">
		<path class="st1" d="M26.4,11.7h2.4v5.4h-1.2V16c-0.2,0.8-0.7,1.2-1.6,1.2c-1.5,0-2.1-1.2-2.1-2.7V9.6c0-1.6,0.8-2.7,2.6-2.7
			c1.9,0,2.4,1.1,2.4,2.6v0.9h-1.6v-1c0-0.6-0.2-1-0.9-1c-0.6,0-0.9,0.4-0.9,1v5.5c0,0.6,0.3,1,0.8,1c0.6,0,0.8-0.3,0.8-1V13h-0.8
			V11.7z"/>
	</g>
	<g class="st2">
		<path class="st1" d="M30.2,6.9h4.1v1.4h-2.4v2.9h1.7v1.4h-1.7v3.1h2.4v1.4h-4.1V6.9z"/>
	</g>
	<g class="st2">
		<path class="st1" d="M35.1,6.9h4.5v1.4h-1.4v8.8h-1.7V8.3h-1.4V6.9z"/>
	</g>
	<g class="st2">
		<path class="st1" d="M89.4,14.5V9.6c0-1.6,0.8-2.7,2.5-2.7c1.9,0,2.4,1.1,2.4,2.6v1.2h-1.6V9.2c0-0.6-0.2-1-0.8-1
			c-0.6,0-0.9,0.4-0.9,1v5.5c0,0.6,0.3,1,0.9,1c0.6,0,0.8-0.4,0.8-1v-1.9h1.6v1.8c0,1.5-0.6,2.5-2.4,2.5
			C90.2,17.2,89.4,16.1,89.4,14.5z"/>
	</g>
	<g class="st2">
		<path class="st1" d="M83.2,12.4v2.5c0,1.4-0.7,2.3-2.4,2.3c-1.7,0-2.4-1-2.4-2.5v-1.2H80v1.3c0,0.6,0.2,1,0.8,1
			c0.5,0,0.7-0.4,0.7-0.9v-2.5c0-0.6-0.2-0.9-0.7-0.9c-0.5,0-0.8,0.3-0.8,0.9v0.2h-1.6V6.9h4.5v1.4H80v2.5h0
			c0.3-0.5,0.8-0.7,1.4-0.7C82.4,10.1,83.2,10.8,83.2,12.4z"/>
	</g>
	<g>
		<polygon class="st1" points="85.4,9.9 85.4,14.1 87.6,12 		"/>
	</g>
	<g>
		<path class="st1" d="M98.2,171.9h-95v-49.7h95V171.9z M4.2,170.9h93v-47.7h-93V170.9z"/>
	</g>
	<g>
		<g>
			<path class="st0" d="M66.6,45.5c2.4,0,4.3-1.9,4.3-4.3s-1.9-4.3-4.3-4.3c-2.4,0-4.3,1.9-4.3,4.3c0,0,0,0,0,0l0,0
				C62.4,43.6,64.3,45.5,66.6,45.5z"/>
		</g>
		<g>
			<path class="st0" d="M36.7,45.8c2.3,0,4.2-1.9,4.2-4.2c0-2.3-1.9-4.2-4.2-4.2c-2.3,0-4.2,1.9-4.2,4.2l0,0
				C32.5,43.9,34.4,45.8,36.7,45.8C36.7,45.8,36.7,45.8,36.7,45.8z"/>
		</g>
		<g>
			<path class="st0" d="M25.5,65.1c1.8,0.5,2.3-1.5,2.3-1.5l2.8-9.5c0,0,0.2-0.7,0.7-0.6s0.4,0.9,0.4,0.9l-4.9,17.8h4.6V85
				c0.1,1.2,1.1,2.1,2.3,2c0,0,0,0,0,0c1.1,0,2-0.9,2-2V72.2h1.2V85c0.1,1.2,1.1,2.1,2.3,2c0,0,0,0,0,0c1.1,0,2-0.9,2-2V72.2h4.6
				l-4.4-16c-0.2-1,0-2,0.4-2.9l2.9-5.2l5.4-9.1l6.3,8.3l3.9,5.5c0.4,0.7,0.7,1.5,0.7,2.3v29.8c0,1.3,1.1,2.4,2.4,2.4
				c1.3,0,2.4-1.1,2.4-2.4V67.3c0-0.4,0.2-0.7,0.6-0.7h0.1c0.4,0,0.7,0.2,0.7,0.6v17.6c0,1.3,1.1,2.3,2.4,2.3c1.3,0,2.3-1.1,2.3-2.3
				V54.4c0-0.3,0.1-0.8,0.6-0.8c0.7,0,0.8,0.5,0.8,0.9v10.1c0.1,0.9,0.9,1.6,1.8,1.5c0.8-0.1,1.4-0.7,1.5-1.5V52.8
				c0-3-2.3-5.4-5.2-5.7H63c-1.2,0.1-2.4-0.5-3.1-1.4l-8.1-9.9c-0.4-0.5-0.8-0.9-1.3-1.2c-0.8-0.4-1.8-0.1-2.3,0.7c0,0,0,0.1,0,0.1
				l-7.3,11.4c-0.7,0.7-1.6,1.1-2.6,1h-6.5c-2.8,0-4,3.3-4,3.3l-3.5,11.4C24.4,62.5,23.8,64.6,25.5,65.1z"/>
		</g>
		<g>
			<path class="st0" d="M88.9,91.8H12.4c-0.3,0-0.5,0.2-0.6,0.5v3.6c0,0.3,0.3,0.6,0.6,0.6H89c0.3,0,0.6-0.2,0.6-0.6c0,0,0,0,0,0
				v-3.6C89.5,92.1,89.2,91.9,88.9,91.8z"/>
		</g>
		<g>
			<path class="st0" d="M50.2,98.3l-5.3,9.2c-0.2,0.3,0,0.7,0.3,0.8c0.1,0,0.1,0.1,0.2,0.1h10.7c0.3,0,0.6-0.2,0.6-0.5
				c0-0.1,0-0.3-0.1-0.4l-5.3-9.2c-0.2-0.3-0.6-0.4-0.9-0.2C50.4,98.2,50.3,98.3,50.2,98.3z"/>
		</g>
	</g>
</g>
</svg>
