<?xml version="1.0" encoding="utf-8"?>
<!-- Generator: Adobe Illustrator 22.0.1, SVG Export Plug-In . SVG Version: 6.00 Build 0)  -->
<svg version="1.1" id="Layer_1" xmlns="http://www.w3.org/2000/svg" xmlns:xlink="http://www.w3.org/1999/xlink" x="0px" y="0px"
	 viewBox="0 0 101.5 175.2" style="enable-background:new 0 0 101.5 175.2;" xml:space="preserve">
<style type="text/css">
	.st0{fill:#FFFFFF;}
	.st1{fill:#FF3A21;}
	.st2{enable-background:new    ;}
</style>
<title>TARGET 1 B copy 3</title>
<g id="WHITE_BG">
	<g>
		<rect y="0" class="st0" width="101.5" height="175.2"/>
	</g>
</g>
<g id="TARGETS">
	<g>
		<g>
			<path class="st1" d="M10.5,129.3H7.8v2h2.9v0.9H6.9v-6.4h3.9v0.9H7.8v1.8h2.6V129.3z"/>
		</g>
		<g>
			<path class="st1" d="M15,132l2,0.4v1l-4-1.2c-1.3-0.4-1.6-1.6-1.6-3.2c0-1.9,0.4-3.3,2.5-3.3s2.5,1.4,2.5,3.3
				C16.3,130.5,16.1,131.6,15,132L15,132z M12.4,129c0,1.5,0.3,2.4,1.5,2.4s1.5-0.9,1.5-2.4s-0.3-2.4-1.5-2.4S12.4,127.5,12.4,129
				L12.4,129z"/>
		</g>
		<g>
			<path class="st1" d="M17,130.2v-4.4h1v4.3c-0.1,0.7,0.4,1.2,1,1.3c0.1,0,0.2,0,0.3,0c0.7,0.1,1.3-0.4,1.4-1c0-0.1,0-0.2,0-0.3
				v-4.3h1v4.4c0.1,1.1-0.8,2.1-1.9,2.1c-0.1,0-0.3,0-0.4,0c-1.1,0.2-2.2-0.6-2.3-1.7C17,130.5,17,130.3,17,130.2z"/>
		</g>
		<g>
			<path class="st1" d="M25.5,130.6h-2l-0.5,1.6h-1l2-6.4h1l2,6.4h-1L25.5,130.6z M24.5,127l-0.8,2.8h1.6L24.5,127z"/>
		</g>
		<g>
			<path class="st1" d="M28.4,131.3h2.8v0.9h-3.7v-6.4h1L28.4,131.3z"/>
		</g>
		<g>
			<path class="st1" d="M34.2,132.2h-1v-6.4h2.1c1.7,0,2.2,0.7,2.2,1.9c0.1,0.7-0.3,1.4-1,1.7l1.3,2.8h-1.2l-1.2-2.6h-1.3V132.2z
				 M34.2,128.7h1.3c0.9,0,1-0.5,1-1s-0.1-1-1-1h-1.3V128.7z"/>
		</g>
		<g>
			<path class="st1" d="M38.5,132.2v-6.4h1v6.4H38.5z"/>
		</g>
		<g>
			<path class="st1" d="M40.5,129c0-2,0.7-3.3,2.6-3.3c0.6,0,1.3,0.1,1.8,0.3v1c-0.5-0.2-1.1-0.4-1.7-0.4c-1.3,0-1.8,0.9-1.8,2.4
				s0.5,2.4,1.8,2.4c0.3,0,0.6,0,0.9-0.1v-1.7H43v-0.9h2.1v3.2c-0.6,0.3-1.3,0.4-2,0.4C41.2,132.3,40.5,131,40.5,129z"/>
		</g>
		<g>
			<path class="st1" d="M49.5,132.2v-2.9H47v2.9h-1v-6.4h1v2.6h2.6v-2.6h1v6.4H49.5z"/>
		</g>
		<g>
			<path class="st1" d="M53.8,126.7v5.5h-1v-5.5h-1.6v-0.9h4.3v0.9H53.8z"/>
		</g>
		<g>
			<path class="st1" d="M60.1,130.3c0,1.2-0.7,2-2.4,2c-0.6,0-1.3-0.1-1.9-0.4V131c0.6,0.3,1.2,0.4,1.8,0.4c1.2,0,1.5-0.5,1.5-1.1
				s-0.3-0.9-1.2-1c-1.5-0.2-2.2-0.6-2.2-1.8c0-0.9,0.5-1.8,2.3-1.8c0.6,0,1.2,0.1,1.7,0.3v1c-0.5-0.2-1.1-0.3-1.7-0.3
				c-1,0-1.3,0.4-1.3,1c0,0.7,0.4,0.8,1.2,0.9C59.4,128.7,60.1,129,60.1,130.3z"/>
		</g>
		<g>
			<path class="st1" d="M64.4,126.7v5.5h-1v-5.5h-1.6v-0.9H66v0.9H64.4z"/>
		</g>
		<g>
			<path class="st1" d="M66.2,129c0-1.8,0.4-3.3,2.5-3.3s2.4,1.5,2.4,3.3s-0.4,3.3-2.4,3.3S66.2,130.8,66.2,129z M67.2,129
				c0,1.5,0.3,2.4,1.5,2.4s1.5-0.9,1.5-2.4s-0.3-2.4-1.5-2.4S67.2,127.5,67.2,129L67.2,129z"/>
		</g>
		<g>
			<path class="st1" d="M10.5,138.3H7.8v2h2.9v0.9H6.9v-6.4h3.9v0.9H7.8v1.8h2.6V138.3z"/>
		</g>
		<g>
			<path class="st1" d="M14,134.7c0.5,0,1,0.1,1.5,0.3v0.9c-0.5-0.2-0.9-0.3-1.4-0.3c-1.2,0-1.7,0.8-1.7,2.4s0.5,2.4,1.7,2.4
				c0.5,0,1-0.1,1.4-0.3v0.9c-0.5,0.2-1,0.3-1.5,0.3c-1.9,0-2.6-1.2-2.6-3.3S12.1,134.7,14,134.7z"/>
		</g>
		<g>
			<path class="st1" d="M16.2,138c0-1.8,0.4-3.3,2.5-3.3s2.5,1.5,2.5,3.3s-0.4,3.3-2.5,3.3S16.2,139.8,16.2,138z M17.2,138
				c0,1.5,0.3,2.4,1.5,2.4s1.5-0.9,1.5-2.4s-0.3-2.4-1.5-2.4S17.1,136.5,17.2,138L17.2,138z"/>
		</g>
		<g>
			<path class="st1" d="M25.5,141.2l-2.8-4.5v4.5h-1v-6.4h0.9l2.8,4.5v-4.5h0.9v6.4H25.5z"/>
		</g>
		<g>
			<path class="st1" d="M27.2,138c0-1.8,0.4-3.3,2.5-3.3s2.5,1.5,2.5,3.3s-0.4,3.3-2.5,3.3S27.2,139.8,27.2,138z M28.2,138
				c0,1.5,0.3,2.4,1.5,2.4s1.5-0.9,1.5-2.4s-0.3-2.4-1.5-2.4S28.2,136.5,28.2,138L28.2,138z"/>
		</g>
		<g>
			<path class="st1" d="M36.4,140.3h-0.9l-1.6-3.9v4.8H33v-6.4h1.2l1.8,4.3l1.7-4.3H39v6.4h-1l0-4.8L36.4,140.3z"/>
		</g>
		<g>
			<path class="st1" d="M40,141.2v-6.4h1v6.4H40z"/>
		</g>
		<g>
			<path class="st1" d="M44.6,134.7c0.5,0,1,0.1,1.5,0.3v0.9c-0.5-0.2-0.9-0.3-1.4-0.3c-1.2,0-1.7,0.8-1.7,2.4s0.5,2.4,1.7,2.4
				c0.5,0,1-0.1,1.4-0.3v0.9c-0.5,0.2-1,0.3-1.5,0.3c-1.9,0-2.6-1.2-2.6-3.3S42.7,134.7,44.6,134.7z"/>
		</g>
		<g>
			<path class="st1" d="M49.3,141.2h-1v-6.4h2.1c1.7,0,2.2,0.7,2.2,1.9c0.1,0.7-0.3,1.4-1,1.7l1.3,2.8h-1.1l-1.2-2.6h-1.3V141.2z
				 M49.3,137.7h1.3c0.9,0,1-0.5,1-1s-0.1-1-1-1h-1.3V137.7z"/>
		</g>
		<g>
			<path class="st1" d="M57.1,138.3h-2.7v2h2.9v0.9h-3.9v-6.4h3.9v0.9h-2.9v1.8h2.7V138.3z"/>
		</g>
		<g>
			<path class="st1" d="M62.4,139.3c0,1.2-0.7,2-2.4,2c-0.6,0-1.3-0.1-1.9-0.4V140c0.6,0.3,1.2,0.4,1.8,0.4c1.2,0,1.5-0.5,1.5-1.1
				s-0.3-0.9-1.2-1c-1.5-0.2-2.2-0.6-2.2-1.8c0-0.9,0.5-1.8,2.3-1.8c0.6,0,1.2,0.1,1.7,0.3v1c-0.5-0.2-1.1-0.3-1.7-0.3
				c-1,0-1.3,0.4-1.3,1s0.4,0.8,1.2,0.9C61.6,137.7,62.4,138,62.4,139.3z"/>
		</g>
		<g>
			<path class="st1" d="M63,138c0-1.8,0.4-3.3,2.4-3.3c2,0,2.5,1.5,2.5,3.3s-0.4,3.3-2.5,3.3S63,139.8,63,138z M64,138
				c0,1.5,0.3,2.4,1.5,2.4s1.5-0.9,1.5-2.4s-0.3-2.4-1.5-2.4S64,136.5,64,138z"/>
		</g>
		<g>
			<path class="st1" d="M68.6,139.2v-4.4h1v4.3c0,0.8,0.6,1.4,1.4,1.4s1.4-0.6,1.4-1.4v-4.3h1v4.4c-0.1,1.3-1.2,2.2-2.5,2.1
				C69.7,141.2,68.8,140.3,68.6,139.2L68.6,139.2z"/>
		</g>
		<g>
			<path class="st1" d="M75.1,141.2h-1v-6.4h2.1c1.7,0,2.2,0.7,2.2,1.9c0.1,0.7-0.3,1.4-1,1.7l1.3,2.8h-1.1l-1.2-2.6h-1.3V141.2z
				 M75.1,137.7h1.2c0.9,0,1-0.5,1-1s-0.1-1-1-1h-1.2V137.7z"/>
		</g>
		<g>
			<path class="st1" d="M81.7,134.7c0.5,0,1,0.1,1.5,0.3v0.9c-0.5-0.2-0.9-0.3-1.4-0.3c-1.2,0-1.7,0.8-1.7,2.4s0.5,2.4,1.7,2.4
				c0.5,0,1-0.1,1.4-0.3v0.9c-0.5,0.2-1,0.3-1.5,0.3c-1.9,0-2.6-1.2-2.6-3.3S79.8,134.7,81.7,134.7z"/>
		</g>
		<g>
			<path class="st1" d="M87.7,138.3h-2.7v2H88v0.9h-3.9v-6.4H88v0.9h-2.9v1.8h2.7L87.7,138.3z"/>
		</g>
		<g>
			<path class="st1" d="M93,139.3c0,1.2-0.7,2-2.4,2c-0.6,0-1.3-0.1-1.9-0.4V140c0.6,0.3,1.2,0.4,1.8,0.4c1.2,0,1.5-0.5,1.5-1.1
				s-0.3-0.9-1.2-1c-1.6-0.2-2.2-0.6-2.2-1.8c0-0.9,0.5-1.8,2.3-1.8c0.6,0,1.2,0.1,1.7,0.3v1c-0.5-0.2-1.1-0.3-1.7-0.3
				c-1,0-1.3,0.4-1.3,1s0.4,0.8,1.2,0.9C92.2,137.7,93,138,93,139.3z"/>
		</g>
		<g>
			<path class="st1" d="M94.6,140.3l-0.7,2h-0.7l0.2-2H94.6z"/>
		</g>
		<g>
			<path class="st1" d="M7.8,150.2h-1v-6.4h2.1c1.6,0,2.2,0.9,2.2,2s-0.6,2-2.2,2H7.8V150.2z M7.8,146.9H9c0.6,0.1,1.2-0.4,1.2-1
				c0.1-0.6-0.4-1.2-1-1.2c-0.1,0-0.1,0-0.2,0H7.8V146.9z"/>
		</g>
		<g>
			<path class="st1" d="M12.6,150.2h-1v-6.4h2.1c1.6,0,2.2,0.7,2.2,1.9c0.1,0.7-0.3,1.4-1,1.7l1.3,2.8H15l-1.2-2.6h-1.3V150.2z
				 M12.6,146.7h1.3c0.9,0,1-0.5,1-1s-0.1-1-1-1h-1.3V146.7z"/>
		</g>
		<g>
			<path class="st1" d="M16.5,147c0-1.8,0.4-3.3,2.5-3.3s2.5,1.5,2.5,3.3s-0.4,3.3-2.5,3.3S16.5,148.8,16.5,147z M17.5,147
				c0,1.5,0.3,2.4,1.5,2.4s1.5-0.9,1.5-2.4s-0.3-2.4-1.5-2.4S17.5,145.5,17.5,147L17.5,147z"/>
		</g>
		<g>
			<path class="st1" d="M23.1,150.2h-0.9v-6.4h2c1.6,0,2.2,0.9,2.2,2s-0.6,2-2.2,2h-1.1V150.2z M23.1,146.9h1.1
				c0.6,0.1,1.2-0.4,1.2-1s-0.4-1.2-1-1.2c-0.1,0-0.1,0-0.2,0h-1.1V146.9z"/>
		</g>
		<g>
			<path class="st1" d="M30.5,147.3h-2.6v2h2.9v0.9h-3.9v-6.4h3.9v0.9h-2.9v1.8h2.6V147.3z"/>
		</g>
		<g>
			<path class="st1" d="M32.6,150.2h-1v-6.4h2.1c1.6,0,2.2,0.7,2.2,1.9c0.1,0.7-0.3,1.4-1,1.7l1.3,2.8h-1.1l-1.2-2.6h-1.3V150.2z
				 M32.6,146.7h1.3c0.9,0,1-0.5,1-1s-0.1-1-1-1h-1.3V146.7z"/>
		</g>
		<g>
			<path class="st1" d="M38.8,144.7v5.5h-1v-5.5h-1.6v-0.9h4.3v0.9H38.8z"/>
		</g>
		<g>
			<path class="st1" d="M43.8,147.6v2.6h-1v-2.6l-2.2-3.8h1.1l1.6,3l1.6-3H46L43.8,147.6z"/>
		</g>
		<g>
			<path class="st1" d="M47.7,147c0-1.8,0.4-3.3,2.5-3.3s2.5,1.5,2.5,3.3s-0.4,3.3-2.5,3.3S47.7,148.8,47.7,147z M48.7,147
				c0,1.5,0.3,2.4,1.5,2.4s1.5-0.9,1.5-2.4s-0.3-2.4-1.5-2.4S48.7,145.5,48.7,147L48.7,147z"/>
		</g>
		<g>
			<path class="st1" d="M55.9,143.8h1.2l1.1,5l0.8-5h1l-1.2,6.4h-1.1l-1.2-5.3l-1.2,5.3h-1.2l-1.2-6.5h1l0.8,5L55.9,143.8z"/>
		</g>
		<g>
			<path class="st1" d="M64.3,150.2l-2.8-4.5v4.5h-1v-6.4h0.9l2.8,4.5v-4.5h0.9v6.4H64.3z"/>
		</g>
		<g>
			<path class="st1" d="M69.7,147.3H67v2h3v0.9h-3.9v-6.4H70v0.9h-3v1.8h2.7L69.7,147.3z"/>
		</g>
		<g>
			<path class="st1" d="M71.8,150.2h-1v-6.4h2.1c1.7,0,2.2,0.7,2.2,1.9c0.1,0.7-0.3,1.4-1,1.7l1.3,2.8h-1.1l-1.2-2.6h-1.3V150.2z
				 M71.8,146.7H73c0.9,0,1-0.5,1-1s-0.1-1-1-1h-1.2V146.7z"/>
		</g>
		<g>
			<path class="st1" d="M80.1,148.3c0,1.2-0.7,2-2.4,2c-0.6,0-1.3-0.1-1.9-0.4V149c0.6,0.3,1.2,0.4,1.8,0.4c1.1,0,1.5-0.5,1.5-1.1
				s-0.3-0.9-1.2-1c-1.6-0.2-2.2-0.6-2.2-1.8c0-0.9,0.5-1.8,2.3-1.8c0.6,0,1.2,0.1,1.7,0.3v1c-0.5-0.2-1.1-0.3-1.7-0.3
				c-1,0-1.3,0.4-1.3,1s0.4,0.8,1.2,0.9C79.3,146.7,80.1,147,80.1,148.3z"/>
		</g>
		<g>
			<path class="st1" d="M84.3,150.2v-2.9h-2.6v2.9h-1v-6.4h1v2.6h2.6v-2.6h0.9v6.4H84.3z"/>
		</g>
		<g>
			<path class="st1" d="M86.3,150.2v-6.4h1v6.4H86.3z"/>
		</g>
		<g>
			<path class="st1" d="M89.3,150.2h-1v-6.4h2c1.6,0,2.2,0.9,2.2,2s-0.6,2-2.2,2h-1V150.2z M89.3,146.9h1.1c0.6,0.1,1.2-0.4,1.2-1
				c0.1-0.6-0.4-1.2-1-1.2c-0.1,0-0.1,0-0.2,0h-1.1V146.9z"/>
		</g>
		<g>
			<path class="st1" d="M10.1,157.6h-2l-0.4,1.6h-1l2-6.4h1l2,6.4h-1L10.1,157.6z M9.1,154l-0.8,2.8h1.6L9.1,154z"/>
		</g>
		<g>
			<path class="st1" d="M15.8,159.2l-2.8-4.5v4.5h-0.9v-6.4H13l2.8,4.5v-4.5h0.9v6.4H15.8z"/>
		</g>
		<g>
			<path class="st1" d="M17.6,159.2v-6.4h1.9c2.1,0,2.7,1.4,2.7,3.2s-0.6,3.2-2.7,3.2H17.6z M18.6,158.3h1c1.3,0,1.7-0.9,1.7-2.3
				s-0.4-2.3-1.7-2.3h-1V158.3z"/>
		</g>
		<g>
			<path class="st1" d="M28,156.4h-2.6v2.8h-1v-6.4h3.8v0.9h-2.8v1.8H28V156.4z"/>
		</g>
		<g>
			<path class="st1" d="M29.1,159.2v-6.4h1v6.4H29.1z"/>
		</g>
		<g>
			<path class="st1" d="M34.8,159.2l-2.8-4.5v4.5h-0.9v-6.4H32l2.8,4.5v-4.5h1v6.4H34.8z"/>
		</g>
		<g>
			<path class="st1" d="M39.7,157.6h-2l-0.5,1.6h-1l2-6.4h1l2,6.4h-1L39.7,157.6z M38.7,154l-0.8,2.8h1.6L38.7,154z"/>
		</g>
		<g>
			<path class="st1" d="M45.4,159.2l-2.8-4.5v4.5h-0.9v-6.4h0.9l2.8,4.5v-4.5h0.9v6.4H45.4z"/>
		</g>
		<g>
			<path class="st1" d="M49.7,152.7c0.5,0,1,0.1,1.5,0.3v0.9c-0.5-0.2-0.9-0.3-1.4-0.3c-1.2,0-1.7,0.8-1.7,2.4s0.5,2.4,1.7,2.4
				c0.5,0,1-0.1,1.4-0.3v0.9c-0.5,0.2-1,0.3-1.5,0.3c-1.9,0-2.6-1.2-2.6-3.3S47.8,152.7,49.7,152.7z"/>
		</g>
		<g>
			<path class="st1" d="M52.2,159.2v-6.4h1v6.4H52.2z"/>
		</g>
		<g>
			<path class="st1" d="M57.3,157.6h-2l-0.5,1.6h-1l2-6.4h1l2,6.4h-1L57.3,157.6z M56.3,154l-0.8,2.8h1.6L56.3,154z"/>
		</g>
		<g>
			<path class="st1" d="M60.3,158.3H63v0.9h-3.7v-6.4h1L60.3,158.3z"/>
		</g>
		<g>
			<path class="st1" d="M11.1,166.3c0,1.2-0.7,2-2.4,2c-0.6,0-1.3-0.1-1.9-0.4V167c0.6,0.3,1.2,0.4,1.8,0.4c1.1,0,1.5-0.5,1.5-1.1
				s-0.3-0.9-1.2-1c-1.6-0.2-2.2-0.6-2.2-1.8c0-0.9,0.5-1.8,2.3-1.8c0.6,0,1.2,0.1,1.7,0.3v1c-0.5-0.2-1.1-0.3-1.7-0.3
				c-1,0-1.3,0.4-1.3,1s0.4,0.8,1.2,0.9C10.3,164.7,11.1,165,11.1,166.3z"/>
		</g>
		<g>
			<path class="st1" d="M15.3,165.3h-2.7v2h2.9v0.9h-3.9v-6.4h3.9v0.9h-2.9v1.8h2.7V165.3z"/>
		</g>
		<g>
			<path class="st1" d="M17.4,168.2h-1v-6.4h2.1c1.6,0,2.2,0.7,2.2,1.9c0.1,0.7-0.3,1.4-1,1.7l1.3,2.8h-1.1l-1.2-2.6h-1.3V168.2z
				 M17.4,164.7h1.3c0.9,0,1-0.5,1-1s-0.1-1-1-1h-1.3V164.7z"/>
		</g>
		<g>
			<path class="st1" d="M25.9,161.8l-2,6.4h-1l-2-6.4h1l1.5,5.2l1.5-5.2L25.9,161.8z"/>
		</g>
		<g>
			<path class="st1" d="M26.5,168.2v-6.4h1v6.4H26.5z"/>
		</g>
		<g>
			<path class="st1" d="M31.1,161.7c0.5,0,1,0.1,1.5,0.3v0.9c-0.5-0.2-0.9-0.3-1.4-0.3c-1.2,0-1.7,0.8-1.7,2.4s0.5,2.4,1.7,2.4
				c0.5,0,1-0.1,1.4-0.3v0.9c-0.5,0.2-1,0.3-1.5,0.3c-1.9,0-2.6-1.2-2.6-3.3S29.2,161.7,31.1,161.7z"/>
		</g>
		<g>
			<path class="st1" d="M37.1,165.3h-2.7v2h2.9v0.9h-3.9v-6.4h3.9v0.9h-2.9v1.8h2.7V165.3z"/>
		</g>
		<g>
			<path class="st1" d="M42.2,166.3c0,1.2-0.7,2-2.4,2c-0.6,0-1.3-0.1-1.9-0.4V167c0.6,0.3,1.2,0.4,1.8,0.4c1.1,0,1.5-0.5,1.5-1.1
				s-0.3-0.9-1.2-1c-1.6-0.2-2.2-0.6-2.2-1.8c0-0.9,0.5-1.8,2.3-1.8c0.6,0,1.2,0.1,1.7,0.3v1c-0.5-0.2-1.1-0.3-1.7-0.3
				c-1,0-1.3,0.4-1.3,1s0.4,0.8,1.2,0.9C41.5,164.7,42.2,165,42.2,166.3z"/>
		</g>
	</g>
	<g>
		<rect x="3.3" y="24" class="st1" width="94.8" height="94.8"/>
	</g>
	<g>
		<path class="st1" d="M98.2,20.7H3.3V3.3h94.8V20.7z M4.3,19.7h92.8V4.3H4.3L4.3,19.7z"/>
	</g>
	<g class="st2">
		<path class="st1" d="M6.7,6.9h4.5v1.4H9.9v8.8H8.1V8.3H6.7V6.9z"/>
	</g>
	<g class="st2">
		<path class="st1" d="M11.2,17.1l1.9-10.2h1.9L17,17.1h-1.8l-0.3-1.9h-1.8l-0.3,1.9H11.2z M13.3,13.9h1.4L14,9.8h0L13.3,13.9z"/>
	</g>
	<g class="st2">
		<path class="st1" d="M19.6,12.4v4.7h-1.7V6.9h2.5c1.7,0,2.4,0.9,2.4,2.3v1.3c0,1.1-0.4,1.7-1.4,2l1.6,4.6h-1.8L19.6,12.4z
			 M19.6,8.3v3.2h0.6c0.6,0,0.8-0.3,0.8-0.8V9.2c0-0.6-0.3-0.8-0.8-0.8H19.6z"/>
	</g>
	<g class="st2">
		<path class="st1" d="M26.4,11.7h2.4v5.4h-1.2V16c-0.2,0.8-0.7,1.2-1.6,1.2c-1.5,0-2.1-1.2-2.1-2.7V9.6c0-1.6,0.8-2.7,2.6-2.7
			c1.9,0,2.4,1.1,2.4,2.6v0.9h-1.6v-1c0-0.6-0.2-1-0.9-1c-0.6,0-0.9,0.4-0.9,1v5.5c0,0.6,0.3,1,0.8,1c0.6,0,0.8-0.3,0.8-1V13h-0.8
			V11.7z"/>
	</g>
	<g class="st2">
		<path class="st1" d="M30.2,6.9h4.1v1.4h-2.4v2.9h1.7v1.4h-1.7v3.1h2.4v1.4h-4.1V6.9z"/>
	</g>
	<g class="st2">
		<path class="st1" d="M35.1,6.9h4.5v1.4h-1.4v8.8h-1.7V8.3h-1.4V6.9z"/>
	</g>
	<g class="st2">
		<path class="st1" d="M88.8,17.1l1.9-10.2h1.9l1.9,10.2h-1.8l-0.3-1.9h-1.8l-0.3,1.9H88.8z M90.9,13.9h1.4l-0.7-4.1h0L90.9,13.9z"
			/>
	</g>
	<g class="st2">
		<path class="st1" d="M83.2,12.4v2.5c0,1.4-0.7,2.3-2.4,2.3c-1.7,0-2.4-1-2.4-2.5v-1.2H80v1.3c0,0.6,0.2,1,0.8,1
			c0.5,0,0.7-0.4,0.7-0.9v-2.5c0-0.6-0.2-0.9-0.7-0.9c-0.5,0-0.8,0.3-0.8,0.9v0.2h-1.6V6.9h4.5v1.4H80v2.5h0
			c0.3-0.5,0.8-0.7,1.4-0.7C82.4,10.1,83.2,10.8,83.2,12.4z"/>
	</g>
	<g>
		<polygon class="st1" points="85.4,9.9 85.4,14.1 87.6,12 		"/>
	</g>
	<g>
		<path class="st1" d="M98.2,171.9h-95v-49.7h95V171.9z M4.2,170.9h93v-47.7h-93V170.9z"/>
	</g>
	<g>
		<g>
			<g>
				<g>
					<path class="st0" d="M44.1,48.5H17.1c-0.1,0-0.2,0.1-0.2,0.2v17.7c0,0.1,0.1,0.2,0.2,0.2h15.5V54.2H39v12.4h5.1
						c0.1,0,0.2-0.1,0.2-0.2V48.7C44.3,48.6,44.2,48.5,44.1,48.5z M27.9,60.2h-6v-6h6V60.2z"/>
				</g>
				<g>
					<path class="st0" d="M30.6,33.2c-0.1-0.1-0.2-0.2-0.4-0.2c-0.2,0-0.3,0.1-0.4,0.2l-0.1,0.1L15.2,46.9c-0.1,0-0.1,0.1,0,0.2
						c0,0,0.1,0.1,0.1,0.1h30.6c0.1,0,0.1,0,0.2-0.1c0,0,0-0.1-0.1-0.1L30.7,33.3L30.6,33.2z"/>
				</g>
			</g>
			<g>
				<g>
					<path class="st0" d="M70.9,38c-7.5,0-13.5,6.1-13.5,13.6s6.1,13.5,13.6,13.5c7.5,0,13.5-6,13.5-13.5C84.4,44.1,78.4,38,70.9,38
						C70.9,38,70.9,38,70.9,38z M83,49.4c0,0.2,0,0.3-0.1,0.4c-0.1,0.1-0.2,0.2-0.4,0.2h-0.1c-0.1,0-0.2,0-0.3-0.1
						c-0.1-0.1-0.2-0.2-0.2-0.4c0-0.1,0-0.3,0.1-0.4c0.1-0.1,0.2-0.2,0.4-0.2C82.6,48.9,82.9,49.1,83,49.4z M82.4,47.4
						c0.1,0.1,0.1,0.3,0,0.5c-0.1,0.1-0.2,0.3-0.3,0.3c-0.1,0-0.1,0-0.2,0c-0.2,0-0.5-0.2-0.6-0.4c-0.1-0.1-0.1-0.3,0-0.4
						c0.1-0.1,0.2-0.3,0.3-0.3C82,46.9,82.3,47,82.4,47.4C82.5,47.3,82.5,47.3,82.4,47.4L82.4,47.4z M80.4,45.5
						c0-0.1,0.1-0.3,0.3-0.3c0.3-0.2,0.6-0.1,0.8,0.2s0.1,0.6-0.2,0.8l0,0c-0.1,0.1-0.2,0.1-0.3,0.1h-0.2
						C80.5,46.2,80.4,45.9,80.4,45.5L80.4,45.5z M76.2,41.1L76.2,41.1c0.2-0.3,0.5-0.4,0.8-0.2c0.1,0.1,0.2,0.2,0.3,0.4
						c0.1,0.1,0.1,0.3,0,0.4c-0.1,0.1-0.2,0.2-0.4,0.3c0,0-0.1,0-0.2,0c-0.1,0-0.2,0-0.3-0.1c-0.1-0.1-0.2-0.2-0.3-0.3
						C76.2,41.4,76.2,41.2,76.2,41.1L76.2,41.1z M75,50c-0.1,0-0.2-0.1-0.2-0.2V49h2.1v0.8c0,0.1-0.1,0.2-0.2,0.2l0,0v5h-1.6L75,50
						L75,50z M71,48.5h-6.6V48h13v0.5L71,48.5z M70.2,50C70,50,70,50,70,49.8V49h2v0.8c0,0.1-0.1,0.2-0.2,0.2l0,0v5h-1.6V50z
						 M65.2,50C65.1,50,65,50,65,49.8V49h2.1v0.8c0,0.1-0.1,0.2-0.2,0.2l0,0v5h-1.7V50z M71,47.6h-7l-0.3-0.3
						c-0.1-0.1-0.1-0.2,0-0.3c0,0,0,0,0.1,0l7.2-2.7l7.1,2.7c0.1,0.1,0.1,0.2,0,0.3c0,0,0,0,0,0l-0.3,0.3L71,47.6z M74.4,40.3
						c0.1-0.3,0.5-0.4,0.8-0.3c0.2,0.1,0.3,0.2,0.3,0.3c0.1,0.1,0.1,0.3,0,0.4c-0.1,0.2-0.3,0.4-0.6,0.4c-0.1,0-0.1,0-0.2,0
						c-0.1-0.1-0.3-0.2-0.3-0.3C74.3,40.7,74.3,40.5,74.4,40.3L74.4,40.3z M72.6,39.5c0.1-0.1,0.3-0.1,0.4-0.1
						c0.3,0.1,0.5,0.3,0.5,0.7c0,0,0,0,0,0c0,0.2-0.1,0.3-0.2,0.4c-0.1,0.1-0.2,0.1-0.3,0.1h-0.1c-0.2,0-0.3-0.1-0.4-0.2
						c-0.1-0.1-0.1-0.3-0.1-0.4C72.4,39.8,72.5,39.6,72.6,39.5L72.6,39.5z M70.9,39.2c0.3,0,0.6,0.3,0.6,0.6v0
						c0,0.3-0.3,0.6-0.6,0.6c-0.3,0-0.6-0.3-0.6-0.6C70.3,39.5,70.6,39.3,70.9,39.2L70.9,39.2z M68.4,39.7c0.1-0.1,0.2-0.2,0.4-0.2
						c0.2,0,0.3,0,0.4,0.1c0.1,0.1,0.2,0.2,0.2,0.4c0,0.2,0,0.3-0.1,0.4c-0.1,0.1-0.2,0.2-0.4,0.2h-0.1c-0.1,0-0.2,0-0.3-0.1
						c-0.1-0.1-0.2-0.2-0.2-0.4C68.3,39.9,68.3,39.8,68.4,39.7L68.4,39.7z M66.4,40.3c0.1-0.1,0.2-0.3,0.3-0.3
						c0.1-0.1,0.3-0.1,0.4,0c0.1,0.1,0.2,0.2,0.3,0.3c0.1,0.3,0,0.6-0.3,0.7c0,0,0,0,0,0c-0.1,0-0.1,0-0.2,0c-0.1,0-0.2,0-0.2-0.1
						c-0.1-0.1-0.3-0.2-0.3-0.3C66.3,40.6,66.3,40.4,66.4,40.3L66.4,40.3z M64.8,40.9c0.1-0.1,0.3-0.1,0.4,0c0.1,0,0.3,0.1,0.3,0.3
						c0.2,0.3,0.1,0.6-0.2,0.8c0,0,0,0,0,0C65.3,42,65.1,42,65,42c-0.2,0-0.4-0.1-0.5-0.3C64.3,41.4,64.4,41.1,64.8,40.9
						C64.7,40.9,64.7,40.9,64.8,40.9L64.8,40.9z M63,42.1c0.1-0.1,0.3-0.1,0.4-0.1c0.2,0,0.3,0.1,0.4,0.2c0.2,0.2,0.2,0.6-0.1,0.8
						c0,0,0,0,0,0c-0.1,0.1-0.2,0.1-0.4,0.1c-0.2,0-0.3-0.1-0.5-0.2C62.7,42.7,62.7,42.4,63,42.1L63,42.1z M60.3,45.4
						c0.2-0.2,0.6-0.3,0.8-0.1c0.2,0.2,0.3,0.4,0.2,0.7c-0.2,0.3-0.5,0.4-0.8,0.2c0,0,0,0,0,0C60.2,46.1,60,45.7,60.3,45.4
						C60.2,45.4,60.2,45.4,60.3,45.4L60.3,45.4z M59.4,47.4c0.1-0.3,0.4-0.5,0.6-0.4c0.1,0.1,0.3,0.2,0.3,0.3c0.1,0.1,0.1,0.3,0,0.4
						c-0.1,0.2-0.3,0.4-0.5,0.4c-0.1,0-0.1,0-0.2,0C59.3,48,59.1,47.7,59.4,47.4C59.3,47.4,59.3,47.4,59.4,47.4L59.4,47.4z M59.4,49
						c0.2,0,0.3,0.1,0.4,0.2c0.1,0.1,0.1,0.3,0.1,0.4c0,0.2-0.1,0.3-0.2,0.4c-0.1,0.1-0.2,0.1-0.3,0.1h-0.1
						c-0.3-0.1-0.5-0.4-0.5-0.7C58.8,49.2,59.1,48.9,59.4,49C59.4,49,59.4,49,59.4,49z M58.5,51.6c0-0.3,0.2-0.6,0.6-0.6
						c0,0,0,0,0,0l0,0c0.2,0,0.3,0.1,0.4,0.2c0.1,0.1,0.2,0.3,0.2,0.4c0,0.3-0.3,0.6-0.7,0.5C58.8,52.1,58.6,51.9,58.5,51.6z
						 M58.7,53.8c-0.1-0.3,0.2-0.6,0.5-0.7c0.3,0,0.6,0.2,0.7,0.5c0,0.3-0.2,0.6-0.5,0.7h-0.1C59,54.2,58.8,54,58.7,53.8L58.7,53.8z
						 M59.8,56.2c-0.2,0-0.5-0.1-0.5-0.4c-0.1-0.3,0-0.6,0.3-0.7c0.3-0.1,0.6,0,0.7,0.3c0.1,0.3,0,0.6-0.3,0.7c0,0,0,0,0,0
						C60,56.2,59.9,56.2,59.8,56.2L59.8,56.2z M61.3,57.6c0,0.1-0.1,0.3-0.3,0.4c-0.1,0.1-0.2,0.1-0.3,0.1c-0.3,0-0.6-0.3-0.6-0.6
						c0-0.3,0.3-0.6,0.6-0.6c0.2,0,0.4,0.1,0.5,0.3C61.3,57.3,61.3,57.5,61.3,57.6L61.3,57.6z M61.4,43.6c0.1-0.1,0.2-0.2,0.4-0.2
						c0.2,0,0.3,0,0.4,0.1c0.2,0.2,0.3,0.6,0.1,0.8c0,0,0,0,0,0c-0.1,0.1-0.3,0.2-0.4,0.2c-0.1,0-0.3,0-0.4-0.1
						C61.2,44.3,61.2,43.9,61.4,43.6C61.4,43.7,61.4,43.7,61.4,43.6z M62.2,59.6c-0.1,0.1-0.2,0.1-0.4,0.1c-0.2,0-0.3-0.1-0.5-0.2
						c-0.2-0.2-0.2-0.6,0.1-0.8c0,0,0,0,0,0c0.1-0.1,0.3-0.1,0.4-0.1c0.2,0,0.3,0.1,0.4,0.2C62.5,59,62.5,59.4,62.2,59.6
						C62.3,59.6,62.2,59.6,62.2,59.6z M63.8,61c-0.1,0.1-0.3,0.2-0.4,0.2c-0.1,0-0.3,0-0.4-0.1c-0.2-0.2-0.3-0.6-0.1-0.8
						s0.6-0.3,0.8-0.1c0.1,0.1,0.2,0.2,0.2,0.4C63.9,60.7,63.9,60.9,63.8,61z M64,56.4h0.5v-0.8c0,0,0-0.1,0.1-0.1h12.8
						c0,0,0.1,0,0.1,0.1v0.8H78v0.8H64L64,56.4z M65.5,62.1c-0.1,0.2-0.3,0.3-0.5,0.3c-0.1,0-0.2,0-0.3-0.1
						c-0.1-0.1-0.2-0.2-0.3-0.4c0-0.1,0-0.3,0.1-0.4c0.2-0.3,0.5-0.4,0.8-0.2c0,0,0,0,0,0C65.5,61.5,65.6,61.8,65.5,62.1L65.5,62.1z
						 M67.4,62.9c-0.1,0.2-0.3,0.4-0.6,0.4c-0.1,0-0.1,0-0.2,0c-0.3-0.1-0.5-0.4-0.4-0.7c0.1-0.3,0.4-0.5,0.7-0.4
						C67.3,62.2,67.5,62.6,67.4,62.9C67.4,62.9,67.4,62.9,67.4,62.9L67.4,62.9z M68.8,63.8h-0.1c-0.3-0.1-0.5-0.4-0.5-0.7l0,0
						c0.1-0.3,0.4-0.5,0.7-0.5c0,0,0,0,0,0c0.3,0,0.5,0.3,0.5,0.7c0,0,0,0,0,0C69.3,63.6,69.1,63.7,68.8,63.8L68.8,63.8z M70.8,64
						c-0.3,0-0.6-0.3-0.6-0.6c0-0.3,0.3-0.6,0.6-0.6c0.3,0,0.6,0.3,0.6,0.6C71.4,63.7,71.2,63.9,70.8,64L70.8,64z M73.4,63.5
						c-0.1,0.1-0.2,0.2-0.4,0.2h-0.1c-0.3,0-0.5-0.2-0.6-0.5c0-0.3,0.2-0.6,0.5-0.7c0.2,0,0.3,0,0.4,0.1c0.1,0.1,0.2,0.2,0.2,0.4
						C73.5,63.2,73.5,63.4,73.4,63.5L73.4,63.5z M75.4,62.9c-0.1,0.1-0.2,0.2-0.3,0.3c-0.1,0-0.1,0-0.2,0c-0.1,0-0.2,0-0.2,0
						c-0.1-0.1-0.2-0.2-0.3-0.3c-0.1-0.1-0.1-0.3,0-0.5c0.1-0.1,0.2-0.2,0.3-0.3c0.3-0.1,0.6,0.1,0.7,0.4
						C75.4,62.6,75.4,62.8,75.4,62.9L75.4,62.9z M77,62.3c-0.1,0.1-0.2,0.1-0.3,0.1h-0.2c-0.2,0-0.3-0.1-0.4-0.3
						c-0.1-0.1-0.1-0.3,0-0.4c0-0.1,0.1-0.3,0.3-0.3c0.1-0.1,0.3-0.1,0.4-0.1c0.2,0,0.3,0.1,0.4,0.3C77.4,61.8,77.3,62.1,77,62.3
						L77,62.3z M78.8,61c-0.1,0.1-0.2,0.1-0.4,0.1c-0.2,0-0.3,0-0.4-0.1c-0.1-0.1-0.1-0.3-0.1-0.4c0-0.2,0.1-0.3,0.2-0.4
						c0.1-0.1,0.3-0.1,0.4-0.1c0.2,0,0.3,0.1,0.4,0.2C79.1,60.5,79,60.8,78.8,61z M78.9,43c-0.1,0.1-0.2,0.2-0.4,0.2l0,0
						c-0.1,0-0.3,0-0.4-0.1c-0.1-0.1-0.2-0.2-0.2-0.4c0-0.2,0-0.3,0.1-0.5c0.2-0.2,0.6-0.3,0.8-0.1C79.1,42.3,79.1,42.7,78.9,43
						L78.9,43z M80.3,59.6c-0.1,0.1-0.2,0.2-0.4,0.2l0,0c-0.1,0-0.3,0-0.4-0.1c-0.2-0.2-0.3-0.6-0.1-0.8c0.1-0.1,0.2-0.2,0.4-0.2
						c0.2,0,0.3,0,0.4,0.1c0.1,0.1,0.2,0.2,0.2,0.4C80.5,59.3,80.4,59.4,80.3,59.6L80.3,59.6z M80.3,44.5c-0.1,0.1-0.2,0.1-0.4,0.1
						l0,0c-0.2,0-0.3-0.1-0.4-0.2c-0.2-0.2-0.2-0.6,0.1-0.8c0.2-0.2,0.6-0.2,0.8,0.1c0.1,0.1,0.1,0.3,0.1,0.4
						C80.5,44.3,80.4,44.4,80.3,44.5L80.3,44.5z M81.6,57.8c-0.1,0.2-0.3,0.3-0.5,0.3c-0.1,0-0.2,0-0.3-0.1
						c-0.1-0.1-0.2-0.2-0.3-0.3c0-0.1,0-0.3,0.1-0.4c0.1-0.1,0.2-0.2,0.3-0.3c0.2,0,0.3,0,0.4,0.1C81.6,57.2,81.7,57.5,81.6,57.8
						L81.6,57.8z M82.5,55.9c-0.1,0.2-0.3,0.4-0.6,0.4c-0.1,0-0.1,0-0.2,0c-0.1-0.1-0.3-0.2-0.3-0.3c-0.1-0.1-0.1-0.3,0-0.5
						c0.1-0.1,0.2-0.3,0.3-0.3c0.3-0.1,0.6,0,0.8,0.3C82.5,55.6,82.5,55.7,82.5,55.9L82.5,55.9z M82.8,54.2
						c-0.1,0.1-0.2,0.1-0.3,0.1h-0.1c-0.3,0-0.5-0.3-0.5-0.7c0,0,0,0,0,0c0.1-0.3,0.3-0.5,0.7-0.5c0,0,0,0,0,0
						c0.3,0.1,0.5,0.4,0.5,0.7C83,53.9,82.9,54.1,82.8,54.2L82.8,54.2z M82.6,52.2c-0.3,0-0.6-0.3-0.6-0.6v0c0-0.2,0.1-0.3,0.2-0.4
						c0.1-0.1,0.3-0.2,0.4-0.2c0.3,0,0.6,0.3,0.5,0.7C83.1,52,82.9,52.2,82.6,52.2z"/>
				</g>
				<g>
					<path class="st0" d="M70.9,36.1c-8.5,0-15.5,6.9-15.5,15.5S62.3,67,70.9,67c8.5,0,15.5-6.9,15.5-15.5c0,0,0,0,0,0
						C86.3,43.1,79.4,36.1,70.9,36.1z M70.9,65.8c-7.9,0-14.3-6.4-14.3-14.3S63,37.3,70.9,37.3s14.3,6.4,14.3,14.3c0,0,0,0,0,0
						C85.1,59.5,78.8,65.8,70.9,65.8z"/>
				</g>
			</g>
		</g>
		<g>
			<g>
				<g>
					<path class="st0" d="M20.2,81.4c0,0-1.6,1.7-1.6,3c0,1.1,1.2,1.7,1.6,1.9c0,0,1.6-0.9,1.6-2C21.8,83,20.2,81.4,20.2,81.4z"/>
				</g>
				<g>
					<path class="st0" d="M16.6,84.5c0,0-0.2,2.8,1,3.7c0,0,0.4,0.5,2.3,0.8c0,0,0.2-1.8-0.5-2.6C19.4,86.4,19,85.9,16.6,84.5z"/>
				</g>
				<g>
					<path class="st0" d="M16.4,88c0,0-0.3,3.1,1.1,4c0,0,0.4,0.6,2.5,0.9c0,0,0.2-2-0.6-2.8C19.4,90.1,19,89.5,16.4,88z"/>
				</g>
				<g>
					<path class="st0" d="M16.5,92c0,0-0.4,3.3,0.9,4.3c0,0,0.5,0.6,2.6,0.9c0,0,0.3-2.1-0.5-2.9C19.5,94.4,19.1,93.5,16.5,92z"/>
				</g>
				<g>
					<path class="st0" d="M16.1,96.1c0,0-0.2,3.5,1.1,4.4c0.8,0.6,1.8,0.9,2.8,0.9c0,0,0.2-2.2-0.5-3.1
						C18.5,97.4,17.3,96.7,16.1,96.1z"/>
				</g>
				<g>
					<path class="st0" d="M23.8,84.4c0,0,0.3,2.8-0.9,3.7c0,0-0.4,0.5-2.3,0.8c0,0-0.2-1.8,0.5-2.6C21,86.4,21.4,85.9,23.8,84.4z"/>
				</g>
				<g>
					<path class="st0" d="M24,88c0,0,0.3,3.1-1,4c0,0-0.4,0.6-2.5,0.9c0,0-0.2-2,0.5-2.8C21.1,90.1,21.5,89.5,24,88z"/>
				</g>
				<g>
					<path class="st0" d="M24,92c0,0,0.5,3.3-0.8,4.3c0,0-0.5,0.6-2.6,1c0,0-0.3-2,0.4-2.9C21,94.4,21.5,93.5,24,92z"/>
				</g>
				<g>
					<path class="st0" d="M24.5,96c0,0,0.3,3.5-1.1,4.4c-0.8,0.6-1.8,0.9-2.7,1c0,0-0.3-2.2,0.5-3.1C22.1,97.4,23.3,96.6,24.5,96z"
						/>
				</g>
				<g>
					<path class="st0" d="M17.2,78.3c0-0.2-0.1-0.3-0.3-0.3c0,0,0,0,0,0c-0.2,0-0.3,0.1-0.3,0.3c0,0,0,0,0,0l0.1,5.7l0.6,0.3
						L17.2,78.3z"/>
				</g>
				<g>
					<path class="st0" d="M18.4,77.3c0-0.2-0.1-0.3-0.3-0.3h0c-0.2,0-0.3,0.1-0.3,0.3c0,0,0,0,0,0l0.1,6.7l0,0
						c0.1-0.5,0.3-1,0.6-1.5L18.4,77.3z"/>
				</g>
				<g>
					<path class="st0" d="M19.7,75.8c0-0.2-0.1-0.3-0.3-0.3c-0.2,0-0.3,0.1-0.3,0.3l0,0v5.8l0.6-0.8V75.8z"/>
				</g>
				<g>
					<path class="st0" d="M23,78.3c0-0.2,0.1-0.3,0.3-0.3c0,0,0,0,0,0c0.2,0,0.3,0.1,0.3,0.3c0,0,0,0,0,0l0.1,5.6l-0.6,0.4L23,78.3z
						"/>
				</g>
				<g>
					<path class="st0" d="M21.8,77.3c0-0.2,0.1-0.3,0.3-0.3c0.2,0,0.3,0.1,0.3,0.3l0,0l0.1,6.7l0,0c-0.2-0.5-0.4-1-0.6-1.5
						L21.8,77.3z"/>
				</g>
				<g>
					<path class="st0" d="M20.5,75.8c0-0.2,0.1-0.3,0.3-0.3c0.2,0,0.3,0.1,0.3,0.3l0,0l0.1,5.8c-0.2-0.3-0.5-0.6-0.6-0.8L20.5,75.8z
						"/>
				</g>
				<g>
					<rect x="19.9" y="102" class="st0" width="0.9" height="7.9"/>
				</g>
			</g>
			<g>
				<g>
					<path class="st0" d="M81.1,80.8c0,0-1.6,1.7-1.6,3c0,1.1,1.2,1.7,1.6,1.9c0,0,1.6-0.9,1.6-2C82.7,82.4,81.1,80.8,81.1,80.8z"/>
				</g>
				<g>
					<path class="st0" d="M77.5,83.9c0,0-0.2,2.8,1,3.7c0,0,0.4,0.5,2.3,0.8c0,0,0.2-1.8-0.5-2.6C80.3,85.8,79.9,85.3,77.5,83.9z"/>
				</g>
				<g>
					<path class="st0" d="M77.3,87.4c0,0-0.3,3.1,1.1,4c0,0,0.4,0.6,2.5,0.9c0,0,0.2-2-0.6-2.8C80.3,89.5,79.9,88.9,77.3,87.4z"/>
				</g>
				<g>
					<path class="st0" d="M77.4,91.4c0,0-0.4,3.3,0.9,4.3c0,0,0.5,0.6,2.6,0.9c0,0,0.3-2-0.5-2.9C80.4,93.8,80,92.9,77.4,91.4z"/>
				</g>
				<g>
					<path class="st0" d="M77,95.5c0,0-0.2,3.5,1.1,4.4c0.8,0.6,1.8,0.9,2.8,1c0,0,0.2-2.2-0.5-3.1C79.4,96.8,78.3,96.1,77,95.5z"/>
				</g>
				<g>
					<path class="st0" d="M84.7,83.8c0,0,0.3,2.8-0.9,3.7c0,0-0.4,0.5-2.3,0.8c0,0-0.2-1.8,0.5-2.6C81.9,85.8,82.2,85.2,84.7,83.8z"
						/>
				</g>
				<g>
					<path class="st0" d="M84.9,87.3c0,0,0.3,3.1-1,4c0,0-0.4,0.6-2.5,0.9c0,0-0.2-2,0.5-2.8C82,89.5,82.4,88.9,84.9,87.3z"/>
				</g>
				<g>
					<path class="st0" d="M84.9,91.4c0,0,0.5,3.3-0.8,4.3c0,0-0.5,0.6-2.6,1c0,0-0.3-2,0.4-2.9C81.9,93.8,82.3,92.9,84.9,91.4z"/>
				</g>
				<g>
					<path class="st0" d="M85.4,95.4c0,0,0.2,3.5-1.1,4.4c-0.8,0.6-1.7,0.9-2.7,1c0,0-0.3-2.2,0.5-3.1C83,96.8,84.2,96,85.4,95.4z"
						/>
				</g>
				<g>
					<path class="st0" d="M78.1,77.7c0-0.2-0.1-0.3-0.3-0.3c-0.2,0-0.3,0.1-0.3,0.3c0,0,0,0,0,0v5.6l0.6,0.3L78.1,77.7z"/>
				</g>
				<g>
					<path class="st0" d="M79.3,76.7c0-0.2-0.1-0.3-0.3-0.3c0,0,0,0,0,0c-0.2,0-0.3,0.1-0.3,0.3v0l0.1,6.7l0,0
						c0.1-0.5,0.3-1,0.6-1.5L79.3,76.7z"/>
				</g>
				<g>
					<path class="st0" d="M80.6,75.2c0-0.2-0.1-0.3-0.3-0.3c-0.2,0-0.3,0.1-0.3,0.3c0,0,0,0,0,0l0,5.8l0.6-0.8V75.2z"/>
				</g>
				<g>
					<path class="st0" d="M83.9,77.7c0-0.2,0.1-0.3,0.2-0.4s0.3,0.1,0.4,0.2c0,0,0,0.1,0,0.1v5.6L84,83.6L83.9,77.7z"/>
				</g>
				<g>
					<path class="st0" d="M82.7,76.7c0-0.2,0.1-0.3,0.3-0.3c0,0,0,0,0,0c0.2,0,0.3,0.1,0.3,0.3l0.1,6.7l0,0c-0.2-0.5-0.4-1-0.6-1.5
						L82.7,76.7z"/>
				</g>
				<g>
					<path class="st0" d="M81.4,75.2c0-0.2,0.1-0.3,0.3-0.3h0c0.2,0,0.3,0.1,0.3,0.3V81l-0.6-0.8V75.2z"/>
				</g>
				<g>
					<rect x="80.8" y="101.4" class="st0" width="0.9" height="7.9"/>
				</g>
			</g>
			<g>
				<g>
					<g>
						<path class="st0" d="M62.8,80.1c-1.7,0-3-1.3-3-3c0-1.7,1.3-3,3-3c1.7,0,3,1.3,3,3l0,0C65.8,78.8,64.5,80.1,62.8,80.1z"/>
					</g>
					<g>
						<path class="st0" d="M59.2,81.3h0.2h6.7h0.2c2.1,0.2,3.7,1.9,3.7,4v8.4c0,0.7-0.5,1.2-1.2,1.2s-1.2-0.5-1.2-1.2l0,0v-7.2
							c0-0.3-0.1-0.6-0.6-0.6c-0.3,0-0.4,0.4-0.4,0.6v21.7c0.1,0.9-0.6,1.8-1.6,1.8c-0.9,0.1-1.8-0.6-1.8-1.6c0-0.1,0-0.2,0-0.3
							V95.7c0-0.3-0.2-0.5-0.4-0.5c0,0,0,0-0.1,0l0,0c-0.3,0-0.5,0.2-0.5,0.4c0,0,0,0,0,0.1v12.5c0.1,0.9-0.6,1.8-1.6,1.8
							c-0.9,0.1-1.8-0.6-1.8-1.6c0-0.1,0-0.2,0-0.3V86.5c0-0.2-0.1-0.6-0.4-0.6s-0.6,0.4-0.6,0.6v7.2c0,0.7-0.5,1.2-1.2,1.2
							s-1.2-0.5-1.2-1.2l0,0v-8.4C55.6,83.3,57.2,81.5,59.2,81.3z"/>
					</g>
				</g>
				<g>
					<g>
						<path class="st0" d="M40.1,80.6c1.7,0,3-1.3,3-3s-1.3-3-3-3s-3,1.3-3,3S38.5,80.6,40.1,80.6z"/>
					</g>
					<g>
						<path class="st0" d="M48.7,92.4l-2.5-8.1c0,0-0.9-2.3-2.9-2.3h-6.4c-2,0-2.9,2.3-2.9,2.3l-2.5,8.1c0,0-0.5,1.5,0.8,1.8
							c1.3,0.4,1.7-1.1,1.7-1.1l2-6.7c0,0,0.1-0.5,0.5-0.4s0.2,0.7,0.2,0.7l-3.5,12.6h3.3v9c0,0.9,0.7,1.6,1.6,1.6
							c0.9,0,1.6-0.7,1.6-1.6v-9h0.9v9c0.1,0.9,0.8,1.5,1.7,1.4c0.8-0.1,1.4-0.7,1.4-1.4v-9H47l-3.5-12.6c0,0-0.1-0.6,0.2-0.7
							s0.5,0.4,0.5,0.4l2,6.7c0,0,0.4,1.4,1.7,1.1S48.7,92.4,48.7,92.4z"/>
					</g>
				</g>
			</g>
		</g>
	</g>
</g>
</svg>
