<?xml version="1.0" encoding="utf-8"?>
<!-- Generator: Adobe Illustrator 22.0.1, SVG Export Plug-In . SVG Version: 6.00 Build 0)  -->
<svg version="1.1" id="Layer_1" xmlns="http://www.w3.org/2000/svg" xmlns:xlink="http://www.w3.org/1999/xlink" x="0px" y="0px"
	 viewBox="0 0 101.5 166.2" style="enable-background:new 0 0 101.5 166.2;" xml:space="preserve">
<style type="text/css">
	.st0{fill:#FFFFFF;}
	.st1{fill:#FF3A21;}
	.st2{enable-background:new    ;}
</style>
<title>TARGET 1.2</title>
<g id="WHITE_BG">
	<g>
		<rect y="0" class="st0" width="101.5" height="166.2"/>
	</g>
</g>
<g id="TARGETS">
	<g>
		<g>
			<path class="st1" d="M10.5,129.3H7.8v2h2.9v0.9H6.9v-6.4h3.9v0.9H7.8v1.8h2.6V129.3z"/>
		</g>
		<g>
			<path class="st1" d="M15.3,132.2l-2.8-4.5v4.5h-0.9v-6.4h0.9l2.8,4.5v-4.5h0.9v6.4H15.3z"/>
		</g>
		<g>
			<path class="st1" d="M17.1,132.2v-6.4H19c2.1,0,2.7,1.4,2.7,3.2s-0.6,3.2-2.7,3.2H17.1z M18.1,131.3h1c1.3,0,1.7-0.9,1.7-2.3
				s-0.4-2.3-1.7-2.3h-1V131.3z"/>
		</g>
		<g>
			<path class="st1" d="M27.4,130.6h-2l-0.5,1.6h-1l2-6.4h1l2,6.4h-1L27.4,130.6z M26.4,127l-0.8,2.8h1.6L26.4,127z"/>
		</g>
		<g>
			<path class="st1" d="M30.5,131.3h2.8v0.9h-3.7v-6.4h1L30.5,131.3z"/>
		</g>
		<g>
			<path class="st1" d="M34.8,131.3h2.8v0.9h-3.7v-6.4h1L34.8,131.3z"/>
		</g>
		<g>
			<path class="st1" d="M44.4,125.8l-2,6.5h-1l-2-6.5h1l1.5,5.2l1.5-5.2L44.4,125.8z"/>
		</g>
		<g>
			<path class="st1" d="M45.2,132.2v-6.4h1v6.4H45.2z"/>
		</g>
		<g>
			<path class="st1" d="M47.2,129c0-1.8,0.4-3.3,2.5-3.3s2.5,1.5,2.5,3.3s-0.4,3.3-2.5,3.3S47.2,130.8,47.2,129z M48.2,129
				c0,1.5,0.3,2.4,1.5,2.4s1.5-0.9,1.5-2.4s-0.3-2.4-1.5-2.4S48.1,127.5,48.2,129L48.2,129z"/>
		</g>
		<g>
			<path class="st1" d="M53.9,131.3h2.8v0.9h-3.7v-6.4h1L53.9,131.3z"/>
		</g>
		<g>
			<path class="st1" d="M60.9,129.3h-2.7v2h2.9v0.9h-3.9v-6.4h3.9v0.9h-2.9v1.8h2.7V129.3z"/>
		</g>
		<g>
			<path class="st1" d="M65.7,132.2l-2.8-4.5v4.5H62v-6.4h0.9l2.8,4.5v-4.5h1v6.4H65.7z"/>
		</g>
		<g>
			<path class="st1" d="M70.1,125.7c0.5,0,1,0.1,1.5,0.3v0.9c-0.5-0.2-0.9-0.3-1.4-0.3c-1.2,0-1.7,0.8-1.7,2.4
				c0,1.6,0.5,2.4,1.7,2.4c0.5,0,1-0.1,1.4-0.3v0.9c-0.5,0.2-1,0.3-1.5,0.3c-1.9,0-2.6-1.2-2.6-3.3S68.2,125.7,70.1,125.7z"/>
		</g>
		<g>
			<path class="st1" d="M76,129.3h-2.6v2h2.9v0.9h-3.9v-6.4h3.9v0.9h-2.9v1.8H76V129.3z"/>
		</g>
		<g>
			<path class="st1" d="M10.1,139.6h-2l-0.4,1.6h-1l2-6.4h1l2,6.4h-1L10.1,139.6z M9.1,136l-0.8,2.8h1.6L9.1,136z"/>
		</g>
		<g>
			<path class="st1" d="M12,138c0-2,0.7-3.3,2.6-3.3c0.6,0,1.2,0.1,1.8,0.3v1c-0.5-0.2-1.1-0.4-1.7-0.4c-1.3,0-1.8,0.9-1.8,2.4
				s0.5,2.4,1.8,2.4c0.3,0,0.6,0,0.9-0.1v-1.7h-1.1v-0.9h2.1v3.2c-0.6,0.3-1.3,0.4-2,0.4C12.7,141.3,12,140,12,138z"/>
		</g>
		<g>
			<path class="st1" d="M20.7,139.6h-2l-0.5,1.6h-1l2-6.4h1l2,6.4h-1L20.7,139.6z M19.7,136l-0.8,2.8h1.6L19.7,136z"/>
		</g>
		<g>
			<path class="st1" d="M22.9,141.2v-6.4h1v6.4H22.9z"/>
		</g>
		<g>
			<path class="st1" d="M28.7,141.2l-2.8-4.5v4.5H25v-6.4h0.9l2.8,4.5v-4.5h0.9v6.4H28.7z"/>
		</g>
		<g>
			<path class="st1" d="M34.7,139.3c0,1.2-0.7,2-2.4,2c-0.6,0-1.3-0.1-1.9-0.4v-1c0.6,0.3,1.2,0.4,1.8,0.4c1.2,0,1.5-0.5,1.5-1.1
				s-0.3-0.9-1.2-1c-1.6-0.2-2.2-0.6-2.2-1.8c0-0.9,0.5-1.9,2.3-1.9c0.6,0,1.2,0.1,1.7,0.3v1c-0.5-0.2-1.1-0.3-1.7-0.3
				c-1,0-1.3,0.4-1.3,1s0.4,0.8,1.2,0.9C33.9,137.7,34.7,138,34.7,139.3z"/>
		</g>
		<g>
			<path class="st1" d="M37.5,135.7v5.5h-1v-5.5h-1.6v-0.9h4.3v0.9H37.5z"/>
		</g>
		<g>
			<path class="st1" d="M44.4,139.6h-2l-0.5,1.6h-1l2-6.4h1l2,6.4h-1L44.4,139.6z M43.4,136l-0.8,2.8h1.6L43.4,136z"/>
		</g>
		<g>
			<path class="st1" d="M50.2,141.2l-2.8-4.5v4.5h-0.9v-6.4h0.9l2.8,4.5v-4.5h1v6.4H50.2z"/>
		</g>
		<g>
			<path class="st1" d="M52.1,141.2v-6.4H54c2.1,0,2.7,1.4,2.7,3.2s-0.6,3.2-2.7,3.2H52.1z M53,140.3h1c1.3,0,1.7-0.9,1.7-2.3
				s-0.4-2.3-1.7-2.3h-1L53,140.3z"/>
		</g>
		<g>
			<path class="st1" d="M10.5,147.3H7.8v2h2.9v0.9H6.9v-6.4h3.9v0.9H7.8v1.8h2.6V147.3z"/>
		</g>
		<g>
			<path class="st1" d="M15.2,143.8h1.1l-1.8,3.2l1.9,3.3h-1.1l-1.4-2.6l-1.4,2.6h-1.1l1.9-3.3l-1.9-3.1h1.1l1.4,2.6L15.2,143.8z"/>
		</g>
		<g>
			<path class="st1" d="M18,150.2h-1v-6.4h2c1.6,0,2.2,1,2.2,2s-0.6,2-2.2,2H18V150.2z M18,147h1.1c0.6,0,1.1-0.5,1.1-1.1
				c0-0.6-0.5-1.1-1.1-1.1H18V147z"/>
		</g>
		<g>
			<path class="st1" d="M22.9,149.3h2.8v0.9h-3.7v-6.4h1V149.3z"/>
		</g>
		<g>
			<path class="st1" d="M25.8,147c0-1.8,0.4-3.3,2.5-3.3s2.5,1.5,2.5,3.3s-0.4,3.3-2.5,3.3S25.8,148.8,25.8,147z M26.8,147
				c0,1.5,0.3,2.4,1.5,2.4s1.5-0.9,1.5-2.4s-0.3-2.4-1.5-2.4S26.8,145.5,26.8,147L26.8,147z"/>
		</g>
		<g>
			<path class="st1" d="M31.7,150.2v-6.4h0.9v6.4H31.7z"/>
		</g>
		<g>
			<path class="st1" d="M36,144.7v5.5h-1v-5.5h-1.7v-0.9h4.3v0.9H36z"/>
		</g>
		<g>
			<path class="st1" d="M40.9,148.6h-2l-0.5,1.6h-1l2-6.4h1l2,6.4h-1L40.9,148.6z M39.9,145l-0.8,2.8h1.6L39.9,145z"/>
		</g>
		<g>
			<path class="st1" d="M44.6,144.7v5.5h-1v-5.5H42v-0.9h4.3v0.9H44.6z"/>
		</g>
		<g>
			<path class="st1" d="M47,150.2v-6.4h1v6.4H47z"/>
		</g>
		<g>
			<path class="st1" d="M49,147c0-1.8,0.4-3.3,2.5-3.3s2.5,1.5,2.5,3.3s-0.4,3.3-2.5,3.3S49,148.8,49,147z M50,147
				c0,1.5,0.3,2.4,1.5,2.4s1.5-0.9,1.5-2.4s-0.3-2.4-1.5-2.4S50,145.5,50,147z"/>
		</g>
		<g>
			<path class="st1" d="M58.4,150.2l-2.8-4.5v4.5h-1v-6.4h0.9l2.8,4.5v-4.5h0.9v6.4H58.4z"/>
		</g>
		<g>
			<path class="st1" d="M61.8,147c0-1.8,0.4-3.3,2.5-3.3c2.1,0,2.4,1.5,2.4,3.3s-0.4,3.3-2.4,3.3S61.8,148.8,61.8,147z M62.8,147
				c0,1.5,0.3,2.4,1.5,2.4c1.2,0,1.5-0.9,1.5-2.4s-0.3-2.4-1.5-2.4S62.8,145.5,62.8,147L62.8,147z"/>
		</g>
		<g>
			<path class="st1" d="M71.1,147.4h-2.6v2.8h-1v-6.4h3.8v0.9h-2.8v1.8h2.6L71.1,147.4z"/>
		</g>
		<g>
			<path class="st1" d="M9.5,152.8h1.2l1.1,5l0.8-5h1l-1.2,6.5h-1.1l-1.1-5.3L9,159.3H7.8l-1.2-6.5h1l0.8,5L9.5,152.8z"/>
		</g>
		<g>
			<path class="st1" d="M14.2,156c0-1.8,0.4-3.3,2.5-3.3s2.5,1.5,2.5,3.3s-0.4,3.3-2.5,3.3S14.2,157.8,14.2,156z M15.2,156
				c0,1.5,0.3,2.4,1.5,2.4s1.5-0.9,1.5-2.4s-0.3-2.4-1.5-2.4S15.2,154.5,15.2,156L15.2,156z"/>
		</g>
		<g>
			<path class="st1" d="M23.4,158.3h-0.9l-1.6-3.9v4.8H20v-6.4h1.2l1.8,4.4l1.7-4.4h1.2v6.4H25v-4.8L23.4,158.3z"/>
		</g>
		<g>
			<path class="st1" d="M30.5,156.3h-2.6v2h2.9v0.9h-3.9v-6.4h3.9v0.9h-2.9v1.8h2.6V156.3z"/>
		</g>
		<g>
			<path class="st1" d="M35.3,159.2l-2.8-4.5v4.5h-0.9v-6.4h0.9l2.8,4.5v-4.5h1v6.4H35.3z"/>
		</g>
		<g>
			<path class="st1" d="M41.9,157.6h-2l-0.5,1.6h-1l2-6.4h1l2,6.4h-1L41.9,157.6z M40.9,154l-0.8,2.8h1.6L40.9,154z"/>
		</g>
		<g>
			<path class="st1" d="M47.8,159.2l-2.8-4.5v4.5h-0.9v-6.4h0.9l2.8,4.5v-4.5h1v6.4L47.8,159.2z"/>
		</g>
		<g>
			<path class="st1" d="M49.6,159.2v-6.4h1.9c2.1,0,2.7,1.4,2.7,3.2s-0.6,3.2-2.7,3.2H49.6z M50.6,158.3h1c1.3,0,1.7-0.9,1.7-2.3
				s-0.4-2.3-1.7-2.3h-1V158.3z"/>
		</g>
		<g>
			<path class="st1" d="M56.5,156c0-2,0.7-3.3,2.6-3.3c0.6,0,1.2,0.1,1.8,0.3v1c-0.5-0.2-1.1-0.4-1.7-0.4c-1.3,0-1.8,0.9-1.8,2.4
				s0.5,2.4,1.8,2.4c0.3,0,0.6,0,0.9-0.1v-1.7H59v-0.9h2.1v3.2c-0.6,0.3-1.3,0.4-2,0.4C57.2,159.3,56.5,158,56.5,156z"/>
		</g>
		<g>
			<path class="st1" d="M62.2,159.2v-6.4h1v6.4H62.2z"/>
		</g>
		<g>
			<path class="st1" d="M65.2,159.2h-1v-6.4h2.1c1.7,0,2.2,0.8,2.2,1.9c0.1,0.7-0.3,1.4-1,1.7l1.3,2.8h-1.1l-1.2-2.6h-1.3V159.2z
				 M65.2,155.7h1.3c0.9,0,1-0.5,1-1s-0.1-1-1-1h-1.3V155.7z"/>
		</g>
		<g>
			<path class="st1" d="M70.4,158.3h2.8v0.9h-3.7v-6.4h1L70.4,158.3z"/>
		</g>
		<g>
			<path class="st1" d="M78,157.3c0,1.2-0.7,2-2.4,2c-0.6,0-1.3-0.1-1.9-0.4v-1c0.6,0.3,1.2,0.4,1.8,0.4c1.2,0,1.5-0.5,1.5-1.1
				s-0.3-0.9-1.2-1c-1.6-0.2-2.2-0.6-2.2-1.8c0-0.9,0.5-1.9,2.3-1.9c0.6,0,1.2,0.1,1.7,0.3v1c-0.5-0.2-1.1-0.3-1.7-0.3
				c-1,0-1.3,0.4-1.3,1s0.4,0.8,1.2,0.9C77.2,155.7,78,156,78,157.3z"/>
		</g>
	</g>
	<g>
		<rect x="3.3" y="24" class="st1" width="94.8" height="94.8"/>
	</g>
	<g>
		<path class="st1" d="M98.2,20.7H3.3V3.3h94.8V20.7z M4.3,19.7h92.8V4.3H4.3L4.3,19.7z"/>
	</g>
	<g class="st2">
		<path class="st1" d="M6.7,6.9h4.5v1.4H9.9v8.8H8.1V8.3H6.7V6.9z"/>
	</g>
	<g class="st2">
		<path class="st1" d="M11.2,17.1l1.9-10.2h1.9L17,17.1h-1.8l-0.3-1.9h-1.8l-0.3,1.9H11.2z M13.3,13.9h1.4L14,9.8h0L13.3,13.9z"/>
	</g>
	<g class="st2">
		<path class="st1" d="M19.6,12.4v4.7h-1.7V6.9h2.5c1.7,0,2.4,0.9,2.4,2.3v1.3c0,1.1-0.4,1.7-1.4,2l1.6,4.6h-1.8L19.6,12.4z
			 M19.6,8.3v3.2h0.6c0.6,0,0.8-0.3,0.8-0.8V9.2c0-0.6-0.3-0.8-0.8-0.8H19.6z"/>
	</g>
	<g class="st2">
		<path class="st1" d="M26.4,11.7h2.4v5.4h-1.2V16c-0.2,0.8-0.7,1.2-1.6,1.2c-1.5,0-2.1-1.2-2.1-2.7V9.6c0-1.6,0.8-2.7,2.6-2.7
			c1.9,0,2.4,1.1,2.4,2.6v0.9h-1.6v-1c0-0.6-0.2-1-0.9-1c-0.6,0-0.9,0.4-0.9,1v5.5c0,0.6,0.3,1,0.8,1c0.6,0,0.8-0.3,0.8-1V13h-0.8
			V11.7z"/>
	</g>
	<g class="st2">
		<path class="st1" d="M30.2,6.9h4.1v1.4h-2.4v2.9h1.7v1.4h-1.7v3.1h2.4v1.4h-4.1V6.9z"/>
	</g>
	<g class="st2">
		<path class="st1" d="M35.1,6.9h4.5v1.4h-1.4v8.8h-1.7V8.3h-1.4V6.9z"/>
	</g>
	<g class="st2">
		<path class="st1" d="M84.2,12.4v2.5c0,1.4-0.7,2.3-2.4,2.3c-1.7,0-2.4-1-2.4-2.5v-1.2H81v1.3c0,0.6,0.2,1,0.8,1
			c0.5,0,0.7-0.4,0.7-0.9v-2.5c0-0.6-0.2-0.9-0.7-0.9c-0.5,0-0.8,0.3-0.8,0.9v0.2h-1.6V6.9H84v1.4H81v2.5h0c0.3-0.5,0.8-0.7,1.4-0.7
			C83.4,10.2,84.2,10.8,84.2,12.4z"/>
	</g>
	<g class="st2">
	</g>
	<g class="st2">
		<path class="st1" d="M87.1,10.8c0.7,0,1.2,0.6,1.2,1.2c0,0.7-0.6,1.2-1.2,1.2c-0.7,0-1.2-0.6-1.2-1.2
			C85.8,11.4,86.4,10.8,87.1,10.8z"/>
	</g>
	<g class="st2">
		<path class="st1" d="M89.8,15.2c0-1,0.3-1.7,1.3-2.7l1-1c0.6-0.6,0.6-0.9,0.6-1.8V9c0-0.6-0.3-0.8-0.6-0.8c-0.4,0-0.7,0.2-0.7,0.8
			v1.3h-1.6V9c0-1.4,0.8-2.2,2.3-2.2c1.5,0,2.2,0.7,2.2,2.1v1c0,1-0.2,1.6-1.1,2.6l-1.1,1.2c-0.4,0.5-0.7,0.8-0.7,1.6v0.5h2.8v1.4
			h-4.4V15.2z"/>
	</g>
	<g>
		<path class="st1" d="M98.2,162.9h-95v-40.7h95V162.9z M4.2,161.9h93v-38.7h-93V161.9z"/>
	</g>
	<g>
		<path class="st0" d="M50.7,32.3c-21.6,0-39.1,17.5-39.1,39.1s17.5,39.1,39.1,39.1s39.1-17.5,39.1-39.1l0,0
			C89.9,49.9,72.3,32.3,50.7,32.3z M16.6,71.5c0-18.8,15.3-34.1,34.1-34.1c7.8,0,15.5,2.7,21.5,7.7L59.9,57.3
			c-0.8-1.3-2.3-2.1-3.8-2.2H45.4h-0.3l7.9,9l3.1,3.6l-5,1.1l2,2.2l6.3,7.1L52.3,72l-3.8-3.3L47,67.4l3.7-0.8h0.1l0,0L41.1,58
			c-0.2,0.3-0.4,0.7-0.5,1l-4.2,13.7c0,0-0.8,2.5,1.4,3.1s2.8-1.8,2.8-1.8l3.4-11.4c0,0,0.2-0.9,0.8-0.7s0.4,1.1,0.4,1.1l-3.4,12.5
			L24.3,93C19.3,86.9,16.6,79.3,16.6,71.5z M50.7,105.6c-8.5,0-16.7-3.2-23-9l12.1-12.2h4.9v15.3c0,1.5,1.2,2.6,2.6,2.6
			c1.5,0,2.6-1.2,2.6-2.6c0,0,0,0,0,0V84.4h1.5v15.3c0,1.5,1.2,2.6,2.6,2.6s2.6-1.2,2.6-2.6V84.4h5.5l-4.8-17.5l1.1-1.1L61,74
			c0,0,0.6,2.4,2.8,1.8s1.4-3.1,1.4-3.1l-3.2-10.3l14-14c12.8,13.9,11.9,35.4-2,48.2C67.6,102.4,59.3,105.6,50.7,105.6z"/>
	</g>
	<g>
		<path class="st0" d="M50.7,52.7c2.8,0,5.1-2.3,5.1-5.1c0-2.8-2.3-5.1-5.1-5.1c-2.8,0-5.1,2.3-5.1,5.1c0,0,0,0,0,0.1
			C45.7,50.4,47.9,52.7,50.7,52.7C50.7,52.7,50.7,52.7,50.7,52.7z"/>
	</g>
</g>
</svg>
