<?xml version="1.0" encoding="utf-8"?>
<!-- Generator: Adobe Illustrator 22.0.1, SVG Export Plug-In . SVG Version: 6.00 Build 0)  -->
<svg version="1.1" id="Layer_1" xmlns="http://www.w3.org/2000/svg" xmlns:xlink="http://www.w3.org/1999/xlink" x="0px" y="0px"
	 viewBox="0 0 101.5 166.2" style="enable-background:new 0 0 101.5 166.2;" xml:space="preserve">
<style type="text/css">
	.st0{fill:#FFFFFF;}
	.st1{fill:#E5243B;}
	.st2{enable-background:new    ;}
</style>
<title>TARGET 1 A</title>
<g id="WHITE_BG">
	<g>
		<rect y="0" class="st0" width="101.5" height="166.2"/>
	</g>
</g>
<g id="TARGETS">
	<g>
		<g>
			<path class="st1" d="M10.3,131.3H9.4l-1.6-3.9v4.8h-1v-6.4h1.3l1.7,4.3l1.7-4.3h1.2v6.4h-0.9v-4.8L10.3,131.3z"/>
		</g>
		<g>
			<path class="st1" d="M13.5,129c0-1.8,0.4-3.3,2.4-3.3s2.5,1.5,2.5,3.3s-0.4,3.3-2.4,3.3S13.5,130.8,13.5,129z M14.5,129
				c0,1.5,0.3,2.4,1.5,2.4s1.5-0.9,1.5-2.4s-0.3-2.4-1.5-2.4S14.5,127.5,14.5,129L14.5,129z"/>
		</g>
		<g>
			<path class="st1" d="M19.2,125.8h2.1c1.6,0,2,0.8,2,1.7c0,0.5-0.3,1-0.8,1.3c0.6,0.2,1.1,0.8,1,1.5c0,1.1-0.5,1.9-2.2,1.9h-2.2
				V125.8z M21.4,126.7h-1.2v1.8h1.2c0.8,0,1-0.5,1-0.9S22.2,126.7,21.4,126.7z M20.1,131.3h1.3c0.9,0,1.1-0.5,1.1-1s-0.3-1-1.1-1
				h-1.3L20.1,131.3z"/>
		</g>
		<g>
			<path class="st1" d="M24.3,132.2v-6.4h1v6.4H24.3z"/>
		</g>
		<g>
			<path class="st1" d="M27.3,131.3H30v0.9h-3.7v-6.4h1L27.3,131.3z"/>
		</g>
		<g>
			<path class="st1" d="M30.7,132.2v-6.4h1v6.4H30.7z"/>
		</g>
		<g>
			<path class="st1" d="M32.3,132.2v-0.6l3.3-4.8h-3v-0.9h4.3v0.6l-3.3,4.8H37v0.9L32.3,132.2z"/>
		</g>
		<g>
			<path class="st1" d="M41.2,129.3h-2.7v2h2.9v0.9h-3.9v-6.4h3.9v0.9h-2.9v1.8h2.7V129.3z"/>
		</g>
		<g>
			<path class="st1" d="M44.6,132.2h-1v-6.4h2.1c1.7,0,2.2,0.7,2.2,1.9c0.1,0.7-0.3,1.4-1,1.7l1.3,2.8h-1.1l-1.2-2.6h-1.3V132.2z
				 M44.6,128.7h1.3c0.9,0,1-0.5,1-1s-0.1-1-1-1h-1.3V128.7z"/>
		</g>
		<g>
			<path class="st1" d="M52.5,129.3h-2.7v2h2.9v0.9h-3.9v-6.4h3.9v0.9h-2.9v1.8h2.7V129.3z"/>
		</g>
		<g>
			<path class="st1" d="M57.7,130.3c0,1.2-0.7,2-2.4,2c-0.6,0-1.3-0.1-1.9-0.4V131c0.6,0.3,1.2,0.4,1.8,0.4c1.2,0,1.5-0.5,1.5-1.1
				s-0.3-0.9-1.2-1c-1.5-0.2-2.2-0.6-2.2-1.8c0-0.9,0.5-1.8,2.3-1.8c0.6,0,1.2,0.1,1.7,0.3v1c-0.5-0.2-1.1-0.3-1.7-0.3
				c-1,0-1.3,0.4-1.3,1c0,0.7,0.4,0.8,1.2,0.9C57,128.7,57.7,129,57.7,130.3z"/>
		</g>
		<g>
			<path class="st1" d="M58.3,129c0-1.8,0.4-3.3,2.5-3.3s2.5,1.5,2.5,3.3s-0.4,3.3-2.5,3.3S58.3,130.8,58.3,129z M59.3,129
				c0,1.5,0.3,2.4,1.5,2.4s1.5-0.9,1.5-2.4s-0.3-2.4-1.5-2.4S59.3,127.5,59.3,129L59.3,129z"/>
		</g>
		<g>
			<path class="st1" d="M63.9,130.2v-4.4h0.9v4.3c0,0.8,0.6,1.4,1.4,1.4s1.4-0.6,1.4-1.4v-4.3h1v4.4c-0.1,1.3-1.2,2.2-2.5,2.2
				C65,132.3,64,131.4,63.9,130.2L63.9,130.2z"/>
		</g>
		<g>
			<path class="st1" d="M70.4,132.2h-1v-6.4h2.1c1.7,0,2.2,0.7,2.2,1.9c0.1,0.7-0.3,1.4-1,1.7l1.3,2.8h-1.1l-1.2-2.6h-1.3V132.2z
				 M70.4,128.7h1.3c0.9,0,1-0.5,1-1s-0.1-1-1-1h-1.3V128.7z"/>
		</g>
		<g>
			<path class="st1" d="M77.1,125.7c0.5,0,1,0.1,1.5,0.3v0.9c-0.5-0.2-0.9-0.3-1.4-0.3c-1.2,0-1.7,0.8-1.7,2.4s0.5,2.4,1.7,2.4
				c0.5,0,1-0.1,1.4-0.3v0.9c-0.5,0.2-1,0.3-1.5,0.3c-1.9,0-2.6-1.2-2.6-3.3S75.2,125.7,77.1,125.7z"/>
		</g>
		<g>
			<path class="st1" d="M82.9,129.3h-2.7v2h2.9v0.9h-3.9v-6.4h3.9v0.9h-2.9v1.8h2.7V129.3z"/>
		</g>
		<g>
			<path class="st1" d="M88.1,130.3c0,1.2-0.7,2-2.4,2c-0.6,0-1.3-0.1-1.9-0.4V131c0.6,0.3,1.2,0.4,1.8,0.4c1.2,0,1.5-0.5,1.5-1.1
				s-0.3-0.9-1.2-1c-1.6-0.2-2.2-0.6-2.2-1.8c0-0.9,0.5-1.8,2.3-1.8c0.6,0,1.2,0.1,1.7,0.3v1c-0.5-0.2-1.1-0.3-1.7-0.3
				c-1,0-1.3,0.4-1.3,1c0,0.7,0.4,0.8,1.2,0.9C87.3,128.7,88.1,129,88.1,130.3z"/>
		</g>
		<g>
			<path class="st1" d="M9.2,135.7v5.5h-1v-5.5H6.6v-0.9h4.3v0.9H9.2z"/>
		</g>
		<g>
			<path class="st1" d="M11.1,138c0-1.8,0.4-3.3,2.5-3.3s2.5,1.5,2.5,3.3s-0.4,3.3-2.4,3.3S11.1,139.8,11.1,138z M12.1,138
				c0,1.5,0.3,2.4,1.5,2.4s1.5-0.9,1.5-2.4s-0.3-2.4-1.5-2.4S12,136.5,12.1,138L12.1,138z"/>
		</g>
		<g>
			<path class="st1" d="M18.3,141.2v-6.4h1v6.4H18.3z"/>
		</g>
		<g>
			<path class="st1" d="M23.8,140.3h-0.9l-1.6-3.9v4.8h-1v-6.4h1.3l1.7,4.3l1.7-4.3h1.2v6.4h-1v-4.8L23.8,140.3z"/>
		</g>
		<g>
			<path class="st1" d="M28.2,141.2h-1v-6.4h2c1.6,0,2.2,0.9,2.2,2s-0.6,2-2.2,2h-1.1L28.2,141.2z M28.2,138h1.1
				c0.6,0.1,1.2-0.4,1.2-1s-0.4-1.2-1-1.2c-0.1,0-0.1,0-0.2,0h-1.1V138z"/>
		</g>
		<g>
			<path class="st1" d="M32.9,140.3h2.8v0.9H32v-6.4h1L32.9,140.3z"/>
		</g>
		<g>
			<path class="st1" d="M39.8,138.3h-2.7v2h2.9v0.9h-3.9v-6.4h3.9v0.9h-2.9v1.8h2.7V138.3z"/>
		</g>
		<g>
			<path class="st1" d="M44.3,140.3h-0.9l-1.6-3.9v4.8H41v-6.4h1.2l1.7,4.3l1.7-4.3h1.2v6.4h-1v-4.8L44.3,140.3z"/>
		</g>
		<g>
			<path class="st1" d="M51.4,138.3h-2.7v2h2.9v0.9h-3.9v-6.4h3.9v0.9h-2.9v1.8h2.7V138.3z"/>
		</g>
		<g>
			<path class="st1" d="M56.2,141.2l-2.8-4.5v4.5h-0.9v-6.4h0.9l2.8,4.5v-4.5h0.9v6.4H56.2z"/>
		</g>
		<g>
			<path class="st1" d="M60.3,135.7v5.5h-1v-5.5h-1.6v-0.9H62v0.9H60.3z"/>
		</g>
		<g>
			<path class="st1" d="M7.8,150.2h-1v-6.4h2.1c1.6,0,2.2,0.9,2.2,2s-0.6,2-2.2,2H7.8V150.2z M7.8,147H9c0.6,0.1,1.2-0.4,1.2-1
				c0.1-0.6-0.4-1.2-1-1.2c-0.1,0-0.1,0-0.2,0H7.8V147z"/>
		</g>
		<g>
			<path class="st1" d="M11.5,147c0-1.8,0.4-3.3,2.5-3.3s2.4,1.5,2.4,3.3s-0.4,3.3-2.4,3.3S11.5,148.8,11.5,147z M12.5,147
				c0,1.5,0.3,2.4,1.5,2.4s1.5-0.9,1.5-2.4s-0.3-2.4-1.5-2.4S12.5,145.5,12.5,147L12.5,147z"/>
		</g>
		<g>
			<path class="st1" d="M18.1,149.3h2.8v0.9h-3.7v-6.4h1L18.1,149.3z"/>
		</g>
		<g>
			<path class="st1" d="M21.5,150.2v-6.4h1v6.4H21.5z"/>
		</g>
		<g>
			<path class="st1" d="M26.1,143.7c0.5,0,1,0.1,1.5,0.3v0.9c-0.5-0.2-0.9-0.3-1.4-0.3c-1.2,0-1.7,0.8-1.7,2.4s0.5,2.4,1.7,2.4
				c0.5,0,1-0.1,1.4-0.3v0.9c-0.5,0.2-1,0.3-1.5,0.3c-1.9,0-2.6-1.2-2.6-3.3S24.2,143.7,26.1,143.7z"/>
		</g>
		<g>
			<path class="st1" d="M28.6,150.2v-6.4h1v6.4H28.6z"/>
		</g>
		<g>
			<path class="st1" d="M34.3,147.3h-2.7v2h2.9v0.9h-3.9v-6.4h3.9v0.9h-2.9v1.8h2.7L34.3,147.3z"/>
		</g>
		<g>
			<path class="st1" d="M39.4,148.3c0,1.2-0.7,2-2.4,2c-0.6,0-1.3-0.1-1.9-0.4V149c0.6,0.3,1.2,0.4,1.8,0.4c1.2,0,1.5-0.5,1.5-1.1
				s-0.3-0.9-1.2-1c-1.5-0.2-2.2-0.6-2.2-1.8c0-0.9,0.5-1.8,2.3-1.8c0.6,0,1.2,0.1,1.7,0.3v1c-0.5-0.2-1.1-0.3-1.7-0.3
				c-1,0-1.3,0.4-1.3,1c0,0.7,0.4,0.8,1.2,0.9C38.7,146.7,39.4,147,39.4,148.3z"/>
		</g>
		<g>
			<path class="st1" d="M43.7,144.7v5.5h-1v-5.5H41v-0.9h4.3v0.9H43.7z"/>
		</g>
		<g>
			<path class="st1" d="M45.5,147c0-1.8,0.4-3.3,2.5-3.3s2.5,1.5,2.5,3.3s-0.4,3.3-2.4,3.3S45.5,148.8,45.5,147z M46.5,147
				c0,1.5,0.3,2.4,1.5,2.4s1.5-0.9,1.5-2.4s-0.3-2.4-1.5-2.4S46.5,145.5,46.5,147L46.5,147z"/>
		</g>
		<g>
			<path class="st1" d="M56.3,147.3h-2.6v2h2.9v0.9h-3.9v-6.4h3.9v0.9h-2.9v1.8h2.7L56.3,147.3z"/>
		</g>
		<g>
			<path class="st1" d="M61.1,150.2l-2.8-4.5v4.5h-0.9v-6.4h0.9l2.8,4.5v-4.5h1v6.4L61.1,150.2z"/>
		</g>
		<g>
			<path class="st1" d="M62.8,150.2v-6.4h1.9c2.1,0,2.7,1.4,2.7,3.2s-0.6,3.2-2.7,3.2H62.8z M63.8,149.3h1c1.3,0,1.7-0.9,1.7-2.3
				s-0.4-2.3-1.7-2.3h-1V149.3z"/>
		</g>
		<g>
			<path class="st1" d="M7.8,159.2h-1v-6.4h2.1c1.6,0,2.2,0.9,2.2,2s-0.6,2-2.2,2H7.8V159.2z M7.8,156H9c0.6,0.1,1.2-0.4,1.2-1
				c0.1-0.6-0.4-1.2-1-1.2c-0.1,0-0.1,0-0.2,0H7.8V156z"/>
		</g>
		<g>
			<path class="st1" d="M11.5,156c0-1.8,0.4-3.3,2.5-3.3s2.4,1.5,2.4,3.3s-0.4,3.3-2.4,3.3S11.5,157.8,11.5,156z M12.5,156
				c0,1.5,0.3,2.4,1.5,2.4s1.5-0.9,1.5-2.4s-0.3-2.4-1.5-2.4S12.5,154.5,12.5,156L12.5,156z"/>
		</g>
		<g>
			<path class="st1" d="M21.7,152.8l-2,6.4h-1l-2-6.4h1l1.5,5.2l1.5-5.2L21.7,152.8z"/>
		</g>
		<g>
			<path class="st1" d="M25.8,156.3h-2.7v2h2.9v0.9h-3.9v-6.4h3.9v0.9h-2.9v1.8h2.7V156.3z"/>
		</g>
		<g>
			<path class="st1" d="M28,159.2h-1v-6.4h2.1c1.6,0,2.2,0.7,2.2,1.9c0.1,0.7-0.3,1.4-1,1.7l1.3,2.8h-1.2l-1.2-2.6H28V159.2z
				 M28,155.7h1.3c0.9,0,1-0.5,1-1s-0.1-1-1-1H28V155.7z"/>
		</g>
		<g>
			<path class="st1" d="M34.2,153.7v5.5h-1v-5.5h-1.6v-0.9h4.3v0.9H34.2z"/>
		</g>
		<g>
			<path class="st1" d="M39.2,156.7v2.6h-1v-2.6l-2.2-3.8h1.1l1.6,3l1.6-3h1.1L39.2,156.7z"/>
		</g>
	</g>
	<g>
		<rect x="3.3" y="24" class="st1" width="94.8" height="94.8"/>
	</g>
	<g>
		<path class="st1" d="M98.2,20.7H3.3V3.3h94.8V20.7z M4.3,19.7h92.8V4.3H4.3L4.3,19.7z"/>
	</g>
	<g>
		<path class="st1" d="M98.2,162.8H3.3v-40.6h94.8V162.8z M4.3,161.8h92.8v-38.6H4.3L4.3,161.8z"/>
	</g>
	<g class="st2">
		<path class="st1" d="M6.7,6.9h4.5v1.4H9.9v8.8H8.1V8.3H6.7V6.9z"/>
	</g>
	<g class="st2">
		<path class="st1" d="M11.2,17.1l1.9-10.2h1.9L17,17.1h-1.8l-0.3-1.9h-1.8l-0.3,1.9H11.2z M13.3,13.9h1.4L14,9.8h0L13.3,13.9z"/>
	</g>
	<g class="st2">
		<path class="st1" d="M19.6,12.5v4.7h-1.7V6.9h2.5c1.7,0,2.4,0.9,2.4,2.3v1.3c0,1.1-0.4,1.7-1.4,2l1.6,4.6h-1.8L19.6,12.5z
			 M19.6,8.3v3.2h0.6c0.6,0,0.8-0.3,0.8-0.8V9.2c0-0.6-0.3-0.8-0.8-0.8H19.6z"/>
	</g>
	<g class="st2">
		<path class="st1" d="M26.4,11.7h2.4v5.4h-1.2V16c-0.2,0.8-0.7,1.2-1.6,1.2c-1.5,0-2.1-1.2-2.1-2.7V9.6c0-1.6,0.8-2.7,2.6-2.7
			c1.9,0,2.4,1.1,2.4,2.6v0.9h-1.6v-1c0-0.6-0.2-1-0.9-1c-0.6,0-0.9,0.4-0.9,1v5.5c0,0.6,0.3,1,0.8,1c0.6,0,0.8-0.3,0.8-1V13h-0.8
			V11.7z"/>
	</g>
	<g class="st2">
		<path class="st1" d="M30.2,6.9h4.1v1.4h-2.4v2.9h1.7v1.4h-1.7v3.1h2.4v1.4h-4.1V6.9z"/>
	</g>
	<g class="st2">
		<path class="st1" d="M35.1,6.9h4.5v1.4h-1.4v8.8h-1.7V8.3h-1.4V6.9z"/>
	</g>
	<g class="st2">
		<path class="st1" d="M88.8,17.1l1.9-10.2h1.9l1.9,10.2h-1.8l-0.3-1.9h-1.8l-0.3,1.9H88.8z M90.9,13.9h1.4l-0.7-4.1h0L90.9,13.9z"
			/>
	</g>
	<g class="st2">
		<path class="st1" d="M82.9,6.9v10.2h-1.7V9.3h0L80,10.6h0V8.8l1.6-1.8H82.9z"/>
	</g>
	<g>
		<polygon class="st1" points="85.4,9.9 85.4,14.1 87.6,12 		"/>
	</g>
	<g>
		<g>
			<g>
				<polygon class="st0" points="58,38.6 56.5,38.6 56.5,67.1 77.5,67.1 77.5,65.4 58,65.4 				"/>
			</g>
			<g>
				<path class="st0" d="M59.5,35.1v28.6H80V35.1H59.5z M77.6,59.8L77.6,59.8c0,0.1-0.1,0.1-0.1,0.1H62.2c-0.1,0-0.1-0.1-0.1-0.1
					v-2.3c0-0.1,0.1-0.1,0.1-0.1h15.2c0.1,0,0.1,0.1,0.1,0.1L77.6,59.8L77.6,59.8z M77.6,55.3L77.6,55.3c0,0.1-0.1,0.1-0.1,0.1H62.2
					c-0.1,0-0.1-0.1-0.1-0.2v-2.3c0-0.1,0.1-0.1,0.1-0.1h15.2c0.1,0,0.1,0,0.1,0.1l0,0L77.6,55.3z M77.6,50.7
					C77.6,50.7,77.6,50.7,77.6,50.7c0,0.1-0.1,0.1-0.1,0.1H62.2c-0.1,0-0.1-0.1-0.2-0.1v-2.4c0-0.1,0.1-0.1,0.2-0.1h15.2
					c0,0,0.1,0,0.1,0.1c0,0,0,0,0,0.1L77.6,50.7z"/>
			</g>
		</g>
		<g>
			<g>
				<g>
					<path class="st0" d="M83.6,82c1.5,0,2.7-1.2,2.7-2.8c0-1.5-1.2-2.7-2.8-2.7c-1.5,0-2.7,1.2-2.7,2.7C80.8,80.8,82,82,83.6,82
						C83.6,82,83.6,82,83.6,82z"/>
				</g>
				<g>
					<path class="st0" d="M86.8,83h-6.4c-1.9,0.2-3.4,1.8-3.3,3.7v7.6c-0.1,0.6,0.4,1.1,1,1.2c0.6,0.1,1.1-0.4,1.2-1
						c0-0.1,0-0.1,0-0.2v-6.6c0-0.2,0.1-0.6,0.5-0.6s0.4,0.3,0.4,0.5v19.6c0,0.8,0.7,1.5,1.5,1.5c0.8,0,1.5-0.7,1.5-1.5c0,0,0,0,0,0
						V96.1c0-0.2,0.2-0.4,0.4-0.4c0,0,0,0,0,0l0,0c0.2,0,0.4,0.2,0.4,0.4c0,0,0,0,0,0v11.3c-0.1,0.8,0.6,1.6,1.4,1.7
						s1.6-0.6,1.7-1.4c0-0.1,0-0.2,0-0.2V87.7c0-0.2,0.1-0.5,0.4-0.5s0.5,0.3,0.5,0.6v6.6c0,0.6,0.5,1.1,1.1,1.1
						c0.6,0,1.1-0.5,1.1-1.1c0,0,0,0,0,0v-7.6C90.1,84.8,88.7,83.2,86.8,83z"/>
				</g>
			</g>
			<g>
				<g>
					<path class="st0" d="M60.4,83.3c1.4,0,2.6-1.2,2.6-2.6s-1.2-2.6-2.6-2.6s-2.6,1.2-2.6,2.6l0,0C57.8,82.2,59,83.3,60.4,83.3z"/>
				</g>
				<g>
					<path class="st0" d="M67.8,93.6l-2.2-7c0,0-0.8-2-2.5-2h-5.5c-1.7,0-2.5,2-2.5,2l-2.2,7c0,0-0.4,1.3,0.7,1.6s1.4-0.9,1.4-0.9
						l1.7-5.9c0,0,0.1-0.5,0.4-0.4s0.2,0.6,0.2,0.6l-3,11h2.8v7.9c0.1,0.7,0.7,1.3,1.5,1.2c0.7-0.1,1.2-0.6,1.2-1.2v-7.9h0.8v7.9
						c0.1,0.7,0.7,1.3,1.5,1.2c0.7-0.1,1.2-0.6,1.2-1.2v-7.9h2.8l-3-11c0,0-0.1-0.5,0.2-0.6s0.4,0.4,0.4,0.4l1.7,5.9
						c0,0,0.3,1.3,1.4,0.9S67.8,93.6,67.8,93.6z"/>
				</g>
			</g>
			<g>
				<g>
					<path class="st0" d="M44.9,83.3c1.4,0,2.6-1.2,2.6-2.6c0-1.4-1.2-2.6-2.6-2.6c-1.4,0-2.6,1.2-2.6,2.6c0,0,0,0,0,0
						C42.3,82.1,43.4,83.3,44.9,83.3z"/>
				</g>
				<g>
					<path class="st0" d="M52.3,93.6l-2.2-7c0,0-0.8-2-2.5-2h-5.5c-1.7,0-2.5,2-2.5,2l-2.2,7c0,0-0.4,1.3,0.7,1.6s1.4-0.9,1.4-0.9
						l1.7-5.9c0,0,0.1-0.4,0.4-0.3s0.2,0.6,0.2,0.6l-3,11h2.8v7.9c0.1,0.7,0.7,1.3,1.5,1.2c0.7-0.1,1.2-0.6,1.2-1.2v-7.9h0.8v7.9
						c0.1,0.7,0.7,1.3,1.5,1.2c0.7-0.1,1.2-0.6,1.2-1.2v-7.9h2.8l-3-11c0,0-0.1-0.5,0.2-0.6s0.4,0.3,0.4,0.3l1.7,5.9
						c0,0,0.3,1.3,1.4,0.9S52.3,93.6,52.3,93.6z"/>
				</g>
			</g>
			<g>
				<g>
					<path class="st0" d="M19.9,82.3c1.5,0,2.7-1.2,2.7-2.7c0-1.5-1.2-2.7-2.7-2.7s-2.7,1.2-2.7,2.7S18.4,82.3,19.9,82.3L19.9,82.3z
						"/>
				</g>
				<g>
					<path class="st0" d="M23,83.3h-6.3c-1.9,0.2-3.3,1.8-3.3,3.7v7.5c0,0.3,0.2,0.6,0.4,0.8l-2.4,12.8c0,0.2,0.1,0.4,0.3,0.5
						c0,0,0,0,0,0h0.1c0.2,0,0.4-0.1,0.4-0.3l2.4-12.7c0.5-0.1,0.9-0.5,0.9-1V88c0-0.2,0.1-0.6,0.5-0.6c0.3,0,0.4,0.3,0.4,0.5v19.4
						c0.1,0.8,0.9,1.4,1.7,1.3c0.6-0.1,1.1-0.6,1.3-1.3V96.2c0-0.2,0.2-0.4,0.4-0.4c0,0,0,0,0.1,0l0,0c0.2,0,0.4,0.2,0.4,0.4
						c0,0,0,0,0,0v11.2c0.1,0.8,0.9,1.4,1.7,1.3c0.6-0.1,1.1-0.6,1.3-1.3V88c0-0.2,0.1-0.5,0.4-0.5s0.5,0.3,0.5,0.6v6.5
						c-0.1,0.6,0.4,1.1,1,1.2s1.1-0.4,1.2-1c0-0.1,0-0.1,0-0.2V87C26.3,85.1,24.9,83.5,23,83.3z"/>
				</g>
			</g>
			<g>
				<g>
					<path class="st0" d="M72.3,95c1.2,0,2.2-1,2.2-2.2s-1-2.2-2.2-2.2s-2.2,1-2.2,2.2l0,0C70.1,94,71.1,95,72.3,95z"/>
				</g>
				<g>
					<path class="st0" d="M77.6,101.5c0-0.1-0.7-1.7-0.9-2.2c-1.3-3.4-1.6-3.4-2.8-3.4h-3.4c-1.2,0-1.4,0-2.8,3.4
						c-0.2,0.5-1,2.4-1,2.5s-0.3,0.8,0.4,1.1s0.9-0.6,0.9-0.6l1.4-3.3c0,0,0-0.1,0.1-0.1s0,0.1,0,0.1v8.7l0,0c0,0.6,0.5,1.2,1.1,1.2
						c0,0,0,0,0.1,0c0.6,0,1.2-0.4,1.2-1c0-0.1,0-0.1,0-0.2v-3.5c0,0,0-0.5,0.3-0.5s0.3,0.5,0.3,0.5v3.5c0,0.6,0.5,1.2,1.1,1.2
						c0,0,0,0,0.1,0c0.6,0,1.1-0.5,1.1-1.1c0,0,0,0,0-0.1l0,0V99c0-0.1,0-0.1,0-0.1L75,99l1.2,3c0,0,0.3,0.8,1,0.5
						C77.6,102.3,77.8,101.9,77.6,101.5C77.6,101.5,77.6,101.5,77.6,101.5z"/>
				</g>
			</g>
			<g>
				<g>
					<path class="st0" d="M36.4,93.7c-0.4-0.2-0.9,0-1.1,0.4c0,0,0,0,0,0c-0.4,0.7-0.9,1.4-1.4,2.1c-0.2,0.2-0.4,0.3-0.7,0.3h-2.6
						c-0.3,0-0.5-0.1-0.7-0.3c-0.3-0.3-1.4-2.2-1.4-2.2c-0.1-0.2-0.4-0.4-0.7-0.4c-0.4,0-0.8,0.4-0.8,0.8l0,0c0,0.1,0,0.2,0.1,0.3
						l2.2,4c0.1,0.2,0.1,0.3,0.1,0.5v0.6l0,0c0,0.2,0,0.5-0.1,0.7l-1,4.2h1.2v3.1l0,0c0.1,0.6,0.6,1,1.2,1c0.5,0,0.9-0.5,1-1v-3
						c0,0,0-0.1,0-0.1h0.6c0,0,0,0.1,0,0.1v3c0.1,0.6,0.6,1,1.2,1c0.5,0,0.9-0.5,1-1v-3.1h1.2l-1.1-4.2c0-0.2-0.1-0.4-0.1-0.6v-0.1
						l0,0v-0.6c0-0.2,0.1-0.4,0.1-0.5l2-3.7l0.2-0.4c0.2-0.3,0.1-0.8-0.3-1C36.4,93.8,36.4,93.8,36.4,93.7z"/>
				</g>
				<g>
					<path class="st0" d="M31.9,95.2c1.2,0,2.2-1,2.2-2.2s-1-2.2-2.2-2.2c-1.2,0-2.2,1-2.2,2.2c0,0,0,0,0,0
						C29.7,94.2,30.7,95.2,31.9,95.2z"/>
				</g>
			</g>
		</g>
		<g>
			<g>
				<path class="st0" d="M31.6,50.4c-0.4,0.2-0.8,0.4-1.2,0.5c-1.3,0.4-2.6,0.5-3.9,0.5c-0.6,0-1.3-0.1-1.9-0.2
					c-0.4-0.1-0.8-0.1-1.2-0.2l-0.6-0.2c-0.5-0.2-1.1-0.4-1.5-0.7c-0.2-0.1-0.3-0.3-0.4-0.5v0.5c0,0.1,0,0.8,0,0.8
					c0,0.3,0.2,0.6,0.4,0.8c0.9,0.6,1.9,1,3,1.1c0.7,0.1,1.5,0.2,2.2,0.2c1.1,0,2.1-0.1,3.2-0.4l0,0c0.6-0.1,1.1-0.3,1.6-0.6l0,0
					c0.5-0.3,0.8-0.7,0.8-1.1c0,0,0-1.2,0-1.2C32,50,31.9,50.2,31.6,50.4z"/>
			</g>
			<g>
				<path class="st0" d="M26.1,46.5c3.1,0,5.7-0.9,5.7-2.1c0,0,0.1-1.1,0-1.3c0-0.2,0-0.3-0.1-0.5c0.4-0.2,0.6-0.5,0.6-1
					c0,0,0-1.2,0-1.4c-0.2-1.4-3-2.2-5.7-2.2s-5.7,0.8-5.7,2.3c0,0.1,0.1,1.3,0.1,1.3c0,0.1,0,0.2,0.1,0.3c-0.4,0.2-0.7,0.7-0.7,1.2
					c0,0.1,0.1,1.3,0.1,1.3c0,0.3,0.2,0.6,0.5,0.8c0.9,0.6,1.9,1,3,1.1C24.5,46.5,25.3,46.5,26.1,46.5z M26.6,38.7
					c3,0,5.1,0.9,5.1,1.7s-2.1,1.7-5.1,1.7s-5.1-0.9-5.1-1.7S23.6,38.7,26.6,38.7z M20.9,43.1c0-0.3,0.2-0.5,0.4-0.6
					c0.2,0.2,0.4,0.3,0.6,0.4c1.5,0.7,3.1,1,4.7,0.9c1.4,0,2.7-0.2,4-0.6c0.2-0.1,0.3-0.2,0.5-0.2c0,0,0,0.1,0,0.1
					c0,0.8-2.1,1.7-5.1,1.7S20.9,43.9,20.9,43.1z"/>
			</g>
			<g>
				<path class="st0" d="M24.4,50.9c0.7,0.1,1.5,0.2,2.2,0.2c1.1,0,2.1-0.1,3.2-0.4l0,0c0.6-0.1,1.1-0.3,1.6-0.6l0,0
					c0.1-0.1,0.2-0.2,0.4-0.2c0.2-0.1,0.3-0.3,0.4-0.5c0-0.1,0.1-0.2,0.1-0.3c0,0,0-1.2,0-1.2c-0.2,0.2-0.7,1-2.9,1.4
					c-1,0.2-1.9,0.2-2.9,0.2c-1.6,0-3.1-0.3-4.5-0.9c-0.3-0.1-0.5-0.3-0.7-0.5c-0.1-0.1-0.2-0.3-0.3-0.4c0,0,0,0.5,0,0.6V49
					c0,0.3,0.2,0.6,0.4,0.8C22.2,50.4,23.2,50.8,24.4,50.9z"/>
			</g>
			<g>
				<path class="st0" d="M32.2,45.1L32,45c-0.1-0.1-0.2-0.1-0.2-0.1c-0.1,0.1-0.2,0.2-0.3,0.3c0.1,0,0.2,0.1,0.2,0.1
					c0.2,0.1,0.3,0.3,0.3,0.4c0,0.1-0.1,0.3-0.2,0.4l-0.2,0.2l-0.3,0.2l-0.5,0.2l-0.5,0.2L29.6,47l-0.9,0.1c-0.1,0-0.6,0.1-0.9,0.1
					s-0.9,0.1-1.3,0.1c-1,0-2.1-0.1-3.1-0.3c-0.5-0.1-0.9-0.2-1.4-0.4c-0.3-0.1-0.5-0.3-0.7-0.5c-0.2-0.2-0.3-0.4-0.5-0.6v0.7v0.7
					c0,0.3,0.2,0.6,0.4,0.8c0.9,0.6,1.9,1,3,1.1c0.7,0.1,1.5,0.2,2.2,0.2c1.1,0,2.1-0.1,3.2-0.4l0,0c0.6-0.1,1.1-0.3,1.6-0.6l0,0
					c0.1-0.1,0.2-0.2,0.4-0.2c0.2-0.1,0.3-0.3,0.4-0.5c0-0.1,0.1-0.2,0.1-0.3c0,0,0-1.2,0-1.2c0-0.1,0-0.2,0-0.3
					C32.2,45.3,32.2,45.2,32.2,45.1z"/>
			</g>
			<g>
				<path class="st0" d="M39.1,42.4c3.1,0,5.7-0.9,5.7-2.1c0,0,0.1-1.1,0-1.3c0-0.2,0-0.3-0.1-0.5c0.4-0.2,0.6-0.5,0.6-1
					c0,0,0.1-1.2,0-1.4c-0.2-1.4-3-2.2-5.7-2.2S34,34.8,34,36.3c0,0.1,0,1.3,0,1.3c0,0.1,0,0.2,0.1,0.2c-0.4,0.3-0.6,0.7-0.7,1.1
					c0,0.1,0,1.3,0,1.3c0,0.3,0.2,0.6,0.5,0.8c0.9,0.6,1.9,1,3,1.1C37.6,42.4,38.4,42.4,39.1,42.4z M39.7,34.6c3,0,5.1,0.9,5.1,1.7
					S42.7,38,39.7,38s-5.1-0.9-5.1-1.7S36.7,34.6,39.7,34.6z M34,39c0-0.3,0.2-0.5,0.4-0.6c0.2,0.2,0.4,0.3,0.6,0.4
					c1.5,0.7,3.1,1,4.7,0.9c1.4,0,2.7-0.2,4-0.6c0.2-0.1,0.3-0.2,0.5-0.2c0,0,0,0.1,0,0.1c0,0.8-2.1,1.7-5.1,1.7S34,39.8,34,39z"/>
			</g>
			<g>
				<path class="st0" d="M45.4,41.3c0-0.1-0.1-0.2-0.1-0.2l-0.1-0.1c-0.1-0.1-0.2-0.1-0.2-0.1c-0.1,0.1-0.2,0.2-0.3,0.3
					c0.1,0,0.2,0.1,0.2,0.1c0.2,0.1,0.3,0.3,0.3,0.4c0,0.1-0.1,0.3-0.2,0.4l-0.2,0.2l-0.3,0.2l-0.5,0.2l-0.5,0.2l-0.7,0.2l-0.9,0.1
					l-0.9,0.1c-0.1,0-0.9,0.1-1.3,0.1c-0.6,0-1.2,0-1.8-0.1c-0.4-0.1-0.9-0.2-1.3-0.2c-0.5-0.1-0.9-0.2-1.4-0.4
					c-0.3-0.1-0.5-0.3-0.7-0.5c-0.2-0.2-0.3-0.4-0.5-0.6v0.7v0.7c0,0.3,0.2,0.6,0.4,0.8c0.9,0.6,1.9,1,3,1.1
					c0.7,0.1,1.5,0.2,2.2,0.2c1.1,0,2.1-0.1,3.2-0.4l0,0c0.6-0.1,1.1-0.3,1.6-0.6l0,0c0.1-0.1,0.2-0.2,0.4-0.2
					c0.2-0.1,0.3-0.3,0.4-0.5c0-0.1,0.1-0.2,0.1-0.3c0,0,0-1.2,0-1.2C45.3,41.5,45.4,41.4,45.4,41.3z"/>
			</g>
			<g>
				<path class="st0" d="M44.7,46.3c-0.4,0.2-0.8,0.4-1.2,0.5c-1.3,0.4-2.6,0.5-3.9,0.5c-0.6,0-1.3-0.1-1.9-0.2
					c-0.4-0.1-0.8-0.1-1.2-0.2l-0.6-0.2c-0.5-0.2-1.1-0.4-1.5-0.7c-0.2-0.1-0.3-0.3-0.4-0.4v0.5c0,0.1,0,0.8,0,0.8
					c0,0.3,0.2,0.6,0.4,0.8c0.9,0.6,1.9,1,3,1.1c0.7,0.1,1.5,0.2,2.2,0.2c1.1,0,2.1-0.1,3.2-0.4l0,0c0.6-0.1,1.1-0.3,1.6-0.6l0,0
					c0.5-0.3,0.8-0.7,0.8-1.1c0,0,0-1.2,0-1.2C45.1,45.9,44.9,46.1,44.7,46.3z"/>
			</g>
			<g>
				<path class="st0" d="M34.4,45.6c0.9,0.6,1.9,1,3,1.1c0.7,0.1,1.5,0.2,2.2,0.2c1.1,0,2.1-0.1,3.2-0.4l0,0
					c0.6-0.1,1.1-0.3,1.6-0.6l0,0c0.1-0.1,0.2-0.2,0.3-0.2c0.2-0.1,0.3-0.3,0.4-0.5c0-0.1,0.1-0.2,0.1-0.3c0,0,0-1.2,0-1.2
					c-0.2,0.2-0.7,1-2.9,1.4c-1,0.2-1.9,0.2-2.9,0.2c-1.5,0-3.1-0.3-4.5-0.9c-0.3-0.1-0.5-0.3-0.7-0.5c-0.1-0.1-0.2-0.3-0.3-0.4
					L34,44v0.8C34,45.1,34.2,45.5,34.4,45.6z"/>
			</g>
			<g>
				<path class="st0" d="M45.5,49.7c-0.2,0.3-0.4,0.5-0.7,0.7c-0.4,0.2-0.8,0.4-1.2,0.5c-1.3,0.4-2.6,0.5-3.9,0.5
					c-0.6,0-1.3-0.1-1.9-0.1c-0.4-0.1-0.8-0.1-1.2-0.2L36,50.8c-0.5-0.2-1.1-0.4-1.5-0.7c-0.2-0.1-0.3-0.3-0.4-0.5v0.5
					c0,0.1,0,0.8,0,0.8c0,0.3,0.2,0.6,0.4,0.8c0.9,0.6,1.9,1,3,1.1C38.2,53,39,53,39.7,53c1.1,0,2.1-0.1,3.2-0.4l0,0
					c0.6-0.1,1.1-0.4,1.7-0.7l0,0c0.5-0.3,0.8-0.7,0.8-1.1C45.4,50.9,45.5,49.8,45.5,49.7z"/>
			</g>
			<g>
				<path class="st0" d="M37.5,50.8C38.2,51,39,51,39.7,51c1.1,0,2.1-0.1,3.2-0.4l0,0c0.6-0.1,1.1-0.3,1.6-0.6l0,0
					c0.1-0.1,0.2-0.2,0.3-0.2c0.2-0.1,0.3-0.3,0.4-0.5c0-0.1,0.1-0.2,0.1-0.3c0,0,0-1.2,0-1.2c-0.2,0.2-0.7,1-2.9,1.4
					c-1,0.2-1.9,0.2-2.9,0.2c-1.6,0-3.1-0.3-4.5-0.9c-0.3-0.1-0.5-0.3-0.7-0.5c-0.1-0.1-0.2-0.3-0.3-0.4v0.6v0.8
					c0,0.3,0.2,0.6,0.4,0.8C35.3,50.4,36.4,50.8,37.5,50.8z"/>
			</g>
		</g>
		<g>
			<path class="st0" d="M46.7,62.2l-7.2,5.7c-0.1,0.1-0.2,0.1-0.3,0.1c-0.2,0-0.2-0.1-0.2-0.4v-2.9H20c-0.1,0-0.3-0.1-0.2-0.3
				c0,0,0,0,0,0v-5c0-0.1,0.1-0.3,0.2-0.3c0,0,0,0,0,0h18.9v-2.8c0-0.2,0-0.3,0.2-0.4c0.1,0,0.2,0,0.3,0.1l7.2,5.5
				c0.1,0.1,0.2,0.2,0.2,0.4C46.8,62,46.8,62.1,46.7,62.2z"/>
		</g>
	</g>
</g>
</svg>
