<?xml version="1.0" encoding="utf-8"?>
<!-- Generator: Adobe Illustrator 22.0.1, SVG Export Plug-In . SVG Version: 6.00 Build 0)  -->
<svg version="1.1" id="Layer_1" xmlns="http://www.w3.org/2000/svg" xmlns:xlink="http://www.w3.org/1999/xlink" x="0px" y="0px"
	 viewBox="0 0 101.5 157.1" style="enable-background:new 0 0 101.5 157.1;" xml:space="preserve">
<style type="text/css">
	.st0{fill:#FFFFFF;}
	.st1{fill:#E5243B;}
	.st2{enable-background:new    ;}
</style>
<title>TARGET 1 B</title>
<g id="WHITE_BG">
	<g>
		<rect y="0" class="st0" width="101.5" height="157.1"/>
	</g>
</g>
<g id="TARGETS">
	<g>
		<g>
			<path class="st1" d="M9.4,125.7c0.5,0,1,0.1,1.5,0.3v0.9c-0.5-0.2-0.9-0.3-1.4-0.3c-1.2,0-1.7,0.8-1.7,2.4s0.5,2.4,1.7,2.4
				c0.5,0,1-0.1,1.4-0.3v0.9c-0.5,0.2-1,0.3-1.5,0.3c-1.9,0-2.6-1.2-2.6-3.3S7.5,125.7,9.4,125.7z"/>
		</g>
		<g>
			<path class="st1" d="M12.8,132.2h-1v-6.4h2.1c1.6,0,2.2,0.7,2.2,1.9c0.1,0.7-0.3,1.4-1,1.7l1.3,2.8h-1.1l-1.2-2.6h-1.3V132.2z
				 M12.8,128.7H14c0.9,0,1-0.5,1-1s-0.1-1-1-1h-1.2V128.7z"/>
		</g>
		<g>
			<path class="st1" d="M20.6,129.3h-2.6v2h2.9v0.9H17v-6.4h3.9v0.9h-2.9v1.8h2.6V129.3z"/>
		</g>
		<g>
			<path class="st1" d="M24.8,130.6h-2l-0.5,1.6h-1l2-6.4h1l2,6.4h-1L24.8,130.6z M23.8,127l-0.8,2.8h1.6L23.8,127z"/>
		</g>
		<g>
			<path class="st1" d="M28.3,126.7v5.5h-1v-5.5h-1.7v-0.9H30v0.9H28.3z"/>
		</g>
		<g>
			<path class="st1" d="M34.2,129.3h-2.7v2h2.9v0.9h-3.9v-6.4h3.9v0.9h-2.9v1.8h2.7V129.3z"/>
		</g>
		<g>
			<path class="st1" d="M37.7,132.2h-1v-6.4h2c1.6,0,2.2,1,2.2,2c0,1-0.6,2-2.2,2h-1V132.2z M37.7,128.9h1.1c0.6,0.1,1.2-0.4,1.2-1
				s-0.4-1.2-1-1.2c-0.1,0-0.1,0-0.2,0h-1.1V128.9z"/>
		</g>
		<g>
			<path class="st1" d="M42.5,132.2h-1v-6.4h2.1c1.7,0,2.2,0.7,2.2,1.9c0.1,0.7-0.3,1.4-1,1.7l1.3,2.8H45l-1.2-2.6h-1.3V132.2z
				 M42.5,128.7h1.3c0.9,0,1-0.5,1-1s-0.1-1-1-1h-1.3V128.7z"/>
		</g>
		<g>
			<path class="st1" d="M46.5,129c0-1.8,0.4-3.3,2.5-3.3s2.5,1.5,2.5,3.3s-0.4,3.3-2.4,3.3S46.5,130.8,46.5,129z M47.5,129
				c0,1.5,0.3,2.4,1.5,2.4s1.5-0.9,1.5-2.4s-0.3-2.4-1.5-2.4S47.5,127.5,47.5,129L47.5,129z"/>
		</g>
		<g>
			<path class="st1" d="M54,129.4h-2.2v-0.9H54V129.4z"/>
		</g>
		<g>
			<path class="st1" d="M55.6,132.2h-1v-6.4h2c1.6,0,2.2,1,2.2,2c0,1-0.6,2-2.2,2h-1V132.2z M55.6,128.9h1.1c0.6,0.1,1.2-0.4,1.2-1
				s-0.4-1.2-1-1.2c-0.1,0-0.1,0-0.2,0h-1.1V128.9z"/>
		</g>
		<g>
			<path class="st1" d="M59.2,129c0-1.8,0.4-3.3,2.5-3.3s2.4,1.5,2.4,3.3s-0.4,3.3-2.5,3.3S59.2,130.8,59.2,129z M60.2,129
				c0,1.5,0.3,2.4,1.5,2.4s1.5-0.9,1.5-2.4s-0.3-2.4-1.5-2.4S60.2,127.5,60.2,129L60.2,129z"/>
		</g>
		<g>
			<path class="st1" d="M64.8,129c0-1.8,0.4-3.3,2.4-3.3s2.5,1.5,2.5,3.3s-0.4,3.3-2.5,3.3S64.8,130.8,64.8,129z M65.8,129
				c0,1.5,0.3,2.4,1.5,2.4s1.5-0.9,1.5-2.4s-0.3-2.4-1.5-2.4S65.8,127.5,65.8,129L65.8,129z"/>
		</g>
		<g>
			<path class="st1" d="M71.4,132.2h-1v-6.4h2.1c1.7,0,2.2,0.7,2.2,1.9c0.1,0.7-0.3,1.4-1,1.7l1.3,2.8h-1.1l-1.2-2.6h-1.3V132.2z
				 M71.4,128.7h1.3c0.9,0,1-0.5,1-1s-0.1-1-1-1h-1.3V128.7z"/>
		</g>
		<g>
			<path class="st1" d="M80.2,130.6h-2l-0.4,1.6h-1l2-6.4h1l2,6.4h-1L80.2,130.6z M79.2,127l-0.8,2.8H80L79.2,127z"/>
		</g>
		<g>
			<path class="st1" d="M85.9,132.2l-2.8-4.5v4.5h-0.9v-6.4h0.9l2.8,4.5v-4.5h1v6.4H85.9z"/>
		</g>
		<g>
			<path class="st1" d="M87.8,132.2v-6.4h1.9c2.1,0,2.7,1.4,2.7,3.2s-0.6,3.2-2.7,3.2L87.8,132.2z M88.7,131.3h1
				c1.3,0,1.7-0.9,1.7-2.3s-0.4-2.3-1.7-2.3h-1V131.3z"/>
		</g>
		<g>
			<path class="st1" d="M6.8,138c0-2,0.7-3.3,2.6-3.3c0.6,0,1.3,0.1,1.8,0.3v1c-0.5-0.2-1.1-0.4-1.7-0.4c-1.3,0-1.8,0.9-1.8,2.4
				s0.5,2.4,1.8,2.4c0.3,0,0.6,0,0.9-0.1v-1.7H9.3v-0.9h2.1v3.2c-0.6,0.3-1.3,0.4-2,0.4C7.5,141.3,6.8,140,6.8,138z"/>
		</g>
		<g>
			<path class="st1" d="M15.9,138.3h-2.6v2h2.9v0.9h-3.9v-6.4h3.9v0.9h-2.9v1.8h2.7L15.9,138.3z"/>
		</g>
		<g>
			<path class="st1" d="M20.7,141.2l-2.7-4.5v4.5h-1v-6.4h0.9l2.8,4.5v-4.5h0.9v6.4H20.7z"/>
		</g>
		<g>
			<path class="st1" d="M22.4,141.2v-6.4h1.9c2.1,0,2.7,1.4,2.7,3.2s-0.6,3.2-2.7,3.2H22.4z M23.4,140.3h1c1.3,0,1.7-0.9,1.7-2.3
				s-0.4-2.3-1.7-2.3h-1V140.3z"/>
		</g>
		<g>
			<path class="st1" d="M31.4,138.3h-2.6v2h2.9v0.9h-3.9v-6.4h3.9v0.9h-2.9v1.8h2.6V138.3z"/>
		</g>
		<g>
			<path class="st1" d="M33.4,141.2h-1v-6.4h2.1c1.7,0,2.2,0.7,2.2,1.9c0.1,0.7-0.3,1.4-1,1.7l1.3,2.8h-1.1l-1.2-2.6h-1.3V141.2z
				 M33.4,137.7h1.3c0.9,0,1-0.5,1-1s-0.1-1-1-1h-1.3V137.7z"/>
		</g>
		<g>
			<path class="st1" d="M39.4,138.4h-2.2v-0.9h2.2V138.4z"/>
		</g>
		<g>
			<path class="st1" d="M44.2,139.3c0,1.2-0.7,2-2.4,2c-0.6,0-1.3-0.1-1.9-0.4V140c0.6,0.3,1.2,0.4,1.8,0.4c1.2,0,1.5-0.5,1.5-1.1
				s-0.3-0.9-1.2-1c-1.6-0.2-2.2-0.6-2.2-1.8c0-0.9,0.5-1.8,2.3-1.8c0.6,0,1.2,0.1,1.7,0.3v1c-0.5-0.2-1.1-0.3-1.7-0.3
				c-1,0-1.3,0.4-1.3,1s0.4,0.8,1.2,0.9C43.4,137.7,44.2,138,44.2,139.3z"/>
		</g>
		<g>
			<path class="st1" d="M48.5,138.3h-2.7v2h2.9v0.9h-3.9v-6.4h3.9v0.9h-2.9v1.8h2.7V138.3z"/>
		</g>
		<g>
			<path class="st1" d="M53.2,141.2l-2.8-4.5v4.5h-0.9v-6.4h0.9l2.8,4.5v-4.5h1v6.4H53.2z"/>
		</g>
		<g>
			<path class="st1" d="M59.1,139.3c0,1.2-0.7,2-2.4,2c-0.6,0-1.3-0.1-1.9-0.4V140c0.6,0.3,1.2,0.4,1.8,0.4c1.2,0,1.5-0.5,1.5-1.1
				s-0.3-0.9-1.2-1c-1.5-0.2-2.2-0.6-2.2-1.8c0-0.9,0.5-1.8,2.3-1.8c0.6,0,1.2,0.1,1.7,0.3v1c-0.5-0.2-1.1-0.3-1.7-0.3
				c-1,0-1.3,0.4-1.3,1s0.4,0.8,1.2,0.9C58.3,137.7,59.1,138,59.1,139.3z"/>
		</g>
		<g>
			<path class="st1" d="M59.9,141.2v-6.4h1v6.4H59.9z"/>
		</g>
		<g>
			<path class="st1" d="M64.3,135.7v5.5h-1v-5.5h-1.6v-0.9h4.3v0.9H64.3z"/>
		</g>
		<g>
			<path class="st1" d="M66.7,141.2v-6.4h1v6.4H66.7z"/>
		</g>
		<g>
			<path class="st1" d="M73.4,134.8l-2,6.4h-1l-2-6.4h1l1.5,5.2l1.5-5.2L73.4,134.8z"/>
		</g>
		<g>
			<path class="st1" d="M77.5,138.3h-2.7v2h2.9v0.9h-3.9v-6.4h3.9v0.9h-2.9v1.8h2.7V138.3z"/>
		</g>
		<g>
			<path class="st1" d="M7.8,150.2h-1v-6.4h2.1c1.6,0,2.2,0.9,2.2,2s-0.6,2-2.2,2H7.8V150.2z M7.8,146.9H9c0.6,0.1,1.2-0.4,1.2-1
				c0.1-0.6-0.4-1.2-1-1.2c-0.1,0-0.1,0-0.2,0H7.8V146.9z"/>
		</g>
		<g>
			<path class="st1" d="M11.5,147c0-1.8,0.4-3.3,2.5-3.3s2.4,1.5,2.4,3.3s-0.4,3.3-2.4,3.3S11.5,148.8,11.5,147z M12.5,147
				c0,1.5,0.3,2.4,1.5,2.4s1.5-0.9,1.5-2.4s-0.3-2.4-1.5-2.4S12.5,145.5,12.5,147L12.5,147z"/>
		</g>
		<g>
			<path class="st1" d="M18.1,149.3h2.8v0.9h-3.7v-6.4h1L18.1,149.3z"/>
		</g>
		<g>
			<path class="st1" d="M21.5,150.2v-6.4h1v6.4H21.5z"/>
		</g>
		<g>
			<path class="st1" d="M26.1,143.7c0.5,0,1,0.1,1.5,0.3v0.9c-0.5-0.2-0.9-0.3-1.4-0.3c-1.2,0-1.7,0.8-1.7,2.4s0.5,2.4,1.7,2.4
				c0.5,0,1-0.1,1.4-0.3v0.9c-0.5,0.2-1,0.3-1.5,0.3c-1.9,0-2.6-1.2-2.6-3.3S24.2,143.7,26.1,143.7z"/>
		</g>
		<g>
			<path class="st1" d="M30.9,147.6v2.6H30v-2.6l-2.2-3.8h1.1l1.6,3l1.6-3h1.1L30.9,147.6z"/>
		</g>
		<g>
			<path class="st1" d="M38.5,147.4h-2.6v2.8h-1v-6.4h3.8v0.9h-2.8v1.8h2.6L38.5,147.4z"/>
		</g>
		<g>
			<path class="st1" d="M40.4,150.2h-1v-6.4h2.1c1.7,0,2.2,0.7,2.2,1.9c0.1,0.7-0.3,1.4-1,1.7l1.3,2.8h-1.1l-1.2-2.6h-1.3V150.2z
				 M40.4,146.7h1.3c0.9,0,1-0.5,1-1s-0.1-1-1-1h-1.3V146.7z"/>
		</g>
		<g>
			<path class="st1" d="M47.7,148.6h-2l-0.5,1.6h-1l2-6.4h1l2,6.4h-1L47.7,148.6z M46.7,145l-0.8,2.8h1.6L46.7,145z"/>
		</g>
		<g>
			<path class="st1" d="M53.2,149.3h-0.9l-1.6-3.9v4.8h-1v-6.4H51l1.7,4.3l1.7-4.3h1.2v6.4h-1l0-4.8L53.2,149.3z"/>
		</g>
		<g>
			<path class="st1" d="M60.2,147.3h-2.7v2h2.9v0.9h-3.9v-6.4h3.9v0.9h-2.9v1.8h2.7V147.3z"/>
		</g>
		<g>
			<path class="st1" d="M63.8,143.8H65l1.1,5l0.8-5h1l-1.2,6.4h-1.1l-1.2-5.3l-1.2,5.3h-1.2l-1.2-6.4h1l0.8,5L63.8,143.8z"/>
		</g>
		<g>
			<path class="st1" d="M68.3,147c0-1.8,0.4-3.3,2.4-3.3s2.5,1.5,2.5,3.3s-0.4,3.3-2.5,3.3S68.3,148.8,68.3,147z M69.3,147
				c0,1.5,0.3,2.4,1.5,2.4s1.5-0.9,1.5-2.4s-0.3-2.4-1.5-2.4S69.3,145.5,69.3,147L69.3,147z"/>
		</g>
		<g>
			<path class="st1" d="M74.9,150.2H74v-6.4h2c1.7,0,2.2,0.7,2.2,1.9c0.1,0.7-0.3,1.4-1,1.7l1.3,2.8h-1.1l-1.2-2.6h-1.3V150.2z
				 M74.9,146.7h1.3c0.9,0,1-0.5,1-1s-0.1-1-1-1h-1.3V146.7z"/>
		</g>
		<g>
			<path class="st1" d="M80.6,147.4l-0.5,0.6v2.2h-1v-6.4h1v3l2.3-3h1.2l-2.3,2.8l2.6,3.6h-1.2L80.6,147.4z"/>
		</g>
		<g>
			<path class="st1" d="M88.4,148.3c0,1.2-0.7,2-2.4,2c-0.6,0-1.3-0.1-1.9-0.4V149c0.6,0.3,1.2,0.4,1.8,0.4c1.1,0,1.5-0.5,1.5-1.1
				s-0.3-0.9-1.2-1c-1.6-0.2-2.2-0.6-2.2-1.8c0-0.9,0.5-1.8,2.3-1.8c0.6,0,1.2,0.1,1.7,0.3v1c-0.5-0.2-1.1-0.3-1.7-0.3
				c-1,0-1.3,0.4-1.3,1s0.4,0.8,1.2,0.9C87.6,146.7,88.4,147,88.4,148.3z"/>
		</g>
	</g>
	<g>
		<rect x="3.3" y="24" class="st1" width="94.8" height="94.8"/>
	</g>
	<g>
		<path class="st1" d="M98.2,20.7H3.3V3.3h94.8V20.7z M4.3,19.7h92.8V4.3H4.3L4.3,19.7z"/>
	</g>
	<g>
		<path class="st1" d="M98.2,153.8H3.3v-31.6h94.8V153.8z M4.3,152.8h92.8v-29.6H4.3L4.3,152.8z"/>
	</g>
	<g class="st2">
		<path class="st1" d="M6.7,6.9h4.5v1.4H9.9v8.8H8.1V8.3H6.7V6.9z"/>
	</g>
	<g class="st2">
		<path class="st1" d="M11.2,17.1l1.9-10.2h1.9L17,17.1h-1.8l-0.3-1.9h-1.8l-0.3,1.9H11.2z M13.3,13.9h1.4L14,9.8h0L13.3,13.9z"/>
	</g>
	<g class="st2">
		<path class="st1" d="M19.6,12.4v4.7h-1.7V6.9h2.5c1.7,0,2.4,0.9,2.4,2.3v1.3c0,1.1-0.4,1.7-1.4,2l1.6,4.6h-1.8L19.6,12.4z
			 M19.6,8.3v3.2h0.6c0.6,0,0.8-0.3,0.8-0.8V9.2c0-0.6-0.3-0.8-0.8-0.8H19.6z"/>
	</g>
	<g class="st2">
		<path class="st1" d="M26.4,11.7h2.4v5.4h-1.2V16c-0.2,0.8-0.7,1.2-1.6,1.2c-1.5,0-2.1-1.2-2.1-2.7V9.6c0-1.6,0.8-2.7,2.6-2.7
			c1.9,0,2.4,1.1,2.4,2.6v0.9h-1.6v-1c0-0.6-0.2-1-0.9-1c-0.6,0-0.9,0.4-0.9,1v5.5c0,0.6,0.3,1,0.8,1c0.6,0,0.8-0.3,0.8-1V13h-0.8
			V11.7z"/>
	</g>
	<g class="st2">
		<path class="st1" d="M30.2,6.9h4.1v1.4h-2.4v2.9h1.7v1.4h-1.7v3.1h2.4v1.4h-4.1V6.9z"/>
	</g>
	<g class="st2">
		<path class="st1" d="M35.1,6.9h4.5v1.4h-1.4v8.8h-1.7V8.3h-1.4V6.9z"/>
	</g>
	<g class="st2">
		<path class="st1" d="M89.4,6.9h2.5c1.7,0,2.3,0.8,2.3,2.2v1c0,0.9-0.3,1.4-1,1.6c0.9,0.2,1.3,0.8,1.3,1.7v1.3
			c0,1.4-0.6,2.2-2.4,2.2h-2.7V6.9z M91.1,11.2h0.6c0.6,0,0.8-0.3,0.8-0.8V9.2c0-0.6-0.3-0.8-0.8-0.8h-0.6V11.2z M91.1,12.5v3.2h0.8
			c0.6,0,0.8-0.3,0.8-0.8v-1.5c0-0.5-0.3-0.8-0.9-0.8H91.1z"/>
	</g>
	<g class="st2">
		<path class="st1" d="M82.9,6.9v10.2h-1.7V9.3h0L80,10.5h0V8.8l1.6-1.8H82.9z"/>
	</g>
	<g>
		<polygon class="st1" points="85.4,9.9 85.4,14.1 87.6,12 		"/>
	</g>
	<g>
		<g>
			<polygon class="st0" points="30.7,47 27.8,47 27.8,102.7 67.7,102.7 67.7,99.3 30.7,99.3 			"/>
		</g>
		<g>
			<path class="st0" d="M33.8,40.2v55.7h39.9V40.2H33.8z M62.3,50.2c0.9,0,1.7,0.8,1.7,1.7s-0.8,1.7-1.7,1.7c-0.9,0-1.7-0.8-1.7-1.7
				C60.7,51,61.4,50.3,62.3,50.2L62.3,50.2z M57.5,60.4l1.4-4.6c0,0,0.5-1.3,1.6-1.3h3.6c1.1,0,1.6,1.3,1.6,1.3l1.4,4.6
				c0,0,0.2,0.8-0.5,1.1s-0.9-0.6-0.9-0.6L64.6,57c0,0-0.1-0.3-0.3-0.2s-0.1,0.4-0.1,0.4l2,7.2h-1.9v5.2c-0.1,0.5-0.5,0.8-1,0.8
				c-0.4,0-0.7-0.4-0.8-0.8v-5.1h-0.5v5.2c-0.1,0.5-0.5,0.8-1,0.8c-0.4,0-0.7-0.4-0.8-0.8v-5.2h-1.8l2-7.2c0,0,0.1-0.3-0.1-0.4
				S60,57,60,57l-1.1,3.8c0,0-0.2,0.8-0.9,0.6S57.5,60.4,57.5,60.4z M53.9,58.6c0.8,0,1.4,0.6,1.4,1.4s-0.6,1.4-1.4,1.4
				s-1.4-0.6-1.4-1.4c0,0,0,0,0,0C52.5,59.2,53.1,58.6,53.9,58.6z M51.2,60.5c0.2,0,0.3,0.1,0.4,0.2c0,0,0.7,1.2,0.9,1.4
				c0.1,0.1,0.3,0.2,0.4,0.2h1.7c0.2,0,0.3-0.1,0.4-0.2c0.3-0.4,0.6-0.9,0.9-1.4c0.1-0.3,0.5-0.4,0.7-0.2c0.2,0.1,0.3,0.4,0.2,0.6
				c0,0,0,0,0,0c0,0.1-0.1,0.2-0.1,0.2l-1.3,2.4c0,0.1-0.1,0.2-0.1,0.3v0.4l0,0v0.1c0,0.1,0,0.2,0.1,0.4l0.7,2.7h-0.8v2
				c0,0.4-0.4,0.7-0.8,0.6c-0.3,0-0.6-0.3-0.6-0.6v-1.9c0,0,0-0.1,0-0.1h-0.4c0,0,0,0.1,0,0.1v1.9c0,0.4-0.3,0.7-0.7,0.7
				s-0.7-0.3-0.7-0.7l0,0v-2h-0.8l0.7-2.7c0-0.1,0.1-0.3,0.1-0.4l0,0v-0.4c0-0.1,0-0.2-0.1-0.3l-1.4-2.6c0-0.1,0-0.1,0-0.2
				C50.7,60.7,50.9,60.5,51.2,60.5z M45.8,49.5c1,0,1.8,0.8,1.8,1.8c0,1-0.8,1.8-1.8,1.8c-1,0-1.8-0.8-1.8-1.8
				C44,50.3,44.8,49.5,45.8,49.5L45.8,49.5z M41.5,61v-4.9c0-1.2,0.9-2.2,2.2-2.4h4.2c1.2,0.1,2.1,1.1,2.1,2.4V61
				c0,0.4-0.3,0.7-0.7,0.7c-0.4,0-0.7-0.3-0.7-0.7v-4.2c0-0.2,0-0.4-0.3-0.4S48,56.6,48,56.7v12.7c0,0.6-0.4,1-1,1s-1-0.4-1-1v-7.3
				c0-0.1-0.1-0.3-0.2-0.3c0,0,0,0,0,0l0,0c-0.2,0-0.3,0.1-0.3,0.3c0,0,0,0,0,0v7.3c0,0.6-0.4,1-1,1s-1-0.4-1-1V56.7
				c0-0.1,0-0.3-0.2-0.3s-0.3,0.2-0.3,0.4V61c0,0.3-0.3,0.6-0.6,0.7L40.8,70c0,0.1-0.1,0.2-0.3,0.2l0,0c-0.1,0-0.2-0.2-0.2-0.3
				c0,0,0,0,0,0l1.6-8.3C41.7,61.4,41.6,61.2,41.5,61z M67.7,88.8L67.7,88.8c0,0.1-0.1,0.1-0.1,0.1H39.9c-0.1,0-0.1-0.1-0.2-0.1
				v-4.4c0-0.1,0.1-0.1,0.2-0.1h27.7c0.1,0,0.1,0,0.1,0.1l0,0L67.7,88.8z M67.7,81L67.7,81c0,0.1-0.1,0.1-0.1,0.1H39.9
				c-0.1,0-0.1-0.1-0.2-0.1v-4.4c0-0.1,0.1-0.1,0.2-0.1h27.7c0.1,0,0.1,0.1,0.1,0.1l0,0L67.7,81z"/>
		</g>
	</g>
</g>
</svg>
