<?xml version="1.0" encoding="utf-8"?>
<!-- Generator: Adobe Illustrator 22.0.1, SVG Export Plug-In . SVG Version: 6.00 Build 0)  -->
<svg version="1.1" id="Layer_1" xmlns="http://www.w3.org/2000/svg" xmlns:xlink="http://www.w3.org/1999/xlink" x="0px" y="0px"
	 viewBox="0 0 101.5 148.1" style="enable-background:new 0 0 101.5 148.1;" xml:space="preserve">
<style type="text/css">
	.st0{fill:#FFFFFF;}
	.st1{fill:#E5243B;}
	.st2{enable-background:new    ;}
</style>
<title>TARGET 1.2</title>
<g id="WHITE_BG">
	<g>
		<rect y="0" class="st0" width="101.5" height="148.1"/>
	</g>
</g>
<g id="TARGETS">
	<g>
		<g>
			<path class="st1" d="M7.8,132.2h-1v-6.4H9c1.6,0,2.2,0.7,2.2,1.9c0.1,0.7-0.3,1.4-1,1.7l1.3,2.8h-1.2l-1.1-2.6H7.8V132.2z
				 M7.8,128.7h1.3c0.9,0,1-0.5,1-1s-0.1-1-1-1H7.8V128.7z"/>
		</g>
		<g>
			<path class="st1" d="M15.6,129.3h-2.7v2h2.9v0.9H12v-6.4h3.9v0.9h-3v1.8h2.6L15.6,129.3z"/>
		</g>
		<g>
			<path class="st1" d="M16.5,132.2v-6.4h1.9c2.1,0,2.7,1.4,2.7,3.2s-0.6,3.2-2.7,3.2H16.5z M17.5,131.3h1c1.3,0,1.7-0.9,1.7-2.3
				s-0.4-2.3-1.7-2.3h-1V131.3z"/>
		</g>
		<g>
			<path class="st1" d="M21.8,130.2v-4.4h1v4.3c-0.1,0.6,0.4,1.2,1,1.3c0.1,0,0.2,0,0.3,0c0.6,0.1,1.3-0.3,1.4-1c0-0.1,0-0.2,0-0.3
				v-4.3h1v4.4c0,1.1-0.8,2.1-2,2.1c-0.1,0-0.2,0-0.3,0c-1.1,0.2-2.2-0.5-2.4-1.7C21.8,130.5,21.8,130.4,21.8,130.2z"/>
		</g>
		<g>
			<path class="st1" d="M29.8,125.7c0.5,0,1,0.1,1.5,0.3v0.9c-0.5-0.2-0.9-0.3-1.4-0.3c-1.2,0-1.7,0.8-1.7,2.4
				c0,1.6,0.5,2.4,1.7,2.4c0.5,0,1-0.1,1.4-0.3v0.9c-0.5,0.2-1,0.3-1.5,0.3c-1.9,0-2.6-1.2-2.6-3.3S27.9,125.7,29.8,125.7z"/>
		</g>
		<g>
			<path class="st1" d="M35.6,129.3H33v2h2.9v0.9H32v-6.4h3.9v0.9H33v1.8h2.6V129.3z"/>
		</g>
		<g>
			<path class="st1" d="M39,132.2h-1v-6.4h2c1.7,0,2.2,1,2.2,2c0,1-0.6,2-2.2,2h-1V132.2z M39,129h1.1c0.6,0,1.1-0.5,1.1-1.1
				c0-0.6-0.5-1.1-1.1-1.1c0,0,0,0,0,0H39V129z"/>
		</g>
		<g>
			<path class="st1" d="M42.7,129c0-1.8,0.4-3.3,2.5-3.3s2.5,1.5,2.5,3.3s-0.4,3.3-2.5,3.3S42.7,130.8,42.7,129z M43.7,129
				c0,1.5,0.3,2.4,1.5,2.4s1.5-0.9,1.5-2.4s-0.3-2.4-1.5-2.4S43.7,127.5,43.7,129L43.7,129z"/>
		</g>
		<g>
			<path class="st1" d="M52.9,125.8l-2,6.5h-1l-2-6.5h1l1.5,5.2l1.5-5.2L52.9,125.8z"/>
		</g>
		<g>
			<path class="st1" d="M57,129.3h-2.6v2h2.9v0.9h-3.9v-6.4h3.9v0.9h-2.9v1.8H57V129.3z"/>
		</g>
		<g>
			<path class="st1" d="M59,132.2h-1v-6.4h2.1c1.7,0,2.2,0.7,2.2,1.9c0.1,0.7-0.3,1.4-1,1.7l1.3,2.8h-1.2l-1.2-2.6H59V132.2z
				 M59,128.7h1.3c0.9,0,1-0.5,1-1s-0.1-1-1-1H59V128.7z"/>
		</g>
		<g>
			<path class="st1" d="M65.1,126.7v5.5h-1v-5.5h-1.6v-0.9h4.3v0.9L65.1,126.7z"/>
		</g>
		<g>
			<path class="st1" d="M70.1,129.6v2.6h-1v-2.6l-2.2-3.8H68l1.6,3l1.6-3h1.1L70.1,129.6z"/>
		</g>
		<g>
			<path class="st1" d="M74.1,125.8h2.1c1.6,0,2,0.8,2,1.8c0,0.5-0.3,1-0.8,1.3c0.6,0.2,1.1,0.8,1,1.5c0,1-0.5,1.9-2.2,1.9h-2.2
				V125.8z M76.2,126.7H75v1.8h1.2c0.8,0,0.9-0.5,0.9-0.9S77.1,126.7,76.2,126.7z M75,131.3h1.3c0.9,0,1.1-0.5,1.1-1s-0.3-1-1.1-1
				H75V131.3z"/>
		</g>
		<g>
			<path class="st1" d="M81.8,129.6v2.6h-1v-2.6l-2.2-3.8h1.1l1.6,3l1.6-3H84L81.8,129.6z"/>
		</g>
		<g>
			<path class="st1" d="M10.1,139.6h-2l-0.4,1.6h-1l2-6.4h1l2,6.4h-1L10.1,139.6z M9.1,136l-0.8,2.8h1.6L9.1,136z"/>
		</g>
		<g>
			<path class="st1" d="M13.6,135.7v5.5h-1v-5.5H11v-0.9h4.3v0.9H13.6z"/>
		</g>
		<g>
			<path class="st1" d="M18,140.3h2.8v0.9h-3.7v-6.4h1L18,140.3z"/>
		</g>
		<g>
			<path class="st1" d="M24.9,138.3h-2.6v2h2.9v0.9h-3.9v-6.4h3.9v0.9h-2.9v1.8h2.6V138.3z"/>
		</g>
		<g>
			<path class="st1" d="M29.1,139.6h-2l-0.5,1.6h-1l2-6.4h1l2,6.4h-1L29.1,139.6z M28.1,136l-0.8,2.8h1.6L28.1,136z"/>
		</g>
		<g>
			<path class="st1" d="M35.1,139.3c0,1.2-0.7,2-2.4,2c-0.6,0-1.3-0.1-1.9-0.4v-1c0.6,0.3,1.2,0.4,1.8,0.4c1.1,0,1.5-0.5,1.5-1.1
				s-0.3-0.9-1.2-1c-1.6-0.2-2.2-0.6-2.2-1.8c0-0.9,0.5-1.9,2.3-1.9c0.6,0,1.2,0.1,1.7,0.3v1c-0.5-0.2-1.1-0.3-1.7-0.3
				c-1,0-1.3,0.4-1.3,1s0.4,0.8,1.2,0.9C34.3,137.7,35.1,138,35.1,139.3z"/>
		</g>
		<g>
			<path class="st1" d="M37.9,135.7v5.5h-1v-5.5h-1.6v-0.9h4.3v0.9H37.9z"/>
		</g>
		<g>
			<path class="st1" d="M41.2,141v-0.9c0.5,0.2,1,0.3,1.6,0.3c0.7,0,1.5-0.2,1.5-1.2s-0.6-1-1.3-1h-1.5v-3.4h3.7v0.9h-2.7v1.7
				c0.1,0,0.6,0,0.7,0c1.1,0,2.1,0.2,2.1,1.9c0,1.9-1.3,2.1-2.4,2.1C42.3,141.3,41.7,141.2,41.2,141z"/>
		</g>
		<g>
			<path class="st1" d="M48,134.7c1.8,0,2,1.1,2,3.3s-0.3,3.3-2,3.3s-2.1-1.1-2.1-3.3S46.2,134.7,48,134.7z M48,135.6
				c-1,0-1.1,0.8-1.1,2.4s0.1,2.4,1.1,2.4s1.1-0.8,1.1-2.4S49,135.6,48,135.6L48,135.6z"/>
		</g>
		<g>
			<path class="st1" d="M52.2,138.1c-1.1,0-1.5-0.6-1.5-1.7s0.5-1.7,1.5-1.7s1.5,0.6,1.5,1.7S53.2,138.1,52.2,138.1z M52.2,137.3
				c0.5,0,0.7-0.2,0.7-0.9s-0.2-0.9-0.7-0.9s-0.7,0.2-0.7,0.9S51.7,137.3,52.2,137.3z M51.6,141.2l4.5-6.4H57l-4.5,6.4H51.6z
				 M56.3,141.3c-1,0-1.5-0.6-1.5-1.7s0.5-1.6,1.5-1.6s1.5,0.5,1.5,1.7S57.4,141.3,56.3,141.3L56.3,141.3z M56.3,140.5
				c0.5,0,0.7-0.2,0.7-0.9s-0.2-0.9-0.7-0.9s-0.7,0.2-0.7,0.9S55.9,140.5,56.3,140.5L56.3,140.5z"/>
		</g>
	</g>
	<g>
		<rect x="3.3" y="24" class="st1" width="94.8" height="94.8"/>
	</g>
	<g>
		<path class="st1" d="M98.2,20.7H3.3V3.3h94.8V20.7z M4.3,19.7h92.8V4.3H4.3L4.3,19.7z"/>
	</g>
	<g>
		<path class="st1" d="M98.2,144.8H3.3v-22.6h94.8V144.8z M4.3,143.8h92.8v-20.6H4.3L4.3,143.8z"/>
	</g>
	<g class="st2">
		<path class="st1" d="M6.7,6.9h4.5v1.4H9.9v8.8H8.1V8.3H6.7V6.9z"/>
	</g>
	<g class="st2">
		<path class="st1" d="M11.2,17.1l1.9-10.2h1.9L17,17.1h-1.8l-0.3-1.9h-1.8l-0.3,1.9H11.2z M13.3,13.9h1.4L14,9.8h0L13.3,13.9z"/>
	</g>
	<g class="st2">
		<path class="st1" d="M19.6,12.4v4.7h-1.7V6.9h2.5c1.7,0,2.4,0.9,2.4,2.3v1.3c0,1.1-0.4,1.7-1.4,2l1.6,4.6h-1.8L19.6,12.4z
			 M19.6,8.3v3.2h0.6c0.6,0,0.8-0.3,0.8-0.8V9.2c0-0.6-0.3-0.8-0.8-0.8H19.6z"/>
	</g>
	<g class="st2">
		<path class="st1" d="M26.4,11.7h2.4v5.4h-1.2V16c-0.2,0.8-0.7,1.2-1.6,1.2c-1.5,0-2.1-1.2-2.1-2.7V9.6c0-1.6,0.8-2.7,2.6-2.7
			c1.9,0,2.4,1.1,2.4,2.6v0.9h-1.6v-1c0-0.6-0.2-1-0.9-1c-0.6,0-0.9,0.4-0.9,1v5.5c0,0.6,0.3,1,0.8,1c0.6,0,0.8-0.3,0.8-1V13h-0.8
			V11.7z"/>
	</g>
	<g class="st2">
		<path class="st1" d="M30.2,6.9h4.1v1.4h-2.4v2.9h1.7v1.4h-1.7v3.1h2.4v1.4h-4.1V6.9z"/>
	</g>
	<g class="st2">
		<path class="st1" d="M35.1,6.9h4.5v1.4h-1.4v8.8h-1.7V8.3h-1.4V6.9z"/>
	</g>
	<g class="st2">
		<path class="st1" d="M84,6.9v10.2h-1.7V9.3h0L81,10.6h0V8.8l1.6-1.8H84z"/>
	</g>
	<g class="st2">
	</g>
	<g class="st2">
		<path class="st1" d="M87.1,10.8c0.7,0,1.2,0.6,1.2,1.2c0,0.7-0.6,1.2-1.2,1.2c-0.7,0-1.2-0.6-1.2-1.2
			C85.8,11.4,86.4,10.8,87.1,10.8z"/>
	</g>
	<g class="st2">
		<path class="st1" d="M89.8,15.2c0-1,0.3-1.7,1.3-2.7l1-1c0.6-0.6,0.6-0.9,0.6-1.8V9c0-0.6-0.3-0.8-0.6-0.8c-0.4,0-0.7,0.2-0.7,0.8
			v1.3h-1.6V9c0-1.4,0.8-2.2,2.3-2.2c1.5,0,2.2,0.7,2.2,2.1v1c0,1-0.2,1.6-1.1,2.6l-1.1,1.2c-0.4,0.5-0.7,0.8-0.7,1.6v0.5h2.8v1.4
			h-4.4V15.2z"/>
	</g>
	<g>
		<g>
			<g>
				<path class="st0" d="M73,56.3c-0.4,0.3-0.9,0.5-1.4,0.6c-1.4,0.4-2.8,0.6-4.3,0.5c-0.7,0-1.4-0.1-2.1-0.2
					c-0.4-0.1-0.8-0.1-1.3-0.2l-0.6-0.2c-0.6-0.2-1.2-0.5-1.7-0.8c-0.2-0.1-0.3-0.3-0.5-0.5v0.6c0,0.2,0,0.8,0,0.8
					c0,0.4,0.2,0.7,0.5,0.9c1,0.7,2.1,1.1,3.3,1.2c0.8,0.1,1.6,0.2,2.4,0.2c1.2,0,2.3-0.1,3.5-0.4l0,0c0.6-0.1,1.2-0.4,1.8-0.7l0,0
					c0.6-0.3,0.9-0.8,0.9-1.2c0,0,0.1-1.3,0-1.4C73.5,55.8,73.3,56.1,73,56.3z"/>
			</g>
			<g>
				<path class="st0" d="M66.9,52c3.4,0,6.2-1,6.2-2.3c0,0,0.1-1.2,0.1-1.4c0-0.2,0-0.3-0.1-0.5c0.4-0.2,0.6-0.6,0.7-1
					c0,0,0.1-1.3,0-1.6c-0.2-1.6-3.3-2.4-6.3-2.4s-6.3,0.9-6.3,2.5c0,0.1,0.1,1.4,0.1,1.4c0,0.1,0,0.2,0.1,0.3
					c-0.5,0.3-0.7,0.7-0.8,1.3c0,0.1,0.1,1.4,0.1,1.4c0,0.4,0.2,0.7,0.5,0.9c1,0.7,2.1,1.1,3.3,1.2C65.3,52,66.1,52.1,66.9,52z
					 M67.5,43.4c3.3,0,5.6,1,5.6,1.9s-2.3,1.9-5.6,1.9s-5.6-1-5.6-1.9S64.2,43.4,67.5,43.4z M61.3,48.3c0-0.3,0.2-0.6,0.5-0.7
					c0.2,0.2,0.4,0.3,0.6,0.5c1.6,0.7,3.4,1.1,5.2,1c1.5,0,3-0.2,4.5-0.7c0.2-0.1,0.4-0.2,0.5-0.2c0,0,0,0.1,0,0.2
					c0,0.9-2.3,1.9-5.6,1.9S61.3,49.2,61.3,48.3z"/>
			</g>
			<g>
				<path class="st0" d="M65,56.8c0.8,0.1,1.6,0.2,2.4,0.2c1.2,0,2.4-0.1,3.6-0.4l0,0c0.6-0.1,1.2-0.4,1.8-0.7l0,0
					c0.1-0.1,0.3-0.2,0.4-0.3c0.2-0.2,0.4-0.4,0.5-0.6c0-0.1,0.1-0.2,0.1-0.3c0,0,0-1.3,0-1.4c-0.2,0.3-0.8,1.1-3.2,1.6
					c-1.1,0.2-2.1,0.3-3.2,0.3c-1.7,0-3.4-0.3-5-1c-0.3-0.1-0.5-0.3-0.8-0.5c-0.1-0.1-0.3-0.3-0.4-0.5c0,0,0,0.6,0,0.6v0.9
					c0,0.4,0.2,0.7,0.5,0.9C62.6,56.3,63.8,56.7,65,56.8z"/>
			</g>
			<g>
				<path class="st0" d="M73.6,50.5l-0.2-0.1l-0.3-0.1c-0.1,0.1-0.2,0.3-0.3,0.4c0.1,0,0.2,0.1,0.2,0.1c0.2,0.1,0.3,0.3,0.3,0.5
					c0,0.2-0.1,0.3-0.2,0.4c-0.1,0.1-0.2,0.1-0.2,0.2c-0.1,0.1-0.2,0.1-0.4,0.2c0,0-0.4,0.2-0.5,0.2s-0.4,0.1-0.6,0.2l-0.7,0.2
					c-0.1,0-0.7,0.1-1,0.2l-1,0.1c-0.1,0-1,0.1-1.4,0.1c-0.7,0-1.3,0-2-0.1c-0.5-0.1-1-0.2-1.4-0.3c-0.5-0.1-1-0.3-1.5-0.5
					c-0.3-0.1-0.5-0.3-0.8-0.5c-0.2-0.2-0.4-0.4-0.5-0.7c0,0,0,0.8,0,0.8v0.8c0,0.4,0.2,0.7,0.5,0.9c1,0.7,2.1,1.1,3.3,1.2
					c0.8,0.1,1.6,0.2,2.4,0.2c1.2,0,2.4-0.1,3.6-0.4l0,0c0.6-0.2,1.2-0.4,1.8-0.7l0,0c0.1-0.1,0.3-0.2,0.4-0.3
					c0.2-0.2,0.4-0.4,0.5-0.6c0-0.1,0.1-0.2,0.1-0.3c0,0,0-1.3,0-1.3c0-0.1,0-0.2,0-0.3C73.7,50.7,73.7,50.6,73.6,50.5z"/>
			</g>
			<g>
				<path class="st0" d="M81.2,47.5c3.4,0,6.2-1,6.2-2.3c0,0,0.1-1.2,0-1.4c0-0.2,0-0.3-0.1-0.5c0.4-0.2,0.6-0.6,0.7-1
					c0,0,0-1.3,0-1.6c-0.2-1.6-3.3-2.4-6.3-2.4s-6.3,0.9-6.3,2.5c0,0.1,0.1,1.4,0.1,1.4c0,0.1,0,0.2,0.1,0.3
					c-0.4,0.3-0.6,0.7-0.7,1.2c0,0.1,0.1,1.4,0.1,1.4c0,0.4,0.2,0.7,0.5,0.9c1,0.7,2.1,1.1,3.3,1.2C79.7,47.5,80.4,47.5,81.2,47.5z
					 M81.9,38.9c3.3,0,5.6,1,5.6,1.9s-2.3,1.9-5.6,1.9s-5.6-1-5.6-1.9S78.6,38.9,81.9,38.9z M75.6,43.8c0-0.3,0.2-0.6,0.5-0.7
					c0.2,0.2,0.4,0.3,0.6,0.5c1.6,0.7,3.4,1.1,5.2,1c1.5,0,3-0.2,4.4-0.7c0.2-0.1,0.4-0.2,0.5-0.2c0,0,0,0.1,0,0.2
					c0,0.9-2.3,1.9-5.6,1.9S75.6,44.7,75.6,43.8z"/>
			</g>
			<g>
				<path class="st0" d="M88.1,46.3c0-0.1-0.1-0.2-0.1-0.3c0-0.1-0.1-0.1-0.2-0.1l-0.2-0.1c-0.1,0.1-0.2,0.3-0.3,0.4
					c0.1,0,0.2,0.1,0.2,0.1c0.2,0.1,0.3,0.3,0.3,0.5c0,0.2-0.1,0.3-0.2,0.4c-0.1,0.1-0.2,0.1-0.2,0.2L87,47.5c0,0-0.4,0.2-0.6,0.2
					s-0.4,0.1-0.6,0.2l-0.8,0.2c0,0-0.7,0.1-0.9,0.2l-1,0.1c-0.1,0-1,0.1-1.4,0.1c-0.7,0-1.3,0-2-0.1c-0.5-0.1-1-0.2-1.4-0.3
					c-0.5-0.1-1-0.3-1.5-0.5c-0.3-0.1-0.5-0.3-0.8-0.5c-0.2-0.2-0.4-0.4-0.5-0.7c0,0,0,0.8,0,0.8v0.8c0,0.4,0.2,0.7,0.5,0.9
					c1,0.7,2.1,1.1,3.3,1.2c0.8,0.1,1.6,0.2,2.4,0.2c1.2,0,2.3-0.1,3.5-0.4l0,0c0.6-0.1,1.2-0.4,1.8-0.7l0,0
					c0.1-0.1,0.3-0.2,0.4-0.3c0.2-0.2,0.4-0.4,0.5-0.6c0-0.1,0.1-0.2,0.1-0.3c0,0,0.1-1.3,0.1-1.3C88.1,46.5,88.1,46.4,88.1,46.3z"
					/>
			</g>
			<g>
				<path class="st0" d="M87.4,51.8C87,52,86.5,52.2,86,52.4c-1.4,0.4-2.8,0.6-4.2,0.5c-0.7,0-1.4-0.1-2.1-0.2
					c-0.4-0.1-0.9-0.1-1.3-0.2c-0.2,0-0.4-0.1-0.6-0.2c-0.6-0.2-1.2-0.4-1.7-0.8c-0.2-0.1-0.3-0.3-0.5-0.5v0.6c0,0.2,0,0.8,0,0.8
					c0,0.4,0.2,0.7,0.5,0.9c1,0.7,2.1,1.1,3.3,1.2c0.8,0.1,1.6,0.2,2.4,0.2c1.2,0,2.3-0.1,3.5-0.4l0,0c0.6-0.1,1.2-0.4,1.8-0.7l0,0
					c0.6-0.3,0.9-0.8,0.9-1.2c0,0,0-1.3,0-1.4C87.9,51.3,87.6,51.6,87.4,51.8z"/>
			</g>
			<g>
				<path class="st0" d="M76.1,51.1c1,0.7,2.1,1.1,3.3,1.2c0.8,0.1,1.6,0.2,2.4,0.2c1.2,0,2.3-0.1,3.5-0.4l0,0
					c0.6-0.1,1.2-0.4,1.8-0.7l0,0c0.1-0.1,0.3-0.2,0.4-0.3c0.2-0.2,0.4-0.4,0.5-0.6c0-0.1,0.1-0.2,0.1-0.3c0,0,0-1.3,0-1.4
					c-0.2,0.3-0.7,1.1-3.2,1.6c-1.1,0.2-2.1,0.3-3.2,0.3c-1.7,0-3.4-0.3-5-1c-0.3-0.1-0.5-0.3-0.8-0.5c-0.1-0.1-0.3-0.3-0.4-0.5
					c0,0,0,0.6,0,0.6v0.9C75.5,50.6,75.8,50.9,76.1,51.1z"/>
			</g>
			<g>
				<path class="st0" d="M88.2,55.5c-0.2,0.3-0.5,0.5-0.8,0.7c-0.4,0.3-0.9,0.5-1.4,0.6c-1.4,0.4-2.8,0.6-4.3,0.5
					c-0.7,0-1.4-0.1-2.1-0.2c-0.4,0-0.9-0.1-1.3-0.2l-0.6-0.2c-0.6-0.2-1.2-0.4-1.7-0.8c-0.2-0.1-0.3-0.3-0.5-0.5v0.6
					c0,0.2,0,0.8,0,0.8c0,0.4,0.2,0.7,0.5,0.9c1,0.7,2.2,1.1,3.3,1.2c0.8,0.1,1.6,0.2,2.4,0.2c1.2,0,2.3-0.1,3.5-0.4l0,0
					c0.6-0.1,1.2-0.4,1.8-0.7l0,0c0.6-0.3,0.9-0.8,0.9-1.2C88.1,56.9,88.2,55.6,88.2,55.5z"/>
			</g>
			<g>
				<path class="st0" d="M79.4,56.8c0.8,0.1,1.6,0.2,2.4,0.2c1.2,0,2.3-0.1,3.5-0.4l0,0c0.6-0.1,1.2-0.4,1.8-0.7l0,0l0.4-0.3
					c0.2-0.2,0.4-0.4,0.5-0.6c0-0.1,0.1-0.2,0.1-0.3c0,0,0-1.3,0-1.4c-0.2,0.3-0.7,1.1-3.2,1.6c-1,0.2-2.1,0.3-3.2,0.3
					c-1.7,0-3.4-0.3-5-1c-0.3-0.1-0.5-0.3-0.8-0.5c-0.1-0.1-0.3-0.3-0.4-0.5c0,0,0,0.6,0,0.6v0.9c0,0.3,0.2,0.7,0.5,0.9
					C77,56.3,78.2,56.7,79.4,56.8z"/>
			</g>
		</g>
		<g>
			<g>
				<path class="st0" d="M21,55.5c3.4,0,6.2-1,6.2-2.3c0,0,0.1-1.2,0-1.4c0-0.2,0-0.3-0.1-0.5c0.4-0.2,0.6-0.6,0.7-1
					c0,0,0.1-1.3,0-1.6c-0.2-1.6-3.3-2.4-6.3-2.4s-6.3,0.9-6.3,2.5c0,0.1,0.1,1.4,0.1,1.4c0,0.1,0,0.2,0.1,0.3
					c-0.5,0.3-0.8,0.7-0.8,1.3c0,0.1,0.1,1.4,0.1,1.4c0,0.4,0.2,0.7,0.5,0.9c1,0.7,2.1,1.1,3.3,1.2C19.4,55.5,20.2,55.6,21,55.5z
					 M21.6,46.9c3.3,0,5.6,1,5.6,1.9s-2.3,1.9-5.6,1.9s-5.7-1-5.7-1.9S18.3,46.9,21.6,46.9L21.6,46.9z M15.4,51.8
					c0-0.2,0.2-0.5,0.5-0.7c0.2,0.2,0.4,0.3,0.6,0.5c1.6,0.7,3.4,1.1,5.2,1c1.5,0,3-0.2,4.4-0.7c0.2-0.1,0.4-0.2,0.5-0.2
					c0,0,0,0.1,0,0.2c0,0.9-2.3,1.9-5.6,1.9S15.4,52.7,15.4,51.8L15.4,51.8z"/>
			</g>
			<g>
				<path class="st0" d="M27.7,54c0-0.1-0.1-0.1-0.2-0.1l-0.2-0.1c-0.1,0.1-0.2,0.3-0.3,0.4c0.1,0,0.2,0.1,0.2,0.1
					c0.2,0.1,0.3,0.3,0.3,0.5c0,0.2-0.1,0.3-0.2,0.4c-0.1,0.1-0.2,0.1-0.2,0.2l-0.4,0.2c0,0-0.4,0.2-0.5,0.2s-0.4,0.1-0.5,0.2
					l-0.8,0.2c0,0-0.6,0.1-1,0.2l-1,0.1c-0.1,0-1,0.1-1.4,0.1c-0.7,0-1.3,0-2-0.1c-0.5-0.1-1-0.2-1.4-0.3c-0.5-0.1-1-0.3-1.5-0.5
					c-0.3-0.1-0.5-0.3-0.7-0.5c-0.2-0.2-0.4-0.4-0.5-0.7c0,0,0,0.8,0,0.8v0.8c0,0.4,0.2,0.7,0.5,0.9c1,0.7,2.1,1.1,3.3,1.2
					c0.8,0.1,1.6,0.2,2.4,0.2c1.2,0,2.3-0.1,3.5-0.4l0,0c0.7-0.1,1.3-0.4,1.9-0.7l0,0c0.1-0.1,0.3-0.2,0.4-0.3
					c0.2-0.2,0.4-0.4,0.5-0.6c0-0.1,0.1-0.2,0.1-0.3c0,0,0.1-1.3,0.1-1.4c0-0.1,0-0.2,0-0.3C27.9,54.2,27.8,54.1,27.7,54z"/>
			</g>
		</g>
		<g>
			<g>
				<path class="st0" d="M83.8,78.7c1.4,0,2.6-1.2,2.6-2.6c0-1.4-1.2-2.6-2.6-2.6c-1.4,0-2.6,1.2-2.6,2.6c0,0,0,0,0,0
					C81.2,77.6,82.4,78.7,83.8,78.7z"/>
			</g>
			<g>
				<path class="st0" d="M91.1,89L89,82c0,0-0.8-2-2.5-2h-5.5c-1.7,0-2.5,2-2.5,2l-2.1,7c0,0-0.4,1.3,0.7,1.6s1.4-0.9,1.4-0.9
					l1.7-5.8c0,0,0.1-0.4,0.4-0.3s0.2,0.6,0.2,0.6l-3,10.9h2.8v7.8c0.1,0.7,0.7,1.3,1.5,1.2c0.7-0.1,1.2-0.6,1.2-1.2v-7.8h0.8v7.8
					c0,0.7,0.6,1.3,1.3,1.3c0.7,0,1.3-0.6,1.3-1.3v-7.8h2.8l-3-10.9c0,0-0.1-0.5,0.2-0.6s0.4,0.3,0.4,0.3l1.7,5.8
					c0,0,0.3,1.2,1.4,0.9S91.1,89,91.1,89z"/>
			</g>
			<g>
				<path class="st0" d="M59,77.7c1.5,0,2.7-1.2,2.7-2.7c0-1.5-1.2-2.7-2.7-2.7s-2.7,1.2-2.7,2.7l0,0C56.3,76.5,57.5,77.7,59,77.7z"
					/>
			</g>
			<g>
				<path class="st0" d="M62.2,78.8H62h-5.9h-0.2c-1.9,0.2-3.3,1.7-3.3,3.6v7.5c0,0.3,0.2,0.6,0.4,0.8l-2.4,12.6
					c-0.1,0.2,0.1,0.4,0.3,0.5c0,0,0,0,0,0H51c0.2,0,0.4-0.1,0.4-0.3l2.4-12.6c0.5-0.1,0.9-0.5,0.9-1v-6.4c0-0.2,0.1-0.6,0.5-0.6
					s0.4,0.3,0.4,0.5v19.2c0,0.8,0.7,1.5,1.5,1.5s1.5-0.7,1.5-1.5V91.5c0-0.2,0.2-0.4,0.4-0.4c0,0,0,0,0,0l0,0
					c0.2,0,0.4,0.2,0.4,0.4c0,0,0,0,0,0.1v11.1c-0.1,0.8,0.5,1.6,1.3,1.7s1.6-0.5,1.7-1.3c0-0.1,0-0.2,0-0.3V83.4
					c0-0.2,0.1-0.5,0.4-0.5s0.5,0.3,0.5,0.6v6.4c0,0.6,0.5,1,1,1c0.6,0,1-0.5,1-1v-7.5C65.4,80.5,64,79,62.2,78.8z"/>
			</g>
			<g>
				<path class="st0" d="M75.4,89.1c-0.4-0.2-0.9,0-1.1,0.4c-0.4,0.7-0.9,1.4-1.4,2.1c-0.2,0.2-0.4,0.3-0.7,0.3h-2.6
					c-0.3,0-0.5-0.1-0.7-0.3c-0.3-0.3-1.3-2.1-1.4-2.2c-0.1-0.2-0.4-0.4-0.7-0.4c-0.4,0-0.8,0.4-0.8,0.8l0,0c0,0.1,0,0.2,0.1,0.3
					l2.2,3.9c0.1,0.2,0.1,0.3,0.1,0.5v0.6l0,0c0,0.2,0,0.4-0.1,0.7l-1,4.1h1.2v3.1l0,0c0.1,0.6,0.6,1,1.2,1c0.5,0,0.9-0.5,1-1v-2.9
					c0,0,0-0.1,0-0.1h0.6v3.1c0.1,0.6,0.6,1,1.2,1c0.5,0,0.9-0.5,1-1v-3h1.2l-1.1-4.1c-0.1-0.2-0.1-0.4-0.1-0.5v-0.1l0,0v-0.6
					c0-0.2,0.1-0.4,0.1-0.5l2-3.6l0.2-0.4C75.9,89.7,75.8,89.3,75.4,89.1C75.4,89.1,75.4,89.1,75.4,89.1z"/>
			</g>
			<g>
				<path class="st0" d="M70.9,90.5c1.2,0,2.2-1,2.2-2.2s-1-2.2-2.2-2.2s-2.2,1-2.2,2.2S69.7,90.5,70.9,90.5L70.9,90.5z"/>
			</g>
			<g>
				<g>
					<path class="st0" d="M17.3,77.6l3.6-3.6c-0.1-0.2-0.2-0.3-0.3-0.5l-3.8,3.8C16.9,77.4,17.1,77.5,17.3,77.6z"/>
				</g>
				<g>
					<path class="st0" d="M16.4,76.9l3.8-3.8c-0.2-0.1-0.3-0.2-0.5-0.3l-3.6,3.6C16.2,76.5,16.3,76.7,16.4,76.9z"/>
				</g>
				<g>
					<path class="st0" d="M20.9,76.3l-1.2,1.3C20.2,77.3,20.6,76.9,20.9,76.3z"/>
				</g>
				<g>
					<path class="st0" d="M19.1,72.5c-0.2,0-0.4-0.1-0.6-0.1h-0.1L15.8,75c0,0,0,0.1,0,0.1c0,0.2,0,0.4,0.1,0.6L19.1,72.5z"/>
				</g>
				<g>
					<path class="st0" d="M18.5,77.9h0.1l2.6-2.6c0,0,0-0.1,0-0.1c0-0.2,0-0.4-0.1-0.6l-3.2,3.2C18,77.8,18.3,77.9,18.5,77.9z"/>
				</g>
				<g>
					<path class="st0" d="M16.1,74l1.2-1.2C16.8,73,16.3,73.5,16.1,74z"/>
				</g>
				<g>
					<polygon class="st0" points="10.7,100.1 11.7,99.1 11.9,98.1 10.9,99.1 					"/>
				</g>
				<g>
					<polygon class="st0" points="10.3,102.1 11.4,101 11.5,100 10.5,101.1 					"/>
				</g>
				<g>
					<polygon class="st0" points="15,100.5 18,97.5 18,96.7 15,99.7 					"/>
				</g>
				<g>
					<path class="st0" d="M10.1,103.4c0,0.1,0,0.3,0.1,0.4c0.1,0.1,0.1,0.1,0.2,0.1h0.1c0.2,0,0.4-0.1,0.4-0.3L11,103l0.2-1l-1,1
						L10.1,103.4z"/>
				</g>
				<g>
					<polygon class="st0" points="11.1,98.1 12.1,97.1 12.3,96.1 11.3,97.1 					"/>
				</g>
				<g>
					<polygon class="st0" points="11.4,96.2 12.5,95.1 12.6,94.2 11.6,95.2 					"/>
				</g>
				<g>
					<polygon class="st0" points="18.9,96.7 21.9,93.7 21.9,92.9 18.9,95.9 					"/>
				</g>
				<g>
					<polygon class="st0" points="22.8,89.6 24.9,87.5 24.9,86.7 22.8,88.8 					"/>
				</g>
				<g>
					<path class="st0" d="M23.2,90.8l1.7-1.7v-0.8l-2,2C22.9,90.5,23.1,90.7,23.2,90.8z"/>
				</g>
				<g>
					<polygon class="st0" points="22.8,88 24.9,85.9 24.9,85.1 22.8,87.2 					"/>
				</g>
				<g>
					<polygon class="st0" points="18.9,98.3 21.9,95.3 21.9,94.5 18.9,97.5 					"/>
				</g>
				<g>
					<path class="st0" d="M16.2,104.2l1.8-1.9v-0.8l-2.4,2.4C15.8,104.1,16,104.2,16.2,104.2z"/>
				</g>
				<g>
					<polygon class="st0" points="15,102.1 18,99.1 18,98.3 15,101.3 					"/>
				</g>
				<g>
					<path class="st0" d="M15.2,103.5l2.8-2.8v-0.8l-3,3C15,103.1,15.1,103.3,15.2,103.5z"/>
				</g>
				<g>
					<polygon class="st0" points="18.9,101.5 21.9,98.5 21.9,97.7 18.9,100.7 					"/>
				</g>
				<g>
					<polygon class="st0" points="18.9,99.9 21.9,96.9 21.9,96.1 18.9,99.1 					"/>
				</g>
				<g>
					<path class="st0" d="M15,87.8l8.3-8.3c-0.2-0.1-0.3-0.2-0.5-0.3L15,87V87.8z"/>
				</g>
				<g>
					<polygon class="st0" points="18.9,93.5 21.9,90.5 21.9,89.7 18.9,92.7 					"/>
				</g>
				<g>
					<path class="st0" d="M18.9,102.8c0,0.1,0,0.2,0,0.3l3-3v-0.8l-3,3V102.8z"/>
				</g>
				<g>
					<path class="st0" d="M20.4,104.3c0.2,0,0.4-0.1,0.6-0.2c0.3-0.1,0.5-0.4,0.7-0.7c0.1-0.2,0.2-0.4,0.2-0.7v-0.3l-1.8,1.8
						C20.2,104.3,20.3,104.3,20.4,104.3z"/>
				</g>
				<g>
					<polygon class="st0" points="15,94.2 21.9,87.3 21.9,86.5 15,93.4 					"/>
				</g>
				<g>
					<polygon class="st0" points="15,95.7 18,92.7 18,91.9 15,94.9 					"/>
				</g>
				<g>
					<path class="st0" d="M18.9,91.7v0.2l3-3v-0.8l-3.2,3.2C18.8,91.4,18.9,91.5,18.9,91.7z"/>
				</g>
				<g>
					<polygon class="st0" points="15,92.6 21.9,85.7 21.9,84.9 15,91.8 					"/>
				</g>
				<g>
					<polygon class="st0" points="11.8,94.2 12.8,93.2 13,92.2 12,93.2 					"/>
				</g>
				<g>
					<path class="st0" d="M18,103.2l-1,1C17.5,104.1,17.9,103.7,18,103.2z"/>
				</g>
				<g>
					<polygon class="st0" points="16.7,78.9 12.1,83.6 12.1,83.8 12.1,84.4 17.5,78.9 					"/>
				</g>
				<g>
					<path class="st0" d="M12.6,80.7l1.3-1.3C13.3,79.7,12.9,80.2,12.6,80.7z"/>
				</g>
				<g>
					<path class="st0" d="M15,91l6.9-6.9v-0.6c0-0.1,0-0.2,0-0.2L15,90.2V91z"/>
				</g>
				<g>
					<path class="st0" d="M19.6,104l2.3-2.3v-0.8l-2.7,2.7C19.3,103.8,19.4,103.9,19.6,104z"/>
				</g>
				<g>
					<path class="st0" d="M15.5,78.9h-0.2h-0.2l-3,3c0,0.2,0,0.4,0,0.6v0.3l3.9-3.8H15.5z"/>
				</g>
				<g>
					<polygon class="st0" points="15,97.3 18,94.3 18,93.5 15,96.5 					"/>
				</g>
				<g>
					<polygon class="st0" points="12.1,87.6 14.1,85.5 14.1,84.7 12.1,86.8 					"/>
				</g>
				<g>
					<path class="st0" d="M18.5,78.9h-0.1l-6.3,6.3V86l2.1-2.1v-0.3c0-0.2,0.1-0.6,0.5-0.6c0.1,0,0.2,0.1,0.3,0.1l4.2-4.2L18.5,78.9
						z"/>
				</g>
				<g>
					<polygon class="st0" points="15,84.6 20.7,78.9 19.9,78.9 15,83.8 					"/>
				</g>
				<g>
					<path class="st0" d="M12.2,92.2l1-1V91c0.1,0,0.2,0,0.3-0.1c0.2-0.1,0.4-0.3,0.5-0.5c0.1-0.1,0.1-0.3,0.1-0.4v-0.5l-1.8,1.8
						L12.2,92.2z"/>
				</g>
				<g>
					<path class="st0" d="M15,86.2l7.2-7.2c-0.2-0.1-0.4-0.1-0.6-0.1h-0.1L15,85.4V86.2z"/>
				</g>
				<g>
					<polygon class="st0" points="12.1,89.2 14.1,87.1 14.1,86.3 12.1,88.4 					"/>
				</g>
				<g>
					<path class="st0" d="M12.1,90c0,0.2,0.1,0.4,0.2,0.6l1.9-1.9v-0.8L12.1,90z"/>
				</g>
				<g>
					<path class="st0" d="M24.8,82l-2,2v0.8l2.1-2.1v-0.2C24.9,82.3,24.9,82.2,24.8,82z"/>
				</g>
				<g>
					<polygon class="st0" points="22.8,86.4 24.9,84.3 24.9,83.8 24.9,83.5 22.8,85.6 					"/>
				</g>
				<g>
					<polygon class="st0" points="15,98.9 18,95.9 18,95.1 15,98.1 					"/>
				</g>
				<g>
					<polygon class="st0" points="18.9,95.1 21.9,92.1 21.9,91.3 18.9,94.3 					"/>
				</g>
				<g>
					<path class="st0" d="M24.4,80.8L22.2,83h0.1c0.2,0,0.4,0.1,0.5,0.3l1.9-1.9C24.6,81.2,24.5,81,24.4,80.8z"/>
				</g>
				<g>
					<path class="st0" d="M23.8,91c0.6,0,1-0.4,1-0.9c0,0,0,0,0-0.1v-0.1L23.8,91L23.8,91z"/>
				</g>
				<g>
					<path class="st0" d="M15,89.4l9.1-9.1c-0.1-0.1-0.2-0.3-0.4-0.4L15,88.6V89.4z"/>
				</g>
			</g>
			<g>
				<g>
					<path class="st0" d="M26.4,89.1c-0.1,0-0.2,0-0.3,0.1c-0.2,0.1-0.4,0.3-0.5,0.5c0,0.1,0,0.2,0,0.3c0,0.1,0,0.2,0.1,0.3l0.1,0.1
						l1.1-1.1C26.8,89.2,26.6,89.1,26.4,89.1z"/>
				</g>
				<g>
					<path class="st0" d="M28,94.5l2.5-2.5h-0.8l-2,2l0.1,0.2C27.9,94.3,28,94.4,28,94.5z"/>
				</g>
				<g>
					<path class="st0" d="M27.2,89.7l-1.2,1.2l0.3,0.5l1.2-1.2L27.2,89.7z"/>
				</g>
				<g>
					<path class="st0" d="M28.1,91.2l-0.3-0.5l-1.2,1.2l0.3,0.5L28.1,91.2z"/>
				</g>
				<g>
					<path class="st0" d="M28.5,91.7l-1.3,1.3l0.3,0.5L29,92C28.8,91.9,28.7,91.8,28.5,91.7L28.5,91.7z"/>
				</g>
				<g>
					<path class="st0" d="M28,100.1v0.8l5-5c0-0.2-0.1-0.3-0.1-0.5v-0.1l0,0v-0.1L28,100.1z"/>
				</g>
				<g>
					<path class="st0" d="M31.1,104l1.8-1.8v-0.8l-2.1,2.1C30.9,103.7,31,103.9,31.1,104z"/>
				</g>
				<g>
					<path class="st0" d="M28,103.2L28,103.2c0,0.2,0.1,0.4,0.2,0.5l2-2v-0.8L28,103.2L28,103.2z"/>
				</g>
				<g>
					<path class="st0" d="M31.9,104.2c0.6,0,1.1-0.5,1.1-1.1V103l-1.2,1.2C31.7,104.2,31.8,104.2,31.9,104.2z"/>
				</g>
				<g>
					<path class="st0" d="M31.8,92h-0.4L28,95.3c0,0.2,0,0.4-0.1,0.7l-0.1,0.3l7.1-7.1l0,0c-0.4-0.2-0.9,0-1.1,0.4
						c-0.4,0.7-0.9,1.4-1.4,2.1C32.3,91.9,32,92,31.8,92z"/>
				</g>
				<g>
					<polygon class="st0" points="33.2,96.6 28,101.7 28,102.3 30.2,100.1 30.2,100.1 33.3,97 					"/>
				</g>
				<g>
					<polygon class="st0" points="33.8,98.9 30.8,101.9 30.8,102.7 32.9,100.6 32.9,100.1 33.4,100.1 34.1,100.1 33.9,99.6 					"/>
				</g>
				<g>
					<path class="st0" d="M35.3,89.6l-7.7,7.7l-0.3,1.1l7.7-7.7l0.1-0.2c0,0,0.1-0.3,0.2-0.4C35.4,90,35.4,89.8,35.3,89.6z"/>
				</g>
				<g>
					<polygon class="st0" points="30.8,101.1 33.6,98.3 33.5,97.6 30.8,100.3 					"/>
				</g>
				<g>
					<path class="st0" d="M33.1,94.2l0.9-1.6l-7,6.9l-0.2,0.6h0.4l5.8-5.8L33.1,94.2z"/>
				</g>
				<g>
					<path class="st0" d="M30.3,90.6l2.3-2.3c0-0.2-0.1-0.4-0.1-0.7l-2.8,2.8C29.9,90.6,30.1,90.6,30.3,90.6z"/>
				</g>
				<g>
					<path class="st0" d="M29.2,90.2l3-3c-0.1-0.2-0.2-0.3-0.4-0.4l-3,3C28.9,89.9,29,90.1,29.2,90.2z"/>
				</g>
				<g>
					<path class="st0" d="M32.5,89.3l-1.2,1.2C31.8,90.3,32.3,89.8,32.5,89.3z"/>
				</g>
				<g>
					<path class="st0" d="M28.5,87.7l1.2-1.2C29.1,86.7,28.7,87.1,28.5,87.7z"/>
				</g>
				<g>
					<path class="st0" d="M31.3,86.5c-0.2-0.1-0.4-0.1-0.7-0.1l-2.3,2.3c0,0.2,0.1,0.4,0.1,0.7L31.3,86.5z"/>
				</g>
				<g>
					<path class="st0" d="M29.1,104.2c0.6,0,1-0.5,1.1-1.1v-0.6l-1.6,1.6C28.8,104.2,28.9,104.2,29.1,104.2z"/>
				</g>
			</g>
			<g>
				<g>
					<path class="st0" d="M41,77.4l3.5-3.4c-0.2-0.1-0.4-0.2-0.6-0.2l-3.1,3.1C40.8,77.1,40.9,77.3,41,77.4z"/>
				</g>
				<g>
					<path class="st0" d="M42.1,74c-0.4,0.2-0.8,0.6-1,1c-0.2,0.3-0.3,0.7-0.3,1.1l2.4-2.4C42.8,73.7,42.4,73.8,42.1,74z"/>
				</g>
				<g>
					<path class="st0" d="M45.8,76.6l-2.2,2.2C44.8,78.6,45.7,77.8,45.8,76.6z"/>
				</g>
				<g>
					<path class="st0" d="M41.8,78.3l3.6-3.6c-0.1-0.2-0.2-0.3-0.4-0.4l-3.6,3.6C41.5,78.1,41.6,78.2,41.8,78.3z"/>
				</g>
				<g>
					<path class="st0" d="M42.9,78.8l3-3c0-0.2-0.1-0.4-0.2-0.6l-3.4,3.4C42.5,78.7,42.7,78.8,42.9,78.8z"/>
				</g>
				<g>
					<polygon class="st0" points="39.7,84.4 36.4,87.7 36.1,88.8 39.3,85.5 					"/>
				</g>
				<g>
					<polygon class="st0" points="40.8,80.1 37.8,83 37.5,84.2 41.6,80.1 					"/>
				</g>
				<g>
					<path class="st0" d="M40.5,103.6l2.5-2.5v-0.8l-2.7,2.7C40.3,103.2,40.4,103.4,40.5,103.6z"/>
				</g>
				<g>
					<path class="st0" d="M50.7,89.3l-1.3,1.3c0.2,0.1,0.4,0.1,0.6,0C50.5,90.5,50.8,89.9,50.7,89.3z"/>
				</g>
				<g>
					<polygon class="st0" points="37.9,93.3 46.4,84.9 46.2,84.3 38.2,92.2 					"/>
				</g>
				<g>
					<path class="st0" d="M38.2,81.8l1.6-1.6C39.1,80.6,38.6,81.1,38.2,81.8z"/>
				</g>
				<g>
					<path class="st0" d="M46.3,103.3l-0.8,0.8C45.9,104,46.2,103.7,46.3,103.3z"/>
				</g>
				<g>
					<path class="st0" d="M42.9,103.4l-0.8,0.8C42.4,104,42.7,103.7,42.9,103.4z"/>
				</g>
				<g>
					<polygon class="st0" points="42.4,80.1 37.1,85.4 36.8,86.5 43.2,80.1 					"/>
				</g>
				<g>
					<polygon class="st0" points="43.7,96.3 43.7,97.1 48.4,92.4 48.3,91.8 					"/>
				</g>
				<g>
					<path class="st0" d="M38.5,91.1l9.7-9.7c-0.1-0.2-0.2-0.3-0.3-0.5l-9,9L38.5,91.1z"/>
				</g>
				<g>
					<polygon class="st0" points="43.7,100.3 46.4,97.6 46.4,96.8 43.7,99.5 					"/>
				</g>
				<g>
					<polygon class="st0" points="40.2,96.6 40.2,97.4 47.8,89.9 47.6,89.3 					"/>
				</g>
				<g>
					<polygon class="st0" points="40.2,95.8 47.4,88.6 47.2,88 40.2,95.1 40.2,95.1 					"/>
				</g>
				<g>
					<path class="st0" d="M39,86.7l-3.1,3.1c0,0.2,0.1,0.4,0.2,0.6l2.5-2.5L39,86.7z"/>
				</g>
				<g>
					<polygon class="st0" points="40.2,99 42.9,96.3 42.9,95.5 40.2,98.2 					"/>
				</g>
				<g>
					<polygon class="st0" points="40.2,102.2 42.9,99.5 42.9,98.7 40.2,101.4 					"/>
				</g>
				<g>
					<path class="st0" d="M41.4,104.2l1.5-1.5v-0.8l-2.1,2.1C41,104.1,41.2,104.2,41.4,104.2z"/>
				</g>
				<g>
					<polygon class="st0" points="40.2,100.6 42.9,97.9 42.9,97.1 40.2,99.8 					"/>
				</g>
				<g>
					<polygon class="st0" points="48,88 49.8,86.3 49.6,85.7 47.8,87.4 					"/>
				</g>
				<g>
					<path class="st0" d="M46.8,83.9l0.1,0.4l1.7-1.7l-0.2-0.5c0,0,0-0.1,0-0.1l-1.7,1.7C46.8,83.8,46.8,83.9,46.8,83.9z"/>
				</g>
				<g>
					<path class="st0" d="M40,85.6l-0.3,1.1l6.6-6.6c-0.1,0-0.2,0-0.3,0h-0.5L40,85.6z"/>
				</g>
				<g>
					<path class="st0" d="M44.7,104.1l1.7-1.7v-0.8l-2.2,2.2C44.3,104,44.5,104.1,44.7,104.1z"/>
				</g>
				<g>
					<path class="st0" d="M43.7,102.9c0,0.2,0,0.4,0.1,0.5l2.6-2.6V100l-2.7,2.7V102.9z"/>
				</g>
				<g>
					<polygon class="st0" points="48.6,93 46.6,95.1 47.4,95.1 48.8,93.6 					"/>
				</g>
				<g>
					<path class="st0" d="M39.1,88.9l8.3-8.3c-0.2-0.1-0.3-0.2-0.5-0.3l-7.5,7.5L39.1,88.9z"/>
				</g>
				<g>
					<polygon class="st0" points="43.7,98.7 46.4,96 46.4,95.2 43.7,97.9 					"/>
				</g>
				<g>
					<polygon class="st0" points="47.7,86.8 49.4,85 49.2,84.4 47.5,86.2 					"/>
				</g>
				<g>
					<polygon class="st0" points="43.7,95.5 48.1,91.1 47.9,90.5 43.4,95.1 43.7,95.1 					"/>
				</g>
				<g>
					<polygon class="st0" points="46.9,86.8 38.6,95.1 39.4,95.1 47.1,87.4 					"/>
				</g>
				<g>
					<path class="st0" d="M48.9,90.4l1.7-1.7l-0.2-0.6l-1.8,1.8C48.6,90.1,48.7,90.2,48.9,90.4z"/>
				</g>
				<g>
					<polygon class="st0" points="48.4,89.3 50.2,87.5 50,86.9 48.2,88.6 					"/>
				</g>
				<g>
					<polygon class="st0" points="43.7,101.9 46.4,99.2 46.4,98.4 43.7,101.1 					"/>
				</g>
				<g>
					<polygon class="st0" points="49,94.3 48.2,95.1 49,95.1 49.2,95.1 49.1,94.9 					"/>
				</g>
				<g>
					<path class="st0" d="M40.3,84.5l4.4-4.4H44l-3.6,3.6c0.1,0.1,0.1,0.3,0.1,0.5L40.3,84.5z"/>
				</g>
				<g>
					<polygon class="st0" points="47.3,85.6 49,83.8 48.8,83.2 47.1,84.9 					"/>
				</g>
				<g>
					<polygon class="st0" points="46.5,85.5 37.6,94.4 37.5,95.1 37.8,95.1 46.7,86.1 					"/>
				</g>
				<g>
					<path class="st0" d="M37.9,90.2c0.1-0.1,0.2-0.3,0.2-0.4l0.2-0.8l-1.7,1.7h0.1c0.3,0.1,0.6,0.1,0.8-0.1
						C37.6,90.5,37.8,90.3,37.9,90.2z"/>
				</g>
			</g>
		</g>
		<g>
			<path class="st0" d="M55.6,52l-7.2,5.7c-0.1,0.1-0.2,0.1-0.3,0.1c-0.2,0-0.2-0.1-0.2-0.4v-2.9H34.4c-0.1,0-0.3-0.1-0.2-0.3
				c0,0,0,0,0,0v-5c0-0.2,0.1-0.3,0.2-0.3h13.4v-2.9c0-0.2,0.1-0.3,0.2-0.3c0.1,0,0.2,0,0.3,0.1l7.2,5.5c0.1,0.1,0.2,0.2,0.2,0.4
				C55.7,51.8,55.7,51.9,55.6,52z"/>
		</g>
	</g>
</g>
</svg>
