<?xml version="1.0" encoding="utf-8"?>
<!-- Generator: Adobe Illustrator 22.0.1, SVG Export Plug-In . SVG Version: 6.00 Build 0)  -->
<svg version="1.1" id="Layer_1" xmlns="http://www.w3.org/2000/svg" xmlns:xlink="http://www.w3.org/1999/xlink" x="0px" y="0px"
	 viewBox="0 0 101.5 148.1" style="enable-background:new 0 0 101.5 148.1;" xml:space="preserve">
<style type="text/css">
	.st0{fill:#FFFFFF;}
	.st1{fill:#E5243B;}
	.st2{enable-background:new    ;}
</style>
<title>TARGET 1.3</title>
<g id="WHITE_BG">
	<g>
		<rect y="0" class="st0" width="101.5" height="148.1"/>
	</g>
</g>
<g id="TARGETS">
	<g>
		<g>
			<path class="st1" d="M7,132.2v-6.4h1v6.4H7z"/>
		</g>
		<g>
			<path class="st1" d="M12.5,131.3h-0.9l-1.6-3.9v4.8H9v-6.4h1.2l1.7,4.3l1.7-4.3H15v6.4h-1v-4.8L12.5,131.3z"/>
		</g>
		<g>
			<path class="st1" d="M17,132.2h-1v-6.4h2c1.6,0,2.2,1,2.2,2c0,1-0.6,2-2.2,2h-1V132.2z M17,129h1.1c0.6,0,1.1-0.5,1.1-1.1
				c0-0.6-0.5-1.1-1.1-1.1c0,0,0,0,0,0H17V129z"/>
		</g>
		<g>
			<path class="st1" d="M21.7,131.3h2.8v0.9h-3.7v-6.4h1L21.7,131.3z"/>
		</g>
		<g>
			<path class="st1" d="M28.6,129.3H26v2h2.9v0.9H25v-6.4h3.9v0.9H26v1.8h2.7L28.6,129.3z"/>
		</g>
		<g>
			<path class="st1" d="M33.1,131.3h-0.9l-1.6-3.9v4.8h-1v-6.4h1.2l1.7,4.3l1.7-4.3h1.2v6.4h-1v-4.8L33.1,131.3z"/>
		</g>
		<g>
			<path class="st1" d="M40.2,129.3h-2.6v2h2.9v0.9h-3.9v-6.4h3.9v0.9h-2.9v1.8h2.7L40.2,129.3z"/>
		</g>
		<g>
			<path class="st1" d="M44.8,132.2l-2.8-4.5v4.5h-0.9v-6.4H42l2.8,4.5v-4.5h1v6.4L44.8,132.2z"/>
		</g>
		<g>
			<path class="st1" d="M48.9,126.7v5.5h-1v-5.5h-1.6v-0.9h4.3v0.9L48.9,126.7z"/>
		</g>
		<g>
			<path class="st1" d="M56.5,130.3c0,1.2-0.7,2-2.4,2c-0.6,0-1.3-0.1-1.9-0.4v-1c0.6,0.3,1.2,0.4,1.8,0.4c1.2,0,1.5-0.5,1.5-1.1
				s-0.3-0.9-1.2-1c-1.6-0.2-2.2-0.6-2.2-1.8c0-0.9,0.5-1.8,2.3-1.8c0.6,0,1.2,0.1,1.7,0.3v1c-0.5-0.2-1.1-0.3-1.7-0.3
				c-1,0-1.3,0.4-1.3,1c0,0.7,0.4,0.8,1.2,0.9C55.7,128.7,56.5,129,56.5,130.3z"/>
		</g>
		<g>
			<path class="st1" d="M57,129c0-1.8,0.4-3.3,2.5-3.3s2.5,1.5,2.5,3.3s-0.4,3.3-2.5,3.3S57,130.8,57,129z M58,129
				c0,1.5,0.3,2.4,1.5,2.4s1.5-0.9,1.5-2.4s-0.3-2.4-1.5-2.4S58,127.5,58,129L58,129z"/>
		</g>
		<g>
			<path class="st1" d="M65.2,125.7c0.5,0,1,0.1,1.5,0.3v0.9c-0.5-0.2-0.9-0.3-1.4-0.3c-1.2,0-1.7,0.8-1.7,2.4
				c0,1.6,0.5,2.4,1.7,2.4c0.5,0,1-0.1,1.4-0.3v0.9c-0.5,0.2-1,0.3-1.5,0.3c-1.9,0-2.6-1.2-2.6-3.3S63.3,125.7,65.2,125.7z"/>
		</g>
		<g>
			<path class="st1" d="M67.7,132.2v-6.4h1v6.4H67.7z"/>
		</g>
		<g>
			<path class="st1" d="M72.9,130.6h-2l-0.4,1.6h-1l2-6.4h1l2,6.4h-1L72.9,130.6z M71.9,127l-0.9,2.8h1.6L71.9,127z"/>
		</g>
		<g>
			<path class="st1" d="M75.9,131.3h2.8v0.9h-3.7v-6.4h1L75.9,131.3z"/>
		</g>
		<g>
			<path class="st1" d="M7.8,141.2h-1v-6.4h2.1c1.6,0,2.2,1,2.2,2s-0.6,2-2.2,2H7.8V141.2z M7.8,137.9H9c0.6,0,1.1-0.5,1.1-1.1
				c0-0.6-0.5-1.1-1.1-1.1H7.8V137.9z"/>
		</g>
		<g>
			<path class="st1" d="M12.6,141.2h-1v-6.4h2.1c1.6,0,2.2,0.7,2.2,1.9c0.1,0.7-0.3,1.4-1,1.7l1.3,2.8H15l-1.2-2.6h-1.3V141.2z
				 M12.6,137.7h1.3c0.9,0,1-0.5,1-1s-0.1-1-1-1h-1.3V137.7z"/>
		</g>
		<g>
			<path class="st1" d="M16.6,138c0-1.8,0.4-3.3,2.5-3.3s2.5,1.5,2.5,3.3s-0.4,3.3-2.5,3.3S16.6,139.8,16.6,138z M17.6,138
				c0,1.5,0.3,2.4,1.5,2.4s1.5-0.9,1.5-2.4s-0.3-2.4-1.5-2.4S17.6,136.5,17.6,138L17.6,138z"/>
		</g>
		<g>
			<path class="st1" d="M24.2,135.7v5.5h-1v-5.5h-1.7v-0.9h4.3v0.9H24.2z"/>
		</g>
		<g>
			<path class="st1" d="M30.1,138.3h-2.6v2h2.9v0.9h-3.9v-6.4h3.9v0.9h-2.9v1.8h2.6V138.3z"/>
		</g>
		<g>
			<path class="st1" d="M33.7,134.7c0.5,0,1,0.1,1.5,0.3v0.9c-0.5-0.2-0.9-0.3-1.4-0.3c-1.2,0-1.7,0.8-1.7,2.4s0.5,2.4,1.7,2.4
				c0.5,0,1-0.1,1.4-0.3v0.9c-0.5,0.2-1,0.3-1.5,0.3c-1.9,0-2.6-1.2-2.6-3.3S31.8,134.7,33.7,134.7z"/>
		</g>
		<g>
			<path class="st1" d="M38.1,135.7v5.5h-1v-5.5h-1.6v-0.9h4.3v0.9H38.1z"/>
		</g>
		<g>
			<path class="st1" d="M40.5,141.2v-6.4h1v6.4H40.5z"/>
		</g>
		<g>
			<path class="st1" d="M42.3,138c0-1.8,0.4-3.3,2.5-3.3s2.5,1.5,2.5,3.3s-0.4,3.3-2.5,3.3S42.3,139.8,42.3,138z M43.3,138
				c0,1.5,0.3,2.4,1.5,2.4s1.5-0.9,1.5-2.4s-0.3-2.4-1.5-2.4S43.3,136.5,43.3,138L43.3,138z"/>
		</g>
		<g>
			<path class="st1" d="M51.6,141.2l-2.8-4.5v4.5H48v-6.4h0.9l2.8,4.5v-4.5h1v6.4H51.6z"/>
		</g>
		<g>
			<path class="st1" d="M59,139.3c0,1.2-0.7,2-2.4,2c-0.6,0-1.3-0.1-1.9-0.4v-1c0.6,0.3,1.2,0.4,1.8,0.4c1.2,0,1.5-0.5,1.5-1.1
				s-0.3-0.9-1.2-1c-1.5-0.2-2.2-0.6-2.2-1.8c0-0.9,0.5-1.9,2.3-1.9c0.6,0,1.2,0.1,1.7,0.3v1c-0.5-0.2-1.1-0.3-1.7-0.3
				c-1,0-1.3,0.4-1.3,1s0.4,0.8,1.2,0.9C58.2,137.7,59,138,59,139.3z"/>
		</g>
		<g>
			<path class="st1" d="M62.1,138.6v2.6h-1v-2.6l-2.1-3.8h1.1l1.6,3l1.6-3h1.1L62.1,138.6z"/>
		</g>
		<g>
			<path class="st1" d="M68.7,139.3c0,1.2-0.7,2-2.4,2c-0.6,0-1.3-0.1-1.9-0.4v-1c0.6,0.3,1.2,0.4,1.8,0.4c1.2,0,1.5-0.5,1.5-1.1
				s-0.3-0.9-1.2-1c-1.6-0.2-2.2-0.6-2.2-1.8c0-0.9,0.5-1.9,2.3-1.9c0.6,0,1.2,0.1,1.7,0.3v1c-0.5-0.2-1.1-0.3-1.7-0.3
				c-1,0-1.3,0.4-1.3,1s0.4,0.8,1.2,0.9C68,137.7,68.7,138,68.7,139.3z"/>
		</g>
		<g>
			<path class="st1" d="M71.5,135.7v5.5h-0.9v-5.5h-1.7v-0.9h4.3v0.9H71.5z"/>
		</g>
		<g>
			<path class="st1" d="M77.4,138.3h-2.7v2h2.9v0.9h-3.9v-6.4h3.9v0.9h-2.9v1.8h2.7V138.3z"/>
		</g>
		<g>
			<path class="st1" d="M81.9,140.3H81l-1.6-3.9v4.8h-1v-6.4h1.2l1.7,4.4l1.7-4.4h1.2v6.4h-1v-4.8L81.9,140.3z"/>
		</g>
		<g>
			<path class="st1" d="M89.4,139.3c0,1.2-0.7,2-2.4,2c-0.6,0-1.3-0.1-1.9-0.4v-1c0.6,0.3,1.2,0.4,1.8,0.4c1.2,0,1.5-0.5,1.5-1.1
				s-0.3-0.9-1.2-1c-1.6-0.2-2.2-0.6-2.2-1.8c0-0.9,0.5-1.9,2.3-1.9c0.6,0,1.2,0.1,1.7,0.3v1c-0.5-0.2-1.1-0.3-1.7-0.3
				c-1,0-1.3,0.4-1.3,1s0.4,0.8,1.2,0.9C88.7,137.7,89.4,138,89.4,139.3z"/>
		</g>
	</g>
	<g>
		<rect x="3.3" y="24" class="st1" width="94.8" height="94.8"/>
	</g>
	<g>
		<path class="st1" d="M98.2,20.7H3.3V3.3h94.8V20.7z M4.3,19.7h92.8V4.3H4.3L4.3,19.7z"/>
	</g>
	<g>
		<path class="st1" d="M98.2,144.8H3.3v-22.6h94.8V144.8z M4.3,143.8h92.8v-20.6H4.3L4.3,143.8z"/>
	</g>
	<g class="st2">
		<path class="st1" d="M6.7,6.9h4.5v1.4H9.9v8.8H8.1V8.3H6.7V6.9z"/>
	</g>
	<g class="st2">
		<path class="st1" d="M11.2,17.1l1.9-10.2h1.9L17,17.1h-1.8l-0.3-1.9h-1.8l-0.3,1.9H11.2z M13.3,13.9h1.4L14,9.8h0L13.3,13.9z"/>
	</g>
	<g class="st2">
		<path class="st1" d="M19.6,12.4v4.7h-1.7V6.9h2.5c1.7,0,2.4,0.9,2.4,2.3v1.3c0,1.1-0.4,1.7-1.4,2l1.6,4.6h-1.8L19.6,12.4z
			 M19.6,8.3v3.2h0.6c0.6,0,0.8-0.3,0.8-0.8V9.2c0-0.6-0.3-0.8-0.8-0.8H19.6z"/>
	</g>
	<g class="st2">
		<path class="st1" d="M26.4,11.7h2.4v5.4h-1.2V16c-0.2,0.8-0.7,1.2-1.6,1.2c-1.5,0-2.1-1.2-2.1-2.7V9.6c0-1.6,0.8-2.7,2.6-2.7
			c1.9,0,2.4,1.1,2.4,2.6v0.9h-1.6v-1c0-0.6-0.2-1-0.9-1c-0.6,0-0.9,0.4-0.9,1v5.5c0,0.6,0.3,1,0.8,1c0.6,0,0.8-0.3,0.8-1V13h-0.8
			V11.7z"/>
	</g>
	<g class="st2">
		<path class="st1" d="M30.2,6.9h4.1v1.4h-2.4v2.9h1.7v1.4h-1.7v3.1h2.4v1.4h-4.1V6.9z"/>
	</g>
	<g class="st2">
		<path class="st1" d="M35.1,6.9h4.5v1.4h-1.4v8.8h-1.7V8.3h-1.4V6.9z"/>
	</g>
	<g class="st2">
		<path class="st1" d="M83.7,6.9v10.2H82V9.3h0l-1.2,1.2h0V8.8l1.6-1.8H83.7z"/>
	</g>
	<g class="st2">
	</g>
	<g class="st2">
		<path class="st1" d="M86.8,10.8c0.7,0,1.2,0.6,1.2,1.2c0,0.7-0.6,1.2-1.2,1.2c-0.7,0-1.2-0.6-1.2-1.2
			C85.6,11.4,86.1,10.8,86.8,10.8z"/>
	</g>
	<g class="st2">
		<path class="st1" d="M94.3,9.1V10c0,0.9-0.5,1.4-1.2,1.7c0.9,0.2,1.3,0.8,1.3,1.7v1.5c0,1.4-0.8,2.3-2.5,2.3c-1.7,0-2.4-1-2.4-2.5
			v-1.3h1.6v1.5c0,0.6,0.2,1,0.8,1c0.5,0,0.8-0.4,0.8-0.9v-1.7c0-0.5-0.2-0.8-0.8-0.8h-0.7v-1.3h0.6c0.6,0,0.9-0.3,0.9-0.8V9.2
			c0-0.6-0.2-0.9-0.7-0.9s-0.7,0.4-0.7,1v1h-1.6V9.4c0-1.5,0.6-2.6,2.4-2.6C93.6,6.8,94.3,7.7,94.3,9.1z"/>
	</g>
	<g>
		<g>
			<g>
				<g>
					<path class="st0" d="M77.3,66.4c1.8,0,3.2-1.4,3.2-3.2c0-1.8-1.4-3.2-3.2-3.2c-1.8,0-3.2,1.4-3.2,3.2
						C74.1,65,75.5,66.4,77.3,66.4L77.3,66.4z"/>
				</g>
				<g>
					<path class="st0" d="M86.4,79.1l-2.7-8.6c0,0-0.9-2.5-3-2.5h-6.8c-2.1,0-3,2.5-3,2.5l-2.7,8.6c0,0-0.5,1.6,0.9,2
						s1.7-1.2,1.7-1.2l2.1-7.2c0,0,0.1-0.6,0.5-0.4s0.3,0.7,0.3,0.7L70,86.5h3.5v9.7c0.1,0.9,0.9,1.6,1.8,1.5
						c0.8-0.1,1.5-0.7,1.5-1.5v-9.7h0.9v9.7c0,0.9,0.7,1.7,1.7,1.7c0.9,0,1.7-0.7,1.7-1.7v-9.7h3.5L80.8,73c0,0-0.2-0.6,0.3-0.7
						s0.5,0.4,0.5,0.4l2.1,7.2c0,0,0.4,1.5,1.7,1.2S86.4,79.1,86.4,79.1z M81.5,80.3c0,2.3-1.9,4.2-4.2,4.2s-4.2-1.9-4.2-4.2
						s1.9-4.2,4.2-4.2l0,0C79.6,76.1,81.5,78,81.5,80.3z"/>
				</g>
				<g>
					<path class="st0" d="M78.4,78.4c-0.4,0-0.9,0.4-1.1,0.7c-0.3-0.3-0.7-0.7-1.1-0.7c-0.8,0-1.4,0.7-1.3,1.4c0,0,0,0,0,0
						c0,0.4,0.2,0.7,0.4,1l2,2l2-2l0,0c0.3-0.3,0.4-0.6,0.4-1C79.8,79.1,79.2,78.4,78.4,78.4C78.5,78.4,78.4,78.4,78.4,78.4z"/>
				</g>
			</g>
			<g>
				<g>
					<path class="st0" d="M51.4,71.5c1.9,0,3.4-1.5,3.4-3.4c0-1.9-1.5-3.4-3.4-3.4c-1.9,0-3.4,1.5-3.4,3.4
						C48,70,49.5,71.5,51.4,71.5C51.4,71.5,51.4,71.5,51.4,71.5z"/>
				</g>
				<g>
					<path class="st0" d="M65.6,92.4l-1.5-2.8c0,0,0,0,0-0.1l-3.4-6.7c-0.3-0.6-1-1-1.6-0.9h-4.8l-0.1-6.1c0-1.8-0.5-2.9-1.9-3.3
						c-0.7-0.1-1.4-0.1-2.1,0h-0.2l0,0l-5.7,1.8h-0.1l-0.1,0.1H44c-0.3,0.2-0.5,0.4-0.6,0.7l-1.6,4.6c-0.3,0.7,0.1,1.6,0.9,1.9
						c0.7,0.3,1.6-0.1,1.9-0.9l1.4-3.8l2.2-0.7h0.1v6.4c0,1.4,0.5,2.9,1.9,3.3l0.5,0.1c0.2,0,0.5,0.1,0.7,0.1h7.2l1.9,3.7V90
						l0.7,1.3l0.7,1.3c0,0,0,0.1,0.1,0.1l0,0l0.7,1.4c0.4,0.9,1.5,1.3,2.4,0.9s1.3-1.5,0.9-2.4C65.6,92.5,65.6,92.4,65.6,92.4
						L65.6,92.4z"/>
				</g>
				<g>
					<path class="st0" d="M55.2,88.4c0,0.1,0,0.2,0,0.3c0,3.8-3.1,6.9-6.9,6.9s-6.9-3.1-6.9-6.9c0-1.6,0.5-3.1,1.5-4.3l-1.7-1.4
						c-3.1,3.9-2.4,9.7,1.6,12.7c3.9,3.1,9.7,2.4,12.7-1.6c1.2-1.6,1.9-3.6,1.9-5.6c0-0.1,0-0.2,0-0.3H55.2z"/>
				</g>
			</g>
			<g>
				<g>
					<path class="st0" d="M26.2,68.3c1.7,0,3.1-1.4,3.1-3.1c0-1.1-0.6-2.1-1.6-2.7c0.1-0.2,0.2-0.4,0.2-0.6
						c-0.1-0.8-0.8-1.3-1.5-1.2c-0.8-0.1-1.5,0.5-1.6,1.2c0,0.2,0,0.3,0.1,0.5c-1.5,0.7-2.2,2.6-1.5,4.1
						C24,67.6,25.1,68.3,26.2,68.3L26.2,68.3z"/>
				</g>
				<g>
					<path class="st0" d="M35,79.6l-2.6-8.3c0,0-0.9-2.4-3-2.4H23c-2,0-3,2.4-3,2.4l-2.6,8.3c0,0-0.4,1.3,0.5,1.8c0,0,0,0.1,0,0.1
						l-3,15.7c-0.1,0.2,0.1,0.5,0.4,0.5c0,0,0,0,0,0h0.1c0.2,0,0.4-0.2,0.5-0.4l3-15.7c0,0,0-0.1,0-0.1c0.8-0.1,1.1-1.1,1.1-1.1
						l2.1-7c0,0,0.1-0.5,0.5-0.4s0.2,0.7,0.2,0.7l-3.6,13.1h3.3v9.3c0,0.9,0.7,1.6,1.6,1.6c0.9,0,1.6-0.7,1.6-1.6v-9.3h0.9v9.3
						c0.1,0.9,0.8,1.5,1.7,1.5c0.8-0.1,1.4-0.7,1.5-1.5v-9.3h3.3l-3.6-13.1c0,0-0.1-0.6,0.2-0.7s0.5,0.4,0.5,0.4l2.1,7
						c0,0,0.4,1.5,1.7,1.1S35,79.6,35,79.6z"/>
				</g>
			</g>
		</g>
		<g>
			<path class="st0" d="M90.4,49.5L51.2,32.6c-0.1-0.1-0.3-0.1-0.4-0.1c-0.1,0-0.2,0-0.3,0.1L11.3,49.5c-0.2,0.1-0.2,0.2-0.2,0.4v4
				c0,0.3,0,0.7,0.5,0.5l39.1-16.2c0.1-0.1,0.3-0.1,0.4,0l39.1,16.1c0.5,0.2,0.5-0.1,0.5-0.5v-4C90.6,49.7,90.5,49.6,90.4,49.5z"/>
		</g>
		<g>
			<path class="st0" d="M11.5,106.6h78.4c0.3,0,0.6,0.3,0.6,0.6v3.6c0,0.3-0.3,0.6-0.6,0.6H11.5c-0.3,0-0.6-0.3-0.6-0.6v-3.6
				C10.9,106.9,11.2,106.6,11.5,106.6z"/>
		</g>
	</g>
</g>
</svg>
