<?xml version="1.0" encoding="utf-8"?>
<!-- Generator: Adobe Illustrator 22.0.1, SVG Export Plug-In . SVG Version: 6.00 Build 0)  -->
<svg version="1.1" id="Layer_1" xmlns="http://www.w3.org/2000/svg" xmlns:xlink="http://www.w3.org/1999/xlink" x="0px" y="0px"
	 viewBox="0 0 101.5 166.2" style="enable-background:new 0 0 101.5 166.2;" xml:space="preserve">
<style type="text/css">
	.st0{fill:#FFFFFF;}
	.st1{fill:#E5243B;}
	.st2{enable-background:new    ;}
</style>
<title>TARGET 1.5</title>
<g id="WHITE_BG">
	<g>
		<rect y="0" class="st0" width="101.5" height="166.2"/>
	</g>
</g>
<g id="TARGETS">
	<g>
		<g>
			<path class="st1" d="M6.9,125.8H9c1.6,0,2,0.8,2,1.7c0,0.5-0.3,1-0.8,1.3c0.6,0.2,1.1,0.8,1,1.5c0,1.1-0.5,1.9-2.2,1.9H6.9V125.8
				z M9.1,126.7H7.8v1.8h1.2c0.8,0,0.9-0.5,0.9-0.9S9.9,126.7,9.1,126.7z M7.8,131.3h1.3c0.9,0,1.1-0.5,1.1-1s-0.3-1-1.1-1H7.8
				L7.8,131.3z"/>
		</g>
		<g>
			<path class="st1" d="M11.9,130.2v-4.4h1v4.3c-0.1,0.7,0.4,1.2,1,1.3c0.1,0,0.2,0,0.3,0c0.6,0.1,1.3-0.3,1.4-1c0-0.1,0-0.2,0-0.3
				v-4.3h1v4.4c0,1.1-0.8,2.1-2,2.1c-0.1,0-0.2,0-0.3,0c-1.1,0.2-2.2-0.5-2.4-1.7C11.9,130.5,11.9,130.4,11.9,130.2z"/>
		</g>
		<g>
			<path class="st1" d="M17.6,132.2v-6.4h1v6.4H17.6z"/>
		</g>
		<g>
			<path class="st1" d="M20.7,131.3h2.8v0.9h-3.7v-6.4h1L20.7,131.3z"/>
		</g>
		<g>
			<path class="st1" d="M24,132.2v-6.4h1.9c2.1,0,2.7,1.4,2.7,3.2s-0.6,3.2-2.7,3.2L24,132.2z M25,131.3h1c1.3,0,1.7-0.9,1.7-2.3
				s-0.4-2.3-1.7-2.3h-1V131.3z"/>
		</g>
		<g>
			<path class="st1" d="M31.7,132.2h-1v-6.4h2.1c1.7,0,2.2,0.7,2.2,1.9c0.1,0.7-0.3,1.4-1,1.7l1.3,2.8h-1.2l-1.2-2.6h-1.3V132.2z
				 M31.7,128.7H33c0.9,0,1-0.5,1-1s-0.1-1-1-1h-1.3V128.7z"/>
		</g>
		<g>
			<path class="st1" d="M39.5,129.3h-2.6v2h2.9v0.9H36v-6.4h3.9v0.9h-3v1.8h2.7L39.5,129.3z"/>
		</g>
		<g>
			<path class="st1" d="M44.7,130.3c0,1.2-0.7,2-2.4,2c-0.6,0-1.3-0.1-1.9-0.4V131c0.6,0.3,1.2,0.4,1.8,0.4c1.2,0,1.5-0.5,1.5-1.1
				s-0.3-0.9-1.2-1c-1.5-0.2-2.2-0.6-2.2-1.8c0-0.9,0.5-1.8,2.3-1.8c0.6,0,1.2,0.1,1.7,0.3v1c-0.5-0.2-1.1-0.3-1.7-0.3
				c-1,0-1.3,0.4-1.3,1c0,0.7,0.4,0.8,1.2,0.9C43.9,128.7,44.7,129,44.7,130.3z"/>
		</g>
		<g>
			<path class="st1" d="M45.5,132.2v-6.4h1v6.4H45.5z"/>
		</g>
		<g>
			<path class="st1" d="M48.5,131.3h2.8v0.9h-3.7v-6.4h1L48.5,131.3z"/>
		</g>
		<g>
			<path class="st1" d="M51.9,132.2v-6.4h1v6.4H51.9z"/>
		</g>
		<g>
			<path class="st1" d="M57.6,129.3h-2.7v2h2.9v0.9H54v-6.4h3.9v0.9h-3v1.8h2.7V129.3z"/>
		</g>
		<g>
			<path class="st1" d="M62.4,132.2l-2.8-4.5v4.5h-0.9v-6.4h0.9l2.8,4.5v-4.5h0.9v6.4H62.4z"/>
		</g>
		<g>
			<path class="st1" d="M66.8,125.7c0.5,0,1,0.1,1.5,0.3v0.9c-0.4-0.2-0.9-0.3-1.4-0.3c-1.2,0-1.7,0.8-1.7,2.4s0.5,2.4,1.7,2.4
				c0.5,0,1-0.1,1.4-0.3v0.9c-0.5,0.2-1,0.3-1.5,0.3c-1.9,0-2.6-1.2-2.6-3.3S64.9,125.7,66.8,125.7z"/>
		</g>
		<g>
			<path class="st1" d="M72.7,129.3h-2.7v2H73v0.9h-3.9v-6.4H73v0.9h-2.9v1.8h2.7V129.3z"/>
		</g>
		<g>
			<path class="st1" d="M9.2,135.7v5.5h-1v-5.5H6.6v-0.9h4.3v0.9H9.2z"/>
		</g>
		<g>
			<path class="st1" d="M11.1,138c0-1.8,0.4-3.3,2.5-3.3s2.5,1.5,2.5,3.3s-0.4,3.3-2.4,3.3S11.1,139.8,11.1,138z M12.1,138
				c0,1.5,0.3,2.4,1.5,2.4s1.5-0.9,1.5-2.4s-0.3-2.4-1.5-2.4S12,136.5,12.1,138L12.1,138z"/>
		</g>
		<g>
			<path class="st1" d="M21.8,138.3h-2.7v2h2.9v0.9h-3.9v-6.4h3.9v0.9h-2.9v1.8h2.7V138.3z"/>
		</g>
		<g>
			<path class="st1" d="M26.6,141.2l-2.8-4.5v4.5h-0.9v-6.4h0.9l2.8,4.5v-4.5h1v6.4H26.6z"/>
		</g>
		<g>
			<path class="st1" d="M33,134.8l-2,6.4h-1l-2-6.4h1l1.5,5.2l1.5-5.2H33z"/>
		</g>
		<g>
			<path class="st1" d="M33.7,141.2v-6.4h1v6.4H33.7z"/>
		</g>
		<g>
			<path class="st1" d="M36.7,141.2h-1v-6.4h2.1c1.7,0,2.2,0.7,2.2,1.9c0.1,0.7-0.3,1.4-1,1.7l1.3,2.8h-1.1l-1.1-2.6h-1.3V141.2z
				 M36.7,137.7h1.2c0.9,0,1-0.5,1-1s-0.1-1-1-1h-1.2V137.7z"/>
		</g>
		<g>
			<path class="st1" d="M40.6,138c0-1.8,0.4-3.3,2.5-3.3s2.5,1.5,2.5,3.3s-0.4,3.3-2.5,3.3S40.6,139.8,40.6,138z M41.6,138
				c0,1.5,0.3,2.4,1.5,2.4s1.5-0.9,1.5-2.4s-0.3-2.4-1.5-2.4S41.6,136.5,41.6,138L41.6,138z"/>
		</g>
		<g>
			<path class="st1" d="M50,141.2l-2.8-4.5v4.5h-0.9v-6.4h0.9l2.8,4.5v-4.5h0.9v6.4H50z"/>
		</g>
		<g>
			<path class="st1" d="M55.2,140.3h-0.9l-1.6-3.9v4.8h-1v-6.4H53l1.7,4.3l1.7-4.3h1.2v6.4h-1v-4.8L55.2,140.3z"/>
		</g>
		<g>
			<path class="st1" d="M62.3,138.3h-2.6v2h2.9v0.9h-3.9v-6.4h3.9v0.9h-2.9v1.8h2.7L62.3,138.3z"/>
		</g>
		<g>
			<path class="st1" d="M67.1,141.2l-2.8-4.5v4.5h-0.9v-6.4h0.9l2.8,4.5v-4.5h1v6.4L67.1,141.2z"/>
		</g>
		<g>
			<path class="st1" d="M71.1,135.7v5.5h-0.9v-5.5h-1.7v-0.9h4.3v0.9H71.1z"/>
		</g>
		<g>
			<path class="st1" d="M75.8,139.7h-2l-0.4,1.6h-1l2-6.4h1l2,6.4h-1L75.8,139.7z M74.8,136l-0.8,2.8h1.6L74.8,136z"/>
		</g>
		<g>
			<path class="st1" d="M78.8,140.3h2.8v0.9h-3.7v-6.4h1L78.8,140.3z"/>
		</g>
		<g>
			<path class="st1" d="M83,140.3l-0.7,2h-0.7l0.2-2H83z"/>
		</g>
		<g>
			<path class="st1" d="M10.5,147.3H7.8v2h2.9v0.9H6.9v-6.4h3.9v0.9H7.8v1.8h2.6V147.3z"/>
		</g>
		<g>
			<path class="st1" d="M14,143.7c0.5,0,1,0.1,1.5,0.3v0.9c-0.5-0.2-0.9-0.3-1.4-0.3c-1.2,0-1.7,0.8-1.7,2.4s0.5,2.4,1.7,2.4
				c0.5,0,1-0.1,1.4-0.3v0.9c-0.5,0.2-1,0.3-1.5,0.3c-1.9,0-2.6-1.2-2.6-3.3S12.1,143.7,14,143.7z"/>
		</g>
		<g>
			<path class="st1" d="M16.2,147c0-1.8,0.4-3.3,2.5-3.3s2.5,1.5,2.5,3.3s-0.4,3.3-2.5,3.3S16.2,148.8,16.2,147z M17.2,147
				c0,1.5,0.3,2.4,1.5,2.4s1.5-0.9,1.5-2.4s-0.3-2.4-1.5-2.4S17.1,145.5,17.2,147L17.2,147z"/>
		</g>
		<g>
			<path class="st1" d="M25.6,150.2l-2.8-4.5v4.5H22v-6.4h0.9l2.8,4.5v-4.5h1v6.4H25.6z"/>
		</g>
		<g>
			<path class="st1" d="M27.4,147c0-1.8,0.4-3.3,2.5-3.3s2.5,1.5,2.5,3.3s-0.4,3.3-2.5,3.3S27.4,148.8,27.4,147z M28.4,147
				c0,1.5,0.3,2.4,1.5,2.4s1.5-0.9,1.5-2.4s-0.3-2.4-1.5-2.4S28.4,145.5,28.4,147L28.4,147z"/>
		</g>
		<g>
			<path class="st1" d="M36.4,149.3h-0.9l-1.6-3.9v4.8H33v-6.4h1.2l1.8,4.3l1.7-4.3H39v6.4h-1l0-4.8L36.4,149.3z"/>
		</g>
		<g>
			<path class="st1" d="M39.9,150.2v-6.4h1v6.4H39.9z"/>
		</g>
		<g>
			<path class="st1" d="M44.5,143.7c0.5,0,1,0.1,1.5,0.3v0.9c-0.4-0.2-0.9-0.3-1.4-0.3c-1.2,0-1.7,0.8-1.7,2.4s0.5,2.4,1.7,2.4
				c0.5,0,1-0.1,1.4-0.3v0.9c-0.5,0.2-1,0.3-1.5,0.3c-1.9,0-2.6-1.2-2.6-3.3S42.6,143.7,44.5,143.7z"/>
		</g>
		<g>
			<path class="st1" d="M51.4,148.7h-2l-0.5,1.6h-1l2-6.4h1l2,6.4h-1L51.4,148.7z M50.4,145l-0.8,2.8h1.6L50.4,145z"/>
		</g>
		<g>
			<path class="st1" d="M57.1,150.2l-2.8-4.5v4.5h-0.9v-6.4h0.9l2.8,4.5v-4.5h1v6.4H57.1z"/>
		</g>
		<g>
			<path class="st1" d="M58.9,150.2v-6.4h1.9c2.1,0,2.7,1.4,2.7,3.2s-0.6,3.2-2.7,3.2H58.9z M59.9,149.3h1c1.3,0,1.7-0.9,1.7-2.3
				s-0.4-2.3-1.7-2.3h-1V149.3z"/>
		</g>
		<g>
			<path class="st1" d="M11.1,157.3c0,1.2-0.7,2-2.4,2c-0.6,0-1.3-0.1-1.9-0.3v-1c0.6,0.3,1.2,0.4,1.8,0.4c1.1,0,1.5-0.5,1.5-1.1
				s-0.3-0.9-1.2-1c-1.6-0.2-2.2-0.6-2.2-1.8c0-0.9,0.5-1.8,2.3-1.8c0.6,0,1.2,0.1,1.7,0.3v1c-0.5-0.2-1.1-0.3-1.7-0.3
				c-1,0-1.3,0.4-1.3,1c0,0.7,0.4,0.8,1.2,0.9C10.3,155.7,11.1,156,11.1,157.3z"/>
		</g>
		<g>
			<path class="st1" d="M11.6,156c0-1.8,0.4-3.3,2.5-3.3s2.4,1.5,2.4,3.3s-0.4,3.3-2.4,3.3S11.6,157.8,11.6,156z M12.6,156
				c0,1.5,0.3,2.4,1.5,2.4s1.5-0.9,1.5-2.4s-0.3-2.4-1.5-2.4S12.6,154.5,12.6,156L12.6,156z"/>
		</g>
		<g>
			<path class="st1" d="M19.8,152.7c0.5,0,1,0.1,1.5,0.3v0.9c-0.5-0.2-0.9-0.3-1.4-0.3c-1.2,0-1.7,0.8-1.7,2.4s0.5,2.4,1.7,2.4
				c0.5,0,1-0.1,1.4-0.3v0.9c-0.5,0.2-1,0.3-1.5,0.3c-1.9,0-2.6-1.2-2.6-3.3S18,152.7,19.8,152.7z"/>
		</g>
		<g>
			<path class="st1" d="M22.3,159.2v-6.4h1v6.4H22.3z"/>
		</g>
		<g>
			<path class="st1" d="M27.5,157.7h-2l-0.5,1.6h-1l2-6.4h1l2,6.4h-1L27.5,157.7z M26.5,154l-0.8,2.8h1.6L26.5,154z"/>
		</g>
		<g>
			<path class="st1" d="M30.4,158.3h2.8v0.9h-3.7v-6.4h1L30.4,158.3z"/>
		</g>
		<g>
			<path class="st1" d="M35.2,159.2v-6.4h1.9c2.1,0,2.7,1.4,2.7,3.2s-0.6,3.2-2.7,3.2H35.2z M36.2,158.3h1c1.3,0,1.7-0.9,1.7-2.3
				s-0.4-2.3-1.7-2.3h-1V158.3z"/>
		</g>
		<g>
			<path class="st1" d="M40.7,159.2v-6.4h1v6.4H40.7z"/>
		</g>
		<g>
			<path class="st1" d="M46.9,157.3c0,1.2-0.7,2-2.4,2c-0.6,0-1.3-0.1-1.9-0.4V158c0.6,0.3,1.2,0.4,1.8,0.4c1.2,0,1.5-0.5,1.5-1.1
				s-0.3-0.9-1.2-1c-1.5-0.2-2.2-0.6-2.2-1.8c0-0.9,0.5-1.8,2.3-1.8c0.6,0,1.2,0.1,1.7,0.3v1c-0.5-0.2-1.1-0.3-1.7-0.3
				c-1,0-1.3,0.4-1.3,1c0,0.7,0.4,0.8,1.2,0.9C46.1,155.7,46.9,156,46.9,157.3z"/>
		</g>
		<g>
			<path class="st1" d="M50.6,157.7h-2l-0.5,1.6h-1l2-6.4h1l2,6.4h-1L50.6,157.7z M49.6,154l-0.8,2.8h1.6L49.6,154z"/>
		</g>
		<g>
			<path class="st1" d="M56.6,157.3c0,1.2-0.7,2-2.4,2c-0.6,0-1.3-0.1-1.9-0.3v-1c0.6,0.3,1.2,0.4,1.8,0.4c1.1,0,1.5-0.5,1.5-1.1
				s-0.3-0.9-1.2-1c-1.6-0.2-2.2-0.6-2.2-1.8c0-0.9,0.5-1.8,2.3-1.8c0.6,0,1.2,0.1,1.7,0.3v1c-0.5-0.2-1.1-0.3-1.7-0.3
				c-1,0-1.3,0.4-1.3,1c0,0.7,0.4,0.8,1.2,0.9C55.8,155.7,56.6,156,56.6,157.3z"/>
		</g>
		<g>
			<path class="st1" d="M59.3,153.7v5.5h-1v-5.5h-1.6v-0.9H61v0.9H59.3z"/>
		</g>
		<g>
			<path class="st1" d="M65.3,156.3h-2.6v2h2.9v0.9h-3.9v-6.4h3.9v0.9h-2.9v1.8h2.6V156.3z"/>
		</g>
		<g>
			<path class="st1" d="M67.3,159.2h-1v-6.4h2.1c1.7,0,2.2,0.7,2.2,1.9c0.1,0.7-0.3,1.4-1,1.7l1.3,2.8h-1.1l-1.2-2.6h-1.3V159.2z
				 M67.3,155.7h1.3c0.9,0,1-0.5,1-1s-0.1-1-1-1h-1.3V155.7z"/>
		</g>
		<g>
			<path class="st1" d="M75.6,157.3c0,1.2-0.7,2-2.4,2c-0.6,0-1.3-0.1-1.9-0.4V158c0.6,0.3,1.2,0.4,1.8,0.4c1.2,0,1.5-0.5,1.5-1.1
				s-0.3-0.9-1.2-1c-1.6-0.2-2.2-0.6-2.2-1.8c0-0.9,0.5-1.8,2.3-1.8c0.6,0,1.2,0.1,1.7,0.3v1c-0.5-0.2-1.1-0.3-1.7-0.3
				c-1,0-1.3,0.4-1.3,1c0,0.7,0.4,0.8,1.2,0.9C74.8,155.7,75.6,156,75.6,157.3z"/>
		</g>
	</g>
	<g>
		<rect x="3.3" y="24" class="st1" width="94.8" height="94.8"/>
	</g>
	<g>
		<path class="st1" d="M98.2,20.7H3.3V3.3h94.8V20.7z M4.3,19.7h92.8V4.3H4.3L4.3,19.7z"/>
	</g>
	<g>
		<path class="st1" d="M98.2,162.8H3.3v-40.6h94.8V162.8z M4.3,161.8h92.8v-38.6H4.3L4.3,161.8z"/>
	</g>
	<g class="st2">
		<path class="st1" d="M6.7,6.9h4.5v1.4H9.9v8.8H8.1V8.3H6.7V6.9z"/>
	</g>
	<g class="st2">
		<path class="st1" d="M11.2,17.1l1.9-10.2h1.9L17,17.1h-1.8l-0.3-1.9h-1.8l-0.3,1.9H11.2z M13.3,13.9h1.4L14,9.8h0L13.3,13.9z"/>
	</g>
	<g class="st2">
		<path class="st1" d="M19.6,12.5v4.7h-1.7V6.9h2.5c1.7,0,2.4,0.9,2.4,2.3v1.3c0,1.1-0.4,1.7-1.4,2l1.6,4.6h-1.8L19.6,12.5z
			 M19.6,8.3v3.2h0.6c0.6,0,0.8-0.3,0.8-0.8V9.2c0-0.6-0.3-0.8-0.8-0.8H19.6z"/>
	</g>
	<g class="st2">
		<path class="st1" d="M26.4,11.7h2.4v5.4h-1.2V16c-0.2,0.8-0.7,1.2-1.6,1.2c-1.5,0-2.1-1.2-2.1-2.7V9.6c0-1.6,0.8-2.7,2.6-2.7
			c1.9,0,2.4,1.1,2.4,2.6v0.9h-1.6v-1c0-0.6-0.2-1-0.9-1c-0.6,0-0.9,0.4-0.9,1v5.5c0,0.6,0.3,1,0.8,1c0.6,0,0.8-0.3,0.8-1V13h-0.8
			V11.7z"/>
	</g>
	<g class="st2">
		<path class="st1" d="M30.2,6.9h4.1v1.4h-2.4v2.9h1.7v1.4h-1.7v3.1h2.4v1.4h-4.1V6.9z"/>
	</g>
	<g class="st2">
		<path class="st1" d="M35.1,6.9h4.5v1.4h-1.4v8.8h-1.7V8.3h-1.4V6.9z"/>
	</g>
	<g class="st2">
		<path class="st1" d="M83.5,6.9v10.2h-1.7V9.3h0l-1.2,1.2h0V8.8l1.6-1.8H83.5z"/>
	</g>
	<g class="st2">
	</g>
	<g class="st2">
		<path class="st1" d="M86.6,10.8c0.7,0,1.2,0.6,1.2,1.2c0,0.7-0.6,1.2-1.2,1.2c-0.7,0-1.2-0.6-1.2-1.2
			C85.3,11.4,85.9,10.8,86.6,10.8z"/>
	</g>
	<g class="st2">
		<path class="st1" d="M94.4,12.4v2.5c0,1.4-0.7,2.3-2.4,2.3c-1.7,0-2.4-1-2.4-2.5v-1.2h1.6v1.3c0,0.6,0.2,1,0.8,1
			c0.5,0,0.7-0.4,0.7-0.9v-2.5c0-0.6-0.2-0.9-0.7-0.9c-0.5,0-0.8,0.3-0.8,0.9v0.2h-1.6V6.9h4.5v1.4h-2.9v2.5h0
			c0.3-0.5,0.8-0.7,1.4-0.7C93.5,10.2,94.4,10.8,94.4,12.4z"/>
	</g>
	<g>
		<g>
			<g>
				<rect x="9.9" y="85" class="st0" width="18.8" height="5.6"/>
			</g>
			<g>
				<rect x="30.5" y="85" class="st0" width="18.8" height="5.6"/>
			</g>
			<g>
				<rect x="51.1" y="85" class="st0" width="18.8" height="5.6"/>
			</g>
			<g>
				<rect x="71.7" y="85" class="st0" width="18.8" height="5.6"/>
			</g>
			<g>
				<rect x="10.1" y="92.9" class="st0" width="80.5" height="5.6"/>
			</g>
		</g>
		<g>
			<g>
				<path class="st0" d="M17,73.4h2v5.2c0,0.1,0.1,0.2,0.2,0.2l0,0h2.4c0.1,0,0.2-0.1,0.2-0.2l0,0v-5.3h3.9c2.5,0,4.5-2,4.5-4.6
					c0-1.2-0.4-2.3-1.2-3.1c2-1.2,2.8-3.7,1.6-5.8c-0.8-1.3-2.2-2.2-3.7-2.2h-0.3c-0.3-3.2-3-5.5-6.2-5.3c-3,0.2-5.3,2.7-5.3,5.7
					c0,0.9,0.2,1.7,0.6,2.5c-3.5,0.8-5.6,4.2-4.8,7.7C11.5,71.3,14.1,73.4,17,73.4L17,73.4z"/>
			</g>
			<g>
				<path class="st0" d="M10.9,81.5c0.5,0,0.9-0.4,0.9-0.8c0-0.5-0.4-0.9-0.8-0.9s-0.9,0.4-0.9,0.8c0,0,0,0,0,0
					C10.1,81.2,10.4,81.5,10.9,81.5z"/>
			</g>
			<g>
				<path class="st0" d="M13.8,80.7c0,0.5,0.4,0.8,0.8,0.8c0.5,0,0.9-0.4,0.9-0.8c0-0.5-0.4-0.8-0.8-0.8h0
					C14.2,79.8,13.8,80.2,13.8,80.7z"/>
			</g>
			<g>
				<path class="st0" d="M18.5,79.8c-0.5,0-0.9,0.4-0.9,0.8c0,0.5,0.4,0.8,0.9,0.8c0.5,0,0.9-0.4,0.9-0.8l0,0
					C19.3,80.2,18.9,79.8,18.5,79.8z"/>
			</g>
			<g>
				<path class="st0" d="M21.4,80.7c0,0.5,0.4,0.8,0.8,0.8c0.5,0,0.9-0.4,0.9-0.8c0-0.5-0.4-0.8-0.8-0.8c0,0,0,0,0,0
					C21.8,79.8,21.4,80.2,21.4,80.7z"/>
			</g>
			<g>
				<path class="st0" d="M25.2,80.7c0,0.5,0.4,0.8,0.8,0.8c0.5,0,0.9-0.4,0.9-0.8c0-0.5-0.4-0.8-0.8-0.8c0,0,0,0,0,0
					C25.6,79.8,25.2,80.2,25.2,80.7z"/>
			</g>
			<g>
				<path class="st0" d="M29,80.7c0,0.5,0.4,0.8,0.9,0.8s0.8-0.4,0.8-0.9c0-0.5-0.4-0.8-0.9-0.8c0,0,0,0,0,0
					C29.4,79.9,29,80.2,29,80.7z"/>
			</g>
			<g>
				<path class="st0" d="M11.9,77.8c0,0.5,0.4,0.9,0.8,0.9c0.5,0,0.9-0.4,0.9-0.8c0-0.5-0.4-0.9-0.8-0.9c0,0,0,0,0,0
					C12.3,76.9,11.9,77.3,11.9,77.8z"/>
			</g>
			<g>
				<path class="st0" d="M15.7,77.8c0,0.5,0.4,0.9,0.8,0.9c0.5,0,0.9-0.4,0.9-0.8c0-0.5-0.4-0.9-0.8-0.9c0,0,0,0,0,0
					C16.1,76.9,15.7,77.3,15.7,77.8z"/>
			</g>
			<g>
				<path class="st0" d="M23.3,77.8c0,0.5,0.4,0.9,0.8,0.9s0.9-0.4,0.9-0.8c0-0.5-0.4-0.9-0.8-0.9c0,0,0,0,0,0
					C23.7,76.9,23.3,77.3,23.3,77.8z"/>
			</g>
			<g>
				<path class="st0" d="M27.1,77.8c0,0.5,0.4,0.9,0.8,0.9s0.9-0.4,0.9-0.8c0-0.5-0.4-0.9-0.8-0.9c0,0,0,0,0,0
					C27.4,76.9,27.1,77.3,27.1,77.8z"/>
			</g>
		</g>
		<g>
			<g>
				<path class="st0" d="M57.4,65c0.9,0,1.7-0.8,1.7-1.7c0-0.9-0.8-1.7-1.7-1.7s-1.7,0.8-1.7,1.7C55.8,64.2,56.5,65,57.4,65L57.4,65
					z"/>
			</g>
			<g>
				<path class="st0" d="M62.2,71.7l-1.4-4.5c0,0-0.5-1.3-1.6-1.3h-3.6c-1.1,0-1.6,1.3-1.6,1.3l-1.4,4.5c0,0-0.2,0.8,0.5,1
					s0.9-0.6,0.9-0.6l1.1-3.8c0,0,0.1-0.3,0.3-0.2s0.1,0.4,0.1,0.4l-2,7.1h1.8v5.1c0.1,0.5,0.5,0.8,1,0.8c0.4,0,0.7-0.4,0.8-0.8
					v-5.1h0.5v5.1c0.1,0.5,0.5,0.8,1,0.8c0.4,0,0.7-0.4,0.8-0.8v-5.1h1.8l-2-7.1c0,0-0.1-0.3,0.1-0.4s0.3,0.2,0.3,0.2l1.1,3.8
					c0,0,0.2,0.8,0.9,0.6S62.2,71.7,62.2,71.7z"/>
			</g>
			<g>
				<path class="st0" d="M41.3,64.4c1,0,1.8-0.8,1.8-1.8s-0.8-1.8-1.8-1.8s-1.8,0.8-1.8,1.8c0,0,0,0,0,0
					C39.6,63.6,40.4,64.4,41.3,64.4z"/>
			</g>
			<g>
				<path class="st0" d="M43.4,65.1h-4.1c-1.2,0.1-2.1,1.1-2.1,2.3v4.9c0,0.2,0.1,0.4,0.3,0.5L35.9,81c0,0.1,0.1,0.3,0.2,0.3
					c0,0,0,0,0,0h0c0.1,0,0.2-0.1,0.3-0.2l1.5-8.2c0.3,0,0.6-0.3,0.6-0.7v-4.2c0-0.2,0-0.4,0.3-0.4s0.2,0.2,0.2,0.3v12.5
					c0.1,0.5,0.7,0.9,1.2,0.8c0.4-0.1,0.7-0.4,0.8-0.8v-7.2c0-0.1,0.1-0.3,0.2-0.3c0,0,0,0,0,0l0,0c0.1,0,0.3,0.1,0.3,0.3
					c0,0,0,0,0,0v7.2c0,0.6,0.4,1,1,1s1-0.4,1-1V68.1c0-0.1,0-0.3,0.2-0.3s0.3,0.2,0.3,0.4v4.2c0,0.4,0.3,0.7,0.7,0.7
					s0.7-0.3,0.7-0.7v-4.9C45.5,66.2,44.6,65.2,43.4,65.1z"/>
			</g>
			<g>
				<path class="st0" d="M52,71.8c-0.3-0.1-0.6,0-0.7,0.2c-0.3,0.5-0.6,0.9-0.9,1.4c-0.1,0.1-0.3,0.2-0.4,0.2h-1.7
					c-0.2,0-0.3-0.1-0.4-0.2C47.6,73.2,47,72,46.9,72c-0.1-0.3-0.4-0.4-0.6-0.4c-0.3,0.1-0.4,0.4-0.4,0.6c0,0.1,0,0.2,0,0.2l1.4,2.5
					c0.1,0.1,0.1,0.2,0.1,0.3v0.4l0,0c0,0.1,0,0.3-0.1,0.4l-0.7,2.7h0.8v2l0,0c0,0.4,0.3,0.7,0.7,0.7c0.4,0,0.7-0.3,0.7-0.7v-2h0.4
					v2c0,0.4,0.3,0.7,0.7,0.7c0.4,0,0.7-0.3,0.7-0.7v-2h0.8l-0.7-2.7c0-0.1,0-0.2-0.1-0.3v-0.1l0,0v-0.4c0-0.1,0-0.2,0.1-0.3
					l1.3-2.4l0.1-0.2C52.3,72.2,52.2,71.9,52,71.8z"/>
			</g>
			<g>
				<path class="st0" d="M49.1,72.7c0.8,0,1.4-0.6,1.4-1.4c0-0.8-0.6-1.4-1.4-1.4s-1.4,0.6-1.4,1.4c0,0,0,0,0,0
					C47.7,72.1,48.3,72.7,49.1,72.7C49.1,72.7,49.1,72.7,49.1,72.7z"/>
			</g>
		</g>
		<g>
			<g>
				<path class="st0" d="M90,66.5H68c-0.1,0-0.1,0.1-0.2,0.1c0,0,0,0,0,0v14.5c0,0.1,0.1,0.2,0.2,0.2l0,0h12.6V71.2h5.2v10.2H90
					c0.1,0,0.2-0.1,0.2-0.2l0,0V66.7C90.2,66.6,90.1,66.5,90,66.5C90,66.5,90,66.5,90,66.5z M76.8,76.1h-4.9v-4.9h4.9L76.8,76.1z"/>
			</g>
			<g>
				<path class="st0" d="M79,54c-0.1-0.1-0.2-0.1-0.3-0.1c-0.1,0-0.3,0.1-0.3,0.2l-0.1,0.1L66.4,65.2c0,0-0.1,0.1,0,0.2
					c0,0,0.1,0,0.1,0h25.1c0.1,0,0.1-0.1,0.1-0.1c0,0,0-0.1,0-0.1L79,54L79,54z"/>
			</g>
		</g>
		<g>
			<g>
				<path class="st0" d="M51.2,32.1c-6.1,0-11.1,5-11.1,11.1s5,11.1,11.1,11.1s11.1-5,11.1-11.1l0,0C62.3,37.1,57.3,32.1,51.2,32.1z
					 M61.2,41.5c0,0.3-0.1,0.5-0.4,0.5h-0.1c-0.2,0-0.4-0.2-0.5-0.4c0-0.1,0-0.3,0.1-0.4c0.1-0.1,0.2-0.2,0.3-0.2
					C60.9,41,61.1,41.2,61.2,41.5C61.1,41.5,61.1,41.5,61.2,41.5z M60.7,39.8c0,0.1,0,0.3,0,0.4c-0.1,0.1-0.2,0.2-0.3,0.2
					c-0.1,0-0.1,0-0.2,0c-0.1,0-0.1,0-0.2,0c-0.1-0.1-0.2-0.2-0.2-0.3c-0.1-0.1-0.1-0.2,0-0.4c0.1-0.1,0.1-0.2,0.3-0.2
					C60.3,39.4,60.6,39.5,60.7,39.8z M59.1,38.3c0-0.1,0.1-0.2,0.2-0.3c0.2-0.1,0.5,0,0.6,0.2c0.1,0.2,0,0.5-0.2,0.6
					c-0.1,0-0.2,0.1-0.2,0.1h-0.1C59.2,38.8,59,38.6,59.1,38.3C59.1,38.3,59.1,38.3,59.1,38.3L59.1,38.3z M55.6,34.7L55.6,34.7
					c0.1-0.2,0.4-0.3,0.7-0.2c0.1,0.1,0.2,0.2,0.2,0.3c0,0.1,0,0.2,0,0.4c-0.1,0.1-0.2,0.2-0.3,0.2H56c-0.1,0-0.2,0-0.2-0.1
					c-0.1-0.1-0.2-0.2-0.2-0.3C55.5,34.9,55.5,34.8,55.6,34.7z M54.6,42c-0.1,0-0.2-0.1-0.2-0.2v-0.7h1.7v0.7c0,0.1,0,0.2-0.1,0.2
					c0,0,0,0,0,0l0,0v4.1h-1.3V42L54.6,42z M51.3,40.7h-5.3v-0.4h10.7v0.4H51.3z M50.6,42c-0.1,0-0.2-0.1-0.2-0.2v-0.7h1.7v0.7
					c0,0.1,0,0.1-0.1,0.2l0,0v4.1h-1.3V42H50.6z M46.6,42c-0.1,0-0.2-0.1-0.2-0.2v-0.7h1.7v0.7c0,0.1-0.1,0.2-0.2,0.2l0,0v4.1h-1.3
					L46.6,42L46.6,42z M51.3,40h-5.7l-0.2-0.2c-0.1-0.1-0.1-0.2,0-0.2c0,0,0,0,0,0l5.9-2.2l5.9,2.2c0.1,0.1,0.1,0.2,0,0.2
					c0,0,0,0,0,0L56.9,40H51.3z M54,34c0.1-0.2,0.4-0.4,0.6-0.3c0,0,0,0,0,0c0.1,0,0.2,0.1,0.3,0.2c0,0.1,0,0.3,0,0.4
					c0,0.1-0.1,0.2-0.2,0.3c-0.1,0-0.3,0-0.4,0c-0.1,0-0.2-0.1-0.3-0.2C54,34.2,54,34.1,54,34z M52.6,33.3c0.1-0.1,0.2-0.1,0.4-0.1
					c0.3,0,0.4,0.3,0.4,0.5c0,0.1-0.1,0.2-0.2,0.3c-0.1,0.1-0.2,0.1-0.3,0.1h-0.1c-0.1,0-0.2-0.1-0.3-0.2c-0.1-0.1-0.1-0.2-0.1-0.4
					C52.4,33.5,52.5,33.4,52.6,33.3L52.6,33.3z M51.2,33.1c0.3,0,0.5,0.2,0.5,0.5s-0.2,0.5-0.5,0.5c-0.3,0-0.5-0.2-0.5-0.5
					c0,0,0,0,0,0C50.7,33.3,50.9,33.1,51.2,33.1L51.2,33.1z M49.1,33.5c0.1-0.1,0.2-0.2,0.3-0.2c0.1,0,0.3,0,0.4,0.1
					c0.1,0.1,0.2,0.2,0.2,0.3c0,0.1,0,0.3-0.1,0.4c-0.1,0.1-0.2,0.2-0.3,0.2h-0.1c-0.2,0-0.4-0.2-0.5-0.4
					C49,33.7,49.1,33.6,49.1,33.5L49.1,33.5z M47.5,34c0.1-0.1,0.2-0.2,0.3-0.2c0.1-0.1,0.2-0.1,0.4,0c0.1,0.1,0.2,0.1,0.2,0.3
					c0,0.1,0,0.3,0,0.4c-0.1,0.1-0.2,0.2-0.3,0.2c-0.1,0-0.1,0-0.2,0c-0.1,0-0.1,0-0.2,0c-0.1-0.1-0.2-0.2-0.2-0.3
					C47.4,34.2,47.4,34.1,47.5,34L47.5,34z M46.1,34.5c0.1,0,0.2,0,0.4,0c0.1,0,0.2,0.1,0.3,0.2c0.1,0.2,0,0.5-0.2,0.7
					c-0.1,0-0.2,0.1-0.2,0.1c-0.2,0-0.3-0.1-0.4-0.2C45.8,34.9,45.9,34.6,46.1,34.5C46.1,34.5,46.1,34.5,46.1,34.5L46.1,34.5z
					 M44.7,35.5c0.1-0.1,0.2-0.1,0.3-0.1c0.1,0,0.2,0.1,0.3,0.2c0.2,0.2,0.1,0.5-0.1,0.7c0,0,0,0,0,0c-0.1,0.1-0.2,0.1-0.3,0.1
					c-0.1,0-0.3-0.1-0.4-0.2C44.5,35.9,44.5,35.7,44.7,35.5L44.7,35.5z M42.4,38.1c0.1-0.2,0.4-0.3,0.7-0.2s0.3,0.4,0.2,0.7
					c-0.1,0.1-0.2,0.2-0.4,0.2c-0.1,0-0.2,0-0.2-0.1C42.4,38.7,42.3,38.4,42.4,38.1L42.4,38.1z M41.7,39.7c0.1-0.1,0.2-0.2,0.3-0.2
					c0.1,0,0.2,0,0.4,0c0.1,0,0.2,0.1,0.3,0.2c0.1,0.1,0.1,0.2,0,0.4c-0.1,0.2-0.2,0.3-0.5,0.3c-0.1,0-0.1,0-0.2,0
					C41.8,40.4,41.6,40.1,41.7,39.7C41.7,39.8,41.7,39.8,41.7,39.7L41.7,39.7z M41.8,41.1c0.1,0,0.2,0.1,0.3,0.2
					c0.1,0.1,0.1,0.2,0.1,0.4c0,0.2-0.1,0.3-0.2,0.4c-0.1,0.1-0.2,0.1-0.3,0.1h-0.1c-0.3-0.1-0.4-0.3-0.4-0.6
					C41.3,41.3,41.5,41.1,41.8,41.1C41.8,41.1,41.8,41.1,41.8,41.1L41.8,41.1z M41.1,43.2c0-0.3,0.2-0.5,0.5-0.5l0,0
					c0.3,0,0.5,0.2,0.5,0.5c0,0.3-0.2,0.5-0.5,0.5S41.1,43.5,41.1,43.2L41.1,43.2z M41.2,45c0-0.3,0.1-0.5,0.4-0.6
					c0.3,0,0.5,0.1,0.6,0.4c0,0.3-0.1,0.5-0.4,0.6h-0.1C41.5,45.4,41.3,45.2,41.2,45z M42.2,47c-0.3,0-0.5-0.2-0.5-0.5
					c0-0.3,0.2-0.5,0.5-0.5c0.2,0,0.4,0.1,0.5,0.3c0.1,0.2,0,0.5-0.3,0.6C42.3,47,42.2,47,42.2,47z M43.3,48.2
					c0,0.1-0.1,0.2-0.2,0.3c-0.1,0-0.2,0.1-0.2,0.1c-0.2,0-0.3-0.1-0.4-0.2c-0.1-0.2,0-0.5,0.2-0.7c0.2-0.1,0.5-0.1,0.6,0.1
					c0,0,0,0,0,0C43.3,47.9,43.4,48,43.3,48.2z M43.5,36.7c0.1-0.1,0.2-0.2,0.3-0.2c0.1,0,0.3,0,0.3,0.1c0.1,0.1,0.2,0.2,0.2,0.3
					c0,0.3-0.2,0.5-0.4,0.5c0,0,0,0,0,0c-0.1,0-0.2,0-0.3-0.1C43.3,37.2,43.3,36.9,43.5,36.7z M44.1,49.7c-0.1,0.1-0.2,0.1-0.3,0.1
					c-0.1,0-0.3-0.1-0.4-0.2c-0.2-0.2-0.2-0.5,0-0.7c0,0,0,0,0,0c0.1-0.1,0.2-0.1,0.3-0.1c0.1,0,0.2,0.1,0.3,0.2
					C44.4,49.3,44.4,49.6,44.1,49.7C44.2,49.8,44.2,49.8,44.1,49.7L44.1,49.7z M45.4,50.9C45.3,51,45.2,51,45,51
					c-0.1,0-0.2,0-0.3-0.1c-0.1-0.1-0.2-0.2-0.2-0.3c0-0.1,0-0.3,0.1-0.3c0.1-0.1,0.2-0.1,0.3-0.2c0.1,0,0.3,0,0.4,0.1
					c0.1,0.1,0.2,0.2,0.2,0.3C45.5,50.7,45.5,50.8,45.4,50.9L45.4,50.9z M45.5,47.1h0.4v-0.6c0,0,0-0.1,0.1-0.1h10.5
					c0,0,0.1,0,0.1,0.1v0.6H57v0.7H45.5V47.1z M46.8,51.8c-0.1,0.2-0.2,0.2-0.4,0.2c-0.1,0-0.2,0-0.2-0.1c-0.1-0.1-0.2-0.2-0.2-0.3
					c0-0.1,0-0.3,0-0.4c0.1-0.1,0.2-0.2,0.3-0.2c0.1,0,0.2,0,0.4,0C46.8,51.1,47,51.4,46.8,51.8C46.9,51.7,46.8,51.8,46.8,51.8
					L46.8,51.8z M48.4,52.4c-0.1,0.2-0.3,0.3-0.5,0.3c-0.1,0-0.1,0-0.2,0c-0.2-0.1-0.4-0.4-0.3-0.6c0.1-0.3,0.3-0.4,0.6-0.3
					C48.3,51.9,48.5,52.1,48.4,52.4C48.4,52.4,48.4,52.4,48.4,52.4L48.4,52.4z M49.5,53.1L49.5,53.1c-0.3-0.1-0.5-0.3-0.5-0.6l0,0
					c0-0.3,0.3-0.4,0.6-0.4c0.3,0,0.4,0.3,0.4,0.6C50,53,49.8,53.1,49.5,53.1z M51.2,53.3c-0.3,0-0.5-0.2-0.5-0.5c0,0,0,0,0,0
					c0-0.3,0.2-0.5,0.5-0.5c0.3,0,0.5,0.2,0.5,0.5C51.7,53.1,51.5,53.3,51.2,53.3C51.2,53.3,51.2,53.3,51.2,53.3z M53.3,53
					c-0.1,0.1-0.2,0.2-0.3,0.2h-0.1c-0.3,0-0.5-0.2-0.5-0.4c0-0.3,0.2-0.5,0.4-0.5l0,0c0.1,0,0.3,0,0.4,0.1c0.1,0.1,0.2,0.2,0.2,0.3
					C53.4,52.8,53.3,52.9,53.3,53z M54.9,52.5c-0.1,0.1-0.1,0.2-0.3,0.2c-0.1,0-0.1,0-0.2,0c-0.1,0-0.1,0-0.2,0
					c-0.1,0-0.2-0.1-0.2-0.3c0-0.1,0-0.3,0-0.4c0.1-0.1,0.2-0.2,0.3-0.2c0.2-0.1,0.5,0,0.6,0.3C55,52.3,55,52.4,54.9,52.5L54.9,52.5
					z M56.2,52c-0.1,0-0.2,0-0.2,0h-0.1c-0.1,0-0.2-0.1-0.3-0.2c-0.1-0.1-0.1-0.2,0-0.4c0-0.1,0.1-0.2,0.2-0.3c0.1,0,0.2,0,0.4,0
					c0.1,0,0.2,0.1,0.3,0.2C56.5,51.6,56.5,51.9,56.2,52z M57.7,51c-0.1,0.1-0.2,0.1-0.3,0.1c-0.3,0-0.5-0.2-0.5-0.5c0,0,0,0,0,0
					c0-0.1,0.1-0.2,0.2-0.3c0.1-0.1,0.2-0.1,0.3-0.1c0.1,0,0.2,0.1,0.3,0.2C57.9,50.5,57.9,50.8,57.7,51z M57.8,36.2
					c-0.1,0.1-0.2,0.2-0.3,0.2l0,0c-0.1,0-0.2,0-0.3-0.1C57,36.2,57,36.1,57,35.9c0-0.3,0.2-0.5,0.4-0.5c0.1,0,0.3,0,0.4,0.1
					c0.1,0.1,0.2,0.2,0.2,0.3C57.9,36,57.8,36.1,57.8,36.2L57.8,36.2z M58.9,49.7c-0.1,0.1-0.2,0.2-0.3,0.2l0,0
					c-0.2,0-0.4-0.2-0.5-0.4c0-0.1,0-0.3,0.1-0.3c0.1-0.1,0.2-0.2,0.3-0.2c0.1,0,0.3,0,0.3,0.1c0.1,0.1,0.2,0.2,0.2,0.3
					C59.1,49.5,59,49.6,58.9,49.7L58.9,49.7z M58.9,37.4c-0.1,0.1-0.2,0.1-0.3,0.1l0,0c-0.1,0-0.2-0.1-0.3-0.2
					c-0.1-0.1-0.2-0.2-0.2-0.4c0-0.1,0.1-0.2,0.2-0.3c0.2-0.2,0.5-0.2,0.7,0c0.2,0.2,0.2,0.5,0,0.7C58.9,37.4,58.9,37.4,58.9,37.4
					L58.9,37.4z M60,48.3c-0.1,0.1-0.2,0.2-0.4,0.2c-0.1,0-0.2,0-0.2-0.1c-0.1-0.1-0.2-0.2-0.2-0.3c-0.1-0.1-0.1-0.2,0-0.4
					c0.1-0.1,0.2-0.2,0.3-0.2c0.3-0.1,0.5,0.1,0.6,0.3C60,48,60,48.2,60,48.3L60,48.3z M60.8,46.7c-0.1,0.2-0.2,0.3-0.5,0.3
					c-0.1,0-0.1,0-0.2,0c-0.1,0-0.2-0.1-0.3-0.2c-0.1-0.1-0.1-0.2,0-0.4c0-0.1,0.1-0.2,0.2-0.3c0.2-0.1,0.5,0,0.6,0.2
					C60.8,46.5,60.8,46.6,60.8,46.7L60.8,46.7z M61,45.3c-0.1,0.1-0.2,0.1-0.3,0.1h-0.1c-0.3,0-0.4-0.3-0.4-0.5
					c0-0.3,0.2-0.5,0.5-0.5c0.3,0,0.5,0.2,0.5,0.5c0,0,0,0.1,0,0.1C61.1,45.1,61.1,45.2,61,45.3z M60.9,43.7c-0.3,0-0.5-0.2-0.5-0.5
					s0.2-0.5,0.5-0.5s0.5,0.2,0.5,0.5S61.1,43.7,60.9,43.7z"/>
			</g>
			<g>
				<path class="st0" d="M51.2,30.6c-7,0-12.6,5.7-12.6,12.6c0,7,5.7,12.6,12.6,12.6c7,0,12.6-5.7,12.6-12.6
					C63.8,36.2,58.2,30.6,51.2,30.6C51.2,30.6,51.2,30.6,51.2,30.6z M51.2,54.9c-6.4,0-11.7-5.2-11.7-11.7s5.2-11.7,11.7-11.7
					c6.4,0,11.7,5.2,11.7,11.7C62.9,49.7,57.6,54.9,51.2,54.9z"/>
			</g>
		</g>
		<g>
			<path d="M90,104.7h-0.1l-0.2,0.1c-2.5,1.3-10.4,4.3-17.5-2.5c-0.1-0.1-0.3-0.2-0.4-0.2s-0.3,0.1-0.4,0.2
				c-2.1,1.6-11.9,8.2-20.6,0.1l-0.1-0.1c-0.1-0.1-0.2-0.1-0.3-0.1c-0.1,0-0.2,0.1-0.3,0.1l-0.1,0.1c-8.7,8.1-18.5,1.5-20.6-0.1
				c-0.1-0.1-0.2-0.2-0.4-0.2c-0.2,0-0.3,0.1-0.4,0.2c-7.1,6.8-15,3.7-17.5,2.5l-0.2-0.1h-0.1c-0.3,0-0.5,0.2-0.5,0.5c0,0,0,0,0,0
				v3.4c0,0.1,0.1,0.2,0.1,0.3c8.2,7.2,16.1,0.5,17.8-1.3c0.1-0.1,0.1-0.1,0.2-0.2c0.1,0,0.1-0.1,0.2-0.1c0.1,0,0.3,0.1,0.4,0.2
				c9.3,8.9,19.1,1.7,21.1,0l0.2-0.2c0.1,0,0.1-0.1,0.2-0.1c0.1,0,0.1,0,0.2,0.1l0.2,0.2c2,1.7,11.8,8.9,21.1,0l0,0
				c0.2-0.2,0.4-0.2,0.6,0c0.1,0,0.1,0.1,0.1,0.1c1.8,1.8,9.6,8.5,17.9,1.3c0.1-0.1,0.1-0.2,0.2-0.3v-3.4
				C90.5,105,90.3,104.8,90,104.7"/>
		</g>
	</g>
</g>
</svg>
