<?xml version="1.0" encoding="utf-8"?>
<!-- Generator: Adobe Illustrator 22.0.1, SVG Export Plug-In . SVG Version: 6.00 Build 0)  -->
<svg version="1.1" id="Layer_1" xmlns="http://www.w3.org/2000/svg" xmlns:xlink="http://www.w3.org/1999/xlink" x="0px" y="0px"
	 viewBox="0 0 101.5 175.3" style="enable-background:new 0 0 101.5 175.3;" xml:space="preserve">
<style type="text/css">
	.st0{fill:#FFFFFF;}
	.st1{fill:#E5243B;}
	.st2{enable-background:new    ;}
</style>
<title>TARGET 1.4</title>
<g id="WHITE_BG">
	<g>
		<rect y="0" class="st0" width="101.5" height="175.3"/>
	</g>
</g>
<g id="TARGETS">
	<g>
		<g>
			<path class="st1" d="M10.5,129.3H7.8v2h2.9v0.9H6.9v-6.4h3.9v0.9H7.8v1.8h2.6V129.3z"/>
		</g>
		<g>
			<path class="st1" d="M14.9,132l2,0.4v1l-4-1.2c-1.3-0.4-1.6-1.6-1.6-3.2c0-1.9,0.4-3.3,2.5-3.3s2.4,1.4,2.4,3.3
				C16.2,130.5,16,131.6,14.9,132L14.9,132z M12.3,129c0,1.5,0.3,2.4,1.5,2.4s1.5-0.9,1.5-2.4s-0.3-2.4-1.5-2.4S12.3,127.5,12.3,129
				z"/>
		</g>
		<g>
			<path class="st1" d="M16.9,130.2v-4.4h1v4.3c-0.1,0.7,0.4,1.2,1,1.3c0.1,0,0.2,0,0.3,0c0.6,0.1,1.3-0.3,1.4-1c0-0.1,0-0.2,0-0.3
				v-4.3h1v4.4c0,1.1-0.8,2.1-2,2.1c-0.1,0-0.2,0-0.3,0c-1.1,0.1-2.2-0.6-2.3-1.8C16.9,130.4,16.9,130.3,16.9,130.2z"/>
		</g>
		<g>
			<path class="st1" d="M25.4,130.7h-2l-0.5,1.6h-1l2-6.4h1l2,6.4h-1L25.4,130.7z M24.4,127l-0.8,2.8h1.6L24.4,127z"/>
		</g>
		<g>
			<path class="st1" d="M28.3,131.3h2.8v0.9h-3.7v-6.4h1L28.3,131.3z"/>
		</g>
		<g>
			<path class="st1" d="M34.1,132.2h-1v-6.4h2.1c1.7,0,2.2,0.7,2.2,1.9c0.1,0.7-0.3,1.4-1,1.7l1.3,2.8h-1.1l-1.2-2.6h-1.3V132.2z
				 M34.1,128.7h1.2c0.9,0,1-0.5,1-1s-0.1-1-1-1h-1.2V128.7z"/>
		</g>
		<g>
			<path class="st1" d="M38.3,132.2v-6.4h1v6.4H38.3z"/>
		</g>
		<g>
			<path class="st1" d="M40.3,129c0-2,0.7-3.3,2.6-3.3c0.6,0,1.3,0.1,1.8,0.3v1c-0.5-0.2-1.1-0.4-1.7-0.4c-1.3,0-1.8,0.9-1.8,2.4
				s0.5,2.4,1.8,2.4c0.3,0,0.6,0,0.9-0.1v-1.7h-1.1v-0.9h2.1v3.2c-0.6,0.3-1.3,0.4-2,0.4C41,132.3,40.3,131,40.3,129z"/>
		</g>
		<g>
			<path class="st1" d="M49.3,132.2v-2.9h-2.6v2.9h-1v-6.4h1v2.6h2.6v-2.6h1v6.4H49.3z"/>
		</g>
		<g>
			<path class="st1" d="M53.5,126.7v5.5h-1v-5.5h-1.7v-0.9h4.3v0.9L53.5,126.7z"/>
		</g>
		<g>
			<path class="st1" d="M59.8,130.3c0,1.2-0.7,2-2.4,2c-0.6,0-1.3-0.1-1.9-0.4V131c0.6,0.3,1.2,0.4,1.8,0.4c1.2,0,1.5-0.5,1.5-1.1
				s-0.3-0.9-1.2-1c-1.5-0.2-2.2-0.6-2.2-1.8c0-0.9,0.5-1.8,2.3-1.8c0.6,0,1.2,0.1,1.7,0.3v1c-0.5-0.2-1.1-0.3-1.7-0.3
				c-1,0-1.3,0.4-1.3,1c0,0.7,0.4,0.8,1.2,0.9C59.1,128.7,59.8,129,59.8,130.3z"/>
		</g>
		<g>
			<path class="st1" d="M64.1,126.7v5.5h-1v-5.5h-1.7v-0.9h4.3v0.9L64.1,126.7z"/>
		</g>
		<g>
			<path class="st1" d="M65.9,129c0-1.8,0.4-3.3,2.5-3.3s2.4,1.5,2.4,3.3s-0.4,3.3-2.4,3.3S65.9,130.8,65.9,129z M66.9,129
				c0,1.5,0.3,2.4,1.5,2.4s1.5-0.9,1.5-2.4s-0.3-2.4-1.5-2.4S66.9,127.5,66.9,129L66.9,129z"/>
		</g>
		<g>
			<path class="st1" d="M6.8,138c0-1.8,0.4-3.3,2.5-3.3s2.5,1.5,2.5,3.3s-0.4,3.3-2.5,3.3S6.8,139.8,6.8,138z M7.8,138
				c0,1.5,0.3,2.4,1.5,2.4s1.5-0.9,1.5-2.4s-0.3-2.4-1.5-2.4S7.8,136.5,7.8,138L7.8,138z"/>
		</g>
		<g>
			<path class="st1" d="M15.1,134.8h1.2l1.1,5l0.8-5h1l-1.2,6.4h-1.2l-1.2-5.3l-1.1,5.3h-1.2l-1.2-6.4h1l0.8,5L15.1,134.8z"/>
		</g>
		<g>
			<path class="st1" d="M23.4,141.2l-2.8-4.5v4.5h-0.9v-6.4h0.9l2.8,4.5v-4.5h0.9v6.4H23.4z"/>
		</g>
		<g>
			<path class="st1" d="M28.8,138.3h-2.6v2h2.9v0.9h-3.9v-6.4h3.9v0.9h-2.9v1.8h2.6V138.3z"/>
		</g>
		<g>
			<path class="st1" d="M30.9,141.2h-1v-6.4H32c1.7,0,2.2,0.7,2.2,1.9c0.1,0.7-0.3,1.4-1,1.7l1.3,2.8h-1.2l-1.2-2.6h-1.3V141.2z
				 M30.9,137.7h1.3c0.9,0,1-0.5,1-1s-0.1-1-1-1h-1.3V137.7z"/>
		</g>
		<g>
			<path class="st1" d="M39.2,139.3c0,1.2-0.7,2-2.4,2c-0.6,0-1.3-0.1-1.9-0.4V140c0.6,0.3,1.2,0.4,1.8,0.4c1.2,0,1.5-0.5,1.5-1.1
				s-0.3-0.9-1.2-1c-1.5-0.2-2.2-0.6-2.2-1.8c0-0.9,0.5-1.8,2.3-1.8c0.6,0,1.2,0.1,1.7,0.3v1c-0.5-0.2-1.1-0.3-1.7-0.3
				c-1,0-1.3,0.4-1.3,1c0,0.7,0.4,0.8,1.2,0.9C38.4,137.7,39.2,138,39.2,139.3z"/>
		</g>
		<g>
			<path class="st1" d="M43.4,141.2v-2.9h-2.6v2.9h-1v-6.4h1v2.6h2.6v-2.6h1v6.4H43.4z"/>
		</g>
		<g>
			<path class="st1" d="M45.4,141.2v-6.4h1v6.4H45.4z"/>
		</g>
		<g>
			<path class="st1" d="M48.4,141.2h-1v-6.4h2c1.6,0,2.2,0.9,2.2,2s-0.6,2-2.2,2h-1.1L48.4,141.2z M48.4,138h1.1
				c0.6,0.1,1.2-0.4,1.2-1s-0.4-1.2-1-1.2c-0.1,0-0.1,0-0.2,0h-1.1V138z"/>
		</g>
		<g>
			<path class="st1" d="M52,140.3l-0.7,2h-0.7l0.2-2H52z"/>
		</g>
		<g>
			<path class="st1" d="M54.1,134.8h2.1c1.6,0,2,0.8,2,1.7c0,0.5-0.3,1-0.8,1.3c0.6,0.2,1.1,0.8,1,1.5c0,1.1-0.5,1.9-2.2,1.9h-2.2
				V134.8z M56.3,135.7h-1.2v1.8h1.2c0.8,0,1-0.5,1-0.9S57.1,135.7,56.3,135.7L56.3,135.7z M55.1,140.3h1.3c0.9,0,1.1-0.5,1.1-1
				s-0.3-1-1.1-1h-1.3L55.1,140.3z"/>
		</g>
		<g>
			<path class="st1" d="M62.3,139.7h-2l-0.5,1.6h-1l2-6.4h1l2,6.4h-1L62.3,139.7z M61.3,136l-0.8,2.8h1.6L61.3,136z"/>
		</g>
		<g>
			<path class="st1" d="M68.3,139.3c0,1.2-0.7,2-2.4,2c-0.6,0-1.3-0.1-1.9-0.3v-1c0.6,0.3,1.2,0.4,1.8,0.4c1.2,0,1.5-0.5,1.5-1.1
				s-0.3-0.9-1.2-1c-1.6-0.2-2.2-0.6-2.2-1.8c0-0.9,0.5-1.8,2.3-1.8c0.6,0,1.2,0.1,1.7,0.3v1c-0.5-0.2-1.1-0.3-1.7-0.3
				c-1,0-1.3,0.4-1.3,1c0,0.7,0.4,0.8,1.2,0.9C67.5,137.7,68.3,138,68.3,139.3z"/>
		</g>
		<g>
			<path class="st1" d="M69.2,141.2v-6.4h1v6.4H69.2z"/>
		</g>
		<g>
			<path class="st1" d="M73.7,134.7c0.5,0,1,0.1,1.5,0.3v0.9c-0.5-0.2-0.9-0.3-1.4-0.3c-1.2,0-1.7,0.8-1.7,2.4s0.5,2.4,1.7,2.4
				c0.5,0,1-0.1,1.4-0.3v0.9c-0.5,0.2-1,0.3-1.5,0.3c-1.9,0-2.6-1.2-2.6-3.3S71.8,134.7,73.7,134.7z"/>
		</g>
		<g>
			<path class="st1" d="M11.1,148.3c0,1.2-0.7,2-2.4,2c-0.6,0-1.3-0.1-1.9-0.3v-1c0.6,0.3,1.2,0.4,1.8,0.4c1.1,0,1.5-0.5,1.5-1.1
				s-0.3-0.9-1.2-1c-1.6-0.2-2.2-0.6-2.2-1.8c0-0.9,0.5-1.8,2.3-1.8c0.6,0,1.2,0.1,1.7,0.3v1c-0.5-0.2-1.1-0.3-1.7-0.3
				c-1,0-1.3,0.4-1.3,1c0,0.7,0.4,0.8,1.2,0.9C10.3,146.7,11.1,147,11.1,148.3z"/>
		</g>
		<g>
			<path class="st1" d="M15.3,147.3h-2.7v2h2.9v0.9h-3.9v-6.4h3.9v0.9h-2.9v1.8h2.7V147.3z"/>
		</g>
		<g>
			<path class="st1" d="M17.4,150.2h-1v-6.4h2.1c1.6,0,2.2,0.7,2.2,1.9c0.1,0.7-0.3,1.4-1,1.7l1.3,2.8h-1.1l-1.2-2.6h-1.3V150.2z
				 M17.4,146.7h1.3c0.9,0,1-0.5,1-1s-0.1-1-1-1h-1.3V146.7z"/>
		</g>
		<g>
			<path class="st1" d="M25.9,143.8l-2,6.4h-1l-2-6.4h1l1.5,5.2l1.5-5.2L25.9,143.8z"/>
		</g>
		<g>
			<path class="st1" d="M26.5,150.2v-6.4h1v6.4H26.5z"/>
		</g>
		<g>
			<path class="st1" d="M31,143.7c0.5,0,1,0.1,1.5,0.3v0.9c-0.4-0.2-0.9-0.3-1.4-0.3c-1.2,0-1.7,0.8-1.7,2.4s0.5,2.4,1.7,2.4
				c0.5,0,1-0.1,1.4-0.3v0.9c-0.5,0.2-1,0.3-1.5,0.3c-1.9,0-2.6-1.2-2.6-3.3S29.1,143.7,31,143.7z"/>
		</g>
		<g>
			<path class="st1" d="M37,147.3h-2.7v2h2.9v0.9h-3.9v-6.4h3.9v0.9h-2.9v1.8H37V147.3z"/>
		</g>
		<g>
			<path class="st1" d="M42.2,148.3c0,1.2-0.7,2-2.4,2c-0.6,0-1.3-0.1-1.9-0.4V149c0.6,0.3,1.2,0.4,1.8,0.4c1.1,0,1.5-0.5,1.5-1.1
				s-0.3-0.9-1.2-1c-1.6-0.2-2.2-0.6-2.2-1.8c0-0.9,0.5-1.8,2.3-1.8c0.6,0,1.2,0.1,1.7,0.3v1c-0.5-0.2-1.1-0.3-1.7-0.3
				c-1,0-1.3,0.4-1.3,1c0,0.7,0.4,0.8,1.2,0.9C41.5,146.7,42.2,147,42.2,148.3z"/>
		</g>
		<g>
			<path class="st1" d="M43.9,149.3l-0.7,2h-0.7l0.2-2H43.9z"/>
		</g>
		<g>
			<path class="st1" d="M48.1,144.7v5.5h-1v-5.5h-1.6v-0.9h4.3v0.9H48.1z"/>
		</g>
		<g>
			<path class="st1" d="M54.1,147.3h-2.7v2h2.9v0.9h-3.9v-6.4h3.9v0.9h-2.9v1.8h2.7V147.3z"/>
		</g>
		<g>
			<path class="st1" d="M57.6,143.7c0.5,0,1,0.1,1.5,0.3v0.9c-0.5-0.2-0.9-0.3-1.4-0.3c-1.2,0-1.7,0.8-1.7,2.4s0.5,2.4,1.7,2.4
				c0.5,0,1-0.1,1.4-0.3v0.9c-0.5,0.2-1,0.3-1.5,0.3c-1.9,0-2.6-1.2-2.6-3.3S55.7,143.7,57.6,143.7z"/>
		</g>
		<g>
			<path class="st1" d="M63.3,150.2v-2.9h-2.6v2.9h-1v-6.4h1v2.6h2.6v-2.6h1v6.4H63.3z"/>
		</g>
		<g>
			<path class="st1" d="M69,150.2l-2.8-4.5v4.5h-0.9v-6.4h0.9l2.8,4.5v-4.5h0.9v6.4H69z"/>
		</g>
		<g>
			<path class="st1" d="M70.6,147c0-1.8,0.4-3.3,2.5-3.3s2.5,1.5,2.5,3.3s-0.4,3.3-2.5,3.3S70.6,148.8,70.6,147z M71.6,147
				c0,1.5,0.3,2.4,1.5,2.4s1.5-0.9,1.5-2.4s-0.3-2.4-1.5-2.4S71.5,145.5,71.6,147L71.6,147z"/>
		</g>
		<g>
			<path class="st1" d="M77.2,149.3h2.8v0.9h-3.7v-6.4h1L77.2,149.3z"/>
		</g>
		<g>
			<path class="st1" d="M79.9,147c0-1.8,0.4-3.3,2.5-3.3s2.4,1.5,2.4,3.3s-0.4,3.3-2.4,3.3S79.9,148.8,79.9,147z M80.9,147
				c0,1.5,0.3,2.4,1.5,2.4s1.5-0.9,1.5-2.4s-0.3-2.4-1.5-2.4S80.9,145.5,80.9,147L80.9,147z"/>
		</g>
		<g>
			<path class="st1" d="M85.5,147c0-2,0.7-3.3,2.6-3.3c0.6,0,1.2,0.1,1.8,0.3v1c-0.5-0.2-1.1-0.4-1.7-0.4c-1.3,0-1.8,0.9-1.8,2.4
				s0.5,2.4,1.8,2.4c0.3,0,0.6,0,0.9-0.1v-1.7H88v-0.9h2.1v3.2c-0.6,0.3-1.3,0.4-2,0.4C86.2,150.3,85.5,149,85.5,147z"/>
		</g>
		<g>
			<path class="st1" d="M93.6,147.7v2.6h-1v-2.6l-2.2-3.8h1.1l1.6,3l1.6-3h1.1L93.6,147.7z"/>
		</g>
		<g>
			<path class="st1" d="M10.1,157.7h-2l-0.4,1.6h-1l2-6.4h1l2,6.4h-1L10.1,157.7z M9.1,154l-0.8,2.8h1.6L9.1,154z"/>
		</g>
		<g>
			<path class="st1" d="M15.8,159.2l-2.8-4.5v4.5h-0.9v-6.4H13l2.8,4.5v-4.5h0.9v6.4L15.8,159.2z"/>
		</g>
		<g>
			<path class="st1" d="M17.6,159.2v-6.4h1.9c2.1,0,2.7,1.4,2.7,3.2s-0.6,3.2-2.7,3.2H17.6z M18.6,158.3h1c1.3,0,1.7-0.9,1.7-2.3
				s-0.4-2.3-1.7-2.3h-1V158.3z"/>
		</g>
		<g>
			<path class="st1" d="M28,156.3h-2.6v2h2.9v0.9h-3.9v-6.4h3.9v0.9h-2.9v1.8H28V156.3z"/>
		</g>
		<g>
			<path class="st1" d="M31.6,152.7c0.5,0,1,0.1,1.5,0.3v0.9c-0.4-0.2-0.9-0.3-1.4-0.3c-1.2,0-1.7,0.8-1.7,2.4s0.5,2.4,1.7,2.4
				c0.5,0,1-0.1,1.4-0.3v0.9c-0.5,0.2-1,0.3-1.5,0.3c-1.9,0-2.6-1.2-2.6-3.3S29.7,152.7,31.6,152.7z"/>
		</g>
		<g>
			<path class="st1" d="M33.7,156c0-1.8,0.4-3.3,2.5-3.3s2.5,1.5,2.5,3.3s-0.4,3.3-2.5,3.3S33.7,157.8,33.7,156z M34.7,156
				c0,1.5,0.3,2.4,1.5,2.4s1.5-0.9,1.5-2.4s-0.3-2.4-1.5-2.4S34.6,154.5,34.7,156L34.7,156z"/>
		</g>
		<g>
			<path class="st1" d="M43,159.2l-2.8-4.5v4.5h-0.9v-6.4h0.9l2.8,4.5v-4.5h0.9v6.4L43,159.2z"/>
		</g>
		<g>
			<path class="st1" d="M44.6,156c0-1.8,0.4-3.3,2.5-3.3s2.5,1.5,2.5,3.3s-0.4,3.3-2.5,3.3S44.6,157.8,44.6,156z M45.6,156
				c0,1.5,0.3,2.4,1.5,2.4s1.5-0.9,1.5-2.4s-0.3-2.4-1.5-2.4S45.6,154.5,45.6,156L45.6,156z"/>
		</g>
		<g>
			<path class="st1" d="M53.7,158.3h-0.9l-1.6-3.9v4.8h-1v-6.4h1.2l1.7,4.3l1.7-4.3h1.2v6.4h-1v-4.8L53.7,158.3z"/>
		</g>
		<g>
			<path class="st1" d="M57.2,159.2v-6.4h1v6.4H57.2z"/>
		</g>
		<g>
			<path class="st1" d="M61.7,152.7c0.5,0,1,0.1,1.5,0.3v0.9c-0.4-0.2-0.9-0.3-1.4-0.3c-1.2,0-1.7,0.8-1.7,2.4s0.5,2.4,1.7,2.4
				c0.5,0,1-0.1,1.4-0.3v0.9c-0.5,0.2-1,0.3-1.5,0.3c-1.9,0-2.6-1.2-2.6-3.3S59.8,152.7,61.7,152.7z"/>
		</g>
		<g>
			<path class="st1" d="M7.8,168.2h-1v-6.4H9c1.6,0,2.2,0.7,2.2,1.9c0.1,0.7-0.3,1.4-1,1.7l1.3,2.8h-1.2l-1.1-2.6H7.8V168.2z
				 M7.8,164.7h1.3c0.9,0,1-0.5,1-1s-0.1-1-1-1H7.8V164.7z"/>
		</g>
		<g>
			<path class="st1" d="M15.7,165.3H13v2h3v0.9h-3.9v-6.4H16v0.9h-3v1.8h2.7L15.7,165.3z"/>
		</g>
		<g>
			<path class="st1" d="M21,166.3c0,1.2-0.7,2-2.4,2c-0.6,0-1.3-0.1-1.9-0.4V167c0.6,0.3,1.2,0.4,1.8,0.4c1.1,0,1.5-0.5,1.5-1.1
				s-0.3-0.9-1.2-1c-1.5-0.2-2.2-0.6-2.2-1.8c0-0.9,0.5-1.8,2.3-1.8c0.6,0,1.2,0.1,1.7,0.3v1c-0.5-0.2-1.1-0.3-1.7-0.3
				c-1,0-1.3,0.4-1.3,1s0.4,0.8,1.2,0.9C20.2,164.7,21,165,21,166.3z"/>
		</g>
		<g>
			<path class="st1" d="M21.5,165c0-1.8,0.4-3.3,2.5-3.3s2.5,1.5,2.5,3.3s-0.4,3.3-2.5,3.3S21.5,166.8,21.5,165z M22.5,165
				c0,1.5,0.3,2.4,1.5,2.4s1.5-0.9,1.5-2.4s-0.3-2.4-1.5-2.4S22.5,163.5,22.5,165L22.5,165z"/>
		</g>
		<g>
			<path class="st1" d="M27.1,166.2v-4.4h1v4.3c-0.1,0.7,0.4,1.3,1,1.3c0.1,0,0.2,0,0.3,0c0.6,0.1,1.3-0.3,1.4-1c0-0.1,0-0.2,0-0.3
				v-4.3h1v4.4c0,1.1-0.8,2.1-2,2.1c-0.1,0-0.2,0-0.3,0c-1.1,0.2-2.1-0.5-2.3-1.6C27.1,166.5,27.1,166.4,27.1,166.2z"/>
		</g>
		<g>
			<path class="st1" d="M33.6,168.2h-1v-6.4h2.1c1.7,0,2.2,0.7,2.2,1.9c0.1,0.7-0.3,1.4-1,1.7l1.3,2.8h-1.1l-1.2-2.6h-1.3V168.2z
				 M33.6,164.7h1.3c0.9,0,1-0.5,1-1s-0.1-1-1-1h-1.3V164.7z"/>
		</g>
		<g>
			<path class="st1" d="M40.2,161.7c0.5,0,1,0.1,1.5,0.3v0.9c-0.5-0.2-0.9-0.3-1.4-0.3c-1.2,0-1.7,0.8-1.7,2.4s0.5,2.4,1.7,2.4
				c0.5,0,1-0.1,1.4-0.3v0.9c-0.5,0.2-1,0.3-1.5,0.3c-1.9,0-2.6-1.2-2.6-3.3S38.4,161.7,40.2,161.7z"/>
		</g>
		<g>
			<path class="st1" d="M46.2,165.3h-2.7v2h2.9v0.9h-3.9v-6.4h3.9v0.9h-2.9v1.8h2.7V165.3z"/>
		</g>
		<g>
			<path class="st1" d="M51.5,166.3c0,1.2-0.7,2-2.4,2c-0.6,0-1.3-0.1-1.9-0.3v-1c0.6,0.3,1.2,0.4,1.8,0.4c1.2,0,1.5-0.5,1.5-1.1
				s-0.3-0.9-1.2-1c-1.6-0.2-2.2-0.6-2.2-1.8c0-0.9,0.5-1.8,2.3-1.8c0.6,0,1.2,0.1,1.7,0.3v1c-0.5-0.2-1.1-0.3-1.7-0.3
				c-1,0-1.3,0.4-1.3,1s0.4,0.8,1.2,0.9C50.7,164.7,51.5,165,51.5,166.3z"/>
		</g>
	</g>
	<g>
		<rect x="3.3" y="24" class="st1" width="94.8" height="94.8"/>
	</g>
	<g>
		<path class="st1" d="M98.2,20.7H3.3V3.3h94.8V20.7z M4.3,19.7h92.8V4.3H4.3L4.3,19.7z"/>
	</g>
	<g>
		<path class="st1" d="M98.2,172H3.3v-49.8h94.8V172z M4.3,170.8h92.8v-47.4H4.3V170.8z"/>
	</g>
	<g class="st2">
		<path class="st1" d="M6.7,6.9h4.5v1.4H9.9v8.8H8.1V8.3H6.7V6.9z"/>
	</g>
	<g class="st2">
		<path class="st1" d="M11.2,17.1l1.9-10.2h1.9L17,17.1h-1.8l-0.3-1.9h-1.8l-0.3,1.9H11.2z M13.3,13.9h1.4L14,9.8h0L13.3,13.9z"/>
	</g>
	<g class="st2">
		<path class="st1" d="M19.6,12.5v4.7h-1.7V6.9h2.5c1.7,0,2.4,0.9,2.4,2.3v1.3c0,1.1-0.4,1.7-1.4,2l1.6,4.6h-1.8L19.6,12.5z
			 M19.6,8.3v3.2h0.6c0.6,0,0.8-0.3,0.8-0.8V9.2c0-0.6-0.3-0.8-0.8-0.8H19.6z"/>
	</g>
	<g class="st2">
		<path class="st1" d="M26.4,11.7h2.4v5.4h-1.2V16c-0.2,0.8-0.7,1.2-1.6,1.2c-1.5,0-2.1-1.2-2.1-2.7V9.6c0-1.6,0.8-2.7,2.6-2.7
			c1.9,0,2.4,1.1,2.4,2.6v0.9h-1.6v-1c0-0.6-0.2-1-0.9-1c-0.6,0-0.9,0.4-0.9,1v5.5c0,0.6,0.3,1,0.8,1c0.6,0,0.8-0.3,0.8-1V13h-0.8
			V11.7z"/>
	</g>
	<g class="st2">
		<path class="st1" d="M30.2,6.9h4.1v1.4h-2.4v2.9h1.7v1.4h-1.7v3.1h2.4v1.4h-4.1V6.9z"/>
	</g>
	<g class="st2">
		<path class="st1" d="M35.1,6.9h4.5v1.4h-1.4v8.8h-1.7V8.3h-1.4V6.9z"/>
	</g>
	<g class="st2">
		<path class="st1" d="M83.5,6.9v10.2h-1.7V9.3h0l-1.2,1.2h0V8.8l1.6-1.8H83.5z"/>
	</g>
	<g class="st2">
	</g>
	<g class="st2">
		<path class="st1" d="M86.6,10.8c0.7,0,1.2,0.6,1.2,1.2c0,0.7-0.6,1.2-1.2,1.2c-0.7,0-1.2-0.6-1.2-1.2C85.4,11.4,86,10.8,86.6,10.8
			z"/>
	</g>
	<g class="st2">
		<path class="st1" d="M89.1,14.4l3-7.5h1.7v7.2h0.7v1.3h-0.7v1.7h-1.6v-1.7h-3V14.4z M90.6,14.1h1.5V9.9h0L90.6,14.1z"/>
	</g>
	<g>
		<g>
			<g>
				<g>
					<path class="st0" d="M63.3,85.6c1.4,0,2.5-1.1,2.5-2.5c0-1.4-1.1-2.5-2.5-2.5c-1.4,0-2.5,1.1-2.5,2.5c0,0,0,0,0,0
						C60.9,84.5,62,85.6,63.3,85.6z"/>
				</g>
				<g>
					<path class="st0" d="M70.3,95.4l-2-6.7c0,0-0.7-1.9-2.3-1.9h-5.3c-1.6,0-2.3,1.9-2.3,1.9l-2,6.7c0,0-0.4,1.2,0.6,1.5
						s1.3-0.9,1.3-0.9l1.7-5.6c0,0,0.1-0.4,0.4-0.3s0.2,0.6,0.2,0.6l-2.9,10.4h2.7v7.5c0.1,0.7,0.7,1.2,1.4,1.2
						c0.6-0.1,1.1-0.5,1.2-1.2v-7.5h0.7v7.5c0,0.7,0.6,1.3,1.3,1.3s1.3-0.6,1.3-1.3v-7.5h2.7l-2.9-10.4c0,0-0.1-0.5,0.2-0.6
						s0.4,0.3,0.4,0.3l1.7,5.6c0,0,0.3,1.2,1.3,0.9S70.3,95.4,70.3,95.4z"/>
				</g>
				<g>
					<path class="st0" d="M39.1,84.7c1.4,0,2.6-1.2,2.6-2.6c0-1.4-1.2-2.6-2.6-2.6c-1.4,0-2.6,1.2-2.6,2.6l0,0
						C36.5,83.5,37.7,84.7,39.1,84.7C39.1,84.7,39.1,84.7,39.1,84.7z"/>
				</g>
				<g>
					<path class="st0" d="M42.1,85.7h-6c-1.8,0.2-3.1,1.6-3.1,3.4v7.2c0,0.3,0.2,0.6,0.4,0.8l-2.3,12.1c0,0.2,0.1,0.4,0.3,0.5
						c0,0,0,0,0,0h0.1c0.2,0,0.4-0.1,0.4-0.3l2.3-12c0.5-0.1,0.9-0.5,0.8-1v-6.1c0-0.2,0.1-0.5,0.5-0.5s0.3,0.3,0.4,0.5v18.4
						c-0.1,0.8,0.5,1.5,1.3,1.6c0.8,0.1,1.5-0.5,1.6-1.3c0-0.1,0-0.2,0-0.2V97.8c0-0.2,0.1-0.4,0.4-0.4c0,0,0,0,0.1,0l0,0
						c0.2,0,0.4,0.1,0.4,0.4c0,0,0,0,0,0.1v10.6c-0.1,0.8,0.5,1.5,1.3,1.6c0.8,0.1,1.5-0.5,1.6-1.3c0-0.1,0-0.2,0-0.2V90.1
						c0-0.2,0.1-0.5,0.4-0.5s0.5,0.3,0.5,0.5v6.1c0,0.6,0.4,1,1,1s1-0.4,1-1v-7.1C45.2,87.3,43.9,85.8,42.1,85.7z"/>
				</g>
				<g>
					<g>
						<path class="st0" d="M55.2,95.5c-0.4-0.2-0.8,0-1,0.3c-0.4,0.7-0.8,1.4-1.3,2c-0.2,0.2-0.4,0.3-0.6,0.3h-2.5
							c-0.2,0-0.5-0.1-0.6-0.3c-0.3-0.3-1.3-2-1.3-2.1c-0.1-0.2-0.4-0.4-0.6-0.3c-0.4,0-0.7,0.3-0.8,0.7c0,0,0,0,0,0
							c0,0.1,0,0.2,0.1,0.3l2.1,3.8c0.1,0.2,0.1,0.3,0.1,0.5v0.6l0,0c0,0.2,0,0.4-0.1,0.6l-1,4h1.1v2.9l0,0c0,0.6,0.4,1,1,1
							s1-0.4,1-1V106c0,0,0-0.1,0-0.1h0.6c0,0,0,0.1,0,0.1v2.8c0,0.6,0.4,1,1,1s1-0.4,1-1v-2.9h1.1l-1-4c0-0.2-0.1-0.3-0.1-0.5v-0.1
							l0,0v-0.5c0-0.2,0.1-0.3,0.1-0.5l1.9-3.5l0.2-0.4C55.6,96,55.5,95.7,55.2,95.5z"/>
					</g>
					<g>
						<path class="st0" d="M51,96.9c1.1,0,2-1,2-2.1c0-1.1-1-2-2.1-2c-1.1,0-2,0.9-2,2.1C48.9,95.9,49.8,96.9,51,96.9
							C51,96.9,51,96.9,51,96.9z"/>
					</g>
				</g>
			</g>
			<g>
				<g>
					<path class="st0" d="M20.2,81.4c0,0-1.6,1.7-1.6,3c0,1,1.2,1.7,1.6,1.9c0,0,1.6-0.9,1.6-2C21.8,83.1,20.2,81.4,20.2,81.4z"/>
				</g>
				<g>
					<path class="st0" d="M16.6,84.6c0,0-0.2,2.8,1,3.7c0,0,0.4,0.5,2.3,0.8c0,0,0.2-1.8-0.5-2.6C19.4,86.5,19,85.9,16.6,84.6z"/>
				</g>
				<g>
					<path class="st0" d="M16.4,88.1c0,0-0.3,3.1,1.1,4c0,0,0.4,0.6,2.5,0.9c0,0,0.2-2-0.6-2.8C19.4,90.1,19,89.5,16.4,88.1z"/>
				</g>
				<g>
					<path class="st0" d="M16.5,92.1c0,0-0.4,3.4,0.9,4.3c0,0,0.5,0.6,2.6,0.9c0,0,0.3-2-0.5-2.9C19.5,94.4,19.1,93.6,16.5,92.1z"/>
				</g>
				<g>
					<path class="st0" d="M16.1,96.1c0,0-0.2,3.5,1.1,4.4c0.8,0.6,1.8,0.9,2.8,1c0,0,0.2-2.2-0.5-3.1C18.5,97.5,17.3,96.7,16.1,96.1
						z"/>
				</g>
				<g>
					<path class="st0" d="M23.8,84.5c0,0,0.3,2.8-0.9,3.7c0,0-0.4,0.5-2.3,0.9c0,0-0.2-1.8,0.5-2.6C21,86.5,21.4,85.9,23.8,84.5z"/>
				</g>
				<g>
					<path class="st0" d="M24,88c0,0,0.3,3.1-1,4c0,0-0.4,0.6-2.5,0.9c0,0-0.2-2,0.5-2.8C21.1,90.1,21.5,89.5,24,88z"/>
				</g>
				<g>
					<path class="st0" d="M24,92c0,0,0.5,3.3-0.8,4.3c0,0-0.5,0.6-2.6,1c0,0-0.3-2,0.4-2.9C21,94.4,21.5,93.5,24,92z"/>
				</g>
				<g>
					<path class="st0" d="M24.5,96.1c0,0,0.3,3.5-1.1,4.4c-0.8,0.6-1.8,0.9-2.7,1c0,0-0.3-2.2,0.5-3.1
						C22.1,97.4,23.3,96.6,24.5,96.1z"/>
				</g>
				<g>
					<path class="st0" d="M17.2,78.4c0-0.2-0.2-0.3-0.4-0.2c-0.1,0-0.2,0.1-0.2,0.2l0.1,5.6l0.6,0.3L17.2,78.4z"/>
				</g>
				<g>
					<path class="st0" d="M18.4,77.4c0-0.2-0.1-0.3-0.3-0.3c-0.2,0-0.3,0.1-0.3,0.3c0,0,0,0,0,0l0.1,6.7l0,0c0.1-0.5,0.3-1,0.6-1.5
						L18.4,77.4z"/>
				</g>
				<g>
					<path class="st0" d="M19.7,75.8c0-0.2-0.1-0.3-0.3-0.3c-0.2,0-0.3,0.1-0.3,0.3v5.8l0.6-0.8V75.8z"/>
				</g>
				<g>
					<path class="st0" d="M23,78.3c0-0.2,0.1-0.3,0.3-0.3h0c0.2,0,0.3,0.1,0.3,0.3c0,0,0,0,0,0l0.1,5.6l-0.6,0.4L23,78.3z"/>
				</g>
				<g>
					<path class="st0" d="M21.8,77.4c0-0.2,0.1-0.3,0.3-0.3c0,0,0,0,0,0c0.2,0,0.3,0.1,0.3,0.3c0,0,0,0,0,0l0.1,6.7l0,0
						c-0.2-0.5-0.4-1-0.6-1.5L21.8,77.4z"/>
				</g>
				<g>
					<path class="st0" d="M20.5,75.8c0-0.2,0.1-0.3,0.3-0.3c0,0,0,0,0,0c0.2,0,0.3,0.1,0.3,0.3l0.1,5.8c-0.2-0.3-0.5-0.6-0.6-0.8
						L20.5,75.8z"/>
				</g>
				<g>
					<rect x="19.9" y="102" class="st0" width="0.9" height="7.9"/>
				</g>
			</g>
			<g>
				<g>
					<path class="st0" d="M81.1,80.8c0,0-1.6,1.7-1.6,3c0,1.1,1.2,1.7,1.6,1.9c0,0,1.6-0.9,1.6-2C82.7,82.5,81.1,80.8,81.1,80.8z"/>
				</g>
				<g>
					<path class="st0" d="M77.5,84c0,0-0.2,2.8,1,3.7c0,0,0.4,0.5,2.3,0.8c0,0,0.2-1.8-0.5-2.6C80.3,85.9,79.9,85.3,77.5,84z"/>
				</g>
				<g>
					<path class="st0" d="M77.3,87.4c0,0-0.3,3.1,1.1,4c0,0,0.4,0.6,2.5,0.9c0,0,0.2-2-0.6-2.8C80.3,89.5,79.9,88.9,77.3,87.4z"/>
				</g>
				<g>
					<path class="st0" d="M77.4,91.5c0,0-0.4,3.3,0.9,4.3c0,0,0.5,0.6,2.6,0.9c0,0,0.3-2.1-0.5-2.9C80.4,93.8,80,93,77.4,91.5z"/>
				</g>
				<g>
					<path class="st0" d="M77,95.5c0,0-0.2,3.5,1.1,4.4c0.8,0.6,1.8,0.9,2.8,1c0,0,0.2-2.2-0.5-3.1C79.4,96.9,78.3,96.1,77,95.5z"/>
				</g>
				<g>
					<path class="st0" d="M84.7,83.9c0,0,0.3,2.8-0.9,3.7c0,0-0.4,0.5-2.3,0.8c0,0-0.2-1.8,0.5-2.6C81.9,85.8,82.2,85.3,84.7,83.9z"
						/>
				</g>
				<g>
					<path class="st0" d="M84.9,87.4c0,0,0.3,3.1-1,4c0,0-0.4,0.6-2.5,0.9c0,0-0.2-2,0.5-2.8C82,89.5,82.4,88.9,84.9,87.4z"/>
				</g>
				<g>
					<path class="st0" d="M84.9,91.4c0,0,0.5,3.3-0.8,4.3c0,0-0.5,0.6-2.6,1c0,0-0.3-2.1,0.4-2.9C81.9,93.8,82.3,92.9,84.9,91.4z"/>
				</g>
				<g>
					<path class="st0" d="M85.4,95.5c0,0,0.2,3.5-1.1,4.4c-0.8,0.6-1.7,0.9-2.7,1c0,0-0.3-2.2,0.5-3.1C83,96.8,84.1,96,85.4,95.5z"
						/>
				</g>
				<g>
					<path class="st0" d="M78.1,77.8c0-0.2-0.1-0.3-0.3-0.3c-0.2,0-0.3,0.1-0.3,0.3c0,0,0,0,0,0v5.6l0.6,0.3L78.1,77.8z"/>
				</g>
				<g>
					<path class="st0" d="M79.3,76.8c0-0.2-0.1-0.3-0.3-0.3c0,0,0,0,0,0c-0.2,0-0.3,0.1-0.3,0.3v0l0.1,6.7l0,0
						c0.1-0.5,0.3-1,0.6-1.5L79.3,76.8z"/>
				</g>
				<g>
					<path class="st0" d="M80.6,75.2c0-0.2-0.1-0.3-0.3-0.3c-0.2,0-0.3,0.1-0.3,0.3c0,0,0,0,0,0l0,5.8l0.6-0.8V75.2z"/>
				</g>
				<g>
					<path class="st0" d="M83.9,77.7c0-0.2,0.1-0.3,0.3-0.3c0.2,0,0.3,0.1,0.3,0.3v5.6L84,83.7L83.9,77.7z"/>
				</g>
				<g>
					<path class="st0" d="M82.7,76.7c0-0.2,0.1-0.3,0.3-0.3c0,0,0,0,0,0c0.2,0,0.3,0.1,0.3,0.3l0.1,6.7l0,0c-0.2-0.5-0.4-1-0.6-1.5
						L82.7,76.7z"/>
				</g>
				<g>
					<path class="st0" d="M81.4,75.2c0-0.2,0.1-0.3,0.3-0.3h0c0.2,0,0.3,0.1,0.3,0.3V81l-0.6-0.8V75.2z"/>
				</g>
				<g>
					<rect x="80.8" y="101.4" class="st0" width="0.9" height="7.9"/>
				</g>
			</g>
		</g>
		<g>
			<g>
				<path class="st0" d="M44.1,48.5H17.1c-0.1,0-0.2,0.1-0.2,0.2v17.7c0,0.1,0.1,0.2,0.2,0.2h15.5V54.2H39v12.4h5.1
					c0.1,0,0.2-0.1,0.2-0.2V48.7C44.3,48.6,44.2,48.5,44.1,48.5z M27.9,60.2h-6v-6h6V60.2z"/>
			</g>
			<g>
				<path class="st0" d="M30.6,33.2c-0.1-0.1-0.2-0.2-0.4-0.2c-0.2,0-0.3,0.1-0.4,0.2l-0.1,0.1L15.2,46.9c-0.1,0.1-0.1,0.2,0,0.2
					c0,0,0.1,0,0.1,0h30.6c0.1,0,0.1-0.1,0.1-0.2c0,0,0-0.1,0-0.1L30.7,33.3L30.6,33.2z"/>
			</g>
		</g>
		<g>
			<g>
				<path class="st0" d="M70.9,38.1c-7.5,0-13.5,6.1-13.5,13.5s6.1,13.5,13.5,13.5s13.6-6.1,13.6-13.5
					C84.4,44.2,78.4,38.1,70.9,38.1z M83,49.5c0,0.2,0,0.3-0.1,0.4c-0.1,0.1-0.2,0.2-0.4,0.2h-0.1c-0.1,0-0.2,0-0.3-0.1
					c-0.1-0.1-0.2-0.2-0.2-0.4c0-0.2,0-0.3,0.1-0.4c0.1-0.1,0.2-0.2,0.4-0.2C82.6,48.9,82.9,49.2,83,49.5z M82.4,47.4
					c0.1,0.1,0.1,0.3,0,0.4c-0.1,0.1-0.2,0.3-0.3,0.3c-0.1,0-0.1,0-0.2,0c-0.2,0-0.5-0.2-0.6-0.4c-0.1-0.3,0-0.6,0.3-0.7
					C82,46.9,82.3,47.1,82.4,47.4C82.5,47.4,82.5,47.4,82.4,47.4L82.4,47.4z M80.4,45.6c0.1-0.3,0.4-0.5,0.7-0.4
					c0.1,0,0.3,0.1,0.3,0.3c0.2,0.3,0.1,0.6-0.2,0.8c-0.1,0.1-0.2,0.1-0.3,0.1h-0.2C80.5,46.2,80.4,45.9,80.4,45.6L80.4,45.6z
					 M76.2,41.1L76.2,41.1c0.2-0.3,0.5-0.4,0.8-0.2c0,0,0,0,0,0c0.1,0.1,0.2,0.2,0.3,0.3c0.1,0.1,0.1,0.3,0,0.4
					c-0.1,0.1-0.2,0.2-0.4,0.3c0,0-0.1,0-0.2,0c-0.1,0-0.2,0-0.3-0.1c-0.1-0.1-0.2-0.2-0.3-0.4C76.2,41.4,76.2,41.3,76.2,41.1
					L76.2,41.1z M75,50.1c-0.1,0-0.2-0.1-0.2-0.2v-0.8h2.1v0.8c0,0.1-0.1,0.2-0.2,0.2l0,0v5h-1.6L75,50.1L75,50.1z M71,48.5h-6.6
					v-0.5h13v0.5H71z M70.2,50.1C70,50.1,70,50,70,49.9v-0.8h2v0.8c0,0.1-0.1,0.2-0.2,0.2l0,0v5h-1.6V50.1z M65.2,50.1
					c-0.1,0-0.2-0.1-0.2-0.2v-0.8h2.1v0.8c0,0.1-0.1,0.2-0.2,0.2l0,0v5h-1.7V50.1z M71,47.6h-7l-0.3-0.3c-0.1-0.1-0.1-0.2,0-0.3
					c0,0,0,0,0.1,0l7.2-2.7l7.1,2.7c0.1,0.1,0.1,0.2,0,0.3c0,0,0,0,0,0l-0.3,0.3H71z M74.4,40.4c0.1-0.3,0.4-0.5,0.7-0.4
					c0.1,0.1,0.3,0.2,0.3,0.3c0.1,0.1,0.1,0.3,0,0.4c-0.1,0.2-0.3,0.4-0.6,0.4c-0.1,0-0.1,0-0.2,0c-0.1-0.1-0.3-0.2-0.3-0.3
					C74.3,40.7,74.3,40.5,74.4,40.4L74.4,40.4z M72.6,39.6c0.1-0.1,0.3-0.1,0.4-0.1c0.3,0.1,0.5,0.4,0.5,0.7c0,0.2-0.1,0.3-0.2,0.4
					c-0.1,0.1-0.2,0.1-0.3,0.1h-0.1c-0.2,0-0.3-0.1-0.4-0.2c-0.1-0.1-0.1-0.3-0.1-0.4C72.4,39.8,72.5,39.7,72.6,39.6L72.6,39.6z
					 M70.9,39.3c0.3,0,0.6,0.3,0.5,0.7c0,0.3-0.2,0.5-0.5,0.5c-0.3,0-0.6-0.2-0.7-0.5s0.2-0.6,0.5-0.7
					C70.8,39.3,70.9,39.3,70.9,39.3z M68.4,39.7c0.1-0.1,0.2-0.2,0.4-0.2c0.2,0,0.3,0,0.4,0.1c0.1,0.1,0.2,0.2,0.2,0.4
					c0,0.2,0,0.3-0.1,0.4c-0.1,0.1-0.2,0.2-0.4,0.2h-0.1c-0.1,0-0.2,0-0.3-0.1c-0.1-0.1-0.2-0.2-0.2-0.4
					C68.3,40,68.3,39.8,68.4,39.7L68.4,39.7z M66.4,40.3c0.1-0.1,0.2-0.2,0.3-0.3c0.1-0.1,0.3-0.1,0.4,0c0.1,0.1,0.2,0.2,0.3,0.3
					c0.1,0.3,0,0.6-0.3,0.7c0,0,0,0,0,0c-0.1,0-0.1,0-0.2,0c-0.1,0-0.2,0-0.2-0.1c-0.1-0.1-0.3-0.2-0.3-0.3
					C66.3,40.6,66.3,40.5,66.4,40.3L66.4,40.3z M64.8,40.9c0.1-0.1,0.3-0.1,0.4-0.1c0.1,0,0.3,0.1,0.3,0.3c0.2,0.3,0.1,0.6-0.2,0.8
					c-0.3,0.1-0.6,0.1-0.8-0.2C64.4,41.5,64.4,41.1,64.8,40.9L64.8,40.9z M63,42.2c0.1-0.1,0.3-0.1,0.4-0.1c0.2,0,0.3,0.1,0.4,0.2
					c0.2,0.2,0.2,0.6-0.1,0.8c0,0,0,0,0,0c-0.1,0.1-0.2,0.1-0.4,0.1c-0.2,0-0.3-0.1-0.5-0.2C62.7,42.8,62.7,42.4,63,42.2
					C62.9,42.2,62.9,42.2,63,42.2L63,42.2z M60.3,45.4c0.2-0.3,0.5-0.4,0.8-0.2c0.3,0.2,0.4,0.5,0.2,0.8c-0.1,0.2-0.3,0.3-0.5,0.3
					c-0.1,0-0.2,0-0.3-0.1C60.2,46.1,60,45.8,60.3,45.4C60.2,45.5,60.2,45.5,60.3,45.4L60.3,45.4z M59.4,47.4
					c0.1-0.1,0.2-0.3,0.3-0.3c0.1-0.1,0.3-0.1,0.4,0c0.1,0,0.3,0.2,0.3,0.3c0.1,0.1,0.1,0.3,0,0.4c-0.1,0.2-0.3,0.4-0.5,0.4
					c-0.1,0-0.1,0-0.2,0c-0.3-0.1-0.5-0.4-0.4-0.7C59.3,47.5,59.3,47.4,59.4,47.4L59.4,47.4z M59.4,49c0.2,0,0.3,0.1,0.4,0.2
					c0.1,0.1,0.1,0.3,0.1,0.4c0,0.2-0.1,0.3-0.2,0.4c-0.1,0.1-0.2,0.1-0.3,0.1h-0.1c-0.3-0.1-0.5-0.4-0.5-0.7S59.1,48.9,59.4,49z
					 M58.5,51.6c0-0.3,0.2-0.6,0.6-0.6c0,0,0,0,0,0l0,0c0.2,0,0.3,0.1,0.4,0.2c0.1,0.1,0.2,0.3,0.2,0.4c0,0.3-0.3,0.6-0.7,0.5
					C58.8,52.1,58.6,51.9,58.5,51.6z M58.7,53.8c-0.1-0.3,0.2-0.6,0.5-0.7c0.3,0,0.6,0.2,0.7,0.5c0,0.3-0.2,0.6-0.5,0.7h-0.1
					C59,54.2,58.8,54,58.7,53.8L58.7,53.8z M59.8,56.2c-0.2,0-0.5-0.1-0.5-0.4c-0.1-0.3,0-0.6,0.3-0.7c0.3-0.1,0.6,0,0.7,0.3
					c0.1,0.3,0,0.6-0.3,0.7c0,0,0,0,0,0C60,56.2,59.9,56.2,59.8,56.2L59.8,56.2z M61.3,57.6c0,0.1-0.1,0.3-0.3,0.4
					c-0.1,0.1-0.2,0.1-0.3,0.1c-0.3,0-0.6-0.3-0.6-0.6c0-0.3,0.3-0.6,0.6-0.6c0.2,0,0.4,0.1,0.5,0.3C61.3,57.3,61.3,57.5,61.3,57.6
					L61.3,57.6z M61.4,43.6c0.1-0.1,0.2-0.2,0.4-0.2c0.2,0,0.3,0,0.4,0.1c0.1,0.1,0.2,0.2,0.2,0.4c0,0.2,0,0.3-0.1,0.4
					c-0.1,0.1-0.3,0.2-0.4,0.2c-0.1,0-0.3,0-0.4-0.1C61.3,44.3,61.2,43.9,61.4,43.6L61.4,43.6z M62.2,59.6c-0.1,0.1-0.2,0.1-0.4,0.1
					c-0.2,0-0.3-0.1-0.5-0.2c-0.2-0.2-0.2-0.6,0.1-0.8c0.1-0.1,0.3-0.1,0.4-0.1c0.2,0,0.3,0.1,0.4,0.2
					C62.5,59.1,62.5,59.4,62.2,59.6L62.2,59.6z M63.8,61c-0.1,0.1-0.3,0.2-0.4,0.2c-0.1,0-0.3,0-0.4-0.1c-0.1-0.1-0.2-0.2-0.2-0.4
					c0-0.3,0.2-0.6,0.5-0.6c0.2,0,0.3,0,0.4,0.1c0.1,0.1,0.2,0.2,0.2,0.4C63.9,60.7,63.9,60.9,63.8,61z M64,56.4h0.5v-0.8
					c0,0,0-0.1,0.1-0.1h12.8c0,0,0.1,0,0.1,0.1v0.8H78v0.8H64L64,56.4z M65.5,62.1c-0.1,0.2-0.3,0.3-0.5,0.3c-0.1,0-0.2,0-0.3-0.1
					c-0.3-0.2-0.4-0.5-0.2-0.8s0.5-0.4,0.8-0.2C65.6,61.5,65.7,61.8,65.5,62.1L65.5,62.1z M67.4,62.9c-0.1,0.2-0.3,0.4-0.6,0.4
					c-0.1,0-0.1,0-0.2,0c-0.3-0.1-0.5-0.4-0.4-0.7c0.1-0.3,0.4-0.5,0.7-0.4C67.3,62.2,67.5,62.6,67.4,62.9
					C67.4,62.9,67.4,62.9,67.4,62.9L67.4,62.9z M68.8,63.8h-0.1c-0.3-0.1-0.5-0.4-0.5-0.7l0,0c0.1-0.3,0.4-0.5,0.7-0.5
					c0.3,0.1,0.5,0.4,0.5,0.7C69.3,63.6,69.1,63.8,68.8,63.8L68.8,63.8z M70.8,64c-0.3,0-0.6-0.3-0.6-0.6c0-0.3,0.3-0.6,0.6-0.6
					c0,0,0,0,0,0c0.3,0,0.6,0.3,0.6,0.6C71.4,63.7,71.2,64,70.8,64z M73.4,63.5c-0.1,0.1-0.2,0.2-0.4,0.2h-0.1
					c-0.3,0-0.6-0.2-0.6-0.5c0-0.3,0.2-0.6,0.5-0.6c0.2,0,0.3,0,0.4,0.1c0.1,0.1,0.2,0.2,0.2,0.4C73.5,63.2,73.5,63.4,73.4,63.5
					L73.4,63.5z M75.4,62.9c-0.1,0.1-0.2,0.2-0.3,0.3c-0.1,0-0.1,0-0.2,0c-0.1,0-0.2,0-0.2,0c-0.1-0.1-0.2-0.2-0.3-0.3
					c-0.1-0.1-0.1-0.3,0-0.5c0.1-0.1,0.2-0.2,0.3-0.3c0.3-0.1,0.6,0.1,0.7,0.4C75.4,62.6,75.4,62.8,75.4,62.9L75.4,62.9z M77,62.3
					c-0.1,0.1-0.2,0.1-0.3,0.1h-0.2c-0.2,0-0.3-0.1-0.4-0.3c-0.1-0.1-0.1-0.3,0-0.5c0-0.1,0.1-0.3,0.3-0.3c0.1-0.1,0.3-0.1,0.4-0.1
					c0.2,0,0.3,0.1,0.4,0.3C77.4,61.8,77.3,62.2,77,62.3L77,62.3z M78.7,61.1c-0.1,0.1-0.2,0.1-0.4,0.1c-0.1,0-0.3-0.1-0.4-0.2
					c-0.1-0.1-0.1-0.3-0.1-0.4c0-0.2,0.1-0.3,0.2-0.4c0.1-0.1,0.3-0.1,0.4-0.1c0.2,0,0.3,0.1,0.4,0.2C79.1,60.5,79.1,60.9,78.7,61.1
					L78.7,61.1z M78.9,43c-0.1,0.1-0.2,0.2-0.4,0.2l0,0c-0.1,0-0.3,0-0.4-0.1c-0.2-0.2-0.3-0.6-0.1-0.8c0.2-0.2,0.6-0.3,0.8-0.1
					c0.1,0.1,0.2,0.2,0.2,0.4C79.1,42.7,79,42.9,78.9,43z M80.3,59.6c-0.1,0.1-0.2,0.2-0.4,0.2l0,0c-0.1,0-0.3,0-0.4-0.1
					c-0.2-0.2-0.2-0.6,0-0.8c0.1-0.1,0.2-0.2,0.4-0.2c0.2,0,0.3,0,0.4,0.1c0.1,0.1,0.2,0.2,0.2,0.4C80.5,59.3,80.4,59.5,80.3,59.6
					L80.3,59.6z M80.3,44.5c-0.1,0.1-0.2,0.1-0.4,0.1l0,0c-0.2,0-0.3-0.1-0.4-0.2c-0.1-0.1-0.1-0.3-0.1-0.4c0-0.2,0.1-0.3,0.2-0.4
					c0.2-0.2,0.6-0.2,0.8,0.1c0.1,0.1,0.1,0.3,0.1,0.4C80.5,44.3,80.4,44.4,80.3,44.5L80.3,44.5z M81.6,57.8
					c-0.1,0.2-0.3,0.3-0.5,0.3c-0.1,0-0.2,0-0.3-0.1c-0.3-0.2-0.4-0.5-0.2-0.8c0,0,0,0,0,0c0.1-0.1,0.2-0.2,0.3-0.3
					c0.2,0,0.3,0,0.4,0.1C81.6,57.2,81.7,57.5,81.6,57.8z M82.5,55.8c-0.1,0.2-0.3,0.4-0.6,0.4c-0.1,0-0.1,0-0.2,0
					c-0.1-0.1-0.3-0.2-0.3-0.3c-0.1-0.1-0.1-0.3,0-0.5c0.1-0.1,0.2-0.3,0.3-0.3c0.3-0.1,0.6,0,0.8,0.3
					C82.5,55.6,82.5,55.7,82.5,55.8L82.5,55.8z M82.8,54.1c-0.1,0.1-0.2,0.1-0.3,0.1h-0.1c-0.3-0.1-0.5-0.4-0.4-0.7
					c0.1-0.3,0.3-0.5,0.6-0.4c0.3,0.1,0.5,0.4,0.5,0.7C83,53.9,82.9,54.1,82.8,54.1z M82.6,52.2c-0.3,0-0.6-0.3-0.6-0.6v0
					c0-0.2,0.1-0.3,0.2-0.4c0.1-0.1,0.3-0.2,0.4-0.2c0.3,0,0.6,0.3,0.6,0.6C83.2,52,83,52.2,82.6,52.2z"/>
			</g>
			<g>
				<path class="st0" d="M70.9,36.2c-8.5,0-15.5,6.9-15.5,15.5s6.9,15.5,15.5,15.5c8.5,0,15.5-6.9,15.5-15.4c0,0,0,0,0,0
					C86.3,43.1,79.4,36.2,70.9,36.2z M70.9,65.9c-7.9,0-14.3-6.4-14.3-14.3S63,37.4,70.9,37.3s14.3,6.4,14.3,14.3c0,0,0,0,0,0
					C85.1,59.5,78.8,65.9,70.9,65.9z"/>
			</g>
		</g>
	</g>
</g>
</svg>
