<?xml version="1.0" encoding="utf-8"?>
<!-- Generator: Adobe Illustrator 22.0.1, SVG Export Plug-In . SVG Version: 6.00 Build 0)  -->
<svg version="1.1" id="Layer_1" xmlns="http://www.w3.org/2000/svg" xmlns:xlink="http://www.w3.org/1999/xlink" x="0px" y="0px"
	 viewBox="0 0 101.5 148.1" style="enable-background:new 0 0 101.5 148.1;" xml:space="preserve">
<style type="text/css">
	.st0{fill:#FFFFFF;}
	.st1{fill:#E5243B;}
	.st2{enable-background:new    ;}
</style>
<title>TARGET 1.1</title>
<g id="WHITE_BG">
	<g>
		<rect y="0" class="st0" width="101.5" height="148.1"/>
	</g>
</g>
<g id="TARGETS">
	<g>
		<g>
			<path class="st1" d="M10.5,129.3H7.8v2h2.9v0.9H6.9v-6.4h3.9v0.9H7.8v1.8h2.6V129.3z"/>
		</g>
		<g>
			<path class="st1" d="M12.6,132.2h-0.9v-6.4h2.1c1.6,0,2.2,0.7,2.2,1.9c0.1,0.7-0.3,1.4-1,1.7l1.3,2.8h-1.2l-1.1-2.6h-1.3V132.2z
				 M12.6,128.7h1.3c0.9,0,1-0.5,1-1s-0.1-1-1-1h-1.3V128.7z"/>
		</g>
		<g>
			<path class="st1" d="M20.1,130.6H18l-0.5,1.6h-1l2-6.4h1l2,6.4h-1L20.1,130.6z M19.1,127l-0.8,2.8h1.6L19.1,127z"/>
		</g>
		<g>
			<path class="st1" d="M22.1,132.2v-6.4H24c2.1,0,2.7,1.4,2.7,3.2s-0.6,3.2-2.7,3.2H22.1z M23,131.3h1c1.3,0,1.7-0.9,1.7-2.3
				s-0.4-2.3-1.7-2.3h-1L23,131.3z"/>
		</g>
		<g>
			<path class="st1" d="M27.7,132.2v-6.4h1v6.4H27.7z"/>
		</g>
		<g>
			<path class="st1" d="M32.3,125.7c0.5,0,1,0.1,1.5,0.3v0.9c-0.5-0.2-0.9-0.3-1.4-0.3c-1.2,0-1.7,0.8-1.7,2.4
				c0,1.6,0.5,2.4,1.7,2.4c0.5,0,1-0.1,1.4-0.3v0.9c-0.5,0.2-1,0.3-1.5,0.3c-1.9,0-2.6-1.2-2.6-3.3S30.4,125.7,32.3,125.7z"/>
		</g>
		<g>
			<path class="st1" d="M37.7,130.6h-2l-0.5,1.6h-1l2-6.4h1l2,6.4h-1L37.7,130.6z M36.7,127l-0.8,2.8h1.6L36.7,127z"/>
		</g>
		<g>
			<path class="st1" d="M41.4,126.7v5.5h-1v-5.5h-1.6v-0.9H43v0.9L41.4,126.7z"/>
		</g>
		<g>
			<path class="st1" d="M47.3,129.3h-2.7v2h2.9v0.9h-3.9v-6.4h3.9v0.9h-2.9v1.8h2.7V129.3z"/>
		</g>
		<g>
			<path class="st1" d="M53.8,129.3h-2.6v2H54v0.9h-3.8v-6.4H54v0.9h-2.9v1.8h2.7L53.8,129.3z"/>
		</g>
		<g>
			<path class="st1" d="M58.5,125.8h1.1l-1.9,3.2l1.9,3.3h-1.2l-1.4-2.6l-1.4,2.6h-1.1l1.9-3.3l-1.8-3.1h1.1l1.4,2.5L58.5,125.8z"/>
		</g>
		<g>
			<path class="st1" d="M62.6,126.7v5.5h-1v-5.5H60v-0.9h4.3v0.9L62.6,126.7z"/>
		</g>
		<g>
			<path class="st1" d="M65.9,132.2h-1v-6.4H67c1.7,0,2.2,0.7,2.2,1.9c0.1,0.7-0.3,1.4-1,1.7l1.3,2.8h-1.1l-1.2-2.6h-1.3V132.2z
				 M65.9,128.7h1.3c0.9,0,1-0.5,1-1s-0.1-1-1-1h-1.3V128.7z"/>
		</g>
		<g>
			<path class="st1" d="M73.8,129.3h-2.7v2h2.9v0.9h-3.9v-6.4H74v0.9h-2.9v1.8h2.7L73.8,129.3z"/>
		</g>
		<g>
			<path class="st1" d="M78.3,131.3h-0.9l-1.6-3.9v4.8h-0.9v-6.4h1.2l1.7,4.3l1.7-4.3h1.2v6.4h-1v-4.8L78.3,131.3z"/>
		</g>
		<g>
			<path class="st1" d="M85.6,129.3h-2.7v2h2.9v0.9H82v-6.4h3.9v0.9h-3v1.8h2.7L85.6,129.3z"/>
		</g>
		<g>
			<path class="st1" d="M7.8,141.2h-1v-6.4h2.1c1.6,0,2.2,1,2.2,2s-0.6,2-2.2,2H7.8V141.2z M7.8,137.9H9c0.6,0,1.1-0.5,1.1-1.1
				c0-0.6-0.5-1.1-1.1-1.1H7.8V137.9z"/>
		</g>
		<g>
			<path class="st1" d="M11.7,138c0-1.8,0.4-3.3,2.5-3.3s2.5,1.5,2.5,3.3s-0.4,3.3-2.4,3.3S11.7,139.8,11.7,138z M12.7,138
				c0,1.5,0.3,2.4,1.5,2.4s1.5-0.9,1.5-2.4s-0.3-2.4-1.5-2.4S12.7,136.5,12.7,138L12.7,138z"/>
		</g>
		<g>
			<path class="st1" d="M21.8,134.8l-2,6.5h-1l-2-6.5h1l1.5,5.2l1.5-5.2L21.8,134.8z"/>
		</g>
		<g>
			<path class="st1" d="M26,138.3h-2.6v2h2.9v0.9h-3.9v-6.4h3.9v0.9h-2.9v1.8H26V138.3z"/>
		</g>
		<g>
			<path class="st1" d="M28.2,141.2h-1v-6.4h2.1c1.6,0,2.2,0.7,2.2,1.9c0.1,0.7-0.3,1.4-1,1.7l1.3,2.8h-1.1l-1.2-2.6h-1.3V141.2z
				 M28.2,137.7h1.2c0.9,0,1-0.5,1-1s-0.1-1-1-1h-1.2V137.7z"/>
		</g>
		<g>
			<path class="st1" d="M34.4,135.7v5.5h-1v-5.5h-1.6v-0.9h4.3v0.9H34.4z"/>
		</g>
		<g>
			<path class="st1" d="M39.6,138.6v2.6h-1v-2.6l-2.2-3.8h1.1l1.6,3l1.6-3h1.1L39.6,138.6z"/>
		</g>
	</g>
	<g>
		<rect x="3.3" y="24" class="st1" width="94.8" height="94.8"/>
	</g>
	<g>
		<path class="st1" d="M98.2,20.7H3.3V3.3h94.8V20.7z M4.3,19.7h92.8V4.3H4.3L4.3,19.7z"/>
	</g>
	<g>
		<path class="st1" d="M98.2,144.8H3.3v-22.6h94.8V144.8z M4.3,143.8h92.8v-20.6H4.3L4.3,143.8z"/>
	</g>
	<g class="st2">
		<path class="st1" d="M6.7,6.9h4.5v1.4H9.9v8.8H8.1V8.3H6.7V6.9z"/>
	</g>
	<g class="st2">
		<path class="st1" d="M11.2,17.1l1.9-10.2h1.9L17,17.1h-1.8l-0.3-1.9h-1.8l-0.3,1.9H11.2z M13.3,13.9h1.4L14,9.8h0L13.3,13.9z"/>
	</g>
	<g class="st2">
		<path class="st1" d="M19.6,12.4v4.7h-1.7V6.9h2.5c1.7,0,2.4,0.9,2.4,2.3v1.3c0,1.1-0.4,1.7-1.4,2l1.6,4.6h-1.8L19.6,12.4z
			 M19.6,8.3v3.2h0.6c0.6,0,0.8-0.3,0.8-0.8V9.2c0-0.6-0.3-0.8-0.8-0.8H19.6z"/>
	</g>
	<g class="st2">
		<path class="st1" d="M26.4,11.7h2.4v5.4h-1.2V16c-0.2,0.8-0.7,1.2-1.6,1.2c-1.5,0-2.1-1.2-2.1-2.7V9.6c0-1.6,0.8-2.7,2.6-2.7
			c1.9,0,2.4,1.1,2.4,2.6v0.9h-1.6v-1c0-0.6-0.2-1-0.9-1c-0.6,0-0.9,0.4-0.9,1v5.5c0,0.6,0.3,1,0.8,1c0.6,0,0.8-0.3,0.8-1V13h-0.8
			V11.7z"/>
	</g>
	<g class="st2">
		<path class="st1" d="M30.2,6.9h4.1v1.4h-2.4v2.9h1.7v1.4h-1.7v3.1h2.4v1.4h-4.1V6.9z"/>
	</g>
	<g class="st2">
		<path class="st1" d="M35.1,6.9h4.5v1.4h-1.4v8.8h-1.7V8.3h-1.4V6.9z"/>
	</g>
	<g class="st2">
		<path class="st1" d="M85.5,6.9v10.2h-1.7V9.3h0l-1.2,1.2h0V8.8l1.6-1.8H85.5z"/>
	</g>
	<g class="st2">
	</g>
	<g class="st2">
		<path class="st1" d="M88.6,10.8c0.7,0,1.2,0.6,1.2,1.2c0,0.7-0.6,1.2-1.2,1.2c-0.7,0-1.2-0.6-1.2-1.2
			C87.3,11.4,87.9,10.8,88.6,10.8z"/>
	</g>
	<g class="st2">
		<path class="st1" d="M94.1,6.9v10.2h-1.7V9.3h0l-1.2,1.2h0V8.8l1.6-1.8H94.1z"/>
	</g>
	<g>
		<g>
			<g>
				<path class="st0" d="M83.6,81.5c1.5,0,2.7-1.2,2.7-2.8c0-1.5-1.2-2.7-2.8-2.7c-1.5,0-2.7,1.2-2.7,2.7
					C80.8,80.3,82,81.5,83.6,81.5C83.6,81.5,83.6,81.5,83.6,81.5z"/>
			</g>
			<g>
				<path class="st0" d="M86.8,82.6h-0.2h-6h-0.2c-1.9,0.2-3.4,1.7-3.4,3.7v7.6c-0.1,0.6,0.4,1.1,1,1.2c0.6,0.1,1.1-0.4,1.2-1
					c0-0.1,0-0.1,0-0.2v-6.5c0-0.2,0.1-0.6,0.5-0.6s0.4,0.3,0.4,0.5v19.6c0,0.8,0.7,1.5,1.5,1.5c0.8,0,1.5-0.7,1.5-1.5c0,0,0,0,0,0
					V95.6c0-0.2,0.2-0.4,0.4-0.4c0,0,0,0,0,0l0,0c0.2,0,0.4,0.2,0.4,0.4c0,0,0,0,0,0v11.3c0.1,0.8,0.8,1.5,1.7,1.4
					c0.8-0.1,1.4-0.7,1.4-1.4V87.3c0-0.2,0.1-0.5,0.4-0.5s0.5,0.3,0.5,0.6v6.5c0,0.6,0.5,1.1,1.1,1.1c0.6,0,1.1-0.5,1.1-1.1v-7.6
					C90.1,84.4,88.7,82.8,86.8,82.6z"/>
			</g>
			<g>
				<path class="st0" d="M60.4,82.9c1.4,0,2.6-1.2,2.6-2.6s-1.2-2.6-2.6-2.6s-2.6,1.2-2.6,2.6l0,0C57.8,81.7,59,82.9,60.4,82.9
					C60.4,82.9,60.4,82.9,60.4,82.9z"/>
			</g>
			<g>
				<path class="st0" d="M63.5,87.6C63.9,87.5,64,88,64,88l1.7,5.9c0,0,0.3,1.3,1.4,0.9s0.7-1.6,0.7-1.6l-2.2-7c0,0-0.8-2-2.5-2
					h-5.5c-1.7,0-2.5,2-2.5,2l-2.2,7c0,0-0.4,1.3,0.7,1.6s1.4-0.9,1.4-0.9l1.8-5.9c0,0,0.1-0.4,0.4-0.4s0.2,0.6,0.2,0.6l-3,11h2.8
					v7.9c0.1,0.7,0.7,1.3,1.5,1.2c0.7-0.1,1.2-0.6,1.2-1.2v-7.9h0.8v7.9c0.1,0.7,0.7,1.3,1.5,1.2c0.7-0.1,1.2-0.6,1.2-1.2v-7.9h2.8
					l-3-11C63.4,88.2,63.2,87.7,63.5,87.6z"/>
			</g>
			<g>
				<path class="st0" d="M44.9,82.8c1.4,0,2.6-1.2,2.6-2.6s-1.2-2.6-2.6-2.6s-2.6,1.2-2.6,2.6l0,0C42.3,81.7,43.4,82.8,44.9,82.8z"
					/>
			</g>
			<g>
				<path class="st0" d="M50.1,86.1c0,0-0.8-2-2.5-2h-5.5c-1.7,0-2.5,2-2.5,2l-2.2,7c0,0-0.4,1.3,0.7,1.6s1.4-0.9,1.4-0.9l1.7-5.8
					c0,0,0.1-0.4,0.4-0.4s0.2,0.6,0.2,0.6l-3,11h2.8v7.9c0.1,0.7,0.7,1.3,1.5,1.2c0.7-0.1,1.2-0.6,1.2-1.2v-7.9h0.8v7.9
					c0.1,0.7,0.7,1.3,1.5,1.2c0.7-0.1,1.2-0.6,1.2-1.2v-7.9h2.8l-3-11c0,0-0.1-0.5,0.2-0.6s0.4,0.4,0.4,0.4l1.7,5.9
					c0,0,0.3,1.3,1.4,0.9s0.7-1.6,0.7-1.6L50.1,86.1z"/>
			</g>
			<g>
				<path class="st0" d="M19.9,81.8c1.5,0,2.7-1.2,2.7-2.7c0-1.5-1.2-2.7-2.7-2.7c-1.5,0-2.7,1.2-2.7,2.7c0,0,0,0,0,0
					C17.1,80.6,18.3,81.8,19.9,81.8C19.9,81.8,19.9,81.8,19.9,81.8z"/>
			</g>
			<g>
				<path class="st0" d="M23,82.9h-0.2h-5.9h-0.2c-1.9,0.2-3.3,1.7-3.3,3.6V94c0,0.3,0.2,0.6,0.4,0.8l-2.4,12.8
					c0,0.2,0.1,0.4,0.3,0.5c0,0,0,0,0,0h0.1c0.2,0,0.4-0.1,0.4-0.3l2.4-12.7c0.5-0.1,0.9-0.5,0.9-1v-6.5c0-0.2,0.1-0.6,0.5-0.6
					c0.3,0,0.4,0.3,0.4,0.5V107c0.1,0.8,0.9,1.4,1.7,1.3c0.6-0.1,1.1-0.6,1.3-1.3V95.8c0-0.2,0.2-0.4,0.4-0.4c0,0,0,0,0.1,0l0,0
					c0.2,0,0.4,0.2,0.4,0.4c0,0,0,0,0,0V107c0.1,0.8,0.9,1.4,1.7,1.3c0.6-0.1,1.1-0.6,1.3-1.3V87.5c0-0.2,0.1-0.5,0.4-0.5
					s0.5,0.3,0.5,0.6V94c-0.1,0.6,0.4,1.1,1,1.2s1.1-0.4,1.2-1c0-0.1,0-0.1,0-0.2v-7.5C26.3,84.6,24.9,83.1,23,82.9z"/>
			</g>
			<g>
				<path class="st0" d="M72.3,94.6c1.2,0,2.2-1,2.2-2.2s-1-2.2-2.2-2.2s-2.2,1-2.2,2.2l0,0C70.1,93.6,71.1,94.6,72.3,94.6z"/>
			</g>
			<g>
				<path class="st0" d="M76.8,98.9c-1.3-3.4-1.6-3.4-2.8-3.4h-3.4c-1.2,0-1.4,0-2.8,3.4c-0.2,0.5-1,2.4-1,2.5s-0.3,0.8,0.4,1.1
					s0.9-0.6,0.9-0.6l1.4-3.3c0,0,0-0.1,0.1-0.1s0,0.1,0,0.1v8.7l0,0c0,0.6,0.5,1.2,1.1,1.2c0,0,0,0,0.1,0c0.6,0,1.2-0.4,1.2-1
					c0,0,0-0.1,0-0.1v-3.5c0,0,0-0.5,0.3-0.5s0.3,0.5,0.3,0.5v3.5c0,0.6,0.5,1.2,1.1,1.2c0,0,0,0,0.1,0c0.6,0,1.1-0.5,1.1-1.1
					c0,0,0,0,0-0.1l0,0v-8.7c0-0.1,0-0.1,0-0.1s0.1,0.1,0.1,0.1l1.2,3c0,0,0.3,0.8,1,0.5s0.3-1,0.3-1S76.9,99.3,76.8,98.9z"/>
			</g>
			<g>
				<path class="st0" d="M36.4,93.3c-0.4-0.2-0.9,0-1.1,0.4c0,0,0,0,0,0c-0.4,0.7-0.9,1.4-1.4,2.1c-0.2,0.2-0.4,0.3-0.7,0.3h-2.6
					c-0.3,0-0.5-0.1-0.7-0.3c-0.3-0.3-1.4-2.2-1.4-2.2c-0.1-0.2-0.4-0.4-0.7-0.4c-0.4,0-0.8,0.4-0.8,0.8c0,0.1,0,0.2,0.1,0.3l2.2,4
					c0.1,0.2,0.1,0.3,0.1,0.5v0.6l0,0c0,0.2,0,0.5-0.1,0.7l-1,4.2h1.2v3.1l0,0c0.1,0.6,0.6,1,1.2,1c0.5,0,0.9-0.5,1-1v-3
					c0,0,0-0.1,0-0.1h0.6c0,0,0,0.1,0,0.1v3c0.1,0.6,0.6,1,1.2,1c0.5,0,0.9-0.5,1-1v-3.1h1.2l-1.1-4.2c0-0.2-0.1-0.4-0.1-0.6v-0.2
					l0,0v-0.6c0-0.2,0.1-0.4,0.1-0.5l2-3.7c0,0,0.1-0.3,0.2-0.4C36.9,94,36.8,93.5,36.4,93.3C36.4,93.3,36.4,93.3,36.4,93.3z"/>
			</g>
			<g>
				<path class="st0" d="M31.9,94.7c1.2,0,2.2-1,2.2-2.2s-1-2.2-2.2-2.2c-1.2,0-2.2,1-2.2,2.2S30.7,94.7,31.9,94.7L31.9,94.7z"/>
			</g>
		</g>
		<g>
			<path class="st0" d="M87.2,34.4l-8.7,3l2.4,2.1l-14,16.7l-8.2-8c-0.3-0.3-0.7-0.4-1.2-0.4c-0.4,0-0.8,0.2-1.1,0.6L43.6,65.2H14.9
				c-0.8,0-1.5,0.7-1.5,1.5s0.7,1.5,1.5,1.5h29.5c0.5,0,0.9-0.2,1.2-0.6l12.3-16l8.2,7.9c0.6,0.6,1.5,0.6,2.1,0c0,0,0.1-0.1,0.1-0.1
				l15-17.9l2.3,2L87.2,34.4z"/>
		</g>
		<g>
			<g>
				<path class="st0" d="M26.6,57.9c-0.4,0.3-0.9,0.5-1.4,0.6c-1.4,0.4-2.8,0.6-4.3,0.5c-0.7,0-1.4-0.1-2.1-0.2
					c-0.4-0.1-0.9-0.1-1.3-0.2L17,58.4c-0.6-0.2-1.2-0.4-1.6-0.8c-0.2-0.1-0.3-0.3-0.5-0.5v0.6c0,0.2,0,0.8,0,0.8
					c0,0.4,0.2,0.7,0.5,0.9c1,0.7,2.1,1.1,3.3,1.2c0.8,0.1,1.6,0.2,2.4,0.2c1.2,0,2.3-0.1,3.5-0.4l0,0c0.6-0.1,1.2-0.4,1.8-0.7l0,0
					c0.6-0.3,0.9-0.8,0.9-1.2c0,0,0-1.3,0-1.4C27.1,57.5,26.9,57.7,26.6,57.9z"/>
			</g>
			<g>
				<path class="st0" d="M20.5,53.7c3.4,0,6.2-1,6.2-2.3c0,0,0.1-1.2,0-1.4c0-0.2,0-0.3-0.1-0.5c0.4-0.2,0.6-0.6,0.7-1
					c0,0,0-1.3,0-1.6c-0.2-1.6-3.3-2.4-6.3-2.4s-6.3,0.9-6.3,2.5c0,0.1,0.1,1.4,0.1,1.4c0,0.1,0,0.2,0.1,0.3
					c-0.5,0.3-0.7,0.7-0.8,1.3c0,0.1,0.1,1.4,0.1,1.4c0,0.4,0.2,0.7,0.5,0.9c1,0.7,2.1,1.1,3.3,1.2C18.9,53.7,19.7,53.7,20.5,53.7z
					 M21.1,45.1c3.3,0,5.6,1,5.6,1.9s-2.3,1.9-5.6,1.9s-5.6-1-5.6-1.9S17.8,45.1,21.1,45.1z M14.9,49.9c0-0.3,0.2-0.6,0.5-0.7
					c0.2,0.2,0.4,0.3,0.6,0.5c1.6,0.7,3.4,1.1,5.2,1c1.5,0,3-0.2,4.4-0.7c0.2-0.1,0.4-0.2,0.5-0.2c0,0,0,0.1,0,0.2
					c0,0.9-2.3,1.9-5.6,1.9S14.9,50.8,14.9,49.9z"/>
			</g>
			<g>
				<path class="st0" d="M18.6,58.4c0.8,0.1,1.6,0.2,2.4,0.2c1.2,0,2.3-0.1,3.5-0.4l0,0c0.6-0.1,1.2-0.4,1.8-0.7l0,0
					c0.1-0.1,0.3-0.2,0.4-0.3c0.2-0.2,0.4-0.4,0.5-0.6c0-0.1,0.1-0.2,0.1-0.3c0,0,0-1.3,0-1.4c-0.2,0.3-0.7,1.1-3.2,1.6
					c-1,0.2-2,0.2-3.1,0.2c-1.7,0-3.4-0.3-5-1c-0.3-0.1-0.5-0.3-0.8-0.5c-0.1-0.1-0.3-0.3-0.4-0.5c0,0,0,0.6,0,0.6v0.9
					c0,0.4,0.2,0.7,0.5,0.9C16.3,57.9,17.5,58.3,18.6,58.4z"/>
			</g>
			<g>
				<path class="st0" d="M27.2,52.2c0-0.1-0.1-0.1-0.2-0.1l-0.3-0.1c-0.1,0.1-0.2,0.3-0.3,0.4c0.1,0,0.2,0.1,0.2,0.1
					c0.2,0.1,0.3,0.3,0.3,0.5c0,0.2-0.1,0.3-0.2,0.4c-0.1,0.1-0.2,0.1-0.2,0.2l-0.4,0.2c0,0-0.4,0.2-0.5,0.2l-0.5,0.2l-0.8,0.2
					c0,0-0.7,0.1-1,0.2l-1,0.1c-0.1,0-1,0.1-1.4,0.1c-0.7,0-1.3,0-2-0.1c-0.5-0.1-1-0.2-1.4-0.3c-0.5-0.1-1-0.3-1.5-0.5
					c-0.3-0.1-0.5-0.3-0.8-0.5c-0.2-0.2-0.4-0.4-0.5-0.7v0.8v0.8c0,0.4,0.2,0.7,0.5,0.9c1,0.7,2.1,1.1,3.3,1.2
					c0.8,0.1,1.6,0.2,2.4,0.2c1.2,0,2.4-0.1,3.6-0.4l0,0c0.6-0.1,1.2-0.4,1.8-0.7l0,0c0.1-0.1,0.3-0.2,0.4-0.3
					c0.2-0.2,0.4-0.4,0.5-0.6c0-0.1,0.1-0.2,0.1-0.3c0,0,0-1.3,0-1.3c0-0.1,0-0.2,0-0.3C27.3,52.3,27.3,52.2,27.2,52.2z"/>
			</g>
			<g>
				<path class="st0" d="M34.8,49.2c3.4,0,6.2-1,6.2-2.3c0,0,0.1-1.2,0-1.4c0-0.2,0-0.3-0.1-0.5c0.4-0.2,0.6-0.6,0.7-1
					c0,0,0.1-1.3,0-1.6c-0.2-1.6-3.3-2.4-6.3-2.4s-6.3,0.9-6.3,2.5c0,0.1,0.1,1.4,0.1,1.4c0,0.1,0,0.2,0.1,0.3
					c-0.5,0.3-0.8,0.7-0.8,1.3c0,0.1,0.1,1.4,0.1,1.4c0,0.4,0.2,0.7,0.5,0.9c1,0.7,2.1,1.1,3.4,1.2C33.2,49.1,34,49.2,34.8,49.2z
					 M35.5,40.6c3.3,0,5.6,1,5.6,1.9s-2.3,1.9-5.6,1.9s-5.6-1-5.6-1.9S32.2,40.6,35.5,40.6z M29.2,45.4c0-0.2,0.2-0.5,0.5-0.7
					c0.2,0.2,0.4,0.3,0.6,0.5c1.6,0.7,3.4,1.1,5.2,1c1.5,0,3-0.2,4.4-0.7c0.2-0.1,0.4-0.2,0.5-0.2c0,0,0,0.1,0,0.2
					c0,0.9-2.3,1.9-5.6,1.9S29.2,46.3,29.2,45.4z"/>
			</g>
			<g>
				<path class="st0" d="M41.7,47.9c0-0.1-0.1-0.2-0.2-0.2l-0.2-0.1l-0.3-0.1c-0.1,0.1-0.2,0.3-0.3,0.4c0.1,0,0.2,0.1,0.2,0.1
					c0.2,0.1,0.3,0.3,0.3,0.5c0,0.2-0.1,0.3-0.2,0.4c-0.1,0.1-0.1,0.2-0.2,0.2l-0.4,0.2c0,0-0.4,0.2-0.5,0.2c0,0-0.4,0.1-0.5,0.2
					l-0.7,0.2c0,0-0.7,0.1-1,0.2l-1,0.1c-0.1,0-1,0.1-1.4,0.1c-0.7,0-1.3,0-2-0.1c-0.5-0.1-1-0.2-1.4-0.3c-0.5-0.1-1-0.3-1.5-0.5
					c-0.3-0.1-0.5-0.3-0.8-0.5c-0.2-0.2-0.4-0.4-0.5-0.7v0.8v0.8c0,0.4,0.2,0.7,0.5,0.9c1,0.7,2.1,1.1,3.3,1.2
					c0.8,0.1,1.6,0.2,2.4,0.2c1.2,0,2.4-0.1,3.6-0.4l0,0c0.6-0.2,1.2-0.4,1.8-0.7l0,0c0.1-0.1,0.3-0.2,0.4-0.3
					c0.2-0.2,0.4-0.4,0.5-0.6c0-0.1,0.1-0.2,0.1-0.3c0,0,0-1.3,0-1.3C41.8,48.1,41.8,48,41.7,47.9z"/>
			</g>
			<g>
				<path class="st0" d="M41,53.4c-0.4,0.3-0.9,0.5-1.4,0.6c-1.4,0.4-2.8,0.6-4.3,0.5c-0.7,0-1.4-0.1-2.1-0.2
					c-0.4-0.1-0.9-0.1-1.3-0.2L31.4,54c-0.6-0.2-1.2-0.4-1.7-0.8c-0.2-0.1-0.3-0.3-0.5-0.5v0.6c0,0.2,0,0.8,0,0.8
					c0,0.4,0.2,0.7,0.5,0.9c1,0.7,2.1,1.1,3.3,1.2c0.8,0.1,1.6,0.2,2.4,0.2c1.2,0,2.4-0.1,3.5-0.4l0,0c0.6-0.1,1.2-0.4,1.8-0.7l0,0
					c0.6-0.3,0.9-0.8,0.9-1.2c0,0,0-1.3,0-1.4C41.5,53,41.3,53.2,41,53.4z"/>
			</g>
			<g>
				<path class="st0" d="M29.7,52.7c1,0.7,2.1,1.1,3.3,1.3c0.8,0.1,1.6,0.2,2.4,0.2c1.2,0,2.3-0.1,3.5-0.4l0,0
					c0.6-0.2,1.3-0.4,1.8-0.8l0,0c0.1-0.1,0.3-0.2,0.4-0.3c0.2-0.2,0.4-0.4,0.5-0.6c0-0.1,0.1-0.2,0.1-0.3c0,0,0-1.3,0-1.4
					c-0.2,0.3-0.7,1.1-3.2,1.6c-1,0.2-2.1,0.3-3.2,0.3c-1.7,0-3.4-0.3-5-1c-0.3-0.1-0.5-0.3-0.8-0.5c-0.1-0.1-0.3-0.3-0.4-0.5
					c0,0,0,0.6,0,0.6v0.9C29.2,52.2,29.4,52.5,29.7,52.7z"/>
			</g>
			<g>
				<path class="st0" d="M41.8,57.1c-0.2,0.3-0.5,0.5-0.8,0.7c-0.4,0.3-0.9,0.5-1.4,0.6c-1.4,0.4-2.8,0.6-4.3,0.5
					c-0.7,0-1.4-0.1-2.1-0.2c-0.4-0.1-0.9-0.1-1.3-0.2l-0.6-0.2c-0.6-0.2-1.2-0.4-1.7-0.8c-0.2-0.1-0.3-0.3-0.5-0.5v0.6
					c0,0.2,0,0.8,0,0.8c0,0.4,0.2,0.7,0.5,0.9c1,0.7,2.1,1.1,3.3,1.2c0.8,0.1,1.6,0.2,2.4,0.2c1.2,0,2.3-0.1,3.5-0.4l0,0
					c0.6-0.1,1.2-0.4,1.8-0.7l0,0c0.6-0.3,0.9-0.8,0.9-1.2C41.8,58.5,41.8,57.3,41.8,57.1z"/>
			</g>
			<g>
				<path class="st0" d="M33.1,58.4c0.8,0.1,1.6,0.2,2.4,0.2c1.2,0,2.4-0.1,3.5-0.4l0,0c0.6-0.1,1.2-0.4,1.8-0.7l0,0
					c0.1-0.1,0.3-0.2,0.4-0.3c0.2-0.2,0.4-0.4,0.5-0.6c0-0.1,0.1-0.2,0.1-0.3c0,0,0-1.3,0-1.4c-0.2,0.3-0.7,1.1-3.2,1.6
					c-1,0.2-2.1,0.3-3.2,0.3c-1.7,0-3.4-0.3-5-1c-0.3-0.1-0.5-0.3-0.8-0.5c-0.1-0.1-0.3-0.3-0.4-0.5c0,0,0,0.6,0,0.6v0.9
					c0,0.3,0.2,0.7,0.5,0.9C30.6,57.9,31.8,58.3,33.1,58.4z"/>
			</g>
		</g>
	</g>
</g>
</svg>
